<svg viewBox="0 0 41 36" fill="none" xmlns="http://www.w3.org/2000/svg">
<path d="M6.52074 0.848802V35.0262H0V0.848802H6.52074ZM27.5381 0C27.4806 0 27.4245 0.0007175 27.3669 0.0007175C22.8311 0.041615 18.5147 1.83967 15.2132 5.06483C11.9116 8.28999 9.98777 12.5878 9.79745 17.1662C9.5915 22.099 11.3413 26.7785 14.7232 30.3431C18.1085 33.9105 22.6585 35.875 27.5353 35.875C32.5391 35.875 37.6899 33.8215 41 30.511V15.328H26.8997V21.6534H34.654V27.2184L34.5702 27.2743C32.6186 28.5744 30.0755 29.4146 27.5345 29.4146C24.3921 29.4146 21.4662 28.1425 19.2966 25.8322C17.1292 23.5247 16.027 20.5033 16.1918 17.324C16.49 11.5675 21.1928 6.80405 26.8982 6.47974C30.0691 6.29463 33.0923 7.60837 35.5019 9.94383C35.5871 10.0271 35.6844 10.1304 35.7959 10.2588L40.3175 5.69049C40.2167 5.58071 40.118 5.47452 40.0242 5.37551C36.8086 1.98389 32.4191 0 27.5381 0Z" fill="white"/>
</svg>
