<?xml version="1.0" encoding="utf-8"?>
<!-- Generator: Adobe Illustrator 24.0.0, SVG Export Plug-In . SVG Version: 6.00 Build 0)  -->
<svg version="1.1" id="Layer_1" xmlns="http://www.w3.org/2000/svg" xmlns:xlink="http://www.w3.org/1999/xlink" x="0px" y="0px"
	 viewBox="0 0 145 33.54" style="enable-background:new 0 0 138 33.54;" xml:space="preserve">
<style type="text/css">
	.st0{fill:#0047BB;}
	.st1{fill:#FF671F;}
	.st2{fill:#333333;}
</style>
<g>
	<g>
		<g>
			<g>
				<g>
					<polygon class="st0" points="15.59,2.68 15.59,19.67 18.7,17.85 18.7,8.91 21.82,7.1 21.82,19.63 12.47,25.07 12.47,4.51 
						10.91,3.61 9.35,4.51 9.35,25.07 6.23,23.27 6.23,8.1 4.67,7.2 3.12,8.11 3.12,21.49 0,19.7 0,6.32 10.88,0 					"/>
					<g>
						<polygon class="st1" points="18.7,4.44 18.7,8.02 21.82,6.22 						"/>
					</g>
				</g>
			</g>
		</g>
		<g>
			<path class="st2" d="M46.51,3.15v18.76h-3.76l0.19-14.63l-5.6,11.52h-1.68l-5.6-11.52l0.19,14.63h-3.76V3.15h5.07l4.94,10.45
				l4.96-10.45H46.51z"/>
			<path class="st2" d="M48.4,8.8h3.76v13.11H48.4V8.8z"/>
			<path class="st1" d="M69.14,6.26h-5.66v15.65h-3.76V6.26h-5.68V3.15h15.1V6.26z"/>
			<path class="st1" d="M82.61,21.91l-3.5-7.07c-0.24,0.03-0.51,0.03-0.77,0.03h-3.82v7.05h-3.76V3.15h7.84
				c4.11,0,6.8,2.38,6.8,5.93c0,2.08-1.04,3.78-2.8,4.77l4.22,8.06H82.61z M78.42,12.53c1.87,0,3.12-1.26,3.12-3.13
				c0-1.87-1.28-3.13-3.18-3.13h-3.84v6.27H78.42z"/>
			<path class="st1" d="M100.98,17.62h-7.42l-1.39,4.28h-4l6.64-18.76h4.91l6.64,18.76h-4L100.98,17.62z M100.02,14.66l-2.75-8.54
				l-2.75,8.54H100.02z"/>
			<path class="st1" d="M123.34,12.53c0,5.63-3.76,9.38-9.42,9.38h-6.22V3.15h6.22C119.58,3.15,123.34,6.9,123.34,12.53z
				 M119.36,12.53c0-3.77-2.24-6.27-5.58-6.27h-2.22V18.8h2.22C117.12,18.8,119.36,16.3,119.36,12.53z"/>
			<path class="st1" d="M138,18.8v3.11h-13.31V3.15h13.26l-0.53,3.11h-8.97v4.67h8.78v2.94h-8.78v4.92H138z"/>
			<circle class="st1" cx="50.28" cy="5.03" r="1.88"/>
		</g>
	</g>
	<g>
		<path class="st2" d="M85.84,31.39c0.03,0.16,0.12,0.38,0.17,0.48c-1.45,1.11-1.65,1.28-1.77,1.44c-0.07-0.1-0.27-0.29-0.38-0.36
			c0.16-0.14,0.49-0.47,0.49-0.89v-2.71h-1.22v-0.56h1.77v3.28L85.84,31.39z M85.02,28.06c-0.27-0.31-0.79-0.84-1.19-1.2l0.36-0.38
			c0.4,0.35,0.93,0.86,1.2,1.15L85.02,28.06z M90.2,32.68v0.57h-4.73v-0.57h1.88v-6.27h0.58v2.5h1.71v0.56h-1.71v3.21H90.2z"/>
		<path class="st2" d="M97.97,29.72c-0.32,0.8-0.76,1.45-1.31,1.98c0.81,0.61,1.84,1.02,3.09,1.22c-0.13,0.13-0.28,0.36-0.36,0.52
			c-1.29-0.25-2.34-0.7-3.17-1.37c-0.86,0.68-1.93,1.12-3.19,1.44c-0.06-0.14-0.23-0.4-0.35-0.52c1.25-0.26,2.31-0.67,3.12-1.3
			c-0.54-0.52-0.95-1.17-1.27-1.93l0.52-0.16c0.27,0.66,0.66,1.25,1.17,1.73c0.5-0.48,0.89-1.06,1.15-1.78L97.97,29.72z M99.55,28
			h-6.71v-0.57h3.25c-0.11-0.27-0.33-0.66-0.52-0.96l0.54-0.19c0.22,0.31,0.47,0.74,0.58,1.01l-0.35,0.14h3.21V28z M95.35,28.46
			c-0.52,0.66-1.35,1.36-2.03,1.81c-0.1-0.12-0.32-0.34-0.45-0.44c0.69-0.39,1.45-0.99,1.92-1.59L95.35,28.46z M97.57,28.23
			c0.71,0.48,1.59,1.19,2.01,1.69l-0.48,0.38c-0.39-0.49-1.26-1.24-1.98-1.73L97.57,28.23z"/>
		<path class="st2" d="M108.83,30.35c0,0-0.01,0.18-0.02,0.27c-0.15,1.74-0.3,2.42-0.54,2.66c-0.15,0.16-0.3,0.21-0.52,0.22
			c-0.2,0.02-0.57,0.02-0.96-0.01c-0.01-0.16-0.07-0.37-0.16-0.51c0.38,0.04,0.74,0.04,0.88,0.04c0.13,0,0.21-0.01,0.28-0.09
			c0.17-0.16,0.31-0.71,0.43-2.06h-0.95c-0.41,1.09-1.07,2.04-1.81,2.66c-0.1-0.09-0.33-0.28-0.47-0.36
			c0.72-0.54,1.31-1.37,1.69-2.3h-1.06c-0.57,1.01-1.45,1.88-2.35,2.46c-0.09-0.1-0.31-0.31-0.45-0.41c0.84-0.47,1.63-1.2,2.15-2.04
			h-1.09c-0.4,0.4-0.84,0.75-1.27,1.02c-0.09-0.11-0.31-0.31-0.45-0.41c0.76-0.43,1.51-1.07,2-1.79h-0.86v-2.99h5v2.99h-3.46
			c-0.13,0.23-0.31,0.45-0.47,0.66H108.83z M103.87,27.97h3.84v-0.77h-3.84V27.97z M103.87,29.2h3.84v-0.77h-3.84V29.2z"/>
		<path class="st2" d="M115.54,30.96c-0.09,0.49-0.3,0.93-0.7,1.33c0.99,0.45,2.33,0.56,4.07,0.61c-0.1,0.14-0.21,0.38-0.24,0.57
			c-1.81-0.08-3.23-0.25-4.29-0.81c-0.52,0.34-1.25,0.63-2.27,0.84c-0.06-0.13-0.22-0.38-0.34-0.51c0.93-0.18,1.6-0.4,2.07-0.67
			c-0.38-0.29-0.7-0.65-0.96-1.1l0.48-0.2c0.27,0.41,0.58,0.73,0.95,0.97c0.36-0.3,0.54-0.66,0.63-1.03h-2.32v-3h2.42V27.3h-3.13
			v-0.52h6.76v0.52h-3.03v0.66h2.54v3H115.54z M113.17,29.22h1.86v-0.78h-1.86V29.22z M115.01,30.47c0.02-0.16,0.02-0.32,0.02-0.48
			v-0.31h-1.86v0.79H115.01z M117.59,29.68h-1.97V30c0,0.16-0.01,0.32-0.02,0.47h1.99V29.68z M115.62,28.44v0.78h1.97v-0.78H115.62z
			"/>
		<path class="st2" d="M122.6,27.52c-0.24,0.4-0.52,0.76-0.8,1.03c-0.12-0.09-0.34-0.24-0.48-0.32c0.53-0.46,0.98-1.17,1.23-1.9
			l0.56,0.13c-0.07,0.2-0.15,0.38-0.23,0.56h1.9v0.49h-1.1c0.15,0.26,0.29,0.55,0.36,0.74l-0.51,0.21
			c-0.08-0.26-0.27-0.63-0.45-0.95H122.6z M121.77,29.36h0.56v4.12h-0.56V29.36z M122.54,28.4c0.33,0.28,0.72,0.68,0.89,0.95
			l-0.45,0.32c-0.16-0.28-0.54-0.7-0.87-0.99L122.54,28.4z M126.27,32.55h-2.85v-2.68h2.85V32.55z M127.87,32.79
			c0,0.33-0.08,0.48-0.3,0.56c-0.23,0.09-0.61,0.09-1.2,0.09c-0.02-0.16-0.1-0.37-0.19-0.52c0.44,0.02,0.86,0.02,0.97,0.01
			c0.13-0.01,0.16-0.04,0.16-0.15v-3.57h-3.64V28.7h4.22V32.79z M123.93,30.32v0.65h1.82v-0.65H123.93z M125.75,32.1v-0.7h-1.82v0.7
			H125.75z M128.15,27.04v0.49h-1.27c0.19,0.27,0.35,0.56,0.44,0.77l-0.5,0.23c-0.09-0.27-0.33-0.66-0.56-0.99h-0.6
			c-0.18,0.34-0.4,0.63-0.62,0.88c-0.1-0.09-0.34-0.26-0.48-0.33c0.44-0.42,0.8-1.06,0.99-1.74l0.55,0.13
			c-0.05,0.2-0.12,0.38-0.2,0.57H128.15z"/>
		<path class="st2" d="M133.02,26.55c-0.2,0.59-0.45,1.18-0.74,1.73v5.21h-0.56v-4.26c-0.2,0.31-0.41,0.59-0.63,0.84
			c-0.06-0.14-0.23-0.44-0.34-0.57c0.69-0.76,1.33-1.92,1.71-3.1L133.02,26.55z M135.65,30.92c-0.08,0.49-0.24,0.96-0.59,1.38
			c0.81,0.34,1.8,0.52,2.94,0.6c-0.12,0.13-0.27,0.37-0.34,0.54c-1.16-0.11-2.19-0.34-3.01-0.74c-0.41,0.32-0.97,0.59-1.74,0.81
			c-0.08-0.13-0.23-0.36-0.35-0.48c0.7-0.16,1.21-0.38,1.58-0.63c-0.45-0.29-0.84-0.66-1.12-1.1l0.49-0.19
			c0.26,0.38,0.61,0.69,1.05,0.94c0.31-0.34,0.46-0.73,0.53-1.13h-1.86v-2.95h1.92v-0.65h-2.12V26.8h4.79v0.52h-2.1v0.65h1.84v2.95
			H135.65z M133.78,29.24h1.37v-0.81h-1.37V29.24z M135.14,30.47c0.01-0.13,0.01-0.28,0.01-0.41v-0.39h-1.37v0.81H135.14z
			 M136.98,29.67h-1.27v0.39c0,0.13,0,0.28-0.02,0.41h1.28V29.67z M135.72,28.43v0.81h1.27v-0.81H135.72z"/>
	</g>
</g>
</svg>
