<?xml version="1.0" encoding="utf-8"?>
<!-- Generator: Adobe Illustrator 26.5.0, SVG Export Plug-In . SVG Version: 6.00 Build 0)  -->
<svg version="1.1" id="Layer_1" xmlns="http://www.w3.org/2000/svg" xmlns:xlink="http://www.w3.org/1999/xlink" x="0px" y="0px"
	 viewBox="0 0 205 40" style="enable-background:new 0 0 205 40;" xml:space="preserve">
<style type="text/css">
	.st0{fill:url(#SVGID_1_);}
	.st1{fill:#FFFFFF;}
	.st2{fill:#231F20;}
	.st3{fill:#659C13;}
	.st4{fill:none;stroke:#231F20;stroke-width:0.9192;stroke-miterlimit:10;}
</style>
<g>
	<g>
		<g>
			<g>
				
					<radialGradient id="SVGID_1_" cx="-408.0494" cy="19.2684" r="13.6985" gradientTransform="matrix(1.1857 0 0 1.1857 507.8514 -3.3434)" gradientUnits="userSpaceOnUse">
					<stop  offset="0" style="stop-color:#BBD765"/>
					<stop  offset="0.9839" style="stop-color:#7AB34D"/>
				</radialGradient>
				<path class="st0" d="M36.7,29.7c-5.6,7-15.8,8.1-22.8,2.5c-7-5.6-8.1-15.8-2.5-22.8c5.6-7,15.8-8.1,22.8-2.5
					C41.2,12.5,42.3,22.7,36.7,29.7z"/>
				<g>
					<path class="st1" d="M33.3,8c-6.4-5.1-15.7-4.1-20.8,2.3C7.3,16.6,8.4,26,14.7,31.1c6.4,5.1,15.7,4.1,20.8-2.3
						C40.7,22.4,39.7,13.1,33.3,8z M34.7,28.1C30,34,21.4,34.9,15.5,30.2C9.6,25.5,8.6,16.8,13.4,11c4.7-5.9,13.3-6.8,19.2-2.1
						C38.5,13.6,39.4,22.2,34.7,28.1z"/>
				</g>
			</g>
		</g>
		<g>
			<g>
				<path class="st1" d="M23.3,10.4c0,0.5,0.3,0.7,0.7,0.8V9.8c-0.7-0.2-1.1-0.4-1.1-1c0-0.6,0.5-1,1.1-1.1V7.4h0.3v0.3
					c0.6,0.1,0.9,0.4,1,1h-0.4c-0.1-0.3-0.3-0.5-0.6-0.6v1.3l0.3,0.1c0.3,0.1,0.8,0.3,0.8,1c0,0.7-0.5,1.1-1.1,1.1V12H24v-0.4
					c-0.7-0.1-1.1-0.5-1.2-1.2H23.3z M24,8.2c-0.3,0-0.6,0.2-0.6,0.6c0,0.4,0.2,0.5,0.6,0.6V8.2z M24.3,11.2c0.4,0,0.7-0.2,0.7-0.7
					c0-0.4-0.3-0.5-0.7-0.6V11.2z"/>
			</g>
		</g>
		<g>
			<g>
				<path class="st1" d="M15.7,26.3H16c-0.1-0.2-0.2-0.5-0.2-0.8c0-0.7,0.5-1,1.2-1c0.8,0,1.2,0.4,1.2,1.3h-0.4
					c0-0.6-0.3-0.9-0.7-0.9c-0.4,0-0.7,0.3-0.7,0.7c0,0.3,0.1,0.5,0.3,0.8h0.8v0.2h-0.7c0.1,0.1,0.1,0.2,0.1,0.4
					c0,0.5-0.3,0.7-0.6,1l0,0c0.2-0.1,0.3-0.1,0.5-0.1c0.2,0,0.3,0,0.5,0.1c0.1,0,0.3,0.1,0.4,0.1c0.2,0,0.3-0.1,0.5-0.2l0.2,0.3
					c-0.2,0.2-0.5,0.2-0.7,0.2c-0.2,0-0.3,0-0.5-0.1c-0.2-0.1-0.3-0.1-0.5-0.1c-0.2,0-0.4,0.1-0.5,0.2l-0.2-0.3
					c0.3-0.2,0.6-0.5,0.6-0.9c0-0.2-0.1-0.3-0.1-0.5h-0.4V26.3z"/>
			</g>
		</g>
		<g>
			<g>
				<path class="st1" d="M32.2,25c-0.2-0.2-0.5-0.4-0.7-0.4c-0.3,0-0.5,0.1-0.6,0.3c-0.1,0.2-0.2,0.4-0.3,0.7H32l-0.1,0.3h-1.3
					c0,0.1,0,0.1,0,0.2c0,0,0,0.1,0,0.1h1.3l-0.1,0.3h-1.1c0.1,0.7,0.4,1.1,1,1.1c0.2,0,0.3,0,0.4-0.1c0.1-0.1,0.2-0.1,0.4-0.3v0.5
					c-0.2,0.1-0.5,0.2-0.8,0.2c-0.8,0-1.3-0.5-1.5-1.5h-0.4l0.1-0.3H30c0,0,0-0.1,0-0.1c0-0.1,0-0.1,0-0.2h-0.4l0.1-0.3h0.3
					c0.1-0.4,0.2-0.7,0.5-1c0.3-0.3,0.6-0.4,1-0.4c0.3,0,0.6,0.1,0.9,0.3L32.2,25z"/>
			</g>
		</g>
		<g>
			<g>
				<path class="st1" d="M14.9,17.5h-0.7v-0.3h0.7V17l-0.1-0.2h-0.6v-0.3h0.5l-0.9-1.8h0.6l0.9,1.8l0.9-1.8h0.5l-0.9,1.8h0.5v0.3
					h-0.6L15.4,17v0.2h0.7v0.3h-0.7v0.9h-0.5V17.5z"/>
			</g>
		</g>
		<g>
			<g>
				<path class="st1" d="M33.4,15.9h-0.3c-0.2,0-0.3,0.1-0.3,0.3l-0.2,0.7h0.5l-0.1,0.3h-0.5l-0.3,1.6c-0.2,0.9-0.4,1.2-1,1.2H31
					l0.1-0.4c0.5,0,0.6-0.1,0.7-0.5l0.4-1.9h-0.5l0.1-0.3h0.5l0.1-0.7c0.1-0.4,0.4-0.7,0.8-0.7h0.4L33.4,15.9z"/>
			</g>
		</g>
		<path class="st1" d="M24.1,12.8c-2.7,0-4.9,2.2-4.9,5c0,1.7,2.2,4,2.2,5.2c0,0.6,0,0.5,0,1c0,0.5,0.4,1,1,1c0.3,0,3.3,0,3.6,0
			c0.5,0,1-0.4,1-1c0-0.5,0-0.4,0-1c0-1.1,2.2-3.4,2.2-5.2C29,15.1,26.8,12.8,24.1,12.8z M24.1,28.8c0.4,0,0.8-0.2,1.1-0.4
			c-0.7,0-1.4,0-2.1,0C23.3,28.7,23.7,28.8,24.1,28.8z M25.9,25.4c-0.3,0-3.3,0-3.6,0c-0.3,0-0.6,0.3-0.6,0.6c0,0.3,0.3,0.6,0.6,0.6
			c0.3,0,3.3,0,3.6,0c0.3,0,0.6-0.3,0.6-0.6C26.5,25.7,26.2,25.4,25.9,25.4z M25.9,26.9c-0.3,0-3.3,0-3.6,0c-0.3,0-0.6,0.3-0.6,0.6
			c0,0.3,0.3,0.6,0.6,0.6c0.3,0,3.3,0,3.6,0c0.3,0,0.6-0.3,0.6-0.6C26.5,27.2,26.2,26.9,25.9,26.9z"/>
	</g>
	<g>
		<path class="st2" d="M41,9.3h17.2v2.5h-7.2v18.7h-2.9V11.8H41V9.3z"/>
		<path class="st2" d="M72,30.5h-2.6V20.4c0-2.1-0.6-3.5-3.1-3.5c-2.1,0-4.3,1.2-4.3,5.1v8.4h-2.6V9.3l2.6-0.3v8.2h0.1
			c0.7-1,2-2.5,4.5-2.5c2.4,0,5.4,1,5.4,5.4V30.5z"/>
		<path class="st2" d="M73.7,12.2v-3h2.6v3H73.7z M76.3,30.5h-2.6V15h2.6V30.5z"/>
		<path class="st2" d="M90.4,30.5h-2.6V21c0-2.7-0.8-4-3.3-4c-1.5,0-4.1,0.9-4.1,5.1v8.4h-2.6V15l2.5-0.3v2.5h0.1
			c0.6-0.8,2-2.6,4.7-2.6c2.4,0,5.4,1,5.4,5.4V30.5z"/>
		<path class="st2" d="M104.7,30.5h-3.3l-4.8-7.8l-2.2,1.9v5.8h-2.5V9.3L94.4,9v12.6L101,15h3.3l-5.9,5.8L104.7,30.5z"/>
	</g>
	<g>
		<path class="st3" d="M124.9,30.6h-3.6v-16h-0.1l-4.2,16h-3.5l-4.1-16h-0.1v16h-3.6V9.2h5.9l3.7,15.4h0.1l3.6-15.4h5.8V30.6z"/>
		<path class="st3" d="M140,27.5c0,1.8,0.4,2.3,0.9,2.4v0.6h-4.4c-0.2-0.7-0.3-1-0.4-1.8c-0.9,1-2.3,2.3-5,2.3
			c-2.3,0-4.7-1.3-4.7-4.5c0-3,1.9-4.6,4.5-5l3.7-0.6c0.6-0.1,1.4-0.4,1.4-1.2c0-1.7-1.6-1.8-2.7-1.8c-2,0-2.4,1.3-2.5,2.2h-3.9
			c0.5-4.8,3.8-5.4,7-5.4c2.2,0,6.2,0.7,6.2,4.5V27.5z M135.9,23c-0.4,0.3-1.1,0.6-2.8,0.8c-1.5,0.3-2.8,0.6-2.8,2.3
			c0,1.4,1.1,1.9,1.9,1.9c1.8,0,3.7-1.2,3.7-3.1V23z"/>
		<path class="st3" d="M142,15h3.2v2.7h0.1c0.8-1.6,1.8-3.1,4.3-3.1c0.3,0,0.5,0,0.8,0.1v4.2c-0.4-0.1-0.8-0.1-1.2-0.1
			c-3.2,0-3.8,2-3.8,3.7v8.1H142V15z"/>
		<path class="st3" d="M155,30.6h-3.3V9.2l3.3-0.5v12.5l5.4-6.2h4.5l-5.7,6.3l5.5,9.3h-4.4l-3.6-6.5l-1.6,1.7V30.6z"/>
		<path class="st3" d="M178.3,26c-1.1,3.7-4.2,5-6.8,5c-4.4,0-7.7-2.1-7.7-8.5c0-1.9,0.6-7.9,7.5-7.9c3.1,0,7.3,1.5,7.3,8.6v0.7h-11
			c0.1,1.2,0.7,3.8,4,3.8c1.1,0,2.7-0.6,3-1.7H178.3z M174.6,21.2c-0.2-2.5-2.2-3.3-3.5-3.3c-1.9,0-3.3,1.2-3.5,3.3H174.6z"/>
		<g>
			<path class="st3" d="M186.5,17.8V15h-2.8v-4.3l-3.3,0.5V15l-3.1,0c0.6,0.7,1.2,1.6,1.6,2.8h1.5v9.6c0,2,0.3,3.3,3.7,3.3h0.5
				c0.6,0,1.3,0,1.9-0.1v-3c-0.3,0-0.6,0.1-0.8,0.1c-1.6,0-2-0.3-2-1.2v-8.6H186.5z"/>
		</g>
		<path class="st3" d="M196.9,20c-0.2-1-0.6-2.3-2.8-2.3c-2.2,0-2.5,0.8-2.5,1.5c0,2.5,9.7,0.7,9.7,6.4c0,4.5-4.4,5.4-6.8,5.4
			c-3.5,0-6.6-0.8-6.8-5h3.5c0,1.3,0.8,1.8,3.4,1.8c2.1,0,2.6-1,2.6-1.6c0-2.6-9.7-0.6-9.7-6.5c0-2.3,1.4-5.2,6.3-5.2
			c3,0,6.4,1,6.7,5.4H196.9z"/>
	</g>

</g>
</svg>
