<svg xmlns="http://www.w3.org/2000/svg" width="50" height="50"><defs><style>.cls-1 { fill-rule: evenodd; fill: url(#linear-gradient); }</style><linearGradient id="linear-gradient" x1="557.583" x2="530.448" y1="1248" y2="1201" gradientUnits="userSpaceOnUse"><stop offset="0" stop-color="#7aa741"/><stop offset="1" stop-color="#acdc68"/></linearGradient></defs><path id="_01_create" d="M12.3 3.04h25.4v23.34h1.52V2.28a.76.76 0 0 0-.77-.77h-26.9a.76.76 0 0 0-.78.77v24.1h1.53V3.05zm5.8 14.43v7.37h-2.43v1.54h18.65V12.56H32.8v12.28h-3.37v-9.82H27.9v9.82h-3.36V8.88H23v15.96h-3.36v-7.37H18.1zM49 35.44V10.87a4.45 4.45 0 0 0-4.43-4.45h-2.33v1.54h2.33a2.9 2.9 0 0 1 2.9 2.9v21.35H2.52V10.88a2.9 2.9 0 0 1 2.9-2.9h2.33V6.4H5.42A4.45 4.45 0 0 0 1 10.87v24.57A4.45 4.45 0 0 0 5.4 39.9h2.66L5.9 47.5a.76.76 0 0 0 .07.6.77.77 0 0 0 .46.36.8.8 0 0 0 .7-.13l10.8-8.44h2.33l-1.93 5.82h-2.66v1.54h18.65v-1.54h-2.66l-1.94-5.83h14.85A4.45 4.45 0 0 0 49 35.43zM30.05 45.72h-10.1l1.92-5.83h6.24zm-12.4-7.37a.8.8 0 0 0-.47.16l-9.16 7.17 1.8-6.34a.78.78 0 0 0-.53-.95.73.73 0 0 0-.2-.03H5.4a2.9 2.9 0 0 1-2.9-2.9v-1.7h44.95v1.7a2.9 2.9 0 0 1-2.9 2.9H17.64z" class="cls-1"/></svg>