<svg xmlns="http://www.w3.org/2000/svg" xmlns:xlink="http://www.w3.org/1999/xlink" width="50" height="50" viewBox="0 0 50 50">
  <defs>
    <style>
      .cls-1 {
        fill-rule: evenodd;
        fill: url(#linear-gradient);
      }
    </style>
    <linearGradient id="linear-gradient" x1="2876.136" y1="4615" x2="2847.864" y2="4566.03" gradientUnits="userSpaceOnUse">
      <stop offset="0" stop-color="#7aa741"/>
      <stop offset="1" stop-color="#acdc68"/>
    </linearGradient>
  </defs>
  <path id="_01_tools" data-name="01_tools" class="cls-1" d="M2842.05,4594.73h-5.32a0.736,0.736,0,0,0-.73.74v11.63a0.734,0.734,0,0,0,.73.73h5.32a0.728,0.728,0,0,0,.73-0.73v-11.63A0.73,0.73,0,0,0,2842.05,4594.73Zm-0.73,11.63h-3.86V4596.2h3.86v10.16Zm10.02-17.8h-5.32a0.73,0.73,0,0,0-.73.74v17.8a0.728,0.728,0,0,0,.73.73h5.32a0.734,0.734,0,0,0,.73-0.73v-17.8A0.736,0.736,0,0,0,2851.34,4588.56Zm-0.73,17.8h-3.86v-16.33h3.86v16.33Zm8.05,0h-2.63v-22.62h3.87v4.01a0.73,0.73,0,0,0,1.46,0v-4.74a0.736,0.736,0,0,0-.73-0.74h-5.33a0.736,0.736,0,0,0-.73.74v24.09a0.734,0.734,0,0,0,.73.73h3.36A0.735,0.735,0,0,0,2858.66,4606.36Zm5.97-20.51a0.736,0.736,0,0,0,.73-0.74v-7.53h3.87v5.1a0.73,0.73,0,0,0,1.46,0v-5.83a0.736,0.736,0,0,0-.73-0.74h-5.33a0.736,0.736,0,0,0-.73.74v8.26A0.736,0.736,0,0,0,2864.63,4585.85Zm8.27-14.53,2.9-2.91a0.719,0.719,0,0,0-.1.36v13.91a0.73,0.73,0,0,0,1.46,0v-13.91a0.719,0.719,0,0,0-.1-0.36l2.9,2.91a0.713,0.713,0,0,0,1.03,0,0.73,0.73,0,0,0,0-1.04l-4.04-4.07a0.749,0.749,0,0,0-1.04,0l-4.04,4.07a0.749,0.749,0,0,0,0,1.04A0.718,0.718,0,0,0,2872.9,4571.32Zm3.53-3.55,0.36,0.36a0.7,0.7,0,0,0-.72,0Zm10.84,29.5h-1.94l-0.07-.27a12.3,12.3,0,0,0-1.39-3.38l-0.14-.24,1.37-1.38a0.734,0.734,0,0,0,.21-0.52,0.717,0.717,0,0,0-.21-0.52l-2.89-2.91a0.736,0.736,0,0,0-1.03,0l-1.38,1.38-0.24-.15a12.326,12.326,0,0,0-3.35-1.4l-0.27-.07v-1.95a0.734,0.734,0,0,0-.73-0.73h-4.09a0.734,0.734,0,0,0-.73.73v1.95l-0.27.07a12.326,12.326,0,0,0-3.35,1.4l-0.25.15-1.37-1.38a0.736,0.736,0,0,0-1.03,0l-2.89,2.91a0.717,0.717,0,0,0-.21.52,0.734,0.734,0,0,0,.21.52l1.37,1.38-0.14.24a12.3,12.3,0,0,0-1.39,3.38l-0.07.27h-1.94a0.736,0.736,0,0,0-.73.74v4.11a0.736,0.736,0,0,0,.73.74H2861l0.07,0.27a12.116,12.116,0,0,0,1.39,3.37l0.14,0.25-1.37,1.38a0.749,0.749,0,0,0,0,1.04l2.89,2.91a0.736,0.736,0,0,0,1.03,0l1.37-1.38,0.25,0.14a12.02,12.02,0,0,0,3.35,1.4l0.27,0.07v1.95a0.736,0.736,0,0,0,.73.74h4.09a0.736,0.736,0,0,0,.73-0.74v-1.95l0.27-.07a12.02,12.02,0,0,0,3.35-1.4l0.24-.14,1.38,1.38a0.736,0.736,0,0,0,1.03,0l2.89-2.91a0.749,0.749,0,0,0,0-1.04l-1.37-1.38,0.14-.25a12.116,12.116,0,0,0,1.39-3.37l0.07-.27h1.94a0.736,0.736,0,0,0,.73-0.74v-4.11A0.736,0.736,0,0,0,2887.27,4597.27Zm-0.73,4.12h-2.44l-0.02.12a11.116,11.116,0,0,1-.39,1.82,10.634,10.634,0,0,1-.79,1.92,11.158,11.158,0,0,1-1,1.56l-0.08.1,0.09,0.09,1.64,1.65-1.86,1.87-1.63-1.65-0.09-.09-0.1.08a10.664,10.664,0,0,1-1.56,1.01,11.211,11.211,0,0,1-1.9.79,9.973,9.973,0,0,1-1.8.4l-0.13.01v2.46h-2.63v-2.46l-0.13-.01a9.973,9.973,0,0,1-1.8-.4,11.211,11.211,0,0,1-1.9-.79,10.664,10.664,0,0,1-1.56-1.01l-0.1-.08-0.09.09-1.63,1.65-1.86-1.87,1.64-1.65,0.09-.09-0.08-.1a11.158,11.158,0,0,1-1-1.56,10.634,10.634,0,0,1-.79-1.92,10.913,10.913,0,0,1-.4-1.82l-0.01-.12h-2.44v-2.65h2.44l0.01-.13a10.8,10.8,0,0,1,.4-1.81,10.634,10.634,0,0,1,.79-1.92,11.158,11.158,0,0,1,1-1.56l0.08-.1-0.09-.09-1.64-1.65,1.86-1.87,1.63,1.64,0.09,0.1,0.1-.08a10.664,10.664,0,0,1,1.56-1.01,12.14,12.14,0,0,1,1.9-.8,10.883,10.883,0,0,1,1.8-.39l0.13-.02v-2.45h2.63v2.45l0.13,0.02a10.883,10.883,0,0,1,1.8.39,12.14,12.14,0,0,1,1.9.8,10.664,10.664,0,0,1,1.56,1.01l0.1,0.08,0.09-.1,1.63-1.64,1.86,1.87-1.64,1.65-0.09.09,0.08,0.1a11.158,11.158,0,0,1,1,1.56,10.634,10.634,0,0,1,.79,1.92,10.781,10.781,0,0,1,.39,1.81l0.02,0.13h2.44v2.65Zm-6.13-4.34-0.01-.02a7.753,7.753,0,0,0-1.09-1.86,8.221,8.221,0,0,0-1.28-1.29,7.83,7.83,0,0,0-1.86-1.11,8.032,8.032,0,0,0-2.1-.55,7.738,7.738,0,0,0-3.9.55h-0.02a7.77,7.77,0,0,0-1.85,1.11,8.221,8.221,0,0,0-1.28,1.29,7.992,7.992,0,0,0-1.1,1.87v0.01a7.551,7.551,0,0,0-.54,2.1,7.187,7.187,0,0,0-.06.91,7.342,7.342,0,0,0,.06.92,7.641,7.641,0,0,0,.54,2.1l0.01,0.02a7.753,7.753,0,0,0,1.09,1.86,8.221,8.221,0,0,0,1.28,1.29,7.637,7.637,0,0,0,1.86,1.11h0.01a7.86,7.86,0,0,0,2.09.55c0.31,0.03.61,0.05,0.9,0.05s0.6-.02.91-0.05a7.86,7.86,0,0,0,2.09-.55l0.02-.01a7.416,7.416,0,0,0,1.85-1.1,8.221,8.221,0,0,0,1.28-1.29,7.992,7.992,0,0,0,1.1-1.87,7.8,7.8,0,0,0,.54-2.11,7.342,7.342,0,0,0,.06-0.92,7.187,7.187,0,0,0-.06-0.91A7.641,7.641,0,0,0,2880.41,4597.05Zm-0.94,4.03c-0.03.16-.06,0.32-0.1,0.49a6.331,6.331,0,0,1-.76,1.84c-0.08.14-.18,0.28-0.28,0.42a6.467,6.467,0,0,1-1.42,1.44c-0.14.1-.28,0.19-0.42,0.28a6.272,6.272,0,0,1-1.83.76,4.258,4.258,0,0,1-.49.1,6.163,6.163,0,0,1-2.01,0,4.258,4.258,0,0,1-.49-0.1,6.272,6.272,0,0,1-1.83-.76c-0.14-.09-0.28-0.18-0.42-0.28a6.467,6.467,0,0,1-1.42-1.44,4.292,4.292,0,0,1-.28-0.41,6.507,6.507,0,0,1-.76-1.85c-0.04-.17-0.07-0.33-0.1-0.49a6.479,6.479,0,0,1,0-2.03c0.03-.16.06-0.33,0.1-0.49a6.39,6.39,0,0,1,.76-1.85c0.08-.13.17-0.27,0.28-0.42a6.422,6.422,0,0,1,1.42-1.43c0.14-.1.28-0.19,0.42-0.28a6.272,6.272,0,0,1,1.83-.76,4.258,4.258,0,0,1,.49-0.1,6.353,6.353,0,0,1,2.01,0,4.258,4.258,0,0,1,.49.1,6.272,6.272,0,0,1,1.83.76c0.14,0.09.28,0.18,0.42,0.28a6.422,6.422,0,0,1,1.42,1.43c0.1,0.15.2,0.29,0.28,0.42a6.39,6.39,0,0,1,.76,1.85c0.04,0.17.07,0.33,0.1,0.49A6.479,6.479,0,0,1,2879.47,4601.08Z" transform="translate(-2837 -4565.515)"/>
</svg>
