<svg xmlns="http://www.w3.org/2000/svg" xmlns:xlink="http://www.w3.org/1999/xlink" width="50" height="50" viewBox="0 0 50 50">
  <defs>
    <style>
      .cls-1 {
        fill-rule: evenodd;
        fill: url(#linear-gradient);
      }
    </style>
    <linearGradient id="linear-gradient" x1="3153.702" y1="4613" x2="3128.298" y2="4569" gradientUnits="userSpaceOnUse">
      <stop offset="0" stop-color="#7aa741"/>
      <stop offset="1" stop-color="#acdc68"/>
    </linearGradient>
  </defs>
  <path id="_02_one-click" data-name="02_one-click" class="cls-1" d="M3163.3,4596.55v-2.58h1.96a0.73,0.73,0,0,0,.74-0.73v-14.76a0.736,0.736,0,0,0-.74-0.73h-1.96v-2.7a0.74,0.74,0,0,0-1.48,0v2.7h-1.96a0.736,0.736,0,0,0-.74.73v14.76a0.73,0.73,0,0,0,.74.73h1.96v2.58A0.74,0.74,0,0,0,3163.3,4596.55Zm-2.7-4.04v-13.29h3.92v13.29h-3.92Zm-4.68-9.45h-1.96v-3.22a0.74,0.74,0,1,0-1.48,0v3.22h-1.96a0.736,0.736,0,0,0-.74.73v17.01a0.736,0.736,0,0,0,.74.73h1.96v3.08a0.74,0.74,0,0,0,1.48,0v-3.08h1.96a0.736,0.736,0,0,0,.74-0.73v-17.01A0.736,0.736,0,0,0,3155.92,4583.06Zm-0.74,17.01h-3.92v-15.54h3.92v15.54Zm-7.91-5.39v-21a0.736,0.736,0,0,0-.74-0.73h-1.96v-2.2a0.74,0.74,0,1,0-1.48,0v2.2h-1.96a0.736,0.736,0,0,0-.74.73v15.13l-0.58-.39a2.08,2.08,0,0,0-.38-0.22,3.251,3.251,0,0,0-.43-0.18,3.574,3.574,0,0,0-.47-0.11,3.76,3.76,0,0,0-.67-0.03,34594623179.553,34594623179.553,0,0,0-.36.04,1.046,1.046,0,0,0-.17.04c-0.06.01-.12,0.03-0.17,0.04s-0.11.04-.17,0.06-0.11.04-.16,0.06-0.11.05-.16,0.07l-0.33.16-0.16-.32a3.131,3.131,0,0,0-.22-0.36q-0.135-.18-0.27-0.33c-0.1-.1-0.2-0.2-0.31-0.29s-0.22-.17-0.34-0.25-0.25-.14-0.38-0.2a2.828,2.828,0,0,0-.41-0.14,1.978,1.978,0,0,0-.42-0.1,3.75,3.75,0,0,0-.58-0.02h-0.13c-0.05.01-.09,0.01-0.13,0.02a17769136735.1,17769136735.1,0,0,1-.26.04l-0.12.03c-0.05.01-.09,0.02-0.13,0.03a0.564,0.564,0,0,1-.12.04l-0.49.17v-4.39a3.282,3.282,0,0,0-.06-0.63,4.056,4.056,0,0,0-.19-0.59,3.5,3.5,0,0,0-.29-0.54,2.862,2.862,0,0,0-.39-0.47,3.315,3.315,0,0,0-.46-0.38,2.81,2.81,0,0,0-.54-0.29,4.056,4.056,0,0,0-.59-0.19,3.39,3.39,0,0,0-1.27,0,4.056,4.056,0,0,0-.59.19,2.81,2.81,0,0,0-.54.29,3.315,3.315,0,0,0-.46.38,2.862,2.862,0,0,0-.39.47,3.5,3.5,0,0,0-.29.54,4.056,4.056,0,0,0-.19.59,3.282,3.282,0,0,0-.06.63v14.92l-3.23-3.67-0.23-.2c-0.08-.06-0.16-0.12-0.25-0.18a2.261,2.261,0,0,0-.26-0.16c-0.09-.05-0.19-0.09-0.28-0.13s-0.19-.07-0.29-0.1-0.2-.06-0.3-0.08-0.21-.03-0.31-0.04a1.615,1.615,0,0,0-.31-0.02h-0.02c-0.11,0-.21,0-0.31.01a2.868,2.868,0,0,0-.31.05c-0.1.02-.2,0.04-0.3,0.07s-0.19.06-.29,0.1-0.18.08-.27,0.13-0.18.1-.27,0.16-0.16.12-.24,0.18a1.507,1.507,0,0,0-.23.21,2.641,2.641,0,0,0-.35.4,2.423,2.423,0,0,0-.24.45,2.459,2.459,0,0,0-.16.48,2.96,2.96,0,0,0-.07.52,5.4,5.4,0,0,0,.03.56c0.03,0.19.07,0.39,0.12,0.59a5.915,5.915,0,0,0,.23.62c0.09,0.21.2,0.43,0.32,0.65l0.51,0.87c0.18,0.3.35,0.58,0.52,0.87s0.36,0.57.53,0.85,0.35,0.56.53,0.84,0.35,0.54.52,0.81,0.35,0.54.52,0.8,0.35,0.52.51,0.77l1.21,1.82c0.11,0.18.23,0.35,0.34,0.52s0.22,0.34.32,0.51,0.22,0.33.32,0.49,0.2,0.32.3,0.47,0.19,0.31.28,0.46,0.18,0.3.26,0.44c0.07,0.12.16,0.28,0.26,0.47s0.21,0.39.32,0.61,0.23,0.45.35,0.69,0.23,0.47.35,0.7,0.22,0.46.32,0.66,0.19,0.39.27,0.55l0.18,0.38c0.05,0.1.07,0.15,0.08,0.16a0.925,0.925,0,0,0,.05.1c0.02,0.03.05,0.06,0.07,0.09a0.3,0.3,0,0,1,.08.08c0.03,0.02.07,0.04,0.1,0.06a0.879,0.879,0,0,0,.1.06c0.03,0.01.07,0.03,0.11,0.04a0.359,0.359,0,0,0,.11.02,0.487,0.487,0,0,0,.12.01h15.07a0.528,0.528,0,0,0,.13-0.01c0.05-.01.09-0.02,0.13-0.03a0.612,0.612,0,0,0,.12-0.05,0.673,0.673,0,0,0,.11-0.07,0.647,0.647,0,0,0,.09-0.08,0.9,0.9,0,0,0,.09-0.1,1.054,1.054,0,0,0,.07-0.11c0.02-.03.03-0.08,0.05-0.12,0.03-.1.1-0.32,0.19-0.62s0.22-.67.35-1.12c0.15-.49.3-0.99,0.45-1.49,0.17-.58.33-1.16,0.48-1.72,0.17-.64.33-1.25,0.47-1.82,0.16-.64.29-1.23,0.4-1.78,0.13-.59.22-1.13,0.28-1.59a9.472,9.472,0,0,0,.11-1.26v-5.62h0.66A0.736,0.736,0,0,0,3147.27,4594.68Zm-3.05,6.35a7.035,7.035,0,0,1-.07.93c-0.04.33-.11,0.72-0.19,1.15-0.07.39-.17,0.84-0.28,1.31-0.1.43-.21,0.91-0.34,1.41-0.12.46-.25,0.94-0.38,1.45-0.13.45-.26,0.93-0.4,1.4s-0.26.9-.38,1.3-0.24.79-.35,1.13l-0.08.26H3127.8l-0.54-1.1c-0.08-.17-0.17-0.34-0.25-0.52s-0.18-.34-0.26-0.52-0.18-.34-0.26-0.51-0.17-.32-0.25-0.47-0.15-.29-0.22-0.42-0.13-.23-0.18-0.33q-0.135-.21-0.27-0.45c-0.1-.15-0.19-0.31-0.29-0.46s-0.2-.32-0.3-0.49-0.22-.33-0.33-0.5-0.22-.34-0.33-0.51-0.23-.35-0.35-0.53l-1.2-1.83c-0.17-.25-0.34-0.51-0.51-0.77s-0.34-.52-0.51-0.78-0.35-.54-0.52-0.81-0.35-.55-0.52-0.82-0.35-.56-0.52-0.84-0.34-.57-0.51-0.86-0.34-.57-0.51-0.86c-0.05-.08-0.09-0.17-0.14-0.25-0.04-.1-0.09-0.19-0.12-0.27-0.04-.1-0.08-0.2-0.11-0.29s-0.06-.2-0.08-0.29a1.709,1.709,0,0,1-.03-0.31,1.057,1.057,0,0,1,.02-0.31,1.038,1.038,0,0,1,.11-0.31,1.161,1.161,0,0,1,.31-0.38l0.12-.09c0.04-.02.08-0.05,0.13-0.07s0.08-.04.13-0.06,0.09-.03.14-0.05,0.09-.02.14-0.03a0.772,0.772,0,0,1,.15-0.02,0.615,0.615,0,0,1,.14-0.01,0.808,0.808,0,0,1,.16.01,0.784,0.784,0,0,1,.14.02l0.14,0.03c0.05,0.02.09,0.03,0.14,0.05s0.08,0.04.13,0.06a0.746,0.746,0,0,1,.12.07,0.834,0.834,0,0,1,.12.08,1,1,0,0,1,.11.1l0.03,0.02,4.59,5.22a0.647,0.647,0,0,0,.09.08,0.874,0.874,0,0,1,.1.08,0.974,0.974,0,0,0,.11.05,0.564,0.564,0,0,0,.12.04,0.5,0.5,0,0,0,.12.02,0.565,0.565,0,0,0,.13,0,0.487,0.487,0,0,0,.12-0.01,0.564,0.564,0,0,0,.12-0.04,0.585,0.585,0,0,0,.22-0.12,0.647,0.647,0,0,0,.09-0.08,0.392,0.392,0,0,0,.08-0.1c0.02-.03.04-0.07,0.06-0.1a1.173,1.173,0,0,1,.05-0.11,0.507,0.507,0,0,0,.02-0.13,0.487,0.487,0,0,0,.01-0.12v-17.09a1.544,1.544,0,0,1,.04-0.3,1.568,1.568,0,0,1,.08-0.29c0.04-.09.09-0.17,0.14-0.26s0.12-.15.18-0.22a2.11,2.11,0,0,1,.23-0.19c0.08-.05.17-0.1,0.25-0.14a1.612,1.612,0,0,1,.29-0.09,1.565,1.565,0,0,1,.61,0,1.612,1.612,0,0,1,.29.09,2.013,2.013,0,0,1,.25.14,2.11,2.11,0,0,1,.23.19,1.917,1.917,0,0,1,.18.22c0.05,0.09.1,0.17,0.14,0.26a1.048,1.048,0,0,1,.08.29,1.544,1.544,0,0,1,.04.3v11.04a0.86,0.86,0,0,0,.01.16,0.88,0.88,0,0,0,.05.15,0.638,0.638,0,0,0,.08.14,0.294,0.294,0,0,0,.1.12,0.4,0.4,0,0,0,.12.1,0.638,0.638,0,0,0,.14.08c0.05,0.02.1,0.03,0.15,0.05a0.915,0.915,0,0,0,.33,0c0.06-.02.11-0.03,0.16-0.05a1,1,0,0,0,.14-0.08,1.059,1.059,0,0,0,.12-0.1,0.4,0.4,0,0,0,.1-0.12,0.638,0.638,0,0,0,.08-0.14,0.833,0.833,0,0,0,.04-0.15,0.875,0.875,0,0,0,.02-0.16v-3.84a1.526,1.526,0,0,1,.03-0.3,1.612,1.612,0,0,1,.09-0.29,1.229,1.229,0,0,1,.14-0.25,1.3,1.3,0,0,1,.18-0.23,1.239,1.239,0,0,1,.22-0.18,1.35,1.35,0,0,1,.26-0.15c0.09-.03.19-0.06,0.29-0.09a1.565,1.565,0,0,1,.61,0c0.09,0.03.19,0.06,0.28,0.09a1.35,1.35,0,0,1,.26.15,1.239,1.239,0,0,1,.22.18,1.3,1.3,0,0,1,.18.23,0.887,0.887,0,0,1,.14.25,1.612,1.612,0,0,1,.09.29,1.526,1.526,0,0,1,.03.3v5.38a0.875,0.875,0,0,0,.02.16,0.428,0.428,0,0,0,.05.16,0.826,0.826,0,0,0,.07.13,0.4,0.4,0,0,0,.1.12,1.2,1.2,0,0,0,.12.11c0.05,0.02.09,0.05,0.14,0.07a0.749,0.749,0,0,0,.16.05,0.915,0.915,0,0,0,.33,0,0.88,0.88,0,0,0,.15-0.05,0.638,0.638,0,0,0,.14-0.08,0.294,0.294,0,0,0,.12-0.1,0.426,0.426,0,0,0,.11-0.12,0.826,0.826,0,0,0,.07-0.13,0.749,0.749,0,0,0,.05-0.16,0.875,0.875,0,0,0,.02-0.16v-3.83a1.553,1.553,0,0,1,.03-0.31,2.288,2.288,0,0,1,.08-0.28,2.148,2.148,0,0,1,.14-0.26,2.11,2.11,0,0,1,.19-0.23,1.323,1.323,0,0,1,.22-0.18,0.939,0.939,0,0,1,.26-0.14,1.309,1.309,0,0,1,.28-0.09,1.259,1.259,0,0,1,.61,0,1.612,1.612,0,0,1,.29.09,0.887,0.887,0,0,1,.25.14,1.206,1.206,0,0,1,.41.41,2.148,2.148,0,0,1,.14.26,1.309,1.309,0,0,1,.09.28,1.553,1.553,0,0,1,.03.31v5.37a0.97,0.97,0,0,0,.01.17,0.88,0.88,0,0,0,.05.15,1,1,0,0,0,.08.14,1.059,1.059,0,0,0,.1.12,1.27,1.27,0,0,0,.12.1,0.611,0.611,0,0,0,.14.07,0.88,0.88,0,0,0,.15.05,0.971,0.971,0,0,0,.34,0,0.88,0.88,0,0,0,.15-0.05,0.914,0.914,0,0,0,.14-0.07c0.04-.03.08-0.07,0.12-0.1a1.059,1.059,0,0,0,.1-0.12,1,1,0,0,0,.08-0.14,0.833,0.833,0,0,0,.04-0.15,0.5,0.5,0,0,0,.02-0.17v-3.44a1.526,1.526,0,0,1,.03-0.3,1.4,1.4,0,0,1,.09-0.29,1.3,1.3,0,0,1,.14-0.26,1.239,1.239,0,0,1,.18-0.22,2,2,0,0,1,.22-0.19,2.148,2.148,0,0,1,.26-0.14,1.4,1.4,0,0,1,.29-0.09,1.565,1.565,0,0,1,.61,0,1.518,1.518,0,0,1,.28.09,2.148,2.148,0,0,1,.26.14,2,2,0,0,1,.22.19,1.239,1.239,0,0,1,.18.22,0.939,0.939,0,0,1,.14.26,1.4,1.4,0,0,1,.09.29,1.526,1.526,0,0,1,.03.3v8.07Zm1.57-9.3-0.66-.78c-0.06-.08-0.13-0.15-0.19-0.22a2.894,2.894,0,0,0-.47-0.38,3.057,3.057,0,0,0-.53-0.29,3.121,3.121,0,0,0-.59-0.19,3.641,3.641,0,0,0-.8-0.06c-0.06.01-.11,0.01-0.17,0.02h-0.06l-0.45.06v-15.48h3.92v17.32Zm-26.33-18.48a0.845,0.845,0,0,0,.05.17,0.507,0.507,0,0,0,.09.16,0.755,0.755,0,0,0,.11.14l2.86,2.83a0.526,0.526,0,0,0,.14.12,1.194,1.194,0,0,0,.16.08,0.549,0.549,0,0,0,.17.05,0.692,0.692,0,0,0,.35,0,0.48,0.48,0,0,0,.17-0.05,0.8,0.8,0,0,0,.16-0.08,0.789,0.789,0,0,0,.15-0.12,0.755,0.755,0,0,0,.11-0.14,0.827,0.827,0,0,0,.09-0.16,0.983,0.983,0,0,0,.05-0.16,1.087,1.087,0,0,0,.01-0.18,0.97,0.97,0,0,0-.01-0.17,0.845,0.845,0,0,0-.05-0.17,1.29,1.29,0,0,0-.09-0.16,0.526,0.526,0,0,0-.12-0.14l-2.85-2.83a0.566,0.566,0,0,0-.15-0.12,0.8,0.8,0,0,0-.16-0.08,0.983,0.983,0,0,0-.16-0.05,1.1,1.1,0,0,0-.18-0.02h0a1.1,1.1,0,0,0-.18.02,0.983,0.983,0,0,0-.16.05,0.8,0.8,0,0,0-.16.08,0.566,0.566,0,0,0-.15.12,1.741,1.741,0,0,0-.12.14,0.8,0.8,0,0,0-.08.16,0.845,0.845,0,0,0-.05.17A0.732,0.732,0,0,0,3119.46,4573.25Zm-3.06,8.48a0.8,0.8,0,0,0,.16.08,0.845,0.845,0,0,0,.17.05,0.584,0.584,0,0,0,.19.02h4.04a0.554,0.554,0,0,0,.18-0.02,0.845,0.845,0,0,0,.17-0.05,0.8,0.8,0,0,0,.16-0.08,0.689,0.689,0,0,0,.13-0.11,0.806,0.806,0,0,0,.12-0.14,0.853,0.853,0,0,0,.13-0.32,0.584,0.584,0,0,0,.02-0.19,0.554,0.554,0,0,0-.02-0.18,0.853,0.853,0,0,0-.13-0.32,0.806,0.806,0,0,0-.12-0.14,0.689,0.689,0,0,0-.13-0.11,0.8,0.8,0,0,0-.16-0.08,0.48,0.48,0,0,0-.17-0.05,0.554,0.554,0,0,0-.18-0.02h-4.04a0.584,0.584,0,0,0-.19.02,0.48,0.48,0,0,0-.17.05,0.8,0.8,0,0,0-.16.08,0.689,0.689,0,0,0-.13.11,0.755,0.755,0,0,0-.11.14,0.6,0.6,0,0,0-.09.15,1.023,1.023,0,0,0-.07.35,1.108,1.108,0,0,0,.02.19,1.093,1.093,0,0,0,.05.17,0.6,0.6,0,0,0,.09.15,0.755,0.755,0,0,0,.11.14A0.689,0.689,0,0,0,3116.4,4581.73Zm11.13-7.82V4574c0,0.03.01,0.06,0.01,0.09l0.03,0.09a0.689,0.689,0,0,0,.03.08,0.2,0.2,0,0,0,.04.08c0.01,0.03.03,0.05,0.04,0.08a0.179,0.179,0,0,1,.05.07l0.06,0.06c0.02,0.02.05,0.04,0.07,0.06a0.3,0.3,0,0,0,.07.05c0.02,0.02.05,0.03,0.07,0.05a0.355,0.355,0,0,1,.09.04,0.689,0.689,0,0,0,.08.03c0.03,0.01.06,0.01,0.09,0.02a0.277,0.277,0,0,0,.09.01,0.878,0.878,0,0,0,.28-0.01,1.093,1.093,0,0,0,.17-0.05,1.191,1.191,0,0,0,.15-0.09,0.755,0.755,0,0,0,.14-0.11,0.689,0.689,0,0,0,.11-0.13c0.03-.05.06-0.1,0.09-0.16a0.845,0.845,0,0,0,.05-0.17,1.1,1.1,0,0,0,.02-0.18v-4.01a1.023,1.023,0,0,0-.07-0.35l-0.09-.15a0.747,0.747,0,0,0-.25-0.25,1.093,1.093,0,0,0-.15-0.08,0.816,0.816,0,0,0-.54-0.06,0.851,0.851,0,0,0-.17.06,0.8,0.8,0,0,0-.16.08,1.344,1.344,0,0,0-.14.11,0.755,0.755,0,0,0-.11.14,1.093,1.093,0,0,0-.08.15,1.15,1.15,0,0,0-.06.17,1.087,1.087,0,0,0-.01.18v4.01Z" transform="translate(-3116 -4566)"/>
</svg>
