<svg xmlns="http://www.w3.org/2000/svg" width="50" height="50"><defs><style>.cls-1 { fill-rule: evenodd; fill: url(#linear-gradient); }</style><linearGradient id="linear-gradient" x1="834.702" x2="809.298" y1="1247" y2="1203" gradientUnits="userSpaceOnUse"><stop offset="0" stop-color="#7aa741"/><stop offset="1" stop-color="#acdc68"/></linearGradient></defs><path id="_02_one-click" d="M47.3 30.55v-2.58h1.96a.73.73 0 0 0 .74-.73V12.48a.74.74 0 0 0-.74-.73H47.3v-2.7a.74.74 0 0 0-1.48 0v2.7h-1.96a.74.74 0 0 0-.74.73v14.76a.73.73 0 0 0 .74.73h1.96v2.58a.74.74 0 0 0 1.48 0zm-2.7-4.04V13.23h3.92v13.3H44.6zm-4.68-9.44h-1.96v-3.22a.74.74 0 1 0-1.48 0v3.22h-1.96a.74.74 0 0 0-.74.73v17a.74.74 0 0 0 .74.73h1.96v3.08a.74.74 0 0 0 1.48 0v-3.07h1.96a.74.74 0 0 0 .74-.73v-17a.74.74 0 0 0-.74-.74zm-.74 17h-3.92V18.54h3.92v15.54zm-7.92-5.38v-21a.74.74 0 0 0-.73-.73h-1.96v-2.2a.74.74 0 0 0-1.48 0v2.2h-1.97a.74.74 0 0 0-.74.73V22.8l-.6-.38a2.34 2.34 0 0 0-.37-.22 3.32 3.32 0 0 0-.43-.18 3.64 3.64 0 0 0-.47-.1 3.78 3.78 0 0 0-.67-.04 1.1 1.1 0 0 0-.18.02 1.07 1.07 0 0 0-.18.02 1.04 1.04 0 0 0-.17.04c-.06 0-.12.03-.17.04l-.17.06-.17.06c-.06.02-.1.05-.16.07l-.32.15-.17-.32a3.3 3.3 0 0 0-.22-.36 2.57 2.57 0 0 0-.27-.33 3.85 3.85 0 0 0-.32-.3 4.16 4.16 0 0 0-.34-.24c-.12-.07-.25-.14-.38-.2s-.27-.1-.4-.14a3.1 3.1 0 0 0-.43-.1 3.75 3.75 0 0 0-.58-.02h-.13c-.04 0-.1 0-.13.02a.56.56 0 0 0-.14.02.55.55 0 0 0-.12.02l-.13.03-.1.03a.6.6 0 0 1-.13.04l-.5.17v-4.4a3.13 3.13 0 0 0-.06-.62 3.18 3.18 0 0 0-.17-.6 3.12 3.12 0 0 0-.3-.53 3.44 3.44 0 0 0-.38-.47 3.16 3.16 0 0 0-.47-.38 3.55 3.55 0 0 0-.53-.3 3.05 3.05 0 0 0-.6-.17 3.2 3.2 0 0 0-1.86.18 3.6 3.6 0 0 0-.54.3 3.1 3.1 0 0 0-.47.37 3.44 3.44 0 0 0-.4.47 3.05 3.05 0 0 0-.3.54 3.1 3.1 0 0 0-.23 1.22V31.2l-3.24-3.66a2.9 2.9 0 0 0-.22-.2c-.07-.07-.16-.13-.24-.2A2.74 2.74 0 0 0 5.6 27a2.8 2.8 0 0 0-.28-.14c-.1-.04-.2-.07-.3-.1a3.08 3.08 0 0 0-.3-.08c-.1-.02-.2-.03-.3-.04s-.2-.02-.32-.02-.23 0-.33 0-.2.04-.3.06a2.94 2.94 0 0 0-.3.07c-.1.03-.2.07-.3.1s-.18.1-.27.13a2.96 2.96 0 0 0-.26.16 2.68 2.68 0 0 0-.25.18 1.67 1.67 0 0 0-.24.2 3.08 3.08 0 0 0-.34.4 2.46 2.46 0 0 0-.25.46 2.7 2.7 0 0 0-.16.48 2.96 2.96 0 0 0-.05.52 3.44 3.44 0 0 0 .02.56 4.14 4.14 0 0 0 .13.6 5.22 5.22 0 0 0 .22.6 7 7 0 0 0 .32.66q.26.43.52.87c.17.3.34.58.52.87s.35.57.53.85.36.55.53.83.35.54.53.8.35.55.52.8.34.53.5.78l1.2 1.83c.12.18.24.35.35.52s.22.34.33.5.2.34.3.5.2.32.3.48.2.3.3.45.17.3.25.44c.1.12.17.28.28.47s.2.38.3.6.24.45.36.7.24.46.35.7.2.45.3.65.2.4.28.55l.18.38c.05.1.08.15.08.16 0 .03.03.06.05.1a1.12 1.12 0 0 0 .07.1 1 1 0 0 1 .08.07l.1.07q.04.03.1.06c.02 0 .06.03.1.04a.44.44 0 0 0 .1.02.47.47 0 0 0 .13 0h15.07a.6.6 0 0 0 .13 0l.13-.04a.58.58 0 0 0 .13-.05.55.55 0 0 0 .1-.06.5.5 0 0 0 .1-.08.55.55 0 0 0 .1-.1.5.5 0 0 0 .06-.1.42.42 0 0 0 .04-.13c.03-.1.1-.32.2-.6s.2-.7.35-1.14c.14-.5.3-1 .43-1.5.17-.58.33-1.16.48-1.72.2-.64.35-1.25.5-1.82.14-.64.28-1.23.4-1.78.1-.6.2-1.13.26-1.6a9.5 9.5 0 0 0 .1-1.25V29.4h.67a.74.74 0 0 0 .74-.72zm-3.04 6.35a7.6 7.6 0 0 1-.07.93c-.04.33-.1.72-.2 1.15-.07.4-.16.85-.27 1.32-.1.44-.2.9-.34 1.4-.12.47-.25.96-.4 1.46-.1.45-.24.93-.4 1.4s-.25.9-.37 1.3-.24.8-.34 1.13l-.1.27H11.8l-.54-1.1c-.08-.17-.16-.34-.25-.52s-.16-.34-.25-.52-.17-.34-.26-.5-.18-.33-.25-.48l-.23-.42c-.06-.12-.13-.23-.18-.33q-.13-.2-.27-.45c-.1-.15-.2-.3-.3-.46s-.2-.33-.3-.5-.2-.33-.3-.5-.23-.34-.34-.5-.23-.36-.35-.54l-1.2-1.83c-.17-.25-.34-.5-.5-.77s-.35-.52-.52-.78-.34-.54-.52-.8-.34-.55-.52-.83-.34-.56-.52-.84-.34-.56-.5-.85-.35-.57-.52-.86c-.04-.1-.1-.18-.13-.26l-.13-.27c-.04-.1-.08-.2-.1-.3a2.75 2.75 0 0 1-.08-.28 1.94 1.94 0 0 1-.04-.32 1.42 1.42 0 0 1 .02-.3 1.14 1.14 0 0 1 .3-.6c.05-.03.08-.07.12-.1s.08-.06.12-.1.1-.04.13-.06l.12-.06c.05-.02.1-.03.14-.05l.14-.02a2.12 2.12 0 0 1 .3-.03.75.75 0 0 1 .15 0 .7.7 0 0 1 .14.03l.13.03c.05.03.1.04.14.06l.13.06a.74.74 0 0 1 .12.07c.05.02.08.04.12.07a.78.78 0 0 1 .1.1l.04.02 4.6 5.2a.43.43 0 0 0 .1.1c.02.02.05.04.1.07a.47.47 0 0 0 .1.05.5.5 0 0 0 .12.04.5.5 0 0 0 .12.02 1.52 1.52 0 0 0 .24 0 .55.55 0 0 0 .13-.05.5.5 0 0 0 .1-.05.5.5 0 0 0 .1-.07.46.46 0 0 0 .1-.07.53.53 0 0 0 .07-.1 1.1 1.1 0 0 0 .06-.1c.02-.04.04-.08.05-.1a.87.87 0 0 0 .03-.13.9.9 0 0 0 .02-.13v-17.1a1.53 1.53 0 0 1 .03-.3 1.78 1.78 0 0 1 .08-.28 2.06 2.06 0 0 1 .14-.27 2.37 2.37 0 0 1 .2-.22 2.03 2.03 0 0 1 .2-.18 2.27 2.27 0 0 1 .27-.14 1.43 1.43 0 0 1 .28-.1 1.57 1.57 0 0 1 .6 0 1.45 1.45 0 0 1 .3.1 2.1 2.1 0 0 1 .25.14 2.03 2.03 0 0 1 .23.2 1.6 1.6 0 0 1 .18.22 1.45 1.45 0 0 1 .14.25 1.68 1.68 0 0 1 .1.28 1.53 1.53 0 0 1 .02.3v11.04a.8.8 0 0 0 0 .16.66.66 0 0 0 .06.15.67.67 0 0 0 .08.14.42.42 0 0 0 .1.12.68.68 0 0 0 .12.1.78.78 0 0 0 .14.07c.05.02.1.03.15.05a.93.93 0 0 0 .32 0c.06-.02.1-.03.16-.05a.82.82 0 0 0 .14-.08.7.7 0 0 0 .12-.1.45.45 0 0 0 .1-.13.67.67 0 0 0 .07-.14.87.87 0 0 0 .06-.15.8.8 0 0 0 .02-.16v-3.84a1.46 1.46 0 0 1 .03-.3 1.3 1.3 0 0 1 .1-.28 1.47 1.47 0 0 1 .14-.26 1.6 1.6 0 0 1 .18-.23 1.2 1.2 0 0 1 .22-.17.95.95 0 0 1 .26-.14 1.44 1.44 0 0 1 .28-.1 1.26 1.26 0 0 1 .6 0 2.6 2.6 0 0 1 .3.08 1.33 1.33 0 0 1 .26.15 1.2 1.2 0 0 1 .22.18 1.6 1.6 0 0 1 .18.24 1.47 1.47 0 0 1 .14.26 1.36 1.36 0 0 1 .1.28 1.46 1.46 0 0 1 .02.3v5.38a.87.87 0 0 0 .02.16.7.7 0 0 0 .04.16.87.87 0 0 0 .08.13.7.7 0 0 0 .1.14c.04.03.08.07.12.1s.1.05.14.07a.85.85 0 0 0 .15.06.93.93 0 0 0 .34 0 .8.8 0 0 0 .14-.05.78.78 0 0 0 .14-.07.63.63 0 0 0 .12-.1.73.73 0 0 0 .1-.12 1.1 1.1 0 0 0 .08-.12.75.75 0 0 0 .05-.16.8.8 0 0 0 0-.16v-3.83a1.55 1.55 0 0 1 .04-.3 1.43 1.43 0 0 1 .1-.3 1.54 1.54 0 0 1 .13-.25 1.7 1.7 0 0 1 .18-.23 1.8 1.8 0 0 1 .23-.18 1.3 1.3 0 0 1 .26-.14 1.45 1.45 0 0 1 .3-.1 1.57 1.57 0 0 1 .6 0 1.4 1.4 0 0 1 .28.1 1.28 1.28 0 0 1 .26.14 1.72 1.72 0 0 1 .22.18 1.7 1.7 0 0 1 .2.23 1.54 1.54 0 0 1 .13.26 1.67 1.67 0 0 1 .08.28 1.55 1.55 0 0 1 .03.3v5.38a.9.9 0 0 0 .02.17.87.87 0 0 0 .05.15.96.96 0 0 0 .07.14 1.32 1.32 0 0 0 .1.12c.04.03.08.07.13.1a.73.73 0 0 0 .14.07.8.8 0 0 0 .15.05.93.93 0 0 0 .33 0 .8.8 0 0 0 .16-.05.73.73 0 0 0 .15-.07.7.7 0 0 0 .12-.1 1.2 1.2 0 0 0 .1-.12 1.07 1.07 0 0 0 .07-.14.87.87 0 0 0 .05-.15.9.9 0 0 0 0-.17v-3.44a1.6 1.6 0 0 1 .12-.6 2.06 2.06 0 0 1 .14-.25 1.6 1.6 0 0 1 .2-.2 1.86 1.86 0 0 1 .2-.2 2.25 2.25 0 0 1 .27-.14 1.48 1.48 0 0 1 .28-.1 1.56 1.56 0 0 1 .62 0 1.4 1.4 0 0 1 .3.1 2.04 2.04 0 0 1 .24.14 1.86 1.86 0 0 1 .23.2 1.53 1.53 0 0 1 .17.2 2.04 2.04 0 0 1 .14.27 1.55 1.55 0 0 1 .13.6v8.06zm1.57-9.3l-.67-.78c-.06-.08-.13-.15-.2-.22a3.1 3.1 0 0 0-.46-.38 2.83 2.83 0 0 0-.54-.3 4 4 0 0 0-.6-.18 3.58 3.58 0 0 0-.8-.06c-.04.02-.1.02-.15.03a.16.16 0 0 0-.07 0l-.43.07V8.4h3.92v17.33zM3.45 7.25a.79.79 0 0 0 .05.17.76.76 0 0 0 .1.16.84.84 0 0 0 .1.14l2.87 2.83a.57.57 0 0 0 .14.12.9.9 0 0 0 .17.08.5.5 0 0 0 .17.05.7.7 0 0 0 .35 0 .5.5 0 0 0 .16-.05.96.96 0 0 0 .16-.08.6.6 0 0 0 .14-.12.8.8 0 0 0 .12-.14.8.8 0 0 0 .08-.15.9.9 0 0 0 .05-.16 1 1 0 0 0 .03-.2.9.9 0 0 0-.02-.16 1 1 0 0 0-.04-.17 1.1 1.1 0 0 0-.08-.16.8.8 0 0 0-.12-.13L5 6.44a.96.96 0 0 0-.14-.12.9.9 0 0 0-.16-.08.97.97 0 0 0-.17-.05 1.04 1.04 0 0 0-.17-.03 1.03 1.03 0 0 0-.18.02.97.97 0 0 0-.17.04.8.8 0 0 0-.3.2.8.8 0 0 0-.1.14.76.76 0 0 0-.1.16.79.79 0 0 0-.04.17.82.82 0 0 0 0 .18.76.76 0 0 0 0 .17zM.4 15.73a.88.88 0 0 0 .16.08.52.52 0 0 0 .17.06.57.57 0 0 0 .18.02h4.05a.58.58 0 0 0 .2-.02 1.03 1.03 0 0 0 .16-.05.9.9 0 0 0 .17-.07.84.84 0 0 0 .13-.1.86.86 0 0 0 .1-.15 1.03 1.03 0 0 0 .1-.15.85.85 0 0 0 .05-.17.87.87 0 0 0 .02-.2.9.9 0 0 0-.07-.34 1.03 1.03 0 0 0-.1-.15.86.86 0 0 0-.1-.14.84.84 0 0 0-.13-.1.9.9 0 0 0-.16-.1 1 1 0 0 0-.16-.04.58.58 0 0 0-.2-.03H.92a.57.57 0 0 0-.17.02 1.03 1.03 0 0 0-.17.04.9.9 0 0 0-.16.08.84.84 0 0 0-.13.1.86.86 0 0 0-.12.15 1.13 1.13 0 0 0-.08.15.93.93 0 0 0-.05.17.92.92 0 0 0-.02.17.94.94 0 0 0 .02.2.93.93 0 0 0 .05.16 1.13 1.13 0 0 0 .08.15.86.86 0 0 0 .12.14.84.84 0 0 0 .13.1zM11.52 7.9c0 .04 0 .07 0 .1s0 .06.02.1 0 .05.02.08a.45.45 0 0 0 .03.08.42.42 0 0 0 .03.08c0 .03.03.05.04.08s.04.05.06.07.04.03.06.05.03.04.05.06a.27.27 0 0 0 .07.06c.03.02.05.03.08.05s.05.04.08.05l.08.03c.03 0 .06 0 .1.02a.28.28 0 0 0 .08 0 .87.87 0 0 0 .28 0 1 1 0 0 0 .17-.05.88.88 0 0 0 .15-.1.85.85 0 0 0 .13-.1.78.78 0 0 0 .1-.13.8.8 0 0 0 .1-.16.8.8 0 0 0 .05-.17.85.85 0 0 0 .02-.2v-4a.92.92 0 0 0-.02-.18.93.93 0 0 0-.05-.17 1.13 1.13 0 0 0-.1-.15.8.8 0 0 0-.1-.14.84.84 0 0 0-.13-.1.9.9 0 0 0-.16-.1.53.53 0 0 0-.18-.04.77.77 0 0 0-.37 0 .53.53 0 0 0-.17.05.9.9 0 0 0-.16.08.84.84 0 0 0-.13.1.86.86 0 0 0-.13.15 1.03 1.03 0 0 0-.08.15.9.9 0 0 0-.08.35v4z" class="cls-1"/></svg>