<svg xmlns="http://www.w3.org/2000/svg" width="50" height="50" viewBox="0 0 50 50" enable-background="new 0 0 50 50"><style type="text/css">.st0{fill-rule:evenodd;clip-rule:evenodd;fill:url(#_03_tools_1_);}</style><linearGradient id="_03_tools_1_" x1="1110.795" x2="1083.611" y1="-1197.095" y2="-1150.008" gradientUnits="userSpaceOnUse" gradientTransform="matrix(1 0 0 -1 -1074 -1147.515)"><stop offset="0" stop-color="#7AA741"/><stop offset="1" stop-color="#ACDC68"/></linearGradient><path id="_03_tools" d="M5.8 29.1H.7c-.4 0-.7.3-.7.7V41c0 .4.3.7.7.7h5.1c.4 0 .7-.3.7-.7V29.8c0-.4-.3-.7-.7-.7zm-.7 11.1H1.4v-9.8h3.7v9.8zm9.7-17.1H9.6c-.4 0-.7.3-.7.7v17.1c0 .4.3.7.7.7h5.1c.4 0 .7-.3.7-.7V23.8c.1-.4-.3-.7-.6-.7zM14 40.2h-3.7V24.5H14v15.7zm7.8 0h-2.5V18.5H23v3.9c0 .4.3.7.7.7.4 0 .7-.3.7-.7v-4.6c0-.4-.3-.7-.7-.7h-5.1c-.4 0-.7.3-.7.7V41c0 .4.3.7.7.7h3.2c.4-.1.6-.5.5-.9-.1-.3-.3-.5-.5-.6zm5.7-19.7c.4 0 .7-.3.7-.7v-7.2H32v4.9c0 .4.3.7.7.7.4 0 .7-.3.7-.7v-5.6c0-.4-.3-.7-.7-.7h-5.1c-.4 0-.7.3-.7.7v7.9c-.1.4.2.7.6.7zm8-14l2.8-2.8c-.1.1-.1.2-.1.3v13.4c0 .4.3.7.7.7.4 0 .7-.3.7-.7V4.1c0-.1 0-.2-.1-.3l2.8 2.8c.3.3.7.3 1 0 .3-.3.3-.7 0-1l-3.9-3.9c-.3-.3-.7-.3-1 0l-3.9 3.9c-.3.3-.3.7 0 1 .3.2.7.2 1-.1 0 .1 0 0 0 0zm3.4-3.4l.3.3c-.2-.1-.5-.1-.7 0l.4-.3zm10.4 28.4h-1.9l-.1-.3c-.2-1.1-.7-2.2-1.3-3.2l-.1-.2 1.3-1.3c.1-.1.2-.3.2-.5s-.1-.4-.2-.5l-2.8-2.8c-.3-.3-.7-.3-1 0L42.1 24l-.2-.1c-1-.6-2.1-1.1-3.2-1.3l-.3-.1v-1.9c0-.4-.3-.7-.7-.7h-3.9c-.4 0-.7.3-.7.7v1.9l-.3.1c-1.1.3-2.2.7-3.2 1.3l-.3.1-1.3-1.4c-.3-.3-.7-.3-1 0l-2.8 2.8c-.1.1-.2.3-.2.5s.1.4.2.5l1.3 1.3-.1.3c-.6 1-1.1 2.1-1.3 3.2l-.1.3h-1.9c-.4 0-.7.3-.7.7v4c0 .4.3.7.7.7H24l.1.3c.3 1.1.7 2.2 1.3 3.2l.1.2-1.3 1.3c-.3.3-.3.7 0 1l2.8 2.8c.3.3.7.3 1 0l1.3-1.3.2.1c1 .6 2.1 1.1 3.2 1.4l.3.1v1.9c0 .4.3.7.7.7h3.9c.4 0 .7-.3.7-.7V46l.3-.1c1.1-.3 2.2-.7 3.2-1.4l.2-.1 1.3 1.3c.3.3.7.3 1 0l2.8-2.8c.3-.3.3-.7 0-1l-1.3-1.3.1-.2c.6-1 1.1-2.1 1.3-3.2l.1-.3h1.9c.4 0 .7-.3.7-.7v-4c.1-.4-.2-.7-.6-.7zm-.7 4h-2.3v.1c-.1.6-.2 1.2-.4 1.7-.2.6-.4 1.3-.8 1.8-.3.5-.6 1-1 1.5l-.1.1.1.1 1.6 1.6-1.8 1.8-1.6-1.6-.1-.1-.1.1c-.5.4-1 .7-1.5 1-.6.3-1.2.6-1.8.8-.6.2-1.1.3-1.7.4H37v2.4h-2.5v-2.4h-.1c-.6-.1-1.2-.2-1.7-.4-.6-.2-1.2-.5-1.8-.8-.5-.3-1-.6-1.5-1l-.1-.1-.1.1-1.6 1.6-1.8-1.8 1.6-1.6.1-.1-.1-.1c-.4-.5-.7-1-1-1.5-.3-.6-.6-1.2-.8-1.8-.2-.6-.3-1.2-.4-1.7v-.1h-2.3V33h2.3v-.1c.1-.6.2-1.2.4-1.7.2-.6.4-1.3.8-1.8.3-.5.6-1 1-1.5l.1-.1-.1-.1-1.6-1.6 1.8-1.8 1.6 1.6.1.1.1-.1c.5-.4 1-.7 1.5-1 .6-.3 1.2-.6 1.8-.8.6-.2 1.1-.3 1.7-.4h.1v-2.4H37v2.4h.1c.6.1 1.2.2 1.7.4.6.2 1.2.5 1.8.8.5.3 1 .6 1.5 1l.1.1.1-.1 1.6-1.6 1.8 1.8-1.6 1.6-.1.1.1.1c.4.5.7 1 1 1.5.3.6.6 1.2.8 1.8.2.6.3 1.2.4 1.7v.1h2.3v2.5zm-5.9-4.2c-.3-.7-.6-1.3-1.1-1.8-.4-.5-.8-.9-1.2-1.2-.5-.4-1.1-.8-1.8-1.1-.6-.3-1.3-.4-2-.5-1.3-.2-2.6 0-3.8.5-.6.3-1.2.6-1.8 1.1-.5.4-.9.8-1.2 1.2-.4.5-.8 1.2-1.1 1.8-.3.6-.4 1.3-.5 2 0 .3-.1.6-.1.9 0 .3 0 .6.1.9.1.7.3 1.4.5 2 .3.6.6 1.2 1 1.8.4.5.8.9 1.2 1.2.5.4 1.1.8 1.8 1.1.6.3 1.3.4 2 .5.3 0 .6 0 .9 0s.6 0 .9 0c.7-.1 1.4-.3 2-.5.6-.3 1.2-.6 1.8-1.1.5-.4.9-.8 1.2-1.2.4-.5.8-1.2 1.1-1.8.3-.6.4-1.3.5-2 0-.3.1-.6.1-.9 0-.3 0-.6-.1-.9 0-.7-.1-1.4-.4-2zm-.9 3.9c0 .2-.1.3-.1.5-.1.6-.4 1.2-.7 1.8-.1.1-.2.3-.3.4-.4.5-.8 1-1.4 1.4-.1.1-.3.2-.4.3-.5.3-1.1.6-1.8.7-.2 0-.3.1-.5.1-.6.1-1.3.1-1.9 0-.2 0-.3-.1-.5-.1-.6-.1-1.2-.4-1.8-.7-.1-.1-.3-.2-.4-.3-.5-.4-1-.9-1.4-1.4-.1-.1-.2-.3-.3-.4-.3-.6-.6-1.2-.7-1.8 0-.2-.1-.3-.1-.5-.1-.6-.1-1.3 0-2 0-.2.1-.3.1-.5.1-.6.4-1.2.7-1.8.1-.1.2-.3.3-.4.4-.5.8-1 1.4-1.4.1-.1.3-.2.4-.3.5-.3 1.1-.6 1.8-.7.2 0 .3-.1.5-.1.6-.1 1.3-.1 1.9 0 .2 0 .3.1.5.1.6.1 1.2.4 1.8.7.1.1.3.2.4.3.5.4 1 .9 1.4 1.4.1.1.2.3.3.4.3.6.6 1.2.7 1.8 0 .2.1.3.1.5.1.7.1 1.3 0 2z" class="st0"/></svg>