<svg xmlns="http://www.w3.org/2000/svg" xmlns:xlink="http://www.w3.org/1999/xlink" width="50" height="50" viewBox="0 0 50 50">
  <defs>
    <style>
      .cls-1 {
        fill-rule: evenodd;
        fill: url(#linear-gradient);
      }
    </style>
    <linearGradient id="linear-gradient" x1="3705.934" y1="4616" x2="3677.066" y2="4566" gradientUnits="userSpaceOnUse">
      <stop offset="0" stop-color="#7aa741"/>
      <stop offset="1" stop-color="#acdc68"/>
    </linearGradient>
  </defs>
  <path id="_04_calendar" data-name="04_calendar" class="cls-1" d="M3667,4575.62v35.44a4.719,4.719,0,0,0,4.46,4.94h40.07a4.721,4.721,0,0,0,4.47-4.94v-35.14a4.309,4.309,0,0,0-4.16-4.45h-4.5v-3.58a1.666,1.666,0,0,0-.72-1.37,2.927,2.927,0,0,0-1.7-.52h-3.65a1.882,1.882,0,0,0-2.11,1.89v3.58h-15.32v-3.58a1.882,1.882,0,0,0-2.11-1.89h-3.65c-1.17,0-2.42.66-2.42,1.89v3.58h-4.32A4.312,4.312,0,0,0,3667,4575.62Zm47,35.44c0,1.43-.94,2.97-2.47,2.97h-40.07c-1.52,0-2.46-1.54-2.46-2.97v-26.07h45v26.07Zm-12.97-43.09h4.31v7.15h-4.31v-7.15Zm-23.19,0h4v7.15h-4v-7.15Zm-6.72,5.47a2.045,2.045,0,0,1,.35,0h4.19v1.57a2.312,2.312,0,0,0,2.42,2.08h3.65a2.087,2.087,0,0,0,1.47-.55,1.994,1.994,0,0,0,.64-1.41v-1.69h15.32v1.57a1.965,1.965,0,0,0,.56,1.45,2.057,2.057,0,0,0,1.43.63h3.77a2.312,2.312,0,0,0,2.42-2.08v-1.57h4.19a2.286,2.286,0,0,1,1.68.57,2.263,2.263,0,0,1,.79,1.58,1.93,1.93,0,0,1,0,.34v7.09h-45v-7.09A2.32,2.32,0,0,1,3671.12,4573.44Zm11.96,23.06a0.92,0.92,0,0,0-.7-0.56l-2.73-.4-1.22-2.43a0.859,0.859,0,0,0-.41-0.41,0.9,0.9,0,0,0-1.19.4l-1.23,2.44-2.73.4a0.954,0.954,0,0,0-.7.56l-0.01.03a0.917,0.917,0,0,0,.22.89l2,1.88-0.49,2.68a0.869,0.869,0,0,0,.08.55,0.906,0.906,0,0,0,.53.43,0.842,0.842,0,0,0,.27.04,0.857,0.857,0,0,0,.41-0.1l2.45-1.26,2.48,1.28,0.34,0.07h0.03a0.821,0.821,0,0,0,.53-0.17,0.863,0.863,0,0,0,.36-0.84l-0.49-2.68,1.98-1.87,0.02-.01a0.937,0.937,0,0,0,.21-0.89Zm-4.03,2.63,0.24,1.39-1.29-.68-0.37-.08-0.37.08-1.29.68,0.24-1.39a0.9,0.9,0,0,0-.27-0.78l-1-.95,1.4-.2h0.01a0.82,0.82,0,0,0,.64-0.48l0.64-1.26,0.63,1.26a0.835,0.835,0,0,0,.65.48l1.41,0.2-1.01.95A0.871,0.871,0,0,0,3679.05,4599.13Zm17.9-2.63a0.92,0.92,0,0,0-.7-0.56l-2.72-.4-1.23-2.43a0.859,0.859,0,0,0-.41-0.41,0.9,0.9,0,0,0-1.19.4l-1.23,2.44-2.72.4a0.952,0.952,0,0,0-.71.56l-0.01.03a0.941,0.941,0,0,0,.22.89l2,1.88-0.49,2.68a0.874,0.874,0,0,0,.09.55,0.858,0.858,0,0,0,.52.43,0.842,0.842,0,0,0,.27.04,0.857,0.857,0,0,0,.41-0.1l2.45-1.26,2.49,1.28,0.33,0.07h0.03a0.849,0.849,0,0,0,.54-0.17,0.876,0.876,0,0,0,.35-0.84l-0.49-2.68,1.99-1.87,0.01-.01a0.937,0.937,0,0,0,.21-0.89Zm-4.03,2.63,0.24,1.39-1.29-.68-0.37-.08-0.37.08-1.29.68,0.24-1.39a0.9,0.9,0,0,0-.27-0.78l-1-.95,1.41-.2h0a0.82,0.82,0,0,0,.64-0.48l0.64-1.26,0.64,1.26a0.8,0.8,0,0,0,.64.48l1.41,0.2-1.01.95A0.9,0.9,0,0,0,3692.92,4599.13Zm17.92-2.6-0.01-.03a0.952,0.952,0,0,0-.71-0.56l-2.72-.4-1.23-2.43a0.819,0.819,0,0,0-.41-0.41,0.9,0.9,0,0,0-1.19.4l-1.23,2.44-2.72.4a0.92,0.92,0,0,0-.7.56l-0.01.03a0.937,0.937,0,0,0,.21.89l2,1.88-0.49,2.68a0.874,0.874,0,0,0,.09.55,0.893,0.893,0,0,0,.79.47,0.857,0.857,0,0,0,.41-0.1l2.45-1.26,2.49,1.28,0.33,0.07h0.03a0.849,0.849,0,0,0,.54-0.17,0.876,0.876,0,0,0,.35-0.84l-0.49-2.68,1.99-1.87,0.01-.01A0.941,0.941,0,0,0,3710.84,4596.53Zm-4.05,2.6,0.24,1.39-1.29-.68-0.37-.08-0.37.08-1.29.68,0.24-1.39a0.9,0.9,0,0,0-.26-0.78l-1.01-.95,1.41-.2h0a0.8,0.8,0,0,0,.64-0.48l0.64-1.26,0.64,1.26a0.82,0.82,0,0,0,.64.48l1.41,0.2-1.01.95A0.928,0.928,0,0,0,3706.79,4599.13Z" transform="translate(-3666.5 -4566)"/>
</svg>
