<svg xmlns="http://www.w3.org/2000/svg" width="50" height="50"><defs><style>.cls-1 { fill-rule: evenodd; fill: url(#linear-gradient); }</style><linearGradient id="linear-gradient" x1="696.434" x2="667.566" y1="1418" y2="1368" gradientUnits="userSpaceOnUse"><stop offset="0" stop-color="#7aa741"/><stop offset="1" stop-color="#acdc68"/></linearGradient></defs><path id="_03_hedging" d="M50 28.92a.72.72 0 0 1-.2.45l-5.1 5.1a.8.8 0 0 1-.53.23h-.02a.75.75 0 0 1-.55-.23.77.77 0 0 1 0-1.07l3.83-3.8H39.8c-.1 7-1.35 17.86-8.42 17.86s-8.33-10.86-8.4-17.87H16.8v19.66a.77.77 0 0 1-.74.74h-.03a.76.76 0 0 1-.74-.76V29.6H9.17c-.08 7-1.34 17.86-8.4 17.86A.75.75 0 0 1 0 46.7a.76.76 0 0 1 .75-.75c5.78 0 6.82-9.92 6.9-16.36H.74a.77.77 0 0 1-.74-.76.78.78 0 0 1 .7-.77h6.96c.08-6.75 1.27-17 7.65-17.78V2.56L11.5 6.4a.76.76 0 0 1-1.07 0 .77.77 0 0 1 0-1.1l5.1-5.1a.77.77 0 0 1 1.08 0l5.1 5.1a.76.76 0 0 1 0 1.08.73.73 0 0 1-.53.23.7.7 0 0 1-.53-.22l-3.82-3.8v7.7c6.38.78 7.58 11.04 7.66 17.8h13.8c.1-7.02 1.36-17.86 8.42-17.86a.77.77 0 0 1 .7.88.78.78 0 0 1-.63.63c-5.84 0-6.9 9.9-6.96 16.34h7.62l-3.8-3.8a.76.76 0 0 1 1.05-1.1l5.12 5.13a.8.8 0 0 1 .05.08 1.2 1.2 0 0 1 .1.17s0 .03 0 .04a.8.8 0 0 1 .06.22.58.58 0 0 1 0 .1zM31.37 45.95c5.78 0 6.82-9.92 6.9-16.36h-13.8c.08 6.43 1.12 16.35 6.9 16.35zm-8.42-17.88c-.07-6.14-1.04-15.4-6.14-16.25v16.25h6.14zM15.3 11.82c-5.1.84-6.06 10.1-6.13 16.25h6.14V11.82z" class="cls-1"/></svg>