<svg xmlns="http://www.w3.org/2000/svg" xmlns:xlink="http://www.w3.org/1999/xlink" width="50" height="50" viewBox="0 0 50 50">
  <defs>
    <style>
      .cls-1 {
        fill-rule: evenodd;
        fill: url(#linear-gradient);
      }
    </style>
    <linearGradient id="linear-gradient" x1="3015.434" y1="4789" x2="2986.566" y2="4739" gradientUnits="userSpaceOnUse">
      <stop offset="0" stop-color="#7aa741"/>
      <stop offset="1" stop-color="#acdc68"/>
    </linearGradient>
  </defs>
  <path id="_05_hedging" data-name="05_hedging" class="cls-1" d="M3025.99,4767.92a0.745,0.745,0,0,1-.2.45l-5.11,5.11a0.769,0.769,0,0,1-.52.22h-0.01a0.747,0.747,0,0,1-.55-0.23,0.758,0.758,0,0,1,.01-1.07l3.82-3.81h-7.64c-0.08,7.01-1.34,17.87-8.41,17.87s-8.33-10.86-8.41-17.87h-6.15v19.67a0.765,0.765,0,0,1-.74.74h-0.03a0.762,0.762,0,0,1-.74-0.76v-19.65h-6.15c-0.08,7.01-1.34,17.87-8.41,17.87a0.755,0.755,0,1,1,0-1.51c5.78,0,6.82-9.92,6.89-16.36h-6.89a0.767,0.767,0,0,1-.74-0.75,0.787,0.787,0,0,1,.69-0.77h6.96c0.08-6.75,1.27-17.01,7.65-17.78v-7.73l-3.82,3.83a0.754,0.754,0,0,1-1.06,0,0.77,0.77,0,0,1-.01-1.08l5.11-5.11a0.767,0.767,0,0,1,1.07,0l5.11,5.11a0.767,0.767,0,0,1,0,1.07,0.741,0.741,0,0,1-.54.23h-0.01a0.719,0.719,0,0,1-.53-0.23l-3.81-3.82v7.73c6.38,0.77,7.57,11.03,7.65,17.78h13.82c0.08-7.01,1.35-17.85,8.41-17.85a0.771,0.771,0,0,1,.7.88,0.789,0.789,0,0,1-.63.63c-5.84,0-6.89,9.9-6.96,16.34h7.61l-3.81-3.81a0.757,0.757,0,0,1,1.06-1.08l5.12,5.12c0.02,0.02.03,0.06,0.05,0.08a0.991,0.991,0,0,1,.11.17,0.06,0.06,0,0,1,.01.04,0.635,0.635,0,0,1,.05.23A0.3,0.3,0,0,1,3025.99,4767.92Zm-18.61,17.03c5.78,0,6.82-9.92,6.89-16.36h-13.78C3000.56,4775.03,3001.6,4784.95,3007.38,4784.95Zm-8.42-17.88c-0.07-6.14-1.04-15.41-6.14-16.25v16.25h6.14Zm-7.65-16.25c-5.1.84-6.07,10.11-6.14,16.25h6.14v-16.25Z" transform="translate(-2976 -4739)"/>
</svg>
