<svg xmlns="http://www.w3.org/2000/svg" width="50" height="50"><defs><style>.cls-1 { fill-rule: evenodd; fill: url(#linear-gradient); }</style><linearGradient id="linear-gradient" x1="968.815" x2="949.185" y1="1410" y2="1376" gradientUnits="userSpaceOnUse"><stop offset="0" stop-color="#7aa741"/><stop offset="1" stop-color="#acdc68"/></linearGradient></defs><path id="_04_encrypt" d="M32.1 18.38h-.2v-3.72a6.87 6.87 0 0 0-13.74 0v3.72h-.2a2.34 2.34 0 0 0-2.37 2.3v8.78a2.34 2.34 0 0 0 2.36 2.3H32.1a2.34 2.34 0 0 0 2.37-2.3V20.7a2.34 2.34 0 0 0-2.38-2.32zM19.4 14.66a5.6 5.6 0 0 1 11.2 0v3.72h-11.2v-3.72zm13.83 14.8a1.13 1.13 0 0 1-1.16 1.12H17.95a1.13 1.13 0 0 1-1.16-1.12V20.7a1.13 1.13 0 0 1 1.16-1.14H32.1a1.13 1.13 0 0 1 1.15 1.13v8.76zm-6.7-5.44a1.37 1.37 0 0 1-.62 1.17.43.43 0 0 0-.15.3v1.85a.72.72 0 0 1-.35.64.74.74 0 0 1-1.1-.65V25.5a.36.36 0 0 0-.16-.3 1.42 1.42 0 0 1-.5-1.77 1.5 1.5 0 0 1 1.6-.83 1.57 1.57 0 0 1 1.27 1.42zm-14.35.83H7a3 3 0 1 0-2.92 3.58A2.92 2.92 0 0 0 7 26.13h5.2a.57.57 0 0 0 .6-.6.58.58 0 0 0-.6-.68zm-8.12 2.3a1.72 1.72 0 1 1 1.76-1.7 1.76 1.76 0 0 1-1.76 1.7zm8.12-7.44H6.75a2.02 2.02 0 0 1-2.07-2v-3.04a2.95 2.95 0 0 0 2.38-2.84 3.03 3.03 0 0 0-6.06 0 2.88 2.88 0 0 0 2.37 2.84v3.04a3.23 3.23 0 0 0 3.28 3.18h5.45a.57.57 0 0 0 .6-.6.5.5 0 0 0-.5-.57zm-9.9-7.88a1.77 1.77 0 1 1 1.78 1.7 1.77 1.77 0 0 1-1.77-1.7zm4.45 19.35h5.45a.58.58 0 1 0 0-1.17H6.75a3.23 3.23 0 0 0-3.28 3.18v3.04a2.95 2.95 0 0 0-2.37 2.84 3.03 3.03 0 0 0 6.05 0 2.87 2.87 0 0 0-2.37-2.84v-3.04a1.9 1.9 0 0 1 1.97-2zm-.9 7.9a1.77 1.77 0 0 1-1.77 1.7 1.74 1.74 0 0 1-1.77-1.7 1.77 1.77 0 0 1 3.54 0zm40.12-16.52a2.92 2.92 0 0 0-2.93 2.3h-5.2a.6.6 0 1 0 0 1.18h5.2a3 3 0 1 0 2.93-3.48zm0 4.6a1.72 1.72 0 1 1 1.77-1.7 1.76 1.76 0 0 1-1.77 1.7zm-3.03 11.9a3.03 3.03 0 0 0 6.06 0 2.87 2.87 0 0 0-2.37-2.83v-3.04A3.23 3.23 0 0 0 43.35 30h-5.5a.58.58 0 1 0 0 1.17h5.45a2.02 2.02 0 0 1 2.07 2v3.05a3 3 0 0 0-2.43 2.84zm4.8 0a1.77 1.77 0 0 1-1.76 1.73 1.73 1.73 0 0 1-1.77-1.72 1.77 1.77 0 0 1 3.54 0zM45.98 8.9a3 3 0 0 0-3.03 2.94 2.88 2.88 0 0 0 2.37 2.84v3.04a2.02 2.02 0 0 1-2.07 2h-5.4a.58.58 0 1 0 0 1.18h5.45a3.23 3.23 0 0 0 3.28-3.18v-3.04a2.92 2.92 0 0 0-.6-5.78zm0 4.65a1.72 1.72 0 1 1 1.76-1.7 1.76 1.76 0 0 1-1.77 1.7z" class="cls-1"/></svg>