<svg id="Layer_1" data-name="Layer 1" xmlns="http://www.w3.org/2000/svg" xmlns:xlink="http://www.w3.org/1999/xlink" viewBox="0 0 50 50"><defs><style>.cls-1{fill:url(#linear-gradient);}</style><linearGradient id="linear-gradient" x1="35.29" y1="40.8" x2="16.55" y2="8.35" gradientUnits="userSpaceOnUse"><stop offset="0" stop-color="#7aa741"/><stop offset="1" stop-color="#acdc68"/></linearGradient></defs><path class="cls-1" d="M5.39,25H4.78V23.68a.81.81,0,0,0-1.62,0V25H2.55A1.54,1.54,0,0,0,1,26.51v4.12a.81.81,0,0,0,1.62,0v-4H5.31V36H2.64V34.08a.81.81,0,0,0-1.62,0v2a1.54,1.54,0,0,0,1.53,1.54h.61v4.31a.81.81,0,0,0,1.62,0V37.57h.61A1.54,1.54,0,0,0,6.92,36V26.51A1.54,1.54,0,0,0,5.39,25Zm36-22.45a8,8,0,1,0,8,8A8,8,0,0,0,41.43,2.52Zm0,14.43a6.42,6.42,0,1,1,6.42-6.42A6.43,6.43,0,0,1,41.43,17ZM12.7,33.17v7.14a.81.81,0,0,0,1.62,0V33.17h.6a1.54,1.54,0,0,0,1.54-1.54V22.11a1.54,1.54,0,0,0-1.54-1.54h-.6V17a.81.81,0,1,0-1.62,0v3.59h-.61a1.54,1.54,0,0,0-1.53,1.54v9.52a1.54,1.54,0,0,0,1.53,1.54Zm-.53-11h2.67v9.36H12.17Zm-10-3.69L27.62,4.76A.8.8,0,0,0,28,3.67a.81.81,0,0,0-1.1-.33L1.44,17.07a.81.81,0,0,0,.77,1.43Zm23,2.55a.81.81,0,0,0,.81-.81v-5a1.54,1.54,0,0,0-1.54-1.53h-.6V10.47a.81.81,0,1,0-1.62,0v3.22h-.61a1.54,1.54,0,0,0-1.54,1.53V30a1.54,1.54,0,0,0,1.54,1.54h.61v4.3a.81.81,0,1,0,1.62,0v-4.3h.6A1.54,1.54,0,0,0,26,30V23.68a.81.81,0,0,0-1.62,0V30H21.71V15.3h2.67v4.94A.81.81,0,0,0,25.19,21.05ZM41.43,5.72a.8.8,0,0,0-.8.8v4.81a.81.81,0,0,0,1.61,0V6.52A.8.8,0,0,0,41.43,5.72Zm0,8a.81.81,0,1,0,.81.81A.8.8,0,0,0,41.43,13.73ZM43,27.85l-5.38,2.89a.81.81,0,0,0-.33,1.09.83.83,0,0,0,.72.43.75.75,0,0,0,.38-.1l5.37-2.89a.8.8,0,0,0,.33-1.09A.81.81,0,0,0,43,27.85Zm-9-5.43h-.61V17.13a.81.81,0,1,0-1.61,0v5.29h-.61A1.54,1.54,0,0,0,29.63,24v9.53A1.54,1.54,0,0,0,31.17,35h.61v6.42a.81.81,0,1,0,1.61,0V35H34a1.54,1.54,0,0,0,1.54-1.53V24A1.54,1.54,0,0,0,34,22.42Zm-.08,11H31.25V24h2.67Zm-5.7,2.38L12.3,44.37a.81.81,0,0,0,.77,1.43L29,37.21a.81.81,0,1,0-.77-1.43Z"/></svg>