<svg xmlns="http://www.w3.org/2000/svg" xmlns:xlink="http://www.w3.org/1999/xlink" width="50" height="50" viewBox="0 0 50 50">
  <defs>
    <style>
      .cls-1 {
        fill-rule: evenodd;
        fill: url(#linear-gradient);
      }
    </style>
    <linearGradient id="linear-gradient" x1="3568.434" y1="4789" x2="3539.566" y2="4739" gradientUnits="userSpaceOnUse">
      <stop offset="0" stop-color="#7aa741"/>
      <stop offset="1" stop-color="#acdc68"/>
    </linearGradient>
  </defs>
  <path id="_07_timeframes_" data-name="07_timeframes " class="cls-1" d="M3571.69,4781.67a25.01,25.01,0,1,1-18.8-42.67,1.041,1.041,0,0,1,1.1,1.04v0.05a1.052,1.052,0,0,1-.99,1.05,22.87,22.87,0,1,0,19.97,35.62,1.045,1.045,0,0,1,1.41-.3h0a1.048,1.048,0,0,1,.3,1.51A38.35,38.35,0,0,1,3571.69,4781.67Zm-7.86-40.78a1.075,1.075,0,1,1-1.07,1.08,1.073,1.073,0,0,1,1.07-1.08h0Zm3.08,4.22a1.072,1.072,0,1,1,1.21-1.77,24.866,24.866,0,0,1,7.53,8.14h0a24.879,24.879,0,0,1,3.21,15.18,1.071,1.071,0,0,1-2.13-.22,22.676,22.676,0,0,0-2.93-13.89h0a22.81,22.81,0,0,0-3.03-4.12,22.142,22.142,0,0,0-3.86-3.32h0Zm-8.74,22.63c-0.07.07-.13,0.14-0.2,0.21a5.6,5.6,0,1,1-5.03-9.47v-10.34a1.041,1.041,0,0,1,1.04-1.05h0.05a1.05,1.05,0,0,1,1.05,1.05v10.34a5.607,5.607,0,0,1,4.53,5.5,5.5,5.5,0,0,1-.34,1.92l6.01,3.69a1.044,1.044,0,0,1,.35,1.44h0a1.089,1.089,0,0,1-1.5.36Zm-1.71-6.2a3.452,3.452,0,0,0-4.9,0,3.455,3.455,0,0,0,2.45,5.9,3.458,3.458,0,0,0,2.45-5.9h0Zm-2.45,14.7a12.261,12.261,0,0,1-8.67-20.92,12.491,12.491,0,0,1,3.06-2.24,1.052,1.052,0,0,1,1.52.94v0.05a1.049,1.049,0,0,1-.55.93,10.11,10.11,0,1,0,9.86,17.64,1.1,1.1,0,0,1,1.12.01h0a1.09,1.09,0,0,1,0,1.86A12.21,12.21,0,0,1,3554.01,4776.24Zm13.49,1.24a19.081,19.081,0,1,1-18.91-31.8,1.042,1.042,0,0,1,1.33,1.01v0.05a1.041,1.041,0,0,1-.74,1,16.942,16.942,0,1,0,16.81,28.22,17.6,17.6,0,0,0,1.92-2.3,1.057,1.057,0,0,1,1.4-.3l0.01,0.01a1.048,1.048,0,0,1,.3,1.51A27.111,27.111,0,0,1,3567.5,4777.48Z" transform="translate(-3529 -4739)"/>
</svg>
