<svg xmlns="http://www.w3.org/2000/svg" width="50" height="50"><defs><style>.cls-1 { fill-rule: evenodd; fill: url(#linear-gradient); }</style><linearGradient id="linear-gradient" x1="1249.047" x2="1225.953" y1="1413" y2="1373" gradientUnits="userSpaceOnUse"><stop offset="0" stop-color="#7aa741"/><stop offset="1" stop-color="#acdc68"/></linearGradient></defs><path id="_05_vps" d="M11.67 9.14a3.1 3.1 0 1 0 3.08 3.1 3.1 3.1 0 0 0-3.08-3.1zm0 4.83a1.73 1.73 0 1 1 1.7-1.73 1.72 1.72 0 0 1-1.7 1.73zm27-3.45a.7.7 0 1 1-.7.7.7.7 0 0 1 .7-.7zm-2.74 0a.7.7 0 1 1-.68.7.7.7 0 0 1 .68-.7zm4.1 2.07a.7.7 0 1 1-.68.68.7.7 0 0 1 .68-.7zm-2.73 0a.7.7 0 1 1-.68.68.68.68 0 0 1 .68-.7zm-4.1-2.08a.7.7 0 1 1-.68.7.68.68 0 0 1 .68-.7zm1.37 2.07a.7.7 0 0 1 0 1.37.7.7 0 0 1 0-1.38zm-4.1-2.08a.7.7 0 1 1-.7.7.7.7 0 0 1 .7-.7zm1.36 2.07a.7.7 0 1 1-.68.68.7.7 0 0 1 .68-.7zm-4.1-2.08a.7.7 0 1 1-.68.7.7.7 0 0 1 .68-.7zm1.37 2.07a.7.7 0 1 1-.68.68.68.68 0 0 1 .68-.7zm16.4 3.7V8.18A3.17 3.17 0 0 0 42.35 5H7.65A3.17 3.17 0 0 0 4.5 8.18v8.12a3.17 3.17 0 0 1 0 4.98v8.13a3.17 3.17 0 0 0 3.15 3.2h16.67v5.57a3.45 3.45 0 0 0-2.67 2.7H5.18a.7.7 0 0 0 0 1.37h16.47a3.4 3.4 0 0 0 6.7 0h16.47a.7.7 0 0 0 0-1.38H28.35a3.46 3.46 0 0 0-2.67-2.7V32.6h16.67a3.17 3.17 0 0 0 3.15-3.2V21.3a3.17 3.17 0 0 1 0-4.98zM27.05 41.55A2.05 2.05 0 1 1 25 39.48a2.06 2.06 0 0 1 2.05 2.07zm17.08-20.27v8.13a1.8 1.8 0 0 1-1.78 1.8H7.65a1.8 1.8 0 0 1-1.78-1.8V21.3a1.8 1.8 0 0 1 1.78-1.8h34.7a1.8 1.8 0 0 1 1.78 1.8zM7.65 18.1a1.8 1.8 0 0 1-1.78-1.8V8.18a1.8 1.8 0 0 1 1.78-1.8h34.7a1.8 1.8 0 0 1 1.78 1.8v8.12a1.8 1.8 0 0 1-1.78 1.8H7.65zm4.02 10.35a3.1 3.1 0 1 0-3.07-3.1 3.1 3.1 0 0 0 3.07 3.1zm0-4.83a1.73 1.73 0 1 1-1.7 1.72 1.7 1.7 0 0 1 1.7-1.72zm27 0a.7.7 0 1 1-.7.7.7.7 0 0 1 .7-.7zm-2.74 0a.7.7 0 1 1-.68.7.7.7 0 0 1 .68-.7zm4.1 2.07a.7.7 0 1 1-.68.68.7.7 0 0 1 .68-.7zm-2.73 0a.7.7 0 1 1-.68.68.68.68 0 0 1 .68-.7zm-4.1-2.08a.7.7 0 1 1-.68.7.68.68 0 0 1 .68-.7zm1.37 2.07a.7.7 0 1 1-.7.68.7.7 0 0 1 .7-.7zm-4.1-2.08a.7.7 0 1 1-.7.7.7.7 0 0 1 .7-.7zm1.36 2.07a.7.7 0 1 1-.68.68.7.7 0 0 1 .68-.7zm-4.1-2.08a.7.7 0 1 1-.68.7.7.7 0 0 1 .68-.7zm1.37 2.07a.7.7 0 1 1-.68.68.68.68 0 0 1 .68-.7z" class="cls-1"/></svg>