<svg xmlns="http://www.w3.org/2000/svg" xmlns:xlink="http://www.w3.org/1999/xlink" width="50" height="50" viewBox="0 0 50 50">
  <defs>
    <style>
      .cls-1 {
        fill-rule: evenodd;
        fill: url(#linear-gradient);
      }
    </style>
    <linearGradient id="linear-gradient" x1="5750.779" y1="4640" x2="5724.221" y2="4594" gradientUnits="userSpaceOnUse">
      <stop offset="0" stop-color="#7aa741"/>
      <stop offset="1" stop-color="#acdc68"/>
    </linearGradient>
  </defs>
  <path id="_05_vps_copy" data-name="05_vps copy" class="cls-1" d="M5722.22,4598.76a3.565,3.565,0,1,0,3.53,3.57A3.549,3.549,0,0,0,5722.22,4598.76Zm0,5.55a1.985,1.985,0,1,1,1.96-1.98A1.965,1.965,0,0,1,5722.22,4604.31Zm30.95-3.97a0.8,0.8,0,1,1-.79.8A0.792,0.792,0,0,1,5753.17,4600.34Zm-3.14,0a0.8,0.8,0,0,1,0,1.59A0.8,0.8,0,0,1,5750.03,4600.34Zm4.7,2.38a0.8,0.8,0,1,1-.78.8A0.792,0.792,0,0,1,5754.73,4602.72Zm-3.13,0a0.8,0.8,0,1,1-.78.8A0.792,0.792,0,0,1,5751.6,4602.72Zm-4.7-2.38a0.8,0.8,0,1,1-.78.8A0.792,0.792,0,0,1,5746.9,4600.34Zm1.56,2.38a0.8,0.8,0,1,1-.78.8A0.794,0.794,0,0,1,5748.46,4602.72Zm-4.69-2.38a0.8,0.8,0,1,1-.79.8A0.792,0.792,0,0,1,5743.77,4600.34Zm1.56,2.38a0.8,0.8,0,0,1,0,1.59A0.8,0.8,0,0,1,5745.33,4602.72Zm-4.7-2.38a0.8,0.8,0,1,1-.78.8A0.792,0.792,0,0,1,5740.63,4600.34Zm1.57,2.38a0.8,0.8,0,1,1-.79.8A0.8,0.8,0,0,1,5742.2,4602.72ZM5761,4607v-9.35a3.636,3.636,0,0,0-3.61-3.65h-39.78a3.636,3.636,0,0,0-3.61,3.65V4607a3.637,3.637,0,0,1,0,5.72v9.35a3.636,3.636,0,0,0,3.61,3.65h19.11v6.43a3.937,3.937,0,0,0-3.06,3.09h-18.88a0.783,0.783,0,0,0-.78.79,0.792,0.792,0,0,0,.78.8h18.88a3.911,3.911,0,0,0,7.68,0h18.88a0.792,0.792,0,0,0,.78-0.8,0.783,0.783,0,0,0-.78-0.79h-18.88a3.964,3.964,0,0,0-3.06-3.09v-6.43h19.11a3.636,3.636,0,0,0,3.61-3.65v-9.35A3.637,3.637,0,0,1,5761,4607Zm-21.15,29.03a2.35,2.35,0,1,1-2.35-2.38A2.367,2.367,0,0,1,5739.85,4636.03Zm19.58-23.31v9.35a2.062,2.062,0,0,1-2.04,2.07h-39.78a2.055,2.055,0,0,1-2.04-2.07v-9.35a2.055,2.055,0,0,1,2.04-2.07h39.78A2.062,2.062,0,0,1,5759.43,4612.72Zm-41.82-3.65a2.055,2.055,0,0,1-2.04-2.07v-9.35a2.055,2.055,0,0,1,2.04-2.07h39.78a2.062,2.062,0,0,1,2.04,2.07V4607a2.062,2.062,0,0,1-2.04,2.07h-39.78Zm4.61,11.89a3.565,3.565,0,1,0-3.52-3.56A3.549,3.549,0,0,0,5722.22,4620.96Zm0-5.55a1.985,1.985,0,1,1-1.95,1.99A1.976,1.976,0,0,1,5722.22,4615.41Zm30.95,0a0.8,0.8,0,1,1-.79.8A0.792,0.792,0,0,1,5753.17,4615.41Zm-3.14,0a0.8,0.8,0,0,1,0,1.59A0.8,0.8,0,0,1,5750.03,4615.41Zm4.7,2.38a0.8,0.8,0,1,1-.78.79A0.79,0.79,0,0,1,5754.73,4617.79Zm-3.13,0a0.8,0.8,0,1,1-.78.79A0.79,0.79,0,0,1,5751.6,4617.79Zm-4.7-2.38a0.8,0.8,0,1,1-.78.8A0.792,0.792,0,0,1,5746.9,4615.41Zm1.56,2.38a0.8,0.8,0,1,1-.78.79A0.792,0.792,0,0,1,5748.46,4617.79Zm-4.69-2.38a0.8,0.8,0,1,1-.79.8A0.792,0.792,0,0,1,5743.77,4615.41Zm1.56,2.38a0.8,0.8,0,1,1-.78.79A0.79,0.79,0,0,1,5745.33,4617.79Zm-4.7-2.38a0.8,0.8,0,1,1-.78.8A0.792,0.792,0,0,1,5740.63,4615.41Zm1.57,2.38a0.8,0.8,0,0,1,0,1.59A0.8,0.8,0,0,1,5742.2,4617.79Z" transform="translate(-5712.5 -4592)"/>
</svg>
