<svg width="136" height="158" viewBox="0 0 136 158" fill="none" xmlns="http://www.w3.org/2000/svg">
<g clip-path="url(#clip0_563_98947)">
<path d="M18.3978 138.155C18.922 131.742 20.1967 125.412 22.1956 119.293C23.1607 116.401 24.2833 113.564 25.549 110.743C29.5551 101.807 34.9188 93.5372 41.4519 86.2241C46.4342 80.6831 52.1995 75.8923 58.5669 72.0018C61.9511 70.1002 65.5434 68.5911 69.2733 67.5043C69.7787 67.3772 70.2943 67.2752 70.7845 67.1611C71.1172 67.0576 71.4602 66.9905 71.8076 66.961C72.4402 66.8354 73.0793 66.7444 73.7218 66.6885C75.0388 66.5247 76.3682 66.4814 77.6931 66.5591C78.1398 66.5744 78.5711 66.6178 78.9871 66.6611C81.7984 67.0105 84.5239 67.8593 87.0337 69.1671C82.0981 66.3438 75.5641 61.9193 69.6205 59.1973" stroke="#09544F" stroke-width="3" stroke-linecap="round" stroke-linejoin="round"/>
<path d="M75.2911 12.6666C70.0648 9.67285 58.3932 1.91139 53.6433 1.3247C30.2705 -1.55496 4.88404 48.614 24.5846 60.5" stroke="#09544F" stroke-width="3" stroke-linecap="round" stroke-linejoin="round"/>
<path d="M92.0567 73.32C86.2454 66.5722 77.3918 65.3173 69.2733 67.5044C57.5933 70.4708 47.0666 79.4658 39.4689 88.5148C28.1698 101.913 19.373 120.767 18.3979 138.156" stroke="#09544F" stroke-width="3" stroke-linecap="round" stroke-linejoin="round"/>
<path fill-rule="evenodd" clip-rule="evenodd" d="M82.2128 27.918C82.2128 20.4153 79.5791 15.1309 75.2911 12.6667C70.9864 10.2034 65.0703 10.5618 58.5233 14.328C52.0031 18.0797 46.074 24.5247 41.7991 31.9003C37.5242 39.2911 34.8621 47.6134 34.8621 55.1305C34.8621 62.6355 37.5242 67.9206 41.7991 70.384C56.9258 79.0777 82.2128 51.7075 82.2128 27.918Z" stroke="#09544F" stroke-width="3" stroke-linecap="round" stroke-linejoin="round"/>
<path d="M123.13 75.4965L112.998 69.6676L111.775 69.2666" stroke="#09544F" stroke-width="3" stroke-linecap="round" stroke-linejoin="round"/>
<path d="M111.775 69.2668C109.118 68.5622 106.342 68.4255 103.629 68.8657C96.6764 69.9394 89.7983 74.1934 84.6019 78.732C72.0807 89.6044 62.0916 107.792 60.7257 124.348C60.2363 129.833 60.7258 136.035 63.0866 141.091C64.0063 143.141 65.304 145.001 66.9126 146.575" stroke="#09544F" stroke-width="3" stroke-linecap="round" stroke-linejoin="round"/>
<path d="M66.9123 146.575L67.8779 147.421L77.9946 153.249" stroke="#09544F" stroke-width="3" stroke-linecap="round" stroke-linejoin="round"/>
<path d="M77.9945 153.249C77.3489 152.691 76.7344 152.099 76.1538 151.474C74.3375 149.321 72.9632 146.834 72.109 144.155C69.9646 137.338 70.4984 129.133 72.109 122.258C75.7637 106.732 86.2431 90.0034 99.4556 80.8684C104.377 77.4728 110.566 74.5651 116.624 74.4372C118.403 74.402 120.178 74.6237 121.892 75.0955" stroke="#09544F" stroke-width="3" stroke-linecap="round" stroke-linejoin="round"/>
<path fill-rule="evenodd" clip-rule="evenodd" d="M102.736 152.434C120.424 142.278 134.788 117.559 134.788 97.2239C134.788 76.8862 120.424 68.6218 102.736 78.791C85.0485 88.9594 70.6851 113.706 70.6851 134.044C70.6851 154.382 85.0485 162.603 102.736 152.434Z" stroke="#09544F" stroke-width="3" stroke-linecap="round" stroke-linejoin="round"/>
<path fill-rule="evenodd" clip-rule="evenodd" d="M106.939 87.6978V108.394L124.945 98.0539V107.692L117.589 111.916L106.939 118.034V138.713L98.519 143.54V122.844L80.5286 133.185V123.56L98.519 113.206V92.5252L106.939 87.6978Z" stroke="#09544F" stroke-width="3" stroke-linecap="round" stroke-linejoin="round"/>
<path d="M34.9898 66.4888C16.1365 80.8534 2.96766 105.128 1.21181 128.272" stroke="#09544F" stroke-width="3" stroke-linecap="round" stroke-linejoin="round"/>
<path d="M1.21174 128.272L18.3978 138.156" stroke="#09544F" stroke-width="3" stroke-linecap="round" stroke-linejoin="round"/>
<path d="M24.5846 60.5L41.799 70.3839" stroke="#09544F" stroke-width="3" stroke-linecap="round" stroke-linejoin="round"/>
<path d="M18.3978 138.156L63.0865 112.475" stroke="#09544F" stroke-width="3" stroke-linecap="round" stroke-linejoin="round"/>
</g>
<defs>
<clipPath id="clip0_563_98947">
<rect width="136" height="158" fill="white"/>
</clipPath>
</defs>
</svg>
