<svg xmlns="http://www.w3.org/2000/svg" viewBox="0 0 170.4 50.1"><defs><style>.cls-1{isolation:isolate;}.cls-2{fill:#fff;}.cls-3{fill:#a4ca39;}.cls-4{fill:#a6a6a6;}</style></defs><title>btn_dowload apk</title><g id="Layer_2" data-name="Layer 2"><g id="livetype"><path d="M6.3,0H164.1a6.27,6.27,0,0,1,6.3,6.3V43.8a6.27,6.27,0,0,1-6.3,6.3H6.3A6.4,6.4,0,0,1,0,43.8V6.3A6.27,6.27,0,0,1,6.3,0Z"/><g class="cls-1"><path class="cls-2" d="M51,27.13V10.06h5a7.88,7.88,0,0,1,4,1,6.89,6.89,0,0,1,2.72,2.86,9.07,9.07,0,0,1,1,4.24V19a9,9,0,0,1-1,4.26A6.79,6.79,0,0,1,60,26.13a8.33,8.33,0,0,1-4.1,1Zm3-14.68V24.76h1.93a4.45,4.45,0,0,0,3.58-1.46,6.33,6.33,0,0,0,1.27-4.19v-.95a6.53,6.53,0,0,0-1.2-4.24A4.29,4.29,0,0,0,56,12.45Z"/><path class="cls-2" d="M65.86,20.67a7.54,7.54,0,0,1,.74-3.36A5.41,5.41,0,0,1,68.68,15a5.88,5.88,0,0,1,3.07-.8,5.52,5.52,0,0,1,4.16,1.65,6.52,6.52,0,0,1,1.73,4.39v.66a7.6,7.6,0,0,1-.72,3.36,5.36,5.36,0,0,1-2.06,2.28,5.9,5.9,0,0,1-3.1.81,5.52,5.52,0,0,1-4.3-1.79,6.86,6.86,0,0,1-1.61-4.76Zm2.85.24A5.11,5.11,0,0,0,69.52,24a2.63,2.63,0,0,0,2.25,1.11A2.59,2.59,0,0,0,74,24a5.6,5.6,0,0,0,.81-3.29A5.06,5.06,0,0,0,74,17.62a2.8,2.8,0,0,0-4.46,0A5.53,5.53,0,0,0,68.71,20.91Z"/><path class="cls-2" d="M91.2,23.2l2-8.75H96L92.54,27.13H90.19l-2.72-8.71L84.8,27.13H82.46L79,14.45h2.78l2,8.66,2.6-8.66h2.14Z"/><path class="cls-2" d="M100.54,14.45l.08,1.46a4.57,4.57,0,0,1,3.69-1.7c2.64,0,4,1.51,4,4.54v8.38H105.5V18.91a2.62,2.62,0,0,0-.53-1.79,2.19,2.19,0,0,0-1.7-.58,2.75,2.75,0,0,0-2.57,1.56v9H97.86V14.45Z"/><path class="cls-2" d="M114.27,27.13h-2.84v-18h2.84Z"/><path class="cls-2" d="M116.84,20.67a7.54,7.54,0,0,1,.74-3.36,5.39,5.39,0,0,1,2.07-2.3,5.9,5.9,0,0,1,3.07-.8,5.56,5.56,0,0,1,4.17,1.65,6.57,6.57,0,0,1,1.73,4.39v.66a7.6,7.6,0,0,1-.72,3.36,5.36,5.36,0,0,1-2.06,2.28,5.9,5.9,0,0,1-3.1.81,5.52,5.52,0,0,1-4.3-1.79,6.86,6.86,0,0,1-1.61-4.76Zm2.85.24A5.11,5.11,0,0,0,120.5,24,2.81,2.81,0,0,0,125,24a5.61,5.61,0,0,0,.8-3.29,5.06,5.06,0,0,0-.82-3.05,2.64,2.64,0,0,0-2.25-1.12,2.61,2.61,0,0,0-2.21,1.1A5.53,5.53,0,0,0,119.69,20.91Z"/><path class="cls-2" d="M138.61,27.13a4.62,4.62,0,0,1-.32-1.19,4.79,4.79,0,0,1-6.45.33,3.52,3.52,0,0,1-1.21-2.7,3.6,3.6,0,0,1,1.51-3.11,7.32,7.32,0,0,1,4.31-1.08h1.74v-.83A2,2,0,0,0,136,16.38a2.49,2.49,0,0,0-1.59.49,1.5,1.5,0,0,0-.62,1.23H130.9a3.18,3.18,0,0,1,.69-2,4.54,4.54,0,0,1,1.88-1.42,6.54,6.54,0,0,1,2.66-.52,5.3,5.3,0,0,1,3.55,1.12A4,4,0,0,1,141,18.48V24.2a6.49,6.49,0,0,0,.48,2.73v.2Zm-3.13-2.06a3.14,3.14,0,0,0,1.59-.41,2.7,2.7,0,0,0,1.12-1.1V21.17h-1.53a4.25,4.25,0,0,0-2.38.55,1.8,1.8,0,0,0-.8,1.56,1.66,1.66,0,0,0,.55,1.31A2.1,2.1,0,0,0,135.48,25.07Z"/><path class="cls-2" d="M143.49,20.69a7.5,7.5,0,0,1,1.36-4.7,4.33,4.33,0,0,1,3.64-1.78,4.13,4.13,0,0,1,3.26,1.41V9.13h2.85v18H152l-.14-1.32a4.2,4.2,0,0,1-3.41,1.55,4.32,4.32,0,0,1-3.6-1.79A7.82,7.82,0,0,1,143.49,20.69Zm2.85.25a5.27,5.27,0,0,0,.74,3A2.42,2.42,0,0,0,149.2,25a2.69,2.69,0,0,0,2.55-1.56V18.07a2.65,2.65,0,0,0-2.53-1.53,2.43,2.43,0,0,0-2.13,1.1A5.88,5.88,0,0,0,146.34,20.94Z"/></g><g class="cls-1"><path class="cls-2" d="M51.88,39.5V34.66H51v-1h.89v-.53a1.84,1.84,0,0,1,2-2,3.23,3.23,0,0,1,.73.09l0,1a3.62,3.62,0,0,0-.5,0,.84.84,0,0,0-.94,1v.52h1.19v1H53.18V39.5Z"/><path class="cls-2" d="M55.07,36.54A3.52,3.52,0,0,1,55.41,35a2.49,2.49,0,0,1,1-1,2.74,2.74,0,0,1,1.41-.37,2.53,2.53,0,0,1,1.91.76,3,3,0,0,1,.79,2v.3a3.45,3.45,0,0,1-.33,1.54,2.48,2.48,0,0,1-.95,1.05,2.76,2.76,0,0,1-1.42.37,2.56,2.56,0,0,1-2-.82,3.15,3.15,0,0,1-.74-2.18Zm1.31.11a2.34,2.34,0,0,0,.37,1.41,1.29,1.29,0,0,0,2.06,0,2.55,2.55,0,0,0,.37-1.51,2.35,2.35,0,0,0-.38-1.4,1.22,1.22,0,0,0-1-.51,1.18,1.18,0,0,0-1,.51A2.44,2.44,0,0,0,56.38,36.65Z"/><path class="cls-2" d="M64.62,34.88a3.08,3.08,0,0,0-.53,0,1.2,1.2,0,0,0-1.21.69v4h-1.3V33.69h1.24l0,.65a1.46,1.46,0,0,1,1.31-.76,1.22,1.22,0,0,1,.46.08Z"/><path class="cls-2" d="M72.69,37.68h-3L69,39.5H67.62l2.95-7.82h1.22l3,7.82H73.33ZM70,36.58h2.27l-1.13-3.24Z"/><path class="cls-2" d="M76.46,33.69l0,.67a2.08,2.08,0,0,1,1.69-.78c1.21,0,1.83.69,1.85,2.08V39.5H78.73V35.73a1.17,1.17,0,0,0-.24-.81,1,1,0,0,0-.78-.27,1.25,1.25,0,0,0-1.17.72V39.5H75.23V33.69Z"/><path class="cls-2" d="M81.12,36.55a3.46,3.46,0,0,1,.63-2.16,2,2,0,0,1,1.67-.81,1.9,1.9,0,0,1,1.49.65v-3h1.31V39.5H85L85,38.9a1.93,1.93,0,0,1-1.56.71,2,2,0,0,1-1.65-.82A3.55,3.55,0,0,1,81.12,36.55Zm1.31.11a2.4,2.4,0,0,0,.34,1.39,1.11,1.11,0,0,0,1,.49,1.23,1.23,0,0,0,1.17-.71V35.35a1.21,1.21,0,0,0-1.16-.7,1.13,1.13,0,0,0-1,.5A2.7,2.7,0,0,0,82.43,36.66Z"/><path class="cls-2" d="M90.62,34.88a3.08,3.08,0,0,0-.53,0,1.2,1.2,0,0,0-1.21.69v4H87.57V33.69h1.25l0,.65a1.47,1.47,0,0,1,1.31-.76,1.28,1.28,0,0,1,.47.08Z"/><path class="cls-2" d="M91,36.54A3.38,3.38,0,0,1,91.35,35a2.42,2.42,0,0,1,1-1,2.68,2.68,0,0,1,1.4-.37,2.52,2.52,0,0,1,1.91.76,3,3,0,0,1,.79,2v.3a3.45,3.45,0,0,1-.33,1.54,2.48,2.48,0,0,1-1,1.05,2.76,2.76,0,0,1-1.42.37,2.52,2.52,0,0,1-2-.82A3.1,3.1,0,0,1,91,36.61Zm1.3.11a2.34,2.34,0,0,0,.37,1.41,1.29,1.29,0,0,0,2.06,0,2.55,2.55,0,0,0,.37-1.51,2.35,2.35,0,0,0-.38-1.4,1.27,1.27,0,0,0-2,0A2.5,2.5,0,0,0,92.31,36.65Z"/><path class="cls-2" d="M97.52,32.18a.68.68,0,0,1,.19-.5.72.72,0,0,1,.54-.2.74.74,0,0,1,.55.2.68.68,0,0,1,.19.5.66.66,0,0,1-.19.49.74.74,0,0,1-.55.2.72.72,0,0,1-.54-.2A.66.66,0,0,1,97.52,32.18ZM98.9,39.5H97.6V33.69h1.3Z"/><path class="cls-2" d="M100.08,36.55a3.53,3.53,0,0,1,.62-2.16,2,2,0,0,1,1.67-.81,1.87,1.87,0,0,1,1.49.65v-3h1.31V39.5H104l-.07-.6a1.93,1.93,0,0,1-1.56.71,2,2,0,0,1-1.65-.82A3.61,3.61,0,0,1,100.08,36.55Zm1.3.11a2.48,2.48,0,0,0,.34,1.39,1.11,1.11,0,0,0,1,.49,1.21,1.21,0,0,0,1.17-.71V35.35a1.19,1.19,0,0,0-1.16-.7,1.11,1.11,0,0,0-1,.5A2.69,2.69,0,0,0,101.38,36.66Z"/><path class="cls-2" d="M110.08,38.13a.77.77,0,0,1,.57.2.76.76,0,0,1,0,1,.88.88,0,0,1-1.12,0,.66.66,0,0,1-.2-.51.69.69,0,0,1,.2-.52A.76.76,0,0,1,110.08,38.13Z"/><path class="cls-2" d="M115.82,39.5a1.8,1.8,0,0,1-.15-.54,2.2,2.2,0,0,1-3,.15,1.6,1.6,0,0,1-.55-1.24,1.64,1.64,0,0,1,.69-1.42,3.35,3.35,0,0,1,2-.5h.8v-.38a.92.92,0,0,0-1-1,1.14,1.14,0,0,0-.73.23.68.68,0,0,0-.28.57h-1.31a1.48,1.48,0,0,1,.32-.9,2,2,0,0,1,.86-.65,3,3,0,0,1,1.22-.24,2.42,2.42,0,0,1,1.62.51,1.84,1.84,0,0,1,.63,1.45v2.62a2.92,2.92,0,0,0,.22,1.25v.09Zm-1.44-.94a1.45,1.45,0,0,0,.73-.19,1.17,1.17,0,0,0,.51-.5v-1.1h-.7a2,2,0,0,0-1.09.25.82.82,0,0,0-.37.72.79.79,0,0,0,.25.6A1,1,0,0,0,114.38,38.56Z"/><path class="cls-2" d="M123.38,36.65a3.43,3.43,0,0,1-.61,2.15,2.11,2.11,0,0,1-3.17.18v2.75h-1.31v-8h1.2l.06.59a1.89,1.89,0,0,1,1.56-.7,2,2,0,0,1,1.67.79,3.57,3.57,0,0,1,.6,2.2Zm-1.3-.11a2.43,2.43,0,0,0-.34-1.38,1.12,1.12,0,0,0-1-.51,1.19,1.19,0,0,0-1.15.66v2.58a1.21,1.21,0,0,0,1.16.68,1.11,1.11,0,0,0,1-.51A2.61,2.61,0,0,0,122.08,36.54Z"/><path class="cls-2" d="M126.38,37l-.58.59v1.9h-1.31V31.25h1.31V36l.4-.51,1.61-1.81h1.57l-2.16,2.42,2.39,3.39H128.1Z"/></g><path class="cls-3" d="M38.17,18.08a2.09,2.09,0,0,0-2.08,2.09v8.69a2.09,2.09,0,1,0,4.17,0V20.17A2.09,2.09,0,0,0,38.17,18.08Zm-24.34,0a2.1,2.1,0,0,0-2.09,2.09v8.69a2.09,2.09,0,1,0,4.17,0V20.17A2.09,2.09,0,0,0,13.83,18.08Zm21.48.36V31.93a2.24,2.24,0,0,1-2.25,2.25H31.57v4.61a2.09,2.09,0,0,1-4.18,0V34.18H24.61v4.61a2.09,2.09,0,1,1-4.18,0V34.18H18.94a2.24,2.24,0,0,1-2.25-2.25V18.44Zm-4.75-8.22L32,7.56a.28.28,0,0,0-.12-.39.33.33,0,0,0-.14,0,.3.3,0,0,0-.26.15L30,10A10,10,0,0,0,22,10L20.49,7.28a.29.29,0,0,0-.4-.11.28.28,0,0,0-.12.39l1.48,2.66A8.51,8.51,0,0,0,16.7,17.7H35.32A8.52,8.52,0,0,0,30.56,10.22ZM21.7,14.3a.78.78,0,0,1,0-1.56.78.78,0,1,1,0,1.56Zm8.6,0a.78.78,0,0,1,0-1.56.78.78,0,0,1,0,1.56Z"/><path class="cls-4" d="M164.1,1a5.25,5.25,0,0,1,5.3,5.3V43.8a5.25,5.25,0,0,1-5.3,5.3H6.33A5.43,5.43,0,0,1,1,43.8V6.3A5.25,5.25,0,0,1,6.3,1H164.1m0-1H6.3A6.27,6.27,0,0,0,0,6.3V43.8a6.4,6.4,0,0,0,6.3,6.3H164.1a6.27,6.27,0,0,0,6.3-6.3V6.3A6.27,6.27,0,0,0,164.1,0Z"/></g></g></svg>