<svg width="170" height="50" viewBox="0 0 170 50" fill="none" xmlns="http://www.w3.org/2000/svg">
<path d="M0 5C0 2.23858 2.23858 0 5 0H165C167.761 0 170 2.23858 170 5V45C170 47.7614 167.761 50 165 50H5C2.23858 50 0 47.7614 0 45V5Z" fill="white" fill-opacity="0.1"/>
<path d="M39.7171 15.6173C39.6179 15.2566 39.2889 15.0058 38.914 15.0058L38.7749 15.0041C38.1442 14.9933 36.4813 14.965 34.4269 15.5681C29.8474 16.9119 26.6467 21.0432 26.4259 25.836H23.0852C22.7486 25.836 22.4437 26.0384 22.3154 26.35C22.1863 26.6616 22.2579 27.0198 22.4962 27.2581L29.994 34.7559C30.1565 34.9184 30.3697 35 30.583 35C30.7963 35 31.0096 34.9184 31.1721 34.7559L38.6699 27.2581C38.9081 27.0198 38.9798 26.6616 38.8507 26.35C38.7224 26.0384 38.4175 25.836 38.0809 25.836H33.7938C33.6347 24.2165 33.7971 19.8527 39.3405 16.5545C39.6621 16.3629 39.8171 15.9797 39.7171 15.6173Z" fill="white"/>
<path d="M54.2266 30.5V19.125H56.9375C58.2656 19.125 59.2969 19.5417 60.0312 20.375C60.7656 21.2031 61.1328 22.3698 61.1328 23.875V25.7812C61.1328 27.2865 60.7604 28.4505 60.0156 29.2734C59.2708 30.0911 58.1901 30.5 56.7734 30.5H54.2266ZM55.6562 20.3594V29.2734H56.8047C57.8099 29.2734 58.5443 28.987 59.0078 28.4141C59.4714 27.8359 59.7083 26.9818 59.7188 25.8516V23.8359C59.7188 22.638 59.487 21.7604 59.0234 21.2031C58.5651 20.6406 57.8698 20.3594 56.9375 20.3594H55.6562ZM62.8028 25.8828C62.8028 24.6536 63.0997 23.6823 63.6934 22.9688C64.2924 22.25 65.0815 21.8906 66.0606 21.8906C67.0398 21.8906 67.8263 22.2396 68.42 22.9375C69.019 23.6354 69.3263 24.5859 69.3419 25.7891V26.6797C69.3419 27.9036 69.045 28.8724 68.4513 29.5859C67.8575 30.2995 67.0658 30.6562 66.0763 30.6562C65.0971 30.6562 64.3106 30.3099 63.7169 29.6172C63.1283 28.9245 62.8236 27.987 62.8028 26.8047V25.8828ZM64.1856 26.6797C64.1856 27.5495 64.3549 28.2344 64.6934 28.7344C65.0372 29.2292 65.4981 29.4766 66.0763 29.4766C67.295 29.4766 67.9226 28.5964 67.9591 26.8359V25.8828C67.9591 25.0182 67.7872 24.3359 67.4434 23.8359C67.0997 23.3307 66.6388 23.0781 66.0606 23.0781C65.4929 23.0781 65.0372 23.3307 64.6934 23.8359C64.3549 24.3359 64.1856 25.0156 64.1856 25.875V26.6797ZM77.3478 28.0703L78.6291 22.0469H79.9963L77.9259 30.5H76.8244L75.1759 24.4531L73.5666 30.5H72.4572L70.4025 22.0469H71.7619L73.0744 27.9219L74.6447 22.0469H75.7384L77.3478 28.0703ZM82.6741 22.0469L82.7131 22.9609C83.2496 22.2474 83.9345 21.8906 84.7678 21.8906C86.2626 21.8906 87.0204 22.888 87.0413 24.8828V30.5H85.6663V24.9453C85.6663 24.2839 85.5543 23.8151 85.3303 23.5391C85.1116 23.2578 84.7808 23.1172 84.3381 23.1172C83.9944 23.1172 83.6845 23.2318 83.4084 23.4609C83.1376 23.6901 82.9189 23.9896 82.7522 24.3594V30.5H81.3694V22.0469H82.6741ZM90.5316 30.5H89.1488V18.5H90.5316V30.5ZM92.3422 25.8828C92.3422 24.6536 92.6391 23.6823 93.2328 22.9688C93.8318 22.25 94.6208 21.8906 95.6 21.8906C96.5792 21.8906 97.3656 22.2396 97.9594 22.9375C98.5583 23.6354 98.8656 24.5859 98.8812 25.7891V26.6797C98.8812 27.9036 98.5844 28.8724 97.9906 29.5859C97.3969 30.2995 96.6052 30.6562 95.6156 30.6562C94.6365 30.6562 93.85 30.3099 93.2562 29.6172C92.6677 28.9245 92.363 27.987 92.3422 26.8047V25.8828ZM93.725 26.6797C93.725 27.5495 93.8943 28.2344 94.2328 28.7344C94.5766 29.2292 95.0375 29.4766 95.6156 29.4766C96.8344 29.4766 97.462 28.5964 97.4984 26.8359V25.8828C97.4984 25.0182 97.3266 24.3359 96.9828 23.8359C96.6391 23.3307 96.1781 23.0781 95.6 23.0781C95.0323 23.0781 94.5766 23.3307 94.2328 23.8359C93.8943 24.3359 93.725 25.0156 93.725 25.875V26.6797ZM104.934 30.5C104.851 30.3177 104.791 30.0104 104.754 29.5781C104.265 30.2969 103.64 30.6562 102.879 30.6562C102.114 30.6562 101.515 30.4427 101.083 30.0156C100.655 29.5833 100.442 28.9766 100.442 28.1953C100.442 27.3359 100.734 26.6536 101.317 26.1484C101.9 25.6432 102.7 25.3854 103.715 25.375H104.731V24.4766C104.731 23.9714 104.619 23.612 104.395 23.3984C104.171 23.1849 103.83 23.0781 103.372 23.0781C102.955 23.0781 102.616 23.2031 102.356 23.4531C102.096 23.6979 101.965 24.0104 101.965 24.3906H100.583C100.583 23.9583 100.71 23.5469 100.965 23.1562C101.221 22.7604 101.564 22.4505 101.997 22.2266C102.429 22.0026 102.911 21.8906 103.442 21.8906C104.306 21.8906 104.963 22.1068 105.411 22.5391C105.864 22.9661 106.096 23.5911 106.106 24.4141V28.6797C106.111 29.3307 106.2 29.8958 106.372 30.375V30.5H104.934ZM103.09 29.3984C103.429 29.3984 103.752 29.3047 104.059 29.1172C104.366 28.9297 104.59 28.6953 104.731 28.4141V26.3984H103.95C103.293 26.4089 102.775 26.5573 102.395 26.8438C102.015 27.125 101.825 27.5208 101.825 28.0312C101.825 28.5104 101.921 28.8594 102.114 29.0781C102.306 29.2917 102.632 29.3984 103.09 29.3984ZM107.885 25.8906C107.885 24.5885 108.127 23.5964 108.612 22.9141C109.101 22.2318 109.802 21.8906 110.713 21.8906C111.521 21.8906 112.151 22.2188 112.604 22.875V18.5H113.987V30.5H112.721L112.651 29.5938C112.198 30.3021 111.549 30.6562 110.706 30.6562C109.831 30.6562 109.143 30.3177 108.643 29.6406C108.148 28.9583 107.896 27.9974 107.885 26.7578V25.8906ZM109.268 26.6797C109.268 27.6276 109.409 28.3255 109.69 28.7734C109.971 29.2161 110.43 29.4375 111.065 29.4375C111.752 29.4375 112.266 29.0911 112.604 28.3984V24.1328C112.25 23.4557 111.739 23.1172 111.073 23.1172C110.437 23.1172 109.979 23.3411 109.698 23.7891C109.417 24.2318 109.273 24.9141 109.268 25.8359V26.6797ZM125.124 27.5312H121.28L120.397 30.5H118.928L122.592 19.125H123.819L127.491 30.5H126.022L125.124 27.5312ZM121.655 26.2969H124.757L123.202 21.125L121.655 26.2969ZM130.387 26.0469V30.5H128.958V19.125H132.583C133.64 19.125 134.471 19.4427 135.075 20.0781C135.679 20.7083 135.981 21.5495 135.981 22.6016C135.981 23.6953 135.692 24.5391 135.114 25.1328C134.541 25.7214 133.731 26.026 132.684 26.0469H130.387ZM130.387 24.8203H132.583C133.218 24.8203 133.705 24.6302 134.044 24.25C134.382 23.8698 134.552 23.3255 134.552 22.6172C134.552 21.9349 134.377 21.388 134.028 20.9766C133.679 20.5651 133.2 20.3594 132.591 20.3594H130.387V24.8203ZM140.3 25.2578L139.183 26.6094V30.5H137.753V19.125H139.183V24.6172L140.12 23.375L143.183 19.125H144.901L141.206 24.1328L145.19 30.5H143.479L140.3 25.2578Z" fill="white"/>
</svg>
