<svg width="696" height="296" viewBox="0 0 696 296" fill="none" xmlns="http://www.w3.org/2000/svg">
<path fill-rule="evenodd" clip-rule="evenodd" d="M366.706 259.209C367.861 259.447 369.222 259.566 370.791 259.566H370.796H370.801L370.81 259.566C372.02 259.565 373.215 259.491 374.396 259.343C375.583 259.194 376.695 258.927 377.734 258.54C378.802 258.124 379.737 257.544 380.538 256.8C381.339 256.027 381.977 255.045 382.452 253.855C382.926 252.666 383.164 251.178 383.164 249.394C383.164 247.996 383.03 246.568 382.763 245.111C382.496 243.624 382.17 242.196 381.784 240.828C381.398 239.459 381.027 238.27 380.671 237.258L374.04 239.043C374.396 240.084 374.737 241.244 375.063 242.523C375.419 243.772 375.716 244.992 375.954 246.182C376.191 247.371 376.31 248.412 376.31 249.305C376.31 250.167 376.146 250.851 375.82 251.357C375.494 251.863 374.96 252.219 374.218 252.428C373.507 252.636 372.514 252.74 371.24 252.74C370.086 252.74 369.123 252.68 368.353 252.562C367.581 252.413 366.973 252.19 366.528 251.892C366.083 251.595 365.756 251.238 365.549 250.822C365.371 250.405 365.282 249.914 365.282 249.349C365.282 248.784 365.311 248.204 365.371 247.609C365.43 247.014 365.504 246.434 365.593 245.869C365.682 245.304 365.757 244.798 365.816 244.352L359.273 243.282C359.006 245.393 358.695 247.089 358.339 248.368C358.012 249.617 357.597 250.569 357.093 251.223C356.588 251.848 355.95 252.264 355.179 252.472C354.407 252.651 353.443 252.74 352.286 252.74L352.286 252.74L352.221 252.74C351.005 252.74 350.011 252.591 349.239 252.294C348.468 251.967 347.845 251.357 347.37 250.465C346.925 249.572 346.554 248.308 346.257 246.672C345.99 245.007 345.753 242.85 345.545 240.203L339.047 240.694C339.225 242.003 339.344 243.163 339.403 244.174C339.492 245.185 339.552 246.092 339.581 246.895C339.611 247.698 339.626 248.427 339.626 249.082C339.626 250.331 339.329 251.253 338.736 251.848C338.172 252.443 337.193 252.74 335.798 252.74C334.7 252.74 333.84 252.636 333.217 252.428C332.623 252.219 332.208 251.937 331.971 251.58C331.733 251.223 331.615 250.851 331.615 250.465C331.615 250.048 331.659 249.528 331.748 248.903C331.837 248.249 331.941 247.535 332.06 246.762C332.178 245.988 332.312 245.23 332.46 244.486L325.829 243.46C325.562 245.602 325.28 247.297 324.983 248.546C324.686 249.795 324.345 250.717 323.959 251.312C323.574 251.907 323.099 252.294 322.535 252.472C321.972 252.651 321.289 252.74 320.488 252.74C319.509 252.74 318.737 252.621 318.174 252.383C317.64 252.145 317.269 251.818 317.061 251.402C316.853 250.955 316.749 250.435 316.749 249.84C316.749 249.096 316.838 248.249 317.016 247.297C317.194 246.315 317.328 245.512 317.417 244.888L310.919 243.772C310.563 245.825 310.222 247.446 309.895 248.635C309.599 249.825 309.257 250.717 308.872 251.312C308.486 251.907 307.967 252.294 307.314 252.472C306.691 252.651 305.89 252.74 304.911 252.74H304.896C304.006 252.74 303.056 252.666 302.047 252.517C301.068 252.338 300.03 252.115 298.932 251.848C297.864 251.55 296.751 251.193 295.594 250.777C294.466 250.361 293.309 249.885 292.122 249.349L290.342 255.729C291.262 256.056 292.048 256.369 292.701 256.666C293.383 256.934 293.932 257.202 294.348 257.469C294.793 257.737 295.119 257.99 295.327 258.228C295.535 258.466 295.638 258.718 295.638 258.986C295.638 259.432 295.446 259.878 295.06 260.325C294.704 260.771 294.125 261.172 293.324 261.529C292.523 261.916 291.47 262.213 290.164 262.422C288.888 262.659 287.331 262.778 285.491 262.778C283.859 262.778 282.45 262.63 281.263 262.332C280.076 262.035 279.097 261.604 278.325 261.038C277.584 260.503 277.02 259.878 276.634 259.165C276.278 258.421 276.1 257.618 276.1 256.755C276.1 256.131 276.145 255.521 276.234 254.926C276.352 254.331 276.515 253.662 276.723 252.918C276.96 252.175 277.272 251.283 277.658 250.242L271.516 248.1C270.833 249.706 270.314 251.104 269.958 252.294C269.632 253.484 269.409 254.539 269.29 255.462C269.172 256.354 269.112 257.187 269.112 257.96C269.112 260.637 269.765 262.838 271.071 264.563C272.376 266.288 274.201 267.567 276.545 268.4C278.919 269.233 281.723 269.649 284.957 269.649C287.983 269.649 290.579 269.367 292.745 268.802C294.941 268.236 296.751 267.493 298.175 266.571C299.599 265.678 300.653 264.712 301.335 263.671C302.018 262.659 302.359 261.678 302.359 260.726C302.359 260.548 302.344 260.354 302.314 260.146C302.314 259.968 302.3 259.774 302.27 259.566H302.982H303.694H304.451H304.466C306.098 259.566 307.581 259.417 308.916 259.12C310.281 258.793 311.498 258.198 312.566 257.335C312.908 257.059 313.23 256.739 313.533 256.374C313.779 256.797 314.051 257.162 314.346 257.469C315.177 258.332 316.112 258.897 317.15 259.165C318.218 259.432 319.301 259.566 320.399 259.566C322.12 259.566 323.529 259.447 324.627 259.209C325.755 258.942 326.704 258.376 327.475 257.514C327.832 257.116 328.171 256.633 328.493 256.065C328.635 256.45 328.815 256.8 329.033 257.112C329.686 257.975 330.561 258.599 331.659 258.986C332.757 259.373 333.988 259.566 335.353 259.566C336.926 259.566 338.246 259.388 339.314 259.031C340.382 258.644 341.273 258.034 341.985 257.202C342.525 256.57 342.979 255.767 343.349 254.793C343.701 255.59 344.107 256.259 344.566 256.8C345.278 257.573 346.05 258.168 346.88 258.585C347.741 258.971 348.586 259.224 349.417 259.343C350.278 259.492 351.064 259.566 351.776 259.566L351.841 259.566C352.968 259.566 354.096 259.492 355.223 259.343C356.38 259.224 357.478 258.956 358.517 258.54C359.555 258.094 360.49 257.41 361.321 256.488C361.492 256.297 361.658 256.094 361.817 255.878C361.829 255.903 361.842 255.928 361.855 255.952C362.329 256.785 362.967 257.484 363.769 258.049C364.57 258.585 365.549 258.971 366.706 259.209ZM372.527 233.734L371.77 230.522C372.693 230.375 373.417 230.249 373.942 230.143C373.659 229.92 373.38 229.66 373.105 229.362C372.423 228.558 372.082 227.636 372.082 226.595C372.082 225.495 372.319 224.617 372.794 223.963C373.268 223.279 373.877 222.788 374.618 222.491C375.39 222.164 376.191 222 377.022 222C377.496 222 377.927 222.03 378.312 222.089C378.728 222.149 379.099 222.238 379.425 222.357L379.069 225.569L378.179 225.391C377.882 225.331 377.556 225.302 377.2 225.302C376.725 225.302 376.324 225.435 375.998 225.703C375.701 225.941 375.553 226.253 375.553 226.64C375.553 227.175 375.731 227.636 376.087 228.023C376.443 228.41 376.859 228.722 377.333 228.96C377.494 229.031 377.647 229.091 377.791 229.141C378.059 229.066 378.322 228.991 378.579 228.915C379.292 228.677 379.959 228.439 380.582 228.202L381.517 231.28C380.775 231.548 379.9 231.845 378.891 232.172C377.882 232.47 376.829 232.752 375.731 233.02C374.663 233.288 373.595 233.526 372.527 233.734ZM289.452 280C288.562 280 287.805 279.688 287.182 279.063C286.589 278.468 286.292 277.725 286.292 276.832C286.292 275.94 286.589 275.182 287.182 274.557C287.805 273.932 288.562 273.62 289.452 273.62C290.312 273.62 291.054 273.932 291.677 274.557C292.3 275.182 292.612 275.94 292.612 276.832C292.612 277.725 292.3 278.468 291.677 279.063C291.054 279.688 290.312 280 289.452 280ZM281.663 280C280.773 280 280.017 279.688 279.393 279.063C278.77 278.468 278.459 277.725 278.459 276.832C278.459 275.94 278.77 275.182 279.393 274.557C280.017 273.932 280.773 273.62 281.663 273.62C282.524 273.62 283.266 273.932 283.889 274.557C284.512 275.182 284.823 275.94 284.823 276.832C284.823 277.725 284.512 278.468 283.889 279.063C283.266 279.688 282.524 280 281.663 280ZM362.433 268.98C363.056 269.605 363.813 269.917 364.703 269.917C365.593 269.917 366.335 269.605 366.929 268.98C367.552 268.385 367.863 267.642 367.863 266.749C367.863 265.857 367.552 265.098 366.929 264.474C366.335 263.849 365.593 263.537 364.703 263.537C363.813 263.537 363.056 263.849 362.433 264.474C361.84 265.098 361.543 265.857 361.543 266.749C361.543 267.642 361.84 268.385 362.433 268.98ZM354.645 268.98C355.268 269.605 356.024 269.917 356.915 269.917C357.775 269.917 358.517 269.605 359.14 268.98C359.763 268.385 360.074 267.642 360.074 266.749C360.074 265.857 359.763 265.098 359.14 264.474C358.517 263.849 357.775 263.537 356.915 263.537C356.024 263.537 355.268 263.849 354.645 264.474C354.022 265.098 353.71 265.857 353.71 266.749C353.71 267.642 354.022 268.385 354.645 268.98ZM382.532 263.492L384.846 269.649C387.161 269.025 389.238 268.192 391.077 267.151C392.917 266.139 394.489 264.965 395.795 263.626C397.1 262.288 398.109 260.86 398.821 259.343C399.068 258.828 399.279 258.311 399.454 257.793C399.945 258.32 400.55 258.732 401.269 259.031C402.159 259.388 403.183 259.566 404.34 259.566H404.388C407.029 259.566 409.135 259.284 410.708 258.718C412.281 258.153 413.438 257.365 414.179 256.354C414.921 255.313 415.381 254.078 415.559 252.651C415.767 251.193 415.841 249.587 415.782 247.832L414.847 226.105H407.904L408.75 247.118C408.809 248.725 408.779 249.929 408.661 250.732C408.542 251.535 408.186 252.071 407.593 252.338C407.029 252.606 406.109 252.74 404.833 252.74L404.808 252.74L404.785 252.74C403.302 252.74 402.189 252.517 401.447 252.071C400.735 251.595 400.186 250.688 399.8 249.349C399.622 248.784 399.37 248.07 399.044 247.208C398.747 246.315 398.391 245.378 397.976 244.397C397.56 243.386 397.1 242.434 396.596 241.542L390.276 244.62C391.196 246.286 391.952 247.892 392.546 249.438C393.169 250.955 393.48 252.338 393.48 253.588C393.48 254.569 393.243 255.536 392.768 256.488C392.323 257.439 391.641 258.347 390.721 259.209C389.831 260.072 388.689 260.86 387.294 261.574C385.929 262.317 384.342 262.957 382.532 263.492ZM420.792 226.105L421.726 259.343H428.67L427.735 226.105H420.792ZM535.295 259.566H535.343C536.975 259.566 538.459 259.417 539.794 259.12C541.159 258.792 542.375 258.198 543.444 257.335C543.786 257.059 544.108 256.738 544.411 256.374C544.657 256.797 544.928 257.162 545.224 257.469C546.055 258.331 546.989 258.897 548.028 259.164C549.096 259.432 550.179 259.566 551.277 259.566C552.998 259.566 554.407 259.447 555.505 259.209C556.632 258.941 557.582 258.376 558.353 257.513C558.71 257.116 559.049 256.633 559.371 256.064C559.513 256.45 559.693 256.799 559.911 257.112C560.564 257.975 561.439 258.599 562.537 258.986C563.635 259.372 564.866 259.566 566.231 259.566C567.803 259.566 569.124 259.387 570.192 259.03C571.26 258.644 572.15 258.034 572.862 257.201C573.402 256.57 573.857 255.767 574.227 254.793C574.579 255.59 574.984 256.259 575.444 256.8C576.156 257.573 576.927 258.168 577.758 258.584C578.619 258.971 579.464 259.224 580.295 259.343C581.155 259.491 581.942 259.566 582.654 259.566L582.719 259.566C585.359 259.566 587.466 259.283 589.038 258.718C590.611 258.153 591.768 257.365 592.51 256.353C593.252 255.312 593.712 254.078 593.89 252.65C594.097 251.193 594.172 249.587 594.112 247.832L593.178 226.104H586.235L587.08 247.118C587.14 248.724 587.11 249.929 586.991 250.732C586.872 251.535 586.516 252.07 585.923 252.338C585.359 252.606 584.439 252.74 583.164 252.74L583.164 252.74L583.099 252.74C581.882 252.74 580.888 252.591 580.117 252.293C579.346 251.966 578.722 251.357 578.248 250.464C577.803 249.572 577.432 248.308 577.135 246.672C576.868 245.006 576.631 242.85 576.423 240.203L569.925 240.693C570.103 242.002 570.222 243.162 570.281 244.173C570.37 245.185 570.429 246.092 570.459 246.895C570.489 247.698 570.504 248.427 570.504 249.081C570.504 250.33 570.207 251.252 569.613 251.847C569.05 252.442 568.071 252.74 566.676 252.74C565.578 252.74 564.718 252.636 564.095 252.427C563.501 252.219 563.086 251.937 562.848 251.58C562.611 251.223 562.492 250.851 562.492 250.464C562.492 250.048 562.537 249.527 562.626 248.903C562.715 248.248 562.819 247.535 562.937 246.761C563.056 245.988 563.19 245.229 563.338 244.486L556.707 243.46C556.439 245.601 556.158 247.297 555.861 248.546C555.564 249.795 555.223 250.717 554.837 251.312C554.452 251.907 553.977 252.293 553.413 252.472C552.849 252.65 552.167 252.74 551.366 252.74C550.387 252.74 549.615 252.621 549.051 252.383C548.517 252.145 548.146 251.818 547.939 251.401C547.731 250.955 547.627 250.435 547.627 249.84C547.627 249.096 547.716 248.248 547.894 247.297C548.072 246.315 548.206 245.512 548.295 244.887L541.797 243.772C541.441 245.824 541.1 247.445 540.773 248.635C540.476 249.825 540.135 250.717 539.75 251.312C539.364 251.907 538.845 252.293 538.192 252.472C537.569 252.65 536.768 252.74 535.788 252.74C535.773 252.74 535.757 252.74 535.74 252.74C534.257 252.74 533.144 252.517 532.402 252.07C531.69 251.595 531.141 250.687 530.756 249.349C530.578 248.784 530.325 248.07 529.999 247.207C529.702 246.315 529.346 245.378 528.931 244.397C528.516 243.385 528.056 242.433 527.551 241.541L521.231 244.62C522.151 246.285 522.908 247.891 523.501 249.438C524.124 250.955 524.436 252.338 524.436 253.587C524.436 254.569 524.198 255.536 523.724 256.487C523.279 257.439 522.596 258.346 521.676 259.209C520.786 260.071 519.644 260.86 518.249 261.573C516.885 262.317 515.297 262.957 513.487 263.492L515.802 269.649C518.116 269.024 520.193 268.191 522.032 267.15C523.872 266.139 525.445 264.964 526.75 263.626C528.056 262.287 529.064 260.86 529.777 259.343C530.024 258.828 530.234 258.311 530.409 257.793C530.9 258.32 531.505 258.732 532.224 259.03C533.115 259.387 534.138 259.566 535.295 259.566ZM559.065 230.7C558.235 230.7 557.522 230.402 556.929 229.807C556.336 229.212 556.039 228.513 556.039 227.71C556.039 226.848 556.336 226.134 556.929 225.569C557.522 224.974 558.235 224.677 559.065 224.677C559.896 224.677 560.593 224.974 561.157 225.569C561.751 226.134 562.047 226.848 562.047 227.71C562.047 228.513 561.751 229.212 561.157 229.807C560.593 230.402 559.896 230.7 559.065 230.7ZM555.416 237.124C554.585 237.124 553.858 236.812 553.235 236.187C552.642 235.563 552.345 234.834 552.345 234.001C552.345 233.198 552.642 232.499 553.235 231.904C553.858 231.28 554.585 230.967 555.416 230.967C556.217 230.967 556.899 231.28 557.463 231.904C558.057 232.499 558.353 233.198 558.353 234.001C558.353 234.834 558.057 235.563 557.463 236.187C556.899 236.812 556.217 237.124 555.416 237.124ZM562.67 237.124C561.869 237.124 561.172 236.812 560.579 236.187C560.015 235.563 559.733 234.834 559.733 234.001C559.733 233.198 560.015 232.499 560.579 231.904C561.172 231.28 561.869 230.967 562.67 230.967C563.501 230.967 564.213 231.28 564.807 231.904C565.4 232.499 565.697 233.198 565.697 234.001C565.697 234.834 565.4 235.563 564.807 236.187C564.213 236.812 563.501 237.124 562.67 237.124ZM218.104 259.566L218.104 259.566C220.745 259.566 222.851 259.283 224.424 258.718C225.996 258.153 227.153 257.365 227.895 256.353C228.637 255.312 229.097 254.078 229.275 252.65C229.483 251.193 229.557 249.587 229.497 247.832L228.563 226.104H221.62L222.465 247.118C222.525 248.724 222.495 249.929 222.376 250.732C222.258 251.535 221.902 252.07 221.308 252.338C220.745 252.606 219.825 252.74 218.549 252.74L218.549 252.74L218.501 252.74C217.017 252.74 215.905 252.517 215.163 252.07C214.451 251.595 213.902 250.687 213.516 249.349C213.338 248.784 213.086 248.07 212.76 247.207C212.463 246.315 212.107 245.378 211.691 244.397C211.276 243.385 210.816 242.433 210.312 241.541L203.992 244.62C204.912 246.285 205.668 247.891 206.262 249.438C206.885 250.955 207.196 252.338 207.196 253.587C207.196 254.569 206.959 255.536 206.484 256.487C206.039 257.439 205.357 258.346 204.437 259.209C203.547 260.071 202.404 260.86 201.01 261.573C199.645 262.317 198.058 262.957 196.248 263.492L198.562 269.649C200.876 269.024 202.953 268.191 204.793 267.15C206.632 266.139 208.205 264.964 209.511 263.626C210.816 262.287 211.825 260.86 212.537 259.343C212.784 258.828 212.995 258.311 213.169 257.793C213.661 258.32 214.266 258.732 214.985 259.03C215.875 259.387 216.899 259.566 218.056 259.566L218.104 259.566ZM153.517 259.566H153.505C152.021 259.566 150.686 259.328 149.499 258.852C148.52 258.435 147.662 257.846 146.926 257.084C146.775 257.32 146.609 257.552 146.428 257.781C145.865 258.465 145.167 259.03 144.337 259.477C143.506 259.923 142.542 260.146 141.444 260.146C140.494 260.146 139.5 259.982 138.462 259.655C137.423 259.358 136.385 258.882 135.346 258.227C134.337 257.543 133.418 256.666 132.587 255.595C131.904 256.636 131.163 257.454 130.362 258.049C129.59 258.614 128.715 259.016 127.736 259.253C126.757 259.462 125.629 259.566 124.353 259.566H124.338H123.582H122.869H122.157C122.187 259.774 122.202 259.967 122.202 260.146C122.232 260.354 122.246 260.547 122.246 260.726C122.246 261.678 121.905 262.659 121.223 263.67C120.54 264.711 119.487 265.678 118.063 266.57C116.639 267.492 114.829 268.236 112.633 268.801C110.467 269.366 107.871 269.649 104.844 269.649C101.61 269.649 98.8063 269.232 96.4326 268.4C94.0886 267.567 92.2638 266.288 90.9583 264.563C89.6528 262.838 89 260.637 89 257.96C89 257.186 89.0593 256.353 89.178 255.461C89.2967 254.539 89.5192 253.483 89.8456 252.293C90.2017 251.104 90.7209 249.706 91.4034 248.1L97.5453 250.241C97.1595 251.282 96.848 252.175 96.6106 252.918C96.4029 253.662 96.2397 254.331 96.121 254.926C96.032 255.521 95.9875 256.13 95.9875 256.755C95.9875 257.618 96.1656 258.421 96.5216 259.164C96.9073 259.878 97.4711 260.503 98.2129 261.038C98.9843 261.603 99.9634 262.035 101.15 262.332C102.337 262.629 103.747 262.778 105.378 262.778C107.218 262.778 108.776 262.659 110.052 262.421C111.357 262.213 112.41 261.916 113.212 261.529C114.013 261.172 114.591 260.77 114.947 260.324C115.333 259.878 115.526 259.432 115.526 258.986C115.526 258.718 115.422 258.465 115.214 258.227C115.007 257.989 114.68 257.737 114.235 257.469C113.82 257.201 113.271 256.933 112.588 256.666C111.936 256.368 111.149 256.056 110.23 255.729L112.01 249.349C113.197 249.884 114.354 250.36 115.481 250.777C116.639 251.193 117.751 251.55 118.819 251.847C119.917 252.115 120.956 252.338 121.935 252.517C122.944 252.665 123.893 252.74 124.783 252.74H124.798C125.659 252.74 126.326 252.591 126.801 252.293C127.276 251.996 127.75 251.446 128.225 250.643C128.7 249.84 129.338 248.709 130.139 247.252C130.881 245.943 131.637 244.828 132.409 243.906C133.21 242.954 134.011 242.181 134.812 241.586C135.643 240.991 136.489 240.56 137.349 240.292C138.21 239.995 139.07 239.846 139.93 239.846C141.236 239.846 142.378 240.128 143.357 240.693C144.337 241.259 145.227 242.106 146.028 243.237C146.859 244.337 147.645 245.72 148.387 247.386C149.01 248.665 149.588 249.706 150.122 250.509C150.686 251.312 151.28 251.892 151.903 252.249C152.526 252.576 153.208 252.74 153.95 252.74H153.962C154.941 252.74 155.742 252.65 156.366 252.472C157.018 252.293 157.538 251.907 157.923 251.312C158.309 250.717 158.65 249.825 158.947 248.635C159.273 247.445 159.615 245.824 159.971 243.772L166.469 244.887C166.409 245.304 166.32 245.824 166.201 246.449C166.083 247.044 165.979 247.668 165.89 248.323C165.831 248.947 165.801 249.527 165.801 250.063C165.801 250.836 166.053 251.476 166.558 251.981C167.062 252.487 168.026 252.74 169.45 252.74C170.311 252.74 171.023 252.65 171.587 252.472C172.151 252.293 172.61 251.907 172.966 251.312C173.352 250.717 173.693 249.795 173.99 248.546C174.287 247.297 174.584 245.601 174.88 243.46L181.512 244.486C181.393 245.17 181.26 245.899 181.111 246.672C180.993 247.445 180.889 248.174 180.8 248.858C180.711 249.512 180.666 250.048 180.666 250.464C180.666 250.851 180.785 251.223 181.022 251.58C181.26 251.937 181.66 252.219 182.224 252.427C182.817 252.636 183.648 252.74 184.716 252.74C185.606 252.74 186.348 252.636 186.942 252.427C187.535 252.219 187.965 251.892 188.232 251.446C188.529 250.97 188.677 250.36 188.677 249.617C188.677 248.486 188.44 247.014 187.965 245.2C187.49 243.385 186.897 241.452 186.185 239.4L192.95 237.392C193.454 238.76 193.899 240.203 194.285 241.72C194.671 243.237 194.968 244.694 195.175 246.092C195.413 247.49 195.531 248.709 195.531 249.75C195.531 251.327 195.279 252.725 194.775 253.944C194.27 255.134 193.543 256.16 192.594 257.023C191.674 257.856 190.576 258.495 189.3 258.941C188.025 259.358 186.63 259.566 185.117 259.566C183.455 259.566 182.061 259.387 180.933 259.03C179.835 258.673 178.975 258.049 178.352 257.157C178.095 256.77 177.871 256.326 177.681 255.823C177.292 256.553 176.877 257.147 176.438 257.603C175.607 258.465 174.643 259.016 173.545 259.253C172.447 259.462 171.127 259.566 169.584 259.566C168.516 259.566 167.448 259.447 166.38 259.209C165.311 258.971 164.347 258.421 163.487 257.558C163.171 257.242 162.882 256.86 162.618 256.412C162.306 256.8 161.972 257.138 161.617 257.424C160.549 258.287 159.333 258.867 157.968 259.164C156.633 259.432 155.149 259.566 153.517 259.566ZM135.836 249.973C136.133 250.39 136.474 250.806 136.859 251.223C137.275 251.639 137.72 252.026 138.195 252.383C138.699 252.71 139.218 252.978 139.752 253.186C140.287 253.394 140.806 253.498 141.31 253.498C141.993 253.498 142.482 253.245 142.779 252.74C143.076 252.204 143.076 251.58 142.779 250.866C142.512 250.211 142.23 249.617 141.933 249.081C141.666 248.546 141.384 248.085 141.088 247.698C140.821 247.311 140.539 247.014 140.242 246.806C139.945 246.598 139.634 246.493 139.307 246.493C138.922 246.493 138.521 246.642 138.106 246.94C137.69 247.207 137.29 247.594 136.904 248.1C136.518 248.605 136.162 249.23 135.836 249.973ZM109.339 280C108.449 280 107.693 279.687 107.07 279.063C106.476 278.468 106.18 277.724 106.18 276.832C106.18 275.94 106.476 275.181 107.07 274.557C107.693 273.932 108.449 273.62 109.339 273.62C110.2 273.62 110.942 273.932 111.565 274.557C112.188 275.181 112.499 275.94 112.499 276.832C112.499 277.724 112.188 278.468 111.565 279.063C110.942 279.687 110.2 280 109.339 280ZM101.551 280C100.661 280 99.9041 279.687 99.281 279.063C98.6579 278.468 98.3464 277.724 98.3464 276.832C98.3464 275.94 98.6579 275.181 99.281 274.557C99.9041 273.932 100.661 273.62 101.551 273.62C102.411 273.62 103.153 273.932 103.776 274.557C104.399 275.181 104.711 275.94 104.711 276.832C104.711 277.724 104.399 278.468 103.776 279.063C103.153 279.687 102.411 280 101.551 280ZM235.442 259.343L234.508 226.104H241.451L242.385 259.343H235.442ZM469.95 244.664L471.197 249.527C473.185 249.111 474.772 248.68 475.959 248.233C477.146 247.758 478.036 247.282 478.629 246.806C479.223 246.3 479.608 245.78 479.786 245.244C479.994 244.709 480.098 244.188 480.098 243.683C480.098 243.088 479.95 242.538 479.653 242.032C479.386 241.497 479.074 241.021 478.718 240.604C478.362 240.158 478.036 239.757 477.739 239.4C477.472 239.013 477.338 238.686 477.338 238.418C477.338 238.091 477.576 237.749 478.051 237.392C478.555 237.005 479.415 236.574 480.632 236.098L478.54 231.726C476.968 232.321 475.692 232.945 474.713 233.6C473.763 234.224 473.066 234.893 472.621 235.607C472.176 236.291 471.953 237.035 471.953 237.838C471.953 238.463 472.087 239.028 472.354 239.533C472.621 240.009 472.932 240.456 473.288 240.872C473.644 241.259 473.956 241.601 474.223 241.898C474.49 242.196 474.624 242.463 474.624 242.701C474.624 242.939 474.46 243.162 474.134 243.37C473.808 243.579 473.288 243.787 472.576 243.995C471.894 244.203 471.019 244.426 469.95 244.664ZM509.886 269.917C508.996 269.917 508.24 269.604 507.616 268.98C507.023 268.385 506.726 267.641 506.726 266.749C506.726 265.857 507.023 265.098 507.616 264.473C508.24 263.849 508.996 263.537 509.886 263.537C510.747 263.537 511.489 263.849 512.112 264.473C512.735 265.098 513.046 265.857 513.046 266.749C513.046 267.641 512.735 268.385 512.112 268.98C511.489 269.604 510.747 269.917 509.886 269.917ZM502.098 269.917C501.208 269.917 500.451 269.604 499.828 268.98C499.205 268.385 498.893 267.641 498.893 266.749C498.893 265.857 499.19 265.098 499.783 264.473C500.406 263.849 501.163 263.537 502.053 263.537C502.914 263.537 503.655 263.849 504.279 264.473C504.902 265.098 505.213 265.857 505.213 266.749C505.213 267.641 504.902 268.385 504.279 268.98C503.655 269.604 502.928 269.917 502.098 269.917ZM600.057 259.343L599.122 226.104H606.065L607 259.343H600.057ZM481.255 253.23C479.623 253.409 477.517 253.483 474.935 253.453C471.82 253.453 469.357 253.23 467.547 252.784C465.737 252.308 464.446 251.654 463.675 250.821C462.904 249.988 462.518 249.037 462.518 247.966C462.518 247.46 462.562 246.91 462.651 246.315C462.74 245.72 462.859 245.11 463.007 244.486C463.156 243.861 463.289 243.266 463.408 242.701L457.4 241.273C457.192 242.017 456.954 242.865 456.687 243.817C456.42 244.768 456.198 245.765 456.02 246.806C455.842 247.817 455.753 248.858 455.753 249.929C455.753 251.357 456.049 252.695 456.643 253.944C457.236 255.193 458.215 256.294 459.58 257.246C460.975 258.198 462.829 258.941 465.144 259.477C467.458 260.012 470.336 260.28 473.778 260.28C475.885 260.309 477.917 260.265 479.875 260.146C481.863 260.057 483.688 259.789 485.35 259.343C487.041 258.926 488.524 258.257 489.8 257.335C490.338 256.955 490.826 256.525 491.263 256.044C491.481 256.477 491.735 256.863 492.026 257.201C492.767 258.064 493.672 258.673 494.741 259.03C495.809 259.387 496.979 259.566 498.226 259.566C500.184 259.566 502.009 259.447 503.7 259.209C505.391 258.941 506.875 258.45 508.151 257.737C509.426 257.023 510.42 255.997 511.133 254.658C511.874 253.29 512.245 251.52 512.245 249.349C512.245 247.921 512.112 246.479 511.845 245.021C511.607 243.564 511.296 242.166 510.91 240.827C510.524 239.459 510.153 238.269 509.797 237.258L503.166 239.043C503.522 240.084 503.863 241.229 504.189 242.478C504.546 243.727 504.827 244.947 505.035 246.137C505.272 247.297 505.391 248.323 505.391 249.215C505.391 250.078 505.213 250.777 504.857 251.312C504.501 251.818 503.833 252.189 502.854 252.427C501.875 252.636 500.481 252.74 498.671 252.74C497.573 252.74 496.684 252.561 496.031 252.204C495.378 251.818 494.904 251.119 494.607 250.107C494.31 249.066 494.132 247.594 494.073 245.69L493.272 226.104H486.373L487.174 245.155C487.263 246.969 487.16 248.427 486.863 249.527C486.566 250.628 485.973 251.476 485.083 252.07C484.192 252.636 482.917 253.022 481.255 253.23Z" fill="white"/>
<path d="M217 180C234.802 180 252.204 174.721 267.005 164.83C281.806 154.939 293.342 140.881 300.153 124.433C306.963 107.986 308.744 89.8877 305.268 72.4285C301.792 54.9692 293.217 38.9328 280.627 26.3475C268.036 13.7622 251.996 5.19346 234.536 1.72492C217.075 -1.74363 198.978 0.0438807 182.533 6.86136C166.088 13.6788 152.035 25.22 142.15 40.0253C132.265 54.8305 126.993 72.2347 127 90.0365C127 101.854 129.328 113.555 133.852 124.472C138.375 135.39 145.005 145.309 153.363 153.663C161.72 162.018 171.642 168.643 182.561 173.162C193.48 177.681 205.183 180.005 217 180" fill="white"/>
<path d="M217 176.787C234.166 176.787 250.947 171.696 265.22 162.158C279.493 152.62 290.617 139.064 297.184 123.203C303.752 107.343 305.468 89.8912 302.117 73.0552C298.765 56.2192 290.496 40.7553 278.355 28.6193C266.214 16.4834 250.746 8.22064 233.909 4.87607C217.071 1.5315 199.62 3.25538 183.763 9.82968C167.905 16.404 154.353 27.5334 144.821 41.8102C135.29 56.0871 130.206 72.87 130.213 90.0364C130.213 101.432 132.458 112.715 136.82 123.243C141.182 133.77 147.575 143.335 155.634 151.391C163.694 159.447 173.261 165.836 183.791 170.194C194.32 174.551 205.605 176.792 217 176.787" fill="#164194"/>
<path d="M216.999 171.201C233.054 171.172 248.741 166.385 262.076 157.443C275.411 148.501 285.796 135.807 291.918 120.965C298.041 106.123 299.626 89.799 296.473 74.0562C293.321 58.3135 285.572 43.8586 274.206 32.5185C262.841 21.1785 248.368 13.4622 232.619 10.345C216.869 7.2278 200.548 8.84956 185.72 15.0053C170.892 21.1611 158.221 31.5745 149.309 44.9295C140.398 58.2846 135.645 73.9817 135.652 90.037C135.652 100.711 137.758 111.28 141.848 121.139C145.938 130.999 151.933 139.954 159.489 147.493C167.045 155.033 176.015 161.007 185.883 165.076C195.751 169.144 206.325 171.225 216.999 171.201" fill="white"/>
<path d="M137.697 90.0366C137.692 79.6211 139.74 69.3068 143.724 59.6833C147.708 50.0597 153.549 41.3156 160.914 33.9508C168.278 26.5859 177.023 20.7447 186.646 16.7611C196.27 12.7775 206.584 10.7296 216.999 10.7344V10.7344C227.415 10.7296 237.729 12.7775 247.353 16.7611C256.976 20.7447 265.72 26.5859 273.085 33.9508C280.45 41.3156 286.291 50.0597 290.275 59.6833C294.259 69.3068 296.306 79.6211 296.302 90.0366V90.0366C296.302 100.449 294.25 110.759 290.264 120.379C286.279 129.998 280.437 138.738 273.072 146.099C265.708 153.46 256.966 159.298 247.344 163.279C237.723 167.26 227.412 169.307 216.999 169.302V169.302V168.353C227.286 168.363 237.474 166.343 246.978 162.409C256.483 158.474 265.117 152.702 272.387 145.424V145.424C279.665 138.155 285.437 129.52 289.372 120.016C293.306 110.511 295.326 100.323 295.316 90.0366V90.0366C295.332 79.7489 293.315 69.5595 289.38 60.0542C285.445 50.5488 279.67 41.915 272.387 34.6492V34.6492C265.124 27.3595 256.492 21.5777 246.986 17.6364C237.481 13.6951 227.29 11.672 216.999 11.6837V11.6837C206.708 11.666 196.516 13.6863 187.009 17.628C177.503 21.5696 168.871 27.3546 161.612 34.6492V34.6492C154.317 41.9084 148.532 50.5401 144.591 60.0464C140.649 69.5528 138.629 79.7455 138.647 90.0366V90.0366C138.635 100.327 140.658 110.518 144.599 120.023C148.541 129.529 154.322 138.161 161.612 145.424V145.424C168.878 152.707 177.512 158.482 187.017 162.417C196.522 166.352 206.712 168.369 216.999 168.353V168.353V169.302C206.587 169.307 196.276 167.26 186.655 163.279C177.033 159.298 168.291 153.46 160.927 146.099C153.562 138.738 147.72 129.998 143.735 120.379C139.749 110.759 137.697 100.449 137.697 90.0366V90.0366Z" fill="#164194"/>
<path d="M216.999 146.337C228.135 146.337 239.02 143.035 248.278 136.848C257.537 130.662 264.753 121.869 269.014 111.582C273.275 101.294 274.39 89.9741 272.218 79.0529C270.045 68.1317 264.683 58.1 256.81 50.2263C248.936 42.3526 238.904 36.9905 227.983 34.8181C217.062 32.6458 205.742 33.7607 195.454 38.022C185.167 42.2832 176.374 49.4993 170.188 58.7578C164.001 68.0163 160.699 78.9014 160.699 90.0365C160.699 104.968 166.631 119.288 177.189 129.847C182.417 135.075 188.624 139.222 195.454 142.051C202.285 144.88 209.606 146.337 216.999 146.337" fill="white"/>
<path d="M215.503 37.8623C214.335 44.2152 206.667 44.2152 202.432 47.6108C200.167 49.4093 198.625 51.9622 198.087 54.8035C194.071 52.7589 190.164 49.7284 186.002 48.0854C194.448 41.5565 204.827 38.0241 215.503 38.0449" fill="#164194"/>
<path d="M247.012 47.1361L236.862 53.8177C235.694 46.5154 227.661 44.4343 222.258 42.1706C221.162 41.0023 219.519 39.5053 220.14 37.8623C229.851 38.2886 239.232 41.5088 247.158 47.1361" fill="#164194"/>
<path d="M220.652 43.8503C225.837 46.6252 234.015 47.5014 235.256 55.0592C235.001 55.826 234.052 56.1546 233.577 56.5562C233.102 46.7712 221.601 48.6698 217.914 41.258C214.043 48.7428 201.666 47.3189 201.812 57.6515C200.972 57.2499 199.366 56.3006 200.242 54.8037C202.36 46.5521 212.218 47.0998 216.964 41.4041L217.658 38.4102C218.007 40.5117 219.063 42.4311 220.652 43.8503" fill="#164194"/>
<path d="M217.951 47.0624C217.951 47.2815 217.951 47.6831 217.951 47.8291C217.951 47.9752 217.549 47.537 217.293 47.4275C217.037 47.318 217.951 46.2592 218.097 47.0624" fill="#164194"/>
<path d="M219.992 48.9247C219.992 49.2533 219.992 49.5089 219.702 49.7279H219.629V48.5596C219.956 48.5596 220.028 48.7786 220.173 48.9247" fill="#164194"/>
<path d="M215.975 48.9253C215.975 49.1809 215.975 49.5825 215.975 49.7286H215.576V48.7793C215.576 48.7793 216.048 48.7793 216.121 48.7793" fill="#164194"/>
<path d="M180.525 61.6309C175.559 64.4788 174.172 72.3287 167.855 71.6715C170.71 63.8533 175.51 56.8917 181.803 51.4443C180.338 54.6273 179.892 58.1848 180.525 61.6309" fill="#164194"/>
<path d="M218.496 57.4692H216.232L217.802 51.7734C217.747 53.696 217.981 55.616 218.496 57.4692" fill="#164194"/>
<path d="M265.413 70.5398C259.973 70.1382 258.111 63.5297 253.328 61.0834C254.148 58.5153 254.409 55.8015 254.095 53.124C259.174 57.9677 263.05 63.9317 265.413 70.5398" fill="#164194"/>
<path d="M266.18 72.1824V72.438C258.622 77.5496 266.509 89.0506 258.33 93.7971C255.815 95.1416 252.943 95.6651 250.115 95.294C250.59 93.4684 253.511 94.1987 255.081 93.2494C264.537 90.4015 259.791 79.1196 264.464 73.0587C259.791 71.8904 256.14 67.8376 252.488 64.8802L252.708 63.5293C257.052 66.5962 260.302 72.7666 266.107 72.1824" fill="#164194"/>
<path d="M182.022 64.6251C178.371 68.6413 174.72 73.0591 169.718 74.0815C170.265 75.5784 171.616 76.7468 172.164 78.2802C173.807 84.6697 173.989 93.4689 182.168 95.2944C183.336 95.7691 184.943 95.0389 185.819 96.2437C183.962 96.6716 182.027 96.6357 180.187 96.139C178.347 95.6423 176.657 94.7002 175.267 93.3958C169.608 87.8827 175.267 77.3309 166.906 73.3877C173.77 74.8847 176.436 66.6697 181.255 63.6758L182.058 64.6251H182.022Z" fill="#164194"/>
<path d="M254.824 72.5844C254.824 72.84 254.824 73.2051 254.824 73.3876H254.57V72.1828C254.626 72.1681 254.684 72.1682 254.739 72.1832C254.794 72.1982 254.844 72.2275 254.885 72.2681C254.925 72.3088 254.954 72.3594 254.969 72.4149C254.984 72.4704 254.984 72.5288 254.97 72.5844" fill="#164194"/>
<path d="M181.073 73.3877C181.073 73.3877 181.073 73.6067 181.073 73.6798C181.073 73.7528 180.488 73.6798 180.269 73.3877C180.013 72.5114 181.438 72.5114 181.219 73.3877" fill="#164194"/>
<path d="M253.111 75.0306C253.111 75.0306 252.855 75.5053 252.563 75.4322C252.451 75.3907 252.354 75.316 252.286 75.2181C252.218 75.1202 252.182 75.0038 252.182 74.8846C252.182 74.7653 252.218 74.6489 252.286 74.551C252.354 74.4531 252.451 74.3784 252.563 74.3369C253.038 74.3369 252.965 74.775 253.111 75.0306Z" fill="#164194"/>
<path d="M256.871 74.3366C256.871 74.6287 256.871 75.0303 256.871 75.2494C256.871 75.4684 256.469 74.9573 256.323 74.8843C256.177 74.8112 256.323 74.154 257.017 74.3366" fill="#164194"/>
<path d="M183.118 75.2492C183.118 75.2492 182.899 75.6508 182.57 75.5778L182.168 75.2492L182.789 74.4824C183.045 74.7015 183.045 74.9571 183.118 75.2492" fill="#164194"/>
<path d="M254.095 126.949L250.444 130.272C249.422 122.568 258.403 117.675 256.249 109.314C255.408 107.113 254.092 105.124 252.394 103.49C250.696 101.855 248.659 100.615 246.428 99.8578C246.428 94.4177 252.306 98.3609 255.154 97.1925C256.968 96.9092 258.688 96.1942 260.168 95.1077C261.649 94.0213 262.847 92.595 263.661 90.9491C266.655 85.8375 262.456 78.9735 266.874 74.373C269.766 83.4718 270.096 93.1911 267.829 102.465C265.562 111.739 260.785 120.21 254.022 126.949" fill="#164194"/>
<path d="M179.173 75.2499C179.173 75.5785 179.173 75.761 178.773 75.9801V74.8848C178.991 74.8848 179.173 75.1038 179.318 75.2499" fill="#164194"/>
<path d="M172.165 92.4467C173.095 94.0451 174.36 95.4239 175.872 96.4888C177.385 97.5537 179.109 98.2797 180.928 98.617C183.246 98.6681 185.565 98.5461 187.865 98.2519L188.485 99.7489C186.265 100.449 184.235 101.65 182.552 103.257C180.868 104.865 179.575 106.837 178.773 109.023C176.802 117.238 184.214 122.495 185.637 129.834L185.053 131.696C177.141 125.654 171.112 117.483 167.672 108.14C164.232 98.7975 163.524 88.6683 165.629 78.9375L166.688 75.542C173.443 78.3899 168.623 87.4446 171.982 92.5562" fill="#164194"/>
<path d="M256.139 84.4871C255.044 84.0855 254.788 85.4364 254.387 85.984C254.168 85.5094 254.168 84.8887 253.693 84.4871L252.488 84.7427L254.752 77.4404C254.918 79.8381 255.384 82.2055 256.139 84.4871" fill="#164194"/>
<path d="M182.79 84.8886C181.768 84.6695 181.366 85.5093 181.074 86.2395V86.6046C180.818 85.8379 180.198 84.1584 179.029 85.0346C179.836 82.6373 180.518 80.2 181.074 77.7324C181.114 80.1681 181.701 82.5636 182.79 84.7426" fill="#164194"/>
<path d="M189.435 102.706V103.4C186.258 104.897 182.571 107.672 182.571 111.542C182.096 118.844 188.96 122.714 188.23 129.798C189.325 130.674 190.348 129.104 191.626 129.25C195.788 128.958 207.617 130.199 210.392 126.804C211.086 126.804 211.561 127.059 212.108 127.388C211.485 128.539 210.585 129.516 209.488 130.23C208.391 130.945 207.133 131.373 205.828 131.477C199.366 132.098 191.954 126.658 186.733 132.572C190.676 123.372 177.131 117.384 181.621 107.599C182.354 106.119 183.379 104.803 184.634 103.73C185.889 102.657 187.348 101.849 188.924 101.355L189.325 102.56L189.435 102.706Z" fill="#164194"/>
<path d="M254.279 110.41C255.228 118.552 245.772 122.933 248.364 131.075C240.404 126.511 230.108 137.464 223.244 128.008C223.244 127.351 223.938 126.876 224.412 126.657C225.836 127.059 226.311 128.373 227.552 129.176C233.723 133.594 240.258 127.826 246.867 129.505C247.268 128.702 246.867 127.132 247.268 126.109C249.788 120.341 256.031 113.038 250.116 106.795C248.565 105.46 246.766 104.443 244.822 103.801C244.275 102.925 245.151 102.304 245.37 101.501C249.021 102.852 253.877 106.101 254.279 110.41" fill="#164194"/>
<path d="M239.309 111.906C238.834 112.162 238.834 111.614 238.615 111.359C238.396 111.103 238.834 110.592 239.309 110.811V111.906V111.906Z" fill="#164194"/>
<path d="M197.139 111.359C197.139 111.615 197.139 112.016 197.139 112.162C197.139 112.308 196.737 111.834 196.518 111.761C196.116 111.067 197.285 110.665 197.285 111.359" fill="#164194"/>
<path d="M241.532 113.66C241.314 113.66 241.241 113.66 241.132 113.66C241.023 113.66 240.697 112.564 241.132 112.564C241.568 112.564 241.132 113.185 241.35 113.514" fill="#164194"/>
<path d="M199.181 113.404C199.225 113.461 199.249 113.532 199.249 113.604C199.249 113.677 199.225 113.748 199.181 113.805H198.781V112.856C199.326 112.637 199.181 113.258 199.326 113.404" fill="#164194"/>
<path d="M195.239 113.403C195.239 113.732 195.239 114.061 195.239 114.207C195.239 114.353 194.837 113.988 194.618 113.805C194.399 113.622 195.385 112.637 195.385 113.403" fill="#164194"/>
<path d="M237.406 114.061H236.861V113.111H237.406V114.061Z" fill="#164194"/>
<path d="M198.49 123.116C197.686 122.568 196.847 123.882 196.737 124.467C196.716 124.25 196.65 124.04 196.542 123.851C196.434 123.662 196.287 123.498 196.111 123.371C195.935 123.243 195.734 123.154 195.52 123.11C195.307 123.066 195.087 123.068 194.875 123.116C195.892 120.885 196.605 118.527 196.993 116.105C197.266 118.485 197.767 120.832 198.49 123.116" fill="#164194"/>
<path d="M240.806 123.261C240.806 122.933 240.331 123.261 240.112 123.261L239.163 124.758C239.076 124.181 238.792 123.652 238.359 123.261H237.41L239.309 115.959C239.683 118.417 240.183 120.854 240.806 123.261" fill="#164194"/>
<path d="M231.971 134.069C237.192 134.361 241.829 130.71 246.867 133.046C239.268 138.247 230.454 141.394 221.279 142.181C212.105 142.968 202.883 141.368 194.51 137.537L188.449 133.886C189.12 133.159 189.941 132.587 190.855 132.209C191.769 131.83 192.755 131.655 193.743 131.695C200.206 132.718 209.662 136.04 214.153 128.884C215.281 129.327 216.492 129.52 217.702 129.451C218.912 129.382 220.093 129.051 221.163 128.482C222.358 130.268 223.995 131.715 225.914 132.681C227.833 133.647 229.97 134.1 232.117 133.996" fill="#164194"/>
<path d="M262.238 103.655C258.858 103.974 255.482 103.01 252.781 100.953C252.781 99.9307 253.658 99.5291 254.424 99.4561C257.442 99.8902 260.21 101.377 262.238 103.655Z" fill="white"/>
<path d="M180.671 101.355C180.671 103.327 178.554 103.546 177.276 104.203C175.612 104.655 173.886 104.84 172.164 104.751C173.131 103.526 174.362 102.535 175.766 101.852C177.169 101.17 178.709 100.813 180.27 100.808L180.671 101.355Z" fill="white"/>
<path d="M219.628 131.076C219.599 133.45 219.142 135.801 218.277 138.013C217.657 135.639 215.539 131.952 217.985 129.725C218.369 129.738 218.738 129.878 219.035 130.122C219.332 130.366 219.54 130.701 219.628 131.076" fill="white"/>
<path d="M153.909 108.292C154.054 108.936 154.327 109.545 154.712 110.081L152.521 109.351C152.235 109.273 151.976 109.114 151.775 108.895C151.575 108.675 151.441 108.403 151.39 108.11L150.258 102.816L147.008 103.582C146.525 103.631 146.068 103.824 145.697 104.137C145.325 104.45 145.057 104.867 144.927 105.335L143.576 99.6026C144.124 100.333 144.964 100.479 146.205 100.187L155.26 98.0692C156.501 97.7771 157.158 97.2659 157.341 96.3896L160.262 109.57C160.06 109.503 159.843 109.503 159.641 109.57C159.385 109.57 158.509 110.227 156.866 111.104C157.379 109.376 157.379 107.537 156.866 105.81L155.88 101.611L152.448 102.268L153.909 108.292Z" fill="#164194"/>
<path d="M159.678 123.955C160.254 123.743 160.775 123.406 161.205 122.968C161.635 122.53 161.963 122.003 162.165 121.424C162.367 120.845 162.439 120.228 162.375 119.618C162.312 119.008 162.114 118.419 161.796 117.895C161.538 117.275 161.145 116.721 160.647 116.272C160.148 115.822 159.556 115.49 158.913 115.297C158.27 115.105 157.592 115.058 156.929 115.16C156.266 115.262 155.633 115.51 155.078 115.886C154.51 116.102 153.996 116.441 153.574 116.879C153.152 117.316 152.832 117.842 152.637 118.417C152.441 118.993 152.375 119.604 152.444 120.208C152.513 120.812 152.714 121.394 153.033 121.911C153.284 122.527 153.669 123.079 154.16 123.529C154.651 123.978 155.235 124.312 155.871 124.508C156.507 124.704 157.178 124.756 157.837 124.66C158.495 124.564 159.124 124.324 159.678 123.955V123.955ZM150.806 123.262C150.214 122.405 149.812 121.431 149.627 120.405C149.443 119.38 149.48 118.327 149.735 117.317C149.991 116.308 150.46 115.364 151.111 114.551C151.762 113.737 152.579 113.072 153.508 112.6C154.437 112.076 155.471 111.762 156.535 111.68C157.599 111.598 158.669 111.75 159.668 112.126C160.667 112.502 161.571 113.092 162.317 113.856C163.063 114.619 163.633 115.536 163.986 116.544C164.596 117.409 165.009 118.395 165.2 119.436C165.39 120.476 165.352 121.546 165.088 122.57C164.824 123.595 164.34 124.549 163.671 125.368C163.002 126.188 162.163 126.852 161.212 127.314C160.279 127.817 159.249 128.111 158.191 128.175C157.134 128.239 156.076 128.073 155.089 127.687C154.103 127.302 153.212 126.706 152.479 125.942C151.745 125.178 151.187 124.263 150.842 123.262H150.806Z" fill="#164194"/>
<path d="M170.741 137.83C171.236 137.476 171.647 137.017 171.944 136.486C172.24 135.955 172.416 135.364 172.458 134.757C172.5 134.15 172.407 133.541 172.186 132.974C171.965 132.407 171.621 131.896 171.179 131.477C170.775 130.941 170.256 130.503 169.66 130.196C169.064 129.889 168.406 129.72 167.736 129.702C167.065 129.685 166.4 129.819 165.788 130.095C165.177 130.37 164.636 130.781 164.205 131.295C163.707 131.647 163.294 132.107 162.996 132.64C162.698 133.173 162.524 133.766 162.485 134.375C162.447 134.984 162.545 135.594 162.773 136.161C163.001 136.727 163.353 137.235 163.803 137.648C164.208 138.173 164.725 138.603 165.316 138.906C165.906 139.208 166.557 139.376 167.22 139.397C167.884 139.418 168.543 139.291 169.152 139.027C169.761 138.762 170.303 138.366 170.741 137.867V137.83ZM161.978 139.51C158.327 135.566 158.509 131.477 161.795 128.556C162.555 127.802 163.472 127.223 164.48 126.863C165.488 126.502 166.563 126.367 167.63 126.468C168.696 126.569 169.726 126.903 170.649 127.447C171.572 127.991 172.363 128.731 172.968 129.615C173.745 130.3 174.367 131.143 174.793 132.087C175.22 133.032 175.44 134.056 175.44 135.092C175.44 136.128 175.22 137.152 174.793 138.096C174.367 139.04 173.745 139.883 172.968 140.568C172.203 141.279 171.294 141.817 170.303 142.146C169.313 142.475 168.263 142.589 167.225 142.478C166.187 142.367 165.185 142.035 164.286 141.504C163.387 140.973 162.612 140.256 162.014 139.4L161.978 139.51Z" fill="#164194"/>
<path d="M175.596 148.856L175.997 148.199L181.146 140.532L180.561 140.13C179.126 139.033 177.398 138.386 175.596 138.268C176.983 137.063 177.86 136.479 178.006 136.223C178.068 136.021 178.068 135.805 178.006 135.603L189.58 143.343C189.373 143.403 189.192 143.532 189.068 143.708C189.068 143.927 188.703 144.949 188.119 146.738C187.307 145.11 186.038 143.752 184.468 142.832L184.03 142.43L178.882 150.097C178.578 150.486 178.389 150.952 178.337 151.443C178.286 151.934 178.373 152.429 178.59 152.872L173.697 149.732C174.053 149.783 174.416 149.738 174.749 149.604C175.083 149.469 175.375 149.249 175.596 148.966V148.856Z" fill="#164194"/>
<path d="M196.042 151.74C197.867 152.361 198.89 152.179 199.291 151.01C199.693 149.842 198.963 149.221 197.393 148.674L193.742 147.469L192.683 150.609L196.005 151.74H196.042ZM195.056 157.801C196.918 158.422 198.086 158.13 198.488 156.925C198.89 155.72 198.086 154.917 196.188 154.296L191.953 152.836L190.784 156.487L195.056 157.947V157.801ZM187.535 155.136L190.419 146.446C190.821 145.241 190.784 144.365 190.09 143.708L197.393 146.264C201.591 147.688 203.6 149.112 202.723 151.74C202.487 152.41 202.028 152.978 201.424 153.35C200.819 153.722 200.105 153.876 199.401 153.785C201.665 154.88 202.395 156.268 201.774 158.13C200.788 160.978 198.123 161.416 193.559 159.846L185.6 157.035C186.549 157.035 187.097 156.341 187.535 155.099V155.136Z" fill="#164194"/>
<path d="M213.677 158.093L211.23 151.266L207.798 157.582L213.677 158.093ZM219.628 163.826H214.37C214.679 163.527 214.862 163.122 214.882 162.694C214.926 162.403 214.926 162.108 214.882 161.817L214.516 160.686L206.411 159.955L206.046 160.613C205.903 160.898 205.816 161.207 205.79 161.525C205.757 162.072 205.941 162.61 206.301 163.022L200.861 161.817C201.583 161.333 202.203 160.713 202.687 159.992L208.675 150.134C208.811 149.948 208.91 149.737 208.967 149.513C208.998 149.344 208.998 149.171 208.967 149.002L214.809 149.513C214.709 149.671 214.635 149.843 214.59 150.024C214.541 150.241 214.541 150.465 214.59 150.681L218.241 161.635C218.578 162.508 219.073 163.313 219.701 164.008L219.628 163.826Z" fill="#164194"/>
<path d="M218.826 149.733L224.667 148.93C224.268 149.208 223.966 149.603 223.802 150.061C223.638 150.52 223.622 151.017 223.755 151.485L225.032 160.686L229.012 160.139C230.971 159.989 232.817 159.163 234.233 157.802C233.873 159.002 233.58 160.22 233.357 161.453C233.423 161.677 233.549 161.88 233.722 162.037L220.761 163.863C221.527 163.388 221.746 162.548 221.6 161.307L220.286 152.106C220.286 150.865 219.665 150.135 218.789 149.879L218.826 149.733Z" fill="#164194"/>
<path d="M230.875 148.309L236.425 146.337C236.094 146.695 235.881 147.147 235.815 147.63C235.75 148.114 235.835 148.605 236.06 149.039L239.2 157.765L242.851 156.414C244.763 155.853 246.409 154.622 247.488 152.945C247.417 154.161 247.417 155.381 247.488 156.597C247.488 156.779 247.743 156.889 247.962 157.071L235.621 161.489C235.948 161.134 236.152 160.684 236.205 160.204C236.257 159.725 236.155 159.241 235.914 158.824L232.81 150.061C232.372 148.856 231.788 148.272 230.875 148.199V148.309Z" fill="#164194"/>
<path d="M264.61 146.446C263.733 147.067 262.638 148.454 260.959 149.732C260.221 150.439 259.336 150.975 258.367 151.3C257.398 151.625 256.369 151.733 255.354 151.614C254.339 151.495 253.362 151.154 252.494 150.614C251.627 150.074 250.889 149.349 250.334 148.491C249.688 147.615 249.238 146.61 249.016 145.545C248.794 144.48 248.805 143.379 249.048 142.318C249.29 141.257 249.759 140.261 250.422 139.399C251.085 138.536 251.927 137.826 252.89 137.319C254.861 135.895 256.541 135.383 257.307 134.836C257.529 134.684 257.726 134.499 257.892 134.288L258.877 137.939C257.31 137.947 255.787 138.459 254.533 139.4C253.982 139.729 253.506 140.169 253.134 140.691C252.763 141.214 252.503 141.808 252.373 142.436C252.243 143.064 252.244 143.712 252.377 144.34C252.51 144.967 252.771 145.56 253.145 146.081C253.455 146.657 253.893 147.155 254.426 147.535C254.958 147.915 255.571 148.168 256.216 148.273C256.862 148.379 257.523 148.335 258.149 148.145C258.775 147.955 259.349 147.624 259.827 147.177C261.36 146.012 262.608 144.513 263.478 142.795L265.668 145.899C265.334 146.001 265.014 146.148 264.719 146.337L264.61 146.446Z" fill="#164194"/>
<path d="M257.673 134.179L261.58 129.725C261.46 130.2 261.49 130.701 261.667 131.159C261.844 131.617 262.158 132.009 262.566 132.28L269.54 138.378L272.168 135.384C273.521 133.943 274.311 132.064 274.396 130.09C274.916 131.23 275.501 132.339 276.148 133.412C276.148 133.412 276.513 133.412 276.805 133.412L268.152 143.307C268.408 142.431 268.152 141.627 267.093 140.787L260.12 134.69C259.17 133.85 258.367 133.595 257.527 133.996L257.673 134.179Z" fill="#164194"/>
<path d="M282.173 125.562C279.909 129.652 277.171 130.747 273.885 128.921L268.335 125.854C267.167 125.234 266.291 125.161 265.561 125.854L268.408 120.743C268.408 121.692 268.847 122.313 269.978 122.97L275.455 126C275.855 126.243 276.307 126.389 276.774 126.425C277.24 126.461 277.709 126.388 278.142 126.211C278.576 126.033 278.961 125.756 279.268 125.403C279.575 125.049 279.795 124.629 279.909 124.175C280.196 123.825 280.399 123.413 280.502 122.973C280.604 122.532 280.605 122.073 280.502 121.633C280.4 121.192 280.198 120.78 279.912 120.43C279.625 120.079 279.262 119.799 278.851 119.611L273.374 116.873C272.315 116.288 271.548 116.069 270.636 116.873L273.483 111.725C273.483 112.601 273.922 113.368 275.053 113.988L280.64 117.055C283.926 118.881 284.291 121.765 282.173 125.891V125.562Z" fill="#164194"/>
<path d="M287.138 104.75C287.576 102.815 287.138 101.72 285.933 101.428C284.728 101.136 283.961 102.012 283.523 103.983L282.537 108.328L286.189 109.168L287.211 104.75H287.138ZM281.041 104.385C281.442 102.523 281.041 101.501 279.945 101.245C278.85 100.99 278.193 101.72 277.828 103.363L276.988 107.014L280.237 107.781L281.041 104.349V104.385ZM285.349 112.527L276.404 110.446C275.162 110.154 274.286 110.446 273.738 111.067L275.491 103.399C276.477 99.0544 277.718 96.9003 280.42 97.521C281.105 97.6867 281.713 98.0807 282.144 98.6381C282.576 99.1956 282.805 99.8832 282.793 100.588C283.633 98.2512 284.947 97.3749 286.882 97.8131C289.803 98.5068 290.533 101.099 289.438 105.809L287.503 114.207C287.32 113.294 286.627 112.819 285.349 112.527V112.527Z" fill="#164194"/>
<path d="M144.197 80.3613L145.475 74.5925C145.596 75.0654 145.861 75.4886 146.234 75.8029C146.608 76.1172 147.07 76.3068 147.556 76.3451L156.611 78.3532L157.56 74.4465C158.109 72.533 157.953 70.4864 157.122 68.6777C158.108 69.441 159.145 70.1363 160.226 70.7589C160.44 70.8198 160.668 70.8198 160.883 70.7589L158.072 83.5743C157.852 82.6615 157.195 82.1503 155.954 81.8948L146.899 79.8867C146.451 79.6997 145.956 79.659 145.484 79.7705C145.012 79.882 144.587 80.1399 144.27 80.5074L144.197 80.3613Z" fill="#164194"/>
<path d="M159.35 67.4731L151.098 63.2378C150.701 62.963 150.23 62.8158 149.747 62.8158C149.265 62.8158 148.793 62.963 148.396 63.2378L155.151 50.0938C155.235 50.279 155.375 50.4326 155.553 50.5319C156.576 50.7917 157.612 50.9989 158.656 51.1526C157.153 52.1525 155.963 53.5575 155.224 55.2053L152.668 60.2073L155.589 61.7408L158.437 56.1911C158.732 55.6116 158.906 54.978 158.948 54.329L160.19 56.3006C160.341 56.5547 160.42 56.8448 160.42 57.1404C160.42 57.436 160.341 57.7261 160.19 57.9802L157.67 62.8361L160.847 64.4426L163.549 59.185C164.569 57.4733 164.932 55.449 164.571 53.4893C165.33 54.4734 166.16 55.4008 167.054 56.2641C167.278 56.342 167.523 56.342 167.747 56.2641L160.883 69.6272C160.883 68.7144 160.409 68.0572 159.277 67.4731H159.35Z" fill="#164194"/>
<path d="M162.489 44.5804L169.792 50.2396C170.814 51.0429 171.654 51.2619 172.493 50.8238L168.842 55.4242C169.061 54.5114 168.842 53.7812 167.637 52.978L160.335 47.3187C159.313 46.5155 158.473 46.2964 157.67 46.7346L161.321 42.0977C161.065 43.0104 161.321 43.7772 162.489 44.5804Z" fill="#164194"/>
<path d="M181.511 41.8784C180.744 42.5721 179.795 44.0691 178.152 45.5295C177.504 46.3234 176.689 46.9634 175.764 47.4028C174.838 47.8423 173.827 48.0703 172.803 48.0703C171.778 48.0703 170.767 47.8423 169.842 47.4028C168.917 46.9634 168.101 46.3234 167.454 45.5295C166.717 44.7321 166.159 43.7858 165.818 42.7544C165.478 41.7231 165.363 40.6307 165.48 39.5511C165.598 38.4714 165.946 37.4295 166.5 36.4957C167.055 35.5619 167.803 34.7579 168.695 34.138C170.002 33.0655 171.367 32.066 172.784 31.1441C172.968 30.9583 173.128 30.7497 173.259 30.5234L174.72 33.9555C173.157 34.1855 171.696 34.8713 170.521 35.9271C170.001 36.3337 169.573 36.846 169.265 37.43C168.957 38.014 168.777 38.6566 168.735 39.3155C168.694 39.9743 168.793 40.6345 169.025 41.2524C169.257 41.8704 169.618 42.4322 170.083 42.9007C170.459 43.4341 170.953 43.8741 171.526 44.1869C172.099 44.4998 172.736 44.6771 173.388 44.7053C174.04 44.7335 174.69 44.6119 175.288 44.3497C175.886 44.0875 176.416 43.6917 176.837 43.1928C178.192 41.8658 179.217 40.2403 179.831 38.4464L182.423 41.2577C182.082 41.3699 181.77 41.5571 181.511 41.8054V41.8784Z" fill="#164194"/>
<path d="M182.534 38.1905L178.189 30.012C177.605 28.8801 176.911 28.369 175.998 28.442L189.106 21.5049C189.03 21.7048 189.03 21.9256 189.106 22.1256C189.106 22.3446 190.055 23.0384 191.333 24.3893C189.551 24.3139 187.782 24.7307 186.221 25.5941L181.256 28.2594L182.789 31.1438L188.302 28.2594C188.879 27.95 189.388 27.5279 189.799 27.0181V29.3183C189.787 29.6199 189.692 29.9124 189.525 30.1636C189.357 30.4148 189.124 30.615 188.85 30.7422L184.03 33.298L185.71 36.4379L190.968 33.6631C192.747 32.8216 194.179 31.3894 195.02 29.6104C195.091 30.8372 195.25 32.0573 195.495 33.2615C195.495 33.2615 195.751 33.5536 196.006 33.6996L182.753 40.7097C183.038 40.317 183.191 39.8441 183.191 39.3588C183.191 38.8735 183.038 38.4007 182.753 38.0079L182.534 38.1905Z" fill="#164194"/>
<path d="M202.177 29.9753C204.477 29.3911 205.463 28.5148 205.171 27.31C204.878 26.1051 203.199 26.1781 200.388 26.4702C196.919 26.8353 194.947 25.9956 194.436 23.8779C193.925 21.7603 195.678 18.9854 199.621 18.0361C202.104 17.4155 204.075 17.4155 205.134 17.1599C205.329 17.1051 205.514 17.0187 205.682 16.9043V20.5554C203.858 20.0189 201.919 20.0189 200.096 20.5554C198.416 20.957 197.649 21.6873 197.868 22.5635C198.087 23.4398 199.767 23.3668 202.797 23.2207C205.828 23.0747 208.128 23.7319 208.712 26.1051C209.406 29.0625 207.361 31.3992 202.797 32.4946C200.716 33.0057 199.146 33.0787 198.27 33.2613C198.023 33.3331 197.788 33.444 197.576 33.5899L195.787 29.9388C197.887 30.4483 200.077 30.4483 202.177 29.9388V29.9753Z" fill="#164194"/>
<path d="M213.056 28.7705C213.056 28.7705 213.056 28.4054 213.056 27.9672L212.655 18.7664H211.961C210.154 18.7266 208.376 19.222 206.85 20.1904C207.251 18.3648 207.616 17.379 207.616 17.0869C207.593 16.8814 207.503 16.6891 207.361 16.5393L221.271 15.9551C221.141 16.1234 221.065 16.3269 221.052 16.5393C221.052 16.7948 221.491 17.7806 222.075 19.5332C220.46 18.7256 218.652 18.3843 216.854 18.5474H215.977L216.342 27.7482C216.323 28.2447 216.442 28.7369 216.687 29.1692C216.932 29.6014 217.294 29.9566 217.73 30.1944L211.852 30.4135C212.171 30.251 212.44 30.0063 212.633 29.7046C212.825 29.4029 212.934 29.0552 212.947 28.6975L213.056 28.7705Z" fill="#164194"/>
<path d="M221.93 27.7123L223.609 18.5845C223.865 17.3431 223.609 16.5033 222.879 15.9922L237.483 18.6575C237.332 18.797 237.219 18.973 237.155 19.1687C237.155 19.4607 237.155 20.4831 237.447 22.3451C236.072 21.1766 234.383 20.4399 232.591 20.2275L226.932 19.2052L226.311 22.4547L232.445 23.5865C233.083 23.7183 233.742 23.7183 234.38 23.5865L232.846 25.339C232.647 25.5583 232.394 25.721 232.112 25.8108C231.83 25.9005 231.529 25.9141 231.24 25.8502L225.873 24.8644L225.252 28.5155L231.094 29.5743C233.01 30.0464 235.032 29.8131 236.79 28.9171C236.079 29.947 235.432 31.02 234.854 32.1301C234.795 32.3327 234.795 32.5482 234.854 32.7508L220.25 30.049C221.126 29.8664 221.601 29.1362 221.82 27.8948L221.93 27.7123Z" fill="#164194"/>
<path d="M246.903 29.2462C248.947 30.232 250.006 30.232 250.554 28.8445C251.101 27.4571 250.554 26.6904 248.509 25.7046L245.187 24.2076L243.471 27.8587L246.866 29.5017L246.903 29.2462ZM241.207 35.2705L235.949 32.8973C236.862 32.8973 237.519 32.3496 238.067 31.1813L242.12 22.8932C242.399 22.4983 242.55 22.0263 242.55 21.5423C242.55 21.0583 242.399 20.5863 242.12 20.1914L249.604 23.8425C250.911 24.4117 252.138 25.148 253.255 26.0332C253.874 26.6159 254.281 27.3875 254.413 28.2268C254.545 29.0661 254.395 29.9256 253.986 30.6701C253.48 31.5297 252.678 32.1748 251.73 32.4841C250.781 32.7934 249.753 32.7456 248.838 32.3496C249.557 33.2589 249.978 34.3684 250.043 35.5261C250.043 37.1393 250.392 38.7334 251.065 40.1995L245.625 37.5342C245.78 37.5031 245.925 37.4379 246.052 37.3431C246.178 37.2483 246.282 37.1265 246.355 36.9865C246.693 35.9422 246.693 34.8179 246.355 33.7735C246.227 33.1213 245.945 32.5091 245.532 31.9882C245.119 31.4673 244.588 31.0529 243.982 30.7796L242.485 30.0494L241.243 32.6782C240.955 33.0766 240.8 33.5557 240.8 34.0474C240.8 34.539 240.955 35.0181 241.243 35.4165L241.207 35.2705Z" fill="#164194"/>
<path d="M263.114 51.1519C262.347 50.4217 260.814 49.5819 259.244 48.012C258.417 47.4118 257.733 46.6354 257.243 45.739C256.753 44.8426 256.468 43.8484 256.408 42.8284C256.349 41.8083 256.517 40.7878 256.9 39.8405C257.283 38.8932 257.871 38.0428 258.623 37.3507C259.379 36.5673 260.295 35.9557 261.309 35.5574C262.322 35.1592 263.41 34.9835 264.497 35.0424C265.584 35.1012 266.646 35.3933 267.611 35.8986C268.576 36.404 269.42 37.1109 270.088 37.9714C271.804 39.6509 272.607 41.2574 273.264 41.8781C273.463 42.062 273.684 42.2213 273.921 42.3527L270.562 43.9592C270.267 42.4149 269.502 40.9994 268.372 39.9065C267.936 39.41 267.4 39.0123 266.799 38.7397C266.197 38.4672 265.545 38.3262 264.885 38.3262C264.225 38.3262 263.572 38.4672 262.971 38.7397C262.369 39.0123 261.833 39.41 261.398 39.9065C260.876 40.3052 260.452 40.8189 260.161 41.4079C259.87 41.9968 259.718 42.645 259.718 43.302C259.718 43.9591 259.87 44.6073 260.161 45.1962C260.452 45.7851 260.876 46.2989 261.398 46.6976C262.795 47.9768 264.47 48.9142 266.29 49.4359L263.625 52.1377C263.478 51.8164 263.281 51.5206 263.041 51.2614L263.114 51.1519Z" fill="#164194"/>
<path d="M276.55 50.4589L269.029 55.7165C267.97 56.4468 267.532 57.177 267.714 58.0898L264.355 53.3068C265.159 53.7814 265.962 53.5989 267.057 52.8687L274.579 47.5015C275.637 46.7348 276.076 46.0411 275.893 45.0918L279.252 49.9113C278.449 49.4366 277.609 49.5827 276.55 50.3494V50.4589Z" fill="#164194"/>
<path d="M271.694 61.814L272.387 61.4854L280.748 57.5057L280.42 56.885C279.747 55.2207 278.605 53.7875 277.134 52.7592C278.923 52.3941 279.982 52.3576 280.274 52.2116C280.442 52.1014 280.58 51.9507 280.675 51.7734L286.663 64.3698C286.463 64.2941 286.243 64.2941 286.043 64.3698C285.787 64.3698 285.093 65.2826 283.669 66.4874C283.799 64.6863 283.406 62.8861 282.537 61.3028L282.209 60.6456L273.884 64.6254C273.419 64.7833 273.011 65.0758 272.712 65.4658C272.413 65.8557 272.237 66.3257 272.205 66.816L269.686 61.5219C269.956 61.7596 270.29 61.9137 270.646 61.9655C271.003 62.0174 271.367 61.9647 271.694 61.814V61.814Z" fill="#164194"/>
<path d="M289.183 78.5722C289.548 78.5722 289.731 78.2801 289.914 77.8785L291.082 83.3917C290.036 82.7393 288.937 82.1774 287.796 81.7121L280.494 78.061L278.34 78.4992C277.062 78.7547 276.331 79.3389 276.185 80.2152L274.98 74.4464C275.565 75.2497 276.368 75.3592 277.609 75.1036L279.727 74.6655L285.715 68.276C286.56 67.5604 287.192 66.6255 287.54 65.5742L288.818 71.6351C288.711 71.4904 288.565 71.3793 288.397 71.3147C288.228 71.25 288.045 71.2345 287.869 71.27C287.399 71.3955 286.986 71.6792 286.701 72.0732L283.049 76.0164L288.271 78.2436C288.645 78.4233 289.065 78.4869 289.475 78.4261L289.183 78.5722Z" fill="#164194"/>
<path d="M248.546 66.8515V66.669V66.3404C248.584 64.14 249.055 61.9687 249.934 59.9509C250.415 59.1086 250.697 58.1678 250.761 57.1999C250.824 56.2321 250.666 55.2625 250.299 54.3647C250.288 54.2067 250.288 54.0481 250.299 53.8901C250.087 53.1473 249.806 52.426 249.459 51.7359L249.094 51.1152H248.437C242.063 53.2612 236.446 57.2046 232.262 62.4702L230.254 64.0037C230.271 63.8948 230.271 63.7839 230.254 63.6751C230.153 63.2809 229.952 62.9193 229.671 62.6252C229.389 62.3311 229.037 62.1142 228.648 61.9956C224.845 60.7358 220.861 60.1069 216.855 60.1335C212.502 60.0818 208.187 60.9399 204.185 62.6528L203.345 63.0544L203.601 63.529C198.453 59.1112 188.778 51.1883 186.039 51.1883H185.528L185.309 51.4803C184.935 52.0146 184.651 52.6066 184.469 53.2329L184.25 53.4885C183.337 54.4012 183.082 55.4601 184.25 58.6365C185.209 60.965 185.801 63.4285 186.003 65.9388C186.305 67.8805 186.87 69.7721 187.682 71.5615C187.901 72.4743 189.435 78.8637 190.165 80.4702C190.434 80.9569 190.505 81.529 190.362 82.0667C190.219 82.6043 189.874 83.0658 189.398 83.3546H189.179C188.447 83.7173 187.799 84.2297 187.277 84.8586C186.755 85.4875 186.37 86.219 186.149 87.0057C186.101 87.7558 186.224 88.5071 186.508 89.2028C186.793 89.8985 187.232 90.5205 187.792 91.0219C188.035 91.5049 188.243 92.0052 188.412 92.5189V92.5189C187.938 93.2856 188.412 93.7237 188.887 94.1984L189.143 94.454C189.579 94.8669 190.056 95.2339 190.567 95.5493C191.074 95.8376 191.521 96.222 191.881 96.6811C192.052 96.8826 192.199 97.1031 192.319 97.3383C192.638 97.996 193.147 98.543 193.78 98.9083V99.8576C193.657 101.07 193.919 102.29 194.529 103.345C195.138 104.4 196.064 105.236 197.175 105.736L199.329 106.685C200.644 107.269 200.644 107.269 201.082 108.036C202.039 109.894 203.383 111.525 205.025 112.819C206.168 113.681 207.114 114.776 207.8 116.032L209.187 116.434C209.273 116.347 209.347 116.248 209.406 116.142V116.142C208.955 117.135 208.671 118.196 208.567 119.282C208.567 120.559 209.078 123.48 213.715 124.211L214.956 125.087L216.489 126.401H216.709H217.913L219.009 126.146H219.301L219.483 125.927L220.177 125.05L220.761 124.32C222.007 124.21 223.191 123.727 224.157 122.933V122.933C225.124 121.91 225.804 120.651 226.128 119.282C226.128 119.026 226.128 117.821 225.873 117.127L225.362 115.776C225.519 116.019 225.653 116.276 225.763 116.543L226.274 118.077L227.26 116.835L229.524 114.06L231.715 111.979C232.304 111.379 232.775 110.673 233.102 109.898L233.358 109.351C234.924 107.919 236.667 106.692 238.542 105.699C239.606 105.164 240.477 104.31 241.033 103.256C241.589 102.203 241.803 101.002 241.646 99.8211V99.456L241.536 99.0179C241.796 98.4288 242.004 97.8179 242.157 97.1923C243.85 96.207 245.388 94.9766 246.721 93.5412L247.049 93.1396V92.6649C247.049 92.6649 246.465 91.168 248.108 89.1964C249.751 87.2248 249.897 86.7501 249.605 86.0929C249.54 85.9332 249.436 85.7925 249.302 85.684C249.168 85.5754 249.008 85.5026 248.838 85.4722C247.501 84.6263 246.347 83.5214 245.443 82.2227C245.458 82.0527 245.458 81.8816 245.443 81.7116C244.99 80.2155 245.147 78.601 245.881 77.2207C246.55 76.1894 246.893 74.981 246.867 73.7521C246.843 73.6193 246.843 73.4833 246.867 73.3505C247.349 71.1544 247.946 68.985 248.656 66.8515H248.546Z" fill="#FBBA00"/>
<path d="M222.039 109.57L222.806 111.943L223.171 115.12L221.09 116.69L213.569 116.47L210.684 113.915L211.962 112.819L212.692 109.57C203.273 102.523 199.147 101.793 199.147 101.793C197.366 101.029 195.485 100.525 193.561 100.296C193.438 101.508 193.7 102.728 194.31 103.783C194.919 104.838 195.845 105.675 196.956 106.174L199.11 107.124C200.425 107.708 200.425 107.708 200.863 108.475C201.934 110.196 203.351 111.676 205.025 112.819C206.168 113.681 207.114 114.776 207.8 116.032L209.187 116.434C209.273 116.347 209.347 116.249 209.406 116.142V116.142C208.955 117.135 208.671 118.196 208.567 119.282C208.567 120.56 209.078 123.481 213.715 124.211L214.956 125.087L216.49 126.402H216.709H217.914L219.009 126.146H219.301L219.484 125.927L220.177 125.051L220.761 124.32C222.007 124.211 223.191 123.727 224.157 122.933V122.933C225.124 121.911 225.804 120.651 226.129 119.282C226.129 119.026 226.129 117.821 225.873 117.128L225.362 115.777C225.519 116.019 225.653 116.276 225.763 116.544L226.275 118.077L227.26 116.836L229.524 114.061L231.715 111.98C232.304 111.379 232.775 110.673 233.102 109.898L233.358 109.351C234.925 107.919 236.667 106.693 238.542 105.7C239.599 105.156 240.464 104.3 241.019 103.249C241.574 102.197 241.793 101.001 241.646 99.8214L241.536 98.6165V98.3975L238.907 99.8214C221.966 106.211 222.039 109.57 222.039 109.57Z" fill="white"/>
<path d="M199.803 90.5474C199.803 90.5474 200.314 89.8537 201.592 90.9125C203.513 92.7337 206.03 93.7973 208.675 93.9064C208.675 93.9064 209.296 94.8192 207.214 94.7462C206.332 94.7373 205.453 94.6518 204.586 94.4906C203.141 93.6515 201.845 92.578 200.752 91.3141C200.507 90.9979 200.178 90.7574 199.803 90.6204V90.5474Z" fill="#164194"/>
<path d="M218.9 70.759L217.987 69.9923C217.71 69.2846 217.622 68.5171 217.731 67.7651C219.071 66.4635 220.597 65.3684 222.259 64.5156C221.766 65.4614 221.096 66.3041 220.287 66.9984C219.687 67.388 219.186 67.9133 218.827 68.5319C218.663 69.2652 218.663 70.0257 218.827 70.759H218.9Z" fill="#164194"/>
<path d="M215.977 70.5028C215.977 70.5028 217.109 68.6407 216.525 68.093L212.326 64.7705C212.326 64.7705 212.326 66.5596 213.275 67.1802C214.225 67.8009 214.918 67.7644 214.991 68.2026V68.6407C214.927 68.7713 214.894 68.915 214.894 69.0606C214.894 69.2062 214.927 69.3499 214.991 69.4805C215.32 69.9186 215.831 70.5028 215.831 70.5028H215.977Z" fill="#164194"/>
<path d="M225.324 81.1643C227.226 80.1288 229.203 79.2379 231.239 78.499C232.772 78.1339 231.239 77.7688 230.91 77.6592C230.448 77.6175 229.984 77.6175 229.522 77.6592L228.099 78.2434L227.405 78.6085L226.346 79.4118L225.543 79.7404L225.068 79.9959C225.068 79.9959 224.63 81.6024 225.324 81.2738V81.1643Z" fill="#164194"/>
<path d="M203.09 78.0247C203.09 77.4406 203.674 78.2438 204.112 78.4994C204.55 78.755 206.814 79.4122 206.814 79.4122L207.508 79.8868L208.676 80.7996L208.42 81.3838C208.053 81.3864 207.695 81.2713 207.398 81.0552C207.033 80.6901 205.901 79.9233 205.828 80.1424C205.755 80.3615 205.061 80.1424 204.477 79.7773C204.123 79.6164 203.813 79.3735 203.572 79.0687C203.33 78.764 203.165 78.4061 203.09 78.0247V78.0247Z" fill="#164194"/>
<path d="M198.526 68.9326C198.336 68.5866 198.189 68.2188 198.088 67.8372V67.5086C197.863 66.7342 197.716 65.9391 197.65 65.1354C197.485 63.8216 196.865 62.6071 195.897 61.7033L195.678 61.4478C195.586 61.2759 195.456 61.1273 195.298 61.0133C195.14 60.8994 194.958 60.8232 194.765 60.7906C194.546 60.7906 194.108 60.7906 193.049 59.6587C191.708 58.4003 190.268 57.2525 188.741 56.2267L186.77 54.8027L187.536 57.0664C187.798 57.8327 188.017 58.6128 188.193 59.4031C188.193 59.6587 188.193 60.1699 188.193 61.0096C188.29 61.6875 188.351 62.37 188.376 63.0543C188.376 63.748 188.851 66.7054 188.96 67.4721V67.7277C189.353 68.5433 189.791 69.3356 190.275 70.1009V70.1009C190.492 70.3515 190.643 70.6529 190.713 70.9772V70.9772C190.415 72.0265 190.479 73.1454 190.895 74.1536C191.333 75.6141 192.137 75.9062 192.721 75.9062C193.129 75.8531 193.522 75.7152 193.874 75.5014C194.226 75.2877 194.53 75.0027 194.765 74.6648L195.605 73.7155L195.861 73.4234C196.299 72.9488 197.139 72.109 197.978 71.3788C198.234 71.2012 198.447 70.9674 198.598 70.6953C198.75 70.4232 198.838 70.12 198.855 69.8088C198.845 69.3526 198.677 68.9138 198.38 68.5674L198.526 68.9326Z" fill="white"/>
<path d="M233.539 89.3429C233.381 89.3932 233.247 89.4981 233.16 89.6387C233.073 89.7792 233.039 89.9463 233.064 90.1097C233.064 90.8034 230.289 93.1036 229.413 93.5052C228.472 93.8118 227.473 93.8992 226.492 93.7608C225.543 93.7608 225.214 95.0387 225.214 95.0387C224.953 95.5304 224.733 96.0434 224.557 96.5721C224.246 98.2189 223.819 99.8416 223.279 101.428C222.904 103.448 223.094 105.533 223.827 107.452C224.185 108.304 224.638 109.113 225.178 109.862C225.43 110.628 225.553 111.43 225.543 112.235L226.164 110.008C226.164 110.008 226.164 109.205 225.945 108.73C225.726 108.256 225.178 107.672 224.959 106.868C224.607 105.671 224.339 104.451 224.156 103.217C224.156 102.633 224.74 99.566 224.849 98.8358C225.205 97.7454 225.437 96.6188 225.543 95.4768V94.9656C227.034 95.096 228.534 94.8501 229.906 94.2505C231.277 93.6509 232.476 92.7167 233.393 91.5336C233.778 90.8054 234.072 90.0329 234.269 89.2334L233.539 89.3429Z" fill="#164194"/>
<path d="M245.478 55.9713C244.45 56.9386 243.296 57.7616 242.046 58.4175C239.673 59.8415 236.934 61.448 236.715 64.807V65.0991V65.3546C237.263 66.1214 236.971 66.7421 236.35 67.8009C235.988 68.324 235.717 68.9041 235.547 69.5169V70.0646L235.985 70.3932C236.622 70.9083 237.209 71.4829 237.738 72.1092C238.219 72.8263 238.838 73.4407 239.559 73.917C240.28 74.3933 241.088 74.722 241.936 74.884H242.411L242.703 74.4824C243.561 73.1541 244.087 71.6389 244.237 70.0646C244.37 68.7697 244.795 67.5216 245.478 66.4135L245.697 66.1214V65.7928C245.577 64.0049 245.788 62.2103 246.318 60.4987C246.663 59.2069 246.895 57.8875 247.011 56.5555V54.2188L245.441 55.9348L245.478 55.9713Z" fill="white"/>
<path d="M209.26 96.2432C209.552 99.8943 212.911 102.669 210.684 106.284C210.939 108.328 209.004 109.351 208.457 111.067C207.58 111.067 207.982 109.643 208.092 109.059C209.151 107.36 209.76 105.419 209.863 103.42C209.965 101.421 209.556 99.4284 208.676 97.6306C208.676 97.0464 208.676 96.3892 209.369 96.2432" fill="#164194"/>
<path d="M244.858 65.7566C243.069 68.2394 243.836 71.6714 242.046 74.1177C239.564 73.8256 238.395 71.1968 236.424 69.6633C236.825 68.0203 238.834 66.5964 237.519 64.6613C237.848 59.9513 243.361 59.1481 246.172 56.0812C245.438 59.259 244.998 62.4979 244.858 65.7566V65.7566ZM246.902 53.781C243.763 56.4828 239.856 57.4321 236.971 60.7181C234.087 63.2373 237.446 67.5091 233.32 69.4807C235.899 72.2838 238.833 74.7386 242.046 76.783C244.493 75.3225 244.566 72.5477 244.712 70.0284C247.195 65.6106 245.953 60.426 247.925 55.716C247.523 55.0588 247.925 53.4889 246.756 53.781H246.902Z" fill="#164194"/>
<path d="M197.722 71.3065C196.813 72.0608 195.959 72.8782 195.166 73.7528C194.829 74.0867 194.512 74.4402 194.217 74.8116C194.217 74.8116 192.501 77.1118 191.661 74.556C190.821 72.0003 191.661 71.8907 191.661 71.197C191.544 70.7182 191.305 70.2779 190.967 69.9191C190.639 69.4445 189.689 67.5824 189.689 67.5824C189.689 67.5824 189.105 63.9313 189.105 63.1646C189.105 62.3978 188.74 59.9151 188.74 59.5134C188.558 58.5974 188.314 57.6948 188.01 56.8116C189.546 57.8265 190.999 58.9619 192.355 60.2072C194.326 62.0692 194.691 61.3755 194.91 61.8502C195.945 62.7525 196.651 63.9723 196.918 65.3187C196.965 66.3162 197.162 67.301 197.503 68.2396C197.656 68.7183 197.852 69.1826 198.087 69.627C198.087 69.627 199 70.4303 197.831 71.3796L197.722 71.3065ZM199 68.2761C198.781 67.6919 198.196 68.2761 198.415 66.5601C198.927 62.909 198.415 64.552 196.553 61.3025C196.035 60.708 195.582 60.0592 195.202 59.3674C195.202 58.9658 194.801 59.1848 194.217 58.8562C193.632 58.5276 193.304 58.3816 192.501 57.907C191.691 57.4148 190.975 56.7845 190.383 56.0449C189.393 55.2447 188.3 54.5815 187.133 54.0733C187.004 53.9696 186.843 53.9131 186.677 53.9131C186.511 53.9131 186.35 53.9696 186.221 54.0733C185.637 54.0733 186.44 56.5195 186.44 56.9942C186.584 58.9806 186.852 60.9561 187.243 62.909C187.624 65.2919 188.21 67.6374 188.996 69.9191C189.543 71.3704 189.863 72.8975 189.945 74.4465C189.962 75.1884 190.169 75.9135 190.546 76.5526C190.924 77.1918 191.458 77.7237 192.099 78.0976C193.489 76.7691 194.978 75.5486 196.553 74.4465C197.519 73.8329 198.321 72.9933 198.89 72.0003C199.584 71.051 199.584 71.051 200.168 70.1382C200.752 69.2254 199.255 69.0794 199 68.4952V68.2761Z" fill="#164194"/>
<path d="M208.676 91.3144C208.676 91.8373 208.468 92.3388 208.098 92.7085C207.728 93.0783 207.227 93.286 206.704 93.286C206.181 93.286 205.68 93.0783 205.31 92.7085C204.94 92.3388 204.732 91.8373 204.732 91.3144C204.732 90.7915 204.94 90.29 205.31 89.9202C205.68 89.5505 206.181 89.3428 206.704 89.3428C207.227 89.3428 207.728 89.5505 208.098 89.9202C208.468 90.29 208.676 90.7915 208.676 91.3144V91.3144Z" fill="#164194"/>
<path d="M206.12 90.5117C206.125 90.5674 206.118 90.6236 206.1 90.6766C206.082 90.7296 206.053 90.7783 206.016 90.8196C205.978 90.8608 205.932 90.8937 205.88 90.9162C205.829 90.9386 205.774 90.95 205.718 90.9498C205.601 90.9498 205.49 90.9037 205.408 90.8215C205.325 90.7393 205.279 90.6279 205.279 90.5117C205.279 90.4557 205.291 90.4003 205.313 90.3491C205.335 90.2978 205.368 90.2518 205.41 90.214C205.451 90.1761 205.5 90.1474 205.553 90.1295C205.606 90.1116 205.662 90.105 205.718 90.1101C205.824 90.1101 205.926 90.1524 206.002 90.2277C206.077 90.303 206.12 90.4052 206.12 90.5117Z" fill="white"/>
<path d="M230.218 91.3145C230.256 91.5934 230.234 91.8773 230.154 92.147C230.073 92.4167 229.935 92.666 229.75 92.8782C229.565 93.0904 229.337 93.2604 229.081 93.3769C228.824 93.4935 228.546 93.5538 228.265 93.5538C227.983 93.5538 227.705 93.4935 227.448 93.3769C227.192 93.2604 226.964 93.0904 226.779 92.8782C226.594 92.666 226.456 92.4167 226.376 92.147C226.295 91.8773 226.273 91.5934 226.311 91.3145C226.273 91.0356 226.295 90.7517 226.376 90.482C226.456 90.2122 226.594 89.9629 226.779 89.7508C226.964 89.5386 227.192 89.3685 227.448 89.252C227.705 89.1355 227.983 89.0752 228.265 89.0752C228.546 89.0752 228.824 89.1355 229.081 89.252C229.337 89.3685 229.565 89.5386 229.75 89.7508C229.935 89.9629 230.073 90.2122 230.154 90.482C230.234 90.7517 230.256 91.0356 230.218 91.3145Z" fill="#164194"/>
<path d="M202.213 87.8459C200.272 88.0451 198.321 88.1182 196.371 88.0649C198.219 88.7384 200.173 89.0724 202.14 89.0507C203.329 88.7322 204.569 88.6455 205.791 88.7951C208.931 89.1968 210.391 92.4463 212.874 93.7242L213.276 92.4828C212.306 90.5282 210.667 88.9859 208.658 88.1353C206.649 87.2846 204.401 87.1819 202.322 87.8459H202.213Z" fill="#164194"/>
<path d="M247.268 88.5397C246.689 89.0844 246.27 89.7775 246.058 90.5436C245.845 91.3097 245.847 92.1194 246.063 92.8845C243.797 95.2506 241.061 97.1161 238.03 98.3612C237.702 98.3612 237.118 99.1279 236.752 99.4565L234.635 101.866H235.475L235.183 102.962C235.183 102.962 236.424 101.538 236.862 100.917C237.3 100.296 238.395 100.661 238.395 100.661L239.6 100.077L240.367 99.5661C240.623 99.3835 241.024 99.5661 241.024 99.5661C241.155 100.564 240.972 101.578 240.501 102.468C240.03 103.357 239.294 104.078 238.395 104.532C236.391 105.607 234.547 106.959 232.919 108.548C232.541 109.451 232.023 110.288 231.385 111.031L229.158 113.148L226.931 116.142C226.77 115.67 226.536 115.227 226.237 114.828C225.653 113.915 225.982 113.988 225.909 113.477C225.778 112.869 225.543 112.289 225.215 111.761C224.813 110.994 224.266 111.432 223.937 111.177C223.505 110.643 223.296 109.963 223.353 109.278C223.353 108.438 221.308 98.6898 221.126 97.8501V96.9738C222.092 95.0262 223.32 93.2203 224.777 91.6066C225.282 91.0251 225.858 90.5099 226.493 90.0732V90.0732C227.091 89.684 227.761 89.4188 228.463 89.2934C229.166 89.1679 229.886 89.1848 230.582 89.343V89.343C231.511 89.6076 232.466 89.7669 233.43 89.8176C234.371 89.8518 235.308 89.6763 236.174 89.3037C237.039 88.9311 237.81 88.3709 238.432 87.6634C237.118 87.9555 234.525 88.2111 234.525 88.2111C222.075 87.1158 225.142 88.7588 225.142 88.7588C223.252 89.7248 221.812 91.3875 221.126 93.3957L219.921 95.0022C219.639 95.9985 219.552 97.0399 219.665 98.0691C219.665 98.5803 219.921 99.9677 219.921 99.9677C219.651 103.709 220.264 107.46 221.71 110.921C221.71 111.213 222.623 114.937 222.623 114.937H223.097L223.791 114.244H224.193V114.682L225.142 117.237C225.142 117.237 225.398 119.027 225.398 119.282C225.075 120.41 224.515 121.456 223.755 122.349C223.169 122.866 222.474 123.244 221.721 123.452C220.968 123.661 220.178 123.696 219.41 123.554H219.191H218.278H217.803L217.438 123.189V122.714V121.911C218.601 121.675 219.647 121.045 220.399 120.127C221.151 119.209 221.562 118.059 221.564 116.872C221.564 116.215 220.542 115.704 220.542 115.704C218.331 115.095 215.997 115.095 213.787 115.704C212.327 116.033 212.838 118.077 212.838 118.077C212.838 119.319 215.247 121.254 215.247 121.254C215.727 121.634 216.315 121.851 216.927 121.874V122.313C216.849 122.627 216.739 122.933 216.598 123.225C216.416 123.554 215.722 123.7 215.284 123.773H214.882C210.537 123.335 209.698 121.144 209.698 119.574C210.01 117.857 210.576 116.196 211.377 114.645L211.888 115.047C212.288 115.105 212.694 115.105 213.093 115.047C213.349 115.047 213.093 114.426 213.093 114.171C212.933 113.924 212.786 113.668 212.655 113.404C214.627 111.359 215.832 97.777 215.905 97.4484C215.979 97.1364 215.979 96.8112 215.905 96.4991L215.649 95.915L215.065 94.9657C215.065 94.9657 213.97 94.0894 213.422 94.345C212.874 94.6006 213.97 95.988 213.97 95.988L214.554 96.7547C213.979 98.5463 213.599 100.395 213.422 102.268L212.509 108.146C212.036 109.231 211.657 110.355 211.377 111.505C211.049 113.112 209.515 111.907 209.515 111.907C209.679 112.591 209.688 113.303 209.543 113.991C209.398 114.679 209.102 115.327 208.675 115.887C207.963 114.418 206.881 113.16 205.535 112.235C203.942 111.157 202.598 109.75 201.592 108.11C200.826 106.759 200.753 107.087 197.32 105.481C196.378 105.063 195.591 104.358 195.073 103.466C194.555 102.574 194.332 101.541 194.436 100.515C194.436 100.515 196.809 101.465 197.174 101.538C198.044 101.776 198.898 102.068 199.73 102.414C200.314 102.67 202.87 104.276 200.314 101.465C197.759 98.6533 196.481 99.5661 194.838 98.9819C193.195 98.3977 193.304 97.704 192.538 96.6817C191.771 95.6594 190.675 95.2943 189.726 94.3815C188.777 93.4687 189.032 93.7608 189.215 93.2497C189.398 92.7385 188.448 91.0225 188.448 91.0225C184.797 87.1888 188.448 85.1442 189.799 84.3774C190.474 83.9875 190.968 83.3468 191.173 82.5947C191.378 81.8426 191.278 81.0399 190.894 80.3612C190.128 78.5722 188.412 71.489 188.412 71.489C187.638 69.7517 187.086 67.924 186.769 66.0488C186.573 63.4395 185.969 60.877 184.98 58.4545C183.446 54.1097 184.98 54.8034 185.235 53.5985C185.4 53.0828 185.633 52.5915 185.929 52.1381C189.105 52.1381 205.755 66.7426 205.755 66.7426C205.472 65.6604 205.055 64.6179 204.513 63.6391C212.128 60.6485 220.55 60.416 228.318 62.9819C230.692 63.9312 228.574 66.633 228.574 66.633L232.919 63.3835C237.029 58.2912 242.517 54.4888 248.728 52.4302C249.054 53.0576 249.312 53.7187 249.495 54.4018C249.897 55.2394 250.105 56.1565 250.105 57.0854C250.105 58.0143 249.897 58.9313 249.495 59.7689C248.529 61.9182 248.007 64.2406 247.961 66.5965C247.119 68.6966 246.436 70.8568 245.917 73.059C245.971 74.3434 245.64 75.6146 244.967 76.7101C244.094 78.4296 243.937 80.4246 244.529 82.2598C244.785 83.6472 248.473 86.203 248.473 86.203C248.473 86.203 249.312 85.9474 247.268 88.4302V88.5397ZM219.081 125.525L217.986 125.781H217.219L215.503 124.759C216.097 124.678 216.698 124.678 217.292 124.759C218.497 124.759 219.41 124.759 219.665 124.759L218.972 125.599L219.081 125.525ZM248.29 83.3186C244.639 80.5803 246.83 78.3531 247.633 76.8196C248.328 75.1603 248.735 73.3947 248.838 71.5985C248.838 70.8318 249.02 67.9474 249.933 66.9981C250.846 66.0488 251.065 61.5215 251.503 60.4261C251.834 59.3469 252.03 58.2309 252.087 57.1036C252.047 56.4105 252.047 55.7156 252.087 55.0225C251.314 52.8418 250.362 50.729 249.239 48.7061C245.15 49.1442 234.635 58.1259 233.686 59.2213C233.062 59.9088 232.35 60.5104 231.568 61.0103C226.797 59.8056 221.882 59.265 216.963 59.4038C212.267 59.4498 207.599 60.1377 203.089 61.4484C198.225 56.1695 192.218 52.0731 185.527 49.4728C181.183 53.8541 184.249 64.2598 184.688 65.2091C185.518 66.5776 185.983 68.1366 186.039 69.7365C186.367 72.3855 186.879 75.0085 187.572 77.5864C187.936 79.0046 188.515 80.359 189.288 81.6026C189.288 81.6026 188.375 82.6249 186.732 84.2679C185.089 85.9109 185.71 85.1077 184.761 85.5458C184.473 85.7192 184.227 85.9525 184.038 86.2297C183.849 86.5069 183.722 86.8216 183.665 87.1523C184.343 88.4395 185.137 89.6617 186.039 90.8034C187.17 92.0083 185.71 93.0306 185.71 93.0306L188.886 95.5864C190.055 96.5357 189.398 96.4626 190.237 97.2294C191.077 97.9961 190.42 98.6168 190.42 98.6168L191.114 99.2375C191.455 101.353 192.356 103.339 193.724 104.989C195.091 106.639 196.875 107.893 198.89 108.621C200.172 109.377 201.299 110.368 202.213 111.542L203.819 112.82C207.945 115.704 207.945 118.369 207.945 118.369C207.178 122.97 210.428 123.809 210.428 123.809C214.773 125.27 214.517 125.635 214.517 125.635C217.84 128.264 218.789 126.913 219.994 126.548C220.931 126.227 221.816 125.772 222.623 125.197C224.28 124.716 225.714 123.664 226.67 122.227C227.626 120.79 228.041 119.061 227.844 117.347C228.39 116.565 228.987 115.821 229.633 115.12C230.226 114.426 230.718 113.652 231.093 112.82C233.272 110.822 235.617 109.015 238.103 107.416C239.783 106.578 241.226 105.335 242.304 103.798C243.381 102.262 244.058 100.481 244.274 98.6168C244.51 97.2293 245.111 95.9296 246.016 94.8516C246.921 93.7735 248.096 92.9559 249.422 92.4829C249.107 91.986 248.94 91.4099 248.94 90.8217C248.94 90.2334 249.107 89.6573 249.422 89.1604C250.371 87.773 251.905 85.5093 251.905 85.5093C251.905 85.5093 251.686 85.5093 248.254 83.0265L248.29 83.3186Z" fill="#164194"/>
<path d="M227.844 90.5117C227.849 90.5674 227.843 90.6236 227.825 90.6766C227.807 90.7296 227.778 90.7783 227.74 90.8196C227.702 90.8608 227.656 90.8937 227.605 90.9162C227.554 90.9386 227.498 90.95 227.442 90.9498C227.326 90.9498 227.215 90.9037 227.132 90.8215C227.05 90.7393 227.004 90.6279 227.004 90.5117C227.004 90.4557 227.015 90.4003 227.038 90.3491C227.06 90.2978 227.093 90.2518 227.134 90.214C227.175 90.1761 227.224 90.1474 227.277 90.1295C227.33 90.1116 227.387 90.105 227.442 90.1101C227.549 90.1101 227.651 90.1524 227.726 90.2277C227.802 90.303 227.844 90.4052 227.844 90.5117Z" fill="white"/>
<path d="M550.684 6H415.316C406.305 6 399 13.3051 399 22.3164V157.684C399 166.695 406.305 174 415.316 174H550.684C559.695 174 567 166.695 567 157.684V22.3164C567 13.3051 559.695 6 550.684 6Z" fill="#00BE40"/>
<path d="M533.941 112.327H432.365V120.406H533.941V112.327Z" fill="white"/>
<path d="M460.087 72.0516V63.835H432.365V102.186H442.495V88.5487H458.163V80.3214H442.495V72.0516H460.087Z" fill="white"/>
<path d="M490.414 82.2989C494.464 80.4281 496.601 77.4731 496.601 73.7953C496.601 67.5983 492.009 63.8779 484.271 63.8779H464.648V102.187H484.483C492.923 102.187 497.961 98.1901 497.961 91.3978C497.961 87.0078 495.166 83.7233 490.414 82.2989ZM474.566 71.6162H482.4C485.248 71.6162 486.779 72.9237 486.779 75.3472C486.779 77.7707 485.248 79.0676 482.4 79.0676H474.566V71.6162ZM483.069 94.406H474.566V86.7846H483.165C486.014 86.7846 487.608 88.1452 487.608 90.7282C487.608 93.1623 486.014 94.406 483.059 94.406H483.069Z" fill="white"/>
<path d="M522.409 78.8976L517.796 78.2811C513.247 77.622 511.907 76.5059 511.907 74.3907C511.907 72.2754 513.682 70.8298 517.637 70.8298C521.293 70.8298 523.09 72.1797 523.951 75.5174L533.592 74.2737C532.178 66.7268 526.757 63.0596 517.913 63.0596C508.017 63.0596 501.512 68.0023 501.512 75.5599C501.512 82.0546 505.455 85.8387 513.523 86.9548L518.349 87.6138C523.462 88.3473 524.726 89.5059 524.726 91.7381C524.726 93.9703 522.834 95.299 518.349 95.299C516.742 95.3728 515.156 94.9107 513.84 93.9853C512.524 93.0598 511.552 91.7235 511.078 90.1862L501.033 91.6956C502.66 99.5083 508.601 103.069 518.04 103.069C528.766 103.069 535.101 98.456 535.101 90.622C535.058 83.734 531.189 80.1731 522.409 78.8976Z" fill="white"/>
<path d="M346 1.5C346 0.671571 346.672 0 347.5 0C348.328 0 349 0.671573 349 1.5V178.5C349 179.328 348.328 180 347.5 180C346.672 180 346 179.328 346 178.5V1.5Z" fill="white"/>
</svg>
