<svg xmlns="http://www.w3.org/2000/svg" width="18" height="31" viewBox="0 0 18 31" fill="none">
    <path d="M1.08043 13.5557C0.276724 14.3135 0.239436 15.5792 0.997148 16.3829L13.3448 29.4801C14.1025 30.2838 15.3683 30.3211 16.172 29.5634C16.9757 28.8057 17.013 27.5399 16.2553 26.7362L5.27959 15.0943L16.9215 4.11861C17.7252 3.3609 17.7625 2.09511 17.0048 1.29141C16.2471 0.487698 14.9813 0.450411 14.1776 1.20812L1.08043 13.5557ZM5.0881 13.0996C5.08865 13.0996 5.0917 13.0996 5.09593 13.0997C5.09975 13.0997 5.10878 13.0998 5.12048 13.1C5.13561 13.1003 5.20578 13.1015 5.29508 13.1111C5.39523 13.122 5.48531 13.1409 5.45885 13.1358C5.43167 13.1305 5.39489 13.1239 5.35081 13.1179C5.28591 13.1089 5.23282 13.1048 5.21347 13.1034C5.18732 13.1014 5.16158 13.0999 5.13836 13.0987C5.05011 13.0939 4.87487 13.0865 4.49714 13.0736L4.36055 17.0713C4.74072 17.0842 4.87869 17.0905 4.92184 17.0928C4.93147 17.0933 4.92722 17.0932 4.91531 17.0923C4.91019 17.0919 4.86407 17.0886 4.80301 17.0802C4.76084 17.0743 4.72518 17.068 4.69886 17.0629C4.67326 17.0579 4.76392 17.077 4.86489 17.0879C4.95501 17.0977 5.02624 17.0989 5.04318 17.0992C5.06457 17.0996 5.08267 17.0996 5.08378 17.0996L5.0881 13.0996ZM3.17327 13.0316C2.97349 13.0256 2.75352 13.019 2.51128 13.0119L2.3935 17.0101C2.6348 17.0172 2.85373 17.0238 3.05236 17.0298L3.17327 13.0316Z" fill="#09544F"/>
</svg>
