<svg width="18" height="30" viewBox="0 0 18 30" fill="none" xmlns="http://www.w3.org/2000/svg">
<path d="M16.8664 16.4398C17.6544 15.6658 17.6657 14.3995 16.8916 13.6115L4.27773 0.770582C3.50368 -0.0174019 2.2374 -0.0286967 1.44942 0.745354C0.661436 1.51941 0.650141 2.78569 1.42419 3.57367L12.6365 14.9878L1.22237 26.2002C0.434387 26.9742 0.423092 28.2405 1.19714 29.0285C1.97119 29.8165 3.23747 29.8278 4.02546 29.0537L16.8664 16.4398ZM14.1448 17.0036C14.1224 17.0053 14.1052 17.0061 14.0975 17.0065C14.0884 17.0069 14.0816 17.0071 14.078 17.0073C14.0711 17.0075 14.0681 17.0075 14.0708 17.0075C14.0761 17.0074 14.0897 17.0072 14.1149 17.007C14.1644 17.0065 14.2441 17.0062 14.3634 17.0064L14.3682 13.0064C14.1733 13.0062 13.9686 13.0059 13.855 13.0142L14.1448 17.0036ZM15.0835 17.01C15.194 17.0108 15.3149 17.0118 15.447 17.013L15.4827 13.0131C15.3488 13.012 15.226 13.0109 15.1134 13.0101L15.0835 17.01Z" fill="#00BE40"/>
</svg>
