<svg width="201" height="47" fill="none" xmlns="http://www.w3.org/2000/svg"><path d="M3.247 20.576c0-4.664 0-5.56-.073-6.53-.072-1.04-.326-1.542-1.342-1.757-.254-.072-.762-.108-1.198-.108-.363 0-.544-.071-.544-.287 0-.215.218-.287.69-.287 1.669 0 3.628.108 4.245.108 1.524 0 2.758-.108 3.81-.108 5.625 0 6.642 2.978 6.642 4.628 0 2.511-1.452 4.018-3.194 5.38 2.54.862 5.661 3.05 5.661 6.637 0 3.3-2.576 6.709-8.31 6.709-.762 0-3.593-.18-4.536-.18-.726 0-2.686.072-3.92.072-.399 0-.616-.072-.616-.323 0-.143.108-.251.508-.251.471 0 .834-.072 1.125-.108.617-.107.762-.789.907-1.686.145-1.291.145-3.73.145-6.564v-5.417.072Zm3.738.538c0 .25.109.323.218.358.29.072.762.072 1.451.072 1.016 0 1.706-.107 2.25-.574.799-.645 1.27-1.758 1.27-3.264 0-2.08-1.197-4.771-3.883-4.771-.435 0-.726 0-1.016.072-.218.071-.29.179-.29.538v7.605-.036Zm4.1 2.475c-.653-.466-1.378-.682-2.576-.753-.58-.036-.87-.036-1.343-.036-.109 0-.181.072-.181.215v7.318c0 2.045.109 2.547 1.089 2.942.834.322 1.56.358 2.286.358 1.415 0 3.774-.753 3.774-3.946 0-1.901-.653-4.484-3.012-6.134l-.036.036Z" fill="#767575"/><path d="M23.96 26.87c-.145 0-.218.072-.29.251L22 31.534c-.326.753-.471 1.506-.471 1.865 0 .574.29.969 1.233.969h.472c.363 0 .472.071.472.25 0 .252-.182.323-.544.323-.98 0-2.323-.071-3.303-.071-.326 0-2.068.072-3.665.072-.4 0-.58-.072-.58-.323 0-.18.108-.251.362-.251.29 0 .726-.036.98-.072 1.452-.18 2.032-1.22 2.65-2.762l7.838-19.336c.363-.897.544-1.22.87-1.22.29 0 .472.287.799.97.762 1.685 5.734 14.24 7.73 18.94C38.04 33.65 38.91 34.08 39.6 34.26c.471.108.943.108 1.306.108.254 0 .4.035.4.25 0 .252-.291.323-1.452.323-1.125 0-3.411 0-5.88-.071-.544-.036-.943-.036-.943-.251 0-.18.11-.251.436-.287.217-.072.435-.323.29-.718l-2.504-6.529c-.073-.143-.145-.215-.327-.215H23.96Zm6.35-1.542c.146 0 .182-.108.146-.18l-2.795-7.605c-.036-.107-.072-.287-.145-.287-.109 0-.145.144-.181.287l-2.867 7.57c-.036.107 0 .215.109.215h5.734Z" fill="#767575"/><path d="M44.694 30.772c.073 2.404.472 3.193 1.089 3.408.544.18 1.125.215 1.633.215.327 0 .544.072.544.251 0 .251-.29.323-.726.323-2.032 0-3.266-.072-3.883-.072-.29 0-1.741.072-3.374.072-.4 0-.69-.036-.69-.323 0-.179.182-.25.508-.25.4 0 .98-.037 1.416-.144.798-.251.943-1.148.98-3.803l.29-18.223c0-.61.108-1.04.399-1.04.326 0 .617.394 1.161.968.363.395 5.117 5.417 9.653 9.901 2.105 2.08 6.314 6.529 6.859 7.031h.145l-.327-13.811c-.036-1.865-.326-2.475-1.052-2.762-.472-.18-1.198-.18-1.67-.18-.362 0-.507-.107-.507-.287 0-.25.326-.287.798-.287 1.633 0 3.12.108 3.774.108.363 0 1.524-.108 3.048-.108.4 0 .726.036.726.287 0 .18-.181.288-.58.288-.327 0-.545 0-.944.107-.87.251-1.125.897-1.161 2.619l-.363 19.443c0 .681-.109.968-.4.968-.326 0-.725-.358-1.052-.681-1.96-1.83-5.951-5.883-9.181-9.04-3.411-3.336-6.859-7.175-7.403-7.749h-.109l.327 12.95.072-.179Zm26.602-8.946 1.451 1.22 7.62-7.426c.8-.789 1.235-1.435 1.235-1.937 0-.61-.4-1.004-1.198-1.22-.58-.143-.363-.717.29-.717h7.803c.726 0 .726.682.036.682h-.726c-.69 0-1.524.25-2.431.717a10.162 10.162 0 0 0-2.504 1.83l-7.258 7.102 9.653 9.686c1.161 1.148 2.141 2.152 3.81 2.368.835.107.871.753-.036.753h-3.81c-1.778 0-2.178-.61-3.411-1.865l-9.472-9.47-.726-.718c-.653-.215-1.088-.467-.29-.969l-.036-.036Z" fill="#767575"/><path d="M68.838 20.608c0-4.663 0-5.56-.072-6.529-.073-1.04-.363-1.578-1.053-1.722-.363-.107-.762-.107-1.125-.107-.326 0-.508-.072-.508-.323 0-.18.254-.251.762-.251 1.161 0 3.157.107 4.065.107.762 0 2.612-.107 3.81-.107.4 0 .653.072.653.25 0 .252-.181.324-.508.324-.326 0-.544.036-.943.107-.835.144-1.09.682-1.162 1.758-.072.969-.072 1.865-.072 6.529v5.417c0 2.977 0 5.416.109 6.744.109.825.326 1.399 1.234 1.507.435.071 1.124.107 1.596.107.327 0 .508.072.508.251 0 .215-.254.323-.58.323-2.069 0-4.029-.072-4.863-.072-.726 0-2.686.072-3.92.072-.399 0-.616-.072-.616-.323 0-.143.108-.25.508-.25.471 0 .834-.073 1.125-.108.617-.108.798-.646.907-1.543.145-1.291.145-3.73.145-6.708v-5.453Zm84.054 6.262c-.146 0-.218.072-.291.251l-1.669 4.413c-.327.753-.472 1.506-.472 1.865 0 .574.29.969 1.234.969h.472c.363 0 .471.071.471.25 0 .252-.181.323-.544.323-.98 0-2.322-.071-3.302-.071-.327 0-2.069.072-3.665.072-.4 0-.581-.072-.581-.323 0-.18.109-.251.363-.251.29 0 .726-.036.98-.072 1.415-.18 2.032-1.22 2.649-2.762l7.838-19.336c.363-.897.545-1.22.871-1.22.291 0 .472.287.799.97.762 1.685 5.733 14.24 7.729 18.94 1.198 2.762 2.105 3.193 2.758 3.372.472.108.944.108 1.307.108.254 0 .399.035.399.25 0 .252-.29.323-1.415.323s-3.412 0-5.879-.071c-.545-.036-.944-.036-.944-.251 0-.18.109-.251.436-.287.217-.072.435-.323.29-.718l-2.504-6.529c-.073-.143-.145-.215-.327-.215h-7.003Zm6.35-1.542c.145 0 .182-.108.145-.18l-2.794-7.605c-.036-.107-.073-.287-.145-.287-.109 0-.145.144-.182.287l-2.866 7.57c-.037.107 0 .215.145.215h5.733-.036Zm-50.568-4.72c0-4.663 0-5.56-.073-6.529-.072-1.04-.362-1.578-1.052-1.722-.327-.107-.762-.107-1.125-.107-.327 0-.508-.072-.508-.323 0-.18.254-.251.762-.251 1.161 0 3.157.107 4.065.107.762 0 2.612-.107 3.81-.107.399 0 .653.072.653.25 0 .252-.181.324-.508.324s-.544.036-.943.107c-.835.144-1.089.682-1.162 1.758-.072.969-.072 1.865-.072 6.529v5.417c0 2.977 0 5.416.109 6.744.108.825.326 1.399 1.233 1.507.436.071 1.125.107 1.597.107.363 0 .508.072.508.251 0 .215-.254.323-.58.323-2.069 0-4.029-.072-4.863-.072-.726 0-2.686.072-3.919.072-.4 0-.617-.072-.617-.323 0-.143.108-.25.508-.25.471 0 .834-.073 1.125-.108.617-.108.798-.646.907-1.543.145-1.291.145-3.73.145-6.708v-5.453Zm8.383 14c-.508-.216-.58-.36-.58-1.04 0-1.687.108-3.552.145-4.018.036-.467.109-.79.363-.79.29 0 .326.287.326.503 0 .394.109 1.04.291 1.578.689 2.296 2.54 3.12 4.463 3.12 2.794 0 4.173-1.864 4.173-3.515 0-1.506-.471-2.941-3.048-4.914l-1.415-1.112c-3.411-2.655-4.609-4.807-4.609-7.282 0-3.373 2.867-5.812 7.185-5.812 2.033 0 3.339.323 4.137.538.291.072.436.144.436.359 0 .395-.109 1.291-.109 3.695 0 .681-.109.933-.327.933-.217 0-.326-.18-.326-.538 0-.287-.145-1.22-.799-2.045-.471-.574-1.379-1.507-3.411-1.507-2.322 0-3.701 1.327-3.701 3.157 0 1.435.725 2.511 3.302 4.448l.871.646c3.738 2.87 5.117 4.914 5.117 7.856 0 1.794-.69 3.91-2.94 5.345-1.56.969-3.302 1.255-4.971 1.255-1.815 0-3.194-.215-4.537-.789l-.036-.071Z" fill="#767575"/><path d="M136.483 25.992c0 3.946 0 6.063.653 6.637.544.466 1.343.681 3.774.681 1.67 0 2.867-.035 3.629-.86.363-.395.762-1.256.799-1.866.036-.287.108-.466.326-.466.218 0 .254.143.254.538 0 .323-.218 2.654-.472 3.551-.181.682-.326.825-1.959.825-4.5 0-6.532-.179-9.073-.179-.725 0-2.685.072-3.919.072-.399 0-.617-.072-.617-.323 0-.144.109-.251.508-.251.472 0 .835-.072 1.125-.108.617-.108.762-.79.907-1.686.146-1.291.146-3.73.146-6.565v-5.416c0-4.664 0-5.56-.073-6.53-.073-1.04-.327-1.542-1.343-1.757-.254-.072-.617-.108-1.016-.108-.326 0-.544-.071-.544-.287 0-.215.218-.287.689-.287 1.452 0 3.412.108 4.283.108.762 0 3.012-.108 4.245-.108.436 0 .654.072.654.287 0 .216-.182.287-.581.287a7.08 7.08 0 0 0-1.198.108c-.834.143-1.088.682-1.161 1.758-.072.968-.072 1.865-.072 6.529v5.416h.036Zm37.261-14.226c.073-.502.29-.79.544-.79.255 0 .436.144.835.97l8.492 17.361 8.455-17.577c.218-.502.4-.753.69-.753.29 0 .472.322.544.968l2.831 19.049c.29 1.937.58 2.834 1.524 3.12.907.288 1.524.323 1.923.323.291 0 .508.036.508.216 0 .25-.363.322-.798.322-.762 0-5.081-.071-6.314-.179-.726-.072-.908-.143-.908-.323 0-.143.109-.25.327-.358.181-.072.29-.467.145-1.328l-1.887-13.56h-.109l-6.786 13.99c-.726 1.436-.871 1.723-1.161 1.723-.291 0-.581-.61-1.089-1.543-.762-1.399-3.193-6.134-3.593-6.995-.29-.646-2.141-4.52-3.229-6.852h-.109l-1.633 12.269c-.073.574-.109.968-.109 1.435 0 .574.399.86.943.968a7.453 7.453 0 0 0 1.307.144c.254 0 .472.071.472.215 0 .287-.291.323-.762.323-1.307 0-2.722-.072-3.267-.072-.58 0-2.104.072-3.084.072-.327 0-.581-.072-.581-.323 0-.144.182-.215.508-.215.254 0 .472 0 .944-.108.871-.18 1.125-1.4 1.27-2.44l3.085-20.088.072.036Z" fill="#767575"/><path d="M129.205 44.982c-19.197-.251-34.874-10.69-34.947-22.959C94.186 10.113 108.92.93 127.173 1.181c2.25.036 4.427.216 6.568.503-2.903-.503-5.951-.825-9.072-.861-19.342-.287-35.056 9.327-35.056 21.846 0 12.878 16.621 23.856 37.052 24.143 16.621.215 30.12-6.744 33.894-16.323-4.064 8.574-16.366 14.672-31.39 14.493h.036Z" fill="#C70773"/></svg>