<svg width="39" height="40" viewBox="0 0 39 40" fill="none" xmlns="http://www.w3.org/2000/svg">
<g opacity="0.4">
<path d="M33.2638 22.9049C32.4986 22.6999 32.0431 21.9118 32.2483 21.1461C33.2903 17.2573 32.7559 13.1953 30.7432 9.70913C30.3473 9.02349 30.5824 8.14611 31.2686 7.74822C31.9548 7.35033 32.8321 7.5876 33.23 8.27378C35.6263 12.4243 36.263 17.2603 35.0226 21.8895C34.8154 22.6546 34.029 23.11 33.2638 22.9049Z" fill="white"/>
<path d="M5.38717 15.4199C4.622 15.2148 4.16654 14.4267 4.3717 13.661C5.61207 9.03191 8.58143 5.16212 12.732 2.7658C13.4176 2.36994 14.2955 2.60517 14.6934 3.29136C15.0913 3.97755 14.8542 4.85439 14.168 5.25227C10.6818 7.265 8.18803 10.5156 7.14602 14.4044C6.94086 15.1701 6.15234 15.6249 5.38717 15.4199Z" fill="white"/>
</g>
<path opacity="0.4" d="M14.1135 37.9928C16.6238 38.6654 19.2036 37.4394 20.3212 35.198L10.1328 32.468C9.98196 34.9685 11.6032 37.3201 14.1135 37.9928Z" fill="white"/>
<path d="M30.1624 31.0348C28.5411 28.7017 28.0331 25.788 28.7682 23.0446L29.8036 19.1807C31.1109 14.3018 28.5683 9.29139 24.0553 7.3578L24.4565 5.86046C24.6621 5.09326 24.2062 4.30664 23.4411 4.10161C22.6759 3.89658 21.8878 4.34988 21.6822 5.11708L21.281 6.61442C16.4038 6.03191 11.6987 9.1003 10.3914 13.9792L9.35556 17.8452C8.62048 20.5885 6.72429 22.8559 4.13754 24.0751C3.47515 24.3923 2.98544 24.981 2.79537 25.6904C2.43702 27.0278 3.23265 28.4088 4.57208 28.7677L27.449 34.8976C28.7864 35.2559 30.1675 34.4603 30.5264 33.1209C30.7164 32.4115 30.5867 31.6568 30.1624 31.0348Z" fill="white"/>
</svg>
