<svg width="39" height="40" fill="none" xmlns="http://www.w3.org/2000/svg"><path d="M33.264 22.905a1.437 1.437 0 0 1-1.016-1.759A14.974 14.974 0 0 0 30.743 9.71a1.437 1.437 0 0 1 2.487-1.435 17.827 17.827 0 0 1 1.793 13.616 1.438 1.438 0 0 1-1.76 1.015ZM5.387 15.42a1.437 1.437 0 0 1-1.015-1.759 17.827 17.827 0 0 1 8.36-10.895 1.435 1.435 0 1 1 1.436 2.486 14.974 14.974 0 0 0-7.022 9.152 1.437 1.437 0 0 1-1.759 1.016Zm8.727 22.573a5.39 5.39 0 0 0 6.207-2.795l-10.188-2.73a5.394 5.394 0 0 0 3.98 5.525Z" opacity=".4" fill="#fff"/><path d="M30.162 31.035a9.617 9.617 0 0 1-1.394-7.99l1.036-3.864c1.307-4.88-1.236-9.89-5.749-11.823l.401-1.498a1.436 1.436 0 1 0-2.774-.743l-.401 1.497c-4.877-.582-9.582 2.486-10.89 7.365l-1.035 3.866a9.629 9.629 0 0 1-5.218 6.23 2.51 2.51 0 0 0-1.343 1.615 2.515 2.515 0 0 0 1.777 3.078l22.877 6.13a2.515 2.515 0 0 0 3.077-1.777c.19-.71.06-1.464-.364-2.086Z" fill="#fff"/></svg>