<svg width="97" height="97" viewBox="0 0 97 97" fill="none" xmlns="http://www.w3.org/2000/svg">
<g clip-path="url(#clip0_361_69929)">
<path d="M40.3585 83.6371C40.3685 83.6434 40.3778 83.6496 40.3882 83.6553C44.3874 86.2024 48.9974 87.5186 53.5248 86.3074C66.6082 82.814 60.8906 84.3502 62.465 83.9184C69.2163 82.0806 73.1153 75.5599 74.9512 68.7788C79.4377 52.2078 73.2748 28.9695 61.2132 16.9768C55.3311 11.1279 48.9134 8.76137 43.1333 10.3023C39.732 11.2091 34.0675 12.7268 34.2291 12.6836C25.5192 15.015 21.5126 25.0186 20.5158 34.1753C20.5151 34.1802 20.5146 34.185 20.514 34.19C18.5906 51.9089 26.6431 74.8746 40.3585 83.6371ZM28.879 68.8526L36.6336 66.7765C37.8962 69.1147 39.3435 71.3476 40.9619 73.454L33.2853 75.5133C31.6327 73.4209 30.1588 71.1929 28.879 68.8526V68.8526ZM25.2284 60.8113L33.0165 58.7221C33.8914 61.1252 34.9172 63.4699 36.0877 65.7422L28.3233 67.821C27.1413 65.5544 26.1076 63.213 25.2284 60.8113V60.8113ZM22.7907 52.4474L30.5855 50.3606C31.128 52.8262 31.812 55.2577 32.6343 57.643L24.843 59.733C24.0164 57.3477 23.3311 54.9149 22.7907 52.4474V52.4474ZM21.5173 43.7689L29.2896 41.6781C29.4819 44.2208 29.8351 46.7478 30.347 49.244L22.5543 51.3302C22.0524 48.8346 21.7061 46.3093 21.5173 43.7689V43.7689ZM52.33 82.9382C52.2006 82.9728 45.0891 84.8712 45.3394 84.8043C44.2238 84.4203 43.1462 83.935 42.1199 83.3547L49.4436 81.39C50.367 81.9749 51.3316 82.4922 52.33 82.9382ZM41.7436 74.4259C43.6166 76.7012 45.7997 78.8519 48.1799 80.5475L40.7615 82.5375C38.2576 80.8995 36.0018 78.7557 34.0753 76.483L41.7436 74.4259ZM60.4052 17.7895C72.2084 29.5254 78.239 52.2682 73.8483 68.4862C69.8105 83.3913 58.9432 86.7539 48.9025 79.6505C34.9048 69.7114 26.7806 43.8462 31.6787 25.7523C35.9115 10.1114 48.5048 5.95621 60.4052 17.7895ZM27.546 18.4329L34.6039 16.5435C33.4693 18.171 32.5307 19.9261 31.8078 21.772L24.3073 23.7804C25.1255 21.8532 26.2163 20.0522 27.546 18.4329ZM23.7681 25.1053L31.3149 23.0845C31.0602 23.8088 30.7314 24.8783 30.5726 25.4629L30.5722 25.4633C30.0515 27.4189 29.6755 29.4094 29.4473 31.4185L21.7483 33.4893C22.0873 30.6264 22.7653 27.812 23.7681 25.1053V25.1053ZM21.6052 34.7091L29.3214 32.6336C29.0879 35.2569 29.0493 37.8927 29.206 40.5193L21.4416 42.608C21.2945 39.9759 21.3492 37.3352 21.6052 34.7091V34.7091Z" fill="#00BE40"/>
<path d="M37.2147 29.2615C33.6964 42.259 38.7096 61.1797 48.1626 70.5789C56.733 79.1 65.1487 76.6575 68.3107 64.9768C71.8295 51.9797 66.8139 33.0558 57.3577 23.6535C48.742 15.0874 40.3567 17.6573 37.2147 29.2615ZM67.2078 64.6842C64.2437 75.6372 56.7707 77.5218 48.9706 69.7662C39.7713 60.6191 34.8931 42.2046 38.3176 29.5541C41.2724 18.6383 48.7291 16.6902 56.5497 24.4662C65.7522 33.6164 70.6332 52.0337 67.2078 64.6842Z" fill="#00BE40"/>
<path d="M51.7424 24.8668C52.591 25.4804 53.3884 26.1618 54.1266 26.9044C54.2335 27.0107 54.3785 27.07 54.5297 27.0693C54.6809 27.0686 54.8261 27.008 54.9334 26.9008L54.9345 26.8996C54.9876 26.8462 55.0298 26.783 55.0585 26.7135C55.0872 26.644 55.102 26.5697 55.102 26.4946C55.102 26.4196 55.0873 26.3454 55.0585 26.2762C55.0298 26.2071 54.9877 26.1443 54.9346 26.0916C54.1525 25.3054 53.3078 24.584 52.4087 23.9346C52.3478 23.8912 52.2788 23.8603 52.2057 23.8436C52.1327 23.8269 52.057 23.8249 51.9829 23.8375C51.9089 23.8501 51.838 23.8771 51.7743 23.917C51.7105 23.957 51.6552 24.0091 51.6114 24.0703C51.5677 24.1315 51.5364 24.2006 51.5193 24.2738C51.5022 24.3469 51.4996 24.4227 51.5118 24.4966C51.5239 24.5706 51.5506 24.6414 51.5901 24.7049C51.6297 24.7684 51.6814 24.8234 51.7424 24.8668V24.8668Z" fill="#00BE40"/>
<path d="M43.8837 23.5872C43.7762 23.6947 43.7156 23.8402 43.7152 23.9917C43.7147 24.1432 43.7745 24.2883 43.8813 24.3951C43.9881 24.502 44.1332 24.5617 44.2848 24.5613C44.4363 24.5608 44.5818 24.5002 44.6892 24.3927C45.7706 23.3113 47.0329 22.9553 48.5483 23.305C48.6214 23.3218 48.6971 23.3241 48.7712 23.3116C48.8453 23.2992 48.9163 23.2723 48.9802 23.2325C49.044 23.1926 49.0995 23.1407 49.1434 23.0795C49.1873 23.0184 49.2188 22.9493 49.2361 22.8761C49.2533 22.803 49.256 22.7272 49.244 22.6532C49.232 22.5792 49.2055 22.5083 49.1661 22.4447C49.1266 22.3811 49.075 22.3259 49.0141 22.2824C48.9532 22.2388 48.8843 22.2078 48.8112 22.1909C46.9063 21.7524 45.2488 22.2221 43.8837 23.5872Z" fill="#00BE40"/>
</g>
<defs>
<clipPath id="clip0_361_69929">
<rect width="62.5599" height="74.084" fill="white" transform="translate(0 44.2365) rotate(-45)"/>
</clipPath>
</defs>
</svg>
