<svg width="200" height="200" viewBox="0 0 200 200" fill="none" xmlns="http://www.w3.org/2000/svg">
<path d="M149.262 60.8784H149.26C149.02 60.8791 148.79 60.9751 148.621 61.1454C148.451 61.3157 148.357 61.5463 148.357 61.7865L148.374 67.5357C148.374 67.7756 148.47 68.0054 148.64 68.1747C148.809 68.3441 149.039 68.4392 149.279 68.4391H149.281C149.521 68.4384 149.751 68.3424 149.92 68.1721C150.09 68.0018 150.184 67.7712 150.184 67.531L150.167 61.7818C150.167 61.5419 150.071 61.3121 149.901 61.1428C149.732 60.9734 149.502 60.8783 149.262 60.8784Z" fill="#09544F"/>
<path d="M138.791 54.8167L148.322 49.3104L148.338 55.0537C148.339 55.2936 148.435 55.5234 148.604 55.6927C148.774 55.8621 149.004 55.9572 149.244 55.9571H149.246C149.486 55.9564 149.716 55.8604 149.885 55.6901C150.054 55.5198 150.149 55.2892 150.149 55.049L150.127 47.7419C150.127 47.5831 150.085 47.4273 150.005 47.29C149.925 47.1527 149.811 47.0388 149.674 46.9596C149.536 46.8805 149.38 46.8388 149.222 46.8389C149.063 46.8389 148.907 46.8807 148.77 46.96L137.886 53.2482C137.678 53.3683 137.527 53.5661 137.465 53.7981C137.403 54.0301 137.435 54.2773 137.555 54.4853C137.675 54.6933 137.873 54.845 138.105 54.9072C138.336 54.9693 138.584 54.9368 138.791 54.8167Z" fill="#09544F"/>
<path d="M106.159 82.62C106.614 83.0661 107.419 82.3891 107.735 81.7098L112.301 71.992C112.778 70.9694 112.312 70.1717 111.493 70.6446L102.335 75.9357C101.532 76.3997 101.072 77.7328 101.552 78.2022L106.159 82.62Z" fill="#09544F"/>
<path d="M172.047 125.346L157.396 116.868C157.708 115.669 157.87 114.436 157.879 113.197L157.686 45.2799C157.663 42.2375 156.6 39.9438 154.669 38.7263C154.252 38.382 157.29 40.2394 125.524 21.7518C123.505 20.5701 120.795 20.7895 118.094 22.3533C19.4025 79.3774 39.0391 68.0314 36.3599 69.5795C31.385 72.4511 26.9746 79.6252 27.0001 85.8059C27.0275 95.4277 27.1475 137.574 27.1934 153.699C27.1934 156.825 28.3071 159.198 30.3341 160.384C30.5832 160.529 59.609 177.397 59.3564 177.25C61.6574 178.593 64.4731 177.978 66.7902 176.622L114.579 149.016L123.92 154.402C126.173 155.697 129.727 155.684 131.957 154.402L172.071 131.07C174.638 129.588 174.656 126.852 172.047 125.346ZM37.5667 71.6716L115.079 26.8859C121.733 30.7511 134.888 38.3926 141.662 42.3275C121.238 54.1286 70.4811 83.4546 65.3358 86.4274C63.4262 87.6231 61.7453 89.1504 60.3723 90.9374C58.9337 90.1018 65.0045 93.6282 33.4972 75.3263C34.6145 73.8652 35.9947 72.6257 37.5667 71.6716ZM32.1066 77.3124L58.9969 92.9321C57.1337 95.9717 55.9645 99.4604 55.9773 102.667L56.1512 163.793L29.5917 148.364L29.4137 85.7976C29.4031 83.1949 30.3966 80.0897 32.1066 77.3124ZM65.5834 174.521C61.3137 177 58.5854 174.856 58.5854 170.57V170.567C58.5034 141.76 58.4305 116.156 58.3921 102.644C58.369 97.5547 62.1739 91.0529 66.545 88.5183C66.788 88.3775 148.365 41.0844 149.9 40.5748C152.887 39.5942 155.227 41.0472 155.272 45.304L155.465 113.197C155.466 114.008 155.386 114.818 155.224 115.612L144.459 109.405C144.862 108.264 145.074 107.065 145.087 105.855L145.015 82.958C145.015 80.7359 144.218 79.0694 142.77 78.2241C142.765 78.2213 142.759 78.221 142.755 78.2182L136.367 74.5173C134.896 73.6529 133.012 73.8015 131.073 74.9289L76.1263 106.684C72.3928 108.823 69.4925 113.836 69.5231 118.094L69.5785 140.991C69.5785 143.177 70.3964 144.901 71.8189 145.719C81.9859 151.648 67.9389 143.455 78.2547 149.475C80.0035 150.416 81.8114 149.997 83.5405 149.04L99.084 140.055L112.166 147.615L65.5834 174.521ZM136.205 104.647C136.596 103.972 136.804 103.206 136.808 102.425L136.784 98.2225C136.779 97.5953 136.609 96.9807 136.29 96.4403C135.972 95.9 135.518 95.453 134.972 95.1445C134.426 94.836 133.809 94.6768 133.182 94.6828C132.556 94.6889 131.942 94.8601 131.402 95.1792C124.228 99.3225 93.8391 116.873 86.6541 121.023C85.9338 121.488 85.3347 122.119 84.9066 122.862C84.4785 123.606 84.2336 124.441 84.1922 125.298L84.2163 129.476C84.2273 130.076 84.3902 130.663 84.6899 131.183C84.9897 131.702 85.4164 132.137 85.93 132.447C89.5123 134.514 97.7256 139.253 97.2738 138.992L82.6233 147.47C79.7761 149.098 77.7986 147.899 77.7986 144.732L77.7444 121.828C77.7193 118.342 80.249 113.825 83.4119 111.996L138.392 80.2395C141.115 78.6546 143.204 79.709 143.204 82.958L143.277 105.855C143.267 106.747 143.129 107.634 142.867 108.487L136.205 104.647ZM127.419 99.575L132.319 96.7492C132.585 96.5904 132.888 96.5047 133.197 96.5009C133.506 96.497 133.811 96.575 134.081 96.727C134.35 96.879 134.575 97.0997 134.732 97.3665C134.889 97.6334 134.972 97.937 134.974 98.2466L134.998 102.449C134.982 102.899 134.858 103.338 134.636 103.729L127.419 99.575ZM76.1075 146.126L72.7263 144.152C71.8766 143.663 71.3888 142.51 71.3888 140.989L71.3333 118.084C71.3074 114.478 73.8612 110.068 77.029 108.253L131.981 76.4963C133.04 75.8802 134.397 75.4605 135.456 76.0835L138.835 78.04C138.799 78.0525 138.762 78.0774 138.726 78.0907C138.297 78.2444 137.881 78.4345 137.484 78.6589L82.5067 110.428C78.6665 112.646 75.9135 117.839 75.9135 121.844C76.0284 144.919 75.8905 144.926 76.1075 146.126ZM171.154 129.5L131.04 152.832C129.374 153.798 126.502 153.798 124.813 152.832C124.543 152.676 96.3386 136.366 86.8471 130.877C86.6015 130.728 86.3974 130.519 86.254 130.27C86.1105 130.021 86.0323 129.739 86.0265 129.452L86.0024 125.273C86.05 124.738 86.2153 124.221 86.4866 123.757C86.7578 123.294 87.1283 122.896 87.5713 122.593L125.609 100.614C128.769 102.443 171.514 127.138 171.13 126.916C172.483 127.69 172.586 128.651 171.154 129.5Z" fill="#09544F"/>
<path d="M157.795 126.751L144.604 119.128C144.277 118.939 143.906 118.839 143.529 118.839C143.152 118.839 142.781 118.939 142.454 119.128L135.057 123.402C134.73 123.59 134.458 123.862 134.269 124.189C134.08 124.516 133.98 124.887 133.98 125.265C133.98 125.642 134.079 126.014 134.268 126.341C134.457 126.668 134.729 126.94 135.055 127.128L148.777 135.068C148.975 135.158 149.19 135.205 149.408 135.205C149.625 135.205 149.84 135.157 150.038 135.066L157.815 130.466C158.138 130.275 158.405 130.002 158.591 129.675C158.776 129.348 158.872 128.978 158.87 128.603C158.868 128.227 158.768 127.858 158.579 127.533C158.39 127.209 158.12 126.939 157.795 126.751ZM156.893 128.907L149.403 133.338L135.961 125.56C135.909 125.53 135.866 125.487 135.836 125.435C135.806 125.383 135.79 125.325 135.79 125.265C135.79 125.205 135.806 125.146 135.836 125.094C135.867 125.043 135.91 125 135.962 124.97L143.36 120.695C143.412 120.666 143.47 120.65 143.53 120.65C143.589 120.651 143.647 120.666 143.699 120.696L156.89 128.32C156.941 128.349 156.984 128.392 157.014 128.443C157.044 128.494 157.06 128.553 157.06 128.612C157.06 128.672 157.045 128.73 157.016 128.782C156.987 128.833 156.944 128.877 156.893 128.907Z" fill="#09544F"/>
<path d="M102.57 125.645L99.4362 123.832C99.3332 123.773 99.2197 123.734 99.1018 123.719C98.984 123.703 98.8643 123.711 98.7495 123.742C98.6347 123.772 98.527 123.826 98.4327 123.898C98.3385 123.97 98.2593 124.061 98.1999 124.164C98.1405 124.267 98.1019 124.38 98.0864 124.498C98.0708 124.616 98.0787 124.736 98.1095 124.851C98.1402 124.966 98.1932 125.073 98.2656 125.168C98.3379 125.262 98.4282 125.341 98.5311 125.401L101.665 127.213C101.768 127.273 101.881 127.311 101.999 127.327C102.117 127.342 102.237 127.335 102.351 127.304C102.466 127.273 102.574 127.22 102.668 127.148C102.762 127.075 102.841 126.985 102.901 126.882C102.96 126.779 102.999 126.665 103.014 126.547C103.03 126.429 103.022 126.31 102.991 126.195C102.961 126.08 102.908 125.972 102.835 125.878C102.763 125.783 102.673 125.704 102.57 125.645Z" fill="#09544F"/>
<path d="M112.941 131.643L107.755 128.644C107.652 128.584 107.539 128.545 107.421 128.53C107.303 128.514 107.183 128.522 107.068 128.553C106.953 128.583 106.846 128.637 106.751 128.709C106.657 128.781 106.578 128.872 106.518 128.975C106.459 129.078 106.42 129.192 106.405 129.31C106.389 129.428 106.397 129.547 106.428 129.662C106.459 129.777 106.512 129.885 106.584 129.979C106.657 130.074 106.747 130.153 106.85 130.212L112.036 133.211C112.244 133.331 112.491 133.364 112.722 133.302C112.954 133.24 113.152 133.088 113.272 132.88C113.392 132.672 113.425 132.425 113.362 132.193C113.3 131.961 113.149 131.763 112.941 131.643Z" fill="#09544F"/>
<path d="M123.31 137.64L118.125 134.641C117.917 134.521 117.67 134.489 117.439 134.551C117.207 134.613 117.01 134.765 116.89 134.973C116.77 135.181 116.737 135.428 116.799 135.659C116.861 135.891 117.012 136.089 117.22 136.209L122.405 139.208C122.508 139.268 122.622 139.307 122.74 139.322C122.858 139.338 122.977 139.33 123.092 139.299C123.207 139.269 123.315 139.216 123.409 139.143C123.504 139.071 123.583 138.98 123.642 138.877C123.702 138.774 123.74 138.661 123.756 138.543C123.771 138.425 123.763 138.305 123.733 138.19C123.702 138.075 123.649 137.967 123.576 137.873C123.504 137.778 123.413 137.699 123.31 137.64Z" fill="#09544F"/>
<path d="M131.631 142.45L128.496 140.638C128.393 140.578 128.279 140.54 128.161 140.524C128.043 140.508 127.924 140.516 127.809 140.547C127.694 140.578 127.587 140.631 127.492 140.703C127.398 140.776 127.319 140.866 127.259 140.969C127.2 141.072 127.161 141.186 127.146 141.304C127.13 141.422 127.138 141.541 127.169 141.656C127.2 141.771 127.253 141.879 127.325 141.973C127.397 142.067 127.488 142.147 127.591 142.206L130.725 144.019C130.933 144.138 131.18 144.171 131.412 144.108C131.643 144.046 131.841 143.894 131.96 143.687C132.08 143.479 132.113 143.232 132.051 143C131.989 142.768 131.838 142.571 131.631 142.45Z" fill="#09544F"/>
<path d="M68.97 159.221C67.1215 160.289 65.565 162.986 65.5711 165.11C65.5763 166.963 66.7146 167.638 68.3541 166.691C70.2026 165.623 71.7592 162.926 71.7532 160.801C71.7477 158.948 70.6086 158.275 68.97 159.221Z" fill="#09544F"/>
</svg>
