<svg width="200" height="200" viewBox="0 0 200 200" fill="none" xmlns="http://www.w3.org/2000/svg">
<path d="M42.2061 145.338C43.4818 154.637 50.9622 161.763 59.23 166.465C81.5587 179.16 117.805 179.193 140.022 166.475C149.094 161.282 156.97 153.212 157 142.893C157 142.656 156.988 126.55 156.989 127.578C156.989 127.572 156.989 127.566 156.989 127.56C156.989 119.235 151.813 111.423 142.339 105.319V63.9241C142.339 63.9217 142.338 63.9198 142.338 63.9174C142.338 63.9118 142.339 63.9063 142.339 63.9007C142.339 61.4217 140.724 59.1298 137.804 57.4693C133.72 55.1306 127.974 54.4991 122.987 55.5281C122.989 49.8564 122.991 38.5129 122.992 32.8412C122.99 30.3609 121.376 28.0782 118.448 26.4132C112.787 23.1941 103.946 23.1964 98.3226 26.4155C95.4334 28.0679 93.8474 30.3369 93.8497 32.8024C93.8497 32.8141 93.8525 32.8255 93.8526 32.8372V93.1111C91.8864 93.0109 89.9152 93.1602 87.9876 93.5554V52.9896C88.0405 50.1062 85.998 47.8938 83.4499 46.4452C77.7897 43.2261 68.9504 43.2283 63.3273 46.4475C60.4532 48.0913 58.8693 50.3445 58.8574 52.7951C58.8572 52.8023 58.8532 52.8081 58.8532 52.8153V103.799C49.7117 109.068 41.8711 117.185 42.0035 127.577C42.0553 143.073 41.8753 142.953 42.2061 145.338ZM53.9965 160.041V147.787C78.3605 166.003 127.053 164.843 148.316 145.204V157.172C129.043 177.666 77.8101 179.603 53.9965 160.041ZM139.964 115.706C139.949 117.29 138.781 118.829 136.664 120.041C131.792 122.829 123.843 122.83 118.934 120.037C116.781 118.812 115.595 117.254 115.579 115.648V68.7184C115.586 68.7247 115.594 68.7304 115.601 68.7367C121.528 74.1738 134.665 73.7832 139.964 68.7652V115.706ZM136.617 59.4805C140.968 61.9769 141.173 65.6588 136.664 68.2741C132.984 70.379 127.546 70.8934 122.987 69.7943C115.952 68.2103 112.648 63.0534 118.856 59.4805C123.979 56.6286 131.785 56.7809 136.617 59.4805ZM99.5145 28.4367C104.39 25.6472 112.352 25.6498 117.26 28.439C121.656 30.938 121.788 34.6544 117.314 37.2149C112.563 39.9343 104.487 40.0009 99.5841 37.2103C95.1953 34.7134 95.0538 30.9909 99.5145 28.4367ZM96.2271 37.6838C96.8986 38.268 97.6251 38.7878 98.3969 39.2361C104.047 42.4499 112.885 42.4568 118.506 39.2361C119.262 38.8035 119.969 38.2908 120.613 37.7072V56.183C119.587 56.5064 118.6 56.9376 117.668 57.4693C114.811 59.121 113.224 61.3743 113.208 63.8148C113.203 64.4806 113.204 114.285 113.204 114.019C111.281 114.443 109.308 114.609 107.339 114.51V101.928C107.339 99.1539 105.276 96.8498 102.804 95.4966C100.77 94.3764 98.5379 93.6463 96.2271 93.345V37.6838ZM104.965 142.972C104.965 144.563 103.802 146.106 101.664 147.322C96.7969 150.105 88.8425 150.105 83.9274 147.322C81.7666 146.083 80.5794 144.516 80.5794 142.879V106.746C85.6992 111.4 96.4877 112.017 102.852 108.313C103.609 107.882 104.318 107.372 104.965 106.793V142.972ZM101.617 97.5079C106.211 100.144 105.93 103.927 101.664 106.301C97.5437 108.638 90.8441 109.166 85.6132 107.073C79.981 104.853 78.8861 100.732 83.2863 97.8821C87.0702 95.0876 95.7318 94.3106 101.617 97.5079ZM78.2286 101.624C78.169 101.859 78.2049 101.738 78.2049 127.724C70.2737 129.574 61.2276 126.206 61.2276 121.737V57.7031C61.8926 58.3007 62.6215 58.8254 63.4015 59.2681C69.6424 62.8175 80.4197 62.4391 85.5636 57.7899C85.5789 57.7763 85.5981 57.7636 85.6132 57.7499V94.2103C82.0736 95.3192 78.3123 98.0027 78.2286 101.624ZM64.5192 48.4687C69.3928 45.6781 77.3547 45.6797 82.2627 48.471C86.7317 51.0116 86.716 54.7295 82.3128 57.2354C77.5936 59.9561 69.4625 60.0256 64.5993 57.2354C60.1335 54.7219 60.1052 50.9961 64.5192 48.4687ZM58.8532 106.535V128.028C58.8532 130.53 60.4678 132.822 63.4121 134.506C67.615 136.872 73.4007 137.459 78.2049 136.424V142.879C78.2049 145.381 79.8195 147.673 82.7402 149.334C88.481 152.585 97.3402 152.508 102.852 149.334C105.749 147.696 107.339 145.428 107.339 142.972V116.826C109.304 116.945 111.277 116.795 113.2 116.382V122.85C113.195 124.814 114.21 126.648 116.071 128.158C121.529 132.621 131.917 132.682 137.851 129.314C140.279 127.923 142.335 125.699 142.343 122.933C142.343 122.693 142.339 107.171 142.339 108.149C159.688 120.136 158.744 137.786 138.825 149.193C117.288 161.518 82.1228 161.518 60.4203 149.17C43.1291 139.343 44.4842 127.534 44.378 127.298C44.378 127.295 44.3759 127.292 44.3759 127.288C44.4134 119.555 49.5085 112.221 58.8532 106.535Z" fill="#09544F"/>
</svg>
