<svg width="200" height="200" viewBox="0 0 200 200" fill="none" xmlns="http://www.w3.org/2000/svg">
<path d="M172.624 120.123L124.535 92.3584L124.56 86.2577L155.737 68.1308C155.99 67.9838 156.2 67.7729 156.346 67.5192C156.492 67.2655 156.569 66.978 156.569 66.6853V64.0704C156.6 56.8135 154.187 48.6044 149.776 40.9604C142.745 28.7563 127.203 14.9374 115.306 21.8488L34.645 68.7266L34.6374 68.7303L34.6297 68.7356L34.6276 68.7368L34.5787 68.7662C34.5695 68.7715 34.5647 68.7811 34.5558 68.7866C29.8034 71.5718 27.1713 77.2332 27.1503 84.7565L27 142.97C26.9992 143.264 27.076 143.554 27.2229 143.809C27.3697 144.064 27.5814 144.276 27.8363 144.424L62.4449 164.404C62.8291 164.626 63.2857 164.686 63.7142 164.571C64.1427 164.456 64.5081 164.176 64.7299 163.792C64.9517 163.407 65.0118 162.951 64.8969 162.522C64.7821 162.094 64.5017 161.728 64.1174 161.507L30.3483 142.011L30.4953 84.7663C30.5133 78.4473 32.5725 73.787 36.2953 71.6374L36.3067 71.631C44.9266 66.6594 56.9236 76.3454 63.1508 84.8912C68.4548 92.2104 72.4172 101.574 72.5051 110.686L57.0812 101.781L43.1128 93.712C43.1091 93.7099 43.1048 93.711 43.1011 93.7089L43.0981 93.7071C42.8442 93.5608 42.5562 93.4837 42.2631 93.4837C41.97 93.4836 41.682 93.5605 41.428 93.7067C41.174 93.8529 40.9628 94.0632 40.8156 94.3167C40.6684 94.5702 40.5904 94.8579 40.5893 95.151L40.5178 124.141L40.4701 140.214C40.4693 140.509 40.5461 140.798 40.693 141.054C40.8398 141.309 41.0514 141.521 41.3063 141.668C41.3143 141.673 41.3241 141.671 41.3321 141.675L89.4111 169.433C89.4102 169.777 89.3922 176.47 89.3932 176.099L78.8484 170.013C78.4642 169.791 78.0075 169.731 77.579 169.846C77.1505 169.961 76.7852 170.241 76.5634 170.625C76.3416 171.01 76.2815 171.466 76.3964 171.895C76.5112 172.323 76.7916 172.689 77.1759 172.91L90.2212 180.44C90.4753 180.586 90.7633 180.663 91.0565 180.664C91.3497 180.664 91.6378 180.587 91.8921 180.442C91.8939 180.441 91.8946 180.438 91.8964 180.437L91.8987 180.437L172.598 133.539C172.85 133.392 173.06 133.182 173.206 132.93C173.352 132.677 173.429 132.39 173.429 132.098L173.461 121.577L173.46 121.573L173.461 121.57C173.46 121.277 173.382 120.989 173.235 120.735C173.088 120.481 172.878 120.27 172.624 120.123ZM45.4877 140.211L65.0588 128.838L122.86 95.2537L168.451 121.577L91.0845 166.537C86.3006 163.775 49.8357 142.722 45.4877 140.211ZM121.207 88.2077L121.189 92.3502L55.2917 130.645L43.8298 137.305L43.8623 124.293L43.9409 98.056L55.6024 104.789L73.3522 115.042C73.3548 115.043 73.3586 115.042 73.3612 115.044C73.3643 115.046 73.3655 115.05 73.3685 115.051C73.3914 115.064 73.419 115.059 73.4423 115.071C73.6612 115.187 73.9034 115.251 74.1509 115.26C74.1689 115.26 74.1852 115.274 74.2032 115.274C74.2583 115.274 74.3077 115.236 74.3627 115.23C74.5548 115.213 74.7424 115.163 74.9169 115.081C74.9576 115.061 75.005 115.07 75.0444 115.047C77.9492 113.358 62.5257 122.325 121.207 88.2077ZM116.987 24.7398C127.009 18.9196 141.061 32.5317 146.878 42.6313C150.999 49.7722 153.253 57.3819 153.224 64.0573V65.7233C145.297 70.3303 181.903 49.0549 75.8786 110.677C75.8114 102.741 72.7457 92.4722 65.9992 83.1323C60.8116 75.9126 52.7056 68.5476 43.9393 67.1949L116.987 24.7398ZM92.7382 176.081C92.7398 175.497 92.758 169.02 92.7568 169.433L170.107 124.483L170.088 131.13L92.7382 176.081Z" fill="#09544F"/>
<path d="M69.1709 164.424C68.9807 164.314 68.7707 164.243 68.5529 164.214C68.3351 164.185 68.1138 164.2 67.9016 164.257C67.6894 164.314 67.4905 164.412 67.3162 164.545C67.1419 164.679 66.9957 164.846 66.8859 165.036C66.7761 165.226 66.7048 165.436 66.6761 165.654C66.6475 165.872 66.6621 166.093 66.7189 166.305C66.7758 166.518 66.8739 166.717 67.0076 166.891C67.1414 167.065 67.3081 167.211 67.4984 167.321L71.995 169.918C72.3792 170.14 72.8358 170.2 73.2643 170.085C73.6928 169.97 74.0582 169.69 74.28 169.306C74.5018 168.921 74.5619 168.465 74.447 168.036C74.3321 167.608 74.0517 167.242 73.6675 167.021L69.1709 164.424Z" fill="#09544F"/>
<path d="M91.5164 159.445C91.7713 159.592 92.0605 159.67 92.3548 159.669C92.6491 159.669 92.9379 159.59 93.1922 159.442L154.551 123.785C154.805 123.638 155.015 123.427 155.162 123.172C155.308 122.918 155.385 122.63 155.384 122.337C155.384 122.044 155.307 121.756 155.16 121.502C155.013 121.248 154.802 121.037 154.548 120.891L122.422 102.343C122.168 102.195 121.878 102.118 121.584 102.118C121.29 102.119 121.001 102.197 120.746 102.346L59.3872 138.003C59.1335 138.15 58.9231 138.361 58.7769 138.616C58.6307 138.87 58.5539 139.158 58.5542 139.451C58.5545 139.744 58.632 140.032 58.7788 140.286C58.9256 140.54 59.1365 140.751 59.3905 140.897L91.5164 159.445ZM121.589 105.724L150.375 122.344L92.3494 156.064L63.5637 139.444L121.589 105.724Z" fill="#09544F"/>
<path d="M117.21 125.91C120.683 127.915 126.066 127.883 129.463 125.908C133.493 123.566 133.456 119.211 129.426 116.886C125.981 114.895 120.598 114.9 117.173 116.887C113.159 119.22 113.164 123.575 117.21 125.91ZM118.853 119.78C121.252 118.387 125.327 118.38 127.753 119.783C129.534 120.809 129.585 121.971 127.783 123.016C125.424 124.389 121.264 124.388 118.883 123.012C117.092 121.98 117.064 120.821 118.853 119.78Z" fill="#09544F"/>
<path d="M96.7284 135.888C93.2821 133.902 87.9018 133.898 84.4719 135.891C80.469 138.219 80.4606 142.574 84.5111 144.913C87.9585 146.9 93.335 146.904 96.7676 144.91C100.778 142.581 100.771 138.226 96.7284 135.888ZM95.0869 142.018C92.7251 143.393 88.565 143.391 86.1836 142.016C84.4183 140.999 84.3425 139.837 86.1526 138.782C88.5692 137.38 92.6463 137.395 95.0558 138.785C96.8382 139.814 96.8808 140.974 95.0869 142.018Z" fill="#09544F"/>
<path d="M95.2599 126.47L96.6864 127.111C95.6233 129.194 96.662 131.197 98.6213 132.334C101.235 133.853 105.189 133.854 107.815 132.337C109.369 131.435 112.088 131.435 113.638 132.334C114.522 132.848 114.627 133.212 113.627 133.787C112.062 134.689 109.333 134.689 107.784 133.791C107.594 133.68 107.385 133.608 107.167 133.579C106.949 133.549 106.728 133.563 106.516 133.619C106.303 133.676 106.104 133.773 105.93 133.906C105.755 134.04 105.608 134.206 105.498 134.396C105.388 134.586 105.316 134.796 105.287 135.013C105.257 135.231 105.271 135.452 105.328 135.665C105.384 135.877 105.482 136.076 105.615 136.25C105.749 136.425 105.915 136.571 106.105 136.682C108.28 137.946 111.405 138.276 114.369 137.049L117.307 138.369C117.711 138.551 118.171 138.565 118.586 138.407C119.001 138.25 119.336 137.934 119.518 137.529C119.7 137.125 119.714 136.664 119.556 136.25C119.399 135.835 119.083 135.5 118.678 135.318L117.261 134.681C118.332 132.595 117.289 130.587 115.319 129.443C112.753 127.95 108.722 127.95 106.143 129.439C104.578 130.341 101.847 130.341 100.302 129.443C99.3445 128.886 99.4095 128.519 100.331 127.987C101.885 127.086 104.606 127.086 106.153 127.984C106.536 128.207 106.992 128.269 107.421 128.156C107.85 128.042 108.216 127.763 108.439 127.38C108.662 126.996 108.724 126.54 108.611 126.111C108.497 125.683 108.218 125.316 107.835 125.093C105.538 123.759 102.119 123.684 99.5664 124.738L96.6286 123.419C96.224 123.237 95.7639 123.224 95.3495 123.382C94.935 123.54 94.6002 123.856 94.4187 124.26C94.2372 124.665 94.2238 125.125 94.3816 125.539C94.5393 125.954 94.8553 126.289 95.2599 126.47Z" fill="#09544F"/>
</svg>
