<svg width="600" height="356" viewBox="0 0 600 356" fill="none" xmlns="http://www.w3.org/2000/svg">
<path fill-rule="evenodd" clip-rule="evenodd" d="M115.298 280.493C123.631 280.493 129.595 274.629 129.595 266.247C129.595 257.864 123.631 252 115.298 252C106.964 252 101 257.864 101 266.247C101 274.629 106.964 280.493 115.298 280.493ZM115.298 274.511C110.953 274.511 107.714 271.245 107.714 266.247C107.714 261.248 110.953 257.982 115.298 257.982C119.642 257.982 122.881 261.248 122.881 266.247C122.881 271.245 119.642 274.511 115.298 274.511ZM139.713 280.021V270.339H149.192L149.943 264.751H139.713V258.297H153.616L152.628 252.472H133.157V280.021H139.713ZM163.935 270.339V280.021H157.379V252.472H176.851L177.838 258.297H163.935V264.751H174.165L173.414 270.339H163.935ZM188.157 252.472H181.601V280.021H188.157V252.472ZM218.101 274.944C215.533 278.329 211.426 280.493 206.331 280.493C199.38 280.493 191.717 276.243 191.717 266.247C191.717 256.25 199.38 252 206.331 252C211.149 252 215.494 254.007 218.14 257.195L214.27 262.665C212.058 259.635 209.688 257.982 206.37 257.982C202.46 257.982 198.432 260.973 198.432 266.247C198.432 271.52 202.342 274.511 206.331 274.511C209.728 274.511 212.216 272.819 214.546 269.749L218.101 274.944ZM228.348 252.472H221.791V280.021H228.348V252.472ZM241.426 252.472H249.562L259.555 280.021H252.367L250.589 274.668H240.399L238.622 280.021H231.434L241.426 252.472ZM248.614 268.844L245.494 259.477L242.374 268.844H248.614ZM281.556 280.021L282.543 274.196H269.194V252.472H262.637V280.021H281.556ZM301.091 271.363V280.021H294.535V252.472H306.068C312.94 252.472 316.534 256.486 316.534 261.917C316.534 267.348 312.94 271.363 306.068 271.363H301.091ZM305.673 258.297H301.091V265.538H305.673C308.003 265.538 309.82 264.436 309.82 261.917C309.82 259.399 308.003 258.297 305.673 258.297ZM327.049 280.021V270.89H329.932L336.568 280.021H344.111L336.805 270.143C340.399 268.726 342.492 265.971 342.492 261.681C342.492 256.132 339.174 252.472 332.658 252.472H320.493V280.021H327.049ZM327.049 258.297H332.026C334.395 258.297 335.778 259.517 335.778 261.681C335.778 263.846 334.395 265.066 332.026 265.066H327.049V258.297ZM346.991 252.472H353.547V280.021H346.991V252.472ZM364.769 280.021V262.429L374.09 280.021H382.424V252.472H375.946V270.969L366.309 252.472H358.292V280.021H364.769ZM412.379 274.944C409.812 278.329 405.705 280.493 400.61 280.493C393.658 280.493 385.996 276.243 385.996 266.247C385.996 256.25 393.658 252 400.61 252C405.428 252 409.773 254.007 412.419 257.195L408.548 262.665C406.336 259.635 403.967 257.982 400.649 257.982C396.739 257.982 392.71 260.973 392.71 266.247C392.71 271.52 396.62 274.511 400.61 274.511C404.006 274.511 406.494 272.819 408.825 269.749L412.379 274.944ZM422.626 252.472H416.07V280.021H422.626V252.472ZM433.928 271.363V280.021H427.371V252.472H438.904C445.776 252.472 449.37 256.486 449.37 261.917C449.37 267.348 445.776 271.363 438.904 271.363H433.928ZM438.509 258.297H433.928V265.538H438.509C440.839 265.538 442.656 264.436 442.656 261.917C442.656 259.399 440.839 258.297 438.509 258.297ZM466.019 252.472H457.883L447.89 280.021H455.079L456.856 274.668H467.046L468.823 280.021H476.011L466.019 252.472ZM461.951 259.477L465.071 268.844H458.831L461.951 259.477ZM499 274.196L498.013 280.021H479.094V252.472H485.65V274.196H499ZM216.199 324V315.342H221.175C228.048 315.342 231.642 311.328 231.642 305.897C231.642 300.466 228.048 296.451 221.175 296.451H209.643V324H216.199ZM216.199 302.276H220.78C223.111 302.276 224.928 303.378 224.928 305.897C224.928 308.415 223.111 309.517 220.78 309.517H216.199V302.276ZM258.283 324L248.29 296.451H240.154L230.162 324H237.35L239.127 318.648H249.317L251.095 324H258.283ZM244.222 303.457L247.342 312.823H241.102L244.222 303.457ZM267.922 314.87V324H261.365V296.451H273.53C280.047 296.451 283.365 300.112 283.365 305.661C283.365 309.95 281.271 312.705 277.677 314.122L284.984 324H277.44L270.805 314.87H267.922ZM272.898 302.276H267.922V309.045H272.898C275.268 309.045 276.65 307.825 276.65 305.661C276.65 303.496 275.268 302.276 272.898 302.276ZM301.31 324V302.276H310.394L309.407 296.451H286.657L285.67 302.276H294.754V324H301.31ZM320.183 306.408V324H313.705V296.451H321.723L331.36 314.948V296.451H337.837V324H329.504L320.183 306.408ZM362.105 324L363.093 318.175H349.151V312.744H357.287L358.037 307.156H349.151V302.276H362.461L361.474 296.451H342.594V324H362.105ZM373.296 314.87V324H366.74V296.451H378.904C385.421 296.451 388.739 300.112 388.739 305.661C388.739 309.95 386.645 312.705 383.051 314.122L390.358 324H382.814L376.179 314.87H373.296ZM378.272 302.276H373.296V309.045H378.272C380.642 309.045 382.024 307.825 382.024 305.661C382.024 303.496 380.642 302.276 378.272 302.276Z" fill="white"/>
<path d="M300 180C317.802 180 335.204 174.721 350.005 164.83C364.806 154.939 376.342 140.881 383.153 124.433C389.963 107.986 391.744 89.8877 388.268 72.4285C384.792 54.9692 376.217 38.9328 363.627 26.3475C351.036 13.7622 334.996 5.19346 317.536 1.72492C300.075 -1.74363 281.978 0.0438807 265.533 6.86136C249.088 13.6788 235.035 25.22 225.15 40.0253C215.265 54.8305 209.993 72.2347 210 90.0365C210 101.854 212.328 113.555 216.852 124.472C221.375 135.39 228.005 145.309 236.363 153.663C244.72 162.018 254.642 168.643 265.561 173.162C276.48 177.681 288.183 180.005 300 180" fill="white"/>
<path d="M300 176.787C317.166 176.787 333.947 171.696 348.22 162.158C362.493 152.62 373.617 139.064 380.184 123.203C386.752 107.343 388.468 89.8912 385.117 73.0552C381.765 56.2192 373.496 40.7553 361.355 28.6193C349.214 16.4834 333.746 8.22064 316.909 4.87607C300.071 1.5315 282.62 3.25538 266.763 9.82968C250.905 16.404 237.353 27.5334 227.821 41.8102C218.29 56.0871 213.206 72.87 213.213 90.0364C213.213 101.432 215.458 112.715 219.82 123.243C224.182 133.77 230.575 143.335 238.634 151.391C246.694 159.447 256.261 165.836 266.791 170.194C277.32 174.551 288.605 176.792 300 176.787" fill="#164194"/>
<path d="M299.999 171.201C316.054 171.172 331.741 166.385 345.076 157.443C358.411 148.501 368.796 135.807 374.918 120.965C381.041 106.123 382.626 89.799 379.473 74.0562C376.321 58.3135 368.572 43.8586 357.206 32.5185C345.841 21.1785 331.368 13.4622 315.619 10.345C299.869 7.2278 283.548 8.84956 268.72 15.0053C253.892 21.1611 241.221 31.5745 232.309 44.9295C223.398 58.2846 218.645 73.9817 218.652 90.037C218.652 100.711 220.758 111.28 224.848 121.139C228.938 130.999 234.933 139.954 242.489 147.493C250.045 155.033 259.015 161.007 268.883 165.076C278.751 169.144 289.325 171.225 299.999 171.201" fill="white"/>
<path d="M220.697 90.0366C220.692 79.6211 222.74 69.3068 226.724 59.6833C230.708 50.0597 236.549 41.3156 243.914 33.9508C251.278 26.5859 260.023 20.7447 269.646 16.7611C279.27 12.7775 289.584 10.7296 299.999 10.7344V10.7344C310.415 10.7296 320.729 12.7775 330.353 16.7611C339.976 20.7447 348.72 26.5859 356.085 33.9508C363.45 41.3156 369.291 50.0597 373.275 59.6833C377.259 69.3068 379.306 79.6211 379.302 90.0366V90.0366C379.302 100.449 377.25 110.759 373.264 120.379C369.279 129.998 363.437 138.738 356.072 146.099C348.708 153.46 339.966 159.298 330.344 163.279C320.723 167.26 310.412 169.307 299.999 169.302V169.302V168.353C310.286 168.363 320.474 166.343 329.978 162.409C339.483 158.474 348.117 152.702 355.387 145.424V145.424C362.665 138.155 368.437 129.52 372.372 120.016C376.306 110.511 378.326 100.323 378.316 90.0366V90.0366C378.332 79.7489 376.315 69.5595 372.38 60.0542C368.445 50.5488 362.67 41.915 355.387 34.6492V34.6492C348.124 27.3595 339.492 21.5777 329.986 17.6364C320.481 13.6951 310.29 11.672 299.999 11.6837V11.6837C289.708 11.666 279.516 13.6863 270.009 17.628C260.503 21.5696 251.871 27.3546 244.612 34.6492V34.6492C237.317 41.9084 231.532 50.5401 227.591 60.0464C223.649 69.5528 221.629 79.7455 221.647 90.0366V90.0366C221.635 100.327 223.658 110.518 227.599 120.023C231.541 129.529 237.322 138.161 244.612 145.424V145.424C251.878 152.707 260.512 158.482 270.017 162.417C279.522 166.352 289.712 168.369 299.999 168.353V168.353V169.302C289.587 169.307 279.276 167.26 269.655 163.279C260.033 159.298 251.291 153.46 243.927 146.099C236.562 138.738 230.72 129.998 226.735 120.379C222.749 110.759 220.697 100.449 220.697 90.0366V90.0366Z" fill="#164194"/>
<path d="M299.999 146.337C311.135 146.337 322.02 143.035 331.278 136.848C340.537 130.662 347.753 121.869 352.014 111.582C356.275 101.294 357.39 89.9741 355.218 79.0529C353.045 68.1317 347.683 58.1 339.81 50.2263C331.936 42.3526 321.904 36.9905 310.983 34.8181C300.062 32.6458 288.742 33.7607 278.454 38.022C268.167 42.2832 259.374 49.4993 253.188 58.7578C247.001 68.0163 243.699 78.9014 243.699 90.0365C243.699 104.968 249.631 119.288 260.189 129.847C265.417 135.075 271.624 139.222 278.454 142.051C285.285 144.88 292.606 146.337 299.999 146.337" fill="white"/>
<path d="M298.503 37.8623C297.335 44.2152 289.667 44.2152 285.432 47.6108C283.167 49.4093 281.625 51.9622 281.087 54.8035C277.071 52.7589 273.164 49.7284 269.002 48.0854C277.448 41.5565 287.827 38.0241 298.503 38.0449" fill="#164194"/>
<path d="M330.012 47.1361L319.862 53.8177C318.694 46.5154 310.661 44.4343 305.258 42.1706C304.162 41.0023 302.519 39.5053 303.14 37.8623C312.851 38.2886 322.232 41.5088 330.158 47.1361" fill="#164194"/>
<path d="M303.652 43.8503C308.837 46.6252 317.015 47.5014 318.256 55.0592C318.001 55.826 317.052 56.1546 316.577 56.5562C316.102 46.7712 304.601 48.6698 300.914 41.258C297.043 48.7428 284.666 47.3189 284.812 57.6515C283.972 57.2499 282.366 56.3006 283.242 54.8037C285.36 46.5521 295.218 47.0998 299.964 41.4041L300.658 38.4102C301.007 40.5117 302.063 42.4311 303.652 43.8503" fill="#164194"/>
<path d="M300.951 47.0624C300.951 47.2815 300.951 47.6831 300.951 47.8291C300.951 47.9752 300.549 47.537 300.293 47.4275C300.037 47.318 300.951 46.2592 301.097 47.0624" fill="#164194"/>
<path d="M302.992 48.9247C302.992 49.2533 302.992 49.5089 302.702 49.7279H302.629V48.5596C302.956 48.5596 303.028 48.7786 303.173 48.9247" fill="#164194"/>
<path d="M298.975 48.9253C298.975 49.1809 298.975 49.5825 298.975 49.7286H298.576V48.7793C298.576 48.7793 299.048 48.7793 299.121 48.7793" fill="#164194"/>
<path d="M263.525 61.6309C258.559 64.4788 257.172 72.3287 250.855 71.6715C253.71 63.8533 258.51 56.8917 264.803 51.4443C263.338 54.6273 262.892 58.1848 263.525 61.6309" fill="#164194"/>
<path d="M301.496 57.4692H299.232L300.802 51.7734C300.747 53.696 300.981 55.616 301.496 57.4692" fill="#164194"/>
<path d="M348.413 70.5398C342.973 70.1382 341.111 63.5297 336.328 61.0834C337.148 58.5153 337.409 55.8015 337.095 53.124C342.174 57.9677 346.05 63.9317 348.413 70.5398" fill="#164194"/>
<path d="M349.18 72.1824V72.438C341.622 77.5496 349.509 89.0506 341.33 93.7971C338.815 95.1416 335.943 95.6651 333.115 95.294C333.59 93.4684 336.511 94.1987 338.081 93.2494C347.537 90.4015 342.791 79.1196 347.464 73.0587C342.791 71.8904 339.14 67.8376 335.488 64.8802L335.708 63.5293C340.052 66.5962 343.302 72.7666 349.107 72.1824" fill="#164194"/>
<path d="M265.022 64.6251C261.371 68.6413 257.72 73.0591 252.718 74.0815C253.265 75.5784 254.616 76.7468 255.164 78.2802C256.807 84.6697 256.989 93.4689 265.168 95.2944C266.336 95.7691 267.943 95.0389 268.819 96.2437C266.962 96.6716 265.027 96.6357 263.187 96.139C261.347 95.6423 259.657 94.7002 258.267 93.3958C252.608 87.8827 258.267 77.3309 249.906 73.3877C256.77 74.8847 259.436 66.6697 264.255 63.6758L265.058 64.6251H265.022Z" fill="#164194"/>
<path d="M337.824 72.5844C337.824 72.84 337.824 73.2051 337.824 73.3876H337.57V72.1828C337.626 72.1681 337.684 72.1682 337.739 72.1832C337.794 72.1982 337.844 72.2275 337.885 72.2681C337.925 72.3088 337.954 72.3594 337.969 72.4149C337.984 72.4704 337.984 72.5288 337.97 72.5844" fill="#164194"/>
<path d="M264.073 73.3877C264.073 73.3877 264.073 73.6067 264.073 73.6798C264.073 73.7528 263.488 73.6798 263.269 73.3877C263.013 72.5114 264.438 72.5114 264.219 73.3877" fill="#164194"/>
<path d="M336.111 75.0306C336.111 75.0306 335.855 75.5053 335.563 75.4322C335.451 75.3907 335.354 75.316 335.286 75.2181C335.218 75.1202 335.182 75.0038 335.182 74.8846C335.182 74.7653 335.218 74.6489 335.286 74.551C335.354 74.4531 335.451 74.3784 335.563 74.3369C336.038 74.3369 335.965 74.775 336.111 75.0306Z" fill="#164194"/>
<path d="M339.871 74.3366C339.871 74.6287 339.871 75.0303 339.871 75.2494C339.871 75.4684 339.469 74.9573 339.323 74.8843C339.177 74.8112 339.323 74.154 340.017 74.3366" fill="#164194"/>
<path d="M266.118 75.2492C266.118 75.2492 265.899 75.6508 265.57 75.5778L265.168 75.2492L265.789 74.4824C266.045 74.7015 266.045 74.9571 266.118 75.2492" fill="#164194"/>
<path d="M337.095 126.949L333.444 130.272C332.422 122.568 341.403 117.675 339.249 109.314C338.408 107.113 337.092 105.124 335.394 103.49C333.696 101.855 331.659 100.615 329.428 99.8578C329.428 94.4177 335.306 98.3609 338.154 97.1925C339.968 96.9092 341.688 96.1942 343.168 95.1077C344.649 94.0213 345.847 92.595 346.661 90.9491C349.655 85.8375 345.456 78.9735 349.874 74.373C352.766 83.4718 353.096 93.1911 350.829 102.465C348.562 111.739 343.785 120.21 337.022 126.949" fill="#164194"/>
<path d="M262.173 75.2499C262.173 75.5785 262.173 75.761 261.773 75.9801V74.8848C261.991 74.8848 262.173 75.1038 262.318 75.2499" fill="#164194"/>
<path d="M255.165 92.4467C256.095 94.0451 257.36 95.4239 258.872 96.4888C260.385 97.5537 262.109 98.2797 263.928 98.617C266.246 98.6681 268.565 98.5461 270.865 98.2519L271.485 99.7489C269.265 100.449 267.235 101.65 265.552 103.257C263.868 104.865 262.575 106.837 261.773 109.023C259.802 117.238 267.214 122.495 268.637 129.834L268.053 131.696C260.141 125.654 254.112 117.483 250.672 108.14C247.232 98.7975 246.524 88.6683 248.629 78.9375L249.688 75.542C256.443 78.3899 251.623 87.4446 254.982 92.5562" fill="#164194"/>
<path d="M339.139 84.4871C338.044 84.0855 337.788 85.4364 337.387 85.984C337.168 85.5094 337.168 84.8887 336.693 84.4871L335.488 84.7427L337.752 77.4404C337.918 79.8381 338.384 82.2055 339.139 84.4871" fill="#164194"/>
<path d="M265.79 84.8886C264.768 84.6695 264.366 85.5093 264.074 86.2395V86.6046C263.818 85.8379 263.198 84.1584 262.029 85.0346C262.836 82.6373 263.518 80.2 264.074 77.7324C264.114 80.1681 264.701 82.5636 265.79 84.7426" fill="#164194"/>
<path d="M272.435 102.706V103.4C269.258 104.897 265.571 107.672 265.571 111.542C265.096 118.844 271.96 122.714 271.23 129.798C272.325 130.674 273.348 129.104 274.626 129.25C278.788 128.958 290.617 130.199 293.392 126.804C294.086 126.804 294.561 127.059 295.108 127.388C294.485 128.539 293.585 129.516 292.488 130.23C291.391 130.945 290.133 131.373 288.828 131.477C282.366 132.098 274.954 126.658 269.733 132.572C273.676 123.372 260.131 117.384 264.621 107.599C265.354 106.119 266.379 104.803 267.634 103.73C268.889 102.657 270.348 101.849 271.924 101.355L272.325 102.56L272.435 102.706Z" fill="#164194"/>
<path d="M337.279 110.41C338.228 118.552 328.772 122.933 331.364 131.075C323.404 126.511 313.108 137.464 306.244 128.008C306.244 127.351 306.938 126.876 307.412 126.657C308.836 127.059 309.311 128.373 310.552 129.176C316.723 133.594 323.258 127.826 329.867 129.505C330.268 128.702 329.867 127.132 330.268 126.109C332.788 120.341 339.031 113.038 333.116 106.795C331.565 105.46 329.766 104.443 327.822 103.801C327.275 102.925 328.151 102.304 328.37 101.501C332.021 102.852 336.877 106.101 337.279 110.41" fill="#164194"/>
<path d="M322.309 111.906C321.834 112.162 321.834 111.614 321.615 111.359C321.396 111.103 321.834 110.592 322.309 110.811V111.906V111.906Z" fill="#164194"/>
<path d="M280.139 111.359C280.139 111.615 280.139 112.016 280.139 112.162C280.139 112.308 279.737 111.834 279.518 111.761C279.116 111.067 280.285 110.665 280.285 111.359" fill="#164194"/>
<path d="M324.532 113.66C324.314 113.66 324.241 113.66 324.132 113.66C324.023 113.66 323.697 112.564 324.132 112.564C324.568 112.564 324.132 113.185 324.35 113.514" fill="#164194"/>
<path d="M282.181 113.404C282.225 113.461 282.249 113.532 282.249 113.604C282.249 113.677 282.225 113.748 282.181 113.805H281.781V112.856C282.326 112.637 282.181 113.258 282.326 113.404" fill="#164194"/>
<path d="M278.239 113.403C278.239 113.732 278.239 114.061 278.239 114.207C278.239 114.353 277.837 113.988 277.618 113.805C277.399 113.622 278.385 112.637 278.385 113.403" fill="#164194"/>
<path d="M320.406 114.061H319.861V113.111H320.406V114.061Z" fill="#164194"/>
<path d="M281.49 123.116C280.686 122.568 279.847 123.882 279.737 124.467C279.716 124.25 279.65 124.04 279.542 123.851C279.434 123.662 279.287 123.498 279.111 123.371C278.935 123.243 278.734 123.154 278.52 123.11C278.307 123.066 278.087 123.068 277.875 123.116C278.892 120.885 279.605 118.527 279.993 116.105C280.266 118.485 280.767 120.832 281.49 123.116" fill="#164194"/>
<path d="M323.806 123.261C323.806 122.933 323.331 123.261 323.112 123.261L322.163 124.758C322.076 124.181 321.792 123.652 321.359 123.261H320.41L322.309 115.959C322.683 118.417 323.183 120.854 323.806 123.261" fill="#164194"/>
<path d="M314.971 134.069C320.192 134.361 324.829 130.71 329.867 133.046C322.268 138.247 313.454 141.394 304.279 142.181C295.105 142.968 285.883 141.368 277.51 137.537L271.449 133.886C272.12 133.159 272.941 132.587 273.855 132.209C274.769 131.83 275.755 131.655 276.743 131.695C283.206 132.718 292.662 136.04 297.153 128.884C298.281 129.327 299.492 129.52 300.702 129.451C301.912 129.382 303.093 129.051 304.163 128.482C305.358 130.268 306.995 131.715 308.914 132.681C310.833 133.647 312.97 134.1 315.117 133.996" fill="#164194"/>
<path d="M345.238 103.655C341.858 103.974 338.482 103.01 335.781 100.953C335.781 99.9307 336.658 99.5291 337.424 99.4561C340.442 99.8902 343.21 101.377 345.238 103.655Z" fill="white"/>
<path d="M263.671 101.355C263.671 103.327 261.554 103.546 260.276 104.203C258.612 104.655 256.886 104.84 255.164 104.751C256.131 103.526 257.362 102.535 258.766 101.852C260.169 101.17 261.709 100.813 263.27 100.808L263.671 101.355Z" fill="white"/>
<path d="M302.628 131.076C302.599 133.45 302.142 135.801 301.277 138.013C300.657 135.639 298.539 131.952 300.985 129.725C301.369 129.738 301.738 129.878 302.035 130.122C302.332 130.366 302.54 130.701 302.628 131.076" fill="white"/>
<path d="M236.909 108.292C237.054 108.936 237.327 109.545 237.712 110.081L235.521 109.351C235.235 109.273 234.976 109.114 234.775 108.895C234.575 108.675 234.441 108.403 234.39 108.11L233.258 102.816L230.008 103.582C229.525 103.631 229.068 103.824 228.697 104.137C228.325 104.45 228.057 104.867 227.927 105.335L226.576 99.6026C227.124 100.333 227.964 100.479 229.205 100.187L238.26 98.0692C239.501 97.7771 240.158 97.2659 240.341 96.3896L243.262 109.57C243.06 109.503 242.843 109.503 242.641 109.57C242.385 109.57 241.509 110.227 239.866 111.104C240.379 109.376 240.379 107.537 239.866 105.81L238.88 101.611L235.448 102.268L236.909 108.292Z" fill="#164194"/>
<path d="M242.678 123.955C243.254 123.743 243.775 123.406 244.205 122.968C244.635 122.53 244.963 122.003 245.165 121.424C245.367 120.845 245.439 120.228 245.375 119.618C245.312 119.008 245.114 118.419 244.796 117.895C244.538 117.275 244.145 116.721 243.647 116.272C243.148 115.822 242.556 115.49 241.913 115.297C241.27 115.105 240.592 115.058 239.929 115.16C239.266 115.262 238.633 115.51 238.078 115.886C237.51 116.102 236.996 116.441 236.574 116.879C236.152 117.316 235.832 117.842 235.637 118.417C235.441 118.993 235.375 119.604 235.444 120.208C235.513 120.812 235.714 121.394 236.033 121.911C236.284 122.527 236.669 123.079 237.16 123.529C237.651 123.978 238.235 124.312 238.871 124.508C239.507 124.704 240.178 124.756 240.837 124.66C241.495 124.564 242.124 124.324 242.678 123.955V123.955ZM233.806 123.262C233.214 122.405 232.812 121.431 232.627 120.405C232.443 119.38 232.48 118.327 232.735 117.317C232.991 116.308 233.46 115.364 234.111 114.551C234.762 113.737 235.579 113.072 236.508 112.6C237.437 112.076 238.471 111.762 239.535 111.68C240.599 111.598 241.669 111.75 242.668 112.126C243.667 112.502 244.571 113.092 245.317 113.856C246.063 114.619 246.633 115.536 246.986 116.544C247.596 117.409 248.009 118.395 248.2 119.436C248.39 120.476 248.352 121.546 248.088 122.57C247.824 123.595 247.34 124.549 246.671 125.368C246.002 126.188 245.163 126.852 244.212 127.314C243.279 127.817 242.249 128.111 241.191 128.175C240.134 128.239 239.076 128.073 238.089 127.687C237.103 127.302 236.212 126.706 235.479 125.942C234.745 125.178 234.187 124.263 233.842 123.262H233.806Z" fill="#164194"/>
<path d="M253.741 137.83C254.236 137.476 254.647 137.017 254.944 136.486C255.24 135.955 255.416 135.364 255.458 134.757C255.5 134.15 255.407 133.541 255.186 132.974C254.965 132.407 254.621 131.896 254.179 131.477C253.775 130.941 253.256 130.503 252.66 130.196C252.064 129.889 251.406 129.72 250.736 129.702C250.065 129.685 249.4 129.819 248.788 130.095C248.177 130.37 247.636 130.781 247.205 131.295C246.707 131.647 246.294 132.107 245.996 132.64C245.698 133.173 245.524 133.766 245.485 134.375C245.447 134.984 245.545 135.594 245.773 136.161C246.001 136.727 246.353 137.235 246.803 137.648C247.208 138.173 247.725 138.603 248.316 138.906C248.906 139.208 249.557 139.376 250.22 139.397C250.884 139.418 251.543 139.291 252.152 139.027C252.761 138.762 253.303 138.366 253.741 137.867V137.83ZM244.978 139.51C241.327 135.566 241.509 131.477 244.795 128.556C245.555 127.802 246.472 127.223 247.48 126.863C248.488 126.502 249.563 126.367 250.63 126.468C251.696 126.569 252.726 126.903 253.649 127.447C254.572 127.991 255.363 128.731 255.968 129.615C256.745 130.3 257.367 131.143 257.793 132.087C258.22 133.032 258.44 134.056 258.44 135.092C258.44 136.128 258.22 137.152 257.793 138.096C257.367 139.04 256.745 139.883 255.968 140.568C255.203 141.279 254.294 141.817 253.303 142.146C252.313 142.475 251.263 142.589 250.225 142.478C249.187 142.367 248.185 142.035 247.286 141.504C246.387 140.973 245.612 140.256 245.014 139.4L244.978 139.51Z" fill="#164194"/>
<path d="M258.596 148.856L258.997 148.199L264.146 140.532L263.561 140.13C262.126 139.033 260.398 138.386 258.596 138.268C259.983 137.063 260.86 136.479 261.006 136.223C261.068 136.021 261.068 135.805 261.006 135.603L272.58 143.343C272.373 143.403 272.192 143.532 272.068 143.708C272.068 143.927 271.703 144.949 271.119 146.738C270.307 145.11 269.038 143.752 267.468 142.832L267.03 142.43L261.882 150.097C261.578 150.486 261.389 150.952 261.337 151.443C261.286 151.934 261.373 152.429 261.59 152.872L256.697 149.732C257.053 149.783 257.416 149.738 257.749 149.604C258.083 149.469 258.375 149.249 258.596 148.966V148.856Z" fill="#164194"/>
<path d="M279.042 151.74C280.867 152.361 281.89 152.179 282.291 151.01C282.693 149.842 281.963 149.221 280.393 148.674L276.742 147.469L275.683 150.609L279.005 151.74H279.042ZM278.056 157.801C279.918 158.422 281.086 158.13 281.488 156.925C281.89 155.72 281.086 154.917 279.188 154.296L274.953 152.836L273.784 156.487L278.056 157.947V157.801ZM270.535 155.136L273.419 146.446C273.821 145.241 273.784 144.365 273.09 143.708L280.393 146.264C284.591 147.688 286.6 149.112 285.723 151.74C285.487 152.41 285.028 152.978 284.424 153.35C283.819 153.722 283.105 153.876 282.401 153.785C284.665 154.88 285.395 156.268 284.774 158.13C283.788 160.978 281.123 161.416 276.559 159.846L268.6 157.035C269.549 157.035 270.097 156.341 270.535 155.099V155.136Z" fill="#164194"/>
<path d="M296.677 158.093L294.23 151.266L290.798 157.582L296.677 158.093ZM302.628 163.826H297.37C297.679 163.527 297.862 163.122 297.882 162.694C297.926 162.403 297.926 162.108 297.882 161.817L297.516 160.686L289.411 159.955L289.046 160.613C288.903 160.898 288.816 161.207 288.79 161.525C288.757 162.072 288.941 162.61 289.301 163.022L283.861 161.817C284.583 161.333 285.203 160.713 285.687 159.992L291.675 150.134C291.811 149.948 291.91 149.737 291.967 149.513C291.998 149.344 291.998 149.171 291.967 149.002L297.809 149.513C297.709 149.671 297.635 149.843 297.59 150.024C297.541 150.241 297.541 150.465 297.59 150.681L301.241 161.635C301.578 162.508 302.073 163.313 302.701 164.008L302.628 163.826Z" fill="#164194"/>
<path d="M301.826 149.733L307.667 148.93C307.268 149.208 306.966 149.603 306.802 150.061C306.638 150.52 306.622 151.017 306.755 151.485L308.032 160.686L312.012 160.139C313.971 159.989 315.817 159.163 317.233 157.802C316.873 159.002 316.58 160.22 316.357 161.453C316.423 161.677 316.549 161.88 316.722 162.037L303.761 163.863C304.527 163.388 304.746 162.548 304.6 161.307L303.286 152.106C303.286 150.865 302.665 150.135 301.789 149.879L301.826 149.733Z" fill="#164194"/>
<path d="M313.875 148.309L319.425 146.337C319.094 146.695 318.881 147.147 318.815 147.63C318.75 148.114 318.835 148.605 319.06 149.039L322.2 157.765L325.851 156.414C327.763 155.853 329.409 154.622 330.488 152.945C330.417 154.161 330.417 155.381 330.488 156.597C330.488 156.779 330.743 156.889 330.962 157.071L318.621 161.489C318.948 161.134 319.152 160.684 319.205 160.204C319.257 159.725 319.155 159.241 318.914 158.824L315.81 150.061C315.372 148.856 314.788 148.272 313.875 148.199V148.309Z" fill="#164194"/>
<path d="M347.61 146.446C346.733 147.067 345.638 148.454 343.959 149.732C343.221 150.439 342.336 150.975 341.367 151.3C340.398 151.625 339.369 151.733 338.354 151.614C337.339 151.495 336.362 151.154 335.494 150.614C334.627 150.074 333.889 149.349 333.334 148.491C332.688 147.615 332.238 146.61 332.016 145.545C331.794 144.48 331.805 143.379 332.048 142.318C332.29 141.257 332.759 140.261 333.422 139.399C334.085 138.536 334.927 137.826 335.89 137.319C337.861 135.895 339.541 135.383 340.307 134.836C340.529 134.684 340.726 134.499 340.892 134.288L341.877 137.939C340.31 137.947 338.787 138.459 337.533 139.4C336.982 139.729 336.506 140.169 336.134 140.691C335.763 141.214 335.503 141.808 335.373 142.436C335.243 143.064 335.244 143.712 335.377 144.34C335.51 144.967 335.771 145.56 336.145 146.081C336.455 146.657 336.893 147.155 337.426 147.535C337.958 147.915 338.571 148.168 339.216 148.273C339.862 148.379 340.523 148.335 341.149 148.145C341.775 147.955 342.349 147.624 342.827 147.177C344.36 146.012 345.608 144.513 346.478 142.795L348.668 145.899C348.334 146.001 348.014 146.148 347.719 146.337L347.61 146.446Z" fill="#164194"/>
<path d="M340.673 134.179L344.58 129.725C344.46 130.2 344.49 130.701 344.667 131.159C344.844 131.617 345.158 132.009 345.566 132.28L352.54 138.378L355.168 135.384C356.521 133.943 357.311 132.064 357.396 130.09C357.916 131.23 358.501 132.339 359.148 133.412C359.148 133.412 359.513 133.412 359.805 133.412L351.152 143.307C351.408 142.431 351.152 141.627 350.093 140.787L343.12 134.69C342.17 133.85 341.367 133.595 340.527 133.996L340.673 134.179Z" fill="#164194"/>
<path d="M365.173 125.562C362.909 129.652 360.171 130.747 356.885 128.921L351.335 125.854C350.167 125.234 349.291 125.161 348.561 125.854L351.408 120.743C351.408 121.692 351.847 122.313 352.978 122.97L358.455 126C358.855 126.243 359.307 126.389 359.774 126.425C360.24 126.461 360.709 126.388 361.142 126.211C361.576 126.033 361.961 125.756 362.268 125.403C362.575 125.049 362.795 124.629 362.909 124.175C363.196 123.825 363.399 123.413 363.502 122.973C363.604 122.532 363.605 122.073 363.502 121.633C363.4 121.192 363.198 120.78 362.912 120.43C362.625 120.079 362.262 119.799 361.851 119.611L356.374 116.873C355.315 116.288 354.548 116.069 353.636 116.873L356.483 111.725C356.483 112.601 356.922 113.368 358.053 113.988L363.64 117.055C366.926 118.881 367.291 121.765 365.173 125.891V125.562Z" fill="#164194"/>
<path d="M370.138 104.75C370.576 102.815 370.138 101.72 368.933 101.428C367.728 101.136 366.961 102.012 366.523 103.983L365.537 108.328L369.189 109.168L370.211 104.75H370.138ZM364.041 104.385C364.442 102.523 364.041 101.501 362.945 101.245C361.85 100.99 361.193 101.72 360.828 103.363L359.988 107.014L363.237 107.781L364.041 104.349V104.385ZM368.349 112.527L359.404 110.446C358.162 110.154 357.286 110.446 356.738 111.067L358.491 103.399C359.477 99.0544 360.718 96.9003 363.42 97.521C364.105 97.6867 364.713 98.0807 365.144 98.6381C365.576 99.1956 365.805 99.8832 365.793 100.588C366.633 98.2512 367.947 97.3749 369.882 97.8131C372.803 98.5068 373.533 101.099 372.438 105.809L370.503 114.207C370.32 113.294 369.627 112.819 368.349 112.527V112.527Z" fill="#164194"/>
<path d="M227.197 80.3613L228.475 74.5925C228.596 75.0654 228.861 75.4886 229.234 75.8029C229.608 76.1172 230.07 76.3068 230.556 76.3451L239.611 78.3532L240.56 74.4465C241.109 72.533 240.953 70.4864 240.122 68.6777C241.108 69.441 242.145 70.1363 243.226 70.7589C243.44 70.8198 243.668 70.8198 243.883 70.7589L241.072 83.5743C240.852 82.6615 240.195 82.1503 238.954 81.8948L229.899 79.8867C229.451 79.6997 228.956 79.659 228.484 79.7705C228.012 79.882 227.587 80.1399 227.27 80.5074L227.197 80.3613Z" fill="#164194"/>
<path d="M242.35 67.4731L234.098 63.2378C233.701 62.963 233.23 62.8158 232.747 62.8158C232.265 62.8158 231.793 62.963 231.396 63.2378L238.151 50.0938C238.235 50.279 238.375 50.4326 238.553 50.5319C239.576 50.7917 240.612 50.9989 241.656 51.1526C240.153 52.1525 238.963 53.5575 238.224 55.2053L235.668 60.2073L238.589 61.7408L241.437 56.1911C241.732 55.6116 241.906 54.978 241.948 54.329L243.19 56.3006C243.341 56.5547 243.42 56.8448 243.42 57.1404C243.42 57.436 243.341 57.7261 243.19 57.9802L240.67 62.8361L243.847 64.4426L246.549 59.185C247.569 57.4733 247.932 55.449 247.571 53.4893C248.33 54.4734 249.16 55.4008 250.054 56.2641C250.278 56.342 250.523 56.342 250.747 56.2641L243.883 69.6272C243.883 68.7144 243.409 68.0572 242.277 67.4731H242.35Z" fill="#164194"/>
<path d="M245.489 44.5804L252.792 50.2396C253.814 51.0429 254.654 51.2619 255.493 50.8238L251.842 55.4242C252.061 54.5114 251.842 53.7812 250.637 52.978L243.335 47.3187C242.313 46.5155 241.473 46.2964 240.67 46.7346L244.321 42.0977C244.065 43.0104 244.321 43.7772 245.489 44.5804Z" fill="#164194"/>
<path d="M264.511 41.8784C263.744 42.5721 262.795 44.0691 261.152 45.5295C260.504 46.3234 259.689 46.9634 258.764 47.4028C257.838 47.8423 256.827 48.0703 255.803 48.0703C254.778 48.0703 253.767 47.8423 252.842 47.4028C251.917 46.9634 251.101 46.3234 250.454 45.5295C249.717 44.7321 249.159 43.7858 248.818 42.7544C248.478 41.7231 248.363 40.6307 248.48 39.5511C248.598 38.4714 248.946 37.4295 249.5 36.4957C250.055 35.5619 250.803 34.7579 251.695 34.138C253.002 33.0655 254.367 32.066 255.784 31.1441C255.968 30.9583 256.128 30.7497 256.259 30.5234L257.72 33.9555C256.157 34.1855 254.696 34.8713 253.521 35.9271C253.001 36.3337 252.573 36.846 252.265 37.43C251.957 38.014 251.777 38.6566 251.735 39.3155C251.694 39.9743 251.793 40.6345 252.025 41.2524C252.257 41.8704 252.618 42.4322 253.083 42.9007C253.459 43.4341 253.953 43.8741 254.526 44.1869C255.099 44.4998 255.736 44.6771 256.388 44.7053C257.04 44.7335 257.69 44.6119 258.288 44.3497C258.886 44.0875 259.416 43.6917 259.837 43.1928C261.192 41.8658 262.217 40.2403 262.831 38.4464L265.423 41.2577C265.082 41.3699 264.77 41.5571 264.511 41.8054V41.8784Z" fill="#164194"/>
<path d="M265.534 38.1905L261.189 30.012C260.605 28.8801 259.911 28.369 258.998 28.442L272.106 21.5049C272.03 21.7048 272.03 21.9256 272.106 22.1256C272.106 22.3446 273.055 23.0384 274.333 24.3893C272.551 24.3139 270.782 24.7307 269.221 25.5941L264.256 28.2594L265.789 31.1438L271.302 28.2594C271.879 27.95 272.388 27.5279 272.799 27.0181V29.3183C272.787 29.6199 272.692 29.9124 272.525 30.1636C272.357 30.4148 272.124 30.615 271.85 30.7422L267.03 33.298L268.71 36.4379L273.968 33.6631C275.747 32.8216 277.179 31.3894 278.02 29.6104C278.091 30.8372 278.25 32.0573 278.495 33.2615C278.495 33.2615 278.751 33.5536 279.006 33.6996L265.753 40.7097C266.038 40.317 266.191 39.8441 266.191 39.3588C266.191 38.8735 266.038 38.4007 265.753 38.0079L265.534 38.1905Z" fill="#164194"/>
<path d="M285.177 29.9753C287.477 29.3911 288.463 28.5148 288.171 27.31C287.878 26.1051 286.199 26.1781 283.388 26.4702C279.919 26.8353 277.947 25.9956 277.436 23.8779C276.925 21.7603 278.678 18.9854 282.621 18.0361C285.104 17.4155 287.075 17.4155 288.134 17.1599C288.329 17.1051 288.514 17.0187 288.682 16.9043V20.5554C286.858 20.0189 284.919 20.0189 283.096 20.5554C281.416 20.957 280.649 21.6873 280.868 22.5635C281.087 23.4398 282.767 23.3668 285.797 23.2207C288.828 23.0747 291.128 23.7319 291.712 26.1051C292.406 29.0625 290.361 31.3992 285.797 32.4946C283.716 33.0057 282.146 33.0787 281.27 33.2613C281.023 33.3331 280.788 33.444 280.576 33.5899L278.787 29.9388C280.887 30.4483 283.077 30.4483 285.177 29.9388V29.9753Z" fill="#164194"/>
<path d="M296.056 28.7705C296.056 28.7705 296.056 28.4054 296.056 27.9672L295.655 18.7664H294.961C293.154 18.7266 291.376 19.222 289.85 20.1904C290.251 18.3648 290.616 17.379 290.616 17.0869C290.593 16.8814 290.503 16.6891 290.361 16.5393L304.271 15.9551C304.141 16.1234 304.065 16.3269 304.052 16.5393C304.052 16.7948 304.491 17.7806 305.075 19.5332C303.46 18.7256 301.652 18.3843 299.854 18.5474H298.977L299.342 27.7482C299.323 28.2447 299.442 28.7369 299.687 29.1692C299.932 29.6014 300.294 29.9566 300.73 30.1944L294.852 30.4135C295.171 30.251 295.44 30.0063 295.633 29.7046C295.825 29.4029 295.934 29.0552 295.947 28.6975L296.056 28.7705Z" fill="#164194"/>
<path d="M304.93 27.7123L306.609 18.5845C306.865 17.3431 306.609 16.5033 305.879 15.9922L320.483 18.6575C320.332 18.797 320.219 18.973 320.155 19.1687C320.155 19.4607 320.155 20.4831 320.447 22.3451C319.072 21.1766 317.383 20.4399 315.591 20.2275L309.932 19.2052L309.311 22.4547L315.445 23.5865C316.083 23.7183 316.742 23.7183 317.38 23.5865L315.846 25.339C315.647 25.5583 315.394 25.721 315.112 25.8108C314.83 25.9005 314.529 25.9141 314.24 25.8502L308.873 24.8644L308.252 28.5155L314.094 29.5743C316.01 30.0464 318.032 29.8131 319.79 28.9171C319.079 29.947 318.432 31.02 317.854 32.1301C317.795 32.3327 317.795 32.5482 317.854 32.7508L303.25 30.049C304.126 29.8664 304.601 29.1362 304.82 27.8948L304.93 27.7123Z" fill="#164194"/>
<path d="M329.903 29.2462C331.947 30.232 333.006 30.232 333.554 28.8445C334.101 27.4571 333.554 26.6904 331.509 25.7046L328.187 24.2076L326.471 27.8587L329.866 29.5017L329.903 29.2462ZM324.207 35.2705L318.949 32.8973C319.862 32.8973 320.519 32.3496 321.067 31.1813L325.12 22.8932C325.399 22.4983 325.55 22.0263 325.55 21.5423C325.55 21.0583 325.399 20.5863 325.12 20.1914L332.604 23.8425C333.911 24.4117 335.138 25.148 336.255 26.0332C336.874 26.6159 337.281 27.3875 337.413 28.2268C337.545 29.0661 337.395 29.9256 336.986 30.6701C336.48 31.5297 335.678 32.1748 334.73 32.4841C333.781 32.7934 332.753 32.7456 331.838 32.3496C332.557 33.2589 332.978 34.3684 333.043 35.5261C333.043 37.1393 333.392 38.7334 334.065 40.1995L328.625 37.5342C328.78 37.5031 328.925 37.4379 329.052 37.3431C329.178 37.2483 329.282 37.1265 329.355 36.9865C329.693 35.9422 329.693 34.8179 329.355 33.7735C329.227 33.1213 328.945 32.5091 328.532 31.9882C328.119 31.4673 327.588 31.0529 326.982 30.7796L325.485 30.0494L324.243 32.6782C323.955 33.0766 323.8 33.5557 323.8 34.0474C323.8 34.539 323.955 35.0181 324.243 35.4165L324.207 35.2705Z" fill="#164194"/>
<path d="M346.114 51.1519C345.347 50.4217 343.814 49.5819 342.244 48.012C341.417 47.4118 340.733 46.6354 340.243 45.739C339.753 44.8426 339.468 43.8484 339.408 42.8284C339.349 41.8083 339.517 40.7878 339.9 39.8405C340.283 38.8932 340.871 38.0428 341.623 37.3507C342.379 36.5673 343.295 35.9557 344.309 35.5574C345.322 35.1592 346.41 34.9835 347.497 35.0424C348.584 35.1012 349.646 35.3933 350.611 35.8986C351.576 36.404 352.42 37.1109 353.088 37.9714C354.804 39.6509 355.607 41.2574 356.264 41.8781C356.463 42.062 356.684 42.2213 356.921 42.3527L353.562 43.9592C353.267 42.4149 352.502 40.9994 351.372 39.9065C350.936 39.41 350.4 39.0123 349.799 38.7397C349.197 38.4672 348.545 38.3262 347.885 38.3262C347.225 38.3262 346.572 38.4672 345.971 38.7397C345.369 39.0123 344.833 39.41 344.398 39.9065C343.876 40.3052 343.452 40.8189 343.161 41.4079C342.87 41.9968 342.718 42.645 342.718 43.302C342.718 43.9591 342.87 44.6073 343.161 45.1962C343.452 45.7851 343.876 46.2989 344.398 46.6976C345.795 47.9768 347.47 48.9142 349.29 49.4359L346.625 52.1377C346.478 51.8164 346.281 51.5206 346.041 51.2614L346.114 51.1519Z" fill="#164194"/>
<path d="M359.55 50.4589L352.029 55.7165C350.97 56.4468 350.532 57.177 350.714 58.0898L347.355 53.3068C348.159 53.7814 348.962 53.5989 350.057 52.8687L357.579 47.5015C358.637 46.7348 359.076 46.0411 358.893 45.0918L362.252 49.9113C361.449 49.4366 360.609 49.5827 359.55 50.3494V50.4589Z" fill="#164194"/>
<path d="M354.694 61.814L355.387 61.4854L363.748 57.5057L363.42 56.885C362.747 55.2207 361.605 53.7875 360.134 52.7592C361.923 52.3941 362.982 52.3576 363.274 52.2116C363.442 52.1014 363.58 51.9507 363.675 51.7734L369.663 64.3698C369.463 64.2941 369.243 64.2941 369.043 64.3698C368.787 64.3698 368.093 65.2826 366.669 66.4874C366.799 64.6863 366.406 62.8861 365.537 61.3028L365.209 60.6456L356.884 64.6254C356.419 64.7833 356.011 65.0758 355.712 65.4658C355.413 65.8557 355.237 66.3257 355.205 66.816L352.686 61.5219C352.956 61.7596 353.29 61.9137 353.646 61.9655C354.003 62.0174 354.367 61.9647 354.694 61.814V61.814Z" fill="#164194"/>
<path d="M372.183 78.5722C372.548 78.5722 372.731 78.2801 372.914 77.8785L374.082 83.3917C373.036 82.7393 371.937 82.1774 370.796 81.7121L363.494 78.061L361.34 78.4992C360.062 78.7547 359.331 79.3389 359.185 80.2152L357.98 74.4464C358.565 75.2497 359.368 75.3592 360.609 75.1036L362.727 74.6655L368.715 68.276C369.56 67.5604 370.192 66.6255 370.54 65.5742L371.818 71.6351C371.711 71.4904 371.565 71.3793 371.397 71.3147C371.228 71.25 371.045 71.2345 370.869 71.27C370.399 71.3955 369.986 71.6792 369.701 72.0732L366.049 76.0164L371.271 78.2436C371.645 78.4233 372.065 78.4869 372.475 78.4261L372.183 78.5722Z" fill="#164194"/>
<path d="M331.546 66.8515V66.669V66.3404C331.584 64.14 332.055 61.9687 332.934 59.9509C333.415 59.1086 333.697 58.1678 333.761 57.1999C333.824 56.2321 333.666 55.2625 333.299 54.3647C333.288 54.2067 333.288 54.0481 333.299 53.8901C333.087 53.1473 332.806 52.426 332.459 51.7359L332.094 51.1152H331.437C325.063 53.2612 319.446 57.2046 315.262 62.4702L313.254 64.0037C313.271 63.8948 313.271 63.7839 313.254 63.6751C313.153 63.2809 312.952 62.9193 312.671 62.6252C312.389 62.3311 312.037 62.1142 311.648 61.9956C307.845 60.7358 303.861 60.1069 299.855 60.1335C295.502 60.0818 291.187 60.9399 287.185 62.6528L286.345 63.0544L286.601 63.529C281.453 59.1112 271.778 51.1883 269.039 51.1883H268.528L268.309 51.4803C267.935 52.0146 267.651 52.6066 267.469 53.2329L267.25 53.4885C266.337 54.4012 266.082 55.4601 267.25 58.6365C268.209 60.965 268.801 63.4285 269.003 65.9388C269.305 67.8805 269.87 69.7721 270.682 71.5615C270.901 72.4743 272.435 78.8637 273.165 80.4702C273.434 80.9569 273.505 81.529 273.362 82.0667C273.219 82.6043 272.874 83.0658 272.398 83.3546H272.179C271.447 83.7173 270.799 84.2297 270.277 84.8586C269.755 85.4875 269.37 86.219 269.149 87.0057C269.101 87.7558 269.224 88.5071 269.508 89.2028C269.793 89.8985 270.232 90.5205 270.792 91.0219C271.035 91.5049 271.243 92.0052 271.412 92.5189V92.5189C270.938 93.2856 271.412 93.7237 271.887 94.1984L272.143 94.454C272.579 94.8669 273.056 95.2339 273.567 95.5493C274.074 95.8376 274.521 96.222 274.881 96.6811C275.052 96.8826 275.199 97.1031 275.319 97.3383C275.638 97.996 276.147 98.543 276.78 98.9083V99.8576C276.657 101.07 276.919 102.29 277.529 103.345C278.138 104.4 279.064 105.236 280.175 105.736L282.329 106.685C283.644 107.269 283.644 107.269 284.082 108.036C285.039 109.894 286.383 111.525 288.025 112.819C289.168 113.681 290.114 114.776 290.8 116.032L292.187 116.434C292.273 116.347 292.347 116.248 292.406 116.142V116.142C291.955 117.135 291.671 118.196 291.567 119.282C291.567 120.559 292.078 123.48 296.715 124.211L297.956 125.087L299.489 126.401H299.709H300.913L302.009 126.146H302.301L302.483 125.927L303.177 125.05L303.761 124.32C305.007 124.21 306.191 123.727 307.157 122.933V122.933C308.124 121.91 308.804 120.651 309.128 119.282C309.128 119.026 309.128 117.821 308.873 117.127L308.362 115.776C308.519 116.019 308.653 116.276 308.763 116.543L309.274 118.077L310.26 116.835L312.524 114.06L314.715 111.979C315.304 111.379 315.775 110.673 316.102 109.898L316.358 109.351C317.924 107.919 319.667 106.692 321.542 105.699C322.606 105.164 323.477 104.31 324.033 103.256C324.589 102.203 324.803 101.002 324.646 99.8211V99.456L324.536 99.0179C324.796 98.4288 325.004 97.8179 325.157 97.1923C326.85 96.207 328.388 94.9766 329.721 93.5412L330.049 93.1396V92.6649C330.049 92.6649 329.465 91.168 331.108 89.1964C332.751 87.2248 332.897 86.7501 332.605 86.0929C332.54 85.9332 332.436 85.7925 332.302 85.684C332.168 85.5754 332.008 85.5026 331.838 85.4722C330.501 84.6263 329.347 83.5214 328.443 82.2227C328.458 82.0527 328.458 81.8816 328.443 81.7116C327.99 80.2155 328.147 78.601 328.881 77.2207C329.55 76.1894 329.893 74.981 329.867 73.7521C329.843 73.6193 329.843 73.4833 329.867 73.3505C330.349 71.1544 330.946 68.985 331.656 66.8515H331.546Z" fill="#FBBA00"/>
<path d="M305.039 109.57L305.806 111.943L306.171 115.12L304.09 116.69L296.569 116.47L293.684 113.915L294.962 112.819L295.692 109.57C286.273 102.523 282.147 101.793 282.147 101.793C280.366 101.029 278.485 100.525 276.561 100.296C276.438 101.508 276.7 102.728 277.31 103.783C277.919 104.838 278.845 105.675 279.956 106.174L282.11 107.124C283.425 107.708 283.425 107.708 283.863 108.475C284.934 110.196 286.351 111.676 288.025 112.819C289.168 113.681 290.114 114.776 290.8 116.032L292.187 116.434C292.273 116.347 292.347 116.249 292.406 116.142V116.142C291.955 117.135 291.671 118.196 291.567 119.282C291.567 120.56 292.078 123.481 296.715 124.211L297.956 125.087L299.49 126.402H299.709H300.914L302.009 126.146H302.301L302.484 125.927L303.177 125.051L303.761 124.32C305.007 124.211 306.191 123.727 307.157 122.933V122.933C308.124 121.911 308.804 120.651 309.129 119.282C309.129 119.026 309.129 117.821 308.873 117.128L308.362 115.777C308.519 116.019 308.653 116.276 308.763 116.544L309.275 118.077L310.26 116.836L312.524 114.061L314.715 111.98C315.304 111.379 315.775 110.673 316.102 109.898L316.358 109.351C317.925 107.919 319.667 106.693 321.542 105.7C322.599 105.156 323.464 104.3 324.019 103.249C324.574 102.197 324.793 101.001 324.646 99.8214L324.536 98.6165V98.3975L321.907 99.8214C304.966 106.211 305.039 109.57 305.039 109.57Z" fill="white"/>
<path d="M282.803 90.5474C282.803 90.5474 283.314 89.8537 284.592 90.9125C286.513 92.7337 289.03 93.7973 291.675 93.9064C291.675 93.9064 292.296 94.8192 290.214 94.7462C289.332 94.7373 288.453 94.6518 287.586 94.4906C286.141 93.6515 284.845 92.578 283.752 91.3141C283.507 90.9979 283.178 90.7574 282.803 90.6204V90.5474Z" fill="#164194"/>
<path d="M301.9 70.759L300.987 69.9923C300.71 69.2846 300.622 68.5171 300.731 67.7651C302.071 66.4635 303.597 65.3684 305.259 64.5156C304.766 65.4614 304.096 66.3041 303.287 66.9984C302.687 67.388 302.186 67.9133 301.827 68.5319C301.663 69.2652 301.663 70.0257 301.827 70.759H301.9Z" fill="#164194"/>
<path d="M298.977 70.5028C298.977 70.5028 300.109 68.6407 299.525 68.093L295.326 64.7705C295.326 64.7705 295.326 66.5596 296.275 67.1802C297.225 67.8009 297.918 67.7644 297.991 68.2026V68.6407C297.927 68.7713 297.894 68.915 297.894 69.0606C297.894 69.2062 297.927 69.3499 297.991 69.4805C298.32 69.9186 298.831 70.5028 298.831 70.5028H298.977Z" fill="#164194"/>
<path d="M308.324 81.1643C310.226 80.1288 312.203 79.2379 314.239 78.499C315.772 78.1339 314.239 77.7688 313.91 77.6592C313.448 77.6175 312.984 77.6175 312.522 77.6592L311.099 78.2434L310.405 78.6085L309.346 79.4118L308.543 79.7404L308.068 79.9959C308.068 79.9959 307.63 81.6024 308.324 81.2738V81.1643Z" fill="#164194"/>
<path d="M286.09 78.0247C286.09 77.4406 286.674 78.2438 287.112 78.4994C287.55 78.755 289.814 79.4122 289.814 79.4122L290.508 79.8868L291.676 80.7996L291.42 81.3838C291.053 81.3864 290.695 81.2713 290.398 81.0552C290.033 80.6901 288.901 79.9233 288.828 80.1424C288.755 80.3615 288.061 80.1424 287.477 79.7773C287.123 79.6164 286.813 79.3735 286.572 79.0687C286.33 78.764 286.165 78.4061 286.09 78.0247V78.0247Z" fill="#164194"/>
<path d="M281.526 68.9326C281.336 68.5866 281.189 68.2188 281.088 67.8372V67.5086C280.863 66.7342 280.716 65.9391 280.65 65.1354C280.485 63.8216 279.865 62.6071 278.897 61.7033L278.678 61.4478C278.586 61.2759 278.456 61.1273 278.298 61.0133C278.14 60.8994 277.958 60.8232 277.765 60.7906C277.546 60.7906 277.108 60.7906 276.049 59.6587C274.708 58.4003 273.268 57.2525 271.741 56.2267L269.77 54.8027L270.536 57.0664C270.798 57.8327 271.017 58.6128 271.193 59.4031C271.193 59.6587 271.193 60.1699 271.193 61.0096C271.29 61.6875 271.351 62.37 271.376 63.0543C271.376 63.748 271.851 66.7054 271.96 67.4721V67.7277C272.353 68.5433 272.791 69.3356 273.275 70.1009V70.1009C273.492 70.3515 273.643 70.6529 273.713 70.9772V70.9772C273.415 72.0265 273.479 73.1454 273.895 74.1536C274.333 75.6141 275.137 75.9062 275.721 75.9062C276.129 75.8531 276.522 75.7152 276.874 75.5014C277.226 75.2877 277.53 75.0027 277.765 74.6648L278.605 73.7155L278.861 73.4234C279.299 72.9488 280.139 72.109 280.978 71.3788C281.234 71.2012 281.447 70.9674 281.598 70.6953C281.75 70.4232 281.838 70.12 281.855 69.8088C281.845 69.3526 281.677 68.9138 281.38 68.5674L281.526 68.9326Z" fill="white"/>
<path d="M316.539 89.3429C316.381 89.3932 316.247 89.4981 316.16 89.6387C316.073 89.7792 316.039 89.9463 316.064 90.1097C316.064 90.8034 313.289 93.1036 312.413 93.5052C311.472 93.8118 310.473 93.8992 309.492 93.7608C308.543 93.7608 308.214 95.0387 308.214 95.0387C307.953 95.5304 307.733 96.0434 307.557 96.5721C307.246 98.2189 306.819 99.8416 306.279 101.428C305.904 103.448 306.094 105.533 306.827 107.452C307.185 108.304 307.638 109.113 308.178 109.862C308.43 110.628 308.553 111.43 308.543 112.235L309.164 110.008C309.164 110.008 309.164 109.205 308.945 108.73C308.726 108.256 308.178 107.672 307.959 106.868C307.607 105.671 307.339 104.451 307.156 103.217C307.156 102.633 307.74 99.566 307.849 98.8358C308.205 97.7454 308.437 96.6188 308.543 95.4768V94.9656C310.034 95.096 311.534 94.8501 312.906 94.2505C314.277 93.6509 315.476 92.7167 316.393 91.5336C316.778 90.8054 317.072 90.0329 317.269 89.2334L316.539 89.3429Z" fill="#164194"/>
<path d="M328.478 55.9713C327.45 56.9386 326.296 57.7616 325.046 58.4175C322.673 59.8415 319.934 61.448 319.715 64.807V65.0991V65.3546C320.263 66.1214 319.971 66.7421 319.35 67.8009C318.988 68.324 318.717 68.9041 318.547 69.5169V70.0646L318.985 70.3932C319.622 70.9083 320.209 71.4829 320.738 72.1092C321.219 72.8263 321.838 73.4407 322.559 73.917C323.28 74.3933 324.088 74.722 324.936 74.884H325.411L325.703 74.4824C326.561 73.1541 327.087 71.6389 327.237 70.0646C327.37 68.7697 327.795 67.5216 328.478 66.4135L328.697 66.1214V65.7928C328.577 64.0049 328.788 62.2103 329.318 60.4987C329.663 59.2069 329.895 57.8875 330.011 56.5555V54.2188L328.441 55.9348L328.478 55.9713Z" fill="white"/>
<path d="M292.26 96.2432C292.552 99.8943 295.911 102.669 293.684 106.284C293.939 108.328 292.004 109.351 291.457 111.067C290.58 111.067 290.982 109.643 291.092 109.059C292.151 107.36 292.76 105.419 292.863 103.42C292.965 101.421 292.556 99.4284 291.676 97.6306C291.676 97.0464 291.676 96.3892 292.369 96.2432" fill="#164194"/>
<path d="M327.858 65.7566C326.069 68.2394 326.836 71.6714 325.046 74.1177C322.564 73.8256 321.395 71.1968 319.424 69.6633C319.825 68.0203 321.834 66.5964 320.519 64.6613C320.848 59.9513 326.361 59.1481 329.172 56.0812C328.438 59.259 327.998 62.4979 327.858 65.7566V65.7566ZM329.902 53.781C326.763 56.4828 322.856 57.4321 319.971 60.7181C317.087 63.2373 320.446 67.5091 316.32 69.4807C318.899 72.2838 321.833 74.7386 325.046 76.783C327.493 75.3225 327.566 72.5477 327.712 70.0284C330.195 65.6106 328.953 60.426 330.925 55.716C330.523 55.0588 330.925 53.4889 329.756 53.781H329.902Z" fill="#164194"/>
<path d="M280.722 71.3065C279.813 72.0608 278.959 72.8782 278.166 73.7528C277.829 74.0867 277.512 74.4402 277.217 74.8116C277.217 74.8116 275.501 77.1118 274.661 74.556C273.821 72.0003 274.661 71.8907 274.661 71.197C274.544 70.7182 274.305 70.2779 273.967 69.9191C273.639 69.4445 272.689 67.5824 272.689 67.5824C272.689 67.5824 272.105 63.9313 272.105 63.1646C272.105 62.3978 271.74 59.9151 271.74 59.5134C271.558 58.5974 271.314 57.6948 271.01 56.8116C272.546 57.8265 273.999 58.9619 275.355 60.2072C277.326 62.0692 277.691 61.3755 277.91 61.8502C278.945 62.7525 279.651 63.9723 279.918 65.3187C279.965 66.3162 280.162 67.301 280.503 68.2396C280.656 68.7183 280.852 69.1826 281.087 69.627C281.087 69.627 282 70.4303 280.831 71.3796L280.722 71.3065ZM282 68.2761C281.781 67.6919 281.196 68.2761 281.415 66.5601C281.927 62.909 281.415 64.552 279.553 61.3025C279.035 60.708 278.582 60.0592 278.202 59.3674C278.202 58.9658 277.801 59.1848 277.217 58.8562C276.632 58.5276 276.304 58.3816 275.501 57.907C274.691 57.4148 273.975 56.7845 273.383 56.0449C272.393 55.2447 271.3 54.5815 270.133 54.0733C270.004 53.9696 269.843 53.9131 269.677 53.9131C269.511 53.9131 269.35 53.9696 269.221 54.0733C268.637 54.0733 269.44 56.5195 269.44 56.9942C269.584 58.9806 269.852 60.9561 270.243 62.909C270.624 65.2919 271.21 67.6374 271.996 69.9191C272.543 71.3704 272.863 72.8975 272.945 74.4465C272.962 75.1884 273.169 75.9135 273.546 76.5526C273.924 77.1918 274.458 77.7237 275.099 78.0976C276.489 76.7691 277.978 75.5486 279.553 74.4465C280.519 73.8329 281.321 72.9933 281.89 72.0003C282.584 71.051 282.584 71.051 283.168 70.1382C283.752 69.2254 282.255 69.0794 282 68.4952V68.2761Z" fill="#164194"/>
<path d="M291.676 91.3144C291.676 91.8373 291.468 92.3388 291.098 92.7085C290.728 93.0783 290.227 93.286 289.704 93.286C289.181 93.286 288.68 93.0783 288.31 92.7085C287.94 92.3388 287.732 91.8373 287.732 91.3144C287.732 90.7915 287.94 90.29 288.31 89.9202C288.68 89.5505 289.181 89.3428 289.704 89.3428C290.227 89.3428 290.728 89.5505 291.098 89.9202C291.468 90.29 291.676 90.7915 291.676 91.3144V91.3144Z" fill="#164194"/>
<path d="M289.12 90.5117C289.125 90.5674 289.118 90.6236 289.1 90.6766C289.082 90.7296 289.053 90.7783 289.016 90.8196C288.978 90.8608 288.932 90.8937 288.88 90.9162C288.829 90.9386 288.774 90.95 288.718 90.9498C288.601 90.9498 288.49 90.9037 288.408 90.8215C288.325 90.7393 288.279 90.6279 288.279 90.5117C288.279 90.4557 288.291 90.4003 288.313 90.3491C288.335 90.2978 288.368 90.2518 288.41 90.214C288.451 90.1761 288.5 90.1474 288.553 90.1295C288.606 90.1116 288.662 90.105 288.718 90.1101C288.824 90.1101 288.926 90.1524 289.002 90.2277C289.077 90.303 289.12 90.4052 289.12 90.5117Z" fill="white"/>
<path d="M313.218 91.3145C313.256 91.5934 313.234 91.8773 313.154 92.147C313.073 92.4167 312.935 92.666 312.75 92.8782C312.565 93.0904 312.337 93.2604 312.081 93.3769C311.824 93.4935 311.546 93.5538 311.265 93.5538C310.983 93.5538 310.705 93.4935 310.448 93.3769C310.192 93.2604 309.964 93.0904 309.779 92.8782C309.594 92.666 309.456 92.4167 309.376 92.147C309.295 91.8773 309.273 91.5934 309.311 91.3145C309.273 91.0356 309.295 90.7517 309.376 90.482C309.456 90.2122 309.594 89.9629 309.779 89.7508C309.964 89.5386 310.192 89.3685 310.448 89.252C310.705 89.1355 310.983 89.0752 311.265 89.0752C311.546 89.0752 311.824 89.1355 312.081 89.252C312.337 89.3685 312.565 89.5386 312.75 89.7508C312.935 89.9629 313.073 90.2122 313.154 90.482C313.234 90.7517 313.256 91.0356 313.218 91.3145Z" fill="#164194"/>
<path d="M285.213 87.8459C283.272 88.0451 281.321 88.1182 279.371 88.0649C281.219 88.7384 283.173 89.0724 285.14 89.0507C286.329 88.7322 287.569 88.6455 288.791 88.7951C291.931 89.1968 293.391 92.4463 295.874 93.7242L296.276 92.4828C295.306 90.5282 293.667 88.9859 291.658 88.1353C289.649 87.2846 287.401 87.1819 285.322 87.8459H285.213Z" fill="#164194"/>
<path d="M330.268 88.5397C329.689 89.0844 329.27 89.7775 329.058 90.5436C328.845 91.3097 328.847 92.1194 329.063 92.8845C326.797 95.2506 324.061 97.1161 321.03 98.3612C320.702 98.3612 320.118 99.1279 319.752 99.4565L317.635 101.866H318.475L318.183 102.962C318.183 102.962 319.424 101.538 319.862 100.917C320.3 100.296 321.395 100.661 321.395 100.661L322.6 100.077L323.367 99.5661C323.623 99.3835 324.024 99.5661 324.024 99.5661C324.155 100.564 323.972 101.578 323.501 102.468C323.03 103.357 322.294 104.078 321.395 104.532C319.391 105.607 317.547 106.959 315.919 108.548C315.541 109.451 315.023 110.288 314.385 111.031L312.158 113.148L309.931 116.142C309.77 115.67 309.536 115.227 309.237 114.828C308.653 113.915 308.982 113.988 308.909 113.477C308.778 112.869 308.543 112.289 308.215 111.761C307.813 110.994 307.266 111.432 306.937 111.177C306.505 110.643 306.296 109.963 306.353 109.278C306.353 108.438 304.308 98.6898 304.126 97.8501V96.9738C305.092 95.0262 306.32 93.2203 307.777 91.6066C308.282 91.0251 308.858 90.5099 309.493 90.0732V90.0732C310.091 89.684 310.761 89.4188 311.463 89.2934C312.166 89.1679 312.886 89.1848 313.582 89.343V89.343C314.511 89.6076 315.466 89.7669 316.43 89.8176C317.371 89.8518 318.308 89.6763 319.174 89.3037C320.039 88.9311 320.81 88.3709 321.432 87.6634C320.118 87.9555 317.525 88.2111 317.525 88.2111C305.075 87.1158 308.142 88.7588 308.142 88.7588C306.252 89.7248 304.812 91.3875 304.126 93.3957L302.921 95.0022C302.639 95.9985 302.552 97.0399 302.665 98.0691C302.665 98.5803 302.921 99.9677 302.921 99.9677C302.651 103.709 303.264 107.46 304.71 110.921C304.71 111.213 305.623 114.937 305.623 114.937H306.097L306.791 114.244H307.193V114.682L308.142 117.237C308.142 117.237 308.398 119.027 308.398 119.282C308.075 120.41 307.515 121.456 306.755 122.349C306.169 122.866 305.474 123.244 304.721 123.452C303.968 123.661 303.178 123.696 302.41 123.554H302.191H301.278H300.803L300.438 123.189V122.714V121.911C301.601 121.675 302.647 121.045 303.399 120.127C304.151 119.209 304.562 118.059 304.564 116.872C304.564 116.215 303.542 115.704 303.542 115.704C301.331 115.095 298.997 115.095 296.787 115.704C295.327 116.033 295.838 118.077 295.838 118.077C295.838 119.319 298.247 121.254 298.247 121.254C298.727 121.634 299.315 121.851 299.927 121.874V122.313C299.849 122.627 299.739 122.933 299.598 123.225C299.416 123.554 298.722 123.7 298.284 123.773H297.882C293.537 123.335 292.698 121.144 292.698 119.574C293.01 117.857 293.576 116.196 294.377 114.645L294.888 115.047C295.288 115.105 295.694 115.105 296.093 115.047C296.349 115.047 296.093 114.426 296.093 114.171C295.933 113.924 295.786 113.668 295.655 113.404C297.627 111.359 298.832 97.777 298.905 97.4484C298.979 97.1364 298.979 96.8112 298.905 96.4991L298.649 95.915L298.065 94.9657C298.065 94.9657 296.97 94.0894 296.422 94.345C295.874 94.6006 296.97 95.988 296.97 95.988L297.554 96.7547C296.979 98.5463 296.599 100.395 296.422 102.268L295.509 108.146C295.036 109.231 294.657 110.355 294.377 111.505C294.049 113.112 292.515 111.907 292.515 111.907C292.679 112.591 292.688 113.303 292.543 113.991C292.398 114.679 292.102 115.327 291.675 115.887C290.963 114.418 289.881 113.16 288.535 112.235C286.942 111.157 285.598 109.75 284.592 108.11C283.826 106.759 283.753 107.087 280.32 105.481C279.378 105.063 278.591 104.358 278.073 103.466C277.555 102.574 277.332 101.541 277.436 100.515C277.436 100.515 279.809 101.465 280.174 101.538C281.044 101.776 281.898 102.068 282.73 102.414C283.314 102.67 285.87 104.276 283.314 101.465C280.759 98.6533 279.481 99.5661 277.838 98.9819C276.195 98.3977 276.304 97.704 275.538 96.6817C274.771 95.6594 273.675 95.2943 272.726 94.3815C271.777 93.4687 272.032 93.7608 272.215 93.2497C272.398 92.7385 271.448 91.0225 271.448 91.0225C267.797 87.1888 271.448 85.1442 272.799 84.3774C273.474 83.9875 273.968 83.3468 274.173 82.5947C274.378 81.8426 274.278 81.0399 273.894 80.3612C273.128 78.5722 271.412 71.489 271.412 71.489C270.638 69.7517 270.086 67.924 269.769 66.0488C269.573 63.4395 268.969 60.877 267.98 58.4545C266.446 54.1097 267.98 54.8034 268.235 53.5985C268.4 53.0828 268.633 52.5915 268.929 52.1381C272.105 52.1381 288.755 66.7426 288.755 66.7426C288.472 65.6604 288.055 64.6179 287.513 63.6391C295.128 60.6485 303.55 60.416 311.318 62.9819C313.692 63.9312 311.574 66.633 311.574 66.633L315.919 63.3835C320.029 58.2912 325.517 54.4888 331.728 52.4302C332.054 53.0576 332.312 53.7187 332.495 54.4018C332.897 55.2394 333.105 56.1565 333.105 57.0854C333.105 58.0143 332.897 58.9313 332.495 59.7689C331.529 61.9182 331.007 64.2406 330.961 66.5965C330.119 68.6966 329.436 70.8568 328.917 73.059C328.971 74.3434 328.64 75.6146 327.967 76.7101C327.094 78.4296 326.937 80.4246 327.529 82.2598C327.785 83.6472 331.473 86.203 331.473 86.203C331.473 86.203 332.312 85.9474 330.268 88.4302V88.5397ZM302.081 125.525L300.986 125.781H300.219L298.503 124.759C299.097 124.678 299.698 124.678 300.292 124.759C301.497 124.759 302.41 124.759 302.665 124.759L301.972 125.599L302.081 125.525ZM331.29 83.3186C327.639 80.5803 329.83 78.3531 330.633 76.8196C331.328 75.1603 331.735 73.3947 331.838 71.5985C331.838 70.8318 332.02 67.9474 332.933 66.9981C333.846 66.0488 334.065 61.5215 334.503 60.4261C334.834 59.3469 335.03 58.2309 335.087 57.1036C335.047 56.4105 335.047 55.7156 335.087 55.0225C334.314 52.8418 333.362 50.729 332.239 48.7061C328.15 49.1442 317.635 58.1259 316.686 59.2213C316.062 59.9088 315.35 60.5104 314.568 61.0103C309.797 59.8056 304.882 59.265 299.963 59.4038C295.267 59.4498 290.599 60.1377 286.089 61.4484C281.225 56.1695 275.218 52.0731 268.527 49.4728C264.183 53.8541 267.249 64.2598 267.688 65.2091C268.518 66.5776 268.983 68.1366 269.039 69.7365C269.367 72.3855 269.879 75.0085 270.572 77.5864C270.936 79.0046 271.515 80.359 272.288 81.6026C272.288 81.6026 271.375 82.6249 269.732 84.2679C268.089 85.9109 268.71 85.1077 267.761 85.5458C267.473 85.7192 267.227 85.9525 267.038 86.2297C266.849 86.5069 266.722 86.8216 266.665 87.1523C267.343 88.4395 268.137 89.6617 269.039 90.8034C270.17 92.0083 268.71 93.0306 268.71 93.0306L271.886 95.5864C273.055 96.5357 272.398 96.4626 273.237 97.2294C274.077 97.9961 273.42 98.6168 273.42 98.6168L274.114 99.2375C274.455 101.353 275.356 103.339 276.724 104.989C278.091 106.639 279.875 107.893 281.89 108.621C283.172 109.377 284.299 110.368 285.213 111.542L286.819 112.82C290.945 115.704 290.945 118.369 290.945 118.369C290.178 122.97 293.428 123.809 293.428 123.809C297.773 125.27 297.517 125.635 297.517 125.635C300.84 128.264 301.789 126.913 302.994 126.548C303.931 126.227 304.816 125.772 305.623 125.197C307.28 124.716 308.714 123.664 309.67 122.227C310.626 120.79 311.041 119.061 310.844 117.347C311.39 116.565 311.987 115.821 312.633 115.12C313.226 114.426 313.718 113.652 314.093 112.82C316.272 110.822 318.617 109.015 321.103 107.416C322.783 106.578 324.226 105.335 325.304 103.798C326.381 102.262 327.058 100.481 327.274 98.6168C327.51 97.2293 328.111 95.9296 329.016 94.8516C329.921 93.7735 331.096 92.9559 332.422 92.4829C332.107 91.986 331.94 91.4099 331.94 90.8217C331.94 90.2334 332.107 89.6573 332.422 89.1604C333.371 87.773 334.905 85.5093 334.905 85.5093C334.905 85.5093 334.686 85.5093 331.254 83.0265L331.29 83.3186Z" fill="#164194"/>
<path d="M310.844 90.5117C310.849 90.5674 310.843 90.6236 310.825 90.6766C310.807 90.7296 310.778 90.7783 310.74 90.8196C310.702 90.8608 310.656 90.8937 310.605 90.9162C310.554 90.9386 310.498 90.95 310.442 90.9498C310.326 90.9498 310.215 90.9037 310.132 90.8215C310.05 90.7393 310.004 90.6279 310.004 90.5117C310.004 90.4557 310.015 90.4003 310.038 90.3491C310.06 90.2978 310.093 90.2518 310.134 90.214C310.175 90.1761 310.224 90.1474 310.277 90.1295C310.33 90.1116 310.387 90.105 310.442 90.1101C310.549 90.1101 310.651 90.1524 310.726 90.2277C310.802 90.303 310.844 90.4052 310.844 90.5117Z" fill="white"/>
<path d="M388.5 212C389.328 212 390 212.672 390 213.5C390 214.328 389.328 215 388.5 215L211.5 215C210.672 215 210 214.328 210 213.5C210 212.672 210.672 212 211.5 212L388.5 212Z" fill="white"/>
</svg>
