<svg width="780" height="180" viewBox="0 0 780 180" fill="none" xmlns="http://www.w3.org/2000/svg">
<path d="M264.298 82.4488C272.631 82.4488 278.595 76.594 278.595 68.2244C278.595 59.8548 272.631 54 264.298 54C255.964 54 250 59.8548 250 68.2244C250 76.594 255.964 82.4488 264.298 82.4488ZM264.298 76.4761C259.953 76.4761 256.714 73.2147 256.714 68.2244C256.714 63.2341 259.953 59.9727 264.298 59.9727C268.642 59.9727 271.881 63.2341 271.881 68.2244C271.881 73.2147 268.642 76.4761 264.298 76.4761Z" fill="white"/>
<path d="M288.713 81.9772V72.3109H298.192L298.943 66.7312H288.713V60.287H302.616L301.628 54.4715H282.157V81.9772H288.713Z" fill="white"/>
<path d="M312.935 81.9772V72.3109H322.414L323.165 66.7312H312.935V60.287H326.838L325.851 54.4715H306.379V81.9772H312.935Z" fill="white"/>
<path d="M337.158 81.9772V54.4715H330.601V81.9772H337.158Z" fill="white"/>
<path d="M355.331 82.4488C360.426 82.4488 364.533 80.2876 367.101 76.9083L363.546 71.7215C361.216 74.7865 358.728 76.4761 355.331 76.4761C351.342 76.4761 347.432 73.4898 347.432 68.2244C347.432 62.959 351.46 59.9727 355.37 59.9727C358.688 59.9727 361.058 61.623 363.27 64.6486L367.14 59.1868C364.494 56.004 360.149 54 355.331 54C348.38 54 340.717 58.2437 340.717 68.2244C340.717 78.205 348.38 82.4488 355.331 82.4488Z" fill="white"/>
<path d="M377.348 81.9772V54.4715H370.791V81.9772H377.348Z" fill="white"/>
<path d="M408.555 81.9772L398.562 54.4715H390.426L380.434 81.9772H387.622L389.399 76.6333H399.589L401.367 81.9772H408.555ZM394.494 61.4658L397.614 70.8178H391.374L394.494 61.4658Z" fill="white"/>
<path d="M430.556 81.9772L431.543 76.1617H418.194V54.4715H411.637V81.9772H430.556Z" fill="white"/>
<path d="M450.091 81.9772V73.3326H455.068C461.94 73.3326 465.534 69.3246 465.534 63.9021C465.534 58.4795 461.94 54.4715 455.068 54.4715H443.535V81.9772H450.091ZM450.091 60.287H454.673C457.003 60.287 458.82 61.3872 458.82 63.9021C458.82 66.4169 457.003 67.5171 454.673 67.5171H450.091V60.287Z" fill="white"/>
<path d="M476.049 81.9772V72.8611H478.932L485.568 81.9772H493.111L485.805 72.1145C489.399 70.6999 491.492 67.9493 491.492 63.6663C491.492 58.1259 488.174 54.4715 481.658 54.4715H469.493V81.9772H476.049ZM476.049 60.287H481.026C483.395 60.287 484.778 61.5051 484.778 63.6663C484.778 65.8275 483.395 67.0456 481.026 67.0456H476.049V60.287Z" fill="white"/>
<path d="M502.547 81.9772V54.4715H495.991V81.9772H502.547Z" fill="white"/>
<path d="M513.769 81.9772V64.4129L523.09 81.9772H531.424V54.4715H524.946V72.9396L515.309 54.4715H507.292V81.9772H513.769Z" fill="white"/>
<path d="M549.61 82.4488C554.705 82.4488 558.812 80.2876 561.379 76.9083L557.825 71.7215C555.494 74.7865 553.006 76.4761 549.61 76.4761C545.62 76.4761 541.71 73.4898 541.71 68.2244C541.71 62.959 545.739 59.9727 549.649 59.9727C552.967 59.9727 555.337 61.623 557.548 64.6486L561.419 59.1868C558.773 56.004 554.428 54 549.61 54C542.658 54 534.996 58.2437 534.996 68.2244C534.996 78.205 542.658 82.4488 549.61 82.4488Z" fill="white"/>
<path d="M571.626 81.9772V54.4715H565.07V81.9772H571.626Z" fill="white"/>
<path d="M582.928 81.9772V73.3326H587.904C594.776 73.3326 598.37 69.3246 598.37 63.9021C598.37 58.4795 594.776 54.4715 587.904 54.4715H576.371V81.9772H582.928ZM582.928 60.287H587.509C589.839 60.287 591.656 61.3872 591.656 63.9021C591.656 66.4169 589.839 67.5171 587.509 67.5171H582.928V60.287Z" fill="white"/>
<path d="M625.011 81.9772L615.019 54.4715H606.883L596.89 81.9772H604.079L605.856 76.6333H616.046L617.823 81.9772H625.011ZM610.951 61.4658L614.071 70.8178H607.831L610.951 61.4658Z" fill="white"/>
<path d="M647.013 81.9772L648 76.1617H634.65V54.4715H628.094V81.9772H647.013Z" fill="white"/>
<path d="M257.741 126V117.355H262.718C269.59 117.355 273.184 113.347 273.184 107.925C273.184 102.502 269.59 98.4943 262.718 98.4943H251.185V126H257.741ZM257.741 104.31H262.323C264.653 104.31 266.47 105.41 266.47 107.925C266.47 110.44 264.653 111.54 262.323 111.54H257.741V104.31Z" fill="white"/>
<path d="M299.825 126L289.833 98.4943H281.696L271.704 126H278.892L280.67 120.656H290.86L292.637 126H299.825ZM285.765 105.489L288.885 114.841H282.644L285.765 105.489Z" fill="white"/>
<path d="M309.464 126V116.884H312.347L318.983 126H326.526L319.22 116.137C322.814 114.723 324.907 111.972 324.907 107.689C324.907 102.149 321.589 98.4943 315.072 98.4943H302.908V126H309.464ZM309.464 104.31H314.441C316.81 104.31 318.193 105.528 318.193 107.689C318.193 109.85 316.81 111.068 314.441 111.068H309.464V104.31Z" fill="white"/>
<path d="M342.853 126V104.31H351.937L350.949 98.4943H328.2L327.212 104.31H336.296V126H342.853Z" fill="white"/>
<path d="M361.725 126V108.436L371.046 126H379.38V98.4943H372.902V116.962L363.265 98.4943H355.248V126H361.725Z" fill="white"/>
<path d="M403.648 126L404.635 120.185H390.693V114.762H398.829L399.58 109.182H390.693V104.31H404.003L403.016 98.4943H384.137V126H403.648Z" fill="white"/>
<path d="M414.838 126V116.884H417.721L424.357 126H431.9L424.594 116.137C428.188 114.723 430.281 111.972 430.281 107.689C430.281 102.149 426.963 98.4943 420.447 98.4943H408.282V126H414.838ZM414.838 104.31H419.815C422.184 104.31 423.567 105.528 423.567 107.689C423.567 109.85 422.184 111.068 419.815 111.068H414.838V104.31Z" fill="white"/>
<path d="M90 180C107.802 180 125.204 174.721 140.005 164.83C154.806 154.939 166.342 140.881 173.153 124.433C179.963 107.986 181.744 89.8877 178.268 72.4285C174.792 54.9692 166.217 38.9328 153.627 26.3475C141.036 13.7622 124.996 5.19346 107.536 1.72492C90.075 -1.74363 71.9779 0.0438807 55.5332 6.86136C39.0885 13.6788 25.0349 25.22 15.15 40.0253C5.26505 54.8305 -0.00721444 72.2347 7.40934e-06 90.0365C6.43613e-06 101.854 2.32819 113.555 6.85156 124.472C11.3749 135.39 18.0049 145.309 26.3626 153.663C34.7204 162.018 44.6422 168.643 55.5612 173.162C66.4803 177.681 78.1827 180.005 90 180Z" fill="white"/>
<path d="M89.9999 176.787C107.166 176.787 123.947 171.696 138.22 162.158C152.493 152.62 163.617 139.064 170.184 123.203C176.752 107.343 178.468 89.8912 175.117 73.0552C171.765 56.2192 163.496 40.7553 151.355 28.6193C139.214 16.4834 123.746 8.22064 106.909 4.87607C90.0714 1.5315 72.6203 3.25538 56.7626 9.82968C40.905 16.404 27.3533 27.5334 17.8214 41.8102C8.2895 56.0871 3.20568 72.87 3.2129 90.0364C3.2129 101.432 5.45797 112.715 9.81988 123.243C14.1818 133.77 20.575 143.335 28.6344 151.391C36.6938 159.447 46.2614 165.836 56.7907 170.194C67.32 174.551 78.6046 176.792 89.9999 176.787Z" fill="#164194"/>
<path d="M89.9992 171.201C106.054 171.172 121.741 166.385 135.076 157.443C148.411 148.501 158.796 135.807 164.918 120.965C171.041 106.123 172.626 89.799 169.473 74.0562C166.321 58.3135 158.572 43.8586 147.206 32.5185C135.841 21.1785 121.368 13.4622 105.619 10.345C89.8688 7.2278 73.5484 8.84956 58.72 15.0053C43.8916 21.1611 31.221 31.5745 22.3093 44.9295C13.3977 58.2846 8.64516 73.9817 8.65235 90.037C8.65232 100.711 10.7577 111.28 14.848 121.139C18.9383 130.999 24.9332 139.954 32.4893 147.493C40.0455 155.033 49.0145 161.007 58.8829 165.076C68.7513 169.144 79.3252 171.225 89.9992 171.201Z" fill="white"/>
<path d="M10.6973 90.0366C10.6925 79.6211 12.7404 69.3068 16.724 59.6833C20.7076 50.0597 26.5488 41.3156 33.9137 33.9508C41.2785 26.5859 50.0226 20.7447 59.6462 16.7611C69.2697 12.7775 79.584 10.7296 89.9995 10.7344C100.415 10.7296 110.729 12.7775 120.353 16.7611C129.976 20.7447 138.72 26.5859 146.085 33.9508C153.45 41.3156 159.291 50.0597 163.275 59.6833C167.259 69.3068 169.307 79.6211 169.302 90.0366C169.302 100.449 167.25 110.759 163.264 120.379C159.279 129.998 153.437 138.738 146.072 146.099C138.708 153.46 129.966 159.298 120.344 163.279C110.723 167.26 100.412 169.307 89.9995 169.302V168.353C100.286 168.363 110.474 166.343 119.978 162.409C129.483 158.474 138.117 152.702 145.387 145.424C152.665 138.155 158.437 129.52 162.372 120.016C166.306 110.511 168.326 100.323 168.316 90.0366C168.332 79.7489 166.315 69.5595 162.38 60.0542C158.445 50.5488 152.67 41.915 145.387 34.6492C138.124 27.3595 129.492 21.5777 119.986 17.6364C110.481 13.6951 100.29 11.672 89.9995 11.6837C79.7084 11.666 69.5157 13.6863 60.0093 17.628C50.503 21.5696 41.8713 27.3546 34.6121 34.6492C27.3175 41.9084 21.5325 50.5401 17.5909 60.0464C13.6492 69.5528 11.6289 79.7455 11.6466 90.0366C11.6349 100.327 13.658 110.518 17.5993 120.023C21.5406 129.529 27.3224 138.161 34.6121 145.424C41.8779 152.707 50.5117 158.482 60.0171 162.417C69.5224 166.352 79.7118 168.369 89.9995 168.353V169.302C79.5871 169.307 69.2758 167.26 59.6546 163.279C50.0334 159.298 41.2909 153.46 33.9266 146.099C26.5622 138.738 20.7203 129.998 16.7345 120.379C12.7488 110.759 10.6973 100.449 10.6973 90.0366Z" fill="#164194"/>
<path d="M89.9994 146.337C101.135 146.337 112.02 143.035 121.278 136.848C130.537 130.662 137.753 121.869 142.014 111.582C146.275 101.294 147.39 89.9741 145.218 79.0529C143.045 68.1317 137.683 58.1 129.81 50.2263C121.936 42.3526 111.904 36.9905 100.983 34.8181C90.0619 32.6458 78.7418 33.7607 68.4543 38.022C58.1667 42.2832 49.3739 49.4993 43.1875 58.7578C37.0012 68.0163 33.6992 78.9014 33.6992 90.0365C33.6992 104.968 39.6308 119.288 50.1892 129.847C55.4171 135.075 61.6236 139.222 68.4543 142.051C75.2849 144.88 82.606 146.337 89.9994 146.337Z" fill="white"/>
<path d="M88.503 37.8623C87.3346 44.2152 79.6673 44.2152 75.432 47.6108C73.1675 49.4093 71.6253 51.9622 71.0871 54.8035C67.0709 52.7589 63.1642 49.7284 59.002 48.0854C67.4484 41.5565 77.8274 38.0241 88.503 38.0449" fill="#164194"/>
<path d="M120.012 47.1361L109.862 53.8177C108.694 46.5154 100.661 44.4343 95.2576 42.1706C94.1622 41.0023 92.5192 39.5053 93.1399 37.8623C102.851 38.2886 112.232 41.5088 120.158 47.1361" fill="#164194"/>
<path d="M93.6519 43.8503C98.8365 46.6252 107.015 47.5014 108.256 55.0592C108.001 55.826 107.052 56.1546 106.577 56.5562C106.102 46.7712 94.6012 48.6698 90.9136 41.258C87.0434 48.7428 74.6661 47.3189 74.8122 57.6515C73.9724 57.2499 72.3659 56.3006 73.2422 54.8037C75.3598 46.5521 85.2178 47.0998 89.9643 41.4041L90.658 38.4102C91.0068 40.5117 92.0631 42.4311 93.6519 43.8503Z" fill="#164194"/>
<path d="M90.9506 47.0624C90.9506 47.2815 90.9506 47.6831 90.9506 47.8291C90.9506 47.9752 90.5487 47.537 90.293 47.4275C90.0372 47.318 90.9506 46.2592 91.0967 47.0624" fill="#164194"/>
<path d="M92.9919 48.9247C92.9919 49.2533 92.9919 49.5089 92.7015 49.7279H92.6289V48.5596C92.9556 48.5596 93.0282 48.7786 93.1734 48.9247" fill="#164194"/>
<path d="M88.9754 48.9253C88.9754 49.1809 88.9754 49.5825 88.9754 49.7286H88.5762V48.7793C88.5762 48.7793 89.048 48.7793 89.1206 48.7793" fill="#164194"/>
<path d="M53.5248 61.6309C48.5593 64.4788 47.1719 72.3287 40.8555 71.6715C43.7098 63.8533 48.51 56.8917 54.8027 51.4443C53.338 54.6273 52.8918 58.1848 53.5248 61.6309Z" fill="#164194"/>
<path d="M91.4961 57.4692H89.2324L90.8024 51.7734C90.7471 53.696 90.981 55.616 91.4961 57.4692Z" fill="#164194"/>
<path d="M138.413 70.5398C132.973 70.1382 131.111 63.5297 126.328 61.0834C127.148 58.5153 127.409 55.8015 127.095 53.124C132.174 57.9677 136.05 63.9317 138.413 70.5398Z" fill="#164194"/>
<path d="M139.18 72.1824V72.438C131.622 77.5496 139.509 89.0506 131.33 93.7971C128.815 95.1416 125.943 95.6651 123.115 95.294C123.59 93.4685 126.511 94.1987 128.081 93.2494C137.537 90.4015 132.791 79.1196 137.464 73.0587C132.791 71.8904 129.14 67.8376 125.488 64.8802L125.708 63.5293C130.052 66.5962 133.302 72.7666 139.107 72.1824" fill="#164194"/>
<path d="M55.0219 64.6251C51.3708 68.6413 47.7196 73.0591 42.7176 74.0815C43.2653 75.5784 44.6162 76.7468 45.1639 78.2802C46.8069 84.6697 46.9894 93.4689 55.1679 95.2944C56.3363 95.7691 57.9428 95.0389 58.819 96.2437C56.9616 96.6716 55.0274 96.6357 53.1871 96.139C51.3469 95.6423 49.6572 94.7002 48.2673 93.3958C42.6081 87.8827 48.2673 77.3309 39.9062 73.3877C46.7704 74.8847 49.4357 66.6697 54.2551 63.6758L55.0584 64.6251H55.0219Z" fill="#164194"/>
<path d="M127.824 72.5844C127.824 72.84 127.824 73.2051 127.824 73.3876H127.57V72.1828C127.626 72.1681 127.684 72.1682 127.739 72.1832C127.794 72.1982 127.844 72.2275 127.885 72.2681C127.925 72.3088 127.954 72.3594 127.969 72.4149C127.984 72.4704 127.984 72.5288 127.97 72.5844" fill="#164194"/>
<path d="M54.0729 73.3877C54.0729 73.3877 54.0729 73.6067 54.0729 73.6798C54.0729 73.7528 53.4883 73.6798 53.2691 73.3877C53.0134 72.5114 54.4382 72.5114 54.219 73.3877" fill="#164194"/>
<path d="M126.111 75.0306C126.111 75.0306 125.855 75.5053 125.563 75.4322C125.451 75.3907 125.354 75.316 125.286 75.2181C125.218 75.1202 125.182 75.0038 125.182 74.8846C125.182 74.7653 125.218 74.6489 125.286 74.551C125.354 74.4531 125.451 74.3784 125.563 74.3369C126.038 74.3369 125.965 74.775 126.111 75.0306Z" fill="#164194"/>
<path d="M129.871 74.3366C129.871 74.6287 129.871 75.0303 129.871 75.2494C129.871 75.4684 129.469 74.9573 129.323 74.8843C129.177 74.8112 129.323 74.154 130.017 74.3366" fill="#164194"/>
<path d="M56.1178 75.2492C56.1178 75.2492 55.8986 75.6508 55.5698 75.5778L55.168 75.2492L55.789 74.4824C56.0448 74.7015 56.0448 74.9571 56.1178 75.2492Z" fill="#164194"/>
<path d="M127.095 126.949L123.444 130.272C122.422 122.568 131.403 117.675 129.249 109.314C128.408 107.113 127.092 105.124 125.394 103.49C123.696 101.855 121.659 100.615 119.428 99.8578C119.428 94.4177 125.306 98.3609 128.154 97.1925C129.968 96.9092 131.688 96.1942 133.168 95.1077C134.649 94.0213 135.847 92.595 136.661 90.9491C139.655 85.8375 135.456 78.9735 139.874 74.373C142.766 83.4718 143.096 93.1911 140.829 102.465C138.562 111.739 133.785 120.21 127.022 126.949" fill="#164194"/>
<path d="M52.1727 75.2499C52.1727 75.5785 52.1727 75.761 51.7734 75.9801V74.8848C51.9912 74.8848 52.1727 75.1038 52.3179 75.2499" fill="#164194"/>
<path d="M45.1649 92.4467C46.0954 94.0451 47.36 95.4239 48.8723 96.4888C50.3846 97.5537 52.109 98.2797 53.9275 98.617C56.2458 98.6681 58.5646 98.5461 60.8647 98.2519L61.4853 99.7489C59.2653 100.449 57.2354 101.65 55.5517 103.257C53.868 104.865 52.5755 106.837 51.7734 109.023C49.8018 117.238 57.2135 122.495 58.6375 129.834L58.0533 131.696C50.1405 125.654 44.1117 117.483 40.672 108.14C37.2322 98.7975 36.5237 88.6683 38.6294 78.9375L39.6882 75.542C46.4428 78.3899 41.6233 87.4446 44.9823 92.5562" fill="#164194"/>
<path d="M129.139 84.4871C128.044 84.0855 127.788 85.4364 127.387 85.984C127.168 85.5094 127.168 84.8887 126.693 84.4871L125.488 84.7427L127.752 77.4404C127.918 79.8381 128.384 82.2055 129.139 84.4871Z" fill="#164194"/>
<path d="M55.7899 84.8886C54.7676 84.6695 54.366 85.5093 54.0739 86.2395V86.6046C53.8183 85.8379 53.1976 84.1584 52.0293 85.0346C52.8357 82.6373 53.5182 80.2 54.0739 77.7324C54.1144 80.1681 54.7008 82.5636 55.7899 84.7426" fill="#164194"/>
<path d="M62.4348 102.706V103.4C59.2584 104.897 55.5707 107.672 55.5707 111.542C55.0961 118.844 61.9602 122.714 61.23 129.798C62.3253 130.674 63.3476 129.104 64.6255 129.25C68.7878 128.958 80.6174 130.199 83.3923 126.804C84.086 126.804 84.5606 127.059 85.1083 127.388C84.4854 128.539 83.5846 129.516 82.4878 130.23C81.391 130.944 80.133 131.373 78.8284 131.477C72.3659 132.098 64.9541 126.658 59.733 132.572C63.6762 123.372 50.1306 117.384 54.6214 107.599C55.3542 106.119 56.3789 104.803 57.6339 103.73C58.8889 102.657 60.3481 101.849 61.9237 101.355L62.3253 102.56L62.4348 102.706Z" fill="#164194"/>
<path d="M127.279 110.41C128.228 118.552 118.772 122.933 121.364 131.075C113.404 126.511 103.108 137.464 96.2441 128.008C96.2441 127.351 96.9379 126.876 97.4125 126.657C98.8364 127.059 99.3111 128.373 100.552 129.176C106.723 133.594 113.258 127.826 119.867 129.505C120.268 128.702 119.867 127.132 120.268 126.109C122.788 120.341 129.031 113.038 123.116 106.795C121.565 105.46 119.766 104.443 117.822 103.801C117.275 102.925 118.151 102.304 118.37 101.501C122.021 102.852 126.877 106.101 127.279 110.41Z" fill="#164194"/>
<path d="M112.309 111.906C111.834 112.162 111.834 111.614 111.615 111.359C111.396 111.103 111.834 110.592 112.309 110.811V111.906Z" fill="#164194"/>
<path d="M70.1388 111.359C70.1388 111.615 70.1388 112.016 70.1388 112.162C70.1388 112.308 69.7369 111.834 69.5177 111.761C69.1158 111.067 70.2849 110.665 70.2849 111.359" fill="#164194"/>
<path d="M114.532 113.66C114.314 113.66 114.241 113.66 114.132 113.66C114.023 113.66 113.697 112.564 114.132 112.564C114.568 112.564 114.132 113.185 114.35 113.514" fill="#164194"/>
<path d="M72.1805 113.404C72.2247 113.461 72.2486 113.532 72.2486 113.604C72.2486 113.677 72.2247 113.748 72.1805 113.805H71.7812V112.856C72.3257 112.637 72.1805 113.258 72.3257 113.404" fill="#164194"/>
<path d="M68.2388 113.403C68.2388 113.732 68.2388 114.061 68.2388 114.207C68.2388 114.353 67.8369 113.988 67.6177 113.805C67.3985 113.622 68.3849 112.637 68.3849 113.403" fill="#164194"/>
<path d="M110.406 114.061H109.861V113.111H110.406V114.061Z" fill="#164194"/>
<path d="M71.4896 123.116C70.6864 122.568 69.8466 123.882 69.7371 124.467C69.7164 124.25 69.6499 124.04 69.542 123.851C69.434 123.662 69.2871 123.498 69.111 123.371C68.9349 123.243 68.7336 123.154 68.5205 123.11C68.3074 123.066 68.0873 123.068 67.875 123.116C68.8924 120.885 69.6047 118.527 69.9926 116.105C70.266 118.485 70.7672 120.832 71.4896 123.116Z" fill="#164194"/>
<path d="M113.806 123.261C113.806 122.933 113.331 123.261 113.112 123.261L112.163 124.758C112.076 124.181 111.792 123.652 111.359 123.261H110.41L112.309 115.959C112.683 118.417 113.183 120.854 113.806 123.261Z" fill="#164194"/>
<path d="M104.971 134.069C110.192 134.361 114.829 130.71 119.867 133.046C112.268 138.247 103.454 141.394 94.2795 142.181C85.1052 142.968 75.8833 141.368 67.5101 137.537L61.4492 133.886C62.1203 133.159 62.9413 132.587 63.8554 132.209C64.7695 131.83 65.7549 131.655 66.7433 131.695C73.2058 132.718 82.6622 136.04 87.1531 128.884C88.2813 129.327 89.4921 129.52 90.7021 129.451C91.9122 129.382 93.0929 129.051 94.1632 128.482C95.358 130.268 96.9947 131.715 98.9141 132.681C100.833 133.647 102.97 134.1 105.117 133.996" fill="#164194"/>
<path d="M135.238 103.655C131.858 103.974 128.482 103.01 125.781 100.953C125.781 99.9307 126.658 99.5291 127.424 99.4561C130.442 99.8902 133.21 101.377 135.238 103.655Z" fill="white"/>
<path d="M53.6712 101.355C53.6712 103.327 51.5535 103.546 50.2756 104.203C48.6115 104.655 46.8862 104.84 45.1641 104.751C46.1313 103.526 47.3625 102.535 48.7659 101.852C50.1694 101.17 51.7088 100.813 53.2695 100.808L53.6712 101.355Z" fill="white"/>
<path d="M92.6282 131.076C92.5994 133.45 92.1417 135.801 91.2773 138.013C90.6566 135.639 88.5389 131.952 90.9852 129.725C91.3693 129.738 91.7382 129.878 92.0351 130.122C92.332 130.366 92.5404 130.701 92.6282 131.076Z" fill="white"/>
<path d="M26.9088 108.292C27.054 108.936 27.3272 109.545 27.7121 110.081L25.5214 109.351C25.2345 109.273 24.9759 109.114 24.7755 108.895C24.5751 108.675 24.4413 108.403 24.3896 108.11L23.2577 102.816L20.0082 103.582C19.5252 103.631 19.068 103.824 18.6967 104.137C18.3253 104.45 18.0571 104.867 17.9271 105.335L16.5762 99.6026C17.1238 100.333 17.9636 100.479 19.205 100.187L28.2597 98.0692C29.5011 97.7771 30.1583 97.2659 30.3409 96.3896L33.2618 109.57C33.0603 109.503 32.8426 109.503 32.6411 109.57C32.3855 109.57 31.5092 110.227 29.8662 111.104C30.3785 109.376 30.3785 107.537 29.8662 105.81L28.8804 101.611L25.4484 102.268L26.9088 108.292Z" fill="#164194"/>
<path d="M32.6781 123.955C33.2536 123.743 33.7749 123.406 34.2049 122.968C34.6348 122.53 34.9627 122.003 35.165 121.424C35.3674 120.845 35.4392 120.228 35.3754 119.618C35.3115 119.008 35.1136 118.419 34.7957 117.895C34.5377 117.275 34.1453 116.721 33.6467 116.272C33.1481 115.822 32.5559 115.49 31.9129 115.297C31.27 115.105 30.5923 115.058 29.929 115.16C29.2657 115.262 28.6333 115.51 28.0777 115.886C27.5095 116.102 26.9961 116.441 26.5741 116.879C26.1521 117.316 25.8319 117.842 25.6366 118.417C25.4412 118.993 25.3755 119.604 25.444 120.208C25.5126 120.812 25.7137 121.394 26.0331 121.911C26.2842 122.527 26.6691 123.079 27.1599 123.529C27.6507 123.978 28.2351 124.312 28.871 124.508C29.5069 124.704 30.1783 124.756 30.8367 124.66C31.4951 124.564 32.1241 124.324 32.6781 123.955ZM23.8059 123.262C23.2138 122.405 22.8119 121.431 22.6273 120.405C22.4427 119.38 22.4796 118.327 22.7355 117.317C22.9914 116.308 23.4604 115.364 24.1111 114.551C24.7617 113.737 25.5789 113.072 26.5077 112.6C27.4374 112.076 28.4707 111.762 29.535 111.68C30.5992 111.598 31.6685 111.75 32.6675 112.126C33.6665 112.502 34.571 113.092 35.3172 113.856C36.0634 114.619 36.6331 115.536 36.9864 116.544C37.5955 117.409 38.0094 118.395 38.1996 119.436C38.3897 120.476 38.3515 121.546 38.0876 122.57C37.8237 123.595 37.3404 124.549 36.6712 125.368C36.0019 126.188 35.1627 126.852 34.2116 127.314C33.2792 127.817 32.2486 128.111 31.1914 128.175C30.1343 128.239 29.0757 128.073 28.0892 127.687C27.1027 127.302 26.2119 126.706 25.4786 125.942C24.7453 125.178 24.187 124.263 23.8424 123.262H23.8059Z" fill="#164194"/>
<path d="M43.7405 137.83C44.2358 137.476 44.6466 137.017 44.9435 136.486C45.2405 135.955 45.4162 135.364 45.4581 134.757C45.4999 134.15 45.407 133.541 45.1858 132.974C44.9646 132.407 44.6206 131.896 44.1787 131.477C43.7754 130.941 43.2564 130.503 42.6603 130.196C42.0642 129.889 41.4063 129.72 40.7359 129.702C40.0655 129.685 39.3998 129.819 38.7884 130.095C38.177 130.37 37.6358 130.781 37.205 131.295C36.7066 131.647 36.2935 132.107 35.9959 132.64C35.6984 133.173 35.5239 133.766 35.4854 134.375C35.4469 134.984 35.5453 135.594 35.7734 136.161C36.0014 136.727 36.3534 137.235 36.8034 137.648C37.2083 138.173 37.7247 138.603 38.3155 138.906C38.9063 139.208 39.5568 139.376 40.2202 139.397C40.8836 139.418 41.5434 139.291 42.1521 139.027C42.7608 138.762 43.3033 138.366 43.7405 137.867V137.83ZM34.9779 139.51C31.3267 135.566 31.5093 131.477 34.7953 128.556C35.5552 127.802 36.4717 127.223 37.48 126.863C38.4882 126.502 39.5635 126.367 40.6296 126.468C41.6957 126.569 42.7265 126.903 43.649 127.447C44.5715 127.991 45.3631 128.731 45.9677 129.615C46.7447 130.3 47.367 131.143 47.7933 132.087C48.2195 133.032 48.44 134.056 48.44 135.092C48.44 136.128 48.2195 137.152 47.7933 138.096C47.367 139.04 46.7447 139.883 45.9677 140.568C45.2026 141.279 44.2941 141.817 43.3035 142.146C42.3129 142.475 41.2631 142.589 40.2251 142.478C39.187 142.367 38.1847 142.035 37.2859 141.504C36.387 140.973 35.6124 140.256 35.0144 139.4L34.9779 139.51Z" fill="#164194"/>
<path d="M48.5958 148.856L48.9975 148.199L54.1455 140.532L53.5614 140.13C52.1259 139.033 50.3984 138.386 48.5958 138.268C49.9833 137.063 50.8595 136.479 51.0056 136.223C51.0676 136.021 51.0676 135.805 51.0056 135.603L62.5796 143.343C62.3727 143.403 62.1925 143.532 62.0684 143.708C62.0684 143.927 61.7033 144.949 61.1192 146.738C60.3068 145.11 59.0382 143.752 57.4681 142.832L57.0299 142.43L51.8818 150.097C51.5776 150.486 51.3889 150.952 51.3373 151.443C51.2856 151.934 51.3731 152.429 51.5898 152.872L46.6973 149.732C47.0532 149.783 47.4161 149.738 47.7494 149.604C48.0828 149.469 48.3747 149.249 48.5958 148.966V148.856Z" fill="#164194"/>
<path d="M69.0418 151.74C70.8674 152.361 71.8897 152.179 72.2913 151.01C72.6929 149.842 71.9627 149.221 70.3927 148.674L66.7416 147.469L65.6828 150.609L69.0053 151.74H69.0418ZM68.056 157.801C69.9181 158.422 71.0864 158.13 71.488 156.925C71.8897 155.72 71.0864 154.917 69.1879 154.296L64.9526 152.836L63.7842 156.487L68.056 157.947V157.801ZM60.5347 155.136L63.4191 146.446C63.8207 145.241 63.7842 144.365 63.0905 143.708L70.3927 146.264C74.5915 147.688 76.5996 149.112 75.7233 151.74C75.4869 152.41 75.0282 152.978 74.4235 153.35C73.8189 153.722 73.105 153.876 72.4008 153.785C74.6645 154.88 75.3947 156.268 74.7741 158.13C73.7883 160.978 71.1229 161.416 66.559 159.846L58.5996 157.035C59.5489 157.035 60.0966 156.341 60.5347 155.099V155.136Z" fill="#164194"/>
<path d="M86.6767 158.093L84.2305 151.266L80.7984 157.582L86.6767 158.093ZM92.6281 163.826H87.3705C87.6792 163.527 87.8621 163.122 87.8816 162.694C87.9262 162.403 87.9262 162.108 87.8816 161.817L87.5165 160.686L79.411 159.955L79.0459 160.613C78.9029 160.898 78.8161 161.207 78.7903 161.525C78.757 162.072 78.9407 162.61 79.3015 163.022L73.8613 161.817C74.5827 161.333 75.2028 160.713 75.6869 159.992L81.6747 150.134C81.8112 149.948 81.9104 149.737 81.9668 149.513C81.9985 149.344 81.9985 149.171 81.9668 149.002L87.8086 149.513C87.7088 149.671 87.6349 149.843 87.5895 150.024C87.5408 150.241 87.5408 150.465 87.5895 150.681L91.2406 161.635C91.5784 162.508 92.0734 163.313 92.7011 164.008L92.6281 163.826Z" fill="#164194"/>
<path d="M91.8256 149.733L97.6674 148.93C97.2681 149.208 96.9655 149.603 96.8019 150.061C96.6383 150.52 96.6217 151.017 96.7546 151.485L98.0325 160.686L102.012 160.139C103.971 159.989 105.817 159.163 107.233 157.802C106.873 159.002 106.58 160.22 106.357 161.453C106.423 161.677 106.549 161.88 106.722 162.037L93.7607 163.863C94.5274 163.388 94.7465 162.548 94.6004 161.307L93.286 152.106C93.286 150.865 92.6653 150.135 91.7891 149.879L91.8256 149.733Z" fill="#164194"/>
<path d="M103.875 148.309L109.425 146.337C109.094 146.695 108.881 147.147 108.815 147.63C108.75 148.114 108.835 148.605 109.06 149.039L112.2 157.765L115.851 156.414C117.763 155.853 119.409 154.622 120.488 152.945C120.417 154.161 120.417 155.381 120.488 156.597C120.488 156.779 120.743 156.889 120.962 157.071L108.621 161.489C108.948 161.134 109.152 160.684 109.205 160.204C109.257 159.725 109.155 159.241 108.914 158.824L105.81 150.061C105.372 148.856 104.788 148.272 103.875 148.199V148.309Z" fill="#164194"/>
<path d="M137.61 146.446C136.733 147.067 135.638 148.454 133.959 149.732C133.221 150.439 132.336 150.975 131.367 151.3C130.398 151.625 129.369 151.733 128.354 151.614C127.339 151.495 126.362 151.154 125.494 150.614C124.627 150.074 123.889 149.349 123.334 148.491C122.688 147.615 122.238 146.61 122.016 145.545C121.794 144.48 121.805 143.379 122.048 142.318C122.29 141.257 122.759 140.261 123.422 139.399C124.085 138.536 124.927 137.826 125.89 137.319C127.861 135.895 129.541 135.383 130.307 134.836C130.529 134.684 130.726 134.499 130.892 134.288L131.877 137.939C130.31 137.947 128.787 138.459 127.533 139.4C126.982 139.729 126.506 140.169 126.134 140.691C125.763 141.214 125.503 141.808 125.373 142.436C125.243 143.064 125.244 143.712 125.377 144.34C125.51 144.967 125.771 145.56 126.145 146.081C126.455 146.657 126.893 147.155 127.426 147.535C127.958 147.915 128.571 148.168 129.216 148.273C129.862 148.379 130.523 148.335 131.149 148.145C131.775 147.955 132.349 147.624 132.827 147.177C134.36 146.012 135.608 144.513 136.478 142.795L138.668 145.899C138.334 146.001 138.014 146.148 137.719 146.337L137.61 146.446Z" fill="#164194"/>
<path d="M130.673 134.179L134.58 129.725C134.46 130.2 134.49 130.701 134.667 131.159C134.844 131.617 135.158 132.009 135.566 132.28L142.54 138.378L145.168 135.384C146.521 133.943 147.311 132.064 147.396 130.09C147.916 131.23 148.501 132.339 149.148 133.412C149.148 133.412 149.513 133.412 149.805 133.412L141.152 143.307C141.408 142.431 141.152 141.627 140.093 140.787L133.12 134.69C132.17 133.85 131.367 133.595 130.527 133.996L130.673 134.179Z" fill="#164194"/>
<path d="M155.173 125.562C152.909 129.652 150.171 130.747 146.885 128.921L141.335 125.854C140.167 125.234 139.291 125.161 138.561 125.854L141.408 120.743C141.408 121.692 141.847 122.313 142.978 122.97L148.455 126C148.855 126.243 149.307 126.389 149.774 126.425C150.24 126.461 150.709 126.388 151.142 126.211C151.576 126.033 151.961 125.756 152.268 125.403C152.575 125.049 152.795 124.629 152.909 124.175C153.196 123.825 153.399 123.413 153.502 122.973C153.604 122.532 153.605 122.073 153.502 121.633C153.4 121.192 153.198 120.78 152.912 120.43C152.625 120.079 152.262 119.799 151.851 119.611L146.374 116.873C145.315 116.288 144.548 116.069 143.636 116.873L146.483 111.725C146.483 112.601 146.922 113.368 148.053 113.988L153.64 117.055C156.926 118.881 157.291 121.765 155.173 125.891V125.562Z" fill="#164194"/>
<path d="M160.138 104.75C160.576 102.815 160.138 101.72 158.933 101.428C157.728 101.136 156.961 102.012 156.523 103.983L155.537 108.328L159.189 109.168L160.211 104.75H160.138ZM154.041 104.385C154.442 102.523 154.041 101.501 152.945 101.245C151.85 100.99 151.193 101.72 150.828 103.363L149.988 107.014L153.237 107.781L154.041 104.349V104.385ZM158.349 112.527L149.404 110.446C148.162 110.154 147.286 110.446 146.738 111.067L148.491 103.399C149.477 99.0544 150.718 96.9003 153.42 97.521C154.105 97.6867 154.713 98.0807 155.144 98.6381C155.576 99.1956 155.805 99.8832 155.793 100.588C156.633 98.2512 157.947 97.3749 159.882 97.8131C162.803 98.5068 163.533 101.099 162.438 105.809L160.503 114.207C160.32 113.294 159.627 112.819 158.349 112.527Z" fill="#164194"/>
<path d="M17.1973 80.3613L18.4752 74.5925C18.5956 75.0654 18.8611 75.4886 19.2344 75.8029C19.6076 76.1172 20.0698 76.3068 20.5563 76.3451L29.6111 78.3532L30.5603 74.4465C31.1087 72.533 30.9532 70.4864 30.1222 68.6777C31.1083 69.441 32.1452 70.1363 33.2257 70.7589C33.4405 70.8198 33.668 70.8198 33.8829 70.7589L31.0715 83.5743C30.8524 82.6615 30.1952 82.1503 28.9539 81.8948L19.8991 79.8867C19.4514 79.6997 18.9561 79.659 18.484 79.7705C18.0118 79.882 17.587 80.1399 17.2703 80.5074L17.1973 80.3613Z" fill="#164194"/>
<path d="M32.3498 67.4731L24.0983 63.2378C23.7014 62.963 23.2301 62.8158 22.7474 62.8158C22.2647 62.8158 21.7934 62.963 21.3965 63.2378L28.151 50.0938C28.2346 50.279 28.3754 50.4326 28.5527 50.5319C29.5759 50.7917 30.6117 50.9989 31.6561 51.1526C30.1525 52.1525 28.9627 53.5575 28.2241 55.2053L25.6683 60.2073L28.5892 61.7408L31.4371 56.1911C31.7323 55.6116 31.9062 54.978 31.9482 54.329L33.1896 56.3006C33.3407 56.5547 33.4204 56.8448 33.4204 57.1404C33.4204 57.436 33.3407 57.7261 33.1896 57.9802L30.6703 62.8361L33.8468 64.4426L36.5486 59.185C37.5689 57.4733 37.9323 55.449 37.5709 53.4893C38.3299 54.4734 39.1597 55.4008 40.0537 56.2641C40.2784 56.342 40.5227 56.342 40.7474 56.2641L33.8833 69.6272C33.8833 68.7144 33.4087 68.0572 32.2768 67.4731H32.3498Z" fill="#164194"/>
<path d="M35.4894 44.5804L42.7916 50.2396C43.8139 51.0429 44.6537 51.2619 45.4935 50.8238L41.8423 55.4242C42.0614 54.5114 41.8423 53.7812 40.6375 52.978L33.3352 47.3187C32.3129 46.5155 31.4732 46.2964 30.6699 46.7346L34.321 42.0977C34.0655 43.0104 34.321 43.7772 35.4894 44.5804Z" fill="#164194"/>
<path d="M54.5106 41.8784C53.7439 42.5721 52.7946 44.0691 51.1516 45.5295C50.5045 46.3234 49.6887 46.9634 48.7636 47.4028C47.8384 47.8423 46.827 48.0703 45.8027 48.0703C44.7785 48.0703 43.7671 47.8423 42.8419 47.4028C41.9167 46.9634 41.101 46.3234 40.4538 45.5295C39.7165 44.7321 39.1588 43.7858 38.8183 42.7544C38.4779 41.7231 38.3626 40.6307 38.4802 39.5511C38.5979 38.4714 38.9458 37.4295 39.5004 36.4957C40.055 35.5619 40.8034 34.7579 41.6952 34.138C43.0021 33.0655 44.3672 32.066 45.7845 31.1441C45.9685 30.9583 46.128 30.7497 46.2591 30.5234L47.7196 33.9555C46.1565 34.1855 44.696 34.8713 43.5208 35.9271C43.0007 36.3337 42.5728 36.846 42.265 37.43C41.9573 38.014 41.7768 38.6566 41.7354 39.3155C41.694 39.9743 41.7927 40.6345 42.0249 41.2524C42.2571 41.8704 42.6176 42.4322 43.0826 42.9007C43.4591 43.4341 43.9528 43.8741 44.5258 44.1869C45.0988 44.4998 45.7359 44.6771 46.3882 44.7053C47.0404 44.7335 47.6905 44.6119 48.2884 44.3497C48.8863 44.0875 49.4161 43.6917 49.8372 43.1928C51.1917 41.8658 52.2169 40.2403 52.8311 38.4464L55.4234 41.2577C55.0821 41.3699 54.7703 41.5571 54.5106 41.8054V41.8784Z" fill="#164194"/>
<path d="M55.5335 38.1905L51.1887 30.012C50.6045 28.8801 49.9108 28.369 48.998 28.442L62.1055 21.5049C62.0298 21.7048 62.0298 21.9256 62.1055 22.1256C62.1055 22.3446 63.0548 23.0384 64.3327 24.3893C62.5506 24.3139 60.782 24.7307 59.2212 25.5941L54.2557 28.2594L55.7891 31.1438L61.3023 28.2594C61.8793 27.95 62.3884 27.5279 62.7993 27.0181V29.3183C62.7871 29.6199 62.6921 29.9124 62.5246 30.1636C62.3572 30.4148 62.1237 30.615 61.85 30.7422L57.0305 33.298L58.71 36.4379L63.9676 33.6631C65.7466 32.8216 67.1789 31.3894 68.0203 29.6104C68.0912 30.8372 68.2498 32.0573 68.495 33.2615C68.495 33.2615 68.7506 33.5536 69.0061 33.6996L55.7526 40.7097C56.0376 40.317 56.1911 39.8441 56.1911 39.3588C56.1911 38.8735 56.0376 38.4007 55.7526 38.0079L55.5335 38.1905Z" fill="#164194"/>
<path d="M75.1767 29.9753C77.4769 29.3911 78.4627 28.5148 78.1706 27.31C77.8785 26.1051 76.199 26.1781 73.3876 26.4702C69.919 26.8353 67.9474 25.9956 67.4363 23.8779C66.9251 21.7603 68.6777 18.9854 72.6209 18.0361C75.1036 17.4155 77.0752 17.4155 78.1341 17.1599C78.3293 17.1051 78.5143 17.0187 78.6817 16.9043V20.5554C76.8583 20.0189 74.9189 20.0189 73.0955 20.5554C71.416 20.957 70.6493 21.6873 70.8683 22.5635C71.0874 23.4398 72.7669 23.3668 75.7973 23.2207C78.8278 23.0747 81.128 23.7319 81.7122 26.1051C82.4059 29.0625 80.3612 31.3992 75.7973 32.4946C73.7162 33.0057 72.1462 33.0787 71.27 33.2613C71.0227 33.3331 70.7884 33.444 70.5762 33.5899L68.7872 29.9388C70.8866 30.4483 73.0773 30.4483 75.1767 29.9388V29.9753Z" fill="#164194"/>
<path d="M86.0565 28.7705C86.0565 28.7705 86.0565 28.4054 86.0565 27.9672L85.6549 18.7664H84.9612C83.1542 18.7266 81.3758 19.222 79.8496 20.1904C80.2512 18.3648 80.6163 17.379 80.6163 17.0869C80.5931 16.8814 80.5033 16.6891 80.3608 16.5393L94.2715 15.9551C94.1415 16.1234 94.0651 16.3269 94.0524 16.5393C94.0524 16.7948 94.4906 17.7806 95.0747 19.5332C93.4598 18.7256 91.6518 18.3843 89.8537 18.5474H88.9774L89.3425 27.7482C89.3227 28.2447 89.4421 28.7369 89.6873 29.1692C89.9325 29.6014 90.2936 29.9566 90.7299 30.1944L84.8516 30.4135C85.1706 30.251 85.4403 30.0063 85.6329 29.7046C85.8254 29.4029 85.9339 29.0552 85.947 28.6975L86.0565 28.7705Z" fill="#164194"/>
<path d="M94.9295 27.7123L96.609 18.5845C96.8646 17.3431 96.609 16.5033 95.8788 15.9922L110.483 18.6575C110.332 18.797 110.219 18.973 110.155 19.1687C110.155 19.4607 110.155 20.4831 110.447 22.3451C109.072 21.1766 107.383 20.4399 105.591 20.2275L99.9316 19.2052L99.3109 22.4547L105.445 23.5865C106.083 23.7183 106.742 23.7183 107.38 23.5865L105.846 25.339C105.647 25.5583 105.394 25.721 105.112 25.8108C104.83 25.9005 104.529 25.9141 104.24 25.8502L98.8727 24.8644L98.252 28.5155L104.094 29.5743C106.01 30.0464 108.032 29.8131 109.79 28.9171C109.079 29.947 108.432 31.02 107.854 32.1301C107.795 32.3327 107.795 32.5482 107.854 32.7508L93.25 30.049C94.1263 29.8664 94.6009 29.1362 94.82 27.8948L94.9295 27.7123Z" fill="#164194"/>
<path d="M119.903 29.2462C121.947 30.232 123.006 30.232 123.554 28.8445C124.101 27.4571 123.554 26.6904 121.509 25.7046L118.187 24.2076L116.471 27.8587L119.866 29.5017L119.903 29.2462ZM114.207 35.2705L108.949 32.8973C109.862 32.8973 110.519 32.3496 111.067 31.1813L115.12 22.8932C115.399 22.4983 115.55 22.0263 115.55 21.5423C115.55 21.0583 115.399 20.5863 115.12 20.1914L122.604 23.8425C123.911 24.4117 125.138 25.148 126.255 26.0332C126.874 26.6159 127.281 27.3875 127.413 28.2268C127.545 29.0661 127.395 29.9256 126.986 30.6701C126.48 31.5297 125.678 32.1748 124.73 32.4841C123.781 32.7934 122.753 32.7456 121.838 32.3496C122.557 33.2589 122.978 34.3684 123.043 35.5261C123.043 37.1393 123.392 38.7334 124.065 40.1995L118.625 37.5342C118.78 37.5031 118.925 37.4379 119.052 37.3431C119.178 37.2483 119.282 37.1265 119.355 36.9865C119.693 35.9422 119.693 34.8179 119.355 33.7735C119.227 33.1213 118.945 32.5091 118.532 31.9882C118.119 31.4673 117.588 31.0529 116.982 30.7796L115.485 30.0494L114.243 32.6782C113.955 33.0766 113.8 33.5557 113.8 34.0474C113.8 34.539 113.955 35.0181 114.243 35.4165L114.207 35.2705Z" fill="#164194"/>
<path d="M136.114 51.1519C135.347 50.4217 133.814 49.5819 132.244 48.012C131.417 47.4118 130.733 46.6354 130.243 45.739C129.753 44.8426 129.468 43.8484 129.408 42.8284C129.349 41.8083 129.517 40.7878 129.9 39.8405C130.283 38.8932 130.871 38.0428 131.623 37.3507C132.379 36.5673 133.295 35.9557 134.309 35.5574C135.322 35.1592 136.41 34.9835 137.497 35.0424C138.584 35.1012 139.646 35.3933 140.611 35.8986C141.576 36.404 142.42 37.1109 143.088 37.9714C144.804 39.6509 145.607 41.2574 146.264 41.8781C146.463 42.062 146.684 42.2213 146.921 42.3527L143.562 43.9592C143.267 42.4149 142.502 40.9994 141.372 39.9065C140.936 39.41 140.4 39.0123 139.799 38.7397C139.197 38.4672 138.545 38.3262 137.885 38.3262C137.225 38.3262 136.572 38.4672 135.971 38.7397C135.369 39.0123 134.833 39.41 134.398 39.9065C133.876 40.3052 133.452 40.8189 133.161 41.4079C132.87 41.9968 132.718 42.645 132.718 43.302C132.718 43.9591 132.87 44.6073 133.161 45.1962C133.452 45.7851 133.876 46.2989 134.398 46.6976C135.795 47.9768 137.47 48.9142 139.29 49.4359L136.625 52.1377C136.478 51.8164 136.281 51.5206 136.041 51.2614L136.114 51.1519Z" fill="#164194"/>
<path d="M149.55 50.4589L142.029 55.7165C140.97 56.4468 140.532 57.177 140.714 58.0898L137.355 53.3068C138.159 53.7814 138.962 53.5989 140.057 52.8687L147.579 47.5015C148.637 46.7348 149.076 46.0411 148.893 45.0918L152.252 49.9113C151.449 49.4366 150.609 49.5827 149.55 50.3494V50.4589Z" fill="#164194"/>
<path d="M144.694 61.814L145.387 61.4854L153.748 57.5057L153.42 56.885C152.747 55.2207 151.605 53.7875 150.134 52.7592C151.923 52.3941 152.982 52.3576 153.274 52.2116C153.442 52.1014 153.58 51.9507 153.675 51.7734L159.663 64.3698C159.463 64.2941 159.243 64.2941 159.043 64.3698C158.787 64.3698 158.093 65.2826 156.669 66.4874C156.799 64.6863 156.406 62.8861 155.537 61.3028L155.209 60.6456L146.884 64.6254C146.419 64.7833 146.011 65.0758 145.712 65.4658C145.413 65.8557 145.237 66.3257 145.205 66.816L142.686 61.5219C142.956 61.7596 143.29 61.9137 143.646 61.9655C144.003 62.0174 144.367 61.9647 144.694 61.814Z" fill="#164194"/>
<path d="M162.183 78.5722C162.548 78.5722 162.731 78.2801 162.914 77.8785L164.082 83.3917C163.036 82.7393 161.937 82.1774 160.796 81.7121L153.494 78.061L151.34 78.4992C150.062 78.7547 149.331 79.3389 149.185 80.2152L147.98 74.4464C148.565 75.2497 149.368 75.3592 150.609 75.1036L152.727 74.6655L158.715 68.276C159.56 67.5604 160.192 66.6255 160.54 65.5742L161.818 71.6351C161.711 71.4904 161.565 71.3793 161.397 71.3147C161.228 71.25 161.045 71.2345 160.869 71.27C160.399 71.3955 159.986 71.6792 159.701 72.0732L156.049 76.0164L161.271 78.2436C161.645 78.4233 162.065 78.4869 162.475 78.4261L162.183 78.5722Z" fill="#164194"/>
<path d="M121.546 66.8515V66.669V66.3404C121.584 64.14 122.055 61.9687 122.934 59.9509C123.415 59.1086 123.697 58.1678 123.761 57.1999C123.824 56.2321 123.666 55.2625 123.299 54.3647C123.288 54.2067 123.288 54.0481 123.299 53.8901C123.087 53.1473 122.806 52.426 122.459 51.7359L122.094 51.1152H121.437C115.063 53.2612 109.446 57.2046 105.262 62.4702L103.254 64.0037C103.271 63.8948 103.271 63.7839 103.254 63.6751C103.153 63.2809 102.952 62.9193 102.671 62.6252C102.389 62.3311 102.037 62.1142 101.648 61.9956C97.8445 60.7358 93.8609 60.1069 89.8546 60.1335C85.5021 60.0818 81.1868 60.9399 77.1852 62.6528L76.3455 63.0544L76.6011 63.529C71.453 59.1112 61.7775 51.1883 59.0392 51.1883H58.528L58.309 51.4803C57.9349 52.0146 57.6512 52.6066 57.4692 53.2329L57.2501 53.4885C56.3374 54.4012 56.0818 55.4601 57.2501 58.6365C58.2095 60.965 58.8007 63.4285 59.0027 65.9388C59.3048 67.8805 59.8698 69.7721 60.6822 71.5615C60.9013 72.4743 62.4347 78.8637 63.165 80.4702C63.4343 80.9569 63.505 81.529 63.362 82.0667C63.2191 82.6043 62.8737 83.0658 62.3982 83.3546H62.1792C61.4467 83.7173 60.7986 84.2297 60.2766 84.8586C59.7545 85.4875 59.3703 86.219 59.1487 87.0057C59.1007 87.7558 59.2237 88.5071 59.5083 89.2028C59.7929 89.8985 60.2317 90.5205 60.7917 91.0219C61.0353 91.5049 61.2428 92.0052 61.4124 92.5189C60.9378 93.2856 61.4124 93.7237 61.8871 94.1984L62.1426 94.454C62.5785 94.8669 63.0557 95.2339 63.5666 95.5493C64.0741 95.8376 64.5206 96.222 64.881 96.6811C65.0518 96.8826 65.1988 97.1031 65.3191 97.3383C65.6378 97.996 66.1466 98.543 66.7796 98.9083V99.8576C66.6571 101.07 66.9191 102.29 67.5286 103.345C68.138 104.4 69.0639 105.236 70.1751 105.736L72.3292 106.685C73.6436 107.269 73.6436 107.269 74.0818 108.036C75.0388 109.894 76.3835 111.525 78.025 112.819C79.1676 113.681 80.1135 114.776 80.7998 116.032L82.1873 116.434C82.2732 116.347 82.3469 116.248 82.4063 116.142C81.9546 117.135 81.6708 118.196 81.5666 119.282C81.5666 120.559 82.0777 123.48 86.7147 124.211L87.956 125.087L89.4895 126.401H89.7086H90.9134L92.0088 126.146H92.3009L92.4834 125.927L93.1771 125.05L93.7613 124.32C95.0071 124.21 96.1906 123.727 97.1568 122.933C98.1239 121.91 98.804 120.651 99.1284 119.282C99.1284 119.026 99.1284 117.821 98.8729 117.127L98.3617 115.776C98.5188 116.019 98.6533 116.276 98.7633 116.543L99.2745 118.077L100.26 116.835L102.524 114.06L104.715 111.979C105.304 111.379 105.775 110.673 106.102 109.898L106.358 109.351C107.924 107.919 109.667 106.692 111.542 105.699C112.606 105.164 113.477 104.31 114.033 103.256C114.589 102.203 114.803 101.002 114.646 99.8211V99.456L114.536 99.0179C114.796 98.4288 115.004 97.8179 115.157 97.1923C116.85 96.207 118.388 94.9766 119.721 93.5412L120.049 93.1396V92.6649C120.049 92.6649 119.465 91.168 121.108 89.1964C122.751 87.2248 122.897 86.7501 122.605 86.0929C122.54 85.9332 122.436 85.7925 122.302 85.684C122.168 85.5754 122.008 85.5026 121.838 85.4722C120.501 84.6263 119.347 83.5215 118.443 82.2227C118.458 82.0527 118.458 81.8816 118.443 81.7116C117.99 80.2155 118.147 78.601 118.881 77.2207C119.55 76.1894 119.893 74.981 119.867 73.7521C119.843 73.6193 119.843 73.4833 119.867 73.3505C120.349 71.1544 120.946 68.985 121.656 66.8515H121.546Z" fill="#FBBA00"/>
<path d="M95.0393 109.57L95.8061 111.943L96.1712 115.12L94.0901 116.69L86.5688 116.47L83.6844 113.915L84.9623 112.819L85.6925 109.57C76.2726 102.523 72.1469 101.793 72.1469 101.793C70.3659 101.029 68.4847 100.525 66.5607 100.296C66.4382 101.508 66.7002 102.728 67.3096 103.783C67.9191 104.838 68.845 105.675 69.9562 106.174L72.1103 107.124C73.4247 107.708 73.4247 107.708 73.8629 108.475C74.9337 110.196 76.3512 111.676 78.0252 112.819C79.1678 113.681 80.1137 114.776 80.8 116.032L82.1874 116.434C82.2733 116.347 82.347 116.249 82.4065 116.142C81.9548 117.135 81.671 118.196 81.5667 119.282C81.5667 120.56 82.0779 123.481 86.7148 124.211L87.9562 125.087L89.4896 126.402H89.7087H90.9136L92.0089 126.146H92.301L92.4836 125.927L93.1773 125.051L93.7615 124.32C95.0072 124.211 96.1908 123.727 97.157 122.933C98.124 121.911 98.8041 120.651 99.1286 119.282C99.1286 119.026 99.1286 117.821 98.873 117.128L98.3619 115.777C98.519 116.019 98.6534 116.276 98.7635 116.544L99.2746 118.077L100.26 116.836L102.524 114.061L104.715 111.98C105.304 111.379 105.775 110.673 106.102 109.898L106.358 109.351C107.925 107.919 109.667 106.693 111.542 105.7C112.599 105.156 113.464 104.3 114.019 103.249C114.574 102.197 114.793 101.001 114.646 99.8214L114.536 98.6165V98.3975L111.907 99.8214C94.9663 106.211 95.0393 109.57 95.0393 109.57Z" fill="white"/>
<path d="M72.8027 90.5474C72.8027 90.5474 73.3139 89.8537 74.5918 90.9125C76.5134 92.7337 79.0297 93.7973 81.675 93.9064C81.675 93.9064 82.2956 94.8192 80.2145 94.7462C79.3325 94.7373 78.4529 94.6518 77.5857 94.4906C76.1406 93.6515 74.8451 92.578 73.752 91.3141C73.5074 90.9979 73.1783 90.7574 72.8027 90.6204V90.5474Z" fill="#164194"/>
<path d="M91.8995 70.759L90.9868 69.9923C90.7099 69.2846 90.6218 68.5171 90.7312 67.7651C92.0709 66.4635 93.5967 65.3684 95.2586 64.5156C94.7657 65.4614 94.0965 66.3041 93.287 66.9984C92.6867 67.388 92.1864 67.9133 91.8265 68.5319C91.6628 69.2652 91.6628 70.0257 91.8265 70.759H91.8995Z" fill="#164194"/>
<path d="M88.9773 70.5028C88.9773 70.5028 90.1091 68.6407 89.5249 68.093L85.3262 64.7705C85.3262 64.7705 85.3262 66.5596 86.2755 67.1802C87.2247 67.8009 87.9185 67.7644 87.9915 68.2026V68.6407C87.9271 68.7713 87.8936 68.915 87.8936 69.0606C87.8936 69.2062 87.9271 69.3499 87.9915 69.4805C88.3201 69.9186 88.8312 70.5028 88.8312 70.5028H88.9773Z" fill="#164194"/>
<path d="M98.3237 81.1643C100.226 80.1288 102.203 79.2379 104.239 78.499C105.772 78.1339 104.239 77.7688 103.91 77.6592C103.448 77.6175 102.984 77.6175 102.522 77.6592L101.099 78.2434L100.405 78.6085L99.346 79.4118L98.5428 79.7404L98.0681 79.9959C98.0681 79.9959 97.63 81.6024 98.3237 81.2738V81.1643Z" fill="#164194"/>
<path d="M76.0898 78.0247C76.0898 77.4406 76.674 78.2438 77.1122 78.4994C77.5503 78.755 79.814 79.4122 79.814 79.4122L80.5077 79.8868L81.6761 80.7996L81.4205 81.3838C81.0533 81.3864 80.695 81.2713 80.3982 81.0552C80.0331 80.6901 78.9012 79.9233 78.8282 80.1424C78.7552 80.3615 78.0614 80.1424 77.4773 79.7773C77.1234 79.6164 76.813 79.3735 76.5717 79.0687C76.3304 78.764 76.1652 78.4061 76.0898 78.0247Z" fill="#164194"/>
<path d="M71.5261 68.9326C71.3361 68.5866 71.189 68.2188 71.088 67.8372V67.5086C70.8629 66.7342 70.7161 65.9391 70.6499 65.1354C70.4852 63.8216 69.865 62.6071 68.8973 61.7033L68.6782 61.4478C68.5863 61.2759 68.4563 61.1273 68.2981 61.0133C68.1398 60.8994 67.9577 60.8232 67.7655 60.7906C67.5464 60.7906 67.1083 60.7906 66.0494 59.6587C64.7083 58.4003 63.2675 57.2525 61.7411 56.2267L59.7695 54.8027L60.5363 57.0664C60.7979 57.8327 61.0172 58.6128 61.1935 59.4031C61.1935 59.6587 61.1935 60.1699 61.1935 61.0096C61.2902 61.6875 61.3511 62.37 61.376 63.0543C61.376 63.748 61.8507 66.7054 61.9602 67.4721V67.7277C62.3526 68.5433 62.7914 69.3356 63.2746 70.1009C63.492 70.3515 63.6427 70.6529 63.7127 70.9772C63.4151 72.0265 63.4794 73.1454 63.8953 74.1536C64.3334 75.6141 65.1367 75.9062 65.7208 75.9062C66.1293 75.8531 66.5222 75.7152 66.8743 75.5014C67.2264 75.2877 67.5299 75.0027 67.7655 74.6648L68.6052 73.7155L68.8608 73.4234C69.2989 72.9488 70.1387 72.109 70.9785 71.3788C71.2345 71.2012 71.4466 70.9674 71.5984 70.6953C71.7503 70.4232 71.838 70.12 71.8547 69.8088C71.8449 69.3526 71.6772 68.9138 71.3801 68.5674L71.5261 68.9326Z" fill="white"/>
<path d="M106.539 89.3429C106.381 89.3932 106.247 89.4981 106.16 89.6387C106.073 89.7792 106.039 89.9463 106.064 90.1097C106.064 90.8034 103.289 93.1036 102.413 93.5052C101.472 93.8118 100.473 93.8992 99.4923 93.7608C98.543 93.7608 98.2144 95.0387 98.2144 95.0387C97.9526 95.5304 97.7327 96.0434 97.5572 96.5721C97.2462 98.2189 96.8192 99.8416 96.2793 101.428C95.9044 103.448 96.0939 105.533 96.827 107.452C97.1846 108.304 97.6378 109.113 98.1779 109.862C98.4297 110.628 98.5531 111.43 98.543 112.235L99.1637 110.008C99.1637 110.008 99.1637 109.205 98.9446 108.73C98.7256 108.256 98.1779 107.672 97.9588 106.868C97.607 105.671 97.3386 104.451 97.1556 103.217C97.1556 102.633 97.7398 99.566 97.8493 98.8358C98.2045 97.7454 98.4372 96.6188 98.543 95.4768V94.9656C100.034 95.096 101.534 94.8501 102.906 94.2505C104.277 93.6509 105.476 92.7167 106.393 91.5336C106.778 90.8054 107.072 90.0329 107.269 89.2334L106.539 89.3429Z" fill="#164194"/>
<path d="M118.478 55.9713C117.45 56.9386 116.296 57.7616 115.046 58.4175C112.673 59.8415 109.934 61.448 109.715 64.807V65.0991V65.3546C110.263 66.1214 109.971 66.7421 109.35 67.8009C108.988 68.324 108.717 68.9041 108.547 69.5169V70.0646L108.985 70.3932C109.622 70.9083 110.209 71.4829 110.738 72.1092C111.219 72.8263 111.838 73.4407 112.559 73.917C113.28 74.3933 114.088 74.722 114.936 74.884H115.411L115.703 74.4824C116.561 73.1541 117.087 71.6389 117.237 70.0646C117.37 68.7697 117.795 67.5216 118.478 66.4135L118.697 66.1214V65.7928C118.577 64.0049 118.788 62.2103 119.318 60.4987C119.663 59.2069 119.895 57.8875 120.011 56.5555V54.2188L118.441 55.9348L118.478 55.9713Z" fill="white"/>
<path d="M82.2599 96.2432C82.552 99.8943 85.911 102.669 83.6838 106.284C83.9394 108.328 82.0043 109.351 81.4567 111.067C80.5804 111.067 80.982 109.643 81.0915 109.059C82.1509 107.36 82.7604 105.419 82.8626 103.42C82.9648 101.421 82.5563 99.4284 81.6757 97.6306C81.6757 97.0464 81.6757 96.3892 82.3694 96.2432" fill="#164194"/>
<path d="M117.858 65.7566C116.069 68.2394 116.836 71.6714 115.046 74.1177C112.564 73.8256 111.395 71.1968 109.424 69.6633C109.825 68.0203 111.834 66.5964 110.519 64.6613C110.848 59.9513 116.361 59.1481 119.172 56.0812C118.438 59.259 117.998 62.4979 117.858 65.7566ZM119.902 53.781C116.763 56.4828 112.856 57.4321 109.971 60.7181C107.087 63.2373 110.446 67.5091 106.32 69.4807C108.899 72.2838 111.833 74.7386 115.046 76.783C117.493 75.3225 117.566 72.5477 117.712 70.0284C120.195 65.6106 118.953 60.426 120.925 55.716C120.523 55.0588 120.925 53.4889 119.756 53.781H119.902Z" fill="#164194"/>
<path d="M70.7217 71.3065C69.8133 72.0608 68.9592 72.8782 68.1659 73.7528C67.8289 74.0867 67.5119 74.4402 67.2167 74.8116C67.2167 74.8116 65.5006 77.1118 64.6609 74.556C63.8211 72.0003 64.6609 71.8907 64.6609 71.197C64.5441 70.7182 64.3051 70.2779 63.9672 69.9191C63.6386 69.4445 62.6893 67.5824 62.6893 67.5824C62.6893 67.5824 62.1051 63.9313 62.1051 63.1646C62.1051 62.3978 61.74 59.9151 61.74 59.5134C61.5576 58.5974 61.3136 57.6948 61.0098 56.8116C62.5458 57.8265 63.9986 58.9619 65.3546 60.2072C67.3262 62.0692 67.6913 61.3755 67.9104 61.8502C68.9449 62.7525 69.6511 63.9723 69.9185 65.3187C69.9647 66.3162 70.1617 67.301 70.5027 68.2396C70.6564 68.7183 70.8518 69.1826 71.0868 69.627C71.0868 69.627 71.9996 70.4303 70.8313 71.3796L70.7217 71.3065ZM71.9996 68.2761C71.7805 67.6919 71.1964 68.2761 71.4154 66.5601C71.9266 62.909 71.4154 64.552 69.5534 61.3025C69.0347 60.708 68.5818 60.0592 68.2025 59.3674C68.2025 58.9658 67.8008 59.1848 67.2167 58.8562C66.6325 58.5276 66.3039 58.3816 65.5006 57.907C64.6914 57.4148 63.9746 56.7845 63.383 56.0449C62.3933 55.2447 61.3003 54.5815 60.1335 54.0733C60.004 53.9696 59.843 53.9131 59.6771 53.9131C59.5112 53.9131 59.3502 53.9696 59.2207 54.0733C58.6365 54.0733 59.4398 56.5195 59.4398 56.9942C59.5837 58.9806 59.852 60.9561 60.243 62.909C60.6238 65.2919 61.2102 67.6374 61.9956 69.9191C62.543 71.3704 62.8632 72.8975 62.9449 74.4465C62.9622 75.1884 63.1693 75.9135 63.5464 76.5526C63.9235 77.1918 64.458 77.7237 65.099 78.0976C66.4888 76.7691 67.978 75.5486 69.5534 74.4465C70.5194 73.8329 71.3214 72.9933 71.8901 72.0003C72.5838 71.051 72.5838 71.051 73.168 70.1382C73.7521 69.2254 72.2552 69.0794 71.9996 68.4952V68.2761Z" fill="#164194"/>
<path d="M81.6756 91.3144C81.6756 91.8373 81.4679 92.3388 81.0982 92.7085C80.7284 93.0783 80.2269 93.286 79.704 93.286C79.1811 93.286 78.6796 93.0783 78.3099 92.7085C77.9402 92.3388 77.7324 91.8373 77.7324 91.3144C77.7324 90.7915 77.9402 90.29 78.3099 89.9202C78.6796 89.5505 79.1811 89.3428 79.704 89.3428C80.2269 89.3428 80.7284 89.5505 81.0982 89.9202C81.4679 90.29 81.6756 90.7915 81.6756 91.3144Z" fill="#164194"/>
<path d="M79.1196 90.5117C79.1246 90.5674 79.118 90.6236 79.1001 90.6766C79.0822 90.7296 79.0534 90.7783 79.0156 90.8196C78.9778 90.8608 78.9317 90.8937 78.8804 90.9162C78.8291 90.9386 78.7737 90.95 78.7177 90.9498C78.6014 90.9498 78.4899 90.9037 78.4077 90.8215C78.3255 90.7393 78.2793 90.6279 78.2793 90.5117C78.2791 90.4557 78.2905 90.4003 78.313 90.3491C78.3354 90.2978 78.3683 90.2518 78.4096 90.214C78.4509 90.1761 78.4996 90.1474 78.5527 90.1295C78.6057 90.1116 78.6619 90.105 78.7177 90.1101C78.8243 90.1101 78.9265 90.1524 79.0019 90.2277C79.0772 90.303 79.1196 90.4052 79.1196 90.5117Z" fill="white"/>
<path d="M103.218 91.3145C103.256 91.5934 103.234 91.8773 103.154 92.147C103.073 92.4167 102.935 92.666 102.75 92.8782C102.565 93.0904 102.337 93.2604 102.081 93.3769C101.824 93.4935 101.546 93.5538 101.265 93.5538C100.983 93.5538 100.705 93.4935 100.448 93.3769C100.192 93.2604 99.9639 93.0904 99.7788 92.8782C99.5937 92.666 99.4563 92.4167 99.3756 92.147C99.2949 91.8773 99.273 91.5934 99.3112 91.3145C99.273 91.0356 99.2949 90.7517 99.3756 90.482C99.4563 90.2122 99.5937 89.9629 99.7788 89.7508C99.9639 89.5386 100.192 89.3685 100.448 89.252C100.705 89.1355 100.983 89.0752 101.265 89.0752C101.546 89.0752 101.824 89.1355 102.081 89.252C102.337 89.3685 102.565 89.5386 102.75 89.7508C102.935 89.9629 103.073 90.2122 103.154 90.482C103.234 90.7517 103.256 91.0356 103.218 91.3145Z" fill="#164194"/>
<path d="M75.2129 87.8459C73.2724 88.0451 71.321 88.1182 69.3711 88.0649C71.2189 88.7384 73.1732 89.0724 75.1398 89.0507C76.3292 88.7322 77.5688 88.6455 78.791 88.7951C81.9309 89.1968 83.3914 92.4463 85.8741 93.7242L86.2757 92.4828C85.3056 90.5282 83.6674 88.9859 81.658 88.1353C79.6486 87.2846 77.401 87.1819 75.3224 87.8459H75.2129Z" fill="#164194"/>
<path d="M120.268 88.5397C119.689 89.0844 119.27 89.7775 119.058 90.5436C118.845 91.3097 118.847 92.1194 119.063 92.8845C116.797 95.2506 114.061 97.1161 111.03 98.3612C110.702 98.3612 110.118 99.1279 109.752 99.4565L107.635 101.866H108.475L108.183 102.962C108.183 102.962 109.424 101.538 109.862 100.917C110.3 100.296 111.395 100.661 111.395 100.661L112.6 100.077L113.367 99.5661C113.623 99.3835 114.024 99.5661 114.024 99.5661C114.155 100.564 113.972 101.578 113.501 102.468C113.03 103.357 112.294 104.078 111.395 104.532C109.391 105.607 107.547 106.959 105.919 108.548C105.541 109.451 105.023 110.288 104.385 111.031L102.158 113.148L99.931 116.142C99.7702 115.67 99.5361 115.227 99.2373 114.828C98.6531 113.915 98.9817 113.988 98.9087 113.477C98.7779 112.869 98.5432 112.289 98.215 111.761C97.8133 110.994 97.2657 111.432 96.9371 111.177C96.505 110.643 96.2957 109.963 96.3529 109.278C96.3529 108.438 94.3083 98.6898 94.1257 97.8501V96.9738C95.0916 95.0262 96.3201 93.2203 97.7768 91.6067C98.2819 91.0251 98.8585 90.5099 99.4929 90.0732C100.091 89.684 100.761 89.4188 101.463 89.2934C102.166 89.1679 102.886 89.1848 103.582 89.343C104.511 89.6076 105.466 89.7669 106.43 89.8176C107.371 89.8518 108.308 89.6763 109.174 89.3037C110.039 88.9311 110.81 88.3709 111.432 87.6634C110.118 87.9555 107.525 88.2111 107.525 88.2111C95.075 87.1158 98.1419 88.7588 98.1419 88.7588C96.2523 89.7248 94.8121 91.3875 94.1257 93.3957L92.9209 95.0022C92.6388 95.9985 92.552 97.0399 92.6653 98.0691C92.6653 98.5803 92.9209 99.9677 92.9209 99.9677C92.6514 103.709 93.2642 107.46 94.7099 110.921C94.7099 111.213 95.6227 114.937 95.6227 114.937H96.0973L96.791 114.244H97.1927V114.682L98.1419 117.237C98.1419 117.237 98.3975 119.027 98.3975 119.282C98.0751 120.41 97.5149 121.456 96.7545 122.349C96.1692 122.866 95.4738 123.244 94.721 123.452C93.9683 123.661 93.1779 123.696 92.4097 123.554H92.1906H91.2779H90.8032L90.4381 123.189V122.714V121.911C91.6012 121.675 92.6471 121.045 93.3989 120.127C94.1507 119.209 94.5622 118.059 94.5639 116.872C94.5639 116.215 93.5415 115.704 93.5415 115.704C91.3313 115.095 88.9973 115.095 86.787 115.704C85.3265 116.033 85.8377 118.077 85.8377 118.077C85.8377 119.319 88.2474 121.254 88.2474 121.254C88.7272 121.634 89.3154 121.851 89.9269 121.874V122.313C89.8494 122.627 89.7392 122.933 89.5983 123.225C89.4158 123.554 88.7221 123.7 88.284 123.773H87.8823C83.5375 123.335 82.6977 121.144 82.6977 119.574C83.0095 117.857 83.5756 116.196 84.3773 114.645L84.8884 115.047C85.2879 115.105 85.6937 115.105 86.0933 115.047C86.3489 115.047 86.0933 114.426 86.0933 114.171C85.9326 113.924 85.7863 113.668 85.6551 113.404C87.6267 111.359 88.8316 97.777 88.9046 97.4484C88.9791 97.1364 88.9791 96.8112 88.9046 96.4991L88.6491 95.915L88.0649 94.9657C88.0649 94.9657 86.9695 94.0894 86.4219 94.345C85.8742 94.6006 86.9695 95.988 86.9695 95.988L87.5537 96.7547C86.9789 98.5463 86.5994 100.395 86.4219 102.268L85.5091 108.146C85.0358 109.231 84.6571 110.355 84.3773 111.505C84.0487 113.112 82.5152 111.907 82.5152 111.907C82.6789 112.591 82.6884 113.303 82.5432 113.991C82.398 114.679 82.1016 115.327 81.6754 115.887C80.9628 114.418 79.8808 113.16 78.5355 112.235C76.9423 111.157 75.5979 109.75 74.5923 108.11C73.8255 106.759 73.7525 107.087 70.3205 105.481C69.3777 105.063 68.5911 104.358 68.0731 103.466C67.5551 102.574 67.3322 101.541 67.4361 100.515C67.4361 100.515 69.8093 101.465 70.1744 101.538C71.0439 101.776 71.8975 102.068 72.7302 102.414C73.3144 102.67 75.8702 104.276 73.3144 101.465C70.7586 98.6533 69.4807 99.5661 67.8377 98.9819C66.1947 98.3977 66.3042 97.704 65.5375 96.6817C64.7708 95.6594 63.6754 95.2943 62.7261 94.3815C61.7769 93.4687 62.0324 93.7608 62.215 93.2497C62.3975 92.7385 61.4483 91.0225 61.4483 91.0225C57.7971 87.1888 61.4483 85.1442 62.7992 84.3774C63.4742 83.9875 63.968 83.3468 64.1732 82.5947C64.3783 81.8426 64.2781 81.0399 63.8945 80.3612C63.1278 78.5722 61.4117 71.489 61.4117 71.489C60.6381 69.7517 60.0861 67.924 59.7687 66.0488C59.5728 63.4395 58.9691 60.877 57.9797 58.4545C56.4462 54.1097 57.9797 54.8034 58.2353 53.5985C58.3998 53.0828 58.6332 52.5915 58.929 52.1381C62.1055 52.1381 78.7545 66.7426 78.7545 66.7426C78.4715 65.6604 78.0545 64.6179 77.5132 63.6391C85.1284 60.6485 93.5498 60.416 101.318 62.9819C103.692 63.9312 101.574 66.633 101.574 66.633L105.919 63.3835C110.029 58.2912 115.517 54.4888 121.728 52.4302C122.054 53.0576 122.312 53.7187 122.495 54.4018C122.896 55.2394 123.105 56.1565 123.105 57.0854C123.105 58.0143 122.896 58.9313 122.495 59.7689C121.529 61.9182 121.007 64.2406 120.961 66.5965C120.119 68.6966 119.436 70.8568 118.917 73.059C118.971 74.3434 118.64 75.6146 117.967 76.7101C117.094 78.4296 116.937 80.4246 117.529 82.2598C117.785 83.6472 121.473 86.203 121.473 86.203C121.473 86.203 122.312 85.9474 120.268 88.4302V88.5397ZM92.0811 125.525L90.9858 125.781H90.219L88.503 124.759C89.0966 124.678 89.6984 124.678 90.2921 124.759C91.4969 124.759 92.4097 124.759 92.6653 124.759L91.9716 125.599L92.0811 125.525ZM121.29 83.3186C117.639 80.5803 119.83 78.3531 120.633 76.8196C121.328 75.1603 121.735 73.3947 121.838 71.5985C121.838 70.8318 122.02 67.9474 122.933 66.9981C123.846 66.0488 124.065 61.5215 124.503 60.4261C124.834 59.3469 125.03 58.2309 125.087 57.1036C125.047 56.4105 125.047 55.7156 125.087 55.0225C124.314 52.8418 123.362 50.729 122.239 48.7061C118.15 49.1442 107.635 58.1259 106.686 59.2213C106.062 59.9088 105.35 60.5104 104.568 61.0103C99.7968 59.8056 94.8823 59.265 89.9635 59.4038C85.2671 59.4498 80.5992 60.1377 76.0892 61.4484C71.2252 56.1695 65.218 52.0731 58.5274 49.4728C54.1825 53.8541 57.2495 64.2598 57.6876 65.2091C58.5182 66.5776 58.9834 68.1366 59.0385 69.7365C59.3667 72.3855 59.8791 75.0085 60.572 77.5864C60.9363 79.0046 61.5149 80.359 62.288 81.6026C62.288 81.6026 61.3752 82.6249 59.7322 84.2679C58.0892 85.9109 58.7099 85.1077 57.7606 85.5458C57.4734 85.7192 57.2269 85.9525 57.0379 86.2297C56.8489 86.5069 56.7218 86.8216 56.6653 87.1523C57.3428 88.4395 58.1372 89.6617 59.0385 90.8034C60.1704 92.0083 58.7099 93.0306 58.7099 93.0306L61.8864 95.5864C63.0547 96.5357 62.3975 96.4626 63.2373 97.2294C64.0771 97.9961 63.4199 98.6168 63.4199 98.6168L64.1136 99.2375C64.455 101.353 65.3562 103.339 66.7237 104.989C68.0911 106.639 69.875 107.893 71.8904 108.621C73.1718 109.377 74.299 110.368 75.213 111.542L76.8194 112.82C80.9452 115.704 80.9452 118.369 80.9452 118.369C80.1785 122.97 83.428 123.809 83.428 123.809C87.7728 125.27 87.5172 125.635 87.5172 125.635C90.8397 128.264 91.789 126.913 92.9939 126.548C93.9308 126.227 94.8162 125.772 95.6227 125.197C97.2802 124.716 98.714 123.664 99.6698 122.227C100.626 120.79 101.041 119.061 100.844 117.347C101.39 116.565 101.987 115.821 102.633 115.12C103.226 114.426 103.718 113.652 104.093 112.82C106.272 110.822 108.617 109.015 111.103 107.416C112.783 106.578 114.226 105.335 115.304 103.798C116.381 102.262 117.058 100.481 117.274 98.6168C117.51 97.2293 118.111 95.9296 119.016 94.8516C119.921 93.7735 121.096 92.9559 122.422 92.4829C122.107 91.986 121.94 91.4099 121.94 90.8217C121.94 90.2334 122.107 89.6573 122.422 89.1604C123.371 87.773 124.905 85.5093 124.905 85.5093C124.905 85.5093 124.686 85.5093 121.254 83.0265L121.29 83.3186Z" fill="#164194"/>
<path d="M100.844 90.5117C100.849 90.5674 100.843 90.6236 100.825 90.6766C100.807 90.7296 100.778 90.7783 100.74 90.8196C100.702 90.8608 100.656 90.8937 100.605 90.9162C100.554 90.9386 100.498 90.95 100.442 90.9498C100.326 90.9498 100.215 90.9037 100.132 90.8215C100.05 90.7393 100.004 90.6279 100.004 90.5117C100.004 90.4557 100.015 90.4003 100.038 90.3491C100.06 90.2978 100.093 90.2518 100.134 90.214C100.175 90.1761 100.224 90.1474 100.277 90.1295C100.33 90.1116 100.387 90.105 100.442 90.1101C100.549 90.1101 100.651 90.1524 100.726 90.2277C100.802 90.303 100.844 90.4052 100.844 90.5117Z" fill="white"/>
<path d="M212 1.5C212 0.671571 212.672 0 213.5 0C214.328 0 215 0.671573 215 1.5V178.5C215 179.328 214.328 180 213.5 180C212.672 180 212 179.328 212 178.5V1.5Z" fill="white"/>
</svg>
