<svg width="780" height="180" viewBox="0 0 780 180" fill="none" xmlns="http://www.w3.org/2000/svg">
<path d="M264.298 82.4488C272.631 82.4488 278.595 76.594 278.595 68.2244C278.595 59.8548 272.631 54 264.298 54C255.964 54 250 59.8548 250 68.2244C250 76.594 255.964 82.4488 264.298 82.4488ZM264.298 76.4761C259.953 76.4761 256.714 73.2147 256.714 68.2244C256.714 63.2341 259.953 59.9727 264.298 59.9727C268.642 59.9727 271.881 63.2341 271.881 68.2244C271.881 73.2147 268.642 76.4761 264.298 76.4761Z" fill="#164194"/>
<path d="M288.713 81.9772V72.3109H298.192L298.943 66.7312H288.713V60.287H302.616L301.628 54.4715H282.157V81.9772H288.713Z" fill="#164194"/>
<path d="M312.935 81.9772V72.3109H322.414L323.165 66.7312H312.935V60.287H326.838L325.851 54.4715H306.379V81.9772H312.935Z" fill="#164194"/>
<path d="M337.158 81.9772V54.4715H330.601V81.9772H337.158Z" fill="#164194"/>
<path d="M355.331 82.4488C360.426 82.4488 364.533 80.2876 367.101 76.9083L363.546 71.7215C361.216 74.7865 358.728 76.4761 355.331 76.4761C351.342 76.4761 347.432 73.4898 347.432 68.2244C347.432 62.959 351.46 59.9727 355.37 59.9727C358.688 59.9727 361.058 61.623 363.27 64.6486L367.14 59.1868C364.494 56.004 360.149 54 355.331 54C348.38 54 340.717 58.2437 340.717 68.2244C340.717 78.205 348.38 82.4488 355.331 82.4488Z" fill="#164194"/>
<path d="M377.348 81.9772V54.4715H370.791V81.9772H377.348Z" fill="#164194"/>
<path d="M408.555 81.9772L398.562 54.4715H390.426L380.434 81.9772H387.622L389.399 76.6333H399.589L401.367 81.9772H408.555ZM394.494 61.4658L397.614 70.8178H391.374L394.494 61.4658Z" fill="#164194"/>
<path d="M430.556 81.9772L431.543 76.1617H418.194V54.4715H411.637V81.9772H430.556Z" fill="#164194"/>
<path d="M450.091 81.9772V73.3326H455.068C461.94 73.3326 465.534 69.3246 465.534 63.9021C465.534 58.4795 461.94 54.4715 455.068 54.4715H443.535V81.9772H450.091ZM450.091 60.287H454.673C457.003 60.287 458.82 61.3872 458.82 63.9021C458.82 66.4169 457.003 67.5171 454.673 67.5171H450.091V60.287Z" fill="#164194"/>
<path d="M476.049 81.9772V72.8611H478.932L485.568 81.9772H493.111L485.805 72.1145C489.399 70.6999 491.492 67.9493 491.492 63.6663C491.492 58.1259 488.174 54.4715 481.658 54.4715H469.493V81.9772H476.049ZM476.049 60.287H481.026C483.395 60.287 484.778 61.5051 484.778 63.6663C484.778 65.8275 483.395 67.0456 481.026 67.0456H476.049V60.287Z" fill="#164194"/>
<path d="M502.547 81.9772V54.4715H495.991V81.9772H502.547Z" fill="#164194"/>
<path d="M513.769 81.9772V64.4129L523.09 81.9772H531.424V54.4715H524.946V72.9396L515.309 54.4715H507.292V81.9772H513.769Z" fill="#164194"/>
<path d="M549.61 82.4488C554.705 82.4488 558.812 80.2876 561.379 76.9083L557.825 71.7215C555.494 74.7865 553.006 76.4761 549.61 76.4761C545.62 76.4761 541.71 73.4898 541.71 68.2244C541.71 62.959 545.739 59.9727 549.649 59.9727C552.967 59.9727 555.337 61.623 557.548 64.6486L561.419 59.1868C558.773 56.004 554.428 54 549.61 54C542.658 54 534.996 58.2437 534.996 68.2244C534.996 78.205 542.658 82.4488 549.61 82.4488Z" fill="#164194"/>
<path d="M571.626 81.9772V54.4715H565.07V81.9772H571.626Z" fill="#164194"/>
<path d="M582.928 81.9772V73.3326H587.904C594.776 73.3326 598.37 69.3246 598.37 63.9021C598.37 58.4795 594.776 54.4715 587.904 54.4715H576.371V81.9772H582.928ZM582.928 60.287H587.509C589.839 60.287 591.656 61.3872 591.656 63.9021C591.656 66.4169 589.839 67.5171 587.509 67.5171H582.928V60.287Z" fill="#164194"/>
<path d="M625.011 81.9772L615.019 54.4715H606.883L596.89 81.9772H604.079L605.856 76.6333H616.046L617.823 81.9772H625.011ZM610.951 61.4658L614.071 70.8178H607.831L610.951 61.4658Z" fill="#164194"/>
<path d="M647.013 81.9772L648 76.1617H634.65V54.4715H628.094V81.9772H647.013Z" fill="#164194"/>
<path d="M257.741 126V117.355H262.718C269.59 117.355 273.184 113.347 273.184 107.925C273.184 102.502 269.59 98.4943 262.718 98.4943H251.185V126H257.741ZM257.741 104.31H262.323C264.653 104.31 266.47 105.41 266.47 107.925C266.47 110.44 264.653 111.54 262.323 111.54H257.741V104.31Z" fill="#164194"/>
<path d="M299.825 126L289.833 98.4943H281.696L271.704 126H278.892L280.67 120.656H290.86L292.637 126H299.825ZM285.765 105.489L288.885 114.841H282.644L285.765 105.489Z" fill="#164194"/>
<path d="M309.464 126V116.884H312.347L318.983 126H326.526L319.22 116.137C322.814 114.723 324.907 111.972 324.907 107.689C324.907 102.149 321.589 98.4943 315.072 98.4943H302.908V126H309.464ZM309.464 104.31H314.441C316.81 104.31 318.193 105.528 318.193 107.689C318.193 109.85 316.81 111.068 314.441 111.068H309.464V104.31Z" fill="#164194"/>
<path d="M342.853 126V104.31H351.937L350.949 98.4943H328.2L327.212 104.31H336.296V126H342.853Z" fill="#164194"/>
<path d="M361.725 126V108.436L371.046 126H379.38V98.4943H372.902V116.962L363.265 98.4943H355.248V126H361.725Z" fill="#164194"/>
<path d="M403.648 126L404.635 120.185H390.693V114.762H398.829L399.58 109.182H390.693V104.31H404.003L403.016 98.4943H384.137V126H403.648Z" fill="#164194"/>
<path d="M414.838 126V116.884H417.721L424.357 126H431.9L424.594 116.137C428.188 114.723 430.281 111.972 430.281 107.689C430.281 102.149 426.963 98.4943 420.447 98.4943H408.282V126H414.838ZM414.838 104.31H419.815C422.184 104.31 423.567 105.528 423.567 107.689C423.567 109.85 422.184 111.068 419.815 111.068H414.838V104.31Z" fill="#164194"/>
<path d="M90 180C107.802 180 125.204 174.721 140.005 164.83C154.806 154.939 166.342 140.881 173.153 124.433C179.963 107.986 181.744 89.8877 178.268 72.4285C174.792 54.9692 166.217 38.9328 153.627 26.3475C141.036 13.7622 124.996 5.19346 107.536 1.72492C90.075 -1.74363 71.9779 0.0438807 55.5332 6.86136C39.0885 13.6788 25.0349 25.22 15.15 40.0253C5.26505 54.8305 -0.00721444 72.2347 7.40934e-06 90.0365C6.43613e-06 101.854 2.32819 113.555 6.85156 124.472C11.3749 135.39 18.0049 145.309 26.3626 153.663C34.7204 162.018 44.6422 168.643 55.5612 173.162C66.4803 177.681 78.1827 180.005 90 180" fill="white"/>
<path d="M89.9999 176.787C107.166 176.787 123.947 171.696 138.22 162.158C152.493 152.62 163.617 139.064 170.184 123.204C176.752 107.343 178.468 89.8914 175.117 73.0554C171.765 56.2194 163.496 40.7555 151.355 28.6196C139.214 16.4837 123.746 8.22088 106.909 4.87631C90.0714 1.53174 72.6203 3.25562 56.7626 9.82992C40.905 16.4042 27.3533 27.5336 17.8214 41.8105C8.2895 56.0873 3.20568 72.8703 3.2129 90.0367C3.2129 101.432 5.45797 112.716 9.81988 123.243C14.1818 133.771 20.575 143.335 28.6344 151.391C36.6938 159.447 46.2614 165.837 56.7907 170.194C67.32 174.552 78.6046 176.792 89.9999 176.787" fill="#164194"/>
<path d="M89.9992 171.201C106.054 171.172 121.741 166.384 135.076 157.443C148.411 148.501 158.796 135.807 164.918 120.965C171.041 106.123 172.626 89.7988 169.473 74.056C166.321 58.3132 158.572 43.8584 147.206 32.5183C135.841 21.1782 121.368 13.462 105.619 10.3448C89.8688 7.22756 73.5484 8.84932 58.72 15.0051C43.8916 21.1608 31.221 31.5743 22.3093 44.9293C13.3977 58.2843 8.64516 73.9814 8.65235 90.0368C8.65232 100.711 10.7577 111.28 14.848 121.139C18.9383 130.998 24.9332 139.954 32.4893 147.493C40.0455 155.032 49.0145 161.007 58.8829 165.075C68.7513 169.143 79.3252 171.225 89.9992 171.201" fill="white"/>
<path d="M10.6973 90.0366C10.6925 79.6211 12.7404 69.3068 16.724 59.6833C20.7076 50.0597 26.5488 41.3156 33.9137 33.9508C41.2785 26.5859 50.0226 20.7447 59.6462 16.7611C69.2697 12.7775 79.584 10.7296 89.9995 10.7344V10.7344C100.415 10.7296 110.729 12.7775 120.353 16.7611C129.976 20.7447 138.72 26.5859 146.085 33.9508C153.45 41.3156 159.291 50.0597 163.275 59.6833C167.259 69.3068 169.306 79.6211 169.302 90.0366V90.0366C169.302 100.449 167.25 110.759 163.264 120.379C159.279 129.998 153.437 138.738 146.072 146.099C138.708 153.46 129.966 159.298 120.344 163.279C110.723 167.26 100.412 169.307 89.9995 169.302V169.302V168.353C100.286 168.363 110.474 166.343 119.978 162.409C129.483 158.474 138.117 152.702 145.387 145.424V145.424C152.665 138.155 158.437 129.52 162.372 120.016C166.306 110.511 168.326 100.323 168.316 90.0366V90.0366C168.332 79.7489 166.315 69.5595 162.38 60.0542C158.445 50.5488 152.67 41.915 145.387 34.6492V34.6492C138.124 27.3595 129.492 21.5777 119.986 17.6364C110.481 13.6951 100.29 11.672 89.9995 11.6837V11.6837C79.7084 11.666 69.5157 13.6863 60.0093 17.628C50.503 21.5696 41.8713 27.3546 34.6121 34.6492V34.6492C27.3175 41.9084 21.5325 50.5401 17.5909 60.0464C13.6492 69.5528 11.6289 79.7455 11.6466 90.0366V90.0366C11.6349 100.327 13.658 110.518 17.5993 120.023C21.5406 129.529 27.3224 138.161 34.6121 145.424V145.424C41.8779 152.707 50.5117 158.482 60.0171 162.417C69.5224 166.352 79.7118 168.369 89.9995 168.353V168.353V169.302C79.5871 169.307 69.2758 167.26 59.6546 163.279C50.0334 159.298 41.2909 153.46 33.9266 146.099C26.5622 138.738 20.7203 129.998 16.7345 120.379C12.7488 110.759 10.6973 100.449 10.6973 90.0366V90.0366Z" fill="#164194"/>
<path d="M89.9994 146.337C101.135 146.337 112.02 143.035 121.278 136.848C130.537 130.662 137.753 121.869 142.014 111.582C146.275 101.294 147.39 89.9741 145.218 79.0529C143.045 68.1317 137.683 58.1 129.81 50.2263C121.936 42.3526 111.904 36.9905 100.983 34.8181C90.0619 32.6458 78.7418 33.7607 68.4543 38.022C58.1667 42.2832 49.3739 49.4993 43.1875 58.7578C37.0012 68.0163 33.6992 78.9014 33.6992 90.0365C33.6992 104.968 39.6308 119.288 50.1892 129.847C55.4171 135.075 61.6236 139.222 68.4543 142.051C75.2849 144.88 82.606 146.337 89.9994 146.337" fill="white"/>
<path d="M88.503 37.8621C87.3346 44.215 79.6673 44.215 75.432 47.6105C73.1675 49.409 71.6253 51.962 71.0871 54.8032C67.0709 52.7586 63.1642 49.7282 59.002 48.0852C67.4484 41.5563 77.8274 38.0238 88.503 38.0446" fill="#164194"/>
<path d="M120.012 47.1359L109.862 53.8174C108.694 46.5152 100.661 44.4341 95.2576 42.1704C94.1622 41.002 92.5192 39.5051 93.1399 37.8621C102.851 38.2884 112.232 41.5085 120.158 47.1359" fill="#164194"/>
<path d="M93.6519 43.8501C98.8365 46.6249 107.015 47.5012 108.256 55.059C108.001 55.8257 107.052 56.1543 106.577 56.5559C106.102 46.771 94.6012 48.6695 90.9136 41.2578C87.0434 48.7426 74.6661 47.3186 74.8122 57.6513C73.9724 57.2497 72.3659 56.3004 73.2422 54.8034C75.3598 46.5519 85.2178 47.0996 89.9643 41.4038L90.658 38.4099C91.0068 40.5115 92.0631 42.4309 93.6519 43.8501" fill="#164194"/>
<path d="M90.9506 47.0629C90.9506 47.282 90.9506 47.6836 90.9506 47.8296C90.9506 47.9757 90.5487 47.5375 90.293 47.428C90.0372 47.3185 90.9506 46.2597 91.0967 47.0629" fill="#164194"/>
<path d="M92.9919 48.9249C92.9919 49.2535 92.9919 49.5091 92.7015 49.7282H92.6289V48.5598C92.9556 48.5598 93.0282 48.7789 93.1734 48.9249" fill="#164194"/>
<path d="M88.9754 48.9249C88.9754 49.1804 88.9754 49.5821 88.9754 49.7281H88.5762V48.7788C88.5762 48.7788 89.048 48.7788 89.1206 48.7788" fill="#164194"/>
<path d="M53.5248 61.6309C48.5593 64.4788 47.1719 72.3287 40.8555 71.6715C43.7098 63.8533 48.51 56.8917 54.8027 51.4443C53.338 54.6273 52.8918 58.1848 53.5248 61.6309" fill="#164194"/>
<path d="M91.4961 57.4687H89.2324L90.8024 51.7729C90.7471 53.6956 90.981 55.6156 91.4961 57.4687" fill="#164194"/>
<path d="M138.413 70.5396C132.973 70.138 131.111 63.5294 126.328 61.0832C127.148 58.515 127.409 55.8012 127.095 53.1238C132.174 57.9674 136.05 63.9314 138.413 70.5396" fill="#164194"/>
<path d="M139.18 72.1827V72.4383C131.622 77.5498 139.509 89.0508 131.33 93.7973C128.815 95.1418 125.943 95.6653 123.115 95.2943C123.59 93.4687 126.511 94.1989 128.081 93.2496C137.537 90.4018 132.791 79.1198 137.464 73.059C132.791 71.8906 129.14 67.8379 125.488 64.8805L125.708 63.5295C130.052 66.5965 133.302 72.7669 139.107 72.1827" fill="#164194"/>
<path d="M55.0219 64.6248C51.3708 68.6411 47.7196 73.0589 42.7176 74.0812C43.2653 75.5782 44.6162 76.7465 45.1639 78.28C46.8069 84.6694 46.9894 93.4686 55.1679 95.2942C56.3363 95.7688 57.9428 95.0386 58.819 96.2435C56.9616 96.6714 55.0274 96.6354 53.1871 96.1387C51.3469 95.6421 49.6572 94.7 48.2673 93.3956C42.6081 87.8824 48.2673 77.3307 39.9062 73.3875C46.7704 74.8845 49.4357 66.6695 54.2551 63.6755L55.0584 64.6248H55.0219Z" fill="#164194"/>
<path d="M127.824 72.5842C127.824 72.8397 127.824 73.2048 127.824 73.3874H127.57V72.1825C127.626 72.1678 127.684 72.168 127.739 72.183C127.794 72.198 127.844 72.2272 127.885 72.2679C127.925 72.3085 127.954 72.3591 127.969 72.4146C127.984 72.4701 127.984 72.5286 127.97 72.5842" fill="#164194"/>
<path d="M54.0729 73.3874C54.0729 73.3874 54.0729 73.6065 54.0729 73.6795C54.0729 73.7525 53.4883 73.6795 53.2691 73.3874C53.0134 72.5112 54.4382 72.5112 54.219 73.3874" fill="#164194"/>
<path d="M126.111 75.0304C126.111 75.0304 125.855 75.505 125.563 75.432C125.451 75.3905 125.354 75.3158 125.286 75.2179C125.218 75.12 125.182 75.0036 125.182 74.8843C125.182 74.7651 125.218 74.6487 125.286 74.5508C125.354 74.4529 125.451 74.3782 125.563 74.3367C126.038 74.3367 125.965 74.7748 126.111 75.0304Z" fill="#164194"/>
<path d="M129.871 74.3368C129.871 74.6289 129.871 75.0306 129.871 75.2496C129.871 75.4687 129.469 74.9575 129.323 74.8845C129.177 74.8115 129.323 74.1543 130.017 74.3368" fill="#164194"/>
<path d="M56.1178 75.2497C56.1178 75.2497 55.8986 75.6513 55.5698 75.5783L55.168 75.2497L55.789 74.4829C56.0448 74.702 56.0448 74.9576 56.1178 75.2497" fill="#164194"/>
<path d="M127.095 126.949L123.444 130.272C122.422 122.568 131.403 117.676 129.249 109.314C128.408 107.113 127.092 105.124 125.394 103.49C123.696 101.855 121.659 100.615 119.428 99.8581C119.428 94.4179 125.306 98.3611 128.154 97.1928C129.968 96.9095 131.688 96.1945 133.168 95.108C134.649 94.0215 135.847 92.5953 136.661 90.9493C139.655 85.8378 135.456 78.9737 139.874 74.3733C142.766 83.4721 143.096 93.1914 140.829 102.466C138.562 111.74 133.785 120.211 127.022 126.949" fill="#164194"/>
<path d="M52.1727 75.2496C52.1727 75.5782 52.1727 75.7608 51.7734 75.9799V74.8845C51.9912 74.8845 52.1727 75.1036 52.3179 75.2496" fill="#164194"/>
<path d="M45.1649 92.4464C46.0954 94.0449 47.36 95.4237 48.8723 96.4886C50.3846 97.5535 52.109 98.2794 53.9275 98.6168C56.2458 98.6679 58.5646 98.5459 60.8647 98.2517L61.4853 99.7486C59.2653 100.449 57.2354 101.649 55.5517 103.257C53.868 104.865 52.5755 106.837 51.7734 109.022C49.8018 117.237 57.2135 122.495 58.6375 129.834L58.0533 131.696C50.1405 125.654 44.1117 117.483 40.672 108.14C37.2322 98.7973 36.5237 88.6681 38.6294 78.9373L39.6882 75.5417C46.4428 78.3896 41.6233 87.4444 44.9823 92.5559" fill="#164194"/>
<path d="M129.139 84.4868C128.044 84.0852 127.788 85.4361 127.387 85.9838C127.168 85.5092 127.168 84.8885 126.693 84.4868L125.488 84.7424L127.752 77.4402C127.918 79.8378 128.384 82.2052 129.139 84.4868" fill="#164194"/>
<path d="M55.7899 84.8886C54.7676 84.6695 54.366 85.5093 54.0739 86.2395V86.6046C53.8183 85.8379 53.1976 84.1584 52.0293 85.0346C52.8357 82.6373 53.5182 80.2 54.0739 77.7324C54.1144 80.1681 54.7008 82.5636 55.7899 84.7426" fill="#164194"/>
<path d="M62.4348 102.706V103.4C59.2584 104.897 55.5707 107.671 55.5707 111.542C55.0961 118.844 61.9602 122.714 61.23 129.797C62.3253 130.673 63.3476 129.103 64.6255 129.249C68.7878 128.957 80.6174 130.199 83.3923 126.803C84.086 126.803 84.5606 127.059 85.1083 127.387C84.4854 128.539 83.5846 129.516 82.4878 130.23C81.391 130.944 80.133 131.373 78.8284 131.477C72.3659 132.097 64.9541 126.657 59.733 132.572C63.6762 123.371 50.1306 117.383 54.6214 107.598C55.3542 106.119 56.3789 104.803 57.6339 103.73C58.8889 102.657 60.3481 101.849 61.9237 101.355L62.3253 102.56L62.4348 102.706Z" fill="#164194"/>
<path d="M127.279 110.41C128.228 118.552 118.772 122.933 121.364 131.075C113.404 126.511 103.108 137.464 96.2441 128.008C96.2441 127.351 96.9379 126.876 97.4125 126.657C98.8364 127.059 99.3111 128.373 100.552 129.176C106.723 133.594 113.258 127.826 119.867 129.505C120.268 128.702 119.867 127.132 120.268 126.109C122.788 120.341 129.031 113.038 123.116 106.795C121.565 105.46 119.766 104.443 117.822 103.801C117.275 102.925 118.151 102.304 118.37 101.501C122.021 102.852 126.877 106.101 127.279 110.41" fill="#164194"/>
<path d="M112.309 111.907C111.834 112.162 111.834 111.615 111.615 111.359C111.396 111.104 111.834 110.592 112.309 110.812V111.907V111.907Z" fill="#164194"/>
<path d="M70.1388 111.359C70.1388 111.615 70.1388 112.016 70.1388 112.162C70.1388 112.308 69.7369 111.834 69.5177 111.761C69.1158 111.067 70.2849 110.665 70.2849 111.359" fill="#164194"/>
<path d="M114.532 113.659C114.314 113.659 114.241 113.659 114.132 113.659C114.023 113.659 113.697 112.564 114.132 112.564C114.568 112.564 114.132 113.185 114.35 113.513" fill="#164194"/>
<path d="M72.1805 113.404C72.2247 113.461 72.2486 113.532 72.2486 113.605C72.2486 113.677 72.2247 113.748 72.1805 113.805H71.7812V112.856C72.3257 112.637 72.1805 113.258 72.3257 113.404" fill="#164194"/>
<path d="M68.2388 113.404C68.2388 113.732 68.2388 114.061 68.2388 114.207C68.2388 114.353 67.8369 113.988 67.6177 113.805C67.3985 113.623 68.3849 112.637 68.3849 113.404" fill="#164194"/>
<path d="M110.406 114.061H109.861V113.112H110.406V114.061Z" fill="#164194"/>
<path d="M71.4896 123.116C70.6864 122.568 69.8466 123.882 69.7371 124.467C69.7164 124.25 69.6499 124.04 69.542 123.851C69.434 123.662 69.2871 123.498 69.111 123.371C68.9349 123.243 68.7336 123.154 68.5205 123.11C68.3074 123.066 68.0873 123.068 67.875 123.116C68.8924 120.885 69.6047 118.527 69.9926 116.105C70.266 118.485 70.7672 120.832 71.4896 123.116" fill="#164194"/>
<path d="M113.806 123.262C113.806 122.933 113.331 123.262 113.112 123.262L112.163 124.759C112.076 124.182 111.792 123.653 111.359 123.262H110.41L112.309 115.959C112.683 118.417 113.183 120.855 113.806 123.262" fill="#164194"/>
<path d="M104.971 134.069C110.192 134.361 114.829 130.71 119.867 133.047C112.268 138.248 103.454 141.394 94.2795 142.181C85.1052 142.968 75.8833 141.368 67.5101 137.538L61.4492 133.887C62.1203 133.16 62.9413 132.587 63.8554 132.209C64.7695 131.831 65.7549 131.656 66.7433 131.696C73.2058 132.718 82.6622 136.041 87.1531 128.885C88.2813 129.327 89.4921 129.521 90.7021 129.452C91.9122 129.382 93.0929 129.052 94.1632 128.483C95.358 130.269 96.9947 131.715 98.9141 132.682C100.833 133.648 102.97 134.1 105.117 133.996" fill="#164194"/>
<path d="M135.238 103.655C131.858 103.975 128.482 103.01 125.781 100.953C125.781 99.9309 126.658 99.5293 127.424 99.4563C130.442 99.8904 133.21 101.378 135.238 103.655Z" fill="white"/>
<path d="M53.6712 101.355C53.6712 103.327 51.5535 103.546 50.2756 104.203C48.6115 104.655 46.8862 104.84 45.1641 104.751C46.1313 103.526 47.3625 102.535 48.7659 101.852C50.1694 101.169 51.7088 100.812 53.2695 100.807L53.6712 101.355Z" fill="white"/>
<path d="M92.6282 131.075C92.5994 133.45 92.1417 135.8 91.2773 138.012C90.6566 135.639 88.5389 131.952 90.9852 129.724C91.3693 129.738 91.7382 129.878 92.0351 130.122C92.332 130.366 92.5404 130.701 92.6282 131.075" fill="white"/>
<path d="M26.9088 108.292C27.054 108.936 27.3272 109.545 27.7121 110.081L25.5214 109.351C25.2345 109.272 24.9759 109.114 24.7755 108.894C24.5751 108.675 24.4413 108.402 24.3896 108.109L23.2577 102.815L20.0082 103.582C19.5252 103.631 19.068 103.824 18.6967 104.137C18.3253 104.449 18.0571 104.867 17.9271 105.335L16.5762 99.6024C17.1238 100.333 17.9636 100.479 19.205 100.187L28.2597 98.0689C29.5011 97.7768 30.1583 97.2657 30.3409 96.3894L33.2618 109.57C33.0603 109.503 32.8426 109.503 32.6411 109.57C32.3855 109.57 31.5092 110.227 29.8662 111.103C30.3785 109.376 30.3785 107.537 29.8662 105.809L28.8804 101.611L25.4484 102.268L26.9088 108.292Z" fill="#164194"/>
<path d="M32.6781 123.955C33.2536 123.743 33.7749 123.406 34.2049 122.968C34.6348 122.53 34.9627 122.003 35.165 121.424C35.3674 120.845 35.4392 120.228 35.3754 119.618C35.3115 119.008 35.1136 118.419 34.7957 117.895C34.5377 117.275 34.1453 116.721 33.6467 116.272C33.1481 115.822 32.5559 115.49 31.9129 115.297C31.27 115.105 30.5923 115.058 29.929 115.16C29.2657 115.262 28.6333 115.51 28.0777 115.886C27.5095 116.102 26.9961 116.441 26.5741 116.879C26.1521 117.316 25.8319 117.842 25.6366 118.417C25.4412 118.993 25.3755 119.604 25.444 120.208C25.5126 120.812 25.7137 121.394 26.0331 121.911C26.2842 122.527 26.6691 123.079 27.1599 123.529C27.6507 123.978 28.2351 124.312 28.871 124.508C29.5069 124.704 30.1783 124.756 30.8367 124.66C31.4951 124.564 32.1241 124.324 32.6781 123.955V123.955ZM23.8059 123.262C23.2138 122.405 22.8119 121.431 22.6273 120.405C22.4427 119.38 22.4796 118.327 22.7355 117.317C22.9914 116.308 23.4604 115.364 24.1111 114.551C24.7617 113.737 25.5789 113.072 26.5077 112.6C27.4374 112.076 28.4707 111.762 29.535 111.68C30.5992 111.598 31.6685 111.75 32.6675 112.126C33.6665 112.502 34.571 113.092 35.3172 113.856C36.0634 114.619 36.6331 115.536 36.9864 116.544C37.5955 117.409 38.0094 118.395 38.1996 119.436C38.3897 120.476 38.3515 121.546 38.0876 122.57C37.8237 123.595 37.3404 124.549 36.6712 125.368C36.0019 126.188 35.1627 126.852 34.2116 127.314C33.2792 127.817 32.2486 128.111 31.1914 128.175C30.1343 128.239 29.0757 128.073 28.0892 127.687C27.1027 127.302 26.2119 126.706 25.4786 125.942C24.7453 125.178 24.187 124.263 23.8424 123.262H23.8059Z" fill="#164194"/>
<path d="M43.7405 137.83C44.2358 137.476 44.6466 137.017 44.9435 136.485C45.2405 135.954 45.4162 135.364 45.4581 134.756C45.4999 134.149 45.407 133.54 45.1858 132.973C44.9646 132.406 44.6206 131.895 44.1787 131.477C43.7754 130.941 43.2564 130.503 42.6603 130.196C42.0642 129.888 41.4063 129.72 40.7359 129.702C40.0655 129.684 39.3998 129.819 38.7884 130.094C38.177 130.37 37.6358 130.78 37.205 131.294C36.7066 131.647 36.2935 132.106 35.9959 132.639C35.6984 133.172 35.5239 133.765 35.4854 134.375C35.4469 134.984 35.5453 135.594 35.7734 136.16C36.0014 136.727 36.3534 137.235 36.8034 137.647C37.2083 138.173 37.7247 138.603 38.3155 138.905C38.9063 139.208 39.5568 139.375 40.2202 139.396C40.8836 139.417 41.5434 139.291 42.1521 139.026C42.7608 138.762 43.3033 138.365 43.7405 137.866V137.83ZM34.9779 139.509C31.3267 135.566 31.5093 131.477 34.7953 128.556C35.5552 127.801 36.4717 127.223 37.48 126.862C38.4882 126.501 39.5635 126.367 40.6296 126.468C41.6957 126.569 42.7265 126.903 43.649 127.447C44.5715 127.991 45.3631 128.731 45.9677 129.615C46.7447 130.3 47.367 131.143 47.7933 132.087C48.2195 133.031 48.44 134.055 48.44 135.091C48.44 136.127 48.2195 137.151 47.7933 138.096C47.367 139.04 46.7447 139.883 45.9677 140.568C45.2026 141.278 44.2941 141.816 43.3035 142.146C42.3129 142.475 41.2631 142.588 40.2251 142.477C39.187 142.367 38.1847 142.035 37.2859 141.504C36.387 140.973 35.6124 140.255 35.0144 139.4L34.9779 139.509Z" fill="#164194"/>
<path d="M48.5958 148.856L48.9975 148.199L54.1455 140.532L53.5614 140.13C52.1259 139.033 50.3984 138.386 48.5958 138.268C49.9833 137.063 50.8595 136.479 51.0056 136.223C51.0676 136.021 51.0676 135.805 51.0056 135.603L62.5796 143.343C62.3727 143.403 62.1925 143.532 62.0684 143.708C62.0684 143.927 61.7033 144.949 61.1192 146.738C60.3068 145.11 59.0382 143.752 57.4681 142.832L57.0299 142.43L51.8818 150.097C51.5776 150.486 51.3889 150.952 51.3373 151.443C51.2856 151.934 51.3731 152.429 51.5898 152.872L46.6973 149.732C47.0532 149.783 47.4161 149.738 47.7494 149.604C48.0828 149.469 48.3747 149.249 48.5958 148.966V148.856Z" fill="#164194"/>
<path d="M69.0418 151.74C70.8674 152.361 71.8897 152.178 72.2913 151.01C72.6929 149.842 71.9627 149.221 70.3927 148.673L66.7416 147.468L65.6828 150.608L69.0053 151.74H69.0418ZM68.056 157.801C69.9181 158.422 71.0864 158.13 71.488 156.925C71.8897 155.72 71.0864 154.917 69.1879 154.296L64.9526 152.836L63.7842 156.487L68.056 157.947V157.801ZM60.5347 155.136L63.4191 146.446C63.8207 145.241 63.7842 144.365 63.0905 143.708L70.3927 146.264C74.5915 147.687 76.5996 149.111 75.7233 151.74C75.4869 152.41 75.0282 152.978 74.4235 153.35C73.8189 153.722 73.105 153.875 72.4008 153.785C74.6645 154.88 75.3947 156.268 74.7741 158.13C73.7883 160.978 71.1229 161.416 66.559 159.846L58.5996 157.034C59.5489 157.034 60.0966 156.341 60.5347 155.099V155.136Z" fill="#164194"/>
<path d="M86.6767 158.093L84.2305 151.266L80.7984 157.582L86.6767 158.093ZM92.6281 163.826H87.3705C87.6792 163.527 87.8621 163.122 87.8816 162.694C87.9262 162.403 87.9262 162.108 87.8816 161.817L87.5165 160.686L79.411 159.955L79.0459 160.613C78.9029 160.898 78.8161 161.207 78.7903 161.525C78.757 162.072 78.9407 162.61 79.3015 163.022L73.8613 161.817C74.5827 161.333 75.2028 160.713 75.6869 159.992L81.6747 150.134C81.8112 149.948 81.9104 149.737 81.9668 149.513C81.9985 149.344 81.9985 149.171 81.9668 149.002L87.8086 149.513C87.7088 149.671 87.6349 149.843 87.5895 150.024C87.5408 150.241 87.5408 150.465 87.5895 150.681L91.2406 161.635C91.5784 162.508 92.0734 163.313 92.7011 164.008L92.6281 163.826Z" fill="#164194"/>
<path d="M91.8256 149.732L97.6674 148.929C97.2681 149.207 96.9655 149.603 96.8019 150.061C96.6383 150.519 96.6217 151.017 96.7546 151.485L98.0325 160.686L102.012 160.138C103.971 159.988 105.817 159.162 107.233 157.801C106.873 159.001 106.58 160.22 106.357 161.453C106.423 161.677 106.549 161.879 106.722 162.037L93.7607 163.862C94.5274 163.388 94.7465 162.548 94.6004 161.306L93.286 152.106C93.286 150.864 92.6653 150.134 91.7891 149.878L91.8256 149.732Z" fill="#164194"/>
<path d="M103.875 148.308L109.425 146.337C109.094 146.695 108.881 147.146 108.815 147.63C108.75 148.113 108.835 148.605 109.06 149.039L112.2 157.765L115.851 156.414C117.763 155.853 119.409 154.621 120.488 152.945C120.417 154.161 120.417 155.38 120.488 156.596C120.488 156.779 120.743 156.888 120.962 157.071L108.621 161.489C108.948 161.134 109.152 160.683 109.205 160.204C109.257 159.725 109.155 159.241 108.914 158.824L105.81 150.061C105.372 148.856 104.788 148.272 103.875 148.199V148.308Z" fill="#164194"/>
<path d="M137.61 146.446C136.733 147.067 135.638 148.454 133.959 149.732C133.221 150.439 132.336 150.975 131.367 151.3C130.398 151.625 129.369 151.733 128.354 151.614C127.339 151.495 126.362 151.154 125.494 150.614C124.627 150.074 123.889 149.349 123.334 148.491C122.688 147.615 122.238 146.61 122.016 145.545C121.794 144.48 121.805 143.379 122.048 142.318C122.29 141.257 122.759 140.261 123.422 139.399C124.085 138.536 124.927 137.826 125.89 137.319C127.861 135.895 129.541 135.383 130.307 134.836C130.529 134.684 130.726 134.499 130.892 134.288L131.877 137.939C130.31 137.947 128.787 138.459 127.533 139.4C126.982 139.729 126.506 140.169 126.134 140.691C125.763 141.214 125.503 141.808 125.373 142.436C125.243 143.064 125.244 143.712 125.377 144.34C125.51 144.967 125.771 145.56 126.145 146.081C126.455 146.657 126.893 147.155 127.426 147.535C127.958 147.915 128.571 148.168 129.216 148.273C129.862 148.379 130.523 148.335 131.149 148.145C131.775 147.955 132.349 147.624 132.827 147.177C134.36 146.012 135.608 144.513 136.478 142.795L138.668 145.899C138.334 146.001 138.014 146.148 137.719 146.337L137.61 146.446Z" fill="#164194"/>
<path d="M130.673 134.179L134.58 129.724C134.46 130.2 134.49 130.701 134.667 131.159C134.844 131.617 135.158 132.008 135.566 132.28L142.54 138.378L145.168 135.384C146.521 133.943 147.311 132.064 147.396 130.089C147.916 131.229 148.501 132.339 149.148 133.412C149.148 133.412 149.513 133.412 149.805 133.412L141.152 143.307C141.408 142.43 141.152 141.627 140.093 140.787L133.12 134.69C132.17 133.85 131.367 133.595 130.527 133.996L130.673 134.179Z" fill="#164194"/>
<path d="M155.173 125.562C152.909 129.651 150.171 130.747 146.885 128.921L141.335 125.854C140.167 125.233 139.291 125.16 138.561 125.854L141.408 120.743C141.408 121.692 141.847 122.313 142.978 122.97L148.455 126C148.855 126.243 149.307 126.388 149.774 126.425C150.24 126.461 150.709 126.388 151.142 126.21C151.576 126.033 151.961 125.756 152.268 125.403C152.575 125.049 152.795 124.628 152.909 124.175C153.196 123.825 153.399 123.413 153.502 122.972C153.604 122.532 153.605 122.073 153.502 121.632C153.4 121.191 153.198 120.78 152.912 120.429C152.625 120.079 152.262 119.799 151.851 119.611L146.374 116.872C145.315 116.288 144.548 116.069 143.636 116.872L146.483 111.724C146.483 112.601 146.922 113.367 148.053 113.988L153.64 117.055C156.926 118.881 157.291 121.765 155.173 125.891V125.562Z" fill="#164194"/>
<path d="M160.138 104.751C160.576 102.816 160.138 101.72 158.933 101.428C157.728 101.136 156.961 102.012 156.523 103.984L155.537 108.329L159.189 109.169L160.211 104.751H160.138ZM154.041 104.386C154.442 102.523 154.041 101.501 152.945 101.246C151.85 100.99 151.193 101.72 150.828 103.363L149.988 107.014L153.237 107.781L154.041 104.349V104.386ZM158.349 112.528L149.404 110.446C148.162 110.154 147.286 110.446 146.738 111.067L148.491 103.4C149.477 99.0549 150.718 96.9008 153.42 97.5215C154.105 97.6872 154.713 98.0812 155.144 98.6386C155.576 99.196 155.805 99.8837 155.793 100.588C156.633 98.2517 157.947 97.3754 159.882 97.8136C162.803 98.5073 163.533 101.1 162.438 105.809L160.503 114.207C160.32 113.294 159.627 112.82 158.349 112.528V112.528Z" fill="#164194"/>
<path d="M17.1973 80.3611L18.4752 74.5923C18.5956 75.0651 18.8611 75.4884 19.2344 75.8027C19.6076 76.117 20.0699 76.3066 20.5563 76.3448L29.6111 78.3529L30.5603 74.4463C31.1087 72.5328 30.9532 70.4862 30.1222 68.6775C31.1083 69.4408 32.1452 70.1361 33.2257 70.7586C33.4405 70.8195 33.668 70.8195 33.8829 70.7586L31.0715 83.574C30.8524 82.6613 30.1952 82.1501 28.9539 81.8945L19.8991 79.8864C19.4514 79.6994 18.9561 79.6588 18.484 79.7703C18.0118 79.8817 17.587 80.1396 17.2703 80.5071L17.1973 80.3611Z" fill="#164194"/>
<path d="M32.3498 67.4728L24.0983 63.2375C23.7014 62.9627 23.2301 62.8155 22.7474 62.8155C22.2647 62.8155 21.7934 62.9627 21.3965 63.2375L28.151 50.0935C28.2346 50.2788 28.3754 50.4324 28.5527 50.5316C29.5759 50.7915 30.6117 50.9987 31.6561 51.1523C30.1525 52.1522 28.9627 53.5573 28.2241 55.2051L25.6683 60.2071L28.5892 61.7406L31.4371 56.1909C31.7323 55.6114 31.9062 54.9778 31.9482 54.3288L33.1896 56.3004C33.3407 56.5545 33.4204 56.8446 33.4204 57.1402C33.4204 57.4357 33.3407 57.7259 33.1896 57.9799L30.6703 62.8359L33.8468 64.4424L36.5486 59.1848C37.5689 57.473 37.9323 55.4488 37.5709 53.489C38.3299 54.4731 39.1597 55.4005 40.0537 56.2639C40.2784 56.3418 40.5227 56.3418 40.7474 56.2639L33.8833 69.627C33.8833 68.7142 33.4087 68.057 32.2768 67.4728H32.3498Z" fill="#164194"/>
<path d="M35.4894 44.5804L42.7916 50.2396C43.8139 51.0429 44.6537 51.2619 45.4935 50.8238L41.8423 55.4242C42.0614 54.5114 41.8423 53.7812 40.6375 52.978L33.3352 47.3187C32.3129 46.5155 31.4732 46.2964 30.6699 46.7346L34.321 42.0977C34.0655 43.0104 34.321 43.7772 35.4894 44.5804Z" fill="#164194"/>
<path d="M54.5106 41.8782C53.7439 42.5719 52.7946 44.0688 51.1516 45.5293C50.5045 46.3232 49.6887 46.9631 48.7636 47.4026C47.8384 47.8421 46.827 48.0701 45.8027 48.0701C44.7785 48.0701 43.7671 47.8421 42.8419 47.4026C41.9167 46.9631 41.101 46.3232 40.4538 45.5293C39.7165 44.7318 39.1588 43.7855 38.8183 42.7542C38.4779 41.7229 38.3626 40.6305 38.4802 39.5508C38.5979 38.4711 38.9458 37.4293 39.5004 36.4955C40.055 35.5617 40.8034 34.7577 41.6952 34.1378C43.0021 33.0652 44.3672 32.0657 45.7845 31.1439C45.9685 30.9581 46.128 30.7495 46.2591 30.5232L47.7196 33.9552C46.1565 34.1852 44.696 34.871 43.5208 35.9268C43.0007 36.3335 42.5728 36.8457 42.265 37.4298C41.9573 38.0138 41.7768 38.6564 41.7354 39.3152C41.694 39.9741 41.7927 40.6342 42.0249 41.2522C42.2571 41.8702 42.6176 42.4319 43.0826 42.9005C43.4591 43.4339 43.9528 43.8739 44.5258 44.1867C45.0988 44.4995 45.7359 44.6769 46.3882 44.7051C47.0404 44.7333 47.6905 44.6116 48.2884 44.3494C48.8863 44.0872 49.4161 43.6915 49.8372 43.1926C51.1917 41.8655 52.2169 40.2401 52.8311 38.4461L55.4234 41.2575C55.0821 41.3697 54.7703 41.5568 54.5106 41.8051V41.8782Z" fill="#164194"/>
<path d="M55.5335 38.1907L51.1887 30.0122C50.6045 28.8804 49.9108 28.3692 48.998 28.4422L62.1055 21.5051C62.0298 21.7051 62.0298 21.9259 62.1055 22.1258C62.1055 22.3449 63.0548 23.0386 64.3327 24.3895C62.5506 24.3141 60.782 24.731 59.2212 25.5944L54.2557 28.2597L55.7891 31.1441L61.3023 28.2597C61.8793 27.9502 62.3884 27.5281 62.7993 27.0183V29.3185C62.7871 29.6202 62.6921 29.9126 62.5246 30.1638C62.3572 30.415 62.1237 30.6152 61.85 30.7424L57.0305 33.2982L58.71 36.4382L63.9676 33.6633C65.7466 32.8219 67.1789 31.3896 68.0203 29.6106C68.0912 30.8374 68.2498 32.0576 68.495 33.2617C68.495 33.2617 68.7506 33.5538 69.0061 33.6998L55.7526 40.71C56.0376 40.3172 56.1911 39.8444 56.1911 39.3591C56.1911 38.8738 56.0376 38.4009 55.7526 38.0082L55.5335 38.1907Z" fill="#164194"/>
<path d="M75.1767 29.9758C77.4769 29.3916 78.4627 28.5153 78.1706 27.3105C77.8785 26.1056 76.199 26.1786 73.3876 26.4707C69.919 26.8358 67.9474 25.9961 67.4363 23.8784C66.9251 21.7608 68.6777 18.9859 72.6209 18.0366C75.1036 17.4159 77.0752 17.4159 78.1341 17.1604C78.3293 17.1056 78.5143 17.0192 78.6817 16.9048V20.5559C76.8583 20.0193 74.9189 20.0193 73.0955 20.5559C71.416 20.9575 70.6493 21.6877 70.8683 22.564C71.0874 23.4403 72.7669 23.3673 75.7973 23.2212C78.8278 23.0752 81.128 23.7324 81.7122 26.1056C82.4059 29.063 80.3612 31.3997 75.7973 32.495C73.7162 33.0062 72.1462 33.0792 71.27 33.2618C71.0227 33.3335 70.7884 33.4445 70.5762 33.5904L68.7872 29.9393C70.8866 30.4488 73.0773 30.4488 75.1767 29.9393V29.9758Z" fill="#164194"/>
<path d="M86.0565 28.771C86.0565 28.771 86.0565 28.4059 86.0565 27.9677L85.6549 18.7669H84.9612C83.1542 18.7271 81.3758 19.2225 79.8496 20.1909C80.2512 18.3653 80.6163 17.3795 80.6163 17.0874C80.5931 16.8819 80.5033 16.6896 80.3608 16.5397L94.2715 15.9556C94.1415 16.1239 94.0651 16.3274 94.0524 16.5397C94.0524 16.7953 94.4906 17.7811 95.0747 19.5337C93.4598 18.7261 91.6518 18.3847 89.8537 18.5479H88.9774L89.3425 27.7487C89.3227 28.2452 89.4421 28.7374 89.6873 29.1697C89.9325 29.6019 90.2936 29.957 90.7299 30.1949L84.8516 30.414C85.1706 30.2515 85.4403 30.0068 85.6329 29.7051C85.8254 29.4034 85.9339 29.0557 85.947 28.698L86.0565 28.771Z" fill="#164194"/>
<path d="M94.9295 27.712L96.609 18.5842C96.8646 17.3429 96.609 16.5031 95.8788 15.9919L110.483 18.6573C110.332 18.7968 110.219 18.9727 110.155 19.1684C110.155 19.4605 110.155 20.4828 110.447 22.3449C109.072 21.1763 107.383 20.4397 105.591 20.2272L99.9316 19.2049L99.3109 22.4544L105.445 23.5863C106.083 23.7181 106.742 23.7181 107.38 23.5863L105.846 25.3388C105.647 25.558 105.394 25.7208 105.112 25.8105C104.83 25.9003 104.529 25.9139 104.24 25.8499L98.8727 24.8641L98.252 28.5153L104.094 29.5741C106.01 30.0462 108.032 29.8129 109.79 28.9169C109.079 29.9467 108.432 31.0198 107.854 32.1299C107.795 32.3324 107.795 32.548 107.854 32.7506L93.25 30.0487C94.1263 29.8662 94.6009 29.136 94.82 27.8946L94.9295 27.712Z" fill="#164194"/>
<path d="M119.903 29.2457C121.947 30.2315 123.006 30.2315 123.554 28.8441C124.101 27.4566 123.554 26.6899 121.509 25.7041L118.187 24.2071L116.471 27.8583L119.866 29.5013L119.903 29.2457ZM114.207 35.27L108.949 32.8968C109.862 32.8968 110.519 32.3491 111.067 31.1808L115.12 22.8927C115.399 22.4978 115.55 22.0258 115.55 21.5418C115.55 21.0579 115.399 20.5858 115.12 20.1909L122.604 23.842C123.911 24.4112 125.138 25.1475 126.255 26.0327C126.874 26.6154 127.281 27.387 127.413 28.2263C127.545 29.0656 127.395 29.9251 126.986 30.6696C126.48 31.5292 125.678 32.1743 124.73 32.4836C123.781 32.7929 122.753 32.7451 121.838 32.3491C122.557 33.2584 122.978 34.3679 123.043 35.5256C123.043 37.1388 123.392 38.7329 124.065 40.199L118.625 37.5337C118.78 37.5027 118.925 37.4374 119.052 37.3426C119.178 37.2478 119.282 37.126 119.355 36.986C119.693 35.9417 119.693 34.8174 119.355 33.7731C119.227 33.1208 118.945 32.5086 118.532 31.9877C118.119 31.4669 117.588 31.0524 116.982 30.7791L115.485 30.0489L114.243 32.6777C113.955 33.0761 113.8 33.5552 113.8 34.0469C113.8 34.5385 113.955 35.0177 114.243 35.4161L114.207 35.27Z" fill="#164194"/>
<path d="M136.114 51.1522C135.347 50.4219 133.814 49.5822 132.244 48.0122C131.417 47.412 130.733 46.6357 130.243 45.7392C129.753 44.8428 129.468 43.8487 129.408 42.8286C129.349 41.8085 129.517 40.788 129.9 39.8407C130.283 38.8934 130.871 38.0431 131.623 37.351C132.379 36.5675 133.295 35.956 134.309 35.5577C135.322 35.1594 136.41 34.9837 137.497 35.0426C138.584 35.1015 139.646 35.3935 140.611 35.8989C141.576 36.4042 142.42 37.1112 143.088 37.9716C144.804 39.6512 145.607 41.2576 146.264 41.8783C146.463 42.0622 146.684 42.2216 146.921 42.353L143.562 43.9595C143.267 42.4151 142.502 40.9997 141.372 39.9067C140.936 39.4103 140.4 39.0125 139.799 38.74C139.197 38.4674 138.545 38.3265 137.885 38.3265C137.225 38.3265 136.572 38.4674 135.971 38.74C135.369 39.0125 134.833 39.4103 134.398 39.9067C133.876 40.3054 133.452 40.8192 133.161 41.4081C132.87 41.997 132.718 42.6452 132.718 43.3023C132.718 43.9593 132.87 44.6075 133.161 45.1964C133.452 45.7853 133.876 46.2991 134.398 46.6978C135.795 47.9771 137.47 48.9145 139.29 49.4361L136.625 52.138C136.478 51.8167 136.281 51.5209 136.041 51.2617L136.114 51.1522Z" fill="#164194"/>
<path d="M149.55 50.4587L142.029 55.7163C140.97 56.4465 140.532 57.1767 140.714 58.0895L137.355 53.3066C138.159 53.7812 138.962 53.5986 140.057 52.8684L147.579 47.5013C148.637 46.7346 149.076 46.0408 148.893 45.0916L152.252 49.911C151.449 49.4364 150.609 49.5824 149.55 50.3492V50.4587Z" fill="#164194"/>
<path d="M144.694 61.8135L145.387 61.4849L153.748 57.5052L153.42 56.8845C152.747 55.2202 151.605 53.787 150.134 52.7587C151.923 52.3936 152.982 52.3571 153.274 52.2111C153.442 52.1009 153.58 51.9502 153.675 51.7729L159.663 64.3693C159.463 64.2936 159.243 64.2936 159.043 64.3693C158.787 64.3693 158.093 65.2821 156.669 66.4869C156.799 64.6858 156.406 62.8856 155.537 61.3024L155.209 60.6452L146.884 64.6249C146.419 64.7828 146.011 65.0753 145.712 65.4653C145.413 65.8552 145.237 66.3252 145.205 66.8155L142.686 61.5214C142.956 61.7591 143.29 61.9132 143.646 61.965C144.003 62.0169 144.367 61.9643 144.694 61.8135V61.8135Z" fill="#164194"/>
<path d="M162.183 78.5722C162.548 78.5722 162.731 78.2801 162.914 77.8785L164.082 83.3917C163.036 82.7393 161.937 82.1774 160.796 81.7121L153.494 78.061L151.34 78.4992C150.062 78.7547 149.331 79.3389 149.185 80.2152L147.98 74.4464C148.565 75.2497 149.368 75.3592 150.609 75.1036L152.727 74.6655L158.715 68.276C159.56 67.5604 160.192 66.6255 160.54 65.5742L161.818 71.6351C161.711 71.4904 161.565 71.3793 161.397 71.3147C161.228 71.25 161.045 71.2345 160.869 71.27C160.399 71.3955 159.986 71.6792 159.701 72.0732L156.049 76.0164L161.271 78.2436C161.645 78.4233 162.065 78.4869 162.475 78.4261L162.183 78.5722Z" fill="#164194"/>
<path d="M121.546 66.852V66.6695V66.3409C121.584 64.1405 122.055 61.9692 122.934 59.9514C123.415 59.1091 123.697 58.1683 123.761 57.2004C123.824 56.2326 123.666 55.263 123.299 54.3652C123.288 54.2072 123.288 54.0486 123.299 53.8906C123.087 53.1478 122.806 52.4265 122.459 51.7364L122.094 51.1157H121.437C115.063 53.2617 109.446 57.2051 105.262 62.4707L103.254 64.0042C103.271 63.8953 103.271 63.7844 103.254 63.6756C103.153 63.2813 102.952 62.9198 102.671 62.6257C102.389 62.3316 102.037 62.1147 101.648 61.996C97.8445 60.7363 93.8609 60.1073 89.8546 60.134C85.5021 60.0823 81.1868 60.9404 77.1852 62.6532L76.3455 63.0549L76.6011 63.5295C71.453 59.1117 61.7775 51.1887 59.0392 51.1887H58.528L58.309 51.4808C57.9349 52.0151 57.6512 52.6071 57.4692 53.2334L57.2501 53.4889C56.3374 54.4017 56.0818 55.4605 57.2501 58.637C58.2095 60.9655 58.8007 63.429 59.0027 65.9392C59.3048 67.881 59.8698 69.7726 60.6822 71.562C60.9013 72.4747 62.4347 78.8642 63.165 80.4707C63.4343 80.9574 63.505 81.5295 63.362 82.0672C63.2191 82.6048 62.8737 83.0663 62.3982 83.3551H62.1792C61.4467 83.7178 60.7986 84.2302 60.2766 84.8591C59.7545 85.488 59.3703 86.2195 59.1487 87.0062C59.1007 87.7563 59.2237 88.5076 59.5083 89.2033C59.7929 89.899 60.2317 90.521 60.7917 91.0224C61.0353 91.5054 61.2428 92.0057 61.4124 92.5194V92.5194C60.9378 93.2861 61.4124 93.7242 61.8871 94.1989L62.1426 94.4545C62.5785 94.8674 63.0557 95.2344 63.5666 95.5498C64.0741 95.8381 64.5206 96.2225 64.881 96.6816C65.0518 96.8831 65.1988 97.1036 65.3191 97.3388C65.6378 97.9965 66.1466 98.5434 66.7796 98.9088V99.8581C66.6571 101.07 66.9191 102.29 67.5286 103.345C68.138 104.4 69.0639 105.237 70.1751 105.736L72.3292 106.686C73.6436 107.27 73.6436 107.27 74.0818 108.037C75.0388 109.895 76.3835 111.526 78.025 112.82C79.1676 113.681 80.1135 114.777 80.7998 116.033L82.1873 116.434C82.2732 116.347 82.3469 116.249 82.4063 116.142V116.142C81.9546 117.135 81.6708 118.196 81.5666 119.282C81.5666 120.56 82.0777 123.481 86.7147 124.211L87.956 125.087L89.4895 126.402H89.7086H90.9134L92.0088 126.146H92.3009L92.4834 125.927L93.1771 125.051L93.7613 124.321C95.0071 124.211 96.1906 123.727 97.1568 122.933V122.933C98.1239 121.911 98.804 120.651 99.1284 119.282C99.1284 119.026 99.1284 117.822 98.8729 117.128L98.3617 115.777C98.5188 116.02 98.6533 116.276 98.7633 116.544L99.2745 118.077L100.26 116.836L102.524 114.061L104.715 111.98C105.304 111.38 105.775 110.674 106.102 109.899L106.358 109.351C107.924 107.92 109.667 106.693 111.542 105.7C112.606 105.164 113.477 104.31 114.033 103.257C114.589 102.203 114.803 101.002 114.646 99.8216V99.4565L114.536 99.0183C114.796 98.4293 115.004 97.8184 115.157 97.1928C116.85 96.2075 118.388 94.9771 119.721 93.5417L120.049 93.14V92.6654C120.049 92.6654 119.465 91.1684 121.108 89.1968C122.751 87.2252 122.897 86.7506 122.605 86.0934C122.54 85.9337 122.436 85.793 122.302 85.6845C122.168 85.5759 122.008 85.5031 121.838 85.4727C120.501 84.6268 119.347 83.5219 118.443 82.2232C118.458 82.0532 118.458 81.8821 118.443 81.7121C117.99 80.216 118.147 78.6014 118.881 77.2212C119.55 76.1899 119.893 74.9815 119.867 73.7526C119.843 73.6198 119.843 73.4838 119.867 73.351C120.349 71.1548 120.946 68.9855 121.656 66.852H121.546Z" fill="#FBBA00"/>
<path d="M95.0393 109.57L95.8061 111.943L96.1712 115.12L94.0901 116.69L86.5688 116.471L83.6844 113.915L84.9623 112.82L85.6925 109.57C76.2726 102.523 72.1469 101.793 72.1469 101.793C70.3659 101.03 68.4847 100.526 66.5607 100.296C66.4382 101.508 66.7002 102.728 67.3096 103.783C67.9191 104.838 68.845 105.675 69.9562 106.175L72.1103 107.124C73.4247 107.708 73.4247 107.708 73.8629 108.475C74.9337 110.196 76.3512 111.676 78.0252 112.82C79.1678 113.681 80.1137 114.777 80.8 116.033L82.1874 116.434C82.2733 116.347 82.347 116.249 82.4065 116.142V116.142C81.9548 117.135 81.671 118.196 81.5667 119.282C81.5667 120.56 82.0779 123.481 86.7148 124.211L87.9562 125.087L89.4896 126.402H89.7087H90.9136L92.0089 126.146H92.301L92.4836 125.927L93.1773 125.051L93.7615 124.321C95.0072 124.211 96.1908 123.727 97.157 122.933V122.933C98.124 121.911 98.8041 120.651 99.1286 119.282C99.1286 119.027 99.1286 117.822 98.873 117.128L98.3619 115.777C98.519 116.02 98.6534 116.276 98.7635 116.544L99.2746 118.077L100.26 116.836L102.524 114.061L104.715 111.98C105.304 111.38 105.775 110.674 106.102 109.899L106.358 109.351C107.925 107.92 109.667 106.693 111.542 105.7C112.599 105.156 113.464 104.3 114.019 103.249C114.574 102.198 114.793 101.001 114.646 99.8216L114.536 98.6168V98.3977L111.907 99.8216C94.9663 106.211 95.0393 109.57 95.0393 109.57Z" fill="white"/>
<path d="M72.8027 90.5479C72.8027 90.5479 73.3139 89.8541 74.5918 90.913C76.5134 92.7342 79.0297 93.7978 81.675 93.9069C81.675 93.9069 82.2956 94.8197 80.2145 94.7466C79.3325 94.7378 78.4529 94.6523 77.5857 94.4911C76.1406 93.652 74.8451 92.5785 73.752 91.3146C73.5074 90.9984 73.1783 90.7579 72.8027 90.6209V90.5479Z" fill="#164194"/>
<path d="M91.8995 70.7586L90.9868 69.9918C90.7099 69.2841 90.6218 68.5166 90.7312 67.7646C92.0709 66.463 93.5967 65.3679 95.2586 64.5151C94.7657 65.4609 94.0965 66.3036 93.287 66.9979C92.6867 67.3875 92.1864 67.9128 91.8265 68.5314C91.6628 69.2647 91.6628 70.0252 91.8265 70.7586H91.8995Z" fill="#164194"/>
<path d="M88.9773 70.503C88.9773 70.503 90.1091 68.6409 89.5249 68.0933L85.3262 64.7708C85.3262 64.7708 85.3262 66.5598 86.2755 67.1805C87.2247 67.8012 87.9185 67.7647 87.9915 68.2028V68.6409C87.9271 68.7715 87.8936 68.9152 87.8936 69.0608C87.8936 69.2064 87.9271 69.3501 87.9915 69.4807C88.3201 69.9188 88.8312 70.503 88.8312 70.503H88.9773Z" fill="#164194"/>
<path d="M98.3237 81.1643C100.226 80.1288 102.203 79.2379 104.239 78.499C105.772 78.1339 104.239 77.7688 103.91 77.6592C103.448 77.6175 102.984 77.6175 102.522 77.6592L101.099 78.2434L100.405 78.6085L99.346 79.4118L98.5428 79.7404L98.0681 79.9959C98.0681 79.9959 97.63 81.6024 98.3237 81.2738V81.1643Z" fill="#164194"/>
<path d="M76.0898 78.0245C76.0898 77.4403 76.674 78.2436 77.1122 78.4991C77.5503 78.7547 79.814 79.4119 79.814 79.4119L80.5077 79.8866L81.6761 80.7994L81.4205 81.3835C81.0533 81.3862 80.695 81.271 80.3982 81.0549C80.0331 80.6898 78.9012 79.9231 78.8282 80.1421C78.7552 80.3612 78.0614 80.1421 77.4773 79.777C77.1234 79.6162 76.813 79.3733 76.5717 79.0685C76.3304 78.7637 76.1652 78.4058 76.0898 78.0245V78.0245Z" fill="#164194"/>
<path d="M71.5261 68.933C71.3361 68.5871 71.189 68.2193 71.088 67.8377V67.5091C70.8629 66.7347 70.7161 65.9396 70.6499 65.1359C70.4852 63.8221 69.865 62.6076 68.8973 61.7038L68.6782 61.4483C68.5863 61.2763 68.4563 61.1277 68.2981 61.0138C68.1398 60.8999 67.9577 60.8237 67.7655 60.7911C67.5464 60.7911 67.1083 60.7911 66.0494 59.6592C64.7083 58.4008 63.2675 57.253 61.7411 56.2272L59.7695 54.8032L60.5363 57.0669C60.7979 57.8332 61.0172 58.6133 61.1935 59.4036C61.1935 59.6592 61.1935 60.1704 61.1935 61.0101C61.2902 61.688 61.3511 62.3705 61.376 63.0547C61.376 63.7485 61.8507 66.7059 61.9602 67.4726V67.7282C62.3526 68.5437 62.7914 69.3361 63.2746 70.1014V70.1014C63.492 70.352 63.6427 70.6534 63.7127 70.9777V70.9777C63.4151 72.0269 63.4794 73.1459 63.8953 74.1541C64.3334 75.6146 65.1367 75.9067 65.7208 75.9067C66.1293 75.8536 66.5222 75.7157 66.8743 75.5019C67.2264 75.2881 67.5299 75.0032 67.7655 74.6653L68.6052 73.716L68.8608 73.4239C69.2989 72.9493 70.1387 72.1095 70.9785 71.3793C71.2345 71.2017 71.4466 70.9679 71.5984 70.6958C71.7503 70.4237 71.838 70.1205 71.8547 69.8093C71.8449 69.3531 71.6772 68.9143 71.3801 68.5679L71.5261 68.933Z" fill="white"/>
<path d="M106.539 89.3429C106.381 89.3932 106.247 89.4981 106.16 89.6387C106.073 89.7792 106.039 89.9463 106.064 90.1097C106.064 90.8034 103.289 93.1036 102.413 93.5052C101.472 93.8118 100.473 93.8992 99.4923 93.7608C98.543 93.7608 98.2144 95.0387 98.2144 95.0387C97.9526 95.5304 97.7327 96.0434 97.5572 96.5721C97.2462 98.2189 96.8192 99.8416 96.2793 101.428C95.9044 103.448 96.0939 105.533 96.827 107.452C97.1846 108.304 97.6378 109.113 98.1779 109.862C98.4297 110.628 98.5531 111.43 98.543 112.235L99.1637 110.008C99.1637 110.008 99.1637 109.205 98.9446 108.73C98.7256 108.256 98.1779 107.672 97.9588 106.868C97.607 105.671 97.3386 104.451 97.1556 103.217C97.1556 102.633 97.7398 99.566 97.8493 98.8358C98.2045 97.7454 98.4372 96.6188 98.543 95.4768V94.9656C100.034 95.096 101.534 94.8501 102.906 94.2505C104.277 93.6509 105.476 92.7167 106.393 91.5336C106.778 90.8054 107.072 90.0329 107.269 89.2334L106.539 89.3429Z" fill="#164194"/>
<path d="M118.478 55.9718C117.45 56.9391 116.296 57.7621 115.046 58.418C112.673 59.842 109.934 61.4484 109.715 64.8075V65.0996V65.3551C110.263 66.1219 109.971 66.7426 109.35 67.8014C108.988 68.3245 108.717 68.9046 108.547 69.5174V70.0651L108.985 70.3937C109.622 70.9088 110.209 71.4834 110.738 72.1097C111.219 72.8268 111.838 73.4412 112.559 73.9175C113.28 74.3938 114.088 74.7225 114.936 74.8845H115.411L115.703 74.4829C116.561 73.1546 117.087 71.6394 117.237 70.0651C117.37 68.7701 117.795 67.5221 118.478 66.414L118.697 66.1219V65.7933C118.577 64.0054 118.788 62.2108 119.318 60.4991C119.663 59.2074 119.895 57.888 120.011 56.5559V54.2192L118.441 55.9353L118.478 55.9718Z" fill="white"/>
<path d="M82.2599 96.2434C82.552 99.8945 85.911 102.669 83.6838 106.284C83.9394 108.329 82.0043 109.351 81.4567 111.067C80.5804 111.067 80.982 109.643 81.0915 109.059C82.1509 107.36 82.7604 105.42 82.8626 103.42C82.9648 101.421 82.5563 99.4287 81.6757 97.6308C81.6757 97.0467 81.6757 96.3895 82.3694 96.2434" fill="#164194"/>
<path d="M117.858 65.7569C116.069 68.2396 116.836 71.6717 115.046 74.1179C112.564 73.8258 111.395 71.197 109.424 69.6635C109.825 68.0205 111.834 66.5966 110.519 64.6615C110.848 59.9516 116.361 59.1483 119.172 56.0814C118.438 59.2593 117.998 62.4982 117.858 65.7569V65.7569ZM119.902 53.7812C116.763 56.483 112.856 57.4323 109.971 60.7183C107.087 63.2376 110.446 67.5094 106.32 69.481C108.899 72.284 111.833 74.7388 115.046 76.7832C117.493 75.3228 117.566 72.5479 117.712 70.0287C120.195 65.6108 118.953 60.4262 120.925 55.7163C120.523 55.0591 120.925 53.4891 119.756 53.7812H119.902Z" fill="#164194"/>
<path d="M70.7217 71.3063C69.8133 72.0605 68.9592 72.878 68.1659 73.7526C67.8289 74.0864 67.5119 74.44 67.2167 74.8114C67.2167 74.8114 65.5006 77.1116 64.6609 74.5558C63.8211 72 64.6609 71.8905 64.6609 71.1968C64.5441 70.718 64.3051 70.2776 63.9672 69.9189C63.6386 69.4442 62.6893 67.5822 62.6893 67.5822C62.6893 67.5822 62.1051 63.9311 62.1051 63.1643C62.1051 62.3976 61.74 59.9148 61.74 59.5132C61.5576 58.5972 61.3136 57.6945 61.0098 56.8114C62.5458 57.8262 63.9986 58.9617 65.3546 60.2069C67.3262 62.069 67.6913 61.3753 67.9104 61.8499C68.9449 62.7522 69.6511 63.972 69.9185 65.3185C69.9647 66.316 70.1617 67.3008 70.5027 68.2394C70.6564 68.7181 70.8518 69.1823 71.0868 69.6268C71.0868 69.6268 71.9996 70.43 70.8313 71.3793L70.7217 71.3063ZM71.9996 68.2759C71.7805 67.6917 71.1964 68.2759 71.4154 66.5598C71.9266 62.9087 71.4154 64.5517 69.5534 61.3022C69.0347 60.7078 68.5818 60.059 68.2025 59.3672C68.2025 58.9655 67.8008 59.1846 67.2167 58.856C66.6325 58.5274 66.3039 58.3814 65.5006 57.9067C64.6914 57.4145 63.9746 56.7843 63.383 56.0446C62.3933 55.2445 61.3003 54.5813 60.1335 54.073C60.004 53.9693 59.843 53.9128 59.6771 53.9128C59.5112 53.9128 59.3502 53.9693 59.2207 54.073C58.6365 54.073 59.4398 56.5193 59.4398 56.9939C59.5837 58.9804 59.852 60.9558 60.243 62.9087C60.6238 65.2916 61.2102 67.6371 61.9956 69.9189C62.543 71.3702 62.8632 72.8973 62.9449 74.4463C62.9622 75.1881 63.1693 75.9132 63.5464 76.5524C63.9235 77.1915 64.458 77.7234 65.099 78.0974C66.4888 76.7689 67.978 75.5483 69.5534 74.4463C70.5194 73.8327 71.3214 72.9931 71.8901 72C72.5838 71.0507 72.5838 71.0507 73.168 70.1379C73.7521 69.2252 72.2552 69.0791 71.9996 68.4949V68.2759Z" fill="#164194"/>
<path d="M81.6756 91.3146C81.6756 91.8375 81.4679 92.339 81.0982 92.7088C80.7284 93.0785 80.2269 93.2862 79.704 93.2862C79.1811 93.2862 78.6796 93.0785 78.3099 92.7088C77.9402 92.339 77.7324 91.8375 77.7324 91.3146C77.7324 90.7917 77.9402 90.2902 78.3099 89.9205C78.6796 89.5507 79.1811 89.343 79.704 89.343C80.2269 89.343 80.7284 89.5507 81.0982 89.9205C81.4679 90.2902 81.6756 90.7917 81.6756 91.3146V91.3146Z" fill="#164194"/>
<path d="M79.1196 90.5114C79.1246 90.5672 79.118 90.6233 79.1001 90.6764C79.0822 90.7294 79.0534 90.7781 79.0156 90.8193C78.9778 90.8606 78.9317 90.8935 78.8804 90.9159C78.8291 90.9383 78.7737 90.9498 78.7177 90.9496C78.6014 90.9496 78.4899 90.9034 78.4077 90.8212C78.3255 90.7391 78.2793 90.6276 78.2793 90.5114C78.2791 90.4555 78.2905 90.4001 78.313 90.3488C78.3354 90.2975 78.3683 90.2515 78.4096 90.2137C78.4509 90.1759 78.4996 90.1471 78.5527 90.1292C78.6057 90.1113 78.6619 90.1047 78.7177 90.1098C78.8243 90.1098 78.9265 90.1521 79.0019 90.2275C79.0772 90.3028 79.1196 90.4049 79.1196 90.5114Z" fill="white"/>
<path d="M103.218 91.3145C103.256 91.5934 103.234 91.8773 103.154 92.147C103.073 92.4167 102.935 92.666 102.75 92.8782C102.565 93.0904 102.337 93.2604 102.081 93.3769C101.824 93.4935 101.546 93.5538 101.265 93.5538C100.983 93.5538 100.705 93.4935 100.448 93.3769C100.192 93.2604 99.9639 93.0904 99.7788 92.8782C99.5937 92.666 99.4563 92.4167 99.3756 92.147C99.2949 91.8773 99.273 91.5934 99.3112 91.3145C99.273 91.0356 99.2949 90.7517 99.3756 90.482C99.4563 90.2122 99.5937 89.9629 99.7788 89.7508C99.9639 89.5386 100.192 89.3685 100.448 89.252C100.705 89.1355 100.983 89.0752 101.265 89.0752C101.546 89.0752 101.824 89.1355 102.081 89.252C102.337 89.3685 102.565 89.5386 102.75 89.7508C102.935 89.9629 103.073 90.2122 103.154 90.482C103.234 90.7517 103.256 91.0356 103.218 91.3145Z" fill="#164194"/>
<path d="M75.2129 87.8459C73.2724 88.0451 71.321 88.1182 69.3711 88.0649C71.2189 88.7384 73.1732 89.0724 75.1398 89.0507C76.3292 88.7322 77.5688 88.6455 78.791 88.7951C81.9309 89.1968 83.3914 92.4463 85.8741 93.7242L86.2757 92.4828C85.3056 90.5282 83.6674 88.9859 81.658 88.1353C79.6486 87.2846 77.401 87.1819 75.3224 87.8459H75.2129Z" fill="#164194"/>
<path d="M120.268 88.5397C119.689 89.0844 119.27 89.7775 119.058 90.5436C118.845 91.3097 118.847 92.1194 119.063 92.8845C116.797 95.2506 114.061 97.1161 111.03 98.3612C110.702 98.3612 110.118 99.1279 109.752 99.4565L107.635 101.866H108.475L108.183 102.962C108.183 102.962 109.424 101.538 109.862 100.917C110.3 100.296 111.395 100.661 111.395 100.661L112.6 100.077L113.367 99.5661C113.623 99.3835 114.024 99.5661 114.024 99.5661C114.155 100.564 113.972 101.578 113.501 102.468C113.03 103.357 112.294 104.078 111.395 104.532C109.391 105.607 107.547 106.959 105.919 108.548C105.541 109.451 105.023 110.288 104.385 111.031L102.158 113.148L99.931 116.142C99.7702 115.67 99.5361 115.227 99.2373 114.828C98.6531 113.915 98.9817 113.988 98.9087 113.477C98.7779 112.869 98.5432 112.289 98.215 111.761C97.8133 110.994 97.2657 111.432 96.9371 111.177C96.505 110.643 96.2957 109.963 96.3529 109.278C96.3529 108.438 94.3083 98.6898 94.1257 97.8501V96.9738C95.0916 95.0262 96.3201 93.2203 97.7768 91.6066C98.2819 91.0251 98.8585 90.5099 99.4929 90.0732V90.0732C100.091 89.684 100.761 89.4188 101.463 89.2934C102.166 89.1679 102.886 89.1848 103.582 89.343V89.343C104.511 89.6076 105.466 89.7669 106.43 89.8176C107.371 89.8518 108.308 89.6763 109.174 89.3037C110.039 88.9311 110.81 88.3709 111.432 87.6634C110.118 87.9555 107.525 88.2111 107.525 88.2111C95.075 87.1158 98.1419 88.7588 98.1419 88.7588C96.2523 89.7248 94.8121 91.3875 94.1257 93.3957L92.9209 95.0022C92.6388 95.9985 92.552 97.0399 92.6653 98.0691C92.6653 98.5803 92.9209 99.9677 92.9209 99.9677C92.6514 103.709 93.2642 107.46 94.7099 110.921C94.7099 111.213 95.6227 114.937 95.6227 114.937H96.0973L96.791 114.244H97.1927V114.682L98.1419 117.237C98.1419 117.237 98.3975 119.027 98.3975 119.282C98.0751 120.41 97.5149 121.456 96.7545 122.349C96.1692 122.866 95.4738 123.244 94.721 123.452C93.9683 123.661 93.1779 123.696 92.4097 123.554H92.1906H91.2779H90.8032L90.4381 123.189V122.714V121.911C91.6012 121.675 92.6471 121.045 93.3989 120.127C94.1507 119.209 94.5622 118.059 94.5639 116.872C94.5639 116.215 93.5415 115.704 93.5415 115.704C91.3313 115.095 88.9973 115.095 86.787 115.704C85.3265 116.033 85.8377 118.077 85.8377 118.077C85.8377 119.319 88.2474 121.254 88.2474 121.254C88.7273 121.634 89.3154 121.851 89.9269 121.874V122.313C89.8494 122.627 89.7392 122.933 89.5983 123.225C89.4158 123.554 88.7221 123.7 88.284 123.773H87.8823C83.5375 123.335 82.6977 121.144 82.6977 119.574C83.0095 117.857 83.5756 116.196 84.3773 114.645L84.8884 115.047C85.2879 115.105 85.6937 115.105 86.0933 115.047C86.3489 115.047 86.0933 114.426 86.0933 114.171C85.9326 113.924 85.7863 113.668 85.6551 113.404C87.6267 111.359 88.8316 97.777 88.9046 97.4484C88.9791 97.1364 88.9791 96.8112 88.9046 96.4991L88.6491 95.915L88.0649 94.9657C88.0649 94.9657 86.9695 94.0894 86.4219 94.345C85.8742 94.6006 86.9695 95.988 86.9695 95.988L87.5537 96.7547C86.9789 98.5463 86.5994 100.395 86.4219 102.268L85.5091 108.146C85.0358 109.231 84.6571 110.355 84.3773 111.505C84.0487 113.112 82.5152 111.907 82.5152 111.907C82.6789 112.591 82.6884 113.303 82.5432 113.991C82.398 114.679 82.1016 115.327 81.6754 115.887C80.9628 114.418 79.8808 113.16 78.5355 112.235C76.9423 111.157 75.5979 109.75 74.5923 108.11C73.8255 106.759 73.7525 107.087 70.3205 105.481C69.3777 105.063 68.5911 104.358 68.0731 103.466C67.5551 102.574 67.3322 101.541 67.4361 100.515C67.4361 100.515 69.8093 101.465 70.1744 101.538C71.0439 101.776 71.8975 102.068 72.7302 102.414C73.3144 102.67 75.8702 104.276 73.3144 101.465C70.7586 98.6533 69.4807 99.5661 67.8377 98.9819C66.1947 98.3977 66.3042 97.704 65.5375 96.6817C64.7708 95.6594 63.6754 95.2943 62.7261 94.3815C61.7769 93.4687 62.0324 93.7608 62.215 93.2497C62.3975 92.7385 61.4483 91.0225 61.4483 91.0225C57.7971 87.1888 61.4483 85.1442 62.7992 84.3774C63.4742 83.9875 63.968 83.3468 64.1732 82.5947C64.3783 81.8426 64.2781 81.0399 63.8945 80.3612C63.1278 78.5722 61.4117 71.489 61.4117 71.489C60.6381 69.7517 60.0861 67.924 59.7687 66.0488C59.5728 63.4395 58.9691 60.877 57.9797 58.4545C56.4462 54.1097 57.9797 54.8034 58.2353 53.5985C58.3998 53.0828 58.6332 52.5915 58.929 52.1381C62.1055 52.1381 78.7545 66.7426 78.7545 66.7426C78.4715 65.6604 78.0545 64.6179 77.5132 63.6391C85.1284 60.6485 93.5498 60.416 101.318 62.9819C103.692 63.9312 101.574 66.633 101.574 66.633L105.919 63.3835C110.029 58.2912 115.517 54.4888 121.728 52.4302C122.054 53.0576 122.312 53.7187 122.495 54.4018C122.897 55.2394 123.105 56.1565 123.105 57.0854C123.105 58.0143 122.897 58.9313 122.495 59.7689C121.529 61.9182 121.007 64.2406 120.961 66.5965C120.119 68.6966 119.436 70.8568 118.917 73.059C118.971 74.3434 118.64 75.6146 117.967 76.7101C117.094 78.4296 116.937 80.4246 117.529 82.2598C117.785 83.6472 121.473 86.203 121.473 86.203C121.473 86.203 122.312 85.9474 120.268 88.4302V88.5397ZM92.0811 125.525L90.9858 125.781H90.219L88.503 124.759C89.0966 124.678 89.6984 124.678 90.2921 124.759C91.4969 124.759 92.4097 124.759 92.6653 124.759L91.9716 125.599L92.0811 125.525ZM121.29 83.3186C117.639 80.5803 119.83 78.3531 120.633 76.8196C121.328 75.1603 121.735 73.3947 121.838 71.5985C121.838 70.8318 122.02 67.9474 122.933 66.9981C123.846 66.0488 124.065 61.5215 124.503 60.4261C124.834 59.3469 125.03 58.2309 125.087 57.1036C125.047 56.4105 125.047 55.7156 125.087 55.0225C124.314 52.8418 123.362 50.729 122.239 48.7061C118.15 49.1442 107.635 58.1259 106.686 59.2213C106.062 59.9088 105.35 60.5104 104.568 61.0103C99.7968 59.8056 94.8823 59.265 89.9635 59.4038C85.2671 59.4498 80.5992 60.1377 76.0892 61.4484C71.2252 56.1695 65.218 52.0731 58.5274 49.4728C54.1825 53.8541 57.2495 64.2598 57.6876 65.2091C58.5182 66.5776 58.9834 68.1366 59.0385 69.7365C59.3667 72.3855 59.8791 75.0085 60.572 77.5864C60.9363 79.0046 61.5149 80.359 62.288 81.6026C62.288 81.6026 61.3752 82.6249 59.7322 84.2679C58.0892 85.9109 58.7099 85.1077 57.7606 85.5458C57.4734 85.7192 57.2269 85.9525 57.0379 86.2297C56.8489 86.5069 56.7218 86.8216 56.6653 87.1523C57.3428 88.4395 58.1372 89.6617 59.0385 90.8034C60.1704 92.0083 58.7099 93.0306 58.7099 93.0306L61.8864 95.5864C63.0547 96.5357 62.3975 96.4626 63.2373 97.2294C64.0771 97.9961 63.4199 98.6168 63.4199 98.6168L64.1136 99.2375C64.455 101.353 65.3562 103.339 66.7237 104.989C68.0911 106.639 69.875 107.893 71.8904 108.621C73.1718 109.377 74.299 110.368 75.213 111.542L76.8194 112.82C80.9452 115.704 80.9452 118.369 80.9452 118.369C80.1785 122.97 83.428 123.809 83.428 123.809C87.7728 125.27 87.5172 125.635 87.5172 125.635C90.8397 128.264 91.789 126.913 92.9939 126.548C93.9308 126.227 94.8162 125.772 95.6227 125.197C97.2802 124.716 98.714 123.664 99.6698 122.227C100.626 120.79 101.041 119.061 100.844 117.347C101.39 116.565 101.987 115.821 102.633 115.12C103.226 114.426 103.718 113.652 104.093 112.82C106.272 110.822 108.617 109.015 111.103 107.416C112.783 106.578 114.226 105.335 115.304 103.798C116.381 102.262 117.058 100.481 117.274 98.6168C117.51 97.2293 118.111 95.9296 119.016 94.8516C119.921 93.7735 121.096 92.9559 122.422 92.4829C122.107 91.986 121.94 91.4099 121.94 90.8217C121.94 90.2334 122.107 89.6573 122.422 89.1604C123.371 87.773 124.905 85.5093 124.905 85.5093C124.905 85.5093 124.686 85.5093 121.254 83.0265L121.29 83.3186Z" fill="#164194"/>
<path d="M100.844 90.5114C100.849 90.5672 100.843 90.6233 100.825 90.6764C100.807 90.7294 100.778 90.7781 100.74 90.8193C100.702 90.8606 100.656 90.8935 100.605 90.9159C100.554 90.9383 100.498 90.9498 100.442 90.9496C100.326 90.9496 100.215 90.9034 100.132 90.8212C100.05 90.7391 100.004 90.6276 100.004 90.5114C100.004 90.4555 100.015 90.4001 100.038 90.3488C100.06 90.2975 100.093 90.2515 100.134 90.2137C100.175 90.1759 100.224 90.1471 100.277 90.1292C100.33 90.1113 100.387 90.1047 100.442 90.1098C100.549 90.1098 100.651 90.1521 100.726 90.2275C100.802 90.3028 100.844 90.4049 100.844 90.5114Z" fill="white"/>
<path d="M212 1.5C212 0.671571 212.672 0 213.5 0C214.328 0 215 0.671573 215 1.5V178.5C215 179.328 214.328 180 213.5 180C212.672 180 212 179.328 212 178.5V1.5Z" fill="#164194"/>
</svg>
