<svg width="170" height="50" viewBox="0 0 170 50" fill="none" xmlns="http://www.w3.org/2000/svg">
<rect width="170" height="50" rx="5" fill="white" fill-opacity="0.1"/>
<path d="M59.6893 12.7542C59.6893 13.7538 59.4375 14.6285 58.8079 15.2533C58.0523 16.003 57.1708 16.3779 56.0375 16.3779C54.9042 16.3779 54.0227 16.003 53.2671 15.2533C52.5116 14.5036 52.1338 13.6289 52.1338 12.5043C52.1338 11.3797 52.5116 10.505 53.2671 9.75522C54.0227 9.00548 54.9042 8.63062 56.0375 8.63062C56.5412 8.63062 57.0449 8.75557 57.5486 9.00548C58.0523 9.2554 58.4301 9.50531 58.6819 9.88018L58.0523 10.505C57.5486 9.88018 56.919 9.63026 56.0375 9.63026C55.2819 9.63026 54.5264 9.88018 54.0227 10.505C53.393 11.0048 53.1412 11.7545 53.1412 12.6292C53.1412 13.5039 53.393 14.2536 54.0227 14.7535C54.6523 15.2533 55.2819 15.6282 56.0375 15.6282C56.919 15.6282 57.5486 15.3783 58.1782 14.7535C58.556 14.3786 58.8079 13.8788 58.8079 13.254H56.0375V12.2543H59.6893V12.7542ZM65.4819 9.63026H62.0819V12.0044H65.2301V12.8791H62.0819V15.2533H65.4819V16.2529H61.0745V8.75557H65.4819V9.63026ZM69.6375 16.2529H68.6301V9.63026H66.4893V8.75557H71.7782V9.63026H69.6375V16.2529ZM75.4301 16.2529V8.75557H76.4375V16.2529H75.4301ZM80.7189 16.2529H79.7115V9.63026H77.5708V8.75557H82.7338V9.63026H80.593V16.2529H80.7189ZM92.6819 15.2533C91.9263 16.003 91.0449 16.3779 89.9115 16.3779C88.7782 16.3779 87.8967 16.003 87.1412 15.2533C86.3856 14.5036 86.0078 13.6289 86.0078 12.5043C86.0078 11.3797 86.3856 10.505 87.1412 9.75522C87.8967 9.00548 88.7782 8.63062 89.9115 8.63062C91.0449 8.63062 91.9263 9.00548 92.6819 9.75522C93.4375 10.505 93.8152 11.3797 93.8152 12.5043C93.8152 13.6289 93.4375 14.5036 92.6819 15.2533ZM87.8967 14.6285C88.4004 15.1283 89.156 15.5032 89.9115 15.5032C90.6671 15.5032 91.4226 15.2533 91.9263 14.6285C92.43 14.1287 92.8078 13.379 92.8078 12.5043C92.8078 11.6296 92.556 10.8798 91.9263 10.38C91.4226 9.88018 90.6671 9.50531 89.9115 9.50531C89.156 9.50531 88.4004 9.75522 87.8967 10.38C87.393 10.8798 87.0152 11.6296 87.0152 12.5043C87.0152 13.379 87.2671 14.1287 87.8967 14.6285ZM95.2004 16.2529V8.75557H96.3337L99.9856 14.6285V8.75557H100.993V16.2529H99.9856L96.0819 10.1301V16.2529H95.2004Z" fill="white"/>
<path d="M85.7558 27.2494C82.7336 27.2494 80.341 29.4986 80.341 32.6225C80.341 35.6215 82.7336 37.9956 85.7558 37.9956C88.7781 37.9956 91.1707 35.7464 91.1707 32.6225C91.1707 29.3737 88.7781 27.2494 85.7558 27.2494ZM85.7558 35.7464C84.1188 35.7464 82.7336 34.3719 82.7336 32.4976C82.7336 30.6232 84.1188 29.2487 85.7558 29.2487C87.3929 29.2487 88.7781 30.4983 88.7781 32.4976C88.7781 34.3719 87.3929 35.7464 85.7558 35.7464ZM74.0447 27.2494C71.0225 27.2494 68.6299 29.4986 68.6299 32.6225C68.6299 35.6215 71.0225 37.9956 74.0447 37.9956C77.067 37.9956 79.4596 35.7464 79.4596 32.6225C79.4596 29.3737 77.067 27.2494 74.0447 27.2494ZM74.0447 35.7464C72.4077 35.7464 71.0225 34.3719 71.0225 32.4976C71.0225 30.6232 72.4077 29.2487 74.0447 29.2487C75.6818 29.2487 77.067 30.4983 77.067 32.4976C77.067 34.3719 75.6818 35.7464 74.0447 35.7464ZM60.067 28.8738V31.1231H65.4818C65.3559 32.3726 64.8522 33.3723 64.2225 33.9971C63.467 34.7468 62.2077 35.6215 60.067 35.6215C56.667 35.6215 54.1485 32.9974 54.1485 29.6236C54.1485 26.2498 56.7929 23.6257 60.067 23.6257C61.8299 23.6257 63.2151 24.3754 64.2225 25.2501L65.8596 23.6257C64.4744 22.3761 62.7114 21.3765 60.1929 21.3765C55.6596 21.3765 51.7559 25.1252 51.7559 29.6236C51.7559 34.122 55.6596 37.8707 60.1929 37.8707C62.7114 37.8707 64.4744 37.121 65.9855 35.4965C67.4966 33.997 68.0003 31.8728 68.0003 30.2484C68.0003 29.7485 68.0003 29.2487 67.8744 28.8738H60.067ZM117.237 30.6232C116.734 29.3737 115.474 27.2494 112.704 27.2494C109.934 27.2494 107.667 29.3737 107.667 32.6225C107.667 35.6215 109.934 37.9956 112.956 37.9956C115.348 37.9956 116.86 36.4962 117.363 35.6215L115.6 34.3719C114.971 35.2466 114.215 35.8714 112.956 35.8714C111.697 35.8714 110.941 35.3716 110.311 34.247L117.489 31.248L117.237 30.6232ZM109.934 32.3726C109.934 30.3733 111.571 29.2487 112.704 29.2487C113.585 29.2487 114.467 29.7485 114.719 30.3733L109.934 32.3726ZM104.015 37.4958H106.408V21.8763H104.015V37.4958ZM100.237 28.374C99.6077 27.7492 98.6003 27.1245 97.341 27.1245C94.6966 27.1245 92.1781 29.4986 92.1781 32.4976C92.1781 35.4965 94.5707 37.7457 97.341 37.7457C98.6003 37.7457 99.6077 37.121 100.111 36.4962H100.237V37.2459C100.237 39.2452 99.104 40.3698 97.341 40.3698C95.9559 40.3698 94.9484 39.3702 94.6966 38.4955L92.6818 39.3702C93.3114 40.7447 94.8225 42.4941 97.467 42.4941C100.237 42.4941 102.504 40.8696 102.504 36.996V27.4993H100.237V28.374ZM97.467 35.7464C95.8299 35.7464 94.4447 34.3719 94.4447 32.4976C94.4447 30.6232 95.8299 29.2487 97.467 29.2487C99.104 29.2487 100.363 30.6232 100.363 32.4976C100.363 34.3719 99.104 35.7464 97.467 35.7464ZM128.193 21.8763H122.526V37.4958H124.919V31.6229H128.193C130.837 31.6229 133.356 29.7485 133.356 26.7496C133.356 23.7506 130.837 21.8763 128.193 21.8763ZM128.319 29.3737H124.919V24.0005H128.319C130.082 24.0005 131.089 25.5 131.089 26.6246C130.963 27.9991 129.956 29.3737 128.319 29.3737ZM142.8 27.1245C141.037 27.1245 139.274 27.8742 138.645 29.4986L140.785 30.3733C141.289 29.4986 142.045 29.2487 142.926 29.2487C144.185 29.2487 145.319 29.9984 145.445 31.248V31.373C145.067 31.1231 144.06 30.7482 143.052 30.7482C140.785 30.7482 138.519 31.9977 138.519 34.247C138.519 36.3712 140.408 37.7457 142.423 37.7457C144.06 37.7457 144.815 36.996 145.445 36.2463H145.571V37.4958H147.837V31.4979C147.585 28.7489 145.445 27.1245 142.8 27.1245ZM142.548 35.7464C141.793 35.7464 140.66 35.3716 140.66 34.3719C140.66 33.1224 142.045 32.7475 143.178 32.7475C144.185 32.7475 144.689 32.9974 145.319 33.2473C145.067 34.7468 143.808 35.7464 142.548 35.7464ZM155.771 27.4993L153.126 34.247H153L150.23 27.4993H147.711L151.867 36.996L149.474 42.2442H151.867L158.289 27.4993H155.771ZM134.615 37.4958H137.008V21.8763H134.615V37.4958Z" fill="white"/>
<path d="M13.0965 9.38037C12.7187 9.75524 12.5928 10.38 12.5928 11.1298V38.7451C12.5928 39.4948 12.8446 40.1196 13.2224 40.4945L13.3483 40.6194L28.9631 25.1249V24.8749L13.0965 9.38037Z" fill="url(#paint0_linear)"/>
<path d="M33.9999 30.373L28.8369 25.2498V24.8749L33.9999 19.7517L34.1258 19.8767L40.2962 23.3754C42.0591 24.3751 42.0591 25.9995 40.2962 26.9992L33.9999 30.373Z" fill="url(#paint1_linear)"/>
<path d="M34.1263 30.2482L28.8374 25L13.0967 40.6195C13.7263 41.2443 14.6078 41.2443 15.7411 40.7445L34.1263 30.2482Z" fill="url(#paint2_linear)"/>
<path d="M34.1263 19.7521L15.7411 9.38073C14.6078 8.75595 13.7263 8.88091 13.0967 9.50569L28.8374 25.0003L34.1263 19.7521Z" fill="url(#paint3_linear)"/>
<path opacity="0.2" d="M34.0004 30.1233L15.7411 40.3697C14.7337 40.9945 13.8522 40.8695 13.2226 40.3697L13.0967 40.4946L13.2226 40.6196C13.8522 41.1194 14.7337 41.2444 15.7411 40.6196L34.0004 30.1233Z" fill="black"/>
<path opacity="0.2" d="M13.0965 40.3696C12.7187 39.9948 12.5928 39.37 12.5928 38.6202V38.7452C12.5928 39.4949 12.8446 40.1197 13.2224 40.4946V40.3696H13.0965ZM40.2965 26.6244L34.0002 30.1232L34.1261 30.2482L40.2965 26.7494C41.178 26.2496 41.5557 25.6248 41.5557 25C41.5557 25.6248 41.052 26.1246 40.2965 26.6244Z" fill="black"/>
<path opacity="0.2" d="M15.7409 9.50551L40.2965 23.3756C41.052 23.8755 41.5557 24.3753 41.5557 25.0001C41.5557 24.3753 41.178 23.7505 40.2965 23.2507L15.7409 9.38055C13.978 8.3809 12.5928 9.13064 12.5928 11.1299V11.2549C12.5928 9.38055 13.978 8.50586 15.7409 9.50551Z" fill="white"/>
<defs>
<linearGradient id="paint0_linear" x1="27.452" y1="10.8923" x2="6.48123" y2="32.0246" gradientUnits="userSpaceOnUse">
<stop stop-color="#00A0FF"/>
<stop offset="0.007" stop-color="#00A1FF"/>
<stop offset="0.26" stop-color="#00BEFF"/>
<stop offset="0.512" stop-color="#00D2FF"/>
<stop offset="0.76" stop-color="#00DFFF"/>
<stop offset="1" stop-color="#00E3FF"/>
</linearGradient>
<linearGradient id="paint1_linear" x1="42.6057" y1="25.0011" x2="12.1354" y2="25.0011" gradientUnits="userSpaceOnUse">
<stop stop-color="#FFE000"/>
<stop offset="0.409" stop-color="#FFBD00"/>
<stop offset="0.775" stop-color="#FFA500"/>
<stop offset="1" stop-color="#FF9C00"/>
</linearGradient>
<linearGradient id="paint2_linear" x1="31.264" y1="27.869" x2="2.82732" y2="56.5264" gradientUnits="userSpaceOnUse">
<stop stop-color="#FF3A44"/>
<stop offset="1" stop-color="#C31162"/>
</linearGradient>
<linearGradient id="paint3_linear" x1="9.1892" y1="0.228937" x2="21.8881" y2="13.0264" gradientUnits="userSpaceOnUse">
<stop stop-color="#32A071"/>
<stop offset="0.069" stop-color="#2DA771"/>
<stop offset="0.476" stop-color="#15CF74"/>
<stop offset="0.801" stop-color="#06E775"/>
<stop offset="1" stop-color="#00F076"/>
</linearGradient>
</defs>
</svg>
