<svg width="131" height="130" viewBox="0 0 131 130" fill="none" xmlns="http://www.w3.org/2000/svg">
<g clip-path="url(#clip0)">
<path d="M105.3 44.9795C118.04 44.9795 128.31 55.2495 128.31 67.9895C128.31 80.7295 118.04 90.9995 105.3 90.9995H83.5898" stroke="black" stroke-width="2.8346" stroke-miterlimit="10" stroke-linecap="round" stroke-linejoin="round"/>
<path d="M100.88 11.1797H19.2402V59.9297H100.88V11.1797Z" fill="#F3F6F7"/>
<path d="M100.75 11.1798H19.2402V2.85977C19.2402 1.42977 20.4102 0.259766 21.8402 0.259766H98.2802C99.7102 0.259766 100.88 1.42977 100.88 2.85977V11.1798H100.75Z" fill="#2C3E50"/>
<path d="M33.1504 8.05969C34.0838 8.05969 34.8405 7.30305 34.8405 6.36969C34.8405 5.43633 34.0838 4.67969 33.1504 4.67969C32.2171 4.67969 31.4604 5.43633 31.4604 6.36969C31.4604 7.30305 32.2171 8.05969 33.1504 8.05969Z" fill="#A5CEFF"/>
<path d="M27.3004 8.05969C28.2337 8.05969 28.9904 7.30305 28.9904 6.36969C28.9904 5.43633 28.2337 4.67969 27.3004 4.67969C26.367 4.67969 25.6104 5.43633 25.6104 6.36969C25.6104 7.30305 26.367 8.05969 27.3004 8.05969Z" fill="#A5CEFF"/>
<path d="M39.0005 8.05969C39.9339 8.05969 40.6905 7.30305 40.6905 6.36969C40.6905 5.43633 39.9339 4.67969 39.0005 4.67969C38.0672 4.67969 37.3105 5.43633 37.3105 6.36969C37.3105 7.30305 38.0672 8.05969 39.0005 8.05969Z" fill="#A5CEFF"/>
<path d="M43.9402 11.1797H19.2402V59.9297H43.9402V11.1797Z" fill="#A5CEFF"/>
<path d="M36.6601 26.2593H26.7801C26.0001 26.2593 25.3501 25.6093 25.3501 24.8293V23.9193C25.3501 23.1393 26.0001 22.4893 26.7801 22.4893H36.6601C37.4401 22.4893 38.0901 23.1393 38.0901 23.9193V24.8293C38.0901 25.6093 37.4401 26.2593 36.6601 26.2593Z" fill="#4C93FF"/>
<path d="M33.8005 34.8392H26.6505C26.0005 34.8392 25.4805 34.3192 25.4805 33.6692V32.3692C25.4805 31.7192 26.0005 31.1992 26.6505 31.1992H33.8005C34.4505 31.1992 34.9705 31.7192 34.9705 32.3692V33.6692C34.9705 34.3192 34.4505 34.8392 33.8005 34.8392Z" fill="#4C93FF"/>
<path d="M36.6601 43.4194H26.7801C26.0001 43.4194 25.3501 42.7694 25.3501 41.9894V41.0794C25.3501 40.2994 26.0001 39.6494 26.7801 39.6494H36.6601C37.4401 39.6494 38.0901 40.2994 38.0901 41.0794V41.9894C38.0901 42.7694 37.4401 43.4194 36.6601 43.4194Z" fill="#4C93FF"/>
<path d="M54.3403 47.9697H49.6603C49.2703 47.9697 49.0103 47.7097 49.0103 47.3197V22.6197C49.0103 22.2297 49.2703 21.9697 49.6603 21.9697H54.3403C54.7303 21.9697 54.9903 22.2297 54.9903 22.6197V47.3197C55.1203 47.7097 54.7303 47.9697 54.3403 47.9697Z" fill="#80C342"/>
<path d="M62.4003 42.1201H57.7203C57.3303 42.1201 57.0703 41.8601 57.0703 41.4701V28.7301C57.0703 28.3401 57.3303 28.0801 57.7203 28.0801H62.4003C62.7903 28.0801 63.0503 28.3401 63.0503 28.7301V41.4701C63.0503 41.8601 62.7903 42.1201 62.4003 42.1201Z" fill="#F04923"/>
<path d="M78.2602 45.2406H73.5802C73.1902 45.2406 72.9302 44.9806 72.9302 44.5906V30.2906C72.9302 29.9006 73.1902 29.6406 73.5802 29.6406H78.2602C78.6502 29.6406 78.9102 29.9006 78.9102 30.2906V44.5906C78.9102 44.9806 78.6502 45.2406 78.2602 45.2406Z" fill="#F04923"/>
<path d="M70.3305 42.2507H65.6505C65.2605 42.2507 65.0005 41.9907 65.0005 41.6007V24.8307C65.0005 24.4407 65.2605 24.1807 65.6505 24.1807H70.3305C70.7205 24.1807 70.9805 24.4407 70.9805 24.8307V41.6007C70.9805 41.9907 70.7205 42.2507 70.3305 42.2507Z" fill="#80C342"/>
<path d="M86.1903 43.1598H81.5104C81.1204 43.1598 80.8604 42.8998 80.8604 42.5098V25.7398C80.8604 25.3498 81.1204 25.0898 81.5104 25.0898H86.1903C86.5803 25.0898 86.8403 25.3498 86.8403 25.7398V42.5098C86.8403 42.8998 86.5803 43.1598 86.1903 43.1598Z" fill="#80C342"/>
<path d="M94.12 35.2303H89.44C89.05 35.2303 88.79 34.9703 88.79 34.5803V17.6803C88.79 17.2903 89.05 17.0303 89.44 17.0303H94.12C94.51 17.0303 94.77 17.2903 94.77 17.6803V34.4503C94.9 34.8403 94.51 35.2303 94.12 35.2303Z" fill="#80C342"/>
<path d="M59.5403 70.2L7.41026 84.11C3.77026 85.02 1.69026 88.79 2.60026 92.43L11.3103 125.06C12.2203 128.7 15.9903 130.78 19.6303 129.87L71.7603 115.96C75.4003 115.05 77.4803 111.28 76.5703 107.64L67.8603 75.01C66.8203 71.37 63.1803 69.16 59.5403 70.2Z" fill="#2C3E50"/>
<path d="M12.6099 103.739L64.7399 89.6992" stroke="#F04923" stroke-width="2.5959" stroke-miterlimit="10"/>
<path d="M15.21 113.49L41.34 106.47" stroke="white" stroke-width="2.5959" stroke-miterlimit="10"/>
<path d="M17.0303 119.989L36.5303 114.789" stroke="white" stroke-width="2.5959" stroke-miterlimit="10"/>
<path d="M61.7502 109.589C64.5503 109.589 66.8202 107.319 66.8202 104.519C66.8202 101.719 64.5503 99.4492 61.7502 99.4492C58.9501 99.4492 56.6802 101.719 56.6802 104.519C56.6802 107.319 58.9501 109.589 61.7502 109.589Z" fill="white"/>
<path d="M21.0599 102.05L59.2799 91.5196L48.6199 55.5096C48.0999 53.8196 46.2799 52.7796 44.4599 53.2996L12.8699 62.7896C11.1799 63.3096 10.1399 65.1296 10.6599 66.9496L21.0599 102.05Z" fill="#F04923"/>
<path d="M62.2701 90.7395L30.29 54.2095C29.12 52.9095 27.17 52.7795 25.87 53.9495L1.04004 75.6595C-0.259958 76.8295 -0.389958 78.7795 0.780043 80.0795L20.28 102.309L62.2701 90.7395Z" fill="#80C342"/>
<path d="M26.3903 100.489L56.1603 92.2992L31.4603 64.0892C29.5103 65.7792 26.5203 65.6492 24.7003 63.6992L10.9203 75.6592C12.6103 77.6092 12.4803 80.5992 10.5303 82.4192L26.3903 100.489Z" fill="#5A902F"/>
<path d="M31.4602 99.1894L43.4202 95.9394C46.2802 92.1694 46.1502 86.7094 43.0302 83.0694C39.2602 78.7794 32.8902 78.3894 28.6002 82.1594C24.3102 85.9294 23.9202 92.2994 27.6902 96.5894C28.7302 97.6294 30.0302 98.5394 31.4602 99.1894Z" fill="#80C342"/>
<path d="M80.9902 93.2099L88.2702 97.3699C89.8302 98.2799 91.9102 97.1099 91.9102 95.2899V86.8399C91.9102 85.0199 89.9602 83.8499 88.2702 84.7599L80.9902 88.9199C79.3002 90.0899 79.3002 92.2999 80.9902 93.2099Z" fill="black"/>
</g>
<defs>
<clipPath id="clip0">
<rect width="130.13" height="130" fill="white"/>
</clipPath>
</defs>
</svg>
