<svg width="64" height="64" viewBox="0 0 64 64" fill="none" xmlns="http://www.w3.org/2000/svg">
<g clip-path="url(#clip0_645_75649)">
<path fill-rule="evenodd" clip-rule="evenodd" d="M55.6663 38.8537L32.0791 25.3249L31.9962 25.2856L31.9098 25.2605L31.8125 25.2498L31.7152 25.2533L31.6107 25.2677L31.499 25.2999L31.3873 25.3428L31.272 25.4037L10.1422 37.522L10.0269 37.5972L9.91161 37.6831L9.80351 37.7762L9.69902 37.8836L9.59812 37.9945L9.50444 38.1127L9.41796 38.238L9.33508 38.3704L32.9223 51.8993L33.0052 51.7704L33.0916 51.6451L33.1853 51.5234L33.2862 51.4124L33.3907 51.305L33.4988 51.2119L33.6141 51.126L33.7294 51.0544L54.8592 38.9325L54.9745 38.8716L55.0862 38.8287L55.1979 38.7965L55.3024 38.7821H55.3997L55.497 38.7929L55.5834 38.8179L55.6663 38.8537Z" fill="#7B8C91"/>
<path fill-rule="evenodd" clip-rule="evenodd" d="M56 39.589C56.0283 39.4473 56.0112 39.3003 55.9512 39.1687C55.8912 39.0371 55.7912 38.9275 55.6653 38.8552C55.5394 38.7828 55.3939 38.7515 55.2491 38.7655C55.1044 38.7795 54.9677 38.8381 54.8581 38.9332L33.7294 51.0539C33.3923 51.263 33.1145 51.554 32.9223 51.8996L32.9216 51.9014C32.7161 52.2394 32.6011 52.624 32.5876 53.0187V60.1905C32.5594 60.3322 32.5765 60.4791 32.6366 60.6107C32.6966 60.7422 32.7966 60.8518 32.9225 60.9241C33.0484 60.9963 33.1939 61.0277 33.3386 61.0137C33.4833 60.9996 33.62 60.941 33.7294 60.846L54.8581 48.7263C55.1952 48.5169 55.473 48.2256 55.6653 47.8799L55.6663 47.8789C55.8713 47.5406 55.9861 47.156 56 46.7615V39.589Z" fill="#E6EAEB"/>
<path fill-rule="evenodd" clip-rule="evenodd" d="M55.0502 42.9563L54.7259 42.7666L52.6864 43.9373L53.0107 44.1234L55.0502 42.9563Z" fill="#E8B02C"/>
<path fill-rule="evenodd" clip-rule="evenodd" d="M53.0107 44.1234L52.6864 43.9373V46.275L53.0107 46.4612V44.1234Z" fill="#D49D1E"/>
<path fill-rule="evenodd" clip-rule="evenodd" d="M53.0107 46.4611L55.0501 45.294V42.9563L53.0107 44.1234V46.4611Z" fill="#FAC13C"/>
<path fill-rule="evenodd" clip-rule="evenodd" d="M34.9409 55.583C34.7834 55.6735 34.6559 55.6005 34.6559 55.4198C34.6612 55.3214 34.6897 55.2256 34.7392 55.1403C34.7888 55.0549 34.8578 54.9824 34.9409 54.9285L47.0873 47.9607C47.2458 47.8706 47.3733 47.9436 47.3733 48.1244C47.3681 48.2229 47.3394 48.3188 47.2897 48.4041C47.24 48.4895 47.1706 48.562 47.0873 48.6156L34.9409 55.583Z" fill="#475357"/>
<path fill-rule="evenodd" clip-rule="evenodd" d="M32.9223 51.8992L9.33511 38.3704L9.25944 38.5064L9.19458 38.6424L9.13693 38.7856L9.09008 38.9253L9.05045 39.0685L9.02162 39.2117L9.00721 39.3513L9 39.4873V46.6616L9.00721 46.7905L9.02162 46.9122L9.05045 47.0196L9.09008 47.1199L9.14053 47.2058L9.19818 47.281L9.26304 47.3418L9.33511 47.392L32.9223 60.9243L32.8502 60.8742L32.7818 60.8098L32.7277 60.7346L32.6773 60.6487L32.6376 60.552L32.6124 60.441L32.5944 60.3193L32.5872 60.1904V53.0197L32.5944 52.8801L32.6124 52.7405L32.6376 52.6008L32.6773 52.4576L32.7241 52.3144L32.7818 52.1748L32.8466 52.0352L32.9223 51.9028V51.8992Z" fill="#A0ADB0"/>
<path fill-rule="evenodd" clip-rule="evenodd" d="M46.5165 48.2887L47.0872 47.9607C47.2447 47.8706 47.3733 47.9436 47.3733 48.1244C47.3677 48.223 47.3389 48.3189 47.2893 48.4044C47.2396 48.4898 47.1704 48.5626 47.0872 48.6167L46.5165 48.2887Z" fill="#30383B"/>
<path fill-rule="evenodd" clip-rule="evenodd" d="M52.1099 44.6389L51.7856 44.4563L49.7461 45.6234L50.0704 45.8095L52.1099 44.6389Z" fill="#0D8FB3"/>
<path fill-rule="evenodd" clip-rule="evenodd" d="M50.0704 45.8097L49.7461 45.6235V47.9613L50.0704 48.1474V45.8097Z" fill="#067796"/>
<path fill-rule="evenodd" clip-rule="evenodd" d="M50.0704 48.1473L52.1099 46.9802V44.6389L50.0704 45.8096V48.1473Z" fill="#0D99BF"/>
<path fill-rule="evenodd" clip-rule="evenodd" d="M55.6663 27.8417L32.0791 14.3093L31.9962 14.2735L31.9098 14.2485L31.8125 14.2341L31.7152 14.2377L31.6107 14.252L31.499 14.2843L31.3873 14.3272L31.272 14.3881L10.1422 26.5064L10.0269 26.5815L9.91161 26.6675L9.80351 26.7605L9.69902 26.8679L9.59812 26.9789L9.50444 27.0971L9.41796 27.2224L9.33508 27.3548L32.9223 40.8836L33.0052 40.7547L33.0916 40.6294L33.1853 40.5077L33.2862 40.3967L33.3907 40.2929L33.4988 40.1963L33.6141 40.1103L33.7294 40.0387L54.8592 27.9169L54.9745 27.8596L55.0862 27.8131L55.1979 27.7808L55.3024 27.7665H55.3997L55.497 27.7773L55.5834 27.8023L55.6663 27.8417Z" fill="#7B8C91"/>
<path fill-rule="evenodd" clip-rule="evenodd" d="M56 28.573C56.028 28.4314 56.0107 28.2845 55.9506 28.1531C55.8904 28.0217 55.7904 27.9122 55.6646 27.8401C55.5387 27.768 55.3932 27.7368 55.2486 27.7509C55.104 27.7649 54.9675 27.8236 54.8581 27.9186L33.7294 40.0382C33.3923 40.2473 33.1145 40.5384 32.9223 40.8839L32.9215 40.8857C32.7162 41.2238 32.6012 41.6084 32.5875 42.003V49.1756C32.5595 49.3172 32.5767 49.4641 32.6368 49.5955C32.6969 49.727 32.7969 49.8365 32.9228 49.9086C33.0487 49.9808 33.1941 50.0121 33.3387 49.998C33.4834 49.984 33.62 49.9253 33.7294 49.8303L54.8581 37.7106C55.195 37.5013 55.4727 37.2103 55.6652 36.865L55.6663 36.8632C55.8714 36.525 55.9862 36.1404 56 35.7458V28.573Z" fill="#E6EAEB"/>
<path fill-rule="evenodd" clip-rule="evenodd" d="M55.0502 31.9407L54.7259 31.751L52.6864 32.9216L53.0107 33.1078L55.0502 31.9407Z" fill="#E8B02C"/>
<path fill-rule="evenodd" clip-rule="evenodd" d="M53.0107 33.1078L52.6864 32.9216V35.2594L53.0107 35.4455V33.1078Z" fill="#D49D1E"/>
<path fill-rule="evenodd" clip-rule="evenodd" d="M53.0107 35.4455L55.0501 34.2784V31.9407L53.0107 33.1078V35.4455Z" fill="#FAC13C"/>
<path fill-rule="evenodd" clip-rule="evenodd" d="M34.9409 44.5684C34.7834 44.6586 34.6559 44.5848 34.6559 44.4041C34.6612 44.3057 34.6897 44.21 34.7392 44.1247C34.7888 44.0393 34.8578 43.9668 34.9409 43.913L47.0873 36.9451C47.2458 36.855 47.3733 36.9291 47.3733 37.1098C47.368 37.2082 47.3393 37.304 47.2896 37.3894C47.2399 37.4747 47.1705 37.5471 47.0873 37.6007L34.9409 44.5684Z" fill="#475357"/>
<path fill-rule="evenodd" clip-rule="evenodd" d="M32.9223 40.8835L9.33511 27.3547L9.25944 27.4908L9.19458 27.6304L9.13693 27.77L9.09008 27.9096L9.05045 28.0528L9.02162 28.196L9.00721 28.3357L9 28.4717V35.646L9.00721 35.7749L9.02162 35.893L9.05045 36.004L9.09008 36.1042L9.14053 36.1902L9.19818 36.2653L9.26304 36.3262L9.33511 36.3799L32.9223 49.9087L32.8502 49.8586L32.7818 49.7942L32.7277 49.719L32.6773 49.6331L32.6376 49.5364L32.6124 49.4254L32.5944 49.3037L32.5872 49.1748V42.0041L32.5944 41.8645L32.6124 41.7248L32.6376 41.5852L32.6773 41.442L32.7241 41.2988L32.7818 41.1592L32.8466 41.0196L32.9223 40.8871V40.8835Z" fill="#A0ADB0"/>
<path fill-rule="evenodd" clip-rule="evenodd" d="M46.5165 37.2731L47.0872 36.9451C47.2447 36.8549 47.3733 36.9279 47.3733 37.1097C47.3676 37.2081 47.3388 37.3038 47.2891 37.389C47.2394 37.4743 47.1703 37.5468 47.0872 37.6007L46.5165 37.2731Z" fill="#30383B"/>
<path fill-rule="evenodd" clip-rule="evenodd" d="M52.1099 33.6233L51.7856 33.4407L49.7461 34.6078L50.0704 34.7939L52.1099 33.6233Z" fill="#0D8FB3"/>
<path fill-rule="evenodd" clip-rule="evenodd" d="M50.0704 34.7941L49.7461 34.6079V36.9456L50.0704 37.1318V34.7941Z" fill="#067796"/>
<path fill-rule="evenodd" clip-rule="evenodd" d="M50.0704 37.1317L52.1099 35.9646V33.6233L50.0704 34.7939V37.1317Z" fill="#0D99BF"/>
<path fill-rule="evenodd" clip-rule="evenodd" d="M55.6663 16.604L32.0791 3.07518L31.9962 3.0358L31.9098 3.01074L31.8125 3L31.7152 3.00358L31.6107 3.0179L31.499 3.04654L31.3873 3.09308L31.272 3.15394L10.1422 15.2722L10.0269 15.3474L9.91161 15.4297L9.80351 15.5264L9.69902 15.6302L9.59812 15.7412L9.50444 15.8629L9.41796 15.9882L9.33508 16.1207L32.9223 29.6495L33.0052 29.517L33.0916 29.3917L33.1853 29.2736L33.2862 29.1626L33.3907 29.0588L33.4988 28.9621L33.6141 28.8762L33.7294 28.8046L54.8592 16.6827L54.9745 16.6219L55.0862 16.5789L55.1979 16.5467L55.3024 16.5324L55.3997 16.5288L55.497 16.5431L55.5834 16.5682L55.6663 16.604Z" fill="#BFC7C9"/>
<path fill-rule="evenodd" clip-rule="evenodd" d="M56 17.3381C56.0282 17.1964 56.0111 17.0495 55.9511 16.918C55.891 16.7864 55.791 16.6768 55.6651 16.6046C55.5393 16.5323 55.3938 16.501 55.249 16.515C55.1043 16.529 54.9677 16.5876 54.8582 16.6827L33.7295 28.8035C33.3924 29.0124 33.1146 29.3033 32.9223 29.6487L32.9216 29.6508C32.7163 29.9889 32.6013 30.3735 32.5876 30.7682V37.9396C32.5593 38.0814 32.5763 38.2284 32.6364 38.36C32.6964 38.4916 32.7964 38.6012 32.9223 38.6735C33.0483 38.7458 33.1939 38.7771 33.3386 38.7631C33.4834 38.749 33.62 38.6903 33.7295 38.5951L54.8582 26.4754C55.1953 26.2661 55.4731 25.9748 55.6653 25.6291L55.6664 25.628C55.8713 25.2898 55.9862 24.9053 56 24.5107V17.3381Z" fill="#E6EAEB"/>
<path fill-rule="evenodd" clip-rule="evenodd" d="M55.0502 20.703L54.7259 20.5168L52.6864 21.6875L53.0107 21.8737L55.0502 20.703Z" fill="#E8B02C"/>
<path fill-rule="evenodd" clip-rule="evenodd" d="M53.0107 21.8737L52.6864 21.6875V24.0252L53.0107 24.2114V21.8737Z" fill="#D49D1E"/>
<path fill-rule="evenodd" clip-rule="evenodd" d="M53.0107 24.2115L55.0501 23.0409V20.7031L53.0107 21.8738V24.2115Z" fill="#FAC13C"/>
<path fill-rule="evenodd" clip-rule="evenodd" d="M34.9409 33.3327C34.7834 33.423 34.6559 33.3499 34.6559 33.1695C34.6612 33.0711 34.6897 32.9753 34.7392 32.89C34.7888 32.8047 34.8578 32.7322 34.9409 32.6783L47.0873 25.7106C47.2458 25.6203 47.3733 25.6933 47.3733 25.8738C47.3681 25.9724 47.3394 26.0685 47.2897 26.154C47.24 26.2396 47.1706 26.3122 47.0873 26.3661L34.9409 33.3327Z" fill="#475357"/>
<path fill-rule="evenodd" clip-rule="evenodd" d="M32.9223 29.6494L9.33511 16.1206L9.25944 16.2566L9.19458 16.3927L9.13693 16.5359L9.09008 16.6755L9.05045 16.8187L9.02162 16.9619L9.00721 17.1015L9 17.2376V24.4119L9.00721 24.5408L9.02162 24.6589L9.05045 24.7699L9.09008 24.8665L9.14053 24.9525L9.19818 25.0276L9.26304 25.0921L9.33511 25.1422L32.9223 38.6746L32.8502 38.6209L32.7818 38.56L32.7277 38.4848L32.6773 38.3989L32.6376 38.2987L32.6124 38.1913L32.5944 38.0696L32.5872 37.9407V30.7664L32.5944 30.6303L32.6124 30.4907L32.6376 30.3475L32.6773 30.2079L32.7241 30.0647L32.7818 29.9251L32.8466 29.7855L32.9223 29.6494Z" fill="#A0ADB0"/>
<path fill-rule="evenodd" clip-rule="evenodd" d="M46.5165 26.0385L47.0872 25.7106C47.2447 25.6203 47.3733 25.6933 47.3733 25.8738C47.3678 25.9724 47.3391 26.0683 47.2894 26.1538C47.2397 26.2394 47.1704 26.3121 47.0872 26.3661L46.5165 26.0385Z" fill="#30383B"/>
<path fill-rule="evenodd" clip-rule="evenodd" d="M52.1099 22.3893L51.7856 22.2031L49.7461 23.3738L50.0704 23.5599L52.1099 22.3893Z" fill="#0D8FB3"/>
<path fill-rule="evenodd" clip-rule="evenodd" d="M50.0704 23.5599L49.7461 23.3738V25.7115L50.0704 25.8977V23.5599Z" fill="#067796"/>
<path fill-rule="evenodd" clip-rule="evenodd" d="M50.0704 25.8976L52.1099 24.7305V22.3892L50.0704 23.5598V25.8976Z" fill="#0D99BF"/>
</g>
<defs>
<clipPath id="clip0_645_75649">
<rect width="47" height="58" fill="white" transform="translate(9 3)"/>
</clipPath>
</defs>
</svg>
