<svg width="32" height="32" viewBox="0 0 32 32" fill="none" xmlns="http://www.w3.org/2000/svg">
<path d="M0.551749 26.4824H31.4483C31.7529 26.4824 32 26.2354 32 25.9307V6.06866C32 5.76398 31.7529 5.51691 31.4483 5.51691H0.551749C0.247062 5.51698 0 5.76398 0 6.06866V25.9307C0 26.2354 0.247062 26.4824 0.551749 26.4824Z" fill="#C8414B"/>
<path d="M31.9999 9.93097H0V22.0691H31.9999V9.93097Z" fill="#FFD250"/>
<path d="M13.5173 15.9997L13.9852 13.8946C14.0283 13.7008 13.8807 13.5169 13.6821 13.5169H13.3526C13.154 13.5169 13.0065 13.7008 13.0495 13.8946L13.5173 15.9997Z" fill="#C8414B"/>
<path d="M14.0688 14.8965H12.9654V19.5859H14.0688V14.8965Z" fill="#F5F5F5"/>
<path d="M14.3444 14.3447H12.6892V14.8965H14.3444V14.3447Z" fill="#FAB446"/>
<path d="M14.345 16.0001H11.5862V16.5518H14.345V16.0001Z" fill="#C8414B"/>
<path d="M14.3446 18.2066L12.6894 17.6549V17.1031L14.3446 17.6549V18.2066Z" fill="#C8414B"/>
<path d="M5.24153 15.9997L5.70934 13.8946C5.75246 13.7008 5.6049 13.5169 5.40628 13.5169H5.07678C4.87821 13.5169 4.73071 13.7008 4.77371 13.8946L5.24153 15.9997Z" fill="#C8414B"/>
<path d="M7.17263 14.3451C6.86794 14.3451 6.62088 14.5922 6.62088 14.8969V18.4831C6.62088 19.1534 7.2465 20.4141 9.3795 20.4141C11.5125 20.4141 12.1381 19.1534 12.1381 18.4831V14.8969C12.1381 14.5922 11.8911 14.3451 11.5864 14.3451H7.17263V14.3451Z" fill="#F5F5F5"/>
<path d="M9.3795 17.1037H6.62088V14.8969C6.62088 14.5922 6.86794 14.3451 7.17263 14.3451H9.3795V17.1037Z" fill="#C8414B"/>
<path d="M9.37978 17.104H12.1384V18.4833C12.1384 19.2452 11.5209 19.8627 10.7591 19.8627C9.99728 19.8627 9.37978 19.2452 9.37978 18.4833V17.104V17.104Z" fill="#C8414B"/>
<path d="M6.62088 17.1033H9.3795V18.4826C9.3795 19.2445 8.762 19.8619 8.00019 19.8619C7.23838 19.8619 6.62088 19.2445 6.62088 18.4826V17.1033V17.1033Z" fill="#FAB446"/>
<path d="M8.82746 19.5799V17.1033H8.27571V19.8341C8.48096 19.7925 8.6664 19.7016 8.82746 19.5799Z" fill="#C8414B"/>
<path d="M7.72421 19.8341V17.1033H7.17246V19.5799C7.33359 19.7016 7.51902 19.7925 7.72421 19.8341Z" fill="#C8414B"/>
<path d="M8.82784 16.0001H7.17266V16.5518H8.82784V16.0001Z" fill="#FFB441"/>
<path d="M8.82784 14.8965H7.17266V15.4482H8.82784V14.8965Z" fill="#FAB446"/>
<path d="M8.55153 15.2246H7.4481V16.2241H8.55153V15.2246Z" fill="#FAB446"/>
<path d="M5.79262 14.8965H4.68919V19.5859H5.79262V14.8965Z" fill="#F5F5F5"/>
<path d="M6.06893 19.3102H4.41375V19.8619H6.06893V19.3102Z" fill="#FAB446"/>
<path d="M6.06893 14.3447H4.41375V14.8965H6.06893V14.3447Z" fill="#FAB446"/>
<path d="M6.34498 19.8619H4.13811V20.4137H6.34498V19.8619Z" fill="#5064AA"/>
<path d="M14.6206 19.3109H12.9654V19.8626H14.6206V19.3109Z" fill="#FAB446"/>
<path d="M14.6206 19.8619H12.4137V20.4137H14.6206V19.8619Z" fill="#5064AA"/>
<path d="M11.0349 13.7928H7.72453V14.3446H11.0349V13.7928Z" fill="#FAB446"/>
<path d="M9.65529 12.1382H9.10355V13.7934H9.65529V12.1382Z" fill="#FFB441"/>
<path d="M8.82755 12.9656C8.37117 12.9656 7.99998 12.5943 7.99998 12.138C7.99998 11.6817 8.37123 11.3105 8.82755 11.3105C9.28392 11.3105 9.65511 11.6817 9.65511 12.138C9.65517 12.5943 9.28392 12.9656 8.82755 12.9656ZM8.82755 11.8622C8.67536 11.8622 8.55167 11.9858 8.55167 12.138C8.55167 12.2902 8.6753 12.4139 8.82755 12.4139C8.9798 12.4139 9.10342 12.2903 9.10342 12.138C9.10342 11.9858 8.9798 11.8622 8.82755 11.8622Z" fill="#F5F5F5"/>
<path d="M9.93162 12.9656C9.47524 12.9656 9.10406 12.5943 9.10406 12.138C9.10406 11.6817 9.47531 11.3105 9.93162 11.3105C10.388 11.3105 10.7592 11.6817 10.7592 12.138C10.7592 12.5943 10.3879 12.9656 9.93162 12.9656ZM9.93162 11.8622C9.77943 11.8622 9.65574 11.9858 9.65574 12.138C9.65574 12.2902 9.77937 12.4139 9.93162 12.4139C10.0838 12.4139 10.2075 12.2903 10.2075 12.138C10.2074 11.9858 10.0838 11.8622 9.93162 11.8622Z" fill="#F5F5F5"/>
<path d="M11.0349 13.5173C10.5785 13.5173 10.2073 13.146 10.2073 12.6897C10.2073 12.2333 10.5786 11.8622 11.0349 11.8622C11.4912 11.8622 11.8624 12.2334 11.8624 12.6897C11.8624 13.146 11.4912 13.5173 11.0349 13.5173ZM11.0349 12.4138C10.8827 12.4138 10.759 12.5375 10.759 12.6897C10.759 12.8419 10.8826 12.9656 11.0349 12.9656C11.1871 12.9656 11.3107 12.842 11.3107 12.6897C11.3107 12.5375 11.1871 12.4138 11.0349 12.4138Z" fill="#F5F5F5"/>
<path d="M7.72428 13.5173C7.26791 13.5173 6.89672 13.146 6.89672 12.6897C6.89672 12.2333 7.26797 11.8622 7.72428 11.8622C8.18066 11.8622 8.55184 12.2334 8.55184 12.6897C8.55191 13.146 8.18066 13.5173 7.72428 13.5173ZM7.72428 12.4138C7.57209 12.4138 7.44841 12.5375 7.44841 12.6897C7.44841 12.8419 7.57203 12.9656 7.72428 12.9656C7.87653 12.9656 8.00016 12.8419 8.00016 12.6897C8.00016 12.5375 7.87653 12.4138 7.72428 12.4138Z" fill="#F5F5F5"/>
<path d="M11.0342 18.2067V18.4826C11.0342 18.6347 10.9104 18.7584 10.7583 18.7584C10.6062 18.7584 10.4824 18.6347 10.4824 18.4826V18.2067H11.0342ZM11.5858 17.655H9.93066V18.4826C9.93066 18.9389 10.3019 19.3101 10.7582 19.3101C11.2146 19.3101 11.5858 18.9389 11.5858 18.4826V17.655H11.5858Z" fill="#FAB446"/>
<path d="M10.759 16.5519C10.4543 16.5519 10.2072 16.3049 10.2072 16.0002V15.4485C10.2072 15.1438 10.4543 14.8967 10.759 14.8967C11.0636 14.8967 11.3107 15.1438 11.3107 15.4485V16.0002C11.3107 16.3049 11.0636 16.5519 10.759 16.5519Z" fill="#FFA0D2"/>
<path d="M9.37932 17.9305C9.83637 17.9305 10.2069 17.56 10.2069 17.103C10.2069 16.6459 9.83637 16.2754 9.37932 16.2754C8.92227 16.2754 8.55176 16.6459 8.55176 17.103C8.55176 17.56 8.92227 17.9305 9.37932 17.9305Z" fill="#5064AA"/>
<path d="M9.65529 11.0346H9.10355V12.6898H9.65529V11.0346Z" fill="#FAB446"/>
<path d="M7.72421 13.7931L7.17246 13.2413L7.49565 12.9181C7.99521 12.4186 8.67284 12.1379 9.3794 12.1379C10.086 12.1379 10.7635 12.4186 11.2631 12.9181L11.5863 13.2413L11.0346 13.7931H7.72421Z" fill="#C8414B"/>
<path d="M9.37903 13.5171C9.53139 13.5171 9.6549 13.3936 9.6549 13.2412C9.6549 13.0888 9.53139 12.9653 9.37903 12.9653C9.22667 12.9653 9.10316 13.0888 9.10316 13.2412C9.10316 13.3936 9.22667 13.5171 9.37903 13.5171Z" fill="#FFD250"/>
<path d="M8.27546 13.5171C8.42782 13.5171 8.55134 13.3936 8.55134 13.2412C8.55134 13.0888 8.42782 12.9653 8.27546 12.9653C8.1231 12.9653 7.99959 13.0888 7.99959 13.2412C7.99959 13.3936 8.1231 13.5171 8.27546 13.5171Z" fill="#FFD250"/>
<path d="M10.4827 13.5171C10.635 13.5171 10.7586 13.3936 10.7586 13.2412C10.7586 13.0888 10.635 12.9653 10.4827 12.9653C10.3303 12.9653 10.2068 13.0888 10.2068 13.2412C10.2068 13.3936 10.3303 13.5171 10.4827 13.5171Z" fill="#FFD250"/>
<path d="M7.17249 16.0001H4.41375V16.5518H7.17249V16.0001Z" fill="#C8414B"/>
<path d="M4.41385 18.2068L6.06897 17.6551V17.1033L4.41385 17.6551V18.2068Z" fill="#C8414B"/>
</svg>
