<svg width="70" height="70" viewBox="0 0 70 70" fill="none" xmlns="http://www.w3.org/2000/svg">
<g clip-path="url(#clip0_645_90091)">
<path fill-rule="evenodd" clip-rule="evenodd" d="M55.7819 42.0612L48.2637 37.8301L13.133 57.603L20.6471 61.8341L55.7819 42.0612Z" fill="#BDBDBD"/>
<path fill-rule="evenodd" clip-rule="evenodd" d="M20.6471 61.8342L13.133 57.603L13.1249 61.3929L20.6431 65.6241L20.6471 61.8342Z" fill="#9C9C9C"/>
<path fill-rule="evenodd" clip-rule="evenodd" d="M55.7819 42.0613L20.6471 61.8342L20.6431 65.6241L55.7739 45.8551L55.7819 42.0613Z" fill="#E6EAEB"/>
<path fill-rule="evenodd" clip-rule="evenodd" d="M55.7819 35.5176L48.2637 31.2825L13.133 51.0554L20.6471 55.2905L55.7819 35.5176Z" fill="#BDBDBD"/>
<path fill-rule="evenodd" clip-rule="evenodd" d="M20.6471 55.2905L13.133 51.0554L13.1249 54.8493L20.6431 59.0804L20.6471 55.2905Z" fill="#9C9C9C"/>
<path fill-rule="evenodd" clip-rule="evenodd" d="M55.7819 35.5176L20.6471 55.2905L20.6431 59.0804L55.7739 39.3075L55.7819 35.5176Z" fill="#E6EAEB"/>
<path fill-rule="evenodd" clip-rule="evenodd" d="M55.7819 28.9699L48.2637 24.7388L13.133 44.5117L20.6471 48.7428L55.7819 28.9699Z" fill="#BDBDBD"/>
<path fill-rule="evenodd" clip-rule="evenodd" d="M20.6471 48.7429L13.133 44.5117L13.1249 48.3016L20.6431 52.5328L20.6471 48.7429Z" fill="#9C9C9C"/>
<path fill-rule="evenodd" clip-rule="evenodd" d="M55.7819 28.97L20.6471 48.7429L20.6431 52.5328L55.7739 32.7599L55.7819 28.97Z" fill="#E6EAEB"/>
<path fill-rule="evenodd" clip-rule="evenodd" d="M55.7819 21.6975L48.2637 17.4663L31.9507 26.6417L39.4689 30.8728L55.7819 21.6975Z" fill="#BDBDBD"/>
<path fill-rule="evenodd" clip-rule="evenodd" d="M39.4689 30.8727L31.9507 26.6416L31.9467 30.4315L39.4608 34.6626L39.4689 30.8727Z" fill="#9C9C9C"/>
<path fill-rule="evenodd" clip-rule="evenodd" d="M55.7819 21.6975L39.4689 30.8729L39.4608 34.6628L55.7739 25.4874L55.7819 21.6975Z" fill="#E6EAEB"/>
<path fill-rule="evenodd" clip-rule="evenodd" d="M55.7819 15.1538L48.2637 10.9187L31.9507 20.0941L39.4689 24.3291L55.7819 15.1538Z" fill="#BDBDBD"/>
<path fill-rule="evenodd" clip-rule="evenodd" d="M39.4689 24.3291L31.9507 20.094L31.9467 23.8878L39.4608 28.119L39.4689 24.3291Z" fill="#9C9C9C"/>
<path fill-rule="evenodd" clip-rule="evenodd" d="M55.7819 15.1538L39.4689 24.3292L39.4608 28.1191L55.7739 18.9437L55.7819 15.1538Z" fill="#E6EAEB"/>
<path fill-rule="evenodd" clip-rule="evenodd" d="M55.7819 8.60614L48.2637 4.375L31.9507 13.5504L39.4689 17.7815L55.7819 8.60614Z" fill="#BDBDBD"/>
<path fill-rule="evenodd" clip-rule="evenodd" d="M39.4689 17.7814L31.9507 13.5503L31.9467 17.3402L39.4608 21.5753L39.4689 17.7814Z" fill="#9C9C9C"/>
<path fill-rule="evenodd" clip-rule="evenodd" d="M55.7819 8.6062L39.4689 17.7816L39.4608 21.5754L55.7739 12.3961L55.7819 8.6062Z" fill="#E6EAEB"/>
<path fill-rule="evenodd" clip-rule="evenodd" d="M30.2257 22.8361L22.8085 18.6601L22.7519 18.6444L22.6913 18.6365L22.6267 18.6444L22.554 18.668L22.4853 18.7034L20.2957 19.9326L20.2189 19.9838L20.1462 20.0429L20.0775 20.1138L20.0169 20.1926L19.9604 20.2754L19.9119 20.366L19.8715 20.4566L19.8432 20.5511L13.7309 40.8913L13.7066 41.0095L13.6985 41.1198L13.7066 41.2183L13.7349 41.3011L13.7793 41.368L13.8399 41.4192L21.2531 45.5913L21.1966 45.544L21.1521 45.477L21.1238 45.3943L21.1117 45.2958V45.2919L21.5925 45.5598L21.1117 45.2879L21.1198 45.1855L21.1481 45.0673L24.687 33.28L25.3374 33.6464L25.6849 34.5446L25.7172 34.6077L25.7616 34.6549L25.8101 34.6864L33.2233 38.8624L33.1748 38.8309L33.1344 38.7836L33.1021 38.7206L31.5871 34.8046L29.0097 33.3509L30.6499 32.4291L29.2521 29.0055L29.24 28.978L29.1834 28.8243L29.1228 28.6707L29.0662 28.517L29.0097 28.3594L28.9572 28.2058L28.9046 28.0482L28.8521 27.8906L28.8077 27.733L26.711 26.5512L27.2564 24.7232L27.2887 24.6326L27.3291 24.542L27.3776 24.4513L27.4341 24.3686L27.4947 24.2898L27.5634 24.2189L27.6361 24.1598L27.7129 24.1086L29.9025 22.8755L29.9712 22.844L30.0398 22.8203L30.1085 22.8125L30.1691 22.8164L30.2257 22.8361Z" fill="#3D566E"/>
<path fill-rule="evenodd" clip-rule="evenodd" d="M36.1049 36.6298L30.3481 22.9731C30.2762 22.7978 30.0928 22.7679 29.8993 22.8762L27.7133 24.1077C27.4886 24.2512 27.3265 24.471 27.2584 24.7243L21.1481 45.0657C21.0495 45.3986 21.1675 45.6475 21.4135 45.6219C21.4772 45.6132 21.5384 45.5919 21.5933 45.5593V45.5605L23.8572 44.2852C24.0871 44.1392 24.2511 43.913 24.3153 43.6528L25.9276 37.9913L31.5871 34.8042L33.1021 38.7205C33.1732 38.9025 33.3578 38.9361 33.5558 38.8254L35.665 37.6384C35.8051 37.5492 35.9217 37.4292 36.0052 37.2879C36.0888 37.1466 36.1371 36.9881 36.1461 36.8252C36.1479 36.7578 36.1338 36.691 36.1049 36.6298ZM30.6503 32.4286L26.9126 34.5326L28.2353 29.8277L28.2445 29.7922C28.4655 29.0047 28.6509 28.3192 28.8056 27.7329C28.9337 28.1537 29.0792 28.5691 29.242 28.9791L29.2533 29.0039L30.6503 32.4286Z" fill="#547696"/>
</g>
<defs>
<clipPath id="clip0_645_90091">
<rect width="42.6562" height="61.25" fill="white" transform="translate(13.1249 4.375)"/>
</clipPath>
</defs>
</svg>
