<svg width="130" height="130" viewBox="0 0 130 130" fill="none" xmlns="http://www.w3.org/2000/svg">
<path d="M87.9129 17.3828L22.2256 40.6211L36.0992 79.8374L101.787 56.5991L87.9129 17.3828Z" fill="#F3F6F7"/>
<path d="M87.8799 17.4196L22.2299 40.5596L19.7599 33.7996C19.3699 32.6296 19.8899 31.4596 21.0599 31.0696L82.6799 9.2296C83.8499 8.8396 85.0199 9.3596 85.4099 10.5296L87.8799 17.4196Z" fill="#2C3E50"/>
<path d="M32.1102 34.1901C32.8999 34.1901 33.5402 33.5498 33.5402 32.7601C33.5402 31.9703 32.8999 31.3301 32.1102 31.3301C31.3204 31.3301 30.6802 31.9703 30.6802 32.7601C30.6802 33.5498 31.3204 34.1901 32.1102 34.1901Z" fill="#A5CEFF"/>
<path d="M27.3001 35.8795C28.0899 35.8795 28.7301 35.2393 28.7301 34.4495C28.7301 33.6598 28.0899 33.0195 27.3001 33.0195C26.5104 33.0195 25.8701 33.6598 25.8701 34.4495C25.8701 35.2393 26.5104 35.8795 27.3001 35.8795Z" fill="#A5CEFF"/>
<path d="M36.7899 32.4996C37.5796 32.4996 38.2199 31.8594 38.2199 31.0696C38.2199 30.2799 37.5796 29.6396 36.7899 29.6396C36.0001 29.6396 35.3599 30.2799 35.3599 31.0696C35.3599 31.8594 36.0001 32.4996 36.7899 32.4996Z" fill="#A5CEFF"/>
<path d="M42.1033 33.5478L22.25 40.5713L36.1236 79.7876L55.9769 72.7641L42.1033 33.5478Z" fill="#A5CEFF"/>
<path d="M40.56 47.7093L32.63 50.5693C31.98 50.8293 31.33 50.4393 31.07 49.7893L30.81 49.0093C30.55 48.3593 30.94 47.7093 31.59 47.4493L39.52 44.5893C40.17 44.3293 40.82 44.7193 41.08 45.3693L41.34 46.1493C41.47 46.7993 41.21 47.4493 40.56 47.7093Z" fill="#4C93FF"/>
<path d="M40.6897 55.5095L34.9697 57.5895C34.4497 57.7195 33.7997 57.4595 33.6697 56.9395L33.2797 55.8995C33.1497 55.3795 33.4097 54.7295 33.9297 54.5995L39.6497 52.5195C40.1697 52.3895 40.8197 52.6495 40.9497 53.1695L41.3397 54.2095C41.4697 54.7295 41.2097 55.2495 40.6897 55.5095Z" fill="#4C93FF"/>
<path d="M45.4999 61.6194L37.5699 64.4794C36.9199 64.7394 36.2699 64.3494 36.0099 63.6994L35.7499 62.9194C35.4899 62.2694 35.8799 61.6194 36.5299 61.3594L44.4599 58.4994C45.1099 58.2394 45.7599 58.6294 46.0199 59.2794L46.2799 60.0594C46.4099 60.7094 46.0199 61.3594 45.4999 61.6194Z" fill="#4C93FF"/>
<path d="M62.1397 63.3099L58.3697 64.6099C58.1097 64.7399 57.7197 64.6099 57.5897 64.2199L50.5697 44.3299C50.4397 44.0699 50.5697 43.6799 50.9597 43.5499L54.7297 42.2499C54.9897 42.1199 55.3797 42.2499 55.5097 42.6399L62.5297 62.5299C62.6597 62.9199 62.3997 63.3099 62.1397 63.3099Z" fill="#80C342"/>
<path d="M66.8198 56.4204L63.0498 57.7204C62.7898 57.8504 62.3998 57.7204 62.2698 57.3304L58.6298 47.0604C58.4998 46.8004 58.6298 46.4104 59.0198 46.2804L62.7898 44.9804C63.0498 44.8504 63.4398 44.9804 63.5698 45.3704L67.2098 55.6404C67.3398 55.9004 67.2098 56.2904 66.8198 56.4204Z" fill="#F04923"/>
<path d="M80.5999 54.3395L76.8299 55.6395C76.5699 55.7695 76.1799 55.6395 76.0499 55.2495L72.0199 43.6795C71.8899 43.4195 72.0199 43.0295 72.4099 42.8995L76.1799 41.5995C76.4399 41.4695 76.8299 41.5995 76.9599 41.9895L80.9899 53.5595C80.9899 53.9495 80.8599 54.2095 80.5999 54.3395Z" fill="#F04923"/>
<path d="M73.3199 54.2104L69.5499 55.5104C69.2899 55.6404 68.8999 55.5104 68.7699 55.1204L63.9599 41.6004C63.8299 41.3404 63.9599 40.9504 64.3499 40.8204L68.1199 39.5204C68.3799 39.3904 68.7699 39.5204 68.8999 39.9104L73.7099 53.4304C73.7099 53.8204 73.5799 54.0804 73.3199 54.2104Z" fill="#80C342"/>
<path d="M86.3199 50.4399L82.5499 51.7399C82.2899 51.8699 81.8999 51.7399 81.7699 51.3499L76.9599 37.8299C76.8299 37.5699 76.9599 37.1799 77.3499 37.0499L81.1199 35.7499C81.3799 35.6199 81.7699 35.7499 81.8999 36.1399L86.7099 49.6599C86.8399 49.9199 86.7099 50.3099 86.3199 50.4399Z" fill="#80C342"/>
<path d="M90.4795 41.73L86.7095 43.03C86.4495 43.16 86.0595 43.03 85.9295 42.64L81.1196 29.12C80.9896 28.86 81.1195 28.47 81.5095 28.34L85.2795 27.04C85.5395 26.91 85.9295 27.04 86.0595 27.43L90.8696 40.95C90.9996 41.21 90.7395 41.6 90.4795 41.73Z" fill="#80C342"/>
<path d="M106.6 102.44H48.6202C45.6302 102.44 43.1602 99.9695 43.1602 96.9795V67.7295C43.1602 64.7395 45.6302 62.2695 48.6202 62.2695H106.6C109.59 62.2695 112.06 64.7395 112.06 67.7295V96.8495C112.19 99.9695 109.72 102.44 106.6 102.44Z" fill="#D5D8D8"/>
<path d="M81.25 97.3701H101.53" stroke="white" stroke-width="2.9307" stroke-miterlimit="10"/>
<path d="M50.7002 90.3506H81.2502" stroke="white" stroke-width="2.9307" stroke-miterlimit="10"/>
<path d="M91.3901 90.3506H101.53" stroke="white" stroke-width="2.9307" stroke-miterlimit="10"/>
<path d="M50.7002 83.4601L81.2502 83.3301" stroke="white" stroke-width="2.9307" stroke-miterlimit="10"/>
<path d="M91.3901 83.3301H101.53" stroke="white" stroke-width="2.9307" stroke-miterlimit="10"/>
<path d="M55.25 74.4902H91.39" stroke="#2C3E50" stroke-width="3.1887" stroke-miterlimit="10"/>
<path d="M74.62 67.5996H119.6C124.54 67.5996 128.7 71.6296 128.7 76.6996V77.0896C128.7 82.0296 124.67 86.1896 119.6 86.1896H74.62C69.68 86.1896 65.52 82.1596 65.52 77.0896V76.6996C65.65 71.6296 69.68 67.5996 74.62 67.5996Z" fill="#F04923"/>
<path d="M79.17 78.5198C79.17 78.1298 79.04 77.8698 78.91 77.7398C78.78 77.6098 78.39 77.3498 78 77.2198C77.61 77.0898 77.22 76.8298 76.83 76.6998C76.57 76.5698 76.18 76.3098 76.05 76.1798C75.92 76.0498 75.66 75.6598 75.53 75.3998C75.4 75.1398 75.4 74.7498 75.4 74.3598C75.4 73.7098 75.66 73.1898 76.05 72.6698C76.44 72.1498 77.09 72.0198 77.74 71.8898V70.5898H78.65V71.8898C79.3 72.0198 79.95 72.2798 80.34 72.7998C80.73 73.3198 80.99 73.9698 80.99 74.7498H79.3C79.3 74.2298 79.17 73.9698 79.04 73.7098C78.78 73.4498 78.52 73.3198 78.26 73.3198C77.87 73.3198 77.74 73.4498 77.48 73.5798C77.22 73.7098 77.22 73.9698 77.22 74.3598C77.22 74.6198 77.35 74.8798 77.48 75.1398C77.61 75.2698 78 75.5298 78.52 75.6598C79.04 75.7898 79.43 76.0498 79.69 76.1798C79.95 76.3098 80.21 76.5698 80.47 76.6998C80.73 76.8298 80.86 77.2198 80.99 77.4798C81.12 77.7398 81.12 78.1298 81.12 78.3898C81.12 79.0398 80.86 79.5598 80.47 80.0798C80.08 80.4698 79.43 80.7298 78.78 80.8598V82.0298H77.87V80.8598C77.09 80.7298 76.44 80.4698 75.92 79.9498C75.53 79.4298 75.27 78.7798 75.27 77.9998H76.7C76.7 78.5198 76.83 78.7798 77.09 79.0398C77.35 79.2998 77.61 79.4298 78 79.4298C78.39 79.4298 78.65 79.2998 78.78 79.1698C79.04 79.0398 79.17 78.7798 79.17 78.5198Z" fill="white"/>
<path d="M86.3198 80.8595H84.6298V74.0995L82.5498 74.7495V73.3195L86.1898 72.0195H86.3198V80.8595Z" fill="white"/>
<path d="M95.0298 77.2195C95.0298 78.3895 94.7698 79.2995 94.2498 79.9495C93.7298 80.5995 93.0798 80.8595 92.0398 80.8595C91.1298 80.8595 90.3498 80.5995 89.8298 79.9495C89.3098 79.2995 89.0498 78.3895 89.0498 77.2195V75.6595C89.0498 74.4895 89.3098 73.5795 89.8298 72.9295C90.3498 72.2795 90.9998 72.0195 92.0398 72.0195C93.0798 72.0195 93.7298 72.2795 94.2498 72.9295C94.7698 73.5795 95.0298 74.4895 95.0298 75.6595V77.2195ZM93.3398 75.3995C93.3398 74.6195 93.2098 74.0995 93.0798 73.8395C92.8198 73.4495 92.5598 73.3195 92.1698 73.3195C91.7798 73.3195 91.5198 73.4495 91.2598 73.8395C91.1298 74.0995 90.9998 74.6195 90.9998 75.2695V77.3495C90.9998 77.9995 91.1298 78.6495 91.2598 78.9095C91.3898 79.2995 91.7798 79.4295 92.1698 79.4295C92.5598 79.4295 92.9498 79.2995 93.0798 78.9095C93.2098 78.5195 93.3398 78.1295 93.3398 77.3495V75.3995Z" fill="white"/>
<path d="M105.17 77.2195C105.17 78.3895 104.91 79.2995 104.39 79.9495C103.87 80.5995 103.22 80.8595 102.18 80.8595C101.27 80.8595 100.49 80.5995 99.9699 79.9495C99.4499 79.2995 99.1899 78.3895 99.1899 77.2195V75.6595C99.1899 74.4895 99.4499 73.5795 99.9699 72.9295C100.49 72.2795 101.14 72.0195 102.18 72.0195C103.22 72.0195 103.87 72.2795 104.39 72.9295C104.91 73.5795 105.17 74.4895 105.17 75.6595V77.2195ZM103.35 75.3995C103.35 74.6195 103.22 74.0995 103.09 73.8395C102.83 73.4495 102.57 73.3195 102.18 73.3195C101.79 73.3195 101.53 73.4495 101.27 73.8395C101.14 74.0995 101.01 74.6195 101.01 75.2695V77.3495C101.01 77.9995 101.14 78.6495 101.27 78.9095C101.4 79.2995 101.79 79.4295 102.18 79.4295C102.57 79.4295 102.96 79.2995 103.09 78.9095C103.22 78.5195 103.35 78.1295 103.35 77.3495V75.3995Z" fill="white"/>
<path d="M112.19 77.2195C112.19 78.3895 111.93 79.2995 111.41 79.9495C110.89 80.5995 110.24 80.8595 109.2 80.8595C108.29 80.8595 107.51 80.5995 106.99 79.9495C106.47 79.2995 106.21 78.3895 106.21 77.2195V75.6595C106.21 74.4895 106.47 73.5795 106.99 72.9295C107.51 72.2795 108.16 72.0195 109.2 72.0195C110.24 72.0195 110.89 72.2795 111.41 72.9295C111.93 73.5795 112.19 74.4895 112.19 75.6595V77.2195ZM110.37 75.3995C110.37 74.6195 110.24 74.0995 110.11 73.8395C109.85 73.4495 109.59 73.3195 109.2 73.3195C108.81 73.3195 108.55 73.4495 108.29 73.8395C108.16 74.0995 108.03 74.6195 108.03 75.2695V77.3495C108.03 77.9995 108.16 78.6495 108.29 78.9095C108.42 79.2995 108.81 79.4295 109.2 79.4295C109.59 79.4295 109.98 79.2995 110.11 78.9095C110.24 78.5195 110.37 78.1295 110.37 77.3495V75.3995Z" fill="white"/>
<path d="M119.21 77.2195C119.21 78.3895 118.95 79.2995 118.43 79.9495C117.91 80.5995 117.26 80.8595 116.22 80.8595C115.31 80.8595 114.53 80.5995 114.01 79.9495C113.49 79.2995 113.23 78.3895 113.23 77.2195V75.6595C113.23 74.4895 113.49 73.5795 114.01 72.9295C114.53 72.2795 115.18 72.0195 116.22 72.0195C117.26 72.0195 117.91 72.2795 118.43 72.9295C118.95 73.5795 119.21 74.4895 119.21 75.6595V77.2195ZM117.52 75.3995C117.52 74.6195 117.39 74.0995 117.26 73.8395C117 73.4495 116.74 73.3195 116.35 73.3195C115.96 73.3195 115.7 73.4495 115.44 73.8395C115.31 74.0995 115.18 74.6195 115.18 75.2695V77.3495C115.18 77.9995 115.31 78.6495 115.44 78.9095C115.57 79.2995 115.96 79.4295 116.35 79.4295C116.74 79.4295 117.13 79.2995 117.26 78.9095C117.39 78.5195 117.52 78.1295 117.52 77.3495V75.3995Z" fill="white"/>
<path d="M49.92 120.9C60.1151 120.9 68.38 112.636 68.38 102.44C68.38 92.2453 60.1151 83.9805 49.92 83.9805C39.7248 83.9805 31.46 92.2453 31.46 102.44C31.46 112.636 39.7248 120.9 49.92 120.9Z" fill="white"/>
<path d="M21.0603 108.81C16.1203 108.81 10.9203 108.03 5.59031 106.73C3.51031 106.6 1.82031 104.91 1.82031 102.83V95.68C1.82031 86.45 7.93031 78.52 16.6403 75.92C12.6103 72.02 10.6603 66.43 11.5703 60.71C12.7403 53.3 18.8503 47.58 26.3903 46.67C27.0403 46.54 27.6903 46.54 28.3403 46.54C37.7003 46.54 45.3703 54.21 45.3703 63.57C45.3703 68.25 43.4203 72.67 40.0403 75.92C44.0703 77.09 47.7103 79.56 50.3103 82.94L52.1303 85.28L49.1403 85.54C40.3003 86.32 33.4103 93.86 33.4103 102.83C33.4103 103.22 33.4103 103.61 33.4103 103.87C33.4103 104.26 33.4103 104.65 33.4103 105.04L33.6703 107.12L32.3703 107.51C28.9903 108.42 25.0903 108.81 21.0603 108.81Z" fill="#F5BB5D"/>
<path d="M28.3403 48.2305C36.9202 48.2305 43.8103 55.1205 43.8103 63.7005C43.8103 69.2905 40.8203 74.1005 36.4003 76.8305C41.6003 77.4805 46.1503 80.0805 49.2703 83.9805C39.6503 84.7605 32.1103 92.9505 32.1103 102.83C32.1103 103.61 32.2403 104.39 32.2403 105.17L32.3703 105.95C28.7303 106.86 24.9603 107.38 21.1903 107.38C16.1203 107.38 10.9203 106.6 5.98025 105.3C4.68025 105.3 3.64025 104.26 3.64025 102.96V95.8105C3.64025 86.0605 11.0503 78.0005 20.5403 76.9605C15.3403 73.8405 12.2203 67.8605 13.2603 61.1005C14.3003 54.4705 19.8903 49.1405 26.6503 48.3605C27.1703 48.2305 27.8203 48.2305 28.3403 48.2305ZM28.3403 44.9805C27.5603 44.9805 26.9103 44.9805 26.1303 45.1105C17.9403 46.0205 11.3103 52.3905 10.0103 60.4505C9.10025 65.7805 10.5303 71.1105 13.7803 75.1405C5.85025 78.6505 0.260254 86.5805 0.260254 95.6805V102.7C0.260254 105.56 2.47025 108.03 5.33025 108.29C10.6603 109.72 15.9903 110.37 21.0603 110.37C25.2203 110.37 29.2503 109.85 33.0203 108.81L35.7503 108.03L35.3603 105.3L35.2303 104.78C35.2303 104.39 35.2303 103.87 35.1003 103.61C35.1003 103.22 35.1003 102.96 35.1003 102.7C35.1003 94.6405 41.3403 87.7505 49.4002 86.9705L55.2503 86.4505L51.6103 81.9005C49.2703 78.9105 46.2803 76.7005 42.9002 75.2705C45.5003 72.0205 46.9302 67.9905 46.9302 63.7005C47.0602 53.3005 38.6103 44.9805 28.3403 44.9805Z" fill="white"/>
<path d="M60.1902 92.4308C54.6002 86.8408 45.6302 86.8408 40.0402 92.4308C34.4502 98.0208 34.4502 106.991 40.0402 112.581C45.6302 118.171 54.6002 118.171 60.1902 112.581C65.7802 106.991 65.7802 98.0208 60.1902 92.4308ZM56.9402 99.7108L49.7902 106.861C49.5302 107.121 49.1402 107.251 49.0102 107.251C48.7502 107.251 48.3602 107.121 48.2302 106.861L43.5502 102.181C43.0302 101.661 43.0302 101.011 43.5502 100.491C44.0702 99.9708 44.7202 99.9708 45.2402 100.491L49.1402 104.391L55.3802 98.1508C55.9002 97.6308 56.5502 97.6308 57.0702 98.1508C57.3302 98.5408 57.3302 99.3208 56.9402 99.7108Z" fill="#69BC45"/>
</svg>
