<svg width="130" height="130" viewBox="0 0 130 130" fill="none" xmlns="http://www.w3.org/2000/svg">
<path d="M80.5999 118.56C106.231 118.56 127.01 97.7818 127.01 72.1502C127.01 46.5187 106.231 25.7402 80.5999 25.7402C54.9684 25.7402 34.1899 46.5187 34.1899 72.1502C34.1899 97.7818 54.9684 118.56 80.5999 118.56Z" fill="white"/>
<path d="M12.6102 59.9304L5.72021 78.3904C14.8202 82.0304 24.3102 82.6804 34.3202 80.4704C43.9402 78.3904 52.5202 73.9704 59.9302 67.2104C65.6502 62.0104 69.9402 55.9004 72.8002 48.8804C75.7902 41.6004 76.9602 34.1904 76.1802 26.9104L86.1902 28.6004L73.9702 4.94043L56.6802 23.9204L65.7802 25.3504C65.9102 35.2304 61.7502 44.2004 53.0402 52.0004C41.8602 62.1404 28.4702 64.7404 12.6102 59.9304Z" fill="#F04923"/>
<path d="M51.6489 58.8592L49.2715 59.5293L68.6342 128.223L71.0115 127.553L51.6489 58.8592Z" fill="#D5D8D8"/>
<path d="M71.5 118.17L63.31 120.51C62.66 120.64 62.01 120.38 61.88 119.73L47.97 70.0701C47.84 69.4201 48.1 68.7701 48.75 68.6401L56.94 66.3001C57.59 66.1701 58.24 66.4301 58.37 67.0801L72.41 116.61C72.54 117.39 72.15 118.04 71.5 118.17Z" fill="#80C342"/>
<path d="M72.2094 67.4315L69.832 68.1016L79.9895 104.138L82.3669 103.467L72.2094 67.4315Z" fill="#D5D8D8"/>
<path d="M82.8102 94.25L74.6202 96.59C73.9702 96.72 73.3202 96.46 73.1902 95.81L68.3802 78.78C68.2502 78.13 68.5102 77.48 69.1602 77.35L77.3502 75.01C78.0002 74.88 78.6502 75.14 78.7802 75.79L83.5902 92.82C83.7202 93.47 83.4602 94.12 82.8102 94.25Z" fill="#80C342"/>
<path d="M104.337 53.7977L101.96 54.4678L117.549 109.773L119.926 109.103L104.337 53.7977Z" fill="#D5D8D8"/>
<path d="M120.51 99.8405L112.32 102.181C111.67 102.311 111.02 102.051 110.89 101.401L100.62 65.2605C100.49 64.6105 100.75 63.9605 101.4 63.8305L109.59 61.4905C110.24 61.3605 110.89 61.6205 111.02 62.2705L121.29 98.4105C121.42 99.0605 121.03 99.7105 120.51 99.8405Z" fill="#80C342"/>
<path d="M86.7734 55.366L84.396 56.0361L92.7547 85.6907L95.1321 85.0206L86.7734 55.366Z" fill="#D5D8D8"/>
<path d="M95.6801 75.7902L87.4901 78.0002C86.8401 78.1302 86.1901 77.8702 86.0601 77.2202L83.0701 66.6902C82.9401 66.0402 83.2001 65.3902 83.8501 65.2602L92.0401 62.9202C92.6901 62.7902 93.3401 63.0502 93.4701 63.7002L96.4601 74.2302C96.5901 75.0102 96.2001 75.5302 95.6801 75.7902Z" fill="#F04923"/>
<path d="M54.9897 118.3C55.2497 119.08 54.7297 119.73 54.0797 119.99C53.2997 120.25 52.6497 119.73 52.3897 119.08C52.1297 118.3 52.6497 117.65 53.2997 117.39C54.0797 117.26 54.8597 117.65 54.9897 118.3Z" fill="#F04923"/>
<path d="M60.1899 116.87C60.4499 117.65 59.9299 118.3 59.2799 118.56C58.4999 118.82 57.8499 118.3 57.5899 117.65C57.3299 116.87 57.8499 116.22 58.4999 115.96C59.2799 115.7 60.0599 116.09 60.1899 116.87Z" fill="#F04923"/>
<path d="M65.3896 115.44C65.6496 116.22 65.1296 116.87 64.4796 117.13C63.6996 117.39 63.0496 116.87 62.7896 116.22C62.5296 115.44 63.0496 114.79 63.6996 114.53C64.4796 114.27 65.2596 114.66 65.3896 115.44Z" fill="#F04923"/>
<path d="M70.5898 113.88C70.8498 114.66 70.3298 115.31 69.6798 115.57C68.8998 115.83 68.2498 115.31 67.9898 114.66C67.7298 113.88 68.2498 113.23 68.8998 112.97C69.6798 112.84 70.4598 113.23 70.5898 113.88Z" fill="#F04923"/>
<path d="M75.7895 112.45C76.0495 113.23 75.5295 113.88 74.8795 114.14C74.0995 114.4 73.4495 113.88 73.1895 113.23C72.9295 112.45 73.4495 111.8 74.0995 111.54C74.8795 111.28 75.6595 111.8 75.7895 112.45Z" fill="#F04923"/>
<path d="M80.9897 111.02C81.2497 111.8 80.7297 112.45 80.0797 112.71C79.2997 112.97 78.6497 112.45 78.3897 111.8C78.1297 111.02 78.6497 110.37 79.2997 110.11C80.0797 109.85 80.8597 110.24 80.9897 111.02Z" fill="#F04923"/>
<path d="M86.1899 109.59C86.4499 110.37 85.9299 111.02 85.2799 111.28C84.4999 111.54 83.8499 111.02 83.5899 110.37C83.3299 109.59 83.8499 108.94 84.4999 108.68C85.1499 108.42 86.0599 108.81 86.1899 109.59Z" fill="#F04923"/>
<path d="M91.3896 108.03C91.6496 108.81 91.1296 109.46 90.4796 109.72C89.6996 109.98 89.0496 109.46 88.7896 108.81C88.5296 108.03 89.0496 107.38 89.6996 107.12C90.4796 106.99 91.2596 107.38 91.3896 108.03Z" fill="#F04923"/>
<path d="M96.5898 106.6C96.8498 107.38 96.3298 108.03 95.6798 108.29C94.8998 108.55 94.2498 108.03 93.9898 107.38C93.7298 106.6 94.2498 105.95 94.8998 105.69C95.6798 105.43 96.4598 105.95 96.5898 106.6Z" fill="#F04923"/>
<path d="M101.789 105.17C102.049 105.95 101.529 106.6 100.879 106.86C100.099 107.12 99.4495 106.6 99.1895 105.95C98.9295 105.17 99.4495 104.52 100.099 104.26C100.879 104 101.659 104.39 101.789 105.17Z" fill="#F04923"/>
<path d="M106.99 103.61C107.25 104.39 106.73 105.04 106.08 105.3C105.3 105.56 104.65 105.04 104.39 104.39C104.13 103.61 104.65 102.96 105.3 102.7C106.08 102.57 106.86 102.96 106.99 103.61Z" fill="#F04923"/>
<path d="M112.19 102.181C112.45 102.961 111.93 103.611 111.28 103.871C110.5 104.131 109.85 103.611 109.59 102.961C109.33 102.181 109.85 101.531 110.5 101.271C111.28 101.011 112.06 101.531 112.19 102.181Z" fill="#F04923"/>
<path d="M117.39 100.75C117.65 101.53 117.13 102.18 116.48 102.44C115.7 102.7 115.05 102.18 114.79 101.53C114.53 100.75 115.05 100.1 115.7 99.84C116.35 99.58 117.26 99.97 117.39 100.75Z" fill="#F04923"/>
<path d="M122.59 99.3203C122.85 100.1 122.33 100.75 121.68 101.01C121.03 101.27 120.25 100.75 119.99 100.1C119.73 99.3203 120.25 98.6703 120.9 98.4103C121.55 98.1503 122.46 98.5403 122.59 99.3203Z" fill="#F04923"/>
<path d="M127.789 97.7601C128.049 98.5401 127.529 99.1901 126.879 99.4501C126.099 99.7101 125.449 99.1901 125.189 98.5401C124.929 97.7601 125.449 97.1101 126.099 96.8501C126.879 96.7201 127.659 97.1101 127.789 97.7601Z" fill="#F04923"/>
<path d="M32.8899 36.0102C40.2132 36.0102 46.1499 30.0735 46.1499 22.7502C46.1499 15.4269 40.2132 9.49023 32.8899 9.49023C25.5666 9.49023 19.6299 15.4269 19.6299 22.7502C19.6299 30.0735 25.5666 36.0102 32.8899 36.0102Z" fill="url(#paint0_linear)"/>
<defs>
<linearGradient id="paint0_linear" x1="32.9298" y1="9.51532" x2="32.9298" y2="35.9932" gradientUnits="userSpaceOnUse">
<stop stop-color="#FBDB76"/>
<stop offset="0.1591" stop-color="#FBD66D"/>
<stop offset="0.417" stop-color="#FBCA55"/>
<stop offset="0.74" stop-color="#FCB52E"/>
<stop offset="0.8235" stop-color="#FCAF23"/>
<stop offset="1" stop-color="#FCAF23"/>
</linearGradient>
</defs>
</svg>
