<svg width="64" height="64" viewBox="0 0 64 64" fill="none" xmlns="http://www.w3.org/2000/svg">
<g clip-path="url(#clip0_645_74746)">
<path fill-rule="evenodd" clip-rule="evenodd" d="M49.9459 56.7174L49.2263 56.5682L48.8681 55.4745L49.1111 55.1398L49.3478 54.7918L49.5717 54.4338L49.7892 54.0626L49.9971 53.6782L50.1922 53.2871L50.3809 52.8861L50.5568 52.4751L50.7263 52.0542L50.8831 51.63L51.0302 51.1958L51.1677 50.7583L51.2924 50.3142L51.4076 49.8668L51.5131 49.4161L51.6059 48.962L51.6955 48.4616L51.7722 47.9644L51.833 47.464L51.881 46.9635L51.9161 46.4631L51.9385 45.9659L51.9449 45.4721L51.9353 44.9816L51.9129 44.4944L51.8746 44.0138L51.8234 43.5366L51.753 43.0726L51.6731 42.6119L51.5739 42.1611L51.4588 41.7237L51.3276 41.2928L50.6048 39.0789L51.3404 38.2139L52.0601 38.363L51.3276 39.228L52.0505 41.442L52.1816 41.8728L52.2936 42.3103L52.3927 42.761L52.4759 43.2217L52.543 43.6857L52.5974 44.163L52.6358 44.6435L52.6582 45.1307L52.6646 45.6212L52.6582 46.1151L52.639 46.6122L52.6038 47.1126L52.5558 47.6131L52.4919 48.1136L52.4183 48.6107L52.3287 49.1111L52.236 49.5652L52.1304 50.0159L52.0153 50.4634L51.8874 50.9075L51.753 51.345L51.6059 51.7791L51.4492 52.2033L51.2797 52.6243L51.1037 53.0352L50.915 53.4363L50.7167 53.8273L50.512 54.2118L50.2945 54.583L50.0675 54.9409L49.834 55.2889L49.5877 55.6237L49.9459 56.7174Z" fill="#30383B"/>
<path fill-rule="evenodd" clip-rule="evenodd" d="M52.7852 40.578C53.603 43.4003 53.7112 46.3923 53.0996 49.27C52.6197 51.9727 51.5402 54.5229 49.9462 56.7192L49.5893 55.6254C50.9714 53.6995 51.9084 51.4705 52.3281 49.1102C52.8673 46.5717 52.7718 43.9326 52.0508 41.4431L51.3273 39.2288L52.0617 38.3628L52.7852 40.578Z" fill="#2C3E50"/>
<path fill-rule="evenodd" clip-rule="evenodd" d="M48.4414 60.9562C49.204 60.8395 49.9161 60.4911 50.4876 59.955C51.0591 59.419 51.4644 58.7194 51.6522 57.9446C51.8399 57.1699 51.8018 56.3548 51.5426 55.6026C51.2834 54.8503 50.8147 54.1946 50.1959 53.7183C49.577 53.2421 48.8358 52.9666 48.0659 52.9269C47.2959 52.8871 46.532 53.0849 45.8705 53.495C45.209 53.9052 44.6798 54.5094 44.3497 55.2313C44.0196 55.9531 43.9035 56.7602 44.0161 57.5504C44.0908 58.0752 44.2646 58.5795 44.5274 59.0346C44.7903 59.4897 45.1371 59.8868 45.548 60.2031C45.9589 60.5193 46.426 60.7486 46.9224 60.8778C47.4189 61.007 47.935 61.0337 48.4414 60.9562Z" fill="#222F3B"/>
<path fill-rule="evenodd" clip-rule="evenodd" d="M48.766 60.1143C49.4213 60.0141 50.0331 59.7148 50.5242 59.2543C51.0153 58.7937 51.3636 58.1926 51.525 57.5269C51.6863 56.8613 51.6536 56.161 51.4309 55.5146C51.2082 54.8683 50.8055 54.3048 50.2737 53.8956C49.742 53.4864 49.105 53.2498 48.4435 53.2157C47.782 53.1816 47.1255 53.3516 46.5572 53.7041C45.9889 54.0566 45.5343 54.5758 45.2507 55.1961C44.9672 55.8164 44.8676 56.5099 44.9644 57.1888C45.0942 58.0991 45.5677 58.9187 46.2806 59.4673C46.9935 60.0159 47.8875 60.2487 48.766 60.1143Z" fill="#293845"/>
<path fill-rule="evenodd" clip-rule="evenodd" d="M50.5411 54.4475C49.4921 53.3866 48.2028 53.9776 48.4107 55.4349C48.4399 55.6404 48.5079 55.8378 48.6108 56.016C48.7137 56.1942 48.8494 56.3497 49.0103 56.4735C49.1713 56.5973 49.3541 56.687 49.5485 56.7375C49.7429 56.788 49.945 56.7983 50.1433 56.7679C51.5087 56.5594 51.2765 55.1906 50.5411 54.4475Z" fill="#40576E"/>
<path fill-rule="evenodd" clip-rule="evenodd" d="M13.9158 37.296L17.6484 35.0588L17.9202 34.9693L18.1985 34.8964L18.4896 34.85L18.787 34.8202L19.0941 34.8169L19.4107 34.8335L19.7337 34.8766L20.0664 34.9395L20.4054 35.029L20.7508 35.1384L21.1027 35.2743L21.4577 35.4333L21.8191 35.6189L22.1869 35.8244L22.5547 36.0564L22.9162 36.305L23.2744 36.5735L23.6262 36.8585L23.9716 37.1634L24.3107 37.4782L24.6433 37.813L24.9663 38.1577L25.283 38.5189L25.59 38.8901L25.8875 39.2746L26.1785 39.6723L26.4568 40.0766L26.7287 40.4909L26.9877 40.9151L27.234 41.346L27.4707 41.7835L27.6946 42.2276L27.9089 42.6783L28.1072 43.1324L28.2927 43.5897L28.4654 44.0504L28.6221 44.5111L28.7661 44.9751L28.894 45.4391L29.0059 45.9031L29.1019 46.3671L29.1818 46.8278L29.2426 47.2851L29.2874 47.7392L29.3162 48.1899L29.3258 48.6373L29.3162 49.0682L29.2874 49.4858L29.2426 49.8868L29.1818 50.2713L29.1019 50.6358L29.0059 50.9838L28.894 51.312L28.7661 51.6235L28.6221 51.9151L28.4654 52.1902L28.2927 52.4454L28.1072 52.6807L27.9089 52.8962L27.6946 53.0917L23.962 55.3255L24.1731 55.13L24.3714 54.9145L24.5569 54.6792L24.7297 54.424L24.8864 54.149L25.0303 53.8573L25.1582 53.5458L25.2702 53.2177L25.3661 52.8697L25.4461 52.5051L25.5101 52.1206L25.5548 51.7196L25.5836 51.3053L25.59 50.8712L25.5836 50.427L25.5548 49.973L25.5101 49.5189L25.4461 49.0616L25.3661 48.6009L25.2702 48.1369L25.1582 47.6762L25.0303 47.2089L24.8864 46.7449L24.7297 46.2842L24.5569 45.8235L24.3714 45.3662L24.1731 44.9121L23.962 44.4614L23.7381 44.0173L23.5015 43.5798L23.252 43.1489L22.9929 42.7247L22.7243 42.3104L22.446 41.9061L22.1549 41.5084L21.8575 41.1239L21.5472 40.7527L21.2306 40.3915L20.9076 40.0468L20.5749 39.7121L20.2391 39.3972L19.8937 39.0923L19.5418 38.8073L19.1836 38.5388L18.8222 38.2902L18.4544 38.0616L18.0866 37.8528L17.7251 37.6672L17.3669 37.5081L17.0151 37.3722L16.6697 37.2628L16.3306 37.1733L16.0012 37.1104L15.6782 37.0673L15.3615 37.0507L15.0513 37.0573L14.7538 37.0838L14.4628 37.1302L14.1845 37.2032L13.9158 37.296Z" fill="#40576E"/>
<path fill-rule="evenodd" clip-rule="evenodd" d="M18.4534 55.138C16.3763 53.735 14.6478 51.8442 13.4082 49.6192C12.1686 47.3941 11.4528 44.8975 11.319 42.332C11.319 37.6168 14.5133 35.7032 18.4534 38.0603C20.531 39.4641 22.26 41.3557 23.5002 43.5814C24.7403 45.8072 25.4567 48.3045 25.5913 50.8709C25.5913 55.589 22.3945 57.4951 18.4534 55.138Z" fill="#808080"/>
<path fill-rule="evenodd" clip-rule="evenodd" d="M39.4008 21.1191L43.4212 18.713L43.7122 18.6136L44.0129 18.5373L44.3263 18.4843L44.6462 18.4545L44.9788 18.4512L45.3178 18.4711L45.6697 18.5141L46.0247 18.5837L46.3893 18.6765L46.7635 18.7992L47.1409 18.9417L47.5247 19.114L47.9149 19.3129L48.3115 19.5382L48.7081 19.7868L49.0984 20.0553L49.4822 20.3436L49.8596 20.6518L50.2306 20.9766L50.5984 21.318L50.9534 21.6759L51.3021 22.0505L51.6443 22.4382L51.9737 22.8392L52.2968 23.2535L52.6102 23.6811L52.9109 24.1152L53.2019 24.5627L53.4802 25.02L53.7488 25.484L54.0015 25.9547L54.2446 26.4352L54.4717 26.9191L54.686 27.4063L54.8875 27.9001L55.073 28.3973L55.2425 28.8944L55.396 29.3949L55.5336 29.8953L55.6551 30.3924L55.7574 30.8929L55.8438 31.39L55.911 31.8839L55.9589 32.3711L55.9909 32.8582L56.0005 33.3388L55.9909 33.8061L55.9589 34.2536L55.911 34.6844L55.8438 35.0987L55.7574 35.4931L55.6551 35.8643L55.5336 36.2222L55.396 36.557L55.2425 36.8718L55.073 37.1668L54.8875 37.4386L54.686 37.6938L54.4717 37.9257L54.2446 38.1379L50.221 40.544L50.4481 40.3319L50.6656 40.0999L50.8639 39.848L51.0494 39.5729L51.2189 39.278L51.3724 38.9631L51.51 38.6284L51.6315 38.2737L51.7338 37.8992L51.8202 37.5048L51.8874 37.0906L51.9385 36.6597L51.9673 36.2123L51.9769 35.745L51.9673 35.2644L51.9385 34.7805L51.8874 34.29L51.8202 33.7962L51.7338 33.299L51.6315 32.8019L51.51 32.3015L51.3724 31.801L51.2189 31.3005L51.0494 30.8034L50.8639 30.3063L50.6656 29.8158L50.4481 29.3252L50.221 28.8414L49.9811 28.3641L49.7252 27.8902L49.4566 27.4262L49.1783 26.9721L48.8873 26.5247L48.5866 26.0872L48.2732 25.6597L47.9533 25.2454L47.6207 24.8444L47.2817 24.4566L46.933 24.0821L46.5748 23.7242L46.2102 23.3828L45.836 23.058L45.4586 22.7498L45.0748 22.4614L44.6845 22.193L44.2879 21.9444L43.8913 21.719L43.5043 21.5202L43.1173 21.3511L42.7399 21.2053L42.3689 21.086L42.0011 20.9899L41.6461 20.9203L41.2974 20.8772L40.9552 20.8573L40.6258 20.8606L40.3027 20.8905L39.9893 20.9435L39.6886 21.0197L39.4008 21.1191Z" fill="#E6EAEB"/>
<path fill-rule="evenodd" clip-rule="evenodd" d="M44.2879 40.3411C42.0502 38.8299 40.1879 36.7931 38.8524 34.3961C37.5168 31.9991 36.7457 29.3095 36.6015 26.5458C36.6015 21.4663 40.0433 19.4049 44.2879 21.9443C46.5261 23.4564 48.3888 25.4939 49.7248 27.8916C51.0607 30.2893 51.8324 32.9796 51.9772 35.7442C51.9772 40.8269 48.5338 42.8805 44.2879 40.3411Z" fill="#9EB4BA"/>
<path fill-rule="evenodd" clip-rule="evenodd" d="M11.7985 37.634L15.8221 35.2246L16.1099 35.1285L16.4106 35.0522L16.724 34.9992L17.0471 34.9694L17.3765 34.9661L17.7155 34.9826L18.0674 35.029L18.4224 35.0953L18.7902 35.1914L19.1612 35.3107L19.5386 35.4566L19.9224 35.6289L20.3127 35.8245L20.7093 36.0498L21.1059 36.2984L21.4961 36.5669L21.8799 36.8585L22.2573 37.1634L22.6315 37.4882L22.9961 37.8329L23.3543 38.1908L23.703 38.562L24.042 38.9531L24.3746 39.3541L24.6945 39.7684L25.0079 40.1926L25.3086 40.6301L25.5996 41.0776L25.8779 41.5349L26.1466 41.9989L26.3992 42.4695L26.6423 42.9468L26.8694 43.4307L27.0837 43.9212L27.2852 44.415L27.4707 44.9088L27.6402 45.4093L27.7937 45.9064L27.9313 46.4069L28.0528 46.9073L28.1552 47.4045L28.2415 47.9016L28.3087 48.3954L28.3599 48.8859L28.3886 49.3698L28.3982 49.8504L28.3886 50.3177L28.3599 50.7684L28.3087 51.1993L28.2415 51.6103L28.1552 52.0047L28.0528 52.3792L27.9313 52.7338L27.7937 53.0685L27.6402 53.3834L27.4707 53.6784L27.2852 53.9534L27.0837 54.2053L26.8694 54.4406L26.6423 54.6494L22.6187 57.0556L22.849 56.8468L23.0633 56.6148L23.2616 56.3596L23.4471 56.0845L23.6166 55.7895L23.7701 55.4747L23.9077 55.1399L24.0292 54.7853L24.1348 54.4108L24.2211 54.0164L24.2851 53.6054L24.3363 53.1746L24.365 52.7239L24.3746 52.2565L24.365 51.7793L24.3363 51.2921L24.2851 50.8016L24.2211 50.3078L24.1348 49.8139L24.0292 49.3135L23.9077 48.813L23.7701 48.3159L23.6166 47.8154L23.4471 47.315L23.2616 46.8212L23.0633 46.3273L22.849 45.8368L22.6187 45.3529L22.3788 44.8757L22.123 44.4051L21.8575 43.9378L21.576 43.4837L21.285 43.0363L20.9843 42.5988L20.6741 42.1746L20.351 41.7603L20.0184 41.3593L19.6794 40.9715L19.3307 40.597L18.9725 40.239L18.6079 39.8977L18.2369 39.5696L17.8595 39.2647L17.4725 38.9763L17.0823 38.7079L16.6857 38.456L16.2923 38.2339L15.902 38.0351L15.515 37.8627L15.1376 37.7169L14.7666 37.5976L14.402 37.5048L14.0438 37.4352L13.6951 37.3888L13.3529 37.3689L13.0235 37.3755L12.7004 37.4054L12.3902 37.4584L12.0895 37.5346L11.7985 37.634Z" fill="#E6EAEB"/>
<path fill-rule="evenodd" clip-rule="evenodd" d="M16.6863 56.8544C14.4486 55.3431 12.5863 53.3063 11.2508 50.9093C9.91526 48.5124 9.14408 45.8229 8.99988 43.0591C8.99988 37.9803 12.4417 35.9182 16.6863 38.4576C18.9242 39.97 20.7866 42.0077 22.1226 44.4053C23.4585 46.8029 24.2304 49.493 24.3756 52.2575C24.3756 57.3399 20.9312 59.3948 16.6863 56.8544Z" fill="#9EB4BA"/>
<path fill-rule="evenodd" clip-rule="evenodd" d="M41.1301 12.1769L40.9699 11.5952L40.7822 11.0447L40.5682 10.524L40.3296 10.0349L40.0667 9.57718L39.7795 9.15061L39.4692 8.75787L39.3723 8.65283H39.3733C40.9052 9.12694 42.2392 10.1201 43.1615 11.4733C44.0839 12.8265 44.5413 14.4613 44.4603 16.1159C44.4894 16.501 44.5038 19.9697 44.5038 20.382C44.5038 20.9375 44.484 21.4276 44.4322 21.9934L44.4312 22.0036L44.4287 22.0308L44.2879 21.9443C43.3715 21.365 42.344 21.0005 41.2773 20.8761H41.2763C41.6644 17.9861 41.6151 15.0511 41.1301 12.1769Z" fill="#222F3B"/>
<path fill-rule="evenodd" clip-rule="evenodd" d="M29.5788 5.07601L30.3349 4.64681L31.0811 4.26828L31.8154 3.94018L32.5389 3.66218L33.2499 3.4338L33.9468 3.25352L34.6297 3.12193L35.2959 3.03742L35.9471 3L36.5807 3.00925L37.1955 3.06458L37.792 3.16537L38.3677 3.31086L38.9236 3.50076L39.4558 3.7344L39.9662 4.01082L42.9644 5.80515L42.454 5.52807L41.9208 5.29509L41.3659 5.10418L40.7902 4.95869L40.1937 4.8582L39.5789 4.80262L38.9453 4.79332L38.2944 4.83079L37.6269 4.9156L36.9454 5.04688L36.2481 5.22747L35.5371 5.45586L34.8136 5.73456L34.0783 6.06266L33.3331 6.44018L32.577 6.86968L31.8209 7.34496L31.0756 7.85902L30.3403 8.41111L29.6168 8.99844L28.9061 9.61956L28.2089 10.2735L27.526 10.9582L26.8588 11.6721L26.2089 12.4134L25.575 13.1811L24.9596 13.9722L24.3638 14.7865L23.788 15.6207L23.2325 16.4747L22.7003 17.3457L22.1898 18.2336L21.703 19.1355L21.2415 20.0495L20.8052 20.9738L20.3955 21.9088L20.013 22.85L19.6592 23.798L19.3346 24.7504L19.041 25.7049L18.7781 26.6605L18.5468 27.6149L18.3482 28.5678L18.1841 29.5167L18.0555 30.4589L17.9621 31.3946L17.9049 35.3902L17.886 36.3063L17.887 36.5297L17.8905 36.7513L17.8969 36.9714L17.9049 37.1882L17.9148 37.4042L17.9276 37.6167C17.0149 37.0396 15.9917 36.6754 14.9294 36.5495L14.9166 35.61L14.9057 35.3949L14.8987 35.1768L14.8923 34.958L14.8894 34.7362L14.8878 34.5126L14.9067 30.5275L14.964 29.6012L15.0573 28.6653L15.1869 27.722L15.351 26.7741L15.5477 25.8216L15.7799 24.8661L16.0428 23.9106L16.3364 22.9561L16.661 22.0046L17.0148 21.0567L17.3973 20.1141L17.807 19.1805L18.2433 18.2552L18.7045 17.3417L19.1916 16.4399L19.7018 15.5521L20.2349 14.6814L20.7889 13.8273L21.3656 12.9921L21.9621 12.1785L22.5768 11.3867L23.2107 10.6201L23.8616 9.87869L24.5278 9.16482L25.2117 8.47978L25.908 7.82584L26.6186 7.20411L27.3421 6.61683L28.0774 6.06534L28.8227 5.55164L29.5788 5.07601Z" fill="#222F3B"/>
<path fill-rule="evenodd" clip-rule="evenodd" d="M38.8538 22.6602L39.7238 22.1432L39.9861 22.0537L40.2579 21.9841L40.5426 21.9344L40.8337 21.9112L41.1343 21.9045L41.4414 21.9211L41.758 21.9642L42.081 22.0239L42.4137 22.11L42.7495 22.2194L43.0917 22.352L43.4404 22.5077L43.7954 22.6867L44.1536 22.8889L44.5118 23.1142L44.8668 23.3595L45.2155 23.6213L45.5577 23.8997L45.8935 24.1947L46.2262 24.5029L46.5492 24.8277L46.8659 25.1658L47.1729 25.5171L47.4736 25.8816L47.7646 26.2562L48.0493 26.6439L48.3211 27.0383L48.5834 27.4427L48.8361 27.8569L49.0792 28.2779L49.3094 28.7054L49.5301 29.1363L49.7348 29.577L49.9299 30.0212L50.1122 30.4653L50.2786 30.916L50.4321 31.3667L50.5728 31.8208L50.6976 32.2715L50.8063 32.7256L50.8991 33.1763L50.979 33.6271L51.0398 34.0745L51.0846 34.5186L51.1101 34.9594L51.1197 35.3936L51.1101 35.8178L51.0846 36.2221L51.0398 36.6132L50.979 36.9877L50.8991 37.3457L50.8063 37.6837L50.6976 38.0052L50.5728 38.3101L50.4321 38.5951L50.2786 38.8603L50.1122 39.1089L49.9299 39.3408L49.7348 39.5496L49.5301 39.7419L48.6602 40.2589L48.8681 40.07L49.0632 39.8579L49.2423 39.6292L49.4118 39.3806L49.5653 39.1122L49.7028 38.8271L49.8308 38.5255L49.9395 38.2041L50.0323 37.8627L50.1122 37.5081L50.173 37.1336L50.2146 36.7425L50.2434 36.3348L50.253 35.9106L50.2434 35.4764L50.2146 35.0389L50.173 34.5948L50.1122 34.1474L50.0323 33.6967L49.9395 33.2459L49.8308 32.7919L49.7028 32.3378L49.5653 31.8871L49.4118 31.4363L49.2423 30.9856L49.0632 30.5382L48.8681 30.0974L48.6602 29.6566L48.4427 29.2224L48.2124 28.7949L47.9693 28.3773L47.7166 27.963L47.4544 27.5587L47.1793 27.161L46.8978 26.7765L46.6068 26.402L46.3061 26.0374L45.9959 25.6861L45.6792 25.3481L45.3562 25.0233L45.0268 24.7117L44.6909 24.4167L44.3455 24.1383L43.9969 23.8765L43.6451 23.6346L43.2868 23.4092L42.9286 23.2037L42.5736 23.0248L42.225 22.869L41.8827 22.7397L41.5469 22.6304L41.2143 22.5442L40.8912 22.4812L40.5746 22.4415L40.2675 22.4249L39.9669 22.4282L39.6758 22.4547L39.3912 22.5011L39.1193 22.5707L38.8538 22.6602Z" fill="#40576E"/>
<path fill-rule="evenodd" clip-rule="evenodd" d="M43.2852 40.0773C41.258 38.708 39.5709 36.8626 38.3609 34.6909C37.1509 32.5193 36.4521 30.0825 36.3213 27.5786C36.3213 22.9761 39.4395 21.1085 43.2852 23.4093C45.313 24.7794 47.0006 26.6256 48.211 28.798C49.4215 30.9704 50.1207 33.4078 50.252 35.9126C50.252 40.5168 47.1313 42.3781 43.2852 40.0773Z" fill="#222F3B"/>
<path fill-rule="evenodd" clip-rule="evenodd" d="M43.2852 37.8903C41.7898 36.8803 40.5454 35.5191 39.653 33.9172C38.7606 32.3153 38.2454 30.5179 38.1492 28.671C38.1492 25.2768 40.4486 23.8994 43.2852 25.5963C44.7809 26.6069 46.0256 27.9685 46.9185 29.5708C47.8113 31.173 48.3271 32.9708 48.4241 34.8182C48.4241 38.2154 46.1222 39.5868 43.2852 37.8903Z" fill="#293845"/>
<path fill-rule="evenodd" clip-rule="evenodd" d="M39.2536 25.5238L39.3176 25.4641L39.0905 25.779L38.873 26.1866L38.7003 26.6506L38.5756 27.1643L38.4956 27.7277L38.47 28.3409L38.4764 28.6591L38.4956 28.9839L38.5308 29.312L38.5756 29.6401L38.6332 29.9715L38.7003 30.3062L38.7835 30.6377L38.873 30.9724L38.9754 31.3071L39.0905 31.6419L39.2153 31.97L39.3464 32.3014L39.4903 32.6262L39.6438 32.951L39.8038 33.2692L39.9733 33.584L40.1524 33.8956L40.3379 34.2005L40.533 34.4988L40.7345 34.7904L40.9424 35.0755L41.1599 35.3505L41.3806 35.619L41.6077 35.8775L41.8412 36.1294L42.0778 36.368L42.3209 36.5967L42.5704 36.8121L42.8231 37.0176L43.0821 37.2132L43.3412 37.3921L43.6067 37.5578L44.1312 37.8395L44.643 38.0517L45.1323 38.1942L45.6057 38.2704L46.0567 38.2803L46.4789 38.2273L46.8755 38.1113L47.2401 37.9323L47.5727 37.6937L47.5983 37.6639L47.5471 37.7302L47.2497 38.0251L46.9202 38.2638L46.5524 38.4427L46.159 38.5587L45.7336 38.6151L45.2858 38.6051L44.8125 38.5289L44.3199 38.3831L43.8114 38.1743L43.2868 37.8893L43.0214 37.7236L42.7591 37.5446L42.5032 37.3524L42.2506 37.1469L42.0011 36.9281L41.758 36.6994L41.5181 36.4608L41.2878 36.2122L41.0575 35.9504L40.8369 35.6853L40.6226 35.4069L40.4147 35.1219L40.2132 34.8302L40.0181 34.5319L39.8326 34.227L39.6534 33.9188L39.4839 33.6039L39.324 33.2824L39.1705 32.961L39.0266 32.6329L38.8922 32.3047L38.7707 31.9733L38.6555 31.6386L38.5532 31.3071L38.4604 30.9724L38.3805 30.6377L38.3101 30.3062L38.2525 29.9715L38.2078 29.6434L38.1758 29.3153L38.1566 28.9905L38.1502 28.6723L38.1758 28.0592L38.2525 27.4958L38.3805 26.982L38.5532 26.5214L38.7707 26.1104L39.0266 25.7591L39.2536 25.5238Z" fill="#40576E"/>
<path fill-rule="evenodd" clip-rule="evenodd" d="M32.577 6.86976C40.6888 2.01736 47.2673 5.95272 47.2673 15.6594L47.2583 19.3751C47.2573 19.7291 47.2356 20.0091 47.2084 20.3681L44.4287 22.0309C44.4805 21.4829 44.5056 20.9326 44.5038 20.382C44.5038 19.9697 44.4894 16.501 44.4603 16.1159C43.9425 9.11487 38.8209 6.44124 32.577 10.1767C29.2297 12.4453 26.4204 15.4684 24.3589 19.02C22.2974 22.5717 21.0371 26.5601 20.6722 30.6873C20.6574 30.9879 20.6504 34.3569 20.6504 34.6529C20.6504 35.1364 20.67 35.6024 20.7093 36.0508L20.5042 36.2045L17.9276 37.6168C17.9004 37.1932 17.886 36.7554 17.886 36.3063C17.886 35.8271 17.9023 32.2729 17.933 31.7854C18.4338 26.7657 20.008 21.9249 22.5411 17.6149C25.0743 13.3049 28.5027 9.63418 32.577 6.86976Z" fill="#2C3E50"/>
<path fill-rule="evenodd" clip-rule="evenodd" d="M12.5021 41.0445L12.8859 40.8158L13.0747 40.713L13.2698 40.6269L13.4713 40.5573L13.6823 40.5042L13.8998 40.4678L14.1269 40.4479L14.3572 40.4446L14.5971 40.4578L14.8402 40.4877L15.0928 40.5374L15.3455 40.6037L15.6078 40.6865L15.8733 40.7859L16.1419 40.9086L16.4138 41.0478L16.6921 41.2035L16.9671 41.3792L17.2422 41.5648L17.5108 41.767L17.7763 41.9824L18.0354 42.2111L18.2913 42.4497L18.5407 42.7016L18.787 42.9634L19.0237 43.2352L19.2572 43.5169L19.4843 43.8052L19.7018 44.1035L19.9129 44.4084L20.1144 44.7233L20.3095 45.0415L20.4982 45.3663L20.6773 45.6977L20.8436 46.0324L21.0035 46.3705L21.1538 46.7152L21.2946 47.0598L21.4257 47.4045L21.544 47.7558L21.6528 48.1038L21.7455 48.4551L21.8319 48.8065L21.9055 49.1544L21.9662 49.5024L22.011 49.8471L22.0462 50.1885L22.0686 50.5299L22.075 50.8646L22.0686 51.1927L22.0462 51.5076L22.011 51.8092L21.9662 52.0975L21.9055 52.3726L21.8319 52.6344L21.7455 52.883L21.6528 53.1183L21.544 53.3404L21.4257 53.5458L21.2946 53.7381L21.1538 53.917L21.0035 54.0794L20.8436 54.2253L20.6773 54.3578L20.4982 54.4738L20.1144 54.7025L20.2935 54.5865L20.463 54.4539L20.6197 54.3081L20.7732 54.1424L20.9108 53.9668L21.0419 53.7745L21.1602 53.569L21.269 53.347L21.3649 53.1117L21.4481 52.8631L21.5217 52.6013L21.5824 52.3262L21.6272 52.0379L21.6624 51.7363L21.6848 51.4214L21.6912 51.0933L21.6848 50.7585L21.6624 50.4205L21.6272 50.0758L21.5824 49.7311L21.5217 49.3831L21.4481 49.0351L21.3649 48.6838L21.269 48.3358L21.1602 47.9845L21.0419 47.6365L20.9108 47.2885L20.7732 46.9438L20.6197 46.6025L20.463 46.2611L20.2935 45.9264L20.1144 45.5949L19.9256 45.2701L19.7305 44.952L19.529 44.6404L19.3179 44.3355L19.1005 44.0339L18.8734 43.7456L18.6399 43.4639L18.4032 43.1921L18.1601 42.9303L17.9075 42.6817L17.6516 42.4398L17.3925 42.2111L17.127 41.999L16.8584 41.7968L16.5865 41.6079L16.3082 41.4322L16.03 41.2765L15.7581 41.1373L15.4895 41.0179L15.224 40.9152L14.9649 40.8323L14.709 40.7661L14.4596 40.7163L14.2133 40.6865L13.9766 40.6733L13.7431 40.6766L13.5192 40.6965L13.3017 40.7329L13.0906 40.7859L12.8859 40.8555L12.6908 40.9417L12.5021 41.0445Z" fill="#E6EAEB"/>
<path fill-rule="evenodd" clip-rule="evenodd" d="M16.3082 54.3119C14.7416 53.254 13.4379 51.8281 12.503 50.15C11.5681 48.4719 11.0283 46.589 10.9276 44.6542C10.9276 41.0983 13.3363 39.6553 16.3082 41.4327C17.875 42.4914 19.1788 43.9179 20.1141 45.5964C21.0493 47.2749 21.5896 49.1581 21.6912 51.0935C21.6912 54.6523 19.2802 56.0897 16.3082 54.3119Z" fill="#C5CCD1"/>
</g>
<defs>
<clipPath id="clip0_645_74746">
<rect width="47" height="58" fill="white" transform="translate(8.99988 3)"/>
</clipPath>
</defs>
</svg>
