<svg width="62" height="64" viewBox="0 0 62 64" fill="none" xmlns="http://www.w3.org/2000/svg">
<path fill-rule="evenodd" clip-rule="evenodd" d="M45.136 40.1713L41.4528 38.0181V41.7379L45.136 43.8911V40.1713Z" fill="#415A73"/>
<path fill-rule="evenodd" clip-rule="evenodd" d="M51.2948 8.47012H51.2938L51.2929 8.41509L51.2892 8.36245L51.2836 8.31113L51.2751 8.26312L51.2649 8.21678L51.2517 8.17244L51.2379 8.13073L51.2211 8.09111L51.2023 8.05347L51.1819 8.01848L51.1595 7.98614L51.1352 7.95613L51.1092 7.92846L51.0819 7.90405L51.0529 7.88248L51.0223 7.86244L50.9897 7.84546L50.9561 7.83045L50.9206 7.81916L50.8841 7.80945L47.2005 5.65625L47.2371 5.66495L47.2716 5.67624L47.3052 5.69124L47.3378 5.70828L47.3684 5.72827L47.3973 5.74993L47.4253 5.77526L47.4507 5.80293L47.475 5.83192L47.4974 5.86523L47.5178 5.89926L47.5366 5.93689L47.5534 5.97656L47.5672 6.01822L47.5804 6.06257L47.5906 6.1089L47.5991 6.15722L47.6047 6.20823L47.6083 6.26082L47.6093 6.31687H47.6103V8.48812L47.6093 8.54376L47.6054 8.60144L47.5991 8.65911L47.5915 8.71674L47.5804 8.77507L47.5682 8.83473L47.5534 8.89342L47.5376 8.95176L47.5188 9.01142L47.4981 9.07006L47.4757 9.1284L47.4517 9.18704L47.4253 9.24471L47.3973 9.30137L47.3684 9.35803L47.3378 9.41397L47.3052 9.4687L47.2716 9.52271L47.2371 9.57535L47.2005 9.62728L47.1623 9.67732L47.1232 9.72671L47.084 9.77396L47.0419 9.82004L47.0001 9.86368L46.957 9.90604L46.9132 9.94668L46.8684 9.98533L46.8227 10.0213L46.7759 10.0554L46.7295 10.0877L46.6818 10.117L44.3306 11.4926L43.4005 10.9483L43.3995 10.9493L44.3297 11.4926L44.2813 11.5189L44.2345 11.5426L44.1878 11.5626L44.142 11.5796L44.0973 11.5936L44.0535 11.6049L44.0097 11.6136L43.9676 11.6182L43.9265 11.6199H43.8866L43.8475 11.6163L43.8099 11.6096L43.7737 11.6012L47.4582 13.7555L47.4945 13.7638L47.532 13.7704L47.5712 13.7741H47.611L47.6521 13.7725L47.6943 13.7668L47.737 13.7591L47.7818 13.7478L47.8266 13.7337L47.8723 13.7168L47.9191 13.6968L47.9658 13.6731L48.0132 13.6468L50.3653 12.2702L50.414 12.2409L50.4604 12.2096L50.5072 12.1756L50.5529 12.1389L50.5977 12.1009L50.6415 12.0603L50.6846 12.0179L50.7264 11.9743L50.7675 11.9282L50.8077 11.8809L50.8469 11.8316L50.8841 11.7816L50.9206 11.7296L50.9561 11.6769L50.9897 11.6229L51.0223 11.5682L51.0529 11.5122L51.0819 11.4556L51.1098 11.3989L51.1352 11.3413L51.1595 11.2826L51.1819 11.2243L51.2023 11.1656L51.2211 11.106L51.2379 11.0476L51.2527 10.988L51.2649 10.9293L51.2751 10.871L51.2836 10.8133L51.2899 10.7557L51.2929 10.698L51.2948 10.6413V8.47012ZM50.9897 32.4271L47.3052 30.2728L47.3378 30.2909L47.3684 30.3099L47.3973 30.3325L47.4253 30.3579L47.4507 30.3852L47.475 30.4145L47.4974 30.4475L47.5178 30.4825L47.5366 30.5195L47.5534 30.5592L47.5672 30.6009L47.5804 30.6452L47.5906 30.6915L47.5991 30.7405L47.6047 30.7915L47.6083 30.8445L47.6093 30.9002H47.6103V33.0704L47.6093 33.127L47.6054 33.184L47.5991 33.2414L47.5915 33.3001L47.5804 33.3587L47.5682 33.4173L47.5534 33.4757L47.5376 33.5353L47.5188 33.594L47.4981 33.6526L47.4757 33.711L47.4517 33.7697L47.4253 33.8273L47.3973 33.884L47.3684 33.9407L47.3378 33.9963L47.3052 34.0513L47.2716 34.105L47.2371 34.158L47.2005 34.209L47.1623 34.26L47.1232 34.3083L47.084 34.3557L47.0419 34.4016L47.0001 34.4463L46.957 34.4876L46.9132 34.5283L46.8684 34.567L46.8227 34.603L46.7759 34.637L46.7295 34.6692L46.6818 34.6983L44.3297 36.0742L44.3287 36.0752L43.4005 35.5319L43.3995 35.5325L44.3277 36.0752L44.2813 36.1005L44.2345 36.1242L44.1878 36.1439L44.142 36.1619L44.0973 36.1752L44.0535 36.1866L44.0097 36.1952L43.9676 36.1999L43.9265 36.2025L43.8866 36.2016L43.8475 36.1979L43.8099 36.1922L43.7737 36.1829L43.7382 36.1716L43.7046 36.1572L43.6727 36.1402L47.3572 38.2934L47.3891 38.3104L47.4227 38.3257L47.4582 38.3371L47.4945 38.3464L47.532 38.3521L47.5712 38.3557L47.611 38.3567L47.6521 38.3541L47.6943 38.3494L47.737 38.3408L47.7818 38.3294L47.8266 38.3154L47.8723 38.2981L47.9191 38.2784L47.9658 38.2548L48.0132 38.2284L50.3653 36.8525L50.414 36.8235L50.4604 36.7912L50.5072 36.7572L50.5529 36.7212L50.5977 36.6824L50.6415 36.6418L50.6846 36.6005L50.7264 36.5558L50.7675 36.5095L50.8077 36.4625L50.8469 36.4132L50.8841 36.3632L50.9206 36.3122L50.9561 36.2591L50.9897 36.2055L51.0223 36.1505L51.0529 36.0949L51.0819 36.0382L51.1098 35.9815L51.1352 35.9239L51.1595 35.8652L51.1819 35.8069L51.2023 35.7482L51.2211 35.6896L51.2379 35.6299L51.2527 35.5716L51.2649 35.5129L51.2751 35.4542L51.2836 35.3956L51.2899 35.3383L51.2929 35.2812L51.2948 35.2246V33.0534H51.2938L51.2929 32.9987L51.2892 32.9457L51.2836 32.8947L51.2751 32.8457L51.2649 32.7993L51.2517 32.755L51.2379 32.7134L51.2211 32.6737L51.2023 32.6357L51.1819 32.6018L51.1595 32.5687L51.1352 32.5384L51.1092 32.5111L51.0819 32.4868L51.0529 32.4641L51.0223 32.4441L50.9897 32.4271ZM47.6103 22.7046V24.8752L47.6093 24.9318L47.6054 24.9895L47.5991 25.0471L47.5915 25.1045L47.5804 25.1631L47.5682 25.2228L47.5534 25.2815L47.5376 25.3397L47.5188 25.3995L47.4981 25.4581L47.4757 25.5164L47.4517 25.5751L47.4253 25.6328L47.3973 25.6895L47.3684 25.7461L47.3378 25.8018L47.3052 25.8568L47.2716 25.9104L47.2371 25.9634L47.2005 26.0155L47.1623 26.0655L47.1242 26.1148L47.084 26.1618L47.0429 26.2081L47.0001 26.2518L46.957 26.2941L46.9132 26.3348L46.8684 26.3734L46.8227 26.4094L46.7759 26.4434L46.7295 26.4757L46.6818 26.5047L46.608 26.5474L46.5343 26.5901L46.4616 26.6334L46.3878 26.6761L46.3141 26.7194L46.2404 26.7617L46.1677 26.8054L46.0939 26.8477L46.0202 26.8914L45.9465 26.9337L45.8737 26.9774L45.8 27.0196L45.7263 27.0634L45.6528 27.1057L45.5791 27.1494L45.5064 27.1917L45.4326 27.2354L45.3589 27.2777L45.2852 27.3214L45.2115 27.3637L45.1387 27.4073L45.065 27.4496L44.9912 27.4929L44.9175 27.5357L44.8448 27.579L44.7711 27.6217L44.6973 27.665L44.6236 27.7077L44.5499 27.751L44.4771 27.7937L44.4034 27.836L44.3297 27.8796L43.4005 27.3363V27.3374H43.3995L44.3287 27.8807L44.2819 27.906L44.2345 27.9296L44.1878 27.9496L44.142 27.9667L44.0973 27.9807L44.0535 27.992L44.0107 28.0007L43.9676 28.0054L43.9265 28.008L43.8866 28.0073L43.8481 28.0043L43.8099 27.9977L43.7737 27.9883L43.7392 27.977L43.7046 27.9627L47.3891 30.1169L47.4227 30.1312L47.4582 30.1425L47.4945 30.1519L47.5326 30.1575L47.5712 30.1616L47.611 30.1622L47.6521 30.1595L47.6952 30.1549L47.738 30.1461L47.7818 30.1349L47.8266 30.1209L47.8723 30.1039L47.9191 30.0839L47.9664 30.0602L48.0142 30.0339L48.0879 29.9902L48.1616 29.9479L48.2344 29.9043L48.3081 29.8619L48.3818 29.8186L48.4556 29.7759L48.5283 29.7333L48.602 29.6899L48.6758 29.6473L48.7495 29.6039L48.8232 29.5616L48.896 29.5179L48.9697 29.4756L49.0434 29.4319L49.1172 29.3895L49.1909 29.3459L49.2636 29.3036L49.3374 29.2599L49.4111 29.2176L49.4845 29.174L49.5576 29.1316L49.631 29.088L49.7047 29.0456L49.7784 29.002L49.8522 28.9595L49.9249 28.9159L49.9986 28.8736L50.0724 28.8299L50.1461 28.7876L50.2188 28.7443L50.2926 28.7016L50.3663 28.6583L50.414 28.6289L50.4604 28.5976L50.5072 28.5636L50.5529 28.5276L50.5977 28.489L50.6415 28.4483L50.6846 28.406L50.7264 28.3623L50.7685 28.316L50.8077 28.269L50.8469 28.2196L50.8841 28.1696L50.9206 28.1177L50.9561 28.0647L50.9897 28.011L51.0223 27.956L51.0529 27.9003L51.0819 27.8437L51.1098 27.787L51.1352 27.7293L51.1595 27.6707L51.1819 27.6124L51.2023 27.5537L51.2211 27.494L51.2379 27.4357L51.2527 27.376L51.2649 27.3174L51.2751 27.2587L51.2836 27.2014L51.2899 27.1437L51.2929 27.0861L51.2948 27.0294V24.8582L51.2929 24.8031L51.2899 24.7502L51.2836 24.6992L51.2761 24.6512L51.2649 24.6039L51.2527 24.5605L51.2379 24.5178L51.2221 24.4782L51.2033 24.4416L51.1829 24.4065L51.1602 24.3742L51.1362 24.3442L51.1098 24.3165L51.0819 24.2922L51.0529 24.2696L51.0223 24.2496L50.9907 24.2325L50.9561 24.2185L47.2726 22.0643L47.3062 22.0784L47.3378 22.0953L47.3684 22.1153L47.3983 22.138L47.4253 22.1623L47.4517 22.1899L47.4757 22.22L47.4981 22.2524L47.5188 22.2873L47.5376 22.324L47.5534 22.3636L47.5682 22.4063L47.5813 22.4496L47.5915 22.497L47.5991 22.545L47.6054 22.5963L47.6093 22.649L47.6103 22.7046ZM47.6103 14.5094V16.6816L47.6093 16.7383L47.6054 16.796L47.5991 16.8536L47.5915 16.911L47.5804 16.9696L47.5682 17.0293L47.5534 17.0879L47.5376 17.1463L47.5188 17.2059L47.4981 17.2646L47.4757 17.3229L47.4517 17.3816L47.4253 17.4393L47.3973 17.4959L47.3684 17.5526L47.3378 17.6082L47.3052 17.6633L47.2716 17.7168L47.2371 17.7699L47.2005 17.8219L47.1623 17.8719L47.1242 17.9212L47.084 17.9682L47.0429 18.0135L47.0001 18.0583L46.957 18.1006L46.9132 18.1412L46.8684 18.1792L46.8227 18.2159L46.7759 18.2499L46.7295 18.2812L46.6818 18.3106L46.608 18.3539L46.5343 18.3965L46.4616 18.4399L46.3878 18.4822L46.3141 18.5249L46.2404 18.5682L46.1677 18.6108L46.0939 18.6542L46.0202 18.6968L45.9465 18.7401L45.8737 18.7829L45.8 18.8262L45.7263 18.8689L45.6528 18.9122L45.5791 18.9549L45.5064 18.9982L45.4326 19.0409L45.3589 19.0842L45.2852 19.1268L45.2115 19.1701L45.1387 19.2128L45.065 19.2562L44.9912 19.2988L44.9175 19.3422L44.8438 19.3848L44.7711 19.4282L44.6973 19.4705L44.6236 19.5142L44.5499 19.5565L44.4771 19.6001L44.4034 19.6425L44.3297 19.6861H44.3287L43.4005 19.1428L43.3995 19.1439L44.3277 19.6861L44.2819 19.7125L44.2345 19.7351L44.1878 19.7562L44.142 19.7731L44.0973 19.7871L44.0535 19.7985L44.0107 19.8061L43.9676 19.8118L43.9265 19.8134H43.8866L43.8481 19.8098L43.8099 19.8041L43.7737 19.7948L43.7392 19.7834L47.4227 21.9377L47.4582 21.949L47.4945 21.9574L47.5326 21.964L47.5712 21.9677H47.611L47.6521 21.966L47.6952 21.9604L47.738 21.9527L47.7818 21.9413L47.8266 21.9274L47.8723 21.9104L47.9191 21.8894L47.9664 21.8666L48.0142 21.8394L48.0879 21.7966L48.1616 21.7533L48.2344 21.7107L48.3081 21.6684L48.3818 21.6247L48.4556 21.5824L48.5283 21.539L48.602 21.4964L48.6758 21.453L48.7495 21.4104L48.8232 21.367L48.896 21.3244L48.9697 21.281L49.0434 21.2384L49.1172 21.195L49.1909 21.1524L49.2636 21.1091L49.3374 21.0664L49.4111 21.0231L49.4845 20.9804L49.5576 20.9371L49.631 20.8944L49.7047 20.8511L49.7784 20.8084L49.8522 20.7651L49.9249 20.7224L49.9986 20.6791L50.0724 20.6364L50.1461 20.5931L50.2188 20.5504L50.2926 20.5081L50.3663 20.4648L50.414 20.4354L50.4604 20.4041L50.5072 20.37L50.5529 20.3334L50.5977 20.2954L50.6415 20.2548L50.6846 20.2124L50.7264 20.1678L50.7685 20.1224L50.8077 20.0755L50.8469 20.0261L50.8841 19.9761L50.9206 19.9241L50.9561 19.8711L50.9897 19.8174L51.0223 19.7625L51.0529 19.7067L51.0819 19.6501L51.1098 19.5934L51.1352 19.5358L51.1595 19.4771L51.1819 19.4188L51.2023 19.3601L51.2211 19.3005L51.2379 19.2422L51.2527 19.1825L51.2649 19.1238L51.2751 19.0652L51.2836 19.0079L51.2899 18.9501L51.2929 18.8925L51.2948 18.8358V16.6636L51.2929 16.6086L51.2899 16.556L51.2836 16.505L51.2761 16.4557L51.2649 16.4093L51.2527 16.365L51.2379 16.3233L51.2221 16.2836L51.2033 16.2469L51.1829 16.212L51.1602 16.1796L51.1362 16.1497L51.1098 16.1223L51.0819 16.0977L51.0529 16.075L51.0223 16.055L50.9907 16.038L50.9561 16.024L50.9216 16.0117L47.2371 13.8575L47.2726 13.8698L47.3062 13.8837L47.3378 13.9008L47.3684 13.9208L47.3983 13.9434L47.4253 13.9681L47.4517 13.9955L47.4757 14.0255L47.4981 14.0578L47.5188 14.0928L47.5376 14.1294L47.5534 14.1691L47.5682 14.2118L47.5813 14.2551L47.5915 14.3014L47.5991 14.3508L47.6054 14.4018L47.6093 14.4544L47.6103 14.5094Z" fill="#415A73"/>
<path fill-rule="evenodd" clip-rule="evenodd" d="M13.9472 37.4486L13.8738 37.4922L13.8 37.5346L13.7263 37.5779L13.6535 37.6206L13.5798 37.664L13.5061 37.7066L13.4324 37.75L13.3586 37.7926L13.2849 37.836L13.2121 37.8786L13.1384 37.9219L13.0647 37.9646L12.991 38.0079L12.9172 38.0506L12.8445 38.0939L12.7708 38.1366L12.697 38.1799L12.6233 38.2226L12.5496 38.2659L12.4768 38.3086L12.4031 38.3509L12.3294 38.3946L12.2556 38.4369L12.1829 38.4806L12.1092 38.5229L12.0354 38.5666L11.9617 38.6088L11.889 38.6522L11.8152 38.6949L11.7415 38.7382L11.6678 38.7809L11.595 38.8242H11.594L10.6658 38.2809H10.6649L11.594 38.8242L11.5466 38.8509L11.4999 38.8735L11.4532 38.8942L11.4078 38.9112L11.3627 38.9255L11.3179 38.9369L11.2751 38.9442L11.233 38.9499L11.1922 38.9519H11.152L11.1128 38.9482L11.0753 38.9425L11.0391 38.9329L11.0035 38.9216L10.97 38.9066L10.9384 38.8895L10.9074 38.8695L10.8775 38.8479L10.8505 38.8225L14.535 40.9768L14.562 41.002L14.591 41.0237L14.6219 41.0437L14.6545 41.0608L14.6881 41.0758L14.7236 41.0871L14.7598 41.0958L14.7974 41.1024L14.8365 41.1061H14.8767L14.9175 41.1041L14.9596 41.0984L15.0024 41.0911L15.0475 41.0797L15.0923 41.0654L15.1377 41.0484L15.1844 41.0278L15.2312 41.0051L15.2796 40.9778L15.3523 40.9351L15.426 40.8924L15.4998 40.8491L15.5725 40.8064L15.6462 40.7631L15.72 40.7208L15.7937 40.6771L15.8664 40.6348L15.9402 40.5911L16.0139 40.5487L16.0876 40.5051L16.1614 40.4628L16.2341 40.4191L16.3078 40.3768L16.3816 40.3331L16.4553 40.2908L16.528 40.2471L16.6017 40.2048L16.6755 40.1611L16.7492 40.1187L16.8229 40.0752L16.8967 40.0328L16.9694 39.9892L17.0431 39.9468L17.1169 39.9035L17.1906 39.8608L17.2643 39.8175L17.3371 39.7748L17.4108 39.7315L17.4845 39.6888L17.5583 39.6454L17.6317 39.6028L17.6794 39.5735L17.7261 39.5415L17.7729 39.5075L17.8183 39.4715L17.8631 39.4329L17.9072 39.3932L17.95 39.3505L17.9921 39.3062L18.0329 39.2608L18.0731 39.2135L18.1122 39.1645L18.1498 39.1145L18.186 39.0625L18.2215 39.0095L18.2551 38.9555L18.2867 38.9009L18.3176 38.8452L18.3476 38.7886L18.3746 38.7319L18.4006 38.6742L18.4249 38.6155L18.4473 38.5569L18.4677 38.4983L18.4865 38.4389L18.5033 38.3803L18.5181 38.3209L18.5303 38.2622L18.5405 38.2036L18.549 38.1449L18.5546 38.0873L18.5582 38.0306L18.5602 37.9739V35.8017H18.5592L18.5572 35.747L18.5536 35.6941L18.548 35.643L18.5398 35.5951L18.5293 35.5487L18.5174 35.5041L18.5023 35.4617L18.4855 35.4231L18.4667 35.3851L18.4463 35.3501L18.4249 35.3181L18.4006 35.2877L18.3746 35.2604L18.3466 35.2357L14.6631 33.0815L14.6901 33.1062L14.716 33.1335L14.7404 33.1639L14.7628 33.1958L14.7832 33.2309L14.802 33.2689L14.8177 33.3085L14.8329 33.3499L14.8447 33.3945L14.8553 33.4409L14.8635 33.4888L14.8701 33.5398L14.8727 33.5928L14.8747 33.6485H14.8757V35.8197L14.8737 35.8764L14.8711 35.933L14.8645 35.9917L14.8559 36.0494L14.8457 36.108L14.8336 36.1667L14.8188 36.226L14.802 36.2847L14.7832 36.344L14.7628 36.4027L14.7404 36.4613L14.716 36.52L14.6901 36.5777L14.6631 36.6343L14.6341 36.691L14.6032 36.7466L14.5706 36.8013L14.537 36.8553L14.5014 36.9083L14.4652 36.9603L14.4277 37.0103L14.3886 37.0593L14.3484 37.1066L14.3076 37.152L14.2655 37.1963L14.2227 37.2389L14.1785 37.2797L14.1338 37.3173L14.088 37.3543L14.0416 37.3883L13.9949 37.4193L13.9472 37.4486ZM14.8747 25.455V27.6261L14.8727 27.6828L14.8701 27.7394L14.8635 27.7972L14.8553 27.8558L14.8447 27.9145L14.8329 27.9728L14.8177 28.0315L14.801 28.0911L14.7822 28.1498L14.7618 28.2091L14.7394 28.2678L14.716 28.3255L14.6901 28.3831L14.6621 28.4408L14.6331 28.4974L14.6022 28.5531L14.5696 28.6078L14.536 28.6618L14.5014 28.7148L14.4652 28.7658L14.4267 28.8158L14.3886 28.8648L14.3484 28.9121L14.3076 28.9584L14.2644 29.0027L14.2217 29.0444L14.1779 29.0851L14.1331 29.1238L14.0874 29.1597L14.0406 29.1938L13.9939 29.2258L13.9465 29.2551L11.594 30.6307L11.5466 30.6574L11.4989 30.681L11.4525 30.7007L11.4068 30.7177L11.362 30.732L11.3179 30.7433L11.2751 30.7517L11.2323 30.7563L11.1912 30.7593L11.151 30.7583L11.1128 30.7547L11.0746 30.749L11.0381 30.7393L11.0035 30.728L10.97 30.713L10.9374 30.696L10.9065 30.6759L10.8775 30.6544L14.562 32.8086L14.591 32.8302L14.6219 32.8502L14.6535 32.8672L14.6881 32.8822L14.7226 32.8936L14.7592 32.9032L14.7974 32.9089L14.8355 32.9125H14.8757L14.9168 32.9105L14.9596 32.9058L15.0024 32.8975L15.0465 32.8862L15.0913 32.8719L15.137 32.8549L15.1835 32.8352L15.2312 32.8116L15.2789 32.7849L17.631 31.4092L17.6784 31.38L17.7251 31.348L17.7719 31.314L17.8176 31.2779L17.8624 31.2392L17.9062 31.1987L17.949 31.157L17.9911 31.1126L18.0322 31.0663L18.0721 31.019L18.1112 30.97L18.1488 30.92L18.185 30.868L18.2205 30.8159L18.2541 30.7613L18.2867 30.7063L18.3176 30.6507L18.3466 30.595L18.3746 30.5373L18.3996 30.4797L18.4239 30.421L18.4463 30.3624L18.4667 30.304L18.4855 30.2453L18.5023 30.1857L18.5174 30.127L18.5293 30.0687L18.5398 30.0101L18.548 29.9514L18.5536 29.8937L18.5572 29.837L18.5592 29.7804V27.6092L18.5572 27.5535L18.5536 27.5005L18.548 27.4494L18.5398 27.4015L18.5293 27.3552L18.5174 27.3105L18.5023 27.2692L18.4855 27.2295L18.4667 27.1915L18.4463 27.1575L18.4239 27.1245L18.3996 27.0952L18.3746 27.0679L18.3466 27.0422L18.3176 27.0205L18.2867 27.0009L14.6022 24.8467L14.6331 24.8663L14.6621 24.888L14.6901 24.9137L14.716 24.941L14.7404 24.9703L14.7618 25.0033L14.7822 25.0373L14.801 25.0753L14.8177 25.115L14.8329 25.1563L14.8447 25.201L14.8553 25.2473L14.8635 25.2953L14.8701 25.3462L14.8727 25.3993L14.8747 25.455ZM14.8747 50.0376V52.2098L14.8727 52.2654L14.8701 52.3231L14.8635 52.3808L14.8553 52.4385L14.8447 52.4971L14.8329 52.5554L14.8177 52.6141L14.801 52.6738L14.7822 52.7321L14.7618 52.7908L14.7394 52.8494L14.716 52.908L14.6901 52.9658L14.6621 53.0224L14.6331 53.0791L14.6022 53.1347L14.5696 53.1894L14.536 53.2434L14.5014 53.2964L14.4652 53.3474L14.4267 53.3984L14.3886 53.4464L14.3484 53.4947L14.3076 53.54L14.2644 53.5844L14.2217 53.6271L14.1779 53.6667L14.1331 53.7054L14.0874 53.7413L14.0406 53.7754L13.9939 53.8074L13.9465 53.8367L11.594 55.2112L11.5466 55.2379L11.4989 55.2616L11.4525 55.2823L11.4068 55.2993L11.362 55.3136L11.3179 55.325L11.2751 55.3323L11.2323 55.3379L11.1912 55.34H11.151L11.1128 55.3363L11.0746 55.3306L11.0381 55.3209L11.0035 55.3096L10.97 55.2956L10.9374 55.2786L10.9065 55.2586L10.8775 55.236L10.8495 55.2112L10.8235 55.184L10.7992 55.154L14.4837 57.3082L14.508 57.3382L14.534 57.3655L14.562 57.3902L14.591 57.4128L14.6219 57.4318L14.6535 57.4498L14.6881 57.4638L14.7226 57.4752L14.7592 57.4848L14.7974 57.4905L14.8355 57.4942H14.8757L14.9168 57.4921L14.9596 57.4865L15.0024 57.4792L15.0465 57.4678L15.0913 57.4535L15.137 57.4365L15.1835 57.4159L15.2312 57.3922L15.2789 57.3655L17.631 55.9909L17.6784 55.9616L17.7251 55.9296L17.7719 55.8956L17.8176 55.8596L17.8624 55.8209L17.9062 55.7803L17.949 55.7386L17.9911 55.6942L18.0322 55.6489L18.0721 55.6006L18.1112 55.5526L18.1488 55.5016L18.185 55.4506L18.2205 55.3976L18.2541 55.3436L18.2867 55.2889L18.3176 55.2333L18.3466 55.1766L18.3746 55.1199L18.3996 55.0623L18.4239 55.0036L18.4463 54.945L18.4667 54.8863L18.4855 54.8279L18.5023 54.7683L18.5174 54.7097L18.5293 54.6513L18.5398 54.5927L18.548 54.535L18.5536 54.4773L18.5572 54.4197L18.5592 54.364V52.1918L18.5572 52.1362L18.5536 52.0832L18.548 52.0321L18.5398 51.9838L18.5293 51.9368L18.5174 51.8931L18.5023 51.8508L18.4855 51.8112L18.4667 51.7741L18.4463 51.7391L18.4239 51.7071L18.3996 51.6768L14.716 49.5226L14.7404 49.5529L14.7618 49.5849L14.7822 49.6199L14.801 49.6576L14.8177 49.6966L14.8329 49.7389L14.8447 49.7833L14.8553 49.8296L14.8635 49.8779L14.8701 49.9289L14.8727 49.9819L14.8747 50.0376ZM18.3746 43.4549L14.6901 41.3007L14.716 41.3281L14.7404 41.3584L14.7628 41.3914L14.7832 41.4253L14.802 41.4634L14.8177 41.503L14.8329 41.5444L14.8447 41.5891L14.8559 41.635L14.8635 41.6844L14.8701 41.7344L14.8727 41.7884L14.8747 41.843L14.8757 41.8441V44.0132L14.8737 44.0699L14.8711 44.1276L14.8645 44.1852L14.8559 44.2429L14.8457 44.3016L14.8336 44.3603L14.8188 44.4196L14.802 44.4782L14.7832 44.5375L14.7628 44.5962L14.7404 44.6549L14.716 44.7136L14.6901 44.7712L14.6631 44.8279L14.6341 44.8846L14.6032 44.9402L14.5706 44.9949L14.537 45.0488L14.5014 45.1018L14.4652 45.1539L14.4277 45.2039L14.3886 45.2528L14.3484 45.3002L14.3076 45.3465L14.2655 45.3899L14.2227 45.4325L14.1785 45.4732L14.1338 45.5118L14.088 45.5478L14.0416 45.5818L13.9949 45.6128L13.9472 45.6422L13.8738 45.6858L13.8 45.7282L13.7263 45.7718L13.6535 45.8141L13.5798 45.8575L13.5061 45.9001L13.4324 45.9435L13.3586 45.9861L13.2849 46.0295L13.2121 46.0721L13.1384 46.1155L13.0647 46.1581L12.991 46.2015L12.9172 46.2441L12.8445 46.2875L12.7708 46.3301L12.697 46.3734L12.6233 46.4161L12.5496 46.4594L12.4768 46.5021L12.4031 46.5454L12.3294 46.5881L12.2556 46.6314L12.1829 46.6741L12.1092 46.7174L12.0354 46.7601L11.9617 46.8035L11.889 46.8461L11.8152 46.8894L11.7415 46.9317L11.6678 46.9754L11.595 47.0178L10.6658 46.4748H10.6649L11.594 47.0178L11.5466 47.0444L11.4999 47.0681L11.4532 47.0878L11.4078 47.1047L11.3627 47.1191L11.3179 47.1304L11.2751 47.1388L11.233 47.1434L11.1922 47.1464L11.152 47.1454L11.1128 47.1427L11.0753 47.1361L11.0391 47.1264L11.0035 47.115L10.97 47.1011L10.9384 47.0841L10.9074 47.0641L10.8775 47.0414L10.8505 47.0171L10.8245 46.9894L14.509 49.143L14.535 49.1713L14.562 49.1956L14.591 49.2182L14.6219 49.2373L14.6545 49.2553L14.6881 49.2693L14.7236 49.2806L14.7598 49.2903L14.7974 49.2959L14.8365 49.2996L14.8767 49.3006L14.9175 49.2976L14.9596 49.2929L15.0024 49.2846L15.0475 49.2733L15.0923 49.259L15.1377 49.242L15.1844 49.2223L15.2312 49.1986L15.2796 49.1719L15.3523 49.1286L15.426 49.086L15.4998 49.0436L15.5725 49.0003L15.6462 48.9576L15.72 48.9143L15.7937 48.8716L15.8664 48.8282L15.9402 48.7857L16.0139 48.7423L16.0876 48.6997L16.1614 48.6563L16.2341 48.6137L16.3078 48.5703L16.3816 48.5276L16.4553 48.4843L16.528 48.4416L16.6017 48.3983L16.6755 48.3557L16.7492 48.3124L16.8229 48.2697L16.8967 48.2264L16.9694 48.1837L17.0431 48.1404L17.1169 48.0977L17.1906 48.0543L17.2643 48.0116L17.3371 47.9683L17.4108 47.926L17.4845 47.8824L17.5583 47.84L17.6317 47.7964L17.6794 47.767L17.7261 47.7361L17.7729 47.702L17.8183 47.665L17.8631 47.6274L17.9072 47.5867L17.95 47.5441L17.9921 47.5007L18.0329 47.4544L18.0731 47.4071L18.1122 47.3581L18.1498 47.3081L18.186 47.2561L18.2215 47.2031L18.2551 47.1491L18.2867 47.0944L18.3176 47.0387L18.3476 46.9821L18.3746 46.9254L18.4006 46.8677L18.4249 46.8091L18.4473 46.7505L18.4677 46.6917L18.4865 46.6325L18.5033 46.5738L18.5181 46.5145L18.5303 46.4558L18.5405 46.3971L18.549 46.3384L18.5546 46.2808L18.5582 46.2241L18.5602 46.1675V43.9962H18.5592L18.5572 43.9416L18.5536 43.8885L18.548 43.8376L18.5398 43.7892L18.5293 43.7433L18.5174 43.6985L18.5023 43.6573L18.4855 43.6176L18.4667 43.5796L18.4463 43.5446L18.4249 43.5126L18.4006 43.4823L18.3746 43.4549Z" fill="#415A73"/>
<path fill-rule="evenodd" clip-rule="evenodd" d="M45.136 7.9164L41.4528 5.76318V8.87634L45.136 11.0296V7.9164Z" fill="#2C3E50"/>
<path fill-rule="evenodd" clip-rule="evenodd" d="M45.136 11.0297L41.4528 8.87646L16.8619 23.2557L20.5451 25.4089L45.136 11.0297Z" fill="#415A73"/>
<path fill-rule="evenodd" clip-rule="evenodd" d="M53.2825 3.15321L49.596 1L41.4528 5.76307L45.136 7.91628L53.2825 3.15321Z" fill="#415A73"/>
<path fill-rule="evenodd" clip-rule="evenodd" d="M12.4018 27.0516L8.71863 24.8984V60.8764L12.4018 63.0296V27.0516Z" fill="#415A73"/>
<path fill-rule="evenodd" clip-rule="evenodd" d="M20.545 22.2924L16.8618 20.1392L8.71863 24.8989L12.4018 27.0521L20.545 22.2924Z" fill="#415A73"/>
<path fill-rule="evenodd" clip-rule="evenodd" d="M20.5458 58.2699V54.5491L45.1377 40.1719V43.8924L53.2812 39.1316V3.1543L45.1377 7.91543V11.0313L20.5458 25.4087V22.2929L12.4033 27.0537V63.0309L20.5458 58.2699ZM51.2948 18.8358C51.2771 19.162 51.1839 19.4795 51.0226 19.7625C50.8612 20.0455 50.6364 20.2861 50.3663 20.4647C49.5826 20.9227 48.7985 21.3809 48.0142 21.8393C47.501 22.1396 47.0849 21.896 47.0849 21.297L47.084 19.1258C47.1021 18.7994 47.1957 18.4819 47.3571 18.1989C47.5184 17.9158 47.7432 17.675 48.0132 17.4959C48.7969 17.0386 49.5809 16.5804 50.3653 16.1213C50.8784 15.8206 51.2948 16.0646 51.2948 16.6635V18.8358ZM51.2948 27.0293C51.2771 27.3556 51.1839 27.673 51.0226 27.956C50.8612 28.239 50.6364 28.4796 50.3663 28.6582C49.5826 29.1161 48.7985 29.5747 48.0142 30.0338C47.501 30.3332 47.0849 30.0905 47.0849 29.4905L47.084 27.3203C47.1019 26.9939 47.1953 26.6764 47.3567 26.3932C47.5181 26.1101 47.743 25.8694 48.0132 25.6904C48.7969 25.2321 49.5809 24.7736 50.3653 24.3148C50.8784 24.0152 51.2948 24.2588 51.2948 24.8581V27.0293ZM51.2948 10.6413C51.277 10.9676 51.1836 11.2851 51.0221 11.5681C50.8606 11.8511 50.6356 12.0916 50.3653 12.2701L48.0132 13.6468C47.501 13.9451 47.0849 13.7034 47.0849 13.1025L47.084 10.9322C47.1019 10.606 47.1954 10.2885 47.3568 10.0056C47.5182 9.72261 47.743 9.48209 48.0132 9.30334C48.7969 8.84504 49.5809 8.38649 50.3653 7.92774C50.8784 7.62809 51.2938 7.87106 51.2938 8.47102L51.2948 10.6413ZM51.2948 35.2245C51.2769 35.5507 51.1834 35.868 51.0219 36.1508C50.8604 36.4336 50.6355 36.674 50.3653 36.8524L48.0132 38.2284C47.501 38.5267 47.0849 38.285 47.0849 37.686L47.084 35.5155C47.1018 35.1891 47.1952 34.8716 47.3566 34.5885C47.518 34.3054 47.7429 34.0647 48.0132 33.8859C48.7969 33.4287 49.5809 32.97 50.3653 32.51C50.8784 32.2107 51.2938 32.4534 51.2938 33.0543L51.2948 35.2245ZM18.5604 37.9741C18.5424 38.3002 18.449 38.6176 18.2877 38.9005C18.1264 39.1835 17.9018 39.4241 17.6318 39.6029C16.8475 40.0613 16.0634 40.5196 15.2797 40.9779C14.7656 41.2782 14.3505 41.0345 14.3505 40.4352L14.3495 38.2633C14.3677 37.9371 14.4612 37.6197 14.6227 37.3368C14.7841 37.0539 15.009 36.8133 15.2791 36.6345C16.0628 36.1772 16.8468 35.7188 17.6312 35.2595C18.1433 34.9602 18.5594 35.2029 18.5594 35.8029L18.5604 37.9741ZM18.5604 46.1676C18.5424 46.4938 18.449 46.8111 18.2877 47.0941C18.1265 47.377 17.9018 47.6176 17.6318 47.7965C16.8475 48.2558 16.0634 48.7143 15.2797 49.1721C14.7656 49.4716 14.3505 49.2281 14.3505 48.6288L14.3495 46.4585C14.3674 46.1321 14.4608 45.8145 14.6223 45.5314C14.7837 45.2483 15.0087 45.0077 15.2791 44.829C16.0628 44.3707 16.8468 43.9124 17.6312 43.454C18.1433 43.1537 18.5594 43.3974 18.5594 43.9974L18.5604 46.1676ZM18.5594 54.3641C18.5412 54.6899 18.4477 55.0069 18.2865 55.2895C18.1253 55.572 17.9008 55.8123 17.6312 55.991L15.2791 57.3656C14.7656 57.6663 14.3495 57.4233 14.3495 56.8243V54.6521C14.3673 54.3259 14.4608 54.0085 14.6223 53.7257C14.7837 53.4429 15.0088 53.2025 15.2791 53.0242C16.0628 52.5659 16.8468 52.1074 17.6312 51.6486C18.1424 51.349 18.5594 51.5919 18.5594 52.1919V54.3641ZM18.5594 29.7805C18.5415 30.1067 18.4481 30.424 18.2869 30.7069C18.1257 30.9898 17.9011 31.2304 17.6312 31.4093L15.2791 32.785C14.7656 33.0836 14.3495 32.8417 14.3495 32.2417V30.0698C14.3674 29.7436 14.4608 29.4262 14.6223 29.1433C14.7838 28.8605 15.0088 28.62 15.2791 28.4416C16.0628 27.9836 16.8468 27.5254 17.6312 27.067C18.1424 26.7673 18.5594 27.0093 18.5594 27.6093V29.7805Z" fill="#2C3E50"/>
<path fill-rule="evenodd" clip-rule="evenodd" d="M21.2462 27.8686L44.2505 14.416V37.8214L21.2462 51.2706V27.8686Z" fill="#E74C3C"/>
<path fill-rule="evenodd" clip-rule="evenodd" d="M26.9503 27.9852L41.2618 27.8652L26.9503 44.481V27.9852Z" fill="#E6EAEB"/>
</svg>
