<svg width="64" height="64" viewBox="0 0 64 64" fill="none" xmlns="http://www.w3.org/2000/svg">
<g clip-path="url(#clip0_645_76110)">
<path fill-rule="evenodd" clip-rule="evenodd" d="M11.3426 60.8113L9.83767 59.9548L9.48955 59.6729L9.22483 59.2732L9.05802 58.7593L9 58.1384L9.01088 30.8208L9.0689 30.1356L9.23571 29.4326L9.50043 28.7296L9.85218 28.048L10.2765 27.4128L10.7624 26.8382L11.2954 26.3422L11.872 25.9496L51.6379 3.3747L52.2145 3.1142L52.7512 3L53.2335 3.02498L53.6578 3.182L55.1627 4.03489L54.7384 3.88144L54.2525 3.85289L53.7158 3.97066L53.1428 4.2276L13.3733 26.8025L12.8004 27.1951L12.2637 27.6911L11.7777 28.2657L11.3535 28.9044L11.0053 29.5825L10.7406 30.2855L10.5702 30.9885L10.5122 31.6772L10.5013 58.9948L10.5629 59.6122L10.7297 60.1261L10.9908 60.5293L11.3426 60.8113Z" fill="#2C3E50"/>
<path fill-rule="evenodd" clip-rule="evenodd" d="M13.5793 28.9498L52.9354 6.60931C53.644 6.20685 54.2184 6.53334 54.2184 7.33985L54.2082 33.6436C54.1841 34.0818 54.0552 34.5082 53.8321 34.8882C53.609 35.2682 53.2979 35.591 52.9242 35.8305L13.568 58.1719C12.8587 58.5749 12.2843 58.248 12.2843 57.4419L12.2945 31.1377C12.3189 30.6994 12.4479 30.2728 12.6712 29.8927C12.8944 29.5126 13.2055 29.1895 13.5793 28.9498V28.9498Z" fill="#9DD6F5"/>
<path fill-rule="evenodd" clip-rule="evenodd" d="M18.5807 31.9771L48.1966 15.1511V35.2423L18.5807 52.0683V31.9771Z" fill="white"/>
<path fill-rule="evenodd" clip-rule="evenodd" d="M18.5807 31.977L48.1966 15.1511V12.2534L18.5807 29.0829V31.977Z" fill="#2980B9"/>
<path fill-rule="evenodd" clip-rule="evenodd" d="M26.0881 32.4993C26.4881 32.2728 26.8149 32.458 26.8149 32.9112C26.8007 33.159 26.7276 33.4 26.6014 33.6149C26.4751 33.8297 26.2993 34.0123 26.0881 34.148V34.148C25.6885 34.3747 25.3636 34.1905 25.3636 33.7366C25.3775 33.489 25.4504 33.248 25.5762 33.0331C25.702 32.8182 25.8774 32.6353 26.0881 32.4993V32.4993Z" fill="#9B59B6"/>
<path fill-rule="evenodd" clip-rule="evenodd" d="M26.0881 36.9319C26.4881 36.7053 26.8149 36.8905 26.8149 37.3448C26.8007 37.5926 26.7276 37.8337 26.6014 38.0486C26.4751 38.2636 26.2993 38.4463 26.0881 38.5821V38.5821C25.6885 38.8094 25.3636 38.6235 25.3636 38.1702C25.3774 37.9224 25.4501 37.6812 25.576 37.4661C25.7018 37.251 25.8773 37.0681 26.0881 36.9319Z" fill="#FFCB05"/>
<path fill-rule="evenodd" clip-rule="evenodd" d="M26.0881 41.6429C26.4881 41.4152 26.8149 41.6015 26.8149 42.0547C26.8007 42.3025 26.7276 42.5436 26.6014 42.7586C26.4751 42.9735 26.2993 43.1561 26.0881 43.2919C25.6885 43.5185 25.3636 43.3333 25.3636 42.8791C25.3774 42.6315 25.4502 42.3906 25.5761 42.1759C25.702 41.9612 25.8773 41.7786 26.0881 41.6429V41.6429Z" fill="#6699FF"/>
<path fill-rule="evenodd" clip-rule="evenodd" d="M28.2955 31.6559L39.5551 25.261V26.0853L28.2955 32.4838V31.6559Z" fill="#9C9C9C"/>
<path fill-rule="evenodd" clip-rule="evenodd" d="M28.2955 36.0916L40.4726 29.1721V29.9965L28.2955 36.916V36.0916Z" fill="#9C9C9C"/>
<path fill-rule="evenodd" clip-rule="evenodd" d="M28.2955 40.802L37.887 35.3528V36.1771L28.2955 41.6264V40.802Z" fill="#9C9C9C"/>
<path fill-rule="evenodd" clip-rule="evenodd" d="M13.3737 26.8045L53.1432 4.22811C54.7148 3.33596 56 4.06824 56 5.85575L55.9895 33.1723C55.9334 34.1479 55.6454 35.0969 55.1488 35.9431C54.6521 36.7892 53.9605 37.5089 53.1298 38.0441L13.3606 60.6191C11.7879 61.5122 10.5027 60.7811 10.5027 58.9936L10.5132 31.6763C10.5692 30.7006 10.8572 29.7514 11.354 28.9052C11.8508 28.059 12.5426 27.3395 13.3737 26.8045V26.8045ZM13.5793 28.9499C13.2055 29.1895 12.8944 29.5125 12.6713 29.8926C12.4483 30.2728 12.3195 30.6994 12.2956 31.1378L12.2854 57.4419C12.2843 58.2469 12.8587 58.5739 13.568 58.172L52.9242 35.8305C53.2978 35.5909 53.6087 35.2681 53.8318 34.8881C54.0549 34.5082 54.1839 34.0818 54.2082 33.6437L54.2173 7.33882C54.2184 6.53438 53.644 6.20691 52.9354 6.60937L13.5793 28.9499Z" fill="#415A73"/>
<path fill-rule="evenodd" clip-rule="evenodd" d="M33.7636 47.3453C33.7021 47.3175 33.6341 47.3063 33.5668 47.3129C33.4994 47.3195 33.4351 47.3436 33.3803 47.3827C33.2226 47.4843 33.0913 47.6208 32.997 47.7814C32.9027 47.942 32.848 48.1221 32.8374 48.3073C32.8236 48.374 32.8314 48.4433 32.8598 48.5054C32.8882 48.5675 32.9357 48.6193 32.9956 48.6534C33.0555 48.6875 33.1247 48.7022 33.1936 48.6954C33.2624 48.6887 33.3274 48.6608 33.3792 48.6157C33.5374 48.5148 33.6691 48.3784 33.7634 48.2177C33.8578 48.0571 33.9122 47.8767 33.9221 47.6914C33.9291 47.6251 33.9181 47.5581 33.8903 47.4973C33.8624 47.4365 33.8187 47.3841 33.7636 47.3453V47.3453Z" fill="#E6EAEB"/>
</g>
<defs>
<clipPath id="clip0_645_76110">
<rect width="47" height="58" fill="white" transform="translate(9 3)"/>
</clipPath>
</defs>
</svg>
