<svg width="32" height="32" viewBox="0 0 32 32" fill="none" xmlns="http://www.w3.org/2000/svg">
<path d="M32 5.33363H0V26.6665H32V5.33363Z" fill="#D80027"/>
<path d="M12.2901 5.33363V16.3479V26.6665H0V5.33363H12.2901Z" fill="#6DA544"/>
<path d="M12.2903 20C14.4994 20 16.2903 18.2091 16.2903 16C16.2903 13.7909 14.4994 12 12.2903 12C10.0811 12 8.29027 13.7909 8.29027 16C8.29027 18.2091 10.0811 20 12.2903 20Z" fill="#FFDA44"/>
<path d="M10.0402 14V16.5001C10.0402 17.7427 11.0475 18.7501 12.2902 18.7501C13.5328 18.7501 14.5402 17.7427 14.5402 16.5001V14H10.0402Z" fill="#D80027"/>
<path d="M12.2902 17.25C11.8766 17.25 11.5402 16.9136 11.5402 16.5V15.5H13.0402V16.5C13.0402 16.9135 12.7037 17.25 12.2902 17.25Z" fill="#F0F0F0"/>
</svg>
