<svg width="64" height="64" viewBox="0 0 64 64" fill="none" xmlns="http://www.w3.org/2000/svg">
<g clip-path="url(#clip0_645_90072)">
<path fill-rule="evenodd" clip-rule="evenodd" d="M16.3977 23.5481L16.0983 23.9686L15.8122 24.3934L15.5369 24.8209L15.2727 25.2517L15.0199 25.6862L14.7769 26.1246L14.5442 26.566L14.3217 27.0113L14.1073 27.4602L13.9014 27.9123L13.7037 28.3691L13.5144 28.8293L13.3326 29.2942L13.157 29.7622L12.9879 30.235L12.8253 30.7115L12.6686 31.193L12.5161 31.6779L12.4624 31.8926L12.41 32.1063L12.3591 32.3183L12.3102 32.5302L12.264 32.7414L12.2187 32.9507L12.1754 33.1591L12.1337 33.3674L12.0939 33.5742L12.0552 33.7798L12.0193 33.9838L11.9841 34.1878L11.9509 34.3908L11.9196 34.5932L11.89 34.7944L11.8613 34.994L11.8356 35.1936L11.8105 35.3923L11.7864 35.59L11.7642 35.7859L11.744 35.982L11.7255 36.177L11.7082 36.3713L11.6916 36.5646L11.6775 36.757L11.6645 36.9487L11.6525 37.1403L11.6423 37.3302L11.6332 37.5188L11.6257 37.7078L11.6192 37.8958L11.6147 38.0829L11.7496 39.7061L11.9822 41.2287L12.3102 42.6505L12.7276 43.9726L13.2309 45.1938L13.8184 46.3166L14.4833 47.339L15.2238 48.2624L16.0357 49.0871L16.9147 49.8126L23.8577 53.6618C30.543 58.6229 42.3567 55.642 52.5198 45.1646L49.0374 43.234C49.2046 43.0103 49.3717 42.7805 49.5388 42.5447C55.9018 33.5689 58.5522 19.3097 56.0902 12.4658L54.5414 11.6073L54.256 12.0099L53.965 12.411L53.6689 12.8083L53.3675 13.2038L53.0619 13.5958L52.7528 13.985L52.4377 14.3718L52.1191 14.7556L51.7959 15.1355L51.4688 15.5122L51.1391 15.8857L50.8048 16.2555L50.4669 16.6218L50.1272 16.9845L49.7824 17.3427L49.4362 17.6966L49.0872 18.047L48.7354 18.3926L48.3806 18.7344L48.3096 18.8016C48.9344 15.1555 48.7325 11.4228 47.7176 7.85845L46.1688 7L45.8834 7.40264L45.5927 7.80374L45.2963 8.20108L44.9953 8.59656L44.6893 8.98855L44.3802 9.37872L44.0651 9.76541L43.7465 10.1484L43.4233 10.5291L43.0962 10.9058L42.7668 11.2794L42.4322 11.6492L42.0943 12.0152L41.7546 12.3772L41.4099 12.7354L41.0636 13.0902L40.7146 13.4406L40.3618 13.7864L40.008 14.128L39.6516 14.465L39.2926 14.7966L38.9322 15.1248L38.5693 15.4468L38.2054 15.7649L37.8408 16.0772L37.4739 16.385L37.1055 16.6863L36.737 16.9826L36.3675 17.2736L35.9981 17.5592L35.9307 17.6096L32.7024 15.8191L32.2248 15.6454L31.726 15.5062L31.2099 15.4014L30.6759 15.3313L30.1276 15.295L29.566 15.2916L28.9952 15.3207L28.4152 15.3811L27.8298 15.4724L27.2398 15.5938L26.6478 15.7456L26.0565 15.9273L25.4665 16.1366L24.882 16.3744L24.3037 16.6394L23.7339 16.9313L23.1745 17.2495L22.6285 17.5927L22.0964 17.9609L21.583 18.3433L21.0871 18.7271L20.6089 19.1139L20.1479 19.5031L19.7048 19.8951L19.2771 20.2899L18.8662 20.6873L18.47 21.0871L18.0895 21.4898L17.723 21.895L17.3718 22.3038L17.0339 22.7153L16.7088 23.1305L16.3977 23.5481Z" fill="#3D566E"/>
<path fill-rule="evenodd" clip-rule="evenodd" d="M26.4106 44.6941L24.8631 43.8338L24.1333 43.2205L23.5046 42.479L22.98 41.6218L22.5695 40.655L22.2796 39.585L22.1167 38.4212L22.0906 37.1728L22.2079 35.8431L22.4783 34.4384L22.9084 32.9742L23.5078 31.4505L24.2799 29.8768L25.2345 28.2624L26.3813 26.6136L27.7301 24.9366L29.2809 23.2409L31.05 21.5326L33.0373 19.8213L35.256 18.113L35.6274 17.8377L35.9988 17.5592L36.3669 17.2745L36.7383 16.9836L37.1065 16.6863L37.4746 16.386L37.8395 16.0763L38.2044 15.7634L38.5693 15.4474L38.9309 15.1251L39.2925 14.7966L39.6509 14.465L40.0093 14.1271L40.3612 13.7861L40.713 13.4419L41.0649 13.0915L41.4102 12.7348L41.7556 12.3782L42.0944 12.0152L42.4332 11.6492L42.7655 11.28L43.0978 10.9046L43.4236 10.5291L43.7462 10.1474L44.0654 9.76574L44.3815 9.37778L44.691 8.98983L44.994 8.59562L45.2969 8.20141L45.5934 7.80407L45.8834 7.4036L46.1701 7L47.7176 7.85725L47.4309 8.26085L47.1409 8.66132L46.8445 9.05866L46.5447 9.456L46.2385 9.84708L45.929 10.2382L45.613 10.623L45.2969 11.0078L44.9711 11.3864L44.6454 11.765L44.313 12.1373L43.9807 12.5064L43.6419 12.8725L43.3031 13.2354L42.9577 13.5952L42.6124 13.9488L42.2638 14.2992L41.9119 14.6433L41.5568 14.9875L41.2017 15.3222L40.8401 15.6539L40.4817 15.9824L40.1168 16.3046L39.7552 16.6238L39.387 16.9366L39.0221 17.2432L38.654 17.5436L38.2858 17.8408L37.9177 18.1318L37.5463 18.4165L37.1749 18.6981L36.8067 18.9703L34.5848 20.6785L32.5975 22.393L30.8317 24.0981L29.2776 25.7939L27.9321 27.4708L26.7853 29.1197L25.8275 30.734L25.0553 32.3078L24.4559 33.8314L24.0291 35.2988L23.7587 36.7004L23.6381 38.0301L23.6642 39.2815L23.8271 40.4454L24.117 41.5123L24.5308 42.4822L25.0553 43.3363L25.6841 44.0778L26.4106 44.6941Z" fill="#3D566E"/>
<path fill-rule="evenodd" clip-rule="evenodd" d="M36.8054 18.9711C41.0373 15.8501 44.7214 12.0983 47.7176 7.8584C50.1797 14.7024 47.5293 28.9616 41.1662 37.9374C27.5418 57.1577 11.8789 37.1543 36.8054 18.9711Z" fill="#45729E"/>
<path fill-rule="evenodd" clip-rule="evenodd" d="M12.5161 31.6779L12.6686 31.1929L12.8253 30.7114L12.9879 30.235L13.157 29.7621L13.3326 29.2942L13.5144 28.8293L13.7037 28.369L13.9014 27.9122L14.1073 27.4601L14.3217 27.0112L14.5442 26.566L14.7769 26.1245L15.0199 25.6862L15.2727 25.2516L15.5369 24.8208L15.8122 24.3933L16.0983 23.9686L16.3977 23.5481L16.7088 23.1304L17.0339 22.7152L17.3718 22.3038L17.723 21.8949L18.0895 21.4897L18.47 21.087L18.8662 20.6872L19.2771 20.2899L19.7048 19.895L20.1479 19.503L20.6089 19.1138L21.0871 18.7271L21.583 18.3432L22.0964 17.9608L22.6285 17.5926L23.1745 17.2494L23.7339 16.9313L24.3037 16.6393L24.882 16.3743L25.4665 16.1366L26.0565 15.9272L26.6478 15.7455L27.2398 15.5937L27.8298 15.4723L28.4152 15.381L28.9952 15.3206L29.566 15.2915L30.1276 15.2949L30.6759 15.3313L31.2099 15.4014L31.726 15.5061L32.2248 15.6453L32.7024 15.819L39.6444 19.6682L39.1678 19.4943L38.669 19.355L38.1519 19.2512L37.618 19.181L37.0696 19.1439L36.509 19.1403L35.9372 19.1695L35.3582 19.2299L34.7718 19.3213L34.1824 19.4436L33.5905 19.5953L32.9985 19.7762L32.4095 19.9855L31.825 20.2232L31.2457 20.4885L30.6759 20.7801L30.1172 21.0986L29.5705 21.4418L29.0395 21.8107L28.525 22.1921L28.0301 22.5769L27.5519 22.9635L27.0909 23.3528L26.6478 23.7442L26.22 24.1388L25.8083 24.5361L25.413 24.936L25.0316 25.3386L24.6657 25.744L24.3138 26.1526L23.976 26.5644L23.6518 26.9793L23.3407 27.3969L23.0413 27.8184L22.7552 28.2423L22.4799 28.6697L22.2157 29.1008L21.9626 29.5354L21.7198 29.9734L21.4872 30.4152L21.2637 30.8603L21.0493 31.309L20.8444 31.7624L20.6467 32.2182L20.4574 32.6794L20.2756 33.1431L20.1 33.6114L19.9309 34.0842L19.7683 34.5613L19.6113 35.0418L19.4592 35.5271L19.4044 35.7417L19.353 35.9554L19.3021 36.1681L19.2532 36.3793L19.206 36.5902L19.1617 36.7995L19.1184 37.0088L19.0767 37.2165L19.036 37.4231L18.9982 37.6289L18.9623 37.8339L18.9271 38.0379L18.8939 38.2399L18.8626 38.4421L18.833 38.6435L18.8043 38.8438L18.7776 39.0424L18.7525 39.2411L18.7294 39.4389L18.7072 39.6359L18.687 39.8318L18.6675 40.0261L18.6502 40.2204L18.6342 40.4138L18.6196 40.6061L18.6065 40.7986L18.5955 40.9891L18.5844 41.179L18.5763 41.3686L18.5688 41.5566L18.5622 41.7447L18.5577 41.9318L18.6925 43.5558L18.9252 45.0776L19.2523 46.5002L19.6696 47.8215L20.174 49.0438L20.7604 50.1655L21.4263 51.1883L22.1668 52.1115L22.9787 52.9361L23.8577 53.6617L16.9147 49.8125L16.0357 49.087L15.2238 48.2623L14.4833 47.339L13.8184 46.3166L13.2309 45.1937L12.7276 43.9726L12.3102 42.6504L11.9822 41.2287L11.7496 39.706L11.6147 38.0829L11.6192 37.8958L11.6257 37.7078L11.6332 37.5188L11.6423 37.3301L11.6525 37.1402L11.6645 36.9487L11.6775 36.757L11.6916 36.5646L11.7082 36.3712L11.7255 36.1769L11.744 35.9819L11.7642 35.7858L11.7864 35.59L11.8105 35.3922L11.8356 35.1935L11.8613 34.994L11.89 34.7943L11.9196 34.5932L11.9509 34.3907L11.9841 34.1877L12.0193 33.9837L12.0552 33.7797L12.0939 33.5742L12.1337 33.3673L12.1754 33.159L12.2187 32.9506L12.264 32.7413L12.3102 32.5301L12.3591 32.3183L12.41 32.1062L12.4624 31.8925L12.5161 31.6779V31.6779ZM43.8849 46.3886L44.2358 46.5872L44.6284 46.7511L45.0653 46.8798L45.5475 46.9746L46.0775 47.0359L46.2567 47.0465L46.4376 47.0509L46.6213 47.049L46.807 47.0403L46.9953 47.0261L47.1846 47.0055L47.3768 46.9799L47.57 46.9489L47.7648 46.9126L47.9613 46.871L48.16 46.8247L48.3594 46.7743L48.5607 46.7202L48.7631 46.6617L48.966 46.5985L49.1713 46.5322L49.3772 46.4629L49.5831 46.3901L49.79 46.3147L49.9988 46.2359L50.2073 46.1552L50.4161 46.0726L50.6256 45.9874L50.8364 45.8998L51.0459 45.8119L51.2564 45.7215L51.4672 45.6302L51.6786 45.5379L51.8891 45.4456L52.0995 45.3517L52.3093 45.2584L52.5198 45.1646L45.5768 41.3154L45.3673 41.4087L45.1568 41.5028L44.946 41.5957L44.7356 41.689L44.5251 41.7813L44.3143 41.8726L44.1039 41.9621L43.8934 42.0507L43.6836 42.1376L43.4731 42.2228L43.2643 42.3063L43.0558 42.387L42.8479 42.4649L42.6401 42.5412L42.4342 42.6138L42.2283 42.683L42.024 42.7496L41.82 42.8115L41.6178 42.8704L41.4174 42.9251L41.217 42.9758L41.0193 43.0218L40.8228 43.0628L40.627 43.0991L40.4338 43.13L40.2419 43.1566L40.0523 43.176L39.865 43.1914L39.6783 43.1992L39.4955 43.202L39.3137 43.1976L39.1345 43.187L38.6044 43.1247L38.1223 43.0308L37.6854 42.9013L37.2931 42.738L36.9419 42.5394L43.8849 46.3886Z" fill="#2C3E50"/>
<path fill-rule="evenodd" clip-rule="evenodd" d="M29.0395 21.8107C34.6203 17.7487 43.1122 17.8385 42.9809 25.4343C42.7222 40.48 40.1634 46.5578 46.0776 47.0358C48.3481 46.9062 50.5551 46.2651 52.5198 45.1645C37.7372 60.4042 19.4608 59.7845 18.5577 41.9317C18.6107 39.7714 18.913 37.6234 19.4592 35.527C20.9033 30.0279 24.2892 25.1803 29.0395 21.8107V21.8107Z" fill="#3D566E"/>
<path fill-rule="evenodd" clip-rule="evenodd" d="M34.7836 49.2997L33.2328 48.4424L32.5063 47.826L31.8775 47.0877L31.353 46.2273L30.9424 45.2637L30.6525 44.1937L30.4896 43.0298L30.4635 41.7783L30.5808 40.4487L30.8512 39.047L31.2813 37.5797L31.8807 36.056L32.6529 34.4854L33.6074 32.8679L34.7542 31.2191L36.103 29.5421L37.6538 27.8464L39.4196 26.1382L41.4102 24.4268L43.6289 22.7185L44.0003 22.4463L44.3717 22.1679L44.7398 21.88L45.1112 21.5891L45.4794 21.295L45.8475 20.9915L46.2124 20.6849L46.5773 20.372L46.9422 20.0529L47.3038 19.7307L47.6655 19.4053L48.0238 19.0705L48.3822 18.7357L48.7341 18.3916L49.0859 18.0474L49.4378 17.697L49.7831 17.3435L50.1285 16.9837L50.4673 16.6208L50.8061 16.2547L51.1384 15.8855L51.4675 15.5132L51.7965 15.1346L52.1191 14.7561L52.4384 14.3713L52.7544 13.9864L53.0606 13.5953L53.3669 13.2043L53.6699 12.8069L53.9663 12.4096L54.2563 12.0091L54.5397 11.6086L56.0905 12.4659L55.8038 12.8695L55.5139 13.27L55.2174 13.6673L54.9177 14.0615L54.6114 14.4557L54.3019 14.8437L53.9859 15.2316L53.6666 15.6133L53.3441 15.995L53.0183 16.3705L52.686 16.7459L52.3537 17.1151L52.0148 17.4811L51.676 17.8441L51.3307 18.2007L50.9853 18.5574L50.6367 18.9047L50.2849 19.252L49.9297 19.593L49.5746 19.9309L49.213 20.2625L48.8546 20.591L48.4897 20.9133L48.1281 21.2293L47.76 21.5421L47.3951 21.8488L47.0269 22.1522L46.6588 22.4495L46.2906 22.7404L45.9192 23.0251L45.5478 23.3036L45.1797 23.5789L42.9577 25.2872L40.9704 26.9985L39.2013 28.7068L37.6506 30.4025L36.305 32.0795L35.1582 33.7283L34.2004 35.3427L33.4283 36.9164L32.8288 38.4401L32.3987 39.9043L32.1283 41.309L32.0111 42.6387L32.0371 43.8871L32.2 45.0509L32.49 46.1209L32.9005 47.0877L33.425 47.9449L34.057 48.6864L34.7836 49.2997Z" fill="#2C3E50"/>
<path fill-rule="evenodd" clip-rule="evenodd" d="M45.178 23.5776C49.4098 20.4569 53.0939 16.7054 56.0902 12.4658C58.5523 19.3098 55.9019 33.569 49.5388 42.5448C35.9141 61.7642 20.2515 41.7617 45.178 23.5776Z" fill="#45729E"/>
<path fill-rule="evenodd" clip-rule="evenodd" d="M26.7048 29.2072C26.1958 29.5874 25.788 30.0782 25.5149 30.6392C25.2419 31.2003 25.1114 31.8155 25.1342 32.4344C25.2837 33.4785 26.2295 33.7241 27.246 32.9835C27.7551 32.6034 28.163 32.1126 28.4359 31.5515C28.7089 30.9905 28.8391 30.3752 28.816 29.7563C28.6664 28.7132 27.7207 28.4676 26.7048 29.2072Z" fill="#E6EAEB"/>
<path fill-rule="evenodd" clip-rule="evenodd" d="M11.0755 40.7019L8.60272 39.3315L12.3722 36.7942L14.8449 38.1645L11.0755 40.7019Z" fill="#D9B629"/>
<path fill-rule="evenodd" clip-rule="evenodd" d="M10.4728 37.1886L8 35.8182L8.29647 35.7244L8.58317 35.6305L8.86336 35.5398L9.14028 35.4459L9.40743 35.3521L9.67133 35.2582L9.93196 35.1675L10.1828 35.0736L10.4304 34.9798L10.6683 34.889L10.9061 34.7952L11.1341 34.7044L11.3622 34.6106L11.5805 34.5198L11.7955 34.4291L12.004 34.3384L12.2093 34.2445L12.4113 34.1538L12.6035 34.0631L12.7957 33.9755L12.9814 33.8847L13.1638 33.794L13.3398 33.7064L13.5124 33.6157L13.6819 33.5281L13.8448 33.4405L14.0076 33.3497L14.164 33.2653L14.3172 33.1745L14.4638 33.09L14.6104 33.0024L14.7537 32.918L17.2232 34.2883L17.0831 34.3728L16.9365 34.4604L16.7899 34.548L16.6368 34.6325L16.4804 34.7232L16.3175 34.8108L16.1546 34.8984L15.9852 34.986L15.8125 35.0767L15.6366 35.1643L15.4542 35.2551L15.2685 35.3458L15.0763 35.4365L14.8808 35.5273L14.682 35.618L14.4768 35.7087L14.2683 35.7995L14.0533 35.8902L13.8317 35.9841L13.6069 36.0748L13.3789 36.1655L13.141 36.2594L12.8999 36.3532L12.6556 36.444L12.4015 36.5378L12.1441 36.6317L11.8802 36.7224L11.6098 36.8163L11.3361 36.9101L11.056 37.004L10.766 37.0947L10.4728 37.1886Z" fill="#D9B629"/>
<path fill-rule="evenodd" clip-rule="evenodd" d="M16.3218 40.693C14.5804 40.9038 12.8187 40.9072 11.0765 40.703L14.8443 38.1647L10.4725 37.1901C12.8411 36.4992 15.1096 35.5243 17.2242 34.2883C16.6782 36.3847 16.3756 38.5326 16.3218 40.693Z" fill="#FFCB05"/>
</g>
<defs>
<clipPath id="clip0_645_90072">
<rect width="49" height="49" fill="white" transform="translate(8 7)"/>
</clipPath>
</defs>
</svg>
