<svg width="130" height="130" viewBox="0 0 130 130" fill="none" xmlns="http://www.w3.org/2000/svg">
<path d="M71.24 84.5003L59.15 85.6703C51.22 86.4503 44.07 80.6003 43.29 72.5403L42.12 60.4503C41.34 52.5203 47.19 45.3703 55.25 44.5903L67.34 43.4203C75.27 42.6403 82.42 48.4903 83.2 56.5503L84.37 68.6403C85.15 76.5703 79.3 83.7203 71.24 84.5003Z" fill="#F04923"/>
<path d="M71.8901 71.1098C72.2801 75.5298 69.1601 79.2998 64.7401 79.8198C60.3201 80.2098 56.5501 77.0898 56.0301 72.6698C55.6401 68.2498 71.3701 66.6898 71.8901 71.1098Z" fill="black"/>
<path d="M53.2999 63.3097C54.2332 63.3097 54.9899 62.5531 54.9899 61.6197C54.9899 60.6863 54.2332 59.9297 53.2999 59.9297C52.3665 59.9297 51.6099 60.6863 51.6099 61.6197C51.6099 62.5531 52.3665 63.3097 53.2999 63.3097Z" fill="black"/>
<path d="M72.5401 61.4903C73.4735 61.4903 74.2301 60.7337 74.2301 59.8004C74.2301 58.867 73.4735 58.1104 72.5401 58.1104C71.6067 58.1104 70.8501 58.867 70.8501 59.8004C70.8501 60.7337 71.6067 61.4903 72.5401 61.4903Z" fill="black"/>
<path d="M18.1999 58.7602C27.6053 58.7602 35.2299 51.1356 35.2299 41.7302C35.2299 32.3248 27.6053 24.7002 18.1999 24.7002C8.79451 24.7002 1.16992 32.3248 1.16992 41.7302C1.16992 51.1356 8.79451 58.7602 18.1999 58.7602Z" fill="#80C342"/>
<path d="M11.4401 45.5004C12.1581 45.5004 12.7401 44.9184 12.7401 44.2004C12.7401 43.4824 12.1581 42.9004 11.4401 42.9004C10.7222 42.9004 10.1401 43.4824 10.1401 44.2004C10.1401 44.9184 10.7222 45.5004 11.4401 45.5004Z" fill="black"/>
<path d="M22.3547 53.3025C24.1109 52.6699 24.8442 50.2405 23.9926 47.8764C23.141 45.5123 21.0269 44.1086 19.2707 44.7412C17.5145 45.3739 16.7812 47.8032 17.6328 50.1674C18.4844 52.5315 20.5985 53.9351 22.3547 53.3025Z" fill="black"/>
<path d="M23.9201 40.9496C24.6381 40.9496 25.2201 40.3676 25.2201 39.6496C25.2201 38.9316 24.6381 38.3496 23.9201 38.3496C23.2021 38.3496 22.6201 38.9316 22.6201 39.6496C22.6201 40.3676 23.2021 40.9496 23.9201 40.9496Z" fill="black"/>
<path d="M111.67 117.52C121.076 117.52 128.7 109.895 128.7 100.49C128.7 91.0846 121.076 83.46 111.67 83.46C102.265 83.46 94.6401 91.0846 94.6401 100.49C94.6401 109.895 102.265 117.52 111.67 117.52Z" fill="#80C342"/>
<path d="M104.78 99.5805C105.498 99.5805 106.08 98.9984 106.08 98.2805C106.08 97.5625 105.498 96.9805 104.78 96.9805C104.062 96.9805 103.48 97.5625 103.48 98.2805C103.48 98.9984 104.062 99.5805 104.78 99.5805Z" fill="black"/>
<path d="M112.593 108.753C113.334 106.352 112.489 103.96 110.705 103.409C108.922 102.859 106.875 104.359 106.134 106.76C105.393 109.161 106.238 111.554 108.022 112.104C109.805 112.655 111.852 111.154 112.593 108.753Z" fill="black"/>
<path d="M117.52 103.61C118.238 103.61 118.82 103.028 118.82 102.31C118.82 101.592 118.238 101.01 117.52 101.01C116.802 101.01 116.22 101.592 116.22 102.31C116.22 103.028 116.802 103.61 117.52 103.61Z" fill="black"/>
<path d="M103.09 38.4799C112.495 38.4799 120.12 30.8553 120.12 21.4499C120.12 12.0445 112.495 4.41992 103.09 4.41992C93.6847 4.41992 86.0601 12.0445 86.0601 21.4499C86.0601 30.8553 93.6847 38.4799 103.09 38.4799Z" fill="#80C342"/>
<path d="M95.8103 21.9701C96.5282 21.9701 97.1103 21.3881 97.1103 20.6701C97.1103 19.9521 96.5282 19.3701 95.8103 19.3701C95.0923 19.3701 94.5103 19.9521 94.5103 20.6701C94.5103 21.3881 95.0923 21.9701 95.8103 21.9701Z" fill="black"/>
<path d="M107.38 29.6395C107.12 32.1095 104.65 33.9295 101.79 33.6695C98.93 33.4095 96.98 31.0695 97.24 28.5995C97.5 26.1295 107.64 27.0395 107.38 29.6395Z" fill="black"/>
<path d="M109.07 23.3998C109.788 23.3998 110.37 22.8178 110.37 22.0998C110.37 21.3818 109.788 20.7998 109.07 20.7998C108.352 20.7998 107.77 21.3818 107.77 22.0998C107.77 22.8178 108.352 23.3998 109.07 23.3998Z" fill="black"/>
<path d="M119.86 80.8598C119.99 80.3398 120.12 79.8198 120.25 79.2998" stroke="black" stroke-width="1.2377" stroke-miterlimit="10"/>
<path d="M120.64 76.0495C120.64 75.9195 120.64 75.7895 120.64 75.6595C120.64 64.7395 111.8 55.7695 100.75 55.7695C98.6695 55.7695 96.7195 56.0295 94.7695 56.6795" stroke="black" stroke-width="1.2377" stroke-miterlimit="10" stroke-dasharray="2.52 2.52"/>
<path d="M93.2098 57.1992C92.6898 57.4592 92.1698 57.5892 91.7798 57.8492" stroke="black" stroke-width="1.2377" stroke-miterlimit="10"/>
<path d="M83.8499 8.57969C83.3299 8.31969 82.8099 8.18969 82.4199 7.92969" stroke="black" stroke-width="1.2377" stroke-miterlimit="10"/>
<path d="M79.3 7.27953C78.26 7.14953 77.22 7.01953 76.18 7.01953C65.91 7.01953 57.46 15.3395 57.46 25.7395V29.5095" stroke="black" stroke-width="1.2377" stroke-miterlimit="10" stroke-dasharray="2.42 2.42"/>
<path d="M57.5898 30.9395V32.4995" stroke="black" stroke-width="1.2377" stroke-miterlimit="10"/>
<path d="M20.1499 66.5596C20.1499 67.0796 20.1499 67.5996 20.2799 68.1196" stroke="black" stroke-width="1.2377" stroke-miterlimit="10"/>
<path d="M21.1899 71.6299C23.1399 76.4399 27.8199 79.8199 33.4099 79.8199C34.8399 79.8199 36.1399 79.5599 37.3099 79.1699" stroke="black" stroke-width="1.2377" stroke-miterlimit="10" stroke-dasharray="2.73 2.73"/>
<path d="M38.8701 78.5193C39.3901 78.2593 39.7801 77.9993 40.3001 77.7393" stroke="black" stroke-width="1.2377" stroke-miterlimit="10"/>
<path d="M85.15 89.18C90.3194 89.18 94.51 84.9893 94.51 79.82C94.51 74.6506 90.3194 70.46 85.15 70.46C79.9807 70.46 75.79 74.6506 75.79 79.82C75.79 84.9893 79.9807 89.18 85.15 89.18Z" fill="url(#paint0_linear)"/>
<path d="M58.8898 93.7302H53.2998V90.8702C53.2998 90.0902 52.2598 89.5702 51.7398 90.0902L47.5798 93.6002H14.9498C11.5698 93.6002 8.83984 96.3302 8.83984 99.7102V105.56C8.83984 108.94 11.5698 111.67 14.9498 111.67H58.8898C62.2698 111.67 64.9998 108.94 64.9998 105.56V99.7102C64.9998 96.4602 62.2698 93.7302 58.8898 93.7302Z" fill="#D5D8D8"/>
<path d="M57.1998 107.77H16.5098C15.8598 107.77 15.3398 107.25 15.3398 106.6C15.3398 105.95 15.8598 105.43 16.5098 105.43H57.1998C57.8498 105.43 58.3698 105.95 58.3698 106.6C58.4998 107.25 57.8498 107.77 57.1998 107.77Z" fill="white"/>
<path d="M57.1998 102.18H16.5098C15.8598 102.18 15.3398 101.66 15.3398 101.01C15.3398 100.36 15.8598 99.8398 16.5098 99.8398H57.1998C57.8498 99.8398 58.3698 100.36 58.3698 101.01C58.4998 101.66 57.8498 102.18 57.1998 102.18Z" fill="white"/>
<defs>
<linearGradient id="paint0_linear" x1="85.1815" y1="70.3772" x2="85.1815" y2="89.1502" gradientUnits="userSpaceOnUse">
<stop stop-color="#FBDB76"/>
<stop offset="0.1591" stop-color="#FBD66D"/>
<stop offset="0.417" stop-color="#FBCA55"/>
<stop offset="0.74" stop-color="#FCB52E"/>
<stop offset="0.8235" stop-color="#FCAF23"/>
<stop offset="1" stop-color="#FCAF23"/>
</linearGradient>
</defs>
</svg>
