<svg width="64" height="64" viewBox="0 0 64 64" fill="none" xmlns="http://www.w3.org/2000/svg">
<g clip-path="url(#clip0_645_75152)">
<path fill-rule="evenodd" clip-rule="evenodd" d="M18.1254 61.8688L15.625 60.5469L15.4887 60.4588L15.3645 60.3486L15.2603 60.2201L15.1682 60.0695L15.096 59.9043L15.044 59.7134L15.0119 59.5077L14.9999 59.2838V19.5871L15.0119 19.3521L15.044 19.1097L15.096 18.8674L15.1682 18.6214L15.2603 18.3753L15.3645 18.133L15.4887 17.8943L15.625 17.663L15.7773 17.4353L15.9416 17.2187L16.1179 17.0131L16.3062 16.8185L16.4985 16.6385L16.7029 16.4733L16.9153 16.3264L17.1357 16.2016L21.7038 13.7818L24.4247 12.3424L38.077 5.12352L40.4492 3.86407L45.3659 1.26438L45.5823 1.16156L45.7987 1.08445L45.9991 1.02938L46.1954 1.00367L46.3838 1L46.5601 1.02203L46.7244 1.06242L46.8766 1.12852L49.3731 2.45039L49.2208 2.3843L49.0565 2.34391L48.8802 2.32188L48.6959 2.32555L48.4995 2.35125L48.2952 2.40633L48.0828 2.48344L47.8664 2.58625L42.9496 5.18594L40.5734 6.4454L26.9251 13.6643L24.2043 15.1037L19.6321 17.5235L19.4157 17.6483L19.2034 17.7952L18.999 17.9604L18.8026 18.1403L18.6143 18.3349L18.442 18.5406L18.2777 18.7572L18.1254 18.9849L17.9852 19.2162L17.865 19.4549L17.7568 19.6972L17.6686 19.9432L17.5965 20.1892L17.5404 20.4316L17.5083 20.6739L17.5003 20.9089V60.6056L17.5083 60.8296L17.5404 61.0353L17.5965 61.2262L17.6686 61.3914L17.7568 61.542L17.865 61.6705L17.9852 61.7806L18.1254 61.8688Z" fill="#34485C"/>
<path fill-rule="evenodd" clip-rule="evenodd" d="M47.8652 46.7976L19.6322 61.7348C18.4573 62.3561 17.4987 61.8482 17.4987 60.6053V20.9097C17.5398 20.2316 17.7543 19.5718 18.1249 18.9836C18.4955 18.3954 19.0118 17.8952 19.6322 17.5235L24.2039 15.1048L26.9243 13.6651L40.573 6.44475L42.948 5.18747L47.8652 2.58629C49.0422 1.96391 49.9999 2.47284 49.9999 3.71577V43.4106C49.959 44.0891 49.7445 44.7492 49.3736 45.3376C49.0028 45.9259 48.4861 46.4261 47.8652 46.7976Z" fill="#3D566E"/>
<path fill-rule="evenodd" clip-rule="evenodd" d="M21.4033 20.3252L20.9024 20.0608V57.8555L21.4033 58.1198V20.3252Z" fill="#9C9C9C"/>
<path fill-rule="evenodd" clip-rule="evenodd" d="M47.097 6.7319L46.5962 6.46753L45.7907 6.8898L44.9893 7.31573L44.1879 7.74167L43.3824 8.16761L42.581 8.58988L41.7796 9.01582L40.9741 9.44175L40.1727 9.86402L39.3673 10.29L38.5659 10.7159L37.7644 11.1382L36.959 11.5641L36.1576 11.99L35.3561 12.4123L34.5507 12.8382L33.7493 13.2642L32.9438 13.6864L32.1424 14.1124L31.341 14.5383L30.5356 14.9606L29.7341 15.3865L28.9327 15.8125L28.1273 16.2347L27.3258 16.6607L26.5244 17.0866L25.719 17.5125L24.9176 17.9348L24.1121 18.3608L23.3107 18.7867L22.5093 19.209L21.7078 19.6349L20.9024 20.0608L21.4033 20.3252L22.2087 19.8993L23.0102 19.4733L23.8116 19.0511L24.617 18.6251L25.4184 18.2029L26.2239 17.7769L27.0253 17.351L27.8267 16.925L28.6322 16.5028L29.4336 16.0768L30.235 15.6509L31.0405 15.2286L31.8419 14.8027L32.6433 14.3768L33.4487 13.9545L34.2502 13.5286L35.0516 13.1026L35.857 12.6804L36.6585 12.2544L37.4599 11.8285L38.2653 11.4062L39.0667 10.9803L39.8722 10.5543L40.6736 10.1321L41.475 9.70613L42.2805 9.28019L43.0819 8.85792L43.8833 8.43199L44.6888 8.00605L45.4902 7.58378L46.2916 7.15784L47.097 6.7319Z" fill="#BDBDBD"/>
<path fill-rule="evenodd" clip-rule="evenodd" d="M21.405 20.3244V58.1198L47.0962 44.5272V6.73218C38.533 11.2629 29.9692 15.7937 21.405 20.3244Z" fill="#E6EAEB"/>
<path fill-rule="evenodd" clip-rule="evenodd" d="M38.8263 11.7513L39.8281 12.2837V12.023V11.7733V11.5273V11.2849V11.0463V10.8113V10.5799V10.3449V10.1136V9.88229V9.64362V9.40862V9.16627V8.92026V8.6669V8.40986L38.8263 7.87744V8.13814V8.38783V8.63385V8.87619V9.11487V9.34987V9.58487V9.81619V10.0475V10.2825V10.5175V10.7562V10.9949V11.2446V11.4942V11.7513Z" fill="#5C6869"/>
<path fill-rule="evenodd" clip-rule="evenodd" d="M29.3895 16.7487L30.3913 17.2774L30.6838 17.1232L30.9804 16.9653L31.2729 16.8111L31.5694 16.6532L31.8659 16.4953L32.1585 16.3411L32.455 16.1832L32.7515 16.029L33.044 15.8711L33.3406 15.7169L33.6331 15.559L33.9296 15.4047L34.2261 15.2469L34.5187 15.0926L34.8152 14.9347L35.1077 14.7805L35.4042 14.6226L35.7008 14.4684L35.9933 14.3142L36.2898 14.1563L36.5823 13.9984L36.8789 13.8442L37.1754 13.6863L37.4679 13.5321L37.7644 13.3742L38.061 13.22L38.3535 13.0621L38.65 12.9079L38.9425 12.75L39.2391 12.5958L39.5356 12.4379L39.8281 12.2836L38.8263 11.7512L38.5298 11.9091L38.2373 12.067L37.9408 12.2212L37.6482 12.3791L37.3517 12.5333L37.0592 12.6912L36.7627 12.8454L36.4661 12.9997L36.1696 13.1576L35.8771 13.3118L35.5806 13.4697L35.288 13.6239L34.9915 13.7818L34.695 13.936L34.4025 14.0939L34.1059 14.2481L33.8134 14.406L33.5169 14.5639L33.2244 14.7181L32.9278 14.876L32.6313 15.0302L32.3348 15.1881L32.0422 15.3423L31.7457 15.5002L31.4532 15.6544L31.1567 15.8086L30.8642 15.9665L30.5676 16.1208L30.2711 16.2786L29.9786 16.4329L29.682 16.5908L29.3895 16.7487Z" fill="#728082"/>
<path fill-rule="evenodd" clip-rule="evenodd" d="M41.2237 12.8054V6.4126L28.996 12.8814V19.2741L41.2237 12.8054ZM30.3897 17.277V13.4028C33.5361 11.7382 36.6825 10.0738 39.8289 8.40973V12.2839C36.6825 13.948 33.5361 15.6123 30.3897 17.277Z" fill="#889596"/>
<path fill-rule="evenodd" clip-rule="evenodd" d="M28.9567 38.0897L43.166 30.5697V29.6003L28.9567 37.1204V38.0897Z" fill="#2C3E50"/>
<path fill-rule="evenodd" clip-rule="evenodd" d="M28.9567 32.8792L44.3241 24.746V23.7766L28.9567 31.9062V32.8792Z" fill="#2C3E50"/>
<path fill-rule="evenodd" clip-rule="evenodd" d="M28.9567 27.3421L41.0583 20.9384V19.969L28.9567 26.3728V27.3421Z" fill="#2C3E50"/>
<path fill-rule="evenodd" clip-rule="evenodd" d="M26.9892 13.0804L27.991 13.6091V18.7424L28.9968 19.2748V12.8821L41.2225 6.41225L40.2208 5.87983L39.219 5.35107L26.9892 11.8209V13.0804Z" fill="#728082"/>
<path fill-rule="evenodd" clip-rule="evenodd" d="M25.3827 27.5032C25.1161 27.6629 24.8941 27.8778 24.7347 28.1306C24.5753 28.3834 24.483 28.6669 24.4651 28.9584C24.4651 29.4922 24.8774 29.7089 25.3827 29.4412C25.6491 29.2818 25.8708 29.0673 26.0298 28.8149C26.1889 28.5625 26.2809 28.2793 26.2984 27.9882C26.2984 27.4562 25.8872 27.2365 25.3827 27.5032Z" fill="#E02828"/>
<path fill-rule="evenodd" clip-rule="evenodd" d="M25.3827 32.7138C25.116 32.8737 24.8941 33.0888 24.7347 33.3418C24.5753 33.5947 24.483 33.8784 24.4651 34.17C24.4651 34.7016 24.8774 34.9206 25.3827 34.6529C25.649 34.4934 25.8706 34.2788 26.0296 34.0264C26.1887 33.774 26.2807 33.4909 26.2984 33.1998C26.2984 32.666 25.8872 32.4476 25.3827 32.7138Z" fill="#FFCB05"/>
<path fill-rule="evenodd" clip-rule="evenodd" d="M25.3827 38.2502C25.1161 38.41 24.8941 38.6249 24.7347 38.8776C24.5753 39.1304 24.483 39.4139 24.4651 39.7054C24.4651 40.2393 24.8774 40.4555 25.3827 40.1882C25.6491 40.0289 25.8708 39.8143 26.0298 39.5619C26.1889 39.3095 26.2809 39.0263 26.2984 38.7353C26.2984 38.2032 25.8872 37.9836 25.3827 38.2502Z" fill="#6699FF"/>
<path fill-rule="evenodd" clip-rule="evenodd" d="M18.1254 61.8689L15.625 60.547L15.4887 60.4589L15.3645 60.3487L15.2603 60.2202L15.1682 60.0697L15.096 59.9044L15.044 59.7135L15.0119 59.5079L14.9999 59.2839V19.5872L15.0119 19.3522L15.044 19.1098L15.096 18.8675L15.1682 18.6215L15.2603 18.3755L15.3645 18.1331L15.4887 17.8944L15.625 17.6631L15.633 17.6521L18.1335 18.974L18.1254 18.9813L17.9852 19.2163L17.865 19.455L17.7568 19.6973L17.6686 19.9434L17.5925 20.1894L17.5404 20.4317L17.5083 20.6741L17.5003 20.9091V60.6058L17.5083 60.8297L17.5404 61.0354L17.5925 61.2263L17.6686 61.3915L17.7568 61.5421L17.865 61.6706L17.9852 61.7808L18.1254 61.8689Z" fill="#2C3E50"/>
<path fill-rule="evenodd" clip-rule="evenodd" d="M26.9892 13.0805L27.991 13.6093V18.7425L28.9968 19.275V12.8822L26.9892 11.821V13.0805Z" fill="#5C6869"/>
</g>
<defs>
<clipPath id="clip0_645_75152">
<rect width="35" height="61" fill="white" transform="translate(14.9999 1)"/>
</clipPath>
</defs>
</svg>
