<svg width="669" height="183" viewBox="0 0 669 183" fill="none" xmlns="http://www.w3.org/2000/svg">
<path d="M90.0553 182.086C107.868 182.086 125.281 176.831 140.091 166.986C154.901 157.14 166.444 143.147 173.259 126.775C180.074 110.403 181.855 92.3882 178.378 75.0091C174.9 57.6301 166.319 41.6674 153.721 29.14C141.123 16.6126 125.073 8.08316 107.602 4.63056C90.1304 1.17796 72.0221 2.95725 55.5673 9.7434C39.1125 16.5295 25.0503 28.0177 15.1593 42.7549C5.26829 57.492 -0.00721888 74.8162 7.41389e-06 92.5363C6.44009e-06 104.299 2.32962 115.947 6.85577 126.814C11.3819 137.681 18.0159 147.555 26.3788 155.87C34.7417 164.186 44.6696 170.782 55.5954 175.28C66.5212 179.778 78.2308 182.091 90.0553 182.086Z" fill="white"/>
<path d="M90.0552 178.888C107.232 178.888 124.023 173.821 138.305 164.327C152.587 154.833 163.717 141.339 170.289 125.551C176.86 109.764 178.578 92.392 175.224 75.6333C171.871 58.8747 163.596 43.4819 151.448 31.4017C139.299 19.3216 123.822 11.0968 106.975 7.76759C90.1268 4.4384 72.6649 6.15435 56.7975 12.6984C40.9302 19.2425 27.3701 30.3207 17.8323 44.532C8.29458 58.7432 3.20763 75.449 3.21485 92.5365C3.21485 103.879 5.46131 115.111 9.82589 125.59C14.1905 136.069 20.5877 145.59 28.652 153.609C36.7164 161.628 46.2899 167.988 56.8256 172.326C67.3614 176.663 78.6529 178.893 90.0552 178.888Z" fill="#164194"/>
<path d="M90.0551 173.328C106.12 173.299 121.816 168.533 135.159 159.633C148.503 150.732 158.894 138.096 165.02 123.322C171.146 108.549 172.732 92.2995 169.578 76.6291C166.423 60.9587 158.67 46.5703 147.297 35.2823C135.925 23.9944 121.444 16.3136 105.684 13.2107C89.9246 10.1078 73.5941 11.7221 58.7566 17.8496C43.9192 23.9771 31.2407 34.3426 22.3236 47.6363C13.4065 60.9299 8.65101 76.5549 8.65821 92.5364C8.65818 103.161 10.7649 113.682 14.8577 123.496C18.9505 133.31 24.9491 142.224 32.5098 149.729C40.0706 157.233 49.0452 163.181 58.9196 167.23C68.7941 171.279 79.3745 173.352 90.0551 173.328Z" fill="white"/>
<path d="M10.7041 92.5363C10.6993 82.1687 12.7485 71.9019 16.7346 62.3225C20.7206 52.7432 26.5654 44.0393 33.9348 36.7083C41.3041 29.3773 50.0536 23.563 59.6831 19.5977C69.3126 15.6324 79.6332 13.5939 90.0551 13.5986C100.477 13.5939 110.798 15.6324 120.427 19.5977C130.057 23.563 138.806 29.3773 146.175 36.7083C153.545 44.0393 159.39 52.7432 163.376 62.3225C167.362 71.9019 169.411 82.1687 169.406 92.5363C169.406 102.901 167.353 113.164 163.365 122.739C159.377 132.314 153.531 141.014 146.162 148.341C138.794 155.668 130.046 161.479 120.419 165.442C110.792 169.405 100.474 171.442 90.0551 171.438V170.493C100.348 170.503 110.542 168.492 120.052 164.576C129.563 160.659 138.203 154.914 145.477 147.669C152.759 140.433 158.535 131.838 162.472 122.377C166.409 112.917 168.43 102.776 168.42 92.5363C168.436 82.296 166.418 72.1534 162.48 62.6917C158.543 53.2301 152.764 44.6359 145.477 37.4035C138.209 30.1473 129.572 24.3921 120.06 20.4689C110.549 16.5457 100.352 14.532 90.0551 14.5436C79.7577 14.526 69.5587 16.537 60.0465 20.4605C50.5343 24.3841 41.8973 30.1425 34.6336 37.4035C27.3346 44.6293 21.546 53.2214 17.6019 62.684C13.6579 72.1467 11.6363 82.2925 11.654 92.5363C11.6424 102.779 13.6666 112.923 17.6104 122.385C21.5541 131.847 27.3394 140.44 34.6336 147.669C41.9039 154.919 50.543 160.667 60.0542 164.584C69.5654 168.501 79.7611 170.509 90.0551 170.493V171.438C79.6363 171.442 69.3186 169.405 59.6915 165.442C50.0645 161.479 41.3166 155.668 33.9477 148.341C26.5788 141.014 20.7333 132.314 16.7451 122.739C12.7568 113.164 10.7041 102.901 10.7041 92.5363Z" fill="#164194"/>
<path d="M90.0555 148.578C101.197 148.578 112.089 145.291 121.353 139.133C130.618 132.975 137.838 124.223 142.102 113.982C146.366 103.742 147.482 92.4741 145.308 81.6032C143.134 70.7322 137.769 60.7466 129.89 52.909C122.012 45.0715 111.974 39.7341 101.046 37.5717C90.118 35.4093 78.791 36.5192 68.4971 40.7608C58.2033 45.0024 49.405 52.1854 43.2148 61.4014C37.0247 70.6173 33.7207 81.4524 33.7207 92.5363C33.7207 107.399 39.656 121.654 50.2208 132.164C55.452 137.367 61.6623 141.495 68.4971 144.312C75.332 147.128 82.6575 148.578 90.0555 148.578Z" fill="white"/>
<path d="M88.5572 40.6018C87.3882 46.9255 79.7161 46.9255 75.4782 50.3055C73.2123 52.0957 71.6692 54.6369 71.1307 57.4651C67.112 55.4299 63.2029 52.4134 59.0381 50.7779C67.4897 44.2791 77.8751 40.7629 88.5572 40.7835" fill="#164194"/>
<path d="M120.086 49.833L109.93 56.4838C108.761 49.2152 100.724 47.1436 95.3166 44.8903C94.2206 43.7273 92.5765 42.2373 93.1976 40.6018C102.915 41.0262 112.302 44.2315 120.233 49.833" fill="#164194"/>
<path d="M93.7086 46.5619C98.8963 49.324 107.08 50.1962 108.322 57.7193C108.066 58.4825 107.116 58.8096 106.641 59.2094C106.167 49.4693 94.6584 51.3592 90.9685 43.9815C87.096 51.4319 74.7111 50.0145 74.8572 60.2997C74.017 59.8999 72.4095 58.955 73.2863 57.4649C75.4052 49.2513 85.2693 49.7964 90.0187 44.1269L90.7128 41.1467C91.0619 43.2387 92.1188 45.1492 93.7086 46.5619Z" fill="#164194"/>
<path d="M91.0057 49.7603C91.0057 49.9783 91.0057 50.3781 91.0057 50.5235C91.0057 50.6688 90.6036 50.2327 90.3477 50.1237C90.0918 50.0147 91.0057 48.9607 91.1519 49.7603" fill="#164194"/>
<path d="M93.0488 51.6134C93.0488 51.9405 93.0488 52.1949 92.7582 52.413H92.6855V51.25C93.0124 51.25 93.0851 51.4681 93.2304 51.6134" fill="#164194"/>
<path d="M89.0304 51.6136C89.0304 51.868 89.0304 52.2678 89.0304 52.4132H88.6309V51.4683C88.6309 51.4683 89.103 51.4683 89.1757 51.4683" fill="#164194"/>
<path d="M53.558 64.2614C48.5895 67.0962 47.2012 74.91 40.8809 74.2558C43.7369 66.4735 48.5401 59.5439 54.8367 54.1216C53.3711 57.2899 52.9246 60.8311 53.558 64.2614Z" fill="#164194"/>
<path d="M91.5532 60.118H89.2881L90.859 54.4485C90.8037 56.3623 91.0377 58.2734 91.5532 60.118Z" fill="#164194"/>
<path d="M138.499 73.129C133.055 72.7292 131.192 66.151 126.406 63.716C127.227 61.1597 127.488 58.4584 127.173 55.7932C132.255 60.6146 136.134 66.5512 138.499 73.129Z" fill="#164194"/>
<path d="M139.266 74.7645V75.0189C131.704 80.107 139.595 91.5551 131.411 96.2798C128.895 97.6181 126.021 98.1392 123.191 97.7698C123.666 95.9527 126.589 96.6795 128.16 95.7346C137.622 92.8998 132.873 81.6697 137.549 75.6367C132.873 74.4737 129.219 70.4396 125.566 67.4958L125.785 66.1511C130.133 69.204 133.384 75.346 139.193 74.7645" fill="#164194"/>
<path d="M55.0566 67.2416C51.4032 71.2393 47.7498 75.6369 42.7447 76.6545C43.2927 78.1446 44.6445 79.3075 45.1925 80.834C46.8365 87.194 47.0192 95.9528 55.2027 97.7699C56.3718 98.2424 57.9793 97.5155 58.8561 98.7149C56.9975 99.1408 55.0621 99.105 53.2207 98.6106C51.3793 98.1162 49.6886 97.1784 48.2978 95.8801C42.6351 90.3922 48.2978 79.889 39.9316 75.964C46.8 77.454 49.4669 69.2768 54.2894 66.2966L55.0931 67.2416H55.0566Z" fill="#164194"/>
<path d="M127.903 75.1643C127.903 75.4187 127.903 75.7821 127.903 75.9638H127.648V74.7645C127.704 74.7499 127.762 74.7501 127.817 74.765C127.872 74.7799 127.923 74.809 127.963 74.8495C128.004 74.8899 128.033 74.9403 128.048 74.9955C128.062 75.0508 128.063 75.109 128.048 75.1643" fill="#164194"/>
<path d="M54.1066 75.9637C54.1066 75.9637 54.1066 76.1818 54.1066 76.2545C54.1066 76.3272 53.5217 76.2545 53.3024 75.9637C53.0465 75.0915 54.4722 75.0915 54.2528 75.9637" fill="#164194"/>
<path d="M126.188 77.5992C126.188 77.5992 125.932 78.0717 125.639 77.999C125.527 77.9577 125.431 77.8833 125.363 77.7858C125.294 77.6884 125.258 77.5725 125.258 77.4538C125.258 77.3351 125.294 77.2193 125.363 77.1218C125.431 77.0244 125.527 76.95 125.639 76.9087C126.114 76.9087 126.041 77.3448 126.188 77.5992Z" fill="#164194"/>
<path d="M129.95 76.9087C129.95 77.1995 129.95 77.5992 129.95 77.8173C129.95 78.0354 129.548 77.5265 129.402 77.4539C129.256 77.3812 129.402 76.727 130.097 76.9087" fill="#164194"/>
<path d="M56.1526 77.8172C56.1526 77.8172 55.9333 78.2169 55.6043 78.1443L55.2021 77.8172L55.8236 77.054C56.0795 77.272 56.0795 77.5264 56.1526 77.8172Z" fill="#164194"/>
<path d="M127.173 129.279L123.52 132.587C122.497 124.918 131.484 120.048 129.329 111.726C128.487 109.534 127.17 107.555 125.471 105.928C123.772 104.301 121.734 103.067 119.501 102.313C119.501 96.8975 125.383 100.823 128.233 99.6596C130.048 99.3777 131.769 98.666 133.25 97.5845C134.732 96.503 135.93 95.0833 136.745 93.4449C139.741 88.3569 135.539 81.5243 139.96 76.9451C142.853 86.002 143.184 95.6767 140.915 104.908C138.647 114.14 133.867 122.572 127.1 129.279" fill="#164194"/>
<path d="M52.2042 77.8173C52.2042 78.1444 52.2042 78.3261 51.8047 78.5442V77.4539C52.0226 77.4539 52.2042 77.6719 52.3495 77.8173" fill="#164194"/>
<path d="M45.1921 94.9351C46.1232 96.5262 47.3886 97.8987 48.9018 98.9587C50.415 100.019 52.1404 100.741 53.9601 101.077C56.2798 101.128 58.6 101.007 60.9015 100.714L61.5226 102.204C59.3011 102.901 57.27 104.096 55.5853 105.696C53.9006 107.296 52.6072 109.26 51.8047 111.435C49.8318 119.612 57.2482 124.846 58.673 132.151L58.0884 134.004C50.1708 127.99 44.1383 119.857 40.6964 110.557C37.2546 101.257 36.5456 91.1742 38.6526 81.4881L39.712 78.1082C46.4708 80.9429 41.6483 89.9561 45.0094 95.0441" fill="#164194"/>
<path d="M129.22 87.0121C128.124 86.6123 127.868 87.957 127.466 88.5021C127.247 88.0297 127.247 87.4118 126.772 87.0121L125.566 87.2665L127.831 79.9978C127.998 82.3844 128.464 84.7409 129.22 87.0121Z" fill="#164194"/>
<path d="M55.8235 87.4119C54.8006 87.1938 54.3987 88.0297 54.1064 88.7566V89.12C53.8507 88.3568 53.2296 86.685 52.0605 87.5572C52.8675 85.1709 53.5503 82.7448 54.1064 80.2886C54.1469 82.713 54.7337 85.0976 55.8235 87.2665" fill="#164194"/>
<path d="M62.4724 105.147V105.838C59.294 107.328 55.6041 110.09 55.6041 113.943C55.1292 121.211 61.9975 125.064 61.2668 132.114C62.3628 132.986 63.3858 131.424 64.6645 131.569C68.8293 131.278 80.6662 132.514 83.4427 129.134C84.1369 129.134 84.6118 129.388 85.1598 129.716C84.5366 130.861 83.6352 131.834 82.5377 132.545C81.4403 133.256 80.1815 133.682 78.876 133.786C72.4096 134.404 64.9933 128.989 59.769 134.876C63.7146 125.718 50.1606 119.757 54.6542 110.017C55.3874 108.545 56.4128 107.235 57.6685 106.167C58.9243 105.098 60.3844 104.294 61.961 103.803L62.3628 105.002L62.4724 105.147Z" fill="#164194"/>
<path d="M127.356 112.816C128.306 120.92 118.844 125.282 121.438 133.386C113.474 128.843 103.171 139.746 96.3027 130.333C96.3027 129.679 96.9969 129.207 97.4718 128.989C98.8966 129.388 99.3715 130.697 100.614 131.496C106.788 135.894 113.327 130.152 119.94 131.823C120.342 131.024 119.94 129.461 120.342 128.443C122.863 122.701 129.11 115.432 123.191 109.218C121.639 107.889 119.839 106.876 117.894 106.238C117.346 105.365 118.223 104.748 118.442 103.948C122.095 105.293 126.954 108.527 127.356 112.816Z" fill="#164194"/>
<path d="M112.378 114.306C111.902 114.561 111.902 114.015 111.683 113.761C111.464 113.507 111.902 112.998 112.378 113.216V114.306Z" fill="#164194"/>
<path d="M70.1812 113.761C70.1812 114.015 70.1812 114.415 70.1812 114.56C70.1812 114.706 69.7791 114.233 69.5597 114.161C69.1576 113.47 70.3274 113.07 70.3274 113.761" fill="#164194"/>
<path d="M114.602 116.051C114.384 116.051 114.312 116.051 114.203 116.051C114.094 116.051 113.767 114.96 114.203 114.96C114.639 114.96 114.203 115.578 114.421 115.905" fill="#164194"/>
<path d="M72.2247 115.796C72.2689 115.853 72.2929 115.924 72.2929 115.996C72.2929 116.068 72.2689 116.139 72.2247 116.196H71.8252V115.251C72.37 115.033 72.2247 115.651 72.37 115.796" fill="#164194"/>
<path d="M68.2812 115.796C68.2812 116.123 68.2812 116.45 68.2812 116.595C68.2812 116.741 67.8791 116.377 67.6597 116.196C67.4404 116.014 68.4274 115.033 68.4274 115.796" fill="#164194"/>
<path d="M110.475 116.45H109.93V115.505H110.475V116.45Z" fill="#164194"/>
<path d="M71.5328 125.463C70.7291 124.918 69.8888 126.226 69.7792 126.808C69.7586 126.592 69.692 126.384 69.584 126.196C69.476 126.007 69.329 125.844 69.1528 125.717C68.9765 125.59 68.7751 125.502 68.5619 125.458C68.3486 125.414 68.1285 125.416 67.916 125.463C68.934 123.242 69.6467 120.895 70.035 118.485C70.3084 120.854 70.81 123.19 71.5328 125.463Z" fill="#164194"/>
<path d="M113.875 125.609C113.875 125.282 113.4 125.609 113.181 125.609L112.231 127.099C112.145 126.525 111.861 125.998 111.427 125.609H110.478L112.377 118.34C112.752 120.787 113.252 123.213 113.875 125.609Z" fill="#164194"/>
<path d="M105.034 136.366C110.259 136.657 114.898 133.023 119.94 135.349C112.337 140.526 103.517 143.658 94.3368 144.441C85.1568 145.225 75.9293 143.632 67.5509 139.819L61.4863 136.185C62.1578 135.461 62.9793 134.891 63.894 134.515C64.8086 134.138 65.7946 133.964 66.7837 134.004C73.2502 135.022 82.7124 138.329 87.206 131.206C88.3349 131.647 89.5464 131.839 90.7572 131.77C91.9681 131.701 93.1495 131.372 94.2204 130.806C95.4159 132.584 97.0536 134.024 98.9742 134.985C100.895 135.947 103.033 136.398 105.181 136.294" fill="#164194"/>
<path d="M135.321 106.092C131.939 106.41 128.561 105.45 125.858 103.403C125.858 102.385 126.735 101.986 127.502 101.913C130.522 102.345 133.292 103.825 135.321 106.092Z" fill="white"/>
<path d="M53.7047 103.803C53.7047 105.765 51.5858 105.983 50.3071 106.637C48.6419 107.087 46.9155 107.271 45.1924 107.183C46.1602 105.963 47.3921 104.977 48.7965 104.298C50.2008 103.618 51.7412 103.262 53.3028 103.258L53.7047 103.803Z" fill="white"/>
<path d="M92.6856 133.386C92.6568 135.75 92.1988 138.089 91.3338 140.291C90.7128 137.929 88.5938 134.258 91.0416 132.042C91.4259 132.055 91.795 132.194 92.0921 132.437C92.3892 132.68 92.5977 133.014 92.6856 133.386Z" fill="white"/>
<path d="M26.9249 110.708C27.0702 111.349 27.3436 111.955 27.7287 112.489L25.5367 111.762C25.2496 111.684 24.9908 111.526 24.7903 111.308C24.5898 111.089 24.4559 110.818 24.4041 110.526L23.2716 105.257L20.0201 106.02C19.5367 106.068 19.0793 106.26 18.7077 106.572C18.3361 106.883 18.0677 107.299 17.9377 107.764L16.5859 102.058C17.1339 102.785 17.9742 102.931 19.2164 102.64L28.2767 100.532C29.5188 100.241 30.1764 99.7323 30.3591 98.8601L33.2818 111.98C33.0802 111.914 32.8623 111.914 32.6607 111.98C32.405 111.98 31.5282 112.634 29.8842 113.506C30.3968 111.787 30.3968 109.956 29.8842 108.237L28.8978 104.057L25.4636 104.711L26.9249 110.708Z" fill="#164194"/>
<path d="M32.698 126.299C33.2738 126.088 33.7955 125.752 34.2257 125.316C34.6559 124.881 34.984 124.356 35.1865 123.779C35.3889 123.203 35.4608 122.589 35.3969 121.982C35.3331 121.374 35.135 120.789 34.817 120.266C34.5588 119.65 34.1661 119.098 33.6672 118.651C33.1683 118.204 32.5757 117.872 31.9324 117.681C31.289 117.49 30.6109 117.443 29.9472 117.545C29.2835 117.646 28.6508 117.893 28.0948 118.267C27.5262 118.482 27.0125 118.82 26.5902 119.255C26.168 119.691 25.8476 120.214 25.6522 120.786C25.4567 121.359 25.3909 121.968 25.4595 122.569C25.5281 123.171 25.7293 123.749 26.0489 124.264C26.3002 124.877 26.6853 125.427 27.1764 125.874C27.6675 126.322 28.2523 126.655 28.8886 126.849C29.5249 127.044 30.1967 127.096 30.8555 127.001C31.5143 126.905 32.1436 126.666 32.698 126.299ZM23.8204 125.609C23.2279 124.756 22.8258 123.786 22.6411 122.766C22.4563 121.745 22.4932 120.697 22.7493 119.692C23.0054 118.687 23.4747 117.748 24.1257 116.938C24.7767 116.128 25.5944 115.466 26.5238 114.997C27.4541 114.474 28.4881 114.162 29.553 114.08C30.6179 113.998 31.6878 114.15 32.6874 114.524C33.6871 114.899 34.5921 115.486 35.3387 116.246C36.0854 117.006 36.6555 117.919 37.009 118.922C37.6185 119.782 38.0326 120.765 38.2229 121.801C38.4131 122.836 38.3749 123.901 38.1109 124.92C37.8468 125.94 37.3632 126.89 36.6936 127.706C36.0239 128.521 35.1842 129.182 34.2324 129.643C33.2995 130.143 32.2683 130.435 31.2105 130.499C30.1526 130.564 29.0934 130.398 28.1063 130.014C27.1192 129.63 26.2279 129.038 25.4941 128.277C24.7603 127.516 24.2017 126.606 23.8569 125.609H23.8204Z" fill="#164194"/>
<path d="M43.7671 140.11C44.2627 139.758 44.6737 139.301 44.9709 138.772C45.268 138.243 45.4438 137.655 45.4857 137.051C45.5276 136.446 45.4346 135.84 45.2132 135.276C44.9919 134.711 44.6478 134.203 44.2055 133.786C43.802 133.253 43.2827 132.817 42.6862 132.511C42.0897 132.205 41.4315 132.037 40.7606 132.019C40.0898 132.002 39.4237 132.135 38.8119 132.41C38.2001 132.684 37.6586 133.093 37.2276 133.604C36.7289 133.955 36.3155 134.413 36.0178 134.943C35.72 135.474 35.5455 136.064 35.5069 136.671C35.4684 137.277 35.5668 137.884 35.795 138.448C36.0232 139.012 36.3754 139.517 36.8257 139.928C37.2308 140.452 37.7476 140.879 38.3387 141.18C38.9299 141.481 39.5808 141.648 40.2446 141.669C40.9084 141.69 41.5686 141.564 42.1777 141.301C42.7867 141.037 43.3296 140.643 43.7671 140.146V140.11ZM34.999 141.782C31.3457 137.856 31.5284 133.786 34.8164 130.879C35.5767 130.127 36.4938 129.552 37.5027 129.193C38.5115 128.833 39.5875 128.699 40.6542 128.8C41.721 128.901 42.7524 129.233 43.6755 129.775C44.5986 130.316 45.3907 131.053 45.9956 131.932C46.7731 132.615 47.3958 133.453 47.8223 134.393C48.2488 135.333 48.4694 136.353 48.4694 137.384C48.4694 138.415 48.2488 139.435 47.8223 140.375C47.3958 141.314 46.7731 142.153 45.9956 142.835C45.2301 143.542 44.321 144.078 43.3298 144.406C42.3386 144.734 41.2882 144.846 40.2495 144.736C39.2108 144.626 38.2079 144.295 37.3085 143.767C36.4091 143.238 35.634 142.524 35.0356 141.672L34.999 141.782Z" fill="#164194"/>
<path d="M48.6263 151.085L49.0282 150.431L54.1794 142.799L53.5949 142.399C52.1585 141.308 50.4299 140.663 48.6263 140.546C50.0146 139.347 50.8914 138.765 51.0375 138.511C51.0996 138.309 51.0996 138.094 51.0375 137.893L62.6187 145.598C62.4117 145.657 62.2313 145.786 62.1072 145.961C62.1072 146.179 61.7419 147.197 61.1573 148.978C60.3444 147.356 59.0751 146.005 57.504 145.089L57.0656 144.689L51.9143 152.321C51.6099 152.708 51.4211 153.172 51.3694 153.66C51.3177 154.149 51.4053 154.642 51.6221 155.083L46.7266 151.958C47.0827 152.008 47.4459 151.964 47.7794 151.83C48.1129 151.696 48.405 151.477 48.6263 151.194V151.085Z" fill="#164194"/>
<path d="M69.0853 153.956C70.912 154.574 71.935 154.393 72.3368 153.23C72.7387 152.067 72.008 151.449 70.4371 150.904L66.7837 149.704L65.7242 152.83L69.0488 153.956H69.0853ZM68.0989 159.989C69.9621 160.607 71.1312 160.317 71.5331 159.117C71.935 157.918 71.1312 157.118 69.2315 156.501L64.9936 155.047L63.8245 158.681L68.0989 160.135V159.989ZM60.573 157.336L63.4592 148.687C63.861 147.487 63.8245 146.615 63.1304 145.961L70.4371 148.505C74.6384 149.922 76.6478 151.34 75.771 153.956C75.5344 154.623 75.0754 155.188 74.4704 155.559C73.8654 155.929 73.151 156.082 72.4464 155.992C74.7115 157.082 75.4422 158.463 74.8211 160.317C73.8347 163.151 71.1678 163.587 66.6011 162.025L58.6367 159.226C59.5866 159.226 60.1346 158.536 60.573 157.3V157.336Z" fill="#164194"/>
<path d="M86.7305 160.28L84.2828 153.484L80.8486 159.771L86.7305 160.28ZM92.6855 165.986H87.4247C87.7336 165.689 87.9166 165.286 87.9361 164.859C87.9808 164.57 87.9808 164.276 87.9361 163.987L87.5708 162.861L79.4603 162.134L79.095 162.788C78.9519 163.072 78.8651 163.38 78.8393 163.696C78.806 164.241 78.9897 164.776 79.3507 165.187L73.9072 163.987C74.6291 163.505 75.2496 162.888 75.7339 162.17L81.7254 152.357C81.862 152.172 81.9612 151.962 82.0177 151.74C82.0494 151.571 82.0494 151.399 82.0177 151.231L87.8631 151.74C87.7632 151.896 87.6892 152.068 87.6439 152.248C87.5951 152.464 87.5951 152.687 87.6439 152.903L91.2972 163.806C91.6352 164.675 92.1305 165.476 92.7586 166.168L92.6855 165.986Z" fill="#164194"/>
<path d="M91.8822 151.958L97.7276 151.158C97.3281 151.435 97.0254 151.829 96.8616 152.285C96.6979 152.741 96.6813 153.236 96.8143 153.702L98.0929 162.861L102.075 162.316C104.035 162.166 105.882 161.344 107.299 159.99C106.939 161.184 106.646 162.397 106.423 163.624C106.489 163.847 106.615 164.049 106.788 164.205L93.8185 166.023C94.5857 165.55 94.8049 164.714 94.6588 163.479L93.3436 154.32C93.3436 153.084 92.7225 152.358 91.8457 152.103L91.8822 151.958Z" fill="#164194"/>
<path d="M103.938 150.54L109.492 148.578C109.16 148.934 108.947 149.384 108.882 149.865C108.817 150.346 108.902 150.836 109.126 151.267L112.268 159.953L115.922 158.608C117.835 158.05 119.482 156.824 120.561 155.156C120.491 156.366 120.491 157.58 120.561 158.79C120.561 158.972 120.817 159.081 121.036 159.263L108.688 163.66C109.014 163.307 109.219 162.859 109.271 162.381C109.324 161.904 109.222 161.423 108.98 161.007L105.875 152.285C105.436 151.085 104.852 150.504 103.938 150.431V150.54Z" fill="#164194"/>
<path d="M137.695 148.687C136.819 149.305 135.723 150.686 134.042 151.958C133.304 152.662 132.418 153.194 131.449 153.518C130.479 153.842 129.45 153.949 128.434 153.831C127.418 153.713 126.441 153.373 125.573 152.835C124.704 152.298 123.966 151.576 123.411 150.722C122.764 149.85 122.315 148.85 122.093 147.79C121.87 146.729 121.881 145.634 122.124 144.578C122.367 143.522 122.836 142.53 123.499 141.671C124.163 140.813 125.005 140.106 125.968 139.601C127.941 138.184 129.622 137.675 130.389 137.13C130.61 136.978 130.807 136.794 130.973 136.584L131.96 140.219C130.391 140.227 128.867 140.736 127.612 141.673C127.062 142 126.585 142.438 126.213 142.958C125.841 143.479 125.582 144.07 125.451 144.695C125.321 145.32 125.322 145.965 125.455 146.59C125.588 147.214 125.85 147.805 126.224 148.323C126.534 148.897 126.972 149.392 127.505 149.77C128.038 150.149 128.651 150.4 129.297 150.506C129.943 150.611 130.605 150.567 131.231 150.378C131.857 150.189 132.432 149.859 132.91 149.414C134.444 148.254 135.693 146.763 136.563 145.052L138.755 148.142C138.42 148.244 138.1 148.39 137.805 148.578L137.695 148.687Z" fill="#164194"/>
<path d="M130.754 136.475L134.663 132.042C134.543 132.515 134.573 133.014 134.75 133.469C134.926 133.925 135.24 134.315 135.649 134.586L142.627 140.655L145.257 137.675C146.611 136.24 147.401 134.37 147.486 132.405C148.007 133.54 148.592 134.644 149.24 135.712C149.24 135.712 149.605 135.712 149.897 135.712L141.239 145.561C141.494 144.689 141.239 143.889 140.179 143.054L133.201 136.984C132.251 136.148 131.448 135.894 130.607 136.294L130.754 136.475Z" fill="#164194"/>
<path d="M155.268 127.898C153.003 131.969 150.263 133.059 146.975 131.242L141.422 128.189C140.253 127.571 139.376 127.499 138.646 128.189L141.495 123.101C141.495 124.046 141.934 124.664 143.066 125.318L148.546 128.335C148.947 128.576 149.399 128.721 149.866 128.757C150.333 128.793 150.802 128.72 151.235 128.544C151.669 128.367 152.054 128.092 152.361 127.74C152.668 127.388 152.888 126.969 153.003 126.517C153.29 126.169 153.493 125.759 153.596 125.321C153.699 124.882 153.699 124.426 153.597 123.987C153.494 123.548 153.292 123.138 153.005 122.789C152.719 122.44 152.356 122.162 151.944 121.974L146.464 119.249C145.404 118.667 144.637 118.449 143.724 119.249L146.573 114.124C146.573 114.997 147.012 115.76 148.144 116.378L153.734 119.43C157.022 121.248 157.387 124.119 155.268 128.225V127.898Z" fill="#164194"/>
<path d="M160.237 107.183C160.675 105.257 160.237 104.166 159.031 103.876C157.826 103.585 157.059 104.457 156.62 106.42L155.634 110.744L159.287 111.58L160.31 107.183H160.237ZM154.136 106.819C154.538 104.966 154.136 103.948 153.04 103.694C151.944 103.439 151.286 104.166 150.921 105.802L150.081 109.436L153.332 110.199L154.136 106.783V106.819ZM158.447 114.924L149.496 112.852C148.254 112.562 147.377 112.852 146.829 113.47L148.583 105.838C149.569 101.513 150.811 99.369 153.515 99.9868C154.2 100.152 154.809 100.544 155.24 101.099C155.672 101.654 155.901 102.338 155.889 103.04C156.73 100.714 158.045 99.8414 159.981 100.278C162.904 100.968 163.635 103.548 162.539 108.237L160.602 116.596C160.42 115.687 159.725 115.215 158.447 114.924Z" fill="#164194"/>
<path d="M17.207 82.9053L18.4857 77.163C18.6063 77.6337 18.8719 78.055 19.2454 78.3678C19.6188 78.6807 20.0814 78.8694 20.5681 78.9075L29.6285 80.9064L30.5783 77.0176C31.127 75.113 30.9715 73.0758 30.1399 71.2754C31.1266 72.0352 32.1641 72.7273 33.2453 73.347C33.4602 73.4076 33.6879 73.4076 33.9029 73.347L31.0898 86.1035C30.8706 85.1949 30.213 84.6861 28.9708 84.4317L19.9105 82.4328C19.4626 82.2467 18.967 82.2062 18.4945 82.3172C18.0221 82.4281 17.597 82.6849 17.2801 83.0506L17.207 82.9053Z" fill="#164194"/>
<path d="M32.3693 70.0763L24.1127 65.8605C23.7155 65.5869 23.244 65.4404 22.7609 65.4404C22.2779 65.4404 21.8063 65.5869 21.4092 65.8605L28.1679 52.7769C28.2515 52.9613 28.3923 53.1141 28.5698 53.213C29.5936 53.4716 30.6301 53.6779 31.6751 53.8308C30.1706 54.8261 28.98 56.2247 28.241 57.8649L25.6836 62.844L28.6063 64.3704L31.4559 58.8462C31.7513 58.2694 31.9253 57.6387 31.9674 56.9927L33.2095 58.9552C33.3607 59.2081 33.4405 59.4969 33.4405 59.7911C33.4405 60.0853 33.3607 60.3741 33.2095 60.627L30.6887 65.4607L33.8671 67.0598L36.5706 61.8263C37.5916 60.1225 37.9551 58.1075 37.5936 56.1568C38.3531 57.1363 39.1834 58.0595 40.0779 58.9189C40.3027 58.9964 40.5472 58.9964 40.772 58.9189L33.9037 72.2205C33.9037 71.312 33.4287 70.6578 32.2962 70.0763H32.3693Z" fill="#164194"/>
<path d="M35.5109 47.289L42.8176 52.9222C43.8406 53.7217 44.6808 53.9398 45.5211 53.5037L41.8678 58.0829C42.087 57.1743 41.8678 56.4475 40.6622 55.6479L33.3554 50.0147C32.3325 49.2152 31.4922 48.9971 30.6885 49.4332L34.3418 44.8176C34.0861 45.7262 34.3418 46.4894 35.5109 47.289Z" fill="#164194"/>
<path d="M54.5449 44.5994C53.7777 45.2899 52.8279 46.78 51.1838 48.2337C50.5363 49.024 49.7201 49.661 48.7943 50.0984C47.8686 50.5359 46.8565 50.7629 45.8317 50.7629C44.8068 50.7629 43.7948 50.5359 42.869 50.0984C41.9433 49.661 41.127 49.024 40.4795 48.2337C39.7417 47.44 39.1837 46.498 38.843 45.4714C38.5023 44.4448 38.387 43.3575 38.5047 42.2828C38.6224 41.208 38.9705 40.1709 39.5254 39.2414C40.0804 38.3119 40.8293 37.5117 41.7216 36.8946C43.0293 35.827 44.3953 34.8321 45.8134 33.9145C45.9975 33.7295 46.1571 33.5219 46.2883 33.2966L47.7497 36.7129C46.1857 36.9418 44.7243 37.6245 43.5483 38.6754C43.028 39.0802 42.5997 39.5901 42.2918 40.1714C41.9839 40.7528 41.8033 41.3925 41.7619 42.0483C41.7204 42.7041 41.8192 43.3612 42.0515 43.9763C42.2839 44.5914 42.6446 45.1506 43.1099 45.617C43.4866 46.148 43.9806 46.5859 44.554 46.8973C45.1274 47.2087 45.7649 47.3852 46.4175 47.4133C47.0702 47.4414 47.7206 47.3203 48.3188 47.0593C48.9171 46.7983 49.4473 46.4044 49.8686 45.9078C51.2239 44.5868 52.2498 42.9689 52.8644 41.1831L55.4583 43.9816C55.1168 44.0933 54.8047 44.2795 54.5449 44.5267V44.5994Z" fill="#164194"/>
<path d="M55.5678 40.9287L51.2203 32.7878C50.6358 31.6612 49.9417 31.1524 49.0283 31.2251L62.1439 24.3198C62.0681 24.5189 62.0681 24.7386 62.1439 24.9377C62.1439 25.1557 63.0937 25.8462 64.3724 27.1909C62.5892 27.1159 60.8196 27.5308 59.2577 28.3903L54.2892 31.0433L55.8236 33.9145L61.3401 31.0433C61.9175 30.7353 62.4269 30.3151 62.838 29.8077V32.0973C62.8259 32.3976 62.7308 32.6887 62.5632 32.9387C62.3957 33.1888 62.1621 33.388 61.8881 33.5147L57.0657 36.0587L58.7463 39.1842L64.0071 36.4222C65.7872 35.5845 67.2203 34.1589 68.0623 32.388C68.1332 33.6092 68.2919 34.8238 68.5373 36.0224C68.5373 36.0224 68.793 36.3131 69.0487 36.4585L55.787 43.4364C56.0722 43.0454 56.2258 42.5748 56.2258 42.0917C56.2258 41.6087 56.0722 41.138 55.787 40.747L55.5678 40.9287Z" fill="#164194"/>
<path d="M75.2225 32.7516C77.5241 32.1701 78.5105 31.2979 78.2183 30.0986C77.926 28.8992 76.2454 28.9719 73.4323 29.2627C69.9616 29.6261 67.9888 28.7902 67.4774 26.6823C66.9659 24.5744 68.7195 21.8123 72.6651 20.8674C75.1494 20.2495 77.1222 20.2495 78.1817 19.9951C78.3771 19.9406 78.5622 19.8546 78.7297 19.7407V23.3751C76.9052 22.841 74.9646 22.841 73.1401 23.3751C71.4595 23.7748 70.6923 24.5017 70.9115 25.3739C71.1307 26.2462 72.8113 26.1735 75.8436 26.0281C78.8759 25.8827 81.1775 26.5369 81.762 28.8992C82.4562 31.843 80.4103 34.169 75.8436 35.2593C73.7611 35.7681 72.1902 35.8408 71.3134 36.0225C71.0659 36.094 70.8316 36.2044 70.6192 36.3496L68.8291 32.7153C70.9297 33.2224 73.1219 33.2224 75.2225 32.7153V32.7516Z" fill="#164194"/>
<path d="M86.1101 31.5522C86.1101 31.5522 86.1101 31.1887 86.1101 30.7526L85.7082 21.5941H85.0141C83.206 21.5545 81.4265 22.0476 79.8994 23.0115C80.3013 21.1943 80.6666 20.213 80.6666 19.9223C80.6433 19.7177 80.5536 19.5263 80.4109 19.3771L94.3302 18.7957C94.2001 18.9632 94.1237 19.1658 94.111 19.3771C94.111 19.6316 94.5494 20.6128 95.1339 22.3573C93.518 21.5535 91.7089 21.2137 89.9096 21.376H89.0328L89.3981 30.5346C89.3783 31.0288 89.4978 31.5188 89.7432 31.949C89.9885 32.3793 90.3498 32.7328 90.7864 32.9696L84.9045 33.1876C85.2236 33.0259 85.4935 32.7823 85.6862 32.482C85.8789 32.1816 85.9874 31.8355 86.0005 31.4795L86.1101 31.5522Z" fill="#164194"/>
<path d="M94.9872 30.4982L96.6677 21.4124C96.9235 20.1767 96.6677 19.3408 95.9371 18.832L110.551 21.4851C110.399 21.624 110.286 21.7991 110.222 21.9939C110.222 22.2846 110.222 23.3023 110.514 25.1558C109.138 23.9926 107.448 23.2593 105.655 23.0479L99.9923 22.0302L99.3712 25.2648L105.509 26.3914C106.148 26.5227 106.806 26.5227 107.445 26.3914L105.911 28.1359C105.712 28.3541 105.458 28.5161 105.176 28.6055C104.894 28.6948 104.593 28.7084 104.303 28.6447L98.9328 27.6635L98.3118 31.2978L104.157 32.3517C106.074 32.8217 108.097 32.5894 109.856 31.6976C109.145 32.7227 108.498 33.7908 107.92 34.8958C107.86 35.0974 107.86 35.312 107.92 35.5136L93.3066 32.8242C94.1834 32.6425 94.6584 31.9156 94.8776 30.68L94.9872 30.4982Z" fill="#164194"/>
<path d="M119.977 32.0249C122.023 33.0061 123.082 33.0061 123.63 31.6251C124.178 30.244 123.63 29.4808 121.584 28.4996L118.26 27.0095L116.543 30.6438L119.94 32.2793L119.977 32.0249ZM114.277 38.0215L109.017 35.6592C109.93 35.6592 110.588 35.114 111.136 33.9511L115.191 25.7011C115.471 25.308 115.621 24.8382 115.621 24.3564C115.621 23.8747 115.471 23.4048 115.191 23.0117L122.68 26.646C123.988 27.2126 125.216 27.9456 126.334 28.8266C126.952 29.4067 127.36 30.1748 127.492 31.0102C127.624 31.8456 127.474 32.7011 127.064 33.4423C126.558 34.2978 125.755 34.94 124.807 35.2479C123.858 35.5558 122.829 35.5082 121.913 35.114C122.633 36.0191 123.054 37.1235 123.119 38.2759C123.119 39.8817 123.468 41.4685 124.142 42.9279L118.698 40.2748C118.853 40.2439 118.999 40.1789 119.125 40.0846C119.252 39.9902 119.355 39.869 119.429 39.7296C119.767 38.6901 119.767 37.571 119.429 36.5314C119.301 35.8822 119.018 35.2728 118.605 34.7543C118.192 34.2358 117.66 33.8233 117.054 33.5513L115.556 32.8244L114.314 35.4411C114.026 35.8377 113.871 36.3146 113.871 36.804C113.871 37.2934 114.026 37.7703 114.314 38.1669L114.277 38.0215Z" fill="#164194"/>
<path d="M136.197 53.8305C135.43 53.1036 133.896 52.2677 132.325 50.705C131.497 50.1075 130.813 49.3348 130.323 48.4425C129.832 47.5501 129.547 46.5606 129.487 45.5452C129.428 44.5298 129.596 43.514 129.979 42.5711C130.362 41.6281 130.951 40.7817 131.704 40.0927C132.46 39.3129 133.377 38.7042 134.391 38.3077C135.405 37.9112 136.493 37.7364 137.581 37.795C138.669 37.8536 139.732 38.1443 140.697 38.6473C141.662 39.1504 142.507 39.854 143.175 40.7106C144.892 42.3824 145.696 43.9815 146.354 44.5993C146.553 44.7823 146.774 44.941 147.011 45.0718L143.65 46.6709C143.355 45.1336 142.589 43.7247 141.458 42.6368C141.023 42.1426 140.486 41.7466 139.884 41.4754C139.283 41.2041 138.63 41.0638 137.969 41.0638C137.308 41.0638 136.655 41.2041 136.054 41.4754C135.452 41.7466 134.916 42.1426 134.48 42.6368C133.957 43.0336 133.534 43.545 133.242 44.1312C132.951 44.7175 132.799 45.3627 132.799 46.0167C132.799 46.6707 132.951 47.3159 133.242 47.9021C133.534 48.4884 133.957 48.9998 134.48 49.3966C135.878 50.67 137.554 51.6031 139.376 52.1224L136.709 54.8118C136.562 54.492 136.364 54.1975 136.124 53.9395L136.197 53.8305Z" fill="#164194"/>
<path d="M149.642 53.1403L142.116 58.3738C141.056 59.1006 140.618 59.8275 140.801 60.7361L137.439 55.9751C138.243 56.4476 139.047 56.2658 140.143 55.539L147.669 50.1965C148.728 49.4333 149.167 48.7428 148.984 47.7979L152.345 52.5952C151.541 52.1227 150.701 52.2681 149.642 53.0313V53.1403Z" fill="#164194"/>
<path d="M144.783 64.4429L145.477 64.1158L153.843 60.1544L153.514 59.5366C152.841 57.8799 151.699 56.4532 150.226 55.4298C152.016 55.0663 153.076 55.03 153.368 54.8846C153.537 54.7749 153.675 54.625 153.77 54.4485L159.762 66.9869C159.562 66.9116 159.341 66.9116 159.141 66.9869C158.885 66.9869 158.191 67.8955 156.766 69.0948C156.895 67.302 156.502 65.5101 155.633 63.9341L155.304 63.2799L146.975 67.2413C146.509 67.3986 146.101 67.6897 145.802 68.0779C145.503 68.4661 145.326 68.9338 145.294 69.4219L142.773 64.1522C143.044 64.3887 143.378 64.5421 143.735 64.5937C144.091 64.6453 144.455 64.5929 144.783 64.4429Z" fill="#164194"/>
<path d="M162.282 81.1245C162.647 81.1245 162.83 80.8338 163.013 80.434L164.182 85.9218C163.135 85.2725 162.035 84.7132 160.894 84.25L153.587 80.6157L151.431 81.0518C150.153 81.3062 149.422 81.8877 149.276 82.7599L148.07 77.0177C148.655 77.8173 149.459 77.9263 150.701 77.6719L152.82 77.2358L158.811 70.8757C159.657 70.1633 160.289 69.2327 160.638 68.1863L161.917 74.2193C161.809 74.0753 161.663 73.9647 161.495 73.9003C161.326 73.836 161.143 73.8205 160.967 73.8558C160.496 73.9808 160.083 74.2632 159.798 74.6554L156.144 78.5805L161.369 80.7974C161.743 80.9763 162.163 81.0396 162.574 80.9791L162.282 81.1245Z" fill="#164194"/>
<path d="M121.62 69.4584V69.2767V68.9496C121.658 66.7593 122.13 64.598 123.009 62.5895C123.49 61.751 123.773 60.8146 123.836 59.8512C123.899 58.8878 123.741 57.9226 123.374 57.029C123.363 56.8717 123.363 56.7138 123.374 56.5565C123.162 55.8171 122.881 55.0992 122.534 54.4123L122.168 53.7944H121.511C115.133 55.9305 109.513 59.8558 105.327 65.0972L103.317 66.6236C103.334 66.5153 103.334 66.4049 103.317 66.2965C103.216 65.9041 103.015 65.5443 102.733 65.2515C102.452 64.9587 102.099 64.7429 101.71 64.6247C97.9042 63.3708 93.9181 62.7447 89.9093 62.7712C85.5542 62.7198 81.2362 63.5739 77.2322 65.2789L76.3919 65.6787L76.6476 66.1512C71.4964 61.7536 61.815 53.8671 59.075 53.8671H58.5635L58.3443 54.1579C57.97 54.6896 57.6861 55.279 57.504 55.9023L57.2848 56.1568C56.3715 57.0653 56.1157 58.1193 57.2848 61.2812C58.2447 63.5989 58.8364 66.0511 59.0384 68.5498C59.3407 70.4827 59.9061 72.3656 60.719 74.1467C60.9382 75.0553 62.4726 81.4154 63.2033 83.0145C63.4728 83.499 63.5435 84.0684 63.4005 84.6036C63.2575 85.1388 62.9119 85.5982 62.436 85.8856H62.2168C61.484 86.2466 60.8354 86.7567 60.3131 87.3827C59.7908 88.0087 59.4063 88.7368 59.1846 89.5199C59.1365 90.2666 59.2596 91.0144 59.5443 91.7069C59.8291 92.3994 60.2682 93.0186 60.8286 93.5177C61.0723 93.9984 61.2799 94.4965 61.4496 95.0078C60.9747 95.771 61.4496 96.2071 61.9246 96.6796L62.1803 96.934C62.6164 97.345 63.0939 97.7103 63.6051 98.0243C64.113 98.3112 64.5597 98.6939 64.9203 99.1509C65.0913 99.3514 65.2384 99.571 65.3587 99.8051C65.6776 100.46 66.1867 101.004 66.8201 101.368V102.313C66.6976 103.519 66.9597 104.734 67.5695 105.784C68.1793 106.834 69.1058 107.667 70.2177 108.164L72.3732 109.109C73.6884 109.69 73.6884 109.69 74.1268 110.454C75.0844 112.303 76.4299 113.927 78.0724 115.215C79.2157 116.072 80.1623 117.163 80.849 118.413L82.2373 118.813C82.3232 118.726 82.397 118.628 82.4565 118.522C82.0045 119.51 81.7205 120.566 81.6162 121.647C81.6162 122.919 82.1277 125.827 86.7674 126.554L88.0096 127.426L89.544 128.734H89.7632H90.9688L92.0648 128.48H92.3571L92.5397 128.262L93.2339 127.39L93.8184 126.663C95.065 126.553 96.2492 126.072 97.216 125.282C98.1837 124.264 98.8642 123.01 99.1889 121.647C99.1889 121.393 99.1889 120.194 98.9331 119.503L98.4217 118.158C98.5789 118.4 98.7134 118.656 98.8235 118.922L99.335 120.448L100.321 119.212L102.586 116.45L104.779 114.379C105.368 113.781 105.839 113.078 106.167 112.307L106.423 111.762C107.99 110.337 109.733 109.116 111.61 108.128C112.675 107.594 113.546 106.744 114.103 105.696C114.659 104.647 114.873 103.452 114.716 102.276V101.913L114.606 101.477C114.866 100.89 115.074 100.282 115.227 99.6597C116.921 98.6789 118.46 97.4542 119.794 96.0254L120.123 95.6256V95.1531C120.123 95.1531 119.538 93.6631 121.182 91.7005C122.826 89.738 122.972 89.2655 122.68 88.6113C122.615 88.4523 122.51 88.3123 122.376 88.2043C122.242 88.0962 122.083 88.0237 121.913 87.9935C120.575 87.1514 119.42 86.0517 118.515 84.7589C118.53 84.5897 118.53 84.4194 118.515 84.2501C118.062 82.761 118.219 81.1538 118.954 79.7799C119.623 78.7533 119.966 77.5505 119.94 76.3273C119.916 76.1951 119.916 76.0597 119.94 75.9275C120.422 73.7414 121.02 71.5821 121.73 69.4584H121.62Z" fill="#FBBA00"/>
<path d="M95.0969 111.98L95.8641 114.342L96.2295 117.504L94.147 119.067L86.6211 118.849L83.735 116.305L85.0136 115.214L85.7443 111.98C76.3186 104.966 72.1903 104.239 72.1903 104.239C70.4083 103.479 68.526 102.977 66.6007 102.749C66.4782 103.955 66.7404 105.17 67.3502 106.22C67.9599 107.27 68.8864 108.103 69.9983 108.6L72.1538 109.545C73.469 110.126 73.469 110.126 73.9074 110.89C74.9789 112.603 76.3973 114.076 78.0723 115.214C79.2156 116.072 80.1621 117.163 80.8488 118.413L82.2371 118.812C82.323 118.726 82.3968 118.628 82.4563 118.522C82.0043 119.51 81.7203 120.566 81.616 121.647C81.616 122.919 82.1275 125.827 86.7673 126.554L88.0094 127.426L89.5438 128.734H89.763H90.9686L92.0646 128.48H92.3569L92.5396 128.262L93.2337 127.39L93.8182 126.663C95.0648 126.553 96.2491 126.072 97.2159 125.282C98.1835 124.264 98.864 123.01 99.1887 121.647C99.1887 121.393 99.1887 120.194 98.9329 119.503L98.4215 118.158C98.5787 118.4 98.7132 118.655 98.8233 118.922L99.3348 120.448L100.321 119.212L102.586 116.45L104.778 114.379C105.368 113.781 105.839 113.078 106.167 112.307L106.422 111.762C107.99 110.337 109.733 109.116 111.61 108.128C112.668 107.586 113.533 106.734 114.088 105.688C114.643 104.641 114.862 103.451 114.715 102.276L114.606 101.077V100.859L111.975 102.276C95.0238 108.636 95.0969 111.98 95.0969 111.98Z" fill="white"/>
<path d="M72.8477 93.0451C72.8477 93.0451 73.3591 92.3546 74.6378 93.4086C76.5606 95.2214 79.0784 96.2801 81.7253 96.3887C81.7253 96.3887 82.3464 97.2973 80.264 97.2246C79.3814 97.2158 78.5013 97.1307 77.6336 96.9702C76.1876 96.135 74.8913 95.0665 73.7975 93.8083C73.5528 93.4936 73.2235 93.2542 72.8477 93.1178V93.0451Z" fill="#164194"/>
<path d="M91.955 73.347L91.0416 72.5838C90.7646 71.8794 90.6764 71.1154 90.7859 70.3669C92.1264 69.0713 93.6532 67.9811 95.3161 67.1323C94.8229 68.0737 94.1533 68.9126 93.3433 69.6037C92.7426 69.9915 92.242 70.5143 91.8819 71.1301C91.7181 71.8601 91.7181 72.617 91.8819 73.347H91.955Z" fill="#164194"/>
<path d="M89.0323 73.0926C89.0323 73.0926 90.1648 71.2391 89.5803 70.694L85.3789 67.3867C85.3789 67.3867 85.3789 69.1675 86.3288 69.7854C87.2786 70.4032 87.9728 70.3669 88.0458 70.803V71.2391C87.9814 71.3691 87.9479 71.5121 87.9479 71.6571C87.9479 71.802 87.9814 71.945 88.0458 72.075C88.3746 72.5111 88.8861 73.0926 88.8861 73.0926H89.0323Z" fill="#164194"/>
<path d="M98.3845 83.7047C100.288 82.674 102.266 81.7871 104.303 81.0516C105.837 80.6882 104.303 80.3248 103.974 80.2157C103.512 80.1742 103.048 80.1742 102.586 80.2157L101.161 80.7972L100.467 81.1606L99.4074 81.9602L98.6037 82.2873L98.1288 82.5417C98.1288 82.5417 97.6904 84.1408 98.3845 83.8137V83.7047Z" fill="#164194"/>
<path d="M76.1357 80.5794C76.1357 79.998 76.7203 80.7975 77.1587 81.0519C77.5971 81.3063 79.8622 81.9605 79.8622 81.9605L80.5563 82.433L81.7254 83.3415L81.4697 83.923C81.1023 83.9257 80.7437 83.811 80.4467 83.596C80.0814 83.2325 78.9488 82.4693 78.8758 82.6874C78.8027 82.9054 78.1085 82.6874 77.524 82.3239C77.1699 82.1638 76.8593 81.922 76.6179 81.6187C76.3764 81.3153 76.2112 80.959 76.1357 80.5794Z" fill="#164194"/>
<path d="M71.5695 71.53C71.3793 71.1856 71.2321 70.8195 71.1311 70.4397V70.1126C70.9058 69.3417 70.759 68.5503 70.6927 67.7503C70.5279 66.4425 69.9073 65.2336 68.9391 64.334L68.7199 64.0796C68.6279 63.9085 68.4977 63.7605 68.3394 63.6471C68.1811 63.5338 67.9988 63.4579 67.8065 63.4254C67.5873 63.4254 67.1489 63.4254 66.0894 62.2988C64.7475 61.0461 63.3058 59.9036 61.7785 58.8825L59.8057 57.4651L60.5729 59.7184C60.8346 60.4812 61.0541 61.2577 61.2305 62.0443C61.2305 62.2988 61.2305 62.8076 61.2305 63.6435C61.3272 64.3182 61.3882 64.9976 61.4131 65.6787C61.4131 66.3692 61.8881 69.313 61.9977 70.0762V70.3306C62.3903 71.1424 62.8294 71.9312 63.3129 72.6929C63.5305 72.9424 63.6813 73.2424 63.7513 73.5652C63.4535 74.6096 63.5179 75.7234 63.934 76.7271C64.3724 78.1808 65.1761 78.4715 65.7606 78.4715C66.1693 78.4187 66.5625 78.2814 66.9148 78.0686C67.2671 77.8559 67.5708 77.5722 67.8065 77.2359L68.6468 76.2909L68.9025 76.0002C69.3409 75.5277 70.1812 74.6918 71.0215 73.965C71.2777 73.7882 71.4899 73.5555 71.6418 73.2846C71.7938 73.0138 71.8815 72.7119 71.8983 72.4022C71.8885 71.948 71.7206 71.5113 71.4233 71.1665L71.5695 71.53Z" fill="white"/>
<path d="M106.605 91.8458C106.447 91.8959 106.313 92.0003 106.226 92.1402C106.139 92.2801 106.105 92.4464 106.13 92.6091C106.13 93.2996 103.353 95.5892 102.477 95.989C101.535 96.2942 100.535 96.3812 99.554 96.2434C98.6041 96.2434 98.2753 97.5154 98.2753 97.5154C98.0133 98.0049 97.7933 98.5155 97.6177 99.0418C97.3065 100.681 96.8792 102.296 96.339 103.875C95.9639 105.886 96.1535 107.961 96.887 109.872C97.2448 110.72 97.6983 111.525 98.2388 112.271C98.4907 113.033 98.6142 113.831 98.6041 114.633L99.2252 112.416C99.2252 112.416 99.2252 111.617 99.006 111.144C98.7868 110.672 98.2388 110.09 98.0196 109.291C97.6675 108.099 97.399 106.885 97.2158 105.656C97.2158 105.075 97.8004 102.022 97.91 101.295C98.2654 100.21 98.4982 99.0882 98.6041 97.9515V97.4427C100.096 97.5725 101.597 97.3277 102.969 96.7309C104.342 96.134 105.541 95.2041 106.459 94.0264C106.844 93.3016 107.138 92.5327 107.336 91.7368L106.605 91.8458Z" fill="#164194"/>
<path d="M118.551 58.628C117.523 59.5909 116.368 60.4101 115.117 61.063C112.743 62.4804 110.003 64.0795 109.783 67.4231V67.7138V67.9682C110.331 68.7315 110.039 69.3493 109.418 70.4033C109.056 70.924 108.784 71.5014 108.614 72.1114V72.6565L109.053 72.9836C109.69 73.4964 110.277 74.0684 110.806 74.6918C111.288 75.4055 111.908 76.0172 112.629 76.4913C113.35 76.9654 114.159 77.2925 115.008 77.4539H115.483L115.775 77.0541C116.633 75.7319 117.16 74.2236 117.309 72.6565C117.443 71.3676 117.868 70.1253 118.551 69.0222L118.771 68.7315V68.4044C118.651 66.6248 118.861 64.8384 119.392 63.1346C119.737 61.8488 119.97 60.5355 120.086 59.2095V56.8835L118.515 58.5917L118.551 58.628Z" fill="white"/>
<path d="M82.3105 98.7146C82.6028 102.349 85.9639 105.111 83.7354 108.709C83.9911 110.744 82.0548 111.762 81.5068 113.47C80.63 113.47 81.0319 112.053 81.1415 111.471C82.2015 109.78 82.8113 107.849 82.9136 105.859C83.0159 103.868 82.6072 101.885 81.726 100.096C81.726 99.5141 81.726 98.86 82.4201 98.7146" fill="#164194"/>
<path d="M117.93 68.3681C116.14 70.8395 116.907 74.2558 115.117 76.6908C112.633 76.4 111.464 73.7833 109.491 72.2569C109.893 70.6214 111.902 69.204 110.587 67.2779C110.916 62.5896 116.432 61.79 119.246 58.7372C118.51 61.9004 118.07 65.1244 117.93 68.3681ZM119.976 56.4475C116.834 59.1369 112.925 60.0819 110.039 63.3528C107.153 65.8605 110.514 70.1126 106.386 72.0752C108.966 74.8653 111.902 77.3088 115.117 79.3438C117.565 77.8901 117.638 75.128 117.784 72.6203C120.269 68.2228 119.026 63.062 120.999 58.3737C120.597 57.7196 120.999 56.1568 119.83 56.4475H119.976Z" fill="#164194"/>
<path d="M70.766 73.8921C69.857 74.6429 69.0025 75.4566 68.2087 76.3271C67.8714 76.6595 67.5542 77.0114 67.2588 77.3811C67.2588 77.3811 65.5417 79.6707 64.7015 77.1267C63.8612 74.5827 64.7015 74.4736 64.7015 73.7831C64.5846 73.3065 64.3454 72.8682 64.0073 72.5111C63.6785 72.0386 62.7286 70.1851 62.7286 70.1851C62.7286 70.1851 62.1441 66.5508 62.1441 65.7876C62.1441 65.0244 61.7788 62.553 61.7788 62.1532C61.5963 61.2414 61.3522 60.3429 61.0481 59.4638C62.585 60.474 64.0388 61.6042 65.3956 62.8438C67.3684 64.6973 67.7337 64.0067 67.953 64.4792C68.9881 65.3774 69.6947 66.5916 69.9623 67.9318C70.0085 68.9248 70.2056 69.905 70.5468 70.8393C70.7006 71.3158 70.8962 71.7779 71.1314 72.2203C71.1314 72.2203 72.0447 73.0199 70.8756 73.9648L70.766 73.8921ZM72.0447 70.8756C71.8255 70.2941 71.241 70.8756 71.4602 69.1675C71.9716 65.5332 71.4602 67.1686 69.597 63.9341C69.078 63.3423 68.6248 62.6965 68.2452 62.0079C68.2452 61.6081 67.8434 61.8261 67.2588 61.4991C66.6743 61.172 66.3455 61.0266 65.5417 60.5541C64.732 60.0642 64.0148 59.4369 63.4228 58.7006C62.4325 57.9041 61.3388 57.244 60.1713 56.7381C60.0417 56.6349 59.8806 56.5786 59.7146 56.5786C59.5486 56.5786 59.3875 56.6349 59.258 56.7381C58.6734 56.7381 59.4772 59.1731 59.4772 59.6455C59.6212 61.6229 59.8896 63.5892 60.2809 65.5332C60.6619 67.9051 61.2486 70.2398 62.0345 72.5111C62.5822 73.9557 62.9026 75.4758 62.9844 77.0177C63.0018 77.7561 63.209 78.4779 63.5863 79.1141C63.9636 79.7503 64.4985 80.2797 65.1399 80.652C66.5306 79.3296 68.0206 78.1147 69.597 77.0177C70.5635 76.4069 71.3661 75.5711 71.9351 74.5826C72.6293 73.6377 72.6292 73.6377 73.2138 72.7291C73.7983 71.8206 72.3004 71.6752 72.0447 71.0937V70.8756Z" fill="#164194"/>
<path d="M81.7259 93.8085C81.7259 94.329 81.5181 94.8282 81.1481 95.1962C80.7781 95.5643 80.2763 95.771 79.7531 95.771C79.2299 95.771 78.7281 95.5643 78.3581 95.1962C77.9881 94.8282 77.7803 94.329 77.7803 93.8085C77.7803 93.288 77.9881 92.7888 78.3581 92.4208C78.7281 92.0527 79.2299 91.8459 79.7531 91.8459C80.2763 91.8459 80.7781 92.0527 81.1481 92.4208C81.5181 92.7888 81.7259 93.288 81.7259 93.8085Z" fill="#164194"/>
<path d="M79.1689 93.0088C79.174 93.0643 79.1674 93.1202 79.1495 93.173C79.1315 93.2258 79.1027 93.2743 79.0649 93.3153C79.027 93.3564 78.9809 93.3891 78.9296 93.4115C78.8783 93.4338 78.8228 93.4452 78.7668 93.445C78.6504 93.445 78.5389 93.399 78.4566 93.3172C78.3743 93.2354 78.3281 93.1245 78.3281 93.0088C78.3279 92.9531 78.3394 92.898 78.3618 92.847C78.3843 92.7959 78.4172 92.7501 78.4585 92.7125C78.4998 92.6749 78.5486 92.6462 78.6017 92.6284C78.6548 92.6106 78.711 92.604 78.7668 92.6091C78.8734 92.6091 78.9757 92.6512 79.0511 92.7262C79.1265 92.8011 79.1689 92.9028 79.1689 93.0088Z" fill="white"/>
<path d="M103.281 93.8083C103.319 94.086 103.297 94.3685 103.216 94.637C103.136 94.9055 102.998 95.1537 102.813 95.3649C102.628 95.576 102.399 95.7453 102.143 95.8613C101.886 95.9773 101.608 96.0373 101.326 96.0373C101.045 96.0373 100.766 95.9773 100.51 95.8613C100.253 95.7453 100.025 95.576 99.8396 95.3649C99.6545 95.1537 99.5169 94.9055 99.4362 94.637C99.3555 94.3685 99.3335 94.086 99.3718 93.8083C99.3335 93.5307 99.3555 93.2481 99.4362 92.9796C99.5169 92.7112 99.6545 92.463 99.8396 92.2518C100.025 92.0406 100.253 91.8713 100.51 91.7553C100.766 91.6394 101.045 91.5793 101.326 91.5793C101.608 91.5793 101.886 91.6394 102.143 91.7553C102.399 91.8713 102.628 92.0406 102.813 92.2518C102.998 92.463 103.136 92.7112 103.216 92.9796C103.297 93.2481 103.319 93.5307 103.281 93.8083Z" fill="#164194"/>
<path d="M75.2594 90.3556C73.3178 90.5539 71.3652 90.6267 69.4141 90.5737C71.263 91.2441 73.2185 91.5765 75.1864 91.5549C76.3765 91.2379 77.6168 91.1515 78.8397 91.3005C81.9816 91.7003 83.443 94.9348 85.9272 96.2069L86.3291 94.9712C85.3584 93.0256 83.7192 91.4904 81.7086 90.6437C79.6979 89.7969 77.4489 89.6947 75.369 90.3556H75.2594Z" fill="#164194"/>
<path d="M120.341 91.0463C119.762 91.5885 119.343 92.2784 119.13 93.041C118.918 93.8036 118.92 94.6096 119.136 95.3712C116.868 97.7263 114.13 99.5833 111.098 100.823C110.769 100.823 110.185 101.586 109.82 101.913L107.701 104.312H108.541L108.249 105.402C108.249 105.402 109.491 103.985 109.929 103.367C110.368 102.749 111.464 103.112 111.464 103.112L112.669 102.531L113.436 102.022C113.692 101.84 114.094 102.022 114.094 102.022C114.225 103.015 114.042 104.025 113.57 104.91C113.099 105.796 112.363 106.514 111.464 106.965C109.457 108.035 107.613 109.381 105.984 110.962C105.605 111.861 105.088 112.695 104.449 113.434L102.221 115.542L99.9921 118.522C99.8312 118.052 99.5969 117.611 99.2979 117.214C98.7134 116.305 99.0422 116.378 98.9691 115.869C98.8382 115.264 98.6034 114.686 98.275 114.161C97.8731 113.397 97.3251 113.834 96.9963 113.579C96.5639 113.048 96.3545 112.371 96.4118 111.689C96.4118 110.853 94.3659 101.15 94.1832 100.314V99.4416C95.1497 97.503 96.3789 95.7054 97.8366 94.0992C98.3419 93.5203 98.9188 93.0074 99.5537 92.5727C100.152 92.1853 100.823 91.9214 101.525 91.7965C102.228 91.6716 102.949 91.6884 103.645 91.8459C104.574 92.1093 105.53 92.2678 106.495 92.3183C107.437 92.3524 108.375 92.1777 109.24 91.8068C110.106 91.4359 110.878 90.8782 111.5 90.1741C110.185 90.4648 107.591 90.7192 107.591 90.7192C95.1331 89.6289 98.2019 91.2644 98.2019 91.2644C96.3111 92.2259 94.87 93.881 94.1832 95.88L92.9776 97.4791C92.6954 98.4708 92.6085 99.5074 92.7219 100.532C92.7219 101.041 92.9776 102.422 92.9776 102.422C92.708 106.145 93.3211 109.88 94.7677 113.325C94.7677 113.616 95.6811 117.323 95.6811 117.323H96.156L96.8502 116.632H97.252V117.068L98.2019 119.612C98.2019 119.612 98.4576 121.393 98.4576 121.647C98.135 122.77 97.5745 123.811 96.8136 124.7C96.2279 125.215 95.5321 125.591 94.7789 125.799C94.0257 126.006 93.2348 126.041 92.4661 125.9H92.2469H91.3336H90.8587L90.4933 125.536V125.064V124.264C91.6571 124.03 92.7037 123.402 93.4559 122.488C94.2082 121.574 94.62 120.43 94.6216 119.249C94.6216 118.595 93.5987 118.086 93.5987 118.086C91.387 117.479 89.0516 117.479 86.84 118.086C85.3786 118.413 85.8901 120.448 85.8901 120.448C85.8901 121.684 88.3013 123.61 88.3013 123.61C88.7814 123.988 89.37 124.204 89.9818 124.228V124.664C89.9042 124.977 89.794 125.282 89.653 125.572C89.4704 125.9 88.7762 126.045 88.3378 126.118H87.936C83.5885 125.681 82.7482 123.501 82.7482 121.938C83.0602 120.229 83.6266 118.575 84.4287 117.032L84.9402 117.432C85.34 117.489 85.746 117.489 86.1458 117.432C86.4016 117.432 86.1458 116.814 86.1458 116.559C85.985 116.314 85.8386 116.059 85.7074 115.796C87.6802 113.761 88.8858 100.241 88.9589 99.9141C89.0334 99.6035 89.0334 99.2798 88.9589 98.9692L88.7032 98.3877L88.1186 97.4427C88.1186 97.4427 87.0226 96.5705 86.4746 96.8249C85.9266 97.0793 87.0226 98.4604 87.0226 98.4604L87.6072 99.2236C87.032 101.007 86.6522 102.847 86.4746 104.711L85.5613 110.563C85.0877 111.643 84.7088 112.761 84.4287 113.906C84.0999 115.505 82.5655 114.306 82.5655 114.306C82.7293 114.987 82.7389 115.696 82.5936 116.381C82.4482 117.066 82.1516 117.71 81.7253 118.267C81.0122 116.806 79.9295 115.553 78.5834 114.633C76.9892 113.559 75.644 112.159 74.6377 110.526C73.8705 109.182 73.7975 109.509 70.3633 107.91C69.42 107.493 68.6329 106.791 68.1146 105.904C67.5963 105.016 67.3732 103.988 67.4771 102.967C67.4771 102.967 69.8518 103.912 70.2172 103.985C71.0872 104.222 71.9413 104.513 72.7745 104.857C73.3591 105.111 75.9164 106.71 73.3591 103.912C70.8017 101.113 69.523 102.022 67.879 101.441C66.235 100.859 66.3446 100.168 65.5774 99.1509C64.8102 98.1333 63.7142 97.7698 62.7643 96.8612C61.8144 95.9527 62.0702 96.2434 62.2529 95.7346C62.4355 95.2258 61.4856 93.5177 61.4856 93.5177C57.8323 89.7016 61.4856 87.6664 62.8374 86.9032C63.5129 86.515 64.007 85.8773 64.2122 85.1286C64.4175 84.38 64.3173 83.581 63.9334 82.9054C63.1662 81.1246 61.4491 74.074 61.4491 74.074C60.675 72.3447 60.1226 70.5253 59.8051 68.6588C59.609 66.0615 59.005 63.5107 58.015 61.0994C56.4805 56.7746 58.015 57.4651 58.2707 56.2658C58.4354 55.7524 58.6688 55.2634 58.9648 54.812C62.1433 54.812 78.8026 69.3494 78.8026 69.3494C78.5194 68.2722 78.1021 67.2345 77.5604 66.2602C85.1803 63.2833 93.607 63.0519 101.38 65.606C103.755 66.5509 101.636 69.2403 101.636 69.2403L105.984 66.0058C110.096 60.9368 115.587 57.152 121.803 55.1028C122.129 55.7273 122.386 56.3854 122.57 57.0653C122.972 57.8991 123.18 58.8119 123.18 59.7365C123.18 60.6612 122.972 61.574 122.57 62.4078C121.603 64.5472 121.081 66.8589 121.035 69.204C120.193 71.2944 119.509 73.4447 118.99 75.6367C119.043 76.9152 118.713 78.1806 118.04 79.2711C117.166 80.9826 117.008 82.9685 117.601 84.7953C117.857 86.1763 121.547 88.7203 121.547 88.7203C121.547 88.7203 122.387 88.4659 120.341 90.9373V91.0463ZM92.1373 127.862L91.0413 128.116H90.2741L88.557 127.099C89.151 127.019 89.7532 127.019 90.3472 127.099C91.5528 127.099 92.4661 127.099 92.7219 127.099L92.0277 127.935L92.1373 127.862ZM121.364 85.8492C117.711 83.1235 119.903 80.9065 120.707 79.3801C121.402 77.7284 121.81 75.9709 121.912 74.183C121.912 73.4198 122.095 70.5487 123.008 69.6038C123.922 68.6588 124.141 64.1523 124.579 63.062C124.91 61.9876 125.106 60.8768 125.164 59.7547C125.123 59.0648 125.123 58.3731 125.164 57.6831C124.391 55.5125 123.437 53.4094 122.314 51.3958C118.222 51.8319 107.701 60.7723 106.751 61.8626C106.127 62.547 105.414 63.1458 104.632 63.6435C99.8578 62.4443 94.9403 61.9061 90.0184 62.0443C85.3192 62.0901 80.6483 62.7748 76.1356 64.0796C71.2686 58.8249 65.2577 54.7474 58.563 52.159C54.2155 56.5202 57.2843 66.878 57.7227 67.8229C58.5538 69.1852 59.0192 70.7369 59.0744 72.3295C59.4029 74.9664 59.9156 77.5773 60.6088 80.1433C60.9733 81.5551 61.5524 82.9032 62.3259 84.1411C62.3259 84.1411 61.4126 85.1587 59.7686 86.7941C58.1246 88.4296 58.7456 87.63 57.7958 88.0662C57.5084 88.2388 57.2617 88.471 57.0726 88.7469C56.8835 89.0229 56.7563 89.3361 56.6997 89.6653C57.3777 90.9465 58.1726 92.1631 59.0744 93.2996C60.207 94.4989 58.7456 95.5165 58.7456 95.5165L61.924 98.0606C63.0931 99.0055 62.4355 98.9328 63.2758 99.696C64.1161 100.459 63.4585 101.077 63.4585 101.077L64.1526 101.695C64.4943 103.801 65.396 105.777 66.7643 107.42C68.1326 109.062 69.9176 110.31 71.9343 111.035C73.2164 111.788 74.3443 112.774 75.2588 113.943L76.8663 115.215C80.9946 118.086 80.9946 120.739 80.9946 120.739C80.2274 125.318 83.4789 126.154 83.4789 126.154C87.8264 127.608 87.5706 127.971 87.5706 127.971C90.8952 130.588 91.8451 129.243 93.0507 128.88C93.9881 128.56 94.8741 128.107 95.6811 127.535C97.3397 127.057 98.7743 126.01 99.7307 124.579C100.687 123.149 101.103 121.428 100.905 119.721C101.452 118.943 102.05 118.203 102.696 117.504C103.289 116.814 103.781 116.043 104.157 115.215C106.337 113.227 108.684 111.427 111.171 109.836C112.852 109.002 114.296 107.764 115.374 106.235C116.452 104.705 117.13 102.933 117.346 101.077C117.582 99.6959 118.183 98.4023 119.089 97.3292C119.994 96.2561 121.17 95.4422 122.497 94.9714C122.182 94.4768 122.014 93.9033 122.014 93.3178C122.014 92.7322 122.182 92.1587 122.497 91.6642C123.447 90.2831 124.981 88.0298 124.981 88.0298C124.981 88.0298 124.762 88.0298 121.328 85.5585L121.364 85.8492Z" fill="#164194"/>
<path d="M100.906 93.0088C100.911 93.0643 100.905 93.1202 100.887 93.173C100.869 93.2258 100.84 93.2743 100.802 93.3153C100.764 93.3564 100.718 93.3891 100.667 93.4115C100.616 93.4338 100.56 93.4452 100.504 93.445C100.388 93.445 100.276 93.399 100.194 93.3172C100.112 93.2354 100.065 93.1245 100.065 93.0088C100.065 92.9531 100.077 92.898 100.099 92.847C100.122 92.7959 100.155 92.7501 100.196 92.7125C100.237 92.6749 100.286 92.6462 100.339 92.6284C100.392 92.6106 100.448 92.604 100.504 92.6091C100.611 92.6091 100.713 92.6512 100.788 92.7262C100.864 92.8011 100.906 92.9028 100.906 93.0088Z" fill="white"/>
<path fill-rule="evenodd" clip-rule="evenodd" d="M217.649 2.91357C218.499 2.91357 219.188 3.57995 219.188 4.40197V180.598C219.188 181.42 218.499 182.086 217.649 182.086C216.799 182.086 216.11 181.42 216.11 180.598V4.40197C216.11 3.57995 216.799 2.91357 217.649 2.91357Z" fill="#164194"/>
<path d="M268.672 62.7691C277.007 62.7691 282.971 57.0339 282.971 48.8352C282.971 40.6366 277.007 34.9014 268.672 34.9014C260.338 34.9014 254.373 40.6366 254.373 48.8352C254.373 57.0339 260.338 62.7691 268.672 62.7691ZM268.672 56.9184C264.327 56.9184 261.088 53.7236 261.088 48.8352C261.088 43.9468 264.327 40.7521 268.672 40.7521C273.017 40.7521 276.256 43.9468 276.256 48.8352C276.256 53.7236 273.017 56.9184 268.672 56.9184Z" fill="#164194"/>
<path d="M293.09 62.3072V52.8383H302.57L303.321 47.3726H293.09V41.06H306.994L306.007 35.3633H286.533V62.3072H293.09Z" fill="#164194"/>
<path d="M317.315 62.3072V52.8383H326.795L327.545 47.3726H317.315V41.06H331.219L330.231 35.3633H310.758V62.3072H317.315Z" fill="#164194"/>
<path d="M341.539 62.3072V35.3633H334.982V62.3072H341.539Z" fill="#164194"/>
<path d="M359.715 62.7691C364.81 62.7691 368.918 60.6521 371.486 57.3418L367.931 52.261C365.6 55.2633 363.112 56.9184 359.715 56.9184C355.725 56.9184 351.815 53.9931 351.815 48.8352C351.815 43.6774 355.844 40.7521 359.754 40.7521C363.072 40.7521 365.442 42.3687 367.654 45.3325L371.525 39.9822C368.879 36.8644 364.534 34.9014 359.715 34.9014C352.763 34.9014 345.1 39.0584 345.1 48.8352C345.1 58.6121 352.763 62.7691 359.715 62.7691Z" fill="#164194"/>
<path d="M381.734 62.3072V35.3633H375.177V62.3072H381.734Z" fill="#164194"/>
<path d="M412.944 62.3072L402.95 35.3633H394.813L384.82 62.3072H392.009L393.786 57.0724H403.977L405.755 62.3072H412.944ZM398.882 42.2147L402.002 51.3757H395.761L398.882 42.2147Z" fill="#164194"/>
<path d="M434.947 62.3072L435.935 56.6105H422.584V35.3633H416.027V62.3072H434.947Z" fill="#164194"/>
<path d="M454.485 62.3072V53.8391H459.462C466.335 53.8391 469.929 49.913 469.929 44.6012C469.929 39.2894 466.335 35.3633 459.462 35.3633H447.928V62.3072H454.485ZM454.485 41.06H459.067C461.397 41.06 463.214 42.1377 463.214 44.6012C463.214 47.0646 461.397 48.1424 459.067 48.1424H454.485V41.06Z" fill="#164194"/>
<path d="M480.445 62.3072V53.3772H483.329L489.965 62.3072H497.509L490.202 52.6459C493.796 51.2602 495.89 48.5658 495.89 44.3702C495.89 38.943 492.572 35.3633 486.054 35.3633H473.888V62.3072H480.445ZM480.445 41.06H485.422C487.792 41.06 489.175 42.2532 489.175 44.3702C489.175 46.4873 487.792 47.6805 485.422 47.6805H480.445V41.06Z" fill="#164194"/>
<path d="M506.946 62.3072V35.3633H500.389V62.3072H506.946Z" fill="#164194"/>
<path d="M518.169 62.3072V45.1016L527.491 62.3072H535.825V35.3633H529.347V53.4542L519.709 35.3633H511.691V62.3072H518.169Z" fill="#164194"/>
<path d="M554.013 62.7691C559.108 62.7691 563.216 60.6521 565.784 57.3418L562.229 52.261C559.898 55.2633 557.41 56.9184 554.013 56.9184C550.023 56.9184 546.113 53.9931 546.113 48.8352C546.113 43.6774 550.142 40.7521 554.052 40.7521C557.37 40.7521 559.74 42.3687 561.952 45.3325L565.823 39.9822C563.177 36.8644 558.832 34.9014 554.013 34.9014C547.061 34.9014 539.398 39.0584 539.398 48.8352C539.398 58.6121 547.061 62.7691 554.013 62.7691Z" fill="#164194"/>
<path d="M576.032 62.3072V35.3633H569.475V62.3072H576.032Z" fill="#164194"/>
<path d="M587.334 62.3072V53.8391H592.311C599.184 53.8391 602.779 49.913 602.779 44.6012C602.779 39.2894 599.184 35.3633 592.311 35.3633H580.777V62.3072H587.334ZM587.334 41.06H591.916C594.247 41.06 596.064 42.1377 596.064 44.6012C596.064 47.0646 594.247 48.1424 591.916 48.1424H587.334V41.06Z" fill="#164194"/>
<path d="M629.422 62.3072L619.429 35.3633H611.292L601.298 62.3072H608.487L610.265 57.0724H620.456L622.233 62.3072H629.422ZM615.361 42.2147L618.481 51.3757H612.24L615.361 42.2147Z" fill="#164194"/>
<path d="M651.426 62.3072L652.413 56.6105H639.062V35.3633H632.505V62.3072H651.426Z" fill="#164194"/>
<path d="M262.115 104.209V95.7411H267.092C273.965 95.7411 277.56 91.815 277.56 86.5032C277.56 81.1914 273.965 77.2653 267.092 77.2653H255.558V104.209H262.115ZM262.115 82.962H266.697C269.028 82.962 270.845 84.0397 270.845 86.5032C270.845 88.9666 269.028 90.0444 266.697 90.0444H262.115V82.962Z" fill="#164194"/>
<path d="M304.203 104.209L294.21 77.2653H286.073L276.079 104.209H283.268L285.046 98.9744H295.237L297.014 104.209H304.203ZM290.141 84.1167L293.262 93.2777H287.021L290.141 84.1167Z" fill="#164194"/>
<path d="M313.843 104.209V95.2792H316.727L323.363 104.209H330.907L323.6 94.5479C327.194 93.1622 329.288 90.4678 329.288 86.2722C329.288 80.845 325.97 77.2653 319.452 77.2653H307.286V104.209H313.843ZM313.843 82.962H318.82C321.19 82.962 322.573 84.1552 322.573 86.2722C322.573 88.3893 321.19 89.5825 318.82 89.5825H313.843V82.962Z" fill="#164194"/>
<path d="M347.235 104.209V82.962H356.32L355.333 77.2653H332.581L331.593 82.962H340.678V104.209H347.235Z" fill="#164194"/>
<path d="M366.109 104.209V87.0036L375.431 104.209H383.766V77.2653H377.288V95.3562L367.65 77.2653H359.631V104.209H366.109Z" fill="#164194"/>
<path d="M408.036 104.209L409.024 98.5125H395.08V93.2007H403.217L403.968 87.7349H395.08V82.962H408.392L407.404 77.2653H388.523V104.209H408.036Z" fill="#164194"/>
<path d="M419.228 104.209V95.2792H422.111L428.747 104.209H436.292L428.984 94.5479C432.579 93.1622 434.672 90.4678 434.672 86.2722C434.672 80.845 431.354 77.2653 424.837 77.2653H412.671V104.209H419.228ZM419.228 82.962H424.205C426.575 82.962 427.957 84.1552 427.957 86.2722C427.957 88.3893 426.575 89.5825 424.205 89.5825H419.228V82.962Z" fill="#164194"/>
<path d="M460.502 104.671C468.836 104.671 474.801 98.9359 474.801 90.7372C474.801 82.5386 468.836 76.8034 460.502 76.8034C452.167 76.8034 446.203 82.5386 446.203 90.7372C446.203 98.9359 452.167 104.671 460.502 104.671ZM460.502 98.8204C456.157 98.8204 452.918 95.6256 452.918 90.7372C452.918 85.8488 456.157 82.6541 460.502 82.6541C464.847 82.6541 468.086 85.8488 468.086 90.7372C468.086 95.6256 464.847 98.8204 460.502 98.8204Z" fill="#164194"/>
<path d="M484.92 104.209V94.7403H494.4L495.15 89.2746H484.92V82.962H498.824L497.836 77.2653H478.363V104.209H484.92Z" fill="#164194"/>
<path d="M274.479 146.111L275.466 140.414H262.115V119.167H255.558V146.111H274.479Z" fill="#164194"/>
<path d="M298.756 146.111L299.743 140.414H285.8V135.103H293.937L294.687 129.637H285.8V124.864H299.111L298.124 119.167H279.243V146.111H298.756Z" fill="#164194"/>
<path d="M309.947 146.111V119.167H303.39V146.111H309.947Z" fill="#164194"/>
<path d="M328.122 146.573C333.218 146.573 337.326 144.456 339.893 141.146L336.338 136.065C334.008 139.067 331.519 140.722 328.122 140.722C324.133 140.722 320.222 137.797 320.222 132.639C320.222 127.481 324.251 124.556 328.162 124.556C331.48 124.556 333.85 126.173 336.062 129.137L339.933 123.786C337.286 120.668 332.941 118.705 328.122 118.705C321.17 118.705 313.507 122.862 313.507 132.639C313.507 142.416 321.17 146.573 328.122 146.573Z" fill="#164194"/>
<path d="M363.097 146.111L364.085 140.414H350.141V135.103H358.278L359.029 129.637H350.141V124.864H363.453L362.465 119.167H343.584V146.111H363.097Z" fill="#164194"/>
<path d="M379.029 146.573C385.625 146.573 390.168 142.993 390.168 137.643C390.168 133.409 387.205 131.023 382.544 130.022L379.305 129.329C376.461 128.713 374.842 128.136 374.842 126.596C374.842 125.095 376.777 124.402 378.752 124.402C381.122 124.402 383.413 125.595 385.191 127.866L389.417 123.055C387.047 120.399 383.729 118.705 378.752 118.705C372.946 118.705 368.443 121.977 368.443 126.789C368.443 131.215 371.84 133.794 375.355 134.525L379.108 135.295C381.754 135.834 383.532 136.604 383.532 138.144C383.532 139.76 381.399 140.722 379.147 140.722C375.75 140.722 372.867 138.99 371.247 136.296L366.547 141.107C368.759 144.225 372.432 146.573 379.029 146.573Z" fill="#164194"/>
<path d="M407.334 146.111V124.864H416.419L415.431 119.167H392.679L391.692 124.864H400.777V146.111H407.334Z" fill="#164194"/>
<path d="M439.243 146.111L440.23 140.414H426.287V135.103H434.424L435.174 129.637H426.287V124.864H439.598L438.611 119.167H419.73V146.111H439.243Z" fill="#164194"/>
<path d="M450.434 146.111V137.181H453.318L459.954 146.111H467.498L460.191 136.45C463.785 135.064 465.879 132.37 465.879 128.174C465.879 122.747 462.561 119.167 456.043 119.167H443.877V146.111H450.434ZM450.434 124.864H455.411C457.781 124.864 459.164 126.057 459.164 128.174C459.164 130.291 457.781 131.484 455.411 131.484H450.434V124.864Z" fill="#164194"/>
<path d="M492.024 146.573C497.12 146.573 501.228 144.456 503.795 141.146L500.24 136.065C497.91 139.067 495.421 140.722 492.024 140.722C488.035 140.722 484.124 137.797 484.124 132.639C484.124 127.481 488.153 124.556 492.064 124.556C495.382 124.556 497.752 126.173 499.964 129.137L503.835 123.786C501.188 120.668 496.843 118.705 492.024 118.705C485.072 118.705 477.409 122.862 477.409 132.639C477.409 142.416 485.072 146.573 492.024 146.573Z" fill="#164194"/>
<path d="M514.043 146.111V119.167H507.486V146.111H514.043Z" fill="#164194"/>
<path d="M533.009 146.111V124.864H542.094L541.106 119.167H518.354L517.367 124.864H526.452V146.111H533.009Z" fill="#164194"/>
<path d="M560.533 146.111V136.758L570.487 119.167H562.864L557.255 129.791L551.646 119.167H544.022L553.976 136.758V146.111H560.533Z" fill="#164194"/>
</svg>
