<svg width="220" height="158" viewBox="0 0 220 158" fill="none" xmlns="http://www.w3.org/2000/svg">
<path d="M265 68.2897C265 89.2061 248.101 106.162 227.255 106.162C206.408 106.162 189.509 89.2061 189.509 68.2897C189.509 47.3733 206.408 30.4172 227.255 30.4172C248.101 30.4172 265 47.3733 265 68.2897Z" fill="url(#paint0_linear)"/>
<path d="M251.923 126.44C251.923 130.064 254.85 133.001 258.462 133.001C262.073 133.001 265 130.064 265 126.44C265 122.817 262.073 119.88 258.462 119.88C254.85 119.88 251.923 122.817 251.923 126.44Z" fill="url(#paint1_linear)"/>
<path fill-rule="evenodd" clip-rule="evenodd" d="M154.438 67.9915H154.437C154.281 47.7108 138.238 31.2253 118.178 30.446V30.4172H154.438V67.9915Z" fill="url(#paint2_linear)"/>
<path fill-rule="evenodd" clip-rule="evenodd" d="M154.438 30.4172H227.255C248.101 30.4172 265 47.3733 265 68.2897V126.44C265 130.064 262.073 133.001 258.462 133.001H154.438V30.4172Z" fill="url(#paint3_linear)"/>
<path d="M154.984 65.8116C154.984 85.3593 139.149 101.206 119.616 101.206C100.083 101.206 84.2478 85.3593 84.2478 65.8116C84.2478 46.2638 100.083 30.4172 119.616 30.4172C139.149 30.4172 154.984 46.2638 154.984 65.8116Z" fill="#6A95BF"/>
<path fill-rule="evenodd" clip-rule="evenodd" d="M84.2478 65.8116C84.2478 46.2638 100.083 30.4172 119.616 30.4172C139.149 30.4172 154.984 46.2638 154.984 65.8116V133.001H84.2478V65.8116Z" fill="#6A95BF"/>
<path d="M153.795 66.3661C153.795 85.232 138.493 100.526 119.616 100.526C100.739 100.526 85.4366 85.232 85.4366 66.3661C85.4366 47.5003 100.739 32.2065 119.616 32.2065C138.493 32.2065 153.795 47.5003 153.795 66.3661Z" fill="url(#paint4_linear)"/>
<path fill-rule="evenodd" clip-rule="evenodd" d="M85.4366 66.3661C85.4366 47.5003 100.739 32.2065 119.616 32.2065C138.493 32.2065 153.795 47.5003 153.795 66.3661V131.212H85.4366V66.3661Z" fill="url(#paint5_linear)"/>
<path d="M175.837 80.8144C175.837 83.2849 173.841 85.2876 171.379 85.2876C168.917 85.2876 166.921 83.2849 166.921 80.8144C166.921 78.344 168.917 76.3413 171.379 76.3413C173.841 76.3413 175.837 78.344 175.837 80.8144Z" fill="#8ACF09"/>
<path d="M175.837 4.47312C175.837 6.94356 173.841 8.94625 171.379 8.94625C168.917 8.94625 166.921 6.94356 166.921 4.47312C166.921 2.00269 168.917 0 171.379 0C171.505 0 171.629 0.00521723 171.752 0.0154476C172.106 0.0448598 172.448 0.115708 172.773 0.223143C174.553 0.810482 175.837 2.49129 175.837 4.47312Z" fill="#8ACF09"/>
<path d="M191.764 4.08561L175.837 0.846267L172.773 0.223143L171.752 0.0154476L171.676 0V17.5943H191.886C192.871 17.5943 193.67 16.7932 193.67 15.805V6.42373C193.67 5.28885 192.873 4.31107 191.764 4.08561Z" fill="#8ACF09"/>
<path fill-rule="evenodd" clip-rule="evenodd" d="M171.379 0H171.676L171.752 0.0154476C172.106 0.0448598 172.448 0.115708 172.773 0.223143L175.837 0.846267V80.8144C175.837 83.2849 173.841 85.2876 171.379 85.2876C168.917 85.2876 166.921 83.2849 166.921 80.8144V4.47312C166.921 2.00269 168.917 0 171.379 0Z" fill="#8ACF09"/>
<path d="M175.243 80.8144C175.243 83.2849 173.247 85.2876 170.784 85.2876C168.322 85.2876 166.326 83.2849 166.326 80.8144C166.326 78.344 168.322 76.3413 170.784 76.3413C173.247 76.3413 175.243 78.344 175.243 80.8144Z" fill="#8ACF09"/>
<path d="M175.243 4.47312C175.243 6.94356 173.247 8.94625 170.784 8.94625C168.322 8.94625 166.326 6.94356 166.326 4.47312C166.326 2.00269 168.322 0 170.784 0C170.91 0 171.035 0.00521723 171.158 0.0154476C171.511 0.0448598 171.853 0.115708 172.179 0.223143C173.958 0.810482 175.243 2.49129 175.243 4.47312Z" fill="#8ACF09"/>
<path d="M191.17 4.08561L175.243 0.846267L172.179 0.223143L171.158 0.0154476L171.082 0V17.5943H191.292C192.277 17.5943 193.075 16.7932 193.075 15.805V6.42373C193.075 5.28885 192.278 4.31107 191.17 4.08561Z" fill="#8ACF09"/>
<path fill-rule="evenodd" clip-rule="evenodd" d="M170.784 0H171.082L171.158 0.0154476C171.511 0.0448598 171.853 0.115708 172.179 0.223143L175.243 0.846267V80.8144C175.243 83.2849 173.247 85.2876 170.784 85.2876C168.322 85.2876 166.326 83.2849 166.326 80.8144V4.47312C166.326 2.00269 168.322 0 170.784 0Z" fill="#8ACF09"/>
<path d="M174.648 80.8144C174.648 83.2849 172.652 85.2876 170.19 85.2876C167.728 85.2876 165.732 83.2849 165.732 80.8144C165.732 78.344 167.728 76.3413 170.19 76.3413C172.652 76.3413 174.648 78.344 174.648 80.8144Z" fill="#8ACF09"/>
<path d="M174.648 4.47312C174.648 6.94356 172.652 8.94625 170.19 8.94625C167.728 8.94625 165.732 6.94356 165.732 4.47312C165.732 2.00269 167.728 0 170.19 0C170.316 0 170.44 0.00521723 170.563 0.0154476C170.917 0.0448598 171.259 0.115708 171.584 0.223143C173.364 0.810482 174.648 2.49129 174.648 4.47312Z" fill="#8ACF09"/>
<path d="M190.576 4.08561L174.648 0.846267L171.584 0.223143L170.563 0.0154476L170.487 0V17.5943H190.698C191.682 17.5943 192.481 16.7932 192.481 15.805V6.42373C192.481 5.28885 191.684 4.31107 190.576 4.08561Z" fill="#8ACF09"/>
<path fill-rule="evenodd" clip-rule="evenodd" d="M170.19 0H170.487L170.563 0.0154476C170.917 0.0448598 171.259 0.115708 171.584 0.223143L174.648 0.846267V80.8144C174.648 83.2849 172.652 85.2876 170.19 85.2876C167.728 85.2876 165.732 83.2849 165.732 80.8144V4.47312C165.732 2.00269 167.728 0 170.19 0Z" fill="#8ACF09"/>
<path d="M176.431 80.8144C176.431 83.2849 174.435 85.2876 171.973 85.2876C169.511 85.2876 167.515 83.2849 167.515 80.8144C167.515 78.344 169.511 76.3413 171.973 76.3413C174.435 76.3413 176.431 78.344 176.431 80.8144Z" fill="#77B308"/>
<path d="M176.431 4.47312C176.431 6.94356 174.435 8.94625 171.973 8.94625C169.511 8.94625 167.515 6.94356 167.515 4.47312C167.515 2.00269 169.511 0 171.973 0C172.099 0 172.223 0.00521723 172.346 0.0154476C172.7 0.0448598 173.042 0.115708 173.368 0.223143C175.147 0.810482 176.431 2.49129 176.431 4.47312Z" fill="#77B308"/>
<path d="M192.359 4.08561L176.431 0.846267L173.368 0.223143L172.346 0.0154476L172.271 0V17.5943H192.481C193.466 17.5943 194.264 16.7932 194.264 15.805V6.42373C194.264 5.28885 193.467 4.31107 192.359 4.08561Z" fill="#77B308"/>
<path fill-rule="evenodd" clip-rule="evenodd" d="M171.973 0H172.271L172.346 0.0154476C172.7 0.0448598 173.042 0.115708 173.368 0.223143L176.431 0.846267V80.8144C176.431 83.2849 174.435 85.2876 171.973 85.2876C169.511 85.2876 167.515 83.2849 167.515 80.8144V4.47312C167.515 2.00269 169.511 0 171.973 0Z" fill="#77B308"/>
<path fill-rule="evenodd" clip-rule="evenodd" d="M84.7417 130.674C92.4972 130.645 100.252 130.616 108.005 130.589C115.476 130.561 122.947 130.534 130.416 130.507C138.169 130.479 145.925 130.451 153.683 130.421C147.412 134.749 141.142 139.077 134.871 143.406C132.413 145.101 129.278 146.733 125.671 148.244C103.934 148.393 82.1953 148.544 60.4555 148.696C61.2585 147.185 62.8995 145.544 65.4238 143.824C71.8642 139.439 78.3035 135.056 84.7417 130.674Z" fill="#131D69"/>
<path fill-rule="evenodd" clip-rule="evenodd" d="M125.671 148.244C129.278 146.733 132.413 145.101 134.871 143.406C143.593 137.383 141.25 132.312 130.416 130.507C122.947 130.534 115.476 130.561 108.005 130.589C91.7384 132.502 74.3827 137.725 65.4238 143.824C62.8995 145.544 61.2585 147.185 60.4555 148.696C57.6799 153.929 64.9946 157.558 79.9937 157.432C94.9857 157.305 113.176 153.483 125.671 148.244Z" fill="#131D69"/>
<path fill-rule="evenodd" clip-rule="evenodd" d="M84.7417 130.078C92.4972 130.048 100.252 130.02 108.005 129.992C115.476 129.965 122.947 129.938 130.416 129.91C138.169 129.883 145.925 129.854 153.683 129.825C147.412 134.152 141.142 138.481 134.871 142.81C132.413 144.505 129.278 146.136 125.671 147.647C103.934 147.797 82.1953 147.948 60.4555 148.1C61.2585 146.588 62.8995 144.947 65.4238 143.227C71.8642 138.843 78.3035 134.46 84.7417 130.078Z" fill="#131D69"/>
<path fill-rule="evenodd" clip-rule="evenodd" d="M125.671 147.647C129.278 146.136 132.413 144.505 134.871 142.81C143.593 136.787 141.25 131.715 130.416 129.91C122.947 129.938 115.476 129.965 108.005 129.992C91.7384 131.905 74.3827 137.128 65.4238 143.227C62.8995 144.947 61.2585 146.588 60.4555 148.1C57.6799 153.332 64.9946 156.962 79.9937 156.835C94.9857 156.709 113.176 152.886 125.671 147.647Z" fill="#131D69"/>
<path fill-rule="evenodd" clip-rule="evenodd" d="M84.7417 128.885C92.4972 128.855 100.252 128.827 108.005 128.799C115.476 128.772 122.947 128.745 130.416 128.717C138.169 128.69 145.925 128.661 153.683 128.632C147.412 132.959 141.142 137.288 134.871 141.617C132.413 143.312 129.278 144.943 125.671 146.455C103.934 146.604 82.1953 146.755 60.4555 146.907C61.2585 145.395 62.8995 143.754 65.4238 142.034C71.8642 137.65 78.3035 133.267 84.7417 128.885Z" fill="#131D69"/>
<path fill-rule="evenodd" clip-rule="evenodd" d="M125.671 146.455C129.278 144.943 132.413 143.312 134.871 141.617C143.593 135.594 141.25 130.523 130.416 128.717C122.947 128.745 115.476 128.772 108.005 128.799C91.7384 130.712 74.3827 135.936 65.4238 142.034C62.8995 143.754 61.2585 145.395 60.4555 146.907C57.6799 152.139 64.9946 155.769 79.9937 155.643C94.9857 155.516 113.176 151.694 125.671 146.455Z" fill="#131D69"/>
<path fill-rule="evenodd" clip-rule="evenodd" d="M84.7417 129.481C92.4972 129.452 100.252 129.423 108.005 129.396C115.476 129.369 122.947 129.341 130.416 129.314C138.169 129.286 145.925 129.258 153.683 129.228C147.412 133.556 141.142 137.884 134.871 142.214C132.413 143.908 129.278 145.54 125.671 147.051C103.934 147.201 82.1953 147.351 60.4555 147.503C61.2585 145.992 62.8995 144.351 65.4238 142.631C71.8642 138.247 78.3035 133.863 84.7417 129.481Z" fill="#131D69"/>
<path fill-rule="evenodd" clip-rule="evenodd" d="M125.671 147.051C129.278 145.54 132.413 143.908 134.871 142.214C143.593 136.19 141.25 131.119 130.416 129.314C122.947 129.341 115.476 129.369 108.005 129.396C91.7384 131.309 74.3827 136.532 65.4238 142.631C62.8995 144.351 61.2585 145.992 60.4555 147.503C57.6799 152.736 64.9946 156.365 79.9937 156.239C94.9857 156.113 113.176 152.29 125.671 147.051Z" fill="#131D69"/>
<path fill-rule="evenodd" clip-rule="evenodd" d="M84.7417 128.885C92.4972 128.855 100.252 128.827 108.005 128.799C115.476 128.772 122.947 128.745 130.416 128.717C138.169 128.69 145.925 128.661 153.683 128.632C147.412 132.959 141.142 137.288 134.871 141.617C132.413 143.312 129.278 144.943 125.671 146.455C103.934 146.604 82.1953 146.755 60.4555 146.907C61.2585 145.395 62.8995 143.754 65.4238 142.034C71.8642 137.65 78.3035 133.267 84.7417 128.885Z" fill="url(#paint6_linear)"/>
<path fill-rule="evenodd" clip-rule="evenodd" d="M125.671 146.455C129.278 144.943 132.413 143.312 134.871 141.617C143.593 135.594 141.25 130.523 130.416 128.717C122.947 128.745 115.476 128.772 108.005 128.799C91.7384 130.712 74.3827 135.936 65.4238 142.034C62.8995 143.754 61.2585 145.395 60.4555 146.907C57.6799 152.139 64.9946 155.769 79.9937 155.643C94.9857 155.516 113.176 151.694 125.671 146.455Z" fill="url(#paint7_linear)"/>
<g filter="url(#filter0_d)">
<path d="M60.5078 106.257C59.6416 104.86 60.0698 103.021 61.4642 102.151L106.368 74.1133C107.762 73.2427 109.595 73.6697 110.461 75.0672L129.845 106.343C130.712 107.74 130.283 109.579 128.889 110.45L83.9856 138.487C82.5912 139.358 80.7587 138.93 79.8925 137.533L60.5078 106.257Z" fill="white"/>
<path d="M60.7187 107.544C59.8526 106.147 60.2808 104.308 61.6752 103.437L106.579 75.4C107.973 74.5293 109.805 74.9564 110.672 76.3539L130.056 107.629C130.923 109.027 130.494 110.866 129.1 111.736L84.1966 139.774C82.8022 140.644 80.9696 140.217 80.1034 138.82L60.7187 107.544Z" fill="#B4D8F0"/>
<path d="M91.522 104.274C91.8783 103.161 92.985 102.47 94.1367 102.641L127.578 107.605C129.766 107.93 130.361 110.814 128.481 111.988L84.6969 139.326C82.8174 140.499 80.502 138.689 81.1789 136.575L91.522 104.274Z" fill="#A9C8DD"/>
<path d="M92.7485 106.081C93.1277 105.069 94.1377 104.438 95.2099 104.544L127.661 107.748C129.92 107.971 130.608 110.941 128.679 112.145L84.7504 139.573C82.8217 140.777 80.4715 138.846 81.2706 136.713L92.7485 106.081Z" fill="#A6CBE6"/>
<path d="M96.5133 112.33C97.665 112.501 98.7718 111.81 99.128 110.698L109.471 78.3963C110.148 76.2825 107.833 74.4724 105.953 75.6459L62.1687 102.984C60.2891 104.157 60.8837 107.042 63.0721 107.367L96.5133 112.33Z" fill="#A9C8DD"/>
<path d="M95.5653 110.63C96.6375 110.736 97.6475 110.105 98.0267 109.093L109.505 78.4607C110.304 76.328 107.954 74.3962 106.025 75.6005L62.096 103.028C60.1672 104.232 60.855 107.202 63.1144 107.425L95.5653 110.63Z" fill="#CFE6EE"/>
</g>
<g filter="url(#filter1_d)">
<path d="M83.0512 86.8814C82.8821 85.2439 84.0688 83.7781 85.7019 83.6074L138.29 78.1101C139.923 77.9394 141.384 79.1285 141.553 80.7659L145.338 117.412C145.507 119.05 144.32 120.515 142.687 120.686L90.0995 126.183C88.4665 126.354 87.0056 125.165 86.8364 123.528L83.0512 86.8814Z" fill="white"/>
<path d="M84.1306 86.7831C83.9615 85.1456 85.1482 83.6798 86.7812 83.5091L139.369 78.0118C141.002 77.8411 142.463 79.0302 142.632 80.6676L146.417 117.314C146.586 118.951 145.4 120.417 143.767 120.588L91.1789 126.085C89.5458 126.256 88.0849 125.067 87.9158 123.429L84.1306 86.7831Z" fill="#D7E8F0"/>
</g>
<mask id="mask0" mask-type="alpha" maskUnits="userSpaceOnUse" x="85" y="32" width="69" height="100">
<path d="M153.795 66.3661C153.795 85.232 138.493 100.526 119.616 100.526C100.739 100.526 85.4366 85.232 85.4366 66.3661C85.4366 47.5003 100.739 32.2065 119.616 32.2065C138.493 32.2065 153.795 47.5003 153.795 66.3661Z" fill="url(#paint8_linear)"/>
<path fill-rule="evenodd" clip-rule="evenodd" d="M85.4366 66.3661C85.4366 47.5003 100.739 32.2065 119.616 32.2065C138.493 32.2065 153.795 47.5003 153.795 66.3661V131.212H85.4366V66.3661Z" fill="url(#paint9_linear)"/>
</mask>
<g mask="url(#mask0)">
<g filter="url(#filter2_d)">
<path d="M98.8604 44.0867C99.2842 42.4971 100.914 41.5548 102.5 41.9819L153.582 55.7378C155.168 56.165 156.11 57.7999 155.687 59.3895L146.202 94.9644C145.778 96.554 144.149 97.4963 142.562 97.0692L91.4805 83.3133C89.8942 82.8861 88.9519 81.2512 89.3757 79.6616L98.8604 44.0867Z" fill="white"/>
<path d="M99.7766 44.333C100.2 42.7435 101.83 41.8011 103.416 42.2283L154.498 55.9842C156.084 56.4114 157.027 58.0463 156.603 59.6359L147.118 95.2107C146.694 96.8003 145.065 97.7427 143.478 97.3155L92.3966 83.5596C90.8104 83.1324 89.868 81.4975 90.2918 79.9079L99.7766 44.333Z" fill="#CEE6F0"/>
<path d="M123.209 64.6765C124.261 64.1776 125.52 64.5166 126.183 65.4774L145.436 93.3748C146.696 95.2004 145.006 97.6066 142.868 97.0309L93.0598 83.6197C90.9217 83.044 90.6548 80.1107 92.6543 79.1627L123.209 64.6765Z" fill="#A9C8DD"/>
<path d="M122.733 66.8102C123.728 66.3967 124.877 66.7061 125.533 67.5641L145.388 93.5331C146.77 95.3411 145.082 97.8737 142.888 97.283L92.9157 83.828C90.7216 83.2373 90.5193 80.1955 92.6162 79.3242L122.733 66.8102Z" fill="#B4D8F2"/>
<path d="M120.773 73.8367C121.436 74.7974 122.695 75.1364 123.747 74.6375L154.302 60.1513C156.301 59.2034 156.034 56.2701 153.896 55.6944L104.088 42.2832C101.95 41.7074 100.26 44.1137 101.519 45.9393L120.773 73.8367Z" fill="#A9C8DD"/>
<path d="M121.362 71.9797C122.017 72.8377 123.166 73.1471 124.162 72.7336L154.278 60.2196C156.375 59.3484 156.173 56.3066 153.979 55.7158L104.007 42.2609C101.813 41.6701 100.124 44.2027 101.506 46.0108L121.362 71.9797Z" fill="#CDE3F0"/>
</g>
<path d="M116.806 60.7803C116.395 59.187 117.352 57.5603 118.942 57.1469L170.139 43.8336C171.729 43.4202 173.35 44.3766 173.76 45.9698L182.939 81.626C183.349 83.2192 182.393 84.8459 180.803 85.2594L129.606 98.5727C128.016 98.9861 126.395 98.0297 125.984 96.4364L116.806 60.7803Z" fill="white"/>
<path d="M117.724 60.542C117.314 58.9487 118.27 57.322 119.86 56.9086L171.057 43.5953C172.647 43.1819 174.268 44.1383 174.679 45.7315L183.857 81.3877C184.268 82.9809 183.311 84.6076 181.721 85.0211L130.524 98.3344C128.934 98.7478 127.313 97.7914 126.903 96.1982L117.724 60.542Z" fill="#A8C6E0"/>
<path d="M148.724 68.7388C149.387 67.8866 150.539 67.5871 151.53 68.0092L181.538 80.7836C183.628 81.673 183.399 84.713 181.2 85.2848L131.115 98.3068C128.916 98.8786 127.249 96.3314 128.647 94.5353L148.724 68.7388Z" fill="#D2E9EF"/>
<g filter="url(#filter3_d)">
<path d="M103.429 69.1218C103.5 67.4767 104.887 66.2013 106.527 66.2731L159.342 68.5843C160.982 68.6561 162.254 70.0479 162.183 71.693L160.592 108.51C160.521 110.155 159.134 111.43 157.494 111.359L104.679 109.047C103.039 108.976 101.767 107.584 101.838 105.939L103.429 69.1218Z" fill="white"/>
<path d="M104.377 69.1632C104.448 67.5181 105.835 66.2427 107.475 66.3144L160.289 68.6257C161.929 68.6975 163.201 70.0893 163.13 71.7343L161.539 108.551C161.468 110.196 160.081 111.472 158.441 111.4L105.627 109.089C103.987 109.017 102.715 107.625 102.786 105.98L104.377 69.1632Z" fill="#D9EEF3"/>
<path d="M131.629 83.9246C132.549 83.208 133.85 83.265 134.705 84.0592L159.505 107.121C161.128 108.63 159.997 111.349 157.786 111.253L106.29 108.999C104.079 108.902 103.187 106.095 104.934 104.733L131.629 83.9246Z" fill="#A9C8DD"/>
<path d="M131.625 86.1109C132.507 85.4902 133.695 85.5422 134.52 86.2376L159.496 107.286C161.235 108.751 160.133 111.593 157.864 111.494L106.191 109.233C103.922 109.134 103.069 106.206 104.928 104.898L131.625 86.1109Z" fill="#D2E9EF"/>
<path d="M131.221 93.4181C132.075 94.2123 133.377 94.2693 134.297 93.5527L160.996 72.744C162.743 71.3823 161.851 68.5746 159.64 68.4778L108.137 66.2241C105.926 66.1274 104.794 68.8465 106.418 70.3557L131.221 93.4181Z" fill="#A9C8DD"/>
<path d="M131.396 91.4769C132.221 92.1723 133.409 92.2243 134.291 91.6036L160.988 72.8167C162.847 71.5087 161.994 68.5808 159.725 68.4815L108.052 66.2204C105.783 66.1211 104.681 68.9634 106.419 70.4289L131.396 91.4769Z" fill="#E6F1F7"/>
</g>
<path d="M84.6419 64.9888C84.7527 45.8631 100.288 30.4172 119.414 30.4172C138.698 30.4172 154.299 46.1087 154.187 65.3918L153.795 133.001H84.2478L84.6419 64.9888Z" fill="url(#paint10_linear)"/>
<path d="M128.694 93.5831C128.284 91.9899 129.24 90.3632 130.83 89.9498L182.027 76.6364C183.617 76.223 185.239 77.1794 185.649 78.7727L194.828 114.429C195.238 116.022 194.281 117.649 192.691 118.062L141.494 131.376C139.904 131.789 138.283 130.833 137.873 129.239L128.694 93.5831Z" fill="white"/>
<path d="M129.612 92.152C129.202 90.5588 130.158 88.932 131.748 88.5186L182.946 75.2053C184.536 74.7919 186.157 75.7483 186.567 77.3415L195.746 112.998C196.156 114.591 195.2 116.218 193.61 116.631L142.412 129.944C140.823 130.358 139.201 129.401 138.791 127.808L129.612 92.152Z" fill="#DCEFF5"/>
</g>
<g filter="url(#filter4_d)">
<path d="M7.72624 68.414C7.34295 66.6829 8.42992 64.9693 10.1541 64.5865L65.676 52.2613C67.4001 51.8785 69.1085 52.9716 69.4918 54.7026L78.0698 93.4439C78.4531 95.175 77.3661 96.8886 75.642 97.2714L20.1201 109.597C18.396 109.979 16.6875 108.886 16.3042 107.155L7.72624 68.414Z" fill="white"/>
<path d="M8.72209 68.1931C8.3388 66.462 9.42577 64.7485 11.1499 64.3657L66.6718 52.0404C68.396 51.6577 70.1044 52.7507 70.4877 54.4818L79.0657 93.2231C79.449 94.9542 78.362 96.6678 76.6378 97.0505L21.116 109.376C19.3918 109.759 17.6834 108.666 17.3001 106.934L8.72209 68.1931Z" fill="#D9EEF3"/>
<path d="M41.1458 75.9518C41.902 74.95 43.2703 74.6463 44.3784 75.2342L76.5547 92.3057C78.6604 93.4228 78.2404 96.5666 75.9167 97.0824L21.7847 109.099C19.4609 109.615 17.7534 106.943 19.1902 105.04L41.1458 75.9518Z" fill="#A9C8DD"/>
<path d="M41.7487 78.2284C42.4927 77.3369 43.7417 77.0597 44.7923 77.5528L76.5916 92.4794C78.8056 93.5186 78.45 96.7822 76.065 97.3116L21.7467 109.369C19.3617 109.898 17.6618 107.091 19.2297 105.212L41.7487 78.2284Z" fill="#D2E9EF"/>
<path d="M43.3542 85.932C44.4624 86.5199 45.8309 86.2161 46.5872 85.2143L68.5466 56.1263C69.9836 54.2228 68.2759 51.5514 65.9519 52.0673L11.8122 64.0851C9.48817 64.601 9.0681 67.7447 11.174 68.8618L43.3542 85.932Z" fill="#A9C8DD"/>
<path d="M42.9955 83.8635C44.0461 84.3566 45.295 84.0794 46.039 83.1879L68.558 56.204C70.1259 54.3252 68.426 51.5179 66.0411 52.0473L11.7227 64.1047C9.33773 64.6341 8.9821 67.8977 11.1961 68.9369L42.9955 83.8635Z" fill="#E6F1F7"/>
</g>
<path d="M27.611 13.1883H32.5566V36.2678H27.611V13.1883Z" fill="#87CD40"/>
<path d="M29.2595 4.9456H30.908V40.3891H29.2595V4.9456Z" fill="#87CD40"/>
<path d="M35.8536 9.06693H40.7992V28.0251H35.8536V9.06693Z" fill="#87CD40"/>
<path d="M37.5022 2.47279H39.1507V34.6192H37.5022V2.47279Z" fill="#87CD40"/>
<path d="M52.3391 13.1883H57.2847V25.5523H52.3391V13.1883Z" fill="#87CD40"/>
<path d="M53.9876 9.06694H55.6362V29.6736H53.9876V9.06694Z" fill="#87CD40"/>
<path d="M44.0964 14.8368H49.042V33.7949H44.0964V14.8368Z" fill="#E8461D"/>
<path d="M45.745 10.7155H47.3935V39.5648H45.745V10.7155Z" fill="#E8461D"/>
<ellipse cx="24.8729" cy="140.946" rx="13.1883" ry="8.24267" transform="rotate(26.5712 24.8729 140.946)" fill="#EDA147"/>
<ellipse cx="24.5043" cy="141.683" rx="13.1883" ry="8.24267" transform="rotate(26.5712 24.5043 141.683)" fill="#EDA147"/>
<ellipse cx="24.1354" cy="142.42" rx="13.1883" ry="8.24267" transform="rotate(26.5712 24.1354 142.42)" fill="#EDA147"/>
<ellipse cx="25.2414" cy="140.208" rx="13.1883" ry="8.24267" transform="rotate(26.5712 25.2414 140.208)" fill="#FACD70"/>
<path d="M34.3781 144.778C33.6702 146.193 32.06 147.079 29.8887 147.27C27.7269 147.46 25.093 146.948 22.5157 145.659C19.9383 144.37 17.9484 142.57 16.8041 140.726C15.6548 138.874 15.3972 137.054 16.1051 135.639C16.813 134.224 18.4232 133.338 20.5945 133.147C22.7563 132.956 25.3903 133.469 27.9676 134.758C30.5449 136.047 32.5349 137.847 33.6792 139.691C34.8285 141.543 35.086 143.363 34.3781 144.778Z" stroke="#EDA147"/>
<ellipse cx="51.5281" cy="125.663" rx="9.66284" ry="6.03928" transform="rotate(1.95462 51.5281 125.663)" fill="#EDA147"/>
<ellipse cx="51.5075" cy="126.267" rx="9.66284" ry="6.03928" transform="rotate(1.95462 51.5075 126.267)" fill="#EDA147"/>
<ellipse cx="51.4871" cy="126.871" rx="9.66284" ry="6.03928" transform="rotate(1.95462 51.4871 126.871)" fill="#EDA147"/>
<ellipse cx="51.5496" cy="125.06" rx="9.66284" ry="6.03928" transform="rotate(1.95462 51.5496 125.06)" fill="#FACD70"/>
<path d="M58.8954 125.311C58.8581 126.406 58.0984 127.452 56.7331 128.229C55.376 129.002 53.4904 129.46 51.4009 129.389C49.3114 129.317 47.4615 128.731 46.1602 127.868C44.8511 127 44.1645 125.904 44.2019 124.809C44.2392 123.714 44.9989 122.668 46.3642 121.891C47.7213 121.118 49.6069 120.66 51.6964 120.731C53.7859 120.802 55.6358 121.388 56.9371 122.251C58.2462 123.12 58.9328 124.215 58.8954 125.311Z" stroke="#EDA147"/>
<defs>
<filter id="filter0_d" x="53.0599" y="73.662" width="84.4443" height="80.5629" filterUnits="userSpaceOnUse" color-interpolation-filters="sRGB">
<feFlood flood-opacity="0" result="BackgroundImageFix"/>
<feColorMatrix in="SourceAlpha" type="matrix" values="0 0 0 0 0 0 0 0 0 0 0 0 0 0 0 0 0 0 127 0"/>
<feOffset dy="7"/>
<feGaussianBlur stdDeviation="3.5"/>
<feColorMatrix type="matrix" values="0 0 0 0 0.14902 0 0 0 0 0.364706 0 0 0 0 0.615686 0 0 0 0.32 0"/>
<feBlend mode="normal" in2="BackgroundImageFix" result="effect1_dropShadow"/>
<feBlend mode="normal" in="SourceGraphic" in2="effect1_dropShadow" result="shape"/>
</filter>
<filter id="filter1_d" x="76.0352" y="77.9955" width="77.3982" height="62.2042" filterUnits="userSpaceOnUse" color-interpolation-filters="sRGB">
<feFlood flood-opacity="0" result="BackgroundImageFix"/>
<feColorMatrix in="SourceAlpha" type="matrix" values="0 0 0 0 0 0 0 0 0 0 0 0 0 0 0 0 0 0 127 0"/>
<feOffset dy="7"/>
<feGaussianBlur stdDeviation="3.5"/>
<feColorMatrix type="matrix" values="0 0 0 0 0.14902 0 0 0 0 0.364706 0 0 0 0 0.615686 0 0 0 0.32 0"/>
<feBlend mode="normal" in2="BackgroundImageFix" result="effect1_dropShadow"/>
<feBlend mode="normal" in="SourceGraphic" in2="effect1_dropShadow" result="shape"/>
</filter>
<filter id="filter2_d" x="82.2742" y="41.8791" width="81.43" height="69.5393" filterUnits="userSpaceOnUse" color-interpolation-filters="sRGB">
<feFlood flood-opacity="0" result="BackgroundImageFix"/>
<feColorMatrix in="SourceAlpha" type="matrix" values="0 0 0 0 0 0 0 0 0 0 0 0 0 0 0 0 0 0 127 0"/>
<feOffset dy="7"/>
<feGaussianBlur stdDeviation="3.5"/>
<feColorMatrix type="matrix" values="0 0 0 0 0.14902 0 0 0 0 0.364706 0 0 0 0 0.615686 0 0 0 0.32 0"/>
<feBlend mode="normal" in2="BackgroundImageFix" result="effect1_dropShadow"/>
<feBlend mode="normal" in="SourceGraphic" in2="effect1_dropShadow" result="shape"/>
</filter>
<filter id="filter3_d" x="94.8356" y="66.2178" width="75.2974" height="59.2788" filterUnits="userSpaceOnUse" color-interpolation-filters="sRGB">
<feFlood flood-opacity="0" result="BackgroundImageFix"/>
<feColorMatrix in="SourceAlpha" type="matrix" values="0 0 0 0 0 0 0 0 0 0 0 0 0 0 0 0 0 0 127 0"/>
<feOffset dy="7"/>
<feGaussianBlur stdDeviation="3.5"/>
<feColorMatrix type="matrix" values="0 0 0 0 0.14902 0 0 0 0 0.364706 0 0 0 0 0.615686 0 0 0 0.32 0"/>
<feBlend mode="normal" in2="BackgroundImageFix" result="effect1_dropShadow"/>
<feBlend mode="normal" in="SourceGraphic" in2="effect1_dropShadow" result="shape"/>
</filter>
<filter id="filter4_d" x="0.649292" y="51.9641" width="85.4932" height="71.709" filterUnits="userSpaceOnUse" color-interpolation-filters="sRGB">
<feFlood flood-opacity="0" result="BackgroundImageFix"/>
<feColorMatrix in="SourceAlpha" type="matrix" values="0 0 0 0 0 0 0 0 0 0 0 0 0 0 0 0 0 0 127 0"/>
<feOffset dy="7"/>
<feGaussianBlur stdDeviation="3.5"/>
<feColorMatrix type="matrix" values="0 0 0 0 0.14902 0 0 0 0 0.364706 0 0 0 0 0.615686 0 0 0 0.32 0"/>
<feBlend mode="normal" in2="BackgroundImageFix" result="effect1_dropShadow"/>
<feBlend mode="normal" in="SourceGraphic" in2="effect1_dropShadow" result="shape"/>
</filter>
<linearGradient id="paint0_linear" x1="171.973" y1="30.4172" x2="171.973" y2="133.001" gradientUnits="userSpaceOnUse">
<stop stop-color="#FDF8F7"/>
<stop offset="0.111253" stop-color="#E5A794"/>
<stop offset="1" stop-color="#D34A1A"/>
</linearGradient>
<linearGradient id="paint1_linear" x1="171.973" y1="30.4172" x2="171.973" y2="133.001" gradientUnits="userSpaceOnUse">
<stop stop-color="#FDF8F7"/>
<stop offset="0.111253" stop-color="#E5A794"/>
<stop offset="1" stop-color="#D34A1A"/>
</linearGradient>
<linearGradient id="paint2_linear" x1="171.973" y1="30.4172" x2="171.973" y2="133.001" gradientUnits="userSpaceOnUse">
<stop stop-color="#FDF8F7"/>
<stop offset="0.111253" stop-color="#E5A794"/>
<stop offset="1" stop-color="#D34A1A"/>
</linearGradient>
<linearGradient id="paint3_linear" x1="171.973" y1="30.4172" x2="171.973" y2="133.001" gradientUnits="userSpaceOnUse">
<stop stop-color="#FDF8F7"/>
<stop offset="0.111253" stop-color="#E5A794"/>
<stop offset="1" stop-color="#D34A1A"/>
</linearGradient>
<linearGradient id="paint4_linear" x1="152.072" y1="70.4846" x2="85.3224" y2="127.336" gradientUnits="userSpaceOnUse">
<stop stop-color="#20376C"/>
<stop offset="1" stop-color="#396D9B"/>
</linearGradient>
<linearGradient id="paint5_linear" x1="152.072" y1="70.4846" x2="85.3224" y2="127.336" gradientUnits="userSpaceOnUse">
<stop stop-color="#20376C"/>
<stop offset="1" stop-color="#396D9B"/>
</linearGradient>
<linearGradient id="paint6_linear" x1="70.2788" y1="139.263" x2="144.879" y2="139.559" gradientUnits="userSpaceOnUse">
<stop stop-color="#5C8EBC"/>
<stop offset="1" stop-color="#80AED2"/>
</linearGradient>
<linearGradient id="paint7_linear" x1="70.2788" y1="139.263" x2="144.879" y2="139.559" gradientUnits="userSpaceOnUse">
<stop stop-color="#5C8EBC"/>
<stop offset="1" stop-color="#80AED2"/>
</linearGradient>
<linearGradient id="paint8_linear" x1="152.072" y1="70.4846" x2="85.3224" y2="127.336" gradientUnits="userSpaceOnUse">
<stop stop-color="#20376C"/>
<stop offset="1" stop-color="#396D9B"/>
</linearGradient>
<linearGradient id="paint9_linear" x1="152.072" y1="70.4846" x2="85.3224" y2="127.336" gradientUnits="userSpaceOnUse">
<stop stop-color="#20376C"/>
<stop offset="1" stop-color="#396D9B"/>
</linearGradient>
<linearGradient id="paint10_linear" x1="154.39" y1="59.9398" x2="114.806" y2="80.1105" gradientUnits="userSpaceOnUse">
<stop stop-color="#264076"/>
<stop offset="0.0666667" stop-color="#264076" stop-opacity="0.991353"/>
<stop offset="0.133333" stop-color="#264076" stop-opacity="0.96449"/>
<stop offset="0.2" stop-color="#264076" stop-opacity="0.91834"/>
<stop offset="0.266667" stop-color="#264177" stop-opacity="0.852589"/>
<stop offset="0.333333" stop-color="#264177" stop-opacity="0.768225"/>
<stop offset="0.4" stop-color="#264277" stop-opacity="0.668116"/>
<stop offset="0.466667" stop-color="#264278" stop-opacity="0.557309"/>
<stop offset="0.533333" stop-color="#264378" stop-opacity="0.442691"/>
<stop offset="0.6" stop-color="#264379" stop-opacity="0.331884"/>
<stop offset="0.666667" stop-color="#264479" stop-opacity="0.231775"/>
<stop offset="0.733333" stop-color="#264479" stop-opacity="0.147411"/>
<stop offset="0.8" stop-color="#26457A" stop-opacity="0.0816599"/>
<stop offset="0.866667" stop-color="#26457A" stop-opacity="0.03551"/>
<stop offset="0.933333" stop-color="#26457A" stop-opacity="0.01"/>
<stop offset="1" stop-color="#26457A" stop-opacity="0"/>
</linearGradient>
</defs>
</svg>
