<svg width="80" height="62" fill="none" xmlns="http://www.w3.org/2000/svg"><g clip-path="url(#a)"><path d="M78.372 61.13v.161h.15a.158.158 0 0 0 .08-.02.07.07 0 0 0 .03-.061.068.068 0 0 0-.03-.06.144.144 0 0 0-.08-.02h-.15Zm.15-.113c.078 0 .137.017.18.052a.17.17 0 0 1 .063.14c0 .05-.016.091-.05.124a.246.246 0 0 1-.144.06l.198.227h-.154l-.183-.225h-.06v.225h-.13v-.603h.28Zm-.039.811a.514.514 0 0 0 .465-.31.515.515 0 0 0-.108-.556.506.506 0 0 0-.357-.146.512.512 0 0 0-.363.146.492.492 0 0 0-.107.162.486.486 0 0 0-.039.197c0 .07.013.136.04.197a.477.477 0 0 0 .27.27.51.51 0 0 0 .2.04Zm0-1.157a.654.654 0 0 1 .47.191.639.639 0 0 1 0 .918.656.656 0 0 1-.47.191.666.666 0 0 1-.616-.398.619.619 0 0 1-.052-.252.639.639 0 0 1 .406-.598.665.665 0 0 1 .262-.052Zm-61.24-2.322c0-1.15.756-2.094 1.991-2.094 1.18 0 1.977.903 1.977 2.094 0 1.19-.796 2.093-1.977 2.093-1.235 0-1.991-.944-1.991-2.093Zm5.314 0v-3.27H21.13v.794c-.453-.589-1.14-.959-2.073-.959-1.841 0-3.284 1.438-3.284 3.435 0 1.998 1.443 3.434 3.284 3.434.933 0 1.62-.37 2.073-.959v.794h1.427v-3.27Zm48.23 0c0-1.15.757-2.094 1.992-2.094 1.182 0 1.978.903 1.978 2.094 0 1.19-.796 2.093-1.978 2.093-1.235 0-1.991-.944-1.991-2.093Zm5.317 0v-5.896h-1.43v3.42c-.452-.589-1.139-.959-2.072-.959-1.841 0-3.284 1.438-3.284 3.435 0 1.998 1.443 3.434 3.284 3.434.933 0 1.62-.37 2.073-.959v.794h1.429v-3.27Zm-35.83-2.161c.919 0 1.51.574 1.66 1.586H38.53c.152-.944.727-1.586 1.744-1.586Zm.028-1.274c-1.924 0-3.27 1.396-3.27 3.435 0 2.08 1.4 3.434 3.366 3.434.988 0 1.894-.246 2.69-.916l-.699-1.054a3.146 3.146 0 0 1-1.91.684c-.92 0-1.757-.424-1.963-1.602h4.874c.014-.177.029-.355.029-.546-.014-2.04-1.278-3.435-3.117-3.435Zm17.233 3.435c0-1.15.756-2.094 1.992-2.094 1.18 0 1.977.903 1.977 2.094 0 1.19-.797 2.093-1.977 2.093-1.236 0-1.992-.944-1.992-2.093Zm5.315 0v-3.27h-1.427v.794c-.455-.589-1.14-.959-2.074-.959-1.84 0-3.283 1.438-3.283 3.435 0 1.998 1.443 3.434 3.283 3.434.934 0 1.62-.37 2.074-.959v.794h1.427v-3.27Zm-13.375 0c0 1.984 1.386 3.434 3.502 3.434.989 0 1.647-.22 2.36-.78l-.684-1.15c-.536.384-1.1.59-1.718.59-1.14-.015-1.978-.835-1.978-2.094 0-1.26.838-2.08 1.978-2.094.619 0 1.182.205 1.718.589l.685-1.15c-.714-.56-1.372-.78-2.361-.78-2.116 0-3.502 1.45-3.502 3.435Zm18.402-3.435c-.824 0-1.36.384-1.731.959v-.794h-1.415v6.54h1.43v-3.667c0-1.082.466-1.683 1.4-1.683.289 0 .59.04.892.164l.44-1.34a3.05 3.05 0 0 0-1.016-.179Zm-38.26.685c-.688-.451-1.634-.685-2.678-.685-1.663 0-2.733.794-2.733 2.094 0 1.067.797 1.724 2.265 1.93l.674.095c.783.11 1.152.315 1.152.684 0 .506-.521.794-1.496.794-.989 0-1.702-.315-2.183-.684l-.673 1.107c.783.575 1.771.849 2.842.849 1.896 0 2.994-.89 2.994-2.135 0-1.149-.864-1.75-2.293-1.956l-.673-.097c-.618-.081-1.113-.203-1.113-.642 0-.479.467-.765 1.25-.765.838 0 1.649.314 2.046.56l.618-1.15Zm18.415-.685c-.824 0-1.36.384-1.73.959v-.794h-1.414v6.54h1.428v-3.667c0-1.082.466-1.683 1.4-1.683.29 0 .591.04.893.164l.44-1.34a3.05 3.05 0 0 0-1.017-.179Zm-12.18.165h-2.334v-1.984h-1.443v1.984h-1.332v1.3h1.332v2.983c0 1.517.59 2.42 2.279 2.42.619 0 1.333-.19 1.785-.505l-.412-1.218c-.425.246-.892.37-1.263.37-.714 0-.947-.44-.947-1.095v-2.955h2.335v-1.3Zm-21.341 6.54v-4.105c0-1.546-.989-2.586-2.583-2.6-.838-.014-1.702.246-2.307 1.164-.453-.725-1.167-1.164-2.17-1.164-.7 0-1.386.206-1.922.971v-.806H4.1v6.54h1.442v-3.626c0-1.135.632-1.738 1.608-1.738.948 0 1.427.615 1.427 1.724v3.64h1.443v-3.626c0-1.135.659-1.738 1.606-1.738.975 0 1.442.615 1.442 1.724v3.64h1.443Z" fill="#231F20"/><path d="M79.25 39.87v-.955h-.249l-.29.656-.287-.656h-.251v.955h.177v-.72l.27.621h.184l.27-.623v.722h.177Zm-1.585 0v-.792h.32v-.162h-.817v.162h.32v.792h.177Z" fill="#F79410"/><path d="M50.833 43.979H29.2V5.249h21.632v38.73Z" fill="#FF5F00"/><path d="M30.587 24.61c0-7.856 3.692-14.854 9.442-19.364A24.673 24.673 0 0 0 24.751-.021C11.098-.02.03 11.007.03 24.611c0 13.604 11.067 24.631 24.72 24.631a24.673 24.673 0 0 0 15.278-5.266c-5.75-4.51-9.442-11.508-9.442-19.365Z" fill="#EB001B"/><path d="M80.006 24.61c0 13.605-11.067 24.632-24.72 24.632a24.68 24.68 0 0 1-15.28-5.266c5.751-4.51 9.444-11.508 9.444-19.365 0-7.857-3.693-14.855-9.444-19.365a24.68 24.68 0 0 1 15.28-5.267c13.653 0 24.72 11.028 24.72 24.632Z" fill="#F79E1B"/></g><defs><clipPath id="a"><path fill="#fff" d="M0 0h80v62H0z"/></clipPath></defs></svg>