<svg width="160" height="160" viewBox="0 0 160 160" fill="none" xmlns="http://www.w3.org/2000/svg">
<g clip-path="url(#clip0_563_98950)">
<path d="M41.6837 20.3294C41.2968 19.9393 40.8528 19.6102 40.367 19.3532C40.0339 19.1521 39.6841 18.9798 39.3216 18.8381C39.0254 18.702 38.7156 18.5974 38.3975 18.5261C38.0162 18.4036 37.6255 18.3128 37.2293 18.2546C37.0825 18.2213 36.9325 18.2034 36.7819 18.2012C36.1908 18.1387 35.5956 18.1249 35.0022 18.1601C29.123 18.5528 19.1307 20.1947 13.2796 23.6787C13.0974 23.7814 12.9244 23.8995 12.7623 24.0316" stroke="#09544F" stroke-width="2" stroke-linecap="round" stroke-linejoin="round"/>
<path d="M12.7355 24.0317C8.82514 26.6477 5.91906 31.6366 5.30726 36.1782C4.27703 43.6627 8.33596 51.2006 11.6352 57.9136C12.5344 59.8 13.9706 61.3797 15.7642 62.4552C16.9594 63.1303 18.3001 63.5072 19.6724 63.5539" stroke="#09544F" stroke-width="2" stroke-linecap="round" stroke-linejoin="round"/>
<path d="M15.7642 62.4552C13.9706 61.3797 12.5344 59.8 11.6352 57.9136C8.33596 51.2006 4.27703 43.6627 5.30726 36.1782C5.91906 31.6366 8.82514 26.6477 12.7355 24.0317" stroke="#09544F" stroke-width="2" stroke-linecap="round" stroke-linejoin="round"/>
<path d="M12.7623 24.0316C12.9244 23.8995 13.0974 23.7814 13.2796 23.6787C19.1307 20.1947 29.123 18.5528 35.0022 18.1601C35.5956 18.1249 36.1908 18.1387 36.7819 18.2012C36.9325 18.2034 37.0825 18.2213 37.2293 18.2546C37.6255 18.3128 38.0162 18.4036 38.3975 18.5261C38.7156 18.5974 39.0254 18.702 39.3216 18.8381C39.6841 18.9798 40.0339 19.1521 40.367 19.3532" stroke="#09544F" stroke-width="2" stroke-linecap="round" stroke-linejoin="round"/>
<path d="M44.6842 23.0003C43.925 21.8721 42.893 20.9535 41.6837 20.3296C41.174 20.0261 40.6188 19.806 40.0394 19.6776C37.1066 18.8102 33.4547 19.4204 29.5176 21.6732C26.5512 23.477 23.8925 25.7425 21.6421 28.3841C15.8992 35.0271 11.96 44.1391 11.96 52.0689C11.96 56.8151 13.3733 60.3805 15.7642 62.4554" stroke="#09544F" stroke-width="2" stroke-linecap="round" stroke-linejoin="round"/>
<path d="M41.872 24.0705H41.8454C40.2291 23.1929 38.3673 22.8741 36.5505 23.1636C34.6082 23.4776 32.7397 24.1433 31.0371 25.1282C28.8029 26.4683 26.7689 28.1163 24.9954 30.0235C24.3577 30.7281 23.7054 31.4752 23.0547 32.2878C19.6782 36.5884 17.3283 41.6012 16.1835 46.945C15.7533 49.0673 15.6123 51.2378 15.7643 53.3978C16.1568 56.5569 16.9994 59.2016 19.5108 61.0582" stroke="#09544F" stroke-width="2" stroke-linecap="round" stroke-linejoin="round"/>
<path d="M29.8977 102.506C30.8082 109.611 31.5132 109.827 34.3233 111.224C37.7733 112.96 38.9125 113.218 44.0724 110.505C44.6576 110.221 45.2953 109.896 45.9743 109.502C50.1155 107.252 50.2099 104.797 49.8845 101.029" stroke="#09544F" stroke-width="2" stroke-linecap="round" stroke-linejoin="round"/>
<path d="M49.8845 101.029C50.2099 104.797 50.1155 107.252 45.9743 109.502C45.374 109.897 44.7371 110.232 44.0725 110.505C40.367 112.241 38.4241 110.995 37.9083 106.641" stroke="#09544F" stroke-width="2" stroke-linecap="round" stroke-linejoin="round"/>
<path d="M46.4634 86.5342C46.4752 87.9585 45.9292 89.331 44.9418 90.359C44.7418 90.5884 44.4844 90.7607 44.1959 90.8583C43.9075 90.9559 43.5982 90.9753 43.2998 90.9145" stroke="#09544F" stroke-width="2" stroke-linecap="round" stroke-linejoin="round"/>
<path d="M43.3933 83.8506H43.7468L43.8418 83.8917L45.1058 84.2713L45.2664 84.339H45.2953" stroke="#09544F" stroke-width="2" stroke-linecap="round" stroke-linejoin="round"/>
<path d="M66.0961 72.76V72.7337L66.123 72.7046" stroke="#09544F" stroke-width="2" stroke-linecap="round" stroke-linejoin="round"/>
<path d="M72.1519 34.0243H72.0574C72.0293 33.9285 72.0292 33.9285 71.9881 33.9285C71.9614 33.9018 71.9347 33.8608 71.8943 33.8608C71.8616 33.8199 71.8192 33.7877 71.771 33.7671" stroke="#09544F" stroke-width="2" stroke-linecap="round" stroke-linejoin="round"/>
<path d="M71.3503 33.4399C71.0877 33.2751 70.8158 33.1258 70.5358 32.9926C70.5091 32.9926 70.4832 32.9926 70.4832 32.9522C70.4155 32.93 70.3513 32.8982 70.2926 32.8578C70.0504 32.7375 69.8005 32.6333 69.5445 32.5459" stroke="#09544F" stroke-width="2" stroke-linecap="round" stroke-linejoin="round"/>
<path d="M24.1266 72.7334L26.2593 73.9522L34.4872 78.7244L40.747 82.3454" stroke="#09544F" stroke-width="2" stroke-linecap="round" stroke-linejoin="round"/>
<path d="M40.7473 82.3457C41.5385 82.9778 42.4219 83.4854 43.3668 83.8507H43.3935" stroke="#09544F" stroke-width="2" stroke-linecap="round" stroke-linejoin="round"/>
<path d="M52.9112 22.9597C52.3068 22.7477 51.6848 22.5891 51.0526 22.4856C50.9848 22.4856 50.9422 22.4446 50.8888 22.4446C50.2462 22.3499 49.5976 22.3001 48.948 22.2955C48.453 22.2932 47.9584 22.3247 47.4677 22.3898C47.2361 22.4186 47.0052 22.4446 46.7476 22.4856C46.625 22.5123 46.49 22.5124 46.3263 22.5534C46.1358 22.606 45.9461 22.6471 45.7167 22.7148C45.3647 22.7785 45.019 22.8741 44.6842 23.0001C44.6164 23.0001 44.5876 23.0001 44.5616 23.0267C44.3845 23.0634 44.2116 23.1182 44.0457 23.1903C43.9933 23.1955 43.9446 23.2195 43.9087 23.258C43.604 23.3319 43.3049 23.4268 43.0133 23.5418C42.6201 23.7047 42.2399 23.8948 41.8719 24.0706H41.8453C39.6855 25.1309 37.6499 26.4267 35.7756 27.9343C33.0865 30.2079 30.6639 32.7785 28.5544 35.5968" stroke="#09544F" stroke-width="2" stroke-linecap="round" stroke-linejoin="round"/>
<path d="M43.3935 83.8507H43.3668C42.4218 83.4854 41.5384 82.9779 40.7472 82.3457C38.0987 80.1484 36.4277 76.4339 36.1702 71.4716C36.1121 70.9905 36.0894 70.5058 36.1023 70.0214C36.1023 61.8322 39.714 52.5567 45.1727 45.1823C48.4308 40.7898 52.3426 37.0876 56.5372 34.6734C61.832 31.6102 66.6399 31.1635 70.2926 32.8579C70.3512 32.8983 70.4154 32.9301 70.4831 32.9523C70.4831 32.9927 70.509 32.9927 70.5358 32.9927C70.8157 33.1259 71.0877 33.2752 71.3502 33.44" stroke="#09544F" stroke-width="2" stroke-linecap="round" stroke-linejoin="round"/>
<path d="M45.2665 84.3389C44.6993 83.2903 44.0503 82.288 43.3257 81.3412C41.4261 78.9292 40.367 75.443 40.367 71.0239C40.367 58.3458 49.2468 42.9444 60.2448 36.6255C63.8955 34.4981 67.3455 33.6703 70.2926 33.9542C70.8787 34.016 71.4683 34.0393 72.0574 34.024H72.1519C82.0641 33.7934 105.783 26.6475 116.117 25.7391C116.202 25.7183 116.288 25.7094 116.375 25.7124H116.469C116.58 25.7124 116.7 25.6714 116.796 25.6714C116.958 25.6492 117.122 25.6402 117.285 25.6447C116.987 25.6713 116.7 25.7124 116.443 25.7391" stroke="#09544F" stroke-width="2" stroke-linecap="round" stroke-linejoin="round"/>
<path d="M74.162 57.8726V57.914H74.1206" stroke="#09544F" stroke-width="2" stroke-linecap="round" stroke-linejoin="round"/>
<path d="M74.1207 57.9136C71.2832 62.2302 68.7907 66.7635 66.6666 71.4713C66.4768 71.8921 66.2864 72.3128 66.1226 72.7047" stroke="#09544F" stroke-width="2" stroke-linecap="round" stroke-linejoin="round"/>
<path d="M66.096 72.7598C63.3515 79.8956 61.3228 85.0337 59.9181 92.7179C58.7601 99.9394 58.325 106.652 59.8914 113.896C60.9526 118.764 62.1431 121.245 64.7382 125.34C64.7649 125.366 64.7937 125.393 64.8326 125.433" stroke="#09544F" stroke-width="2" stroke-linecap="round" stroke-linejoin="round"/>
<path d="M64.9553 125.65C64.8969 125.589 64.8547 125.515 64.8326 125.433C64.7936 125.393 64.7649 125.366 64.7382 125.34C64.3882 124.878 64.0705 124.393 63.7873 123.888C63.6816 123.774 63.599 123.641 63.5441 123.495C63.407 123.279 63.2866 123.075 63.1228 122.817" stroke="#09544F" stroke-width="2" stroke-linecap="round" stroke-linejoin="round"/>
<path d="M63.1228 122.789C63.0644 122.675 62.9958 122.566 62.9178 122.464C58.0443 114.085 53.0749 100.609 48.5938 90.8741V90.8475C47.8479 89.3014 47.169 87.8497 46.4633 86.5342" stroke="#09544F" stroke-width="2" stroke-linecap="round" stroke-linejoin="round"/>
<path d="M129.192 27.5423C126.123 26.2198 122.814 25.5413 119.471 25.5489C118.737 25.5489 118.031 25.5755 117.285 25.6447C117.122 25.6402 116.958 25.6492 116.796 25.6714C116.7 25.6714 116.58 25.7124 116.469 25.7124" stroke="#09544F" stroke-width="2" stroke-linecap="round" stroke-linejoin="round"/>
<path d="M63.1228 122.817C63.2279 123.063 63.37 123.292 63.5441 123.495C63.599 123.641 63.6816 123.774 63.7873 123.888C64.0705 124.393 64.3882 124.878 64.7382 125.34C64.7649 125.366 64.7936 125.393 64.8326 125.433C66.2278 127.302 67.905 128.944 69.8043 130.3" stroke="#09544F" stroke-width="2" stroke-linecap="round" stroke-linejoin="round"/>
<path d="M69.8041 130.3L75.573 133.651L81.6427 137.162L81.6838 137.094" stroke="#09544F" stroke-width="2" stroke-linecap="round" stroke-linejoin="round"/>
<path d="M74.1619 57.8727C74.5898 57.1792 75.0612 56.5134 75.5732 55.8792C84.8808 43.0441 99.7098 27.2443 116.796 25.6716C121.021 25.2155 125.291 25.8601 129.192 27.5425" stroke="#09544F" stroke-width="2" stroke-linecap="round" stroke-linejoin="round"/>
<path fill-rule="evenodd" clip-rule="evenodd" d="M112.831 135.115C136.036 121.719 154.856 89.1789 154.856 62.3875C154.856 35.6105 136.036 24.7364 112.831 38.1306C89.5862 51.5133 70.7675 84.0941 70.7675 110.885C70.7675 137.676 89.5862 148.51 112.831 135.115Z" stroke="#09544F" stroke-width="2" stroke-linecap="round" stroke-linejoin="round"/>
<path fill-rule="evenodd" clip-rule="evenodd" d="M112.831 124.566C131.419 113.869 146.491 87.8085 146.491 66.3736C146.491 44.9372 131.419 36.2459 112.831 46.9595C94.2288 57.668 79.1581 83.7425 79.1581 105.177C79.1581 126.626 94.2288 135.291 112.831 124.566Z" stroke="#09544F" stroke-width="2" stroke-linecap="round" stroke-linejoin="round"/>
<path fill-rule="evenodd" clip-rule="evenodd" d="M129.572 42.4437C124.644 42.023 118.927 43.4466 112.831 46.9594C94.2288 57.6679 79.1581 83.7424 79.1581 105.177C79.1581 112.037 80.7063 117.598 83.4219 121.61C88.3632 122.043 94.0794 120.62 100.176 117.095C118.766 106.384 133.836 80.3384 133.836 58.9019C133.836 52.0298 132.288 46.4832 129.572 42.4437Z" stroke="#09544F" stroke-width="2" stroke-linecap="round" stroke-linejoin="round"/>
<path fill-rule="evenodd" clip-rule="evenodd" d="M106.79 92.0541C102.145 94.7378 98.3289 92.5548 98.3289 87.1718C98.3289 81.7902 102.145 75.2415 106.79 72.5435C111.473 69.844 115.248 72.0413 115.248 77.4243C115.248 82.8074 111.473 89.3547 106.79 92.0541Z" stroke="#09544F" stroke-width="2" stroke-linecap="round" stroke-linejoin="round"/>
<path d="M26.2594 73.9526L29.8978 102.506" stroke="#09544F" stroke-width="2" stroke-linecap="round" stroke-linejoin="round"/>
<path d="M49.8846 101.029L48.5939 90.874" stroke="#09544F" stroke-width="2" stroke-linecap="round" stroke-linejoin="round"/>
<path d="M37.9082 106.641L34.487 78.7246" stroke="#09544F" stroke-width="2" stroke-linecap="round" stroke-linejoin="round"/>
<path d="M69.5445 32.546L52.9111 22.96" stroke="#09544F" stroke-width="2" stroke-linecap="round" stroke-linejoin="round"/>
<path d="M46.4634 86.4928C46.0687 85.7479 45.6878 85.0434 45.3364 84.4058" stroke="#09544F" stroke-width="2" stroke-linecap="round" stroke-linejoin="round"/>
<path d="M140.937 34.3491L129.192 27.5425" stroke="#09544F" stroke-width="2" stroke-linecap="round" stroke-linejoin="round"/>
<path d="M100.816 92.6361L83.2589 84.3101" stroke="#09544F" stroke-width="2" stroke-linecap="round" stroke-linejoin="round"/>
<path d="M43.2998 90.9144L43.136 90.8474L41.8454 90.4533L41.7516 90.4266C41.5549 90.336 41.3788 90.2064 41.2339 90.0456C41.089 89.8849 40.9784 89.6964 40.9089 89.4916L40.8822 89.3691C40.5808 88.24 40.6821 87.0414 41.1686 85.9787C41.5878 85.223 42.3423 83.8506 43.3668 83.8506" stroke="#09544F" stroke-width="2" stroke-linecap="round" stroke-linejoin="round"/>
<path d="M96.2654 61.52L112.763 71.959" stroke="#09544F" stroke-width="2" stroke-linecap="round" stroke-linejoin="round"/>
<path d="M52.9112 22.9596C32.6755 16.9578 9.32453 59.4286 24.1268 72.7334" stroke="#09544F" stroke-width="2" stroke-linecap="round" stroke-linejoin="round"/>
</g>
<defs>
<clipPath id="clip0_563_98950">
<rect width="152" height="125" fill="white" transform="translate(4 17)"/>
</clipPath>
</defs>
</svg>
