<svg width="150" height="159" viewBox="0 0 150 159" fill="none" xmlns="http://www.w3.org/2000/svg">
<g clip-path="url(#clip0_563_98953)">
<g clip-path="url(#clip1_563_98953)">
<path d="M0.824819 129.582L51.1883 158.778C51.4389 158.924 51.723 159 52.0123 159C52.3015 159 52.5857 158.924 52.8362 158.778C52.8404 158.776 52.8421 158.771 52.8463 158.768C65.7362 151.373 136.026 110.267 149.046 102.657C149.296 102.512 149.503 102.303 149.647 102.053C149.791 101.802 149.867 101.518 149.868 101.229C149.871 99.5639 150 29.9165 150 30.8713C149.991 30.5828 149.91 30.3011 149.766 30.0511C149.623 29.8011 149.42 29.5907 149.175 29.4384L126.511 16.2878C126.324 16.179 126.117 16.1085 125.902 16.0801C125.687 16.0517 125.469 16.0661 125.259 16.1224C125.05 16.1788 124.854 16.2759 124.682 16.4084C124.51 16.5408 124.366 16.7059 124.258 16.8943C124.149 17.0827 124.079 17.2907 124.051 17.5063C124.023 17.722 124.037 17.9411 124.093 18.1512C124.149 18.3613 124.246 18.5583 124.378 18.7309C124.51 18.9034 124.674 19.0482 124.862 19.1569L145.061 30.8762L115.236 48.2789L110.738 45.6694L133.61 32.3043C133.86 32.1581 134.067 31.9487 134.21 31.697C134.354 31.4452 134.429 31.1601 134.429 30.87C134.428 30.5798 134.352 30.2949 134.208 30.0437C134.063 29.7925 133.855 29.5837 133.605 29.4384L98.8344 9.2993C98.5832 9.15334 98.2981 9.07661 98.0079 9.0769C97.7176 9.07718 97.4326 9.15447 97.1817 9.30092L72.6787 23.5879L68.1671 20.9702L97.9774 3.57228L106.455 8.49224C106.834 8.71186 107.284 8.77135 107.707 8.65761C108.13 8.54386 108.49 8.26621 108.709 7.88574C108.927 7.50526 108.987 7.05314 108.873 6.62881C108.76 6.20448 108.484 5.84271 108.105 5.62309L98.8006 0.222784C98.5492 0.0763147 98.2636 -0.000567339 97.973 3.15193e-06C97.6824 0.000573643 97.3971 0.078576 97.1463 0.226032C94.3726 1.8357 43.628 31.4549 1.02558 56.3452C1.00968 56.3539 0.990396 56.3497 0.974672 56.359C0.723879 56.5037 0.515446 56.7121 0.370388 56.9634C0.225329 57.2147 0.148709 57.4999 0.148296 57.7903C0.1142 73.9766 0.037625 110.343 0.00012272 128.145C-0.000134321 128.436 0.0759355 128.722 0.220703 128.974C0.36547 129.227 0.573793 129.436 0.824819 129.582ZM73.9973 63.2735L52.1516 76.0274L20.641 57.7628L42.4916 45.0085C45.7144 46.8768 30.8195 38.2418 73.9973 63.2735ZM38.0204 38.5873L64.881 22.8892C110.169 49.1724 109.557 48.8099 113.547 51.1249C113.535 76.3688 113.526 95.3736 113.514 119.552L87.0429 134.991L86.7018 67.7628C86.6214 67.198 86.3257 66.6866 85.8771 66.3363C18.1288 27.0527 106.162 78.091 38.0204 38.5873ZM53.8087 87.9339L83.4109 70.6724L83.482 84.4481L53.7795 101.787L53.8087 87.9339ZM53.7714 105.623L83.5018 88.2678L83.5726 102.042L53.7431 119.445C53.7437 119.112 53.7733 104.731 53.7714 105.623ZM50.4775 101.807L3.41163 74.5413L3.44078 60.6594L50.5035 87.9401L50.4775 101.807ZM50.4703 105.626C50.4697 105.96 50.442 120.397 50.4438 119.478L3.37434 92.1618L3.40357 78.3612L50.4703 105.626ZM3.36627 95.9835L50.4357 123.299L50.4073 136.78L3.33788 109.464L3.36627 95.9835ZM53.7358 123.279L83.5924 105.859L83.6619 119.317L53.7105 136.788L53.7358 123.279ZM146.637 65.226L116.843 82.597L116.849 68.8224L146.663 51.4221L146.637 65.226ZM146.67 47.5869L116.851 64.9903L116.857 51.1627L146.696 33.7534L146.67 47.5869ZM116.841 86.4295L146.63 69.0618L146.604 82.5841L116.835 99.9262L116.841 86.4295ZM3.30067 127.193L3.32982 113.286L50.3992 140.601L50.37 154.478L3.30067 127.193ZM53.677 154.455L53.7032 140.621L83.6813 123.135L83.7524 136.91L53.677 154.455ZM116.827 117.619L116.833 103.758L146.597 86.4182L146.571 100.271L116.827 117.619ZM98.0129 12.6472L129.49 30.8794L107.447 43.7597L75.9722 25.4988L98.0129 12.6472ZM34.7344 40.507L39.2022 43.0976L16.5205 56.3363C16.2707 56.4823 16.0634 56.6917 15.9195 56.9434C15.7756 57.1952 15.7001 57.4804 15.7006 57.7707C15.7011 58.0609 15.7776 58.3459 15.9224 58.5972C16.0671 58.8484 16.275 59.0571 16.5254 59.2022L51.3301 79.3753C51.5817 79.521 51.8672 79.5974 52.1577 79.5969C52.4481 79.5963 52.7333 79.5188 52.9844 79.3721L77.2905 65.183L81.7868 67.7901L52.1516 85.07L5.10319 57.7968L34.7344 40.507Z" fill="#09544F"/>
<path d="M118.668 15.565C119.047 15.7846 119.497 15.8441 119.92 15.7304C120.343 15.6166 120.703 15.339 120.922 14.9585C121.14 14.578 121.2 14.1259 121.086 13.7015C120.973 13.2772 120.697 12.9155 120.318 12.6958L114.011 9.04063C113.824 8.9316 113.616 8.86078 113.402 8.83221C113.187 8.80363 112.968 8.81786 112.759 8.8741C112.549 8.93034 112.353 9.02749 112.181 9.15997C112.009 9.29245 111.865 9.45768 111.756 9.6462C111.648 9.83473 111.578 10.0429 111.549 10.2587C111.521 10.4745 111.535 10.6938 111.592 10.904C111.648 11.1143 111.745 11.3113 111.877 11.4839C112.009 11.6564 112.174 11.8012 112.362 11.9098L118.668 15.565Z" fill="#09544F"/>
<path d="M108.481 33.5674C112.867 31.0122 112.693 26.3775 108.441 23.9118C104.693 21.7398 98.8376 21.7398 95.1118 23.9151C90.8993 26.3729 90.7296 31.005 95.1537 33.5706C98.8963 35.7387 104.753 35.7467 108.481 33.5674ZM96.8031 30.7014C94.6928 29.4797 94.6608 28.0119 96.7693 26.7778C99.4772 25.2015 104.065 25.2003 106.792 26.781C108.872 27.9866 108.967 29.4525 106.824 30.7047C104.168 32.2557 99.4819 32.2525 96.8031 30.7014Z" fill="#09544F"/>
<path d="M41.7103 64.7547C45.4529 66.9228 51.3098 66.9308 55.0381 64.7515C59.4335 62.1905 59.2398 57.5549 54.9962 55.096C51.2479 52.9255 45.3926 52.9222 41.6668 55.0992C37.4587 57.5544 37.2836 62.1876 41.7103 64.7547ZM43.3243 57.9618C46.0322 56.3855 50.6199 56.3844 53.3468 57.9651C55.4558 59.1875 55.4953 60.6564 53.3805 61.8887C50.7227 63.4382 46.0402 63.4414 43.3598 61.8855C41.2434 60.6588 41.2231 59.1883 43.3243 57.9618Z" fill="#09544F"/>
</g>
</g>
<defs>
<clipPath id="clip0_563_98953">
<rect width="150" height="159" fill="white"/>
</clipPath>
<clipPath id="clip1_563_98953">
<rect width="150" height="159" fill="white"/>
</clipPath>
</defs>
</svg>
