<svg width="208" height="36" fill="none" xmlns="http://www.w3.org/2000/svg"><g clip-path="url(#a)"><path d="M204.194 2.736C201.543.917 197.532 0 192.273 0h-13.771l-5.119 27.837h-18.041l1.16-6.316h10.867l1.288-7.093-10.862.016 1.163-6.288h11.194l1.489-8.154h-22.732l-4.86 26.405h-8.342L140.6 0h-11.883l-4.86 26.405h-8.127L120.628 0h-11.877l-5.126 27.837h-18.17l1.148-6.315h10.912l1.289-7.053-10.9-.011 1.156-6.3h11.319L101.859 0H31.021L26.99 22.058 18.96 0H6.632L-.005 36H11.77l4.017-22.668L23.577 36h42.198l5.13-27.846h6.6L72.375 36h111.03l3.219-17.578L191.832 36h11.78l-5.396-14.363 1.234-.266c2.72-.584 4.84-1.838 6.317-3.717 1.475-1.897 2.227-4.333 2.227-7.259 0-3.405-1.244-5.911-3.804-7.661l.004.002ZM55.529 27.837H37.506l1.164-6.316h11.305l1.281-7.113H40.06l1.079-6.25h17.997l-3.61 19.68h.003Zm138.958-12.126c-1.185.83-2.902 1.234-5.251 1.234h-2.328l1.786-9.661h1.713c1.95 0 3.372.313 4.353.951.766.501 1.677 1.492 1.677 3.366-.003 2.266-1.062 3.484-1.953 4.11h.003Z" fill="#83BA3B"/></g><defs><clipPath id="a"><path fill="#fff" d="M0 0h208v36H0z"/></clipPath></defs></svg>