<svg width="114" height="114" viewBox="0 0 114 114" fill="none" xmlns="http://www.w3.org/2000/svg">
<path fill-rule="evenodd" clip-rule="evenodd" d="M0 13.8098V27.6197H13.7957H27.5913V13.8098V0H13.7957H0V13.8098ZM39.3902 3.89262L39.4043 7.78523L41.2906 7.7997L43.1768 7.81417V3.90709V0H41.2764H39.3761L39.3902 3.89262ZM47.1971 2.0082V4.01641H49.2072H51.2174V5.91458V7.81274H49.2072H47.1971V11.8016V15.7905H59.0101H70.8232V17.6887V19.5869H74.7058H78.5884V23.6033V27.6197H76.6058H74.6232V25.6115V23.6033H72.7232H70.8232V25.6115V27.6197H72.7239H74.6246L74.6101 29.5041L74.5956 31.3885L70.6993 31.4027L66.8029 31.4167V25.5018V19.5869H60.9101H55.0174V23.6033V27.6197H57H58.9826V25.6115V23.6033H60.8826H62.7826V27.5097V31.416H60.882H58.9812L58.9957 33.4105L59.0101 35.4049L62.9065 35.4191L66.8029 35.4331V37.4135V39.3938H60.9108H55.0188L55.0043 37.3994L54.9899 35.4049L51.0935 35.3908L47.1971 35.3767V31.4982V27.6197H49.2072H51.2174V23.6033V19.5869H47.1971H43.1768V21.5951V23.6033H41.2764H39.3761L39.3902 19.7107L39.4043 15.8181L41.2906 15.8036L43.1768 15.7891V13.7816V11.7741H37.2841H31.3913V13.7823V15.7905H33.3739H35.3565V17.6887V19.5869H33.3739H31.3913V23.6033V27.6197H33.3739H35.3565V29.5179V31.416H29.4638H23.571V33.4242V35.4324H31.4739H39.3768V39.3113V43.1902H41.2768H43.1768V39.3113V35.4324H45.187H47.1971V37.4131V39.3938H49.2072H51.2174V41.292V43.1902H49.2072H47.1971V47.2066V51.223H49.2072H51.2174V49.2148V47.2066H53.1174H55.0174V49.2148V51.223H58.9H62.7826V53.1211V55.0193H60.8826H58.9826V57V58.9807H57H55.0174V60.8789V62.777H57H58.9826V64.7852V66.7934H53.0899H47.1971V62.8871V58.9807H49.2072H51.2174V57V55.0193H47.1971H43.1768V56.9996V58.98L39.2804 58.9941L35.3841 59.0082L35.3696 60.8926L35.3551 62.777H33.3732H31.3913V64.7852V66.7934H33.3739H35.3565V68.8016V70.8098H33.3739H31.3913V74.6884V78.5671L25.4848 78.581L19.5783 78.5951L19.5638 80.5892L19.5493 82.5835L25.4566 82.5975L31.3638 82.6115L31.3779 86.5041L31.392 90.3967H33.3743H35.3565V92.4049V94.4131H33.3739H31.3913V104.207V114H33.4015H35.4116V111.992V109.984H37.3942H39.3768V111.992V114H41.2768H43.1768V110.094V106.187H41.2768H39.3768V104.179V102.171H37.3942H35.4116V98.292V94.4131H37.3942H39.3768V90.3967V86.3803H41.2768H43.1768V92.2949V98.2095H45.187H47.1971V100.218V102.226H49.2072H51.2174V104.207V106.187H49.2072H47.1971V110.094V114H49.2072H51.2174V111.992V109.984H53.1174H55.0174V111.992V114H57H58.9826V111.992V109.984H57H55.0174V108.085V106.187H58.9H62.7826V108.085V109.984H64.7928H66.8029V111.992V114H72.7232H78.6435V111.992V109.984H80.6261H82.6087V111.992V114H90.429H98.2493V111.992V109.984H100.232H102.214V111.992V114H104.225H106.235V111.992V109.984H108.135H110.035V106.105V102.226H112.017H114V100.218V98.2102L110.131 98.1961L106.262 98.1819L106.248 96.2975L106.233 94.4131H110.117H114V92.4049V90.3967H110.117H106.235V88.3885V86.3803H110.117H114V82.4739V78.5676H112.017H110.035V76.5869V74.6062H108.135H106.234L106.248 68.7054L106.262 62.8045L108.149 62.7901L110.035 62.7756V60.8781V58.9807H108.135H106.235V57V55.0193H102.242H98.2493V53.1211V51.223H102.242H106.235V49.2148V47.2066H108.135H110.035V45.1984V43.1902H108.135H106.235V45.1984V47.2066H104.253H102.271L102.256 45.2121L102.242 43.2177L100.246 43.2032L98.2493 43.1888V39.3113V35.4338L100.246 35.4193L102.242 35.4049L102.256 33.4105L102.271 31.416H100.26H98.2493V33.3967V35.3774H96.3493H94.4493V33.3967V31.416H92.4391H90.429V33.3967V35.3774H88.4188H86.4087V33.3967V31.416H84.5087H82.6087V33.3967V35.3774H80.6261H78.6435V31.4986V27.6197H80.6261H82.6087V23.6033V19.5869H80.6261H78.6435V15.708V11.8292H80.6261H82.6087V9.82095V7.81274H78.6159H74.6232V11.8016V15.7905H72.7238H70.8246L70.8101 13.7961L70.7957 11.8016L66.7891 11.7875L62.7826 11.7734V7.89488V4.01641H72.6957H82.6087V2.0082V0H72.6957H62.7826V2.0082V4.01641H57H51.2174V2.0082V0H49.2072H47.1971V2.0082ZM86.4087 13.8098V27.6197H100.204H114V13.8098V0H100.204H86.4087V13.8098ZM23.571 13.8098V23.6033H13.7681H3.96522V13.8098V4.01641H13.7681H23.571V13.8098ZM31.3913 5.91524V7.81412L33.3877 7.79965L35.3841 7.78523L35.3985 5.90082L35.413 4.01641H33.4022H31.3913V5.91524ZM110.035 13.8098V23.6033H100.232H90.429V13.8098V4.01641H100.232H110.035V13.8098ZM7.76522 13.6998V19.5869H13.658H19.5507V13.6998V7.81274H13.658H7.76522V13.6998ZM58.9826 9.79344V11.7741H55.1H51.2174V9.79344V7.81274H55.1H58.9826V9.79344ZM94.4493 13.6998V19.5869H100.342H106.235V13.6998V7.81274H100.342H94.4493V13.6998ZM39.3768 25.6115V27.6197H37.3942H35.4116V25.6115V23.6033H37.3942H39.3768V25.6115ZM47.1971 25.6115V27.6197H45.187H43.1768V25.6115V23.6033H45.187H47.1971V25.6115ZM0 37.3031V43.1902H5.86522H11.7304V47.2066V51.223H9.74783H7.76522V49.2148V47.2066H3.88261H0V51.1129V55.0193H5.86522H11.7304V57V58.9807H13.7406H15.7507V57V55.0193H17.6507H19.5507V57V58.9807H23.571H27.5913V57.0007V55.0207L29.4775 55.0063L31.3638 54.9918L31.3783 53.1074L31.3927 51.223H29.492H27.5913V49.2148V47.2066H25.5812H23.571V45.1984V43.1902H25.5812H27.5913V41.292V39.3938H25.5812H23.571V41.292V43.1902H21.5609H19.5507V41.292V39.3938H15.6681H11.7855V37.4131V35.4324H15.6681H19.5507V33.4242V31.416H9.77536H0V37.3031ZM43.1768 33.3967V35.3774H41.2768H39.3768V33.3967V31.416H41.2768H43.1768V33.3967ZM106.248 33.4105L106.262 35.4049L108.149 35.4194L110.035 35.4339V37.4138V39.3938H112.017H114V37.3856V35.3774H112.017H110.035V33.3967V31.416H108.134H106.233L106.248 33.4105ZM82.6087 41.292V43.1902H84.5087H86.4087V41.292V39.3938H90.429H94.4493V43.3002V47.2066H96.3499H98.2507L98.2362 49.201L98.2217 51.1955L96.3355 51.2099L94.4493 51.2244V49.2155V47.2066H92.4391H90.429V49.2148V51.223H88.4188H86.4087V49.2148V47.2066H84.5087H82.6087V49.2148V51.223H80.6261H78.6435V49.2148V47.2066H80.6261H82.6087V45.1984V43.1902H78.6159H74.6232V45.1984V47.2066H70.713H66.8029V49.2148V51.223H70.713H74.6232V53.1211V55.0193H76.6058H78.5884V57V58.9807H80.5985H82.6087V57V55.0193H84.5087H86.4087V57V58.9807H84.5087H82.6087V60.8789V62.777H86.5188H90.429V60.8789V58.9807H92.4391H94.4493V57V55.0193H96.3493H98.2493V57V58.9807H102.242H106.235V60.8789V62.777H102.242H98.2493V64.7852V66.7934H100.231H102.214L102.228 70.6861L102.242 74.5787L104.238 74.5931L106.235 74.6076V76.5869V78.5662L104.238 78.5807L102.242 78.5951L102.228 80.5895L102.213 82.584H100.231H98.2493V78.5951V74.6062H96.3493H94.4493V76.5869V78.5676H92.4391H90.429V74.6887V70.8098H94.3391H98.2493V68.8016V66.7934H96.3493H94.4493V64.7852V62.777H92.4391H90.429V64.7852V66.7934H84.5369H78.6449L78.6304 64.799L78.6159 62.8045L76.6196 62.7901L74.6232 62.7757V58.8975V55.0193H72.7232H70.8232V58.8982V62.777H68.813H66.8029V64.7852V66.7934H70.713H74.6232V68.8016V70.8098H80.5159H86.4087V74.6887V78.5676H84.5087H82.6087V76.5869V74.6062H80.5985H78.5884V76.5869V78.5676H76.6058H74.6232V74.6887V70.8098H72.7232H70.8232V74.7162V78.6226H72.7232H74.6232V80.6033V82.584H76.6058H78.5884V84.4821V86.3803H74.7058H70.8232V84.4821V82.584H66.8029H62.7826V84.4821V86.3803H60.8826H58.9826V88.3885V90.3967H64.9029H70.8232V92.4049V94.4131H74.7058H78.5884V96.3113V98.2095H76.6058H74.6232V102.198V106.187H76.6058H78.5884V108.085V109.984H76.6058H74.6232V108.085V106.187H72.7232H70.8232V108.085V109.984H68.813H66.8029V106.077V102.171H62.8928H58.9826V100.19V98.2095H53.0899H47.1971V94.3031V90.3967H49.2072H51.2174V88.3885V86.3803H47.1971H43.1768V84.4821V82.584H41.2768H39.3768V84.4821V86.3803H37.3942H35.4116V84.4821V82.584H37.3942H39.3768V80.6033V78.6226H41.2768H43.1768V76.6144V74.6062H41.2768H39.3768V76.5869V78.5676H37.3942H35.4116V76.5869V74.6062H37.3942H39.3768V72.708V70.8098H41.2768H43.1768V68.8016V66.7934H39.2942H35.4116V64.7852V62.777H39.2942H43.1768V64.7852V66.7934H45.187H47.1971V68.8016V70.8098H49.2072H51.2174V72.708V74.6062H49.2072H47.1971V78.5951V82.584H49.2072H51.2174V80.6033V78.6226H53.1174H55.0174V80.6033V82.584H58.9H62.7826V80.5758V78.5676H58.9H55.0174V76.5869V74.6062H60.9101H66.8029V70.6998V66.7934H64.7928H62.7826V68.8016V70.8098H60.8826H58.9826V68.8016V66.7934H60.8826H62.7826V64.7852V62.777H60.8819H58.9812L58.9957 60.8926L59.0101 59.0082L60.8964 58.9937L62.7826 58.9793V56.9993V55.0193H64.7928H66.8029V53.1211V51.223H64.7928H62.7826V49.2148V47.2066H58.9H55.0174V45.1984V43.1902H62.9203H70.8232V41.292V39.3938H76.7159H82.6087V41.292ZM19.5507 45.1984V47.2066H17.6507H15.7507V45.1984V43.1902H17.6507H19.5507V45.1984ZM31.3913 45.1977V47.2066H33.3735H35.3558L35.3699 51.0992L35.3841 54.9918L37.3804 55.0062L39.3768 55.0207V53.1218V51.223H41.2768H43.1768V49.2148V47.2066H39.2949H35.413L35.3985 45.2121L35.3841 43.2177L33.3877 43.2032L31.3913 43.1888V45.1977ZM15.7507 53.1211V55.0193H13.7681H11.7855V53.1211V51.223H13.7681H15.7507V53.1211ZM27.5913 53.1211V55.0193H23.571H19.5507V53.1211V51.223H23.571H27.5913V53.1211ZM110.035 53.1211V55.0193H112.017H114V53.1211V51.223H112.017H110.035V53.1211ZM0 60.8789V62.777H1.98261H3.96522V60.8789V58.9807H1.98261H0V60.8789ZM94.4493 60.8789V62.777H96.3493H98.2493V60.8789V58.9807H96.3493H94.4493V60.8789ZM11.7672 62.8137C11.747 62.8339 11.7304 63.7376 11.7304 64.8219V66.7934H13.7406H15.7507V68.8016V70.8098H17.6507H19.5507V68.8016V66.7934H23.571H27.5913V64.7852V62.777H23.571H19.5507V64.7852V66.7934H17.6507H15.7507V64.7852V62.777H13.7773C12.6919 62.777 11.7873 62.7935 11.7672 62.8137ZM0 74.6887V82.584H1.98261H3.96522V76.6969V70.8098H5.86522H7.76522V72.7087V74.6076L9.76159 74.5931L11.758 74.5787L11.7725 72.6943L11.7869 70.8098H9.77608H7.76522V68.8016V66.7934H3.88261H0V74.6887ZM110.035 68.8016V70.8098H112.017H114V68.8016V66.7934H112.017H110.035V68.8016ZM23.571 72.708V74.6062H25.5812H27.5913V72.708V70.8098H25.5812H23.571V72.708ZM7.76522 80.5751V82.584H9.77602H11.7869L11.7724 80.5895L11.758 78.5951L9.76159 78.5807L7.76522 78.5662V80.5751ZM35.3565 80.6033V82.584H33.3739H31.3913V80.6033V78.6226H33.3739H35.3565V80.6033ZM94.4493 88.4986V94.4131H88.529H82.6087V88.5352C82.6087 85.3024 82.6252 82.6408 82.6454 82.6207C82.6656 82.6005 85.3297 82.584 88.5657 82.584H94.4493V88.4986ZM0 100.19V114H13.7957H27.5913V100.19V86.3803H13.7957H0V100.19ZM86.4087 88.3885V90.3967H88.4188H90.429V88.3885V86.3803H88.4188H86.4087V88.3885ZM23.571 100.19V109.984H13.7681H3.96522V100.19V90.3967H13.7681H23.571V100.19ZM55.0174 92.4049V94.4131H57H58.9826V96.3113V98.2095H64.9029H70.8232V96.3113V94.4131H64.9029H58.9826V92.4049V90.3967H57H55.0174V92.4049ZM106.235 92.4049V94.4131H104.225H102.214V96.3113V98.2095H100.232H98.2493V100.19V102.17L90.4428 102.184L82.6362 102.198L82.6218 104.193L82.6073 106.187H80.6254H78.6435V102.198V98.2095H88.4464H98.2493V94.3031V90.3967H102.242H106.235V92.4049ZM7.76522 100.3V106.187H13.658H19.5507V100.3V94.4131H13.658H7.76522V100.3ZM86.4087 108.085V109.984H84.5087H82.6087V108.122C82.6087 107.098 82.6252 106.244 82.6454 106.224C82.6656 106.204 83.5206 106.187 84.5454 106.187H86.4087V108.085ZM98.2362 108.099L98.2507 109.984H94.3398H90.429V108.085V106.187L94.3254 106.201L98.2217 106.215L98.2362 108.099ZM106.235 108.085V109.984H104.252H102.27V108.085V106.187H104.252H106.235V108.085Z" fill="#000"/>
</svg>
