<svg width="220" height="168" viewBox="0 0 220 168" fill="none" xmlns="http://www.w3.org/2000/svg">
<path d="M155.122 0H64.8776C58.8701 0 54 4.87005 54 10.8776V101.122C54 107.13 58.8701 112 64.8776 112H155.122C161.13 112 166 107.13 166 101.122V10.8776C166 4.87005 161.13 0 155.122 0Z" fill="#00BE40"/>
<path d="M143.961 70.8849H76.244V76.2705H143.961V70.8849Z" fill="white"/>
<path d="M94.7253 44.0347V38.5569H76.244V64.1245H82.9974V55.0327H93.4427V49.5479H82.9974V44.0347H94.7253Z" fill="white"/>
<path d="M114.943 50.8659C117.643 49.6187 119.067 47.6487 119.067 45.1968C119.067 41.0655 116.006 38.5853 110.847 38.5853H97.7654V64.1245H110.989C116.615 64.1245 119.974 61.4601 119.974 56.9319C119.974 54.0052 118.11 51.8155 114.943 50.8659ZM104.377 43.7441H109.6C111.499 43.7441 112.519 44.6158 112.519 46.2315C112.519 47.8471 111.499 48.7117 109.6 48.7117H104.377V43.7441ZM110.046 58.9373H104.377V53.8564H110.11C112.009 53.8564 113.072 54.7634 113.072 56.4854C113.072 58.1082 112.009 58.9373 110.039 58.9373H110.046Z" fill="white"/>
<path d="M136.273 48.5983L133.197 48.1873C130.164 47.7479 129.271 47.0038 129.271 45.5937C129.271 44.1835 130.455 43.2197 133.091 43.2197C135.529 43.2197 136.726 44.1197 137.3 46.3448L143.727 45.5157C142.785 40.4844 139.171 38.0396 133.275 38.0396C126.678 38.0396 122.341 41.3348 122.341 46.3732C122.341 50.7029 124.97 53.2257 130.348 53.9697L133.566 54.4091C136.974 54.8981 137.817 55.6705 137.817 57.1586C137.817 58.6467 136.556 59.5325 133.566 59.5325C132.494 59.5817 131.437 59.2737 130.56 58.6567C129.682 58.0398 129.035 57.1489 128.719 56.124L122.022 57.1303C123.106 62.3387 127.067 64.7127 133.36 64.7127C140.51 64.7127 144.734 61.6372 144.734 56.4145C144.705 51.8226 142.126 49.4486 136.273 48.5983Z" fill="white"/>
<path d="M9.06403 163H12.688V156.448H21.136C24.376 156.448 26.776 154.744 26.776 151.336C26.776 148.528 24.616 146.2 21.136 146.2H9.06403V163ZM12.664 153.496V149.152H20.536C22.336 149.152 23.152 149.824 23.152 151.336C23.152 152.848 22.336 153.496 20.536 153.496H12.664Z" fill="black"/>
<path d="M35.5698 163.384C38.6418 163.384 40.0098 163.048 42.2658 162.208V159.304C40.8978 159.88 39.6978 160.624 36.7698 160.624C33.7698 160.624 32.3298 159.88 31.9458 158.032H42.7938V156.064C42.7218 152.8 39.8658 150.616 35.5698 150.616C31.2258 150.616 28.3458 153.16 28.3458 157C28.3458 160.84 31.2258 163.384 35.5698 163.384ZM31.8738 156.376C32.0658 154.552 33.5538 153.424 35.5698 153.424C37.7538 153.424 39.2898 154.48 39.3618 156.208L31.8738 156.376Z" fill="black"/>
<path d="M45.7411 163H49.3411V158.968C49.3411 155.104 51.3571 153.664 56.3011 153.664V150.616C51.9091 150.616 50.0611 152.008 49.4371 155.464H49.1971L49.6771 151H45.7411V163Z" fill="black"/>
<path d="M64.7575 163.384C68.9815 163.384 71.8135 162.208 71.8135 159.4C71.8135 154.168 61.3255 156.736 61.3255 154.648C61.3255 153.88 62.5015 153.496 65.2615 153.496C67.0615 153.496 69.1495 153.832 70.8535 154.192V151.288C68.7655 150.88 66.2935 150.616 64.8535 150.616C60.6295 150.616 57.7975 151.912 57.7975 154.648C57.7975 159.808 68.2855 157.168 68.2855 159.352C68.2855 160.264 67.0375 160.552 64.1815 160.552C62.0695 160.552 60.3415 160.192 58.3255 159.424V162.448C60.3175 163.024 62.9095 163.384 64.7575 163.384Z" fill="black"/>
<path d="M81.472 163.384C86.008 163.384 89.008 160.84 89.008 157C89.008 153.16 86.008 150.616 81.472 150.616C76.936 150.616 73.912 153.16 73.912 157C73.912 160.84 76.936 163.384 81.472 163.384ZM81.472 160.576C78.976 160.576 77.296 159.136 77.296 157C77.296 154.864 78.976 153.424 81.472 153.424C83.968 153.424 85.648 154.864 85.648 157C85.648 159.136 83.968 160.576 81.472 160.576Z" fill="black"/>
<path d="M91.823 163H95.423V159.592C95.423 155.824 97.031 153.328 99.551 153.328C101.807 153.328 102.767 154.648 102.767 158.2V163H106.367V157.792C106.367 152.464 104.783 150.664 101.399 150.616C97.751 150.616 96.023 152.656 95.495 155.944H95.279L95.759 151H91.823V163Z" fill="black"/>
<path d="M113.472 163.384C117.144 163.384 119.304 161.992 120.072 158.944H120.288L119.664 163H123.192V156.232C123.192 152.872 121.56 150.616 117.264 150.616C115.152 150.616 112.536 151.168 110.52 151.912V154.84C112.128 154.144 114.432 153.544 116.304 153.544C118.536 153.544 119.568 154.168 119.592 155.92C115.32 156.232 109.008 156.784 109.008 160.216C109.008 163 111.696 163.384 113.472 163.384ZM114.984 160.864C113.664 160.864 112.776 160.408 112.776 159.616C112.776 158.008 116.76 157.888 119.544 157.672C119.52 159.808 117.24 160.864 114.984 160.864Z" fill="black"/>
<path d="M126.856 163H130.456V146.2H126.856V163Z" fill="black"/>
<path d="M141.654 163H145.854L147.87 159.544H160.182L162.174 163H166.374L156.15 146.2H151.878L141.654 163ZM149.598 156.496L154.038 148.864L158.43 156.496H149.598Z" fill="black"/>
<path d="M168.454 163H172.054V158.968C172.054 155.104 174.07 153.664 179.014 153.664V150.616C174.622 150.616 172.774 152.008 172.15 155.464H171.91L172.39 151H168.454V163Z" fill="black"/>
<path d="M187.356 163.384C190.428 163.384 191.796 163.048 194.052 162.208V159.304C192.684 159.88 191.484 160.624 188.556 160.624C185.556 160.624 184.116 159.88 183.732 158.032H194.58V156.064C194.508 152.8 191.652 150.616 187.356 150.616C183.012 150.616 180.132 153.16 180.132 157C180.132 160.84 183.012 163.384 187.356 163.384ZM183.66 156.376C183.852 154.552 185.34 153.424 187.356 153.424C189.54 153.424 191.076 154.48 191.148 156.208L183.66 156.376Z" fill="black"/>
<path d="M201.441 163.384C205.113 163.384 207.273 161.992 208.041 158.944H208.257L207.633 163H211.161V156.232C211.161 152.872 209.529 150.616 205.233 150.616C203.121 150.616 200.505 151.168 198.489 151.912V154.84C200.097 154.144 202.401 153.544 204.273 153.544C206.505 153.544 207.537 154.168 207.561 155.92C203.289 156.232 196.977 156.784 196.977 160.216C196.977 163 199.665 163.384 201.441 163.384ZM202.953 160.864C201.633 160.864 200.745 160.408 200.745 159.616C200.745 158.008 204.729 157.888 207.513 157.672C207.489 159.808 205.209 160.864 202.953 160.864Z" fill="black"/>
</svg>
