<svg width="101" height="100" viewBox="0 0 101 100" fill="none" xmlns="http://www.w3.org/2000/svg">
<circle cx="50.5003" cy="49.9994" r="29.2917" fill="#80C342"/>
<mask id="path-2-inside-1" fill="white">
<path d="M69.6943 19.3761C69.9459 18.9746 69.825 18.4442 69.4178 18.2019C61.7171 13.6204 52.6048 11.9841 43.7744 13.6164C34.6626 15.3008 26.5144 20.3428 20.941 27.7455C15.3676 35.1482 12.7748 44.3727 13.6751 53.595C14.5754 62.8174 18.9034 71.3663 25.8033 77.5513C32.7032 83.7363 41.6727 87.1072 50.9382 86.9974C60.2038 86.8877 69.0909 83.3053 75.8424 76.9586C82.5938 70.6119 86.7181 61.9629 87.3998 52.7218C88.0603 43.7662 85.4411 34.8863 80.0479 27.7307C79.7627 27.3523 79.2223 27.2898 78.8506 27.5837C78.4789 27.8776 78.4168 28.4165 78.7015 28.7952C83.8285 35.6135 86.3175 44.0686 85.6885 52.5956C85.0385 61.4081 81.1055 69.656 74.6671 75.7084C68.2288 81.7607 59.7538 85.177 50.9179 85.2817C42.082 85.3863 33.5285 82.1718 26.9486 76.2736C20.3687 70.3754 16.2414 62.223 15.3828 53.4283C14.5243 44.6336 16.9969 35.8369 22.3118 28.7775C27.6268 21.7181 35.3971 16.9099 44.0863 15.3037C52.4941 13.7495 61.1699 15.3026 68.5062 19.6562C68.9137 19.898 69.4427 19.7775 69.6943 19.3761Z"/>
</mask>
<path d="M69.6943 19.3761C69.9459 18.9746 69.825 18.4442 69.4178 18.2019C61.7171 13.6204 52.6048 11.9841 43.7744 13.6164C34.6626 15.3008 26.5144 20.3428 20.941 27.7455C15.3676 35.1482 12.7748 44.3727 13.6751 53.595C14.5754 62.8174 18.9034 71.3663 25.8033 77.5513C32.7032 83.7363 41.6727 87.1072 50.9382 86.9974C60.2038 86.8877 69.0909 83.3053 75.8424 76.9586C82.5938 70.6119 86.7181 61.9629 87.3998 52.7218C88.0603 43.7662 85.4411 34.8863 80.0479 27.7307C79.7627 27.3523 79.2223 27.2898 78.8506 27.5837C78.4789 27.8776 78.4168 28.4165 78.7015 28.7952C83.8285 35.6135 86.3175 44.0686 85.6885 52.5956C85.0385 61.4081 81.1055 69.656 74.6671 75.7084C68.2288 81.7607 59.7538 85.177 50.9179 85.2817C42.082 85.3863 33.5285 82.1718 26.9486 76.2736C20.3687 70.3754 16.2414 62.223 15.3828 53.4283C14.5243 44.6336 16.9969 35.8369 22.3118 28.7775C27.6268 21.7181 35.3971 16.9099 44.0863 15.3037C52.4941 13.7495 61.1699 15.3026 68.5062 19.6562C68.9137 19.898 69.4427 19.7775 69.6943 19.3761Z" fill="white" stroke="#80C342" stroke-width="2.6869" mask="url(#path-2-inside-1)"/>
<path fill-rule="evenodd" clip-rule="evenodd" d="M71.2209 20.689C71.6312 20.5754 71.8717 20.1508 71.7581 19.7405L70.5244 15.2831C70.4108 14.8728 69.9862 14.6322 69.5759 14.7458C69.1656 14.8593 68.925 15.284 69.0386 15.6943L70.0667 19.4087L66.3521 20.4369C65.9418 20.5504 65.7013 20.9751 65.8148 21.3854C65.9284 21.7957 66.3531 22.0362 66.7634 21.9227L71.2106 20.6918C71.214 20.6909 71.2174 20.6899 71.2209 20.689Z" fill="#80C342"/>
<path d="M42.931 47.6217H49.1683V52.1312H42.931V59.1806H38.1796V52.1312H31.9251V47.6217H38.1796V40.8661H42.931V47.6217ZM63.9063 55.0857C63.9063 54.1412 63.6413 53.3925 63.1115 52.8396C62.5931 52.2752 61.7062 51.7569 60.4507 51.2846C59.1952 50.8124 58.1124 50.3459 57.2025 49.8851C56.2925 49.4129 55.5092 48.8772 54.8527 48.2783C54.2077 47.6678 53.7008 46.9537 53.3322 46.1358C52.9752 45.318 52.7966 44.3447 52.7966 43.2159C52.7966 41.2693 53.4186 39.6739 54.6626 38.4299C55.9066 37.1859 57.5595 36.4603 59.6214 36.2529V32.5555H62.3858V36.3048C64.4246 36.5927 66.0199 37.4451 67.1718 38.8619C68.3236 40.2671 68.8995 42.0928 68.8995 44.3389H63.9063C63.9063 42.9567 63.6183 41.9258 63.0424 41.2462C62.478 40.5551 61.7177 40.2096 60.7617 40.2096C59.8172 40.2096 59.0858 40.4802 58.5674 41.0216C58.0491 41.5515 57.7899 42.2886 57.7899 43.2332C57.7899 44.1086 58.0433 44.8112 58.5501 45.3411C59.057 45.8709 59.9957 46.4123 61.3664 46.9652C62.7486 47.5181 63.8832 48.0422 64.7701 48.5374C65.6571 49.0212 66.4058 49.5741 67.0163 50.1961C67.6267 50.8066 68.0932 51.5092 68.4158 52.304C68.7383 53.0873 68.8995 54.003 68.8995 55.0512C68.8995 57.0093 68.2891 58.5989 67.0681 59.8198C65.8471 61.0408 64.1654 61.7607 62.023 61.9796V65.4178H59.2758V61.9968C56.9145 61.7434 55.0831 60.9083 53.7815 59.4916C52.4914 58.0633 51.8464 56.1685 51.8464 53.8072H56.8396C56.8396 55.1779 57.1622 56.2318 57.8072 56.969C58.4638 57.6947 59.4025 58.0575 60.6235 58.0575C61.6371 58.0575 62.4376 57.7926 63.0251 57.2627C63.6125 56.7214 63.9063 55.9957 63.9063 55.0857Z" fill="white"/>
</svg>
