<svg width="91" height="90" viewBox="0 0 91 90" fill="none" xmlns="http://www.w3.org/2000/svg">
<path fill-rule="evenodd" clip-rule="evenodd" d="M9.10001 19.8C6.33858 19.8 4.10001 22.0386 4.10001 24.8V74.2C4.10001 76.9614 6.33858 79.2 9.1 79.2H34.6887C35.2191 79.2 35.7278 79.4107 36.1029 79.7858L43.2684 86.9513C44.0495 87.7324 45.3158 87.7324 46.0968 86.9513L53.2624 79.7858C53.6374 79.4107 54.1462 79.2 54.6766 79.2H81.9C84.6614 79.2 86.9 76.9614 86.9 74.2V24.8C86.9 22.0386 84.6614 19.8 81.9 19.8H9.10001Z" fill="#80C342"/>
<path d="M20.6994 68.022C19.9638 68.022 19.2458 67.6513 18.8286 66.976C18.1918 65.9389 18.508 64.5797 19.54 63.9398L42.5962 49.5969C43.4591 49.0607 44.5856 49.1865 45.3036 49.9124L52.5345 57.1788L65.2549 44.396C66.1134 43.5332 67.5012 43.5332 68.3598 44.396C69.2183 45.2587 69.2183 46.6533 68.3598 47.5161L54.0869 61.8589C53.2284 62.7217 51.8406 62.7217 50.982 61.8589L43.4284 54.2683L21.8522 67.691C21.4921 67.916 21.0947 68.022 20.6994 68.022Z" fill="white"/>
<path d="M69.1346 54.711C68.5578 54.711 67.9899 54.4848 67.5662 54.061L58.6924 45.187C58.0579 44.5525 57.8672 43.5985 58.211 42.7688C58.5549 41.9413 59.3646 41.4 60.2609 41.4H69.1346C70.3614 41.4 71.353 42.3939 71.353 43.6185V52.4925C71.353 53.3888 70.814 54.1986 69.9843 54.5424C69.7092 54.6556 69.4208 54.711 69.1346 54.711Z" fill="white"/>
<path d="M38.3732 36.1127V38.5813C38.3732 40.6728 36.7655 42.3871 34.7719 42.3871H28.8554C27.119 42.3871 25.2541 41.0156 25.2541 37.9641V36.1127H38.3732Z" fill="#64A33A"/>
<path d="M46.3582 18.0606C46.3582 22.4266 44.457 26.5015 41.1301 29.2505C39.7993 30.3501 38.9438 31.773 38.6587 33.2607H25.5727C25.3509 31.8054 24.5587 30.4471 23.2597 29.4122C19.7426 26.5986 17.7464 22.3619 17.8415 17.7696C17.9999 10.0725 24.3053 3.7014 31.878 3.60438C35.7119 3.50736 39.3874 5.02737 42.144 7.80866C44.8689 10.5253 46.3582 14.1798 46.3582 18.0606Z" fill="#64A33A"/>
</svg>
