<svg width="132" height="17" viewBox="0 0 132 17" fill="none" xmlns="http://www.w3.org/2000/svg">
<g clip-path="url(#clip0)">
<g clip-path="url(#clip1)">
<path d="M8 0.313721L10.4453 5.61855L16 6.42535L11.9573 10.5105L12.944 16.3137L8 13.533L3.05533 16.3137L4.04267 10.5105L0 6.42535L5.55467 5.61855L8 0.313721Z" fill="#FFC700"/>
<path d="M28 0.313721L30.4453 5.61855L36 6.42535L31.9573 10.5105L32.944 16.3137L28 13.533L23.0553 16.3137L24.0427 10.5105L20 6.42535L25.5547 5.61855L28 0.313721Z" fill="#FFC700"/>
<path d="M48 0.313721L50.4453 5.61855L56 6.42535L51.9573 10.5105L52.944 16.3137L48 13.533L43.0553 16.3137L44.0427 10.5105L40 6.42535L45.5547 5.61855L48 0.313721Z" fill="#FFC700"/>
<path d="M68 0.313721L70.4453 5.61855L76 6.42535L71.9573 10.5105L72.944 16.3137L68 13.533L63.0553 16.3137L64.0427 10.5105L60 6.42535L65.5547 5.61855L68 0.313721Z" fill="#FFC700"/>
<path d="M88 0.313721L90.4453 5.61855L96 6.42535L91.9573 10.5105L92.944 16.3137L88 13.533L83.0553 16.3137L84.0427 10.5105L80 6.42535L85.5547 5.61855L88 0.313721Z" fill="#BDBDBD"/>
<path d="M88 0.313721V13.533L83.0553 16.3137L84.0427 10.5105L80 6.42535L85.5547 5.61855L88 0.313721Z" fill="#FFC700"/>
</g>
<path d="M117.148 9.99341H118.414V11.1731H117.148V13.8137H115.766V11.1731H111.469V10.3215L115.695 2.43872H117.148V9.99341ZM113 9.99341H115.766V4.58716L113 9.99341ZM120.031 13.0559C120.031 12.8059 120.104 12.5976 120.25 12.4309C120.401 12.2642 120.625 12.1809 120.922 12.1809C121.219 12.1809 121.443 12.2642 121.594 12.4309C121.75 12.5976 121.828 12.8059 121.828 13.0559C121.828 13.2955 121.75 13.496 121.594 13.6575C121.443 13.8189 121.219 13.8997 120.922 13.8997C120.625 13.8997 120.401 13.8189 120.25 13.6575C120.104 13.496 120.031 13.2955 120.031 13.0559ZM130.312 3.25122L126.398 13.8137H124.953L128.859 3.62622H123.789V2.43872H130.312V3.25122Z" fill="#879DA9"/>
</g>
<defs>
<clipPath id="clip0">
<rect width="132" height="16" fill="white" transform="translate(0 0.313721)"/>
</clipPath>
<clipPath id="clip1">
<rect width="96" height="16" fill="white" transform="translate(0 0.313721)"/>
</clipPath>
</defs>
</svg>
