<svg width="101" height="111" viewBox="0 0 101 111" fill="none" xmlns="http://www.w3.org/2000/svg">
<circle cx="47.5003" cy="34.5361" r="23.384" fill="#80C342"/>
<mask id="path-2-inside-1" fill="white">
<path d="M62.8231 10.0901C63.0239 9.76957 62.9274 9.34616 62.6023 9.15275C56.4548 5.49523 49.1802 4.189 42.1309 5.49209C34.8567 6.83672 28.3519 10.8618 23.9026 16.7715C19.4533 22.6812 17.3834 30.0452 18.1021 37.4076C18.8209 44.7699 22.276 51.5946 27.7842 56.5322C33.2925 61.4698 40.453 64.1608 47.8498 64.0732C55.2466 63.9856 62.3414 61.1257 67.7311 56.059C73.1209 50.9924 76.4134 44.0878 76.9576 36.7105C77.4849 29.5611 75.394 22.4722 71.0885 16.7597C70.8608 16.4576 70.4294 16.4077 70.1327 16.6424C69.8359 16.877 69.7863 17.3072 70.0137 17.6095C74.1066 23.0527 76.0936 29.8025 75.5915 36.6097C75.0726 43.6449 71.9328 50.2293 66.7929 55.061C61.6531 59.8927 54.8874 62.6199 47.8336 62.7035C40.7798 62.787 33.9514 60.2208 28.6985 55.5122C23.4457 50.8036 20.1508 44.2954 19.4654 37.2745C18.78 30.2536 20.7539 23.231 24.9969 17.5954C29.2399 11.9598 35.4431 8.12134 42.3798 6.83906C49.0919 5.59834 56.0179 6.8382 61.8746 10.3137C62.1999 10.5068 62.6222 10.4106 62.8231 10.0901Z"/>
</mask>
<path d="M62.8231 10.0901C63.0239 9.76957 62.9274 9.34616 62.6023 9.15275C56.4548 5.49523 49.1802 4.189 42.1309 5.49209C34.8567 6.83672 28.3519 10.8618 23.9026 16.7715C19.4533 22.6812 17.3834 30.0452 18.1021 37.4076C18.8209 44.7699 22.276 51.5946 27.7842 56.5322C33.2925 61.4698 40.453 64.1608 47.8498 64.0732C55.2466 63.9856 62.3414 61.1257 67.7311 56.059C73.1209 50.9924 76.4134 44.0878 76.9576 36.7105C77.4849 29.5611 75.394 22.4722 71.0885 16.7597C70.8608 16.4576 70.4294 16.4077 70.1327 16.6424C69.8359 16.877 69.7863 17.3072 70.0137 17.6095C74.1066 23.0527 76.0936 29.8025 75.5915 36.6097C75.0726 43.6449 71.9328 50.2293 66.7929 55.061C61.6531 59.8927 54.8874 62.6199 47.8336 62.7035C40.7798 62.787 33.9514 60.2208 28.6985 55.5122C23.4457 50.8036 20.1508 44.2954 19.4654 37.2745C18.78 30.2536 20.7539 23.231 24.9969 17.5954C29.2399 11.9598 35.4431 8.12134 42.3798 6.83906C49.0919 5.59834 56.0179 6.8382 61.8746 10.3137C62.1999 10.5068 62.6222 10.4106 62.8231 10.0901Z" fill="white" stroke="#80C342" stroke-width="2.14499" mask="url(#path-2-inside-1)"/>
<path fill-rule="evenodd" clip-rule="evenodd" d="M64.0416 11.1373C64.3691 11.0467 64.5612 10.7077 64.4705 10.3801L63.4856 6.82171C63.3949 6.49416 63.0559 6.30213 62.7284 6.39279C62.4008 6.48345 62.2088 6.82247 62.2995 7.15001L63.1202 10.1152L60.1548 10.936C59.8273 11.0266 59.6353 11.3657 59.7259 11.6932C59.8166 12.0208 60.1556 12.2128 60.4831 12.1221L64.0292 11.1406C64.0333 11.1396 64.0375 11.1385 64.0416 11.1373Z" fill="#80C342"/>
<rect x="34.6106" y="43.1988" width="24.6618" height="7.70681" rx="1.0725" fill="#5DAC1D"/>
<path d="M59.3292 48.4119C59.2683 48.9545 58.8094 49.3647 58.2634 49.3647H35.8429C35.3011 49.3647 34.8444 48.9606 34.7784 48.4229L31.6033 22.549C31.5673 22.2559 31.9121 22.0732 32.1344 22.2676L40.4473 29.5375C40.6021 29.6729 40.8425 29.6302 40.9413 29.4498L46.6321 19.0531C46.7542 18.8301 47.0745 18.8301 47.1966 19.0531L52.8874 29.4498C52.9862 29.6302 53.2266 29.6729 53.3814 29.5375L61.7039 22.2592C61.925 22.0659 62.2682 22.2455 62.2354 22.5373L59.3292 48.4119Z" fill="#FFE254"/>
<rect x="45.0976" y="31.3127" width="3.6922" height="11.0766" fill="white"/>
<rect x="51.2511" y="33.7754" width="3.6922" height="6.15367" fill="white"/>
<path d="M38.9438 36.1371H42.636V42.2908H38.9438V36.1371Z" fill="white"/>
<path d="M46.3776 28.7527H47.6083V44.7522H46.3776V28.7527Z" fill="white"/>
<rect x="52.5313" y="31.2136" width="1.23073" height="11.0766" fill="white"/>
<rect x="40.2238" y="33.6762" width="1.23073" height="11.0766" fill="white"/>
<path fill-rule="evenodd" clip-rule="evenodd" d="M70.8769 33.9443C70.5385 46.5636 60.2022 56.6895 47.5008 56.6895C34.7923 56.6895 24.4516 46.5523 24.1242 33.9231C24.119 34.1269 24.1163 34.3314 24.1163 34.5365C24.1163 47.4511 34.5857 57.9204 47.5003 57.9204C60.4149 57.9204 70.8842 47.4511 70.8842 34.5365C70.8842 34.3385 70.8818 34.1411 70.8769 33.9443Z" fill="#5DAC1D"/>
<path fill-rule="evenodd" clip-rule="evenodd" d="M69.3974 84.8854C69.3974 89.7232 65.552 93.5686 60.7143 93.5686H35.9052C31.0675 93.5686 27.2221 89.7232 27.2221 84.8854C27.2221 80.0477 31.0675 76.2023 35.9052 76.2023H60.7143C65.552 76.2023 69.3974 80.0477 69.3974 84.8854Z" fill="#80C342"/>
<g filter="url(#filter0_dd)">
<path fill-rule="evenodd" clip-rule="evenodd" d="M60.7143 97.2899C67.5651 97.2899 73.1188 91.7362 73.1188 84.8854C73.1188 78.0346 67.5651 72.4809 60.7143 72.4809C53.8634 72.4809 48.3097 78.0346 48.3097 84.8854C48.3097 91.7362 53.8634 97.2899 60.7143 97.2899Z" fill="white"/>
</g>
<defs>
<filter id="filter0_dd" x="35.9052" y="61.3168" width="49.6181" height="49.6181" filterUnits="userSpaceOnUse" color-interpolation-filters="sRGB">
<feFlood flood-opacity="0" result="BackgroundImageFix"/>
<feColorMatrix in="SourceAlpha" type="matrix" values="0 0 0 0 0 0 0 0 0 0 0 0 0 0 0 0 0 0 127 0"/>
<feOffset dy="1.24045"/>
<feGaussianBlur stdDeviation="6.20226"/>
<feColorMatrix type="matrix" values="0 0 0 0 0 0 0 0 0 0 0 0 0 0 0 0 0 0 0.237602 0"/>
<feBlend mode="normal" in2="BackgroundImageFix" result="effect1_dropShadow"/>
<feColorMatrix in="SourceAlpha" type="matrix" values="0 0 0 0 0 0 0 0 0 0 0 0 0 0 0 0 0 0 127 0"/>
<feOffset/>
<feGaussianBlur stdDeviation="1.24045"/>
<feColorMatrix type="matrix" values="0 0 0 0 0 0 0 0 0 0 0 0 0 0 0 0 0 0 0.12 0"/>
<feBlend mode="normal" in2="effect1_dropShadow" result="effect2_dropShadow"/>
<feBlend mode="normal" in="SourceGraphic" in2="effect2_dropShadow" result="shape"/>
</filter>
</defs>
</svg>
