<svg width="101" height="100" viewBox="0 0 101 100" fill="none" xmlns="http://www.w3.org/2000/svg">
<path d="M93.6573 5H73.4809C69.702 5 66.6426 8.047 66.6426 11.8104V31.9088C66.6426 35.6681 69.702 38.715 73.4809 38.715H93.6615C97.4362 38.715 100.5 35.6681 100.5 31.9046V11.8104C100.496 8.047 97.4362 5 93.6573 5Z" fill="#31ABEB"/>
<path d="M83.425 12.7465L84.1106 11.5665C84.5337 10.829 85.4774 10.5803 86.2179 11.0018C86.9585 11.4232 87.2081 12.363 86.785 13.1005L80.1794 24.4878H84.9569C86.5057 24.4878 87.3732 26.3 86.7003 27.5558H72.6936C71.8388 27.5558 71.1533 26.8731 71.1533 26.0218C71.1533 25.1705 71.8388 24.4878 72.6936 24.4878H76.6206L81.6478 15.8104L80.0778 13.0963C79.6547 12.3588 79.9043 11.4274 80.6449 10.9975C81.3854 10.5761 82.3206 10.8248 82.7522 11.5623L83.425 12.7465ZM77.4838 29.1362L76.0028 31.6944C75.5796 32.4319 74.636 32.6805 73.8954 32.2591C73.1549 31.8377 72.9052 30.8979 73.3284 30.1603L74.4286 28.2639C75.6727 27.8804 76.6841 28.1754 77.4838 29.1362ZM90.238 24.4962H94.2453C95.1001 24.4962 95.7856 25.1789 95.7856 26.0302C95.7856 26.8815 95.1001 27.5643 94.2453 27.5643H92.0195L93.5217 30.1603C93.9449 30.8979 93.6952 31.8292 92.9547 32.2591C92.2141 32.6805 91.279 32.4319 90.8473 31.6944C88.3168 27.3241 86.4168 24.0537 85.1558 21.8749C83.8651 19.6581 84.7876 17.4329 85.6974 16.6785C86.7088 18.4064 88.2195 21.0151 90.238 24.4962Z" fill="white"/>
<mask id="mask0" mask-type="alpha" maskUnits="userSpaceOnUse" x="17" y="21" width="59" height="58">
<path d="M17.5 34.6471C17.5 27.11 23.61 21 31.1471 21H61.8529C69.39 21 75.5 27.11 75.5 34.6471V65.3529C75.5 72.89 69.39 79 61.8529 79H31.1471C23.61 79 17.5 72.89 17.5 65.3529V34.6471Z" fill="#C4C4C4"/>
</mask>
<g mask="url(#mask0)">
<g clip-path="url(#clip0)">
<path d="M69.8685 21H23.1315C20.0213 21 17.5 23.5213 17.5 26.6315V73.3685C17.5 76.4787 20.0213 79 23.1315 79H69.8685C72.9787 79 75.5 76.4787 75.5 73.3685V26.6315C75.5 23.5213 72.9787 21 69.8685 21Z" fill="#FFB500"/>
<path d="M54.166 33.8917V40.2837C54.1522 40.9311 54.3952 41.5577 54.8419 42.0266C55.2886 42.4955 55.9027 42.7685 56.5501 42.786H62.9728C63.5511 42.7738 64.101 42.5327 64.5017 42.1156C64.9025 41.6985 65.1214 41.1394 65.1103 40.5611V33.9431C65.1192 33.6132 65.0627 33.2848 64.9442 32.9768C64.8256 32.6688 64.6473 32.3873 64.4195 32.1486C64.1917 31.9098 63.9189 31.7184 63.6168 31.5855C63.3148 31.4525 62.9894 31.3807 62.6594 31.374H56.5501C56.2282 31.3827 55.9112 31.4547 55.6171 31.5859C55.323 31.7171 55.0577 31.905 54.8363 32.1389C54.6149 32.3727 54.4418 32.6478 54.3267 32.9486C54.2117 33.2494 54.1571 33.5699 54.166 33.8917Z" fill="#09544F"/>
<path d="M27.8896 52.2763V65.8822C27.8896 67.3929 28.9738 68.6106 30.3097 68.6106H36.7633C37.3701 68.5735 37.9374 68.2975 38.3409 67.8429C38.7445 67.3883 38.9514 66.7922 38.9162 66.1854V52.3431C38.9162 50.8016 37.8115 49.5633 36.4499 49.5633H30.284C28.9738 49.553 27.8896 50.7708 27.8896 52.2763Z" fill="white"/>
<path d="M41.2227 39.96V60.1891C41.2227 61.8898 42.2965 62.9637 43.6119 62.9637H49.9781C51.1497 62.9637 52.1002 62.0439 52.1002 60.5333V40.0113C52.1002 38.2798 51.0109 37.396 49.6647 37.396H43.6119C42.2965 37.4063 41.2227 38.2592 41.2227 39.96Z" fill="white"/>
</g>
</g>
<path fill-rule="evenodd" clip-rule="evenodd" d="M1.10068 21.5131C0.719923 21.9217 0.5 22.5461 0.5 23.3634V52.35C0.5 53.1673 0.719922 53.7917 1.11381 54.184L1.21557 54.2722L17.5227 38.0316V37.6687L1.20244 21.4248L1.10068 21.5131Z" fill="#01D7FF"/>
<path fill-rule="evenodd" clip-rule="evenodd" d="M22.9488 43.4583L17.5098 38.0415V37.6623L22.9488 32.2455L23.0669 32.3174L29.5005 35.9591C31.3419 36.9921 31.3419 38.6986 29.5005 39.7447L23.0669 43.3864L22.9488 43.4583Z" fill="#FFCD01"/>
<path fill-rule="evenodd" clip-rule="evenodd" d="M23.0666 43.3883L17.5095 37.8538L1.10059 54.1957C1.70127 54.8365 2.70898 54.9084 3.83485 54.284L23.0666 43.3883Z" fill="#FA3747"/>
<path fill-rule="evenodd" clip-rule="evenodd" d="M23.0666 32.3181L3.83485 21.4387C2.70898 20.798 1.69799 20.8862 1.10059 21.527L17.5095 37.8526L23.0666 32.3181Z" fill="#01F076"/>
<defs>
<clipPath id="clip0">
<rect width="58" height="58" fill="white" transform="translate(17.5 21)"/>
</clipPath>
</defs>
</svg>
