<svg width="104" height="36" fill="none" xmlns="http://www.w3.org/2000/svg"><path fill-rule="evenodd" clip-rule="evenodd" d="M74.633 8.861c2.336 0 4.26-1.938 4.26-4.292S76.97.277 74.633.277c-2.337 0-4.261 1.938-4.261 4.292s1.924 4.292 4.26 4.292ZM41.967 11.17c-.184.508-1.558 4.43-4.948 8.492V2.215L28.13 3.97v31.662h8.934v-9.785c2.566 3.923 3.849 9.785 3.849 9.785h10.675c-1.054-4.431-5.681-12.6-5.681-12.6 4.169-5.308 5.956-10.939 6.276-11.908H41.967v.046Zm23.457-.323c-7.972.277-12.05 3.877-12.05 11.03v13.755h8.705V24.415c0-4.292.55-6.138 5.636-6.323v-7.154c-.825-.184-2.291-.092-2.291-.092Zm-52.275 3.785c-1.1-.093-3.62-.231-3.62-2.539 0-2.769 3.666-2.769 4.994-2.769 2.383 0 5.498.739 7.743 1.385 0 0 1.237.461 2.29.877l.092.046V4.06l-.137-.046c-2.611-.923-5.681-1.8-11.316-1.8C3.436 2.215 0 7.938 0 12.831c0 2.815 1.191 9.461 12.37 10.246.962.046 3.436.184 3.436 2.584 0 1.939-2.061 3.093-5.498 3.093-3.802 0-7.467-.97-9.712-1.893v7.8C3.94 35.538 7.743 36 12.14 36c9.53 0 13.79-5.4 13.79-10.8 0-6.046-4.765-10.015-12.782-10.57Zm57.177 21h8.659V11.169h-8.659v24.462ZM95.249 3.785v31.892h8.659V2.215l-8.659 1.57Zm-12.645 0 8.66-1.57v33.416h-8.66V3.785Z" fill="url(#a)"/><defs><linearGradient id="a" x1="25.389" y1=".738" x2="33.306" y2="44.809" gradientUnits="userSpaceOnUse"><stop stop-color="#6B195F"/><stop offset="1" stop-color="#4C255B"/></linearGradient></defs></svg>