<svg width="178" height="36" fill="none" xmlns="http://www.w3.org/2000/svg"><path d="M21.324 24.777c0 3.546-1.121 6.294-3.364 8.28C15.726 35.025 12.602 36 8.606 36c-1.673 0-3.257-.195-4.752-.576-1.496-.408-2.777-.958-3.854-1.711v-8.377c1.273.85 2.741 1.551 4.397 2.127 1.655.568 3.15.86 4.485.86 1.13 0 1.985-.257 2.563-.745.579-.487.864-1.196.864-2.1 0-.417-.09-.834-.267-1.215a5.06 5.06 0 0 0-.784-1.126c-.338-.381-1.237-1.205-2.687-2.473-1.78-1.507-3.08-3.023-3.88-4.592-.81-1.57-1.211-3.28-1.211-5.142 0-2.092.498-3.971 1.495-5.638.997-1.666 2.403-2.96 4.228-3.874C11.018.497 13.056.044 15.308.044c3.631 0 6.906.851 9.808 2.562l-3.088 7.101c-2.6-1.4-4.815-2.1-6.64-2.1-.97 0-1.726.22-2.252.673-.525.443-.783 1.099-.783 1.959 0 .78.258 1.516.766 2.19.507.673 1.477 1.586 2.91 2.712 1.789 1.392 3.124 2.846 3.987 4.38.872 1.524 1.308 3.28 1.308 5.256Zm15.745 10.744h-8.927l5.402-27.25h-7.226L27.893.54h23.46l-1.62 7.73h-7.262L37.07 35.52Zm10.314 0 7.05-34.98h9.06l-7.05 34.98h-9.06ZM81.506 7.792c-1.646 0-3.133.62-4.45 1.87-1.317 1.242-2.358 2.961-3.115 5.142-.756 2.19-1.13 4.557-1.13 7.11 0 2.136.418 3.732 1.273 4.787.854 1.046 2.073 1.569 3.675 1.569 1.255 0 2.546-.16 3.827-.479 1.29-.328 2.813-.895 4.566-1.666v7.73c-3.088 1.445-6.444 2.136-10.048 2.136-3.96 0-7.004-1.188-9.14-3.537-2.136-2.358-3.204-5.718-3.204-10.062 0-4.246.765-8.137 2.314-11.675 1.54-3.537 3.649-6.214 6.292-8.013C75.018.904 78.062 0 81.488 0c4.032 0 7.69 1.046 10.974 3.138l-3.373 7.296c-1.415-.878-2.715-1.534-3.907-1.977a10.079 10.079 0 0 0-3.676-.665Zm36.001 3.227c0 4.016-1.291 7.18-3.907 9.459-2.617 2.296-6.186 3.43-10.716 3.43h-1.958l-2.287 11.604h-8.927L96.761.532h8.517c3.943 0 6.978.904 9.069 2.713 2.118 1.826 3.16 4.414 3.16 7.774Zm-14.979 5.248h1.442c1.379 0 2.501-.47 3.355-1.4.855-.932 1.273-2.12 1.273-3.555 0-.94-.276-1.694-.819-2.279-.552-.576-1.29-.86-2.269-.86h-1.344l-1.638 8.094Zm33.278 12.703h-10.227l-2.856 6.551h-9.256L130.43.541h11.481l2.803 34.98h-8.686l-.222-6.55Zm-6.969-7.473h6.684l-.401-10.141-.035-2.057c0-1.197.026-2.243.089-3.138a26.564 26.564 0 0 1-1.398 3.972l-4.939 11.364Zm32.093-7.987L168.05.54H178l-13.955 21.41-2.759 13.571h-8.935l2.741-13.572L149.69.541h9.202l2.038 12.969Z" fill="#F25822"/></svg>