<svg width="696" height="296" fill="none" xmlns="http://www.w3.org/2000/svg"><path d="M76 260.356v-24.657h7.416v7.077h5.16c1.35 0 2.287-.304 2.81-.913.521-.609.782-1.522.782-2.74v-3.424h7.463v3.607c0 1.4-.246 2.664-.737 3.79-.46 1.096-1.305 1.902-2.534 2.42 1.167.487 1.981 1.218 2.442 2.192.46.974.69 2.1.69 3.379v9.269H92.03v-8.31c0-1.34-.26-2.283-.783-2.831-.522-.548-1.459-.822-2.81-.822h-5.02v11.963H76ZM93.466 272v-4.977h-2.764l.276-4.612h8.614V272h-6.126ZM87.8 232.959v-3.973h-3.593v-4.84h8.43v3.927h9.765l-.276 4.886H87.8Zm25.289 27.854c-2.61 0-4.698-.776-6.265-2.329-1.566-1.552-2.349-3.744-2.349-6.575v-16.21h7.416v15.57c0 1.401.323 2.42.968 3.06.645.639 1.627.959 2.948.959a6.821 6.821 0 0 0 2.902-.64c.952-.426 1.704-.928 2.257-1.506v-17.443h7.462v24.657h-6.863l-.323-2.146c-1.044.792-2.241 1.431-3.593 1.918-1.351.456-2.871.685-4.56.685Zm27.777 0c-1.567 0-3.01-.244-4.33-.731a6.372 6.372 0 0 1-3.087-2.42c-.767-1.126-1.151-2.633-1.151-4.52 0-2.527.844-4.491 2.533-5.891 1.72-1.431 4.131-2.146 7.232-2.146h6.68v-.913c0-1.218-.43-2.085-1.29-2.603-.86-.548-2.257-.822-4.192-.822-1.474 0-2.902.107-4.284.32a27.472 27.472 0 0 0-4.1.959v-5.297c1.29-.426 2.81-.776 4.561-1.05 1.75-.305 3.47-.457 5.159-.457.829 0 1.612.046 2.349.137.737.061 1.443.167 2.119.32h9.259l-.369 5.479h-2.717c.307.487.537 1.126.69 1.918.154.761.231 1.552.231 2.374v14.886h-7.416V250.31h-5.482c-1.167 0-2.088.183-2.764.548-.645.366-.967 1.081-.967 2.147 0 .974.276 1.643.829 2.009.583.365 1.505.548 2.764.548.491 0 .982-.016 1.474-.046a6.81 6.81 0 0 0 1.29-.274v4.932c-1.29.426-2.964.639-5.021.639Zm8.038-27.671v-7.626h7.417v7.626h-7.417Zm20.382 27.671c-1.597 0-3.117-.122-4.56-.366a15.814 15.814 0 0 1-3.916-1.187v-5.479c.983.456 2.058.822 3.225 1.096 1.167.274 2.318.411 3.454.411 2.611 0 4.484-.563 5.62-1.69 1.167-1.126 1.751-2.983 1.751-5.571 0-2.557-.584-4.398-1.751-5.525-1.136-1.156-2.994-1.735-5.573-1.735-1.137 0-2.304.137-3.501.411a16.607 16.607 0 0 0-3.225 1.005v-5.388c2.518-1.035 5.359-1.553 8.522-1.553 8.599 0 12.898 4.262 12.898 12.785 0 8.524-4.315 12.786-12.944 12.786Zm25.09 0c-2.611 0-4.699-.776-6.265-2.329-1.566-1.552-2.349-3.744-2.349-6.575v-16.21h7.416v15.57c0 1.401.322 2.42.967 3.06.645.639 1.628.959 2.948.959a6.818 6.818 0 0 0 2.902-.64c.952-.426 1.705-.928 2.258-1.506v-17.443h7.462v24.657h-6.864l-.322-2.146c-1.044.792-2.242 1.431-3.593 1.918-1.351.456-2.871.685-4.56.685Zm20.176-.457v-24.657h7.416v7.077h5.159c1.351 0 2.288-.304 2.81-.913.522-.609.783-1.522.783-2.74v-3.424h7.462v3.607c0 1.4-.245 2.664-.737 3.79-.46 1.096-1.305 1.902-2.533 2.42 1.167.487 1.981 1.218 2.441 2.192.461.974.691 2.1.691 3.379v9.269h-7.462v-8.31c0-1.34-.261-2.283-.783-2.831s-1.459-.822-2.81-.822h-5.021v11.963h-7.416Zm36.075.457c-1.597 0-3.04-.259-4.33-.776a6.551 6.551 0 0 1-3.086-2.512c-.768-1.157-1.152-2.679-1.152-4.566 0-2.527.845-4.46 2.534-5.799 1.72-1.37 4.13-2.055 7.232-2.055h6.633v-.913c0-1.218-.43-2.085-1.29-2.603-.829-.548-2.226-.822-4.191-.822a28.68 28.68 0 0 0-4.284.32 27.472 27.472 0 0 0-4.1.959v-5.297c1.29-.426 2.81-.776 4.56-1.05a30.813 30.813 0 0 1 5.205-.457c3.808 0 6.68.807 8.614 2.42 1.966 1.613 2.949 4.094 2.949 7.443v15.251h-7.463V250.31h-5.481c-1.137 0-2.043.183-2.718.548-.645.366-.968 1.081-.968 2.147 0 .974.277 1.643.83 2.009.583.365 1.489.548 2.717.548.522 0 1.014-.016 1.474-.046a6.776 6.776 0 0 0 1.29-.274v4.932c-1.228.426-2.886.639-4.975.639Zm2.652-28.082v-7.854h5.804v3.059h11.24l-.277 4.795h-16.767Zm17.504 27.625v-7.808c0-1.279.246-2.435.737-3.47.492-1.066 1.397-1.812 2.718-2.238l-4.422-1.233v-6.21c1.32-1.035 3.055-1.978 5.205-2.831 2.15-.883 4.606-1.324 7.37-1.324 4.115 0 7.202.837 9.259 2.511 2.088 1.644 3.132 4.232 3.132 7.763v14.84h-7.416v-14.794c0-1.736-.43-2.968-1.29-3.699-.829-.731-2.195-1.096-4.099-1.096-1.198 0-2.319.168-3.363.502-1.013.335-1.827.761-2.441 1.279v.502l4.975 1.416v3.881c-1.106.304-1.874.776-2.304 1.416-.43.639-.645 1.598-.645 2.876v7.717h-7.416Zm39.106.457c-2.119 0-4.13-.183-6.034-.548-1.904-.396-3.486-.868-4.745-1.416V245.79h11.056l.322 5.068h-4.146v3.973c.522.152 1.075.274 1.659.365.583.061 1.197.092 1.842.092 2.211 0 3.747-.533 4.607-1.599.89-1.095 1.335-2.937 1.335-5.525 0-1.917-.261-3.409-.783-4.475-.491-1.095-1.305-1.856-2.441-2.283-1.136-.426-2.656-.639-4.56-.639-1.321 0-2.749.107-4.284.32a27.875 27.875 0 0 0-4.33.959v-5.297c1.504-.487 3.193-.853 5.067-1.096a36.965 36.965 0 0 1 5.343-.411c4.668 0 8.061 1.096 10.18 3.288 2.119 2.191 3.179 5.403 3.179 9.634 0 4.11-1.044 7.245-3.133 9.407-2.088 2.161-5.466 3.242-10.134 3.242Zm28.503 0c-2.426 0-4.575-.274-6.449-.822-1.873-.579-3.347-1.461-4.422-2.649-1.044-1.187-1.566-2.739-1.566-4.657 0-1.066.23-2.04.691-2.922.491-.883 1.213-1.614 2.165-2.192-.798-.426-1.459-1.066-1.981-1.918-.522-.852-.783-1.872-.783-3.059 0-2.436.799-4.262 2.396-5.48 1.596-1.248 3.7-1.872 6.31-1.872.983 0 1.843.061 2.58.183.768.121 1.428.289 1.981.502v5.205c-.829-.243-1.812-.365-2.948-.365-.952 0-1.689.152-2.211.457-.492.304-.737.852-.737 1.644 0 .852.261 1.43.783 1.735.552.304 1.335.456 2.349.456h2.441l.277 5.023h-2.764c-2.119 0-3.179.868-3.179 2.603 0 .852.369 1.507 1.106 1.963.768.427 2.027.64 3.777.64 3.378 0 5.067-1.355 5.067-4.064v-15.525h7.463v15.068c0 3.501-1.075 6.058-3.225 7.671-2.15 1.583-5.19 2.375-9.121 2.375Zm5.025-27.671v-7.626h7.416v7.626h-7.416Zm20.498 27.214V245.47c0-1.583-.307-2.755-.921-3.516-.614-.791-1.781-1.187-3.501-1.187-1.044 0-2.104.122-3.178.365a23.31 23.31 0 0 0-2.903.868v-5.205c.922-.427 2.073-.792 3.455-1.096a19.392 19.392 0 0 1 4.192-.457c3.624 0 6.234.791 7.831 2.374 1.628 1.553 2.441 3.912 2.441 7.078v15.662h-7.416Zm22.86.457c-.86 0-1.827-.061-2.902-.183-1.044-.122-1.95-.319-2.718-.593l-6.817-16.621h7.232l4.975 12.1c3.593-.183 5.389-2.922 5.389-8.219 0-2.344-.384-3.927-1.151-4.749-.737-.852-2.043-1.279-3.916-1.279h-1.842v-5.57h3.132c7.432 0 11.147 3.866 11.147 11.598 0 3.166-.537 5.753-1.612 7.762-1.044 1.979-2.518 3.44-4.422 4.384-1.873.913-4.038 1.37-6.495 1.37Zm20.926-.457c-1.75 0-3.055-.426-3.915-1.278-.829-.853-1.244-2.07-1.244-3.653v-19.726h7.463v17.808c0 1.126.552 1.689 1.658 1.689h1.704v5.16h-5.666Zm21.804.457c-3.746 0-6.741-.868-8.982-2.603-2.211-1.766-3.317-4.444-3.317-8.036v-14.475h7.416v14.703c0 1.674.4 2.907 1.198 3.698.798.792 2.027 1.188 3.685 1.188 1.628 0 2.841-.396 3.639-1.188.799-.791 1.198-2.024 1.198-3.698v-22.009h7.462v21.781c0 3.592-1.121 6.27-3.363 8.036-2.211 1.735-5.189 2.603-8.936 2.603Z" fill="#164194"/><path d="M421.893 233.735c-1.935 0-3.455-.502-4.561-1.507-1.105-1.004-1.658-2.435-1.658-4.292 0-1.766.584-3.196 1.75-4.292 1.137-1.096 2.764-1.644 4.883-1.644h10.503l-.323 3.881h-9.489c-.798 0-1.412.168-1.842.503-.461.304-.691.837-.691 1.598 0 1.278.66 1.918 1.98 1.918.707 0 1.213-.153 1.521-.457.307-.335.46-.761.46-1.279v-.685h3.87v.685c0 .579.168.99.506 1.233.307.244.753.366 1.336.366h1.843v3.881h-2.211a6.57 6.57 0 0 1-2.073-.32c-.645-.243-1.106-.609-1.382-1.096-.307.487-.921.868-1.843 1.142-.921.243-1.781.365-2.579.365Zm33.347 27.078c-2.611 0-4.699-.776-6.265-2.329-1.566-1.552-2.349-3.744-2.349-6.575v-16.21h7.416v15.57c0 1.401.322 2.42.967 3.06.645.639 1.628.959 2.948.959a6.818 6.818 0 0 0 2.902-.64c.952-.426 1.705-.928 2.258-1.506v-17.443h7.462v24.657h-6.864l-.322-2.146c-1.044.792-2.242 1.431-3.593 1.918-1.351.456-2.871.685-4.56.685Zm20.176-.457v-24.657h6.863l.277 2.191c1.044-.791 2.257-1.43 3.639-1.917 1.412-.487 2.963-.731 4.652-.731 2.61 0 4.683.776 6.219 2.329 1.535 1.552 2.303 3.714 2.303 6.484v16.301h-7.462v-15.662c0-1.37-.323-2.359-.968-2.968-.614-.609-1.581-.913-2.902-.913a7.146 7.146 0 0 0-2.948.639c-.952.396-1.704.898-2.257 1.507v17.397h-7.416Zm37.127 0V245.47c0-1.583-.307-2.755-.921-3.516-.614-.791-1.781-1.187-3.501-1.187-1.044 0-2.104.122-3.178.365a23.294 23.294 0 0 0-2.902.868v-5.205c.921-.427 2.073-.792 3.454-1.096a19.399 19.399 0 0 1 4.192-.457c3.624 0 6.234.791 7.831 2.374 1.628 1.553 2.442 3.912 2.442 7.078v15.662h-7.417Zm22.86.457c-.86 0-1.827-.061-2.902-.183-1.044-.122-1.95-.319-2.718-.593l-6.817-16.621h7.232l4.975 12.1c3.593-.183 5.389-2.922 5.389-8.219 0-2.344-.384-3.927-1.151-4.749-.737-.852-2.042-1.279-3.916-1.279h-1.842v-5.57h3.132c7.432 0 11.148 3.866 11.148 11.598 0 3.166-.538 5.753-1.613 7.762-1.044 1.979-2.518 3.44-4.422 4.384-1.873.913-4.038 1.37-6.495 1.37Zm15.767-.457v-7.808c0-1.279.246-2.435.737-3.47.492-1.066 1.398-1.812 2.718-2.238l-4.422-1.233v-6.21c1.321-1.035 3.056-1.978 5.205-2.831 2.15-.883 4.607-1.324 7.371-1.324 4.115 0 7.201.837 9.258 2.511 2.089 1.644 3.133 4.232 3.133 7.763v14.84h-7.417v-14.794c0-1.736-.43-2.968-1.289-3.699-.83-.731-2.196-1.096-4.1-1.096-1.198 0-2.319.168-3.363.502-1.013.335-1.827.761-2.441 1.279v.502l4.975 1.416v3.881c-1.106.304-1.874.776-2.303 1.416-.43.639-.645 1.598-.645 2.876v7.717h-7.417Zm37.172 0V245.47c0-1.583-.307-2.755-.921-3.516-.615-.791-1.782-1.187-3.501-1.187a14.39 14.39 0 0 0-3.179.365 23.345 23.345 0 0 0-2.902.868v-5.205c.921-.427 2.073-.792 3.455-1.096a19.392 19.392 0 0 1 4.192-.457c3.623 0 6.234.791 7.831 2.374 1.627 1.553 2.441 3.912 2.441 7.078v15.662h-7.416Zm20.879.457c-1.812 0-3.547-.137-5.205-.411-1.628-.244-2.933-.563-3.916-.959v-5.754c1.137.488 2.411.883 3.824 1.188 1.412.274 2.702.411 3.869.411 1.75 0 2.994-.122 3.731-.366.737-.243 1.106-.73 1.106-1.461 0-.609-.215-1.08-.645-1.415-.43-.335-1.106-.655-2.027-.959-.891-.335-2.058-.746-3.501-1.233-2.18-.792-3.854-1.69-5.021-2.694-1.167-1.035-1.75-2.512-1.75-4.429 0-2.223.875-4.019 2.625-5.389 1.782-1.4 4.469-2.1 8.062-2.1 1.504 0 3.009.122 4.514.365 1.505.213 2.718.457 3.639.731v5.708c-.983-.427-2.119-.746-3.409-.959-1.29-.213-2.426-.32-3.409-.32-1.32 0-2.426.137-3.316.411-.891.244-1.336.761-1.336 1.553 0 .517.23.943.691 1.278.491.305 1.182.594 2.073.868.921.274 2.011.639 3.27 1.096 1.751.639 3.133 1.278 4.146 1.917 1.014.64 1.72 1.401 2.119 2.284.43.882.645 2.009.645 3.379 0 2.343-.952 4.14-2.856 5.388-1.873 1.248-4.514 1.872-7.923 1.872Z" fill="#164194"/><path d="M478 180a89.998 89.998 0 0 0 88.268-107.572 90.005 90.005 0 0 0-70.732-70.703A90.002 90.002 0 0 0 388 90.037a89.948 89.948 0 0 0 6.852 34.435 89.943 89.943 0 0 0 19.511 29.191A89.96 89.96 0 0 0 478 180Z" fill="#fff"/><path d="M478 176.787a86.787 86.787 0 1 0-86.787-86.75 86.747 86.747 0 0 0 53.578 80.157A86.736 86.736 0 0 0 478 176.787Z" fill="#164194"/><path d="M477.999 171.201a81.2 81.2 0 1 0-81.347-81.164 81.168 81.168 0 0 0 81.347 81.164Z" fill="#fff"/><path d="M398.697 90.037a79.254 79.254 0 0 1 23.217-56.086 79.26 79.26 0 0 1 56.085-23.217 79.269 79.269 0 0 1 73.276 48.95 79.254 79.254 0 0 1 6.027 30.353 79.266 79.266 0 0 1-79.303 79.265v-.949a78.184 78.184 0 0 0 55.388-22.929 78.18 78.18 0 0 0 22.929-55.387 78.068 78.068 0 0 0-22.929-55.388 78.058 78.058 0 0 0-55.388-22.965 77.951 77.951 0 0 0-55.387 22.965 77.934 77.934 0 0 0-22.965 55.388 78.055 78.055 0 0 0 22.965 55.387 78.068 78.068 0 0 0 55.387 22.929v.949a79.264 79.264 0 0 1-79.302-79.265Z" fill="#164194"/><path d="M477.999 146.337a56.293 56.293 0 0 0 31.279-9.489 56.295 56.295 0 0 0 23.94-57.795 56.304 56.304 0 0 0-76.764-41.03 56.299 56.299 0 0 0 0 104.028 56.31 56.31 0 0 0 21.545 4.286Z" fill="#fff"/><path d="M476.503 37.862c-1.168 6.353-8.836 6.353-13.071 9.748a12.046 12.046 0 0 0-4.345 7.193c-4.016-2.044-7.923-5.075-12.085-6.718a48.083 48.083 0 0 1 29.501-10.04m31.509 9.091-10.15 6.681c-1.168-7.302-9.201-9.383-14.604-11.647-1.096-1.168-2.739-2.665-2.118-4.308a50.494 50.494 0 0 1 27.018 9.274" fill="#164194"/><path d="M481.652 43.85c5.185 2.775 13.363 3.651 14.604 11.209-.255.767-1.204 1.095-1.679 1.497-.475-9.785-11.976-7.886-15.663-15.298-3.871 7.485-16.248 6.06-16.102 16.393-.84-.401-2.446-1.35-1.57-2.848 2.118-8.251 11.976-7.703 16.722-13.4l.694-2.993a9.347 9.347 0 0 0 2.994 5.44Z" fill="#164194"/><path d="M478.951 47.063v.767c0 .146-.402-.292-.658-.402-.256-.11.658-1.168.804-.365m1.895 1.862c0 .329 0 .584-.29.803h-.073V48.56c.327 0 .399.219.544.365m-4.198 0v.803h-.399v-.95h.545M441.525 61.63c-4.966 2.849-6.353 10.699-12.67 10.041a48.968 48.968 0 0 1 13.948-20.227 17.012 17.012 0 0 0-1.278 10.187Zm37.971-4.161h-2.264l1.57-5.696a19.22 19.22 0 0 0 .694 5.696Zm46.917 13.071c-5.44-.402-7.302-7.01-12.085-9.457a18.922 18.922 0 0 0 .767-7.96 45.006 45.006 0 0 1 11.318 17.417Z" fill="#164194"/><path d="M527.18 72.183v.255c-7.558 5.112.329 16.613-7.85 21.36a13.655 13.655 0 0 1-8.215 1.496c.475-1.825 3.396-1.095 4.966-2.044 9.456-2.848 4.71-14.13 9.383-20.191-4.673-1.168-8.324-5.221-11.976-8.178l.22-1.352c4.344 3.068 7.594 9.238 13.399 8.654m-84.085-7.558c-3.651 4.016-7.302 8.434-12.304 9.456.547 1.497 1.898 2.665 2.446 4.199 1.643 6.39 1.825 15.189 10.004 17.014 1.168.475 2.775-.255 3.651.95a11.61 11.61 0 0 1-10.552-2.848c-5.659-5.514 0-16.065-8.361-20.008 6.864 1.496 9.53-6.719 14.349-9.713l.803.95h-.036Z" fill="#164194"/><path d="M515.824 72.584v.803h-.254v-1.204a.326.326 0 0 1 .399.232.336.336 0 0 1 .001.17m-73.897.802v.293c0 .072-.585 0-.804-.293-.256-.876 1.169-.876.95 0m71.892 1.643s-.256.475-.548.402a.585.585 0 0 1 0-1.095c.475 0 .402.438.548.693Zm3.76-.693v.913c0 .219-.402-.293-.548-.365-.146-.074 0-.73.694-.548m-73.899.913s-.219.401-.548.328l-.402-.328.621-.767c.256.219.256.475.329.767Zm70.977 51.699-3.651 3.323c-1.022-7.704 7.959-12.596 5.805-20.958a16.023 16.023 0 0 0-9.821-9.456c0-5.44 5.878-1.497 8.726-2.665a11.462 11.462 0 0 0 8.507-6.244c2.994-5.111-1.205-11.975 3.213-16.576a51.989 51.989 0 0 1-12.852 52.576M440.173 75.25c0 .328 0 .51-.4.73v-1.096c.218 0 .4.22.545.366m-7.153 17.196a12.847 12.847 0 0 0 8.763 6.17 46.49 46.49 0 0 0 6.937-.364l.62 1.497a15.225 15.225 0 0 0-9.712 9.273c-1.971 8.215 5.441 13.473 6.864 20.812l-.584 1.862a52.435 52.435 0 0 1-19.424-52.759l1.059-3.395c6.755 2.848 1.935 11.902 5.294 17.014m84.157-8.069c-1.095-.402-1.351.95-1.752 1.497-.219-.475-.219-1.096-.694-1.497l-1.205.255 2.264-7.302a28.752 28.752 0 0 0 1.387 7.047Zm-73.349.402c-1.022-.22-1.424.62-1.716 1.35v.366c-.256-.767-.876-2.447-2.045-1.57a73.586 73.586 0 0 0 2.045-7.303 16.28 16.28 0 0 0 1.716 7.01" fill="#164194"/><path d="M450.435 102.706v.694c-3.177 1.497-6.864 4.271-6.864 8.142-.475 7.302 6.389 11.172 5.659 18.255 1.095.876 2.118-.694 3.396-.548 4.162-.292 15.991.95 18.766-2.446.694 0 1.169.256 1.716.584a7.841 7.841 0 0 1-6.28 4.09c-6.462.62-13.874-4.82-19.095 1.095 3.943-9.201-9.602-15.189-5.112-24.974a12.241 12.241 0 0 1 7.303-6.243l.401 1.205.11.146Zm64.844 7.704c.949 8.142-8.507 12.523-5.915 20.665-7.96-4.564-18.256 6.389-25.12-3.067 0-.657.694-1.132 1.168-1.351 1.424.402 1.899 1.716 3.14 2.519 6.171 4.418 12.706-1.35 19.315.329.401-.803 0-2.373.401-3.396 2.52-5.768 8.763-13.071 2.848-19.314a15.626 15.626 0 0 0-5.294-2.994c-.547-.876.329-1.497.548-2.3 3.651 1.351 8.507 4.6 8.909 8.909Z" fill="#164194"/><path d="M500.309 111.907c-.475.255-.475-.292-.694-.548-.219-.255.219-.767.694-.547v1.095Zm-42.17-.548v.803c0 .146-.402-.328-.621-.401-.402-.694.767-1.096.767-.402m44.247 2.3h-.4c-.109 0-.435-1.095 0-1.095.436 0 0 .621.218.949m-42.169-.109a.33.33 0 0 1 0 .401h-.4v-.949c.545-.219.4.402.545.548m-4.087 0v.803c0 .146-.402-.219-.621-.402-.219-.182.767-1.168.767-.401m42.021.657h-.545v-.949h.545v.949Zm-38.916 9.055c-.804-.548-1.643.766-1.753 1.351a1.54 1.54 0 0 0-.626-1.096 1.526 1.526 0 0 0-1.236-.255 27.323 27.323 0 0 0 2.118-7.011c.273 2.38.774 4.727 1.497 7.011Zm42.316.146c0-.329-.475 0-.694 0l-.949 1.497a2.524 2.524 0 0 0-.804-1.497h-.949l1.899-7.303a72.932 72.932 0 0 0 1.497 7.303Zm-8.835 10.807c5.221.292 9.858-3.359 14.896-1.022a53.378 53.378 0 0 1-52.357 4.491l-6.061-3.651a6.824 6.824 0 0 1 5.294-2.191c6.463 1.022 15.919 4.345 20.41-2.811a8.405 8.405 0 0 0 7.01-.402 12.455 12.455 0 0 0 10.954 5.513" fill="#164194"/><path d="M523.238 103.655c-3.38.32-6.756-.645-9.457-2.702 0-1.022.877-1.424 1.643-1.497a12.93 12.93 0 0 1 7.814 4.199Zm-81.567-2.3c0 1.972-2.117 2.191-3.395 2.848-1.664.452-3.39.637-5.112.548a10.366 10.366 0 0 1 8.106-3.944l.401.548Zm38.957 29.72a19.707 19.707 0 0 1-1.351 6.937c-.62-2.373-2.738-6.06-.292-8.288a1.755 1.755 0 0 1 1.643 1.351Z" fill="#fff"/><path d="M414.909 108.292a4.92 4.92 0 0 0 .803 1.789l-2.191-.73a1.563 1.563 0 0 1-1.131-1.242l-1.132-5.294-3.25.767a2.41 2.41 0 0 0-2.081 1.753l-1.351-5.733c.548.731 1.388.877 2.629.585l9.055-2.118c1.241-.292 1.898-.803 2.081-1.68l2.921 13.181a.984.984 0 0 0-.621 0c-.256 0-1.132.657-2.775 1.533a9.298 9.298 0 0 0 0-5.294l-.986-4.198-3.432.657 1.461 6.024Zm5.769 15.663a4.146 4.146 0 0 0 2.487-2.531 4.165 4.165 0 0 0-.369-3.529 4.528 4.528 0 0 0-6.718-2.009 4.125 4.125 0 0 0-2.045 6.025 4.496 4.496 0 0 0 2.838 2.597 4.48 4.48 0 0 0 3.807-.553Zm-8.872-.693a7.308 7.308 0 0 1-1.071-5.945 7.297 7.297 0 0 1 3.773-4.717 7.306 7.306 0 0 1 8.809 1.256 7.292 7.292 0 0 1 1.669 2.688 7.3 7.3 0 0 1-2.774 10.77 7.292 7.292 0 0 1-6.123.373 7.296 7.296 0 0 1-4.247-4.425h-.036Zm19.935 14.568a4.127 4.127 0 0 0 .438-6.353 4.46 4.46 0 0 0-5.391-1.383 4.464 4.464 0 0 0-1.583 1.2 4.102 4.102 0 0 0-1.72 3.081 4.095 4.095 0 0 0 1.318 3.272 4.487 4.487 0 0 0 3.417 1.749 4.483 4.483 0 0 0 3.521-1.53v-.036Zm-8.763 1.679c-3.651-3.943-3.469-8.032-.183-10.953a7.304 7.304 0 0 1 11.173 1.059 7.296 7.296 0 0 1 2.472 5.476 7.296 7.296 0 0 1-2.472 5.477 7.3 7.3 0 0 1-8.682.936 7.31 7.31 0 0 1-2.272-2.104l-.036.109Zm13.618 9.347.401-.657 5.149-7.667-.585-.402a9.16 9.16 0 0 0-4.965-1.862c1.387-1.205 2.264-1.789 2.41-2.045a1.057 1.057 0 0 0 0-.62l11.574 7.74a.95.95 0 0 0-.512.365c0 .219-.365 1.241-.949 3.03a9.381 9.381 0 0 0-3.651-3.906l-.438-.402-5.148 7.667a2.63 2.63 0 0 0-.292 2.775l-4.893-3.14a2.043 2.043 0 0 0 1.899-.766v-.11Zm20.446 2.884c1.825.621 2.848.438 3.249-.73.402-1.168-.328-1.789-1.898-2.337l-3.651-1.205-1.059 3.14 3.322 1.132h.037Zm-.986 6.061c1.862.621 3.03.329 3.432-.876.402-1.205-.402-2.008-2.3-2.629l-4.235-1.46-1.169 3.651 4.272 1.46v-.146Zm-7.521-2.665 2.884-8.69c.402-1.205.365-2.081-.329-2.738l7.303 2.556c4.198 1.423 6.207 2.847 5.33 5.476a3.101 3.101 0 0 1-3.322 2.045c2.264 1.095 2.994 2.483 2.373 4.345-.986 2.848-3.651 3.286-8.215 1.716l-7.959-2.812c.949 0 1.497-.693 1.935-1.935v.037Zm26.142 2.957-2.447-6.827-3.432 6.316 5.879.511Zm5.951 5.733h-5.258c.309-.299.492-.704.512-1.132a2.93 2.93 0 0 0 0-.877l-.366-1.131-8.105-.731-.365.658c-.143.285-.23.594-.256.912a2.085 2.085 0 0 0 .511 1.497l-5.44-1.205a6.677 6.677 0 0 0 1.826-1.825l5.988-9.858c.136-.186.235-.397.292-.621a1.416 1.416 0 0 0 0-.511l5.842.511c-.1.158-.174.33-.219.511a1.487 1.487 0 0 0 0 .657l3.651 10.954a7.65 7.65 0 0 0 1.46 2.373l-.073-.182Zm-.802-14.094 5.841-.803a2.341 2.341 0 0 0-.912 2.556l1.277 9.201 3.98-.548a8.467 8.467 0 0 0 5.221-2.337 33.39 33.39 0 0 0-.876 3.652c.066.224.192.426.365.584l-12.961 1.825c.766-.474.985-1.314.839-2.556l-1.314-9.2c0-1.242-.621-1.972-1.497-2.228l.037-.146Zm12.049-1.424 5.55-1.971a2.373 2.373 0 0 0-.365 2.702l3.14 8.726 3.651-1.351a8.293 8.293 0 0 0 4.637-3.469 31.317 31.317 0 0 0 0 3.651c0 .183.255.292.474.475l-12.341 4.418a2.265 2.265 0 0 0 .293-2.665l-3.104-8.763c-.438-1.205-1.022-1.789-1.935-1.862v.109Zm33.735-1.862c-.877.621-1.972 2.008-3.651 3.286a6.936 6.936 0 0 1-10.625-1.241 7.566 7.566 0 0 1-1.286-6.173 7.546 7.546 0 0 1 3.842-4.999c1.971-1.424 3.651-1.936 4.417-2.483.222-.152.419-.337.585-.548l.985 3.651a7.3 7.3 0 0 0-4.344 1.461 4.638 4.638 0 0 0-2.16 3.036 4.644 4.644 0 0 0 .772 3.645 4.272 4.272 0 0 0 6.682 1.096 12.722 12.722 0 0 0 3.651-4.382l2.19 3.104a3.838 3.838 0 0 0-.949.438l-.109.109Z" fill="#164194"/><path d="m518.673 134.179 3.907-4.455a2.371 2.371 0 0 0 .986 2.556l6.974 6.098 2.628-2.994a8.253 8.253 0 0 0 2.228-5.295c.52 1.14 1.105 2.25 1.752 3.323h.657l-8.653 9.895c.256-.877 0-1.68-1.059-2.52l-6.973-6.097c-.95-.84-1.753-1.095-2.593-.694l.146.183Zm24.5-8.617c-2.264 4.089-5.002 5.185-8.288 3.359l-5.55-3.067c-1.168-.621-2.044-.694-2.774 0l2.847-5.111c0 .949.439 1.57 1.57 2.227l5.477 3.03a2.996 2.996 0 0 0 3.813-.597 2.99 2.99 0 0 0 .641-1.228 2.96 2.96 0 0 0 .003-3.746 2.97 2.97 0 0 0-1.061-.818l-5.477-2.739c-1.059-.584-1.826-.803-2.738 0l2.847-5.148c0 .877.439 1.643 1.57 2.264l5.587 3.067c3.286 1.826 3.651 4.71 1.533 8.836v-.329Zm4.965-20.811c.438-1.935 0-3.031-1.205-3.323-1.205-.292-1.972.584-2.41 2.556l-.986 4.345 3.652.84 1.022-4.418h-.073Zm-6.097-.365c.401-1.863 0-2.885-1.096-3.14-1.095-.256-1.752.474-2.117 2.117l-.84 3.651 3.249.767.804-3.432v.037Zm4.308 8.142-8.945-2.082c-1.242-.292-2.118 0-2.666.621l1.753-7.667c.986-4.345 2.227-6.5 4.929-5.879a3.1 3.1 0 0 1 2.373 3.067c.84-2.336 2.154-3.213 4.089-2.774 2.921.693 3.651 3.286 2.556 7.995l-1.935 8.398c-.183-.913-.876-1.387-2.154-1.679ZM405.197 80.361l1.278-5.769a2.341 2.341 0 0 0 2.081 1.753l9.055 2.008.949-3.907a8.321 8.321 0 0 0-.438-5.769 27.44 27.44 0 0 0 3.104 2.082c.214.06.442.06.657 0l-2.811 12.815c-.22-.913-.877-1.424-2.118-1.68l-9.055-2.008a2.3 2.3 0 0 0-2.629.621l-.073-.146Zm15.153-12.888-8.252-4.236a2.373 2.373 0 0 0-2.702 0l6.755-13.144a.948.948 0 0 0 .402.439 30.63 30.63 0 0 0 3.103.62 9.573 9.573 0 0 0-3.432 4.053l-2.556 5.002 2.921 1.534 2.848-5.55c.295-.58.469-1.213.511-1.862l1.242 1.971a1.643 1.643 0 0 1 0 1.68l-2.52 4.856 3.177 1.606 2.702-5.257a8.219 8.219 0 0 0 1.022-5.696 25.556 25.556 0 0 0 2.483 2.775c.224.078.469.078.693 0l-6.864 13.363c0-.913-.474-1.57-1.606-2.154h.073Zm3.139-22.893 7.303 5.66c1.022.803 1.862 1.022 2.701.584l-3.651 4.6c.219-.913 0-1.643-1.205-2.446l-7.302-5.66c-1.022-.802-1.862-1.022-2.665-.583l3.651-4.637c-.256.912 0 1.68 1.168 2.482Zm19.022-2.702c-.767.694-1.716 2.19-3.359 3.651a6.91 6.91 0 0 1-5.349 2.541 6.898 6.898 0 0 1-5.349-2.54 7.608 7.608 0 0 1-1.636-2.776 7.608 7.608 0 0 1 .682-6.259 7.597 7.597 0 0 1 2.195-2.357 45.9 45.9 0 0 1 4.089-2.994c.184-.186.344-.394.475-.62l1.461 3.431a8.033 8.033 0 0 0-4.199 1.972 4.678 4.678 0 0 0-1.786 3.388 4.684 4.684 0 0 0 1.348 3.586 4.267 4.267 0 0 0 5.205 1.448 4.27 4.27 0 0 0 1.549-1.156 12.15 12.15 0 0 0 2.994-4.747l2.592 2.812a2.404 2.404 0 0 0-.912.547v.073Zm1.023-3.688-4.345-8.178c-.584-1.132-1.278-1.643-2.191-1.57l13.108-6.937a.873.873 0 0 0 0 .62c0 .22.949.914 2.227 2.265a9.714 9.714 0 0 0-5.112 1.204l-4.965 2.666 1.533 2.884 5.513-2.884a4.895 4.895 0 0 0 1.497-1.242v2.3a1.645 1.645 0 0 1-.949 1.424l-4.82 2.556 1.68 3.14 5.258-2.775a8.503 8.503 0 0 0 4.052-4.052c.071 1.226.23 2.447.475 3.65 0 0 .256.293.511.439l-13.253 7.01a2.3 2.3 0 0 0 0-2.702l-.219.183Zm19.643-8.214c2.3-.584 3.286-1.46 2.994-2.665-.293-1.205-1.972-1.132-4.783-.84-3.469.365-5.441-.475-5.952-2.593-.511-2.117 1.242-4.892 5.185-5.841 2.483-.621 4.454-.621 5.513-.877.195-.054.38-.14.548-.255v3.65a9.893 9.893 0 0 0-5.586 0c-1.68.402-2.447 1.133-2.228 2.009.219.876 1.899.803 4.929.657 3.031-.146 5.331.511 5.915 2.885.694 2.957-1.351 5.294-5.915 6.389-2.081.511-3.651.584-4.527.767a2.411 2.411 0 0 0-.694.328l-1.789-3.65c2.1.509 4.29.509 6.39 0v.036Zm10.879-1.205v-.803l-.401-9.201h-.694a9.162 9.162 0 0 0-5.111 1.424c.401-1.826.766-2.811.766-3.104a.95.95 0 0 0-.255-.547l13.91-.584c-.13.168-.206.371-.219.584 0 .255.439 1.241 1.023 2.994a9.71 9.71 0 0 0-5.221-.986h-.877l.365 9.2a2.668 2.668 0 0 0 1.388 2.446l-5.878.22a2.01 2.01 0 0 0 1.095-1.716l.109.073Zm8.874-1.059 1.679-9.128c.256-1.241 0-2.08-.73-2.592l14.604 2.665c-.151.14-.264.316-.328.511 0 .293 0 1.315.292 3.177a9.164 9.164 0 0 0-4.856-2.118l-5.659-1.022-.621 3.25 6.134 1.131a4.784 4.784 0 0 0 1.935 0l-1.534 1.753a1.679 1.679 0 0 1-1.606.51l-5.367-.985-.621 3.651 5.842 1.06a8.216 8.216 0 0 0 5.696-.658 30.22 30.22 0 0 0-1.936 3.213 1.11 1.11 0 0 0 0 .62l-14.604-2.7c.876-.183 1.351-.913 1.57-2.154l.11-.183Zm24.973 1.534c2.044.986 3.103.986 3.651-.402.547-1.387 0-2.154-2.045-3.14l-3.322-1.497-1.716 3.651 3.395 1.643.037-.255Zm-5.696 6.024-5.258-2.373c.913 0 1.57-.548 2.118-1.716l4.053-8.288a2.342 2.342 0 0 0 0-2.702l7.484 3.651a16.458 16.458 0 0 1 3.651 2.19 3.83 3.83 0 0 1 .731 4.638 4.09 4.09 0 0 1-5.148 1.68 5.63 5.63 0 0 1 1.205 3.176c0 1.613.349 3.207 1.022 4.673l-5.44-2.665a1.06 1.06 0 0 0 .73-.548 5.217 5.217 0 0 0 0-3.213 4.164 4.164 0 0 0-2.373-2.994l-1.497-.73-1.242 2.629a2.337 2.337 0 0 0 0 2.738l-.036-.146Zm21.907 15.882c-.767-.73-2.3-1.57-3.87-3.14a6.896 6.896 0 0 1-2.344-8.171 6.895 6.895 0 0 1 1.723-2.49 7.586 7.586 0 0 1 5.874-2.308 7.598 7.598 0 0 1 5.591 2.929c1.716 1.68 2.519 3.286 3.176 3.906.199.184.42.344.657.475l-3.359 1.606a7.63 7.63 0 0 0-2.19-4.052 4.649 4.649 0 0 0-3.487-1.58 4.635 4.635 0 0 0-3.487 1.58 4.272 4.272 0 0 0 0 6.79 12.236 12.236 0 0 0 4.892 2.74l-2.665 2.701a3.327 3.327 0 0 0-.584-.876l.073-.11Zm13.436-.693-7.521 5.257c-1.059.73-1.497 1.46-1.315 2.373l-3.359-4.782c.804.474 1.607.292 2.702-.439l7.522-5.367c1.058-.766 1.497-1.46 1.314-2.41l3.359 4.82c-.803-.475-1.643-.329-2.702.438v.11Zm-4.856 11.354.693-.328 8.361-3.98-.328-.62a9.279 9.279 0 0 0-3.286-4.126c1.789-.365 2.848-.402 3.14-.548.168-.11.306-.26.401-.438l5.988 12.596a.875.875 0 0 0-.62 0c-.256 0-.95.913-2.374 2.118a9.372 9.372 0 0 0-1.132-5.185l-.328-.657-8.325 3.98a2.483 2.483 0 0 0-1.679 2.19l-2.519-5.294a1.858 1.858 0 0 0 2.008.292Zm17.489 16.759c.365 0 .548-.292.731-.694l1.168 5.514a21.673 21.673 0 0 0-3.286-1.68l-7.302-3.651-2.154.438c-1.278.256-2.009.84-2.155 1.716l-1.205-5.769c.585.804 1.388.913 2.629.658l2.118-.439 5.988-6.389a6.02 6.02 0 0 0 1.825-2.702l1.278 6.061a.946.946 0 0 0-.949-.365c-.47.126-.883.41-1.168.803l-3.652 3.943 5.222 2.228c.374.18.794.243 1.204.182l-.292.146Z" fill="#164194"/><path d="M509.546 66.852v-.511a16.72 16.72 0 0 1 1.388-6.39 6.398 6.398 0 0 0 .365-5.586 3.417 3.417 0 0 1 0-.474 12.324 12.324 0 0 0-.84-2.155l-.365-.62h-.657a34.871 34.871 0 0 0-16.175 11.355l-2.008 1.533c.017-.109.017-.22 0-.328a2.372 2.372 0 0 0-1.606-1.68 36.728 36.728 0 0 0-11.793-1.862 31.256 31.256 0 0 0-12.67 2.52l-.84.4.256.475c-5.148-4.417-14.823-12.34-17.562-12.34h-.511l-.219.292a5.954 5.954 0 0 0-.84 1.752l-.219.256c-.913.913-1.168 1.972 0 5.148a24.293 24.293 0 0 1 1.753 7.302 21.664 21.664 0 0 0 1.679 5.623c.219.913 1.753 7.302 2.483 8.909a2.156 2.156 0 0 1-.767 2.884h-.219a5.844 5.844 0 0 0-3.03 3.651 4.971 4.971 0 0 0 1.643 4.016c.243.483.451.984.62 1.497-.474.767 0 1.205.475 1.68l.256.255c.436.413.913.78 1.424 1.096.507.288.954.672 1.314 1.132.171.201.318.422.438.657a3.654 3.654 0 0 0 1.461 1.57v.95a5.8 5.8 0 0 0 3.395 5.878l2.154.949c1.315.584 1.315.584 1.753 1.351a14.601 14.601 0 0 0 3.943 4.783 10.06 10.06 0 0 1 2.775 3.213l1.387.401c.086-.087.16-.185.219-.292a9.869 9.869 0 0 0-.839 3.14c0 1.278.511 4.199 5.148 4.929l1.241.876 1.533 1.315h1.424l1.096-.256h.292l.182-.219.694-.876.584-.73a6.209 6.209 0 0 0 3.396-1.388 7.99 7.99 0 0 0 1.971-3.651c0-.256 0-1.46-.255-2.154l-.511-1.351a4.7 4.7 0 0 1 .401.767l.511 1.533.986-1.241 2.264-2.775 2.191-2.081a6.676 6.676 0 0 0 1.387-2.081l.256-.548a25.102 25.102 0 0 1 5.184-3.651 5.734 5.734 0 0 0 3.104-5.878v-.365l-.11-.439c.26-.589.468-1.2.621-1.825a19.865 19.865 0 0 0 4.564-3.651l.328-.402v-.475s-.584-1.497 1.059-3.468c1.643-1.972 1.789-2.446 1.497-3.104a1.02 1.02 0 0 0-.767-.62 11.868 11.868 0 0 1-3.395-3.25c.015-.17.015-.34 0-.51a5.914 5.914 0 0 1 .438-4.492 6.134 6.134 0 0 0 .986-3.468 1.129 1.129 0 0 1 0-.402 64.096 64.096 0 0 1 1.789-6.499h-.11Z" fill="#FBBA00"/><path d="m483.039 109.57.767 2.373.365 3.177-2.081 1.57-7.521-.219-2.885-2.556 1.278-1.095.73-3.25c-9.419-7.047-13.545-7.777-13.545-7.777a20.305 20.305 0 0 0-5.586-1.497 5.807 5.807 0 0 0 3.395 5.879l2.154.949c1.315.584 1.315.584 1.753 1.351a14.615 14.615 0 0 0 4.162 4.345 10.06 10.06 0 0 1 2.775 3.213l1.387.401c.086-.087.16-.185.219-.292a9.869 9.869 0 0 0-.839 3.14c0 1.278.511 4.199 5.148 4.929l1.241.876 1.534 1.315h1.424l1.095-.256h.292l.183-.219.693-.876.584-.73a6.209 6.209 0 0 0 3.396-1.388 8.002 8.002 0 0 0 1.972-3.651c0-.255 0-1.46-.256-2.154l-.511-1.351a4.7 4.7 0 0 1 .401.767l.512 1.533.985-1.241 2.264-2.775 2.191-2.081a6.676 6.676 0 0 0 1.387-2.081l.256-.548a25.128 25.128 0 0 1 5.184-3.651 5.807 5.807 0 0 0 3.104-5.878l-.11-1.205v-.22l-2.629 1.425c-16.941 6.389-16.868 9.748-16.868 9.748Z" fill="#fff"/><path d="M460.803 90.548s.511-.694 1.789.365a10.952 10.952 0 0 0 7.083 2.994s.621.913-1.461.84a15.214 15.214 0 0 1-2.628-.256 15.082 15.082 0 0 1-3.834-3.176 2.122 2.122 0 0 0-.949-.694v-.073ZM479.9 70.759l-.913-.767a4.385 4.385 0 0 1-.256-2.227 18.848 18.848 0 0 1 4.528-3.25 8.373 8.373 0 0 1-1.972 2.483c-.6.39-1.101.915-1.46 1.533a5.103 5.103 0 0 0 0 2.228h.073Zm-2.923-.256s1.132-1.862.548-2.41l-4.199-3.322s0 1.789.949 2.41c.95.62 1.643.584 1.716 1.022v.438a.954.954 0 0 0 0 .84c.329.438.84 1.022.84 1.022h.146Zm9.347 10.661a43.17 43.17 0 0 1 5.915-2.665c1.533-.365 0-.73-.329-.84a7.716 7.716 0 0 0-1.388 0l-1.423.584-.694.366-1.059.803-.803.328-.475.256s-.438 1.606.256 1.278v-.11Zm-22.234-3.139c0-.585.584.219 1.022.474.438.256 2.702.913 2.702.913l.694.475 1.168.912-.256.584a1.715 1.715 0 0 1-1.022-.328c-.365-.365-1.497-1.132-1.57-.913-.073.22-.767 0-1.351-.365a2.44 2.44 0 0 1-1.387-1.752Z" fill="#164194"/><path d="M459.526 68.933a4.855 4.855 0 0 1-.438-1.095v-.329a12.038 12.038 0 0 1-.438-2.373 5.66 5.66 0 0 0-1.753-3.432l-.219-.256a1.28 1.28 0 0 0-.913-.657c-.219 0-.657 0-1.716-1.132a34.01 34.01 0 0 0-4.308-3.432l-1.971-1.424.766 2.264c.262.766.481 1.546.657 2.337v1.606c.097.678.158 1.36.183 2.045 0 .694.475 3.65.584 4.418v.255a23.63 23.63 0 0 0 1.315 2.373c.217.251.368.552.438.877a4.852 4.852 0 0 0 .182 3.176c.438 1.46 1.242 1.753 1.826 1.753a2.957 2.957 0 0 0 2.044-1.242l.84-.949.256-.292a30.07 30.07 0 0 1 2.117-2.045 2.036 2.036 0 0 0 .877-1.57 1.974 1.974 0 0 0-.475-1.241l.146.365Z" fill="#fff"/><path d="M494.539 89.343a.692.692 0 0 0-.475.767c0 .693-2.775 2.994-3.651 3.395a6.498 6.498 0 0 1-2.921.256c-.949 0-1.278 1.278-1.278 1.278a10.024 10.024 0 0 0-.657 1.533 35.531 35.531 0 0 1-1.278 4.856 11.17 11.17 0 0 0 .548 6.024c.358.852.811 1.661 1.351 2.41.252.766.375 1.568.365 2.373l.621-2.227s0-.803-.219-1.278c-.219-.474-.767-1.058-.986-1.862a26.958 26.958 0 0 1-.803-3.651c0-.584.584-3.651.693-4.381a15.41 15.41 0 0 0 .694-3.36v-.51a8.948 8.948 0 0 0 7.85-3.432c.385-.729.679-1.501.876-2.3l-.73.109Z" fill="#164194"/><path d="M506.478 55.972a15.554 15.554 0 0 1-3.432 2.446c-2.373 1.424-5.112 3.03-5.331 6.39v.547c.548.767.256 1.388-.365 2.446a5.686 5.686 0 0 0-.803 1.716v.548l.438.329a12.97 12.97 0 0 1 1.753 1.716 6.52 6.52 0 0 0 4.198 2.775h.475l.292-.402a9.867 9.867 0 0 0 1.534-4.418 8.642 8.642 0 0 1 1.241-3.651l.219-.292v-.329c-.12-1.788.091-3.582.621-5.294a23.02 23.02 0 0 0 .693-3.943v-2.337l-1.57 1.716.037.037Z" fill="#fff"/><path d="M470.26 96.243c.292 3.651 3.651 6.426 1.424 10.041.255 2.045-1.68 3.067-2.227 4.783-.877 0-.475-1.424-.365-2.008a11.802 11.802 0 0 0 .584-11.428c0-.584 0-1.242.693-1.388m35.489-30.486c-1.789 2.483-1.022 5.915-2.812 8.36-2.482-.291-3.651-2.92-5.622-4.454.401-1.642 2.41-3.066 1.095-5.001.329-4.71 5.842-5.514 8.653-8.58a53.127 53.127 0 0 0-1.314 9.675Zm2.044-11.976c-3.139 2.702-7.046 3.651-9.931 6.937-2.884 2.52.475 6.791-3.651 8.763a43.836 43.836 0 0 0 8.726 7.302c2.447-1.46 2.52-4.235 2.666-6.754 2.483-4.418 1.241-9.603 3.213-14.313-.402-.657 0-2.227-1.169-1.935h.146Zm-49.18 17.525a24.988 24.988 0 0 0-2.556 2.447c-.337.333-.654.687-.949 1.058 0 0-1.716 2.3-2.556-.255-.84-2.556 0-2.665 0-3.36a2.85 2.85 0 0 0-.694-1.277c-.328-.475-1.278-2.337-1.278-2.337s-.584-3.65-.584-4.418c0-.766-.365-3.25-.365-3.65a20.686 20.686 0 0 0-.73-2.703 34.723 34.723 0 0 1 4.345 3.396c1.971 1.862 2.336 1.168 2.555 1.643a6.201 6.201 0 0 1 2.008 3.468c.047.998.244 1.983.585 2.921.153.48.349.943.584 1.388 0 0 .913.803-.256 1.752l-.109-.073Zm1.278-3.03c-.219-.584-.804 0-.585-1.716.512-3.651 0-2.008-1.862-5.258a11.023 11.023 0 0 1-1.351-1.935c0-.401-.401-.182-.985-.511-.585-.329-.913-.475-1.716-.95a8.1 8.1 0 0 1-2.118-1.861c-.99-.8-2.083-1.464-3.25-1.972a.728.728 0 0 0-.912 0c-.584 0 .219 2.446.219 2.92a47.7 47.7 0 0 0 .803 5.916 41.775 41.775 0 0 0 1.753 7.01 15.1 15.1 0 0 1 .949 4.527 4.342 4.342 0 0 0 2.154 3.651 37.86 37.86 0 0 1 4.454-3.65A7.05 7.05 0 0 0 459.89 72c.694-.95.694-.95 1.278-1.862.584-.913-.913-1.059-1.168-1.643v-.22Zm9.676 23.039a1.971 1.971 0 1 1-3.943-.001 1.971 1.971 0 0 1 3.943 0Z" fill="#164194"/><path d="M467.12 90.511a.402.402 0 0 1-.402.439.437.437 0 0 1-.405-.601.4.4 0 0 1 .405-.239.403.403 0 0 1 .402.401Z" fill="#fff"/><path d="M491.218 91.314a1.98 1.98 0 0 1-1.137 2.062 1.974 1.974 0 0 1-2.302-.498 1.963 1.963 0 0 1-.468-1.564 1.97 1.97 0 0 1 1.137-2.062 1.977 1.977 0 0 1 1.633 0 1.97 1.97 0 0 1 1.137 2.063Zm-28.005-3.468c-1.941.2-3.892.272-5.842.219a16.32 16.32 0 0 0 5.769.986 9.603 9.603 0 0 1 3.651-.256c3.14.402 4.6 3.651 7.083 4.93l.402-1.242a9.129 9.129 0 0 0-10.954-4.637h-.109Z" fill="#164194"/><path d="M508.268 88.54a4.342 4.342 0 0 0-1.205 4.344 23.47 23.47 0 0 1-8.033 5.477c-.328 0-.912.767-1.278 1.096l-2.117 2.409h.84l-.292 1.096s1.241-1.424 1.679-2.045c.438-.621 1.533-.256 1.533-.256l1.205-.584.767-.51c.256-.183.657 0 .657 0a4.853 4.853 0 0 1-2.629 4.965 24.257 24.257 0 0 0-5.476 4.016 9.358 9.358 0 0 1-1.534 2.483l-2.227 2.117-2.227 2.994a4.744 4.744 0 0 0-.694-1.314c-.584-.913-.255-.84-.328-1.351a5.411 5.411 0 0 0-.694-1.716c-.402-.767-.949-.329-1.278-.584a2.667 2.667 0 0 1-.584-1.899c0-.84-2.045-10.588-2.227-11.428v-.876a23.763 23.763 0 0 1 3.651-5.367 9.105 9.105 0 0 1 1.716-1.534 5.33 5.33 0 0 1 4.089-.73c.929.265 1.884.424 2.848.475a6.358 6.358 0 0 0 5.002-2.155c-1.314.293-3.907.548-3.907.548-12.45-1.095-9.383.548-9.383.548a8.175 8.175 0 0 0-4.016 4.637l-1.205 1.606a8.04 8.04 0 0 0-.256 3.067c0 .511.256 1.899.256 1.899a23.94 23.94 0 0 0 1.789 10.953c0 .292.913 4.016.913 4.016h.474l.694-.693h.402v.438l.949 2.555s.256 1.79.256 2.045a8.226 8.226 0 0 1-1.643 3.067 5.147 5.147 0 0 1-4.345 1.205h-1.607l-.365-.365v-1.278a5.152 5.152 0 0 0 4.126-5.039c0-.657-1.022-1.168-1.022-1.168a12.716 12.716 0 0 0-6.755 0c-1.46.329-.949 2.373-.949 2.373 0 1.242 2.409 3.177 2.409 3.177a2.88 2.88 0 0 0 1.68.62v.439c-.078.314-.188.62-.329.912-.182.329-.876.475-1.314.548h-.402c-4.345-.438-5.184-2.629-5.184-4.199a17.599 17.599 0 0 1 1.679-4.929l.511.402c.4.058.806.058 1.205 0 .256 0 0-.621 0-.876a7.743 7.743 0 0 1-.438-.767c1.972-2.045 3.177-15.627 3.25-15.956a2.057 2.057 0 0 0 0-.949l-.256-.584-.584-.95s-1.095-.876-1.643-.62.548 1.643.548 1.643l.584.767a26.069 26.069 0 0 0-1.132 5.513l-.913 5.878a20.603 20.603 0 0 0-1.132 3.359c-.328 1.607-1.862.402-1.862.402a4.743 4.743 0 0 1-.84 3.98 9.412 9.412 0 0 0-3.14-3.652 13.509 13.509 0 0 1-3.943-4.125c-.766-1.351-.839-1.023-4.272-2.629a4.894 4.894 0 0 1-2.884-4.966s2.373.95 2.738 1.023c.87.238 1.724.53 2.556.876.584.256 3.14 1.862.584-.949-2.555-2.812-3.833-1.899-5.476-2.483-1.643-.584-1.534-1.278-2.3-2.3-.767-1.023-1.863-1.388-2.812-2.3-.949-.913-.694-.621-.511-1.132.183-.511-.767-2.228-.767-2.228-3.651-3.833 0-5.878 1.351-6.645a2.957 2.957 0 0 0 1.095-4.016c-.766-1.789-2.482-8.872-2.482-8.872a22.641 22.641 0 0 1-1.643-5.44 25.06 25.06 0 0 0-1.789-7.595c-1.534-4.344 0-3.65.255-4.855a6.035 6.035 0 0 1 .694-1.46c3.176 0 19.826 14.604 19.826 14.604a13.409 13.409 0 0 0-1.242-3.104 35.05 35.05 0 0 1 23.805-.657c2.374.95.256 3.651.256 3.651l4.345-3.25a34.105 34.105 0 0 1 15.809-10.953 9.75 9.75 0 0 1 .767 1.972 6.216 6.216 0 0 1 0 5.367 17.488 17.488 0 0 0-1.534 6.828 45.27 45.27 0 0 0-2.044 6.462 6.457 6.457 0 0 1-.95 3.651 7.305 7.305 0 0 0-.438 5.55c.256 1.387 3.944 3.943 3.944 3.943s.839-.256-1.205 2.227v.11Zm-28.187 36.985-1.095.256h-.767l-1.716-1.022a6.616 6.616 0 0 1 1.789 0h2.373l-.693.84.109-.074Zm29.209-42.206c-3.651-2.739-1.46-4.966-.657-6.5a15.865 15.865 0 0 0 1.205-5.22c0-.767.182-3.652 1.095-4.6.913-.95 1.132-5.477 1.57-6.573.331-1.08.527-2.195.584-3.322a18.06 18.06 0 0 1 0-2.081 41.753 41.753 0 0 0-2.848-6.317c-4.089.438-14.604 9.42-15.553 10.515a10.492 10.492 0 0 1-2.118 1.79 53.495 53.495 0 0 0-14.605-1.607 51.523 51.523 0 0 0-13.874 2.044 47.06 47.06 0 0 0-17.562-11.975c-4.344 4.381-1.278 14.787-.839 15.736a9.362 9.362 0 0 1 1.351 4.528c.328 2.648.84 5.272 1.533 7.85a14.38 14.38 0 0 0 1.716 4.016s-.913 1.022-2.556 2.665-1.022.84-1.971 1.278a2.329 2.329 0 0 0-1.096 1.606 23.719 23.719 0 0 0 2.374 3.651c1.131 1.205-.329 2.228-.329 2.228l3.176 2.555c1.169.95.512.877 1.351 1.643.84.767.183 1.388.183 1.388l.694.62a12.004 12.004 0 0 0 7.776 9.384 11.82 11.82 0 0 1 3.323 2.921l1.606 1.278c4.126 2.884 4.126 5.549 4.126 5.549-.767 4.601 2.483 5.44 2.483 5.44 4.345 1.461 4.089 1.826 4.089 1.826 3.323 2.629 4.272 1.278 5.477.913a10.26 10.26 0 0 0 2.629-1.351 7.308 7.308 0 0 0 5.221-7.85 21.16 21.16 0 0 1 1.789-2.227 9.637 9.637 0 0 0 1.46-2.3 51.967 51.967 0 0 1 7.01-5.404 11.28 11.28 0 0 0 6.171-8.8 7.921 7.921 0 0 1 5.148-6.133 3.102 3.102 0 0 1 0-3.323c.949-1.387 2.483-3.65 2.483-3.65s-.219 0-3.651-2.484l.036.293Z" fill="#164194"/><path d="M488.844 90.511a.401.401 0 0 1-.402.439.44.44 0 0 1-.438-.439.397.397 0 0 1 .13-.297.4.4 0 0 1 .308-.104.4.4 0 0 1 .402.401Z" fill="#fff"/><path d="M279.684 6H144.316C135.305 6 128 13.305 128 22.316v135.368c0 9.011 7.305 16.316 16.316 16.316h135.368c9.011 0 16.316-7.305 16.316-16.316V22.316C296 13.306 288.695 6 279.684 6Z" fill="#00BE40"/><path d="M262.942 112.327H161.366v8.079h101.576v-8.079Zm-73.854-40.275v-8.217h-27.722v38.352h10.13V88.549h15.668v-8.227h-15.668v-8.27h17.592Zm30.326 10.247c4.05-1.87 6.187-4.826 6.187-8.504 0-6.197-4.592-9.917-12.33-9.917h-19.623v38.309h19.835c8.44 0 13.478-3.997 13.478-10.79 0-4.39-2.795-7.674-7.547-9.098Zm-15.848-10.683h7.834c2.848 0 4.379 1.308 4.379 3.731 0 2.424-1.531 3.72-4.379 3.72h-7.834v-7.45Zm8.503 22.79h-8.503v-7.621h8.599c2.849 0 4.443 1.36 4.443 3.943 0 2.434-1.594 3.678-4.549 3.678h.01Zm39.34-15.509-4.613-.616c-4.549-.66-5.889-1.775-5.889-3.89 0-2.116 1.775-3.561 5.73-3.561 3.656 0 5.453 1.35 6.314 4.687l9.641-1.243c-1.414-7.547-6.835-11.215-15.679-11.215-9.896 0-16.401 4.943-16.401 12.5 0 6.495 3.943 10.28 12.011 11.396l4.826.659c5.113.733 6.377 1.892 6.377 4.124 0 2.232-1.892 3.56-6.377 3.56a7.26 7.26 0 0 1-7.271-5.112l-10.045 1.51c1.627 7.812 7.568 11.373 17.007 11.373 10.726 0 17.061-4.613 17.061-12.447-.043-6.888-3.912-10.449-12.692-11.725Z" fill="#fff"/><path d="M346 1.5a1.5 1.5 0 0 1 3 0v177a1.5 1.5 0 0 1-3 0V1.5Z" fill="#164194"/></svg>