<svg width="85" height="32" viewBox="0 0 85 32" fill="none" xmlns="http://www.w3.org/2000/svg">
<rect width="81" height="32" rx="8" fill="#D9EEED"/>
<path d="M15.3665 19.4844V13.5866H16.7045V19.4844H15.3665ZM13.0866 17.2045V15.8665H18.9844V17.2045H13.0866ZM24.0458 20.1193C23.6282 20.1165 23.2205 20.044 22.8228 19.902C22.4251 19.7571 22.0671 19.5227 21.7489 19.1989C21.4308 18.8722 21.1779 18.4389 20.9904 17.8991C20.8029 17.3565 20.7106 16.6847 20.7134 15.8835C20.7134 15.1364 20.793 14.4702 20.9521 13.8849C21.1112 13.2997 21.3398 12.8054 21.6381 12.402C21.9364 11.9957 22.2958 11.6861 22.7163 11.473C23.1396 11.2599 23.6126 11.1534 24.1353 11.1534C24.6836 11.1534 25.1694 11.2614 25.5927 11.4773C26.0188 11.6932 26.3626 11.9886 26.6239 12.3636C26.8853 12.7358 27.0472 13.1562 27.1097 13.625H25.5543C25.4748 13.2898 25.3114 13.0227 25.0643 12.8239C24.82 12.6222 24.5103 12.5213 24.1353 12.5213C23.5302 12.5213 23.0643 12.7841 22.7376 13.3097C22.4137 13.8352 22.2504 14.5568 22.2475 15.4744H22.3072C22.4464 15.2244 22.6268 15.0099 22.8484 14.831C23.07 14.652 23.32 14.5142 23.5984 14.4176C23.8796 14.3182 24.1765 14.2685 24.489 14.2685C25.0004 14.2685 25.4592 14.3906 25.8654 14.6349C26.2745 14.8793 26.5984 15.2159 26.837 15.6449C27.0756 16.071 27.1935 16.5597 27.1907 17.1108C27.1935 17.6847 27.0629 18.2003 26.7987 18.6577C26.5344 19.1122 26.1665 19.4702 25.695 19.7315C25.2234 19.9929 24.6737 20.1222 24.0458 20.1193ZM24.0373 18.8409C24.3469 18.8409 24.6239 18.7656 24.8683 18.6151C25.1126 18.4645 25.3058 18.2614 25.4478 18.0057C25.5898 17.75 25.6594 17.4631 25.6566 17.1449C25.6594 16.8324 25.5913 16.5497 25.4521 16.2969C25.3157 16.044 25.1268 15.8437 24.8853 15.696C24.6438 15.5483 24.3683 15.4744 24.0586 15.4744C23.8285 15.4744 23.614 15.5185 23.4151 15.6065C23.2163 15.6946 23.043 15.8168 22.8952 15.973C22.7475 16.1264 22.631 16.3054 22.5458 16.5099C22.4634 16.7116 22.4208 16.9276 22.418 17.1577C22.4208 17.4616 22.4918 17.7415 22.631 17.9972C22.7702 18.2528 22.962 18.4574 23.2063 18.6108C23.4506 18.7642 23.7276 18.8409 24.0373 18.8409ZM30.0842 18.8068L30.0288 19.2756C29.989 19.6335 29.918 19.9972 29.8157 20.3665C29.7163 20.7386 29.6112 21.081 29.5004 21.3935C29.3896 21.706 29.3001 21.9517 29.2319 22.1307H28.1921C28.2319 21.9574 28.2859 21.7216 28.354 21.4233C28.4251 21.125 28.4933 20.7898 28.5586 20.4176C28.6239 20.0455 28.668 19.6676 28.6907 19.2841L28.7205 18.8068H30.0842ZM34.7237 20.1193C34.1555 20.1193 33.647 20.0128 33.1982 19.7997C32.7493 19.5838 32.3928 19.2884 32.1286 18.9134C31.8672 18.5384 31.728 18.1094 31.7109 17.6264H33.245C33.2734 17.9844 33.4283 18.277 33.7095 18.5043C33.9908 18.7287 34.3288 18.8409 34.7237 18.8409C35.0334 18.8409 35.3089 18.7699 35.5504 18.6278C35.7919 18.4858 35.9822 18.2884 36.1214 18.0355C36.2607 17.7827 36.3288 17.4943 36.326 17.1705C36.3288 16.8409 36.2592 16.5483 36.1172 16.2926C35.9751 16.0369 35.7805 15.8366 35.5334 15.6918C35.2862 15.544 35.0021 15.4702 34.6811 15.4702C34.4197 15.4673 34.1626 15.5156 33.9098 15.6151C33.657 15.7145 33.4567 15.8452 33.3089 16.0071L31.8814 15.7727L32.3374 11.2727H37.3999V12.5938H33.6456L33.3942 14.9077H33.4453C33.6072 14.7173 33.8359 14.5597 34.1314 14.4347C34.4268 14.3068 34.7507 14.2429 35.103 14.2429C35.6314 14.2429 36.103 14.3679 36.5178 14.6179C36.9325 14.8651 37.2592 15.206 37.4979 15.6406C37.7365 16.0753 37.8558 16.5724 37.8558 17.1321C37.8558 17.7088 37.7223 18.223 37.4553 18.6747C37.1911 19.1236 36.8232 19.4773 36.3516 19.7358C35.8828 19.9915 35.3402 20.1193 34.7237 20.1193ZM43.9496 18.3636V17.9034C43.9496 17.5653 44.0206 17.2543 44.1626 16.9702C44.3075 16.6861 44.5178 16.4574 44.7933 16.2841C45.0689 16.1108 45.4027 16.0241 45.7947 16.0241C46.1982 16.0241 46.5362 16.1108 46.8089 16.2841C47.0817 16.4545 47.2876 16.6818 47.4268 16.9659C47.5689 17.25 47.6399 17.5625 47.6399 17.9034V18.3636C47.6399 18.7017 47.5689 19.0128 47.4268 19.2969C47.2848 19.581 47.076 19.8097 46.8004 19.983C46.5277 20.1563 46.1925 20.2429 45.7947 20.2429C45.397 20.2429 45.0604 20.1563 44.7848 19.983C44.5092 19.8097 44.3004 19.581 44.1584 19.2969C44.0192 19.0128 43.9496 18.7017 43.9496 18.3636ZM45.0618 17.9034V18.3636C45.0618 18.5881 45.1158 18.794 45.2237 18.9815C45.3317 19.169 45.522 19.2628 45.7947 19.2628C46.0703 19.2628 46.2592 19.1705 46.3615 18.9858C46.4666 18.7983 46.5192 18.5909 46.5192 18.3636V17.9034C46.5192 17.6761 46.4695 17.4688 46.37 17.2812C46.2706 17.0909 46.0788 16.9957 45.7947 16.9957C45.5277 16.9957 45.3388 17.0909 45.228 17.2812C45.1172 17.4688 45.0618 17.6761 45.0618 17.9034ZM39.5135 13.3693V12.9091C39.5135 12.5682 39.5859 12.2557 39.7308 11.9716C39.8757 11.6875 40.0859 11.4602 40.3615 11.2898C40.6371 11.1165 40.9709 11.0298 41.3629 11.0298C41.7635 11.0298 42.1001 11.1165 42.3729 11.2898C42.6484 11.4602 42.8558 11.6875 42.995 11.9716C43.1342 12.2557 43.2038 12.5682 43.2038 12.9091V13.3693C43.2038 13.7102 43.1328 14.0227 42.9908 14.3068C42.8516 14.5881 42.6442 14.8139 42.3686 14.9844C42.093 15.1548 41.7578 15.2401 41.3629 15.2401C40.9624 15.2401 40.6243 15.1548 40.3487 14.9844C40.076 14.8139 39.8686 14.5866 39.7266 14.3026C39.5845 14.0185 39.5135 13.7074 39.5135 13.3693ZM40.6342 12.9091V13.3693C40.6342 13.5966 40.6868 13.804 40.7919 13.9915C40.8999 14.1761 41.0902 14.2685 41.3629 14.2685C41.6357 14.2685 41.8232 14.1761 41.9254 13.9915C42.0305 13.804 42.0831 13.5966 42.0831 13.3693V12.9091C42.0831 12.6818 42.0334 12.4744 41.9339 12.2869C41.8345 12.0966 41.6442 12.0014 41.3629 12.0014C41.093 12.0014 40.9041 12.0966 40.7962 12.2869C40.6882 12.4773 40.6342 12.6847 40.6342 12.9091ZM39.9993 20L45.9993 11.2727H47.0646L41.0646 20H39.9993Z" fill="#09544F"/>
<path d="M60.134 9.5C60.5189 8.83333 61.4811 8.83333 61.866 9.5L67.0622 18.5C67.4471 19.1667 66.966 20 66.1962 20H55.8038C55.034 20 54.5529 19.1667 54.9378 18.5L60.134 9.5Z" fill="#00BE40"/>
<path fill-rule="evenodd" clip-rule="evenodd" d="M85 16L81 10V22L85 16Z" fill="#D9EEED"/>
</svg>
