<svg width="696" height="296" viewBox="0 0 696 296" fill="none" xmlns="http://www.w3.org/2000/svg">
<path d="M135.707 265.515V256.136H138.657L145.445 265.515H153.163L145.688 255.368C149.365 253.913 151.506 251.083 151.506 246.677C151.506 240.977 148.112 237.217 141.445 237.217H129V265.515H135.707ZM135.707 243.2H140.799C143.223 243.2 144.637 244.453 144.637 246.677C144.637 248.9 143.223 250.153 140.799 250.153H135.707V243.2Z" fill="white"/>
<path d="M176.069 265.515L177.079 259.532H162.816V253.953H171.139L171.907 248.213H162.816V243.2H176.433L175.422 237.217H156.108V265.515H176.069Z" fill="white"/>
<path d="M192.366 266C199.114 266 203.76 262.24 203.76 256.621C203.76 252.174 200.73 249.668 195.962 248.617L192.649 247.889C189.739 247.243 188.083 246.636 188.083 245.019C188.083 243.443 190.063 242.715 192.083 242.715C194.507 242.715 196.851 243.968 198.669 246.353L202.993 241.3C200.568 238.511 197.174 236.732 192.083 236.732C186.143 236.732 181.537 240.168 181.537 245.221C181.537 249.87 185.012 252.579 188.608 253.347L192.447 254.155C195.154 254.721 196.972 255.53 196.972 257.147C196.972 258.845 194.79 259.855 192.487 259.855C189.012 259.855 186.062 258.036 184.406 255.206L179.597 260.26C181.86 263.534 185.618 266 192.366 266Z" fill="white"/>
<path d="M214.663 265.515V248.86L221.37 265.515H226.462L233.169 248.86V265.515H239.796V237.217H231.593L223.916 256.419L216.239 237.217H208.036V265.515H214.663Z" fill="white"/>
<path d="M256.655 265.515H243.523V262.038L247.038 260.421V241.745L243.523 240.128V236.651H256.655V240.128L253.14 241.745V260.421L256.655 262.038V265.515ZM250.109 228C250.998 228 251.766 228.216 252.412 228.647C253.059 229.051 253.382 229.819 253.382 230.951C253.382 232.056 253.059 232.824 252.412 233.255C251.766 233.687 250.998 233.902 250.109 233.902C249.193 233.902 248.412 233.687 247.766 233.255C247.146 232.824 246.836 232.056 246.836 230.951C246.836 229.819 247.146 229.051 247.766 228.647C248.412 228.216 249.193 228 250.109 228Z" fill="white"/>
<path d="M295.836 265.515L285.613 237.217H277.289L267.067 265.515H274.421L276.239 260.017H286.664L288.482 265.515H295.836ZM281.451 244.413L284.643 254.034H278.259L281.451 244.413Z" fill="white"/>
<path d="M305.616 265.515V247.445L315.152 265.515H323.677V237.217H317.051V256.217L307.192 237.217H298.989V265.515H305.616Z" fill="white"/>
<path d="M355.616 265.515L345.393 237.217H337.07L326.847 265.515H334.201L336.019 260.017H346.444L348.262 265.515H355.616ZM341.232 244.413L344.424 254.034H338.04L341.232 244.413Z" fill="white"/>
<path d="M373.882 265.515V256.621H378.973C386.004 256.621 389.681 252.498 389.681 246.919C389.681 241.34 386.004 237.217 378.973 237.217H367.175V265.515H373.882ZM373.882 243.2H378.569C380.953 243.2 382.812 244.332 382.812 246.919C382.812 249.506 380.953 250.638 378.569 250.638H373.882V243.2Z" fill="white"/>
<path d="M416.936 265.515L406.713 237.217H398.389L388.166 265.515H395.52L397.339 260.017H407.763L409.582 265.515H416.936ZM402.551 244.413L405.743 254.034H399.359L402.551 244.413Z" fill="white"/>
<path d="M426.796 265.515V256.136H429.746L436.534 265.515H444.252L436.777 255.368C440.454 253.913 442.595 251.083 442.595 246.677C442.595 240.977 439.201 237.217 432.534 237.217H420.089V265.515H426.796ZM426.796 243.2H431.888C434.312 243.2 435.726 244.453 435.726 246.677C435.726 248.9 434.312 250.153 431.888 250.153H426.796V243.2Z" fill="white"/>
<path d="M460.954 265.515V243.2H470.248L469.238 237.217H445.964L444.954 243.2H454.247V265.515H460.954Z" fill="white"/>
<path d="M480.262 265.515V247.445L489.797 265.515H498.323V237.217H491.696V256.217L481.837 237.217H473.635V265.515H480.262Z" fill="white"/>
<path d="M523.15 265.515L524.16 259.532H509.897V253.953H518.221L518.989 248.213H509.897V243.2H523.514L522.504 237.217H503.19V265.515H523.15Z" fill="white"/>
<path d="M534.598 265.515V256.136H537.548L544.336 265.515H552.054L544.579 255.368C548.256 253.913 550.397 251.083 550.397 246.677C550.397 240.977 547.003 237.217 540.336 237.217H527.891V265.515H534.598ZM534.598 243.2H539.69C542.114 243.2 543.528 244.453 543.528 246.677C543.528 248.9 542.114 250.153 539.69 250.153H534.598V243.2Z" fill="white"/>
<path d="M567 265.515H553.868V262.038L557.383 260.421V241.745L553.868 240.128V236.651H567V240.128L563.485 241.745V260.421L567 262.038V265.515ZM560.454 228C561.343 228 562.111 228.216 562.757 228.647C563.404 229.051 563.727 229.819 563.727 230.951C563.727 232.056 563.404 232.824 562.757 233.255C562.111 233.687 561.343 233.902 560.454 233.902C559.538 233.902 558.757 233.687 558.111 233.255C557.491 232.824 557.181 232.056 557.181 230.951C557.181 229.819 557.491 229.051 558.111 228.647C558.757 228.216 559.538 228 560.454 228Z" fill="white"/>
<path d="M478 180C495.802 180 513.204 174.721 528.005 164.83C542.806 154.939 554.342 140.881 561.153 124.433C567.963 107.986 569.744 89.8877 566.268 72.4285C562.792 54.9692 554.217 38.9328 541.627 26.3475C529.036 13.7622 512.996 5.19346 495.536 1.72492C478.075 -1.74363 459.978 0.0438807 443.533 6.86136C427.088 13.6788 413.035 25.22 403.15 40.0253C393.265 54.8305 387.993 72.2347 388 90.0365C388 101.854 390.328 113.555 394.852 124.472C399.375 135.39 406.005 145.309 414.363 153.663C422.72 162.018 432.642 168.643 443.561 173.162C454.48 177.681 466.183 180.005 478 180" fill="white"/>
<path d="M478 176.787C495.166 176.787 511.947 171.696 526.22 162.158C540.493 152.62 551.617 139.064 558.184 123.203C564.752 107.343 566.468 89.8912 563.117 73.0552C559.765 56.2192 551.496 40.7553 539.355 28.6193C527.214 16.4834 511.746 8.22064 494.909 4.87607C478.071 1.5315 460.62 3.25538 444.763 9.82968C428.905 16.404 415.353 27.5334 405.821 41.8102C396.29 56.0871 391.206 72.87 391.213 90.0364C391.213 101.432 393.458 112.715 397.82 123.243C402.182 133.77 408.575 143.335 416.634 151.391C424.694 159.447 434.261 165.836 444.791 170.194C455.32 174.551 466.605 176.792 478 176.787" fill="#164194"/>
<path d="M477.999 171.201C494.054 171.172 509.741 166.385 523.076 157.443C536.411 148.501 546.796 135.807 552.918 120.965C559.041 106.123 560.626 89.799 557.473 74.0562C554.321 58.3135 546.572 43.8586 535.206 32.5185C523.841 21.1785 509.368 13.4622 493.619 10.345C477.869 7.2278 461.548 8.84956 446.72 15.0053C431.892 21.1611 419.221 31.5745 410.309 44.9295C401.398 58.2846 396.645 73.9817 396.652 90.037C396.652 100.711 398.758 111.28 402.848 121.139C406.938 130.999 412.933 139.954 420.489 147.493C428.045 155.033 437.015 161.007 446.883 165.076C456.751 169.144 467.325 171.225 477.999 171.201" fill="white"/>
<path d="M398.697 90.0366C398.692 79.6211 400.74 69.3068 404.724 59.6833C408.708 50.0597 414.549 41.3156 421.914 33.9508C429.278 26.5859 438.023 20.7447 447.646 16.7611C457.27 12.7775 467.584 10.7296 477.999 10.7344V10.7344C488.415 10.7296 498.729 12.7775 508.353 16.7611C517.976 20.7447 526.72 26.5859 534.085 33.9508C541.45 41.3156 547.291 50.0597 551.275 59.6833C555.259 69.3068 557.306 79.6211 557.302 90.0366V90.0366C557.302 100.449 555.25 110.759 551.264 120.379C547.279 129.998 541.437 138.738 534.072 146.099C526.708 153.46 517.966 159.298 508.344 163.279C498.723 167.26 488.412 169.307 477.999 169.302V169.302V168.353C488.286 168.363 498.474 166.343 507.978 162.409C517.483 158.474 526.117 152.702 533.387 145.424V145.424C540.665 138.155 546.437 129.52 550.372 120.016C554.306 110.511 556.326 100.323 556.316 90.0366V90.0366C556.332 79.7489 554.315 69.5595 550.38 60.0542C546.445 50.5488 540.67 41.915 533.387 34.6492V34.6492C526.124 27.3595 517.492 21.5777 507.986 17.6364C498.481 13.6951 488.29 11.672 477.999 11.6837V11.6837C467.708 11.666 457.516 13.6863 448.009 17.628C438.503 21.5696 429.871 27.3546 422.612 34.6492V34.6492C415.317 41.9084 409.532 50.5401 405.591 60.0464C401.649 69.5528 399.629 79.7455 399.647 90.0366V90.0366C399.635 100.327 401.658 110.518 405.599 120.023C409.541 129.529 415.322 138.161 422.612 145.424V145.424C429.878 152.707 438.512 158.482 448.017 162.417C457.522 166.352 467.712 168.369 477.999 168.353V168.353V169.302C467.587 169.307 457.276 167.26 447.655 163.279C438.033 159.298 429.291 153.46 421.927 146.099C414.562 138.738 408.72 129.998 404.735 120.379C400.749 110.759 398.697 100.449 398.697 90.0366V90.0366Z" fill="#164194"/>
<path d="M477.999 146.337C489.135 146.337 500.02 143.035 509.278 136.848C518.537 130.662 525.753 121.869 530.014 111.582C534.275 101.294 535.39 89.9741 533.218 79.0529C531.045 68.1317 525.683 58.1 517.81 50.2263C509.936 42.3526 499.904 36.9905 488.983 34.8181C478.062 32.6458 466.742 33.7607 456.454 38.022C446.167 42.2832 437.374 49.4993 431.188 58.7578C425.001 68.0163 421.699 78.9014 421.699 90.0365C421.699 104.968 427.631 119.288 438.189 129.847C443.417 135.075 449.624 139.222 456.454 142.051C463.285 144.88 470.606 146.337 477.999 146.337" fill="white"/>
<path d="M476.503 37.8623C475.335 44.2152 467.667 44.2152 463.432 47.6108C461.167 49.4093 459.625 51.9622 459.087 54.8035C455.071 52.7589 451.164 49.7284 447.002 48.0854C455.448 41.5565 465.827 38.0241 476.503 38.0449" fill="#164194"/>
<path d="M508.012 47.1361L497.862 53.8177C496.694 46.5154 488.661 44.4343 483.258 42.1706C482.162 41.0023 480.519 39.5053 481.14 37.8623C490.851 38.2886 500.232 41.5088 508.158 47.1361" fill="#164194"/>
<path d="M481.652 43.8503C486.837 46.6252 495.015 47.5014 496.256 55.0592C496.001 55.826 495.052 56.1546 494.577 56.5562C494.102 46.7712 482.601 48.6698 478.914 41.258C475.043 48.7428 462.666 47.3189 462.812 57.6515C461.972 57.2499 460.366 56.3006 461.242 54.8037C463.36 46.5521 473.218 47.0998 477.964 41.4041L478.658 38.4102C479.007 40.5117 480.063 42.4311 481.652 43.8503" fill="#164194"/>
<path d="M478.951 47.0624C478.951 47.2815 478.951 47.6831 478.951 47.8291C478.951 47.9752 478.549 47.537 478.293 47.4275C478.037 47.318 478.951 46.2592 479.097 47.0624" fill="#164194"/>
<path d="M480.992 48.9247C480.992 49.2533 480.992 49.5089 480.702 49.7279H480.629V48.5596C480.956 48.5596 481.028 48.7786 481.173 48.9247" fill="#164194"/>
<path d="M476.975 48.9253C476.975 49.1809 476.975 49.5825 476.975 49.7286H476.576V48.7793C476.576 48.7793 477.048 48.7793 477.121 48.7793" fill="#164194"/>
<path d="M441.525 61.6309C436.559 64.4788 435.172 72.3287 428.855 71.6715C431.71 63.8533 436.51 56.8917 442.803 51.4443C441.338 54.6273 440.892 58.1848 441.525 61.6309" fill="#164194"/>
<path d="M479.496 57.4692H477.232L478.802 51.7734C478.747 53.696 478.981 55.616 479.496 57.4692" fill="#164194"/>
<path d="M526.413 70.5398C520.973 70.1382 519.111 63.5297 514.328 61.0834C515.148 58.5153 515.409 55.8015 515.095 53.124C520.174 57.9677 524.05 63.9317 526.413 70.5398" fill="#164194"/>
<path d="M527.18 72.1824V72.438C519.622 77.5496 527.509 89.0506 519.33 93.7971C516.815 95.1416 513.943 95.6651 511.115 95.294C511.59 93.4684 514.511 94.1987 516.081 93.2494C525.537 90.4015 520.791 79.1196 525.464 73.0587C520.791 71.8904 517.14 67.8376 513.488 64.8802L513.708 63.5293C518.052 66.5962 521.302 72.7666 527.107 72.1824" fill="#164194"/>
<path d="M443.022 64.6251C439.371 68.6413 435.72 73.0591 430.718 74.0815C431.265 75.5784 432.616 76.7468 433.164 78.2802C434.807 84.6697 434.989 93.4689 443.168 95.2944C444.336 95.7691 445.943 95.0389 446.819 96.2437C444.962 96.6716 443.027 96.6357 441.187 96.139C439.347 95.6423 437.657 94.7002 436.267 93.3958C430.608 87.8827 436.267 77.3309 427.906 73.3877C434.77 74.8847 437.436 66.6697 442.255 63.6758L443.058 64.6251H443.022Z" fill="#164194"/>
<path d="M515.824 72.5844C515.824 72.84 515.824 73.2051 515.824 73.3876H515.57V72.1828C515.626 72.1681 515.684 72.1682 515.739 72.1832C515.794 72.1982 515.844 72.2275 515.885 72.2681C515.925 72.3088 515.954 72.3594 515.969 72.4149C515.984 72.4704 515.984 72.5288 515.97 72.5844" fill="#164194"/>
<path d="M442.073 73.3877C442.073 73.3877 442.073 73.6067 442.073 73.6798C442.073 73.7528 441.488 73.6798 441.269 73.3877C441.013 72.5114 442.438 72.5114 442.219 73.3877" fill="#164194"/>
<path d="M514.111 75.0306C514.111 75.0306 513.855 75.5053 513.563 75.4322C513.451 75.3907 513.354 75.316 513.286 75.2181C513.218 75.1202 513.182 75.0038 513.182 74.8846C513.182 74.7653 513.218 74.6489 513.286 74.551C513.354 74.4531 513.451 74.3784 513.563 74.3369C514.038 74.3369 513.965 74.775 514.111 75.0306Z" fill="#164194"/>
<path d="M517.871 74.3366C517.871 74.6287 517.871 75.0303 517.871 75.2494C517.871 75.4684 517.469 74.9573 517.323 74.8843C517.177 74.8112 517.323 74.154 518.017 74.3366" fill="#164194"/>
<path d="M444.118 75.2492C444.118 75.2492 443.899 75.6508 443.57 75.5778L443.168 75.2492L443.789 74.4824C444.045 74.7015 444.045 74.9571 444.118 75.2492" fill="#164194"/>
<path d="M515.095 126.949L511.444 130.272C510.422 122.568 519.403 117.675 517.249 109.314C516.408 107.113 515.092 105.124 513.394 103.49C511.696 101.855 509.659 100.615 507.428 99.8578C507.428 94.4177 513.306 98.3609 516.154 97.1925C517.968 96.9092 519.688 96.1942 521.168 95.1077C522.649 94.0213 523.847 92.595 524.661 90.9491C527.655 85.8375 523.456 78.9735 527.874 74.373C530.766 83.4718 531.096 93.1911 528.829 102.465C526.562 111.739 521.785 120.21 515.022 126.949" fill="#164194"/>
<path d="M440.173 75.2499C440.173 75.5785 440.173 75.761 439.773 75.9801V74.8848C439.991 74.8848 440.173 75.1038 440.318 75.2499" fill="#164194"/>
<path d="M433.165 92.4467C434.095 94.0451 435.36 95.4239 436.872 96.4888C438.385 97.5537 440.109 98.2797 441.928 98.617C444.246 98.6681 446.565 98.5461 448.865 98.2519L449.485 99.7489C447.265 100.449 445.235 101.65 443.552 103.257C441.868 104.865 440.575 106.837 439.773 109.023C437.802 117.238 445.214 122.495 446.637 129.834L446.053 131.696C438.141 125.654 432.112 117.483 428.672 108.14C425.232 98.7975 424.524 88.6683 426.629 78.9375L427.688 75.542C434.443 78.3899 429.623 87.4446 432.982 92.5562" fill="#164194"/>
<path d="M517.139 84.4871C516.044 84.0855 515.788 85.4364 515.387 85.984C515.168 85.5094 515.168 84.8887 514.693 84.4871L513.488 84.7427L515.752 77.4404C515.918 79.8381 516.384 82.2055 517.139 84.4871" fill="#164194"/>
<path d="M443.79 84.8886C442.768 84.6695 442.366 85.5093 442.074 86.2395V86.6046C441.818 85.8379 441.198 84.1584 440.029 85.0346C440.836 82.6373 441.518 80.2 442.074 77.7324C442.114 80.1681 442.701 82.5636 443.79 84.7426" fill="#164194"/>
<path d="M450.435 102.706V103.4C447.258 104.897 443.571 107.672 443.571 111.542C443.096 118.844 449.96 122.714 449.23 129.798C450.325 130.674 451.348 129.104 452.626 129.25C456.788 128.958 468.617 130.199 471.392 126.804C472.086 126.804 472.561 127.059 473.108 127.388C472.485 128.539 471.585 129.516 470.488 130.23C469.391 130.945 468.133 131.373 466.828 131.477C460.366 132.098 452.954 126.658 447.733 132.572C451.676 123.372 438.131 117.384 442.621 107.599C443.354 106.119 444.379 104.803 445.634 103.73C446.889 102.657 448.348 101.849 449.924 101.355L450.325 102.56L450.435 102.706Z" fill="#164194"/>
<path d="M515.279 110.41C516.228 118.552 506.772 122.933 509.364 131.075C501.404 126.511 491.108 137.464 484.244 128.008C484.244 127.351 484.938 126.876 485.412 126.657C486.836 127.059 487.311 128.373 488.552 129.176C494.723 133.594 501.258 127.826 507.867 129.505C508.268 128.702 507.867 127.132 508.268 126.109C510.788 120.341 517.031 113.038 511.116 106.795C509.565 105.46 507.766 104.443 505.822 103.801C505.275 102.925 506.151 102.304 506.37 101.501C510.021 102.852 514.877 106.101 515.279 110.41" fill="#164194"/>
<path d="M500.309 111.906C499.834 112.162 499.834 111.614 499.615 111.359C499.396 111.103 499.834 110.592 500.309 110.811V111.906V111.906Z" fill="#164194"/>
<path d="M458.139 111.359C458.139 111.615 458.139 112.016 458.139 112.162C458.139 112.308 457.737 111.834 457.518 111.761C457.116 111.067 458.285 110.665 458.285 111.359" fill="#164194"/>
<path d="M502.532 113.66C502.314 113.66 502.241 113.66 502.132 113.66C502.023 113.66 501.697 112.564 502.132 112.564C502.568 112.564 502.132 113.185 502.35 113.514" fill="#164194"/>
<path d="M460.181 113.404C460.225 113.461 460.249 113.532 460.249 113.604C460.249 113.677 460.225 113.748 460.181 113.805H459.781V112.856C460.326 112.637 460.181 113.258 460.326 113.404" fill="#164194"/>
<path d="M456.239 113.403C456.239 113.732 456.239 114.061 456.239 114.207C456.239 114.353 455.837 113.988 455.618 113.805C455.399 113.622 456.385 112.637 456.385 113.403" fill="#164194"/>
<path d="M498.406 114.061H497.861V113.111H498.406V114.061Z" fill="#164194"/>
<path d="M459.49 123.116C458.686 122.568 457.847 123.882 457.737 124.467C457.716 124.25 457.65 124.04 457.542 123.851C457.434 123.662 457.287 123.498 457.111 123.371C456.935 123.243 456.734 123.154 456.52 123.11C456.307 123.066 456.087 123.068 455.875 123.116C456.892 120.885 457.605 118.527 457.993 116.105C458.266 118.485 458.767 120.832 459.49 123.116" fill="#164194"/>
<path d="M501.806 123.261C501.806 122.933 501.331 123.261 501.112 123.261L500.163 124.758C500.076 124.181 499.792 123.652 499.359 123.261H498.41L500.309 115.959C500.683 118.417 501.183 120.854 501.806 123.261" fill="#164194"/>
<path d="M492.971 134.069C498.192 134.361 502.829 130.71 507.867 133.046C500.268 138.247 491.454 141.394 482.279 142.181C473.105 142.968 463.883 141.368 455.51 137.537L449.449 133.886C450.12 133.159 450.941 132.587 451.855 132.209C452.769 131.83 453.755 131.655 454.743 131.695C461.206 132.718 470.662 136.04 475.153 128.884C476.281 129.327 477.492 129.52 478.702 129.451C479.912 129.382 481.093 129.051 482.163 128.482C483.358 130.268 484.995 131.715 486.914 132.681C488.833 133.647 490.97 134.1 493.117 133.996" fill="#164194"/>
<path d="M523.238 103.655C519.858 103.974 516.482 103.01 513.781 100.953C513.781 99.9307 514.658 99.5291 515.424 99.4561C518.442 99.8902 521.21 101.377 523.238 103.655Z" fill="white"/>
<path d="M441.671 101.355C441.671 103.327 439.554 103.546 438.276 104.203C436.612 104.655 434.886 104.84 433.164 104.751C434.131 103.526 435.362 102.535 436.766 101.852C438.169 101.17 439.709 100.813 441.27 100.808L441.671 101.355Z" fill="white"/>
<path d="M480.628 131.076C480.599 133.45 480.142 135.801 479.277 138.013C478.657 135.639 476.539 131.952 478.985 129.725C479.369 129.738 479.738 129.878 480.035 130.122C480.332 130.366 480.54 130.701 480.628 131.076" fill="white"/>
<path d="M414.909 108.292C415.054 108.936 415.327 109.545 415.712 110.081L413.521 109.351C413.235 109.273 412.976 109.114 412.775 108.895C412.575 108.675 412.441 108.403 412.39 108.11L411.258 102.816L408.008 103.582C407.525 103.631 407.068 103.824 406.697 104.137C406.325 104.45 406.057 104.867 405.927 105.335L404.576 99.6026C405.124 100.333 405.964 100.479 407.205 100.187L416.26 98.0692C417.501 97.7771 418.158 97.2659 418.341 96.3896L421.262 109.57C421.06 109.503 420.843 109.503 420.641 109.57C420.385 109.57 419.509 110.227 417.866 111.104C418.379 109.376 418.379 107.537 417.866 105.81L416.88 101.611L413.448 102.268L414.909 108.292Z" fill="#164194"/>
<path d="M420.678 123.955C421.254 123.743 421.775 123.406 422.205 122.968C422.635 122.53 422.963 122.003 423.165 121.424C423.367 120.845 423.439 120.228 423.375 119.618C423.312 119.008 423.114 118.419 422.796 117.895C422.538 117.275 422.145 116.721 421.647 116.272C421.148 115.822 420.556 115.49 419.913 115.297C419.27 115.105 418.592 115.058 417.929 115.16C417.266 115.262 416.633 115.51 416.078 115.886C415.51 116.102 414.996 116.441 414.574 116.879C414.152 117.316 413.832 117.842 413.637 118.417C413.441 118.993 413.375 119.604 413.444 120.208C413.513 120.812 413.714 121.394 414.033 121.911C414.284 122.527 414.669 123.079 415.16 123.529C415.651 123.978 416.235 124.312 416.871 124.508C417.507 124.704 418.178 124.756 418.837 124.66C419.495 124.564 420.124 124.324 420.678 123.955V123.955ZM411.806 123.262C411.214 122.405 410.812 121.431 410.627 120.405C410.443 119.38 410.48 118.327 410.735 117.317C410.991 116.308 411.46 115.364 412.111 114.551C412.762 113.737 413.579 113.072 414.508 112.6C415.437 112.076 416.471 111.762 417.535 111.68C418.599 111.598 419.669 111.75 420.668 112.126C421.667 112.502 422.571 113.092 423.317 113.856C424.063 114.619 424.633 115.536 424.986 116.544C425.596 117.409 426.009 118.395 426.2 119.436C426.39 120.476 426.352 121.546 426.088 122.57C425.824 123.595 425.34 124.549 424.671 125.368C424.002 126.188 423.163 126.852 422.212 127.314C421.279 127.817 420.249 128.111 419.191 128.175C418.134 128.239 417.076 128.073 416.089 127.687C415.103 127.302 414.212 126.706 413.479 125.942C412.745 125.178 412.187 124.263 411.842 123.262H411.806Z" fill="#164194"/>
<path d="M431.741 137.83C432.236 137.476 432.647 137.017 432.944 136.486C433.24 135.955 433.416 135.364 433.458 134.757C433.5 134.15 433.407 133.541 433.186 132.974C432.965 132.407 432.621 131.896 432.179 131.477C431.775 130.941 431.256 130.503 430.66 130.196C430.064 129.889 429.406 129.72 428.736 129.702C428.065 129.685 427.4 129.819 426.788 130.095C426.177 130.37 425.636 130.781 425.205 131.295C424.707 131.647 424.294 132.107 423.996 132.64C423.698 133.173 423.524 133.766 423.485 134.375C423.447 134.984 423.545 135.594 423.773 136.161C424.001 136.727 424.353 137.235 424.803 137.648C425.208 138.173 425.725 138.603 426.316 138.906C426.906 139.208 427.557 139.376 428.22 139.397C428.884 139.418 429.543 139.291 430.152 139.027C430.761 138.762 431.303 138.366 431.741 137.867V137.83ZM422.978 139.51C419.327 135.566 419.509 131.477 422.795 128.556C423.555 127.802 424.472 127.223 425.48 126.863C426.488 126.502 427.563 126.367 428.63 126.468C429.696 126.569 430.726 126.903 431.649 127.447C432.572 127.991 433.363 128.731 433.968 129.615C434.745 130.3 435.367 131.143 435.793 132.087C436.22 133.032 436.44 134.056 436.44 135.092C436.44 136.128 436.22 137.152 435.793 138.096C435.367 139.04 434.745 139.883 433.968 140.568C433.203 141.279 432.294 141.817 431.303 142.146C430.313 142.475 429.263 142.589 428.225 142.478C427.187 142.367 426.185 142.035 425.286 141.504C424.387 140.973 423.612 140.256 423.014 139.4L422.978 139.51Z" fill="#164194"/>
<path d="M436.596 148.856L436.997 148.199L442.146 140.532L441.561 140.13C440.126 139.033 438.398 138.386 436.596 138.268C437.983 137.063 438.86 136.479 439.006 136.223C439.068 136.021 439.068 135.805 439.006 135.603L450.58 143.343C450.373 143.403 450.192 143.532 450.068 143.708C450.068 143.927 449.703 144.949 449.119 146.738C448.307 145.11 447.038 143.752 445.468 142.832L445.03 142.43L439.882 150.097C439.578 150.486 439.389 150.952 439.337 151.443C439.286 151.934 439.373 152.429 439.59 152.872L434.697 149.732C435.053 149.783 435.416 149.738 435.749 149.604C436.083 149.469 436.375 149.249 436.596 148.966V148.856Z" fill="#164194"/>
<path d="M457.042 151.74C458.867 152.361 459.89 152.179 460.291 151.01C460.693 149.842 459.963 149.221 458.393 148.674L454.742 147.469L453.683 150.609L457.005 151.74H457.042ZM456.056 157.801C457.918 158.422 459.086 158.13 459.488 156.925C459.89 155.72 459.086 154.917 457.188 154.296L452.953 152.836L451.784 156.487L456.056 157.947V157.801ZM448.535 155.136L451.419 146.446C451.821 145.241 451.784 144.365 451.09 143.708L458.393 146.264C462.591 147.688 464.6 149.112 463.723 151.74C463.487 152.41 463.028 152.978 462.424 153.35C461.819 153.722 461.105 153.876 460.401 153.785C462.665 154.88 463.395 156.268 462.774 158.13C461.788 160.978 459.123 161.416 454.559 159.846L446.6 157.035C447.549 157.035 448.097 156.341 448.535 155.099V155.136Z" fill="#164194"/>
<path d="M474.677 158.093L472.23 151.266L468.798 157.582L474.677 158.093ZM480.628 163.826H475.37C475.679 163.527 475.862 163.122 475.882 162.694C475.926 162.403 475.926 162.108 475.882 161.817L475.516 160.686L467.411 159.955L467.046 160.613C466.903 160.898 466.816 161.207 466.79 161.525C466.757 162.072 466.941 162.61 467.301 163.022L461.861 161.817C462.583 161.333 463.203 160.713 463.687 159.992L469.675 150.134C469.811 149.948 469.91 149.737 469.967 149.513C469.998 149.344 469.998 149.171 469.967 149.002L475.809 149.513C475.709 149.671 475.635 149.843 475.59 150.024C475.541 150.241 475.541 150.465 475.59 150.681L479.241 161.635C479.578 162.508 480.073 163.313 480.701 164.008L480.628 163.826Z" fill="#164194"/>
<path d="M479.826 149.733L485.667 148.93C485.268 149.208 484.966 149.603 484.802 150.061C484.638 150.52 484.622 151.017 484.755 151.485L486.032 160.686L490.012 160.139C491.971 159.989 493.817 159.163 495.233 157.802C494.873 159.002 494.58 160.22 494.357 161.453C494.423 161.677 494.549 161.88 494.722 162.037L481.761 163.863C482.527 163.388 482.746 162.548 482.6 161.307L481.286 152.106C481.286 150.865 480.665 150.135 479.789 149.879L479.826 149.733Z" fill="#164194"/>
<path d="M491.875 148.309L497.425 146.337C497.094 146.695 496.881 147.147 496.815 147.63C496.75 148.114 496.835 148.605 497.06 149.039L500.2 157.765L503.851 156.414C505.763 155.853 507.409 154.622 508.488 152.945C508.417 154.161 508.417 155.381 508.488 156.597C508.488 156.779 508.743 156.889 508.962 157.071L496.621 161.489C496.948 161.134 497.152 160.684 497.205 160.204C497.257 159.725 497.155 159.241 496.914 158.824L493.81 150.061C493.372 148.856 492.788 148.272 491.875 148.199V148.309Z" fill="#164194"/>
<path d="M525.61 146.446C524.733 147.067 523.638 148.454 521.959 149.732C521.221 150.439 520.336 150.975 519.367 151.3C518.398 151.625 517.369 151.733 516.354 151.614C515.339 151.495 514.362 151.154 513.494 150.614C512.627 150.074 511.889 149.349 511.334 148.491C510.688 147.615 510.238 146.61 510.016 145.545C509.794 144.48 509.805 143.379 510.048 142.318C510.29 141.257 510.759 140.261 511.422 139.399C512.085 138.536 512.927 137.826 513.89 137.319C515.861 135.895 517.541 135.383 518.307 134.836C518.529 134.684 518.726 134.499 518.892 134.288L519.877 137.939C518.31 137.947 516.787 138.459 515.533 139.4C514.982 139.729 514.506 140.169 514.134 140.691C513.763 141.214 513.503 141.808 513.373 142.436C513.243 143.064 513.244 143.712 513.377 144.34C513.51 144.967 513.771 145.56 514.145 146.081C514.455 146.657 514.893 147.155 515.426 147.535C515.958 147.915 516.571 148.168 517.216 148.273C517.862 148.379 518.523 148.335 519.149 148.145C519.775 147.955 520.349 147.624 520.827 147.177C522.36 146.012 523.608 144.513 524.478 142.795L526.668 145.899C526.334 146.001 526.014 146.148 525.719 146.337L525.61 146.446Z" fill="#164194"/>
<path d="M518.673 134.179L522.58 129.725C522.46 130.2 522.49 130.701 522.667 131.159C522.844 131.617 523.158 132.009 523.566 132.28L530.54 138.378L533.168 135.384C534.521 133.943 535.311 132.064 535.396 130.09C535.916 131.23 536.501 132.339 537.148 133.412C537.148 133.412 537.513 133.412 537.805 133.412L529.152 143.307C529.408 142.431 529.152 141.627 528.093 140.787L521.12 134.69C520.17 133.85 519.367 133.595 518.527 133.996L518.673 134.179Z" fill="#164194"/>
<path d="M543.173 125.562C540.909 129.652 538.171 130.747 534.885 128.921L529.335 125.854C528.167 125.234 527.291 125.161 526.561 125.854L529.408 120.743C529.408 121.692 529.847 122.313 530.978 122.97L536.455 126C536.855 126.243 537.307 126.389 537.774 126.425C538.24 126.461 538.709 126.388 539.142 126.211C539.576 126.033 539.961 125.756 540.268 125.403C540.575 125.049 540.795 124.629 540.909 124.175C541.196 123.825 541.399 123.413 541.502 122.973C541.604 122.532 541.605 122.073 541.502 121.633C541.4 121.192 541.198 120.78 540.912 120.43C540.625 120.079 540.262 119.799 539.851 119.611L534.374 116.873C533.315 116.288 532.548 116.069 531.636 116.873L534.483 111.725C534.483 112.601 534.922 113.368 536.053 113.988L541.64 117.055C544.926 118.881 545.291 121.765 543.173 125.891V125.562Z" fill="#164194"/>
<path d="M548.138 104.75C548.576 102.815 548.138 101.72 546.933 101.428C545.728 101.136 544.961 102.012 544.523 103.983L543.537 108.328L547.189 109.168L548.211 104.75H548.138ZM542.041 104.385C542.442 102.523 542.041 101.501 540.945 101.245C539.85 100.99 539.193 101.72 538.828 103.363L537.988 107.014L541.237 107.781L542.041 104.349V104.385ZM546.349 112.527L537.404 110.446C536.162 110.154 535.286 110.446 534.738 111.067L536.491 103.399C537.477 99.0544 538.718 96.9003 541.42 97.521C542.105 97.6867 542.713 98.0807 543.144 98.6381C543.576 99.1956 543.805 99.8832 543.793 100.588C544.633 98.2512 545.947 97.3749 547.882 97.8131C550.803 98.5068 551.533 101.099 550.438 105.809L548.503 114.207C548.32 113.294 547.627 112.819 546.349 112.527V112.527Z" fill="#164194"/>
<path d="M405.197 80.3613L406.475 74.5925C406.596 75.0654 406.861 75.4886 407.234 75.8029C407.608 76.1172 408.07 76.3068 408.556 76.3451L417.611 78.3532L418.56 74.4465C419.109 72.533 418.953 70.4864 418.122 68.6777C419.108 69.441 420.145 70.1363 421.226 70.7589C421.44 70.8198 421.668 70.8198 421.883 70.7589L419.072 83.5743C418.852 82.6615 418.195 82.1503 416.954 81.8948L407.899 79.8867C407.451 79.6997 406.956 79.659 406.484 79.7705C406.012 79.882 405.587 80.1399 405.27 80.5074L405.197 80.3613Z" fill="#164194"/>
<path d="M420.35 67.4731L412.098 63.2378C411.701 62.963 411.23 62.8158 410.747 62.8158C410.265 62.8158 409.793 62.963 409.396 63.2378L416.151 50.0938C416.235 50.279 416.375 50.4326 416.553 50.5319C417.576 50.7917 418.612 50.9989 419.656 51.1526C418.153 52.1525 416.963 53.5575 416.224 55.2053L413.668 60.2073L416.589 61.7408L419.437 56.1911C419.732 55.6116 419.906 54.978 419.948 54.329L421.19 56.3006C421.341 56.5547 421.42 56.8448 421.42 57.1404C421.42 57.436 421.341 57.7261 421.19 57.9802L418.67 62.8361L421.847 64.4426L424.549 59.185C425.569 57.4733 425.932 55.449 425.571 53.4893C426.33 54.4734 427.16 55.4008 428.054 56.2641C428.278 56.342 428.523 56.342 428.747 56.2641L421.883 69.6272C421.883 68.7144 421.409 68.0572 420.277 67.4731H420.35Z" fill="#164194"/>
<path d="M423.489 44.5804L430.792 50.2396C431.814 51.0429 432.654 51.2619 433.493 50.8238L429.842 55.4242C430.061 54.5114 429.842 53.7812 428.637 52.978L421.335 47.3187C420.313 46.5155 419.473 46.2964 418.67 46.7346L422.321 42.0977C422.065 43.0104 422.321 43.7772 423.489 44.5804Z" fill="#164194"/>
<path d="M442.511 41.8784C441.744 42.5721 440.795 44.0691 439.152 45.5295C438.504 46.3234 437.689 46.9634 436.764 47.4028C435.838 47.8423 434.827 48.0703 433.803 48.0703C432.778 48.0703 431.767 47.8423 430.842 47.4028C429.917 46.9634 429.101 46.3234 428.454 45.5295C427.717 44.7321 427.159 43.7858 426.818 42.7544C426.478 41.7231 426.363 40.6307 426.48 39.5511C426.598 38.4714 426.946 37.4295 427.5 36.4957C428.055 35.5619 428.803 34.7579 429.695 34.138C431.002 33.0655 432.367 32.066 433.784 31.1441C433.968 30.9583 434.128 30.7497 434.259 30.5234L435.72 33.9555C434.157 34.1855 432.696 34.8713 431.521 35.9271C431.001 36.3337 430.573 36.846 430.265 37.43C429.957 38.014 429.777 38.6566 429.735 39.3155C429.694 39.9743 429.793 40.6345 430.025 41.2524C430.257 41.8704 430.618 42.4322 431.083 42.9007C431.459 43.4341 431.953 43.8741 432.526 44.1869C433.099 44.4998 433.736 44.6771 434.388 44.7053C435.04 44.7335 435.69 44.6119 436.288 44.3497C436.886 44.0875 437.416 43.6917 437.837 43.1928C439.192 41.8658 440.217 40.2403 440.831 38.4464L443.423 41.2577C443.082 41.3699 442.77 41.5571 442.511 41.8054V41.8784Z" fill="#164194"/>
<path d="M443.534 38.1905L439.189 30.012C438.605 28.8801 437.911 28.369 436.998 28.442L450.106 21.5049C450.03 21.7048 450.03 21.9256 450.106 22.1256C450.106 22.3446 451.055 23.0384 452.333 24.3893C450.551 24.3139 448.782 24.7307 447.221 25.5941L442.256 28.2594L443.789 31.1438L449.302 28.2594C449.879 27.95 450.388 27.5279 450.799 27.0181V29.3183C450.787 29.6199 450.692 29.9124 450.525 30.1636C450.357 30.4148 450.124 30.615 449.85 30.7422L445.03 33.298L446.71 36.4379L451.968 33.6631C453.747 32.8216 455.179 31.3894 456.02 29.6104C456.091 30.8372 456.25 32.0573 456.495 33.2615C456.495 33.2615 456.751 33.5536 457.006 33.6996L443.753 40.7097C444.038 40.317 444.191 39.8441 444.191 39.3588C444.191 38.8735 444.038 38.4007 443.753 38.0079L443.534 38.1905Z" fill="#164194"/>
<path d="M463.177 29.9753C465.477 29.3911 466.463 28.5148 466.171 27.31C465.878 26.1051 464.199 26.1781 461.388 26.4702C457.919 26.8353 455.947 25.9956 455.436 23.8779C454.925 21.7603 456.678 18.9854 460.621 18.0361C463.104 17.4155 465.075 17.4155 466.134 17.1599C466.329 17.1051 466.514 17.0187 466.682 16.9043V20.5554C464.858 20.0189 462.919 20.0189 461.096 20.5554C459.416 20.957 458.649 21.6873 458.868 22.5635C459.087 23.4398 460.767 23.3668 463.797 23.2207C466.828 23.0747 469.128 23.7319 469.712 26.1051C470.406 29.0625 468.361 31.3992 463.797 32.4946C461.716 33.0057 460.146 33.0787 459.27 33.2613C459.023 33.3331 458.788 33.444 458.576 33.5899L456.787 29.9388C458.887 30.4483 461.077 30.4483 463.177 29.9388V29.9753Z" fill="#164194"/>
<path d="M474.056 28.7705C474.056 28.7705 474.056 28.4054 474.056 27.9672L473.655 18.7664H472.961C471.154 18.7266 469.376 19.222 467.85 20.1904C468.251 18.3648 468.616 17.379 468.616 17.0869C468.593 16.8814 468.503 16.6891 468.361 16.5393L482.271 15.9551C482.141 16.1234 482.065 16.3269 482.052 16.5393C482.052 16.7948 482.491 17.7806 483.075 19.5332C481.46 18.7256 479.652 18.3843 477.854 18.5474H476.977L477.342 27.7482C477.323 28.2447 477.442 28.7369 477.687 29.1692C477.932 29.6014 478.294 29.9566 478.73 30.1944L472.852 30.4135C473.171 30.251 473.44 30.0063 473.633 29.7046C473.825 29.4029 473.934 29.0552 473.947 28.6975L474.056 28.7705Z" fill="#164194"/>
<path d="M482.93 27.7123L484.609 18.5845C484.865 17.3431 484.609 16.5033 483.879 15.9922L498.483 18.6575C498.332 18.797 498.219 18.973 498.155 19.1687C498.155 19.4607 498.155 20.4831 498.447 22.3451C497.072 21.1766 495.383 20.4399 493.591 20.2275L487.932 19.2052L487.311 22.4547L493.445 23.5865C494.083 23.7183 494.742 23.7183 495.38 23.5865L493.846 25.339C493.647 25.5583 493.394 25.721 493.112 25.8108C492.83 25.9005 492.529 25.9141 492.24 25.8502L486.873 24.8644L486.252 28.5155L492.094 29.5743C494.01 30.0464 496.032 29.8131 497.79 28.9171C497.079 29.947 496.432 31.02 495.854 32.1301C495.795 32.3327 495.795 32.5482 495.854 32.7508L481.25 30.049C482.126 29.8664 482.601 29.1362 482.82 27.8948L482.93 27.7123Z" fill="#164194"/>
<path d="M507.903 29.2462C509.947 30.232 511.006 30.232 511.554 28.8445C512.101 27.4571 511.554 26.6904 509.509 25.7046L506.187 24.2076L504.471 27.8587L507.866 29.5017L507.903 29.2462ZM502.207 35.2705L496.949 32.8973C497.862 32.8973 498.519 32.3496 499.067 31.1813L503.12 22.8932C503.399 22.4983 503.55 22.0263 503.55 21.5423C503.55 21.0583 503.399 20.5863 503.12 20.1914L510.604 23.8425C511.911 24.4117 513.138 25.148 514.255 26.0332C514.874 26.6159 515.281 27.3875 515.413 28.2268C515.545 29.0661 515.395 29.9256 514.986 30.6701C514.48 31.5297 513.678 32.1748 512.73 32.4841C511.781 32.7934 510.753 32.7456 509.838 32.3496C510.557 33.2589 510.978 34.3684 511.043 35.5261C511.043 37.1393 511.392 38.7334 512.065 40.1995L506.625 37.5342C506.78 37.5031 506.925 37.4379 507.052 37.3431C507.178 37.2483 507.282 37.1265 507.355 36.9865C507.693 35.9422 507.693 34.8179 507.355 33.7735C507.227 33.1213 506.945 32.5091 506.532 31.9882C506.119 31.4673 505.588 31.0529 504.982 30.7796L503.485 30.0494L502.243 32.6782C501.955 33.0766 501.8 33.5557 501.8 34.0474C501.8 34.539 501.955 35.0181 502.243 35.4165L502.207 35.2705Z" fill="#164194"/>
<path d="M524.114 51.1519C523.347 50.4217 521.814 49.5819 520.244 48.012C519.417 47.4118 518.733 46.6354 518.243 45.739C517.753 44.8426 517.468 43.8484 517.408 42.8284C517.349 41.8083 517.517 40.7878 517.9 39.8405C518.283 38.8932 518.871 38.0428 519.623 37.3507C520.379 36.5673 521.295 35.9557 522.309 35.5574C523.322 35.1592 524.41 34.9835 525.497 35.0424C526.584 35.1012 527.646 35.3933 528.611 35.8986C529.576 36.404 530.42 37.1109 531.088 37.9714C532.804 39.6509 533.607 41.2574 534.264 41.8781C534.463 42.062 534.684 42.2213 534.921 42.3527L531.562 43.9592C531.267 42.4149 530.502 40.9994 529.372 39.9065C528.936 39.41 528.4 39.0123 527.799 38.7397C527.197 38.4672 526.545 38.3262 525.885 38.3262C525.225 38.3262 524.572 38.4672 523.971 38.7397C523.369 39.0123 522.833 39.41 522.398 39.9065C521.876 40.3052 521.452 40.8189 521.161 41.4079C520.87 41.9968 520.718 42.645 520.718 43.302C520.718 43.9591 520.87 44.6073 521.161 45.1962C521.452 45.7851 521.876 46.2989 522.398 46.6976C523.795 47.9768 525.47 48.9142 527.29 49.4359L524.625 52.1377C524.478 51.8164 524.281 51.5206 524.041 51.2614L524.114 51.1519Z" fill="#164194"/>
<path d="M537.55 50.4589L530.029 55.7165C528.97 56.4468 528.532 57.177 528.714 58.0898L525.355 53.3068C526.159 53.7814 526.962 53.5989 528.057 52.8687L535.579 47.5015C536.637 46.7348 537.076 46.0411 536.893 45.0918L540.252 49.9113C539.449 49.4366 538.609 49.5827 537.55 50.3494V50.4589Z" fill="#164194"/>
<path d="M532.694 61.814L533.387 61.4854L541.748 57.5057L541.42 56.885C540.747 55.2207 539.605 53.7875 538.134 52.7592C539.923 52.3941 540.982 52.3576 541.274 52.2116C541.442 52.1014 541.58 51.9507 541.675 51.7734L547.663 64.3698C547.463 64.2941 547.243 64.2941 547.043 64.3698C546.787 64.3698 546.093 65.2826 544.669 66.4874C544.799 64.6863 544.406 62.8861 543.537 61.3028L543.209 60.6456L534.884 64.6254C534.419 64.7833 534.011 65.0758 533.712 65.4658C533.413 65.8557 533.237 66.3257 533.205 66.816L530.686 61.5219C530.956 61.7596 531.29 61.9137 531.646 61.9655C532.003 62.0174 532.367 61.9647 532.694 61.814V61.814Z" fill="#164194"/>
<path d="M550.183 78.5722C550.548 78.5722 550.731 78.2801 550.914 77.8785L552.082 83.3917C551.036 82.7393 549.937 82.1774 548.796 81.7121L541.494 78.061L539.34 78.4992C538.062 78.7547 537.331 79.3389 537.185 80.2152L535.98 74.4464C536.565 75.2497 537.368 75.3592 538.609 75.1036L540.727 74.6655L546.715 68.276C547.56 67.5604 548.192 66.6255 548.54 65.5742L549.818 71.6351C549.711 71.4904 549.565 71.3793 549.397 71.3147C549.228 71.25 549.045 71.2345 548.869 71.27C548.399 71.3955 547.986 71.6792 547.701 72.0732L544.049 76.0164L549.271 78.2436C549.645 78.4233 550.065 78.4869 550.475 78.4261L550.183 78.5722Z" fill="#164194"/>
<path d="M509.546 66.8515V66.669V66.3404C509.584 64.14 510.055 61.9687 510.934 59.9509C511.415 59.1086 511.697 58.1678 511.761 57.1999C511.824 56.2321 511.666 55.2625 511.299 54.3647C511.288 54.2067 511.288 54.0481 511.299 53.8901C511.087 53.1473 510.806 52.426 510.459 51.7359L510.094 51.1152H509.437C503.063 53.2612 497.446 57.2046 493.262 62.4702L491.254 64.0037C491.271 63.8948 491.271 63.7839 491.254 63.6751C491.153 63.2809 490.952 62.9193 490.671 62.6252C490.389 62.3311 490.037 62.1142 489.648 61.9956C485.845 60.7358 481.861 60.1069 477.855 60.1335C473.502 60.0818 469.187 60.9399 465.185 62.6528L464.345 63.0544L464.601 63.529C459.453 59.1112 449.778 51.1883 447.039 51.1883H446.528L446.309 51.4803C445.935 52.0146 445.651 52.6066 445.469 53.2329L445.25 53.4885C444.337 54.4012 444.082 55.4601 445.25 58.6365C446.209 60.965 446.801 63.4285 447.003 65.9388C447.305 67.8805 447.87 69.7721 448.682 71.5615C448.901 72.4743 450.435 78.8637 451.165 80.4702C451.434 80.9569 451.505 81.529 451.362 82.0667C451.219 82.6043 450.874 83.0658 450.398 83.3546H450.179C449.447 83.7173 448.799 84.2297 448.277 84.8586C447.755 85.4875 447.37 86.219 447.149 87.0057C447.101 87.7558 447.224 88.5071 447.508 89.2028C447.793 89.8985 448.232 90.5205 448.792 91.0219C449.035 91.5049 449.243 92.0052 449.412 92.5189V92.5189C448.938 93.2856 449.412 93.7237 449.887 94.1984L450.143 94.454C450.579 94.8669 451.056 95.2339 451.567 95.5493C452.074 95.8376 452.521 96.222 452.881 96.6811C453.052 96.8826 453.199 97.1031 453.319 97.3383C453.638 97.996 454.147 98.543 454.78 98.9083V99.8576C454.657 101.07 454.919 102.29 455.529 103.345C456.138 104.4 457.064 105.236 458.175 105.736L460.329 106.685C461.644 107.269 461.644 107.269 462.082 108.036C463.039 109.894 464.383 111.525 466.025 112.819C467.168 113.681 468.114 114.776 468.8 116.032L470.187 116.434C470.273 116.347 470.347 116.248 470.406 116.142V116.142C469.955 117.135 469.671 118.196 469.567 119.282C469.567 120.559 470.078 123.48 474.715 124.211L475.956 125.087L477.489 126.401H477.709H478.913L480.009 126.146H480.301L480.483 125.927L481.177 125.05L481.761 124.32C483.007 124.21 484.191 123.727 485.157 122.933V122.933C486.124 121.91 486.804 120.651 487.128 119.282C487.128 119.026 487.128 117.821 486.873 117.127L486.362 115.776C486.519 116.019 486.653 116.276 486.763 116.543L487.274 118.077L488.26 116.835L490.524 114.06L492.715 111.979C493.304 111.379 493.775 110.673 494.102 109.898L494.358 109.351C495.924 107.919 497.667 106.692 499.542 105.699C500.606 105.164 501.477 104.31 502.033 103.256C502.589 102.203 502.803 101.002 502.646 99.8211V99.456L502.536 99.0179C502.796 98.4288 503.004 97.8179 503.157 97.1923C504.85 96.207 506.388 94.9766 507.721 93.5412L508.049 93.1396V92.6649C508.049 92.6649 507.465 91.168 509.108 89.1964C510.751 87.2248 510.897 86.7501 510.605 86.0929C510.54 85.9332 510.436 85.7925 510.302 85.684C510.168 85.5754 510.008 85.5026 509.838 85.4722C508.501 84.6263 507.347 83.5214 506.443 82.2227C506.458 82.0527 506.458 81.8816 506.443 81.7116C505.99 80.2155 506.147 78.601 506.881 77.2207C507.55 76.1894 507.893 74.981 507.867 73.7521C507.843 73.6193 507.843 73.4833 507.867 73.3505C508.349 71.1544 508.946 68.985 509.656 66.8515H509.546Z" fill="#FBBA00"/>
<path d="M483.039 109.57L483.806 111.943L484.171 115.12L482.09 116.69L474.569 116.47L471.684 113.915L472.962 112.819L473.692 109.57C464.273 102.523 460.147 101.793 460.147 101.793C458.366 101.029 456.485 100.525 454.561 100.296C454.438 101.508 454.7 102.728 455.31 103.783C455.919 104.838 456.845 105.675 457.956 106.174L460.11 107.124C461.425 107.708 461.425 107.708 461.863 108.475C462.934 110.196 464.351 111.676 466.025 112.819C467.168 113.681 468.114 114.776 468.8 116.032L470.187 116.434C470.273 116.347 470.347 116.249 470.406 116.142V116.142C469.955 117.135 469.671 118.196 469.567 119.282C469.567 120.56 470.078 123.481 474.715 124.211L475.956 125.087L477.49 126.402H477.709H478.914L480.009 126.146H480.301L480.484 125.927L481.177 125.051L481.761 124.32C483.007 124.211 484.191 123.727 485.157 122.933V122.933C486.124 121.911 486.804 120.651 487.129 119.282C487.129 119.026 487.129 117.821 486.873 117.128L486.362 115.777C486.519 116.019 486.653 116.276 486.763 116.544L487.275 118.077L488.26 116.836L490.524 114.061L492.715 111.98C493.304 111.379 493.775 110.673 494.102 109.898L494.358 109.351C495.925 107.919 497.667 106.693 499.542 105.7C500.599 105.156 501.464 104.3 502.019 103.249C502.574 102.197 502.793 101.001 502.646 99.8214L502.536 98.6165V98.3975L499.907 99.8214C482.966 106.211 483.039 109.57 483.039 109.57Z" fill="white"/>
<path d="M460.803 90.5474C460.803 90.5474 461.314 89.8537 462.592 90.9125C464.513 92.7337 467.03 93.7973 469.675 93.9064C469.675 93.9064 470.296 94.8192 468.214 94.7462C467.332 94.7373 466.453 94.6518 465.586 94.4906C464.141 93.6515 462.845 92.578 461.752 91.3141C461.507 90.9979 461.178 90.7574 460.803 90.6204V90.5474Z" fill="#164194"/>
<path d="M479.9 70.759L478.987 69.9923C478.71 69.2846 478.622 68.5171 478.731 67.7651C480.071 66.4635 481.597 65.3684 483.259 64.5156C482.766 65.4614 482.096 66.3041 481.287 66.9984C480.687 67.388 480.186 67.9133 479.827 68.5319C479.663 69.2652 479.663 70.0257 479.827 70.759H479.9Z" fill="#164194"/>
<path d="M476.977 70.5028C476.977 70.5028 478.109 68.6407 477.525 68.093L473.326 64.7705C473.326 64.7705 473.326 66.5596 474.275 67.1802C475.225 67.8009 475.918 67.7644 475.991 68.2026V68.6407C475.927 68.7713 475.894 68.915 475.894 69.0606C475.894 69.2062 475.927 69.3499 475.991 69.4805C476.32 69.9186 476.831 70.5028 476.831 70.5028H476.977Z" fill="#164194"/>
<path d="M486.324 81.1643C488.226 80.1288 490.203 79.2379 492.239 78.499C493.772 78.1339 492.239 77.7688 491.91 77.6592C491.448 77.6175 490.984 77.6175 490.522 77.6592L489.099 78.2434L488.405 78.6085L487.346 79.4118L486.543 79.7404L486.068 79.9959C486.068 79.9959 485.63 81.6024 486.324 81.2738V81.1643Z" fill="#164194"/>
<path d="M464.09 78.0247C464.09 77.4406 464.674 78.2438 465.112 78.4994C465.55 78.755 467.814 79.4122 467.814 79.4122L468.508 79.8868L469.676 80.7996L469.42 81.3838C469.053 81.3864 468.695 81.2713 468.398 81.0552C468.033 80.6901 466.901 79.9233 466.828 80.1424C466.755 80.3615 466.061 80.1424 465.477 79.7773C465.123 79.6164 464.813 79.3735 464.572 79.0687C464.33 78.764 464.165 78.4061 464.09 78.0247V78.0247Z" fill="#164194"/>
<path d="M459.526 68.9326C459.336 68.5866 459.189 68.2188 459.088 67.8372V67.5086C458.863 66.7342 458.716 65.9391 458.65 65.1354C458.485 63.8216 457.865 62.6071 456.897 61.7033L456.678 61.4478C456.586 61.2759 456.456 61.1273 456.298 61.0133C456.14 60.8994 455.958 60.8232 455.765 60.7906C455.546 60.7906 455.108 60.7906 454.049 59.6587C452.708 58.4003 451.268 57.2525 449.741 56.2267L447.77 54.8027L448.536 57.0664C448.798 57.8327 449.017 58.6128 449.193 59.4031C449.193 59.6587 449.193 60.1699 449.193 61.0096C449.29 61.6875 449.351 62.37 449.376 63.0543C449.376 63.748 449.851 66.7054 449.96 67.4721V67.7277C450.353 68.5433 450.791 69.3356 451.275 70.1009V70.1009C451.492 70.3515 451.643 70.6529 451.713 70.9772V70.9772C451.415 72.0265 451.479 73.1454 451.895 74.1536C452.333 75.6141 453.137 75.9062 453.721 75.9062C454.129 75.8531 454.522 75.7152 454.874 75.5014C455.226 75.2877 455.53 75.0027 455.765 74.6648L456.605 73.7155L456.861 73.4234C457.299 72.9488 458.139 72.109 458.978 71.3788C459.234 71.2012 459.447 70.9674 459.598 70.6953C459.75 70.4232 459.838 70.12 459.855 69.8088C459.845 69.3526 459.677 68.9138 459.38 68.5674L459.526 68.9326Z" fill="white"/>
<path d="M494.539 89.3429C494.381 89.3932 494.247 89.4981 494.16 89.6387C494.073 89.7792 494.039 89.9463 494.064 90.1097C494.064 90.8034 491.289 93.1036 490.413 93.5052C489.472 93.8118 488.473 93.8992 487.492 93.7608C486.543 93.7608 486.214 95.0387 486.214 95.0387C485.953 95.5304 485.733 96.0434 485.557 96.5721C485.246 98.2189 484.819 99.8416 484.279 101.428C483.904 103.448 484.094 105.533 484.827 107.452C485.185 108.304 485.638 109.113 486.178 109.862C486.43 110.628 486.553 111.43 486.543 112.235L487.164 110.008C487.164 110.008 487.164 109.205 486.945 108.73C486.726 108.256 486.178 107.672 485.959 106.868C485.607 105.671 485.339 104.451 485.156 103.217C485.156 102.633 485.74 99.566 485.849 98.8358C486.205 97.7454 486.437 96.6188 486.543 95.4768V94.9656C488.034 95.096 489.534 94.8501 490.906 94.2505C492.277 93.6509 493.476 92.7167 494.393 91.5336C494.778 90.8054 495.072 90.0329 495.269 89.2334L494.539 89.3429Z" fill="#164194"/>
<path d="M506.478 55.9713C505.45 56.9386 504.296 57.7616 503.046 58.4175C500.673 59.8415 497.934 61.448 497.715 64.807V65.0991V65.3546C498.263 66.1214 497.971 66.7421 497.35 67.8009C496.988 68.324 496.717 68.9041 496.547 69.5169V70.0646L496.985 70.3932C497.622 70.9083 498.209 71.4829 498.738 72.1092C499.219 72.8263 499.838 73.4407 500.559 73.917C501.28 74.3933 502.088 74.722 502.936 74.884H503.411L503.703 74.4824C504.561 73.1541 505.087 71.6389 505.237 70.0646C505.37 68.7697 505.795 67.5216 506.478 66.4135L506.697 66.1214V65.7928C506.577 64.0049 506.788 62.2103 507.318 60.4987C507.663 59.2069 507.895 57.8875 508.011 56.5555V54.2188L506.441 55.9348L506.478 55.9713Z" fill="white"/>
<path d="M470.26 96.2432C470.552 99.8943 473.911 102.669 471.684 106.284C471.939 108.328 470.004 109.351 469.457 111.067C468.58 111.067 468.982 109.643 469.092 109.059C470.151 107.36 470.76 105.419 470.863 103.42C470.965 101.421 470.556 99.4284 469.676 97.6306C469.676 97.0464 469.676 96.3892 470.369 96.2432" fill="#164194"/>
<path d="M505.858 65.7566C504.069 68.2394 504.836 71.6714 503.046 74.1177C500.564 73.8256 499.395 71.1968 497.424 69.6633C497.825 68.0203 499.834 66.5964 498.519 64.6613C498.848 59.9513 504.361 59.1481 507.172 56.0812C506.438 59.259 505.998 62.4979 505.858 65.7566V65.7566ZM507.902 53.781C504.763 56.4828 500.856 57.4321 497.971 60.7181C495.087 63.2373 498.446 67.5091 494.32 69.4807C496.899 72.2838 499.833 74.7386 503.046 76.783C505.493 75.3225 505.566 72.5477 505.712 70.0284C508.195 65.6106 506.953 60.426 508.925 55.716C508.523 55.0588 508.925 53.4889 507.756 53.781H507.902Z" fill="#164194"/>
<path d="M458.722 71.3065C457.813 72.0608 456.959 72.8782 456.166 73.7528C455.829 74.0867 455.512 74.4402 455.217 74.8116C455.217 74.8116 453.501 77.1118 452.661 74.556C451.821 72.0003 452.661 71.8907 452.661 71.197C452.544 70.7182 452.305 70.2779 451.967 69.9191C451.639 69.4445 450.689 67.5824 450.689 67.5824C450.689 67.5824 450.105 63.9313 450.105 63.1646C450.105 62.3978 449.74 59.9151 449.74 59.5134C449.558 58.5974 449.314 57.6948 449.01 56.8116C450.546 57.8265 451.999 58.9619 453.355 60.2072C455.326 62.0692 455.691 61.3755 455.91 61.8502C456.945 62.7525 457.651 63.9723 457.918 65.3187C457.965 66.3162 458.162 67.301 458.503 68.2396C458.656 68.7183 458.852 69.1826 459.087 69.627C459.087 69.627 460 70.4303 458.831 71.3796L458.722 71.3065ZM460 68.2761C459.781 67.6919 459.196 68.2761 459.415 66.5601C459.927 62.909 459.415 64.552 457.553 61.3025C457.035 60.708 456.582 60.0592 456.202 59.3674C456.202 58.9658 455.801 59.1848 455.217 58.8562C454.632 58.5276 454.304 58.3816 453.501 57.907C452.691 57.4148 451.975 56.7845 451.383 56.0449C450.393 55.2447 449.3 54.5815 448.133 54.0733C448.004 53.9696 447.843 53.9131 447.677 53.9131C447.511 53.9131 447.35 53.9696 447.221 54.0733C446.637 54.0733 447.44 56.5195 447.44 56.9942C447.584 58.9806 447.852 60.9561 448.243 62.909C448.624 65.2919 449.21 67.6374 449.996 69.9191C450.543 71.3704 450.863 72.8975 450.945 74.4465C450.962 75.1884 451.169 75.9135 451.546 76.5526C451.924 77.1918 452.458 77.7237 453.099 78.0976C454.489 76.7691 455.978 75.5486 457.553 74.4465C458.519 73.8329 459.321 72.9933 459.89 72.0003C460.584 71.051 460.584 71.051 461.168 70.1382C461.752 69.2254 460.255 69.0794 460 68.4952V68.2761Z" fill="#164194"/>
<path d="M469.676 91.3144C469.676 91.8373 469.468 92.3388 469.098 92.7085C468.728 93.0783 468.227 93.286 467.704 93.286C467.181 93.286 466.68 93.0783 466.31 92.7085C465.94 92.3388 465.732 91.8373 465.732 91.3144C465.732 90.7915 465.94 90.29 466.31 89.9202C466.68 89.5505 467.181 89.3428 467.704 89.3428C468.227 89.3428 468.728 89.5505 469.098 89.9202C469.468 90.29 469.676 90.7915 469.676 91.3144V91.3144Z" fill="#164194"/>
<path d="M467.12 90.5117C467.125 90.5674 467.118 90.6236 467.1 90.6766C467.082 90.7296 467.053 90.7783 467.016 90.8196C466.978 90.8608 466.932 90.8937 466.88 90.9162C466.829 90.9386 466.774 90.95 466.718 90.9498C466.601 90.9498 466.49 90.9037 466.408 90.8215C466.325 90.7393 466.279 90.6279 466.279 90.5117C466.279 90.4557 466.291 90.4003 466.313 90.3491C466.335 90.2978 466.368 90.2518 466.41 90.214C466.451 90.1761 466.5 90.1474 466.553 90.1295C466.606 90.1116 466.662 90.105 466.718 90.1101C466.824 90.1101 466.926 90.1524 467.002 90.2277C467.077 90.303 467.12 90.4052 467.12 90.5117Z" fill="white"/>
<path d="M491.218 91.3145C491.256 91.5934 491.234 91.8773 491.154 92.147C491.073 92.4167 490.935 92.666 490.75 92.8782C490.565 93.0904 490.337 93.2604 490.081 93.3769C489.824 93.4935 489.546 93.5538 489.265 93.5538C488.983 93.5538 488.705 93.4935 488.448 93.3769C488.192 93.2604 487.964 93.0904 487.779 92.8782C487.594 92.666 487.456 92.4167 487.376 92.147C487.295 91.8773 487.273 91.5934 487.311 91.3145C487.273 91.0356 487.295 90.7517 487.376 90.482C487.456 90.2122 487.594 89.9629 487.779 89.7508C487.964 89.5386 488.192 89.3685 488.448 89.252C488.705 89.1355 488.983 89.0752 489.265 89.0752C489.546 89.0752 489.824 89.1355 490.081 89.252C490.337 89.3685 490.565 89.5386 490.75 89.7508C490.935 89.9629 491.073 90.2122 491.154 90.482C491.234 90.7517 491.256 91.0356 491.218 91.3145Z" fill="#164194"/>
<path d="M463.213 87.8459C461.272 88.0451 459.321 88.1182 457.371 88.0649C459.219 88.7384 461.173 89.0724 463.14 89.0507C464.329 88.7322 465.569 88.6455 466.791 88.7951C469.931 89.1968 471.391 92.4463 473.874 93.7242L474.276 92.4828C473.306 90.5282 471.667 88.9859 469.658 88.1353C467.649 87.2846 465.401 87.1819 463.322 87.8459H463.213Z" fill="#164194"/>
<path d="M508.268 88.5397C507.689 89.0844 507.27 89.7775 507.058 90.5436C506.845 91.3097 506.847 92.1194 507.063 92.8845C504.797 95.2506 502.061 97.1161 499.03 98.3612C498.702 98.3612 498.118 99.1279 497.752 99.4565L495.635 101.866H496.475L496.183 102.962C496.183 102.962 497.424 101.538 497.862 100.917C498.3 100.296 499.395 100.661 499.395 100.661L500.6 100.077L501.367 99.5661C501.623 99.3835 502.024 99.5661 502.024 99.5661C502.155 100.564 501.972 101.578 501.501 102.468C501.03 103.357 500.294 104.078 499.395 104.532C497.391 105.607 495.547 106.959 493.919 108.548C493.541 109.451 493.023 110.288 492.385 111.031L490.158 113.148L487.931 116.142C487.77 115.67 487.536 115.227 487.237 114.828C486.653 113.915 486.982 113.988 486.909 113.477C486.778 112.869 486.543 112.289 486.215 111.761C485.813 110.994 485.266 111.432 484.937 111.177C484.505 110.643 484.296 109.963 484.353 109.278C484.353 108.438 482.308 98.6898 482.126 97.8501V96.9738C483.092 95.0262 484.32 93.2203 485.777 91.6066C486.282 91.0251 486.858 90.5099 487.493 90.0732V90.0732C488.091 89.684 488.761 89.4188 489.463 89.2934C490.166 89.1679 490.886 89.1848 491.582 89.343V89.343C492.511 89.6076 493.466 89.7669 494.43 89.8176C495.371 89.8518 496.308 89.6763 497.174 89.3037C498.039 88.9311 498.81 88.3709 499.432 87.6634C498.118 87.9555 495.525 88.2111 495.525 88.2111C483.075 87.1158 486.142 88.7588 486.142 88.7588C484.252 89.7248 482.812 91.3875 482.126 93.3957L480.921 95.0022C480.639 95.9985 480.552 97.0399 480.665 98.0691C480.665 98.5803 480.921 99.9677 480.921 99.9677C480.651 103.709 481.264 107.46 482.71 110.921C482.71 111.213 483.623 114.937 483.623 114.937H484.097L484.791 114.244H485.193V114.682L486.142 117.237C486.142 117.237 486.398 119.027 486.398 119.282C486.075 120.41 485.515 121.456 484.755 122.349C484.169 122.866 483.474 123.244 482.721 123.452C481.968 123.661 481.178 123.696 480.41 123.554H480.191H479.278H478.803L478.438 123.189V122.714V121.911C479.601 121.675 480.647 121.045 481.399 120.127C482.151 119.209 482.562 118.059 482.564 116.872C482.564 116.215 481.542 115.704 481.542 115.704C479.331 115.095 476.997 115.095 474.787 115.704C473.327 116.033 473.838 118.077 473.838 118.077C473.838 119.319 476.247 121.254 476.247 121.254C476.727 121.634 477.315 121.851 477.927 121.874V122.313C477.849 122.627 477.739 122.933 477.598 123.225C477.416 123.554 476.722 123.7 476.284 123.773H475.882C471.537 123.335 470.698 121.144 470.698 119.574C471.01 117.857 471.576 116.196 472.377 114.645L472.888 115.047C473.288 115.105 473.694 115.105 474.093 115.047C474.349 115.047 474.093 114.426 474.093 114.171C473.933 113.924 473.786 113.668 473.655 113.404C475.627 111.359 476.832 97.777 476.905 97.4484C476.979 97.1364 476.979 96.8112 476.905 96.4991L476.649 95.915L476.065 94.9657C476.065 94.9657 474.97 94.0894 474.422 94.345C473.874 94.6006 474.97 95.988 474.97 95.988L475.554 96.7547C474.979 98.5463 474.599 100.395 474.422 102.268L473.509 108.146C473.036 109.231 472.657 110.355 472.377 111.505C472.049 113.112 470.515 111.907 470.515 111.907C470.679 112.591 470.688 113.303 470.543 113.991C470.398 114.679 470.102 115.327 469.675 115.887C468.963 114.418 467.881 113.16 466.535 112.235C464.942 111.157 463.598 109.75 462.592 108.11C461.826 106.759 461.753 107.087 458.32 105.481C457.378 105.063 456.591 104.358 456.073 103.466C455.555 102.574 455.332 101.541 455.436 100.515C455.436 100.515 457.809 101.465 458.174 101.538C459.044 101.776 459.898 102.068 460.73 102.414C461.314 102.67 463.87 104.276 461.314 101.465C458.759 98.6533 457.481 99.5661 455.838 98.9819C454.195 98.3977 454.304 97.704 453.538 96.6817C452.771 95.6594 451.675 95.2943 450.726 94.3815C449.777 93.4687 450.032 93.7608 450.215 93.2497C450.398 92.7385 449.448 91.0225 449.448 91.0225C445.797 87.1888 449.448 85.1442 450.799 84.3774C451.474 83.9875 451.968 83.3468 452.173 82.5947C452.378 81.8426 452.278 81.0399 451.894 80.3612C451.128 78.5722 449.412 71.489 449.412 71.489C448.638 69.7517 448.086 67.924 447.769 66.0488C447.573 63.4395 446.969 60.877 445.98 58.4545C444.446 54.1097 445.98 54.8034 446.235 53.5985C446.4 53.0828 446.633 52.5915 446.929 52.1381C450.105 52.1381 466.755 66.7426 466.755 66.7426C466.472 65.6604 466.055 64.6179 465.513 63.6391C473.128 60.6485 481.55 60.416 489.318 62.9819C491.692 63.9312 489.574 66.633 489.574 66.633L493.919 63.3835C498.029 58.2912 503.517 54.4888 509.728 52.4302C510.054 53.0576 510.312 53.7187 510.495 54.4018C510.897 55.2394 511.105 56.1565 511.105 57.0854C511.105 58.0143 510.897 58.9313 510.495 59.7689C509.529 61.9182 509.007 64.2406 508.961 66.5965C508.119 68.6966 507.436 70.8568 506.917 73.059C506.971 74.3434 506.64 75.6146 505.967 76.7101C505.094 78.4296 504.937 80.4246 505.529 82.2598C505.785 83.6472 509.473 86.203 509.473 86.203C509.473 86.203 510.312 85.9474 508.268 88.4302V88.5397ZM480.081 125.525L478.986 125.781H478.219L476.503 124.759C477.097 124.678 477.698 124.678 478.292 124.759C479.497 124.759 480.41 124.759 480.665 124.759L479.972 125.599L480.081 125.525ZM509.29 83.3186C505.639 80.5803 507.83 78.3531 508.633 76.8196C509.328 75.1603 509.735 73.3947 509.838 71.5985C509.838 70.8318 510.02 67.9474 510.933 66.9981C511.846 66.0488 512.065 61.5215 512.503 60.4261C512.834 59.3469 513.03 58.2309 513.087 57.1036C513.047 56.4105 513.047 55.7156 513.087 55.0225C512.314 52.8418 511.362 50.729 510.239 48.7061C506.15 49.1442 495.635 58.1259 494.686 59.2213C494.062 59.9088 493.35 60.5104 492.568 61.0103C487.797 59.8056 482.882 59.265 477.963 59.4038C473.267 59.4498 468.599 60.1377 464.089 61.4484C459.225 56.1695 453.218 52.0731 446.527 49.4728C442.183 53.8541 445.249 64.2598 445.688 65.2091C446.518 66.5776 446.983 68.1366 447.039 69.7365C447.367 72.3855 447.879 75.0085 448.572 77.5864C448.936 79.0046 449.515 80.359 450.288 81.6026C450.288 81.6026 449.375 82.6249 447.732 84.2679C446.089 85.9109 446.71 85.1077 445.761 85.5458C445.473 85.7192 445.227 85.9525 445.038 86.2297C444.849 86.5069 444.722 86.8216 444.665 87.1523C445.343 88.4395 446.137 89.6617 447.039 90.8034C448.17 92.0083 446.71 93.0306 446.71 93.0306L449.886 95.5864C451.055 96.5357 450.398 96.4626 451.237 97.2294C452.077 97.9961 451.42 98.6168 451.42 98.6168L452.114 99.2375C452.455 101.353 453.356 103.339 454.724 104.989C456.091 106.639 457.875 107.893 459.89 108.621C461.172 109.377 462.299 110.368 463.213 111.542L464.819 112.82C468.945 115.704 468.945 118.369 468.945 118.369C468.178 122.97 471.428 123.809 471.428 123.809C475.773 125.27 475.517 125.635 475.517 125.635C478.84 128.264 479.789 126.913 480.994 126.548C481.931 126.227 482.816 125.772 483.623 125.197C485.28 124.716 486.714 123.664 487.67 122.227C488.626 120.79 489.041 119.061 488.844 117.347C489.39 116.565 489.987 115.821 490.633 115.12C491.226 114.426 491.718 113.652 492.093 112.82C494.272 110.822 496.617 109.015 499.103 107.416C500.783 106.578 502.226 105.335 503.304 103.798C504.381 102.262 505.058 100.481 505.274 98.6168C505.51 97.2293 506.111 95.9296 507.016 94.8516C507.921 93.7735 509.096 92.9559 510.422 92.4829C510.107 91.986 509.94 91.4099 509.94 90.8217C509.94 90.2334 510.107 89.6573 510.422 89.1604C511.371 87.773 512.905 85.5093 512.905 85.5093C512.905 85.5093 512.686 85.5093 509.254 83.0265L509.29 83.3186Z" fill="#164194"/>
<path d="M488.844 90.5117C488.849 90.5674 488.843 90.6236 488.825 90.6766C488.807 90.7296 488.778 90.7783 488.74 90.8196C488.702 90.8608 488.656 90.8937 488.605 90.9162C488.554 90.9386 488.498 90.95 488.442 90.9498C488.326 90.9498 488.215 90.9037 488.132 90.8215C488.05 90.7393 488.004 90.6279 488.004 90.5117C488.004 90.4557 488.015 90.4003 488.038 90.3491C488.06 90.2978 488.093 90.2518 488.134 90.214C488.175 90.1761 488.224 90.1474 488.277 90.1295C488.33 90.1116 488.387 90.105 488.442 90.1101C488.549 90.1101 488.651 90.1524 488.726 90.2277C488.802 90.303 488.844 90.4052 488.844 90.5117Z" fill="white"/>
<path d="M279.684 6H144.316C135.305 6 128 13.3051 128 22.3164V157.684C128 166.695 135.305 174 144.316 174H279.684C288.695 174 296 166.695 296 157.684V22.3164C296 13.3051 288.695 6 279.684 6Z" fill="#00BE40"/>
<path d="M262.942 112.327H161.366V120.406H262.942V112.327Z" fill="white"/>
<path d="M189.088 72.0516V63.835H161.366V102.186H171.496V88.5487H187.164V80.3214H171.496V72.0516H189.088Z" fill="white"/>
<path d="M219.414 82.2989C223.464 80.4281 225.6 77.4731 225.6 73.7953C225.6 67.5983 221.008 63.8779 213.27 63.8779H193.648V102.187H213.483C221.923 102.187 226.961 98.1901 226.961 91.3978C226.961 87.0078 224.165 83.7233 219.414 82.2989ZM203.565 71.6162H211.399C214.248 71.6162 215.779 72.9237 215.779 75.3472C215.779 77.7707 214.248 79.0676 211.399 79.0676H203.565V71.6162ZM212.069 94.406H203.565V86.7846H212.165C215.013 86.7846 216.608 88.1452 216.608 90.7282C216.608 93.1623 215.013 94.406 212.058 94.406H212.069Z" fill="white"/>
<path d="M251.409 78.8976L246.796 78.2811C242.246 77.622 240.907 76.5059 240.907 74.3907C240.907 72.2754 242.682 70.8298 246.636 70.8298C250.293 70.8298 252.089 72.1797 252.95 75.5174L262.591 74.2737C261.177 66.7268 255.756 63.0596 246.912 63.0596C237.016 63.0596 230.511 68.0023 230.511 75.5599C230.511 82.0546 234.455 85.8387 242.522 86.9548L247.348 87.6138C252.461 88.3473 253.726 89.5059 253.726 91.7381C253.726 93.9703 251.834 95.299 247.348 95.299C245.741 95.3728 244.155 94.9107 242.839 93.9853C241.523 93.0598 240.552 91.7235 240.078 90.1862L230.033 91.6956C231.659 99.5083 237.601 103.069 247.04 103.069C257.765 103.069 264.1 98.456 264.1 90.622C264.058 83.734 260.189 80.1731 251.409 78.8976Z" fill="white"/>
<path d="M346 1.5C346 0.671571 346.672 0 347.5 0C348.328 0 349 0.671573 349 1.5V178.5C349 179.328 348.328 180 347.5 180C346.672 180 346 179.328 346 178.5V1.5Z" fill="white"/>
</svg>
