<svg width="120" height="75" fill="none" xmlns="http://www.w3.org/2000/svg"><path d="M23.457 0h29.896c4.173 0 6.769 3.402 5.795 7.589L45.23 67.347c-.983 4.173-5.161 7.578-9.337 7.578H6c-4.168 0-6.77-3.405-5.796-7.578L14.13 7.59C15.102 3.402 19.279 0 23.457 0Z" fill="#E21836"/><path d="M50.865 0h34.38c4.173 0 2.291 3.402 1.31 7.589L72.638 67.347c-.977 4.173-.672 7.578-4.853 7.578h-34.38c-4.181 0-6.769-3.405-5.787-7.578L41.534 7.59C42.522 3.402 46.69 0 50.865 0Z" fill="#00447C"/><path d="M83.881 0h29.897c4.179 0 6.774 3.402 5.793 7.589l-13.917 59.758c-.982 4.173-5.163 7.578-9.342 7.578H66.43c-4.181 0-6.775-3.405-5.796-7.578L74.555 7.59C75.526 3.402 79.7 0 83.88 0Z" fill="#007B84"/><path d="M31.264 19.15c-3.074.032-3.982 0-4.272-.068-.112.53-2.186 10.1-2.192 10.108-.447 1.936-.772 3.316-1.876 4.207-.626.518-1.358.768-2.206.768-1.364 0-2.158-.677-2.291-1.96l-.026-.442s.416-2.593.416-2.608c0 0 2.177-8.72 2.567-9.873.02-.066.026-.1.031-.132-4.238.038-4.99 0-5.041-.068-.028.094-.133.635-.133.635l-2.224 9.829-.19.834-.37 2.726c0 .81.159 1.47.475 2.028 1.013 1.77 3.902 2.035 5.537 2.035 2.106 0 4.081-.447 5.416-1.264 2.317-1.37 2.924-3.51 3.464-5.412l.251-.975s2.243-9.058 2.624-10.236c.015-.066.02-.1.04-.132Zm7.632 7.307a5.91 5.91 0 0 0-2.417.567c-.322.165-.626.356-.948.546l.29-1.047-.159-.176c-1.882.38-2.303.432-4.042.677l-.145.096c-.202 1.674-.382 2.933-1.13 6.223a391.38 391.38 0 0 1-.877 3.646l.08.154a43.24 43.24 0 0 1 3.87-.069l.126-.136c.197-1.008.222-1.244.658-3.285.205-.968.632-3.094.842-3.85.387-.18.77-.357 1.134-.357.867 0 .762.758.728 1.06-.037.506-.353 2.16-.677 3.58l-.217.917c-.15.677-.316 1.335-.467 2.006l.066.134a41.648 41.648 0 0 1 3.791-.069l.176-.136c.271-1.574.35-1.995.832-4.287l.242-1.053c.47-2.06.706-3.105.35-3.956-.376-.954-1.278-1.185-2.106-1.185Zm8.525 2.158c-.934.18-1.53.299-2.12.376-.587.094-1.16.18-2.062.305l-.07.064-.066.052c-.095.672-.16 1.253-.285 1.936-.105.706-.268 1.508-.532 2.66-.205.883-.31 1.19-.427 1.501-.114.31-.24.612-.47 1.48l.054.08.045.074c.843-.04 1.395-.069 1.962-.074.566-.02 1.153 0 2.06.005l.08-.064.085-.072c.132-.782.151-.993.232-1.375.079-.41.216-.976.552-2.49.159-.712.336-1.42.5-2.147.172-.723.351-1.434.521-2.146l-.025-.086-.034-.079Zm.02-2.91c-.849-.5-2.337-.34-3.34.35-.998.678-1.112 1.64-.267 2.147.834.487 2.328.342 3.322-.355.997-.693 1.121-1.646.285-2.141ZM52.57 37.3c1.715 0 3.474-.473 4.799-1.877 1.018-1.138 1.485-2.831 1.647-3.529.527-2.311.117-3.39-.399-4.048-.782-1.002-2.165-1.323-3.6-1.323-.863 0-2.918.085-4.523 1.565-1.153 1.068-1.685 2.517-2.007 3.905-.324 1.415-.697 3.963 1.645 4.911.723.31 1.765.396 2.437.396Zm-.135-5.2c.396-1.751.863-3.22 2.055-3.22.934 0 1.002 1.093.587 2.849-.075.39-.416 1.84-.877 2.456-.322.456-.703.732-1.124.732-.126 0-.871 0-.883-1.107-.006-.547.106-1.105.242-1.71Zm10.87 4.975.135-.137c.19-1.007.221-1.244.643-3.285.21-.967.646-3.094.85-3.85.389-.18.764-.357 1.14-.357.862 0 .757.757.723 1.059-.032.507-.348 2.16-.678 3.58l-.205.917c-.157.678-.327 1.335-.478 2.007l.066.134a41.506 41.506 0 0 1 3.785-.068l.182-.137c.265-1.574.336-1.995.832-4.287l.236-1.053c.472-2.061.711-3.105.361-3.956-.386-.954-1.294-1.184-2.111-1.184-.542 0-1.535.13-2.417.566-.316.165-.632.355-.943.546l.27-1.047-.144-.177c-1.882.382-2.312.433-4.048.678l-.134.097c-.21 1.674-.381 2.931-1.13 6.222a403 403 0 0 1-.876 3.646l.08.154a43.1 43.1 0 0 1 3.862-.068Zm12.947.068c.11-.54.768-3.746.774-3.746 0 0 .56-2.351.595-2.436 0 0 .176-.245.353-.342h.259c2.448 0 5.212 0 7.378-1.594 1.474-1.093 2.482-2.707 2.931-4.669a7.056 7.056 0 0 0 .203-1.625c0-.75-.15-1.494-.587-2.075-1.104-1.546-3.304-1.574-5.844-1.586l-1.252.012c-3.25.04-4.554.028-5.09-.037-.045.237-.13.658-.13.658s-1.164 5.397-1.164 5.405L71.76 37.123c2.838-.034 4.002-.034 4.492.02Zm2.157-9.587 1.233-5.365.04-.276.017-.211.495.05 2.613.226c1.008.39 1.423 1.395 1.133 2.706-.264 1.2-1.042 2.207-2.041 2.694-.823.412-1.83.446-2.869.446h-.672l.051-.27ZM86.12 32.2c-.328 1.395-.704 3.942 1.628 4.85.743.316 1.409.41 2.086.376.715-.039 1.377-.397 1.99-.913l-.165.637.105.136c1.677-.07 2.197-.07 4.014-.057l.165-.125c.265-1.56.515-3.074 1.204-6.057.336-1.429.671-2.844 1.016-4.267l-.054-.157a75.52 75.52 0 0 1-4.181.678l-.137.111c-.019.145-.038.284-.055.424a2.578 2.578 0 0 0-1.315-1.082c-.802-.315-2.686.091-4.306 1.566-1.138 1.053-1.685 2.496-1.995 3.88Zm3.939.085c.401-1.719.863-3.173 2.058-3.173.755 0 1.153.697 1.073 1.886-.065.297-.134.61-.216.963-.12.51-.25 1.017-.376 1.524-.128.347-.277.674-.441.892-.308.436-1.04.706-1.46.706-.12 0-.857 0-.883-1.087-.006-.541.106-1.099.245-1.71Zm20.571-5.676-.145-.165c-1.856.376-2.191.435-3.897.666l-.125.125c-.006.02-.011.052-.02.08l-.005-.028c-1.27 2.928-1.233 2.297-2.266 4.602-.006-.105-.006-.17-.012-.282l-.258-4.998-.163-.165c-1.944.376-1.99.435-3.785.666l-.14.125c-.02.06-.02.125-.032.197l.012.025c.224 1.147.17.892.396 2.702.105.888.245 1.781.349 2.659.178 1.468.277 2.19.493 4.432-1.213 2-1.5 2.758-2.667 4.514l.008.017-.822 1.3c-.094.137-.18.231-.299.271-.13.065-.301.077-.538.077h-.456l-.677 2.252 2.323.04c1.363-.006 2.22-.644 2.681-1.5l1.461-2.503h-.024l.154-.176c.982-2.115 8.454-14.933 8.454-14.933ZM86.12 56.182h-.986L88.78 44.12h1.21l.383-1.243.038 1.382c-.046.854.626 1.611 2.391 1.486h2.041l.703-2.322h-.768c-.442 0-.647-.112-.621-.351l-.037-1.406h-3.78v.008c-1.222.025-4.871.117-5.61.314-.894.23-1.837.908-1.837.908l.37-1.244h-3.535l-.737 2.468-3.695 12.245h-.717l-.703 2.305h7.042l-.236.77h3.47l.23-.77h.974l.763-2.49Zm-2.89-9.61c-.566.156-1.62.631-1.62.631l.938-3.082h2.809l-.678 2.246s-.868.05-1.449.205Zm.054 4.403s-.882.11-1.463.242c-.572.173-1.645.72-1.645.72l.968-3.208h2.824l-.684 2.246ZM81.71 56.21h-2.818l.817-2.707h2.81l-.809 2.707Zm6.786-7.48h4.062l-.584 1.89h-4.115l-.618 2.066h3.601l-2.727 3.84c-.19.282-.362.381-.552.46-.191.098-.442.211-.732.211h-.999l-.686 2.264h2.613c1.358 0 2.16-.618 2.753-1.43l1.87-2.559.401 2.599c.086.487.435.772.672.883.262.13.532.356.914.39.41.017.705.03.902.03h1.284l.77-2.532h-.505c-.291 0-.792-.05-.877-.14-.085-.111-.085-.282-.131-.54l-.408-2.605h-1.668l.732-.871h4.108l.631-2.067h-3.803l.593-1.89h3.791l.703-2.331H89.187l-.692 2.331ZM54.19 56.734l.948-3.154h3.896l.712-2.345h-3.9l.595-1.941h3.811l.706-2.272h-9.535l-.692 2.271h2.167l-.578 1.942h-2.172l-.72 2.386h2.165l-1.263 4.172c-.17.552.08.763.239 1.02.162.25.327.415.697.509.382.085.644.136 1 .136h4.392l.782-2.598-1.947.267c-.376 0-1.417-.045-1.303-.393Zm.447-15.097-.988 1.784c-.211.39-.401.632-.573.743-.15.094-.45.134-.882.134h-.515l-.689 2.283h1.711c.823 0 1.455-.302 1.756-.453.325-.173.41-.074.66-.316l.578-.5h5.343l.71-2.378h-3.912l.683-1.297h-3.883Zm7.887 15.143c-.09-.131-.025-.362.114-.843l1.46-4.833h5.195a34.07 34.07 0 0 0 1.66-.046c.381-.04.796-.176 1.249-.42.467-.257.706-.528.908-.838.225-.31.587-.988.897-2.032l1.836-6.117-5.391.031s-1.66.245-2.391.515c-.738.302-1.791 1.145-1.791 1.145l.487-1.677h-3.33l-4.663 15.462c-.165.6-.276 1.036-.302 1.298-.008.282.356.56.592.771.28.211.692.177 1.087.211.416.031 1.008.051 1.825.051h2.56l.785-2.652-2.291.216a.602.602 0 0 1-.496-.242Zm2.516-8.941h5.457l-.347 1.087c-.049.026-.165-.054-.72.012h-4.726l.336-1.099Zm1.093-3.646h5.503l-.396 1.31s-2.593-.026-3.009.05c-1.827.316-2.895 1.293-2.895 1.293l.797-2.653Zm4.14 8.374a.582.582 0 0 1-.217.336c-.111.071-.29.097-.558.097h-.777l.046-1.324h-3.234L65.4 58.15c-.005.467.04.737.382.954.342.27 1.395.304 2.812.304h2.027l.731-2.423-1.764.097-.586.035c-.08-.035-.157-.066-.242-.151-.075-.074-.2-.029-.18-.496l.014-1.66 1.85-.076c1 0 1.427-.325 1.791-.634.348-.297.461-.638.592-1.1l.31-1.468h-2.542l-.324 1.036Z" fill="#FEFEFE"/></svg>