<svg width="160" height="54" fill="none" xmlns="http://www.w3.org/2000/svg"><g clip-path="url(#a)" fill-rule="evenodd" clip-rule="evenodd"><path d="M120.879.44c-2.56.508-3.487 1.662-3.404 3.31.138 2.322 2.767 6.745 3.93 8.723a53.975 53.975 0 0 0 7.514 9.41c2.283 2.253 3.722 2.747 6.158-.577a51.928 51.928 0 0 0 5.674-8.833 38.64 38.64 0 0 0 1.993-4.932 4.256 4.256 0 0 0 .173-3.006 4.289 4.289 0 0 0-1.862-2.378 5.358 5.358 0 0 1 2.188 1.93c.535.831.827 1.794.843 2.781 0 1.867-.299 3.722-.886 5.495a63.888 63.888 0 0 1-4.29 11.168 66.555 66.555 0 0 1-4.774 8.119c-3.792 5.165-7.431 3.489-11.693 0a44.687 44.687 0 0 1-7.515-8.105 61.161 61.161 0 0 1-6.213-11.196c-2.007-4.725-.443-7.198 1.993-8.764A27.373 27.373 0 0 1 120.879.44Z" fill="url(#b)"/><path d="M120.783 11.443c3.944-.577 14.198-1.209 17.796.632.45.197.811.55 1.018.992.206.442.243.944.103 1.412.36-.646.706-1.305 1.052-2.006a38.641 38.641 0 0 0 1.993-4.931 4.262 4.262 0 0 0 .174-3.007 4.29 4.29 0 0 0-1.863-2.378 13.35 13.35 0 0 0-2.49-.934 37.636 37.636 0 0 0-7.639-1.154C129.834 0 128.699 0 127.536 0a53.752 53.752 0 0 0-6.656.44c-2.56.508-3.487 1.662-3.404 3.31.152 1.978 1.993 5.481 3.307 7.693Z" fill="url(#c)"/><path d="M110.486 53.906c2.048-.248 3.792-1.292 4.387-4.383a17.934 17.934 0 0 0-.235-7.033 4.2 4.2 0 0 0-1.163-2.074 4.726 4.726 0 0 0-2.975-.975 4.667 4.667 0 0 0-3.598 1.14c-.222.178-.429.26-.429 0v-6.594h-3.681v18.902c1.577 1.058 5.909 1.236 7.777 1.017h-.083Zm-98.71-.33c.776 0 .623.069 1.094-.563 3.196-4.355 6.227-13.655 6.185-18.834a16.851 16.851 0 0 0-4.497.536c-1.384 8.503-2.768 10.756-5.023 15.11-2.311-4.326-3.584-6.58-5.038-15.11A16.849 16.849 0 0 0 0 34.138c0 5.179 2.99 14.479 6.186 18.834.47.631.318.563 1.093.563l4.498.04ZM117.627 40.14l.36 3.325c1.383-.152 2.643-.523 4.151-.632 2.311-.083 3.778-.138 3.695 1.51h-5.273c-2.172 0-3.971 1.045-3.736 5.495.291 5.248 6.573 4.863 9.438 2.748v1.181h3.335c-.083-5.37.304-10.99-.664-12.528-1.855-2.912-7.957-1.84-11.362-1.058l.056-.04ZM39.024 53.095c-.11-1.085-.235-2.17-.36-3.256-1.85.37-3.73.577-5.618.619-1.757 0-2.421-.907-2.408-3.393a3.084 3.084 0 0 0 2.325 1.085c2.297 0 4.442.069 6.698 0 .097-4.121.457-7.762-3.709-8.64a12.322 12.322 0 0 0-5.535.123c-.77.155-1.478.53-2.037 1.079a3.989 3.989 0 0 0-1.104 2.012c-.942 3.242-.678 8.05 1.383 9.918 2.422 2.129 7.28 1.373 10.324.467l.041-.014ZM32.327 42.71h1.84c.44 0 .863.174 1.174.483.312.309.487.728.487 1.165v.742h-5.231v-.742c.003-.438.181-.857.495-1.166a1.68 1.68 0 0 1 1.18-.482h.055ZM149.953 53.7l.111-6.086c0-.37.332.124.429.275a25.701 25.701 0 0 0 4.152 5.343c.512.495.608.468 1.508.468h3.861a21.444 21.444 0 0 1-5.895-6.993c-.305-.659-.291-.577.152-1.181.443-.604 1.259-1.511 2.034-2.39l3.294-3.847v-.082h-3.501c-.637 0-.609-.096-1.066.385-1.384 1.373-2.865 3.104-4.152 4.45a3.051 3.051 0 0 1-.484.399c-.498.357-.415.26-.415-.261V33.85h-3.736v19.795l3.708.054Zm-86.49-.481-.332-3.229a26.2 26.2 0 0 1-5.231.399c-1.799-.192-2.007-1.127-2.034-2.569v-2.747c0-1.182.429-1.937 2.02-2.116a27.268 27.268 0 0 1 5.231.399l.332-3.229c-6.407-1.497-10.392-.755-11.292 4.121a21.953 21.953 0 0 0 .152 5.4c1.135 4.313 5.051 4.917 11.071 3.488l.083.083ZM43.356 39.482h-2.339v3.42h2.353v6.896a4.2 4.2 0 0 0 1.12 3.352c.41.28.888.447 1.384.48a11.86 11.86 0 0 0 4.498-.315c0-.975 0-1.95-.11-2.926-1.385.137-3.211.44-3.211-.289v-7.184h3.404v-3.407H47.05v-3.462h-3.695v3.434ZM20.495 53.7h3.64l.124-14.273h-3.792v14.19l.028.083Zm49.624-14.452h3.225a4.668 4.668 0 0 1 3.274 1.352 4.599 4.599 0 0 1 1.362 3.25v5.495a4.6 4.6 0 0 1-1.377 3.223 4.667 4.667 0 0 1-3.26 1.338H70.12a4.667 4.667 0 0 1-3.278-1.348 4.598 4.598 0 0 1-1.357-3.254v-5.495a4.598 4.598 0 0 1 1.361-3.25 4.668 4.668 0 0 1 3.274-1.352v.041Zm.706 3.462c-.44 0-.863.174-1.174.483a1.642 1.642 0 0 0-.486 1.165v4.437c0 .439.174.86.485 1.17a1.68 1.68 0 0 0 1.175.493h1.84c.445 0 .87-.175 1.185-.487.314-.312.49-.735.49-1.176v-4.437a1.657 1.657 0 0 0-.495-1.166 1.68 1.68 0 0 0-1.18-.482h-1.84ZM84.11 53.7c0-3.64 0-7.281.097-10.908h2.768a1.39 1.39 0 0 1 .932.353c.256.229.417.544.451.884v9.616h3.668l.11-10.99h3.003a1.311 1.311 0 0 1 1.006.375 1.29 1.29 0 0 1 .378.999v9.616h3.64l.124-10.317a3.53 3.53 0 0 0-.911-2.838 3.57 3.57 0 0 0-2.77-1.146h-2.38a3.106 3.106 0 0 0-2.574.99c-.554.563-.29.576-.789 0a3.488 3.488 0 0 0-2.767-1.045h-1.537a3.272 3.272 0 0 0-2.435 1.127c-.609.604-.54.81-.54-.151v-.893h-3.141v14.19l3.667.138Zm51.562 0c0-3.64 0-7.281.097-10.908h2.768c.367 0 .719.145.978.403.26.257.405.607.405.971v9.616h3.723c0-3.187 0-6.36.097-9.616 0-2.514-.969-4.74-3.986-4.74h-1.605a3.26 3.26 0 0 0-2.394 1.045c-.637.618-.623.961-.623 0v-.948h-3.183v14.204l3.723-.027Zm-13.894-6.155h4.152v2.102c0 .88-2.574.92-4.152.88-1.204 0-1.051 0-1.107-1.045v-1.181c0-.81.166-.756 1.232-.756h-.125Zm-10.558-2.541v3.915c0 .44-.177.864-.491 1.175a1.68 1.68 0 0 1-1.184.487h-1.854c-1.315 0-1.315 0-1.315-1.84v-4.204c0-1.855 0-1.84 1.315-1.84h1.882c.444 0 .87.174 1.184.486.314.312.49.735.49 1.175l-.027.646Z" fill="#004522"/></g><defs><linearGradient id="b" x1="139.685" y1="22.487" x2="110.876" y2="2.163" gradientUnits="userSpaceOnUse"><stop stop-color="#006840"/><stop offset=".4" stop-color="#007A48"/><stop offset="1" stop-color="#86C440"/></linearGradient><linearGradient id="c" x1="121.53" y1=".261" x2="138.579" y2="12.289" gradientUnits="userSpaceOnUse"><stop stop-color="#006840"/><stop offset=".3" stop-color="#007A48"/><stop offset="1" stop-color="#86C440"/></linearGradient><clipPath id="a"><path fill="#fff" d="M0 0h160v54H0z"/></clipPath></defs></svg>