<svg width="114" height="36" fill="none" xmlns="http://www.w3.org/2000/svg"><g clip-path="url(#a)"><path d="M49.4 35.473h-9.235L45.941.623h9.234L49.4 35.474ZM82.877 1.484C81.055.778 78.167 0 74.594 0c-9.12 0-15.542 4.745-15.581 11.53-.076 5.004 4.598 7.784 8.093 9.453 3.573 1.706 4.788 2.819 4.788 4.34-.037 2.334-2.887 3.41-5.546 3.41-3.687 0-5.663-.555-8.665-1.854l-1.216-.557-1.292 7.823c2.166.963 6.156 1.817 10.3 1.855 9.69 0 15.998-4.672 16.072-11.901.037-3.968-2.43-7.007-7.751-9.491-3.23-1.595-5.208-2.67-5.208-4.301.038-1.484 1.673-3.003 5.319-3.003 3.002-.074 5.208.63 6.879 1.335l.835.37 1.256-7.525ZM95.15 23.127c.761-2.002 3.688-9.75 3.688-9.75-.039.074.759-2.04 1.215-3.337l.645 3.003s1.749 8.342 2.129 10.084h-7.676ZM106.55.624h-7.143c-2.203 0-3.877.63-4.827 2.891L80.863 35.472h9.69l1.938-5.227h11.857c.265 1.223 1.101 5.227 1.101 5.227H114L106.55.624Zm-74.098 0-9.044 23.763-.988-4.82C20.748 14.008 15.504 7.966 9.652 4.96l8.284 30.476H27.7L42.217.624h-9.765Z" fill="#00579F"/><path d="M15.01.627H.152L0 1.33c11.59 2.892 19.266 9.863 22.42 18.241L19.19 3.556C18.658 1.33 17.024.7 15.01.626Z" fill="#FAA61A"/></g><defs><clipPath id="a"><path fill="#fff" d="M0 0h114v36H0z"/></clipPath></defs></svg>