<svg xmlns="http://www.w3.org/2000/svg" xmlns:xlink="http://www.w3.org/1999/xlink" width="55" height="55" viewBox="0 0 55 55">
  <defs>
    <style>
      .cls-1 {
        fill-rule: evenodd;
        fill: url(#linear-gradient);
      }
    </style>
    <linearGradient id="linear-gradient" x1="718" y1="2496.63" x2="718" y2="2443.38" gradientUnits="userSpaceOnUse">
      <stop offset="0" stop-color="#00BE40"/>
      <stop offset="1" stop-color="#00BE40"/>
    </linearGradient>
  </defs>
  <path id="icon_1" class="cls-1" d="M696.805,2478.32h-1.1v-4.65h-0.613v4.65h-1.1a0.968,0.968,0,0,0-.98.98v11.68a0.962,0.962,0,0,0,.98.98h1.1v4.65H695.7v-4.65h1.1a0.962,0.962,0,0,0,.98-0.98V2479.3A0.968,0.968,0,0,0,696.805,2478.32Zm11.334-29.73h-1.1v-2.64h-0.613v2.64h-1.1a0.959,0.959,0,0,0-.98.97v29.49a0.962,0.962,0,0,0,.98.98h1.1v13.89h0.613v-13.89h1.1a0.963,0.963,0,0,0,.981-0.98v-29.49A1.044,1.044,0,0,0,708.139,2448.59Zm11.274,10.95h-1.1v-7.77H717.7v7.83h-1.1a0.969,0.969,0,0,0-.981.98v5.2a0.969,0.969,0,0,0,.981.98h1.1v21.23h0.613V2466.7h1.1a0.969,0.969,0,0,0,.981-0.98v-5.2A0.969,0.969,0,0,0,719.413,2459.54Zm11.335,9.11h-1.1v-24.84h-0.613v24.84h-1.1a0.968,0.968,0,0,0-.98.98v20.74a0.968,0.968,0,0,0,.98.98h1.1v4.96h0.613v-4.96h1.1a0.969,0.969,0,0,0,.981-0.98v-20.74A1.053,1.053,0,0,0,730.748,2468.65Zm11.275-18.6h-1.1v-6.67h-0.612v6.67h-1.1a0.969,0.969,0,0,0-.981.98v11.69a0.969,0.969,0,0,0,.981.98h1.1v6.67h0.612v-6.67h1.1a0.968,0.968,0,0,0,.98-0.98v-11.69A0.968,0.968,0,0,0,742.023,2450.05Z" transform="translate(-690.5 -2442.505)"/>
</svg>
