<svg xmlns="http://www.w3.org/2000/svg" xmlns:xlink="http://www.w3.org/1999/xlink" width="55" height="55" viewBox="0 0 55 55">
  <defs>
    <style>
      .cls-1 {
        fill-rule: evenodd;
        fill: url(#linear-gradient);
      }
    </style>
    <linearGradient id="linear-gradient" x1="962" y1="2496.75" x2="962" y2="2444.25" gradientUnits="userSpaceOnUse">
      <stop offset="0" stop-color="#00BE40"/>
      <stop offset="1" stop-color="#00BE40"/>
    </linearGradient>
  </defs>
  <path id="icon_2" class="cls-1" d="M982.967,2468.42a21.6,21.6,0,0,0-4.2,6.31,3.207,3.207,0,0,1-5.955-.01,23.642,23.642,0,0,0-4.973-7.15c-0.459-.51-0.918-1.01-1.368-1.54-0.024.01-.041,0.02-0.064,0.03a3.8,3.8,0,0,0-2.334,4.83c0.563,1.32,4.514,1.07,4.176,3.91-0.281,2.32,2.761,2.93,3.839,2.82,1.078-.13,2.736,1.77,1.9,2.61s-2.4.87-2.157,3.02c0.065,0.63,1.964.55,1.964,1.5s-0.982,2.04-.225,3.15a2.708,2.708,0,0,0,.507.57,20.379,20.379,0,0,1-31.86-24.45,11.9,11.9,0,0,0,2.865,7.62c2.994,2.99,7.332,2.05,7.887,4.55s-2.978,2.5-2.745,4.41,4.853,2.42,3.823,4.18c-1.36,2.34.917,2.51,0.258,5.4-0.355,1.58,1.923,1.89,2.768.69,0.644-.92.515-2.05,1.81-3.42,1.586-1.69,5.263-1.97,4.853-4.76-0.7-4.63-5.207-5.36-7.17-6.44-2.23-1.23-1.682-4.16-2.165-5.56-0.676-1.99-2.97.55-4.193-.61-2.012-1.9.362-4.59,2.052-4.53,3.565,0.11,4.66,3.58,5.971,3.46,1.28-.11,2.109-1.9,2.334-2.85,0.475-2.07-.8-1.14-1.32-2.22-0.692-1.44,2.43-2.81,3.638-3.88a1.653,1.653,0,0,0,.394-0.45c0.362-.71-0.113-1.25-0.918-1.74-1.609-.98-4.546-1.75-4.683-3.27-0.08-.93,1.706-1.38,3.742-1.46,0.338,0.01.668,0.04,1.006,0.08a13.487,13.487,0,0,1,.813-2.8,22.424,22.424,0,0,0-2.97-.2,23.265,23.265,0,1,0,23.265,23.27A22.9,22.9,0,0,0,982.967,2468.42ZM974.7,2444.3a11.445,11.445,0,0,0-9.919,13.48c1.164,6.6,7.248,8.63,10.267,16.04a0.8,0.8,0,0,0,1.484,0C979.882,2465.6,987,2464,987,2455.45A11.211,11.211,0,0,0,974.7,2444.3Zm1.091,17.07a5.915,5.915,0,1,1,5.918-5.92A5.919,5.919,0,0,1,975.793,2461.37Z" transform="translate(-934.5 -2443)"/>
</svg>
