<svg xmlns="http://www.w3.org/2000/svg" xmlns:xlink="http://www.w3.org/1999/xlink" width="55" height="55" viewBox="0 0 55 55">
  <defs>
    <style>
      .cls-1 {
        fill-rule: evenodd;
        fill: url(#linear-gradient);
      }
    </style>
    <linearGradient id="linear-gradient" x1="716" y1="2659" x2="716" y2="2609" gradientUnits="userSpaceOnUse">
      <stop offset="0" stop-color="#00BE40"/>
      <stop offset="1" stop-color="#00BE40"/>
    </linearGradient>
  </defs>
  <path id="icon_3" class="cls-1" d="M740.673,2626.61l-9.318-15.67a3.407,3.407,0,0,0-4.738-1.48l-24.848,14.79a3.2,3.2,0,0,0-1.316,4.05c-2.159,1.36-5.686,14.83-5.686,14.83l-3.054,2.53a2,2,0,0,0-.526,2.36l5.37,10a1.884,1.884,0,0,0,2.369.84,29.711,29.711,0,0,1,7-2.16,9.676,9.676,0,0,0,4.739-2.68c1.263-1.52,14.056-17.25,14.056-17.25a3.543,3.543,0,0,0-.737-5.11,3.682,3.682,0,0,0-4.844.74l-6.053,7.42a2.072,2.072,0,0,1-3.422-.27l-3.159-5.31,26.585-15.83,5.37,8.99a1.089,1.089,0,0,1-.368,1.42l-10.161,6.05v0.11a3.445,3.445,0,0,1-.789,2.21l-6.213,7.63,0.158,0.26a2.4,2.4,0,0,0,3.264.89l0.369-.21a2.83,2.83,0,0,0,1.316-3.21,1.967,1.967,0,0,0,.79.11,2.577,2.577,0,0,0,1.368-.37,2.817,2.817,0,0,0,1.053-3.79h0a2.1,2.1,0,0,0,.843.11,2.58,2.58,0,0,0,1.368-.37,2.741,2.741,0,0,0,1.159-3.53l6.686-3.94A3.2,3.2,0,0,0,740.673,2626.61Zm-36.693,3.37-1.422-2.37a1.045,1.045,0,0,1,.369-1.42l24.848-14.78a1.1,1.1,0,0,1,1.422.37l1.421,2.37Zm25.322,0.37,4.686-2.79a1.017,1.017,0,0,0,.368-1.37l-1.58-2.68a1.024,1.024,0,0,0-1.368-.37l-4.686,2.79a1.017,1.017,0,0,0-.368,1.37l1.579,2.68A1.025,1.025,0,0,0,729.3,2630.35Z" transform="translate(-688.5 -2606.5)"/>
</svg>
