<svg xmlns="http://www.w3.org/2000/svg" xmlns:xlink="http://www.w3.org/1999/xlink" width="55" height="55" viewBox="0 0 55 55">
  <defs>
    <style>
      .cls-1 {
        fill-rule: evenodd;
        fill: url(#linear-gradient);
      }
    </style>
    <linearGradient id="linear-gradient" x1="958" y1="2661.63" x2="958" y2="2605.38" gradientUnits="userSpaceOnUse">
      <stop offset="0" stop-color="#00BE40"/>
      <stop offset="1" stop-color="#00BE40"/>
    </linearGradient>
  </defs>
  <path id="icon_4" class="cls-1" d="M949.792,2608.1a1.569,1.569,0,0,1,.43.09,1.291,1.291,0,0,1,.651.57,1.292,1.292,0,0,1,.138.86,1.329,1.329,0,0,1-.154.41,1.3,1.3,0,0,1-.665.55,18.848,18.848,0,0,0-6.118,31.42,1.407,1.407,0,0,1,.338.52,1.3,1.3,0,0,1,.055.62l-1.619,10.39,19.862,5.2,0.953-7.32a1.249,1.249,0,0,1,.535-0.88,1.112,1.112,0,0,1,.485-0.21,1.331,1.331,0,0,1,.526.01l5.939,1.36,1.017-6.24a1.239,1.239,0,0,1,.148-0.42,1.344,1.344,0,0,1,.284-0.35,1.385,1.385,0,0,1,.385-0.22,1.322,1.322,0,0,1,.44-0.08h4.226l-2.39-11.39a1.354,1.354,0,0,1-.027-0.31l0.22-6.55a18.832,18.832,0,0,0-11.376-15.29,1.215,1.215,0,0,1-.419-0.28,1.282,1.282,0,0,1,0-1.82,1.192,1.192,0,0,1,.42-0.27,1.051,1.051,0,0,1,.493-0.09,1.37,1.37,0,0,1,.491.1,21.4,21.4,0,0,1,12.93,17.47,1.354,1.354,0,0,1,.006.18l-0.217,6.48,2.681,12.78a1.306,1.306,0,0,1-.009.57,1.319,1.319,0,0,1-.248.5,1.249,1.249,0,0,1-.442.35,1.3,1.3,0,0,1-.548.12H974.5l-1.061,6.51a1.342,1.342,0,0,1-.185.49,1.394,1.394,0,0,1-.361.37,1.354,1.354,0,0,1-.478.19,1.281,1.281,0,0,1-.516-0.01l-5.895-1.35-0.959,7.37a1.322,1.322,0,0,1-.18.51,1.292,1.292,0,0,1-.371.38,1.155,1.155,0,0,1-.5.2,1.081,1.081,0,0,1-.536-0.02l-22.374-5.86a1.316,1.316,0,0,1-.421-0.2,1.233,1.233,0,0,1-.322-0.33,1.341,1.341,0,0,1-.18-0.44,1.25,1.25,0,0,1-.013-0.46l1.693-10.88a21.407,21.407,0,0,1,7.446-35.21,1.412,1.412,0,0,1,.5-0.09h0Zm10.66-2.73a1.417,1.417,0,0,1,.5.1,1.3,1.3,0,0,1,.4.28,1.384,1.384,0,0,1,.278.42,1.251,1.251,0,0,1,.1.48v18.85a8.573,8.573,0,0,1,1.174,14.16l2.966,5.15a1.407,1.407,0,0,1,.159.48,1.289,1.289,0,0,1-.02.5,1.229,1.229,0,0,1-.219.44,1.188,1.188,0,0,1-.378.34,1.344,1.344,0,0,1-.478.16,1.2,1.2,0,0,1-.5-0.04,1.291,1.291,0,0,1-.457-0.22,1.166,1.166,0,0,1-.319-0.38l-2.965-5.15a8.45,8.45,0,0,1-3.105.6,8.567,8.567,0,0,1-4.16-16.04v-18.85a1.29,1.29,0,0,1,.1-0.48,1.388,1.388,0,0,1,.279-0.42,1.472,1.472,0,0,1,.4-0.28,1.407,1.407,0,0,1,.5-0.1h5.752Z" transform="translate(-930.5 -2606.005)"/>
</svg>
