<svg width="144" height="158" viewBox="0 0 144 158" fill="none" xmlns="http://www.w3.org/2000/svg">
<g clip-path="url(#clip0_563_98956)">
<path d="M128.639 45.8394L120.883 50.3293" stroke="#09544F" stroke-width="3" stroke-linecap="round" stroke-linejoin="round"/>
<path d="M120.856 50.3462L113.099 54.8354" stroke="#09544F" stroke-width="3" stroke-linecap="round" stroke-linejoin="round"/>
<path d="M113.072 54.8545L105.316 59.3423" stroke="#09544F" stroke-width="3" stroke-linecap="round" stroke-linejoin="round"/>
<path d="M120.897 59.3334L120.885 50.3271" stroke="#09544F" stroke-width="3" stroke-linecap="round" stroke-linejoin="round"/>
<path d="M120.883 50.3271L128.666 45.8188" stroke="#09544F" stroke-width="3" stroke-linecap="round" stroke-linejoin="round"/>
<path d="M128.666 45.8188L128.654 54.8478" stroke="#09544F" stroke-width="3" stroke-linecap="round" stroke-linejoin="round"/>
<path d="M128.654 54.8457L120.897 59.3335" stroke="#09544F" stroke-width="3" stroke-linecap="round" stroke-linejoin="round"/>
<path d="M113.111 63.8427L113.099 54.8335" stroke="#09544F" stroke-width="3" stroke-linecap="round" stroke-linejoin="round"/>
<path d="M113.099 54.8332L120.883 50.3271" stroke="#09544F" stroke-width="3" stroke-linecap="round" stroke-linejoin="round"/>
<path d="M120.881 50.3271L120.868 59.3546" stroke="#09544F" stroke-width="3" stroke-linecap="round" stroke-linejoin="round"/>
<path d="M120.868 59.3525L113.111 63.8425" stroke="#09544F" stroke-width="3" stroke-linecap="round" stroke-linejoin="round"/>
<path d="M105.329 68.3485L105.316 59.3423" stroke="#09544F" stroke-width="3" stroke-linecap="round" stroke-linejoin="round"/>
<path d="M105.316 59.3425L113.099 54.8335" stroke="#09544F" stroke-width="3" stroke-linecap="round" stroke-linejoin="round"/>
<path d="M113.098 54.8335L113.084 63.861" stroke="#09544F" stroke-width="3" stroke-linecap="round" stroke-linejoin="round"/>
<path d="M113.085 63.8608L105.329 68.3486" stroke="#09544F" stroke-width="3" stroke-linecap="round" stroke-linejoin="round"/>
<path d="M120.907 68.3405L120.895 59.3335" stroke="#09544F" stroke-width="3" stroke-linecap="round" stroke-linejoin="round"/>
<path d="M120.895 59.3337L128.679 54.8276" stroke="#09544F" stroke-width="3" stroke-linecap="round" stroke-linejoin="round"/>
<path d="M128.676 54.8252L128.664 63.8549" stroke="#09544F" stroke-width="3" stroke-linecap="round" stroke-linejoin="round"/>
<path d="M128.664 63.8525L120.91 68.3417" stroke="#09544F" stroke-width="3" stroke-linecap="round" stroke-linejoin="round"/>
<path d="M113.124 72.8485L113.111 63.8423" stroke="#09544F" stroke-width="3" stroke-linecap="round" stroke-linejoin="round"/>
<path d="M113.111 63.8403L120.895 59.3335" stroke="#09544F" stroke-width="3" stroke-linecap="round" stroke-linejoin="round"/>
<path d="M120.893 59.3335L120.88 68.361" stroke="#09544F" stroke-width="3" stroke-linecap="round" stroke-linejoin="round"/>
<path d="M120.88 68.3589L113.124 72.8488" stroke="#09544F" stroke-width="3" stroke-linecap="round" stroke-linejoin="round"/>
<path d="M105.341 77.3549L105.329 68.3486" stroke="#09544F" stroke-width="3" stroke-linecap="round" stroke-linejoin="round"/>
<path d="M105.326 68.3486L113.11 63.8403" stroke="#09544F" stroke-width="3" stroke-linecap="round" stroke-linejoin="round"/>
<path d="M113.11 63.8403L113.098 72.8671" stroke="#09544F" stroke-width="3" stroke-linecap="round" stroke-linejoin="round"/>
<path d="M113.098 72.8672L105.341 77.3549" stroke="#09544F" stroke-width="3" stroke-linecap="round" stroke-linejoin="round"/>
<path d="M120.922 77.3466L120.91 68.3403" stroke="#09544F" stroke-width="3" stroke-linecap="round" stroke-linejoin="round"/>
<path d="M120.907 68.3405L128.691 63.8315" stroke="#09544F" stroke-width="3" stroke-linecap="round" stroke-linejoin="round"/>
<path d="M128.691 63.8315L128.679 72.8613" stroke="#09544F" stroke-width="3" stroke-linecap="round" stroke-linejoin="round"/>
<path d="M128.679 72.8589L120.922 77.3466" stroke="#09544F" stroke-width="3" stroke-linecap="round" stroke-linejoin="round"/>
<path d="M113.138 81.8529L113.124 72.8467" stroke="#09544F" stroke-width="3" stroke-linecap="round" stroke-linejoin="round"/>
<path d="M113.124 72.8464L120.907 68.3403" stroke="#09544F" stroke-width="3" stroke-linecap="round" stroke-linejoin="round"/>
<path d="M120.907 68.3403L120.895 77.3671" stroke="#09544F" stroke-width="3" stroke-linecap="round" stroke-linejoin="round"/>
<path d="M120.895 77.3652L113.138 81.8551" stroke="#09544F" stroke-width="3" stroke-linecap="round" stroke-linejoin="round"/>
<path d="M105.353 86.3607L105.341 77.3545" stroke="#09544F" stroke-width="3" stroke-linecap="round" stroke-linejoin="round"/>
<path d="M105.341 77.3549L113.124 72.8467" stroke="#09544F" stroke-width="3" stroke-linecap="round" stroke-linejoin="round"/>
<path d="M113.122 72.8467L113.11 81.8735" stroke="#09544F" stroke-width="3" stroke-linecap="round" stroke-linejoin="round"/>
<path d="M113.11 81.873L105.353 86.3607" stroke="#09544F" stroke-width="3" stroke-linecap="round" stroke-linejoin="round"/>
<path d="M47.3456 149.634V84.5853C47.4622 82.3097 48.1135 80.0945 49.2458 78.1211C50.378 76.1477 51.9592 74.4725 53.8595 73.2329" stroke="#09544F" stroke-width="3" stroke-linecap="round" stroke-linejoin="round"/>
<path d="M53.8595 73.2324L127.006 30.7473L130.228 28.8574" stroke="#09544F" stroke-width="3" stroke-linecap="round" stroke-linejoin="round"/>
<path d="M53.8596 155.966C51.9945 157.056 50.3073 157.084 49.1285 156.27C48.9727 156.168 48.8337 156.042 48.7169 155.896C48.3952 155.679 48.1428 155.373 47.9905 155.015C47.8155 154.719 47.6859 154.399 47.6059 154.064C47.4272 153.445 47.3395 152.803 47.3456 152.158M47.3456 84.585C47.3456 84.2544 47.3727 83.9634 47.3996 83.6599C47.4412 83.0946 47.543 82.5353 47.7034 81.9918C47.7378 81.7724 47.7882 81.5559 47.8542 81.3439C47.8542 81.3022 47.8542 81.2728 47.895 81.2457C48.0384 80.718 48.2213 80.2021 48.4421 79.7021" stroke="#09544F" stroke-width="3" stroke-linecap="round" stroke-linejoin="round"/>
<path d="M48.4836 79.7025V79.6614C48.5172 79.5481 48.5681 79.4409 48.6345 79.3433C48.7218 79.2104 48.7913 79.0665 48.8412 78.9153C49.0059 78.6536 49.1283 78.3773 49.266 78.1296C49.344 77.9816 49.4312 77.8387 49.5269 77.7016C49.5269 77.6606 49.5532 77.6605 49.5532 77.6334C49.7424 77.2867 49.9629 76.9584 50.2123 76.6527C50.5298 76.2107 50.8774 75.7915 51.2527 75.398C51.6375 74.9797 52.0501 74.5881 52.4876 74.226C52.4884 74.2081 52.496 74.1911 52.5087 74.1785C52.5214 74.1658 52.5382 74.1584 52.5561 74.1578C52.9654 73.8152 53.4013 73.5059 53.8595 73.2329" stroke="#09544F" stroke-width="3" stroke-linecap="round" stroke-linejoin="round"/>
<path d="M130.255 28.8723C130.721 28.6024 131.212 28.3805 131.722 28.2098C131.847 28.1524 131.982 28.1198 132.119 28.1137C132.422 28.027 132.737 27.985 133.053 27.9891C133.321 27.969 133.592 28.0021 133.848 28.0866C134.062 28.1187 134.271 28.1839 134.465 28.2801C134.492 28.2801 134.492 28.3073 134.533 28.3073C134.551 28.3061 134.569 28.3091 134.586 28.3162C134.602 28.3234 134.617 28.3344 134.628 28.3483C134.663 28.3447 134.698 28.3544 134.725 28.3754C136 28.9969 136.782 30.4716 136.782 32.6366V90.2544" stroke="#09544F" stroke-width="3" stroke-linecap="round" stroke-linejoin="round"/>
<path d="M136.782 98.916V100.227C136.782 103.825 134.587 108.13 131.693 110.557" stroke="#09544F" stroke-width="3" stroke-linecap="round" stroke-linejoin="round"/>
<path d="M55.3937 88.4468V131.539C55.3937 132.187 55.846 132.448 56.3954 132.13" stroke="#09544F" stroke-width="3" stroke-linecap="round" stroke-linejoin="round"/>
<path d="M128.72 85.5637V80.2529L124.166 82.9149M108.578 97.4679V99.3714L110.237 98.42M103.862 94.7092V100.186L108.552 97.4394" stroke="#09544F" stroke-width="3" stroke-linecap="round" stroke-linejoin="round"/>
<path d="M113.925 113.868V110.946L111.389 112.406" stroke="#09544F" stroke-width="3" stroke-linecap="round" stroke-linejoin="round"/>
<path d="M3.04673 51.3022C1.88484 53.2588 1.23423 55.4794 1.15546 57.7571V125.346C1.31867 127.4 1.41551 128.242 3.04673 129.58" stroke="#09544F" stroke-width="3" stroke-linecap="round" stroke-linejoin="round"/>
<path d="M49.266 156.407C47.6348 155.057 47.5379 154.228 47.3456 152.173V84.5851C47.4219 82.3026 48.0834 80.0788 49.266 78.1294" stroke="#09544F" stroke-width="3" stroke-linecap="round" stroke-linejoin="round"/>
<path d="M56.8618 144.104V147.443L60.1789 145.511" stroke="#09544F" stroke-width="3" stroke-linecap="round" stroke-linejoin="round"/>
<path d="M121.55 104.985L103.82 94.7091L124.166 82.915L141.869 93.193" stroke="#09544F" stroke-width="3" stroke-linecap="round" stroke-linejoin="round"/>
<path fill-rule="evenodd" clip-rule="evenodd" d="M124.127 100.061C123.907 100.177 123.662 100.237 123.413 100.237C123.165 100.237 122.921 100.177 122.7 100.061C121.234 99.2049 119.724 98.3364 118.272 97.4803C118.186 97.4521 118.11 97.3968 118.056 97.3226C118.003 97.2483 117.973 97.1588 117.973 97.067C117.973 96.9751 118.003 96.8857 118.056 96.8115C118.11 96.7372 118.186 96.6819 118.272 96.6536C119.301 96.0467 120.616 95.2889 121.645 94.6945C121.867 94.5789 122.114 94.5186 122.364 94.5186C122.615 94.5186 122.862 94.5789 123.084 94.6945C124.552 95.5506 126.019 96.4066 127.526 97.2751C127.61 97.3045 127.683 97.3595 127.735 97.4324C127.786 97.5054 127.814 97.5927 127.814 97.6823C127.814 97.7719 127.786 97.8591 127.735 97.9321C127.683 98.0051 127.61 98.06 127.526 98.0894C126.471 98.6963 125.168 99.4688 124.127 100.061Z" stroke="#09544F" stroke-width="3" stroke-linecap="round" stroke-linejoin="round"/>
<path d="M76.1526 154.808L57.2872 143.827L111.389 112.406" stroke="#09544F" stroke-width="3" stroke-linecap="round" stroke-linejoin="round"/>
<path d="M68.953 113.455C72.5053 111.193 76.4803 108.916 80.4166 106.641C81.623 105.963 82.8017 104.363 82.8017 102.986V96.074C82.8017 95.1644 81.623 94.4601 80.4166 95.1498C76.865 97.1917 73.7404 99.0533 70.9421 100.82C69.7626 101.55 68.953 101.042 68.953 99.6625V92.7649C69.0243 92.0835 69.2386 91.425 69.5814 90.8329C69.9243 90.2409 70.3881 89.7288 70.9421 89.3303C74.1367 87.3294 77.6474 85.2332 81.623 82.9707" stroke="#09544F" stroke-width="3" stroke-linecap="round" stroke-linejoin="round"/>
<path fill-rule="evenodd" clip-rule="evenodd" d="M115.008 122.282C116.31 121.525 116.31 120.309 115.036 119.565C114.312 119.199 113.512 119.01 112.702 119.015C111.891 119.019 111.093 119.217 110.373 119.592C109.072 120.35 109.046 121.563 110.32 122.297C111.047 122.665 111.851 122.856 112.665 122.853C113.48 122.851 114.282 122.655 115.008 122.282Z" stroke="#09544F" stroke-width="3" stroke-linecap="round" stroke-linejoin="round"/>
<path fill-rule="evenodd" clip-rule="evenodd" d="M74.329 145.897C73.6083 146.268 72.8112 146.464 72.0017 146.468C71.1921 146.473 70.3926 146.287 69.6678 145.924C68.3914 145.18 68.4331 143.966 69.6949 143.208C70.4227 142.837 71.2262 142.641 72.0422 142.636C72.8583 142.631 73.6644 142.817 74.3967 143.179C75.673 143.925 75.6316 145.138 74.329 145.897Z" stroke="#09544F" stroke-width="3" stroke-linecap="round" stroke-linejoin="round"/>
<path d="M93.1665 138.779C95.8409 137.221 98.5153 135.704 101.737 133.951C102.656 133.456 102.615 132.737 101.737 132.229C100.599 131.539 99.1309 130.683 97.6644 129.827C97.2038 129.614 96.7026 129.504 96.1957 129.507C95.6887 129.509 95.1884 129.624 94.73 129.841C92.3863 131.221 89.7118 132.6 87.6552 133.801C87.2085 134.059 86.7026 134.194 86.1879 134.194C85.6732 134.194 85.1674 134.059 84.7206 133.801C83.5557 133.123 81.1021 131.703 79.6363 130.849" stroke="#09544F" stroke-width="3" stroke-linecap="round" stroke-linejoin="round"/>
<path d="M80.8129 3.90576L7.68091 46.4025" stroke="#09544F" stroke-width="3" stroke-linecap="round" stroke-linejoin="round"/>
<path d="M7.68091 46.4023C5.77704 47.6397 4.19261 49.3144 3.0581 51.2885C1.9236 53.2626 1.27147 55.4795 1.15546 57.7568" stroke="#09544F" stroke-width="3" stroke-linecap="round" stroke-linejoin="round"/>
<path d="M3.04675 129.58L49.2661 156.407" stroke="#09544F" stroke-width="3" stroke-linecap="round" stroke-linejoin="round"/>
<path d="M130.227 28.8575C132.119 27.9889 132.861 27.6583 134.847 28.4045" stroke="#09544F" stroke-width="3" stroke-linecap="round" stroke-linejoin="round"/>
<path d="M134.847 28.4046L88.6708 1.57422" stroke="#09544F" stroke-width="3" stroke-linecap="round" stroke-linejoin="round"/>
<path d="M88.6706 1.57435C86.6825 0.83114 85.9287 1.16099 84.0352 2.02955" stroke="#09544F" stroke-width="3" stroke-linecap="round" stroke-linejoin="round"/>
<path d="M84.0351 2.0293L80.8129 3.90555" stroke="#09544F" stroke-width="3" stroke-linecap="round" stroke-linejoin="round"/>
<path d="M66.0208 148.891L53.8595 155.967" stroke="#09544F" stroke-width="3" stroke-linecap="round" stroke-linejoin="round"/>
<path d="M131.693 110.557L120.026 117.4" stroke="#09544F" stroke-width="3" stroke-linecap="round" stroke-linejoin="round"/>
<path d="M56.3954 132.13L95.3477 109.495" stroke="#09544F" stroke-width="3" stroke-linecap="round" stroke-linejoin="round"/>
<path d="M95.3478 109.495C95.6415 109.307 95.8865 109.052 96.0628 108.75C96.2391 108.448 96.3416 108.108 96.3618 107.758" stroke="#09544F" stroke-width="3" stroke-linecap="round" stroke-linejoin="round"/>
<path d="M96.3618 107.758V64.6523" stroke="#09544F" stroke-width="3" stroke-linecap="round" stroke-linejoin="round"/>
<path d="M96.3618 64.6524C96.3618 64.0184 95.9094 63.7567 95.3478 64.0726" stroke="#09544F" stroke-width="3" stroke-linecap="round" stroke-linejoin="round"/>
<path d="M95.3477 64.0728L56.3954 86.6939" stroke="#09544F" stroke-width="3" stroke-linecap="round" stroke-linejoin="round"/>
<path d="M56.3954 86.6938C56.1056 86.8889 55.8645 87.1486 55.6908 87.4527C55.517 87.7568 55.4154 88.097 55.3937 88.447" stroke="#09544F" stroke-width="3" stroke-linecap="round" stroke-linejoin="round"/>
<path d="M49.2661 78.1297L3.04675 51.3022" stroke="#09544F" stroke-width="3" stroke-linecap="round" stroke-linejoin="round"/>
<path d="M141.869 93.1924C143.17 93.9502 143.17 95.205 141.869 95.9636" stroke="#09544F" stroke-width="3" stroke-linecap="round" stroke-linejoin="round"/>
<path d="M141.869 95.9639L126.32 104.985" stroke="#09544F" stroke-width="3" stroke-linecap="round" stroke-linejoin="round"/>
<path d="M126.32 104.985C125.58 105.359 124.764 105.554 123.935 105.554C123.107 105.554 122.29 105.359 121.55 104.985" stroke="#09544F" stroke-width="3" stroke-linecap="round" stroke-linejoin="round"/>
<path d="M111.389 112.406L130.295 123.372" stroke="#09544F" stroke-width="3" stroke-linecap="round" stroke-linejoin="round"/>
<path d="M130.295 123.372C132.544 124.682 132.544 126.805 130.295 128.131" stroke="#09544F" stroke-width="3" stroke-linecap="round" stroke-linejoin="round"/>
<path d="M130.295 128.131L84.3651 154.808" stroke="#09544F" stroke-width="3" stroke-linecap="round" stroke-linejoin="round"/>
<path d="M84.3652 154.808C83.0916 155.454 81.685 155.791 80.2587 155.791C78.8323 155.791 77.426 155.454 76.1525 154.808" stroke="#09544F" stroke-width="3" stroke-linecap="round" stroke-linejoin="round"/>
<path d="M75.6732 81.3149V114.889" stroke="#09544F" stroke-width="3" stroke-linecap="round" stroke-linejoin="round"/>
<path d="M79.1547 151.62L84.8591 148.311" stroke="#09544F" stroke-width="3" stroke-linecap="round" stroke-linejoin="round"/>
<path d="M119.15 128.393L124.852 125.082" stroke="#09544F" stroke-width="3" stroke-linecap="round" stroke-linejoin="round"/>
<path d="M84.46 128.048C91.1799 131.813 94.4015 133.965 101.12 137.896" stroke="#09544F" stroke-width="3" stroke-linecap="round" stroke-linejoin="round"/>
<path d="M135.013 94.4601L131.667 92.5171" stroke="#09544F" stroke-width="3" stroke-linecap="round" stroke-linejoin="round"/>
<path d="M128.268 90.5292L124.908 88.584" stroke="#09544F" stroke-width="3" stroke-linecap="round" stroke-linejoin="round"/>
<path d="M121.521 86.6126L119.629 85.522" stroke="#09544F" stroke-width="3" stroke-linecap="round" stroke-linejoin="round"/>
</g>
<defs>
<clipPath id="clip0_563_98956">
<rect width="144" height="158" fill="white"/>
</clipPath>
</defs>
</svg>
