<svg width="80" height="81" viewBox="0 0 80 81" fill="none" xmlns="http://www.w3.org/2000/svg">
<path d="M19.4789 67.2675C19.7148 64.3297 20.2884 61.4298 21.1879 58.6266C21.6222 57.3015 22.1274 56.0019 22.6969 54.7096C24.4997 50.6159 26.9134 46.8276 29.8532 43.4774C32.0953 40.939 34.6897 38.7443 37.555 36.962C39.0779 36.0909 40.6944 35.3996 42.3729 34.9017C42.6003 34.8435 42.8323 34.7968 43.0529 34.7445C43.2026 34.6971 43.357 34.6663 43.5133 34.6528C43.798 34.5953 44.0855 34.5536 44.3747 34.528C44.9674 34.4529 45.5656 34.4331 46.1618 34.4687C46.3628 34.4757 46.5569 34.4956 46.7441 34.5154C48.0092 34.6755 49.2356 35.0643 50.3651 35.6634C48.144 34.3701 45.2037 32.3432 42.5291 31.0962" stroke="#09544F" stroke-width="2" stroke-linecap="round" stroke-linejoin="round"/>
<path d="M45.0808 9.78017C42.729 8.40871 37.4768 4.85313 35.3393 4.58436C24.8216 3.26517 13.3977 26.2479 22.2629 31.693" stroke="#09544F" stroke-width="2" stroke-linecap="round" stroke-linejoin="round"/>
<path d="M52.6253 37.5658C50.0102 34.4746 46.0261 33.8997 42.3728 34.9016C37.1168 36.2606 32.3798 40.3812 28.9608 44.5267C23.8762 50.6645 19.9177 59.3015 19.4789 67.2675" stroke="#09544F" stroke-width="2" stroke-linecap="round" stroke-linejoin="round"/>
<path fill-rule="evenodd" clip-rule="evenodd" d="M48.1959 16.7671C48.1959 13.3301 47.0107 10.9093 45.0811 9.78042C43.144 8.65194 40.4818 8.81615 37.5356 10.5415C34.6015 12.2601 31.9334 15.2126 30.0097 18.5914C28.086 21.9772 26.8881 25.7897 26.8881 29.2334C26.8881 32.6715 28.086 35.0926 30.0097 36.2211C36.8167 40.2037 48.1959 27.6653 48.1959 16.7671Z" stroke="#09544F" stroke-width="2" stroke-linecap="round" stroke-linejoin="round"/>
<path d="M66.6083 38.5629L62.0489 35.8927L61.4985 35.709" stroke="#09544F" stroke-width="2" stroke-linecap="round" stroke-linejoin="round"/>
<path d="M61.4989 35.7095C60.3035 35.3868 59.0541 35.3241 57.8331 35.5258C54.7046 36.0177 51.6094 37.9665 49.271 40.0456C43.6365 45.0264 39.1414 53.358 38.5268 60.9426C38.3065 63.4554 38.5268 66.2967 39.5892 68.6129C40.003 69.5519 40.587 70.404 41.3109 71.125" stroke="#09544F" stroke-width="2" stroke-linecap="round" stroke-linejoin="round"/>
<path d="M41.3104 71.1245L41.745 71.5121L46.2975 74.1821" stroke="#09544F" stroke-width="2" stroke-linecap="round" stroke-linejoin="round"/>
<path d="M46.2973 74.1823C46.0068 73.9266 45.7302 73.6551 45.4689 73.3689C44.6516 72.3826 44.0332 71.2434 43.6488 70.0159C42.6838 66.8933 42.924 63.1342 43.6488 59.9847C45.2934 52.8725 50.0091 45.2088 55.9547 41.024C58.1693 39.4685 60.9544 38.1364 63.6806 38.0778C64.4811 38.0617 65.2796 38.1633 66.0513 38.3794" stroke="#09544F" stroke-width="2" stroke-linecap="round" stroke-linejoin="round"/>
<path fill-rule="evenodd" clip-rule="evenodd" d="M57.4313 73.8087C65.3911 69.156 71.855 57.8322 71.855 48.5163C71.855 39.1995 65.3911 35.4135 57.4313 40.0721C49.4721 44.7303 43.0085 56.0671 43.0085 65.384C43.0085 74.7008 49.4721 78.4669 57.4313 73.8087Z" stroke="#09544F" stroke-width="2" stroke-linecap="round" stroke-linejoin="round"/>
<path fill-rule="evenodd" clip-rule="evenodd" d="M59.3223 44.1523V53.6333L67.4249 48.8966V53.3118L64.1151 55.2469L59.3223 58.0496V67.5227L55.5334 69.7342V60.2533L47.4377 64.9905V60.5812L55.5334 55.8378V46.3638L59.3223 44.1523Z" stroke="#09544F" stroke-width="2" stroke-linecap="round" stroke-linejoin="round"/>
<path d="M26.9455 34.4365C18.4615 41.0171 12.5355 52.1373 11.7454 62.7399" stroke="#09544F" stroke-width="2" stroke-linecap="round" stroke-linejoin="round"/>
<path d="M11.7454 62.7397L19.4791 67.2676" stroke="#09544F" stroke-width="2" stroke-linecap="round" stroke-linejoin="round"/>
<path d="M22.2632 31.6929L30.0097 36.2208" stroke="#09544F" stroke-width="2" stroke-linecap="round" stroke-linejoin="round"/>
<path d="M19.4789 67.2674L39.5888 55.5029" stroke="#09544F" stroke-width="2" stroke-linecap="round" stroke-linejoin="round"/>
</svg>
