<svg id="training_icon" data-name="training icon" xmlns="http://www.w3.org/2000/svg" viewBox="0 0 30 26.06"><defs><style>.cls-1{fill:#e6e6e6;}</style></defs><title>analytic_preload</title><path class="cls-1" d="M475.11,524.68a3.08,3.08,0,1,0-3.07-3.07A3.07,3.07,0,0,0,475.11,524.68Z" transform="translate(-470.77 -518.01)"/><path class="cls-1" d="M485.52,526.54a1.45,1.45,0,0,0-1.45-1.45h-8.22a.15.15,0,0,1,0,.13l-.71,1.26c-.05.1-.14.1-.2,0l-.7-1.26a.12.12,0,0,1,0-.13h-2a1.45,1.45,0,0,0-1.45,1.45v7.24a1.44,1.44,0,0,0,1.45,1.44v7.41a3.24,3.24,0,0,1,4.34,1.45,1.45,1.45,0,0,0,1.45-1.45V528h6.06A1.45,1.45,0,0,0,485.52,526.54Z" transform="translate(-470.77 -518.01)"/><path class="cls-1" d="M499.94,519.09h-6.87a.86.86,0,0,0,0-.24.84.84,0,0,0-.83-.84h-2.51a.85.85,0,0,0-.84.84.86.86,0,0,0,0,.24h-6.86a.84.84,0,0,0,0,1.68h17V535h-17a.85.85,0,0,0-.84.84.84.84,0,0,0,.84.83h17.83a.83.83,0,0,0,.83-.83V519.93A.84.84,0,0,0,499.94,519.09Z" transform="translate(-470.77 -518.01)"/><path class="cls-1" d="M491.56,538a.39.39,0,0,0-.08-.1.63.63,0,0,0-.46-.19.65.65,0,0,0-.46.19.39.39,0,0,0-.08.1l-5,5a.63.63,0,0,0,.9.89l4.62-4.62,4.62,4.62a.63.63,0,0,0,.9,0,.62.62,0,0,0,0-.89Z" transform="translate(-470.77 -518.01)"/></svg>