<svg id="Layer_1" data-name="Layer 1" xmlns="http://www.w3.org/2000/svg" xmlns:xlink="http://www.w3.org/1999/xlink"
     viewBox="0 0 209 61.47">
  <defs>
    <clipPath id="clip-path" transform="translate(0 -0.52)">
      <rect y="0.52" width="209" height="61.47" style="fill:none"/>
    </clipPath>
  </defs>
  <title>download-on-the-app-store-apple</title>
  <g style="clip-path:url(#clip-path)">
    <rect width="209" height="61.47" rx="5" style="fill:rgba(255,255,255,.1)"/>
    <path
      d="M46.68,30.93A8.91,8.91,0,0,1,51,23.45a9.21,9.21,0,0,0-7.25-3.88c-3-.32-6,1.81-7.55,1.81s-4-1.78-6.55-1.73a9.64,9.64,0,0,0-8.12,4.91c-3.51,6-.9,14.89,2.47,19.77,1.68,2.39,3.65,5.05,6.22,5s3.46-1.6,6.5-1.6,3.89,1.6,6.52,1.54,4.4-2.4,6-4.81A19.55,19.55,0,0,0,52,38.85a8.63,8.63,0,0,1-5.3-7.92Zm-5-14.57a8.75,8.75,0,0,0,2-6.29,9.08,9.08,0,0,0-5.83,3,8.3,8.3,0,0,0-2.07,6.06,7.47,7.47,0,0,0,5.87-2.76Z"
      transform="translate(0 -0.52)" style="fill:#fff"/>
    <path
      d="M83.15,48.94H79.63l-1.93-6H71l-1.83,6H65.74l6.64-20.45h4.1l6.67,20.45Zm-6-8.53-1.74-5.34c-.19-.54-.53-1.83-1-3.85h-.06c-.21.87-.53,2.15-1,3.85l-1.72,5.34Zm23.07,1a8.32,8.32,0,0,1-2.06,5.94,6.06,6.06,0,0,1-4.59,2,4.6,4.6,0,0,1-4.24-2.1v7.74H86V39c0-1.58,0-3.19-.13-4.85h2.91L89,36.53H89a5.9,5.9,0,0,1,9.4-.58A8.12,8.12,0,0,1,100.19,41.39Zm-3.37.12a6,6,0,0,0-1-3.56A3.38,3.38,0,0,0,93,36.5a3.46,3.46,0,0,0-2.22.8,3.73,3.73,0,0,0-1.3,2.11,4.24,4.24,0,0,0-.15,1v2.46a4,4,0,0,0,1,2.72,3.33,3.33,0,0,0,2.59,1.11,3.39,3.39,0,0,0,2.9-1.43,6.2,6.2,0,0,0,1-3.76Zm20.47-.12a8.32,8.32,0,0,1-2.06,5.94,6.06,6.06,0,0,1-4.59,2,4.6,4.6,0,0,1-4.24-2.1v7.74h-3.3V39c0-1.58,0-3.19-.13-4.85h2.91l.18,2.34h.06a5.91,5.91,0,0,1,9.41-.58,8.12,8.12,0,0,1,1.76,5.44Zm-3.37.12a6,6,0,0,0-1-3.56,3.38,3.38,0,0,0-2.87-1.45,3.46,3.46,0,0,0-2.22.8,3.73,3.73,0,0,0-1.3,2.11,4.4,4.4,0,0,0-.15,1v2.46a4,4,0,0,0,1,2.72A3.33,3.33,0,0,0,110,46.7a3.39,3.39,0,0,0,2.9-1.43,6.2,6.2,0,0,0,1-3.76Zm22.49,1.69a5.46,5.46,0,0,1-1.83,4.25A8.16,8.16,0,0,1,129,49.24,9.86,9.86,0,0,1,123.62,48l.76-2.73a9.28,9.28,0,0,0,4.78,1.28,4.49,4.49,0,0,0,2.9-.84,2.73,2.73,0,0,0,1-2.23,2.85,2.85,0,0,0-.85-2.09,7.93,7.93,0,0,0-2.85-1.58q-5.41-2-5.42-5.86a5.16,5.16,0,0,1,1.92-4.13A7.6,7.6,0,0,1,131,28.18a10,10,0,0,1,4.68,1l-.83,2.67a8.22,8.22,0,0,0-4-.94,4,4,0,0,0-2.73.85,2.41,2.41,0,0,0-.83,1.85,2.49,2.49,0,0,0,1,2,10.75,10.75,0,0,0,3,1.58,10.19,10.19,0,0,1,3.92,2.49A5.15,5.15,0,0,1,136.41,43.2Zm11-6.55h-3.64v7.16c0,1.82.64,2.73,1.93,2.73a5.9,5.9,0,0,0,1.46-.15l.09,2.49a7.55,7.55,0,0,1-2.57.36,4,4,0,0,1-3.06-1.18,5.81,5.81,0,0,1-1.1-4V36.65H138.3V34.19h2.17v-2.7l3.25-1v3.68h3.64v2.46Zm16.39,4.8A8.08,8.08,0,0,1,161.8,47a7,7,0,0,1-5.45,2.25,6.69,6.69,0,0,1-5.22-2.16,7.8,7.8,0,0,1-1.94-5.43,8,8,0,0,1,2-5.61,6.94,6.94,0,0,1,5.4-2.19,6.82,6.82,0,0,1,5.26,2.16A7.73,7.73,0,0,1,163.75,41.45Zm-3.42.07a6.57,6.57,0,0,0-.88-3.48,3.44,3.44,0,0,0-6,0,6.69,6.69,0,0,0-.89,3.54,6.52,6.52,0,0,0,.89,3.48,3.4,3.4,0,0,0,6,0A6.62,6.62,0,0,0,160.33,41.52Zm14.17-4.45a6.18,6.18,0,0,0-1-.09,3.14,3.14,0,0,0-2.7,1.31,4.88,4.88,0,0,0-.82,2.91v7.74h-3.31V38.84q0-2.33-.09-4.65h2.88l.12,2.83h.09a5.05,5.05,0,0,1,1.65-2.34,4,4,0,0,1,2.39-.79,5.08,5.08,0,0,1,.82.06v3.12Zm14.77,3.8a7.43,7.43,0,0,1-.12,1.49h-9.91a4.28,4.28,0,0,0,1.44,3.34,5,5,0,0,0,3.24,1,11,11,0,0,0,4-.7l.52,2.27a12.48,12.48,0,0,1-5,.92,7.28,7.28,0,0,1-5.43-2,7.4,7.4,0,0,1-2-5.42,8.44,8.44,0,0,1,1.83-5.55,6.35,6.35,0,0,1,5.2-2.36A5.54,5.54,0,0,1,188,36.23a7.93,7.93,0,0,1,1.31,4.64ZM186.12,40a4.43,4.43,0,0,0-.64-2.52,2.89,2.89,0,0,0-2.63-1.37,3.15,3.15,0,0,0-2.63,1.34,4.87,4.87,0,0,0-1,2.55Z"
      transform="translate(0 -0.52)" style="fill:#fff"/>
    <path
      d="M70.05,21.26a22.82,22.82,0,0,1-2.38-.12V11.25a16.42,16.42,0,0,1,2.8-.21C74.26,11,76,12.89,76,15.9,76,19.38,73.94,21.26,70.05,21.26Zm.55-9a6.94,6.94,0,0,0-1.3.1v7.52a9,9,0,0,0,1.09,0c2.49,0,3.9-1.4,3.9-4,0-2.34-1.28-3.63-3.69-3.63Zm10.84,9a3.47,3.47,0,0,1-3.52-3.73,3.54,3.54,0,0,1,3.64-3.83,3.43,3.43,0,0,1,3.52,3.71A3.57,3.57,0,0,1,81.44,21.33ZM81.5,15c-1.17,0-1.92,1.08-1.92,2.61s.77,2.58,1.91,2.58S83.4,19,83.4,17.52,82.64,15,81.5,15Zm15.76-1L95,21.17H93.48l-1-3.15A23.51,23.51,0,0,1,92,15.68h0A15.72,15.72,0,0,1,91.33,18l-1,3.15h-1.5l-2.15-7.25h1.67l.82,3.44c.2.82.36,1.6.5,2.33h0c.12-.61.32-1.37.6-2.31l1-3.46h1.32l1,3.39c.24.82.43,1.62.58,2.38h0a20.62,20.62,0,0,1,.49-2.38l.89-3.39Zm8.41,7.25H104V17q0-1.92-1.47-1.92A1.67,1.67,0,0,0,101,16.85v4.32H99.32V16c0-.64,0-1.33-.06-2.07h1.43l.08,1.11h0a2.65,2.65,0,0,1,2.32-1.26c1.53,0,2.54,1.16,2.54,3.06v4.34Zm4.48,0h-1.63V10.59h1.63Zm5.92.16a3.46,3.46,0,0,1-3.52-3.73,3.54,3.54,0,0,1,3.64-3.83,3.43,3.43,0,0,1,3.52,3.71A3.57,3.57,0,0,1,116.07,21.33Zm.06-6.38C115,15,114.2,16,114.2,17.56s.77,2.58,1.91,2.58S118,19,118,17.52,117.27,15,116.13,15Zm10,6.22-.12-.84h0a2.52,2.52,0,0,1-2.14,1,2.12,2.12,0,0,1-2.24-2.13c0-1.79,1.56-2.72,4.27-2.72v-.13c0-1-.51-1.43-1.52-1.43a3.46,3.46,0,0,0-1.9.53l-.34-1a4.7,4.7,0,0,1,2.51-.63c1.91,0,2.88,1,2.88,3v2.67a11.31,11.31,0,0,0,.1,1.73Zm-.23-3.61c-1.8,0-2.7.43-2.7,1.46a1,1,0,0,0,1.11,1.13,1.55,1.55,0,0,0,1.59-1.48V17.56Zm9.47,3.61L135.27,20h0a2.46,2.46,0,0,1-2.35,1.33c-1.76,0-3.06-1.54-3.06-3.7s1.35-3.86,3.2-3.86a2.2,2.2,0,0,1,2.06,1h0V10.59h1.63v8.62c0,.7,0,1.36.06,2Zm-.24-4.27A1.76,1.76,0,0,0,133.4,15c-1.2,0-1.94,1.06-1.94,2.55s.76,2.46,1.91,2.46a1.81,1.81,0,0,0,1.74-1.92ZM147,21.33a3.47,3.47,0,0,1-3.52-3.73,3.54,3.54,0,0,1,3.64-3.83,3.43,3.43,0,0,1,3.52,3.71A3.57,3.57,0,0,1,147,21.33ZM147.1,15c-1.17,0-1.92,1.08-1.92,2.61s.77,2.58,1.91,2.58S149,19,149,17.52,148.25,15,147.1,15Zm12.31,6.22h-1.62V17c0-1.28-.5-1.92-1.48-1.92a1.67,1.67,0,0,0-1.62,1.77v4.32h-1.62V16q0-1-.06-2.07h1.42l.08,1.11h0a2.65,2.65,0,0,1,2.32-1.26c1.53,0,2.54,1.16,2.54,3.05Zm10.93-6h-1.79v3.52c0,.89.31,1.34.95,1.34a3,3,0,0,0,.72-.08l0,1.23a3.58,3.58,0,0,1-1.26.18c-1.28,0-2-.7-2-2.54V15.13h-1.07V13.92H167V12.59l1.59-.48v1.81h1.79v1.21Zm8.59,6h-1.62V17c0-1.29-.49-2-1.47-2a1.59,1.59,0,0,0-1.63,1.72v4.37h-1.62V10.59h1.62V15h0a2.49,2.49,0,0,1,2.2-1.18c1.55,0,2.49,1.19,2.49,3.08v4.32Zm8.81-3.24h-4.87a2.09,2.09,0,0,0,2.3,2.15,5.4,5.4,0,0,0,2-.35l.25,1.12a6.09,6.09,0,0,1-2.45.45,3.38,3.38,0,0,1-3.64-3.65c0-2.23,1.39-3.9,3.46-3.9,1.86,0,3,1.38,3,3.45a3,3,0,0,1-.06.73Zm-1.49-1.15c0-1.12-.57-1.91-1.6-1.91a1.92,1.92,0,0,0-1.78,1.91Z"
      transform="translate(0 -0.52)" style="fill:#fff"/>
  </g>
</svg>