<svg width="162" height="49" viewBox="0 0 162 49" fill="none" xmlns="http://www.w3.org/2000/svg">
<g clip-path="url(#clip0_3551_121654)">
<rect y="0.0556641" width="162" height="48" rx="5" fill="#0A0A0A"/>
<path d="M36.1824 23.8031C36.1476 19.9347 39.3518 18.0527 39.4983 17.9651C37.6836 15.321 34.871 14.9598 33.8826 14.931C31.5203 14.6825 29.2288 16.3436 28.0254 16.3436C26.798 16.3436 24.945 14.955 22.9477 14.9958C20.3777 15.0354 17.9733 16.5225 16.6547 18.8317C13.9333 23.5402 15.9629 30.4595 18.5702 34.2655C19.8745 36.1306 21.3985 38.2106 23.3933 38.1374C25.3449 38.0582 26.0739 36.8952 28.429 36.8952C30.7624 36.8952 31.447 38.1374 33.4814 38.0906C35.5759 38.0582 36.8946 36.2182 38.1532 34.3375C39.6604 32.2023 40.2657 30.0971 40.2897 29.989C40.2417 29.9722 36.2233 28.4383 36.1824 23.8031V23.8031ZM32.3393 12.4273C33.389 11.1154 34.1071 9.33068 33.9078 7.51953C32.3886 7.58674 30.4886 8.56973 29.3945 9.85278C28.4266 10.9834 27.5619 12.8366 27.7852 14.5793C29.4918 14.7065 31.244 13.7187 32.3393 12.4273V12.4273Z" fill="white"/>
<path d="M64.4499 37.8693H61.7225L60.2285 33.1776H55.0355L53.6124 37.8693H50.957L56.1032 21.8966H59.2809L64.4499 37.8693V37.8693ZM59.7781 31.2092L58.4271 27.0384C58.2841 26.6123 58.0151 25.6089 57.6212 24.0294H57.5732C57.4146 24.7087 57.1612 25.7121 56.8142 27.0384L55.4859 31.2092H59.7781ZM77.6582 31.9689C77.6582 33.9277 77.1261 35.476 76.0609 36.6126C75.1073 37.6244 73.9219 38.1297 72.5084 38.1297C70.982 38.1297 69.8843 37.586 69.2177 36.4962V42.5394H66.6573V30.1374C66.6573 28.9071 66.6249 27.6457 66.5624 26.3519H68.8142L68.9571 28.1774H69.0052C69.8591 26.8019 71.1549 26.1142 72.8939 26.1142C74.2534 26.1142 75.3883 26.6507 76.2963 27.7249C77.203 28.8015 77.6582 30.2154 77.6582 31.9689ZM75.0496 32.0626C75.0496 30.9415 74.7974 30.0174 74.2906 29.2888C73.737 28.5315 72.9936 28.1522 72.0616 28.1522C71.4299 28.1522 70.8559 28.3634 70.3431 28.7799C69.829 29.2 69.4928 29.7485 69.3354 30.4278C69.2652 30.6819 69.2253 30.9434 69.2165 31.2068V33.1284C69.2165 33.9649 69.4736 34.6719 69.9876 35.2504C70.5016 35.8265 71.1693 36.1157 71.9908 36.1157C72.9552 36.1157 73.7058 35.7425 74.2426 35.0019C74.7806 34.259 75.0496 33.2796 75.0496 32.0626V32.0626ZM90.9132 31.9689C90.9132 33.9277 90.3812 35.476 89.3159 36.6126C88.3612 37.6244 87.177 38.1297 85.7623 38.1297C84.2359 38.1297 83.1382 37.586 82.4716 36.4962V42.5394H79.9112V30.1374C79.9112 28.9071 79.8787 27.6457 79.8163 26.3519H82.0681L82.211 28.1774H82.2591C83.1117 26.8019 84.4076 26.1142 86.1478 26.1142C87.5061 26.1142 88.641 26.6507 89.5513 27.7249C90.4569 28.8015 90.9132 30.2154 90.9132 31.9689V31.9689ZM88.3035 32.0626C88.3035 30.9415 88.0501 30.0174 87.5433 29.2888C86.9897 28.5315 86.2487 28.1522 85.3167 28.1522C84.685 28.1522 84.111 28.3634 83.5957 28.7799C83.0817 29.2 82.7466 29.7485 82.5893 30.4278C82.5113 30.7447 82.4692 31.0027 82.4692 31.2068V33.1284C82.4692 33.9649 82.7274 34.6719 83.239 35.2504C83.7531 35.8253 84.4208 36.1157 85.2447 36.1157C86.2102 36.1157 86.9609 35.7425 87.4965 35.0019C88.0345 34.259 88.3035 33.2796 88.3035 32.0626V32.0626ZM105.733 33.3888C105.733 34.7487 105.258 35.8541 104.312 36.7074C103.272 37.6388 101.82 38.1057 99.9589 38.1057C98.2391 38.1057 96.8604 37.7744 95.8204 37.1107L96.4125 34.9779C97.5354 35.6428 98.7688 35.9741 100.111 35.9741C101.077 35.9741 101.828 35.7557 102.363 35.3224C102.9 34.8879 103.172 34.307 103.172 33.582C103.172 32.9327 102.947 32.389 102.506 31.9461C102.063 31.5044 101.33 31.0928 100.301 30.7147C97.5029 29.6717 96.1026 28.1462 96.1026 26.1394C96.1026 24.8288 96.5974 23.7558 97.5846 22.9168C98.5718 22.079 99.8809 21.6602 101.509 21.6602C102.964 21.6602 104.176 21.9134 105.137 22.4187L104.495 24.5047C103.589 24.015 102.567 23.7702 101.424 23.7702C100.521 23.7702 99.8124 23.9922 99.3056 24.4339C98.8793 24.8288 98.6631 25.3101 98.6631 25.8814C98.6631 26.5115 98.9093 27.0348 99.3993 27.4453C99.8244 27.8233 100.6 28.235 101.722 28.6767C103.098 29.2312 104.109 29.8769 104.757 30.6187C105.409 31.3604 105.733 32.2858 105.733 33.3888ZM114.22 28.2722H111.398V33.8641C111.398 35.2864 111.895 35.9957 112.892 35.9957C113.35 35.9957 113.729 35.9573 114.029 35.8769L114.1 37.8201C113.596 38.0085 112.932 38.1033 112.109 38.1033C111.098 38.1033 110.308 37.7949 109.737 37.1779C109.169 36.561 108.883 35.5276 108.883 34.0729V28.2674H107.202V26.3471H108.883V24.2382L111.398 23.4797V26.3471H114.22V28.2722V28.2722ZM126.929 32.0157C126.929 33.7861 126.422 35.2396 125.411 36.3762C124.353 37.5464 122.945 38.1297 121.191 38.1297C119.497 38.1297 118.151 37.5692 117.147 36.4494C116.143 35.3272 115.641 33.9133 115.641 32.2078C115.641 30.423 116.16 28.9612 117.194 27.8245C118.23 26.6867 119.626 26.1178 121.381 26.1178C123.072 26.1178 124.43 26.6795 125.458 27.8005C126.44 28.8879 126.929 30.2922 126.929 32.0157ZM124.275 32.0746C124.275 31.0196 124.047 30.1146 123.589 29.3572C123.052 28.4427 122.284 27.9854 121.288 27.9854C120.262 27.9854 119.476 28.4427 118.94 29.3572C118.481 30.1146 118.253 31.0352 118.253 32.1226C118.253 33.1788 118.481 34.0861 118.94 34.8411C119.494 35.7557 120.266 36.2129 121.266 36.2129C122.245 36.2129 123.013 35.7461 123.568 34.8183C124.038 34.0429 124.275 33.132 124.275 32.0746ZM135.255 28.6023C134.989 28.5542 134.719 28.5305 134.448 28.5315C133.548 28.5315 132.851 28.8699 132.361 29.5517C131.936 30.1518 131.722 30.9103 131.722 31.8261V37.8693H129.162V29.979C129.164 28.7699 129.139 27.561 129.087 26.3531H131.317L131.411 28.5567H131.482C131.753 27.7993 132.178 27.1884 132.762 26.7311C133.296 26.3315 133.946 26.1152 134.613 26.1142C134.849 26.1142 135.063 26.131 135.253 26.161L135.255 28.6023V28.6023ZM146.707 31.5657C146.713 31.9547 146.682 32.3434 146.613 32.7263H138.932C138.96 33.8641 139.333 34.7355 140.046 35.3356C140.693 35.8709 141.53 36.1397 142.558 36.1397C143.696 36.1397 144.733 35.9597 145.667 35.596L146.068 37.3712C144.977 37.8465 143.69 38.0829 142.204 38.0829C140.417 38.0829 139.014 37.5572 137.994 36.5082C136.975 35.458 136.465 34.0465 136.465 32.2786C136.465 30.5431 136.939 29.0968 137.889 27.9434C138.883 26.7119 140.227 26.0962 141.918 26.0962C143.579 26.0962 144.837 26.7119 145.691 27.9434C146.367 28.9191 146.707 30.129 146.707 31.5657V31.5657ZM144.265 30.9019C144.283 30.1422 144.115 29.4881 143.768 28.9348C143.325 28.2218 142.643 27.8665 141.729 27.8665C140.892 27.8665 140.209 28.2134 139.691 28.9095C139.264 29.4629 139.011 30.1278 138.933 30.8995L144.265 30.9019Z" fill="white"/>
<path d="M54.2971 16.2496C53.585 16.2496 52.9689 16.2148 52.4561 16.1559V8.43366C53.1733 8.32293 53.8981 8.26836 54.6238 8.27043C57.5602 8.27043 58.9125 9.71431 58.9125 12.068C58.9125 14.7829 57.3152 16.2496 54.2971 16.2496ZM54.7271 9.26062C54.3308 9.26062 53.9933 9.28463 53.7135 9.34224V15.2126C53.8648 15.2366 54.1554 15.2474 54.5637 15.2474C56.4877 15.2474 57.583 14.1528 57.583 12.1028C57.583 10.2748 56.5922 9.26062 54.7271 9.26062V9.26062ZM63.1267 16.3084C61.4717 16.3084 60.3993 15.0733 60.3993 13.3966C60.3993 11.6491 61.4945 10.4032 63.2203 10.4032C64.8512 10.4032 65.9477 11.5795 65.9477 13.3042C65.9477 15.0733 64.8176 16.3084 63.1267 16.3084ZM63.1747 11.3226C62.2656 11.3226 61.6831 12.1724 61.6831 13.3606C61.6831 14.526 62.2776 15.3758 63.1627 15.3758C64.0478 15.3758 64.6423 14.4672 64.6423 13.3366C64.6423 12.1844 64.0598 11.3226 63.1747 11.3226ZM75.3849 10.5197L73.6135 16.18H72.4594L71.7256 13.7219C71.5431 13.1206 71.3912 12.5105 71.2704 11.8939H71.2464C71.1539 12.5108 70.9786 13.129 70.7924 13.7219L70.0118 16.18H68.8457L67.1787 10.5197H68.4722L69.1135 13.2106C69.2648 13.8515 69.3921 14.4564 69.4978 15.0277H69.5218C69.6143 14.5512 69.7656 13.9559 69.9878 13.2226L70.7924 10.5209H71.8181L72.5879 13.165C72.774 13.8059 72.9253 14.4348 73.043 15.0289H73.0767C73.1583 14.4468 73.2868 13.8287 73.461 13.165L74.1491 10.5209L75.3849 10.5197V10.5197ZM81.9062 16.18H80.6476V12.9297C80.6476 11.9287 80.2633 11.427 79.5054 11.427C78.7596 11.427 78.2468 12.068 78.2468 12.8133V16.18H76.9882V12.1376C76.9882 11.6371 76.9762 11.1006 76.9414 10.5185H78.0487L78.1075 11.3922H78.1424C78.481 10.7873 79.168 10.4032 79.9378 10.4032C81.1268 10.4032 81.9074 11.3118 81.9074 12.7905L81.9062 16.18V16.18ZM85.377 16.18H84.1172V7.92236H85.377V16.18ZM89.9659 16.3084C88.3121 16.3084 87.2385 15.0733 87.2385 13.3966C87.2385 11.6491 88.3338 10.4032 90.0583 10.4032C91.6905 10.4032 92.7858 11.5795 92.7858 13.3042C92.787 15.0733 91.6556 16.3084 89.9659 16.3084ZM90.0127 11.3226C89.1036 11.3226 88.5211 12.1724 88.5211 13.3606C88.5211 14.526 89.1168 15.3758 89.9995 15.3758C90.8858 15.3758 91.4791 14.4672 91.4791 13.3366C91.4803 12.1844 90.899 11.3226 90.0127 11.3226V11.3226ZM97.7481 16.18L97.6569 15.5282H97.6232C97.2389 16.0527 96.6781 16.3084 95.9671 16.3084C94.9523 16.3084 94.2317 15.5978 94.2317 14.6425C94.2317 13.2454 95.4435 12.5228 97.5416 12.5228V12.4184C97.5416 11.6731 97.1465 11.2998 96.3658 11.2998C95.8074 11.2998 95.3174 11.4402 94.8862 11.7199L94.6304 10.8929C95.1541 10.5665 95.8074 10.4032 96.5748 10.4032C98.0544 10.4032 98.8014 11.1834 98.8014 12.7449V14.8297C98.8014 15.401 98.8266 15.8439 98.8831 16.1812L97.7481 16.18V16.18ZM97.5752 13.3606C96.1773 13.3606 95.4759 13.6991 95.4759 14.502C95.4759 15.0961 95.8374 15.3866 96.3394 15.3866C96.9795 15.3866 97.5752 14.8981 97.5752 14.2344V13.3606V13.3606ZM104.913 16.18L104.854 15.2714H104.819C104.458 15.9579 103.85 16.3084 103.001 16.3084C101.636 16.3084 100.624 15.1081 100.624 13.4194C100.624 11.6491 101.673 10.402 103.104 10.402C103.862 10.402 104.399 10.6577 104.702 11.1714H104.727V7.92236H105.987V14.6545C105.987 15.2018 106 15.7143 106.034 16.18H104.913ZM104.727 12.8493C104.727 12.0572 104.202 11.3814 103.401 11.3814C102.468 11.3814 101.897 12.2084 101.897 13.3726C101.897 14.514 102.49 15.2954 103.376 15.2954C104.167 15.2954 104.727 14.6076 104.727 13.7927V12.8493ZM113.974 16.3084C112.321 16.3084 111.248 15.0733 111.248 13.3966C111.248 11.6491 112.344 10.4032 114.068 10.4032C115.7 10.4032 116.795 11.5795 116.795 13.3042C116.797 15.0733 115.667 16.3084 113.974 16.3084ZM114.021 11.3226C113.113 11.3226 112.531 12.1724 112.531 13.3606C112.531 14.526 113.125 15.3758 114.009 15.3758C114.896 15.3758 115.489 14.4672 115.489 13.3366C115.491 12.1844 114.909 11.3226 114.021 11.3226ZM123.564 16.18H122.304V12.9297C122.304 11.9287 121.92 11.427 121.162 11.427C120.416 11.427 119.905 12.068 119.905 12.8133V16.18H118.645V12.1376C118.645 11.6371 118.633 11.1006 118.598 10.5185H119.705L119.764 11.3922H119.799C120.137 10.7873 120.825 10.402 121.593 10.402C122.782 10.402 123.564 11.3106 123.564 12.7893V16.18ZM132.032 11.463H130.647V14.2116C130.647 14.9113 130.89 15.2606 131.38 15.2606C131.602 15.2606 131.788 15.2366 131.938 15.2018L131.973 16.1571C131.73 16.2508 131.403 16.2976 130.997 16.2976C130.005 16.2976 129.412 15.7503 129.412 14.3172V11.463H128.585V10.5197H129.412V9.48266L130.647 9.10939V10.5185H132.032V11.463V11.463ZM138.695 16.18H137.438V12.9537C137.438 11.9407 137.055 11.4282 136.296 11.4282C135.643 11.4282 135.036 11.8711 135.036 12.7677V16.18H133.778V7.92236H135.036V11.3226H135.061C135.457 10.7057 136.031 10.402 136.764 10.402C137.963 10.402 138.695 11.3334 138.695 12.8133V16.18V16.18ZM145.521 13.6523H141.744C141.768 14.7241 142.478 15.329 143.529 15.329C144.087 15.329 144.601 15.2354 145.055 15.0613L145.251 15.9351C144.716 16.1679 144.085 16.2844 143.351 16.2844C141.58 16.2844 140.531 15.1658 140.531 13.4314C140.531 11.6959 141.605 10.3912 143.21 10.3912C144.657 10.3912 145.565 11.463 145.565 13.0822C145.573 13.2732 145.558 13.4646 145.521 13.6523V13.6523ZM144.367 12.7557C144.367 11.8819 143.927 11.265 143.122 11.265C142.399 11.265 141.827 11.8939 141.746 12.7557H144.367V12.7557Z" fill="white"/>
</g>
<defs>
<clipPath id="clip0_3551_121654">
<path d="M0 8.05567C0 3.63739 3.58172 0.0556641 8 0.0556641H154C158.418 0.0556641 162 3.63739 162 8.05566V40.0557C162 44.4739 158.418 48.0557 154 48.0557H8C3.58172 48.0557 0 44.4739 0 40.0557V8.05567Z" fill="white"/>
</clipPath>
</defs>
</svg>
