<svg width="141" height="44" viewBox="0 0 141 44" fill="none" xmlns="http://www.w3.org/2000/svg">
<g clip-path="url(#clip0)">
<path d="M136.594 44H4.40625C1.98281 44 0 42.02 0 39.6V4.4C0 1.98 1.98281 0 4.40625 0H136.594C139.017 0 141 1.98 141 4.4V39.6C141 42.02 139.017 44 136.594 44Z" fill="black"/>
<path d="M29.7 21.7799C29.7 18.3699 32.56 16.7199 32.67 16.6099C31.02 14.2999 28.6 13.9699 27.72 13.8599C25.63 13.6399 23.54 15.0699 22.55 15.0699C21.45 15.0699 19.8 13.8599 18.04 13.8599C15.73 13.8599 13.64 15.1799 12.43 17.2699C10.01 21.4499 11.77 27.6099 14.08 31.0199C15.29 32.6699 16.61 34.5399 18.37 34.4299C20.13 34.3199 20.79 33.3299 22.88 33.3299C24.97 33.3299 25.52 34.4299 27.39 34.4299C29.26 34.4299 30.47 32.7799 31.57 31.1299C32.89 29.2599 33.44 27.3899 33.44 27.2799C33.33 27.1699 29.7 25.8499 29.7 21.7799Z" fill="white"/>
<path d="M26.29 11.6598C27.17 10.4498 27.83 8.90977 27.72 7.25977C26.4 7.36977 24.64 8.13977 23.76 9.34977C22.88 10.3398 22.11 11.9898 22.33 13.5298C23.76 13.6398 25.3 12.7598 26.29 11.6598Z" fill="white"/>
<path fill-rule="evenodd" clip-rule="evenodd" d="M52.3604 34.21H54.7804L50.3804 20.02H47.5204L42.9004 34.21H45.2104L46.4204 30.03H51.0404L52.3604 34.21ZM49.3904 24.53L50.6004 28.27H46.7504L47.9604 24.53C48.2904 23.43 48.5104 22.44 48.6204 21.89C48.9137 22.77 49.1093 23.5034 49.2397 23.9922C49.3048 24.2367 49.3537 24.42 49.3904 24.53Z" fill="white"/>
<path fill-rule="evenodd" clip-rule="evenodd" d="M65.1204 33.2201C66.1104 32.1201 66.5504 30.8001 66.5504 29.0401C66.5504 27.3901 66.1104 26.1801 65.1204 25.3001C64.3504 24.3101 63.3604 23.8701 62.1504 23.8701C60.6104 23.8701 59.5104 24.5301 58.7404 25.7401L58.6304 24.0901H56.6504C56.7604 25.3001 56.7604 26.4001 56.7604 27.5001V38.5001H59.0704V33.1101C59.6204 34.1001 60.6104 34.5401 61.9304 34.5401C63.2504 34.5401 64.2404 34.1001 65.1204 33.2201ZM63.5804 26.6201C64.0204 27.1701 64.2404 28.0501 64.2404 29.0401C64.2404 30.1401 64.0204 31.0201 63.4704 31.6801C63.0304 32.3401 62.3704 32.6701 61.4904 32.6701C60.8304 32.6701 60.1704 32.4501 59.7304 31.9001C59.2904 31.3501 59.0704 30.8001 59.0704 30.0301V28.2701C59.0704 28.1601 59.0704 27.9401 59.1804 27.6101C59.2904 27.0601 59.6204 26.5101 60.0604 26.1801C60.5004 25.8501 61.0504 25.6301 61.6004 25.6301C62.4804 25.6301 63.1404 25.9601 63.5804 26.6201Z" fill="white"/>
<path fill-rule="evenodd" clip-rule="evenodd" d="M76.8899 33.2201C77.8799 32.1201 78.3199 30.8001 78.3199 29.0401C78.3199 27.3901 77.8799 26.1801 76.8899 25.3001C76.1199 24.3101 75.1299 23.8701 73.9199 23.8701C72.3799 23.8701 71.2799 24.5301 70.5099 25.7401L70.3999 24.0901H68.4199C68.5299 25.3001 68.5299 26.4001 68.5299 27.5001V38.5001H70.8399V33.1101C71.3899 34.1001 72.3799 34.5401 73.6999 34.5401C75.0199 34.5401 76.0099 34.1001 76.8899 33.2201ZM75.3499 26.6201C75.7899 27.1701 76.0099 28.0501 76.0099 29.0401C76.0099 30.1401 75.7899 31.0201 75.2399 31.6801C74.7999 32.3401 74.1399 32.6701 73.2599 32.6701C72.5999 32.6701 71.9399 32.4501 71.4999 31.9001C71.0599 31.3501 70.8399 30.8001 70.8399 30.0301V28.2701C70.8399 28.1601 70.8399 27.9401 70.9499 27.6101C71.0599 27.0601 71.3899 26.5101 71.8299 26.1801C72.2699 25.8501 72.8199 25.6301 73.3699 25.6301C74.2499 25.6301 74.9099 25.9601 75.3499 26.6201Z" fill="white"/>
<path d="M91.5201 30.2502C91.5201 31.4602 91.0801 32.4502 90.3101 33.2202C89.4301 34.1002 88.1101 34.4302 86.4601 34.4302C84.9201 34.4302 83.7101 34.1002 82.8301 33.5502L83.3801 31.6802C84.3701 32.2302 85.4701 32.5602 86.6801 32.5602C87.5601 32.5602 88.2201 32.3402 88.6601 32.0102C89.1001 31.5702 89.3201 31.1302 89.3201 30.4702C89.3201 29.9202 89.1001 29.3702 88.7701 29.0402C88.3301 28.6002 87.6701 28.2702 86.7901 27.9402C84.2601 27.0602 83.0501 25.6302 83.0501 23.8702C83.0501 22.6602 83.4901 21.7802 84.3701 21.0102C85.2501 20.2402 86.3501 19.9102 87.8901 19.9102C89.2101 19.9102 90.2001 20.1302 91.0801 20.5702L90.5301 22.4402C89.7601 22.0002 88.8801 21.7802 87.7801 21.7802C87.0101 21.7802 86.3501 22.0002 85.9101 22.3302C85.5801 22.6602 85.3601 23.1002 85.3601 23.6502C85.3601 24.2002 85.5801 24.6402 86.0201 25.0802C86.3501 25.4102 87.1201 25.7402 88.1101 26.1802C89.3201 26.6202 90.2001 27.2802 90.8601 27.9402C91.1901 28.4902 91.5201 29.2602 91.5201 30.2502Z" fill="white"/>
<path d="M99.0005 25.7402H96.4705V30.6902C96.4705 31.9002 96.9105 32.5602 97.7905 32.5602C98.2305 32.5602 98.5605 32.5602 98.7805 32.4502L98.8905 34.2102C98.4505 34.4302 97.9005 34.4302 97.1305 34.4302C96.2505 34.4302 95.4805 34.2102 95.0405 33.6602C94.4905 33.1102 94.2705 32.2302 94.2705 30.9102V25.7402H92.7305V23.9802H94.2705V22.1102L96.4705 21.4502V23.9802H99.0005V25.7402Z" fill="white"/>
<path fill-rule="evenodd" clip-rule="evenodd" d="M109.01 32.8898C109.89 31.8998 110.33 30.5798 110.33 29.0398C110.33 27.4998 109.89 26.2898 109.12 25.2998C108.24 24.3098 107.03 23.7598 105.49 23.7598C103.95 23.7598 102.63 24.3098 101.75 25.2998C100.76 26.2898 100.32 27.6098 100.32 29.1498C100.32 30.6898 100.76 31.8998 101.64 32.8898C102.52 33.8798 103.73 34.4298 105.27 34.4298C106.81 34.4298 108.02 33.8798 109.01 32.8898ZM107.25 26.7298C107.69 27.3898 107.91 28.1598 107.91 29.1498C107.91 30.0298 107.69 30.9098 107.25 31.5698C106.7 32.3398 106.04 32.7798 105.16 32.7798C104.28 32.7798 103.51 32.3398 103.07 31.5698C102.63 30.9098 102.41 30.1398 102.41 29.1498C102.41 28.2698 102.63 27.3898 103.07 26.7298C103.51 25.9598 104.28 25.5198 105.16 25.5198C106.04 25.5198 106.81 25.9598 107.25 26.7298Z" fill="white"/>
<path d="M117.7 25.9599C117.48 25.9599 117.26 25.8499 116.93 25.8499C116.16 25.8499 115.5 26.1799 115.06 26.7299C114.73 27.2799 114.51 27.9399 114.51 28.7099V34.0999H112.2V27.0599C112.2 25.8499 112.2 24.8599 112.09 23.8699H114.07L114.18 25.8499H114.29C114.51 25.1899 114.95 24.6399 115.39 24.1999C115.94 23.8699 116.49 23.6499 117.04 23.6499C117.26 23.6499 117.48 23.6499 117.59 23.6499V25.9599H117.7Z" fill="white"/>
<path fill-rule="evenodd" clip-rule="evenodd" d="M127.71 29.5898C127.82 29.3698 127.82 29.0398 127.82 28.5998C127.82 27.3898 127.6 26.2898 126.83 25.4098C126.17 24.3098 124.96 23.7598 123.53 23.7598C121.99 23.7598 120.78 24.3098 119.9 25.4098C119.13 26.3998 118.69 27.7198 118.69 29.2598C118.69 30.7998 119.13 32.1198 120.01 32.9998C120.89 33.9898 122.21 34.4298 123.75 34.4298C125.07 34.4298 126.17 34.2098 127.16 33.7698L126.83 32.2298C126.06 32.5598 125.07 32.6698 124.08 32.6698C123.2 32.6698 122.43 32.3398 121.88 31.8998C121.22 31.3498 120.89 30.5798 120.89 29.5898H127.71ZM125.729 27.9398C125.73 27.9761 125.73 28.0128 125.73 28.0498V27.9398H125.729ZM125.729 27.9398C125.717 27.3281 125.602 26.8089 125.29 26.2898C124.85 25.6298 124.3 25.2998 123.53 25.2998C122.76 25.2998 122.21 25.6298 121.77 26.1798C121.44 26.6198 121.22 27.2798 121.11 27.9398H125.729Z" fill="white"/>
<path fill-rule="evenodd" clip-rule="evenodd" d="M48.8397 14.1898C49.6097 13.5298 49.9397 12.5398 49.9397 11.3298C49.9397 10.2298 49.4997 9.34979 48.9497 8.79979C48.2897 8.24979 47.4097 8.02979 46.1997 8.02979C45.4297 8.02979 44.7697 8.02979 44.2197 8.13979V14.9598C44.6597 15.0698 45.2097 15.0698 45.8697 15.0698C47.1897 15.0698 48.1797 14.7398 48.8397 14.1898ZM48.0697 9.45979C48.5097 9.89979 48.7297 10.5598 48.7297 11.3298C48.7297 12.2098 48.5097 12.9798 48.0697 13.4198C47.6297 13.8598 46.9697 14.0798 46.0897 14.0798H45.3197V8.90979C45.5397 8.79979 45.8697 8.79979 46.1997 8.79979C46.9697 8.79979 47.6297 9.01979 48.0697 9.45979Z" fill="white"/>
<path fill-rule="evenodd" clip-rule="evenodd" d="M55.4404 14.3C55.8804 13.86 56.1004 13.2 56.1004 12.43C56.1004 11.66 55.8804 11 55.4404 10.56C55.0004 10.01 54.4504 9.79004 53.6804 9.79004C52.9104 9.79004 52.2504 10.01 51.8104 10.56C51.3704 11 51.1504 11.66 51.1504 12.43C51.1504 13.2 51.3704 13.86 51.8104 14.3C52.2504 14.85 52.8004 15.07 53.5704 15.07C54.3404 15.07 55.0004 14.85 55.4404 14.3ZM54.6704 11.22C54.8904 11.55 55.0004 11.99 55.0004 12.43C55.0004 12.87 54.8904 13.31 54.6704 13.53C54.4504 13.97 54.1204 14.19 53.6804 14.19C53.2404 14.19 52.9104 14.08 52.6904 13.64C52.4704 13.31 52.3604 12.87 52.3604 12.43C52.3604 11.99 52.4704 11.55 52.6904 11.22C52.9104 10.89 53.2404 10.67 53.6804 10.67C54.1204 10.67 54.4504 10.78 54.6704 11.22Z" fill="white"/>
<path d="M64.5702 9.8999L63.0302 14.9599H62.0402L61.3802 12.7599C61.1602 12.2099 61.0502 11.6599 60.9402 11.1099V11.1099C60.8302 11.6599 60.7202 12.2099 60.5002 12.7599L59.8402 14.9599H58.8502L57.2002 9.8999H58.3002L58.8502 12.3199C58.9602 12.8699 59.0702 13.4199 59.1802 13.9699V13.9699C59.2902 13.5299 59.4002 12.9799 59.6202 12.3199L60.2802 9.8999H61.1602L61.8202 12.2099C62.0402 12.7599 62.1502 13.3099 62.2602 13.8599V13.8599C62.3702 13.3099 62.4802 12.7599 62.5902 12.2099L63.2502 9.8999H64.5702Z" fill="white"/>
<path d="M70.29 14.9602H69.19V12.1002C69.19 11.2202 68.86 10.7802 68.2 10.7802C67.87 10.7802 67.65 10.8902 67.43 11.1102C67.21 11.3302 67.1 11.6602 67.1 11.9902V14.9602H66V11.3302C66 10.8902 66 10.4502 66 9.90018H66.99V10.6702V10.6702C67.1 10.4502 67.32 10.2302 67.54 10.0102C67.87 9.79018 68.2 9.68018 68.53 9.68018C68.97 9.68018 69.41 9.79018 69.74 10.1202C70.18 10.4502 70.29 11.0002 70.29 11.7702V14.9602Z" fill="white"/>
<path d="M73.3695 14.9598H72.2695V7.58984H73.3695V14.9598Z" fill="white"/>
<path fill-rule="evenodd" clip-rule="evenodd" d="M79.3095 14.3C79.7495 13.86 79.9695 13.2 79.9695 12.43C79.9695 11.66 79.7495 11 79.3095 10.56C78.8695 10.01 78.3195 9.79004 77.5495 9.79004C76.7795 9.79004 76.1195 10.12 75.6795 10.56C75.2395 11 75.0195 11.66 75.0195 12.43C75.0195 13.2 75.2395 13.86 75.6795 14.3C76.1195 14.85 76.6695 15.07 77.4395 15.07C78.2095 15.07 78.8695 14.85 79.3095 14.3ZM78.5395 11.22C78.7595 11.55 78.8695 11.99 78.8695 12.43C78.8695 12.87 78.7595 13.31 78.5395 13.53C78.3195 13.97 77.9895 14.19 77.5495 14.19C77.1095 14.19 76.7795 14.08 76.5595 13.64C76.3395 13.31 76.2295 12.87 76.2295 12.43C76.2295 11.99 76.3395 11.55 76.5595 11.22C76.7795 10.89 77.1095 10.67 77.5495 10.67C77.9895 10.67 78.3195 10.78 78.5395 11.22Z" fill="white"/>
<path fill-rule="evenodd" clip-rule="evenodd" d="M84.37 14.96H85.36V14.96C85.36 14.63 85.36 14.3 85.47 13.75V11.88C85.47 10.45 84.81 9.79004 83.49 9.79004C82.72 9.79004 82.17 9.90004 81.73 10.23L81.95 11C82.39 10.78 82.72 10.67 83.27 10.67C83.93 10.67 84.26 11 84.26 11.66V11.77C83.27 11.77 82.61 11.88 82.06 12.21C81.51 12.54 81.29 12.98 81.29 13.64C81.29 13.97 81.51 14.3 81.73 14.63C81.95 14.96 82.39 15.07 82.83 15.07C83.38 15.07 83.93 14.85 84.26 14.41L84.37 14.96ZM84.26 12.43V13.2V13.42C84.15 13.64 84.04 13.86 83.82 13.97C83.6 14.08 83.38 14.19 83.16 14.19C82.94 14.19 82.72 14.08 82.61 13.97C82.5 13.86 82.39 13.64 82.39 13.42C82.39 12.76 83.05 12.43 84.26 12.43Z" fill="white"/>
<path fill-rule="evenodd" clip-rule="evenodd" d="M90.7498 14.9602H91.7398V13.6402V7.7002H90.6398V10.5602C90.3098 10.1202 89.8698 9.9002 89.2098 9.9002C88.6598 9.9002 88.1098 10.1202 87.6698 10.5602C87.2298 11.1102 87.0098 11.7702 87.0098 12.5402C87.0098 13.3102 87.1198 13.9702 87.5598 14.4102C87.9998 14.8502 88.4398 15.0702 89.0998 15.0702C89.8698 15.0702 90.4198 14.8502 90.7498 14.1902V14.9602ZM90.6398 11.9902V12.8702C90.6398 13.2002 90.5298 13.5302 90.3098 13.9702C90.0898 14.3002 89.7598 14.4102 89.4298 14.4102C88.9898 14.4102 88.6598 14.1902 88.4398 13.8602C88.2198 13.5302 88.1098 13.2002 88.1098 12.6502C88.1098 12.1002 88.2198 11.6602 88.4398 11.3302C88.6598 11.0002 88.9898 10.7802 89.4298 10.7802C89.7598 10.7802 89.9798 10.7802 90.1998 11.0002C90.4198 11.2202 90.5298 11.4402 90.6398 11.6602V11.9902Z" fill="white"/>
<path fill-rule="evenodd" clip-rule="evenodd" d="M100.65 14.3C101.09 13.86 101.31 13.2 101.31 12.43C101.31 11.66 101.09 11 100.65 10.56C100.21 10.01 99.6604 9.79004 98.8904 9.79004C98.1204 9.79004 97.4604 10.01 97.0204 10.56C96.5804 11 96.3604 11.66 96.3604 12.43C96.3604 13.2 96.5804 13.86 97.0204 14.3C97.4604 14.85 98.0104 15.07 98.7804 15.07C99.5504 15.07 100.21 14.85 100.65 14.3ZM99.7704 11.22C99.9904 11.55 100.1 11.99 100.1 12.43C100.1 12.87 99.9904 13.31 99.7704 13.53C99.5504 13.97 99.2204 14.19 98.7804 14.19C98.3404 14.19 98.0104 14.08 97.7904 13.64C97.5704 13.31 97.4604 12.87 97.4604 12.43C97.4604 11.99 97.5704 11.55 97.7904 11.22C98.0104 10.89 98.3404 10.67 98.7804 10.67C99.2204 10.67 99.5504 10.78 99.7704 11.22Z" fill="white"/>
<path d="M107.36 14.9602H106.26V12.1002C106.26 11.2202 105.93 10.7802 105.27 10.7802C104.94 10.7802 104.72 10.8902 104.5 11.1102C104.28 11.3302 104.17 11.6602 104.17 11.9902V14.9602H103.07V11.3302C103.07 10.8902 103.07 10.4502 103.07 9.90018H104.06V10.6702V10.6702C104.17 10.4502 104.39 10.2302 104.61 10.0102C104.94 9.79018 105.27 9.68018 105.6 9.68018C106.04 9.68018 106.48 9.79018 106.81 10.1202C107.25 10.4502 107.36 11.0002 107.36 11.7702V14.9602Z" fill="white"/>
<path d="M114.84 10.7799H113.63V13.1999C113.63 13.8599 113.85 14.0799 114.29 14.0799C114.51 14.0799 114.62 14.0799 114.84 14.0799V14.9599C114.62 15.0699 114.29 15.0699 113.96 15.0699C113.52 15.0699 113.19 14.9599 112.97 14.6299C112.75 14.4099 112.64 13.8599 112.64 13.3099V10.7799H111.87V9.89994H112.64V9.01994L113.74 8.68994V9.89994H114.95V10.7799H114.84Z" fill="white"/>
<path d="M120.78 14.9598H119.68V12.0998C119.68 11.2198 119.35 10.7798 118.69 10.7798C118.14 10.7798 117.81 10.9998 117.59 11.5498C117.59 11.6598 117.59 11.7698 117.59 11.9898V14.9598H116.49V7.58984H117.59V10.6698V10.6698C117.92 10.1198 118.47 9.78984 119.13 9.78984C119.57 9.78984 120.01 9.89984 120.23 10.2298C120.56 10.5598 120.78 11.2198 120.78 11.8798V14.9598Z" fill="white"/>
<path fill-rule="evenodd" clip-rule="evenodd" d="M126.83 12.7599V12.2099C126.83 11.5499 126.72 10.9999 126.5 10.6699C126.17 10.1199 125.62 9.8999 124.85 9.8999C124.08 9.8999 123.53 10.1199 123.09 10.6699C122.65 11.1099 122.43 11.7699 122.43 12.5399C122.43 13.3099 122.65 13.9699 123.09 14.4099C123.53 14.8499 124.19 15.0699 124.96 15.0699C125.62 15.0699 126.17 14.9599 126.61 14.7399L126.39 13.9699C126.06 14.0799 125.62 14.1899 125.07 14.1899C124.63 14.1899 124.3 14.0799 123.97 13.8599C123.75 13.6399 123.53 13.3099 123.53 12.7599H126.83ZM125.62 10.9999C125.73 11.2199 125.84 11.5499 125.84 11.8799H123.53C123.53 11.5499 123.64 11.2199 123.86 10.9999C124.08 10.6699 124.41 10.5599 124.74 10.5599C125.18 10.5599 125.4 10.6699 125.62 10.9999Z" fill="white"/>
</g>
<defs>
<clipPath id="clip0">
<rect width="141" height="44" fill="white"/>
</clipPath>
</defs>
</svg>
