<svg xmlns="http://www.w3.org/2000/svg" viewBox="0 0 137.85 114.03"><defs><style>.cls-1{fill:none;stroke:#fff;stroke-miterlimit:10;}.cls-2{fill:#1d1d1b;}.cls-3{fill:#ebbd00;}.cls-4{fill:#004a99;}.cls-5{fill:#a50343;}.cls-6{fill:#fff;}.cls-7{fill:#fd0;}.cls-8{fill:#dd052b;}</style></defs><title>AR_logo-without - vertical color (dark bg)</title><g id="Layer_2" data-name="Layer 2"><g id="TEXTOS"><line class="cls-1" x1="98.09" y1="71.83" x2="40.31" y2="71.83"/><path class="cls-2" d="M98.07,29.29l-.86-.9C93.53,24.55,88.33,15,95,6.08l.52-.69L95,4.65a9,9,0,0,0-.79-1.07c-.21-.26-.42-.53-.72-.94L93,1.85l-.9.32A12.6,12.6,0,0,1,88,2.88c-3.79,0-6.27-.37-9.32-2.4L78,0l-.7.49a13.82,13.82,0,0,1-8.21,2.77A13.82,13.82,0,0,1,60.86.49L60.16,0l-.72.48c-3.06,2-5.54,2.4-9.32,2.4a12.55,12.55,0,0,1-4.07-.71l-.9-.32-.55.79c-.29.41-.5.68-.71.93a10.17,10.17,0,0,0-.79,1.08l-.45.74.52.69C49.8,15,44.6,24.55,40.93,28.39l-.87.9.88.88c.47.47,1.31,1.35,2,2.08v.12a1.28,1.28,0,0,1,0,.26v.08c-.33,6.4,1.32,11.66,4.93,15.65,3.82,4.23,9.8,6.76,16.87,7.15,1.75,1.61,3.53,2.93,3.61,3l.75.57.75-.57c.08-.06,1.85-1.39,3.6-3,7.07-.39,13-2.92,16.87-7.15,3.61-4,5.26-9.25,4.92-15.65v-.08a1.28,1.28,0,0,1,0-.26v-.12c.69-.73,1.53-1.61,2-2.08Zm-4.19,2.5c.07.64,0,.61.07,1,.76,14.25-9.11,21-21,21.48-1.82,1.71-3.83,3.22-3.83,3.22s-2-1.51-3.84-3.22C53.29,53.76,43.42,47,44.18,32.78c0-.38,0-.35.07-1-.69-.73-1.82-1.92-2.42-2.52,4.28-4.47,9.28-14.69,2.35-23.95.45-.74.78-1,1.46-1.95a13.87,13.87,0,0,0,4.48.78c4,0,6.68-.39,10-2.62a15.12,15.12,0,0,0,8.92,3,15.13,15.13,0,0,0,8.93-3C81.32,3.76,84,4.15,88,4.15a13.87,13.87,0,0,0,4.48-.78c.68,1,1,1.21,1.46,2C87,14.58,92,24.8,96.3,29.27c-.6.6-1.73,1.79-2.42,2.52"/><path class="cls-3" d="M69.07,57.48a48.51,48.51,0,0,1-3.84-3.22C53.3,53.76,43.42,47,44.18,32.78c0-.38,0-.35.07-1-.68-.72-1.82-1.91-2.42-2.51,4.28-4.47,9.28-14.69,2.35-23.95.45-.74.78-1,1.46-1.95a13.86,13.86,0,0,0,4.47.79c4,0,6.69-.4,10-2.62a15.18,15.18,0,0,0,8.92,3,15.19,15.19,0,0,0,8.93-3C81.33,3.76,84,4.16,88,4.16a13.87,13.87,0,0,0,4.48-.79c.68,1,1,1.21,1.46,2C87,14.58,92,24.8,96.3,29.27c-.6.6-1.73,1.79-2.42,2.51.07.65,0,.62.07,1,.76,14.25-9.11,21-21,21.48a49.4,49.4,0,0,1-3.83,3.22"/><path class="cls-4" d="M52.72,32.12H46.44c0,.41-.06.43-.11.84-.36,7.2,2.15,12.11,6.39,15.17Z"/><path class="cls-5" d="M52.72,48.13a20,20,0,0,0,6.59,3v-19H52.72Z"/><path class="cls-4" d="M59.31,51.13a31.13,31.13,0,0,0,6.59,1v-20H59.31Z"/><path class="cls-5" d="M72.48,32.12H65.89v20h.23c2.19,0,4.17,0,5.89,0l.47,0Z"/><path class="cls-4" d="M72.48,52.1a31,31,0,0,0,6.59-1v-19H72.48Z"/><path class="cls-5" d="M79.07,51.07a19.7,19.7,0,0,0,6.59-3.13V32.12H79.07Z"/><path class="cls-4" d="M91.69,32.12h-6V48c4.09-3.07,6.49-7.93,6.14-15,0-.41-.08-.43-.11-.84"/><path class="cls-2" d="M69.69,52.32H66.12c-7-.29-12.53-2.43-15.93-6.18-3-3.27-4.32-7.7-4-13.18a3.81,3.81,0,0,1,.05-.4,3.37,3.37,0,0,0,0-.45v-.17h45.6l0,.17c0,.22,0,.32.05.45s0,.2,0,.39c.28,5.49-1.08,9.92-4,13.19C84.54,49.88,79,52,72,52.31H69.69m-23.08-20a1.84,1.84,0,0,1,0,.29c0,.09,0,.2,0,.38-.28,5.36,1,9.7,3.94,12.89,3.33,3.68,8.74,5.77,15.66,6.06H72c6.9-.29,12.32-2.38,15.65-6.06,2.89-3.19,4.22-7.53,3.94-12.9,0-.17,0-.28,0-.37s0-.17,0-.29Z"/><path class="cls-3" d="M62.73,41.85A6.32,6.32,0,1,1,69,48.2a6.33,6.33,0,0,1-6.31-6.35"/><path class="cls-2" d="M69,35.68a6.17,6.17,0,1,0,6.13,6.17A6.16,6.16,0,0,0,69,35.68m0,12.45a6.29,6.29,0,1,1,6.25-6.28A6.28,6.28,0,0,1,69,48.13"/><path class="cls-2" d="M69,35.49a6.36,6.36,0,1,1-6.31,6.36A6.34,6.34,0,0,1,69,35.49M65.82,43c-1.15-1-1.15-3.17-.84-4.59.08-.39.19-.78.3-1.22a6,6,0,0,0-2.2,4.66,6,6,0,0,0,.43,2.24l.31,0a2.19,2.19,0,0,0,2-1.12m6.13.46c-.19,1-1.26,1.76-2.27,2.36a9.11,9.11,0,0,1-4,1,5.88,5.88,0,0,0,3.33,1,6,6,0,0,0,5.22-3.1A1.57,1.57,0,0,0,72,43.46m-6.7,3a9.33,9.33,0,0,0,4.25-1c1.42-.84,2.52-1.75,2-3a1.43,1.43,0,0,0-2.28-.56,2,2,0,0,1-2,1.66,2.43,2.43,0,0,1-1.06-.38,2.55,2.55,0,0,1-2.28,1.25h-.14a5.93,5.93,0,0,0,1.57,2M69,38.11c1-.41,2.36.12,3.4.71A6.93,6.93,0,0,1,75,41.48a6,6,0,0,0-5.9-5.63A1.33,1.33,0,0,0,69,38.11m-.16,3.83a2.33,2.33,0,0,1-.63-3.15,2.38,2.38,0,0,1,.45-.49,1.67,1.67,0,0,1-.16-2.43,6,6,0,0,0-2.79,1,13.52,13.52,0,0,0-.58,3.33c0,1.59.68,2.88,2.06,3.06a1.71,1.71,0,0,0,1.65-1.31M75,42.4a6.27,6.27,0,0,0-2.73-3.27c-1.44-.81-3-1.25-3.71-.15a2,2,0,0,0,.5,2.65,1.77,1.77,0,0,1,2.78.73,2.46,2.46,0,0,1,.17.7,1.91,1.91,0,0,1,2.52,1.17A5.94,5.94,0,0,0,75,42.4"/><path class="cls-2" d="M76.56,30.94H73.88V25h2.7c1.18,0,1.9.6,1.9,1.6a1.33,1.33,0,0,1-.55,1.11A1.41,1.41,0,0,1,78.67,29a1.86,1.86,0,0,1-2.11,1.93M75.14,29.7h1.45c.5,0,.76-.23.76-.68s-.24-.67-.76-.67H75.14Zm0-2.51h1.45c.39,0,.58-.15.58-.47s-.08-.49-.64-.49H75.14Z"/><path class="cls-2" d="M68.6,31C67,31,66,29.84,66,28s1.08-3.05,2.62-3.05a2.25,2.25,0,0,1,2.16,1.32l0,.07-1.2.55,0-.06a1,1,0,0,0-1-.59c-.8,0-1.29.68-1.29,1.76s.52,1.77,1.29,1.77a1.13,1.13,0,0,0,1.07-.7l0-.06,1.09.64,0,.06A2.26,2.26,0,0,1,68.6,31"/><polygon class="cls-2" points="60.7 30.94 59.41 30.94 59.41 25.02 63.67 25.02 63.67 26.29 60.7 26.29 60.7 27.24 62.44 27.24 62.44 28.5 60.7 28.5 60.7 30.94"/><path class="cls-6" d="M47.94,23.81c2.18-5,3-11.45-.67-17.74a16.6,16.6,0,0,0,2.85.26c3.74,0,6.68-.34,10-2.22a16.81,16.81,0,0,0,9,2.6,16.84,16.84,0,0,0,9-2.6C81.33,6,84.27,6.33,88,6.33a15.85,15.85,0,0,0,2.86-.27C87.2,12.36,88,18.8,90.18,23.81Z"/><path class="cls-7" d="M68.87,6.71v17.1h2.26V6.58a17.43,17.43,0,0,1-2.07.13h-.19"/><path class="cls-8" d="M71.13,23.81h2.26V6.13a16.43,16.43,0,0,1-2.26.45Z"/><path class="cls-7" d="M73.39,23.81h2.26V5.34a15.9,15.9,0,0,1-2.26.79Z"/><path class="cls-8" d="M75.65,23.81h2.26V4.18a17.85,17.85,0,0,1-2.26,1.16Z"/><path class="cls-7" d="M77.91,4.18V23.81h2.26V5.14a16.12,16.12,0,0,1-2.15-1l-.11.07"/><path class="cls-8" d="M80.17,23.81h2.26v-18a15.84,15.84,0,0,1-2.26-.69Z"/><path class="cls-7" d="M82.42,23.81h2.26V6.19a16.89,16.89,0,0,1-2.26-.36Z"/><path class="cls-8" d="M84.68,23.78h2.26V6.29c-.78,0-1.53,0-2.26-.12Z"/><path class="cls-7" d="M90.69,6.08A14.76,14.76,0,0,1,88,6.33H86.94V23.81h3.24c-2.13-4.93-2.94-11.24.51-17.45Z"/><path class="cls-8" d="M56,18v5.8h6.29V18H69V11.69H62.29V5.26a18.84,18.84,0,0,1-2.18-1.15A15.72,15.72,0,0,1,56,5.76v5.93H49.43A18.74,18.74,0,0,1,49.6,18Z"/><path class="cls-2" d="M91.24,5.79l-.41.08A15.2,15.2,0,0,1,88,6.14c-3.82,0-6.66-.36-9.89-2.19L78,3.89l-.1.06a16.61,16.61,0,0,1-8.87,2.57A16.62,16.62,0,0,1,60.2,4l-.09-.06L60,4c-3.24,1.83-6.08,2.19-9.9,2.19a15.57,15.57,0,0,1-2.82-.26l-.4-.07.21.36c3.92,6.74,2.52,13.27.66,17.56l-.12.27H90.47l-.11-.27C88.5,19.44,87.1,12.91,91,6.15Zm-43.61.53a15.45,15.45,0,0,0,2.49.2c3.84,0,6.72-.36,10-2.19A17,17,0,0,0,68.79,6.9V23.62H48.23a19.29,19.29,0,0,0-.6-17.3M89.9,23.62H69.17V6.9A17.12,17.12,0,0,0,78,4.33c3.27,1.83,6.15,2.19,10,2.19a15.13,15.13,0,0,0,2.49-.21,19.31,19.31,0,0,0-.6,17.31"/><path class="cls-6" d="M13,93.65H11.4a3.71,3.71,0,0,1-.92,2.65,3.31,3.31,0,0,1-2.4.84H4.15a5.5,5.5,0,0,1-1.94-.36A3.83,3.83,0,0,1,.63,95.65,2.83,2.83,0,0,1,0,93.79a9.65,9.65,0,0,1,.12-1.32c.08-.54.17-1,.26-1.51l1.76.29c-.06.39-.12.82-.17,1.27s-.08.79-.08,1a1.75,1.75,0,0,0,.28,1,1.89,1.89,0,0,0,.76.69,2.47,2.47,0,0,0,1.15.25H8A1.46,1.46,0,0,0,9.1,95a2.14,2.14,0,0,0,.36-1.38h0a4.42,4.42,0,0,1-1.15-.14,3.37,3.37,0,0,1-1-.51L8,91.53a1.63,1.63,0,0,0,.65.34,4.79,4.79,0,0,0,.87,0H13ZM4,98.16H5.49v1.76H4Zm2.15,0H7.63v1.76H6.18Z"/><path class="cls-6" d="M23.13,91.92v1.73h-.77a.72.72,0,0,1-.45-.17,1,1,0,0,1-.32-.44v.61H12.72V91.92h2.2a9.5,9.5,0,0,1-.19-1.79,10,10,0,0,1,.15-1.66,12.79,12.79,0,0,1,.35-1.54,4.8,4.8,0,0,1,1.13-.32A8.6,8.6,0,0,1,18,86.47a4.78,4.78,0,0,1,2.23.42,2.14,2.14,0,0,1,1.06,1.2,6.26,6.26,0,0,1,.27,2v1.2a.9.9,0,0,0,.32.44.71.71,0,0,0,.45.16Zm-6.51-.81c.05.34.09.61.14.81h2.95V90.08a2.25,2.25,0,0,0-.39-1.46,1.9,1.9,0,0,0-1.49-.46,5.47,5.47,0,0,0-1.07.11,10.56,10.56,0,0,0-.2,1.86A8.18,8.18,0,0,0,16.62,91.11Z"/><path class="cls-6" d="M34.27,88.41a12,12,0,0,1,.12,1.31v3.93H31.48a2.65,2.65,0,0,1-.89-.16,2.41,2.41,0,0,1-.7-.37,2,2,0,0,1-1.41.53H23.13V91.92h2.16V87.3h1.89v4.62h.65a.94.94,0,0,0,.83-.43,1.93,1.93,0,0,0,.28-1.1V87.3h1.89v3.09a5,5,0,0,1-.14,1.28,1.69,1.69,0,0,0,.33.18,1.23,1.23,0,0,0,.42.07H32.5V90q0-.9,0-1.53c0-.42-.06-1-.13-1.81L34,86.58C34.1,87.18,34.19,87.79,34.27,88.41Z"/><path class="cls-6" d="M41.51,93.65H39.18a4.92,4.92,0,0,1-.6,2.58,1.93,1.93,0,0,1-1.75.91l-1,0v-1.7l.48,0A.83.83,0,0,0,37,95a2.14,2.14,0,0,0,.25-1.14V86.59h1.89v5.33h2.33Z"/><path class="cls-6" d="M45.14,83.77v9.88H41.51V91.92h1.74V83.77Z"/><path class="cls-6" d="M47.39,83.77h1.89v9.88H47.39Z"/><path class="cls-6" d="M56.22,96.7a3.61,3.61,0,0,1-1.47-1.21,2.87,2.87,0,0,1-.53-1.68,33.83,33.83,0,0,1,.51-4l1.78.09c-.12.72-.22,1.46-.31,2.23a15.09,15.09,0,0,0-.15,1.53,1.59,1.59,0,0,0,.29.91,1.9,1.9,0,0,0,.79.65,2.72,2.72,0,0,0,1.15.24,2.46,2.46,0,0,0,1.12-.24,1.71,1.71,0,0,0,.75-.65,1.56,1.56,0,0,0,.26-.88V83.77H62.3V93.84a3,3,0,0,1-.48,1.66,3.49,3.49,0,0,1-1.39,1.2,4.68,4.68,0,0,1-2.08.44A5,5,0,0,1,56.22,96.7Z"/><path class="cls-6" d="M69,86.42c.61.07,1.13.15,1.54.24V92.4a12.37,12.37,0,0,1-.18,2.17,3.65,3.65,0,0,1-.83,1.79,2.41,2.41,0,0,1-2,.78,17.69,17.69,0,0,1-2.46-.27v-1.7a18.57,18.57,0,0,0,2.29.25,1.37,1.37,0,0,0,.7-.15.93.93,0,0,0,.38-.54,3.78,3.78,0,0,0,.12-1.08H66.93c-2,0-2.92-1.11-2.92-3.31a6.77,6.77,0,0,1,.37-2.55,2.15,2.15,0,0,1,1.06-1.18,4.56,4.56,0,0,1,1.8-.3A15.31,15.31,0,0,1,69,86.42Zm-2.76,5a1.38,1.38,0,0,0,1.24.48h1.17V88.1a7.43,7.43,0,0,0-1-.07,2.24,2.24,0,0,0-.94.16,1.11,1.11,0,0,0-.55.64,3.61,3.61,0,0,0-.2,1.4A2.2,2.2,0,0,0,66.21,91.44Z"/><path class="cls-6" d="M72.35,83.77h1.89v9.88H72.35Z"/><path class="cls-6" d="M84,91.92v1.73H76.07V91.92H80.6v-.5a3.94,3.94,0,0,0-.69-2.62A2.15,2.15,0,0,0,78.26,88H76.83l-.14-1.48c.29-.07.62-.13,1-.19a8,8,0,0,1,1-.08,3.55,3.55,0,0,1,2,.55A3.59,3.59,0,0,1,82,88.5a6.88,6.88,0,0,1,.48,2.73v.69Z"/><path class="cls-6" d="M90.06,91.92v1.73H84V91.92h2.11V86.59H88v5.33Zm-4.88-8.4h1.45v1.76H85.18Zm2.15,0h1.45v1.76H87.33Z"/><path class="cls-6" d="M93.67,83.77v9.88H90.05V91.92h1.73V83.77Z"/><path class="cls-6" d="M95.93,83.77h1.89v9.88H95.93Z"/><path class="cls-6" d="M114.49,91.92v1.73h-7.7a10.18,10.18,0,0,1-2.08-.19,2.58,2.58,0,0,1-1.4-.77,2.52,2.52,0,0,1-.55-1.77,10.74,10.74,0,0,1,.33-2.39l1.58.08-.07.58c-.08.67-.12,1.11-.12,1.3,0,1,.69,1.43,2.08,1.43h3.94V83.77h1.89v8.15Zm-5.36-3.71-3.09.61-.15-.66.65-.17a1.43,1.43,0,0,1-.55-1.14,1.39,1.39,0,0,1,.41-1,1.44,1.44,0,0,1,1.07-.42,2.07,2.07,0,0,1,1.1.34l-.19.85a.66.66,0,0,0-.24-.14,1,1,0,0,0-.35-.06.73.73,0,0,0-.39,1.35l1.53-.41Z"/><path class="cls-6" d="M118.48,86.59v7.06h-4V91.92h2.1V86.59Zm-2.72,8.18h1.45v1.77h-1.45Zm2.14,0h1.46v1.77H117.9Z"/><path class="cls-6" d="M126.59,93.65h-2.32a4.92,4.92,0,0,1-.6,2.58,2,2,0,0,1-1.76.91l-1,0v-1.7l.48,0a.83.83,0,0,0,.76-.4,2.14,2.14,0,0,0,.26-1.14V86.59h1.89v5.33h2.32Z"/><path class="cls-6" d="M137.73,88.41a12,12,0,0,1,.12,1.31v3.93h-2.91a2.65,2.65,0,0,1-.89-.16,2.41,2.41,0,0,1-.7-.37,2,2,0,0,1-1.41.53h-5.35V91.92h2.16V87.3h1.89v4.62h.65a.94.94,0,0,0,.83-.43,1.93,1.93,0,0,0,.29-1.1V87.3h1.88v3.09a5,5,0,0,1-.14,1.28,1.53,1.53,0,0,0,.34.18,1.14,1.14,0,0,0,.41.07H136V90q0-.9,0-1.53c0-.42-.06-1-.13-1.81l1.66-.07Q137.61,87.48,137.73,88.41Zm-6.16-4.82H133v1.69h-1.46Zm1.13-2h1.36v1.58H132.7Zm1,2h1.45v1.69h-1.45Z"/><path class="cls-6" d="M33.31,106v1.72h-5a6.5,6.5,0,0,1-2.2-.29,2.1,2.1,0,0,1-1.19-1.08,5.25,5.25,0,0,1-.39-2.28,5,5,0,0,1,.37-2.18,2.06,2.06,0,0,1,1.18-1.06,7,7,0,0,1,2.3-.3q.8,0,1.89.06c.73,0,1.25.08,1.55.12V106Zm-6.67-.72a1.17,1.17,0,0,0,.63.57,3.58,3.58,0,0,0,1.16.15H30v-3.68a14,14,0,0,0-1.48-.07,3.53,3.53,0,0,0-1.21.16,1.07,1.07,0,0,0-.62.54,2.41,2.41,0,0,0-.2,1.12A2.94,2.94,0,0,0,26.64,105.31Zm.12-7.68h1.46v1.76H26.76Zm2.15,0h1.45v1.76H28.91Z"/><path class="cls-6" d="M37.3,100.7v7h-4V106h2.1V100.7Zm-1.79-3.14h1.73v1.83H35.51Z"/><path class="cls-6" d="M47.1,107.75H45.33c-.21,2.34-1.19,3.5-2.94,3.5a17.58,17.58,0,0,1-2.45-.27v-1.7a18.66,18.66,0,0,0,2.28.25,1.41,1.41,0,0,0,.71-.15,1,1,0,0,0,.37-.54,3.81,3.81,0,0,0,.12-1.09H41.79q-2.92,0-2.92-3.3a6.73,6.73,0,0,1,.37-2.55,2.11,2.11,0,0,1,1.06-1.18,4.5,4.5,0,0,1,1.8-.3,15.2,15.2,0,0,1,1.73.1c.61.07,1.12.16,1.54.25V106H47.1Zm-6-2.2a1.37,1.37,0,0,0,1.24.48h1.17v-3.82a7.43,7.43,0,0,0-1-.07,2.29,2.29,0,0,0-1,.16,1.15,1.15,0,0,0-.55.64,3.84,3.84,0,0,0-.19,1.4A2.2,2.2,0,0,0,41.07,105.55Z"/><path class="cls-6" d="M52.21,106v1.72H47.1V106h1.74V97.88h1.89V106Z"/><path class="cls-6" d="M63.35,102.52c.07.62.11,1.06.11,1.31v3.92h-2.9a2.74,2.74,0,0,1-.9-.15,2.6,2.6,0,0,1-.69-.37,2,2,0,0,1-1.42.52H52.21V106h2.16v-4.62h1.89V106h.65a.93.93,0,0,0,.82-.43,1.94,1.94,0,0,0,.29-1.11v-3.08h1.89v3.08a5.6,5.6,0,0,1-.14,1.29,1.26,1.26,0,0,0,.33.17,1,1,0,0,0,.42.08h1.06V104.1q0-.9,0-1.53c0-.42-.06-1-.13-1.81l1.65-.07C63.17,101.29,63.27,101.9,63.35,102.52ZM57.19,97.7h1.45v1.69H57.19Zm1.13-2h1.35v1.58H58.32Zm1,2h1.46v1.69H59.33Z"/><path class="cls-6" d="M70.59,107.75H68.26a4.87,4.87,0,0,1-.6,2.58,1.92,1.92,0,0,1-1.75.92l-1,0v-1.7l.48,0a.84.84,0,0,0,.76-.4,2.14,2.14,0,0,0,.25-1.14V100.7h1.89V106h2.33Z"/><path class="cls-6" d="M74.58,100.7v7h-4V106h2.1V100.7Zm-1.79,8.18h1.73v1.84H72.79Z"/><path class="cls-6" d="M81.45,110.88a3.78,3.78,0,0,1-1.59-1.12,2.83,2.83,0,0,1-.62-1.87,9.66,9.66,0,0,1,.12-1.31c.07-.54.16-1,.26-1.51l1.76.29c-.07.39-.13.82-.18,1.27s-.07.78-.07,1a1.85,1.85,0,0,0,.27,1,1.92,1.92,0,0,0,.77.69,2.45,2.45,0,0,0,1.14.25h3.9a1.44,1.44,0,0,0,1.13-.4,2.18,2.18,0,0,0,.36-1.43.81.81,0,0,0-.4-.75,5.83,5.83,0,0,0-1.32-.51,7.4,7.4,0,0,1-1.76-.69,2.38,2.38,0,0,1-.93-.9,2.69,2.69,0,0,1-.29-1.3,2.63,2.63,0,0,1,.86-2.13,3.68,3.68,0,0,1,2.42-.72,10.9,10.9,0,0,1,1.25.08c.43,0,1.07.15,1.9.3l-.15,1.54a27.67,27.67,0,0,0-2.81-.23q-1.53,0-1.53,1a.74.74,0,0,0,.25.58,2.14,2.14,0,0,0,.63.37c.26.1.69.24,1.29.43a6.7,6.7,0,0,1,1.51.65,2.12,2.12,0,0,1,.77.84,3,3,0,0,1,.24,1.29,3.85,3.85,0,0,1-.87,2.79,3.26,3.26,0,0,1-2.44.89H83.38A5.25,5.25,0,0,1,81.45,110.88Zm1.82,1.39h1.45V114H83.27Zm2.14,0h1.46V114H85.41Z"/><path class="cls-6" d="M96.66,100.93A3.67,3.67,0,0,1,98,102.61a7.07,7.07,0,0,1,.47,2.73v2.41H92V106h4.53v-.5a3.94,3.94,0,0,0-.69-2.62,2.13,2.13,0,0,0-1.65-.78H92.8l-.14-1.49,1-.18a6.33,6.33,0,0,1,1-.08A3.55,3.55,0,0,1,96.66,100.93Z"/><path class="cls-6" d="M103.29,106v1.72H100V97.88h1.89V106Z"/><path class="cls-6" d="M109.39,106v1.72h-6.11V106h2.11V100.7h1.89V106Zm-4-8.47h1.74v1.83h-1.74Z"/><path class="cls-6" d="M113,97.88v9.87h-3.63V106h1.74V97.88Z"/></g></g></svg>