<svg xmlns="http://www.w3.org/2000/svg" viewBox="0 0 401.73574 71.82833"><defs><style>.cls-1{fill:#00be40;}.cls-2{fill:#fff;}.cls-3{fill:#131718;}.cls-4{fill:#e3b52c;}.cls-5{fill:#fddc2d;}.cls-6{fill:#005fad;}.cls-7{fill:#9f164f;}.cls-8{fill:#e92944;}.cls-9{fill:none;stroke:#131718;stroke-miterlimit:10;stroke-width:1.0007px;}</style></defs><g id="Layer_2" data-name="Layer 2"><g id="ARTE"><g id="AR_joint-logo-flag-black"><rect class="cls-1" x="329.90741" width="71.82833" height="71.82833" rx="6.97605"/><rect class="cls-2" x="344.17309" y="45.46019" width="43.42876" height="3.45394"/><path class="cls-2" d="M356.02556,28.24048v-3.513H344.17309V41.12459h4.33106v-5.8308H355.203V31.77623h-6.69883V28.24048Z"/><path class="cls-2" d="M368.99147,32.62153a3.96783,3.96783,0,0,0,2.645-3.63572c0-2.64954-1.96329-4.24017-5.2718-4.24017h-8.38944V41.12459h8.48033c3.60846,0,5.76263-1.70879,5.76263-4.61283A4.02684,4.02684,0,0,0,368.99147,32.62153Zm-6.77608-4.56738h3.34941c1.218,0,1.8724.559,1.8724,1.59518S366.78277,31.24,365.5648,31.24h-3.34941Zm3.63572,9.74375h-3.63572V34.53938H365.892c1.218,0,1.89967.58171,1.89967,1.68607,0,1.04072-.6817,1.57245-1.94511,1.57245Z"/><path class="cls-2" d="M382.67089,31.16724l-1.97238-.26359c-1.94511-.28177-2.51774-.759-2.51774-1.66334s.759-1.52246,2.44957-1.52246a2.37532,2.37532,0,0,1,2.69953,2.00419l4.122-.53173c-.60444-3.2267-2.92222-4.79461-6.70337-4.79461-4.23108,0-7.01241,2.11327-7.01241,5.34452,0,2.77678,1.68607,4.39468,5.13546,4.87187l2.06328.28177c2.186.31358,2.72679.809,2.72679,1.76333s-.80895,1.52246-2.72679,1.52246a3.104,3.104,0,0,1-3.10855-2.186l-4.2947.64534c.69533,3.34032,3.2358,4.86278,7.27145,4.86278,4.58556,0,7.29418-1.97238,7.29418-5.32179C388.079,33.23506,386.42478,31.7126,382.67089,31.16724Z"/><path class="cls-3" d="M15.88158,32.19415h-2a4.48,4.48,0,0,1-1.12,3.23,4,4,0,0,1-2.93,1h-4.77a6.53994,6.53994,0,0,1-2.36-.45,4.67,4.67,0,0,1-1.94-1.38,3.46,3.46,0,0,1-.76-2.27,12.65094,12.65094,0,0,1,.14-1.6c.1-.67.21-1.28.32-1.85l2.16.35c-.08.48-.16,1-.22,1.56s-.09.95-.09,1.19a2.19993,2.19993,0,0,0,.33,1.19,2.41982,2.41982,0,0,0,.94.85,3.09994,3.09994,0,0,0,1.4.31h4.75a1.74007,1.74007,0,0,0,1.38-.49,2.56,2.56,0,0,0,.45-1.68h0a5.57936,5.57936,0,0,1-1.42-.17,4.00062,4.00062,0,0,1-1.27-.63l1-1.79a2.11012,2.11012,0,0,0,.79.42,6.90142,6.90142,0,0,0,1.02.14h4.2Zm-11,5.51h1.8v2.15h-1.76Zm2.62,0h1.78v2.15h-1.74Z"/><path class="cls-3" d="M28.25158,30.12414v2.11h-.95a.85992.85992,0,0,1-.55-.21,1.27,1.27,0,0,1-.38-.53v.74h-10.83v-2.11h2.68a10.49,10.49,0,0,1-.05-4.22,16.50083,16.50083,0,0,1,.43-1.87,5.99954,5.99954,0,0,1,1.38-.4,11.47963,11.47963,0,0,1,2-.17,5.8701,5.8701,0,0,1,2.73.51,2.7,2.7,0,0,1,1.3,1.47,7.6999,7.6999,0,0,1,.33,2.48v1.46a1.21007,1.21007,0,0,0,.38.55.89986.89986,0,0,0,.55.19Zm-7.95-1a9.35059,9.35059,0,0,0,.16,1h3.6v-2.25a2.79,2.79,0,0,0-.47-1.78,2.3,2.3,0,0,0-1.82-.56,6.4699,6.4699,0,0,0-1.31.13,12.64024,12.64024,0,0,0-.24,2.28A9.64042,9.64042,0,0,0,20.30159,29.12414Z"/><path class="cls-3" d="M41.85158,25.80414a13.44038,13.44038,0,0,1,.14,1.6v4.79h-3.54a3.38942,3.38942,0,0,1-1.1-.19,3.21082,3.21082,0,0,1-.85-.45,2.46,2.46,0,0,1-1.72.64h-6.53v-2.07h2.63v-5.65h2.31v5.65h.79a1.13,1.13,0,0,0,1-.52,2.34007,2.34007,0,0,0,.36-1.35v-3.78h2.34v3.78a6.16,6.16,0,0,1-.17,1.56,1.22,1.22,0,0,0,.41.22,1.42969,1.42969,0,0,0,.5.09h1.26v-4.26c0-.51-.07-1.25-.15-2.22l2-.08C41.68158,24.29416,41.75158,25.04416,41.85158,25.80414Z"/><path class="cls-3" d="M50.68158,32.19415h-2.84a5.92,5.92,0,0,1-.73,3.15,2.37,2.37,0,0,1-2.14,1.12,11.91434,11.91434,0,0,1-1.26-.07v-2.07h.58a1,1,0,0,0,.93-.49,2.58,2.58,0,0,0,.31-1.39v-8.91h2.31v6.59h2.84Z"/><path class="cls-3" d="M55.12158,20.12414v12.06h-4.44v-2.06h2.12v-10Z"/><path class="cls-3" d="M57.88158,20.12414h2.31v12.06h-2.31Z"/><path class="cls-3" d="M68.68158,35.92413a4.53008,4.53008,0,0,1-1.79-1.48,3.52,3.52,0,0,1-.65-2.05,42.56786,42.56786,0,0,1,.62-4.94l2.17.12c-.13.87-.26,1.78-.37,2.72s-.18,1.56-.18,1.86a2.0001,2.0001,0,0,0,.35,1.11,2.26994,2.26994,0,0,0,1,.8,3.23953,3.23953,0,0,0,1.41.3,3.00014,3.00014,0,0,0,1.36-.3,2.17022,2.17022,0,0,0,.92-.79,2.00009,2.00009,0,0,0,.32-1.08v-12.07h2.3v12.3a3.61,3.61,0,0,1-.59,2,4.19987,4.19987,0,0,1-1.69,1.47,5.64986,5.64986,0,0,1-2.54.54A6.08983,6.08983,0,0,1,68.68158,35.92413Z"/><path class="cls-3" d="M84.23159,23.36413a15.51276,15.51276,0,0,1,1.88.3v7a14.69028,14.69028,0,0,1-.22,2.64,4.51011,4.51011,0,0,1-1,2.19,3.00005,3.00005,0,0,1-2.4,1,21.5827,21.5827,0,0,1-3-.33v-2.08a24.86642,24.86642,0,0,0,2.79.31,1.71,1.71,0,0,0,.86-.19,1.15,1.15,0,0,0,.46-.66,5.00091,5.00091,0,0,0,.14-1.32h-2c-2.37,0-3.56-1.35-3.56-4a8.12985,8.12985,0,0,1,.46-3.12,2.57,2.57,0,0,1,1.29-1.44,5.39986,5.39986,0,0,1,2.19-.37A17.58166,17.58166,0,0,1,84.23159,23.36413Zm-3.37,6.13a1.64,1.64,0,0,0,1.51.59h1.43v-4.66a9.11286,9.11286,0,0,0-1.26-.09,2.8294,2.8294,0,0,0-1.15.2,1.37005,1.37005,0,0,0-.67.77,4.73,4.73,0,0,0-.24,1.72,2.64011,2.64011,0,0,0,.38,1.47Z"/><path class="cls-3" d="M88.35158,20.12414h2.33v12.06h-2.31Z"/><path class="cls-3" d="M102.53159,30.12414v2.11h-9.63v-2.11h5.53v-.62a4.81991,4.81991,0,0,0-.85-3.19,2.58,2.58,0,0,0-2-1h-1.74l-.18-1.81c.36-.08.77-.15,1.22-.22a8.16081,8.16081,0,0,1,1.25-.1,4.28014,4.28014,0,0,1,2.42.68,4.43,4.43,0,0,1,1.62,2,8.66019,8.66019,0,0,1,.57,3.34v.92Z"/><path class="cls-3" d="M109.99158,30.12414v2.11h-7.46v-2.11h2.56v-6.51h2.31v6.51Zm-6-10.26h1.78v2.15h-1.78Zm2.62,0h1.78v2.15h-1.71Z"/><path class="cls-3" d="M114.39159,20.12414v12.06h-4.42v-2.06h2.12v-10Z"/><path class="cls-3" d="M117.15158,20.12414h2.31v12.06h-2.31Z"/><path class="cls-3" d="M139.82158,30.12414v2.11h-9.41a12.298,12.298,0,0,1-2.54-.23,3.16009,3.16009,0,0,1-1.71-.95,3,3,0,0,1-.67-2.15,13.24085,13.24085,0,0,1,.41-2.93l1.93.11-.09.7q-.15,1.25-.15,1.59c0,1.17.85,1.75,2.55,1.75h4.81v-10h2.3v10Zm-6.55-4.53-3.77.75-.19-.81.79-.21a1.8,1.8,0,0,1-.67-1.4,1.67006,1.67006,0,0,1,.51-1.22,1.76005,1.76005,0,0,1,1.3-.52,2.54,2.54,0,0,1,1.35.42l-.23,1a1.11019,1.11019,0,0,0-.29-.16,1.18,1.18,0,0,0-.43-.08.87.87,0,0,0-.65.26.91006.91006,0,0,0,.17,1.39l1.87-.5Z"/><path class="cls-3" d="M144.68158,23.57416v8.62h-4.88v-2.07h2.57v-6.51Zm-3.33,10h1.77v2.16h-1.77Zm2.62,0h1.77v2.16h-1.77Z"/><path class="cls-3" d="M153.57158,32.19415h-2.89a5.91993,5.91993,0,0,1-.73,3.15,2.36,2.36,0,0,1-2.14,1.12,11.91423,11.91423,0,0,1-1.26-.07v-2.07h.59a1,1,0,0,0,.93-.49,2.6799,2.6799,0,0,0,.31-1.39v-8.91h2.3v6.59h2.85Z"/><path class="cls-3" d="M167.17159,25.80414a16.00071,16.00071,0,0,1,.14,1.6v4.79h-3.55a3.37979,3.37979,0,0,1-1.09-.19,3.21088,3.21088,0,0,1-.85-.45,2.47,2.47,0,0,1-1.72.64h-6.53v-2.07h2.63v-5.65h2.31v5.65h.79a1.13,1.13,0,0,0,1-.52,2.34,2.34,0,0,0,.35-1.35v-3.78h2.31v3.78a6.65,6.65,0,0,1-.17,1.56,1.26011,1.26011,0,0,0,.4.22,1.51989,1.51989,0,0,0,.51.09h1.29v-4.26c0-.52-.07-1.25-.15-2.22l2-.08C166.96158,24.29416,167.07158,25.04416,167.17159,25.80414Zm-7.52-5.9h1.77v2.07h-1.74Zm1.38-2.37h1.65v1.93h-1.65Zm1.24,2.37h1.77v2.07h-1.77Z"/><path class="cls-3" d="M69.97158,47.31415v2.11h-6.08a7.79044,7.79044,0,0,1-2.69-.37,2.61006,2.61006,0,0,1-1.46-1.31,6.59,6.59,0,0,1-.47-2.79,6.28015,6.28015,0,0,1,.45-2.66,2.53,2.53,0,0,1,1.45-1.29,8.26,8.26,0,0,1,2.8-.37c.65,0,1.42,0,2.31.07s1.53.1,1.9.15v6.46Zm-8.14-.88a1.36,1.36,0,0,0,.77.7,4.38984,4.38984,0,0,0,1.41.18h1.86v-4.49a17.54772,17.54772,0,0,0-1.81-.09,4.67067,4.67067,0,0,0-1.47.19,1.35,1.35,0,0,0-.77.67,3.06988,3.06988,0,0,0-.24,1.36A3.39981,3.39981,0,0,0,61.83158,46.43414Zm.15-9.38h1.77v2.15h-1.77Zm2.61,0h1.78v2.15h-1.78Z"/><path class="cls-3" d="M74.84159,40.80414v8.62h-4.87v-2.11h2.57v-6.51Zm-2.16-3.84h2.11v2.24h-2.11Z"/><path class="cls-3" d="M86.82158,49.42413h-2.14c-.26,2.84-1.45,4.27-3.59,4.27a21.33047,21.33047,0,0,1-3-.33v-2.08a24.39352,24.39352,0,0,0,2.79.31,1.73982,1.73982,0,0,0,.86-.19,1.14009,1.14009,0,0,0,.45-.66,4.51,4.51,0,0,0,.15-1.32h-2c-2.38,0-3.56-1.35-3.56-4a8.37007,8.37007,0,0,1,.45-3.12,2.64,2.64,0,0,1,1.29-1.44,5.44989,5.44989,0,0,1,2.2-.37,17.70125,17.70125,0,0,1,2.12.13,15.51276,15.51276,0,0,1,1.88.3v6.42h2.12Zm-7.38-2.7a1.67,1.67,0,0,0,1.52.59h1.43v-4.66a9.33632,9.33632,0,0,0-1.26-.09,2.79,2.79,0,0,0-1.15.2,1.37,1.37,0,0,0-.67.77,4.4897,4.4897,0,0,0-.25,1.72,2.72,2.72,0,0,0,.38,1.47Z"/><path class="cls-3" d="M93.05158,47.31415v2.11h-6.23v-2.11h2.11v-9.95h2.31v9.95Z"/><path class="cls-3" d="M106.68158,43.03415a14.08973,14.08973,0,0,1,.15,1.6v4.79h-3.55a3.32934,3.32934,0,0,1-1.09-.19,3.27992,3.27992,0,0,1-.86-.45,2.46008,2.46008,0,0,1-1.72.64h-6.53v-2.11h2.6v-5.65h2.31v5.65h.79a1.16,1.16,0,0,0,1-.52,2.42,2.42,0,0,0,.35-1.35v-3.78h2.31v3.78a6.65049,6.65049,0,0,1-.17,1.56,1.16017,1.16017,0,0,0,.4.22,1.52,1.52,0,0,0,.51.09h1.29v-4.22c0-.52-.08-1.25-.16-2.22l2-.08C106.44158,41.52414,106.55158,42.27414,106.68158,43.03415Zm-7.52-5.9h1.78v2.07h-1.78Zm1.38-2.37h1.65v1.93h-1.65Zm1.24,2.37h1.78v2.07h-1.78Z"/><path class="cls-3" d="M115.50159,49.42413h-2.82a5.99989,5.99989,0,0,1-.74,3.15,2.36,2.36,0,0,1-2.14,1.12,11.91423,11.91423,0,0,1-1.26-.07v-2.07h.59a1,1,0,0,0,.93-.49,2.6799,2.6799,0,0,0,.31-1.39v-8.91h2.31v6.51h2.84Z"/><path class="cls-3" d="M120.37158,40.80414v8.62h-4.87v-2.11h2.56v-6.51Zm-2.19,10h2.12v2.24h-2.12Z"/><path class="cls-3" d="M128.76158,53.24414a4.61,4.61,0,0,1-1.94-1.38,3.45994,3.45994,0,0,1-.76-2.27,12.64909,12.64909,0,0,1,.14-1.6c.1-.67.21-1.28.32-1.85l2.16.35c-.09.48-.16,1-.22,1.56s-.09.95-.09,1.19a2.19993,2.19993,0,0,0,.33,1.19,2.35,2.35,0,0,0,.94.85,3.0999,3.0999,0,0,0,1.4.31h4.75a1.82,1.82,0,0,0,1.39-.49,2.67,2.67,0,0,0,.44-1.75,1,1,0,0,0-.49-.92,7.531,7.531,0,0,0-1.62-.62,9.00033,9.00033,0,0,1-2.14-.84,3.0999,3.0999,0,0,1-1.14-1.1,3.34009,3.34009,0,0,1-.35-1.59,3.2,3.2,0,0,1,1.05-2.6,4.4899,4.4899,0,0,1,2.95-.88,13.6908,13.6908,0,0,1,1.53.1c.53.06,1.3.18,2.32.37l-.19,1.88a31.76252,31.76252,0,0,0-3.42-.28c-1.26,0-1.88.41-1.88,1.24a.9.9,0,0,0,.31.71,2.6098,2.6098,0,0,0,.77.45c.31.12.84.3,1.57.53a8.56907,8.56907,0,0,1,1.85.79,2.49012,2.49012,0,0,1,.94,1,3.54015,3.54015,0,0,1,.3,1.57,4.71,4.71,0,0,1-1.07,3.41,4.00007,4.00007,0,0,1-3,1.09h-4.81A6.53963,6.53963,0,0,1,128.76158,53.24414Zm2.22,1.69h1.78v2.19h-1.78Zm2.62,0h1.78v2.19h-1.78Z"/><path class="cls-3" d="M147.34159,41.12414a4.43011,4.43011,0,0,1,1.62,2,8.64989,8.64989,0,0,1,.58,3.34v2.95h-7.86v-2.11h5.53v-.62a4.76,4.76,0,0,0-.85-3.19,2.58,2.58,0,0,0-2-1h-1.68l-.17-1.81c.35-.08.76-.15,1.21-.22a8.1608,8.1608,0,0,1,1.25-.1A4.28,4.28,0,0,1,147.34159,41.12414Z"/><path class="cls-3" d="M155.43158,47.31415v2.11h-4v-12.06h2.31v9.95Z"/><path class="cls-3" d="M162.89159,47.31415v2.11h-7.46v-2.11h2.56v-6.51h2.31v6.51Zm-4.83-10.35h2.12v2.24h-2.12Z"/><path class="cls-3" d="M167.31159,37.36413v12.06h-4.42v-2.11h2.11v-9.95Z"/><path class="cls-4" d="M242.68158,1.17413l.36.24c3.92,2.59,7.08,3.07,11.89,3.07a16.37027,16.37027,0,0,0,5.26-.92l.46-.16,2.28,3.2-.24.31c-8.47,11.26-1.86,23.41,2.81,28.26l.43.45-.44.44c-.61.61-1.67,1.72-2.46,2.54l-.27.28v.97c.39,7.51-1.55,13.68-5.78,18.33-4.5,4.94-11.6,7.92-20,8.38h-.32l-.24.22c-2.14,1.94-4.3,3.56-4.33,3.57l-.38.29-.37-.29c-.09-.06-2.23-1.65-4.34-3.57l-.24-.22h-.32c-8.39-.46-15.48-3.44-20-8.38-4.23-4.65-6.18-10.82-5.78-18.33v-.43h0v-.51l-.26-.28c-.75-.78-1.84-1.91-2.47-2.54l-.44-.44.44-.45c4.67-4.85,11.28-17,2.81-28.26l-.24-.31,2.28-3.2.46.16a16.37054,16.37054,0,0,0,5.26.92c4.8,0,8-.48,11.89-3.07l.36-.24.35.24a17.5,17.5,0,0,0,21.08,0l.35-.24"/><path class="cls-2" d="M206.03159,28.96414c2.66-6.08,3.65-13.9-.82-21.54a19.83889,19.83889,0,0,0,3.48.32c4.56,0,8.16-.41,12.2-2.7a20.52,20.52,0,0,0,21.88,0c4,2.29,7.63,2.7,12.2,2.7a18.26778,18.26778,0,0,0,3.49-.34c-4.48,7.66-3.49,15.48-.84,21.56h-51.59"/><path class="cls-5" d="M257.62158,28.96414c-2.65-6.08-3.64-13.9.84-21.56a18.26778,18.26778,0,0,1-3.49.34c-4.57,0-8.16-.41-12.2-2.7a20.79011,20.79011,0,0,1-10.95,3.16h-.14v20.76Z"/><path class="cls-6" d="M251.94159,58.37414c5.09-3.71,8.09-9.65,7.65-18.3-.05-.49-.09-.52-.13-1h-7.52Z"/><path class="cls-7" d="M243.90158,62.12414a24.26978,24.26978,0,0,0,8-3.73v-19.34h-8Z"/><path class="cls-7" d="M211.68158,58.37414a24.41982,24.41982,0,0,0,8.05,3.73v-23.05h-8.05Z"/><path class="cls-6" d="M204.0716,40.12414c-.44,8.65,2.56,14.59,7.65,18.3v-19.37h-7.52C204.16159,39.55414,204.12158,39.58414,204.0716,40.12414Z"/><path class="cls-7" d="M231.8516,43.32416a7.48991,7.48991,0,0,1,4,1.16v-5.43h-8v5.45A7.53007,7.53007,0,0,1,231.8516,43.32416Z"/><path class="cls-7" d="M231.8516,58.49414a7.53,7.53,0,0,1-4-1.18v6h8.04v-6A7.57,7.57,0,0,1,231.8516,58.49414Z"/><path class="cls-6" d="M235.8516,39.05414v5.43a7.56,7.56,0,0,1,0,12.86v6a38.53,38.53,0,0,0,8.05-1.21v-23.08Z"/><path class="cls-6" d="M224.27158,50.91415a7.56,7.56,0,0,1,3.54-6.41v-5.45h-8.05v23.07a38.52942,38.52942,0,0,0,8.05,1.21v-6A7.54,7.54,0,0,1,224.27158,50.91415Z"/><path class="cls-8" d="M207.8516,14.24414a22.64985,22.64985,0,0,1,.21,7.68h7.81v7h7.68v-7h8.18v-7.68h-8.18v-7.8a24.06156,24.06156,0,0,1-2.66-1.4,19.5097,19.5097,0,0,1-5,2v7.19Z"/><path class="cls-8" d="M248.25159,28.96414v-21.84a18,18,0,0,1-2.75-.83v22.63Z"/><path class="cls-8" d="M237.22159,28.96414v-21.49a20.42919,20.42919,0,0,1-2.76.56v20.93Z"/><path class="cls-8" d="M253.77158,28.96414v-21.23a27.36212,27.36212,0,0,1-2.76-.15v21.38Z"/><path class="cls-8" d="M242.74158,28.96414v-23.9a22.5484,22.5484,0,0,1-2.76,1.43v22.47Z"/><path class="cls-3" d="M267.25159,35.61413l-1.05-1.09c-4.49-4.66-10.84-16.31-2.74-27.08l.63-.85-3.06-4.29-1.1.38a15.38961,15.38961,0,0,1-5,.87c-4.62,0-7.66-.45-11.39-2.92l-.87-.58-.86.6a16.62,16.62,0,0,1-20,0l-.86-.6-.87.58c-3.73,2.47-6.77,2.92-11.39,2.92a15.44965,15.44965,0,0,1-5-.87l-1.09-.38-3.07,4.29.64.85c8.1,10.77,1.75,22.42-2.74,27.08l-1,1.09,1.07,1.08c.58.57,1.6,1.63,2.45,2.52a.61051.61051,0,0,1,0,.14,2.06679,2.06679,0,0,1,0,.32v.1c-.41,7.77,1.61,14.16,6,19,4.67,5.13,12,8.2,20.6,8.67,2.14,1.95,4.31,3.57,4.4,3.64l.93.68.92-.68c.09-.08,2.25-1.69,4.39-3.64,8.63-.47,15.93-3.54,20.6-8.67,4.41-4.85,6.43-11.24,6-19v-.56c.85-.89,1.87-1.95,2.45-2.52Zm-5.11,3c.08.78,0,.75.08,1.2.93,17.31-11.13,25.49-25.7,26.09-2.23,2.08-4.69,3.91-4.69,3.91s-2.46-1.83-4.69-3.91c-14.57-.6-26.63-8.78-25.71-26.09.06-.45,0-.42.09-1.2-.83-.88-2.22-2.33-2.95-3.06,5.23-5.42,11.33-17.83,2.86-29.08l1.79-2.37a16.76025,16.76025,0,0,0,5.47,1c4.85,0,8.16-.48,12.24-3.18a18.18,18.18,0,0,0,21.8,0c4.07,2.7,7.39,3.18,12.24,3.18a16.86043,16.86043,0,0,0,5.47-1l1.78,2.37c-8.46,11.25-2.36,23.66,2.87,29.08-.73.77-2.11993,2.22-2.95,3.1Z"/><path class="cls-3" d="M203.97159,39.03415a3.80082,3.80082,0,0,1-.07.54,1.74905,1.74905,0,0,1-.06.49c-.34,6.65,1.32,12,4.94,16,4.15,4.55,10.87,7.14,19.45,7.5h7.21c8.56-.36,15.29-2.95,19.44-7.5,3.61-4,5.28-9.36,4.94-16a2.14614,2.14614,0,0,0-.07-.48,4.06076,4.06076,0,0,0-.06-.54v-.21h-55.71Zm.33,1.06a.93818.93818,0,0,1,.06-.45c.06-.11,0-.21.05-.36h54.84a2.84191,2.84191,0,0,0,.05.36,1.36221,1.36221,0,0,0,.06.44c.33,6.53-1.29,11.8-4.83,15.68-4.06,4.45-10.67,7-19.11,7.34h-7.18c-8.44-.35-15.05-2.89-19.12-7.34-3.53-3.88-5.15-9.15-4.82-15.64Z"/><path class="cls-3" d="M205.8216,28.87414l-.14.32h52.3l-.15-.32c-2.27-5.21-4-13.14.83-21.35l.25-.44-.5.1a18.46117,18.46117,0,0,1-3.44.33c-4.67,0-8.14-.44-12.09-2.67l-.12-.07-.11.08a20.32,20.32,0,0,1-21.64,0l-.12-.08-.11.07c-4,2.23-7.43,2.67-12.09,2.67a19.92884,19.92884,0,0,1-3.44-.32l-.49-.08.25.43C209.80158,15.73413,208.09159,23.66415,205.8216,28.87414Zm26.14-20.44a20.89,20.89,0,0,0,10.81-3.12c4,2.23,7.5,2.66,12.2,2.66a18.51064,18.51064,0,0,0,3-.25c-4.49,8-2.94,15.79-.74,21h-25.27Zm-26.3-.7a20.00052,20.00052,0,0,0,3,.24c4.69,0,8.21-.43,12.2-2.66a20.82985,20.82985,0,0,0,10.61,3.12v20.3h-25.08c2.2-5.21994,3.75-12.96-.71-21Z"/><polygon class="cls-3" points="225.232 31.974 225.232 30.454 220.062 30.454 220.062 37.624 221.612 37.624 221.612 34.664 223.732 34.664 223.732 33.144 221.612 33.144 221.612 31.974 225.232 31.974"/><path class="cls-3" d="M231.29157,31.88415a1.28,1.28,0,0,1,1.22.72v.07l1.44-.67v-.07a2.76,2.76,0,0,0-2.64-1.6c-1.88,0-3.19,1.52-3.19,3.7s1.23,3.7,3.14,3.7a2.76,2.76,0,0,0,2.67-1.63v-.06l-1.31-.78v.06a1.39,1.39,0,0,1-1.31.86c-.95,0-1.59-.86-1.59-2.15S230.3216,31.88415,231.29157,31.88415Z"/><path class="cls-3" d="M243.31159,32.38415c0-1.21-.86-1.94-2.3-1.94h-3.33v7.18h3.27a2.27007,2.27007,0,0,0,2.57-2.35,1.69,1.69,0,0,0-.9-1.54A1.65,1.65,0,0,0,243.31159,32.38415Zm-4.07-.49h1.71c.69,0,.78.32.78.6a.62647.62647,0,0,1-.71.58h-1.78Zm1.79,4.24h-1.79v-1.66h1.79c.63,0,.92.26.92.83s-.27.82-.92.82Z"/><path class="cls-3" d="M231.80158,58.61413a7.75,7.75,0,1,0-7.75-7.75v.01A7.75,7.75,0,0,0,231.80158,58.61413Zm0-.46a7.24,7.24,0,0,1-4.06-1.24,11.52,11.52,0,0,0,4.85-1.22c1.22-.73,2.53-1.65,2.77-2.87a1.94,1.94,0,0,1,2.82,1.56,7.27,7.27,0,0,1-6.38,3.74Zm-3.59-5.62a2.88009,2.88009,0,0,0,1.3.46,2.48,2.48,0,0,0,2.5-2,1.75,1.75,0,0,1,2.79.68c.64,1.52-.71,2.63-2.44,3.66a11.5298,11.5298,0,0,1-5.19,1.17,7.48043,7.48043,0,0,1-1.92-2.44h.18A3.13,3.13,0,0,0,228.21158,52.53415Zm-1.16-3.67a16.36889,16.36889,0,0,1,.7-4.05,7.31,7.31,0,0,1,3.41-1.2,2,2,0,0,0,.06,2.82779q.06716.06432.14.12223a2.26062,2.26062,0,0,0-.54.6,2.8,2.8,0,0,0,.76,3.81,2.08,2.08,0,0,1-2,1.59C227.87158,52.35416,227.08158,50.78415,227.05158,48.86413Zm8.34,3.48a2.52037,2.52037,0,0,0-.19-.85,2.18,2.18,0,0,0-3.4-.89,2.36,2.36,0,0,1-.61-3.21c.84-1.34,2.77-.81,4.52.18a7.50006,7.50006,0,0,1,3.34,4,7.25027,7.25027,0,0,1-.57,2.23,2.35,2.35,0,0,0-2.96283-1.50556Q235.45451,52.31955,235.39157,52.34415Zm.54-5.15c-1.28-.71-2.95-1.36-4.15-.86a1.61,1.61,0,0,1,.08-2.75,7.29,7.29,0,0,1,7.21,6.84A8.4802,8.4802,0,0,0,235.93158,47.19415Zm-8.72-2c-.14.54-.27,1-.37,1.48-.38,1.72-.37,4.3,1,5.58a2.69,2.69,0,0,1-2.43,1.35,2.33817,2.33817,0,0,1-.38,0,7.28,7.28,0,0,1,2.16-8.38Z"/><line class="cls-9" x1="298.6416" y1="0.02414" x2="298.6416" y2="71.78414"/></g></g></g></svg>