<svg xmlns="http://www.w3.org/2000/svg" viewBox="0 0 247.80908 103.46146"><defs><style>.cls-1{fill:#fff;}.cls-2{fill:none;stroke:#fff;stroke-miterlimit:10;}.cls-3{fill:#e8b909;}.cls-4{fill:#fd0;}.cls-5{fill:#0054a4;}.cls-6{fill:#a30046;}.cls-7{fill:#e31937;}.cls-8{fill:#231f20;}.cls-9{fill:#00be40;}</style></defs><g id="Layer_2" data-name="Layer 2"><g id="ARTE"><g id="AR_joint-logo-horizontal-white"><path class="cls-1" d="M9.42676,94.85428v1.852H4.06787a7.06048,7.06048,0,0,1-2.36816-.31885A2.2598,2.2598,0,0,1,.417,95.22635,5.68677,5.68677,0,0,1,0,92.77469a5.52091,5.52091,0,0,1,.39453-2.34522,2.21705,2.21705,0,0,1,1.2749-1.13867A7.40313,7.40313,0,0,1,4.144,88.96463q.84961,0,2.03418.06055,1.18361.06078,1.66944.13671v5.69239Zm-7.17285-.78174a1.18364,1.18364,0,0,0,.67578.61475,3.71815,3.71815,0,0,0,1.24463.167H5.81348V90.89236q-.75879-.07579-1.59375-.07592a3.9806,3.9806,0,0,0-1.29785.167,1.17352,1.17352,0,0,0-.6753.58447,2.72251,2.72251,0,0,0-.21289,1.20679A3.0303,3.0303,0,0,0,2.25391,94.07254Zm.1289-8.26538h1.564v1.89746h-1.564Zm2.30762,0H6.25391v1.89746H4.69043Z"/><path class="cls-1" d="M13.72217,89.11624v7.59009H9.42627v-1.852H11.688v-5.738Zm-1.92774-3.385h1.86719v1.97339H11.79443Z"/><path class="cls-1" d="M24.27246,96.70633h-1.9126q-.334,3.76464-3.15722,3.76465a19.13991,19.13991,0,0,1-2.6416-.28833V98.34573a20.46523,20.46523,0,0,0,2.45947.2732,1.455,1.455,0,0,0,.75879-.167.98687.98687,0,0,0,.40234-.57666,4.09562,4.09562,0,0,0,.12891-1.16894H18.5498q-3.14208,0-3.14209-3.552a7.28823,7.28823,0,0,1,.40186-2.74781,2.27472,2.27472,0,0,1,1.13867-1.26733,4.83,4.83,0,0,1,1.93555-.32642,16.32529,16.32529,0,0,1,1.86719.11377,15.86959,15.86959,0,0,1,1.65429.26563v5.66211h1.86719ZM17.77539,94.3306a1.47133,1.47133,0,0,0,1.33594.52368h1.26025V90.74051a8.51938,8.51938,0,0,0-1.1084-.07593,2.47017,2.47017,0,0,0-1.01709.17456,1.22122,1.22122,0,0,0-.59179.68311,4.10194,4.10194,0,0,0-.21241,1.51049A2.36739,2.36739,0,0,0,17.77539,94.3306Z"/><path class="cls-1" d="M29.76758,94.85428v1.852H24.27246v-1.852h1.86719V86.08035h2.03418v8.77393Z"/><path class="cls-1" d="M41.752,91.07449a12.924,12.924,0,0,1,.1294,1.41187v4.22H38.75391a2.81488,2.81488,0,0,1-.96387-.167,2.67339,2.67339,0,0,1-.75147-.39478,2.14892,2.14892,0,0,1-1.51757.56177H29.76758v-1.852h2.32275v-4.979H34.124v4.979h.69873a1.00619,1.00619,0,0,0,.8877-.46289,2.09472,2.09472,0,0,0,.31152-1.19165V89.87527h2.03369v3.32447a5.74462,5.74462,0,0,1-.15136,1.38134,1.35193,1.35193,0,0,0,.35644.1897,1.24647,1.24647,0,0,0,.44776.0835h1.13867V92.77469q0-.97119-.03028-1.647-.03075-.67528-.13671-1.95068l1.77587-.07593Q41.623,90.07267,41.752,91.07449Zm-6.626-5.1914h1.56347v1.82153H35.126Zm1.21435-2.095h1.45752v1.70019H36.34033Zm1.09326,2.095h1.56348v1.82153H37.43359Z"/><path class="cls-1" d="M49.54688,96.70633h-2.5044a5.248,5.248,0,0,1-.645,2.77783,2.09481,2.09481,0,0,1-1.89014.98682q-.19775,0-1.10791-.06079V98.58865l.51612.03028a.90454.90454,0,0,0,.81933-.43262,2.28963,2.28963,0,0,0,.27344-1.22193V89.11624h2.03418v5.738h2.5044Z"/><path class="cls-1" d="M53.84277,89.11624v7.59009H49.54688v-1.852h2.26171v-5.738ZM51.915,97.92068h1.86719v1.97339H51.915Z"/><path class="cls-1" d="M61.23486,100.0762a4.0368,4.0368,0,0,1-1.70752-1.21435,3.0476,3.0476,0,0,1-.67529-2.00367,10.17087,10.17087,0,0,1,.12891-1.41186q.12889-.88.28076-1.62427l1.89746.30371q-.1062.63757-.18994,1.37378-.08351.73646-.0835,1.05493a1.92378,1.92378,0,0,0,.29639,1.04737,2.06961,2.06961,0,0,0,.82715.74389,2.65192,2.65192,0,0,0,1.22949.2732h4.18994a1.56064,1.56064,0,0,0,1.22168-.43262,2.334,2.334,0,0,0,.38721-1.54077.87411.87411,0,0,0-.42481-.80445,6.3836,6.3836,0,0,0-1.42724-.54638,7.96868,7.96868,0,0,1-1.88965-.7439,2.63854,2.63854,0,0,1-1.002-.97168,2.84922,2.84922,0,0,1-.311-1.39648,2.817,2.817,0,0,1,.92578-2.29224,3.93272,3.93272,0,0,1,2.5957-.77417,11.44042,11.44042,0,0,1,1.35108.0835q.698.08385,2.04932.32641l-.167,1.65454a29.43686,29.43686,0,0,0-3.021-.24267q-1.65455,0-1.6543,1.09277a.79509.79509,0,0,0,.27295.62256,2.24,2.24,0,0,0,.6831.4021q.41016.15966,1.38135.46313a7.24284,7.24284,0,0,1,1.62451.69825,2.19322,2.19322,0,0,1,.835.90307,3.23,3.23,0,0,1,.25781,1.38916,4.148,4.148,0,0,1-.94092,3.00562,3.519,3.519,0,0,1-2.62647.9563H63.31494A5.78614,5.78614,0,0,1,61.23486,100.0762Zm1.9585,1.48779h1.56348v1.89747H63.19336Zm2.30713,0H67.064v1.89747H65.50049Z"/><path class="cls-1" d="M77.60645,89.36673a3.87848,3.87848,0,0,1,1.42675,1.79883,7.54311,7.54311,0,0,1,.50879,2.94506v2.59571H72.63525v-1.852h4.87256v-.54639a4.24067,4.24067,0,0,0-.74365-2.81592,2.2946,2.2946,0,0,0-1.77637-.84253h-1.5332l-.15186-1.59375q.471-.1062,1.07032-.19751a7.39829,7.39829,0,0,1,1.10058-.09106A3.8138,3.8138,0,0,1,77.60645,89.36673Z"/><path class="cls-1" d="M84.73389,94.85428v1.852h-3.522v-10.626h2.03418v8.77393Z"/><path class="cls-1" d="M91.30615,94.85428v1.852H84.7334v-1.852h2.26172v-5.738H89.0293v5.738Zm-4.25-9.12305h1.8667v1.97339h-1.8667Z"/><path class="cls-1" d="M95.208,86.08035v10.626H91.30664v-1.852h1.86719V86.08035Z"/><path class="cls-1" d="M114.36426,96.70633h-1.73047a3.95344,3.95344,0,0,1-.98682,2.85376,3.55393,3.55393,0,0,1-2.58056.91089h-4.23487a5.78614,5.78614,0,0,1-2.08008-.39478,4.0367,4.0367,0,0,1-1.70751-1.21435,3.04756,3.04756,0,0,1-.6753-2.00367,10.17087,10.17087,0,0,1,.12891-1.41186q.12891-.88.28076-1.62427l1.89746.30371q-.1062.63757-.18994,1.37378-.08349.73646-.0835,1.05493a1.92378,1.92378,0,0,0,.29639,1.04737,2.06967,2.06967,0,0,0,.82715.74389,2.65192,2.65192,0,0,0,1.22949.2732h4.18994a1.5539,1.5539,0,0,0,1.21436-.42505,2.30041,2.30041,0,0,0,.39453-1.48755h-.04541a4.88112,4.88112,0,0,1-1.24512-.14429,3.49911,3.49911,0,0,1-1.12305-.554l.88038-1.57886a1.77965,1.77965,0,0,0,.69824.3645,5.26493,5.26493,0,0,0,.9414.06055h3.70362ZM104.71,101.564h1.56348v1.89747H104.71Zm2.30713,0h1.56348v1.89747h-1.56348Z"/><path class="cls-1" d="M125.26318,94.85428v1.852h-.83447a.76462.76462,0,0,1-.48584-.18213,1.05689,1.05689,0,0,1-.334-.4707v.65283h-9.54834v-1.852h2.36816a10.2122,10.2122,0,0,1-.2124-1.92774,10.39661,10.39661,0,0,1,.167-1.79126,13.87746,13.87746,0,0,1,.3794-1.65454,5.11818,5.11818,0,0,1,1.21435-.34912,9.70329,9.70329,0,0,1,1.791-.15185,5.149,5.149,0,0,1,2.40625.45532,2.32522,2.32522,0,0,1,1.13867,1.29028,6.68309,6.68309,0,0,1,.2959,2.186v1.29028a.99968.99968,0,0,0,.334.478.78364.78364,0,0,0,.48584.17456Zm-7.00537-.87281q.06811.53907.144.87281h3.17285V92.86575a2.41644,2.41644,0,0,0-.41748-1.56347,2.025,2.025,0,0,0-1.60157-.501,5.59755,5.59755,0,0,0-1.1538.12134,11.09307,11.09307,0,0,0-.21241,2.0039A8.40606,8.40606,0,0,0,118.25781,93.98147Z"/><path class="cls-1" d="M137.24756,91.07449a12.92327,12.92327,0,0,1,.12939,1.41187v4.22h-3.12744a2.815,2.815,0,0,1-.96387-.167,2.67318,2.67318,0,0,1-.75146-.39478,2.149,2.149,0,0,1-1.51758.56177h-5.75342v-1.852h2.32276v-4.979h2.03369v4.979h.69873a1.00616,1.00616,0,0,0,.88769-.46289,2.09472,2.09472,0,0,0,.31153-1.19165V89.87527h2.03369v3.32447a5.74409,5.74409,0,0,1-.15137,1.38134,1.352,1.352,0,0,0,.35645.1897,1.24642,1.24642,0,0,0,.44775.0835h1.13867V92.77469q0-.97119-.03027-1.647-.03077-.67528-.13672-1.95068l1.77588-.07593Q137.11866,90.07267,137.24756,91.07449Z"/><path class="cls-1" d="M145.04248,96.70633h-2.50439a5.24812,5.24812,0,0,1-.645,2.77783,2.09483,2.09483,0,0,1-1.89014.98682q-.19776,0-1.10791-.06079V98.58865l.51611.03028a.90456.90456,0,0,0,.81934-.43262,2.28963,2.28963,0,0,0,.27344-1.22193V89.11624h2.03418v5.738h2.50439Z"/><path class="cls-1" d="M148.94385,86.08035v10.626h-3.90137v-1.852h1.86719V86.08035Z"/><path class="cls-1" d="M151.37256,86.08035h2.03418v10.626h-2.03418Z"/><path class="cls-1" d="M160.86719,99.99271a3.90655,3.90655,0,0,1-1.5791-1.29786,3.09834,3.09834,0,0,1-.56885-1.80639,36.77532,36.77532,0,0,1,.54638-4.35669l1.9126.1062q-.18237,1.15393-.334,2.39844-.15162,1.2451-.15186,1.63964a1.70748,1.70748,0,0,0,.30371.979,2.05552,2.05552,0,0,0,.85743.70581,2.89478,2.89478,0,0,0,1.2373.25806,2.6961,2.6961,0,0,0,1.207-.25806,1.946,1.946,0,0,0,.8042-.69824,1.74249,1.74249,0,0,0,.28076-.9563v-10.626H167.417V96.91873a3.22494,3.22494,0,0,1-.52344,1.78369,3.65105,3.65105,0,0,1-1.48779,1.29029,4.97728,4.97728,0,0,1-2.23877.47827A5.30835,5.30835,0,0,1,160.86719,99.99271Z"/><path class="cls-1" d="M174.59766,88.92654a15.86959,15.86959,0,0,1,1.65429.26563v6.17822a13.54259,13.54259,0,0,1-.18945,2.33032,4.03953,4.03953,0,0,1-.89551,1.92774,2.6062,2.6062,0,0,1-2.11767.84253,19.14016,19.14016,0,0,1-2.64161-.28833V98.34573a20.46553,20.46553,0,0,0,2.45948.2732,1.455,1.455,0,0,0,.75879-.167.98687.98687,0,0,0,.40234-.57666,4.09562,4.09562,0,0,0,.12891-1.16894h-1.76075q-3.14208,0-3.14209-3.552a7.28823,7.28823,0,0,1,.40186-2.74781,2.27472,2.27472,0,0,1,1.13867-1.26733,4.83,4.83,0,0,1,1.93555-.32642A16.32529,16.32529,0,0,1,174.59766,88.92654Zm-2.97559,5.40406a1.47133,1.47133,0,0,0,1.33594.52368h1.26025V90.74051a8.51938,8.51938,0,0,0-1.1084-.07593,2.47017,2.47017,0,0,0-1.01709.17456,1.22122,1.22122,0,0,0-.59179.68311,4.10194,4.10194,0,0,0-.21241,1.51049A2.36739,2.36739,0,0,0,171.62207,94.3306Z"/><path class="cls-1" d="M178.2251,86.08035h2.03418v10.626H178.2251Z"/><path class="cls-1" d="M190.71826,94.85428v1.852h-8.48535v-1.852h4.87256v-.54639a4.24073,4.24073,0,0,0-.74365-2.81592,2.29462,2.29462,0,0,0-1.77637-.84253h-1.5332l-.15186-1.59375q.471-.1062,1.07031-.19751a7.39842,7.39842,0,0,1,1.10059-.09106,3.81374,3.81374,0,0,1,2.13281.59961,3.87849,3.87849,0,0,1,1.42676,1.79883,7.5433,7.5433,0,0,1,.50879,2.94506v.74366Z"/><path class="cls-1" d="M197.291,94.85428v1.852h-6.57276v-1.852H192.98v-5.738h2.03418v5.738Zm-5.252-9.04712h1.56348v1.89746h-1.56348Zm2.30713,0h1.56348v1.89746h-1.56348Z"/><path class="cls-1" d="M201.17725,86.08035v10.626h-3.90137v-1.852h1.86719V86.08035Z"/><path class="cls-1" d="M203.60547,86.08035h2.03418v10.626h-2.03418Z"/><path class="cls-1" d="M223.582,94.85428v1.852H215.294a10.8449,10.8449,0,0,1-2.23926-.19727,2.80749,2.80749,0,0,1-1.51026-.835,2.69929,2.69929,0,0,1-.59179-1.89746,11.34767,11.34767,0,0,1,.36425-2.58057l1.7002.09107-.07617.62231q-.13623,1.09278-.13672,1.39649,0,1.54833,2.24658,1.54834h4.23535V86.08035h2.03418v8.77393ZM217.814,90.86209l-3.3247.65259-.167-.71338.69824-.18213a1.55181,1.55181,0,0,1-.5918-1.22949,1.48468,1.48468,0,0,1,.44775-1.07788,1.53744,1.53744,0,0,1,1.146-.45533,2.24292,2.24292,0,0,1,1.18408.36426l-.19726.91089a1.03372,1.03372,0,0,0-.6377-.21265.76468.76468,0,0,0-.78906.77417.798.798,0,0,0,.36426.68311l1.65429-.44019Z"/><path class="cls-1" d="M227.87793,89.11624v7.59009H223.582v-1.852h2.26172v-5.738Zm-2.92969,8.80444h1.56348v1.89746h-1.56348Zm2.30713,0h1.564v1.89746h-1.564Z"/><path class="cls-1" d="M235.69531,96.70633h-2.50439a5.24812,5.24812,0,0,1-.645,2.77783,2.09481,2.09481,0,0,1-1.89014.98682q-.19774,0-1.10791-.06079V98.58865l.51611.03028a.90456.90456,0,0,0,.81934-.43262,2.28963,2.28963,0,0,0,.27344-1.22193V89.11624h2.03418v5.738h2.50439Z"/><path class="cls-1" d="M247.67969,91.07449a12.92587,12.92587,0,0,1,.12939,1.41187v4.22h-3.12744a2.81492,2.81492,0,0,1-.96387-.167,2.67318,2.67318,0,0,1-.75146-.39478,2.149,2.149,0,0,1-1.51758.56177h-5.75342v-1.852h2.32276v-4.979h2.03369v4.979h.69873a1.00618,1.00618,0,0,0,.88769-.46289,2.09472,2.09472,0,0,0,.31153-1.19165V89.87527h2.03369v3.32447a5.74409,5.74409,0,0,1-.15137,1.38134,1.35184,1.35184,0,0,0,.35645.1897,1.24642,1.24642,0,0,0,.44775.0835h1.13867V92.77469q0-.97119-.03027-1.647-.03077-.67528-.13672-1.95068l1.77588-.07593Q247.55078,90.07267,247.67969,91.07449Zm-6.626-5.1914h1.56348v1.82153h-1.56348Zm1.21436-2.095h1.45752v1.70019h-1.45752Zm1.09326,2.095h1.56347v1.82153h-1.56347Z"/><line class="cls-2" x1="123.64943" y1="0.0127" x2="123.64943" y2="71.7231"/><path class="cls-3" d="M67.75448,1.22348l.358.23732C72.0379,4.05943,75.19786,4.535,80.00721,4.535a16.365,16.365,0,0,0,5.25711-.92l.45632-.15788L88.001,6.65223l-.23457.31339c-8.47149,11.25577-1.86557,23.408,2.81,28.25887l.43249.449-.441.44043c-.61327.61177-1.675,1.71626-2.46358,2.544l-.267.281.01708.3867.00432.13436c.00425.0984.00731.20036.02745.37751l.00732.07024c.3959,7.50756-1.54974,13.67424-5.78242,18.32722-4.49778,4.94434-11.59236,7.92109-19.97591,8.38166l-.32315.01833-.23945.21869c-2.135,1.94313-4.30167,3.557-4.32488,3.57475l-.37788.28161-.37782-.28036c-.08976-.06718-2.22961-1.65908-4.33683-3.576l-.23913-.21869-.32347-.01833c-8.38379-.46057-15.47838-3.43732-19.97647-8.38166-4.23362-4.65479-6.17894-10.82147-5.78123-18.329l.00551-.07087c.01951-.16614.0232-.25778.02745-.36224l.00063-.02809.00031-.00307.00394-.116.01683-.38733-.26666-.28036c-.74369-.78128-1.835-1.91748-2.46332-2.544l-.44075-.44043.43224-.449c4.67618-4.85089,11.28079-17.0031,2.81024-28.25887l-.23576-.31339,2.28185-3.19512.45576.15788a16.34529,16.34529,0,0,0,5.257.92c4.809,0,7.96907-.47552,11.89449-3.07415l.35856-.23732.35279.24433A17.83463,17.83463,0,0,0,56.864,4.99065,17.8349,17.8349,0,0,0,67.40143,1.46781l.353-.24433"/><path class="cls-1" d="M31.06934,29.01752C33.7232,22.93178,34.71159,15.11578,30.248,7.4763a19.90889,19.90889,0,0,0,3.4721.3207c4.56809,0,8.16486-.41541,12.20451-2.69851A20.71218,20.71218,0,0,0,56.85576,8.253,20.72445,20.72445,0,0,0,67.80214,5.09849C71.84241,7.38159,75.43919,7.797,80.00721,7.797a18.43276,18.43276,0,0,0,3.48318-.33966c-4.474,7.65781-3.48681,15.47444-.83264,21.56018H31.06934"/><path class="cls-4" d="M82.65775,29.01752c-2.65417-6.08574-3.64137-13.90237.83264-21.56018a18.43276,18.43276,0,0,1-3.48318.33966c-4.568,0-8.1648-.41541-12.20507-2.69851A20.72445,20.72445,0,0,1,56.85576,8.253c-.04035,0-.07976-.00213-.12035-.00244v20.767Z"/><path class="cls-5" d="M76.97673,58.42849c5.08358-3.71588,8.086-9.64917,7.645-18.30514-.05135-.49235-.088-.52106-.1271-1.01647H76.97673Z"/><path class="cls-6" d="M68.931,62.15355a24.26063,24.26063,0,0,0,8.04689-3.72625V39.10688H68.931Z"/><path class="cls-6" d="M36.74911,58.4273A24.2693,24.2693,0,0,0,44.797,62.15355V39.10688H36.74911Z"/><path class="cls-5" d="M29.106,40.12335c-.44105,8.656,2.56134,14.58989,7.6453,18.30576V39.10688H29.23242C29.19333,39.60229,29.1573,39.631,29.106,40.12335Z"/><path class="cls-6" d="M56.88353,43.37928a7.53654,7.53654,0,0,1,4.00424,1.15209V39.10688H52.84026v5.44889A7.53636,7.53636,0,0,1,56.88353,43.37928Z"/><path class="cls-6" d="M56.88353,58.54214a7.531,7.531,0,0,1-4.04327-1.17655v6.00117c.14231.00732.2828.01708.42542.0244,2.67318.01344,5.09678.02814,7.1963,0,.14293-.00732.28348-.01708.42579-.0244V57.39005A7.53707,7.53707,0,0,1,56.88353,58.54214Z"/><path class="cls-5" d="M60.886,39.10688v5.42324a7.56667,7.56667,0,0,1,0,12.86056v5.97608a38.46746,38.46746,0,0,0,8.04751-1.21321V39.10688Z"/><path class="cls-5" d="M49.303,50.96127A7.571,7.571,0,0,1,52.84239,44.554V39.10688H44.79456V62.15355a38.46621,38.46621,0,0,0,8.04783,1.21321V57.36684A7.56879,7.56879,0,0,1,49.303,50.96127Z"/><path class="cls-7" d="M32.88205,14.299a22.46917,22.46917,0,0,1,.21105,7.67733h7.81663v7.04116h7.67733V21.97636h8.18012V14.299H48.58706V6.49a23.64591,23.64591,0,0,1-2.66242-1.39154,19.42509,19.42509,0,0,1-5.01491,2.00668V14.299Z"/><path class="cls-7" d="M73.28957,29.01752V7.2127a18.74824,18.74824,0,0,1-2.7587-.82438v22.6292Z"/><path class="cls-7" d="M62.25367,29.01752V7.52484a19.83715,19.83715,0,0,1-2.75869.55559V29.01752Z"/><path class="cls-7" d="M78.80752,29.01752V7.78418c-.95362-.01808-1.86988-.06236-2.7587-.14662v21.38Z"/><path class="cls-7" d="M67.77162,29.01752V5.11588a23.48262,23.48262,0,0,1-2.7587,1.42976V29.01752Z"/><path class="cls-8" d="M92.285,35.66892l-1.05251-1.09285C86.742,29.91734,80.3921,18.2623,88.49334,7.49519l.63591-.846-3.06288-4.2916-1.0983.37932a15.41556,15.41556,0,0,1-4.96086.87016c-4.62726,0-7.65962-.45144-11.392-2.92295L67.74228.1056,66.88218.703A16.96922,16.96922,0,0,1,56.864,4.063,16.9695,16.9695,0,0,1,46.84522.703L45.98544.1056,45.1122.68409C41.38013,3.1556,38.34777,3.607,33.72013,3.607a15.40917,15.40917,0,0,1-4.96047-.87016l-1.09837-.37932-3.06408,4.291.63623.84665c8.10187,10.76711,1.75166,22.42215-2.73793,27.08088l-1.05282,1.09285,1.0739,1.07147c.577.576,1.60078,1.63831,2.44681,2.52893-.00244.05011-.00332.09408-.00519.13806-.00332.09226-.0055.16983-.02321.31889l-.00857.10021c-.41385,7.76527,1.61085,14.15984,6.01612,19.00334,4.67005,5.13438,11.969,8.20458,20.60018,8.67861,2.13836,1.94745,4.30937,3.56193,4.40683,3.63461l.9224.6842.92052-.68663c.09652-.07207,2.256-1.686,4.39214-3.63218,8.63156-.474,15.93013-3.54423,20.59961-8.67861,4.40614-4.8435,6.43-11.23681,6.017-19.00334l-.00914-.10021a2.99748,2.99748,0,0,1-.02263-.32071c-.00183-.04216-.00364-.08613-.00552-.13624.84672-.89062,1.87114-1.95351,2.44719-2.52893ZM87.172,38.7031c.07882.78.033.7495.08677,1.20582.92177,17.30824-11.136,25.481-25.70823,26.08455-2.22725,2.08062-4.68081,3.90953-4.68081,3.90953s-2.46544-1.82891-4.69294-3.90953C37.60464,65.39,25.54651,57.21716,26.46829,39.90892c.054-.45632.00825-.42579.08732-1.20582-.83533-.88331-2.21805-2.32652-2.94829-3.05494,5.22683-5.42356,11.32539-17.8318,2.86034-29.08144l1.78769-2.37081a16.92766,16.92766,0,0,0,5.46478.95543c4.85427,0,8.16911-.4814,12.24479-3.18017A18.59043,18.59043,0,0,0,56.864,5.60766a18.59114,18.59114,0,0,0,10.899-3.63649c4.075,2.69877,7.389,3.18017,12.24416,3.18017A16.933,16.933,0,0,0,85.472,4.19591l1.78745,2.37081c-8.46537,11.24964-2.3665,23.65788,2.86127,29.08144C89.3901,36.37658,88.00712,37.81979,87.172,38.7031Z"/><path class="cls-8" d="M29.00185,39.08855c-.02076.26447-.04122.391-.06292.53263-.01927.121-.03941.25234-.06412.49054-.33935,6.656,1.32342,12.04262,4.941,16.01139,4.1496,4.551,10.87213,7.14344,19.449,7.499l.32621.00119c1.42727.00857,2.78122.0147,4.0506.0147.99514,0,1.93832-.00369,2.82956-.01652,8.56858-.35492,15.29054-2.94741,19.44015-7.49836,3.61816-3.9694,5.28094-9.35542,4.94009-16.023-.02321-.22663-.044-.358-.06293-.479-.022-.14168-.04216-.26816-.06293-.53263l-.01714-.21381H29.0183Zm.33441,1.05864c.02265-.21506.04185-.33966.05992-.45514.01646-.10627.032-.20523.04761-.353H84.2833c.01583.14906.03172.24677.04761.3543.01832.11422.0379.23882.05987.44224.33233,6.52711-1.28953,11.80067-4.82093,15.6748-4.06529,4.45812-10.67548,6.99932-19.1115,7.34867-2.01219.02753-4.32251.01589-6.8649.00251L53.2755,63.159c-8.44247-.34935-15.05327-2.89055-19.11763-7.348C30.62641,51.93747,29.00461,46.66266,29.33626,40.14719Z"/><path class="cls-8" d="M30.85735,28.92438l-.14143.32371h52.295l-.14113-.32371c-2.27122-5.2095-3.97428-13.14311.821-21.35038l.25654-.4398-.5003.09651a18.2671,18.2671,0,0,1-3.43977.33416c-4.66761,0-8.14159-.4368-12.09022-2.6683l-.11854-.06687-.116.07056a20.43967,20.43967,0,0,1-10.826,3.12062,20.4197,20.4197,0,0,1-10.812-3.12062l-.11578-.07056-.11785.06687c-3.94863,2.2315-7.42355,2.6683-12.0906,2.6683a19.75555,19.75555,0,0,1-3.43151-.31614L29.796,7.16109l.25259.43187C34.83375,15.78434,33.12945,23.71488,30.85735,28.92438ZM56.99776,8.48358A20.86914,20.86914,0,0,0,67.807,5.366c3.98773,2.22387,7.50143,2.66186,12.20019,2.66186a18.66649,18.66649,0,0,0,3.03724-.25533c-4.49233,8.0512-2.94191,15.79577-.73792,21.01315H56.99776ZM30.6909,7.78418a19.77275,19.77275,0,0,0,3.02923.2437c4.6982,0,8.21221-.438,12.2005-2.66186A20.86142,20.86142,0,0,0,56.53474,8.48114V28.7857H31.42057C33.62518,23.56769,35.17861,15.82344,30.6909,7.78418Z"/><polygon class="cls-8" points="50.264 32.026 50.264 30.499 45.087 30.499 45.087 37.671 46.645 37.671 46.645 34.713 48.76 34.713 48.76 33.196 46.645 33.196 46.645 32.026 50.264 32.026"/><path class="cls-8" d="M56.32613,31.93472a1.26345,1.26345,0,0,1,1.21595.7208l.033.065,1.441-.664-.03359-.06994A2.74421,2.74421,0,0,0,56.346,30.388c-1.88115,0-3.19481,1.52046-3.19481,3.69667,0,2.24551,1.23428,3.696,3.14414,3.696a2.74831,2.74831,0,0,0,2.66642-1.62737l.03116-.06293-1.3091-.77577-.0391.06474a1.39269,1.39269,0,0,1-1.30847.85584c-.95018,0-1.58853-.865-1.58853-2.15055C54.74767,32.759,55.35274,31.93472,56.32613,31.93472Z"/><path class="cls-8" d="M68.34579,32.43008c0-1.20889-.86129-1.9315-2.30231-1.9315H62.74783v7.17278h3.2645a2.26592,2.26592,0,0,0,2.57416-2.34272,1.68387,1.68387,0,0,0-.90589-1.54455A1.63352,1.63352,0,0,0,68.34579,32.43008Zm-4.0708-.4856h1.708c.6964,0,.7856.31914.7856.59588,0,.39433-.234.58555-.71535.58555H64.275Zm1.78863,4.24H64.275V34.522h1.78863c.631,0,.92609.26329.92609.8277C66.98971,35.89555,66.669,36.18448,66.06362,36.18448Z"/><path class="cls-8" d="M56.83436,58.66675a7.747,7.747,0,1,0-7.74669-7.747A7.75588,7.75588,0,0,0,56.83436,58.66675Zm0-.46545a7.254,7.254,0,0,1-4.06316-1.23948,11.53329,11.53329,0,0,0,4.84908-1.21865c1.229-.73243,2.53381-1.64632,2.77207-2.86741a1.92965,1.92965,0,0,1,2.81856,1.56137A7.28167,7.28167,0,0,1,56.83436,58.2013Zm-3.59064-5.61385a3.02341,3.02341,0,0,0,1.29747.46058A2.49278,2.49278,0,0,0,57.047,51.0334a1.745,1.745,0,0,1,2.78584.68051c.63773,1.52528-.70559,2.6267-2.43492,3.65907a11.54529,11.54529,0,0,1-5.19111,1.168,7.31313,7.31313,0,0,1-1.9218-2.438c.05836.00306.11666.00488.17621.00488A3.11957,3.11957,0,0,0,53.24372,52.58745Zm-1.15884-3.6774a16.38549,16.38549,0,0,1,.70283-4.04271,7.21109,7.21109,0,0,1,3.41075-1.19976,2.01756,2.01756,0,0,0,.19973,2.95048,2.145,2.145,0,0,0-.544.59556,2.80114,2.80114,0,0,0,.75751,3.81427A2.08116,2.08116,0,0,1,54.59648,52.618C52.90894,52.40173,52.11178,50.83548,52.08488,48.91005ZM60.42964,52.392a2.47272,2.47272,0,0,0-.19736-.84672,2.173,2.173,0,0,0-3.39854-.89181,2.3656,2.3656,0,0,1-.61295-3.20826c.846-1.3415,2.77026-.807,4.5283.17528a7.51341,7.51341,0,0,1,3.3353,3.96883,7.21789,7.21789,0,0,1-.56566,2.22106A2.35508,2.35508,0,0,0,60.42964,52.392Zm.53082-5.14964c-1.27182-.70979-2.94072-1.35977-4.14473-.85885a1.60572,1.60572,0,0,1,.08156-2.744,7.27963,7.27963,0,0,1,7.20424,6.83981A8.45972,8.45972,0,0,0,60.96046,47.24234Zm-8.717-1.97366c-.13561.5357-.26634,1.00365-.37112,1.48012-.37444,1.71588-.37019,4.29923,1.02536,5.571a2.684,2.684,0,0,1-2.43648,1.35433,2.85505,2.85505,0,0,1-.37838-.02509,7.288,7.288,0,0,1,2.16062-8.38041Z"/><rect class="cls-9" x="154.8412" width="71.82833" height="71.82833" rx="6.97605"/><rect class="cls-1" x="169.10683" y="45.45919" width="43.42876" height="3.45394"/><path class="cls-1" d="M180.9593,28.23948v-3.513H169.10683V41.12358h4.33106V35.29279h6.69883V31.77522h-6.69883V28.23948Z"/><path class="cls-1" d="M193.92521,32.62053a3.96786,3.96786,0,0,0,2.645-3.63573c0-2.64954-1.9633-4.24017-5.27181-4.24017H182.909V41.12358h8.48033c3.60846,0,5.76263-1.70879,5.76263-4.61283A4.02683,4.02683,0,0,0,193.92521,32.62053Zm-6.77608-4.56738h3.34941c1.218,0,1.8724.559,1.8724,1.59517s-.65443,1.59063-1.8724,1.59063h-3.34941Zm3.63572,9.74374h-3.63572V34.53837h3.67662c1.218,0,1.89967.58172,1.89967,1.68607,0,1.04073-.68169,1.57245-1.94511,1.57245Z"/><path class="cls-1" d="M207.60464,31.16624l-1.97238-.26359c-1.94512-.28177-2.51775-.759-2.51775-1.66335s.759-1.52246,2.44958-1.52246a2.37532,2.37532,0,0,1,2.69952,2.00419l4.122-.53172c-.60444-3.22671-2.92222-4.79462-6.70337-4.79462-4.23108,0-7.01241,2.11327-7.01241,5.34452,0,2.77679,1.68607,4.39469,5.13546,4.87188l2.06328.28177c2.186.31358,2.7268.80894,2.7268,1.76332s-.809,1.52246-2.7268,1.52246a3.104,3.104,0,0,1-3.10855-2.186l-4.2947.64534c.69533,3.34033,3.2358,4.86279,7.27145,4.86279,4.58556,0,7.29418-1.97238,7.29418-5.3218C213.01278,33.23406,211.35852,31.7116,207.60464,31.16624Z"/></g></g></g></svg>