<svg width="22" height="24" viewBox="0 0 22 24" fill="none" xmlns="http://www.w3.org/2000/svg">
<path d="M21.4611 0.740484C21.3422 0.30762 20.9473 0.00667181 20.4974 0.00667181L20.3305 0.00465675C19.5737 -0.00832403 17.5782 -0.0423458 15.1129 0.681485C9.61743 2.29405 5.77648 7.25168 5.51157 13.0031H1.50267C1.09876 13.0031 0.732864 13.246 0.578922 13.6199C0.42395 13.9938 0.509941 14.4237 0.795846 14.7096L9.79335 23.7071C9.98829 23.902 10.2442 24 10.5002 24C10.7561 24 11.012 23.902 11.207 23.7071L20.2045 14.7096C20.4904 14.4237 20.5764 13.9938 20.4214 13.6199C20.2675 13.246 19.9016 13.0031 19.4977 13.0031H14.3531C14.1621 11.0596 14.3571 5.82304 21.0092 1.86512C21.3952 1.63522 21.5811 1.17536 21.4611 0.740484Z" fill="white"/>
</svg>
