<svg width="25" height="25" viewBox="0 0 25 25" fill="none" xmlns="http://www.w3.org/2000/svg">
<g clip-path="url(#clip0)">
<path d="M22.9996 1.0608C22.8807 0.627932 22.4858 0.326984 22.0359 0.326984L21.869 0.324969C21.1122 0.311988 19.1167 0.277967 16.6514 1.0018C11.1559 2.61437 7.31499 7.57199 7.05008 13.3234H3.04118C2.63728 13.3234 2.27138 13.5663 2.11744 13.9402C1.96246 14.3141 2.04845 14.744 2.33436 15.0299L11.3319 24.0274C11.5268 24.2223 11.7827 24.3203 12.0387 24.3203C12.2946 24.3203 12.5506 24.2223 12.7455 24.0274L21.743 15.0299C22.0289 14.744 22.1149 14.3141 21.9599 13.9402C21.806 13.5663 21.4401 13.3234 21.0362 13.3234H15.8916C15.7007 11.3799 15.8956 6.14335 22.5478 2.18544C22.9337 1.95553 23.1196 1.49568 22.9996 1.0608Z" fill="#00BE40"/>
</g>
<defs>
<clipPath id="clip0">
<rect x="0.538513" y="0.320312" width="24" height="24" fill="white"/>
</clipPath>
</defs>
</svg>
