<svg preserveAspectRatio="none" viewBox="0 0 320 997" fill="none" xmlns="http://www.w3.org/2000/svg">
<path fill-rule="evenodd" clip-rule="evenodd" d="M-89 40C-102.807 40 -114 51.1928 -114 65V972C-114 985.807 -102.807 997 -89 997H137.543C144.179 997 150.543 994.362 155.232 989.667L180.533 964.333C185.222 959.638 191.586 957 198.222 957H371C382.046 957 391 965.954 391 977C391 988.046 399.954 997 411 997H484C497.807 997 509 985.807 509 972V25C509 11.1929 497.807 0 484 0H169.674C163.038 0 156.675 2.63801 151.985 7.33286L126.681 32.6671C121.992 37.362 115.629 40 108.993 40L-89 40Z" fill="#D9EEED"/>
</svg>
