<svg preserveAspectRatio="none" viewBox="0 0 1241 428" fill="none" xmlns="http://www.w3.org/2000/svg">
<path fill-rule="evenodd" clip-rule="evenodd" d="M-4.99997 120C-18.8071 120 -30 131.193 -30 145V403C-30 416.807 -18.8071 428 -5 428H1054.43C1061.07 428 1067.43 425.362 1072.12 420.667L1185.32 307.333C1190.01 302.638 1196.37 300 1203.01 300H1245C1258.81 300 1270 288.807 1270 275V25C1270 11.1929 1258.81 0 1245 0H330.578C323.943 0 317.579 2.63801 312.89 7.33286L207.681 112.667C202.992 117.362 196.629 120 189.993 120L-4.99997 120Z" fill="#D9EEED"/>
</svg>
