<svg width="78" height="138" viewBox="0 0 78 138" fill="none" xmlns="http://www.w3.org/2000/svg">
<path d="M2.22451 130.458C0.595114 128.677 1.13081 124.499 1.13081 121.796V45.9823C1.13081 41.4349 1.4531 38.1906 5.03287 34.4318C7.18418 32.146 17.7377 26.6048 21.081 24.6873L62.2977 1.3028C62.8144 1.1009 63.3687 1.00966 63.9237 1.0352C64.4787 1.06075 65.0219 1.20253 65.5174 1.45102L75.0883 6.90736C72.4035 5.65446 69.9553 7.70647 67.1091 9.31519L17.0541 37.8961C13.4856 39.9854 10.7016 44.7164 10.6772 48.8082M10.6772 48.8082V132.473C10.6772 136.478 13.5364 138.112 17.0541 136.11C35.6357 125.494 51.9817 116.179 70.5766 105.563C74.081 103.561 76.9535 98.6449 76.9535 94.64V10.9861C76.9535 6.96809 74.081 5.33384 70.5766 7.33828M10.6772 48.8082C10.7569 46.4772 11.4696 44.2102 12.7406 42.2451L3.19411 36.7914C1.91782 38.7578 1.20478 41.0296 1.13081 43.3649V127.018C1.19289 128.763 1.45307 130.052 2.99597 131.098L12.5292 136.541M53.3727 95.1193L63.3312 89.4437M53.3727 66.0834L63.3312 60.3959M24.5617 82.5365L34.5176 76.8471M29.5323 73.9972V85.3754M26.0406 114.669L33.0124 102.7M26.0406 106.694L33.0388 110.688M58.3322 95.8322C58.7556 95.5861 59.1038 95.782 59.1038 96.2612C59.0891 96.5269 59.0117 96.7857 58.8777 97.0165C58.7437 97.2474 58.5569 97.4439 58.3322 97.5905C57.8976 97.8347 57.5627 97.6383 57.5627 97.146C57.5766 96.8824 57.6536 96.6259 57.7873 96.3975C57.9211 96.1691 58.1079 95.9753 58.3322 95.8322ZM58.3322 86.9985C58.7556 86.7523 59.1038 86.9482 59.1038 87.4281C59.0889 87.6934 59.0113 87.9516 58.8773 88.182C58.7433 88.4123 58.5567 88.6085 58.3322 88.7547C57.8976 89.0009 57.5627 88.792 57.5627 88.3128C57.5731 88.0483 57.6486 87.7905 57.7827 87.5614C57.9168 87.3324 58.1054 87.1391 58.3322 86.9985ZM62.4476 26.973L58.8925 28.9997V37.1093L62.4476 35.0828V26.973ZM48.0163 109.165L68.6501 97.3921C68.9415 97.2115 69.1849 96.9645 69.3602 96.672C69.5354 96.3794 69.6373 96.0496 69.6573 95.7101V75.446C69.6573 74.8316 69.2095 74.5743 68.6501 74.8819L48.0163 86.6655C47.7355 86.8514 47.5019 87.099 47.3337 87.3888C47.1656 87.6786 47.0673 88.0029 47.0467 88.3363V108.598C47.0467 109.213 47.4938 109.472 48.0163 109.165ZM19.2165 125.605L39.837 113.834C40.1274 113.652 40.37 113.404 40.545 113.112C40.7201 112.819 40.8226 112.49 40.8442 112.15V91.8881C40.8442 91.2737 40.3965 91.0145 39.837 91.322L19.2165 103.095C18.9317 103.28 18.6946 103.529 18.524 103.821C18.3534 104.113 18.2541 104.44 18.2338 104.777V125.041C18.2338 125.666 18.6809 125.912 19.2165 125.605ZM68.6501 46.0914L48.0163 57.877C47.7341 58.0643 47.4997 58.3136 47.3315 58.6056C47.1633 58.8975 47.0658 59.2241 47.0467 59.5595V79.8211C47.0467 80.4354 47.4938 80.6947 48.0163 80.3748L68.6501 68.6036C68.9425 68.4236 69.1867 68.1766 69.362 67.8835C69.5373 67.5903 69.6387 67.2597 69.6573 66.9197V46.6575C69.6573 46.0431 69.2095 45.7839 68.6501 46.0914ZM39.837 62.5466L19.2165 74.3171C18.9307 74.5018 18.693 74.7503 18.5223 75.0426C18.3516 75.3349 18.2528 75.6627 18.2338 75.9996V96.2612C18.2338 96.8762 18.6809 97.1348 19.2165 96.8149L39.837 85.0443C40.1296 84.8643 40.3739 84.6172 40.5492 84.3239C40.7246 84.0307 40.8258 83.7 40.8442 83.3598V63.0976C40.8442 62.4833 40.3965 62.226 39.837 62.5466ZM19.093 64.8558L68.5266 36.6301C68.8119 36.4452 69.0492 36.1966 69.2195 35.9044C69.3899 35.6121 69.4885 35.2844 69.5074 34.9476V19.1329C69.5074 18.5186 69.0602 18.2724 68.5266 18.5799L19.093 46.7926C18.8117 46.981 18.5778 47.2306 18.4094 47.5223C18.241 47.814 18.1425 48.1399 18.1216 48.4752V64.2898C18.1216 64.9042 18.5707 65.1634 19.093 64.8558Z" stroke="#D9EEED" stroke-width="2" stroke-linecap="round" stroke-linejoin="round"/>
<mask id="mask0_645_90926" style="mask-type:alpha" maskUnits="userSpaceOnUse" x="0" y="0" width="78" height="138">
<g clip-path="url(#clip0_645_90926)">
<path d="M2.22451 130.458C0.595114 128.677 1.13081 124.499 1.13081 121.796V45.9823C1.13081 41.4349 1.4531 38.1906 5.03287 34.4318C7.18418 32.146 17.7377 26.6048 21.081 24.6873L62.2977 1.3028C62.8144 1.1009 63.3687 1.00966 63.9237 1.0352C64.4787 1.06075 65.0219 1.20253 65.5174 1.45102L75.0883 6.90736C72.4035 5.65446 69.9553 7.70647 67.1091 9.31519L17.0541 37.8961C13.4856 39.9854 10.7016 44.7164 10.6772 48.8082M10.6772 48.8082V132.473C10.6772 136.478 13.5364 138.112 17.0541 136.11C35.6357 125.494 51.9817 116.179 70.5766 105.563C74.0811 103.561 76.9535 98.6449 76.9535 94.64V10.9861C76.9535 6.96809 74.0811 5.33384 70.5766 7.33828M10.6772 48.8082C10.7569 46.4772 11.4696 44.2102 12.7406 42.2451L3.19411 36.7914C1.91782 38.7578 1.20478 41.0296 1.13081 43.3649V127.018C1.19289 128.763 1.45307 130.052 2.99597 131.098L12.5292 136.541M53.3727 95.1193L63.3312 89.4437M53.3727 66.0834L63.3312 60.3959M24.5617 82.5365L34.5176 76.8471M29.5323 73.9972V85.3754M26.0406 114.669L33.0124 102.7M26.0406 106.694L33.0388 110.688M58.3322 95.8322C58.7556 95.5861 59.1038 95.782 59.1038 96.2612C59.0891 96.5269 59.0117 96.7857 58.8777 97.0165C58.7437 97.2474 58.5569 97.4439 58.3322 97.5905C57.8976 97.8347 57.5627 97.6383 57.5627 97.146C57.5766 96.8824 57.6536 96.6259 57.7873 96.3975C57.9211 96.1691 58.1079 95.9753 58.3322 95.8322ZM58.3322 86.9985C58.7556 86.7523 59.1038 86.9481 59.1038 87.4281C59.0889 87.6934 59.0113 87.9516 58.8773 88.182C58.7433 88.4123 58.5567 88.6085 58.3322 88.7547C57.8976 89.0009 57.5627 88.792 57.5627 88.3128C57.5731 88.0483 57.6486 87.7905 57.7827 87.5614C57.9168 87.3324 58.1054 87.1391 58.3322 86.9985ZM62.4476 26.973L58.8925 28.9997V37.1093L62.4476 35.0828V26.973ZM48.0163 109.165L68.6501 97.3921C68.9415 97.2115 69.1849 96.9645 69.3602 96.6719C69.5354 96.3794 69.6373 96.0496 69.6573 95.7101V75.446C69.6573 74.8316 69.2095 74.5743 68.6501 74.8818L48.0163 86.6655C47.7355 86.8514 47.5019 87.099 47.3337 87.3888C47.1656 87.6786 47.0673 88.0029 47.0467 88.3363V108.598C47.0467 109.213 47.4938 109.472 48.0163 109.165ZM19.2165 125.605L39.837 113.834C40.1274 113.652 40.37 113.404 40.545 113.112C40.7201 112.819 40.8226 112.49 40.8442 112.15V91.8881C40.8442 91.2737 40.3965 91.0145 39.837 91.322L19.2165 103.095C18.9317 103.28 18.6946 103.529 18.524 103.821C18.3534 104.113 18.2541 104.44 18.2338 104.777V125.041C18.2338 125.666 18.6809 125.912 19.2165 125.605ZM68.6501 46.0914L48.0163 57.877C47.7341 58.0643 47.4997 58.3136 47.3315 58.6056C47.1633 58.8975 47.0658 59.2241 47.0467 59.5595V79.8211C47.0467 80.4354 47.4938 80.6947 48.0163 80.3748L68.6501 68.6036C68.9425 68.4236 69.1867 68.1766 69.362 67.8835C69.5374 67.5903 69.6387 67.2597 69.6573 66.9197V46.6575C69.6573 46.0431 69.2095 45.7839 68.6501 46.0914ZM39.837 62.5466L19.2165 74.3171C18.9308 74.5018 18.693 74.7503 18.5223 75.0426C18.3516 75.3349 18.2528 75.6627 18.2338 75.9996V96.2612C18.2338 96.8762 18.6809 97.1348 19.2165 96.8149L39.837 85.0443C40.1296 84.8643 40.3739 84.6172 40.5492 84.3239C40.7246 84.0307 40.8258 83.7 40.8442 83.3598V63.0976C40.8442 62.4833 40.3965 62.226 39.837 62.5466ZM19.093 64.8558L68.5266 36.6301C68.8119 36.4452 69.0492 36.1966 69.2195 35.9044C69.3899 35.6121 69.4885 35.2844 69.5074 34.9476V19.1329C69.5074 18.5186 69.0602 18.2724 68.5266 18.5799L19.093 46.7926C18.8117 46.981 18.5778 47.2306 18.4094 47.5223C18.241 47.814 18.1425 48.1399 18.1216 48.4752V64.2898C18.1216 64.9042 18.5707 65.1634 19.093 64.8558Z" stroke="#D9EEED" stroke-width="2" stroke-linecap="round" stroke-linejoin="round"/>
<path d="M9.73215 133.21L8.89862 133.678" stroke="#D9EEED" stroke-width="1.16301" stroke-miterlimit="10" stroke-linecap="round"/>
</g>
</mask>
<g mask="url(#mask0_645_90926)">
<rect x="-28" y="87" width="124" height="54" fill="#09544F"/>
</g>
<defs>
<clipPath id="clip0_645_90926">
<rect width="78" height="138" fill="white"/>
</clipPath>
</defs>
</svg>
