<svg width="496" height="120" viewBox="0 0 496 120" fill="none" xmlns="http://www.w3.org/2000/svg">
<g clip-path="url(#clip0_1009_229766)">
<path d="M0 12C0 5.37259 5.37258 0 12 0H484C490.627 0 496 5.37258 496 12V120H0V12Z" fill="#09544F"/>
<path fill-rule="evenodd" clip-rule="evenodd" d="M156.895 91C163.773 91 170.169 94.5343 173.829 100.358L216.934 168.945C218.937 172.133 220 175.822 220 179.587L220 364C220 375.046 211.046 384 200 384L3.00003 384C-8.04566 384 -17 375.046 -17 364L-16.9999 111C-16.9999 99.9543 -8.04561 91 3.00008 91L156.895 91Z" fill="white"/>
</g>
<defs>
<clipPath id="clip0_1009_229766">
<path d="M0 12C0 5.37259 5.37258 0 12 0H484C490.627 0 496 5.37258 496 12V120H0V12Z" fill="white"/>
</clipPath>
</defs>
</svg>
