<svg width="288" height="120" viewBox="0 0 288 120" fill="none" xmlns="http://www.w3.org/2000/svg">
<g clip-path="url(#clip0_630_97786)">
<path d="M0 12C0 5.37259 5.37258 0 12 0H276C282.627 0 288 5.37258 288 12V120H0V12Z" fill="#09544F"/>
<path fill-rule="evenodd" clip-rule="evenodd" d="M73.2763 78C81.4744 78 88.8423 83.0031 91.8661 90.6231L126.59 178.126C127.521 180.474 128 182.977 128 185.503L128 364C128 375.046 119.045 384 108 384L-26.0003 384C-37.046 384 -46.0003 375.046 -46.0003 364L-46.0003 98C-46.0002 86.9543 -37.0459 78 -26.0002 78L73.2763 78Z" fill="white"/>
<path d="M76.1948 112.879C77.5172 111.434 77.0825 108.042 77.0825 105.849V44.319C77.0825 40.6284 76.8209 37.9953 73.9156 34.9447C72.1696 33.0895 63.6044 28.5924 60.891 27.0361L27.4398 8.05738C27.0204 7.89351 26.5706 7.81947 26.1201 7.8402C25.6697 7.86093 25.2288 7.976 24.8267 8.17767L17.059 12.606C19.238 11.5892 21.2249 13.2546 23.5348 14.5602L64.1592 37.7563C67.0554 39.452 69.3148 43.2916 69.3346 46.6125M69.3346 46.6125V114.515C69.3346 117.765 67.0142 119.091 64.1592 117.466C49.0785 108.851 35.8122 101.291 20.7207 92.6745C17.8765 91.0493 15.5452 87.0597 15.5452 83.8093V15.9163C15.5452 12.6553 17.8765 11.3289 20.7207 12.9557M69.3346 46.6125C69.27 44.7206 68.6916 42.8808 67.66 41.2859L75.4079 36.8597C76.4437 38.4557 77.0224 40.2995 77.0825 42.1947V110.087C77.0321 111.503 76.8209 112.55 75.5687 113.399L67.8316 117.816M34.6832 84.1983L26.6009 79.592M34.6832 60.6329L26.6009 56.017M58.0661 73.9862L49.9859 69.3687M54.0319 67.0557V76.2902M56.8658 100.065L51.2076 90.3509M56.8658 93.5923L51.1861 96.8336M30.6581 84.7769C30.3146 84.5772 30.0319 84.7361 30.0319 85.125C30.0438 85.3407 30.1067 85.5507 30.2154 85.7381C30.3242 85.9254 30.4758 86.085 30.6581 86.2039C31.0109 86.4021 31.2826 86.2427 31.2826 85.8431C31.2714 85.6293 31.2089 85.421 31.1004 85.2357C30.9918 85.0503 30.8402 84.893 30.6581 84.7769ZM30.6581 77.6075C30.3146 77.4077 30.0319 77.5666 30.0319 77.9561C30.044 78.1715 30.107 78.381 30.2157 78.568C30.3245 78.755 30.476 78.9142 30.6581 79.0329C31.0109 79.2326 31.2826 79.0631 31.2826 78.6742C31.2742 78.4595 31.2129 78.2503 31.1041 78.0644C30.9953 77.8785 30.8422 77.7217 30.6581 77.6075ZM27.3181 28.8912L30.2034 30.536V37.1178L27.3181 35.473V28.8912ZM39.0305 95.5979L22.2842 86.0429C22.0477 85.8963 21.8501 85.6959 21.7079 85.4584C21.5657 85.221 21.483 84.9533 21.4668 84.6778V68.2316C21.4668 67.733 21.8302 67.5241 22.2842 67.7737L39.0305 77.3372C39.2584 77.4881 39.4479 77.6891 39.5844 77.9243C39.7209 78.1595 39.8006 78.4226 39.8174 78.6933V95.1379C39.8174 95.6366 39.4545 95.8469 39.0305 95.5979ZM62.4043 108.941L45.6687 99.3872C45.4331 99.2393 45.2362 99.0383 45.0941 98.8008C44.9521 98.5633 44.8688 98.2959 44.8513 98.0205V81.5759C44.8513 81.0773 45.2147 80.8668 45.6687 81.1164L62.4043 90.6709C62.6354 90.8216 62.8278 91.0235 62.9662 91.2606C63.1047 91.4976 63.1853 91.7633 63.2018 92.0365V108.482C63.2018 108.99 62.8389 109.19 62.4043 108.941ZM22.2842 44.4075L39.0305 53.9726C39.2595 54.1246 39.4497 54.327 39.5862 54.564C39.7228 54.8009 39.8019 55.0659 39.8174 55.3382V71.7823C39.8174 72.281 39.4545 72.4914 39.0305 72.2317L22.2842 62.6783C22.0469 62.5322 21.8487 62.3317 21.7064 62.0938C21.5641 61.856 21.4819 61.5876 21.4668 61.3117V44.867C21.4668 44.3683 21.8302 44.1579 22.2842 44.4075ZM45.6687 57.7625L62.4043 67.3153C62.6361 67.4653 62.8291 67.667 62.9677 67.9042C63.1062 68.1414 63.1864 68.4074 63.2018 68.6809V85.125C63.2018 85.6242 62.8389 85.8341 62.4043 85.5744L45.6687 76.0215C45.4313 75.8754 45.233 75.6749 45.0907 75.4369C44.9484 75.1988 44.8663 74.9304 44.8513 74.6544V58.2097C44.8513 57.7111 45.2147 57.5023 45.6687 57.7625ZM62.5045 59.6366L22.3844 36.7289C22.1529 36.5787 21.9603 36.377 21.8221 36.1398C21.6838 35.9026 21.6037 35.6366 21.5884 35.3633V22.5282C21.5884 22.0296 21.9513 21.8298 22.3844 22.0794L62.5045 44.9766C62.7328 45.1295 62.9226 45.3321 63.0592 45.5689C63.1959 45.8056 63.2758 46.0701 63.2929 46.3422V59.1773C63.2929 59.6759 62.9283 59.8862 62.5045 59.6366Z" stroke="#D9EEED" stroke-width="2" stroke-linecap="round" stroke-linejoin="round"/>
<mask id="mask0_630_97786" style="mask-type:alpha" maskUnits="userSpaceOnUse" x="14" y="7" width="64" height="112">
<g clip-path="url(#clip1_630_97786)">
<path d="M76.1946 112.879C77.517 111.434 77.0822 108.042 77.0822 105.849V44.319C77.0822 40.6284 76.8207 37.9953 73.9153 34.9447C72.1693 33.0895 63.6042 28.5924 60.8908 27.0361L27.4395 8.05738C27.0202 7.89351 26.5703 7.81947 26.1199 7.8402C25.6694 7.86093 25.2286 7.976 24.8264 8.17767L17.0588 12.606C19.2377 11.5892 21.2247 13.2546 23.5346 14.5602L64.159 37.7563C67.0552 39.452 69.3146 43.2916 69.3344 46.6125M69.3344 46.6125V114.515C69.3344 117.765 67.0139 119.091 64.159 117.466C49.0782 108.851 35.8119 101.291 20.7204 92.6745C17.8762 91.0493 15.545 87.0597 15.545 83.8093V15.9163C15.545 12.6553 17.8762 11.3289 20.7204 12.9557M69.3344 46.6125C69.2698 44.7206 68.6913 42.8808 67.6598 41.286L75.4077 36.8597C76.4435 38.4557 77.0222 40.2995 77.0822 42.1947V110.087C77.0318 111.503 76.8207 112.55 75.5685 113.399L67.8313 117.816M34.683 84.1983L26.6007 79.592M34.683 60.6329L26.6007 56.017M58.0659 73.9862L49.9857 69.3687M54.0317 67.0557V76.2902M56.8656 100.065L51.2073 90.3509M56.8656 93.5923L51.1859 96.8336M30.6579 84.7769C30.3143 84.5772 30.0317 84.7361 30.0317 85.125C30.0436 85.3407 30.1064 85.5507 30.2152 85.7381C30.3239 85.9254 30.4755 86.085 30.6579 86.2039C31.0106 86.4021 31.2824 86.2427 31.2824 85.8431C31.2711 85.6293 31.2087 85.421 31.1001 85.2357C30.9915 85.0503 30.8399 84.893 30.6579 84.7769ZM30.6579 77.6075C30.3143 77.4077 30.0317 77.5666 30.0317 77.9561C30.0438 78.1715 30.1067 78.381 30.2155 78.568C30.3242 78.755 30.4757 78.9142 30.6579 79.0329C31.0106 79.2327 31.2824 79.0631 31.2824 78.6742C31.274 78.4595 31.2127 78.2503 31.1038 78.0644C30.995 77.8785 30.8419 77.7217 30.6579 77.6075ZM27.3179 28.8912L30.2032 30.536V37.1178L27.3179 35.473V28.8912ZM39.0303 95.5979L22.284 86.0429C22.0475 85.8963 21.8499 85.6959 21.7077 85.4584C21.5655 85.221 21.4828 84.9533 21.4665 84.6778V68.2316C21.4665 67.733 21.83 67.5241 22.284 67.7737L39.0303 77.3372C39.2581 77.4881 39.4477 77.6891 39.5842 77.9243C39.7207 78.1595 39.8004 78.4226 39.8171 78.6933V95.1379C39.8171 95.6366 39.4543 95.8469 39.0303 95.5979ZM62.404 108.941L45.6685 99.3872C45.4328 99.2393 45.236 99.0384 45.0939 98.8008C44.9518 98.5633 44.8686 98.2959 44.8511 98.0205V81.5759C44.8511 81.0773 45.2145 80.8669 45.6685 81.1164L62.404 90.6709C62.6352 90.8216 62.8276 91.0235 62.966 91.2606C63.1044 91.4976 63.1851 91.7633 63.2015 92.0365V108.482C63.2015 108.99 62.8387 109.19 62.404 108.941ZM22.284 44.4075L39.0303 53.9726C39.2593 54.1246 39.4495 54.327 39.586 54.564C39.7225 54.8009 39.8017 55.0659 39.8171 55.3382V71.7823C39.8171 72.281 39.4543 72.4914 39.0303 72.2317L22.284 62.6783C22.0466 62.5322 21.8485 62.3317 21.7062 62.0939C21.5639 61.856 21.4816 61.5876 21.4665 61.3117V44.867C21.4665 44.3683 21.83 44.1579 22.284 44.4075ZM45.6685 57.7625L62.404 67.3153C62.6359 67.4653 62.8289 67.667 62.9674 67.9042C63.1059 68.1414 63.1861 68.4074 63.2015 68.6809V85.125C63.2015 85.6242 62.8387 85.8341 62.404 85.5744L45.6685 76.0215C45.431 75.8754 45.2328 75.6749 45.0905 75.4369C44.9482 75.1988 44.866 74.9304 44.8511 74.6544V58.2097C44.8511 57.7111 45.2145 57.5023 45.6685 57.7625ZM62.5042 59.6367L22.3842 36.7289C22.1527 36.5787 21.9601 36.377 21.8218 36.1398C21.6836 35.9026 21.6035 35.6366 21.5882 35.3633V22.5282C21.5882 22.0296 21.9511 21.8298 22.3842 22.0794L62.5042 44.9766C62.7325 45.1295 62.9223 45.3321 63.059 45.5689C63.1957 45.8056 63.2756 46.0701 63.2926 46.3422V59.1773C63.2926 59.6759 62.9281 59.8862 62.5042 59.6367Z" stroke="#D9EEED" stroke-width="2" stroke-linecap="round" stroke-linejoin="round"/>
<path d="M70.1013 115.112L70.7778 115.492" stroke="#D9EEED" stroke-width="1.16301" stroke-miterlimit="10" stroke-linecap="round"/>
</g>
</mask>
<g mask="url(#mask0_630_97786)">
<rect width="100.638" height="43.8261" transform="matrix(-1 0 0 1 100.725 77.6086)" fill="#09544F"/>
</g>
</g>
<defs>
<clipPath id="clip0_630_97786">
<path d="M0 12C0 5.37259 5.37258 0 12 0H276C282.627 0 288 5.37258 288 12V120H0V12Z" fill="white"/>
</clipPath>
<clipPath id="clip1_630_97786">
<rect width="63.3043" height="112" fill="white" transform="matrix(-1 0 0 1 78 7)"/>
</clipPath>
</defs>
</svg>
