<svg width="496" height="120" viewBox="0 0 496 120" fill="none" xmlns="http://www.w3.org/2000/svg">
<g clip-path="url(#clip0_902_226889)">
<path d="M496 12C496 5.37259 490.627 0 484 0H12C5.37257 0 0 5.37258 0 12V120H496V12Z" fill="#09544F"/>
<path fill-rule="evenodd" clip-rule="evenodd" d="M339.105 91C332.227 91 325.831 94.5343 322.171 100.358L279.066 168.945C277.063 172.133 276 175.822 276 179.587L276 364C276 375.046 284.954 384 296 384L493 384C504.046 384 513 375.046 513 364L513 111C513 99.9543 504.046 91 493 91L339.105 91Z" fill="white"/>
</g>
<defs>
<clipPath id="clip0_902_226889">
<path d="M496 12C496 5.37259 490.627 0 484 0H12C5.37257 0 0 5.37258 0 12V120H496V12Z" fill="white"/>
</clipPath>
</defs>
</svg>
