<svg width="288" height="120" viewBox="0 0 288 120" fill="none" xmlns="http://www.w3.org/2000/svg">
<g clip-path="url(#clip0_630_97786)">
<path d="M288 12C288 5.37259 282.627 0 276 0H12C5.37259 0 0 5.37258 0 12V120H288V12Z" fill="#09544F"/>
<path fill-rule="evenodd" clip-rule="evenodd" d="M214.724 78C206.526 78 199.158 83.0031 196.134 90.6231L161.41 178.126C160.479 180.474 160 182.977 160 185.503L160 364C160 375.046 168.955 384 180 384L314 384C325.046 384 334 375.046 334 364L334 98C334 86.9543 325.046 78 314 78L214.724 78Z" fill="white"/>
<path d="M211.805 112.879C210.483 111.434 210.918 108.042 210.918 105.849V44.319C210.918 40.6284 211.179 37.9953 214.084 34.9447C215.83 33.0895 224.396 28.5924 227.109 27.0361L260.56 8.05738C260.98 7.89351 261.429 7.81947 261.88 7.8402C262.33 7.86093 262.771 7.976 263.173 8.17767L270.941 12.606C268.762 11.5892 266.775 13.2546 264.465 14.5602L223.841 37.7563C220.945 39.452 218.685 43.2916 218.665 46.6125M218.665 46.6125V114.515C218.665 117.765 220.986 119.091 223.841 117.466C238.922 108.851 252.188 101.291 267.279 92.6745C270.124 91.0493 272.455 87.0597 272.455 83.8093V15.9163C272.455 12.6553 270.124 11.3289 267.279 12.9557M218.665 46.6125C218.73 44.7206 219.308 42.8808 220.34 41.2859L212.592 36.8597C211.556 38.4557 210.978 40.2995 210.918 42.1947V110.087C210.968 111.503 211.179 112.55 212.431 113.399L220.168 117.816M253.317 84.1983L261.399 79.592M253.317 60.6329L261.399 56.017M229.934 73.9862L238.014 69.3687M233.968 67.0557V76.2902M231.134 100.065L236.792 90.3509M231.134 93.5923L236.814 96.8336M257.342 84.7769C257.685 84.5772 257.968 84.7361 257.968 85.125C257.956 85.3407 257.893 85.5507 257.785 85.7381C257.676 85.9254 257.524 86.085 257.342 86.2039C256.989 86.4021 256.717 86.2427 256.717 85.8431C256.729 85.6293 256.791 85.421 256.9 85.2357C257.008 85.0503 257.16 84.893 257.342 84.7769ZM257.342 77.6075C257.685 77.4077 257.968 77.5666 257.968 77.9561C257.956 78.1715 257.893 78.381 257.784 78.568C257.676 78.755 257.524 78.9142 257.342 79.0329C256.989 79.2326 256.717 79.0631 256.717 78.6742C256.726 78.4595 256.787 78.2503 256.896 78.0644C257.005 77.8785 257.158 77.7217 257.342 77.6075ZM260.682 28.8912L257.797 30.536V37.1178L260.682 35.473V28.8912ZM248.969 95.5979L265.716 86.0429C265.952 85.8963 266.15 85.6959 266.292 85.4584C266.434 85.221 266.517 84.9533 266.533 84.6778V68.2316C266.533 67.733 266.17 67.5241 265.716 67.7737L248.969 77.3372C248.742 77.4881 248.552 77.6891 248.416 77.9243C248.279 78.1595 248.199 78.4226 248.183 78.6933V95.1379C248.183 95.6366 248.545 95.8469 248.969 95.5979ZM225.596 108.941L242.331 99.3872C242.567 99.2393 242.764 99.0383 242.906 98.8008C243.048 98.5633 243.131 98.2959 243.149 98.0205V81.5759C243.149 81.0773 242.785 80.8668 242.331 81.1164L225.596 90.6709C225.365 90.8216 225.172 91.0235 225.034 91.2606C224.895 91.4976 224.815 91.7633 224.798 92.0365V108.482C224.798 108.99 225.161 109.19 225.596 108.941ZM265.716 44.4075L248.969 53.9726C248.74 54.1246 248.55 54.327 248.414 54.564C248.277 54.8009 248.198 55.0659 248.183 55.3382V71.7823C248.183 72.281 248.545 72.4914 248.969 72.2317L265.716 62.6783C265.953 62.5322 266.151 62.3317 266.294 62.0938C266.436 61.856 266.518 61.5876 266.533 61.3117V44.867C266.533 44.3683 266.17 44.1579 265.716 44.4075ZM242.331 57.7625L225.596 67.3153C225.364 67.4653 225.171 67.667 225.032 67.9042C224.894 68.1414 224.814 68.4074 224.798 68.6809V85.125C224.798 85.6242 225.161 85.8341 225.596 85.5744L242.331 76.0215C242.569 75.8754 242.767 75.6749 242.909 75.4369C243.052 75.1988 243.134 74.9304 243.149 74.6544V58.2097C243.149 57.7111 242.785 57.5023 242.331 57.7625ZM225.496 59.6366L265.616 36.7289C265.847 36.5787 266.04 36.377 266.178 36.1398C266.316 35.9026 266.396 35.6366 266.412 35.3633V22.5282C266.412 22.0296 266.049 21.8298 265.616 22.0794L225.496 44.9766C225.267 45.1295 225.077 45.3321 224.941 45.5689C224.804 45.8056 224.724 46.0701 224.707 46.3422V59.1773C224.707 59.6759 225.072 59.8862 225.496 59.6366Z" stroke="#D9EEED" stroke-width="2" stroke-linecap="round" stroke-linejoin="round"/>
<mask id="mask0_630_97786" style="mask-type:alpha" maskUnits="userSpaceOnUse" x="210" y="7" width="64" height="112">
<g clip-path="url(#clip1_630_97786)">
<path d="M211.805 112.879C210.483 111.434 210.918 108.042 210.918 105.849V44.319C210.918 40.6284 211.179 37.9953 214.085 34.9447C215.831 33.0895 224.396 28.5924 227.109 27.0361L260.56 8.05738C260.98 7.89351 261.43 7.81947 261.88 7.8402C262.331 7.86093 262.771 7.976 263.174 8.17767L270.941 12.606C268.762 11.5892 266.775 13.2546 264.465 14.5602L223.841 37.7563C220.945 39.452 218.685 43.2916 218.666 46.6125M218.666 46.6125V114.515C218.666 117.765 220.986 119.091 223.841 117.466C238.922 108.851 252.188 101.291 267.28 92.6745C270.124 91.0493 272.455 87.0597 272.455 83.8093V15.9163C272.455 12.6553 270.124 11.3289 267.28 12.9557M218.666 46.6125C218.73 44.7206 219.309 42.8808 220.34 41.286L212.592 36.8597C211.557 38.4557 210.978 40.2995 210.918 42.1947V110.087C210.968 111.503 211.179 112.55 212.432 113.399L220.169 117.816M253.317 84.1983L261.399 79.592M253.317 60.6329L261.399 56.017M229.934 73.9862L238.014 69.3687M233.968 67.0557V76.2902M231.134 100.065L236.793 90.3509M231.134 93.5923L236.814 96.8336M257.342 84.7769C257.686 84.5772 257.968 84.7361 257.968 85.125C257.956 85.3407 257.894 85.5507 257.785 85.7381C257.676 85.9254 257.524 86.085 257.342 86.2039C256.989 86.4021 256.718 86.2427 256.718 85.8431C256.729 85.6293 256.791 85.421 256.9 85.2357C257.008 85.0503 257.16 84.893 257.342 84.7769ZM257.342 77.6075C257.686 77.4077 257.968 77.5666 257.968 77.9561C257.956 78.1715 257.893 78.381 257.785 78.568C257.676 78.755 257.524 78.9142 257.342 79.0329C256.989 79.2327 256.718 79.0631 256.718 78.6742C256.726 78.4595 256.787 78.2503 256.896 78.0644C257.005 77.8785 257.158 77.7217 257.342 77.6075ZM260.682 28.8912L257.797 30.536V37.1178L260.682 35.473V28.8912ZM248.97 95.5979L265.716 86.0429C265.953 85.8963 266.15 85.6959 266.292 85.4584C266.435 85.221 266.517 84.9533 266.533 84.6778V68.2316C266.533 67.733 266.17 67.5241 265.716 67.7737L248.97 77.3372C248.742 77.4881 248.552 77.6891 248.416 77.9243C248.279 78.1595 248.2 78.4226 248.183 78.6933V95.1379C248.183 95.6366 248.546 95.8469 248.97 95.5979ZM225.596 108.941L242.332 99.3872C242.567 99.2393 242.764 99.0384 242.906 98.8008C243.048 98.5633 243.131 98.2959 243.149 98.0205V81.5759C243.149 81.0773 242.786 80.8669 242.332 81.1164L225.596 90.6709C225.365 90.8216 225.172 91.0235 225.034 91.2606C224.896 91.4976 224.815 91.7633 224.798 92.0365V108.482C224.798 108.99 225.161 109.19 225.596 108.941ZM265.716 44.4075L248.97 53.9726C248.741 54.1246 248.551 54.327 248.414 54.564C248.277 54.8009 248.198 55.0659 248.183 55.3382V71.7823C248.183 72.281 248.546 72.4914 248.97 72.2317L265.716 62.6783C265.953 62.5322 266.152 62.3317 266.294 62.0939C266.436 61.856 266.518 61.5876 266.533 61.3117V44.867C266.533 44.3683 266.17 44.1579 265.716 44.4075ZM242.332 57.7625L225.596 67.3153C225.364 67.4653 225.171 67.667 225.033 67.9042C224.894 68.1414 224.814 68.4074 224.798 68.6809V85.125C224.798 85.6242 225.161 85.8341 225.596 85.5744L242.332 76.0215C242.569 75.8754 242.767 75.6749 242.91 75.4369C243.052 75.1988 243.134 74.9304 243.149 74.6544V58.2097C243.149 57.7111 242.786 57.5023 242.332 57.7625ZM225.496 59.6367L265.616 36.7289C265.847 36.5787 266.04 36.377 266.178 36.1398C266.316 35.9026 266.396 35.6366 266.412 35.3633V22.5282C266.412 22.0296 266.049 21.8298 265.616 22.0794L225.496 44.9766C225.267 45.1295 225.078 45.3321 224.941 45.5689C224.804 45.8056 224.724 46.0701 224.707 46.3422V59.1773C224.707 59.6759 225.072 59.8862 225.496 59.6367Z" stroke="#D9EEED" stroke-width="2" stroke-linecap="round" stroke-linejoin="round"/>
<path d="M217.899 115.112L217.222 115.492" stroke="#D9EEED" stroke-width="1.16301" stroke-miterlimit="10" stroke-linecap="round"/>
</g>
</mask>
<g mask="url(#mask0_630_97786)">
<rect x="187.275" y="77.6086" width="100.638" height="43.8261" fill="#09544F"/>
</g>
</g>
<defs>
<clipPath id="clip0_630_97786">
<path d="M288 12C288 5.37259 282.627 0 276 0H12C5.37259 0 0 5.37258 0 12V120H288V12Z" fill="white"/>
</clipPath>
<clipPath id="clip1_630_97786">
<rect width="63.3043" height="112" fill="white" transform="translate(210 7)"/>
</clipPath>
</defs>
</svg>
