<svg xmlns="http://www.w3.org/2000/svg" viewBox="0 0 106.7 109.41"><defs><style>.cls-1{fill:none;stroke:#fff;stroke-miterlimit:10;}.cls-2{fill:#231f20;}.cls-3{fill:#e8b909;}.cls-4{fill:#0054a4;}.cls-5{fill:#a30046;}.cls-6{fill:#fff;}.cls-7{fill:#fd0;}.cls-8{fill:#e31837;}</style></defs><title>ZH_logo-without - vertical color (dark bg)</title><g id="Layer_2" data-name="Layer 2"><g id="TEXTOS"><line class="cls-1" x1="83.42" y1="71.83" x2="25.65" y2="71.83"/><path class="cls-2" d="M83.4,29.29l-.86-.9C78.86,24.55,73.67,15,80.3,6.08l.52-.69-.46-.74a9,9,0,0,0-.79-1.07c-.21-.26-.42-.53-.71-.94l-.55-.79-.9.32a12.5,12.5,0,0,1-4.06.71c-3.79,0-6.28-.37-9.33-2.4L63.3,0l-.7.49a13.82,13.82,0,0,1-8.2,2.77A13.87,13.87,0,0,1,46.19.49L45.49,0l-.71.48c-3.06,2-5.54,2.4-9.33,2.4a12.6,12.6,0,0,1-4.07-.71l-.89-.32-.55.79c-.29.41-.51.68-.72.93a9,9,0,0,0-.78,1.08L28,5.39l.52.69c6.63,8.87,1.43,18.47-2.24,22.31l-.86.9.87.88c.48.47,1.31,1.35,2,2.08a.49.49,0,0,0,0,.12,2.54,2.54,0,0,1,0,.26v.08c-.34,6.4,1.32,11.66,4.92,15.65C37,52.59,43,55.12,50,55.51c1.75,1.61,3.53,2.93,3.61,3l.75.57.76-.57c.08-.06,1.84-1.39,3.59-3,7.07-.39,13-2.92,16.87-7.15,3.61-4,5.26-9.25,4.93-15.65v-.08c0-.12,0-.17,0-.26v-.12c.69-.73,1.53-1.61,2-2.08Zm-4.19,2.5c.07.64,0,.61.08,1C80,47,70.17,53.76,58.24,54.26,56.41,56,54.4,57.48,54.4,57.48s-2-1.51-3.84-3.22c-11.93-.5-21.81-7.23-21-21.48,0-.38,0-.35.07-1-.68-.73-1.82-1.92-2.41-2.52,4.28-4.47,9.27-14.69,2.34-23.95.45-.74.78-1,1.46-1.95a13.87,13.87,0,0,0,4.48.78c4,0,6.69-.39,10-2.62a15.13,15.13,0,0,0,8.93,3,15.12,15.12,0,0,0,8.92-3c3.33,2.23,6.05,2.62,10,2.62a13.81,13.81,0,0,0,4.47-.78c.68,1,1,1.21,1.47,2-6.94,9.26-1.94,19.48,2.34,24-.6.6-1.73,1.79-2.42,2.52"/><path class="cls-3" d="M54.4,57.48a48.51,48.51,0,0,1-3.84-3.22c-11.93-.5-21.81-7.23-21-21.48,0-.38,0-.35.07-1-.68-.72-1.82-1.91-2.41-2.51,4.28-4.47,9.27-14.69,2.34-23.95.45-.74.78-1,1.46-1.95a13.87,13.87,0,0,0,4.48.79c4,0,6.69-.4,10-2.62a15.18,15.18,0,0,0,8.92,3,15.16,15.16,0,0,0,8.93-3c3.34,2.22,6.05,2.62,10,2.62a13.83,13.83,0,0,0,4.48-.79c.68,1,1,1.21,1.46,2-6.92,9.26-1.93,19.48,2.35,24-.6.6-1.73,1.79-2.41,2.51.06.65,0,.62.06,1C80,47,70.17,53.76,58.23,54.26a49.4,49.4,0,0,1-3.83,3.22"/><path class="cls-4" d="M38.05,32.12H31.77c0,.41-.06.43-.1.84-.37,7.2,2.14,12.11,6.38,15.17Z"/><path class="cls-5" d="M38.05,48.13a20.09,20.09,0,0,0,6.59,3v-19H38.05Z"/><path class="cls-4" d="M44.64,51.13a31.13,31.13,0,0,0,6.59,1v-20H44.64Z"/><path class="cls-5" d="M57.82,32.12h-6.6v20h.23c2.19,0,4.18,0,5.89,0l.48,0Z"/><path class="cls-4" d="M57.82,52.1a31.2,31.2,0,0,0,6.59-1v-19H57.82Z"/><path class="cls-5" d="M64.4,51.07A19.61,19.61,0,0,0,71,47.94V32.12H64.4Z"/><path class="cls-4" d="M77,32.12H71V48c4.09-3.07,6.49-7.93,6.14-15,0-.41-.07-.43-.11-.84"/><path class="cls-2" d="M55,52.32H51.45c-7-.29-12.53-2.43-15.92-6.18-3-3.27-4.33-7.7-4.05-13.18,0-.2,0-.31.05-.4s0-.23.06-.45v-.17H77.2v.17c0,.22,0,.32.05.45a3.91,3.91,0,0,1,0,.39c.28,5.49-1.08,9.92-4,13.19-3.4,3.75-8.9,5.89-15.91,6.18H55M32,32.31c0,.12,0,.21,0,.29a2.2,2.2,0,0,0-.05.38c-.27,5.36,1,9.7,4,12.89,3.33,3.68,8.74,5.77,15.65,6.06h5.88c6.91-.29,12.32-2.38,15.65-6.06,2.89-3.19,4.22-7.53,3.94-12.9,0-.17,0-.28,0-.37a1.84,1.84,0,0,1,0-.29Z"/><path class="cls-3" d="M48.06,41.85a6.32,6.32,0,1,1,6.31,6.35,6.34,6.34,0,0,1-6.31-6.35"/><path class="cls-2" d="M54.38,35.68a6.17,6.17,0,1,0,6.12,6.17,6.16,6.16,0,0,0-6.12-6.17m0,12.45a6.29,6.29,0,1,1,6.24-6.28,6.27,6.27,0,0,1-6.24,6.28"/><path class="cls-2" d="M54.37,35.49a6.36,6.36,0,1,1-6.31,6.36,6.34,6.34,0,0,1,6.31-6.36M51.15,43C50,42,50,39.83,50.31,38.41c.09-.39.19-.78.31-1.22a6,6,0,0,0-1.78,6.9,1.73,1.73,0,0,0,.32,0,2.18,2.18,0,0,0,2-1.12m6.14.46c-.2,1-1.27,1.76-2.28,2.36a9.1,9.1,0,0,1-4,1,5.85,5.85,0,0,0,3.32,1,5.94,5.94,0,0,0,5.22-3.1,1.57,1.57,0,0,0-2.3-1.28m-6.71,3a9.33,9.33,0,0,0,4.25-1c1.42-.84,2.52-1.75,2-3a1.43,1.43,0,0,0-2.28-.56,2,2,0,0,1-2,1.66,2.48,2.48,0,0,1-1.07-.38,2.53,2.53,0,0,1-2.27,1.25H49a6.19,6.19,0,0,0,1.57,2m3.78-8.37c1-.41,2.35.12,3.39.71a6.86,6.86,0,0,1,2.57,2.66,6,6,0,0,0-5.9-5.63,1.32,1.32,0,0,0-.06,2.26m-.17,3.83a2.33,2.33,0,0,1-.62-3.15A1.93,1.93,0,0,1,54,38.3a1.66,1.66,0,0,1-.17-2.43,6,6,0,0,0-2.79,1,14,14,0,0,0-.58,3.33c0,1.59.68,2.88,2.06,3.06a1.71,1.71,0,0,0,1.65-1.31m6.12.46a6.23,6.23,0,0,0-2.73-3.27c-1.44-.81-3-1.25-3.71-.15a2,2,0,0,0,.5,2.65,1.77,1.77,0,0,1,2.78.73,1.93,1.93,0,0,1,.17.7,1.93,1.93,0,0,1,2.53,1.17,6.23,6.23,0,0,0,.46-1.83"/><path class="cls-2" d="M61.89,30.94H59.21V25h2.71c1.18,0,1.89.6,1.89,1.6a1.35,1.35,0,0,1-.54,1.11A1.42,1.42,0,0,1,64,29a1.86,1.86,0,0,1-2.11,1.93M60.47,29.7h1.46c.49,0,.75-.23.75-.68s-.24-.67-.75-.67H60.47Zm0-2.51h1.45c.4,0,.58-.15.58-.47s-.08-.49-.64-.49H60.47Z"/><path class="cls-2" d="M53.93,31c-1.56,0-2.58-1.19-2.58-3.05s1.08-3.05,2.62-3.05a2.27,2.27,0,0,1,2.17,1.32l0,.07L55,26.87l0-.06a1,1,0,0,0-1-.59c-.8,0-1.29.68-1.29,1.76s.52,1.77,1.3,1.77a1.13,1.13,0,0,0,1.06-.7l0-.06,1.08.64,0,.06A2.26,2.26,0,0,1,53.93,31"/><polygon class="cls-2" points="46.04 30.94 44.75 30.94 44.75 25.02 49 25.02 49 26.29 46.04 26.29 46.04 27.24 47.77 27.24 47.77 28.5 46.04 28.5 46.04 30.94"/><path class="cls-6" d="M33.28,23.81c2.17-5,3-11.45-.67-17.74a16.48,16.48,0,0,0,2.84.26c3.74,0,6.68-.34,10-2.22a16.84,16.84,0,0,0,9,2.6,16.82,16.82,0,0,0,9-2.6c3.31,1.88,6.26,2.22,10,2.22a15.74,15.74,0,0,0,2.85-.27c-3.66,6.3-2.85,12.74-.68,17.75Z"/><path class="cls-7" d="M54.21,6.71v17.1h2.26V6.58a17.73,17.73,0,0,1-2.08.13h-.18"/><path class="cls-8" d="M56.47,23.81h2.26V6.13a16.74,16.74,0,0,1-2.26.45Z"/><path class="cls-7" d="M58.72,23.81H61V5.34a15.9,15.9,0,0,1-2.26.79Z"/><path class="cls-8" d="M61,23.81h2.26V4.18A17.85,17.85,0,0,1,61,5.34Z"/><path class="cls-7" d="M63.24,4.18V23.81H65.5V5.14a16.73,16.73,0,0,1-2.15-1,.67.67,0,0,1-.11.07"/><path class="cls-8" d="M65.5,23.81h2.26v-18a15.84,15.84,0,0,1-2.26-.69Z"/><path class="cls-7" d="M67.76,23.81H70V6.19a16.89,16.89,0,0,1-2.26-.36Z"/><path class="cls-8" d="M70,23.78h2.27V6.29c-.78,0-1.54,0-2.27-.12Z"/><path class="cls-7" d="M76,6.08a14.87,14.87,0,0,1-2.69.25H72.27V23.81h3.25c-2.14-4.93-3-11.24.51-17.45Z"/><path class="cls-8" d="M41.33,18v5.8h6.29V18h6.7V11.69h-6.7V5.26a19.69,19.69,0,0,1-2.18-1.15,15.58,15.58,0,0,1-4.11,1.65v5.93H34.76A18.49,18.49,0,0,1,34.93,18Z"/><path class="cls-2" d="M76.58,5.79l-.42.08a15.2,15.2,0,0,1-2.82.27c-3.81,0-6.66-.36-9.89-2.19l-.1-.06L63.26,4a16.64,16.64,0,0,1-8.87,2.57A16.62,16.62,0,0,1,45.54,4l-.09-.06-.1.06c-3.24,1.83-6.08,2.19-9.9,2.19a15.47,15.47,0,0,1-2.81-.26l-.4-.07.2.36c3.92,6.74,2.52,13.27.66,17.56L33,24H75.81l-.12-.27c-1.86-4.29-3.25-10.82.67-17.58ZM33,6.32a15.33,15.33,0,0,0,2.48.2c3.84,0,6.72-.36,10-2.19A17,17,0,0,0,54.13,6.9V23.62H33.57A19.36,19.36,0,0,0,33,6.32m42.26,17.3H54.51V6.9a17.14,17.14,0,0,0,8.85-2.57c3.26,1.83,6.14,2.19,10,2.19a15.13,15.13,0,0,0,2.49-.21,19.35,19.35,0,0,0-.6,17.31"/><path class="cls-6" d="M0,84.1H9.68V90h-8V92A1,1,0,0,0,2.81,93.1H7.39a1.48,1.48,0,0,0,1.07-.31,4.41,4.41,0,0,0,.41-2.14c.7.28,1.29.51,1.79.68-.13.77-.25,1.39-.37,1.88a1.81,1.81,0,0,1-.74,1.12A2.68,2.68,0,0,1,8,94.7H2.46C.82,94.7,0,93.85,0,92.14Zm1.69,4.35H4V85.69H1.69ZM8,85.69H5.68v2.76H8Z"/><path class="cls-6" d="M22.65,91.88l-.74,1.27a9.5,9.5,0,0,1-2-1.36v.83H17.66v.77h4.07v1.22H12V93.39h4.16v-.77H13.9v-.9a14.14,14.14,0,0,1-2,1.38c-.21-.35-.48-.75-.79-1.21a10.58,10.58,0,0,0,2.44-1.35H11.41V89.35h2.91v-.56H12.25v-1h2.07v-.56H13.17v-1h1.15v-.64H15.8v.64H18v-.64H19.5v.64h1.15v1H19.5v.56h2.11v1H19.5v.56h2.93v1.19H20.31A9,9,0,0,0,22.65,91.88Zm-.29-5.13H20.93V85.41h-8v1.34H11.46V84.22h4.59c-.09-.24-.19-.48-.29-.72l1.87-.13c.1.28.19.57.29.85h4.44Zm-6.22,4h1.52v.73h1.88c-.3-.28-.6-.59-.9-.92H15.13c-.31.33-.62.64-.94.92h2ZM15.8,87.8H18v-.56H15.8Zm0,1.55H18v-.56H15.8Z"/><path class="cls-6" d="M33.56,88.86v1.42q-3,3.63-9,4.72l-.84-1.47a19,19,0,0,0,3.74-1c-.4-.26-.89-.58-1.47-.94l1.16-1.07c.82.49,1.49.91,2,1.25a12.83,12.83,0,0,0,2.35-1.57H26.54a12.24,12.24,0,0,1-2.34,1.9c-.46-.54-.83-1-1.1-1.23A10.35,10.35,0,0,0,26.39,88H23.77V83.78H34.08V88H28.21c-.17.3-.35.58-.54.85Zm-8.21-2.18h1.33V85.12H25.35Zm2.9,0h1.33V85.12H28.25Zm4.23,0V85.12H31.15v1.56Z"/><path class="cls-6" d="M35.24,89.64h1.28c0-.23,0-.67,0-1.32H35.23V86.84h1.36c0-.39,0-.82,0-1.29H35.32V84.08h5.73L41,90.6c0,1.36-.05,2.2-.09,2.51a1.92,1.92,0,0,1-.3.81,1.31,1.31,0,0,1-.64.49,7.36,7.36,0,0,1-2,.12c-.1-.59-.2-1.11-.32-1.58a10,10,0,0,0,1.1.06.8.8,0,0,0,.48-.14.55.55,0,0,0,.2-.43c0-.19,0-.63,0-1.32H37.93A7.93,7.93,0,0,1,36.38,95c-.58-.52-1-.91-1.33-1.16a5.13,5.13,0,0,0,1.28-2.74H35.24Zm4.25-1.32h-1.4q0,.34,0,1.32h1.41Zm0-2.77H38.14l0,1.29H39.5Zm6,2.91a4.05,4.05,0,0,1,1.12,2.77A2.37,2.37,0,0,1,46,93a3.37,3.37,0,0,1-2.44.46l-.25-1.08V95H41.78V84.08h4.63v1.1Zm-1.62.21.92-3.16H43.3V91.8a10.67,10.67,0,0,0,1.09.06q.72,0,.72-.78a2.09,2.09,0,0,0-.27-1A10.47,10.47,0,0,0,43.85,88.67Z"/><path class="cls-6" d="M48.47,83.79h8.87v4.76h-3.4V90.1h4v1.44h-4v1.59c1,0,2.63,0,4.79,0-.21.64-.38,1.17-.49,1.58-2.62,0-4.38,0-5.29-.07a5.49,5.49,0,0,1-2.15-.47A2.88,2.88,0,0,1,49.55,93a6.83,6.83,0,0,1-1.5,2c-.25-.37-.57-.85-1-1.44A6.14,6.14,0,0,0,49,89.14l1.56.22a13.31,13.31,0,0,1-.33,1.91A2.91,2.91,0,0,0,52.27,93V88.55h-3.8Zm7.24,3.31V85.25H50.1V87.1Z"/><path class="cls-6" d="M59.37,94.22,59,92.56l1.38-.28V89.43H59.29V88h1.13V85.6H59.18V84.1h4v1.5H62V88h1v1.48H62V92l1.18-.26c0,.58,0,1.11,0,1.59Q61.23,93.7,59.37,94.22Zm9.34-10.84a17.86,17.86,0,0,1,1.54,1.29l-.61.65h.9v1.43H67.62v.78c.15.42.32.83.5,1.22.51-.57,1-1.1,1.35-1.6l1.28,1c-.59.63-1.23,1.27-1.94,1.92a11.09,11.09,0,0,0,2,2.37A14.11,14.11,0,0,0,69.87,94a13.16,13.16,0,0,1-2.25-3.18v2.54a1.63,1.63,0,0,1-.31,1.06,1.37,1.37,0,0,1-1,.41c-.44,0-1,0-1.79,0a10.4,10.4,0,0,0-.32-1.59c.51,0,.89.07,1.13.07.5,0,.74-.27.72-.8V91.41Q65,92.16,63.7,93L63,91.39c.81-.44,1.83-1,3.06-1.82V86.75H63.34V85.32h2.73V83.4h1.55v1.92H69c-.37-.36-.76-.7-1.16-1Zm-4.34,3.75c.41.57.85,1.27,1.34,2.1l-1.32.8a19.91,19.91,0,0,0-1.24-2.16Z"/><path class="cls-6" d="M73,83.34l1.54.41c-.25.83-.54,1.65-.86,2.46V95H72.14V89.44c-.24.42-.49.84-.74,1.26-.08-.63-.21-1.36-.37-2.19A30.65,30.65,0,0,0,73,83.34Zm5.88,10.12.74-1.11H77.06l.79,1.12c-1,.57-2,1.09-3,1.54a9.83,9.83,0,0,0-.8-1.32,23.08,23.08,0,0,0,2.89-1.34H74.06V91H75V83.81h6.77V91h1v1.32H79.83c1,.44,1.93.88,2.86,1.34L81.86,95C80.93,94.5,79.94,94,78.89,93.46Zm1.36-8.34H76.52v.63h3.73Zm-3.73,2.39h3.73v-.63H76.52Zm0,1.76h3.73v-.64H76.52Zm0,1.76h3.73v-.64H76.52Z"/><path class="cls-6" d="M85.61,90l1.51.8a23.67,23.67,0,0,1-2.73,3.64,12.58,12.58,0,0,0-1.32-1.09A18.11,18.11,0,0,0,85.61,90Zm2.68-3.8h1.76v2h4.12v1.55H90.05v3.11a2.14,2.14,0,0,1-.42,1.43,1.63,1.63,0,0,1-1.16.53q-.73.06-2.07.06c-.13-.69-.26-1.27-.4-1.75a12,12,0,0,0,1.49.1c.53,0,.8-.24.8-.71V89.68H83.63l.85-5.53a84.56,84.56,0,0,0,8.52-.6l.6,1.56q-3.46.39-7.51.48l-.44,2.54h2.64ZM92.21,90a40.79,40.79,0,0,1,2.48,3.27c-.53.34-1,.68-1.54,1a32.44,32.44,0,0,0-2.24-3.42Z"/><path class="cls-6" d="M101.44,86H99.9l1.27.52c-.26.4-.53.81-.83,1.24h1.36V89H95.12V87.73h1.4c-.23-.35-.48-.72-.78-1.1L96.88,86H95.39V84.66h2.27a9.61,9.61,0,0,0-.41-1L99,83.34c.15.4.3.84.43,1.32h2Zm-5.79,8.71V89.94h5.52v4.67H99.69V94H97.13v.67Zm2.45-7.39-.81.44h1.3a11.84,11.84,0,0,0,1-1.76H97.07A13,13,0,0,1,98.1,87.29Zm1.59,4H97.13V92.7h2.56Zm5.52-3a4.51,4.51,0,0,1,1.49,3.22,2.07,2.07,0,0,1-.52,1.51,3,3,0,0,1-2.14.52,13,13,0,0,0-.29-1.69,4.22,4.22,0,0,0,.65.07.63.63,0,0,0,.72-.71,4.17,4.17,0,0,0-1.41-2.78c.41-1,.79-2,1.15-3.09h-1.28V95h-1.5V84h4.4v1.12C106.2,85.83,105.78,86.9,105.21,88.27Z"/><path class="cls-6" d="M5.48,100.94V98.86h4.61L9.73,98l2-.2.36,1.11h4.22v2.08H14.7v-.71H7.1v.71Zm9.36.28v3.34H8.25v.75h7.14v4H13.7v-.63H8.25v.66H6.56v-8.17Zm-1.63,2.1v-.86h-5v.86Zm.49,3.25H8.25v.89H13.7Z"/><path class="cls-6" d="M22.48,109.16c-.14-.7-.28-1.3-.43-1.79q1.47.06,2,.06a1.92,1.92,0,0,0,.61-.07.85.85,0,0,0,.34-.21.8.8,0,0,0,.18-.34c0-.13.06-.56.1-1.29s.06-1.24.06-1.51H21.64a7.26,7.26,0,0,1-3.3,5.4c-.2-.28-.62-.8-1.27-1.55a6.31,6.31,0,0,0,2-1.9,5,5,0,0,0,.79-2.08A28.7,28.7,0,0,0,20,101H17.33V99.41H22.2l-.46-1.18,1.86-.43c.26.64.45,1.18.59,1.61h4.29V101H21.76c0,.49,0,1,0,1.5H27.2c0,1-.08,2.09-.14,3.18s-.12,1.77-.17,2a1.82,1.82,0,0,1-.33.74,1.44,1.44,0,0,1-.61.5,3.63,3.63,0,0,1-1.12.2C24.33,109.15,23.55,109.16,22.48,109.16Z"/><path class="cls-6" d="M33.2,103.07a10.29,10.29,0,0,0,1.7,2.24,7.59,7.59,0,0,0,1.64-2.26l1.38.92a11.2,11.2,0,0,1-1.69,2.35,11.89,11.89,0,0,0,4.48,1.3c-.39.65-.71,1.21-1,1.67a10.7,10.7,0,0,1-4.83-1.81,11.7,11.7,0,0,1-4.9,1.86,12.29,12.29,0,0,0-1-1.68,12.17,12.17,0,0,0,4.51-1.36A11.85,11.85,0,0,1,31.89,104Zm-4-3.86h4.73c-.15-.37-.29-.69-.41-1l1.73-.52c.19.37.43.86.73,1.48h4.53v1.48H29.2Zm.07,4.2a24.21,24.21,0,0,0,3.39-2.7l1.27,1.16a41.86,41.86,0,0,1-3.55,2.9A16.11,16.11,0,0,0,29.27,103.41ZM37,100.75q1.93,1.36,3.48,2.57l-1.22,1.34c-1.08-1-2.19-1.91-3.34-2.77Z"/><path class="cls-6" d="M42.41,98.16H51.5v5.09H45.44c-.15.21-.3.42-.46.62h7.23L52,107.11a2.79,2.79,0,0,1-.43,1.47,1.43,1.43,0,0,1-.76.59,15,15,0,0,1-2.21.09c-.11-.49-.25-1-.42-1.57a8.92,8.92,0,0,1-2.08,1.71c-.38-.3-.85-.62-1.4-1A7.11,7.11,0,0,0,48,105.19H46.83A9.25,9.25,0,0,1,42.18,109c-.29-.33-.67-.73-1.15-1.18a8.11,8.11,0,0,0,3.88-2.64H43.75a11,11,0,0,1-1.53,1.17c-.26-.28-.65-.65-1.15-1.1a7.71,7.71,0,0,0,2.54-2h-1.2Zm7.47,1.3H44v.69h5.84Zm0,2.49v-.7H44v.7Zm-1.64,5.67a9.84,9.84,0,0,0,1.19.07,1.39,1.39,0,0,0,.55-.07.6.6,0,0,0,.25-.25,2.59,2.59,0,0,0,.17-.88c.05-.47.08-.9.1-1.3h-.78A9,9,0,0,1,48.24,107.62Z"/><path class="cls-6" d="M60.38,97.8l-.43.51a11.72,11.72,0,0,0,4.77,3.4c-.41.52-.77,1-1.06,1.4a15,15,0,0,1-1.43-.78V103H55.57v-.7c-.45.3-.94.6-1.46.91a13,13,0,0,0-1-1.39,13.41,13.41,0,0,0,5.09-4Zm-5.84,11.6V104h8.72v5.44h-1.6v-.54H56.13v.54Zm7.12-3.92H56.13v1.86h5.53Zm-2.77-6a14,14,0,0,1-2.18,2H61A13.53,13.53,0,0,1,58.89,99.5Z"/><path class="cls-6" d="M67.37,97.84l1.57.46c-.25.79-.53,1.55-.84,2.29v8.73H66.5v-5.61q-.48.78-1,1.53c-.08-.6-.21-1.33-.39-2.18A20.47,20.47,0,0,0,67.37,97.84ZM76,104H72.87v1.44h3.44V107H72.87v2.37H71.21v-8.21h-.34a14,14,0,0,1-1.64,2.82q-.33-.64-.9-1.53a16.3,16.3,0,0,0,2.09-4.64l1.52.37c-.15.51-.3,1-.47,1.47h5.24v1.51H72.87v1.45H76Z"/><path class="cls-6" d="M79.45,97.91l1.51.45c-.28.87-.58,1.69-.92,2.47v8.39H78.5v-5.47a14.62,14.62,0,0,1-1,1.34c-.12-.68-.28-1.41-.46-2.17A16.43,16.43,0,0,0,79.45,97.91Zm4.23-.07h1.7L85.3,101a9.48,9.48,0,0,0,.79,3.85,6.26,6.26,0,0,0,2.63,2.89c-.42.47-.86,1-1.31,1.5a7.92,7.92,0,0,1-2.82-4.58,7.84,7.84,0,0,1-3.24,4.64c-.37-.59-.71-1.09-1-1.51a6.33,6.33,0,0,0,2.33-2.46,8.45,8.45,0,0,0,.92-3.52C83.64,100.53,83.68,99.19,83.68,97.84ZM81.91,100l1.3,3.11-1.46.64c-.41-1.14-.83-2.2-1.25-3.18Zm5.23-.2,1.55.65c-.71,1.56-1.24,2.67-1.61,3.34l-1.4-.74A29.85,29.85,0,0,0,87.14,99.78Z"/><path class="cls-6" d="M91.32,97.8l1.61.51c-.26.8-.54,1.55-.82,2.27v8.64H90.54v-5.29c-.31.55-.62,1.07-1,1.57l-.52-2.29A24.22,24.22,0,0,0,91.32,97.8Zm1.31,7.34h3.25v-1.25H93.05v-1.5h2.83V97.84h1.69v4.55h2.79v1.5H97.57v1.25h3.15v1.5H97.57v2.64H95.88v-2.64H92.63Zm1.76-6.45c.14.33.49,1.2,1,2.61l-1.42.53c-.24-.63-.59-1.5-1.07-2.63Zm4.79-.07,1.44.57-1.27,2.7L98,101.31C98.42,100.44,98.81,99.54,99.18,98.62Z"/></g></g></svg>