<?xml version="1.0" encoding="utf-8"?>
<!-- Generator: Adobe Illustrator 25.2.0, SVG Export Plug-In . SVG Version: 6.00 Build 0)  -->
<svg version="1.1" id="Layer_1" xmlns="http://www.w3.org/2000/svg" xmlns:xlink="http://www.w3.org/1999/xlink" x="0px" y="0px"
	 viewBox="0 0 369.3 71.8" style="enable-background:new 0 0 369.3 71.8;" xml:space="preserve">
<style type="text/css">
	.st0{fill:#00BE40;}
	.st1{fill:#FFFFFF;}
	.st2{fill:#E8B909;}
	.st3{fill:#FFDD00;}
	.st4{fill:#0054A4;}
	.st5{fill:#A30046;}
	.st6{fill:#E31937;}
	.st7{fill:#231F20;}
</style>
<g>
	<g>
		<path class="st0" d="M7,0h57.8c3.8,0,7,3.1,7,7c0,0,0,0,0,0v57.8c0,3.8-3.1,7-7,7c0,0,0,0,0,0H7c-3.8,0-7-3.1-7-7c0,0,0,0,0,0V7
			C0,3.1,3.1,0,7,0C7,0,7,0,7,0"/>
		<rect x="14.2" y="45.4" class="st1" width="43.4" height="3.4"/>
		<polygon class="st1" points="26.1,28.2 26.1,24.7 14.2,24.7 14.2,41.1 18.6,41.1 18.6,35.2 25.3,35.2 25.3,31.7 18.6,31.7 
			18.6,28.2 		"/>
		<path class="st1" d="M39,32.6c1.5-0.5,2.6-2,2.6-3.6c0-2.6-2-4.2-5.3-4.2H28v16.4h8.5c3.6,0,5.8-1.7,5.8-4.6
			C42.2,34.6,40.9,32.9,39,32.6 M32.3,28h3.3c1.2,0,1.9,0.6,1.9,1.6c0,1-0.7,1.6-1.9,1.6h-3.3V28z M35.9,37.7h-3.6v-3.3h3.7
			c1.2,0,1.9,0.6,1.9,1.7C37.8,37.2,37.1,37.7,35.9,37.7L35.9,37.7z"/>
		<path class="st1" d="M52.7,31.1l-2-0.3c-1.9-0.3-2.5-0.8-2.5-1.7s0.8-1.5,2.4-1.5c1.3-0.2,2.5,0.7,2.7,2c0,0,0,0,0,0l4.1-0.5
			c-0.6-3.2-2.9-4.8-6.7-4.8c-4.2,0-7,2.1-7,5.3c0,2.8,1.7,4.4,5.1,4.9l2.1,0.3c2.2,0.3,2.7,0.8,2.7,1.8s-0.8,1.5-2.7,1.5
			c-1.4,0.1-2.7-0.8-3.1-2.2l-4.3,0.6c0.7,3.3,3.2,4.9,7.3,4.9c4.6,0,7.3-2,7.3-5.3C58.1,33.2,56.4,31.7,52.7,31.1"/>
	</g>
	<g>
		<path class="st2" d="M180.7,1.1l0.4,0.2C185,4,188.2,4.4,193,4.4c1.8,0,3.6-0.3,5.3-0.9l0.5-0.2l2.3,3.2l-0.2,0.3
			c-8.5,11.3-1.9,23.4,2.8,28.3l0.4,0.4l-0.4,0.4c-0.6,0.6-1.7,1.7-2.5,2.5l-0.3,0.3l0,0.4l0,0.1c0,0.1,0,0.2,0,0.4l0,0.1
			c0.4,7.5-1.6,13.7-5.8,18.3c-4.5,4.9-11.6,7.9-20,8.4l-0.3,0l-0.2,0.2c-2.1,1.9-4.3,3.6-4.3,3.6l-0.4,0.3l-0.4-0.3
			c-0.1-0.1-2.2-1.7-4.3-3.6l-0.2-0.2l-0.3,0c-8.4-0.5-15.5-3.4-20-8.4c-4.2-4.7-6.2-10.8-5.8-18.3l0-0.1c0-0.2,0-0.3,0-0.4l0,0v0
			l0-0.1l0-0.4l-0.3-0.3c-0.7-0.8-1.8-1.9-2.5-2.5l-0.4-0.4l0.4-0.4c4.7-4.9,11.3-17,2.8-28.3l-0.2-0.3l2.3-3.2l0.5,0.2
			c1.7,0.6,3.5,0.9,5.3,0.9c4.8,0,8-0.5,11.9-3.1l0.4-0.2l0.4,0.2c3,2.3,6.7,3.5,10.5,3.5c3.8,0,7.5-1.3,10.5-3.5L180.7,1.1"/>
		<path class="st1" d="M144,28.9c2.7-6.1,3.6-13.9-0.8-21.5c1.1,0.2,2.3,0.3,3.5,0.3c4.6,0,8.2-0.4,12.2-2.7
			c3.3,2.1,7.1,3.1,10.9,3.2c3.9,0,7.7-1.1,10.9-3.2c4,2.3,7.6,2.7,12.2,2.7c1.2,0,2.3-0.1,3.5-0.3c-4.5,7.7-3.5,15.5-0.8,21.6H144"
			/>
		<path class="st3" d="M195.6,28.9C193,22.8,192,15,196.5,7.4c-1.1,0.2-2.3,0.3-3.5,0.3c-4.6,0-8.2-0.4-12.2-2.7
			c-3.3,2.1-7.1,3.1-10.9,3.2c0,0-0.1,0-0.1,0v20.8H195.6z"/>
		<path class="st4" d="M189.9,58.3c5.1-3.7,8.1-9.6,7.6-18.3c-0.1-0.5-0.1-0.5-0.1-1h-7.5V58.3z"/>
		<path class="st5" d="M181.9,62c2.9-0.7,5.6-2,8-3.7V39h-8V62z"/>
		<path class="st5" d="M149.7,58.3c2.4,1.7,5.2,3,8,3.7V39h-8V58.3z"/>
		<path class="st4" d="M142.1,40c-0.4,8.7,2.6,14.6,7.6,18.3V39h-7.5C142.2,39.5,142.1,39.5,142.1,40"/>
		<path class="st5" d="M169.8,43.3c1.4,0,2.8,0.4,4,1.2V39h-8v5.4C167,43.7,168.4,43.3,169.8,43.3"/>
		<path class="st5" d="M169.8,58.4c-1.4,0-2.8-0.4-4-1.2v6c0.1,0,0.3,0,0.4,0c2.7,0,5.1,0,7.2,0c0.1,0,0.3,0,0.4,0v-6
			C172.6,58,171.3,58.4,169.8,58.4"/>
		<path class="st4" d="M173.8,39v5.4c3.6,2.2,4.6,6.9,2.4,10.4c-0.6,1-1.5,1.8-2.4,2.4v6c2.7-0.1,5.4-0.5,8-1.2V39H173.8z"/>
		<path class="st4" d="M162.3,50.9c0-2.6,1.3-5,3.5-6.4V39h-8v23c2.6,0.7,5.3,1.1,8,1.2v-6C163.6,55.9,162.3,53.5,162.3,50.9"/>
		<path class="st6" d="M145.8,14.2c0.5,2.5,0.6,5.1,0.2,7.7h7.8v7h7.7v-7h8.2v-7.7h-8.2V6.4c-0.9-0.4-1.8-0.9-2.7-1.4
			c-1.6,0.9-3.3,1.6-5,2v7.2L145.8,14.2z"/>
		<path class="st6" d="M186.3,28.9V7.1c-0.9-0.2-1.9-0.5-2.8-0.8v22.6L186.3,28.9z"/>
		<path class="st6" d="M175.2,28.9V7.4c-0.9,0.3-1.8,0.4-2.8,0.6v20.9L175.2,28.9z"/>
		<path class="st6" d="M191.8,28.9V7.7c-1,0-1.9-0.1-2.8-0.1v21.4H191.8z"/>
		<path class="st6" d="M180.7,28.9V5c-0.9,0.5-1.8,1-2.8,1.4v22.5L180.7,28.9z"/>
		<path class="st7" d="M205.2,35.6l-1.1-1.1c-4.5-4.7-10.8-16.3-2.7-27.1l0.6-0.8L199,2.3l-1.1,0.4c-1.6,0.6-3.3,0.9-5,0.9
			c-4.6,0-7.7-0.5-11.4-2.9L180.7,0l-0.9,0.6c-2.9,2.2-6.4,3.3-10,3.4c-3.6,0-7.1-1.2-10-3.4L158.9,0l-0.9,0.6
			c-3.7,2.5-6.8,2.9-11.4,2.9c-1.7,0-3.4-0.3-5-0.9l-1.1-0.4l-3.1,4.3l0.6,0.8c8.1,10.8,1.8,22.4-2.7,27.1l-1.1,1.1l1.1,1.1
			c0.6,0.6,1.6,1.6,2.4,2.5c0,0,0,0.1,0,0.1c0,0.1,0,0.2,0,0.3l0,0.1c-0.4,7.8,1.6,14.2,6,19c4.7,5.1,12,8.2,20.6,8.7
			c2.1,1.9,4.3,3.6,4.4,3.6l0.9,0.7l0.9-0.7c0.1-0.1,2.3-1.7,4.4-3.6c8.6-0.5,15.9-3.5,20.6-8.7c4.4-4.8,6.4-11.2,6-19l0-0.1
			c0-0.1,0-0.2,0-0.3c0,0,0-0.1,0-0.1c0.8-0.9,1.9-2,2.4-2.5L205.2,35.6z M200.1,38.6c0.1,0.8,0,0.8,0.1,1.2
			c0.9,17.3-11.1,25.5-25.7,26.1c-2.2,2.1-4.7,3.9-4.7,3.9s-2.5-1.8-4.7-3.9c-14.6-0.6-26.6-8.8-25.7-26.1c0.1-0.5,0-0.4,0.1-1.2
			c-0.8-0.9-2.2-2.3-2.9-3.1c5.2-5.4,11.3-17.8,2.9-29.1l1.8-2.4c1.8,0.6,3.6,0.9,5.5,1c4.9,0,8.2-0.5,12.2-3.2
			c3.2,2.3,7,3.6,10.9,3.6c3.9,0,7.7-1.3,10.9-3.6C184.8,4.6,188.1,5,193,5c1.9,0,3.7-0.3,5.5-1l1.8,2.4
			c-8.5,11.2-2.4,23.7,2.9,29.1C202.4,36.3,201,37.7,200.1,38.6"/>
		<path class="st7" d="M142,39c0,0.3,0,0.4-0.1,0.5c0,0.1,0,0.3-0.1,0.5c-0.3,6.7,1.3,12,4.9,16c4.1,4.6,10.9,7.1,19.4,7.5l0.3,0
			c1.4,0,2.8,0,4.1,0c1,0,1.9,0,2.8,0c8.6-0.4,15.3-2.9,19.4-7.5c3.6-4,5.3-9.4,4.9-16c0-0.2,0-0.4-0.1-0.5c0-0.1,0-0.3-0.1-0.5
			l0-0.2H142L142,39z M142.3,40c0-0.2,0-0.3,0.1-0.5c0-0.1,0-0.2,0-0.4h54.8c0,0.1,0,0.2,0,0.4c0,0.1,0,0.2,0.1,0.4
			c0.3,6.5-1.3,11.8-4.8,15.7c-4.1,4.5-10.7,7-19.1,7.3c-2,0-4.3,0-6.9,0l-0.3,0c-8.4-0.3-15.1-2.9-19.1-7.3
			C143.6,51.8,142,46.6,142.3,40"/>
		<path class="st7" d="M143.8,28.8l-0.1,0.3H196l-0.1-0.3c-2.3-5.2-4-13.1,0.8-21.4l0.3-0.4l-0.5,0.1c-1.1,0.2-2.3,0.3-3.4,0.3
			c-4.7,0-8.1-0.4-12.1-2.7l-0.1-0.1l-0.1,0.1c-3.2,2-7,3.1-10.8,3.1c-3.8,0-7.6-1.1-10.8-3.1l-0.1-0.1l-0.1,0.1
			c-3.9,2.2-7.4,2.7-12.1,2.7c-1.2,0-2.3-0.1-3.4-0.3l-0.5-0.1l0.3,0.4C147.8,15.7,146.1,23.6,143.8,28.8 M170,8.4
			c3.8,0,7.6-1.1,10.8-3.1c4,2.2,7.5,2.7,12.2,2.7c1,0,2-0.1,3-0.3c-4.5,8.1-2.9,15.8-0.7,21H170L170,8.4z M143.7,7.7
			c1,0.2,2,0.2,3,0.2c4.7,0,8.2-0.4,12.2-2.7c3.2,2,6.9,3.1,10.6,3.1v20.3h-25.1C146.6,23.5,148.1,15.7,143.7,7.7"/>
		<polygon class="st7" points="163.2,31.9 163.2,30.4 158,30.4 158,37.6 159.6,37.6 159.6,34.6 161.7,34.6 161.7,33.1 159.6,33.1 
			159.6,31.9 		"/>
		<path class="st7" d="M169.3,31.8c0.5,0,1,0.3,1.2,0.7l0,0.1L172,32l0-0.1c-0.5-1-1.5-1.7-2.6-1.6c-1.9,0-3.2,1.5-3.2,3.7
			c0,2.2,1.2,3.7,3.1,3.7c1.1,0.1,2.2-0.6,2.7-1.6l0-0.1l-1.3-0.8l0,0.1c-0.2,0.5-0.7,0.9-1.3,0.9c-0.9,0-1.6-0.9-1.6-2.2
			C167.7,32.7,168.3,31.8,169.3,31.8"/>
		<path class="st7" d="M181.3,32.3c0-1.2-0.9-1.9-2.3-1.9h-3.3v7.2h3.3c1.2,0.2,2.4-0.7,2.6-1.9c0-0.1,0-0.3,0-0.4
			c0-0.6-0.3-1.2-0.9-1.5C181.1,33.4,181.3,32.9,181.3,32.3 M177.2,31.8h1.7c0.7,0,0.8,0.3,0.8,0.6c0,0.4-0.2,0.6-0.7,0.6h-1.8
			L177.2,31.8z M179,36.1h-1.8v-1.7h1.8c0.6,0,0.9,0.3,0.9,0.8C180,35.8,179.6,36.1,179,36.1"/>
		<path class="st7" d="M169.8,58.6c4.3,0,7.7-3.5,7.7-7.7s-3.5-7.7-7.7-7.7s-7.7,3.5-7.7,7.7v0C162.1,55.1,165.5,58.6,169.8,58.6
			 M169.8,58.1c-1.4,0-2.9-0.4-4.1-1.2c1.7,0,3.3-0.5,4.8-1.2c1.2-0.7,2.5-1.6,2.8-2.9c0.9-0.5,2.1-0.1,2.6,0.8
			c0.1,0.2,0.2,0.5,0.2,0.7C174.9,56.7,172.4,58.1,169.8,58.1 M166.2,52.5c0.4,0.3,0.8,0.4,1.3,0.5c1.2,0,2.3-0.8,2.5-2
			c0.7-0.6,1.8-0.6,2.5,0.1c0.1,0.2,0.2,0.3,0.3,0.5c0.6,1.5-0.7,2.6-2.4,3.7c-1.6,0.8-3.4,1.2-5.2,1.2c-0.8-0.7-1.5-1.5-1.9-2.4
			c0.1,0,0.1,0,0.2,0C164.6,54,165.6,53.5,166.2,52.5 M165,48.8c0.1-1.4,0.3-2.7,0.7-4c1-0.7,2.2-1.1,3.4-1.2
			c-0.8,0.8-0.7,2.1,0.1,2.9c0,0,0.1,0.1,0.1,0.1c-0.2,0.2-0.4,0.4-0.5,0.6c-0.8,1.3-0.5,3,0.8,3.8c-0.2,0.9-1.1,1.6-2,1.6
			C165.9,52.3,165.1,50.7,165,48.8 M173.4,52.3c0-0.3-0.1-0.6-0.2-0.8c-0.4-1.1-1.7-1.7-2.8-1.2c-0.2,0.1-0.4,0.2-0.6,0.3
			c-1-0.7-1.3-2.1-0.6-3.2c0.8-1.3,2.8-0.8,4.5,0.2c1.5,0.9,2.7,2.3,3.3,4c-0.1,0.8-0.3,1.5-0.6,2.2
			C176.1,52.5,174.7,51.8,173.4,52.3C173.5,52.3,173.4,52.3,173.4,52.3 M173.9,47.1c-1.3-0.7-2.9-1.4-4.1-0.9
			c-0.7-0.5-1-1.5-0.5-2.2c0.1-0.2,0.3-0.4,0.6-0.5c3.8,0,7,3,7.2,6.8C176.3,49,175.2,47.9,173.9,47.1 M165.2,45.2
			c-0.1,0.5-0.3,1-0.4,1.5c-0.4,1.7-0.4,4.3,1,5.6c-0.5,0.9-1.4,1.4-2.4,1.4c-0.1,0-0.3,0-0.4,0C161.8,50.6,162.7,47.2,165.2,45.2"
			/>
	</g>
	<rect x="102.6" y="0" class="st7" width="1" height="71.8"/>
	<path class="st7" d="M235.9,20H248v7.4h-10v2.4c-0.1,0.7,0.4,1.3,1.1,1.4c0.1,0,0.2,0,0.4,0h5.7c0.5,0.1,1-0.1,1.3-0.4
		c0.4-0.8,0.6-1.8,0.5-2.7c0.9,0.4,1.6,0.6,2.2,0.8c-0.2,1-0.3,1.7-0.5,2.4c-0.1,0.6-0.4,1.1-0.9,1.4c-0.6,0.3-1.2,0.5-1.9,0.5h-7
		c-2.1,0-3.1-1.1-3.1-3.2L235.9,20z M238,25.5h2.9V22H238V25.5z M245.9,22H243v3.4h2.9V22z"/>
	<path class="st7" d="M264.2,29.8c-0.1,0.2-0.4,0.7-0.9,1.6c-0.9-0.5-1.8-1-2.5-1.7v1H258v1h5.1v1.5h-12.2v-1.5h5.2v-1h-2.8v-1.1
		c-0.8,0.7-1.6,1.2-2.5,1.7c-0.3-0.4-0.6-0.9-1-1.5c1.1-0.4,2.1-1,3-1.7h-2.7v-1.5h3.6v-0.7h-2.6v-1.2h2.6V24h-1.4v-1.2h1.4v-0.8
		h1.8v0.8h2.8v-0.8h1.8v0.8h1.4V24h-1.4v0.7h2.6v1.2h-2.6v0.7h3.7v1.5h-2.7C262.2,28.8,263.2,29.3,264.2,29.8 M263.9,23.3h-1.8v-1.7
		h-10v1.7h-1.8v-3.2h5.7c-0.1-0.3-0.2-0.6-0.4-0.9l2.3-0.2c0.1,0.4,0.2,0.7,0.4,1.1h5.6L263.9,23.3z M256.1,28.3h1.9v0.9h2.3
		c-0.4-0.4-0.7-0.7-1.1-1.1h-4.4c-0.4,0.4-0.8,0.8-1.2,1.1h2.4L256.1,28.3z M255.7,24.7h2.8V24h-2.8V24.7z M255.7,26.6h2.8v-0.7
		h-2.8V26.6z"/>
	<path class="st7" d="M277.9,26v1.8c-2.5,3-6.3,5-11.3,5.9c-0.2-0.4-0.6-1-1.1-1.8c1.6-0.2,3.2-0.6,4.7-1.2
		c-0.5-0.3-1.1-0.7-1.8-1.2l1.5-1.3c1,0.6,1.9,1.1,2.5,1.6c1-0.5,2-1.2,2.9-2h-6.2c-0.9,0.9-1.9,1.7-2.9,2.4c-0.6-0.7-1-1.2-1.4-1.5
		c1.6-0.9,3-2.1,4.1-3.6h-3.3v-5.3h12.9v5.3h-7.3c-0.2,0.4-0.4,0.7-0.7,1.1L277.9,26z M267.6,23.3h1.7v-1.9h-1.7V23.3z M271.2,23.3
		h1.7v-1.9h-1.7V23.3z M276.5,21.3h-1.7v1.9h1.7V21.3z"/>
	<path class="st7" d="M280,27h1.6c0-0.3,0-0.8,0.1-1.7h-1.7v-1.8h1.7c0-0.5,0-1,0-1.6h-1.6V20h7.2l-0.1,8.2c0,1.7-0.1,2.7-0.1,3.1
		c0,0.4-0.2,0.7-0.4,1c-0.2,0.3-0.5,0.5-0.8,0.6c-0.8,0.2-1.7,0.2-2.5,0.1c-0.1-0.7-0.2-1.4-0.4-2c0.5,0,0.9,0.1,1.4,0.1
		c0.2,0,0.4-0.1,0.6-0.2c0.2-0.1,0.3-0.3,0.2-0.5c0-0.2,0-0.8,0-1.7h-1.9c-0.2,1.8-0.9,3.5-1.9,4.9c-0.7-0.7-1.3-1.1-1.7-1.5
		c0.9-1,1.4-2.1,1.6-3.4H280V27z M285.3,25.3h-1.7c0,0.3,0,0.8,0,1.7h1.8L285.3,25.3z M285.3,21.8h-1.7l0,1.6h1.7L285.3,21.8z
		 M292.7,25.5c0.9,0.9,1.4,2.2,1.4,3.5c0.1,0.8-0.2,1.6-0.8,2.2c-0.5,0.5-1.5,0.7-3.1,0.6l-0.3-1.3v3.3h-1.9V20h5.8v1.4L292.7,25.5z
		 M290.7,25.7l1.1-4H290v7.9c0.5,0,0.9,0.1,1.4,0.1c0.6,0,0.9-0.3,0.9-1c0-0.4-0.1-0.8-0.3-1.2C291.6,26.9,291.2,26.3,290.7,25.7"/>
	<path class="st7" d="M296.5,19.6h11.1v5.9h-4.2v1.9h5v1.8h-5v2c1.3,0,3.3,0,6,0c-0.3,0.8-0.5,1.5-0.6,2c-3.3,0-5.5,0-6.6-0.1
		c-0.9,0-1.8-0.2-2.7-0.6c-0.6-0.3-1.2-0.8-1.6-1.4c-0.5,1-1.1,1.8-1.9,2.5c-0.3-0.5-0.7-1.1-1.2-1.8c1.5-1.5,2.4-3.5,2.4-5.6
		l1.9,0.3c-0.1,0.8-0.2,1.6-0.4,2.4c0.5,1.1,1.4,1.9,2.6,2.2v-5.6h-4.7L296.5,19.6z M305.5,21.5h-7v2.3h7V21.5z"/>
	<path class="st7" d="M310.1,32.7l-0.4-2.1l1.7-0.4v-3.6H310v-1.8h1.4v-2.9h-1.6V20h5v1.9h-1.5v2.9h1.3v1.8h-1.3v3.2l1.5-0.3
		c0,0.7,0,1.4,0,2C313.2,31.9,311.7,32.2,310.1,32.7 M321.8,19.1c0.7,0.5,1.3,1,1.9,1.6l-0.8,0.8h1.1v1.8h-3.6v1
		c0.2,0.5,0.4,1,0.6,1.5c0.6-0.7,1.2-1.4,1.7-2l1.6,1.2c-0.7,0.8-1.5,1.6-2.4,2.4c0.7,1.1,1.5,2.1,2.5,3c-0.4,0.6-0.8,1.3-1.1,2
		c-1.1-1.2-2.1-2.5-2.8-4v3.2c0,0.5-0.1,0.9-0.4,1.3c-0.3,0.3-0.8,0.5-1.2,0.5c-0.6,0-1.3,0.1-2.2,0.1c-0.1-0.7-0.2-1.3-0.4-2
		c0.6,0.1,1.1,0.1,1.4,0.1c0.6,0,0.9-0.3,0.9-1v-1.4c-0.9,0.6-1.9,1.3-3,1.9l-0.9-2c1-0.5,2.3-1.3,3.8-2.3v-3.5h-3.4v-1.8h3.4v-2.4
		h1.9v2.4h1.7c-0.5-0.4-1-0.9-1.5-1.3L321.8,19.1z M316.4,23.8c0.5,0.7,1.1,1.6,1.7,2.6l-1.6,1c-0.5-0.9-1-1.8-1.6-2.7L316.4,23.8z"
		/>
	<path class="st7" d="M327.2,19.1l1.9,0.5c-0.3,1-0.7,2.1-1.1,3.1v10.9h-1.9v-6.9c-0.3,0.5-0.6,1-0.9,1.6c-0.1-0.8-0.3-1.7-0.5-2.7
		C325.7,23.5,326.5,21.3,327.2,19.1 M334.5,31.7l0.9-1.4h-3.2l1,1.4c-1.3,0.7-2.5,1.4-3.8,1.9c-0.3-0.6-0.6-1.1-1-1.7
		c1.2-0.5,2.4-1,3.6-1.7h-3.5v-1.7h1.2v-9h8.5v9h1.2v1.7h-3.6c1.2,0.5,2.4,1.1,3.6,1.7l-1,1.7C337.1,33,335.8,32.4,334.5,31.7
		 M336.2,21.3h-4.7v0.8h4.7V21.3z M331.6,24.3h4.7v-0.8h-4.7V24.3z M331.6,26.5h4.7v-0.8h-4.7V26.5z M331.6,28.7h4.7v-0.8h-4.7V28.7
		z"/>
	<path class="st7" d="M342.9,27.4l1.9,1c-1,1.6-2.1,3.2-3.4,4.6c-0.5-0.5-1.1-0.9-1.6-1.4C341,30.3,342,28.9,342.9,27.4 M346.3,22.6
		h2.2v2.5h5.2V27h-5.2v3.9c0,0.6-0.1,1.3-0.5,1.8c-0.4,0.4-0.9,0.7-1.4,0.7c-0.6,0-1.5,0.1-2.6,0.1c-0.2-0.9-0.3-1.6-0.5-2.2
		c0.6,0.1,1.2,0.1,1.9,0.1c0.7,0,1-0.3,1-0.9V27h-5.8l1.1-6.9c3.6-0.1,7.1-0.3,10.6-0.7l0.7,1.9c-2.9,0.3-6,0.5-9.4,0.6l-0.5,3.2
		h3.3L346.3,22.6z M351.2,27.4c1.1,1.3,2.1,2.7,3.1,4.1c-0.7,0.4-1.3,0.8-1.9,1.3c-0.8-1.5-1.8-2.9-2.8-4.3L351.2,27.4z"/>
	<path class="st7" d="M362.7,22.4h-1.9l1.6,0.6c-0.3,0.5-0.7,1-1,1.6h1.7v1.6h-8.2v-1.6h1.8c-0.3-0.4-0.6-0.9-1-1.4l1.4-0.8h-1.9
		v-1.6h2.8c-0.2-0.5-0.3-0.9-0.5-1.3l2.2-0.4c0.2,0.5,0.4,1,0.5,1.7h2.5V22.4z M355.5,33.3v-5.9h6.9v5.8h-1.8v-0.7h-3.2v0.8
		L355.5,33.3z M358.5,24l-1,0.6h1.6c0.5-0.7,0.9-1.4,1.2-2.2h-3.1C357.7,22.9,358.1,23.4,358.5,24 M360.5,29h-3.2v1.8h3.2V29z
		 M367.4,25.2c1.1,1,1.8,2.5,1.9,4c0,0.7-0.2,1.4-0.6,1.9c-0.8,0.6-1.7,0.8-2.7,0.6c-0.1-0.7-0.2-1.4-0.4-2.1c0.3,0,0.5,0.1,0.8,0.1
		c0.4,0.1,0.8-0.2,0.9-0.7c0-0.1,0-0.2,0-0.2c-0.1-1.3-0.7-2.6-1.8-3.5c0.5-1.2,1-2.5,1.4-3.9h-1.6v12h-1.9V19.9h5.5v1.4
		C368.7,22.2,368.1,23.5,367.4,25.2"/>
	<path class="st7" d="M235.3,41.1v-2.6h5.8c-0.2-0.4-0.3-0.8-0.5-1.1l2.5-0.2c0.1,0.4,0.3,0.8,0.5,1.4h5.3v2.6h-2v-0.9h-9.5v0.9
		H235.3z M247,41.4v4.2h-8.2v0.9h8.9v5.1h-2.1v-0.8h-6.8v0.8h-2.1V41.4L247,41.4z M244.9,43h-6.2v1.1h6.2V43z M245.5,48.1h-6.8v1.1
		h6.8V48.1z"/>
	<path class="st7" d="M256.5,51.4c-0.2-0.9-0.4-1.6-0.5-2.2c1.2,0,2.1,0.1,2.5,0.1c0.3,0,0.5,0,0.8-0.1c0.2-0.1,0.3-0.1,0.4-0.3
		c0.1-0.1,0.2-0.3,0.2-0.4c0.1-0.5,0.1-1.1,0.1-1.6c0-0.9,0.1-1.5,0.1-1.9h-4.6c-0.3,2.8-1.8,5.2-4.1,6.8c-0.2-0.4-0.8-1-1.6-1.9
		c1-0.6,1.8-1.4,2.5-2.4c0.5-0.8,0.9-1.7,1-2.6c0.1-0.9,0.2-2.1,0.2-3.6h-3.3v-1.9h6.1l-0.6-1.5l2.3-0.5c0.3,0.8,0.6,1.5,0.7,2h5.4
		v1.9h-8.4c0,0.6,0,1.2-0.1,1.9h6.8c0,1.3-0.1,2.6-0.2,4c-0.1,1.4-0.1,2.2-0.2,2.5c-0.1,0.3-0.2,0.7-0.4,0.9
		c-0.2,0.3-0.5,0.5-0.8,0.6c-0.4,0.2-0.9,0.2-1.4,0.2C258.8,51.3,257.8,51.4,256.5,51.4"/>
	<path class="st7" d="M269.9,43.7c0.6,1,1.3,2,2.1,2.8c0.8-0.8,1.5-1.8,2-2.8l1.7,1.2c-0.6,1.1-1.3,2.1-2.1,2.9
		c1.7,0.9,3.6,1.5,5.6,1.6c-0.5,0.8-0.9,1.5-1.2,2.1c-2.2-0.3-4.2-1-6-2.3c-1.8,1.2-3.9,2-6.1,2.3c-0.3-0.7-0.7-1.4-1.2-2.1
		c2-0.2,3.9-0.8,5.6-1.7c-0.8-0.9-1.5-1.8-2.1-2.8L269.9,43.7z M264.9,38.9h5.9c-0.2-0.5-0.4-0.9-0.5-1.2l2.2-0.7
		c0.2,0.5,0.5,1.1,0.9,1.9h5.7v1.8h-14.1L264.9,38.9z M265,44.2c1.5-1,2.9-2.1,4.2-3.4l1.6,1.5c-1.4,1.3-2.9,2.5-4.4,3.6
		C265.9,45.3,265.5,44.7,265,44.2 M274.7,40.8c1.6,1.1,3.1,2.2,4.4,3.2l-1.5,1.7c-1.3-1.2-2.7-2.4-4.2-3.5L274.7,40.8z"/>
	<path class="st7" d="M281.4,37.6h11.4V44h-7.6c-0.2,0.3-0.4,0.5-0.6,0.8h9l-0.3,4c0,0.7-0.2,1.3-0.5,1.8c-0.2,0.3-0.6,0.6-0.9,0.7
		c-0.9,0.1-1.8,0.1-2.8,0.1c-0.1-0.6-0.3-1.3-0.5-2c-0.8,0.8-1.6,1.6-2.6,2.1c-0.5-0.4-1.1-0.8-1.8-1.2c1.8-0.9,3.2-2.3,4.1-4h-1.4
		c-1.4,2.2-3.4,3.9-5.8,4.8c-0.4-0.5-0.9-1-1.4-1.5c1.9-0.6,3.6-1.7,4.9-3.3h-1.5c-0.6,0.5-1.2,1-1.9,1.5c-0.3-0.4-0.8-0.8-1.4-1.4
		c1.2-0.6,2.3-1.5,3.2-2.5h-1.5L281.4,37.6z M290.7,39.2h-7.3v0.9h7.3V39.2z M290.7,41.5h-7.3v0.9h7.3V41.5z M288.7,49.4
		c0.5,0.1,1,0.1,1.5,0.1c0.2,0,0.5,0,0.7-0.1c0.1-0.1,0.2-0.2,0.3-0.3c0.1-0.4,0.2-0.7,0.2-1.1c0.1-0.6,0.1-1.1,0.1-1.6h-1
		C290.1,47.5,289.5,48.5,288.7,49.4"/>
	<path class="st7" d="M303.9,37.2l-0.5,0.6c1.6,1.9,3.6,3.4,6,4.2c-0.5,0.7-1,1.2-1.3,1.7c-0.6-0.3-1.2-0.6-1.8-1v0.8h-8.3v-0.9
		c-0.6,0.4-1.2,0.7-1.8,1.1c-0.4-0.6-0.8-1.2-1.3-1.7c2.5-1.1,4.7-2.8,6.4-5L303.9,37.2z M296.6,51.7v-6.8h10.9v6.8h-2V51h-6.9v0.7
		H296.6z M305.5,46.8h-6.9v2.3h6.9V46.8z M302,39.3c-0.8,0.9-1.7,1.8-2.7,2.5h5.3C303.7,41,302.8,40.2,302,39.3"/>
	<path class="st7" d="M312.6,37.2l2,0.6c-0.3,1-0.7,1.9-1.1,2.9v10.9h-2v-7c-0.4,0.7-0.8,1.3-1.3,1.9c-0.1-0.8-0.3-1.7-0.5-2.7
		C311,41.7,312,39.5,312.6,37.2 M323.5,45h-4v1.8h4.3v1.8h-4.3v3h-2.1V41.3H317c-0.5,1.2-1.2,2.4-2,3.5c-0.3-0.5-0.7-1.2-1.1-1.9
		c1.2-1.8,2-3.7,2.6-5.8l1.9,0.5c-0.2,0.6-0.4,1.3-0.6,1.8h6.5v1.9h-4.8v1.8h4V45z"/>
	<path class="st7" d="M327.7,37.3l1.9,0.6c-0.4,1.1-0.7,2.1-1.2,3.1v10.5h-1.9v-6.8c-0.4,0.6-0.8,1.1-1.2,1.7
		c-0.2-0.9-0.4-1.8-0.6-2.7C326.1,41.6,327.1,39.5,327.7,37.3 M333,37.2h2.1l-0.1,4c0,1.7,0.3,3.3,1,4.8c0.7,1.5,1.8,2.8,3.3,3.6
		c-0.5,0.6-1.1,1.2-1.6,1.9c-1.8-1.4-3.1-3.5-3.5-5.7c-0.6,2.4-2,4.4-4,5.8c-0.5-0.7-0.9-1.4-1.3-1.9c1.2-0.7,2.2-1.8,2.9-3.1
		c0.7-1.4,1.1-2.9,1.2-4.4C333,40.6,333,38.9,333,37.2 M330.8,39.9l1.6,3.9l-1.8,0.8c-0.5-1.4-1-2.7-1.6-4L330.8,39.9z M337.3,39.6
		l1.9,0.8c-0.9,1.9-1.5,3.3-2,4.2l-1.8-0.9C336.2,42.4,336.8,41,337.3,39.6"/>
	<path class="st7" d="M342.6,37.2l2,0.6c-0.3,1-0.7,1.9-1,2.8v10.8h-2v-6.6c-0.4,0.7-0.8,1.3-1.2,2l-0.6-2.9
		C341,41.8,341.9,39.5,342.6,37.2 M344.2,46.3h4.1v-1.6h-3.5v-1.9h3.5v-5.7h2.1v5.7h3.5v1.9h-3.5v1.6h3.9v1.9h-3.9v3.3h-2.1v-3.3
		h-4.1V46.3z M346.4,38.3c0.2,0.4,0.6,1.5,1.3,3.3l-1.8,0.7c-0.3-0.8-0.7-1.9-1.3-3.3L346.4,38.3z M352.4,38.2l1.8,0.7l-1.6,3.4
		l-1.7-0.7C351.4,40.5,351.9,39.3,352.4,38.2"/>
</g>
</svg>
