<?xml version="1.0" encoding="utf-8"?>
<!-- Generator: Adobe Illustrator 25.2.0, SVG Export Plug-In . SVG Version: 6.00 Build 0)  -->
<svg version="1.1" id="ARTE" xmlns="http://www.w3.org/2000/svg" xmlns:xlink="http://www.w3.org/1999/xlink" x="0px" y="0px"
	 viewBox="0 0 205.2 97.2" style="enable-background:new 0 0 205.2 97.2;" xml:space="preserve">
<style type="text/css">
	.st0{fill:#FFFFFF;}
	.st1{fill:#E7B809;}
	.st2{fill:#FFDD00;}
	.st3{fill:#0055A3;}
	.st4{fill:#A30046;}
	.st5{fill:#E21936;}
	.st6{fill:#231F20;}
	.st7{fill:#00BE40;}
</style>
<g>
	<rect x="102.6" y="0" class="st0" width="1" height="71.7"/>
	<path class="st0" d="M1.7,86.3h9.7v5.9h-8v1.9c-0.1,0.5,0.3,1,0.8,1.1c0.1,0,0.2,0,0.3,0h4.6c0.4,0,0.8-0.1,1.1-0.3
		c0.3-0.7,0.4-1.4,0.4-2.1c0.7,0.3,1.3,0.5,1.8,0.7c-0.1,0.8-0.3,1.4-0.4,1.9c-0.1,0.5-0.4,0.9-0.7,1.1c-0.5,0.3-1,0.4-1.5,0.4H4.2
		c-1.6,0-2.5-0.9-2.5-2.6L1.7,86.3z M3.4,90.6h2.3v-2.8H3.4V90.6z M9.7,87.9H7.4v2.8h2.3V87.9z"/>
	<path class="st0" d="M24.3,94.1c-0.1,0.1-0.3,0.6-0.7,1.3c-0.7-0.4-1.4-0.8-2-1.4v0.8h-2.2v0.8h4.1v1.2h-9.7v-1.2h4.2v-0.8h-2.2
		v-0.9c-0.6,0.5-1.3,1-2,1.4c-0.2-0.4-0.5-0.8-0.8-1.2c0.9-0.3,1.7-0.8,2.4-1.3h-2.1v-1.2H16V91h-2.1v-1H16v-0.6h-1.1v-1H16v-0.6
		h1.5v0.6h2.2v-0.6h1.5v0.6h1.1v1h-1.1V90h2.1v1h-2.1v0.6h2.9v1.2H22C22.7,93.3,23.5,93.7,24.3,94.1 M24.1,88.9h-1.4v-1.3h-8v1.3
		h-1.4v-2.5h4.6c-0.1-0.2-0.2-0.5-0.3-0.7l1.9-0.1c0.1,0.3,0.2,0.6,0.3,0.8h4.4V88.9z M17.8,92.9h1.5v0.7h1.9
		c-0.3-0.3-0.6-0.6-0.9-0.9h-3.5c-0.3,0.3-0.6,0.6-0.9,0.9h1.9L17.8,92.9z M17.5,90h2.2v-0.6h-2.2V90z M17.5,91.5h2.2V91h-2.2V91.5z
		"/>
	<path class="st0" d="M35.3,91v1.4c-2,2.4-5,4-9,4.7c-0.2-0.3-0.5-0.8-0.8-1.5c1.3-0.2,2.5-0.5,3.7-1c-0.4-0.3-0.9-0.6-1.5-0.9
		l1.2-1.1c0.8,0.5,1.5,0.9,2,1.3c0.8-0.4,1.6-1,2.3-1.6h-5c-0.7,0.7-1.5,1.4-2.3,1.9c-0.5-0.5-0.8-0.9-1.1-1.2
		c1.3-0.7,2.4-1.7,3.3-2.9h-2.6V86h10.3v4.2h-5.9c-0.2,0.3-0.4,0.6-0.5,0.8L35.3,91z M27,88.9h1.3v-1.6H27V88.9z M29.9,88.9h1.3
		v-1.6h-1.3L29.9,88.9z M34.2,87.3h-1.3v1.6h1.3L34.2,87.3z"/>
	<path class="st0" d="M36.9,91.8h1.3c0-0.2,0-0.7,0-1.3h-1.3V89h1.4c0-0.4,0-0.8,0-1.3H37v-1.5h5.7l-0.1,6.5c0,1.4-0.1,2.2-0.1,2.5
		c0,0.3-0.1,0.6-0.3,0.8c-0.2,0.2-0.4,0.4-0.6,0.5c-0.7,0.1-1.3,0.2-2,0.1c-0.1-0.6-0.2-1.1-0.3-1.6c0.4,0,0.7,0.1,1.1,0.1
		c0.2,0,0.3,0,0.5-0.1c0.1-0.1,0.2-0.3,0.2-0.4c0-0.2,0-0.6,0-1.3h-1.5c-0.2,1.4-0.7,2.8-1.6,3.9c-0.6-0.5-1-0.9-1.3-1.2
		c0.7-0.8,1.1-1.7,1.3-2.7h-1.1V91.8z M41.2,90.5h-1.4c0,0.2,0,0.7,0,1.3h1.4L41.2,90.5z M41.2,87.7h-1.4l0,1.3h1.4L41.2,87.7z
		 M47.2,90.6c0.7,0.7,1.1,1.7,1.1,2.8c0.1,0.6-0.2,1.3-0.6,1.8c-0.7,0.5-1.6,0.6-2.4,0.5L45,94.6v2.6h-1.5V86.3h4.6v1.1L47.2,90.6z
		 M45.5,90.9l0.9-3.2H45V94c0.4,0,0.8,0.1,1.1,0.1c0.5,0,0.7-0.3,0.7-0.8c0-0.3-0.1-0.7-0.3-1C46.2,91.8,45.9,91.3,45.5,90.9"/>
	<path class="st0" d="M50.2,86H59v4.8h-3.4v1.5h4v1.4h-4v1.6c1,0,2.6,0,4.8,0c-0.2,0.6-0.4,1.2-0.5,1.6c-2.6,0-4.4,0-5.3-0.1
		c-0.7,0-1.5-0.2-2.2-0.5c-0.5-0.3-1-0.6-1.3-1.1c-0.4,0.8-0.9,1.5-1.5,2c-0.2-0.4-0.6-0.9-1-1.4c1.2-1.2,1.9-2.8,1.9-4.5l1.6,0.2
		c-0.1,0.6-0.2,1.3-0.3,1.9c0.4,0.9,1.1,1.5,2.1,1.7v-4.5h-3.8V86z M57.4,87.4h-5.6v1.9h5.6V87.4z"/>
	<path class="st0" d="M61.1,96.4l-0.3-1.7l1.4-0.3v-2.8H61v-1.5h1.1v-2.4h-1.2v-1.5h4v1.5h-1.2v2.4h1v1.5h-1v2.5l1.2-0.3
		c0,0.6,0,1.1,0,1.6C63.6,95.7,62.3,96.1,61.1,96.4 M70.4,85.6c0.5,0.4,1.1,0.8,1.5,1.3l-0.6,0.6h0.9v1.4h-2.9v0.8
		c0.2,0.4,0.3,0.8,0.5,1.2c0.5-0.6,1-1.1,1.4-1.6l1.3,1c-0.6,0.6-1.2,1.3-1.9,1.9c0.5,0.9,1.2,1.7,2,2.4c-0.3,0.5-0.6,1-0.9,1.6
		c-0.9-0.9-1.7-2-2.2-3.2v2.5c0,0.4-0.1,0.8-0.3,1.1c-0.3,0.3-0.6,0.4-1,0.4c-0.4,0-1,0-1.8,0c-0.1-0.5-0.2-1.1-0.3-1.6
		c0.5,0,0.9,0.1,1.1,0.1c0.5,0,0.7-0.3,0.7-0.8v-1.1c-0.7,0.5-1.5,1-2.4,1.6l-0.7-1.6c0.8-0.4,1.8-1,3.1-1.8v-2.8H65v-1.4h2.7v-1.9
		h1.5v1.9h1.4c-0.4-0.4-0.8-0.7-1.2-1L70.4,85.6z M66.1,89.3c0.4,0.6,0.9,1.3,1.3,2.1l-1.3,0.8c-0.4-0.7-0.8-1.5-1.2-2.2L66.1,89.3z
		"/>
	<path class="st0" d="M74.7,85.5l1.5,0.4c-0.3,0.8-0.5,1.7-0.9,2.5v8.8h-1.5v-5.5c-0.2,0.4-0.5,0.8-0.7,1.3
		c-0.1-0.6-0.2-1.4-0.4-2.2C73.5,89,74.2,87.3,74.7,85.5 M80.6,95.6l0.7-1.1h-2.6l0.8,1.1c-1,0.6-2,1.1-3,1.5
		c-0.2-0.5-0.5-0.9-0.8-1.3c1-0.4,2-0.8,2.9-1.3h-2.8v-1.3h0.9V86h6.8v7.2h1v1.3h-2.9c1,0.4,1.9,0.9,2.9,1.3l-0.8,1.3
		C82.6,96.7,81.6,96.2,80.6,95.6 M81.9,87.3h-3.7v0.6h3.7L81.9,87.3z M78.2,89.7h3.7v-0.6h-3.7L78.2,89.7z M78.2,91.5h3.7v-0.6h-3.7
		L78.2,91.5z M78.2,93.2h3.7v-0.6h-3.7L78.2,93.2z"/>
	<path class="st0" d="M87.3,92.1l1.5,0.8c-0.8,1.3-1.7,2.5-2.7,3.6c-0.4-0.4-0.9-0.8-1.3-1.1C85.7,94.5,86.6,93.4,87.3,92.1
		 M90,88.3h1.8v2h4.1v1.5h-4.1V95c0,0.5-0.1,1-0.4,1.4c-0.3,0.3-0.7,0.5-1.2,0.5C89.7,97,89,97,88.1,97c-0.1-0.7-0.3-1.3-0.4-1.7
		c0.5,0.1,1,0.1,1.5,0.1c0.5,0,0.8-0.2,0.8-0.7v-2.8h-4.7l0.9-5.5c2.8-0.1,5.7-0.3,8.5-0.6l0.6,1.6c-2.3,0.3-4.8,0.4-7.5,0.5
		l-0.4,2.5H90L90,88.3z M93.9,92.2c0.9,1,1.7,2.1,2.5,3.3c-0.5,0.3-1,0.7-1.5,1c-0.7-1.2-1.4-2.3-2.2-3.4L93.9,92.2z"/>
	<path class="st0" d="M103.1,88.2h-1.5l1.3,0.5c-0.3,0.4-0.5,0.8-0.8,1.2h1.4v1.3h-6.6v-1.3h1.4c-0.2-0.4-0.5-0.7-0.8-1.1l1.1-0.7
		h-1.5v-1.3h2.3c-0.1-0.4-0.3-0.7-0.4-1l1.8-0.3c0.2,0.4,0.3,0.8,0.4,1.3h2L103.1,88.2z M97.3,96.9v-4.7h5.5v4.7h-1.5v-0.6h-2.6v0.7
		H97.3z M99.8,89.5L99,89.9h1.3c0.4-0.6,0.7-1.1,1-1.8h-2.5C99.1,88.6,99.5,89,99.8,89.5 M101.4,93.4h-2.6v1.5h2.6V93.4z
		 M106.9,90.5c0.9,0.8,1.5,2,1.5,3.2c0,0.6-0.2,1.1-0.5,1.5c-0.6,0.4-1.4,0.6-2.1,0.5c-0.1-0.6-0.2-1.1-0.3-1.7
		c0.2,0,0.4,0.1,0.7,0.1c0.3,0.1,0.7-0.2,0.7-0.5c0-0.1,0-0.1,0-0.2c-0.1-1.1-0.6-2.1-1.4-2.8c0.4-1,0.8-2,1.1-3.1h-1.3v9.6h-1.5
		v-11h4.4v1.1C107.9,88,107.5,89.1,106.9,90.5"/>
	<path class="st0" d="M109.2,88.7v-2.1h4.6c-0.1-0.4-0.3-0.7-0.4-0.9l2-0.2c0.1,0.3,0.2,0.7,0.4,1.1h4.2v2.1h-1.6V88h-7.6v0.7H109.2
		z M118.5,89v3.3h-6.6v0.8h7.1v4.1h-1.7v-0.6h-5.4v0.7h-1.7V89L118.5,89z M116.9,90.2h-5v0.9h5V90.2z M117.4,94.4h-5.4v0.9h5.4V94.4
		z"/>
	<path class="st0" d="M126.2,96.9c-0.1-0.7-0.3-1.3-0.4-1.8c1,0,1.6,0.1,2,0.1c0.2,0,0.4,0,0.6-0.1c0.3-0.1,0.5-0.3,0.5-0.6
		c0.1-0.4,0.1-0.9,0.1-1.3c0-0.7,0.1-1.2,0.1-1.5h-3.7c-0.2,2.2-1.4,4.2-3.3,5.4c-0.2-0.3-0.6-0.8-1.3-1.5c0.8-0.5,1.5-1.1,2-1.9
		c0.4-0.6,0.7-1.3,0.8-2.1c0.1-0.7,0.1-1.7,0.1-2.9H121v-1.5h4.9l-0.5-1.2l1.9-0.4c0.3,0.6,0.5,1.2,0.6,1.6h4.3v1.5h-6.7
		c0,0.5,0,1,0,1.5h5.5c0,1-0.1,2.1-0.1,3.2c-0.1,1.1-0.1,1.8-0.2,2c-0.1,0.3-0.2,0.5-0.3,0.7c-0.2,0.2-0.4,0.4-0.6,0.5
		c-0.4,0.1-0.7,0.2-1.1,0.2C128,96.9,127.2,96.9,126.2,96.9"/>
	<path class="st0" d="M136.9,90.9c0.5,0.8,1,1.6,1.7,2.2c0.7-0.6,1.2-1.4,1.6-2.3l1.4,0.9c-0.5,0.9-1,1.6-1.7,2.3
		c1.4,0.7,2.9,1.2,4.5,1.3c-0.4,0.7-0.7,1.2-1,1.7c-1.7-0.2-3.4-0.8-4.8-1.8c-1.5,1-3.1,1.6-4.9,1.9c-0.3-0.6-0.6-1.1-0.9-1.7
		c1.6-0.2,3.1-0.6,4.5-1.4c-0.7-0.7-1.2-1.4-1.7-2.3L136.9,90.9z M132.9,87h4.7c-0.2-0.4-0.3-0.7-0.4-1l1.7-0.5
		c0.2,0.4,0.4,0.9,0.7,1.5h4.5v1.5h-11.3V87z M133,91.2c1.2-0.8,2.3-1.7,3.4-2.7l1.3,1.2c-1.1,1-2.3,2-3.6,2.9
		C133.7,92.1,133.4,91.6,133,91.2 M140.7,88.5c1.3,0.9,2.4,1.8,3.5,2.6l-1.2,1.3c-1.1-1-2.2-1.9-3.3-2.8L140.7,88.5z"/>
	<path class="st0" d="M146.1,85.9h9.1V91h-6.1c-0.1,0.2-0.3,0.4-0.5,0.6h7.2l-0.2,3.2c0,0.5-0.2,1-0.4,1.5c-0.2,0.3-0.4,0.5-0.8,0.6
		c-0.7,0.1-1.5,0.1-2.2,0.1c-0.1-0.5-0.2-1-0.4-1.6c-0.6,0.7-1.3,1.2-2.1,1.7c-0.4-0.3-0.9-0.6-1.4-1c1.4-0.7,2.6-1.8,3.3-3.2h-1.2
		c-1.1,1.8-2.7,3.1-4.7,3.8c-0.4-0.4-0.7-0.8-1.1-1.2c1.5-0.5,2.9-1.4,3.9-2.6h-1.2c-0.5,0.4-1,0.8-1.5,1.2
		c-0.3-0.3-0.6-0.6-1.1-1.1c1-0.5,1.8-1.2,2.5-2h-1.2L146.1,85.9z M153.6,87.2h-5.8v0.7h5.8V87.2z M153.6,89h-5.8v0.7h5.8V89z
		 M151.9,95.4c0.4,0,0.8,0.1,1.2,0.1c0.2,0,0.4,0,0.6-0.1c0.1-0.1,0.2-0.1,0.2-0.3c0.1-0.3,0.2-0.6,0.2-0.9c0-0.5,0.1-0.9,0.1-1.3
		h-0.8C153,93.9,152.6,94.7,151.9,95.4"/>
	<path class="st0" d="M164.1,85.6l-0.4,0.5c1.3,1.5,2.9,2.7,4.8,3.4c-0.4,0.5-0.8,1-1.1,1.4c-0.5-0.2-1-0.5-1.4-0.8v0.6h-6.7v-0.7
		c-0.5,0.3-0.9,0.6-1.5,0.9c-0.3-0.5-0.7-0.9-1-1.4c2-0.9,3.7-2.3,5.1-4L164.1,85.6z M158.2,97.2v-5.4h8.7v5.4h-1.6v-0.5h-5.5v0.5
		H158.2z M165.4,93.3h-5.5v1.9h5.5V93.3z M162.6,87.3c-0.6,0.7-1.4,1.4-2.2,2h4.3C163.9,88.7,163.2,88,162.6,87.3"/>
	<path class="st0" d="M171.1,85.6l1.6,0.5c-0.2,0.8-0.5,1.5-0.8,2.3v8.7h-1.6v-5.6c-0.3,0.5-0.7,1-1,1.5c-0.1-0.6-0.2-1.3-0.4-2.2
		C169.8,89.2,170.5,87.5,171.1,85.6 M179.7,91.8h-3.2v1.4h3.4v1.5h-3.4v2.4h-1.7v-8.2h-0.3c-0.4,1-1,1.9-1.6,2.8
		c-0.2-0.4-0.5-0.9-0.9-1.5c0.9-1.4,1.6-3,2.1-4.6l1.5,0.4c-0.1,0.5-0.3,1-0.5,1.5h5.2v1.5h-3.8v1.4h3.2L179.7,91.8z"/>
	<path class="st0" d="M183.1,85.7l1.5,0.4c-0.3,0.9-0.6,1.7-0.9,2.5V97h-1.5v-5.5c-0.3,0.5-0.6,0.9-0.9,1.3
		c-0.1-0.7-0.3-1.4-0.5-2.2C181.8,89.2,182.6,87.5,183.1,85.7 M187.4,85.6h1.7l-0.1,3.2c0,1.3,0.3,2.6,0.8,3.8
		c0.5,1.2,1.5,2.2,2.6,2.9c-0.4,0.5-0.9,1-1.3,1.5c-1.4-1.2-2.4-2.8-2.8-4.6c-0.5,1.9-1.6,3.6-3.2,4.6c-0.4-0.6-0.7-1.1-1-1.5
		c1-0.6,1.8-1.4,2.3-2.5c0.6-1.1,0.9-2.3,0.9-3.5C187.3,88.3,187.4,87,187.4,85.6 M185.6,87.8l1.3,3.1l-1.5,0.6
		c-0.4-1.1-0.8-2.2-1.3-3.2L185.6,87.8z M190.8,87.6l1.5,0.7c-0.7,1.6-1.2,2.7-1.6,3.3l-1.4-0.7C189.9,89.8,190.4,88.7,190.8,87.6"
		/>
	<path class="st0" d="M195,85.6l1.6,0.5c-0.3,0.8-0.5,1.5-0.8,2.3V97h-1.6v-5.3c-0.3,0.6-0.6,1.1-0.9,1.6l-0.5-2.3
		C193.7,89.3,194.5,87.5,195,85.6 M196.3,92.9h3.3v-1.3h-2.8v-1.5h2.8v-4.5h1.7v4.5h2.8v1.5h-2.8v1.3h3.2v1.5h-3.2v2.6h-1.7v-2.6
		h-3.3V92.9z M198.1,86.5c0.1,0.3,0.5,1.2,1,2.6l-1.4,0.5c-0.2-0.6-0.6-1.5-1.1-2.6L198.1,86.5z M202.9,86.4l1.4,0.6l-1.3,2.7
		l-1.3-0.6C202.1,88.2,202.5,87.3,202.9,86.4"/>
	<g>
		<path class="st1" d="M180.6,1.1l0.4,0.2c3.9,2.6,7.1,3.1,11.9,3.1c1.8,0,3.6-0.3,5.3-0.9l0.5-0.2l2.3,3.2l-0.2,0.3
			c-8.5,11.3-1.9,23.4,2.8,28.3l0.4,0.4l-0.4,0.4c-0.6,0.6-1.7,1.7-2.5,2.5l-0.3,0.3l0,0.4l0,0.1c0,0.1,0,0.2,0,0.4l0,0.1
			c0.4,7.5-1.6,13.7-5.8,18.3c-4.5,4.9-11.6,7.9-20,8.4l-0.3,0l-0.2,0.2c-2.1,1.9-4.3,3.6-4.3,3.6l-0.4,0.3l-0.4-0.3
			c-0.1-0.1-2.2-1.7-4.3-3.6l-0.2-0.2l-0.3,0c-8.4-0.5-15.5-3.4-20-8.4c-4.2-4.7-6.2-10.8-5.8-18.3l0-0.1c0-0.2,0-0.3,0-0.4l0,0v0
			l0-0.1l0-0.4l-0.3-0.3c-0.7-0.8-1.8-1.9-2.5-2.5l-0.4-0.4l0.4-0.4c4.7-4.9,11.3-17,2.8-28.3l-0.2-0.3l2.3-3.2l0.5,0.2
			c1.7,0.6,3.5,0.9,5.3,0.9c4.8,0,8-0.5,11.9-3.1l0.4-0.2l0.4,0.2c3,2.3,6.7,3.5,10.5,3.5c3.8,0,7.5-1.3,10.5-3.5L180.6,1.1"/>
		<path class="st0" d="M144,28.9c2.7-6.1,3.6-13.9-0.8-21.5c1.1,0.2,2.3,0.3,3.5,0.3c4.6,0,8.2-0.4,12.2-2.7
			c3.3,2.1,7.1,3.1,10.9,3.2c3.9,0,7.7-1.1,10.9-3.2c4,2.3,7.6,2.7,12.2,2.7c1.2,0,2.3-0.1,3.5-0.3c-4.5,7.7-3.5,15.5-0.8,21.6H144"
			/>
		<path class="st2" d="M195.6,28.9c-2.7-6.1-3.6-13.9,0.8-21.6c-1.1,0.2-2.3,0.3-3.5,0.3c-4.6,0-8.2-0.4-12.2-2.7
			c-3.3,2.1-7.1,3.1-10.9,3.2c0,0-0.1,0-0.1,0v20.8H195.6z"/>
		<path class="st3" d="M189.9,58.3c5.1-3.7,8.1-9.6,7.6-18.3c-0.1-0.5-0.1-0.5-0.1-1h-7.5V58.3z"/>
		<path class="st4" d="M181.8,62c2.9-0.7,5.6-2,8-3.7V39h-8V62z"/>
		<path class="st4" d="M149.6,58.3c2.4,1.7,5.2,3,8,3.7V39h-8V58.3z"/>
		<path class="st3" d="M142,40c-0.4,8.7,2.6,14.6,7.6,18.3V39h-7.5C142.1,39.5,142.1,39.5,142,40"/>
		<path class="st4" d="M169.8,43.3c1.4,0,2.8,0.4,4,1.2V39h-8v5.4C166.9,43.7,168.3,43.3,169.8,43.3"/>
		<path class="st4" d="M169.8,58.4c-1.4,0-2.8-0.4-4-1.2v6c0.1,0,0.3,0,0.4,0c2.7,0,5.1,0,7.2,0c0.1,0,0.3,0,0.4,0v-6
			C172.6,58,171.2,58.4,169.8,58.4"/>
		<path class="st3" d="M173.8,39v5.4c3.6,2.2,4.6,6.9,2.4,10.4c-0.6,1-1.5,1.8-2.4,2.4v6c2.7-0.1,5.4-0.5,8-1.2V39H173.8z"/>
		<path class="st3" d="M162.2,50.9c0-2.6,1.3-5,3.5-6.4V39h-8v23c2.6,0.7,5.3,1.1,8,1.2v-6C163.5,55.9,162.2,53.5,162.2,50.9"/>
		<path class="st5" d="M145.8,14.2c0.5,2.5,0.6,5.1,0.2,7.7h7.8v7h7.7v-7h8.2v-7.7h-8.2V6.4c-0.9-0.4-1.8-0.9-2.7-1.4
			c-1.6,0.9-3.3,1.6-5,2v7.2L145.8,14.2z"/>
		<path class="st5" d="M186.2,28.9V7.1c-0.9-0.2-1.9-0.5-2.8-0.8v22.6L186.2,28.9z"/>
		<path class="st5" d="M175.1,28.9V7.4c-0.9,0.3-1.8,0.4-2.8,0.6v20.9H175.1z"/>
		<path class="st5" d="M191.7,28.9V7.7c-1,0-1.9-0.1-2.8-0.1v21.4L191.7,28.9z"/>
		<path class="st5" d="M180.7,28.9V5c-0.9,0.5-1.8,1-2.8,1.4v22.5L180.7,28.9z"/>
		<path class="st6" d="M205.2,35.6l-1.1-1.1c-4.5-4.7-10.8-16.3-2.7-27.1l0.6-0.8L199,2.3l-1.1,0.4c-1.6,0.6-3.3,0.9-5,0.9
			c-4.6,0-7.7-0.5-11.4-2.9L180.6,0l-0.9,0.6c-2.9,2.2-6.4,3.3-10,3.4c-3.6,0-7.1-1.2-10-3.4L158.9,0L158,0.6
			c-3.7,2.5-6.8,2.9-11.4,2.9c-1.7,0-3.4-0.3-5-0.9l-1.1-0.4l-3.1,4.3l0.6,0.8c8.1,10.8,1.8,22.4-2.7,27.1l-1.1,1.1l1.1,1.1
			c0.6,0.6,1.6,1.6,2.4,2.5c0,0,0,0.1,0,0.1c0,0.1,0,0.2,0,0.3l0,0.1c-0.4,7.8,1.6,14.2,6,19c4.7,5.1,12,8.2,20.6,8.7
			c2.1,1.9,4.3,3.6,4.4,3.6l0.9,0.7l0.9-0.7c0.1-0.1,2.3-1.7,4.4-3.6c8.6-0.5,15.9-3.5,20.6-8.7c4.4-4.8,6.4-11.2,6-19l0-0.1
			c0-0.1,0-0.2,0-0.3c0,0,0-0.1,0-0.1c0.8-0.9,1.9-2,2.4-2.5L205.2,35.6z M200.1,38.6c0.1,0.8,0,0.8,0.1,1.2
			c0.9,17.3-11.1,25.5-25.7,26.1c-2.2,2.1-4.7,3.9-4.7,3.9s-2.5-1.8-4.7-3.9c-14.6-0.6-26.6-8.8-25.7-26.1c0.1-0.5,0-0.4,0.1-1.2
			c-0.8-0.9-2.2-2.3-2.9-3.1c5.2-5.4,11.3-17.8,2.9-29.1l1.8-2.4c1.8,0.6,3.6,0.9,5.5,1c4.9,0,8.2-0.5,12.2-3.2
			c3.2,2.3,7,3.6,10.9,3.6c3.9,0,7.7-1.3,10.9-3.6C184.7,4.6,188,5,192.9,5c1.9,0,3.7-0.3,5.5-1l1.8,2.4
			c-8.5,11.2-2.4,23.7,2.9,29.1C202.3,36.3,200.9,37.7,200.1,38.6"/>
		<path class="st6" d="M141.9,39c0,0.3,0,0.4-0.1,0.5c0,0.1,0,0.3-0.1,0.5c-0.3,6.7,1.3,12,4.9,16c4.1,4.6,10.9,7.1,19.4,7.5l0.3,0
			c1.4,0,2.8,0,4.1,0c1,0,1.9,0,2.8,0c8.6-0.4,15.3-2.9,19.4-7.5c3.6-4,5.3-9.4,4.9-16c0-0.2,0-0.4-0.1-0.5c0-0.1,0-0.3-0.1-0.5
			l0-0.2h-55.7L141.9,39z M142.2,40c0-0.2,0-0.3,0.1-0.5c0-0.1,0-0.2,0-0.4h54.8c0,0.1,0,0.2,0,0.4c0,0.1,0,0.2,0.1,0.4
			c0.3,6.5-1.3,11.8-4.8,15.7c-4.1,4.5-10.7,7-19.1,7.3c-2,0-4.3,0-6.9,0l-0.3,0c-8.4-0.3-15.1-2.9-19.1-7.3
			C143.5,51.8,141.9,46.6,142.2,40"/>
		<path class="st6" d="M143.8,28.8l-0.1,0.3h52.3l-0.1-0.3c-2.3-5.2-4-13.1,0.8-21.4l0.3-0.4l-0.5,0.1c-1.1,0.2-2.3,0.3-3.4,0.3
			c-4.7,0-8.1-0.4-12.1-2.7l-0.1-0.1l-0.1,0.1c-3.2,2-7,3.1-10.8,3.1c-3.8,0-7.6-1.1-10.8-3.1l-0.1-0.1l-0.1,0.1
			c-3.9,2.2-7.4,2.7-12.1,2.7c-1.2,0-2.3-0.1-3.4-0.3l-0.5-0.1l0.3,0.4C147.7,15.7,146,23.6,143.8,28.8 M169.9,8.4
			c3.8,0,7.6-1.1,10.8-3.1c4,2.2,7.5,2.7,12.2,2.7c1,0,2-0.1,3-0.3c-4.5,8.1-2.9,15.8-0.7,21h-25.3L169.9,8.4z M143.6,7.7
			c1,0.2,2,0.2,3,0.2c4.7,0,8.2-0.4,12.2-2.7c3.2,2,6.9,3.1,10.6,3.1v20.3h-25.1C146.5,23.5,148.1,15.7,143.6,7.7"/>
		<polygon class="st6" points="163.2,31.9 163.2,30.4 158,30.4 158,37.6 159.5,37.6 159.5,34.6 161.7,34.6 161.7,33.1 159.5,33.1 
			159.5,31.9 		"/>
		<path class="st6" d="M169.2,31.8c0.5,0,1,0.3,1.2,0.7l0,0.1l1.4-0.7l0-0.1c-0.5-1-1.5-1.7-2.6-1.6c-1.9,0-3.2,1.5-3.2,3.7
			c0,2.2,1.2,3.7,3.1,3.7c1.1,0.1,2.2-0.6,2.7-1.6l0-0.1l-1.3-0.8l0,0.1c-0.2,0.5-0.7,0.9-1.3,0.9c-0.9,0-1.6-0.9-1.6-2.2
			C167.6,32.7,168.2,31.8,169.2,31.8"/>
		<path class="st6" d="M181.2,32.3c0-1.2-0.9-1.9-2.3-1.9h-3.3v7.2h3.3c1.2,0.2,2.4-0.7,2.6-1.9c0-0.1,0-0.3,0-0.4
			c0-0.6-0.3-1.2-0.9-1.5C181,33.4,181.3,32.9,181.2,32.3 M177.2,31.8h1.7c0.7,0,0.8,0.3,0.8,0.6c0,0.4-0.2,0.6-0.7,0.6h-1.8
			L177.2,31.8z M179,36.1h-1.8v-1.7h1.8c0.6,0,0.9,0.3,0.9,0.8C179.9,35.8,179.6,36.1,179,36.1"/>
		<path class="st6" d="M169.7,58.6c4.3,0,7.7-3.5,7.7-7.7s-3.5-7.7-7.7-7.7s-7.7,3.5-7.7,7.7v0C162,55.1,165.5,58.6,169.7,58.6
			 M169.7,58.1c-1.4,0-2.9-0.4-4.1-1.2c1.7,0,3.3-0.5,4.8-1.2c1.2-0.7,2.5-1.6,2.8-2.9c0.9-0.5,2.1-0.1,2.6,0.8
			c0.1,0.2,0.2,0.5,0.2,0.7C174.8,56.7,172.4,58.1,169.7,58.1 M166.1,52.5c0.4,0.3,0.8,0.4,1.3,0.5c1.2,0,2.3-0.8,2.5-2
			c0.7-0.6,1.8-0.6,2.5,0.1c0.1,0.2,0.2,0.3,0.3,0.5c0.6,1.5-0.7,2.6-2.4,3.7c-1.6,0.8-3.4,1.2-5.2,1.2c-0.8-0.7-1.5-1.5-1.9-2.4
			c0.1,0,0.1,0,0.2,0C164.5,54,165.6,53.5,166.1,52.5 M165,48.8c0.1-1.4,0.3-2.7,0.7-4c1-0.7,2.2-1.1,3.4-1.2
			c-0.8,0.8-0.7,2.1,0.1,2.9c0,0,0.1,0.1,0.1,0.1c-0.2,0.2-0.4,0.4-0.5,0.6c-0.8,1.3-0.5,3,0.8,3.8c-0.2,0.9-1.1,1.6-2,1.6
			C165.8,52.3,165,50.7,165,48.8 M173.3,52.3c0-0.3-0.1-0.6-0.2-0.8c-0.4-1.1-1.7-1.7-2.8-1.2c-0.2,0.1-0.4,0.2-0.6,0.3
			c-1-0.7-1.3-2.1-0.6-3.2c0.8-1.3,2.8-0.8,4.5,0.2c1.5,0.9,2.7,2.3,3.3,4c-0.1,0.8-0.3,1.5-0.6,2.2C176,52.5,174.6,51.8,173.3,52.3
			C173.4,52.3,173.4,52.3,173.3,52.3 M173.9,47.1c-1.3-0.7-2.9-1.4-4.1-0.9c-0.7-0.5-1-1.5-0.5-2.2c0.1-0.2,0.3-0.4,0.6-0.5
			c3.8,0,7,3,7.2,6.8C176.3,49,175.2,47.9,173.9,47.1 M165.1,45.2c-0.1,0.5-0.3,1-0.4,1.5c-0.4,1.7-0.4,4.3,1,5.6
			c-0.5,0.9-1.4,1.4-2.4,1.4c-0.1,0-0.3,0-0.4,0C161.8,50.6,162.7,47.2,165.1,45.2"/>
	</g>
	<g>
		<path class="st7" d="M7,0h57.8c3.8,0,7,3.1,7,7c0,0,0,0,0,0v57.8c0,3.8-3.1,7-7,7c0,0,0,0,0,0H7c-3.8,0-7-3.1-7-7c0,0,0,0,0,0V7
			C0,3.1,3.1,0,7,0C7,0,7,0,7,0"/>
		<rect x="14.2" y="45.4" class="st0" width="43.4" height="3.4"/>
		<polygon class="st0" points="26.1,28.2 26.1,24.7 14.2,24.7 14.2,41.1 18.6,41.1 18.6,35.2 25.3,35.2 25.3,31.7 18.6,31.7 
			18.6,28.2 		"/>
		<path class="st0" d="M39,32.6c1.5-0.5,2.6-2,2.6-3.6c0-2.6-2-4.2-5.3-4.2H28v16.4h8.5c3.6,0,5.8-1.7,5.8-4.6
			C42.2,34.6,40.9,32.9,39,32.6 M32.3,28h3.3c1.2,0,1.9,0.6,1.9,1.6c0,1-0.7,1.6-1.9,1.6h-3.3V28z M35.9,37.7h-3.6v-3.3h3.7
			c1.2,0,1.9,0.6,1.9,1.7C37.8,37.2,37.1,37.7,35.9,37.7L35.9,37.7z"/>
		<path class="st0" d="M52.7,31.1l-2-0.3c-1.9-0.3-2.5-0.8-2.5-1.7s0.8-1.5,2.4-1.5c1.3-0.2,2.5,0.7,2.7,2c0,0,0,0,0,0l4.1-0.5
			c-0.6-3.2-2.9-4.8-6.7-4.8c-4.2,0-7,2.1-7,5.3c0,2.8,1.7,4.4,5.1,4.9l2.1,0.3c2.2,0.3,2.7,0.8,2.7,1.8s-0.8,1.5-2.7,1.5
			c-1.4,0.1-2.7-0.8-3.1-2.2l-4.3,0.6c0.7,3.3,3.2,4.9,7.3,4.9c4.6,0,7.3-2,7.3-5.3C58.1,33.2,56.4,31.7,52.7,31.1"/>
	</g>
</g>
</svg>
