<svg xmlns="http://www.w3.org/2000/svg" viewBox="0 0 115.06 40"><defs><style>.cls-1{fill:#80c342;}.cls-2{fill:#fff;}</style></defs><title>coming-soon-stripe</title><g id="Layer_2" data-name="Layer 2"><g id="artwork"><polygon class="cls-1" points="0 40 43.1 40 115.06 0 71.96 0 0 40"/><path class="cls-2" d="M33.28,35.43a1.81,1.81,0,0,1-1.75-3.16,1.81,1.81,0,0,1,1.56-.11l.36-1.09a2.92,2.92,0,0,0-2.52.26,2.92,2.92,0,1,0,2.83,5.11,2.92,2.92,0,0,0,1.55-2l-1.11-.27A1.78,1.78,0,0,1,33.28,35.43ZM36,28.5a2.93,2.93,0,1,0,4.12,1.05A2.92,2.92,0,0,0,36,28.5Zm2.3,4.13a1.81,1.81,0,0,1-1.76-3.16,1.81,1.81,0,0,1,1.76,3.16ZM44.23,24l-.11,4.08-3.56-2-.94.52,2.75,4.94,1.07-.6L41.82,28l2.77,1.58.52-.29.09-3.25,1.66,3,1.07-.6-2.76-4.93Zm2.12-1.18,2.75,4.93,1.14-.63-2.75-4.94Zm5.71-3.18,1.67,3L49.61,21l-1,.53,2.75,4.94,1.13-.63-1.67-3L55,24.51l.94-.52-2.75-4.94Zm7-.75.8,1.45a2.07,2.07,0,0,1-.77.7,1.8,1.8,0,1,1-1.74-3.16,1.9,1.9,0,0,1,1.58-.16l.36-1.08a3,3,0,0,0-2.54.3,2.92,2.92,0,1,0,2.82,5.11,3.85,3.85,0,0,0,1.65-1.74l-1.12-2Zm4.39-3.74c-.18-.31-.06-.71.62-1.09a3.18,3.18,0,0,1,1.58-.37l-.13-1.07a3.89,3.89,0,0,0-1.95.52c-1.41.78-1.7,1.86-1.23,2.7,1,1.83,3.54-.4,4,.52.17.31,0,.68-.65,1.06a3.35,3.35,0,0,1-1.92.39l.09,1.08a4,4,0,0,0,2.33-.55c1.41-.78,1.7-1.87,1.24-2.69C66.44,13.87,63.92,16.1,63.42,15.19Zm5.21-4.85a2.93,2.93,0,1,0,2.85,5.11,2.93,2.93,0,1,0-2.85-5.11Zm2.31,4.14a1.73,1.73,0,0,1-2.43-.72,1.77,1.77,0,1,1,2.43.72ZM74.59,7a2.93,2.93,0,1,0,2.84,5.11A2.93,2.93,0,1,0,74.59,7Zm2.3,4.14a1.73,1.73,0,0,1-2.43-.73,1.77,1.77,0,1,1,3.09-1.71A1.73,1.73,0,0,1,76.89,11.17Zm8.58-3.62L82.72,2.62l-1.13.62,1.67,3L79.14,4.61l-1,.53,2.75,4.93,1.13-.63-1.67-3,4.13,1.62Z"/></g></g></svg>