<svg width="22" height="23" viewBox="0 0 22 23" fill="none" xmlns="http://www.w3.org/2000/svg">
<path d="M19.8498 21.9354C19.8121 22.2779 19.5227 22.5372 19.1782 22.5372H3.02094C2.67896 22.5372 2.39088 22.2817 2.35003 21.9422L0.0640793 2.94547C0.0417622 2.76001 0.260878 2.64563 0.400287 2.76996L6.40807 8.12803C6.50592 8.21529 6.65962 8.18813 6.72162 8.0726L10.8214 0.434353C10.8978 0.291884 11.1022 0.291884 11.1786 0.434353L15.2784 8.0726C15.3404 8.18813 15.4941 8.21529 15.5919 8.12803L21.6057 2.7646C21.7444 2.64093 21.9625 2.75341 21.9422 2.93809L19.8498 21.9354Z" fill="url(#paint0_linear)"/>
<defs>
<linearGradient id="paint0_linear" x1="22" y1="0.101559" x2="-1.90568" y2="2.3593" gradientUnits="userSpaceOnUse">
<stop stop-color="#FFE785"/>
<stop offset="0.356818" stop-color="#FFFA8B"/>
<stop offset="0.809259" stop-color="#E5C656"/>
<stop offset="1" stop-color="#FFEF81"/>
</linearGradient>
</defs>
</svg>
