<svg xmlns="http://www.w3.org/2000/svg" viewBox="0 0 409.01538 71.80245"><defs><style>.cls-1{fill:#e8b909;}.cls-2{fill:#fff;}.cls-3{fill:#fd0;}.cls-4{fill:#0054a4;}.cls-5{fill:#a30046;}.cls-6{fill:#e31937;}.cls-7{fill:#231f20;}.cls-8{fill:none;stroke:#231f20;stroke-miterlimit:10;stroke-width:1.0007px;}.cls-9{fill:#00be40;}</style></defs><g id="Layer_2" data-name="Layer 2"><g id="ARTE"><g id="DE_joint-logo-flag-black"><path class="cls-1" d="M180.71731,1.19321l.358.23733c3.92543,2.59862,7.08539,3.07414,11.89474,3.07414a16.36506,16.36506,0,0,0,5.25711-.92l.45632-.15788L200.96382,6.622l-.23457.31339c-8.4715,11.25577-1.86557,23.408,2.81,28.25887l.43249.449-.44105.44044c-.61327.61176-1.675,1.71625-2.46358,2.54395l-.267.281.01708.3867.00432.13437c.00425.09839.00731.20035.02745.3775l.00732.07025c.3959,7.50756-1.54974,13.67424-5.78242,18.32721-4.49778,4.94434-11.59237,7.92109-19.97591,8.38167l-.32315.01833-.23945.21868c-2.135,1.94313-4.30167,3.55705-4.32488,3.57475l-.37788.28161-.37782-.28036c-.08976-.06718-2.22962-1.65908-4.33683-3.576l-.23913-.21868-.32347-.01833c-8.38379-.46058-15.47838-3.43733-19.97647-8.38167-4.23362-4.65479-6.17894-10.82147-5.78123-18.329l.00551-.07087c.01951-.16614.0232-.25778.02745-.36224l.00063-.02809.00031-.00306.00394-.116.01683-.38732-.26666-.28036c-.74369-.78129-1.835-1.91749-2.46332-2.54395l-.44075-.44044.43224-.449c4.67618-4.85089,11.28079-17.0031,2.81023-28.25887L138.6883,6.622l2.28186-3.19512.45576.15788a16.345,16.345,0,0,0,5.257.92c4.809,0,7.96907-.47552,11.89449-3.07414l.35856-.23733.35279.24433a17.83456,17.83456,0,0,0,10.538,3.52284,17.83483,17.83483,0,0,0,10.53742-3.52284l.353-.24433"/><path class="cls-2" d="M144.03217,28.98726c2.65386-6.08574,3.64225-13.90175-.82132-21.54123a19.90909,19.90909,0,0,0,3.47211.32071c4.56809,0,8.16486-.41541,12.2045-2.69852a20.71224,20.71224,0,0,0,10.93113,3.15453A20.72446,20.72446,0,0,0,180.765,5.06822c4.04027,2.28311,7.637,2.69852,12.20507,2.69852a18.43358,18.43358,0,0,0,3.48318-.33966c-4.474,7.65781-3.48681,15.47444-.83264,21.56018H144.03217"/><path class="cls-3" d="M195.62058,28.98726c-2.65417-6.08574-3.64137-13.90237.83264-21.56018a18.43358,18.43358,0,0,1-3.48318.33966c-4.568,0-8.1648-.41541-12.20507-2.69852a20.72446,20.72446,0,0,1-10.94638,3.15453c-.04035,0-.07976-.00213-.12035-.00244v20.767Z"/><path class="cls-4" d="M189.93956,58.39822c5.08358-3.71587,8.086-9.64917,7.645-18.30513-.05135-.49235-.088-.52106-.1271-1.01648h-7.51788Z"/><path class="cls-5" d="M181.89386,62.12329a24.26059,24.26059,0,0,0,8.04688-3.72626V39.07661h-8.04688Z"/><path class="cls-5" d="M149.71194,58.397a24.26932,24.26932,0,0,0,8.04789,3.72626V39.07661h-8.04789Z"/><path class="cls-4" d="M142.06883,40.09309c-.44106,8.656,2.56134,14.58988,7.6453,18.30576V39.07661h-7.51888C142.15616,39.572,142.12013,39.60074,142.06883,40.09309Z"/><path class="cls-5" d="M169.84636,43.349a7.53656,7.53656,0,0,1,4.00424,1.15209V39.07661h-8.04751V44.5255A7.53633,7.53633,0,0,1,169.84636,43.349Z"/><path class="cls-5" d="M169.84636,58.51188a7.531,7.531,0,0,1-4.04327-1.17655v6.00116c.1423.00732.2828.01708.42542.0244,2.67318.01345,5.09678.02815,7.19629,0,.14294-.00732.28349-.01708.4258-.0244V57.35978A7.537,7.537,0,0,1,169.84636,58.51188Z"/><path class="cls-4" d="M173.84879,39.07661v5.42324a7.56667,7.56667,0,0,1,0,12.86056v5.97608a38.46746,38.46746,0,0,0,8.04751-1.2132V39.07661Z"/><path class="cls-4" d="M162.26587,50.931a7.571,7.571,0,0,1,3.53935-6.40732V39.07661h-8.04783V62.12329a38.46621,38.46621,0,0,0,8.04783,1.2132V57.33658A7.56879,7.56879,0,0,1,162.26587,50.931Z"/><path class="cls-6" d="M145.84488,14.26876a22.46917,22.46917,0,0,1,.21105,7.67733h7.81663v7.04117h7.67733V21.94609H169.73V14.26876h-8.18012v-7.809a23.64691,23.64691,0,0,1-2.66243-1.39154,19.42494,19.42494,0,0,1-5.0149,2.00669v7.19385Z"/><path class="cls-6" d="M186.2524,28.98726V7.18243a18.74824,18.74824,0,0,1-2.7587-.82438V28.98726Z"/><path class="cls-6" d="M175.2165,28.98726V7.49457a19.837,19.837,0,0,1-2.7587.55559v20.9371Z"/><path class="cls-6" d="M191.77034,28.98726V7.75391c-.95361-.01807-1.86987-.06236-2.75869-.14662v21.38Z"/><path class="cls-6" d="M180.73445,28.98726V5.08561a23.48262,23.48262,0,0,1-2.7587,1.42976V28.98726Z"/><path class="cls-7" d="M205.24779,35.63866l-1.0525-1.09286c-4.49047-4.65873-10.84036-16.31377-2.73912-27.08088l.63591-.846-3.06289-4.29161-1.09829.37932a15.4153,15.4153,0,0,1-4.96086.87017c-4.62726,0-7.65962-.45144-11.392-2.923l-.87292-.57848-.8601.59737a16.96919,16.96919,0,0,1-10.01817,3.36008A16.96944,16.96944,0,0,1,159.80805.67271l-.85978-.59737L158.075.65382c-3.73207,2.47152-6.76443,2.923-11.39207,2.923a15.409,15.409,0,0,1-4.96048-.87017l-1.09836-.37932L137.56,6.61827l.63623.84665c8.10187,10.76711,1.75166,22.42215-2.73793,27.08088l-1.05282,1.09286,1.0739,1.07146c.577.576,1.60078,1.63831,2.44681,2.52894-.00244.0501-.00332.09408-.0052.138-.00331.09227-.00549.16983-.0232.31889l-.00857.10021c-.41385,7.76528,1.61085,14.15984,6.01612,19.00335,4.67,5.13437,11.969,8.20458,20.60018,8.6786,2.13836,1.94745,4.30937,3.56193,4.40683,3.63462l.9224.6842.92052-.68664c.09652-.07206,2.256-1.686,4.39214-3.63218,8.63155-.474,15.93013-3.54423,20.59961-8.6786,4.40614-4.84351,6.43-11.23682,6.017-19.00335l-.00913-.10021a2.99749,2.99749,0,0,1-.02263-.3207c-.00183-.04216-.00364-.08614-.00552-.13624.84671-.89063,1.87114-1.95352,2.44718-2.52894Zm-5.11292,3.03417c.07882.78.033.74951.08677,1.20583.92177,17.30823-11.13605,25.481-25.70823,26.08454-2.22725,2.08062-4.68081,3.90954-4.68081,3.90954s-2.46544-1.82892-4.69294-3.90954c-14.57219-.60351-26.63032-8.77631-25.70854-26.08454.054-.45632.00825-.4258.08732-1.20583-.83533-.8833-2.21805-2.32652-2.94829-3.05494,5.22683-5.42356,11.32539-17.8318,2.86034-29.08144l1.78769-2.3708a16.92793,16.92793,0,0,0,5.46478.95543c4.85427,0,8.16911-.48141,12.24479-3.18018a18.59043,18.59043,0,0,0,10.89909,3.6365,18.59115,18.59115,0,0,0,10.899-3.6365c4.07505,2.69877,7.389,3.18018,12.24416,3.18018a16.93327,16.93327,0,0,0,5.46478-.95543l1.78745,2.3708c-8.46537,11.24964-2.3665,23.65788,2.86127,29.08144C202.35292,36.34631,200.97,37.78953,200.13487,38.67283Z"/><path class="cls-7" d="M141.96468,39.05828c-.02076.26447-.04122.39095-.06293.53264-.01926.121-.0394.25233-.06411.49053-.33935,6.656,1.32342,12.04262,4.941,16.01139,4.1496,4.551,10.87213,7.14344,19.449,7.499l.32621.00119c1.42727.00857,2.78122.0147,4.05059.0147.99515,0,1.93833-.00369,2.82957-.01651,8.56858-.35493,15.29054-2.94742,19.44015-7.49837,3.61816-3.96939,5.28093-9.35542,4.94009-16.023-.02321-.22663-.044-.358-.06293-.479-.022-.14169-.04216-.26817-.06293-.53264l-.01714-.2138H141.98113Zm.33441,1.05864c.02265-.21506.04185-.33966.05992-.45513.01645-.10628.032-.20524.04761-.35305h54.83951c.01583.14906.03172.24677.04761.3543.01832.11422.0379.23882.05987.44225.33233,6.52711-1.28953,11.80066-4.82093,15.67479-4.06529,4.45812-10.67548,6.99932-19.1115,7.34868-2.01219.02752-4.32251.01589-6.8649.0025l-.31795-.0025c-8.44247-.34936-15.05328-2.89056-19.11763-7.348C143.58923,51.9072,141.96743,46.6324,142.29909,40.11692Z"/><path class="cls-7" d="M143.82018,28.89412l-.14143.3237h52.295l-.14113-.3237c-2.27122-5.20951-3.97428-13.14311.821-21.35038l.25654-.43981-.5003.09652A18.2679,18.2679,0,0,1,192.97,7.5346c-4.66761,0-8.14159-.4368-12.09022-2.6683l-.11854-.06687-.116.07056a20.43958,20.43958,0,0,1-10.826,3.12062A20.41961,20.41961,0,0,1,159.00719,4.87l-.11578-.07056-.11785.06687C154.82493,7.0978,151.35,7.5346,146.683,7.5346a19.75555,19.75555,0,0,1-3.43151-.31614l-.49266-.08763.25258.43186C147.79658,15.75407,146.09228,23.68461,143.82018,28.89412ZM169.96059,8.45331a20.86915,20.86915,0,0,0,10.80926-3.11755c3.98773,2.22387,7.50143,2.66186,12.20019,2.66186a18.66652,18.66652,0,0,0,3.03724-.25534c-4.49233,8.0512-2.94191,15.79577-.73793,21.01316H169.96059Zm-26.30686-.6994a19.77279,19.77279,0,0,0,3.02923.24371c4.6982,0,8.21221-.438,12.2005-2.66186a20.8615,20.8615,0,0,0,10.61411,3.11511V28.75544H144.3834C146.588,23.53743,148.14143,15.79317,143.65373,7.75391Z"/><polygon class="cls-7" points="163.227 31.996 163.227 30.468 158.05 30.468 158.05 37.641 159.607 37.641 159.607 34.683 161.722 34.683 161.722 33.166 159.607 33.166 159.607 31.996 163.227 31.996"/><path class="cls-7" d="M169.289,31.90446a1.26346,1.26346,0,0,1,1.216.72079l.033.065,1.441-.664-.03359-.06993a2.7442,2.7442,0,0,0-2.63652-1.59866c-1.88115,0-3.19482,1.52047-3.19482,3.69667,0,2.24551,1.23429,3.696,3.14415,3.696a2.7483,2.7483,0,0,0,2.66642-1.62737l.03116-.06292-1.3091-.77578-.0391.06474a1.39271,1.39271,0,0,1-1.30847.85585c-.95018,0-1.58853-.865-1.58853-2.15056C167.7105,32.72877,168.31557,31.90446,169.289,31.90446Z"/><path class="cls-7" d="M181.30862,32.39981c0-1.20889-.86129-1.9315-2.30231-1.9315h-3.29565v7.17278h3.2645a2.26592,2.26592,0,0,0,2.57416-2.34272,1.68389,1.68389,0,0,0-.90589-1.54455A1.6335,1.6335,0,0,0,181.30862,32.39981Zm-4.0708-.48559h1.708c.6964,0,.7856.31914.7856.59587,0,.39433-.234.58556-.71535.58556h-1.77825Zm1.78863,4.24h-1.78863V34.49176h1.78863c.631,0,.92609.26328.92609.82769C179.95254,35.86529,179.63184,36.15422,179.02645,36.15422Z"/><path class="cls-7" d="M169.79719,58.63648a7.747,7.747,0,1,0-7.74669-7.747A7.75587,7.75587,0,0,0,169.79719,58.63648Zm0-.46545a7.254,7.254,0,0,1-4.06316-1.23948,11.53306,11.53306,0,0,0,4.84907-1.21865c1.229-.73243,2.53382-1.64632,2.77208-2.86741a1.92966,1.92966,0,0,1,2.81856,1.56138A7.28166,7.28166,0,0,1,169.79719,58.171Zm-3.59064-5.61384a3.02354,3.02354,0,0,0,1.29747.46057,2.49278,2.49278,0,0,0,2.50579-2.01463,1.745,1.745,0,0,1,2.78584.68051c.63772,1.52528-.70559,2.62671-2.43492,3.65907a11.5453,11.5453,0,0,1-5.19111,1.168,7.313,7.313,0,0,1-1.9218-2.438c.05836.00306.11666.00488.17621.00488A3.11958,3.11958,0,0,0,166.20655,52.55719Zm-1.15884-3.67741a16.38549,16.38549,0,0,1,.70283-4.04271,7.21107,7.21107,0,0,1,3.41074-1.19975,2.01757,2.01757,0,0,0,.19973,2.95048,2.14473,2.14473,0,0,0-.54395.59556,2.80115,2.80115,0,0,0,.75751,3.81427,2.08117,2.08117,0,0,1-2.01526,1.59008C165.87177,52.37147,165.07461,50.80521,165.04771,48.87978Zm8.34475,3.48193a2.47236,2.47236,0,0,0-.19735-.84671,2.173,2.173,0,0,0-3.39854-.89181,2.3656,2.3656,0,0,1-.613-3.20826c.846-1.3415,2.77026-.807,4.5283.17527a7.51344,7.51344,0,0,1,3.3353,3.96884,7.2179,7.2179,0,0,1-.56566,2.221A2.35509,2.35509,0,0,0,173.39246,52.36171Zm.53083-5.14964c-1.27182-.70978-2.94072-1.35977-4.14473-.85885a1.60572,1.60572,0,0,1,.08156-2.744,7.27964,7.27964,0,0,1,7.20424,6.83981A8.45972,8.45972,0,0,0,173.92329,47.21207Zm-8.717-1.97366c-.13561.5357-.26634,1.00366-.37112,1.48012-.37444,1.71588-.37019,4.29924,1.02536,5.57106a2.684,2.684,0,0,1-2.43648,1.35432,2.85675,2.85675,0,0,1-.37838-.02508,7.28806,7.28806,0,0,1,2.16062-8.38042Z"/><line class="cls-8" x1="103.10904" y1="0.04199" x2="103.10893" y2="71.80245"/><path d="M235.39429,17.49279c0-3.04907,1.585-4.70288,4.54785-4.70288,2.9458,0,4.54834,1.65381,4.54834,4.70288v2.65308c0,3.032-1.585,4.70313-4.54834,4.70313-2.9458,0-4.54785-1.65381-4.54785-4.70313Zm4.54785,5.27173c1.55078,0,2.20508-.72363,2.20508-2.44629V17.32068c0-1.72266-.6543-2.44629-2.20508-2.44629-1.55029,0-2.20508.72363-2.20508,2.44629v2.99755C237.73706,22.04089,238.39185,22.76452,239.94214,22.76452Z"/><path d="M246.55689,12.96228h7.25244l-.34473,2.11889h-4.56494v2.68726h4.11719v2.11914h-4.11719v4.78906h-2.34277Z"/><path d="M255.29029,12.96228h7.25244l-.34473,2.11889h-4.56494v2.68726h4.11719v2.11914h-4.11719v4.78906h-2.34277Z"/><path d="M264.678,22.83337V14.80554l-1.17139-.20679V12.96228h4.686v1.63647l-1.17139.20679v8.02783l1.17139.20679v1.63647h-4.686V23.04016Z"/><path d="M269.57007,22.4198l3.49707-4.84082c1.0166-1.4126,1.80908-2.46338,1.80908-2.46338v-.06885s-.999.03442-1.68847.03442h-3.54883V12.96228h7.89014v2.25659L274.032,20.05969c-1.01661,1.4126-1.8086,2.46362-1.8086,2.46362v.06885s.999-.03442,1.688-.03442h3.68652v2.11889h-8.02783Z"/><path d="M280.14673,22.83337V14.80554l-1.17139-.20679V12.96228h4.686v1.63647l-1.17139.20679v8.02783l1.17139.20679v1.63647h-4.686V23.04016Z"/><path d="M285.55591,12.96228h7.42481l-.34473,2.11889h-4.73731v2.68726h4.28956v2.11914h-4.28956v2.67017h4.90967v2.11889h-7.25244Z"/><path d="M294.87525,12.96228H297.218v9.59546h4.7373l-.34423,2.11889h-6.73584Z"/><path d="M303.29859,12.96228h2.34277v9.59546h4.7373l-.34423,2.11889h-6.73584Z"/><path d="M311.72241,12.96228h7.42481l-.34473,2.11889h-4.7373v2.68726h4.28955v2.11914h-4.28955v2.67017h4.90967v2.11889h-7.25245Z"/><path d="M321.04175,12.96228H325.469c2.5498,0,3.94482,1.20581,3.94482,3.47973a3.78119,3.78119,0,0,1-2.41162,3.51441,19.03444,19.03444,0,0,0,2.36035,3.30761v1.4126h-1.792a26.01028,26.01028,0,0,1-2.96289-4.479h-1.22315v4.479h-2.34277Zm4.94385,5.11645a1.53248,1.53248,0,0,0,1.08545-1.53345,1.36425,1.36425,0,0,0-1.51612-1.46411h-2.17041v2.99756Z"/><path d="M244.387,41.90661h-2.34278V37.11755h-3.9624v4.78906H235.739V30.19226h2.34277v4.80615h3.9624V30.19226H244.387Z"/><path d="M246.1604,40.59729l2.877-10.405h3.79l2.87695,10.405v1.30932h-2.10156l-.6377-2.46338a10.566,10.566,0,0,1-2.08447.20655,11.29333,11.29333,0,0,1-2.03272-.18946l-.6372,2.44629h-2.0503Zm3.20459-3.10083a8.69335,8.69335,0,0,0,1.51563.13769,7.92234,7.92234,0,0,0,1.56787-.155l-.689-2.60132c-.27587-1.0852-.62011-2.60107-.62011-2.60107h-.46534s-.34472,1.51587-.6372,2.60107Z"/><path d="M257.47827,30.19226h2.15332l3.3418,5.49536c.27588.448.93067,1.77441.93067,1.77441h.03418s-.08594-1.25757-.08594-2.41186V30.19226h2.27392V41.90661H263.8523V40.9591l-2.9458-4.80639c-.3794-.67188-1.1543-2.01563-1.1543-2.01563h-.05176s.05176,1.06812.05176,2.22241v5.54712h-2.27393Z"/><path d="M268.53736,30.19226h4.186c2.80811,0,4.34131,1.36084,4.34131,4.49609v2.72193c0,3.13549-1.5332,4.49633-4.34131,4.49633h-4.186Zm2.34277,2.10156v7.511h1.70557c1.48144,0,2.13623-.55127,2.13623-2.18775V34.48181c0-1.63672-.65479-2.188-2.13623-2.188Z"/><path d="M279.13111,30.19226h7.4248l-.34473,2.11889h-4.7373v2.68726h4.28955v2.11914h-4.28955v2.67017h4.90967v2.11889h-7.25244Z"/><path d="M288.45044,30.19226h2.34278v9.59546h4.7373l-.34424,2.11889h-6.73584Z"/><path d="M296.35669,39.30529h1.82617s.34473.7063,1.79151.7063c1.39551,0,1.9126-.51684,1.9126-1.30932,0-.60279-.34473-1.10254-1.36133-1.46411l-1.05078-.37915c-2.188-.79248-2.99756-1.70533-2.99756-3.46265,0-2.1189,1.499-3.30762,4.13476-3.30762a7.65151,7.65151,0,0,1,3.32471.74072v1.98121h-1.84326s-.20654-.72364-1.602-.72364c-1.189,0-1.70557.55127-1.70557,1.25757,0,.68921.37891.94751,1.42969,1.32666l1.05078.37891c2.46387.89575,2.92871,1.92944,2.92871,3.48,0,2.20508-1.24023,3.47973-4.28955,3.47973a9.15,9.15,0,0,1-3.54883-.72338Z"/><path d="M306.12378,30.19226h4.34131c2.61816,0,3.96191,1.292,3.96191,3.70361a3.95921,3.95921,0,0,1-2.56689,3.72119h-3.39355v4.28955h-2.34278Zm4.96143,5.30591a1.71807,1.71807,0,0,0,.999-1.68824,1.41637,1.41637,0,0,0-1.602-1.49878h-2.01562v3.187Z"/><path d="M315.37378,40.59729l2.877-10.405h3.79l2.877,10.405v1.30932h-2.10157l-.63769-2.46338a10.5661,10.5661,0,0,1-2.08447.20655,11.29333,11.29333,0,0,1-2.03272-.18946l-.63721,2.44629h-2.05029Zm3.20459-3.10083a8.69335,8.69335,0,0,0,1.51563.13769,7.9187,7.9187,0,0,0,1.56787-.155l-.689-2.60132c-.27588-1.0852-.62011-2.60107-.62011-2.60107h-.46534s-.34472,1.51587-.6372,2.60107Z"/><path d="M326.69165,30.19226h4.42725c2.5498,0,3.94482,1.20581,3.94482,3.47973a3.78119,3.78119,0,0,1-2.41162,3.51441,19.03475,19.03475,0,0,0,2.36035,3.30762v1.41259h-1.792a26.01094,26.01094,0,0,1-2.96289-4.479h-1.22314v4.479h-2.34278Zm4.94385,5.11645a1.53247,1.53247,0,0,0,1.08545-1.53344,1.36425,1.36425,0,0,0-1.51611-1.46412h-2.17041v2.99756Z"/><path d="M341.09253,32.31115v9.59546h-2.34277V32.31115h-2.791V30.19226h8.02832l-.34472,2.11889Z"/><path d="M345.3645,30.19226h2.15332l3.3418,5.49536c.27588.448.93067,1.77441.93067,1.77441h.03418s-.08594-1.25757-.08594-2.41186V30.19226h2.27392V41.90661h-2.27392V40.9591l-2.9458-4.80639c-.3794-.67188-1.1543-2.01563-1.1543-2.01563h-.05176s.05176,1.06812.05176,2.22241v5.54712H345.3645Z"/><path d="M356.42359,30.19226h7.4248l-.34473,2.11889h-4.7373v2.68726h4.28955v2.11914h-4.28955v2.67017H363.676v2.11889h-7.25244Z"/><path d="M365.74292,30.19226h4.42725c2.5498,0,3.94482,1.20581,3.94482,3.47973a3.78119,3.78119,0,0,1-2.41162,3.51441,19.03475,19.03475,0,0,0,2.36035,3.30762v1.41259h-1.792a26.01094,26.01094,0,0,1-2.96289-4.479H368.0857v4.479h-2.34278Zm4.94385,5.11645a1.53247,1.53247,0,0,0,1.08545-1.53344,1.36425,1.36425,0,0,0-1.51611-1.46412H368.0857v2.99756Z"/><path d="M380.62622,30.19226l1.86035,7.02856c.293,1.08521.56885,2.60132.56885,2.60132h.43067s.31006-1.51611.58545-2.60132l1.84326-7.02856h2.05029v1.37793l-2.84277,10.33642h-3.79l-2.77344-10.33642V30.19226Z"/><path d="M389.20484,34.72278c0-3.04908,1.585-4.70289,4.54785-4.70289,2.9458,0,4.54834,1.65381,4.54834,4.70289v2.65307c0,3.032-1.585,4.70313-4.54834,4.70313-2.9458,0-4.54785-1.65381-4.54785-4.70313Zm4.54785,5.27172c1.55078,0,2.20508-.72363,2.20508-2.44629V34.55066c0-1.72266-.6543-2.44629-2.20508-2.44629-1.55029,0-2.20508.72363-2.20508,2.44629v2.99755C391.54761,39.27087,392.2024,39.9945,393.75269,39.9945Z"/><path d="M400.36743,30.19226h2.15332l3.3418,5.49536c.27588.448.93067,1.77441.93067,1.77441h.03418s-.08594-1.25757-.08594-2.41186V30.19226h2.27392V41.90661h-2.27392V40.9591l-2.9458-4.80639c-.3794-.67188-1.1543-2.01563-1.1543-2.01563h-.05176s.05176,1.06812.05176,2.22241v5.54712h-2.27393Z"/><path d="M235.739,47.42224h7.25244l-.34473,2.11889h-4.56494v2.68726H242.199v2.11914h-4.11719v4.78906H235.739Z"/><path d="M244.12769,51.79773c0-3.10083,1.5332-4.4961,4.34131-4.4961a4.66624,4.66624,0,0,1,3.51416,1.30908v1.82618h-1.91211s-.1377-1.05078-1.585-1.05078c-1.53321,0-2.01563.75781-2.01563,2.3601v3.06641c0,1.602.48242,2.36011,2.01563,2.36011,1.44726,0,1.585-1.05078,1.585-1.05078h1.91211v1.82592A4.66584,4.66584,0,0,1,248.469,59.2572c-2.80811,0-4.34131-1.39551-4.34131-4.49634Z"/><path d="M257.25415,47.42224h4.2378c2.8081,0,3.79,1.27466,3.79,3.2041a2.95433,2.95433,0,0,1-1.36084,2.584V53.245a3.00205,3.00205,0,0,1,1.5332,2.53223c0,2.10181-1.1543,3.35937-3.80762,3.35937h-4.39258Zm2.27393,2.01538V52.2113h2.54932a1.54977,1.54977,0,0,0,.91308-1.42993,1.25863,1.25863,0,0,0-1.4126-1.34375Zm0,4.75488V57.121h2.188a1.34378,1.34378,0,0,0,1.44677-1.46436,1.62693,1.62693,0,0,0-1.03369-1.46411Z"/><path d="M266.71118,57.82727l2.877-10.405h3.79l2.877,10.405v1.30932h-2.10156l-.6377-2.46338a10.566,10.566,0,0,1-2.08447.20655,11.29333,11.29333,0,0,1-2.03272-.18946l-.6372,2.44629h-2.0503Zm3.20459-3.10083a8.69335,8.69335,0,0,0,1.51563.13769,7.92234,7.92234,0,0,0,1.56787-.155l-.689-2.60132c-.27588-1.0852-.62012-2.60107-.62012-2.60107h-.46533s-.34473,1.51587-.63721,2.60107Z"/><path d="M278.02906,47.42224h4.42724c2.54981,0,3.94483,1.20581,3.94483,3.47973a3.78119,3.78119,0,0,1-2.41163,3.51441,19.03445,19.03445,0,0,0,2.36036,3.30762v1.41259h-1.792a26.01094,26.01094,0,0,1-2.96289-4.479h-1.22314v4.479h-2.34277Zm4.94384,5.11645a1.53247,1.53247,0,0,0,1.08545-1.53344,1.36425,1.36425,0,0,0-1.51611-1.46412h-2.17041v2.99756Z"/><path d="M287.88208,51.79773c0-3.10083,1.53321-4.4961,4.34131-4.4961a4.66624,4.66624,0,0,1,3.51416,1.30908v1.82618h-1.91211s-.13769-1.05078-1.585-1.05078c-1.5332,0-2.01562.75781-2.01562,2.3601v3.06641c0,1.602.48242,2.36011,2.01562,2.36011,1.44727,0,1.585-1.05078,1.585-1.05078h1.91211v1.82592a4.66584,4.66584,0,0,1-3.51416,1.30933c-2.8081,0-4.34131-1.39551-4.34131-4.49634Z"/><path d="M297.56324,47.42224h7.4248l-.34473,2.11889H299.906v2.68726h4.28955v2.11914H299.906V57.0177h4.90967v2.11889h-7.25244Z"/><path d="M306.88257,47.42224h2.34277V57.0177h4.73731l-.34424,2.11889h-6.73584Z"/><path d="M314.96167,51.95276c0-3.04908,1.585-4.70289,4.54785-4.70289,2.9458,0,4.54834,1.65381,4.54834,4.70289v2.65307c0,3.032-1.585,4.70313-4.54834,4.70313-2.9458,0-4.54785-1.65381-4.54785-4.70313Zm4.54785,5.27172c1.55079,0,2.20508-.72363,2.20508-2.44628V51.78064c0-1.72266-.65429-2.44629-2.20508-2.44629-1.55029,0-2.20507.72363-2.20507,2.44629V54.7782C317.30445,56.50085,317.95923,57.22448,319.50952,57.22448Z"/><path d="M326.12427,47.42224h2.15332l3.3418,5.49536c.27588.448.93066,1.77441.93066,1.77441h.03418s-.08594-1.25756-.08594-2.41186V47.42224h2.27393V59.13659h-2.27393v-.94751l-2.9458-4.80639c-.37939-.67188-1.15429-2.01563-1.15429-2.01563h-.05176s.05176,1.06812.05176,2.22241v5.54712h-2.27393Z"/><path d="M336.54566,57.82727l2.877-10.405h3.79l2.877,10.405v1.30932H343.988l-.6377-2.46338a10.566,10.566,0,0,1-2.08447.20655,11.29322,11.29322,0,0,1-2.03271-.18946l-.63721,2.44629h-2.05029Zm3.20459-3.10083a8.69315,8.69315,0,0,0,1.51562.13769,7.9187,7.9187,0,0,0,1.56787-.155l-.689-2.60132c-.27588-1.0852-.62012-2.60107-.62012-2.60107h-.46533s-.34473,1.51587-.63721,2.60107Z"/><rect class="cls-9" width="71.72194" height="71.72194" rx="6.96572"/><rect class="cls-2" x="14.24442" y="45.39241" width="43.36435" height="3.44882"/><path class="cls-2" d="M26.07932,28.19823V24.69042H14.24442V41.06323h4.32464V35.24109H25.258V31.72873H18.56906v-3.5305Z"/><path class="cls-2" d="M39.026,32.57279a3.962,3.962,0,0,0,2.64107-3.63034c0-2.6456-1.96038-4.23388-5.264-4.23388h-8.377V41.06323h8.46776c3.60311,0,5.75408-1.70626,5.75408-4.606A4.02086,4.02086,0,0,0,39.026,32.57279ZM32.26,28.01218h3.34445c1.21616,0,1.86962.55816,1.86962,1.59281s-.65346,1.58827-1.86962,1.58827H32.26Zm3.63033,9.7293H32.26V34.48779h3.67117c1.21617,0,1.89685.58085,1.89685,1.68357,0,1.03918-.68068,1.57012-1.94222,1.57012Z"/><path class="cls-2" d="M52.68513,31.12065l-1.96945-.2632c-1.94223-.28135-2.514-.75783-2.514-1.66088s.75783-1.5202,2.44594-1.5202a2.3718,2.3718,0,0,1,2.69552,2.00122l4.11589-.53093c-.60354-3.22192-2.91788-4.78751-6.69343-4.78751-4.2248,0-7.002,2.11014-7.002,5.3366,0,2.77266,1.68356,4.38816,5.12785,4.86464l2.06021.28136c2.18274.31311,2.72275.80775,2.72275,1.76071s-.80775,1.5202-2.72275,1.5202a3.09942,3.09942,0,0,1-3.10394-2.18274l-4.28833.64439c.6943,3.33537,3.231,4.85557,7.26067,4.85557,4.57876,0,7.28336-1.96946,7.28336-5.3139C58.08526,33.18541,56.43345,31.6652,52.68513,31.12065Z"/></g></g></g></svg>