<svg xmlns="http://www.w3.org/2000/svg" viewBox="0 0 240.18994 112.52249"><defs><style>.cls-1{fill:none;stroke:#fff;stroke-miterlimit:10;}.cls-2{fill:#fff;}.cls-3{fill:#e8b909;}.cls-4{fill:#fd0;}.cls-5{fill:#0054a4;}.cls-6{fill:#a30046;}.cls-7{fill:#e31937;}.cls-8{fill:#231f20;}.cls-9{fill:#00be40;}</style></defs><g id="Layer_2" data-name="Layer 2"><g id="ARTE"><g id="DE_joint-logo-horizontal-white"><line class="cls-1" x1="120.74367" x2="120.74367" y2="71.7104"/><path class="cls-2" d="M0,90.96975C0,88.2825,1.39648,86.825,4.00781,86.825c2.59619,0,4.0083,1.45752,4.0083,4.14477v2.33814c0,2.67212-1.39648,4.14477-4.0083,4.14477C1.41162,97.45266,0,95.99514,0,93.30789ZM4.00781,95.6155c1.3667,0,1.94336-.63769,1.94336-2.15576V90.8179c0-1.51831-.57666-2.156-1.94336-2.156-1.36621,0-1.94336.6377-1.94336,2.156v2.64184C2.06445,94.97781,2.6416,95.6155,4.00781,95.6155Z"/><path class="cls-2" d="M9.83643,86.97683H16.228l-.30371,1.86743H11.90088v2.36841h3.62891V93.0801H11.90088v4.22071H9.83643Z"/><path class="cls-2" d="M17.53271,86.97683h6.39161l-.30371,1.86743H19.59717v2.36841h3.6289V93.0801h-3.6289v4.22071H17.53271Z"/><path class="cls-2" d="M25.80566,95.67629v-7.075L24.77344,88.419V86.97683h4.12939V88.419l-1.03222.18237v7.075l1.03222.18213v1.44239H24.77344V95.85842Z"/><path class="cls-2" d="M30.1167,95.31179l3.082-4.26611c.89551-1.24512,1.59424-2.17114,1.59424-2.17114v-.06079s-.88086.03051-1.48828.03051H30.17725V86.97683h6.95361V88.9656l-3.082,4.26636c-.89551,1.24487-1.59424,2.17114-1.59424,2.17114v.06055s.88086-.03028,1.48779-.03028h3.249v1.86744H30.1167Z"/><path class="cls-2" d="M39.437,95.67629v-7.075L38.40479,88.419V86.97683h4.12939V88.419l-1.03223.18237v7.075l1.03223.18213v1.44239H38.40479V95.85842Z"/><path class="cls-2" d="M44.20361,86.97683h6.54346l-.30371,1.86743H46.26807v2.36841h3.78076V93.0801H46.26807v2.35327h4.32714v1.86744h-6.3916Z"/><path class="cls-2" d="M52.41553,86.97683H54.48v8.45654h4.17529l-.30371,1.86744h-5.936Z"/><path class="cls-2" d="M59.83838,86.97683h2.06445v8.45654h4.17529l-.30371,1.86744h-5.936Z"/><path class="cls-2" d="M67.26123,86.97683h6.54346L73.501,88.84426h-4.1753v2.36841h3.78077V93.0801H69.32568v2.35327h4.32715v1.86744h-6.3916Z"/><path class="cls-2" d="M75.47314,86.97683H79.375c2.24707,0,3.47656,1.06275,3.47656,3.06665a3.33265,3.33265,0,0,1-2.12549,3.09741,16.76712,16.76712,0,0,0,2.08008,2.915v1.24488h-1.5791a22.92576,22.92576,0,0,1-2.61133-3.94751H77.5376v3.94751H75.47314Zm4.35694,4.509a1.3505,1.3505,0,0,0,.95654-1.35132,1.20223,1.20223,0,0,0-1.33594-1.29029H77.5376v2.64161Z"/><path class="cls-2" d="M95.11719,97.30081H93.05225V93.0801H89.56006v4.22071H87.49561v-10.324h2.06445v4.23584h3.49219V86.97683h2.06494Z"/><path class="cls-2" d="M96.6792,96.147l2.53564-9.17017h3.33985l2.53564,9.17017v1.15381h-1.852l-.562-2.17115a9.29561,9.29561,0,0,1-1.83691.18213,9.93394,9.93394,0,0,1-1.79151-.167l-.562,2.156H96.6792Zm2.82422-2.73291a7.66392,7.66392,0,0,0,1.33594.12134,6.98563,6.98563,0,0,0,1.38134-.13648l-.60693-2.29272c-.24316-.9563-.54688-2.29248-.54688-2.29248h-.40966s-.30371,1.33618-.562,2.29248Z"/><path class="cls-2" d="M106.65283,86.97683h1.89746l2.94532,4.843c.24316.39477.82031,1.564.82031,1.564h.03027s-.07617-1.10839-.07617-2.12573V86.97683h2.00439v10.324H112.27v-.835l-2.59619-4.23609c-.334-.592-1.01709-1.77637-1.01709-1.77637h-.04541s.04541.94141.04541,1.95874v4.88868h-2.00391Z"/><path class="cls-2" d="M116.39844,86.97683h3.689c2.4751,0,3.82617,1.19922,3.82617,3.9624v2.39893c0,2.76318-1.35107,3.96265-3.82617,3.96265h-3.689Zm2.06445,1.852v6.61963h1.50342c1.30566,0,1.88232-.48584,1.88232-1.92822V90.75711c0-1.44239-.57666-1.92823-1.88232-1.92823Z"/><path class="cls-2" d="M125.73389,86.97683h6.54345l-.30371,1.86743h-4.17529v2.36841h3.78076V93.0801h-3.78076v2.35327h4.32715v1.86744h-6.3916Z"/><path class="cls-2" d="M133.9458,86.97683h2.06445v8.45654h4.1753l-.30371,1.86744h-5.936Z"/><path class="cls-2" d="M140.91309,95.00833h1.60937s.30371.62231,1.57861.62231c1.23,0,1.68555-.45532,1.68555-1.15381,0-.53125-.30371-.97168-1.19971-1.29053l-.92578-.334c-1.92822-.69849-2.64209-1.50293-2.64209-3.05176,0-1.86743,1.32129-2.915,3.64405-2.915a6.74067,6.74067,0,0,1,2.93017.65284v1.74609h-1.62451s-.18213-.6377-1.41211-.6377c-1.04736,0-1.50293.48584-1.50293,1.1084,0,.60718.334.835,1.26025,1.16895l.92579.334c2.17138.78955,2.58105,1.70044,2.58105,3.0669,0,1.94336-1.09277,3.06689-3.78027,3.06689a8.06086,8.06086,0,0,1-3.12744-.63769Z"/><path class="cls-2" d="M149.52,86.97683h3.82568c2.30762,0,3.49219,1.13867,3.49219,3.26416a3.48907,3.48907,0,0,1-2.26221,3.2793h-2.99121v3.78052H149.52Zm4.37256,4.676a1.51407,1.51407,0,0,0,.88037-1.4878,1.24827,1.24827,0,0,0-1.41211-1.3208h-1.77637v2.8086Z"/><path class="cls-2" d="M157.67139,96.147l2.53564-9.17017h3.33985l2.53564,9.17017v1.15381h-1.852l-.562-2.17115a9.29563,9.29563,0,0,1-1.83692.18213,9.93391,9.93391,0,0,1-1.7915-.167l-.562,2.156h-1.80664Zm2.82422-2.73291a7.66389,7.66389,0,0,0,1.33593.12134,6.98565,6.98565,0,0,0,1.38135-.13648l-.60693-2.29272c-.24317-.9563-.54688-2.29248-.54688-2.29248h-.40967s-.30371,1.33618-.562,2.29248Z"/><path class="cls-2" d="M167.645,86.97683h3.90186c2.24707,0,3.47656,1.06275,3.47656,3.06665a3.33265,3.33265,0,0,1-2.12549,3.09741,16.76712,16.76712,0,0,0,2.08008,2.915v1.24488h-1.5791a22.92576,22.92576,0,0,1-2.61133-3.94751h-1.07813v3.94751H167.645Zm4.35693,4.509a1.35051,1.35051,0,0,0,.95655-1.35132,1.20223,1.20223,0,0,0-1.33594-1.29029h-1.91309v2.64161Z"/><path class="cls-2" d="M180.33545,88.84426v8.45655H178.271V88.84426h-2.45948V86.97683h7.07471l-.30371,1.86743Z"/><path class="cls-2" d="M184.09961,86.97683h1.89746l2.94531,4.843c.24317.39477.82032,1.564.82032,1.564h.03027s-.07617-1.10839-.07617-2.12573V86.97683h2.00439v10.324H189.7168v-.835l-2.59619-4.23609c-.334-.592-1.01709-1.77637-1.01709-1.77637h-.04541s.04541.94141.04541,1.95874v4.88868h-2.00391Z"/><path class="cls-2" d="M193.84521,86.97683h6.54346l-.30371,1.86743h-4.17529v2.36841h3.78076V93.0801h-3.78076v2.35327h4.32715v1.86744h-6.39161Z"/><path class="cls-2" d="M202.05713,86.97683H205.959c2.24707,0,3.47657,1.06275,3.47657,3.06665a3.33265,3.33265,0,0,1-2.12549,3.09741,16.76712,16.76712,0,0,0,2.08008,2.915v1.24488H207.811a22.92576,22.92576,0,0,1-2.61133-3.94751h-1.07813v3.94751h-2.06445Zm4.35693,4.509a1.35051,1.35051,0,0,0,.95655-1.35132,1.20223,1.20223,0,0,0-1.33594-1.29029h-1.91309v2.64161Z"/><path class="cls-2" d="M215.17236,86.97683l1.63965,6.19434c.2583.95654.50147,2.29248.50147,2.29248h.37939s.27344-1.33594.51611-2.29248l1.62452-6.19434h1.80664v1.21436l-2.50489,9.10962h-3.34033l-2.44433-9.10962V86.97683Z"/><path class="cls-2" d="M222.73193,90.96975c0-2.68725,1.39649-4.14477,4.00782-4.14477,2.59619,0,4.0083,1.45752,4.0083,4.14477v2.33814c0,2.67212-1.39649,4.14477-4.0083,4.14477-2.5962,0-4.00782-1.45752-4.00782-4.14477Zm4.00782,4.64575c1.3667,0,1.94336-.63769,1.94336-2.15576V90.8179c0-1.51831-.57666-2.156-1.94336-2.156-1.36621,0-1.94336.6377-1.94336,2.156v2.64184C224.79639,94.97781,225.37354,95.6155,226.73975,95.6155Z"/><path class="cls-2" d="M232.56836,86.97683h1.89746l2.94531,4.843c.24317.39477.82032,1.564.82032,1.564h.03027s-.07617-1.10839-.07617-2.12573V86.97683h2.00439v10.324h-2.00439v-.835l-2.59619-4.23609c-.334-.592-1.01709-1.77637-1.01709-1.77637h-.04541s.04541.94141.04541,1.95874v4.88868h-2.00391Z"/><path class="cls-2" d="M71.90674,102.04666h6.3916l-.30371,1.86743H73.97119v2.36841H77.6001v1.86743H73.97119v4.2207H71.90674Z"/><path class="cls-2" d="M79.29932,105.90286c0-2.73291,1.35107-3.96265,3.82568-3.96265a4.11235,4.11235,0,0,1,3.09717,1.15381v1.60937H84.53711s-.12158-.926-1.397-.926c-1.35108,0-1.77637.668-1.77637,2.08008v2.70239c0,1.41186.42529,2.08008,1.77637,2.08008,1.27539,0,1.397-.92627,1.397-.92627h1.68506V111.323a4.11235,4.11235,0,0,1-3.09717,1.15381c-2.47461,0-3.82568-1.22973-3.82568-3.96264Z"/><path class="cls-2" d="M90.8667,102.04666h3.73486c2.47461,0,3.33985,1.12329,3.33985,2.82373a2.6038,2.6038,0,0,1-1.19922,2.27734v.03052a2.64586,2.64586,0,0,1,1.35107,2.23169c0,1.85229-1.01709,2.96069-3.35547,2.96069H90.8667Zm2.00391,1.77612v2.44458h2.24707a1.3658,1.3658,0,0,0,.80468-1.26025,1.10933,1.10933,0,0,0-1.24511-1.18433Zm0,4.19043v2.58105h1.92822a1.18449,1.18449,0,0,0,1.27539-1.29052,1.434,1.434,0,0,0-.91113-1.29053Z"/><path class="cls-2" d="M99.2002,111.21682l2.53564-9.17016h3.33984l2.53565,9.17016v1.15381h-1.852l-.562-2.17114a9.29646,9.29646,0,0,1-1.83692.18213,9.93391,9.93391,0,0,1-1.7915-.167l-.562,2.156H99.2002Zm2.82421-2.73291a7.6641,7.6641,0,0,0,1.33594.12134,6.99012,6.99012,0,0,0,1.38135-.13647l-.60693-2.29273c-.24317-.9563-.54688-2.29248-.54688-2.29248h-.40967s-.30371,1.33618-.562,2.29248Z"/><path class="cls-2" d="M109.17383,102.04666h3.90185c2.24707,0,3.47657,1.06274,3.47657,3.06665a3.33265,3.33265,0,0,1-2.12549,3.09741,16.76712,16.76712,0,0,0,2.08008,2.915v1.24487h-1.57911a22.9257,22.9257,0,0,1-2.61132-3.94751h-1.07813v3.94751h-2.06445Zm4.35693,4.509a1.3505,1.3505,0,0,0,.95654-1.35132,1.20222,1.20222,0,0,0-1.33593-1.29028h-1.91309v2.6416Z"/><path class="cls-2" d="M117.85645,105.90286c0-2.73291,1.35107-3.96265,3.82568-3.96265a4.11235,4.11235,0,0,1,3.09717,1.15381v1.60937h-1.68506s-.12158-.926-1.397-.926c-1.35108,0-1.77637.668-1.77637,2.08008v2.70239c0,1.41186.42529,2.08008,1.77637,2.08008,1.27539,0,1.397-.92627,1.397-.92627h1.68506V111.323a4.11235,4.11235,0,0,1-3.09717,1.15381c-2.47461,0-3.82568-1.22973-3.82568-3.96264Z"/><path class="cls-2" d="M126.3877,102.04666h6.54345l-.30371,1.86743h-4.17529v2.36841h3.78076v1.86743h-3.78076v2.35327h4.32715v1.86743h-6.3916Z"/><path class="cls-2" d="M134.6001,102.04666h2.06445v8.45654h4.17529l-.30371,1.86743h-5.936Z"/><path class="cls-2" d="M141.71924,106.03958c0-2.68726,1.39648-4.14478,4.00781-4.14478,2.59619,0,4.0083,1.45752,4.0083,4.14478v2.33813c0,2.67212-1.39648,4.14478-4.0083,4.14478-2.59619,0-4.00781-1.45752-4.00781-4.14478Zm4.00781,4.64575c1.3667,0,1.94336-.6377,1.94336-2.15576v-2.64185c0-1.51831-.57666-2.156-1.94336-2.156-1.36621,0-1.94336.6377-1.94336,2.156v2.64185C143.78369,110.04763,144.36084,110.68533,145.72705,110.68533Z"/><path class="cls-2" d="M151.55566,102.04666h1.89746l2.94532,4.843c.24316.39478.82031,1.564.82031,1.564h.03027s-.07617-1.1084-.07617-2.12573v-4.28125h2.0044v10.324h-2.0044v-.835l-2.59619-4.23608c-.334-.59205-1.01709-1.77637-1.01709-1.77637h-.04541s.04541.9414.04541,1.95874v4.88867h-2.00391Z"/><path class="cls-2" d="M160.73926,111.21682l2.53564-9.17016h3.33985l2.53564,9.17016v1.15381h-1.852l-.562-2.17114a9.29638,9.29638,0,0,1-1.83692.18213,9.93391,9.93391,0,0,1-1.7915-.167l-.562,2.156h-1.80664Zm2.82422-2.73291a7.66389,7.66389,0,0,0,1.33593.12134,6.99,6.99,0,0,0,1.38135-.13647l-.60693-2.29273c-.24317-.9563-.54688-2.29248-.54688-2.29248h-.40966s-.30372,1.33618-.562,2.29248Z"/><path class="cls-3" d="M198.30526,1.21078l.358.23732c3.92543,2.59863,7.08539,3.07415,11.89474,3.07415a16.365,16.365,0,0,0,5.25711-.92l.45633-.15788,2.28034,3.19512-.23457.31339c-8.47149,11.25577-1.86557,23.408,2.81,28.25887l.43248.449-.44105.44043c-.61327.61177-1.675,1.71626-2.46357,2.544l-.267.281.01708.3867.00432.13436c.00425.0984.00731.20036.02746.37751l.00731.07024c.3959,7.50756-1.54974,13.67424-5.78242,18.32722-4.49778,4.94434-11.59236,7.92109-19.97591,8.38166l-.32314.01833-.23945.21869c-2.135,1.94313-4.30168,3.55705-4.32489,3.57475l-.37788.28161-.37782-.28036c-.08976-.06718-2.22961-1.65908-4.33683-3.576l-.23913-.21869-.32347-.01833c-8.38379-.46057-15.47838-3.43732-19.97647-8.38166-4.23362-4.65479-6.17894-10.82147-5.78123-18.329l.00551-.07087c.01951-.16614.0232-.25778.02745-.36224l.00063-.02809.00031-.00307.00394-.116.01683-.38733-.26666-.28036c-.74369-.78128-1.835-1.91748-2.46332-2.544l-.44075-.44043.43224-.449c4.67618-4.85089,11.28079-17.0031,2.81024-28.25887l-.23576-.31339,2.28185-3.19512.45576.15788a16.34529,16.34529,0,0,0,5.257.92c4.809,0,7.96907-.47552,11.8945-3.07415l.35855-.23732.35279.24433A17.83466,17.83466,0,0,0,187.4148,4.978a17.83487,17.83487,0,0,0,10.53741-3.52284l.353-.24433"/><path class="cls-2" d="M161.62012,29.00482c2.65386-6.08574,3.64225-13.90174-.82131-21.54122a19.90889,19.90889,0,0,0,3.4721.3207c4.56809,0,8.16486-.41541,12.20451-2.69851a20.71212,20.71212,0,0,0,10.93113,3.15452,20.72435,20.72435,0,0,0,10.94637-3.15452c4.04027,2.2831,7.637,2.69851,12.20507,2.69851a18.43276,18.43276,0,0,0,3.48318-.33966c-4.474,7.65781-3.48681,15.47444-.83264,21.56018H161.62012"/><path class="cls-4" d="M213.20853,29.00482c-2.65417-6.08574-3.64137-13.90237.83264-21.56018a18.43276,18.43276,0,0,1-3.48318.33966c-4.568,0-8.1648-.41541-12.20507-2.69851a20.72435,20.72435,0,0,1-10.94637,3.15452c-.04036,0-.07977-.00212-.12036-.00244v20.767Z"/><path class="cls-5" d="M207.52751,58.41579c5.08358-3.71588,8.086-9.64917,7.645-18.30513-.05136-.49236-.088-.52107-.1271-1.01648h-7.51789Z"/><path class="cls-6" d="M199.48181,62.14085a24.26063,24.26063,0,0,0,8.04689-3.72625V39.09418h-8.04689Z"/><path class="cls-6" d="M167.29989,58.4146a24.26949,24.26949,0,0,0,8.04789,3.72625V39.09418h-8.04789Z"/><path class="cls-5" d="M159.65678,40.11066c-.441,8.656,2.56134,14.58988,7.6453,18.30575V39.09418H159.7832C159.74411,39.58959,159.70808,39.6183,159.65678,40.11066Z"/><path class="cls-6" d="M187.43431,43.36658a7.53654,7.53654,0,0,1,4.00424,1.15209V39.09418H183.391v5.44889A7.53636,7.53636,0,0,1,187.43431,43.36658Z"/><path class="cls-6" d="M187.43431,58.52944a7.531,7.531,0,0,1-4.04327-1.17655v6.00117c.14231.00732.2828.01708.42542.0244,2.67318.01345,5.09678.02815,7.1963,0,.14293-.00732.28349-.01708.42579-.0244V57.37735A7.53707,7.53707,0,0,1,187.43431,58.52944Z"/><path class="cls-5" d="M191.43674,39.09418v5.42324a7.56667,7.56667,0,0,1,0,12.86056v5.97608a38.46746,38.46746,0,0,0,8.04751-1.21321V39.09418Z"/><path class="cls-5" d="M179.85382,50.94857a7.571,7.571,0,0,1,3.53935-6.40732V39.09418h-8.04783V62.14085a38.46631,38.46631,0,0,0,8.04783,1.21321V57.35414A7.56879,7.56879,0,0,1,179.85382,50.94857Z"/><path class="cls-7" d="M163.43283,14.28633a22.46892,22.46892,0,0,1,.21105,7.67733h7.81664v7.04116h7.67732V21.96366H187.318V14.28633h-8.18012v-7.809a23.64591,23.64591,0,0,1-2.66242-1.39154,19.42517,19.42517,0,0,1-5.0149,2.00668v7.19386Z"/><path class="cls-7" d="M203.84036,29.00482V7.2a18.74788,18.74788,0,0,1-2.7587-.82438v22.6292Z"/><path class="cls-7" d="M192.80445,29.00482V7.51214a19.83686,19.83686,0,0,1-2.75869.55559V29.00482Z"/><path class="cls-7" d="M209.3583,29.00482V7.77148c-.95362-.01808-1.86988-.06236-2.7587-.14662v21.38Z"/><path class="cls-7" d="M198.3224,29.00482V5.10318a23.48249,23.48249,0,0,1-2.75869,1.42976V29.00482Z"/><path class="cls-8" d="M222.83575,35.65622l-1.05251-1.09285c-4.49046-4.65873-10.84036-16.31377-2.73912-27.08088l.63591-.846-3.06288-4.2916-1.0983.37932a15.41557,15.41557,0,0,1-4.96086.87017c-4.62726,0-7.65962-.45145-11.392-2.923L198.29306.0929l-.8601.59738A16.96919,16.96919,0,0,1,187.4148,4.05035,16.96953,16.96953,0,0,1,177.396.69028L176.53622.0929,175.663.67139c-3.73207,2.47151-6.76443,2.923-11.39207,2.923a15.40919,15.40919,0,0,1-4.96047-.87017l-1.09837-.37932-3.06407,4.291.63622.84665c8.10187,10.76711,1.75166,22.42215-2.73793,27.08088l-1.05282,1.09285,1.0739,1.07147c.577.576,1.60079,1.63831,2.44681,2.52893-.00244.05011-.00332.09408-.00519.13806-.00332.09226-.0055.16983-.02321.31889l-.00856.10021c-.41386,7.76528,1.61084,14.15984,6.01611,19.00334,4.67005,5.13438,11.969,8.20459,20.60018,8.67861,2.13836,1.94745,4.30937,3.56193,4.40683,3.63462l.9224.6842.92052-.68664c.09652-.07206,2.256-1.686,4.39214-3.63218,8.63156-.474,15.93013-3.54423,20.59961-8.67861,4.40614-4.8435,6.43-11.23681,6.017-19.00334l-.00914-.10021a2.99748,2.99748,0,0,1-.02263-.32071c-.00182-.04216-.00364-.08613-.00551-.13624.84671-.89062,1.87113-1.95351,2.44718-2.52893Zm-5.11292,3.03418c.07881.78.033.7495.08676,1.20582.92177,17.30824-11.136,25.481-25.70823,26.08455-2.22725,2.08062-4.68081,3.90953-4.68081,3.90953s-2.46544-1.82891-4.69294-3.90953c-14.57218-.60351-26.63032-8.77631-25.70854-26.08455.054-.45632.00826-.42579.08732-1.20582-.83533-.88331-2.21805-2.32652-2.94829-3.05494,5.22683-5.42356,11.32539-17.8318,2.86034-29.08144l1.78769-2.3708a16.92792,16.92792,0,0,0,5.46478.95542c4.85427,0,8.16912-.4814,12.24479-3.18017A18.59046,18.59046,0,0,0,187.4148,5.595a18.59118,18.59118,0,0,0,10.899-3.63649c4.075,2.69877,7.389,3.18017,12.24415,3.18017a16.93326,16.93326,0,0,0,5.46478-.95542l1.78745,2.3708c-8.46537,11.24964-2.3665,23.65788,2.86127,29.08144C219.94088,36.36388,218.5579,37.80709,217.72283,38.6904Z"/><path class="cls-8" d="M159.55263,39.07585c-.02076.26447-.04122.39095-.06292.53263-.01927.121-.03941.25234-.06412.49054-.33935,6.656,1.32342,12.04262,4.941,16.01139,4.14961,4.551,10.87213,7.14344,19.449,7.499l.32622.00119c1.42726.00857,2.78121.0147,4.05059.0147.99515,0,1.93832-.00369,2.82956-.01651,8.56858-.35493,15.29054-2.94742,19.44015-7.49837,3.61816-3.9694,5.28094-9.35542,4.94009-16.023-.02321-.22663-.044-.358-.06293-.479-.022-.14168-.04216-.26816-.06293-.53263l-.01714-.21381h-55.6901Zm.33441,1.05864c.02265-.21506.04185-.33966.05993-.45513.01645-.10628.032-.20524.0476-.35305h54.83952c.01582.14906.03171.24677.0476.3543.01833.11422.03791.23882.05987.44224.33233,6.52711-1.28953,11.80067-4.82093,15.6748-4.06529,4.45812-10.67548,6.99932-19.1115,7.34867-2.01219.02753-4.32251.01589-6.86489.00251l-.318-.00251c-8.44247-.34935-15.05327-2.89055-19.11763-7.348C161.17719,51.92477,159.55539,46.65,159.887,40.13449Z"/><path class="cls-8" d="M161.40813,28.91168l-.14143.32371h52.295l-.14113-.32371c-2.27122-5.2095-3.97427-13.1431.821-21.35038l.25653-.4398-.5003.09652a18.26782,18.26782,0,0,1-3.43977.33415c-4.66761,0-8.14159-.4368-12.09022-2.6683l-.11854-.06687-.116.07056a20.43967,20.43967,0,0,1-10.826,3.12062,20.4197,20.4197,0,0,1-10.812-3.12062l-.11578-.07056-.11785.06687c-3.94863,2.2315-7.42355,2.6683-12.0906,2.6683A19.75555,19.75555,0,0,1,160.8394,7.236l-.49266-.08764.25259.43187C165.38453,15.77164,163.68023,23.70218,161.40813,28.91168Zm26.14041-20.4408A20.86911,20.86911,0,0,0,198.3578,5.35332c3.98773,2.22387,7.50143,2.66187,12.20019,2.66187a18.66642,18.66642,0,0,0,3.03724-.25534c-4.49233,8.0512-2.94191,15.79577-.73792,21.01315H187.54854Zm-26.30686-.6994a19.77279,19.77279,0,0,0,3.02923.24371c4.6982,0,8.21221-.438,12.2005-2.66187a20.86142,20.86142,0,0,0,10.61411,3.11512V28.773H161.97135C164.176,23.555,165.72939,15.81074,161.24168,7.77148Z"/><polygon class="cls-8" points="180.815 32.014 180.815 30.486 175.638 30.486 175.638 37.659 177.195 37.659 177.195 34.7 179.31 34.7 179.31 33.184 177.195 33.184 177.195 32.014 180.815 32.014"/><path class="cls-8" d="M186.87691,31.922a1.26346,1.26346,0,0,1,1.216.7208l.033.065,1.441-.664-.03359-.06994a2.74421,2.74421,0,0,0-2.63652-1.59865c-1.88115,0-3.19481,1.52046-3.19481,3.69667,0,2.24551,1.23428,3.696,3.14414,3.696a2.74833,2.74833,0,0,0,2.66643-1.62737l.03115-.06293-1.3091-.77577-.0391.06474a1.39269,1.39269,0,0,1-1.30847.85584c-.95018,0-1.58852-.865-1.58852-2.15055C185.29846,32.74634,185.90353,31.922,186.87691,31.922Z"/><path class="cls-8" d="M198.89657,32.41738c0-1.20889-.86129-1.9315-2.3023-1.9315h-3.29565v7.17278h3.26449a2.26592,2.26592,0,0,0,2.57416-2.34272,1.68388,1.68388,0,0,0-.90588-1.54455A1.63353,1.63353,0,0,0,198.89657,32.41738Zm-4.0708-.4856h1.708c.6964,0,.7856.31915.7856.59588,0,.39433-.234.58555-.71535.58555h-1.77825Zm1.78863,4.24h-1.78863V34.50932h1.78863c.631,0,.92609.26329.92609.8277C197.54049,35.88285,197.21979,36.17178,196.6144,36.17178Z"/><path class="cls-8" d="M187.38515,58.65405a7.747,7.747,0,1,0-7.7467-7.747A7.75587,7.75587,0,0,0,187.38515,58.65405Zm0-.46545a7.25405,7.25405,0,0,1-4.06317-1.23948,11.53329,11.53329,0,0,0,4.84908-1.21865c1.229-.73243,2.53381-1.64632,2.77208-2.86741a1.92965,1.92965,0,0,1,2.81855,1.56137A7.28164,7.28164,0,0,1,187.38515,58.1886Zm-3.59065-5.61385a3.02341,3.02341,0,0,0,1.29747.46058,2.49278,2.49278,0,0,0,2.50579-2.01463,1.745,1.745,0,0,1,2.78584.68051c.63773,1.52528-.70559,2.6267-2.43492,3.65907a11.54516,11.54516,0,0,1-5.19111,1.168,7.313,7.313,0,0,1-1.9218-2.438c.05836.00306.11666.00488.17621.00488A3.11956,3.11956,0,0,0,183.7945,52.57475Zm-1.15884-3.6774a16.38551,16.38551,0,0,1,.70284-4.04271,7.211,7.211,0,0,1,3.41074-1.19976,2.01756,2.01756,0,0,0,.19973,2.95048,2.14509,2.14509,0,0,0-.544.59557,2.80114,2.80114,0,0,0,.75751,3.81426,2.08116,2.08116,0,0,1-2.01525,1.59009C183.45972,52.389,182.66256,50.82278,182.63566,48.89735Zm8.34476,3.48193a2.47262,2.47262,0,0,0-.19736-.84671,2.173,2.173,0,0,0-3.39854-.89182,2.3656,2.3656,0,0,1-.613-3.20826c.846-1.3415,2.77026-.807,4.5283.17528a7.51348,7.51348,0,0,1,3.33531,3.96883,7.2179,7.2179,0,0,1-.56567,2.22106A2.35508,2.35508,0,0,0,190.98042,52.37928Zm.53083-5.14964c-1.27183-.70979-2.94073-1.35977-4.14474-.85885a1.60572,1.60572,0,0,1,.08156-2.744,7.27965,7.27965,0,0,1,7.20425,6.83981A8.45979,8.45979,0,0,0,191.51125,47.22964Zm-8.717-1.97366c-.13562.5357-.26635,1.00365-.37113,1.48012-.37444,1.71588-.37018,4.29923,1.02536,5.571a2.684,2.684,0,0,1-2.43648,1.35433,2.85675,2.85675,0,0,1-.37838-.02508,7.288,7.288,0,0,1,2.16063-8.38042Z"/><path class="cls-9" d="M24.62236.09311H82.41274a6.9657,6.9657,0,0,1,6.9657,6.9657V64.84918a6.96571,6.96571,0,0,1-6.96571,6.96571H24.62236a6.96571,6.96571,0,0,1-6.96571-6.96571V7.05881a6.9657,6.9657,0,0,1,6.9657-6.9657Z"/><rect class="cls-2" x="31.90105" y="45.4857" width="43.36435" height="3.44882"/><path class="cls-2" d="M43.73594,28.29153V24.78372H31.90105V41.15653h4.32463V35.33438h6.6889V31.822h-6.6889v-3.5305Z"/><path class="cls-2" d="M56.68262,32.66608a3.962,3.962,0,0,0,2.64107-3.63033c0-2.64561-1.96038-4.23388-5.264-4.23388h-8.377V41.15653h8.46775c3.60311,0,5.75408-1.70626,5.75408-4.606A4.02087,4.02087,0,0,0,56.68262,32.66608Zm-6.766-4.56061H53.261c1.21616,0,1.86962.55817,1.86962,1.59281s-.65346,1.58827-1.86962,1.58827H49.91658Zm3.63034,9.7293H49.91658V34.58108h3.67118c1.21616,0,1.89685.58086,1.89685,1.68357,0,1.03919-.68069,1.57012-1.94223,1.57012Z"/><path class="cls-2" d="M70.34176,31.214l-1.96946-.2632c-1.94223-.28135-2.514-.75783-2.514-1.66088s.75784-1.5202,2.44594-1.5202a2.37181,2.37181,0,0,1,2.69553,2.00122L75.11565,29.24c-.60355-3.22192-2.91788-4.7875-6.69343-4.7875-4.2248,0-7.002,2.11013-7.002,5.33659,0,2.77267,1.68357,4.38817,5.12785,4.86465l2.06021.28135c2.18274.31312,2.72276.80775,2.72276,1.76071s-.80775,1.5202-2.72276,1.5202a3.09938,3.09938,0,0,1-3.10393-2.18273L61.216,36.6776c.6943,3.33537,3.231,4.85557,7.26066,4.85557,4.57876,0,7.28337-1.96945,7.28337-5.3139C75.74188,33.2787,74.09008,31.7585,70.34176,31.214Z"/></g></g></g></svg>