<svg xmlns="http://www.w3.org/2000/svg" viewBox="0 0 143.05 122.57"><defs><style>.cls-1{fill:none;stroke:#fff;stroke-miterlimit:10;}.cls-2{fill:#231f20;}.cls-3{fill:#e8b909;}.cls-4{fill:#0054a4;}.cls-5{fill:#a30046;}.cls-6{fill:#fff;}.cls-7{fill:#fd0;}.cls-8{fill:#e31837;}</style></defs><title>DE_logo-without - vertical color (dark bg)</title><g id="Layer_2" data-name="Layer 2"><g id="TEXTOS"><line class="cls-1" x1="102.05" y1="71.83" x2="44.28" y2="71.83"/><path class="cls-2" d="M102,29.29l-.86-.9C97.49,24.55,92.3,15,98.93,6.08l.52-.69L99,4.65a9,9,0,0,0-.79-1.07c-.21-.26-.42-.53-.71-.94l-.55-.79-.9.32A12.5,12.5,0,0,1,92,2.88c-3.79,0-6.28-.37-9.33-2.4L81.93,0l-.7.49A13.82,13.82,0,0,1,73,3.26,13.87,13.87,0,0,1,64.82.49L64.12,0l-.71.48c-3.06,2-5.54,2.4-9.33,2.4A12.6,12.6,0,0,1,50,2.17l-.89-.32-.55.79c-.29.41-.51.68-.72.93a9,9,0,0,0-.78,1.08l-.46.74.52.69c6.63,8.87,1.43,18.47-2.24,22.31l-.86.9.87.88c.48.47,1.31,1.35,2,2.08a.49.49,0,0,0,0,.12,1.28,1.28,0,0,1,0,.26v.08c-.34,6.4,1.32,11.66,4.92,15.65,3.83,4.23,9.81,6.76,16.87,7.15,1.75,1.61,3.53,2.93,3.61,3l.75.57.76-.57c.08-.06,1.84-1.39,3.59-3,7.07-.39,13.05-2.92,16.87-7.15,3.61-4,5.26-9.25,4.93-15.65v-.08c0-.12,0-.17,0-.26v-.12c.69-.73,1.53-1.61,2-2.08Zm-4.19,2.5c.07.64,0,.61.07,1,.76,14.25-9.11,21-21,21.48C75,56,73,57.48,73,57.48S71,56,69.19,54.26c-11.93-.5-21.81-7.23-21-21.48,0-.38,0-.35.07-1-.68-.73-1.82-1.92-2.41-2.52,4.28-4.47,9.27-14.69,2.34-23.95.45-.74.78-1,1.46-1.95a13.87,13.87,0,0,0,4.48.78c4,0,6.69-.39,10-2.62a15.13,15.13,0,0,0,8.93,3,15.12,15.12,0,0,0,8.92-3c3.33,2.23,6,2.62,10,2.62a13.81,13.81,0,0,0,4.47-.78c.68,1,1,1.21,1.46,2C91,14.58,96,24.8,100.26,29.27c-.6.6-1.73,1.79-2.42,2.52"/><path class="cls-3" d="M73,57.48a48.51,48.51,0,0,1-3.84-3.22c-11.93-.5-21.81-7.23-21-21.48,0-.38,0-.35.07-1-.68-.72-1.82-1.91-2.41-2.51,4.28-4.47,9.27-14.69,2.34-23.95.45-.74.78-1,1.46-1.95a13.87,13.87,0,0,0,4.48.79c4,0,6.69-.4,10-2.62a15.18,15.18,0,0,0,8.92,3,15.16,15.16,0,0,0,8.93-3c3.34,2.22,6,2.62,10,2.62a13.83,13.83,0,0,0,4.48-.79c.68,1,1,1.21,1.46,2C91,14.58,96,24.8,100.26,29.27c-.6.6-1.73,1.79-2.41,2.51.06.65,0,.62.06,1,.76,14.25-9.11,21-21,21.48A49.4,49.4,0,0,1,73,57.48"/><path class="cls-4" d="M56.68,32.12H50.4c0,.41-.06.43-.1.84-.37,7.2,2.14,12.11,6.38,15.17Z"/><path class="cls-5" d="M56.68,48.13a20.09,20.09,0,0,0,6.59,3v-19H56.68Z"/><path class="cls-4" d="M63.27,51.13a31.13,31.13,0,0,0,6.59,1v-20H63.27Z"/><path class="cls-5" d="M76.45,32.12h-6.6v20h.23c2.19,0,4.18,0,5.89,0l.48,0Z"/><path class="cls-4" d="M76.45,52.1a31,31,0,0,0,6.58-1v-19H76.45Z"/><path class="cls-5" d="M83,51.07a19.61,19.61,0,0,0,6.59-3.13V32.12H83Z"/><path class="cls-4" d="M95.65,32.12h-6V48c4.09-3.07,6.49-7.93,6.14-15-.05-.41-.07-.43-.11-.84"/><path class="cls-2" d="M73.66,52.32H70.08c-7-.29-12.53-2.43-15.92-6.18-3-3.27-4.33-7.7-4-13.18,0-.2,0-.31,0-.4s0-.23.06-.45v-.17h45.6v.17c0,.22,0,.32,0,.45a3.91,3.91,0,0,1,0,.39c.28,5.49-1.08,9.92-4,13.19C88.5,49.88,83,52,76,52.31H73.66m-23.08-20c0,.12,0,.21,0,.29a2.2,2.2,0,0,0,0,.38c-.27,5.36,1,9.7,3.95,12.89,3.33,3.68,8.74,5.77,15.65,6.06H76c6.91-.29,12.32-2.38,15.65-6.06,2.89-3.19,4.22-7.53,3.94-12.9,0-.17,0-.28,0-.37a1.84,1.84,0,0,1,0-.29Z"/><path class="cls-3" d="M66.69,41.85A6.32,6.32,0,1,1,73,48.2a6.34,6.34,0,0,1-6.31-6.35"/><path class="cls-2" d="M73,35.68a6.17,6.17,0,1,0,6.12,6.17A6.16,6.16,0,0,0,73,35.68m0,12.45a6.29,6.29,0,1,1,6.24-6.28A6.27,6.27,0,0,1,73,48.13"/><path class="cls-2" d="M73,35.49a6.36,6.36,0,1,1-6.31,6.36A6.34,6.34,0,0,1,73,35.49M69.78,43c-1.14-1-1.15-3.17-.84-4.59.09-.39.19-.78.31-1.22a6,6,0,0,0-1.78,6.9,1.73,1.73,0,0,0,.32,0,2.18,2.18,0,0,0,2-1.12m6.14.46c-.2,1-1.27,1.76-2.28,2.36a9.1,9.1,0,0,1-4,1,5.85,5.85,0,0,0,3.32,1,5.94,5.94,0,0,0,5.22-3.1,1.57,1.57,0,0,0-2.3-1.28m-6.71,3a9.33,9.33,0,0,0,4.25-1c1.42-.84,2.52-1.75,2-3a1.43,1.43,0,0,0-2.28-.56,2,2,0,0,1-2.05,1.66,2.48,2.48,0,0,1-1.07-.38,2.53,2.53,0,0,1-2.27,1.25h-.15a6.19,6.19,0,0,0,1.57,2M73,38.11c1-.41,2.35.12,3.39.71A6.93,6.93,0,0,1,79,41.48a6,6,0,0,0-5.9-5.63A1.32,1.32,0,0,0,73,38.11m-.17,3.83a2.33,2.33,0,0,1-.62-3.15,1.93,1.93,0,0,1,.45-.49,1.66,1.66,0,0,1-.17-2.43,6,6,0,0,0-2.79,1,14,14,0,0,0-.58,3.33c0,1.59.68,2.88,2.06,3.06a1.71,1.71,0,0,0,1.65-1.31m6.12.46a6.23,6.23,0,0,0-2.73-3.27c-1.44-.81-3-1.25-3.71-.15a2,2,0,0,0,.5,2.65,1.77,1.77,0,0,1,2.78.73,1.93,1.93,0,0,1,.17.7,1.93,1.93,0,0,1,2.53,1.17,6.23,6.23,0,0,0,.46-1.83"/><path class="cls-2" d="M80.52,30.94H77.84V25h2.71c1.18,0,1.89.6,1.89,1.6a1.35,1.35,0,0,1-.54,1.11A1.42,1.42,0,0,1,82.63,29a1.86,1.86,0,0,1-2.11,1.93M79.1,29.7h1.46c.49,0,.75-.23.75-.68s-.24-.67-.75-.67H79.1Zm0-2.51h1.45c.4,0,.58-.15.58-.47s-.08-.49-.64-.49H79.1Z"/><path class="cls-2" d="M72.56,31C71,31,70,29.84,70,28s1.08-3.05,2.62-3.05a2.27,2.27,0,0,1,2.17,1.32l0,.07-1.19.55,0-.06a1,1,0,0,0-1-.59c-.8,0-1.29.68-1.29,1.76s.52,1.77,1.3,1.77a1.13,1.13,0,0,0,1.06-.7l0-.06,1.09.64,0,.06A2.26,2.26,0,0,1,72.56,31"/><polygon class="cls-2" points="64.67 30.94 63.38 30.94 63.38 25.02 67.63 25.02 67.63 26.29 64.67 26.29 64.67 27.24 66.4 27.24 66.4 28.5 64.67 28.5 64.67 30.94"/><path class="cls-6" d="M51.91,23.81c2.17-5,3-11.45-.67-17.74a16.48,16.48,0,0,0,2.84.26c3.74,0,6.68-.34,10-2.22a16.84,16.84,0,0,0,9,2.6,16.82,16.82,0,0,0,9-2.6C85.29,6,88.24,6.33,92,6.33a15.74,15.74,0,0,0,2.85-.27c-3.66,6.3-2.85,12.74-.68,17.75Z"/><path class="cls-7" d="M72.84,6.71v17.1h2.25V6.58A17.43,17.43,0,0,1,73,6.71h-.18"/><path class="cls-8" d="M75.1,23.81h2.25V6.13a16.29,16.29,0,0,1-2.25.45Z"/><path class="cls-7" d="M77.35,23.81h2.26V5.34a15.9,15.9,0,0,1-2.26.79Z"/><path class="cls-8" d="M79.61,23.81h2.26V4.18a17.85,17.85,0,0,1-2.26,1.16Z"/><path class="cls-7" d="M81.87,4.18V23.81h2.26V5.14a16.73,16.73,0,0,1-2.15-1,.67.67,0,0,1-.11.07"/><path class="cls-8" d="M84.13,23.81h2.26v-18a15.84,15.84,0,0,1-2.26-.69Z"/><path class="cls-7" d="M86.39,23.81h2.26V6.19a16.89,16.89,0,0,1-2.26-.36Z"/><path class="cls-8" d="M88.64,23.78h2.27V6.29c-.78,0-1.54,0-2.27-.12Z"/><path class="cls-7" d="M94.66,6.08A14.87,14.87,0,0,1,92,6.33H90.9V23.81h3.25c-2.14-4.93-3-11.24.51-17.45Z"/><path class="cls-8" d="M60,18v5.8h6.29V18H73V11.69h-6.7V5.26a19.69,19.69,0,0,1-2.18-1.15A15.58,15.58,0,0,1,60,5.76v5.93H53.39A18.49,18.49,0,0,1,53.56,18Z"/><path class="cls-2" d="M95.21,5.79l-.42.08A15.2,15.2,0,0,1,92,6.14c-3.81,0-6.66-.36-9.89-2.19L82,3.89,81.89,4A16.64,16.64,0,0,1,73,6.52,16.62,16.62,0,0,1,64.17,4l-.09-.06L64,4c-3.24,1.83-6.08,2.19-9.9,2.19a15.47,15.47,0,0,1-2.81-.26l-.4-.07.2.36c3.92,6.74,2.52,13.27.66,17.56l-.11.27H94.44l-.12-.27c-1.86-4.29-3.25-10.82.67-17.58ZM51.6,6.32a15.33,15.33,0,0,0,2.48.2c3.84,0,6.72-.36,10-2.19A17,17,0,0,0,72.76,6.9V23.62H52.2a19.36,19.36,0,0,0-.6-17.3m42.26,17.3H73.14V6.9A17.14,17.14,0,0,0,82,4.33c3.26,1.83,6.14,2.19,10,2.19a15.13,15.13,0,0,0,2.49-.21,19.31,19.31,0,0,0-.6,17.31"/><path class="cls-6" d="M32.74,88.33c0-2.5,1.3-3.85,3.72-3.85s3.72,1.35,3.72,3.85V90.5c0,2.48-1.29,3.85-3.72,3.85S32.74,93,32.74,90.5Zm3.72,4.31c1.27,0,1.8-.59,1.8-2V88.19c0-1.41-.53-2-1.8-2s-1.8.59-1.8,2v2.45C34.66,92.05,35.19,92.64,36.46,92.64Z"/><path class="cls-6" d="M42,84.62H48l-.29,1.74H43.94v2.2h3.37v1.73H43.94v3.92H42Z"/><path class="cls-6" d="M49.31,84.62h5.94L55,86.36H51.23v2.2H54.6v1.73H51.23v3.92H49.31Z"/><path class="cls-6" d="M57.14,92.7V86.13l-1-.17V84.62H60V86l-1,.17V92.7l1,.17v1.34H56.18V92.87Z"/><path class="cls-6" d="M61.29,92.36l2.86-4c.83-1.16,1.48-2,1.48-2v0s-.82,0-1.38,0H61.34V84.62H67.8v1.85l-2.86,4c-.83,1.16-1.48,2-1.48,2v0s.82,0,1.38,0h3v1.74H61.29Z"/><path class="cls-6" d="M70.09,92.7V86.13l-1-.17V84.62H73V86l-.95.17V92.7l.95.17v1.34H69.13V92.87Z"/><path class="cls-6" d="M74.66,84.62h6.07l-.28,1.74H76.58v2.2h3.51v1.73H76.58v2.18h4v1.74H74.66Z"/><path class="cls-6" d="M82.43,84.62h1.92v7.85h3.87l-.28,1.74H82.43Z"/><path class="cls-6" d="M89.16,84.62h1.92v7.85H95l-.28,1.74H89.16Z"/><path class="cls-6" d="M95.89,84.62H102l-.28,1.74H97.8v2.2h3.51v1.73H97.8v2.18h4v1.74H95.89Z"/><path class="cls-6" d="M103.66,84.62h3.62c2.09,0,3.23,1,3.23,2.85a3.09,3.09,0,0,1-2,2.88,15.21,15.21,0,0,0,1.93,2.7v1.16H109a21,21,0,0,1-2.42-3.67h-1v3.67h-1.92Zm4,4.19a1.26,1.26,0,0,0,.88-1.26,1.11,1.11,0,0,0-1.24-1.19h-1.77v2.45Z"/><path class="cls-6" d="M7.08,108.32H5.16V104.4H1.92v3.92H0V98.73H1.92v3.93H5.16V98.73H7.08Z"/><path class="cls-6" d="M8.67,107.25,11,98.73h3.1l2.36,8.52v1.07H14.76l-.52-2a8.75,8.75,0,0,1-1.7.17,10.17,10.17,0,0,1-1.67-.15l-.52,2H8.67Zm2.63-2.54a7.06,7.06,0,0,0,1.24.11,6.11,6.11,0,0,0,1.28-.13l-.56-2.12c-.23-.89-.51-2.13-.51-2.13h-.38s-.28,1.24-.52,2.13Z"/><path class="cls-6" d="M18.08,98.73h1.76l2.74,4.5c.23.36.76,1.45.76,1.45h0s-.07-1-.07-2v-4h1.86v9.59H23.3v-.78l-2.41-3.93c-.31-.55-.95-1.65-.95-1.65h0s0,.87,0,1.82v4.54H18.08Z"/><path class="cls-6" d="M27.28,98.73h3.43c2.29,0,3.55,1.11,3.55,3.68v2.23c0,2.56-1.26,3.68-3.55,3.68H27.28Zm1.92,1.72v6.15h1.39c1.21,0,1.75-.45,1.75-1.79v-2.57c0-1.34-.54-1.79-1.75-1.79Z"/><path class="cls-6" d="M36.1,98.73h6.07l-.28,1.73H38v2.2h3.51v1.74H38v2.18h4v1.74H36.1Z"/><path class="cls-6" d="M43.87,98.73h1.91v7.85h3.88l-.28,1.74H43.87Z"/><path class="cls-6" d="M50.48,106.19H52s.28.58,1.46.58S55,106.34,55,105.7s-.28-.91-1.12-1.2l-.86-.31c-1.79-.65-2.45-1.4-2.45-2.84,0-1.73,1.23-2.7,3.38-2.7a6.34,6.34,0,0,1,2.73.6v1.62H55.18s-.17-.59-1.31-.59c-1,0-1.4.45-1.4,1s.31.78,1.17,1.09l.86.31c2,.73,2.4,1.58,2.4,2.84,0,1.81-1,2.85-3.51,2.85a7.55,7.55,0,0,1-2.91-.59Z"/><path class="cls-6" d="M58.62,98.73h3.55c2.15,0,3.25,1.06,3.25,3a3.25,3.25,0,0,1-2.1,3H60.54v3.51H58.62Zm4.06,4.34a1.4,1.4,0,0,0,.82-1.38,1.16,1.16,0,0,0-1.31-1.23H60.54v2.61Z"/><path class="cls-6" d="M65.72,107.25l2.35-8.52h3.1l2.36,8.52v1.07H71.81l-.52-2a8.93,8.93,0,0,1-1.71.17,10,10,0,0,1-1.66-.15l-.53,2H65.72Zm2.62-2.54a7.15,7.15,0,0,0,1.24.11,6,6,0,0,0,1.28-.13l-.56-2.12c-.23-.89-.51-2.13-.51-2.13h-.38s-.28,1.24-.52,2.13Z"/><path class="cls-6" d="M75.12,98.73h3.63c2.08,0,3.23,1,3.23,2.85a3.09,3.09,0,0,1-2,2.87,15.71,15.71,0,0,0,1.93,2.71v1.16H80.47A21.27,21.27,0,0,1,78,104.65H77v3.67H75.12Zm4,4.19a1.26,1.26,0,0,0,.89-1.26,1.12,1.12,0,0,0-1.24-1.2H77v2.46Z"/><path class="cls-6" d="M86.91,100.46v7.86H85v-7.86H82.71V98.73h6.57L89,100.46Z"/><path class="cls-6" d="M90.56,98.73h1.76l2.73,4.5c.23.36.76,1.45.76,1.45h0s-.07-1-.07-2v-4h1.86v9.59H95.77v-.78l-2.41-3.93L92.42,102h0s0,.87,0,1.82v4.54H90.56Z"/><path class="cls-6" d="M99.75,98.73h6.08l-.28,1.73h-3.88v2.2h3.51v1.74h-3.51v2.18h4v1.74H99.75Z"/><path class="cls-6" d="M107.52,98.73h3.63c2.08,0,3.23,1,3.23,2.85a3.09,3.09,0,0,1-2,2.87,15.71,15.71,0,0,0,1.93,2.71v1.16h-1.46a21.27,21.27,0,0,1-2.43-3.67h-1v3.67h-1.92Zm4,4.19a1.26,1.26,0,0,0,.89-1.26,1.12,1.12,0,0,0-1.24-1.2h-1.78v2.46Z"/><path class="cls-6" d="M119.68,98.73l1.52,5.75c.24.89.47,2.13.47,2.13H122s.26-1.24.48-2.13L124,98.73h1.68v1.13l-2.33,8.46h-3.1L118,99.86V98.73Z"/><path class="cls-6" d="M126.69,102.44c0-2.5,1.3-3.85,3.73-3.85s3.72,1.35,3.72,3.85v2.17c0,2.48-1.3,3.85-3.72,3.85s-3.73-1.35-3.73-3.85Zm3.73,4.31c1.26,0,1.8-.59,1.8-2V102.3c0-1.41-.54-2-1.8-2s-1.81.59-1.81,2v2.45C128.61,106.16,129.15,106.75,130.42,106.75Z"/><path class="cls-6" d="M136,98.73h1.77l2.73,4.5c.23.36.76,1.45.76,1.45h0s-.07-1-.07-2v-4h1.86v9.59h-1.86v-.78l-2.41-3.93c-.31-.55-.95-1.65-.95-1.65h0s0,.87,0,1.82v4.54H136Z"/><path class="cls-6" d="M26.21,112.84h5.93l-.28,1.73H28.12v2.2h3.37v1.74H28.12v3.92H26.21Z"/><path class="cls-6" d="M33.06,116.42c0-2.54,1.26-3.68,3.56-3.68a3.81,3.81,0,0,1,2.87,1.07v1.5H37.93s-.12-.86-1.3-.86-1.65.62-1.65,1.93v2.51c0,1.31.4,1.93,1.65,1.93s1.3-.86,1.3-.86h1.56v1.49a3.79,3.79,0,0,1-2.87,1.08c-2.3,0-3.56-1.15-3.56-3.68Z"/><path class="cls-6" d="M44,112.84h3.47c2.3,0,3.1,1,3.1,2.62a2.43,2.43,0,0,1-1.11,2.12v0a2.46,2.46,0,0,1,1.25,2.08c0,1.72-.94,2.75-3.11,2.75H44Zm1.86,1.65v2.27H47.9a1.27,1.27,0,0,0,.75-1.17,1,1,0,0,0-1.16-1.1Zm0,3.89v2.4H47.6a1.11,1.11,0,0,0,1.19-1.2,1.33,1.33,0,0,0-.85-1.2Z"/><path class="cls-6" d="M51.84,121.35l2.35-8.51h3.1l2.36,8.51v1.08H57.93l-.52-2a8.93,8.93,0,0,1-1.71.17,9.07,9.07,0,0,1-1.66-.16l-.53,2H51.84Zm2.62-2.53a7.15,7.15,0,0,0,1.24.11A6,6,0,0,0,57,118.8l-.56-2.13c-.23-.88-.51-2.13-.51-2.13h-.38s-.28,1.25-.52,2.13Z"/><path class="cls-6" d="M61.24,112.84h3.63c2.08,0,3.23,1,3.23,2.85a3.09,3.09,0,0,1-2,2.87,16.13,16.13,0,0,0,1.93,2.71v1.16H66.59a21.68,21.68,0,0,1-2.43-3.67h-1v3.67H61.24ZM65.29,117a1.26,1.26,0,0,0,.89-1.26,1.12,1.12,0,0,0-1.24-1.2H63.16V117Z"/><path class="cls-6" d="M69.45,116.42c0-2.54,1.26-3.68,3.56-3.68a3.81,3.81,0,0,1,2.87,1.07v1.5H74.32s-.11-.86-1.3-.86-1.65.62-1.65,1.93v2.51c0,1.31.4,1.93,1.65,1.93s1.3-.86,1.3-.86h1.56v1.49A3.79,3.79,0,0,1,73,122.53c-2.3,0-3.56-1.15-3.56-3.68Z"/><path class="cls-6" d="M77.52,112.84H83.6l-.28,1.73H79.44v2.2H83v1.74H79.44v2.18h4v1.74H77.52Z"/><path class="cls-6" d="M85.29,112.84h1.92v7.85h3.88l-.28,1.74H85.29Z"/><path class="cls-6" d="M91.6,116.55c0-2.5,1.3-3.85,3.72-3.85S99,114.05,99,116.55v2.17c0,2.48-1.29,3.85-3.72,3.85s-3.72-1.36-3.72-3.85Zm3.72,4.31c1.27,0,1.81-.59,1.81-2v-2.45c0-1.41-.54-2-1.81-2s-1.8.6-1.8,2v2.45C93.52,120.27,94.05,120.86,95.32,120.86Z"/><path class="cls-6" d="M100.88,112.84h1.76l2.74,4.5c.22.36.76,1.45.76,1.45h0s-.07-1-.07-2v-4H108v9.59H106.1v-.78l-2.41-3.93c-.31-.55-1-1.65-1-1.65h0s0,.87,0,1.82v4.54h-1.86Z"/><path class="cls-6" d="M109.55,121.35l2.36-8.51H115l2.36,8.51v1.08h-1.72l-.53-2a8.75,8.75,0,0,1-1.7.17,9.18,9.18,0,0,1-1.67-.16l-.52,2h-1.68Zm2.63-2.53a7.15,7.15,0,0,0,1.24.11,6,6,0,0,0,1.28-.13l-.56-2.13c-.23-.88-.51-2.13-.51-2.13h-.38s-.28,1.25-.52,2.13Z"/></g></g></svg>