<svg id="Isolation_Mode" data-name="Isolation Mode" xmlns="http://www.w3.org/2000/svg" xmlns:xlink="http://www.w3.org/1999/xlink" viewBox="0 0 567.49 567.44"><defs><style>.cls-1{fill:url(#linear-gradient);}.cls-2{fill:url(#linear-gradient-2);}</style><linearGradient id="linear-gradient" x1="30.33" y1="598.73" x2="598.31" y2="30.75" gradientUnits="userSpaceOnUse"><stop offset="0" stop-color="#e09e26"/><stop offset="0.54" stop-color="#eee949"/><stop offset="1" stop-color="#e09e26"/></linearGradient><linearGradient id="linear-gradient-2" x1="-33.01" y1="535.39" x2="534.98" y2="-32.59" xlink:href="#linear-gradient"/></defs><title>email</title><path class="cls-1" d="M563.93,204.88l-66.35-51.3V96a47.34,47.34,0,0,0-47.29-47.29H362.11L313.74,11.33a47.48,47.48,0,0,0-57.94,0L207.44,48.72H119.26A47.34,47.34,0,0,0,72,96v57.57L5.62,204.88A11.85,11.85,0,0,0,1,214.24V521.62a46.56,46.56,0,0,0,15.71,35.13,46.93,46.93,0,0,0,31.58,12.17H521.23a47.44,47.44,0,0,0,47.29-47.3V214.24A11.85,11.85,0,0,0,563.93,204.88ZM542.76,531.4,354.45,385.66,544.87,238.33V521.62A23.48,23.48,0,0,1,542.76,531.4Zm-5.38-317.16L497.58,245V183.47ZM270.24,30.06a23.55,23.55,0,0,1,29.06,0l24.16,18.67H246.1Zm-151,42.3h331A23.68,23.68,0,0,1,473.94,96V263.32L299.25,398.48a23.67,23.67,0,0,1-28.95,0L95.61,263.32V96A23.68,23.68,0,0,1,119.26,72.36ZM26.78,531.41a23.76,23.76,0,0,1-2.1-9.79V238.33L215.1,385.66ZM72,245,32.18,214.24,72,183.47ZM48.32,545.27c-.24,0-.48-.06-.72-.07L234.42,400.61l21.42,16.57a47.29,47.29,0,0,0,57.88,0l21.41-16.57L522,545.2c-.25,0-.48.07-.73.07Z" transform="translate(-1.03 -1.48)"/><path class="cls-2" d="M283.1,320.63h.22a11.82,11.82,0,0,0,.2-23.64,70.94,70.94,0,0,1,1.24-141.86H286a71,71,0,0,1,69.66,72.18c-.17,9.58-3,15.88-8.33,18.74-6.75,3.59-17.15,2.23-25.47-1.38l.83-47A11.84,11.84,0,0,0,316.47,187c-17.68-9.4-44.39-7.68-58.53,11.48-9,12.22-12.77,29.21-9.57,43.29,2.5,11,8.86,19.44,18.38,24.49,16.2,8.56,32.05,3.51,42.75-1.28,14.14,7,33.67,10.12,49,1.95,7.6-4,20.41-14.51,20.86-39.18a94.7,94.7,0,0,0-92.9-96.24l-1.7,0a94.58,94.58,0,0,0-1.65,189.15ZM298.26,244c-8.24,3.44-14.59,4.43-20.43,1.33-3.36-1.77-5.45-4.67-6.4-8.84-1.66-7.3.66-17.4,5.54-24,3.79-5.14,10.22-7.45,16.62-7.45a27.2,27.2,0,0,1,5.35.54Z" transform="translate(-1.03 -1.48)"/></svg>