<svg width="63" height="69" viewBox="0 0 63 69" fill="none" xmlns="http://www.w3.org/2000/svg">
<g clip-path="url(#clip0)">
<path d="M0.618164 49.3049C0.618164 47.9361 1.32211 47.1969 2.63255 47.1969C3.94298 47.1969 4.64693 47.9361 4.64693 49.3049V50.4931C4.64693 51.851 3.94839 52.6011 2.63255 52.6011C1.3167 52.6011 0.618164 51.8619 0.618164 50.4931V49.3049ZM2.63255 51.6648C3.32025 51.6648 3.61266 51.3418 3.61266 50.5697V49.2283C3.61266 48.4562 3.32025 48.1332 2.63255 48.1332C1.94484 48.1332 1.65785 48.4562 1.65785 49.2283V50.5697C1.65785 51.3418 1.94484 51.6648 2.63255 51.6648Z" fill="white"/>
<path d="M5.64307 47.2736H8.85958L8.70254 48.2263H6.68275V49.4309H8.5076V50.3781H6.68275V52.5245H5.64307V47.2736Z" fill="white"/>
<path d="M9.59082 47.2736H12.8073L12.6557 48.2263H10.6305V49.4309H12.4554V50.3781H10.6305V52.5245H9.59082V47.2736Z" fill="white"/>
<path d="M13.8308 51.6977V48.1003L13.2893 48.0073V47.2736H15.3687V48.0292L14.8272 48.1222V51.6977L15.3687 51.7908V52.5245H13.311V51.7908L13.8308 51.6977Z" fill="white"/>
<path d="M16.0564 49.2337C16.0564 47.8429 16.7333 47.2187 17.9787 47.2187C18.2645 47.2029 18.5505 47.2468 18.8188 47.3476C19.0871 47.4483 19.332 47.6039 19.5382 47.8046V48.6259H18.6881C18.6881 48.6259 18.6285 48.155 17.9841 48.155C17.3398 48.155 17.0907 48.4945 17.0907 49.2118V50.5861C17.0907 51.3034 17.3073 51.6428 17.9841 51.6428C18.661 51.6428 18.6881 51.172 18.6881 51.172H19.5382V51.9933C19.332 52.1939 19.0871 52.3495 18.8188 52.4503C18.5505 52.5511 18.2645 52.595 17.9787 52.5791C16.7333 52.5791 16.0564 51.9549 16.0564 50.5642V49.2337Z" fill="white"/>
<path d="M20.7131 51.6977V48.1003L20.1716 48.0073V47.2736H22.2781V48.0292L21.7366 48.1222V51.6977L22.2781 51.7908V52.5245H20.1933V51.7908L20.7131 51.6977Z" fill="white"/>
<path d="M22.9062 51.9386L24.1788 47.2736H25.8628L27.1516 51.9386V52.5245H26.204L25.9224 51.4294C25.6178 51.4931 25.3075 51.5243 24.9964 51.5225C24.695 51.523 24.3941 51.4955 24.0976 51.4403L23.816 52.5354H22.9062V51.9386ZM24.325 50.5478C24.5467 50.5874 24.7713 50.6075 24.9964 50.6081C25.229 50.6084 25.4611 50.5864 25.6896 50.5424L25.3863 49.3761C25.2672 48.8888 25.1102 48.2099 25.1102 48.2099H24.9044C24.9044 48.2099 24.7528 48.8888 24.6228 49.3761L24.325 50.5478Z" fill="white"/>
<path d="M28.002 47.2736H29.0362V51.5717H31.1372L30.9856 52.5245H28.002V47.2736Z" fill="white"/>
<path d="M35.0792 48.2263V52.5245H34.0396V48.2263H32.8049V47.2736H36.3572L36.2056 48.2263H35.0792Z" fill="white"/>
<path d="M37.0503 47.2736H39.0159C40.1423 47.2736 40.7596 47.8211 40.7596 48.834C40.7583 49.1769 40.6541 49.5113 40.4607 49.7929C40.2673 50.0745 39.9938 50.29 39.6766 50.411C39.9706 50.9408 40.321 51.4365 40.7217 51.8893V52.5245H39.9473C39.4412 51.9024 39.0002 51.229 38.6315 50.515H38.09V52.5245H37.0503V47.2736ZM39.2163 49.5677C39.3609 49.523 39.4867 49.431 39.5739 49.3061C39.6611 49.1812 39.7049 49.0306 39.6982 48.8778C39.7045 48.7916 39.6926 48.705 39.6631 48.6238C39.6336 48.5426 39.5874 48.4686 39.5274 48.407C39.4674 48.3453 39.3951 48.2973 39.3153 48.2661C39.2355 48.2349 39.1501 48.2214 39.0647 48.2263H38.09V49.5677H39.2163Z" fill="white"/>
<path d="M41.366 51.9386L42.6439 47.2736H44.3226L45.5951 51.9386V52.5245H44.6637L44.3821 51.4294C44.0776 51.4934 43.7672 51.5246 43.4562 51.5225C43.1547 51.5228 42.8538 51.4953 42.5573 51.4403L42.2757 52.5354H41.366V51.9386ZM42.7847 50.5478C43.0064 50.5874 43.231 50.6075 43.4562 50.6081C43.6905 50.6081 43.9244 50.5861 44.1547 50.5424L43.846 49.3761C43.7269 48.8888 43.5753 48.2099 43.5753 48.2099H43.3966C43.3966 48.2099 43.2396 48.8888 43.1096 49.3761L42.7847 50.5478Z" fill="white"/>
<path d="M46.4614 47.2736H48.3134C49.5588 47.2736 50.2411 47.8868 50.2411 49.2885V50.5095C50.2411 51.9167 49.5588 52.5245 48.3134 52.5245H46.4614V47.2736ZM47.5011 48.2153V51.5827H48.27C48.9253 51.5827 49.2177 51.3363 49.2177 50.6026V49.1954C49.2177 48.4617 48.9253 48.2153 48.27 48.2153H47.5011Z" fill="white"/>
<path d="M51.4272 51.6977V48.1003L50.8857 48.0073V47.2736H52.9813V48.0292L52.4398 48.1222V51.6977L52.9813 51.7908V52.5245H50.9074V51.7908L51.4272 51.6977Z" fill="white"/>
<path d="M53.9019 47.2736H54.8549L56.3386 49.7375C56.4577 49.9401 56.7501 50.5315 56.7501 50.5315C56.7501 50.5315 56.7068 49.9839 56.7068 49.4364V47.2462H57.7194V52.4971H56.7068V52.07L55.4181 49.9456L54.909 49.0421C54.909 49.0421 54.909 49.5185 54.909 50.0387V52.5245H53.9019V47.2736Z" fill="white"/>
<path d="M58.7266 49.2337C58.7266 47.832 59.4847 47.2187 60.7572 47.2187C61.0477 47.2027 61.3382 47.2479 61.6105 47.3516C61.8827 47.4553 62.1306 47.6152 62.3384 47.821V48.6259H61.4936C61.4367 48.4725 61.3305 48.3427 61.1921 48.2574C61.0538 48.1721 60.8911 48.136 60.7301 48.155C60.0478 48.155 59.7662 48.4945 59.7662 49.2118V50.6847C59.7662 51.4184 60.0695 51.7305 60.7193 51.7305C60.8548 51.7377 60.9904 51.7172 61.1179 51.6702C61.2453 51.6231 61.3621 51.5505 61.4611 51.4567V50.3616H60.6651V49.4308H62.4142V52.5244H61.6669L61.5369 52.1685C61.3927 52.307 61.2227 52.4151 61.0368 52.4866C60.8509 52.558 60.6527 52.5913 60.4539 52.5846C59.3709 52.5846 58.7753 51.955 58.7753 50.6244L58.7266 49.2337Z" fill="white"/>
<path d="M11.4482 54.9993H13.3706C14.5294 54.9993 15.125 55.5797 15.125 56.6419C15.1207 56.9995 15.0099 57.3475 14.807 57.6406C14.6042 57.9336 14.3187 58.158 13.9879 58.2845H12.4771V60.2064H11.4482V54.9993ZM13.6467 57.3756C13.7884 57.3109 13.9071 57.2037 13.9865 57.0685C14.0659 56.9334 14.1023 56.7768 14.0908 56.62C14.0963 56.5258 14.0813 56.4315 14.0466 56.3438C14.0119 56.2562 13.9585 56.1774 13.8903 56.113C13.822 56.0487 13.7404 56.0004 13.6515 55.9716C13.5626 55.9428 13.4685 55.9342 13.376 55.9465H12.4771V57.3756H13.6467Z" fill="white"/>
<path d="M15.282 59.6643L16.5599 54.9993H18.2386L19.5111 59.6643V60.2502H18.5797L18.2981 59.1551C17.995 59.2161 17.6867 59.2473 17.3776 59.2482C17.0744 59.246 16.772 59.2185 16.4733 59.166L16.1917 60.2611H15.282V59.6643ZM16.7061 58.2736C16.9278 58.3136 17.1525 58.3337 17.3776 58.3338C17.6105 58.3348 17.8428 58.3109 18.0707 58.2626L17.7675 57.1018C17.6429 56.6145 17.4913 55.9356 17.4913 55.9356H17.2855C17.2855 55.9356 17.1285 56.6145 16.9985 57.1018L16.7061 58.2736Z" fill="white"/>
<path d="M20.3774 54.9993H22.3377C23.4694 54.9993 24.0867 55.5468 24.0867 56.5598C24.0844 56.9017 23.9796 57.2348 23.7863 57.5154C23.593 57.7959 23.3201 58.0106 23.0037 58.1312C23.297 58.6632 23.6475 59.1608 24.0488 59.615V60.2502H23.2691C22.7639 59.6285 22.3247 58.955 21.9586 58.2407H21.4171V60.2502H20.3774V54.9993ZM22.5434 57.2935C22.687 57.2477 22.8116 57.1553 22.8978 57.0305C22.984 56.9057 23.0269 56.7556 23.02 56.6036C23.0269 56.5136 23.0141 56.4232 22.9825 56.3388C22.9508 56.2544 22.9012 56.1781 22.8371 56.1153C22.7729 56.0526 22.6959 56.0049 22.6114 55.9757C22.527 55.9465 22.4372 55.9366 22.3485 55.9465H21.4171V57.2935H22.5434Z" fill="white"/>
<path d="M26.7619 55.9465V60.2502H25.7222V55.9465H24.4875V54.9993H28.0452L27.8936 55.9465H26.7619Z" fill="white"/>
<path d="M28.7329 54.9994H29.686L31.1697 57.4633C31.2888 57.6605 31.5812 58.2573 31.5812 58.2573C31.5812 58.2573 31.5433 57.7097 31.5433 57.1622V54.972H32.5667V60.2229H31.5595V59.7959L30.2545 57.644C30.0867 57.3429 29.7401 56.7406 29.7401 56.7406C29.7401 56.7406 29.7401 57.217 29.7401 57.7371V60.2229H28.7329V54.9994Z" fill="white"/>
<path d="M33.7148 54.9993H37.0018L36.8501 55.9465H34.7329V57.1511H36.6335V58.1038H34.7329V59.2974H36.8989V60.2502H33.7148V54.9993Z" fill="white"/>
<path d="M37.9224 54.9993H39.8826C41.0143 54.9993 41.6316 55.5468 41.6316 56.5598C41.6293 56.9017 41.5246 57.2348 41.3312 57.5154C41.1379 57.7959 40.8651 58.0106 40.5486 58.1312C40.842 58.6632 41.1925 59.1608 41.5937 59.615V60.2502H40.814C40.3088 59.6285 39.8696 58.955 39.5035 58.2407H38.962V60.2502H37.9224V54.9993ZM40.0884 57.2935C40.2319 57.2477 40.3565 57.1553 40.4427 57.0305C40.5289 56.9057 40.5718 56.7556 40.5649 56.6036C40.5718 56.5136 40.559 56.4232 40.5274 56.3388C40.4958 56.2544 40.4461 56.1781 40.382 56.1153C40.3179 56.0526 40.2408 56.0049 40.1564 55.9757C40.0719 55.9465 39.9821 55.9366 39.8934 55.9465H38.962V57.2935H40.0884Z" fill="white"/>
<path d="M43.895 57.0308C43.895 55.6619 44.599 54.9227 45.9094 54.9227C47.2198 54.9227 47.9238 55.6619 47.9238 57.0308V58.2189C47.9238 59.5768 47.2252 60.3269 45.9094 60.3269C44.5936 60.3269 43.895 59.5878 43.895 58.2189V57.0308ZM45.9094 59.3906C46.5971 59.3906 46.8895 59.0676 46.8895 58.2956V56.9541C46.8895 56.1821 46.5971 55.859 45.9094 55.859C45.2217 55.859 44.9347 56.1821 44.9347 56.9541V58.2956C44.9347 59.0676 45.2217 59.3906 45.9094 59.3906Z" fill="white"/>
<path d="M48.9202 54.9993H52.1367L51.9797 55.9465H49.9599V57.1511H51.7847V58.1038H49.9599V60.2502H48.9202V54.9993Z" fill="white"/>
<path d="M7.04028 62.7251H10.2568L10.1052 63.6723H8.07996V64.8769H9.90482V65.8296H8.07996V67.976H7.04028V62.7251Z" fill="white"/>
<path d="M10.7551 64.6852C10.7551 63.2945 11.432 62.6703 12.6775 62.6703C12.9633 62.6544 13.2492 62.6983 13.5175 62.7991C13.7858 62.8999 14.0307 63.0555 14.237 63.2561V64.0774H13.3868C13.3868 64.0774 13.3273 63.6066 12.6883 63.6066C12.0493 63.6066 11.7894 63.946 11.7894 64.6633V66.0376C11.7894 66.7549 12.006 67.0944 12.6883 67.0944C13.3706 67.0944 13.3868 66.6235 13.3868 66.6235H14.237V67.4393C14.0316 67.6415 13.7869 67.7985 13.5185 67.9003C13.2501 68.0021 12.9637 68.0465 12.6775 68.0307C11.432 68.0307 10.7551 67.401 10.7551 66.0157V64.6852Z" fill="white"/>
<path d="M16.6519 62.7251H18.5254C19.7709 62.7251 20.2095 63.2726 20.2095 64.1597C20.2163 64.3896 20.164 64.6175 20.0577 64.8209C19.9514 65.0244 19.7948 65.1965 19.603 65.3204C19.8046 65.4342 19.9735 65.599 20.0931 65.7987C20.2127 65.9983 20.2789 66.226 20.2853 66.4593C20.2853 67.4011 19.7438 67.965 18.5958 67.965H16.6519V62.7251ZM17.659 63.6285V64.8715H18.7854C18.9073 64.8161 19.0107 64.7261 19.0828 64.6123C19.1549 64.4985 19.1927 64.366 19.1915 64.2308C19.2011 64.1465 19.1911 64.0611 19.1624 63.9813C19.1337 63.9015 19.087 63.8295 19.0261 63.7711C18.9652 63.7127 18.8917 63.6694 18.8114 63.6447C18.731 63.6199 18.6461 63.6144 18.5634 63.6285H17.659ZM17.659 65.7585V67.0726H18.6283C18.7149 67.0793 18.8019 67.0669 18.8832 67.0361C18.9645 67.0053 19.0381 66.9569 19.099 66.8943C19.1599 66.8318 19.2065 66.7565 19.2355 66.6738C19.2646 66.591 19.2755 66.5029 19.2673 66.4155C19.2634 66.273 19.2182 66.1348 19.1374 66.018C19.0565 65.9012 18.9435 65.8109 18.8124 65.7585H17.659Z" fill="white"/>
<path d="M20.9192 67.3846L22.1971 62.7251H23.9029L25.1754 67.3846V67.976H24.2169L23.9353 66.8809C23.6304 66.9422 23.3203 66.9734 23.0094 66.974C22.7077 66.9725 22.4069 66.9432 22.1105 66.8864L21.8289 67.9815H20.9192V67.3846ZM22.3379 65.9994C22.5596 66.0389 22.7843 66.0591 23.0094 66.0596C23.244 66.0606 23.4782 66.0367 23.7079 65.9884L23.3993 64.8222C23.2801 64.3403 23.1285 63.6559 23.1285 63.6559H22.9227C22.9227 63.6559 22.7657 64.3403 22.6357 64.8222L22.3379 65.9994Z" fill="white"/>
<path d="M26.0144 62.7251H27.9746C29.1064 62.7251 29.7237 63.2726 29.7237 64.2856C29.7213 64.6275 29.6166 64.9607 29.4233 65.2412C29.2299 65.5217 28.9571 65.7364 28.6407 65.857C28.9354 66.3881 29.2858 66.8856 29.6858 67.3408V67.976H28.906C28.402 67.3535 27.9629 66.6801 27.5956 65.9665H27.0541V67.976H26.0144V62.7251ZM28.2346 65.0029C28.3781 64.9571 28.5027 64.8647 28.5889 64.7399C28.6751 64.6151 28.718 64.465 28.7111 64.313C28.718 64.223 28.7052 64.1326 28.6736 64.0482C28.642 63.9638 28.5923 63.8875 28.5282 63.8247C28.464 63.762 28.387 63.7143 28.3026 63.6851C28.2181 63.656 28.1283 63.646 28.0396 63.6559H27.0541V65.0029H28.2346Z" fill="white"/>
<path d="M30.4602 64.6853C30.4602 63.2946 31.1371 62.6704 32.3825 62.6704C32.6684 62.6536 32.9547 62.697 33.2231 62.7978C33.4916 62.8987 33.7364 63.0548 33.9421 63.2563V64.0776H33.1081C33.1081 64.0776 33.0486 63.6067 32.4096 63.6067C31.7706 63.6067 31.5161 63.9462 31.5161 64.6634V66.0378C31.5161 66.755 31.7273 67.0945 32.4096 67.0945C33.0919 67.0945 33.1081 66.6455 33.1081 66.6455H33.9583V67.4614C33.7535 67.6644 33.5089 67.8219 33.2404 67.9237C32.9718 68.0256 32.6851 68.0695 32.3988 68.0527C31.1533 68.0527 30.4764 67.423 30.4764 66.0378L30.4602 64.6853Z" fill="white"/>
<path d="M34.8301 62.7251H38.117L37.9816 63.6723H35.8643V64.8769H37.765V65.8296H35.8643V67.0233H38.0303V67.976H34.8301V62.7251Z" fill="white"/>
<path d="M39.0647 62.7251H40.1044V67.0233H42.2L42.0484 67.976H39.0647V62.7251Z" fill="white"/>
<path d="M42.449 64.7565C42.449 63.3876 43.1529 62.6484 44.4688 62.6484C45.7846 62.6484 46.4832 63.3876 46.4832 64.7565V65.9446C46.4832 67.3025 45.7792 68.0526 44.4688 68.0526C43.1583 68.0526 42.449 67.308 42.449 65.9446V64.7565ZM44.4796 67.1163C45.1673 67.1163 45.4543 66.7933 45.4543 66.0213V64.6798C45.4543 63.9078 45.1673 63.5847 44.4796 63.5847C43.7919 63.5847 43.4995 63.9133 43.4995 64.6798V66.0213C43.4887 66.7933 43.7811 67.1163 44.4796 67.1163Z" fill="white"/>
<path d="M47.4797 62.725H48.4328L49.9111 65.1889C50.0356 65.386 50.3226 65.9829 50.3226 65.9829C50.3226 65.9829 50.2847 65.4353 50.2847 64.8878V62.6976H51.2919V67.9485H50.301V67.5214L48.9959 65.3696L48.4869 64.4662H48.4599C48.4599 64.4662 48.4869 64.9425 48.4869 65.4627V67.9485H47.4797V62.725Z" fill="white"/>
<path d="M52.1746 67.3846L53.4525 62.7251H55.1312L56.4037 67.3846V67.976H55.4723L55.1907 66.8809C54.8858 66.9422 54.5757 66.9734 54.2648 66.974C53.9631 66.9725 53.6622 66.9432 53.3659 66.8864L53.0843 67.9815H52.1746V67.3846ZM53.5933 65.9994C53.815 66.0389 54.0396 66.0591 54.2648 66.0596C54.4994 66.0606 54.7335 66.0367 54.9633 65.9884L54.6546 64.8222C54.5355 64.3403 54.3839 63.6559 54.3839 63.6559H54.1727C54.1727 63.6559 54.0211 64.3403 53.8911 64.8222L53.5933 65.9994Z" fill="white"/>
<path d="M47.2954 40.2705H16.0129" stroke="white" stroke-width="0.664474" stroke-miterlimit="10"/>
<path d="M47.2846 16.9782L46.819 16.4854C44.8316 14.3829 42.0158 9.15388 45.606 4.26983L45.8876 3.89203L45.6385 3.48685C45.5138 3.28018 45.3726 3.08423 45.2161 2.90098C45.1024 2.75862 44.9833 2.61079 44.8262 2.3863L44.5284 1.95374L44.0411 2.12896C43.3346 2.38065 42.5916 2.51202 41.8426 2.51771C39.7903 2.51771 38.4474 2.31512 36.7904 1.20361L36.4059 0.940796L36.0214 1.20909C34.7401 2.18235 33.1837 2.71399 31.5811 2.72577C29.9823 2.71165 28.43 2.18013 27.1517 1.20909L26.7564 0.940796L26.3719 1.20361C24.7149 2.29869 23.372 2.51771 21.3197 2.51771C20.5707 2.51162 19.8278 2.38026 19.1212 2.12896L18.6339 1.95374L18.336 2.3863C18.179 2.61079 18.0653 2.75862 17.9516 2.89551C17.7963 3.08291 17.6534 3.28046 17.5238 3.48685L17.2747 3.89203L17.5563 4.26983C21.1518 9.15388 18.336 14.3829 16.3216 16.4854L15.856 16.9782L16.3325 17.46C16.587 17.7174 17.0418 18.1992 17.4155 18.5989V18.6646C17.4155 18.7139 17.4155 18.7413 17.4155 18.807V18.8508C17.2314 22.355 18.1303 25.2351 20.0851 27.4198C22.1536 29.7359 25.3918 31.1211 29.2202 31.3347C30.1678 32.2162 31.1263 32.939 31.1696 32.9773L31.5811 33.2894L31.9873 32.9773C32.0306 32.9444 32.989 32.2162 33.9367 31.3347C37.7597 31.1211 40.9762 29.7359 43.0718 27.4198C45.0266 25.2296 45.9201 22.355 45.736 18.8508V18.807C45.7312 18.7597 45.7312 18.712 45.736 18.6646C45.7386 18.6428 45.7386 18.6207 45.736 18.5989C46.115 18.1992 46.5645 17.7174 46.819 17.46L47.2846 16.9782ZM45.0212 18.3471C45.0537 18.6975 45.0212 18.6811 45.0591 18.8946C45.4706 26.6751 40.1477 30.3765 33.6497 30.6503C32.6641 31.5865 31.5757 32.4133 31.5757 32.4133C31.5757 32.4133 30.4927 31.5865 29.4909 30.6503C23.0308 30.3765 17.6862 26.6915 18.0924 18.8891C18.1194 18.6811 18.0924 18.6975 18.1357 18.3416C17.762 17.9419 17.1501 17.2903 16.8252 16.9618C19.1429 14.5143 21.845 8.91844 18.0924 3.84823C18.3414 3.44305 18.5201 3.30069 18.8884 2.78053C19.6663 3.05735 20.4842 3.20167 21.3089 3.20761C23.4749 3.20761 24.9315 2.99407 26.7239 1.77305C28.1201 2.82621 29.8122 3.40163 31.5541 3.41567C33.2977 3.40241 34.9917 2.82697 36.3897 1.77305C38.1929 2.99407 39.6387 3.20761 41.8047 3.20761C42.6293 3.20167 43.4473 3.05735 44.2252 2.78053C44.5934 3.32807 44.7667 3.44305 45.0212 3.8756C41.2686 8.94581 43.9707 14.5417 46.2883 17.0165C45.9634 17.3451 45.3515 17.9966 44.9833 18.3963" fill="#1D1D1B"/>
<path d="M31.5864 32.4131C30.8626 31.8613 30.1668 31.2729 29.5016 30.6501C23.0415 30.3763 17.6969 26.6914 18.103 18.8889C18.1301 18.6809 18.103 18.6973 18.141 18.3414C17.7727 17.9472 17.1608 17.2956 16.8359 16.9671C19.1536 14.5196 21.8611 8.92372 18.103 3.85351C18.3521 3.44833 18.5308 3.30597 18.8991 2.78581C19.6768 3.06401 20.4947 3.21016 21.3196 3.21837C23.4856 3.21837 24.9422 2.99935 26.7346 1.78381C28.1314 2.83594 29.8231 3.41125 31.5648 3.42643C33.308 3.41089 35.0014 2.83568 36.4004 1.78381C38.2036 2.99935 39.6494 3.21837 41.8154 3.21837C42.642 3.21017 43.4617 3.06401 44.2413 2.78581C44.6095 3.33335 44.7828 3.44833 45.0319 3.88089C41.2793 8.9511 43.9814 14.5469 46.299 17.0218C45.9741 17.3503 45.3622 18.0019 44.994 18.3961C45.0319 18.752 44.994 18.7356 45.0319 18.9437C45.4651 26.6749 40.1475 30.3763 33.6495 30.6501C32.9881 31.2728 32.2959 31.8612 31.5756 32.4131" fill="#EBBD00"/>
<path d="M22.7331 18.5278H19.3325C19.3325 18.7523 19.3 18.7633 19.2729 18.9878C19.0779 22.93 20.4371 25.6185 22.7331 27.2939V18.5278Z" fill="#004A99"/>
<path d="M22.7332 27.2938C23.8139 28.0563 25.0232 28.613 26.3016 28.9364V18.5332H22.7332V27.2938Z" fill="#A50343"/>
<path d="M26.2961 28.9364C27.4629 29.2472 28.6592 29.4307 29.8646 29.484V18.5332H26.2961V28.9364Z" fill="#004A99"/>
<path d="M33.4333 18.5278H29.8594V29.4786H29.9839C31.1644 29.4786 32.242 29.4786 33.1734 29.4786H33.4279L33.4333 18.5278Z" fill="#A50343"/>
<path d="M33.4329 29.4676C34.6383 29.4149 35.8347 29.2313 37.0014 28.9201V18.5168H33.4329V29.4676Z" fill="#004A99"/>
<path d="M37.0017 28.9037C38.2864 28.5621 39.4966 27.9808 40.5702 27.1899V18.5278H37.0017V28.9037Z" fill="#A50343"/>
<path d="M43.8354 18.5278H40.5864V27.2227C42.8012 25.5418 44.1062 22.8808 43.9112 19.0097C43.9112 18.7852 43.8733 18.7742 43.8571 18.5497" fill="#004A99"/>
<path d="M31.9223 29.588H29.9891C26.1986 29.4293 23.2041 28.2575 21.363 26.2042C19.7385 24.4138 19.0238 21.9882 19.17 18.9877C19.1762 18.9141 19.1871 18.8409 19.2024 18.7687C19.2024 18.6975 19.2024 18.6427 19.2024 18.5223V18.4292H43.9382V18.5223C43.9328 18.6043 43.9328 18.6866 43.9382 18.7687C43.9382 18.818 43.9382 18.8782 43.9382 18.9822C44.0952 21.9882 43.3588 24.4138 41.7722 26.2042C39.9365 28.2575 36.9528 29.4293 33.1569 29.588H31.9223ZM19.4245 18.6373C19.4245 18.703 19.4245 18.7522 19.4245 18.7961C19.4245 18.8399 19.4245 18.9056 19.4245 19.0041C19.2783 21.9389 19.9985 24.3152 21.5905 26.0619C23.3937 28.0768 26.3232 29.2212 30.065 29.38H33.249C36.9907 29.2212 39.9257 28.0768 41.7235 26.0619C43.2884 24.3152 44.0086 21.9389 43.8895 18.9986C43.8895 18.9056 43.8895 18.8453 43.8895 18.7961C43.8895 18.7468 43.8895 18.703 43.8895 18.6373H19.4245Z" fill="#1D1D1B"/>
<path d="M28.148 23.8553C28.1512 23.1716 28.3546 22.5042 28.7326 21.9373C29.1106 21.3703 29.6462 20.9294 30.2718 20.67C30.8974 20.4106 31.585 20.3444 32.2478 20.4798C32.9106 20.6151 33.5188 20.946 33.9958 21.4306C34.4728 21.9152 34.7972 22.5318 34.9279 23.2026C35.0586 23.8734 34.9899 24.5684 34.7304 25.1997C34.4709 25.8311 34.0323 26.3706 33.4699 26.7501C32.9074 27.1296 32.2464 27.3321 31.5702 27.3321C30.6607 27.3292 29.7894 26.9615 29.1477 26.3096C28.5061 25.6577 28.1465 24.775 28.148 23.8553Z" fill="#EBBD00"/>
<path d="M31.5703 20.4769C30.9083 20.4715 30.2597 20.665 29.7068 21.0329C29.1538 21.4008 28.7213 21.9265 28.4643 22.5433C28.2073 23.1601 28.1372 23.8402 28.2631 24.4973C28.3889 25.1544 28.705 25.759 29.1711 26.2342C29.6373 26.7094 30.2325 27.0339 30.8814 27.1664C31.5302 27.299 32.2034 27.2337 32.8154 26.9789C33.4275 26.724 33.9509 26.291 34.3193 25.7349C34.6876 25.1788 34.8842 24.5245 34.8843 23.8552C34.8857 22.9635 34.5379 22.1075 33.9169 21.4744C33.2958 20.8413 32.4521 20.4827 31.5703 20.4769ZM31.5703 27.2937C30.8955 27.2981 30.2346 27.0996 29.6716 26.7236C29.1085 26.3476 28.6685 25.8109 28.4076 25.1817C28.1466 24.5524 28.0764 23.859 28.2058 23.1893C28.3352 22.5197 28.6584 21.904 29.1344 21.4203C29.6104 20.9367 30.2178 20.6069 30.8794 20.4729C31.5411 20.3388 32.2272 20.4065 32.8508 20.6674C33.4743 20.9282 34.0072 21.3705 34.3817 21.938C34.7563 22.5056 34.9557 23.1729 34.9547 23.8552C34.9561 24.7647 34.6005 25.6377 33.966 26.2824C33.3314 26.9271 32.4698 27.2908 31.5703 27.2937Z" fill="#1D1D1B"/>
<path d="M31.5703 20.373C32.2523 20.3687 32.9203 20.5692 33.4895 20.9492C34.0587 21.3292 34.5035 21.8715 34.7675 22.5075C35.0315 23.1434 35.1027 23.8442 34.9723 24.5212C34.8419 25.1981 34.5156 25.8207 34.0348 26.3099C33.5541 26.7991 32.9405 27.1329 32.2718 27.2691C31.6032 27.4052 30.9096 27.3376 30.279 27.0747C29.6485 26.8117 29.1093 26.3654 28.7299 25.7923C28.3505 25.2192 28.148 24.545 28.148 23.8553C28.1458 23.3993 28.2328 22.9473 28.4037 22.5252C28.5747 22.1032 28.8263 21.7194 29.1443 21.3959C29.4622 21.0724 29.8401 20.8155 30.2564 20.64C30.6728 20.4644 31.1192 20.3737 31.5703 20.373ZM29.8266 24.485C29.2039 23.9375 29.2039 22.7493 29.3718 21.9718C29.4151 21.7583 29.4747 21.5447 29.5342 21.3038C28.9963 21.7474 28.613 22.3536 28.4405 23.0334C28.268 23.7133 28.3154 24.4312 28.5758 25.0818C28.6316 25.0875 28.6878 25.0875 28.7436 25.0818C28.9624 25.0895 29.179 25.0364 29.3699 24.9283C29.5609 24.8202 29.7188 24.6612 29.8266 24.4686V24.485ZM33.146 24.7205C33.0377 25.268 32.4637 25.6841 31.9168 26.0126C31.2452 26.3589 30.5045 26.5461 29.7508 26.5602C30.2836 26.9223 30.9121 27.1132 31.554 27.1077C32.1319 27.1045 32.6985 26.9456 33.1953 26.6472C33.6922 26.3489 34.1014 25.9219 34.3807 25.4104C34.37 25.2674 34.3243 25.1293 34.2478 25.0086C34.1713 24.8878 34.0662 24.7883 33.9422 24.7188C33.8181 24.6492 33.679 24.612 33.5371 24.6104C33.3953 24.6088 33.2554 24.6428 33.1298 24.7095L33.146 24.7205ZM29.5017 26.3521C30.3008 26.3558 31.0895 26.1682 31.8031 25.8046C32.5666 25.3446 33.1623 24.8464 32.8861 24.162C32.8413 24.0441 32.769 23.9389 32.6753 23.8554C32.5816 23.772 32.4693 23.7126 32.348 23.6825C32.2268 23.6524 32.1001 23.6524 31.9788 23.6825C31.8575 23.7126 31.7452 23.7719 31.6515 23.8553C31.6077 24.1125 31.4745 24.3453 31.2759 24.5119C31.0774 24.6786 30.8265 24.768 30.5685 24.7643C30.3637 24.7413 30.1671 24.67 29.9945 24.5562C29.8679 24.7714 29.6866 24.9483 29.4695 25.0687C29.2524 25.1891 29.0074 25.2484 28.7599 25.2406H28.6787C28.8841 25.6627 29.1757 26.0359 29.5342 26.3357L29.5017 26.3521ZM31.5757 21.7528C32.1172 21.5283 32.8536 21.8185 33.4168 22.1415C34.0026 22.4906 34.4836 22.994 34.8084 23.598C34.758 22.7717 34.4009 21.995 33.8086 21.4235C33.2162 20.8519 32.4323 20.5276 31.6136 20.5154C31.5074 20.5774 31.4186 20.6658 31.3557 20.7722C31.2928 20.8786 31.2578 20.9995 31.254 21.1234C31.2502 21.2473 31.2777 21.3702 31.334 21.4803C31.3903 21.5905 31.4735 21.6843 31.5757 21.7528ZM31.4836 23.9046C31.2207 23.7146 31.0395 23.4303 30.9771 23.1096C30.9147 22.789 30.9758 22.4564 31.1479 22.1799C31.2132 22.0769 31.2956 21.9861 31.3916 21.9116C31.2961 21.8322 31.2178 21.734 31.1613 21.6228C31.1049 21.5116 31.0716 21.39 31.0635 21.2653C31.0553 21.1406 31.0726 21.0156 31.1141 20.8979C31.1556 20.7802 31.2206 20.6724 31.3049 20.5811C30.764 20.633 30.2445 20.8212 29.7942 21.1286C29.6119 21.7201 29.5063 22.3329 29.4801 22.9519C29.4801 23.8225 29.8429 24.5288 30.5631 24.6274C30.7754 24.6328 30.9831 24.5638 31.1509 24.4321C31.3187 24.3003 31.4362 24.114 31.4836 23.9046ZM34.7976 24.1565C34.5304 23.403 34.0088 22.7689 33.3247 22.366C32.5396 21.9225 31.7002 21.6816 31.3104 22.2839C31.1689 22.517 31.1188 22.7951 31.1699 23.0636C31.221 23.3321 31.3696 23.5716 31.5865 23.7349C31.7037 23.6369 31.8423 23.5686 31.9908 23.5355C32.1393 23.5024 32.2935 23.5055 32.4405 23.5446C32.5876 23.5836 32.7234 23.6575 32.8366 23.7601C32.9499 23.8627 33.0374 23.991 33.0919 24.1346C33.142 24.2565 33.1713 24.3861 33.1785 24.5179C33.3097 24.465 33.4502 24.4397 33.5914 24.4436C33.7326 24.4474 33.8716 24.4803 33.9998 24.5403C34.128 24.6002 34.2427 24.686 34.3371 24.7923C34.4314 24.8985 34.5034 25.0232 34.5485 25.1585C34.6864 24.8409 34.7706 24.5022 34.7976 24.1565Z" fill="#1D1D1B"/>
<path d="M35.6372 17.8817H34.1914V14.6293H35.6535C36.2924 14.6293 36.6769 14.9578 36.6769 15.5053C36.6808 15.6231 36.6562 15.74 36.6053 15.8459C36.5543 15.9518 36.4785 16.0436 36.3845 16.1131C36.5097 16.1814 36.6136 16.2837 36.6844 16.4085C36.7552 16.5333 36.7901 16.6756 36.7852 16.8194C36.7923 16.9692 36.7665 17.1187 36.7098 17.2573C36.6531 17.3959 36.5668 17.5201 36.4572 17.621C36.3475 17.722 36.2171 17.7972 36.0754 17.8413C35.9337 17.8854 35.784 17.8973 35.6372 17.8762V17.8817ZM34.8737 17.2027H35.6589C35.9296 17.2027 36.0704 17.0768 36.0704 16.8304C36.0704 16.584 35.9404 16.4635 35.6589 16.4635H34.8737V17.2027ZM34.8737 15.8284H35.6589C35.8701 15.8284 35.9675 15.7463 35.9675 15.571C35.9675 15.3958 35.9296 15.3027 35.6264 15.3027H34.8737V15.8284Z" fill="#1D1D1B"/>
<path d="M31.3321 17.9146C30.482 17.9146 29.9351 17.263 29.9351 16.2446C29.9351 15.2262 30.5145 14.5746 31.3538 14.5746C31.598 14.5625 31.8401 14.625 32.0487 14.7539C32.2573 14.8828 32.4227 15.0721 32.5234 15.2973V15.3357L31.879 15.6368V15.604C31.8333 15.4998 31.7565 15.4127 31.6594 15.3548C31.5623 15.2969 31.4498 15.2711 31.3375 15.2809C30.9098 15.2809 30.6444 15.6532 30.6444 16.2446C30.6444 16.8359 30.926 17.2137 31.343 17.2137C31.4656 17.2154 31.5859 17.1797 31.6883 17.1114C31.7906 17.043 31.8703 16.9452 31.9169 16.8305V16.7976L32.5018 17.148V17.1809C32.4015 17.4072 32.2365 17.598 32.028 17.7288C31.8196 17.8595 31.5772 17.9242 31.3321 17.9146Z" fill="#1D1D1B"/>
<path d="M27.0542 17.8816H26.3557V14.6401H28.6571V15.3355H27.0542V15.8557H27.991V16.5456H27.0542V17.8816Z" fill="#1D1D1B"/>
<path d="M20.1448 13.9778C21.3198 11.2401 21.7693 7.70848 19.782 4.26446C20.2896 4.35676 20.8041 4.40439 21.3198 4.40682C23.3451 4.40682 24.9371 4.22066 26.7348 3.19128C28.1833 4.11832 29.8617 4.61188 31.5759 4.61489C33.3008 4.61569 34.9906 4.12208 36.4494 3.19128C38.2417 4.22066 39.8337 4.40682 41.8644 4.40682C42.3785 4.40382 42.8914 4.35435 43.3968 4.25899C41.4095 7.70848 41.8481 11.2346 43.0232 13.9778H20.1448Z" fill="white"/>
<path d="M31.4839 4.61476V13.9777H32.7077V4.54358C32.334 4.58996 31.9579 4.61373 31.5814 4.61476H31.4839Z" fill="#FFDD00"/>
<path d="M32.7019 13.9777H33.9257V4.29724C33.524 4.40823 33.115 4.49057 32.7019 4.54363V13.9777Z" fill="#DD052B"/>
<path d="M33.926 13.9777H35.1498V3.86462C34.7532 4.0397 34.3441 4.1843 33.926 4.29718V13.9777Z" fill="#FFDD00"/>
<path d="M35.1497 13.9777H36.3573V3.22949C35.9667 3.47031 35.5595 3.68256 35.1389 3.86464L35.1497 13.9777Z" fill="#DD052B"/>
<path d="M36.3572 3.22954V13.9777H37.581V3.75518C37.1824 3.60067 36.7951 3.4177 36.4222 3.20764L36.3572 3.22954Z" fill="#FFDD00"/>
<path d="M37.5918 13.9776H38.8156V4.12194C38.3991 4.02622 37.9901 3.89996 37.5918 3.74414V13.9776Z" fill="#DD052B"/>
<path d="M38.8157 13.9777H40.0395V4.33005C39.6276 4.2924 39.2187 4.22654 38.8157 4.13293V13.9777Z" fill="#FFDD00"/>
<path d="M40.0393 13.9614H41.2631V4.38492C40.8407 4.38492 40.4346 4.38492 40.0393 4.31921V13.9614Z" fill="#DD052B"/>
<path d="M43.2938 4.2699C42.8152 4.35988 42.3294 4.4057 41.8426 4.40678H41.2632V13.9778H43.0176C41.8588 11.2784 41.3931 7.82342 43.2938 4.42321V4.2699Z" fill="#FFDD00"/>
<path d="M24.5089 10.7966V13.9723H27.9149V10.7966H31.5376V7.34163H27.9149V3.82095C27.5083 3.63734 27.1139 3.427 26.7344 3.19128C26.0385 3.59712 25.2892 3.90128 24.5089 4.09472V7.34163H20.9458C21.1738 8.47913 21.2068 9.6478 21.0433 10.7966H24.5089Z" fill="#DD052B"/>
<path d="M43.592 4.11112L43.3971 4.15493C42.8937 4.25217 42.3825 4.30166 41.87 4.30276C39.8015 4.30276 38.2636 4.10565 36.5092 3.10365L36.455 3.0708L36.3576 3.13103C34.9199 4.04891 33.2547 4.53676 31.5545 4.53821C29.8652 4.53118 28.2119 4.04352 26.7838 3.13103L26.7351 3.09818L26.6809 3.13103C24.9319 4.13303 23.3886 4.33014 21.3201 4.33014C20.8097 4.32942 20.3004 4.28177 19.7985 4.18778L19.571 4.12208L19.6793 4.31919C21.802 8.0096 21.0493 11.585 20.0421 13.934L19.9772 14.0818H43.1751L43.1155 13.934C42.1083 11.585 41.3502 8.0096 43.4783 4.30824L43.592 4.11112ZM19.9772 4.40132C20.4212 4.47434 20.8703 4.51096 21.3201 4.51083C23.4049 4.51083 24.9644 4.31371 26.7351 3.31172C28.1473 4.2017 29.7716 4.688 31.4353 4.71889V13.8737H20.3021C20.9802 12.3781 21.3039 10.7431 21.2475 9.09868C21.1911 7.45431 20.7561 5.8459 19.9772 4.40132ZM42.8556 13.8737H31.6411V4.71889C33.3357 4.70156 34.9932 4.21487 36.4334 3.31172C38.2041 4.31371 39.7582 4.51083 41.8484 4.51083C42.3002 4.50993 42.7511 4.47148 43.1967 4.39584C42.4139 5.83969 41.9754 7.44845 41.9162 9.09395C41.8569 10.7394 42.1786 12.3762 42.8556 13.8737Z" fill="#1D1D1B"/>
</g>
<defs>
<clipPath id="clip0">
<rect x="0.618164" y="0.940674" width="61.7961" height="67.1118" fill="white"/>
</clipPath>
</defs>
</svg>
