<svg xmlns="http://www.w3.org/2000/svg" viewBox="0 0 95.97 122.57"><defs><style>.cls-1{fill:none;stroke:#fff;stroke-miterlimit:10;}.cls-2{fill:#1d1d1b;}.cls-3{fill:#ebbd00;}.cls-4{fill:#004a99;}.cls-5{fill:#a50343;}.cls-6{fill:#fff;}.cls-7{fill:#fd0;}.cls-8{fill:#dd052b;}</style></defs><title>ES_logo-without - vertical color (dark bg)</title><g id="Layer_2" data-name="Layer 2"><g id="TEXTOS"><line class="cls-1" x1="78.27" y1="71.83" x2="20.5" y2="71.83"/><path class="cls-2" d="M78.25,29.29l-.86-.9C73.71,24.55,68.51,15,75.14,6.08l.52-.69-.45-.74a9,9,0,0,0-.79-1.07c-.21-.26-.42-.53-.71-.94l-.55-.79-.9.32a12.55,12.55,0,0,1-4.07.71c-3.79,0-6.27-.37-9.32-2.4L58.15,0l-.7.49a13.82,13.82,0,0,1-8.21,2.77A13.84,13.84,0,0,1,41,.49L40.34,0l-.72.48c-3,2-5.53,2.4-9.32,2.4a12.55,12.55,0,0,1-4.07-.71l-.89-.32-.55.79c-.3.41-.51.68-.72.93a9,9,0,0,0-.78,1.08l-.46.74.52.69C30,15,24.78,24.55,21.11,28.39l-.87.9.88.88c.47.47,1.31,1.35,2,2.08a.49.49,0,0,0,0,.12,1.28,1.28,0,0,1,0,.26v.08c-.34,6.4,1.32,11.66,4.92,15.65,3.82,4.23,9.8,6.76,16.87,7.15,1.75,1.61,3.53,2.93,3.61,3l.75.57L50,58.5c.09-.06,1.85-1.39,3.6-3,7.07-.39,13-2.92,16.87-7.15,3.61-4,5.26-9.25,4.93-15.65v-.08a1.28,1.28,0,0,1,0-.26v-.12c.69-.73,1.53-1.61,2-2.08Zm-4.19,2.5c.07.64,0,.61.07,1,.76,14.25-9.11,21-21,21.48-1.82,1.71-3.83,3.22-3.83,3.22s-2-1.51-3.84-3.22c-11.93-.5-21.81-7.23-21-21.48,0-.38,0-.35.07-1-.69-.73-1.82-1.92-2.42-2.52,4.28-4.47,9.28-14.69,2.35-23.95.45-.74.78-1,1.46-1.95a13.87,13.87,0,0,0,4.48.78c4,0,6.68-.39,10-2.62a15.12,15.12,0,0,0,8.92,3,15.13,15.13,0,0,0,8.93-3c3.33,2.23,6,2.62,10,2.62a13.82,13.82,0,0,0,4.48-.78c.68,1,1,1.21,1.46,2-6.93,9.26-1.93,19.48,2.35,24-.6.6-1.73,1.79-2.42,2.52"/><path class="cls-3" d="M49.25,57.48a48.51,48.51,0,0,1-3.84-3.22c-11.93-.5-21.81-7.23-21-21.48,0-.38,0-.35.07-1-.68-.72-1.82-1.91-2.42-2.51,4.28-4.47,9.28-14.69,2.35-23.95.45-.74.78-1,1.46-1.95a13.87,13.87,0,0,0,4.48.79c4,0,6.68-.4,10-2.62a15.18,15.18,0,0,0,8.92,3,15.19,15.19,0,0,0,8.93-3c3.34,2.22,6,2.62,10,2.62a13.83,13.83,0,0,0,4.48-.79c.68,1,1,1.21,1.46,2-6.92,9.26-1.93,19.48,2.35,24-.6.6-1.73,1.79-2.42,2.51.07.65,0,.62.07,1,.76,14.25-9.11,21-21,21.48a49.4,49.4,0,0,1-3.83,3.22"/><path class="cls-4" d="M32.9,32.12H26.62c0,.41-.06.43-.1.84-.37,7.2,2.14,12.11,6.38,15.17Z"/><path class="cls-5" d="M32.9,48.13a20.09,20.09,0,0,0,6.59,3v-19H32.9Z"/><path class="cls-4" d="M39.49,51.13a31.13,31.13,0,0,0,6.59,1v-20H39.49Z"/><path class="cls-5" d="M52.66,32.12H46.07v20h.23c2.19,0,4.17,0,5.89,0l.47,0Z"/><path class="cls-4" d="M52.66,52.1a31,31,0,0,0,6.59-1v-19H52.66Z"/><path class="cls-5" d="M59.25,51.07a19.61,19.61,0,0,0,6.59-3.13V32.12H59.25Z"/><path class="cls-4" d="M71.87,32.12h-6V48C69.93,44.88,72.33,40,72,33c0-.41-.07-.43-.11-.84"/><path class="cls-2" d="M49.88,52.32H46.3c-7-.29-12.53-2.43-15.92-6.18-3-3.27-4.33-7.7-4.05-13.18a3.81,3.81,0,0,1,.05-.4,3.37,3.37,0,0,0,.05-.45v-.17H72l0,.17c0,.22,0,.32,0,.45s0,.2,0,.39c.28,5.49-1.08,9.92-4,13.19-3.4,3.75-8.9,5.89-15.92,6.18H49.88m-23.09-20c0,.12,0,.21,0,.29a2.2,2.2,0,0,0-.05.38c-.28,5.36,1.05,9.7,3.94,12.89,3.33,3.68,8.74,5.77,15.66,6.06h5.88c6.9-.29,12.32-2.38,15.65-6.06,2.89-3.19,4.22-7.53,3.94-12.9,0-.17,0-.28,0-.37a1.84,1.84,0,0,1,0-.29Z"/><path class="cls-3" d="M42.91,41.85a6.32,6.32,0,1,1,6.31,6.35,6.33,6.33,0,0,1-6.31-6.35"/><path class="cls-2" d="M49.23,35.68a6.17,6.17,0,1,0,6.12,6.17,6.16,6.16,0,0,0-6.12-6.17m0,12.45a6.29,6.29,0,1,1,6.24-6.28,6.28,6.28,0,0,1-6.24,6.28"/><path class="cls-2" d="M49.22,35.49a6.36,6.36,0,1,1-6.31,6.36,6.34,6.34,0,0,1,6.31-6.36M46,43c-1.14-1-1.15-3.17-.84-4.59.08-.39.19-.78.31-1.22a6,6,0,0,0-1.78,6.9l.31,0A2.19,2.19,0,0,0,46,43m6.14.46c-.2,1-1.27,1.76-2.28,2.36a9.1,9.1,0,0,1-4,1,5.85,5.85,0,0,0,3.32,1,5.94,5.94,0,0,0,5.22-3.1,1.57,1.57,0,0,0-2.3-1.28m-6.71,3a9.33,9.33,0,0,0,4.25-1c1.42-.84,2.52-1.75,2-3a1.43,1.43,0,0,0-2.28-.56,2,2,0,0,1-2,1.66,2.43,2.43,0,0,1-1.07-.38A2.53,2.53,0,0,1,44,44.47h-.14a6.05,6.05,0,0,0,1.57,2m3.78-8.37c1-.41,2.35.12,3.39.71a6.93,6.93,0,0,1,2.57,2.66,6,6,0,0,0-5.9-5.63,1.32,1.32,0,0,0-.06,2.26M49,41.94a2.33,2.33,0,0,1-.62-3.15,2.1,2.1,0,0,1,.44-.49,1.67,1.67,0,0,1-.16-2.43,6,6,0,0,0-2.79,1,14,14,0,0,0-.58,3.33c0,1.59.68,2.88,2.06,3.06A1.71,1.71,0,0,0,49,41.94m6.12.46a6.23,6.23,0,0,0-2.73-3.27c-1.44-.81-3-1.25-3.71-.15a2,2,0,0,0,.5,2.65,1.77,1.77,0,0,1,2.78.73,2.16,2.16,0,0,1,.17.7,1.91,1.91,0,0,1,2.52,1.17,5.94,5.94,0,0,0,.47-1.83"/><path class="cls-2" d="M56.74,30.94H54.06V25h2.7c1.19,0,1.9.6,1.9,1.6a1.33,1.33,0,0,1-.55,1.11A1.41,1.41,0,0,1,58.85,29a1.86,1.86,0,0,1-2.11,1.93M55.32,29.7h1.46c.49,0,.75-.23.75-.68s-.24-.67-.75-.67H55.32Zm0-2.51h1.45c.4,0,.58-.15.58-.47s-.08-.49-.64-.49H55.32Z"/><path class="cls-2" d="M48.78,31C47.22,31,46.2,29.84,46.2,28s1.08-3.05,2.62-3.05A2.27,2.27,0,0,1,51,26.25l0,.07-1.19.55,0-.06a1,1,0,0,0-1-.59c-.8,0-1.29.68-1.29,1.76s.52,1.77,1.29,1.77a1.13,1.13,0,0,0,1.07-.7l0-.06,1.09.64,0,.06A2.26,2.26,0,0,1,48.78,31"/><polygon class="cls-2" points="40.88 30.94 39.6 30.94 39.6 25.02 43.85 25.02 43.85 26.29 40.88 26.29 40.88 27.24 42.62 27.24 42.62 28.5 40.88 28.5 40.88 30.94"/><path class="cls-6" d="M28.12,23.81c2.18-5,3-11.45-.67-17.74a16.6,16.6,0,0,0,2.85.26C34,6.33,37,6,40.29,4.11a16.84,16.84,0,0,0,9,2.6,16.82,16.82,0,0,0,9-2.6c3.31,1.88,6.26,2.22,10,2.22a15.74,15.74,0,0,0,2.85-.27c-3.66,6.3-2.85,12.74-.68,17.75Z"/><path class="cls-7" d="M49.05,6.71v17.1h2.26V6.58a17.43,17.43,0,0,1-2.07.13h-.19"/><path class="cls-8" d="M51.31,23.81h2.26V6.13a16.43,16.43,0,0,1-2.26.45Z"/><path class="cls-7" d="M53.57,23.81h2.26V5.34a15.9,15.9,0,0,1-2.26.79Z"/><path class="cls-8" d="M55.83,23.81h2.26V4.18a17.85,17.85,0,0,1-2.26,1.16Z"/><path class="cls-7" d="M58.09,4.18V23.81h2.26V5.14a16.12,16.12,0,0,1-2.15-1,.67.67,0,0,1-.11.07"/><path class="cls-8" d="M60.35,23.81h2.26v-18a15.84,15.84,0,0,1-2.26-.69Z"/><path class="cls-7" d="M62.61,23.81h2.26V6.19a16.64,16.64,0,0,1-2.26-.36Z"/><path class="cls-8" d="M64.86,23.78h2.26V6.29c-.78,0-1.53,0-2.26-.12Z"/><path class="cls-7" d="M70.88,6.08a14.87,14.87,0,0,1-2.69.25H67.12V23.81h3.24c-2.13-4.93-2.94-11.24.52-17.45Z"/><path class="cls-8" d="M36.18,18v5.8h6.29V18h6.69V11.69H42.47V5.26a19.69,19.69,0,0,1-2.18-1.15,15.72,15.72,0,0,1-4.11,1.65v5.93H29.61A18.49,18.49,0,0,1,29.78,18Z"/><path class="cls-2" d="M71.42,5.79,71,5.87a15.2,15.2,0,0,1-2.82.27c-3.82,0-6.66-.36-9.89-2.19l-.1-.06L58.1,4a16.58,16.58,0,0,1-8.86,2.57A16.6,16.6,0,0,1,40.39,4l-.1-.06L40.2,4C37,5.78,34.12,6.14,30.3,6.14a15.47,15.47,0,0,1-2.81-.26l-.4-.07.2.36c3.92,6.74,2.52,13.27.66,17.56l-.11.27H70.66l-.12-.27c-1.86-4.29-3.26-10.82.67-17.58Zm-43.6.53a15.33,15.33,0,0,0,2.48.2c3.84,0,6.72-.36,10-2.19A17,17,0,0,0,49,6.9V23.62H28.41a19.32,19.32,0,0,0-.59-17.3m42.26,17.3H49.35V6.9a17.18,17.18,0,0,0,8.86-2.57c3.26,1.83,6.14,2.19,10,2.19a15.13,15.13,0,0,0,2.49-.21,19.31,19.31,0,0,0-.6,17.31"/><path class="cls-6" d="M0,84.62H3.55c2.15,0,3.25,1.06,3.25,3a3.25,3.25,0,0,1-2.11,3H1.92v3.51H0ZM4.06,89a1.4,1.4,0,0,0,.82-1.38,1.16,1.16,0,0,0-1.31-1.22H1.92V89Z"/><path class="cls-6" d="M7.09,93.14l2.36-8.52h3.1l2.36,8.52v1.07H13.19l-.53-2a8,8,0,0,1-1.7.17,9.18,9.18,0,0,1-1.67-.15l-.52,2H7.09ZM9.72,90.6a7.15,7.15,0,0,0,1.24.11,6.77,6.77,0,0,0,1.28-.12l-.56-2.13c-.23-.89-.51-2.13-.51-2.13h-.38s-.28,1.24-.52,2.13Z"/><path class="cls-6" d="M19.2,86.36v7.85H17.28V86.36H15V84.62h6.57l-.28,1.74Z"/><path class="cls-6" d="M22.84,84.62h3.62c2.09,0,3.23,1,3.23,2.85a3.1,3.1,0,0,1-2,2.88,15.51,15.51,0,0,0,1.94,2.7v1.16H28.18a21.27,21.27,0,0,1-2.43-3.67h-1v3.67H22.84Zm4,4.19a1.26,1.26,0,0,0,.89-1.26,1.11,1.11,0,0,0-1.24-1.19H24.75v2.45Z"/><path class="cls-6" d="M31.05,88.33c0-2.5,1.29-3.85,3.72-3.85s3.72,1.35,3.72,3.85V90.5c0,2.48-1.3,3.85-3.72,3.85S31.05,93,31.05,90.5Zm3.72,4.31c1.27,0,1.8-.59,1.8-2V88.19c0-1.41-.53-2-1.8-2s-1.81.59-1.81,2v2.45C33,92.05,33.5,92.64,34.77,92.64Z"/><path class="cls-6" d="M40,88.2c0-2.54,1.26-3.68,3.56-3.68a3.81,3.81,0,0,1,2.87,1.07v1.5H44.91s-.11-.86-1.3-.86S42,86.85,42,88.16v2.51c0,1.31.4,1.93,1.65,1.93s1.3-.86,1.3-.86h1.56v1.5a3.81,3.81,0,0,1-2.87,1.07c-2.3,0-3.56-1.14-3.56-3.68Z"/><path class="cls-6" d="M48.65,92.7V86.13l-1-.17V84.62h3.83V86l-1,.17V92.7l1,.17v1.34H47.69V92.87Z"/><path class="cls-6" d="M53.22,84.62H55l2.74,4.5c.22.37.76,1.45.76,1.45h0s-.08-1-.08-2v-4H60.3v9.59H58.43v-.78L56,89.5l-.94-1.65h0s0,.87,0,1.82v4.54H53.22Z"/><path class="cls-6" d="M61.89,93.14l2.36-8.52h3.1l2.36,8.52v1.07H68l-.52-2a8.1,8.1,0,0,1-1.7.17,9.18,9.18,0,0,1-1.67-.15l-.52,2H61.89Zm2.63-2.54a7.06,7.06,0,0,0,1.24.11A6.85,6.85,0,0,0,67,90.59l-.56-2.13c-.23-.89-.51-2.13-.51-2.13h-.38s-.28,1.24-.52,2.13Z"/><path class="cls-6" d="M71.3,84.62h3.43c2.3,0,3.55,1.12,3.55,3.68v2.23c0,2.57-1.25,3.68-3.55,3.68H71.3Zm1.92,1.72v6.15h1.39c1.22,0,1.75-.45,1.75-1.79V88.13c0-1.34-.53-1.79-1.75-1.79Z"/><path class="cls-6" d="M79.83,88.33c0-2.5,1.3-3.85,3.73-3.85s3.72,1.35,3.72,3.85V90.5c0,2.48-1.3,3.85-3.72,3.85S79.83,93,79.83,90.5Zm3.73,4.31c1.27,0,1.8-.59,1.8-2V88.19c0-1.41-.53-2-1.8-2s-1.81.59-1.81,2v2.45C81.75,92.05,82.29,92.64,83.56,92.64Z"/><path class="cls-6" d="M89.12,84.62h3.62c2.09,0,3.23,1,3.23,2.85a3.1,3.1,0,0,1-2,2.88,15.51,15.51,0,0,0,1.94,2.7v1.16H94.46A21.27,21.27,0,0,1,92,90.54H91v3.67H89.12Zm4,4.19a1.26,1.26,0,0,0,.89-1.26,1.11,1.11,0,0,0-1.24-1.19H91v2.45Z"/><path class="cls-6" d="M10.28,102.44c0-2.5,1.3-3.85,3.72-3.85s3.73,1.35,3.73,3.85v2.17c0,2.48-1.3,3.85-3.73,3.85s-3.72-1.35-3.72-3.85ZM14,106.75c1.27,0,1.81-.59,1.81-2V102.3c0-1.41-.54-2-1.81-2s-1.8.59-1.8,2v2.45C12.2,106.16,12.74,106.75,14,106.75Z"/><path class="cls-6" d="M19.56,98.73H25.5l-.28,1.73H21.48v2.2h3.37v1.74H21.48v3.92H19.56Z"/><path class="cls-6" d="M27.39,106.81v-6.57l-1-.17V98.73h3.84v1.34l-1,.17v6.57l1,.17v1.34H26.43V107Z"/><path class="cls-6" d="M31.5,102.31c0-2.54,1.25-3.68,3.55-3.68a3.81,3.81,0,0,1,2.87,1.07v1.5H36.36s-.11-.86-1.3-.86-1.65.62-1.65,1.93v2.51c0,1.31.4,1.93,1.65,1.93s1.3-.86,1.3-.86h1.56v1.5a3.81,3.81,0,0,1-2.87,1.07c-2.3,0-3.55-1.15-3.55-3.68Z"/><path class="cls-6" d="M40.1,106.81v-6.57l-1-.17V98.73H43v1.34l-1,.17v6.57l1,.17v1.34H39.14V107Z"/><path class="cls-6" d="M44.15,107.25l2.35-8.52h3.11L52,107.25v1.07H50.24l-.52-2a8.93,8.93,0,0,1-1.71.17,10,10,0,0,1-1.66-.15l-.52,2H44.15Zm2.62-2.54a7.24,7.24,0,0,0,1.24.11,6,6,0,0,0,1.28-.13l-.56-2.12c-.22-.89-.51-2.13-.51-2.13h-.38s-.28,1.24-.52,2.13Z"/><path class="cls-6" d="M53.56,98.73h1.91v7.85h3.88l-.28,1.74H53.56Z"/><path class="cls-6" d="M63.42,98.73h3.42c2.3,0,3.56,1.11,3.56,3.68v2.23c0,2.56-1.26,3.68-3.56,3.68H63.42Zm1.91,1.72v6.15h1.4c1.21,0,1.75-.45,1.75-1.79v-2.57c0-1.34-.54-1.79-1.75-1.79Z"/><path class="cls-6" d="M72.23,98.73h6.08L78,100.46H74.15v2.2h3.51v1.74H74.15v2.18h4v1.74H72.23Z"/><path class="cls-6" d="M80,98.73h1.92v7.85H85.8l-.28,1.74H80Z"/><path class="cls-6" d="M2.43,112.84H8.36l-.28,1.73H4.34v2.2H7.71v1.74H4.34v3.92H2.43Z"/><path class="cls-6" d="M9.28,116.42c0-2.54,1.26-3.68,3.55-3.68a3.82,3.82,0,0,1,2.88,1.07v1.5H14.15s-.12-.86-1.3-.86-1.65.62-1.65,1.93v2.51c0,1.31.39,1.93,1.65,1.93s1.3-.86,1.3-.86h1.56v1.49a3.8,3.8,0,0,1-2.88,1.08c-2.29,0-3.55-1.15-3.55-3.68Z"/><path class="cls-6" d="M20.17,112.84h3.47c2.3,0,3.1,1,3.1,2.62a2.43,2.43,0,0,1-1.11,2.12v0a2.46,2.46,0,0,1,1.25,2.08c0,1.72-.94,2.75-3.12,2.75H20.17ZM22,114.49v2.27h2.09a1.27,1.27,0,0,0,.74-1.17,1,1,0,0,0-1.15-1.1Zm0,3.89v2.4h1.79a1.11,1.11,0,0,0,1.19-1.2,1.33,1.33,0,0,0-.85-1.2Z"/><path class="cls-6" d="M28.05,121.35l2.36-8.51h3.1l2.36,8.51v1.08H34.15l-.53-2a8.75,8.75,0,0,1-1.7.17,9.18,9.18,0,0,1-1.67-.16l-.52,2H28.05Zm2.63-2.53a7.15,7.15,0,0,0,1.24.11,6,6,0,0,0,1.28-.13l-.56-2.13c-.23-.88-.51-2.13-.51-2.13h-.38s-.28,1.25-.52,2.13Z"/><path class="cls-6" d="M37.46,112.84h3.63c2.08,0,3.22,1,3.22,2.85a3.09,3.09,0,0,1-2,2.87,16.13,16.13,0,0,0,1.93,2.71v1.16H42.81a21.68,21.68,0,0,1-2.43-3.67h-1v3.67H37.46Zm4,4.19a1.26,1.26,0,0,0,.89-1.26,1.12,1.12,0,0,0-1.24-1.2H39.38V117Z"/><path class="cls-6" d="M45.67,116.42c0-2.54,1.26-3.68,3.56-3.68a3.81,3.81,0,0,1,2.87,1.07v1.5H50.54s-.12-.86-1.3-.86-1.65.62-1.65,1.93v2.51c0,1.31.4,1.93,1.65,1.93s1.3-.86,1.3-.86H52.1v1.49a3.79,3.79,0,0,1-2.87,1.08c-2.3,0-3.56-1.15-3.56-3.68Z"/><path class="cls-6" d="M53.74,112.84h6.08l-.29,1.73H55.66v2.2h3.51v1.74H55.66v2.18h4v1.74H53.74Z"/><path class="cls-6" d="M61.51,112.84h1.92v7.85h3.88L67,122.43H61.51Z"/><path class="cls-6" d="M67.82,116.55c0-2.5,1.29-3.85,3.72-3.85s3.72,1.35,3.72,3.85v2.17c0,2.48-1.3,3.85-3.72,3.85s-3.72-1.36-3.72-3.85Zm3.72,4.31c1.27,0,1.8-.59,1.8-2v-2.45c0-1.41-.53-2-1.8-2s-1.81.6-1.81,2v2.45C69.73,120.27,70.27,120.86,71.54,120.86Z"/><path class="cls-6" d="M77.1,112.84h1.76l2.74,4.5c.22.36.76,1.45.76,1.45h0s-.07-1-.07-2v-4h1.86v9.59H82.32v-.78l-2.42-3.93L79,116.07h0s0,.87,0,1.82v4.54H77.1Z"/><path class="cls-6" d="M85.77,121.35l2.36-8.51h3.1l2.35,8.51v1.08H91.86l-.52-2a8.83,8.83,0,0,1-1.7.17,9.18,9.18,0,0,1-1.67-.16l-.52,2H85.77Zm2.63-2.53a7.06,7.06,0,0,0,1.24.11,6.11,6.11,0,0,0,1.28-.13l-.56-2.13c-.23-.88-.51-2.13-.51-2.13h-.38s-.28,1.25-.52,2.13Z"/></g></g></svg>