<svg xmlns="http://www.w3.org/2000/svg" viewBox="0 0 205.17928 112.5225"><defs><style>.cls-1{fill:none;stroke:#231f20;stroke-miterlimit:10;}.cls-2{fill:#e8b909;}.cls-3{fill:#fff;}.cls-4{fill:#fd0;}.cls-5{fill:#0054a4;}.cls-6{fill:#a30046;}.cls-7{fill:#e31937;}.cls-8{fill:#231f20;}.cls-9{fill:#00be40;}</style></defs><g id="Layer_2" data-name="Layer 2"><g id="ARTE"><g id="ES_joint-logo-horizontal-black"><line class="cls-1" x1="103.0872" x2="103.0872" y2="71.7104"/><path d="M9.29519,86.97685h3.82568c2.30762,0,3.49219,1.13867,3.49219,3.26416a3.48907,3.48907,0,0,1-2.26221,3.27929H11.35964v3.78052H9.29519Zm4.37256,4.676a1.51406,1.51406,0,0,0,.88037-1.48779,1.24827,1.24827,0,0,0-1.41211-1.3208H11.35964v2.80859Z"/><path d="M17.44656,96.147l2.53564-9.17016H23.322L25.85769,96.147v1.15381H24.00564l-.562-2.17114a9.29646,9.29646,0,0,1-1.83692.18213,9.93391,9.93391,0,0,1-1.7915-.167l-.562,2.156H17.44656Zm2.82421-2.73291a7.6641,7.6641,0,0,0,1.33594.12134,6.98565,6.98565,0,0,0,1.38135-.13648l-.60693-2.29272c-.24317-.9563-.54688-2.29248-.54688-2.29248h-.40967s-.30371,1.33618-.562,2.29248Z"/><path d="M31.12429,88.84428v8.45654H29.05984V88.84428H26.60036V86.97685h7.07471l-.30371,1.86743Z"/><path d="M34.88845,86.97685h3.90186c2.24707,0,3.47656,1.06274,3.47656,3.06665a3.33265,3.33265,0,0,1-2.12549,3.09741,16.76752,16.76752,0,0,0,2.08008,2.915v1.24487h-1.5791A22.92576,22.92576,0,0,1,38.031,93.35331H36.9529v3.94751H34.88845Zm4.35693,4.509a1.35051,1.35051,0,0,0,.95655-1.35132A1.20222,1.20222,0,0,0,38.866,88.84428H36.9529v2.6416Z"/><path d="M43.57107,90.96977c0-2.68726,1.39648-4.14478,4.00781-4.14478,2.59619,0,4.0083,1.45752,4.0083,4.14478V93.3079c0,2.67212-1.39648,4.14478-4.0083,4.14478-2.59619,0-4.00781-1.45752-4.00781-4.14478Zm4.00781,4.64575c1.3667,0,1.94336-.6377,1.94336-2.15576V90.81791c0-1.51831-.57666-2.156-1.94336-2.156-1.36621,0-1.94336.6377-1.94336,2.156v2.64185C45.63552,94.97782,46.21267,95.61552,47.57888,95.61552Z"/><path d="M53.10378,90.83305c0-2.73291,1.35108-3.96265,3.82569-3.96265a4.11234,4.11234,0,0,1,3.09716,1.15381v1.60937h-1.685s-.12159-.926-1.397-.926c-1.35107,0-1.77636.668-1.77636,2.08008V93.49c0,1.41186.42529,2.08008,1.77636,2.08008,1.27539,0,1.397-.92627,1.397-.92627h1.685v1.60937A4.11234,4.11234,0,0,1,56.92947,97.407c-2.47461,0-3.82569-1.22974-3.82569-3.96265Z"/><path d="M62.21169,95.67631v-7.075L61.17947,88.419V86.97685h4.12939V88.419l-1.03223.18238v7.075l1.03223.18213v1.44238H61.17947V95.85844Z"/><path d="M66.97829,86.97685h1.89747l2.94531,4.843c.24316.39478.82031,1.564.82031,1.564h.03027s-.07617-1.1084-.07617-2.12573V86.97685h2.0044v10.324h-2.0044v-.835l-2.59619-4.23609c-.334-.592-1.01709-1.77636-1.01709-1.77636h-.04541s.04541.9414.04541,1.95874v4.88867H66.97829Z"/><path d="M76.16189,96.147l2.53564-9.17016h3.33985L84.573,96.147v1.15381H82.721l-.562-2.17114a9.29638,9.29638,0,0,1-1.83692.18213,9.93391,9.93391,0,0,1-1.7915-.167l-.562,2.156H76.16189Zm2.82422-2.73291a7.66389,7.66389,0,0,0,1.33593.12134,6.98922,6.98922,0,0,0,1.38135-.13648l-.60693-2.29272c-.24317-.9563-.54688-2.29248-.54688-2.29248h-.40966s-.30372,1.33618-.562,2.29248Z"/><path d="M86.13552,86.97685h3.689c2.47509,0,3.82617,1.19921,3.82617,3.9624v2.39892c0,2.76319-1.35108,3.96265-3.82617,3.96265h-3.689ZM88.2,88.8289v6.61962h1.50342c1.30567,0,1.88233-.48584,1.88233-1.92822V90.75712c0-1.44238-.57666-1.92822-1.88233-1.92822Z"/><path d="M95.16726,90.96977c0-2.68726,1.39648-4.14478,4.00781-4.14478,2.59619,0,4.0083,1.45752,4.0083,4.14478V93.3079c0,2.67212-1.39648,4.14478-4.0083,4.14478-2.59619,0-4.00781-1.45752-4.00781-4.14478Zm4.00781,4.64575c1.3667,0,1.94336-.6377,1.94336-2.15576V90.81791c0-1.51831-.57666-2.156-1.94336-2.156-1.36621,0-1.94336.6377-1.94336,2.156v2.64185C97.23171,94.97782,97.80886,95.61552,99.17507,95.61552Z"/><path d="M105.00368,86.97685h3.90186c2.24707,0,3.47656,1.06274,3.47656,3.06665a3.33265,3.33265,0,0,1-2.12549,3.09741,16.76752,16.76752,0,0,0,2.08008,2.915v1.24487h-1.5791a22.92576,22.92576,0,0,1-2.61133-3.94751h-1.07812v3.94751h-2.06446Zm4.35694,4.509a1.3505,1.3505,0,0,0,.95654-1.35132,1.20222,1.20222,0,0,0-1.33594-1.29028h-1.91308v2.6416Z"/><path d="M116.72243,90.96977c0-2.68726,1.39649-4.14478,4.00782-4.14478,2.59619,0,4.0083,1.45752,4.0083,4.14478V93.3079c0,2.67212-1.39649,4.14478-4.0083,4.14478-2.59619,0-4.00782-1.45752-4.00782-4.14478Zm4.00782,4.64575c1.3667,0,1.94336-.6377,1.94336-2.15576V90.81791c0-1.51831-.57666-2.156-1.94336-2.156-1.36621,0-1.94336.6377-1.94336,2.156v2.64185C118.78689,94.97782,119.364,95.61552,120.73025,95.61552Z"/><path d="M126.55886,86.97685h6.3916l-.30371,1.86743h-4.02344v2.3684h3.62891v1.86744h-3.62891v4.2207h-2.06445Z"/><path d="M134.83181,95.67631v-7.075l-1.03223-.18238V86.97685h4.1294V88.419l-1.03223.18238v7.075l1.03223.18213v1.44238h-4.1294V95.85844Z"/><path d="M139.2947,90.83305c0-2.73291,1.35107-3.96265,3.82568-3.96265a4.11235,4.11235,0,0,1,3.09717,1.15381v1.60937h-1.68506s-.12158-.926-1.397-.926c-1.35107,0-1.77637.668-1.77637,2.08008V93.49c0,1.41186.4253,2.08008,1.77637,2.08008,1.27539,0,1.397-.92627,1.397-.92627h1.68506v1.60937a4.11235,4.11235,0,0,1-3.09717,1.15381c-2.47461,0-3.82568-1.22974-3.82568-3.96265Z"/><path d="M148.40261,95.67631v-7.075l-1.03223-.18238V86.97685h4.1294V88.419l-1.03223.18238v7.075l1.03223.18213v1.44238h-4.1294V95.85844Z"/><path d="M152.6072,96.147l2.53565-9.17016h3.33984l2.53564,9.17016v1.15381h-1.852l-.562-2.17114a9.29628,9.29628,0,0,1-1.83691.18213,9.93394,9.93394,0,0,1-1.79151-.167l-.562,2.156H152.6072Zm2.82422-2.73291a7.66392,7.66392,0,0,0,1.33594.12134,6.9892,6.9892,0,0,0,1.38134-.13648l-.60693-2.29272c-.24316-.9563-.54687-2.29248-.54687-2.29248h-.40967s-.30371,1.33618-.562,2.29248Z"/><path d="M162.58083,86.97685h2.06446v8.45654h4.17529l-.30371,1.86743h-5.936Z"/><path d="M173.03982,86.97685h3.689c2.4751,0,3.82617,1.19921,3.82617,3.9624v2.39892c0,2.76319-1.35107,3.96265-3.82617,3.96265h-3.689Zm2.06445,1.85205v6.61962h1.50342c1.30566,0,1.88232-.48584,1.88232-1.92822V90.75712c0-1.44238-.57666-1.92822-1.88232-1.92822Z"/><path d="M182.37527,86.97685h6.54345l-.30371,1.86743h-4.17529v2.3684h3.78076v1.86744h-3.78076v2.35327h4.32715v1.86743h-6.3916Z"/><path d="M190.58718,86.97685h2.06445v8.45654h4.1753l-.30371,1.86743h-5.936Z"/><path d="M54.24978,102.04667h6.3916l-.30371,1.86743H56.31423v2.36841h3.62891v1.86743H56.31423v4.2207H54.24978Z"/><path d="M61.64236,105.90287c0-2.73291,1.35107-3.96265,3.82568-3.96265a4.11235,4.11235,0,0,1,3.09717,1.15381v1.60938H66.88015s-.12158-.926-1.397-.926c-1.35108,0-1.77637.668-1.77637,2.08008v2.70239c0,1.41187.42529,2.08008,1.77637,2.08008,1.27539,0,1.397-.92627,1.397-.92627h1.68506V111.323a4.11235,4.11235,0,0,1-3.09717,1.15381c-2.47461,0-3.82568-1.22974-3.82568-3.96265Z"/><path d="M73.20974,102.04667H76.9446c2.47461,0,3.33985,1.12329,3.33985,2.82373a2.6038,2.6038,0,0,1-1.19922,2.27734v.03052A2.64588,2.64588,0,0,1,80.4363,109.41c0,1.8523-1.01709,2.96069-3.35547,2.96069H73.20974Zm2.00391,1.77612v2.44458h2.24707a1.3658,1.3658,0,0,0,.80468-1.26025,1.10933,1.10933,0,0,0-1.24511-1.18433Zm0,4.19043v2.58106h1.92822a1.1845,1.1845,0,0,0,1.27539-1.29053,1.434,1.434,0,0,0-.91113-1.29053Z"/><path d="M81.54324,111.21684l2.53564-9.17017h3.33984l2.53565,9.17017v1.1538h-1.852l-.562-2.17114a9.29646,9.29646,0,0,1-1.83692.18213,9.93482,9.93482,0,0,1-1.7915-.167l-.562,2.156H81.54324Zm2.82421-2.73291a7.66507,7.66507,0,0,0,1.33594.12133,6.9864,6.9864,0,0,0,1.38135-.13647l-.60693-2.29273c-.24317-.95629-.54688-2.29248-.54688-2.29248h-.40967s-.30371,1.33619-.562,2.29248Z"/><path d="M91.51687,102.04667h3.90185c2.24707,0,3.47657,1.06274,3.47657,3.06665a3.33265,3.33265,0,0,1-2.12549,3.09741,16.76712,16.76712,0,0,0,2.08008,2.915v1.24487H97.27077a22.9257,22.9257,0,0,1-2.61132-3.94751H93.58132v3.94751H91.51687Zm4.35693,4.509a1.35051,1.35051,0,0,0,.95655-1.35132,1.20222,1.20222,0,0,0-1.33594-1.29028H93.58132v2.6416Z"/><path d="M100.19949,105.90287c0-2.73291,1.35107-3.96265,3.82568-3.96265a4.11235,4.11235,0,0,1,3.09717,1.15381v1.60938h-1.68506s-.12158-.926-1.397-.926c-1.35108,0-1.77637.668-1.77637,2.08008v2.70239c0,1.41187.42529,2.08008,1.77637,2.08008,1.27539,0,1.397-.92627,1.397-.92627h1.68506V111.323a4.11235,4.11235,0,0,1-3.09717,1.15381c-2.47461,0-3.82568-1.22974-3.82568-3.96265Z"/><path d="M108.73074,102.04667h6.54345l-.30371,1.86743h-4.17529v2.36841H114.576v1.86743h-3.78076v2.35327h4.32715v1.86743h-6.3916Z"/><path d="M116.94265,102.04667h2.06445v8.45654h4.1753l-.30372,1.86743h-5.936Z"/><path d="M124.06179,106.03959c0-2.68726,1.39648-4.14478,4.00781-4.14478,2.59619,0,4.0083,1.45752,4.0083,4.14478v2.33813c0,2.67212-1.39648,4.14478-4.0083,4.14478-2.59619,0-4.00781-1.45752-4.00781-4.14478Zm4.00781,4.64575c1.3667,0,1.94336-.63769,1.94336-2.15576v-2.64185c0-1.51831-.57666-2.156-1.94336-2.156-1.36621,0-1.94336.63769-1.94336,2.156v2.64185C126.12624,110.04765,126.70339,110.68534,128.0696,110.68534Z"/><path d="M133.89822,102.04667h1.89746l2.94531,4.843c.24316.39477.82031,1.564.82031,1.564h.03028s-.07618-1.1084-.07618-2.12573v-4.28125h2.0044v10.324h-2.0044v-.835l-2.59619-4.23608c-.334-.592-1.01709-1.77637-1.01709-1.77637h-.04541s.04541.94141.04541,1.95874v4.88867h-2.0039Z"/><path d="M143.08181,111.21684l2.53564-9.17017h3.33985l2.53564,9.17017v1.1538h-1.852l-.562-2.17114a9.29636,9.29636,0,0,1-1.83691.18213,9.93484,9.93484,0,0,1-1.79151-.167l-.562,2.156h-1.80664Zm2.82422-2.73291a7.66489,7.66489,0,0,0,1.33594.12133,6.98994,6.98994,0,0,0,1.38134-.13647l-.60693-2.29273c-.24316-.95629-.54687-2.29248-.54687-2.29248h-.40967s-.30371,1.33619-.562,2.29248Z"/><path class="cls-2" d="M180.64879,1.21078l.358.23732c3.92543,2.59863,7.08539,3.07415,11.89474,3.07415a16.365,16.365,0,0,0,5.25711-.92l.45632-.15788,2.28035,3.19512-.23457.31339c-8.47149,11.25577-1.86557,23.408,2.81,28.25887l.43249.449-.441.44043c-.61327.61177-1.675,1.71626-2.46357,2.544l-.267.281.01708.3867.00432.13436c.00425.0984.00731.20036.02745.37751l.00732.07024c.3959,7.50756-1.54974,13.67424-5.78242,18.32722-4.49778,4.94434-11.59236,7.92109-19.97591,8.38166l-.32314.01833-.23946.21869c-2.135,1.94313-4.30167,3.55705-4.32488,3.57475l-.37788.28161-.37782-.28036c-.08976-.06718-2.22961-1.65908-4.33683-3.576l-.23913-.21869-.32347-.01833c-8.38379-.46057-15.47838-3.43732-19.97647-8.38166-4.23362-4.65479-6.17894-10.82147-5.78123-18.329l.00551-.07087c.01951-.16614.0232-.25778.02745-.36224l.00063-.02809.00031-.00307.00394-.116.01683-.38733-.26666-.28036c-.74369-.78128-1.83505-1.91748-2.46332-2.544l-.44075-.44043.43224-.449c4.67618-4.85089,11.28079-17.0031,2.81024-28.25887l-.23576-.31339,2.28185-3.19512.45576.15788a16.34529,16.34529,0,0,0,5.257.92c4.809,0,7.96907-.47552,11.89449-3.07415l.35856-.23732.35279.24433a17.83465,17.83465,0,0,0,10.538,3.52284,17.8349,17.8349,0,0,0,10.53742-3.52284l.353-.24433"/><path class="cls-3" d="M143.96365,29.00482c2.65386-6.08574,3.64225-13.90174-.82131-21.54122a19.90889,19.90889,0,0,0,3.4721.3207c4.56809,0,8.16486-.41541,12.20451-2.69851a20.71209,20.71209,0,0,0,10.93112,3.15452,20.72436,20.72436,0,0,0,10.94638-3.15452c4.04027,2.2831,7.637,2.69851,12.20507,2.69851a18.43276,18.43276,0,0,0,3.48318-.33966c-4.474,7.65781-3.48681,15.47444-.83264,21.56018H143.96365"/><path class="cls-4" d="M195.55206,29.00482c-2.65417-6.08574-3.64137-13.90237.83264-21.56018a18.43276,18.43276,0,0,1-3.48318.33966c-4.568,0-8.1648-.41541-12.20507-2.69851a20.72436,20.72436,0,0,1-10.94638,3.15452c-.04035,0-.07976-.00212-.12035-.00244v20.767Z"/><path class="cls-5" d="M189.871,58.41579c5.08358-3.71588,8.086-9.64917,7.645-18.30513-.05135-.49236-.088-.52107-.1271-1.01648H189.871Z"/><path class="cls-6" d="M181.82534,62.14085a24.26063,24.26063,0,0,0,8.04689-3.72625V39.09418h-8.04689Z"/><path class="cls-6" d="M149.64342,58.4146a24.2693,24.2693,0,0,0,8.04789,3.72625V39.09418h-8.04789Z"/><path class="cls-5" d="M142.00031,40.11066c-.44105,8.656,2.56134,14.58988,7.6453,18.30575V39.09418h-7.51888C142.08764,39.58959,142.05161,39.6183,142.00031,40.11066Z"/><path class="cls-6" d="M169.77784,43.36658a7.53654,7.53654,0,0,1,4.00424,1.15209V39.09418h-8.04751v5.44889A7.53636,7.53636,0,0,1,169.77784,43.36658Z"/><path class="cls-6" d="M169.77784,58.52944a7.531,7.531,0,0,1-4.04327-1.17655v6.00117c.14231.00732.2828.01708.42542.0244,2.67318.01345,5.09678.02815,7.1963,0,.14293-.00732.28348-.01708.42579-.0244V57.37735A7.53707,7.53707,0,0,1,169.77784,58.52944Z"/><path class="cls-5" d="M173.78027,39.09418v5.42324a7.56667,7.56667,0,0,1,0,12.86056v5.97608a38.46746,38.46746,0,0,0,8.04751-1.21321V39.09418Z"/><path class="cls-5" d="M162.19735,50.94857a7.571,7.571,0,0,1,3.53935-6.40732V39.09418h-8.04783V62.14085a38.46621,38.46621,0,0,0,8.04783,1.21321V57.35414A7.56879,7.56879,0,0,1,162.19735,50.94857Z"/><path class="cls-7" d="M145.77636,14.28633a22.46917,22.46917,0,0,1,.21105,7.67733H153.804v7.04116h7.67733V21.96366h8.18012V14.28633h-8.18012v-7.809A23.64591,23.64591,0,0,1,158.819,5.08579,19.42509,19.42509,0,0,1,153.804,7.09247v7.19386Z"/><path class="cls-7" d="M186.18388,29.00482V7.2a18.74824,18.74824,0,0,1-2.7587-.82438v22.6292Z"/><path class="cls-7" d="M175.148,29.00482V7.51214a19.83715,19.83715,0,0,1-2.75869.55559V29.00482Z"/><path class="cls-7" d="M191.70183,29.00482V7.77148c-.95362-.01808-1.86988-.06236-2.7587-.14662v21.38Z"/><path class="cls-7" d="M180.66593,29.00482V5.10318a23.48262,23.48262,0,0,1-2.7587,1.42976V29.00482Z"/><path class="cls-8" d="M205.17928,35.65622l-1.05251-1.09285c-4.49046-4.65873-10.84036-16.31377-2.73912-27.08088l.63591-.846-3.06288-4.2916-1.0983.37932a15.41557,15.41557,0,0,1-4.96086.87017c-4.62726,0-7.65962-.45145-11.392-2.923L180.63659.0929l-.8601.59738a16.96922,16.96922,0,0,1-10.01817,3.36007A16.9695,16.9695,0,0,1,159.73953.69028L158.87975.0929l-.87324.57849c-3.73207,2.47151-6.76443,2.923-11.39207,2.923a15.40919,15.40919,0,0,1-4.96047-.87017l-1.09837-.37932-3.06408,4.291.63623.84665c8.10187,10.76711,1.75166,22.42215-2.73793,27.08088L134.337,35.65622l1.0739,1.07147c.577.576,1.60078,1.63831,2.44681,2.52893-.00244.05011-.00332.09408-.00519.13806-.00332.09226-.0055.16983-.02321.31889l-.00857.10021c-.41385,7.76528,1.61085,14.15984,6.01612,19.00334,4.67005,5.13438,11.969,8.20459,20.60018,8.67861,2.13836,1.94745,4.30937,3.56193,4.40683,3.63462l.9224.6842.92052-.68664c.09652-.07206,2.256-1.686,4.39214-3.63218,8.63156-.474,15.93013-3.54423,20.59961-8.67861,4.40614-4.8435,6.43-11.23681,6.017-19.00334l-.00914-.10021a2.99748,2.99748,0,0,1-.02263-.32071c-.00183-.04216-.00364-.08613-.00552-.13624.84672-.89062,1.87114-1.95351,2.44719-2.52893Zm-5.11293,3.03418c.07882.78.033.7495.08677,1.20582.92177,17.30824-11.13605,25.481-25.70823,26.08455-2.22725,2.08062-4.68081,3.90953-4.68081,3.90953s-2.46544-1.82891-4.69294-3.90953c-14.57219-.60351-26.63032-8.77631-25.70854-26.08455.054-.45632.00825-.42579.08732-1.20582-.83533-.88331-2.21805-2.32652-2.94829-3.05494C141.72846,30.2119,147.827,17.80366,139.362,6.554l1.78769-2.3708a16.92792,16.92792,0,0,0,5.46478.95542c4.85427,0,8.16911-.4814,12.24479-3.18017A18.59043,18.59043,0,0,0,169.75832,5.595a18.59114,18.59114,0,0,0,10.899-3.63649c4.075,2.69877,7.389,3.18017,12.24416,3.18017a16.93326,16.93326,0,0,0,5.46478-.95542l1.78745,2.3708c-8.46537,11.24964-2.3665,23.65788,2.86127,29.08144C202.28441,36.36388,200.90143,37.80709,200.06635,38.6904Z"/><path class="cls-8" d="M141.89616,39.07585c-.02076.26447-.04122.39095-.06292.53263-.01927.121-.03941.25234-.06412.49054-.33935,6.656,1.32342,12.04262,4.941,16.01139,4.14961,4.551,10.87213,7.14344,19.449,7.499l.32621.00119c1.42727.00857,2.78122.0147,4.0506.0147.99514,0,1.93832-.00369,2.82956-.01651,8.56858-.35493,15.29054-2.94742,19.44015-7.49837,3.61816-3.9694,5.28094-9.35542,4.94009-16.023-.02321-.22663-.044-.358-.06293-.479-.022-.14168-.04216-.26816-.06293-.53263l-.01714-.21381H141.91261Zm.33441,1.05864c.02265-.21506.04185-.33966.05992-.45513.01646-.10628.032-.20524.04761-.35305h54.83951c.01583.14906.03172.24677.04761.3543.01832.11422.0379.23882.05987.44224.33233,6.52711-1.28953,11.80067-4.82093,15.6748-4.06529,4.45812-10.67548,6.99932-19.1115,7.34867-2.01219.02753-4.32251.01589-6.8649.00251l-.31795-.00251c-8.44247-.34935-15.05327-2.89055-19.11763-7.348C143.52072,51.92477,141.89892,46.65,142.23057,40.13449Z"/><path class="cls-8" d="M143.75166,28.91168l-.14143.32371h52.295l-.14113-.32371c-2.27122-5.2095-3.97428-13.1431.821-21.35038l.25654-.4398-.5003.09652a18.2679,18.2679,0,0,1-3.43977.33415c-4.66761,0-8.14159-.4368-12.09022-2.6683l-.11854-.06687-.116.07056a20.43967,20.43967,0,0,1-10.826,3.12062,20.4197,20.4197,0,0,1-10.812-3.12062l-.11578-.07056-.11785.06687c-3.94863,2.2315-7.42355,2.6683-12.0906,2.6683a19.75555,19.75555,0,0,1-3.43151-.31614l-.49266-.08764.25259.43187C147.72806,15.77164,146.02376,23.70218,143.75166,28.91168Zm26.14041-20.4408a20.86914,20.86914,0,0,0,10.80926-3.11756c3.98773,2.22387,7.50143,2.66187,12.20019,2.66187a18.66652,18.66652,0,0,0,3.03724-.25534c-4.49233,8.0512-2.94191,15.79577-.73792,21.01315H169.89207Zm-26.30686-.6994a19.77279,19.77279,0,0,0,3.02923.24371c4.6982,0,8.21221-.438,12.2005-2.66187a20.86142,20.86142,0,0,0,10.61411,3.11512V28.773H144.31488C146.51949,23.555,148.07292,15.81074,143.58521,7.77148Z"/><polygon class="cls-8" points="163.159 32.014 163.159 30.486 157.982 30.486 157.982 37.659 159.539 37.659 159.539 34.7 161.654 34.7 161.654 33.184 159.539 33.184 159.539 32.014 163.159 32.014"/><path class="cls-8" d="M169.22044,31.922a1.26345,1.26345,0,0,1,1.21595.7208l.033.065,1.441-.664-.03359-.06994a2.74421,2.74421,0,0,0-2.63652-1.59865c-1.88115,0-3.19481,1.52046-3.19481,3.69667,0,2.24551,1.23428,3.696,3.14414,3.696a2.74833,2.74833,0,0,0,2.66643-1.62737l.03115-.06293-1.3091-.77577-.0391.06474a1.39269,1.39269,0,0,1-1.30847.85584c-.95018,0-1.58853-.865-1.58853-2.15055C167.642,32.74634,168.24706,31.922,169.22044,31.922Z"/><path class="cls-8" d="M181.2401,32.41738c0-1.20889-.86129-1.9315-2.30231-1.9315h-3.29565v7.17278h3.2645a2.26592,2.26592,0,0,0,2.57416-2.34272,1.68387,1.68387,0,0,0-.90589-1.54455A1.63352,1.63352,0,0,0,181.2401,32.41738Zm-4.0708-.4856h1.708c.6964,0,.7856.31915.7856.59588,0,.39433-.234.58555-.71535.58555H177.1693Zm1.78863,4.24H177.1693V34.50932h1.78863c.631,0,.92609.26329.92609.8277C179.884,35.88285,179.56332,36.17178,178.95793,36.17178Z"/><path class="cls-8" d="M169.72868,58.65405a7.747,7.747,0,1,0-7.7467-7.747A7.75587,7.75587,0,0,0,169.72868,58.65405Zm0-.46545a7.25405,7.25405,0,0,1-4.06317-1.23948,11.53329,11.53329,0,0,0,4.84908-1.21865c1.229-.73243,2.53381-1.64632,2.77207-2.86741a1.92966,1.92966,0,0,1,2.81856,1.56137A7.28164,7.28164,0,0,1,169.72868,58.1886ZM166.138,52.57475a3.02341,3.02341,0,0,0,1.29747.46058,2.49278,2.49278,0,0,0,2.50579-2.01463,1.745,1.745,0,0,1,2.78584.68051c.63773,1.52528-.70559,2.6267-2.43492,3.65907a11.54516,11.54516,0,0,1-5.19111,1.168,7.313,7.313,0,0,1-1.9218-2.438c.05836.00306.11666.00488.17621.00488A3.11957,3.11957,0,0,0,166.138,52.57475Zm-1.15884-3.6774a16.38549,16.38549,0,0,1,.70283-4.04271,7.21109,7.21109,0,0,1,3.41075-1.19976,2.01756,2.01756,0,0,0,.19973,2.95048,2.14509,2.14509,0,0,0-.544.59557,2.80114,2.80114,0,0,0,.75751,3.81426,2.08116,2.08116,0,0,1-2.01526,1.59009C165.80325,52.389,165.00609,50.82278,164.97919,48.89735Zm8.34476,3.48193a2.47262,2.47262,0,0,0-.19736-.84671,2.173,2.173,0,0,0-3.39854-.89182,2.3656,2.3656,0,0,1-.61295-3.20826c.846-1.3415,2.77026-.807,4.5283.17528a7.51341,7.51341,0,0,1,3.3353,3.96883,7.21789,7.21789,0,0,1-.56566,2.22106A2.35508,2.35508,0,0,0,173.324,52.37928Zm.53082-5.14964c-1.27182-.70979-2.94072-1.35977-4.14473-.85885a1.60572,1.60572,0,0,1,.08156-2.744,7.27964,7.27964,0,0,1,7.20424,6.83981A8.45972,8.45972,0,0,0,173.85477,47.22964Zm-8.717-1.97366c-.13561.5357-.26634,1.00365-.37112,1.48012-.37444,1.71588-.37019,4.29923,1.02536,5.571a2.684,2.684,0,0,1-2.43648,1.35433,2.85675,2.85675,0,0,1-.37838-.02508,7.28806,7.28806,0,0,1,2.16062-8.38042Z"/><rect class="cls-9" y="0.04486" width="71.71113" height="71.71113" rx="6.96467"/><rect class="cls-3" x="14.24244" y="45.43077" width="43.35785" height="3.4483"/><path class="cls-3" d="M26.07556,28.23917V24.73189H14.24244V41.10225h4.324V35.281h6.68789V31.76915H18.56643v-3.53Z"/><path class="cls-3" d="M39.0203,32.61307A3.96136,3.96136,0,0,0,41.661,28.98328c0-2.64521-1.96009-4.23324-5.2632-4.23324H28.022V41.10225h8.46648c3.60257,0,5.75322-1.706,5.75322-4.6053A4.02026,4.02026,0,0,0,39.0203,32.61307Zm-6.765-4.55992h3.34395c1.216,0,1.86934.55808,1.86934,1.59257s-.65336,1.588-1.86934,1.588H32.25528ZM35.88507,37.781H32.25528v-3.2532H35.9259c1.216,0,1.89657.58076,1.89657,1.68331,0,1.039-.68058,1.56989-1.94193,1.56989Z"/><path class="cls-3" d="M52.67739,31.16116,50.70823,30.898c-1.94194-.28131-2.51363-.75772-2.51363-1.66063s.75772-1.52,2.44557-1.52a2.37145,2.37145,0,0,1,2.69512,2.00092l4.11528-.53085c-.60346-3.22144-2.91745-4.78679-6.69243-4.78679-4.22417,0-7.001,2.10982-7.001,5.33579,0,2.77225,1.68332,4.38751,5.12708,4.86392l2.05991.28131c2.18241.31307,2.72234.80763,2.72234,1.76045s-.80762,1.52-2.72234,1.52A3.09893,3.09893,0,0,1,47.8407,35.9797L43.553,36.624c.69419,3.33487,3.23051,4.85484,7.25958,4.85484,4.57807,0,7.28227-1.96916,7.28227-5.3131C58.07671,33.2256,56.42515,31.70562,52.67739,31.16116Z"/></g></g></g></svg>