<svg xmlns="http://www.w3.org/2000/svg" viewBox="0 0 416.76675 71.80272"><defs><style>.cls-1{fill:#e8b909;}.cls-2{fill:#fff;}.cls-3{fill:#fd0;}.cls-4{fill:#0054a4;}.cls-5{fill:#a30046;}.cls-6{fill:#e31937;}.cls-7{fill:#231f20;}.cls-8{fill:none;stroke:#231f20;stroke-miterlimit:10;stroke-width:1.0007px;}.cls-9{fill:#00be40;}</style></defs><g id="Layer_2" data-name="Layer 2"><g id="ARTE"><g id="ES_joint-logo-flag-black"><path class="cls-1" d="M180.71721,1.19349l.358.23732c3.92543,2.59862,7.08539,3.07415,11.89474,3.07415a16.365,16.365,0,0,0,5.25711-.92l.45633-.15789,2.28034,3.19513-.23457.31338c-8.47149,11.25578-1.86557,23.408,2.81,28.25888l.43249.449-.44105.44043c-.61328.61176-1.675,1.71626-2.46358,2.54395l-.267.281.01708.3867.00432.13436c.00425.09839.00732.20036.02746.3775l.00732.07025c.39589,7.50756-1.54974,13.67424-5.78242,18.32721-4.49778,4.94435-11.59237,7.9211-19.97591,8.38167l-.32315.01833-.23945.21868c-2.135,1.94314-4.30168,3.557-4.32489,3.57476l-.37788.28161-.37781-.28036c-.08977-.06718-2.22962-1.65908-4.33684-3.576l-.23913-.21868-.32346-.01833c-8.3838-.46057-15.47838-3.43732-19.97648-8.38167-4.23362-4.65478-6.17894-10.82146-5.78123-18.329l.00551-.07088c.01951-.16613.0232-.25777.02746-.36224l.00062-.02808.00031-.00307.00394-.116.01683-.38733-.26666-.28036c-.74369-.78128-1.835-1.91749-2.46332-2.54395l-.44075-.44043.43224-.449c4.67618-4.85089,11.28079-17.0031,2.81024-28.25888l-.23576-.31338,2.28185-3.19513.45576.15789a16.34529,16.34529,0,0,0,5.257.92c4.809,0,7.96908-.47553,11.8945-3.07415l.35855-.23732.3528.24433a17.8346,17.8346,0,0,0,10.538,3.52283,17.83491,17.83491,0,0,0,10.53742-3.52283l.353-.24433"/><path class="cls-2" d="M144.03207,28.98753c2.65386-6.08574,3.64225-13.90174-.82131-21.54123a19.909,19.909,0,0,0,3.4721.32071c4.56809,0,8.16486-.41541,12.20451-2.69852A20.71213,20.71213,0,0,0,169.8185,8.223a20.72439,20.72439,0,0,0,10.94638-3.15453c4.04027,2.28311,7.637,2.69852,12.20506,2.69852a18.4335,18.4335,0,0,0,3.48318-.33966c-4.474,7.65781-3.4868,15.47444-.83264,21.56018H144.03207"/><path class="cls-3" d="M195.62048,28.98753c-2.65416-6.08574-3.64137-13.90237.83264-21.56018a18.4335,18.4335,0,0,1-3.48318.33966c-4.568,0-8.16479-.41541-12.20506-2.69852A20.72439,20.72439,0,0,1,169.8185,8.223c-.04035,0-.07976-.00213-.12036-.00244v20.767Z"/><path class="cls-4" d="M189.93946,58.39849c5.08359-3.71587,8.08605-9.64917,7.645-18.30513-.05136-.49235-.088-.52106-.1271-1.01648h-7.51789Z"/><path class="cls-5" d="M181.89376,62.12356a24.26083,24.26083,0,0,0,8.04689-3.72625V39.07688h-8.04689Z"/><path class="cls-5" d="M149.71185,58.39731a24.26954,24.26954,0,0,0,8.04788,3.72625V39.07688h-8.04788Z"/><path class="cls-4" d="M142.06874,40.09336c-.44106,8.656,2.56134,14.58989,7.6453,18.30576V39.07688h-7.51888C142.15606,39.5723,142.12,39.601,142.06874,40.09336Z"/><path class="cls-5" d="M169.84626,43.34929a7.53645,7.53645,0,0,1,4.00424,1.15209v-5.4245H165.803v5.44889A7.53644,7.53644,0,0,1,169.84626,43.34929Z"/><path class="cls-5" d="M169.84626,58.51215A7.531,7.531,0,0,1,165.803,57.3356v6.00117c.14231.00732.2828.01708.42542.02439,2.67319.01345,5.09679.02815,7.1963,0,.14293-.00731.28349-.01707.42579-.02439V57.36006A7.53707,7.53707,0,0,1,169.84626,58.51215Z"/><path class="cls-4" d="M173.84869,39.07688v5.42325a7.56666,7.56666,0,0,1,0,12.86055v5.97609a38.46746,38.46746,0,0,0,8.04751-1.21321V39.07688Z"/><path class="cls-4" d="M162.26577,50.93128a7.571,7.571,0,0,1,3.53936-6.40732V39.07688h-8.04784V62.12356a38.4663,38.4663,0,0,0,8.04784,1.21321V57.33685A7.56878,7.56878,0,0,1,162.26577,50.93128Z"/><path class="cls-6" d="M145.84478,14.269a22.46912,22.46912,0,0,1,.21106,7.67732h7.81663v7.04117h7.67732V21.94636h8.18013V14.269h-8.18013V6.46a23.64762,23.64762,0,0,1-2.66242-1.39155,19.42522,19.42522,0,0,1-5.0149,2.00669V14.269Z"/><path class="cls-6" d="M186.25231,28.98753V7.18271a18.7491,18.7491,0,0,1-2.7587-.82438v22.6292Z"/><path class="cls-6" d="M175.2164,28.98753V7.49484a19.83512,19.83512,0,0,1-2.75869.5556V28.98753Z"/><path class="cls-6" d="M191.77025,28.98753V7.75419c-.95361-.01808-1.86988-.06237-2.75869-.14663v21.38Z"/><path class="cls-6" d="M180.73435,28.98753V5.08588a23.481,23.481,0,0,1-2.75869,1.42977V28.98753Z"/><path class="cls-7" d="M205.2477,35.63893l-1.05251-1.09285c-4.49046-4.65873-10.84036-16.31378-2.73911-27.08089l.6359-.846-3.06288-4.2916-1.0983.37931a15.4153,15.4153,0,0,1-4.96086.87017c-4.62726,0-7.65962-.45144-11.392-2.92295L180.705.07561,179.84492.673a16.96924,16.96924,0,0,1-10.01817,3.36007A16.96955,16.96955,0,0,1,159.808.673l-.85978-.59738-.87323.57849c-3.73208,2.47151-6.76444,2.92295-11.39208,2.92295a15.409,15.409,0,0,1-4.96047-.87017L140.624,2.32757l-3.06407,4.291.63622.84664c8.10187,10.76711,1.75166,22.42216-2.73793,27.08089l-1.05282,1.09285,1.0739,1.07146c.577.57605,1.60079,1.63832,2.44681,2.52894-.00244.05011-.00331.09408-.00519.13806-.00332.09226-.0055.16983-.02321.31889l-.00856.10021c-.41386,7.76527,1.61085,14.15983,6.01611,19.00334,4.67005,5.13438,11.969,8.20458,20.60018,8.67861,2.13836,1.94744,4.30938,3.56193,4.40683,3.63461l.9224.6842.92053-.68664c.09651-.07206,2.256-1.686,4.39213-3.63217,8.63156-.474,15.93013-3.54423,20.59962-8.67861,4.40614-4.84351,6.43-11.23682,6.017-19.00334l-.00913-.10021a2.99549,2.99549,0,0,1-.02264-.32071c-.00182-.04216-.00364-.08613-.00551-.13624.84671-.89062,1.87113-1.95351,2.44718-2.52894Zm-5.11292,3.03418c.07881.78.033.7495.08677,1.20582.92176,17.30823-11.13606,25.481-25.70824,26.08455-2.22725,2.08062-4.68081,3.90953-4.68081,3.90953s-2.46544-1.82891-4.69293-3.90953C150.56738,65.36,138.50925,57.18716,139.431,39.87893c.05405-.45632.00826-.42579.08732-1.20582-.83532-.88331-2.21805-2.32652-2.94829-3.05495,5.22683-5.42355,11.3254-17.83179,2.86034-29.08143l1.78769-2.37081a16.9277,16.9277,0,0,0,5.46478.95543c4.85427,0,8.16912-.4814,12.24479-3.18017a18.59046,18.59046,0,0,0,10.8991,3.63649,18.59118,18.59118,0,0,0,10.899-3.63649c4.075,2.69877,7.389,3.18017,12.24415,3.18017a16.933,16.933,0,0,0,5.46478-.95543l1.78745,2.37081c-8.46537,11.24964-2.36649,23.65788,2.86127,29.08143C202.35283,36.34659,200.96985,37.7898,200.13478,38.67311Z"/><path class="cls-7" d="M141.96459,39.05855c-.02076.26448-.04123.391-.06293.53264-.01927.121-.03941.25234-.06412.49054-.33935,6.656,1.32343,12.04262,4.941,16.01139,4.14961,4.551,10.87213,7.14344,19.449,7.499l.32621.00119c1.42726.00857,2.78122.0147,4.05059.0147.99515,0,1.93832-.00369,2.82956-.01652,8.56859-.35492,15.29054-2.94741,19.44015-7.49836,3.61817-3.9694,5.28094-9.35542,4.94009-16.023-.02321-.22662-.044-.358-.06293-.479-.022-.14168-.04216-.26816-.06293-.53264l-.01713-.2138H141.981Zm.3344,1.05864c.02265-.215.04185-.33966.05993-.45513.01645-.10627.032-.20523.0476-.353H197.246c.01582.14906.03171.24677.0476.35429.01833.11422.03791.23883.05987.44225.33234,6.52711-1.28953,11.80067-4.82093,15.6748-4.06529,4.45812-10.67547,6.99932-19.1115,7.34867-2.01219.02752-4.32251.01589-6.86489.0025l-.318-.0025c-8.44247-.34935-15.05327-2.89055-19.11762-7.348C143.58914,51.90748,141.96734,46.63267,142.299,40.11719Z"/><path class="cls-7" d="M143.82008,28.89439l-.14143.32371h52.295l-.14112-.32371c-2.27123-5.2095-3.97428-13.14311.821-21.35038L196.91,7.1042l-.5003.09652a18.26694,18.26694,0,0,1-3.43977.33416c-4.6676,0-8.14159-.43681-12.09022-2.66831l-.11853-.06686-.116.07055a20.43959,20.43959,0,0,1-10.826,3.12063,20.41965,20.41965,0,0,1-10.812-3.12063l-.11578-.07055-.11785.06686c-3.94863,2.2315-7.42355,2.66831-12.0906,2.66831a19.75633,19.75633,0,0,1-3.4315-.31614l-.49267-.08764.25259.43186C147.79649,15.75435,146.09218,23.68489,143.82008,28.89439Zm26.14041-20.4408A20.86917,20.86917,0,0,0,180.76976,5.336c3.98772,2.22387,7.50142,2.66186,12.20018,2.66186a18.66531,18.66531,0,0,0,3.03724-.25534c-4.49233,8.05121-2.94191,15.79578-.73792,21.01316H169.96049Zm-26.30686-.6994a19.77285,19.77285,0,0,0,3.02923.2437c4.6982,0,8.21222-.438,12.20051-2.66186a20.86139,20.86139,0,0,0,10.6141,3.11512V28.75571H144.38331C146.58791,23.5377,148.14134,15.79344,143.65363,7.75419Z"/><polygon class="cls-7" points="163.227 31.996 163.227 30.469 158.05 30.469 158.05 37.641 159.607 37.641 159.607 34.683 161.722 34.683 161.722 33.166 159.607 33.166 159.607 31.996 163.227 31.996"/><path class="cls-7" d="M169.28886,31.90473a1.26346,1.26346,0,0,1,1.216.72079l.033.06506,1.441-.664-.03359-.06993a2.74423,2.74423,0,0,0-2.63653-1.59866c-1.88115,0-3.19481,1.52047-3.19481,3.69667,0,2.24551,1.23429,3.696,3.14415,3.696a2.74832,2.74832,0,0,0,2.66642-1.62737l.03115-.06293-1.3091-.77578-.0391.06475a1.39269,1.39269,0,0,1-1.30847.85584c-.95017,0-1.58852-.865-1.58852-2.15056C167.71041,32.72905,168.31548,31.90473,169.28886,31.90473Z"/><path class="cls-7" d="M181.30852,32.40008c0-1.20889-.86129-1.93149-2.3023-1.93149h-3.29565v7.17277h3.26449a2.2659,2.2659,0,0,0,2.57416-2.34271,1.68386,1.68386,0,0,0-.90588-1.54455A1.63355,1.63355,0,0,0,181.30852,32.40008Zm-4.07079-.48559h1.708c.6964,0,.7856.31914.7856.59588,0,.39433-.234.58555-.71535.58555h-1.77824Zm1.78862,4.24h-1.78862V34.492h1.78862c.631,0,.92609.26328.92609.8277C179.95244,35.86556,179.63174,36.15449,179.02635,36.15449Z"/><path class="cls-7" d="M169.7971,58.63676a7.747,7.747,0,1,0-7.7467-7.747A7.75587,7.75587,0,0,0,169.7971,58.63676Zm0-.46546a7.254,7.254,0,0,1-4.06317-1.23948,11.533,11.533,0,0,0,4.84908-1.21865c1.229-.73242,2.53382-1.64632,2.77208-2.8674a1.92965,1.92965,0,0,1,2.81855,1.56137A7.28164,7.28164,0,0,1,169.7971,58.1713Zm-3.59064-5.61384a3.02336,3.02336,0,0,0,1.29746.46057,2.49277,2.49277,0,0,0,2.50579-2.01463,1.74506,1.74506,0,0,1,2.78585.68051c.63772,1.52529-.7056,2.62671-2.43493,3.65908a11.54529,11.54529,0,0,1-5.19111,1.168,7.31319,7.31319,0,0,1-1.9218-2.438c.05836.00307.11666.00488.17621.00488A3.1196,3.1196,0,0,0,166.20646,52.55746Zm-1.15885-3.6774a16.386,16.386,0,0,1,.70284-4.04271,7.211,7.211,0,0,1,3.41074-1.19976,2.01756,2.01756,0,0,0,.19973,2.95048,2.14519,2.14519,0,0,0-.544.59556,2.80115,2.80115,0,0,0,.75751,3.81427,2.08117,2.08117,0,0,1-2.01525,1.59009C165.87168,52.37174,165.07451,50.80549,165.04761,48.88006Zm8.34476,3.48192a2.47288,2.47288,0,0,0-.19735-.84671,2.173,2.173,0,0,0-3.39855-.89181,2.36561,2.36561,0,0,1-.613-3.20826c.846-1.3415,2.77027-.807,4.52831.17527a7.51348,7.51348,0,0,1,3.3353,3.96884,7.21811,7.21811,0,0,1-.56566,2.221A2.3551,2.3551,0,0,0,173.39237,52.362Zm.53083-5.14964c-1.27183-.70978-2.94073-1.35976-4.14474-.85884a1.60573,1.60573,0,0,1,.08157-2.744,7.27965,7.27965,0,0,1,7.20424,6.83981A8.45986,8.45986,0,0,0,173.9232,47.21234Zm-8.717-1.97365c-.13562.5357-.26635,1.00365-.37113,1.48011-.37444,1.71588-.37018,4.29924,1.02537,5.57106a2.68405,2.68405,0,0,1-2.43649,1.35433,2.85505,2.85505,0,0,1-.37838-.02509,7.288,7.288,0,0,1,2.16063-8.38041Z"/><line class="cls-8" x1="103.10894" y1="0.04227" x2="103.10883" y2="71.80272"/><path d="M235.73941,20.661h4.34131c2.61816,0,3.96191,1.292,3.96191,3.70361a3.95921,3.95921,0,0,1-2.56689,3.72119h-3.39356v4.28955h-2.34277Zm4.96143,5.30591a1.71807,1.71807,0,0,0,.999-1.68824,1.41637,1.41637,0,0,0-1.602-1.49878h-2.01563v3.187Z"/><path d="M244.98941,31.06607l2.87695-10.405h3.79l2.877,10.405v1.30932h-2.10156L251.7941,29.912a10.56612,10.56612,0,0,1-2.08448.20655,11.29322,11.29322,0,0,1-2.03271-.18946l-.63721,2.44629h-2.05029Zm3.20459-3.10083a8.69315,8.69315,0,0,0,1.51562.13769,7.92244,7.92244,0,0,0,1.56788-.155l-.689-2.60132c-.27588-1.0852-.62012-2.60107-.62012-2.60107h-.46533s-.34473,1.51587-.63721,2.60107Z"/><path d="M260.51041,22.77993v9.59546h-2.34278V22.77993h-2.791V20.661h8.02832l-.34473,2.11889Z"/><path d="M264.78238,20.661h4.42724c2.54981,0,3.94483,1.20581,3.94483,3.47973a3.78119,3.78119,0,0,1-2.41162,3.51441,19.03414,19.03414,0,0,0,2.36035,3.30762v1.41259h-1.792a26.01028,26.01028,0,0,1-2.96289-4.479h-1.22315v4.479h-2.34277Zm4.94385,5.11645a1.53247,1.53247,0,0,0,1.08544-1.53344,1.36424,1.36424,0,0,0-1.51611-1.46412h-2.17041v2.99756Z"/><path d="M274.63541,25.19156c0-3.04908,1.585-4.70289,4.54785-4.70289,2.9458,0,4.54834,1.65381,4.54834,4.70289v2.65307c0,3.032-1.585,4.70313-4.54834,4.70313-2.9458,0-4.54785-1.65381-4.54785-4.70313Zm4.54785,5.27172c1.55078,0,2.20508-.72363,2.20508-2.44629V25.01944c0-1.72266-.6543-2.44629-2.20508-2.44629-1.5503,0-2.20508.72363-2.20508,2.44629V28.017C276.97818,29.73965,277.633,30.46328,279.18326,30.46328Z"/><path d="M285.45328,25.03653c0-3.10083,1.5332-4.4961,4.34131-4.4961a4.66624,4.66624,0,0,1,3.51416,1.30908v1.82618h-1.91211s-.1377-1.05079-1.585-1.05079c-1.5332,0-2.01562.75782-2.01562,2.36011v3.06641c0,1.602.48242,2.36011,2.01562,2.36011,1.44727,0,1.585-1.05079,1.585-1.05079h1.91211v1.82593a4.66584,4.66584,0,0,1-3.51416,1.30933c-2.80811,0-4.34131-1.39551-4.34131-4.49634Z"/><path d="M295.78873,30.53213V22.5043l-1.17139-.20679V20.661h4.686v1.63647l-1.17138.20679v8.02783l1.17138.20679v1.63647h-4.686V30.73892Z"/><path d="M301.19791,20.661h2.15332L306.693,26.1564c.27588.448.93067,1.77441.93067,1.77441h.03418s-.08594-1.25757-.08594-2.41186V20.661h2.27392V32.37539h-2.27392v-.94751l-2.9458-4.80639c-.3794-.67188-1.1543-2.01563-1.1543-2.01563h-.05176s.05176,1.06812.05176,2.22241v5.54712h-2.27392Z"/><path d="M311.61929,31.06607l2.877-10.405h3.79l2.877,10.405v1.30932h-2.10157L318.424,29.912a10.5661,10.5661,0,0,1-2.08447.20655,11.29333,11.29333,0,0,1-2.03272-.18946l-.6372,2.44629h-2.0503Zm3.20459-3.10083a8.69335,8.69335,0,0,0,1.51563.13769,7.92234,7.92234,0,0,0,1.56787-.155l-.689-2.60132c-.27588-1.0852-.62011-2.60107-.62011-2.60107H316.133s-.34472,1.51587-.6372,2.60107Z"/><path d="M322.93716,20.661h4.186c2.8081,0,4.34131,1.36084,4.34131,4.49609v2.72193c0,3.13549-1.53321,4.49633-4.34131,4.49633h-4.186Zm2.34278,2.10156v7.511h1.70556c1.48145,0,2.13623-.55127,2.13623-2.18775V24.95059c0-1.63672-.65478-2.188-2.13623-2.188Z"/><path d="M333.18619,25.19156c0-3.04908,1.585-4.70289,4.54785-4.70289,2.9458,0,4.54834,1.65381,4.54834,4.70289v2.65307c0,3.032-1.585,4.70313-4.54834,4.70313-2.9458,0-4.54785-1.65381-4.54785-4.70313Zm4.54785,5.27172c1.55078,0,2.20508-.72363,2.20508-2.44629V25.01944c0-1.72266-.6543-2.44629-2.20508-2.44629-1.55029,0-2.20508.72363-2.20508,2.44629V28.017C335.529,29.73965,336.18375,30.46328,337.734,30.46328Z"/><path d="M344.34878,20.661H348.776c2.54981,0,3.94482,1.20581,3.94482,3.47973a3.78119,3.78119,0,0,1-2.41162,3.51441,19.03445,19.03445,0,0,0,2.36036,3.30762v1.41259h-1.792a26.01094,26.01094,0,0,1-2.96289-4.479h-1.22314v4.479h-2.34278Zm4.94385,5.11645a1.53247,1.53247,0,0,0,1.08545-1.53344,1.36425,1.36425,0,0,0-1.51611-1.46412h-2.17041v2.99756Z"/><path d="M357.64712,25.19156c0-3.04908,1.585-4.70289,4.54786-4.70289,2.9458,0,4.54834,1.65381,4.54834,4.70289v2.65307c0,3.032-1.585,4.70313-4.54834,4.70313-2.94581,0-4.54786-1.65381-4.54786-4.70313Zm4.54786,5.27172c1.55078,0,2.20507-.72363,2.20507-2.44629V25.01944c0-1.72266-.65429-2.44629-2.20507-2.44629-1.5503,0-2.20508.72363-2.20508,2.44629V28.017C359.9899,29.73965,360.64468,30.46328,362.195,30.46328Z"/><path d="M368.80972,20.661h7.25244l-.34472,2.11889H371.1525v2.68726h4.11718v2.11914H371.1525v4.78906h-2.34278Z"/><path d="M378.19742,30.53213V22.5043l-1.17139-.20679V20.661h4.686v1.63647l-1.17139.20679v8.02783l1.17139.20679v1.63647h-4.686V30.73892Z"/><path d="M383.26187,25.03653c0-3.10083,1.5332-4.4961,4.34131-4.4961a4.66624,4.66624,0,0,1,3.51416,1.30908v1.82618h-1.91211s-.1377-1.05079-1.585-1.05079c-1.5332,0-2.01563.75782-2.01563,2.36011v3.06641c0,1.602.48243,2.36011,2.01563,2.36011,1.44726,0,1.585-1.05079,1.585-1.05079h1.91211v1.82593a4.66584,4.66584,0,0,1-3.51416,1.30933c-2.80811,0-4.34131-1.39551-4.34131-4.49634Z"/><path d="M393.59732,30.53213V22.5043l-1.17139-.20679V20.661h4.686v1.63647l-1.17139.20679v8.02783l1.17139.20679v1.63647h-4.686V30.73892Z"/><path d="M398.3688,31.06607l2.877-10.405h3.79l2.877,10.405v1.30932h-2.10156l-.6377-2.46338a10.566,10.566,0,0,1-2.08447.20655,11.29333,11.29333,0,0,1-2.03272-.18946l-.6372,2.44629h-2.0503Zm3.20459-3.10083a8.69335,8.69335,0,0,0,1.51563.13769,7.9187,7.9187,0,0,0,1.56787-.155l-.689-2.60132c-.27587-1.0852-.62011-2.60107-.62011-2.60107h-.46533s-.34473,1.51587-.63721,2.60107Z"/><path d="M409.68667,20.661h2.34278V30.2565h4.7373l-.34424,2.11889h-6.73584Z"/><path d="M235.73941,37.891h4.186c2.80811,0,4.34131,1.36084,4.34131,4.49609V45.109c0,3.13549-1.5332,4.49633-4.34131,4.49633h-4.186Zm2.34277,2.10156v7.511h1.70557c1.48144,0,2.13623-.55127,2.13623-2.18775V42.18057c0-1.63672-.65479-2.188-2.13623-2.188Z"/><path d="M246.33316,37.891h7.4248l-.34472,2.11889h-4.73731v2.68726h4.28955v2.11914h-4.28955v2.67017h4.90967v2.11889h-7.25244Z"/><path d="M255.6525,37.891h2.34277v9.59546h4.7373l-.34423,2.11889H255.6525Z"/><path d="M267.52115,37.891h7.25244l-.34473,2.11889h-4.56494v2.68726h4.11719v2.11914h-4.11719v4.78906h-2.34277Z"/><path d="M275.90982,42.26651c0-3.10083,1.5332-4.4961,4.34131-4.4961a4.66624,4.66624,0,0,1,3.51416,1.30908v1.82618h-1.91211s-.1377-1.05078-1.585-1.05078c-1.53321,0-2.01563.75781-2.01563,2.3601V45.2814c0,1.60205.48242,2.36011,2.01563,2.36011,1.44726,0,1.585-1.05079,1.585-1.05079h1.91211v1.82593a4.66584,4.66584,0,0,1-3.51416,1.30933c-2.80811,0-4.34131-1.39551-4.34131-4.49634Z"/><path d="M289.03628,37.891h4.2378c2.8081,0,3.79,1.27466,3.79,3.2041a2.95433,2.95433,0,0,1-1.36084,2.584v.03467a3.00205,3.00205,0,0,1,1.5332,2.53223c0,2.10181-1.1543,3.35937-3.80762,3.35937h-4.39258Zm2.27393,2.01538v2.77368h2.54932a1.54977,1.54977,0,0,0,.91308-1.42993A1.25863,1.25863,0,0,0,293.36,39.9064Zm0,4.75488v2.92847h2.188a1.34379,1.34379,0,0,0,1.44678-1.46436,1.62693,1.62693,0,0,0-1.0337-1.46411Z"/><path d="M298.49332,48.29605l2.877-10.405h3.79l2.877,10.405v1.30932H305.9357L305.298,47.142a10.566,10.566,0,0,1-2.08447.20655,11.29322,11.29322,0,0,1-2.03271-.18946l-.63721,2.44629h-2.05029Zm3.20459-3.10083a8.69315,8.69315,0,0,0,1.51562.13769,7.92234,7.92234,0,0,0,1.56787-.155l-.689-2.60132c-.27588-1.0852-.62012-2.60107-.62012-2.60107H303.007s-.34473,1.51587-.63721,2.60107Z"/><path d="M309.81119,37.891h4.42724c2.54981,0,3.94483,1.20581,3.94483,3.47973a3.78119,3.78119,0,0,1-2.41162,3.51441,19.03414,19.03414,0,0,0,2.36035,3.30762v1.41259H316.34a26.0106,26.0106,0,0,1-2.9629-4.479H312.154v4.479h-2.34277Zm4.94384,5.11645a1.53247,1.53247,0,0,0,1.08545-1.53344,1.36425,1.36425,0,0,0-1.51611-1.46412H312.154v2.99756Z"/><path d="M319.66421,42.26651c0-3.10083,1.53321-4.4961,4.34131-4.4961a4.66624,4.66624,0,0,1,3.51416,1.30908v1.82618h-1.91211s-.13769-1.05078-1.585-1.05078c-1.5332,0-2.01562.75781-2.01562,2.3601V45.2814c0,1.60205.48242,2.36011,2.01562,2.36011,1.44727,0,1.585-1.05079,1.585-1.05079h1.91211v1.82593a4.66584,4.66584,0,0,1-3.51416,1.30933c-2.8081,0-4.34131-1.39551-4.34131-4.49634Z"/><path d="M329.34537,37.891h7.4248l-.34473,2.11889h-4.7373v2.68726h4.28955v2.11914h-4.28955v2.67017h4.90967v2.11889h-7.25244Z"/><path d="M338.6647,37.891h2.34278v9.59546h4.7373l-.34424,2.11889H338.6647Z"/><path d="M346.7438,42.42154c0-3.04908,1.585-4.70289,4.54786-4.70289,2.9458,0,4.54834,1.65381,4.54834,4.70289v2.65307c0,3.032-1.585,4.70313-4.54834,4.70313-2.94581,0-4.54786-1.65381-4.54786-4.70313Zm4.54786,5.27172c1.55078,0,2.20507-.72363,2.20507-2.44629V42.24942c0-1.72266-.65429-2.44629-2.20507-2.44629-1.5503,0-2.20508.72363-2.20508,2.44629V45.247C349.08658,46.96963,349.74136,47.69326,351.29166,47.69326Z"/><path d="M357.9064,37.891h2.15332l3.3418,5.49536c.27588.448.93066,1.77441.93066,1.77441h.03418s-.08594-1.25757-.08594-2.41186V37.891h2.27393V49.60537h-2.27393v-.94751l-2.9458-4.80639c-.37939-.67188-1.15429-2.01563-1.15429-2.01563h-.05176s.05176,1.06812.05176,2.22241v5.54712H357.9064Z"/><path d="M368.32779,48.29605l2.877-10.405h3.79l2.877,10.405v1.30932h-2.10156l-.63769-2.46338a10.56612,10.56612,0,0,1-2.08448.20655,11.29322,11.29322,0,0,1-2.03271-.18946l-.63721,2.44629h-2.05029Zm3.20459-3.10083a8.69315,8.69315,0,0,0,1.51562.13769,7.9187,7.9187,0,0,0,1.56787-.155l-.689-2.60132c-.27588-1.0852-.62012-2.60107-.62012-2.60107h-.46533s-.34473,1.51587-.63721,2.60107Z"/><rect class="cls-9" width="71.72203" height="71.72203" rx="6.96573"/><rect class="cls-2" x="14.24433" y="45.39268" width="43.36435" height="3.44882"/><path class="cls-2" d="M26.07922,28.19851V24.6907H14.24433V41.06351H18.569V35.24136h6.68889V31.729H18.569v-3.5305Z"/><path class="cls-2" d="M39.0259,32.57306A3.962,3.962,0,0,0,41.667,28.94273c0-2.64561-1.96038-4.23388-5.264-4.23388H28.026V41.06351h8.46775c3.60311,0,5.75408-1.70626,5.75408-4.606A4.02087,4.02087,0,0,0,39.0259,32.57306Zm-6.766-4.56061h3.34445c1.21616,0,1.86963.55817,1.86963,1.59281s-.65347,1.58827-1.86963,1.58827H32.25986Zm3.63034,9.7293H32.25986V34.48806H35.931c1.21616,0,1.89685.58086,1.89685,1.68357,0,1.03918-.68069,1.57012-1.94223,1.57012Z"/><path class="cls-2" d="M52.685,31.12093l-1.96946-.2632c-1.94223-.28135-2.514-.75783-2.514-1.66088s.75784-1.5202,2.44594-1.5202A2.37181,2.37181,0,0,1,53.343,29.67787l4.11589-.53094c-.60354-3.22192-2.91788-4.7875-6.69343-4.7875-4.2248,0-7.002,2.11013-7.002,5.33659,0,2.77267,1.68357,4.38817,5.12785,4.86465l2.06022.28135c2.18273.31312,2.72275.80775,2.72275,1.76071s-.80775,1.5202-2.72275,1.5202a3.09939,3.09939,0,0,1-3.10394-2.18273l-4.28833.64438c.6943,3.33537,3.231,4.85557,7.26067,4.85557,4.57875,0,7.28336-1.96945,7.28336-5.3139C58.08516,33.18568,56.43336,31.66548,52.685,31.12093Z"/></g></g></g></svg>