<svg xmlns="http://www.w3.org/2000/svg" xmlns:xlink="http://www.w3.org/1999/xlink" viewBox="0 0 162.5 162.5">
    <defs>
        <style>
            .cls-1{isolation:isolate;}.cls-2{fill:url(#linear-gradient);}.cls-3{fill:#415a97;mix-blend-mode:multiply;}.cls-4{fill:#fff;fill-rule:evenodd;}
        </style>
        <linearGradient id="linear-gradient" x1="111.63" y1="10.37" x2="59.81" y2="131.28"
                        gradientUnits="userSpaceOnUse">
            <stop offset="0" stop-color="#37aee2"/>
            <stop offset="1" stop-color="#1e96c8"/>
        </linearGradient>
    </defs>
    <title>facebook</title>
    <g class="cls-1">
        <g id="Layer_1" data-name="Layer 1">
            <path class="cls-2"
                  d="M9.62,0H152.88a9.62,9.62,0,0,1,9.62,9.62V152.88a9.62,9.62,0,0,1-9.62,9.62H9.63A9.63,9.63,0,0,1,0,152.88V9.63A9.62,9.62,0,0,1,9.62,0Z"/>
            <path class="cls-3"
                  d="M9.62,0H152.88a9.62,9.62,0,0,1,9.62,9.62V152.88a9.62,9.62,0,0,1-9.62,9.62H9.63A9.63,9.63,0,0,1,0,152.88V9.63A9.62,9.62,0,0,1,9.62,0Z"/>
            <path class="cls-4"
                  d="M126.28,186.16V130.78h22.46V109.27H126.28V94.18c0-5.24,2.68-9.07,9.27-9.07h13.18V65.46a145.61,145.61,0,0,0-19.11-.59c-15.7.75-25.13,12-25.33,26.47v17.93H85.35v21.51h18.94v55.38Z"
                  transform="translate(-35.8 -44.23)"/>
        </g>
    </g>
</svg>