<svg width="18" height="18" viewBox="0 0 18 18" fill="none" xmlns="http://www.w3.org/2000/svg">
<path d="M17.63 9.06977C17.63 4.04651 13.6972 0 8.815 0C3.93285 0 0 4.04651 0 9.06977C0 13.6047 3.25477 17.3721 7.45885 18V11.6512H5.22119V9H7.45885V6.97674C7.45885 4.67442 8.74719 3.4186 10.7814 3.4186C11.7307 3.4186 12.7478 3.62791 12.7478 3.62791V5.86046H11.6629C10.578 5.86046 10.239 6.55814 10.239 7.25581V8.93023H12.68L12.2732 11.5814H10.239V17.9302C14.3752 17.3023 17.63 13.6047 17.63 9.06977Z" fill="white"/>
<path d="M17.63 9.06977C17.63 4.04651 13.6972 0 8.815 0C3.93285 0 0 4.04651 0 9.06977C0 13.6047 3.25477 17.3721 7.45885 18V11.6512H5.22119V9H7.45885V6.97674C7.45885 4.67442 8.74719 3.4186 10.7814 3.4186C11.7307 3.4186 12.7478 3.62791 12.7478 3.62791V5.86046H11.6629C10.578 5.86046 10.239 6.55814 10.239 7.25581V8.93023H12.68L12.2732 11.5814H10.239V17.9302C14.3752 17.3023 17.63 13.6047 17.63 9.06977Z" fill="#1877F2"/>
</svg>
