<svg xmlns="http://www.w3.org/2000/svg" viewBox="0 0 1240 150"><g fill="#FFF"><path d="M194.186 56.726c1.627-2.808 1.628-2.89 1.18-3.948-1.587 1.587-1.587 1.547-1.913 2.849-.163.61-.04 1.099.733 1.099zM187.572 46.644c-.895-.163-1.872-.61-2.767-.489-.977.122-1.831.774-2.727 1.262-.122.04-.081.57.04.773s.57.407.693.326c.773-.407 1.424-1.1 2.197-1.303.773-.203 1.628.123 2.442.204.04-.244.081-.53.122-.773zM179.352 43.836a5.82 5.82 0 01-.61.447c.244 0 .528 0 .773.04-.041-.162-.123-.325-.163-.487zM185.375 48.23c-.041.082.081.204.122.326.081-.081.244-.163.244-.244.04-.081-.082-.203-.122-.325-.082.08-.244.162-.244.244zM80.852 55.26c-.204-.08-.367-.121-.57-.203.081.163.122.244.203.326l.367-.122zM194.368 50.225c-.483.037-.998.241-1.487.401.415.31.832.669 1.284.82.325.081.773-.204 1.14-.367.08-.04.162-.366.121-.366-.366-.163-.732-.488-1.058-.488zM190.217 48.434c-.162 0-.488.326-.529.53-.04.243.082.732.244.772.916.319 1.832.56 2.785.837-.27-.639-.437-1.379-.872-1.813-.326-.326-1.058-.285-1.628-.326zM183.28 51.273l-.407.04.285.285zM178.741 44.283c-3.052 1.018-3.377 1.465-3.052 3.988 2.483-1.098 2.483-1.098 3.052-3.988zM190.583 53.602c-1.465-2.726-3.5-3.54-6.226-2.563-.285.854-.488 1.505-.732 2.238-1.547.407-3.134.773-4.64 1.302-.813.285-1.017 1.017-.488 1.79 4.11-.488 8.546.408 12.086-2.767zM249.452 34.484l-.024-.049c-.035.023-.067.05-.1.075.043.002.083.006.129.006l.011.041c.019-.022.034-.047.052-.07l-.052-.011c-.014-.014-.017-.006-.016.008zM178.681 52.656c.448.122.977-.122 1.384-.203.081-.366.163-.57.122-.61-.366-.326-.773-.815-1.221-.855-.448-.082-.977.244-1.424.447-.082.041-.122.326-.082.367.367.285.733.732 1.221.854zM248.166 34.557c.163.122.407.367.53.326.244-.035.43-.218.631-.373-.266-.008-.512-.034-.754-.034-.122 0-.285.04-.407.081zM242.021 19.297c.04.081.04.203.04.285.123-.04.204-.04.286-.04a2.26 2.26 0 00-.326-.245zM249.52 34.487c.227.042.454.111.68.111.082 0 .204-.163.286-.244-.204-.122-.448-.407-.53-.366-.18.108-.299.312-.436.499zM208.652 36.673c.65 1.14.814 1.791 1.22 2.035 1.262.733 2.646 1.262 4.151.773.204-.081.407-.529.367-.691-.489-1.506-1.913-1.628-3.134-1.954-.529-.122-1.14-.081-2.604-.163zM228.714 31.587c-.163-.123-.61.244-.936.366.204.325.407.65.61.936.408-.122.652-.204.896-.285-.163-.366-.285-.814-.57-1.017zM229.935 28.087c.163 1.099.895 1.465 1.913 1.302.773-.122 1.261-.529 1.302-1.465.04-1.261-.163-3.866-.651-5.33-1.221.325-2.442.65-3.744 1.016-.04.57-.04 1.14-.04 1.71-.611.407-1.222.773-1.791 1.18.08.936.447 1.465 1.424 1.099.555-.199 1.034-.511 1.547-.753 0 .414.002.827.04 1.24zM227.168 34.435c.285.407.57.814.814 1.18.488-.244.691-.406.976-.529-.285-.406-.57-.854-.936-1.22-.04-.041-.57.366-.854.57zM156.258 50.255l-.122-.285-.203.245zM153.37 58.069l-.204-.163-.082.203zM192.11 54.976c.041-.082.122-.204.163-.285-.122-.081-.203-.122-.325-.203-.041.08-.204.244-.163.284a.885.885 0 00.325.204zM141.486 53.104c.244.244.53.488.896.855.325-.326.57-.61.773-.896-.285-.203-.57-.61-.895-.61-.245 0-.489.407-.774.651zM259.357 25.97c.366.082 1.22-.447 1.262-.772.04-.448-.326-1.14-.733-1.384-.61-.326-1.383-.407-2.116-.57-4.843-1.14-10.01-.366-14.69-2.523-1.14-.529-2.402.326-2.809 1.994-.203.855-.488 1.14-1.139 1.547-1.22.773-1.14 2.116.04 2.686.53.244 1.1.447 1.67.447 1.749 0 3.499-.04 5.249-.163.244 0 .488-.488.895-.936a79.502 79.502 0 00-2.604-1.098c2.767-1.018 5.127.488 7.65.976.122.041.204.448.326.692-.326.733-2.076-.488-1.628 1.546 1.017 0 2.075.041 3.215.082.163-1.14.325-1.953.447-2.767-.773-.407-1.383-.733-1.994-1.058.082-.204.163-.367.204-.61 2.238.65 4.476 1.342 6.755 1.912zM90.13 40.489c.163.04.407-.245.61-.367-.244-.244-.447-.488-.691-.732-.163.203-.285.366-.448.57.163.203.325.488.529.529zM87.77 56.482c.122.08.162.284.244.284.244.041.529-.04.773-.04-.203-.163-.407-.326-.651-.407-.081-.04-.244.081-.366.163zM86.874 50.947l-.325.082.244.203zM164.845 44.436c-.122-.04-.244-.04-.529-.122.244.203.366.285.488.407 0-.081.041-.285.041-.285zM93.548 52.33l.245.245c.08-.122.162-.285.244-.407-.122-.04-.244-.082-.326-.04-.081 0-.122.121-.163.203zM94.077 49.808c-.57-.122-1.14-.204-1.709-.326 0 .163-.04.285-.04.448.61 0 1.18.04 1.79.04-.04-.04-.04-.081-.04-.162zM171.945 57.143l.05-.09c-.025.002-.051.003-.077.007-.355-1.07-.675-2.105-1.071-3.295-.651.04-1.384.122-2.076.204h.122c.367 1.139.651 2.32 1.14 3.459.314.706 1.007.73 1.713.584.042-.317.12-.634.159-.95l.04.08zM165.7 52.453c1.383-.977 1.668-2.116.773-3.703-1.384 1.017-2.116 2.034-.773 3.703zM174.143 55.76c.04-.082-.163-.367-.204-.367-.366.081-.854.04-1.058.285-.382.382-.622.907-.885 1.374.543-.066 1.114-.044 1.577-.275.285-.123.407-.652.57-1.018zM193.188 61.334c1.628-.244 3.54.489 5.127-1.383-.814-.285-1.343-.692-1.83-.57-2.076.203-4.07.163-5.942-1.017-.489-.285-1.18-.082-1.343.814.976 1.261 2.197 2.4 3.988 2.156z"/><path d="M171.742 58.038c.244.081.529.163.773.244-.236-.079-.473-.194-.71-.276l.018-.009-.027.006-.013-.006c0-.024-.013-.007-.025.013l-.012.002c0 .009-.003.017-.004.026zM168.818 53.872c.395-.826.825-1.69 1.296-2.67-2.211.562-2.391 1.011-1.296 2.67zM173.044 49.492l-1.343.367c.082.203.122.447.244.773.367-.122.774-.204 1.058-.448.122-.081.041-.448.041-.692zM172.292 53.633l-.325.04.244.204zM168.853 53.928c-.014-.02-.022-.036-.035-.056l-.047.097.082-.041zM192.771 50.588l-.054-.015.023.059.026-.026c-.012.034-.026.066-.026.066.047-.014.094-.03.141-.046l-.1-.076c0 .01-.006.025-.01.038zM589.453 42.48c-2.075-.61-3.215.367-4.395.978-.529.244-.855.732-.163 1.424 1.628-.122 3.134-.651 4.558-2.401zM531.26 39.022c.122-.082.285-.082.285-.163.04-.081-.04-.203-.082-.285-.122 0-.203-.04-.325-.04l.122.488zM565.566 46.469c-1.505-1.057-1.629-1.058-3.414.24h-.009l.004.004c1.18.61 2.28-.081 3.419-.244zM543.713 34.627c2.808 2.93 5.86 4.232 9.726 2.645-4.68-2.686-7-3.337-9.726-2.645z"/><path d="M562.107 46.672v.041h.04c-.04 0-.04 0-.04-.04zM518.418 64.183c.163 1.668.61 2.442 1.628 2.36 1.261-.081 2.482-.407 3.784-.61-1.098-2.238-1.261-2.28-5.412-1.75zM523.732 54.16c2.238 1.628 4.191 2.035 6.185 2.198-2.4-1.628-2.849-1.79-6.185-2.198zM527.313 51.474c.203.122.447.285.65.407.164-.162.286-.325.448-.488-.244-.163-.447-.366-.691-.366-.122 0-.285.285-.407.447zM524.319 60.358c.122.122.447 0 .691 0a7.095 7.095 0 00-.203-.896c-.203.082-.448.122-.692.204.082.244.082.57.204.692zM582.128 35.766c-2.36-.081-4.395-.122-7.325-.203 4.354 1.465 4.354 1.465 7.325.203zM553.52 37.231h-.081c.04 0 .04.041.081.041v-.04zM507.268 56.41c.65.041 1.017-.366.691-1.343-1.342.041-2.807.082-4.517.122 1.018 2.239 2.605 1.14 3.826 1.221zM555.188 25.674c-.325.122-.57.488-1.017.895 2.93 1.343 5.941 1.14 8.709 1.994 2.767.814 5.493.082 8.301.245-1.18-.53-2.4-1.1-3.621-1.14-3.826-.244-7.488-1.18-11.15-1.994-.408-.081-.855-.122-1.222 0zM586.564 19.366c-.773-.04-1.424-.081-2.076-.081-.203 0-.407.244-.61.366.163.204.326.489.529.53.773.162 1.587.284 2.157-.815zM584.855 36.906c.65.04 1.302.162 1.912.122.163 0 .448-.407.448-.61 0-.163-.366-.53-.529-.53-.61.122-1.262.285-1.872.407 0 .204.04.407.04.61zM553.357 32.877c1.343 2.157 3.54 2.116 5.616 2.075 1.75-.04 3.54-.529 5.29-.813-.447-.489-.814-1.18-1.383-1.465-1.506-.692-3.093-1.343-4.68-1.75-1.18-.326-2.483-.407-3.744-.407-1.424 0-1.831 1.098-1.099 2.36zm4.354.285c.082.04.163.122.285.203-.122 0-.244.082-.366.041-.122-.04-.163-.203-.285-.326.122.041.244.041.366.082zM564.263 34.18l.041-.041s-.04 0-.04.04zM564.589 42.725c.325-.04.61-.407.895-.61-.285-.163-.61-.407-.895-.407-.366 0-.733.203-1.994.61 1.22.285 1.628.489 1.994.407z"/><path d="M564.345 34.098c0 .04-.041.081-.082.081h.163a.087.087 0 01-.081-.081zM497.908 54.579c-.04.448-.122.651 0 .651.448.53.936 1.017 1.424 1.506.244-.285.692-.53.733-.855.04-.936-.773-1.14-1.465-1.343-.163-.04-.326.04-.692.04zM400.323 37.08c-.245.041-.774.692-.692.896.244.61.61 1.22 1.058 1.709.244.244.773.244 1.506.448.203-.326.691-.733.732-1.18 0-.489-.244-1.221-.651-1.466-.53-.325-1.302-.407-1.953-.407zM414.2 47.335c1.383-.325 2.767-.691 4.191-1.058-1.75-1.953-2.075-1.872-4.476.814.122.082.244.285.284.244zM393.649 41.435c.122 0 .244.04.366.081-.04-.163-.122-.325-.163-.488-.122.04-.203.081-.325.122.04.081.081.203.122.285zM415.013 39.522c-.285.081-.61.163-.936.244.122.204.204.407.285.61.244-.04.57 0 .692-.162.081-.122-.04-.448-.04-.692zM265.34 28.941c.08-.04.121-.162.162-.244-.081-.081-.163-.122-.244-.162a.656.656 0 00-.163.284c.081.041.204.163.244.122zM363.983 44.935l.148-.116-.19.034.042.082zM360.198 38.383c.488 1.465 1.465 2.197 2.808 3.174.488-1.506.895-2.564-.244-3.5-.774-.651-1.587-.651-2.564.326zM367.36 43.144c0-.122-.57-.326-.692-.244-.883.615-1.696 1.266-2.537 1.92 1.035-.189 2.07-.35 3.066-.618.163-.04.204-.692.163-1.058zM366.017 36.226c.814-.773 1.302-1.058 1.465-1.425.122-.284-.163-.732-.244-1.139-.488.163-1.14.203-1.384.529-.203.285.041.936.163 2.035zM385.55 36.389c.204.122.448.244.652.366.122-.204.285-.407.407-.57-.204-.122-.448-.366-.651-.366-.163.04-.285.366-.407.57zM481.956 50.876l-.326.04.285.245zM462.26 49.004c.081.203.163.366.244.57.163-.163.366-.285.57-.407-.163-.122-.326-.245-.489-.326-.081-.04-.325.122-.325.163zM485.74 57.875c.163.407.326.774.489 1.14.366-.163.61-.244.854-.326-.203-.325-.325-.732-.57-1.017-.08-.122-.488.122-.773.203zM491.316 54.09c.081-.04.122-.162.162-.284-.081-.082-.162-.204-.244-.285l-.244.488c.122.041.244.122.326.082zM453.795 49.167c.244 0 .448-.285.651-.448-.244-.244-.488-.448-.732-.692-.163.244-.285.448-.448.651.204.204.366.53.53.489zM434.221 51.201c.407.041.977-.529 1.221-.936.122-.162-.203-.936-.488-1.058-1.79-.854-3.622-1.668-5.494-2.32-.448-.162-1.058.286-2.238.693 2.197 2.482 4.435 3.377 7 3.621zM433.977 42.533c-.203-.203-.366-.488-.57-.529-.61-.081-1.14.082-1.22.774-.041.162.325.325.732.732a7.92 7.92 0 011.058-.977zM426.693 41.231c-.651-.04-1.221.285-1.14.936.041.489.448.896.936 1.669.57-.692 1.058-1.058 1.221-1.506.163-.651-.366-1.017-1.017-1.099zM448.546 45.585c.244.082.529.326.691.245.204-.082.285-.407.448-.651-.244-.082-.529-.285-.651-.204-.244.081-.326.407-.488.61zM1004.484 64.235l.031-.013-.058-.038.027.05zM1016.491 69.822l.05-.028c-.01.04-.12-.163-.05.028zM1091.974 72.22c-.12-.164-.214-.277-.335-.44-.074.105-.226.187-.25.265.005.129.188.226.254.288.102-.054.23-.058.331-.113zM1004.652 63.818c-.016.008-.022.02-.037.028.034.01.07.024.103.034l-.066-.062z"/><path d="M1004.615 63.846c-.36-.113-.738-.257-1.105-.328-.971-.162-1.618.154-1.855 1.23-.271 1.193.485 1.504 1.39 1.605.284.042.565-.044.833-.09.549-.715-.206-1.86.737-2.417zM1116.495 92.77c.387-.53.769-1.058 1.115-1.567-.871.149-1.388.56-1.115 1.567zM1150.855 81.843c.102-.054.23-.058.332-.113-.133-.125-.254-.288-.387-.413-.074.105-.186.2-.17.289.015.09.16.175.225.237zM1013.2 63.358c-.148.21-.437.464-.394.605.135.365.407.655.643.966.222-.319.482-.623.542-.952.047-.156-.515-.409-.791-.619zM530.04 56.398h-.123c.04 0 .04 0 .082.041h.122c-.041 0-.041-.04-.082-.04zM1145.303 80.098c.975.292 1.743.564 2.484.785.552-1.279.7-2.34-.575-2.763-1.026-.264-1.555.512-1.909 1.978zM1119.722 89.225c-.386.012-.955-.073-1.091.099-.36.534-.592 1.144-.85 1.749.604-.251 1.25-.43 1.833-.776.202-.109.081-.697.108-1.072zM1117.736 91.18l.046-.107c-.037.015-.076.029-.112.045l-.06.085c.043-.007.082-.017.126-.023zM551.3 68.944a2.037 2.037 0 00-.286-.325c-.081.162-.203.366-.285.529.122.04.285.162.367.122.122-.04.122-.204.203-.326zM548.125 68.904c-.203-.163-.407-.407-.651-.448-.204-.04-.448.203-.651.325.244.123.447.285.65.448.204-.122.408-.244.652-.325zM546.358 66.735c.163.163.285.325.447.529.204-.082.407-.204.61-.326a3.609 3.609 0 00-.69-.325c-.082-.041-.245.081-.367.122zM554.23 68.7c-.042-.04-.652.203-.652.326.04.325.203.65.326 1.017a5.75 5.75 0 00.854-.407c-.163-.326-.325-.651-.529-.936zM955.703 75.362v.04c.244.123.489.204.733.286-.204-.122-.448-.204-.651-.326h-.082zM978.655 77.315c-.204-.04-.407-.081-.61-.081 0 0-.041.163-.041.285.203.04.407.081.61.081 0 0 .041-.203.041-.285zM1013.482 64.971l-.033-.042c-.023.032-.047.064-.069.097 0 0 .063-.066.102-.055zM975.19 73.993l-.309.035.176.265zM975.793 60.327c-.482 1.045-.855 1.868-1.315 2.835 1.069.404 1.981.762 3.01 1.155.751-1.942-.345-2.822-1.695-3.99zM1116.513 92.853c-.009-.03-.01-.054-.018-.083l-.071.099s.05-.028.09-.016zM495.181 59.422c-2.034.691-4.354.244-6.226 1.627-.57.448-1.628.245-2.482.407-.53.082-.977.326-1.954.733 4.477 2.279 8.058.773 11.72-1.099.733.855 1.343 1.628 2.076 2.32.977.936 2.035.529 2.604-.896.078-.233.009-.54.002-.816l.009-.013c.014.033.042.085.07.056-.02-.022-.043-.043-.064-.065l.006-.01c-.032-.029-.066-.05-.098-.082-1.566-1.631-3.574-2.872-5.663-2.162zM618.143 45.533l.04-.04c-.122-.163-.04 0-.04.04zM562.025 49.033v.04l.081-.04h-.081zM481.142 60.968l.004.07.036.011-.04-.08zM482.729 60.927c-.122-.081-.285-.244-.366-.203-.38.114-.761.264-1.141.416.366.153.733.324 1.1.398.081.04.285-.407.407-.61zM252.439 32.93c2.779 1.111 2.853 1.138 5.159 1.025-2.793-1.55-2.836-1.546-5.159-1.025zM397.352 41.923l.338.254c-.028-.047-.056-.094-.094-.132-.081-.081-.163-.081-.244-.122zM17.002 59.412l.04-.041c-.121-.163-.04 0-.04.04z"/><path d="M257.77 33.947l-.04.002v-.002l-.003.002-.13.006.132.073c-.015-.015-.004-.029.004-.042h.02l-.011-.019.028-.02zM1221.414 86.082c-.13.004-.285-.043-.386.012-.063.066-.07.234-.105.35.105.074.222.11.327.183l.164-.545zM1173.512 82.304c.223-1.515-.553-1.869-1.94-1.699.117 1.385.907 1.707 1.919 1.711l-.012.007.031.004c-.002.017-.001.03-.004.046 0 0 .016-.022.036-.041l.138.02-.1-.084-.068.036zM1215.57 90.706c-.389.308-1.004.803-.969 1.111.165.729.812 1.262 1.615.993.28-.086.572-.636.549-.983-.012-.374-.29-.787-.47-1.17-.262-.023-.542-.078-.724.049zM1216.276 90.62l.019.036.08.006.045.043.001-.04h.011l-.01-.01v-.024c-.008 0-.015.003-.023.004-.033-.028-.083-.058-.123-.016zM1186.643 92.418l-.016.335.343-.152zM580.215 25.349c.123.122.285.244.407.366-.04-.082-.04-.204-.122-.244-.04-.082-.203-.082-.285-.122zM1115.075 83.885l.013-.026-.08-.036.067.062zM1084.573 82.622l.049-.023a.08.08 0 01.002-.005l-.05.028zM1016.331 70.071c.02-.003.036-.01.054-.013 0-.005-.002-.01-.003-.014l-.05.027zM1112.028 85.268c.003.013.01.023.012.036l.054.026-.066-.062zM500.675 66.787c-.122.163-.366.367-.325.489.035.213.194.426.343.64.033-.24.064-.481.064-.722 0-.122-.041-.285-.082-.407zM51.592 62.504c.407-1.465.733-2.604 1.059-3.906-1.628-.041-3.256-.082-5.087-.163 1.424 1.587 1.424 1.587 1.587 4.11 1.058 0 1.872-.04 2.441-.04zM48.5 55.75c.081.04.081 0 .122 0-.041-.042-.082-.042-.122-.082-.041 0-.041.04-.082.04.04 0 .082 0 .082.041zM45.407 46.837l-.163.163.285.081zM39.75 62.097c.896-.04 1.79-.244 2.686-.406 0-.285.04-.57.04-.855-.895-.163-1.79-.407-2.685-.448-.204 0-.651.53-.651.773 0 .326.407.936.61.936zM38.977 43.297c-.57.773-.854 1.017-.977 1.342-.04.123.367.53.53.53.325-.041.813-.245.854-.448.081-.326-.163-.692-.407-1.424zM54.482 47.773c-.773-2.97-1.302-3.337-3.663-2.36 1.018.529 1.547.732 1.954 1.017.529.366.976.733 1.709 1.343zM50.127 56.319c0-.244-.04-.692-.081-.651-.448 0-.936.081-1.384.122.407.244.774.488 1.18.732.041 0 .285-.122.285-.203zM54.156 56.685c-.203-.122-.407-.285-.61-.407-.122.204-.285.407-.407.61.203.123.407.285.61.407.122-.203.244-.407.407-.61zM51.918 47.325c-.082-.04-.244.041-.366.041l.122.61c.162-.122.325-.284.488-.406-.081-.082-.122-.204-.244-.245zM79.834 53.185c.04.082.122.163.163.245.122 0 .204-.041.326-.082-.082-.081-.122-.203-.204-.244-.081-.04-.203.04-.285.081zM67.667 46.674c-.204.082-.367.204-.57.285.163.163.285.326.448.489.122-.163.284-.326.366-.53 0-.04-.204-.244-.244-.244zM69.457 55.18c.733.04 1.71-.123 1.669-1.344-1.71-1.139-3.419-.57-5.29.733 1.22.203 2.4.57 3.621.61zM72.59 49.523c.041-.082-.325-.448-.528-.53-.61-.162-1.18 0-1.262.693-.04.284.366.61.773 1.22.448-.57.774-.976 1.018-1.383zM75.846 48.18c.204.081.326.163.448.244 0-.122 0-.244-.04-.285-.082-.04-.204 0-.408.041zM54.156 66.33c-.163 0-.366.284-.488.407.203.122.447.406.57.366.323-.122.647-.324.97-.526.026.003.047.01.047.038l-.04-.082s-.026.005-.035.03c-.352-.118-.67-.233-1.024-.233z"/><path d="M56.557 64.254c-.163-.773-.326-1.546-.488-2.36-.814.04-1.384.081-1.954.122-.122 0-.244.122-.325.203-.285 2.28-.285 2.28 1.424 4.314.53.082 1.058.204 1.79.326-.162-1.058-.284-1.832-.447-2.605zM35.966 60.917c.162-.244.325-.407.529-.57-.163-.162-.326-.447-.53-.488-.203-.04-.447.204-.65.326.203.244.447.488.65.732zM61.603 46.552l-.244-.244-.122.285zM42.925 58.68l-.204-.123-.04.203zM44.47 56.563c1.344-.04 2.809.122 3.989-.814-1.058-.244-2.116-.57-3.215-.692-1.22-.122-1.75-2.075-3.581-1.098.814 1.058 1.017 2.685 2.808 2.604zM1.335 57.662c-.163-.163-.367-.326-.53-.489-.08.122-.203.285-.203.326.163.163.366.325.53.488.08-.122.162-.203.203-.325zM201.896 60.968c-.488 0-.976.04-1.465.04v.53c.448.04.936.04 1.425.04.04 0 .04-.406.04-.61zM1.09 55.383l-.203-.163-.081.244zM257.322 40.865l.326-.081-.244-.204zM488.792 70.897l-.284.041.244.204zM486.595 64.55c-.326.121-.57.406-.855.61.204.122.407.285.774.529.203-.244.447-.489.65-.692-.203-.163-.447-.488-.569-.448zM501.164 68.334a4.671 4.671 0 00-.407-.326l-.041.04c.163.123.325.204.448.286z"/><path d="M500.757 68.008l-.064-.092c-.007.044-.011.088-.018.133l.082-.04zM4.346 46.47l-.163-.203-.122.244zM16.31 43.012c-.61-.082-1.261-.204-1.872-.204-.162 0-.447.367-.407.53 0 .203.285.488.448.528.61.041 1.262-.081 1.872-.122 0-.244-.04-.488-.04-.732zM33.402 63.929c.773-.163 1.709-.245 1.75-1.71-.651-.447-1.425-.936-2.198-1.465-.244.61-.57 1.221-.732 1.872-.163.774.447 1.465 1.18 1.303zM29.21 55.139c.122.04.367-.244.57-.407-.285-.204-.57-.489-.895-.61-.122-.041-.366.203-.651.366.366.244.65.529.976.65zM32.914 60.795c.04-.04.04-.081.04-.081l-.081.04s.04 0 .04.041zM32.832 60.673c0 .04.04.04.04.04h.082c-.04 0-.081 0-.122-.04zM16.148 56.115c0 .122-.122.326-.122.326.732.529 1.505 1.017 2.32 1.587.447-1.75.447-1.75-2.198-1.913zM10.817 43.581l-.123-.203-.122.203zM36.128 54.488c-.04-.082-.325-.041-.366 0-.04.162-.04.366-.081.57.244 0 .447-.041.732-.041-.081-.204-.122-.407-.285-.53zM24.327 43.785c-1.22-.122-2.279-1.302-4.15-.407 1.586.855 2.766 1.22 4.15.407zM21.234 53.714l-.244.082.204.162z"/><path d="M1240 89.125c-1.393.85-2.373.886-3.06-.141-1.365-2.108-3.26-2.165-5.439-2.264-.162 1.82 1.752 1.246 2.536 2.457-2.499-.45-4.756-.573-7.337-1.6a187.62 187.62 0 012.68-1.576c-.605-2.093-2.543-1.865-4.114-2.718-.188-.65-.68-1.562-.536-2.326.45-2.074-.409-3.605-1.984-4.586-1.615-.993-3.525-1.564-5.493-.666-.647.316-1.332.621-2.069.953-2.04-1.842-4.266-2.635-6.967-2.126-.947.184-2.004-.26-3.06-.278-.503-.023-.982.3-1.504.485 1.191 2.692 3.923 2.787 5.757 4.185 1.794 1.386 3.9 2.44 5.92 3.64-.277.214-.577.506-.733.46-1.867-.431-3.711-.94-5.594-1.461-.987-.253-1.919-.829-2.925-.875-1.586-.092-2.888-.566-3.805-1.902-.703-1.06-1.709-1.53-2.968-1.44.042-1.134.092-2.011.161-3.095-2.264.045-4.078-.71-5.716-2.05-1.135-.89-1.209-.785-3.703-.257-.494.66.547 1.863-.782 2.187-1.15.294-2.062-.064-2.433-1.237-.215-.701-.087-1.555-.968-1.734-.674-.159-1.43-.045-2.18-.1.225 1.81.225 1.81-1.201 2.742.008.257-.109.647.051.822.937 1.13 1.947 2.154.959 3.897-.367.675.371 1.276 1.082 1.549-.42.304-.887.89-1.24.825-2.46-.438-3.162-1.073-3.437-3.704-.161-1.45-.77-2.396-1.765-3.33-1.061-.998-2.106-1.48-3.794-1.093.254.713.508 1.426.723 2.128-.705.086-1.371.184-2.603.326.757.736 1.248 1.223 1.728 1.748l.017.02c-.46.61-.694 1.317-.085 1.914.905.95 1.884 1.795 3.011 2.854-1.04 1.057-2.249.769-3.45.594.613.51 1.225 1.058 1.99 1.73-1.3.376-2.411.68-3.432.97-.327 1.092.351 1.38 1.08 1.64 1.354.447 2.757.867 4.422 1.407.354-.19 1.001-.507 1.761-.917-.106-1.349-.197-2.608-.3-3.828.842-.682 2.14-.337 2.13.552-.046 1.856.98 2.97 2.31 4.344 1.357-.274 2.993-1.059 4.218.667.242.327 1.03.393 1.572.427 3.223.157 6.4.47 9.488 1.649 1.564.595 3.466.484 5.216.455 1.583-.036 3.114-.47 4.814-.047 1.505.365 2.84-.552 3.97-1.488.78-.617 1.465-1.346 2.166-1.986 1.154.718 1.391 1.65 1.337 2.704 1.815-.19 2.323-1.461 2.53-2.992.208-1.552.43-3.142.642-4.99 1.1.159 2.21.279 3.594.48-.092 1.587.085 3.126-.35 4.44-.564 1.743.088 2.83 1.441 4.127 1.04-.496 2.143-1.058 3.526-1.707.02.644.036 1.158.08 1.723.161 1.875.934 2.7 2.695 2.633.258-.008.534-.223.815-.309.83-.219 1.559.042 1.79.833.117.46-.12 1.11-.389 1.583-.416.682-1.215 1.08-1.937.652-2.191-1.335-4.405-1.317-6.821-.766-.959.223-2.07.103-3.033-.227-1.053-.315-1.969-.376-3.017-.138-.818.18-1.847.212-2.553-.126-2.59-1.284-5.388-1.442-8.16-1.973-1.567-.299-3.162-.648-4.885-.994-1.496 1.167-3.1 2.131-5.02.453-.265-.25-.858-.257-1.294-.217-1.735.118-3.48.275-5.227.433-1.079.91.681 3.262-1.938 3.498-.612-.65-1.217-1.469-1.947-2.154-.398-.374-1.006-.896-1.443-.856-3.09.392-4.527-2.331-6.949-3.607-3.3 1.094-6.521-.21-9.765-1.01-1.778-.446-3.173-.184-4.516.901-1.198-.825-2.407-1.611-3.472-2.312-.032-1.03.584-1.1 1.18-.964.843.167 1.65.45 3.014.859-1.233-1.558-2.523-2.072-3.826-2.546-1.212-.49-2.328-1.163-3.728-1.88-.209 1.552 1.463 1.5 1.71 2.806-.37.526-.9 1.302-1.576 2.289-1.607-1.16-2.747-2.605-4.63-2.701-.257.008-.561-.253-.698-.506-1.631-2.357-3.908-2.698-6.609-2.614-2.147.08-4.315-.483-6.603-.785-.423-2.42 1.392-3.237 4.12-4.545-4.05-.234-6.962-.298-8.653-3.31.71-.382.998-.636 1.243-.605 1.864.303 3.82-.132 5.56 1.153 1.73 1.279 3.57-1.32 5.441-.12l-.012.002c1.065 1.126 2.407 1.612 3.845 1.915 1.118-.473 2.381-.86 2.465-2.279.1-1.329-.882-2.303-1.865-2.851-1.482-.868-3.159-1.794-4.808-1.82-1.777-.022-3.014-.86-4.328-1.72-.736.757-1.347 1.382-2.134 2.166.5.744 1.026 1.538 1.893 2.902-3.801-.925-7.126-1.027-10.086-2.634-.655-.366-1.4-.716-1.74-1.285-1.452-2.388-3.533-2.246-6.015-1.756.902 2.52 1.75 4.94 2.668 7.551-1.134.383-2.076.696-3.132 1.102-.996 2.336.367 5.59-2.551 7.393-.853.297-1.174-.479-1.767-.911-2.009-1.49-2.937-1.093-4.11 1.544a586.36 586.36 0 014.597 2.084c1.89 2.122 1.906 4.516 2.166 6.867-.833.252-1.705.372-2.456.777-.81.438-1.433 1.1-2.212 1.717a34.403 34.403 0 00-.867-2.213l.05-.027c-1.793-.112-3.122-.637-5.174-2.015 1.64-.656 3.878.098 5.182-2.273-2.026-.564-3.804-1.392-4.333-3.472-1.466-.691-2.723-1.379-3.114-3.3-.3-1.407-1.95-1.857-3.225-1.856-1.789.017-3.461-.356-5.15-.818-1.215-.321-2.61.103-3.916.224-.085-.396-.16-.822-.247-1.215.074-.105.183-.327.26-.304 2.394.376 3.956-1.578 5.97-2.207.09-.016.148-.21.42-.554-1.013-.303-1.96-.544-2.873-.902-1.73-.603-3.462-1.205-3.21-3.466-1.86-.599-3.381-1.054-4.94-1.52-.858.593-.736 1.182.052 1.672.76.44 1.618.697 2.316 1.203.382.284.581.896.964 1.605-1.582.036-2.845-.002-4.116.128-.873.079-1.687.387-2.556.595-.09.015-.11.222-.253.561 1.093 1.601 3.719.773 4.695 2.764-.801 1.544-4.07-.453-3.77 2.525l-3.9-1.166c.278 1.06.454 1.75.661 2.619-.479.226-1.004.478-1.486.707a39.198 39.198 0 00-1.033 1.895c.562.677.991 1.23 1.486 1.846-.163.12-.35.32-.467.285-2.132-.256-4.261-.807-6.74-.19.818-1.029 1.387-1.793 2.006-2.585-1.698-1.995-4.609-1.633-6.069-3.854.815-.309 1.567-.55 2.662-.945-1.346-1.465-3.108-1.397-4.372-2.285-1.04.496-1.924 1.039-2.867 1.351-.791.231-1.641.232-2.616.365.621.908 1.16 1.664 1.643 2.318-.782.913-1.243.18-1.757.196-.515.016-1.177.243-1.461.625-.495.66-.365 1.505.356 1.933 1.01.6 2.106 1.055 3.186 1.42 1.08.366 2.245.587 3.594.905-.754 1.814-.542 3.66-1.85 5.054-.25.265-.386.861-.284 1.231.246.881.575 1.914-.536 2.219-.73.2-1.617-.305-2.437-.517.514-.866.934-1.844 1.592-2.624.783-.913.794-1.802.645-2.866-.2-1.461-.677-2.283-1.994-2.422-1.899-.186-3.774-.45-5.416-1.492-.035-.308-.175-.69-.051-.823 2.02-2.496 2.068-2.652-.915-3.332-1.66-.411-2.27-1.783-3.522-2.71-1.789.018-3.656.012-5.406.04-.258-.417-.523-.666-.531-.923-.004-.553.12-1.111.205-1.68.896-.157 1.613-.282 2.46-.412-.13-.42-.173-.986-.434-1.106-1.463-.65-2.96-1.183-4.757-1.847-.092 2.436-1.057 4.101-2.49 5.626-.499.53-.61 1.474-.91 2.192-1.096-.03-2.008-.388-2.442-1.495-1.154-.219-2.088-.75-2.395-2l2.387 1.318c.825-1.198 1.65-2.395 1.86-3.946.159-1.1.653-2.184 1.002-3.353 1.006.046 1.794.111 3.095.16-.538-.755-.846-1.145-1.092-1.6-.328-.608-1.034-1.372-.883-1.878.626-2.234-.292-3.995-1.287-5.78-2.363-.621-4.698-1.192-7.06-1.814-1.23-1.854-3.244-.8-4.96-1.313-.27-.378-.484-1.08-.94-1.258-3.76-1.634-7.583-2.056-11.39-.263-.545.261-1.36.995-.833 1.79.933 1.425.13 2.12-.874 2.924-.214.148-.241.522-.42.978.398.446.857.95 1.319 1.455l.02.005-.009.008-.011-.013c-.004 0-.008 0-.012-.002l.02.019c-1.097 1.088-1.025 1.175.442 2.413.841-.895.087-1.616-.225-2.384 1.722.309 3.675-.569 5.423 1.05-1.804.353-3.718.502-3.486 2.993 2.358-1.207 3.476-1.254 6.763-.314-.272.768-.544 1.536-.887 2.538-.776-.529-1.435-1.023-2.067-1.467-.825.772-1.678 1.494-2.555 2.294.028.05.051.397.196.483 1.22.747 1.76 2.353 3.342 2.741.117.035.223.959.048 1.119-.276.214-.795.102-1.231.141l-.033.019c-.399-.21-.794-.452-1.189-.678.024-.079.056-.155.072-.236.04-.203-.122-.57-.285-.732-.163-.122-.61-.204-.773-.082-.168.135-.33.274-.496.41-.082-.019-.165-.04-.248-.05-1.913-.322-2.913-1.485-3.618-3.062l.033-.007c-.094-.963-.216-1.976-.353-3.08-1.354-.871-2.785-1.766-4.244-2.712-.639.148-1.356.274-2.046.45l.09-.016c.87 1.917 3.01 2.005 4.435 3.068.107 1.03-.446 1.537-1.36 1.73.336 1.284.732 2.504.889 3.82.023.348-.565.894-1.02 1.14-.203.109-.897-.268-1.022-.56-.446-1.068-.739-2.218-1.106-3.262-.523-.241-.916-.487-1.306-.603-1.985-.466-2.44-.22-2.887 1.558-.128.428-.05.877-.14 1.317-.081.273-.268.472-.44.76-2.365.525-3.01-2.004-4.858-2.642.74-.628 1.254-1.069 1.994-1.697-.78-.658-1.494-1.254-2.13-1.826-3.65 2.264-3.65 2.264-4.345 5.156-1.236.013-2.476-.103-2.22-1.81.167-1.112-.554-1.558-1.18-2.111 1.07-.61 2.15-1.258 3.282-1.933-.574-.214-1.12-.377-1.654-.58-.9-.396-1.361-1.129-1.12-2.076.283-1.232.696-2.468 1.057-3.677.49-1.637 1.405-2.85 3.708-2.883.32.54.726 1.238 1.14 1.954-.135.03-.265.063-.393.095.147-.025.28-.044.413-.062l.16.276-.028-.05c1.053-.11 1.305-1.097 1.932-1.631.452-.375 1.267-.259 2.19-.365.068 1.762.151 3.189.223 4.654-1.145.456-2.054.817-3.009 1.202 1.19.774 2.38 1.55 3.663 2.434-.624.238-1.107.434-2.315.922 1.802.794 2.82 1.225 4.06 1.766.548-.983 1.011-1.821 1.56-2.804-.434-1.106-.922-2.314-1.383-3.472.171-.288.276-.639.479-.748 1.18-.54 2.427-1.016 3.608-1.555l.05-.027.07-.06c-.126.413-.002.752.575.89.156.046.534-.223.58-.379.117-.644-.241-.845-.78-.843.607-.53 1.23-1.066 1.974-1.73-1.545-1.652-3.431-1.876-5.263-2-2.928-.153-5.883-.357-8.83-.304-1.71.04-3.394.557-5.455.917-1.416-1.23-3.533-.971-5.59-.907s-4.116.553-6.108.255c-2.043-.272-4.08 1.285-6.065-.03-1.688.387-3.402.724-5.5 1.201 1.928 2.36 4.442 2.05 6.52 2.63.192.354.278.634.453.9.68 1.137-1.678 1.494-.664 2.647.76.864 1.707-.17 2.514.114 1.603.607 3.146.559 4.752.02.33-.114.78.233 1.17.35.043 1.414-1.442.843-1.82 1.537-.525.904-1.05 1.81-1.42 2.76-.26.73-.299 1.568-.442 2.332-2.084-.542-.573-3.684-2.986-3.78-.085-.225-.17-.446-.256-.645-.203.122-.407.285-.61.407.048.097.077.212.105.322-1.114.338-1.54 1.528-2.347 2.34-.872.93-2.037 1.558-3.12 2.338.617.78 1.533 1.69 1.036 3.07.199.188.362.492.635.573.964.33 2 .556 2.94.964.3.133.59.729.535 1.052-.054.324-.557.726-.864.761-.566.044-1.139-.17-1.685-.333-.545-.164-1.08-.366-1.836-.677-.113.377-.218.73-.323 1.094l-.407.012c-1.71.082-2.97-.854-4.395-1.343l.04-.04h-.08v.04c-.084.023-.168.048-.251.073-.69-.974-1.34-1.948-2.07-2.962-1.342.285-2.441.53-4.11.936 2.147 1.62 4.132 1.87 6.157 2.032-.518.153-1.033.328-1.517.328-1.14 0-1.628.651-2.035 1.547-.936 1.098-1.75 2.604-3.622 1.627.366-.325.733-.61 1.099-.895-.733-2.035-.773-2.075-2.076-3.337-.488 2.32-.57 2.483-2.4 1.547-.937-.448-1.588-.041-2.36.081-.367-.366-.733-.855-1.181-.977-.895-.285-1.872-.325-2.808-.529-.977-.203-1.953-.488-3.744-.895 2.442-.204 4.029-.366 5.616-.53-.163-.935-.326-1.83-.488-2.848a92.775 92.775 0 00-3.5-.61c-.977-.163-2.075.04-2.89-.366-1.586-.774-2.97-.651-4.069.285-1.18-.733-2.034-1.465-3.011-1.791-1.343-.448-2.808-.895-4.151-.733-3.459.407-6.715-.691-10.092-.895-1.628-.081-3.378.244-4.802-1.14-.53-.488-1.628-.325-2.442-.447-1.953-.285-3.907-.61-5.86-.854-.529-.082-1.383-.326-1.587-.082-1.18 1.343-2.4.407-3.54.122-6.064-1.505-12.25-2.441-18.435-3.133-3.093-.326-6.185-.61-9.238-1.18-4.272-.774-8.464-1.954-12.9-1.587-.65.04-1.465-.082-2.034-.448-1.425-.895-2.89-.977-4.477-.895-1.099.081-2.36.04-3.377-.367-3.012-1.22-6.512.122-9.36-1.83-3.174 1.016-6.104-.164-9.034-1.14-.122-.041-.285.04-.407 0-2.645-.448-5.372.162-7.936-.896-.488-.203-1.14-.04-1.709 0-1.994.082-3.866-.081-5.86-.732-2.238-.733-4.68-1.18-7.04-1.099-3.744.122-7.122-1.831-10.865-1.424-4.233-1.343-8.71-1.018-13.023-1.872-4.15-.773-8.423-1.058-12.615-1.547-2.197-1.342-4.64-.813-7-.773-1.993 0-3.947.285-5.94.244-1.954-.04-3.867-.407-5.82-.488-5.535-.203-11.069-.366-16.563-.529-1.994-.081-3.988-.122-5.941-.244-8.465-.488-16.97-.936-25.434-1.546-2.36-.163-4.761-.61-7.04-1.262-.977-.285-1.79-.488-2.808-.326-1.099.163-2.28.041-3.419.041-2.685-.04-2.685-.04-4.802 2.279-1.668-.122-3.54-.163-5.33-.448-3.215-.529-6.552.204-9.686-.976-.122-.04-.285 0-.407.04-3.337 1.018-6.47-.244-9.604-.976-2.97-.692-5.778-.814-8.83.04-.651-.366-1.343-.854-2.116-1.261-1.18-.61-1.221-.57-2.605 1.384 1.18.407 2.32.813 3.46 1.22-.448.692-1.222 1.669-1.1 1.75 1.791 1.75-.08 2.727-1.017 3.988 1.913 2.076 1.506 4.436 1.017 6.796-.732.163-1.505.326-2.278.53-.53-.896-1.059-1.791-1.628-2.727-1.099.692-1.994 1.343-2.97 1.831-.326.163-.896-.122-1.344-.203.977-.733 1.71-1.262 1.14-2.442 0 0 0-.04-.041-.04-1.628-2.524-3.378-4.966-5.82-6.756-.121-.122-.528.122-.854.203-.04 1.14-.04 2.32-.081 3.704-.896-.407-1.465-.692-2.076-.977-.61.57-1.18 1.099-1.75 1.628-.447-.53-.244-1.628-1.546-1.343-.04.732.122 1.628-.122 2.32-.285.732-.855 1.424-1.465 1.912-.61.448-1.465.57-2.36.895a57.769 57.769 0 00-.163-2.93c-1.954-.814-3.907-1.587-5.982-2.441 0-.692-.04-1.384-.04-2.076 1.098-.65 2.156-1.424 3.54-1.14-.977-1.424-2.768-1.871-4.03-1.668-1.668.244-2.482-1.098-3.743-1.302-.04.122-2.076 4.802-2.116 4.883-1.099.163-2.238.326-3.663.53.244-.774.407-1.14.489-1.506.08-.367.08-.774.162-1.425-1.22-.203-2.32-.407-3.377-.61-.407.244-.855.651-1.262.651-.488 0-1.058-.244-1.424-.57-.61-.488-1.099-1.098-1.71-1.668-1.302 2.564-1.139 3.011.896 3.418.855.163 1.71.204 2.523.407.448.122.855.489 1.22.773-.65 1.425-1.79 1.628-2.604 1.262-2.279-1.017-4.68-1.017-7.08-1.017-.692 0-1.384-.326-1.384-1.506 1.14-.489 2.36-1.017 3.662-1.587-3.092-3.378-4.964-3.134-6.551.692-.204.488-.489.976-.855 1.668-2.279.04-4.558.326-6.755 0-4.395-.651-8.709-.529-12.982.692-.163.773-.366 1.546-.61 2.564h-3.54c-.326-.855-.448-1.587-.814-2.157-.367-.53-.936-1.262-1.465-1.262-.489 0-1.018.692-1.547 1.099-.366.163-.773.326-1.14.53-1.586-1.873-1.75-2.036-2.889-1.914-.284.041-.57.489-.732.814-.204.367.854.773-.204 1.343-.936-1.14-1.83-2.279-2.726-3.377-.773 0-1.465-.041-2.157-.041-.04 1.343-.366 2.36-2.035 2.32-.65 0-1.302.284-1.953.406-.474.222-.923.167-1.329-.076.304.057.607.113.922.158.163-.773.326-1.587.448-2.442-1.447-.076-1.684.986-2.042 1.956-.7-.295-1.315-.654-1.458-1.549-.04-.407.04-.854-.04-1.261-.245-1.018-.977-1.547-1.791-1.384s-1.14.773-1.099 1.546c.04.855.081 1.669.163 2.686 5.209 1.872 10.377 3.785 15.749 5.168-1.425.041-2.808-.203-4.192-.244-3.174-.04-6.226-1.587-9.482-.529-1.343-.977-2.89-.854-4.436-.65-.406.04-.854-.082-1.22-.245-1.79-.895-3.785-1.099-5.738-1.465-1.058-.204-2.116-.733-3.093-1.262-3.256-1.79-6.796-2.686-10.214-3.906-1.587 1.505-3.134 2.767-5.25 2.726-.081 0-.163.448-.325.895.57.245 1.18.57 1.79.814.855.285 1.546.733 1.831 1.628.733 2.36 2.768 3.093 4.72 3.866.896.366 1.954.488 2.809.895.814.367.692 1.058-.04 1.913-2.524-1.424-5.413-1.831-8.303-2.035.326.245.61.61.936.692 2.483.61 4.233 2.157 5.698 4.192.162.203.488.244.732.366.204-.122.448-.285.651-.407.204-.163.489-.448.651-.407 1.343.407 2.646.895 3.948 1.384 0 0-.041.244-.082.366-.419.419-1.397-.069-1.521.966-.03.01-.06.013-.089.022-.081 0-.04.489-.04.733.333-.022.683-.045 1.048-.067 3.218 1.507 6.94 1.604 10.532 2.863-.651.244-1.099.448-2.035.773 1.79.448 3.011 1.628 4.599.285.203-.163.935-.122 1.017.04.529.896 1.424.815 2.238.937 1.017.162.448 1.14.855 1.872.345-.053.692-.1 1.04-.141.284.23.589.471.894.717l.002.016.015-.002.088.07c-.013-.012-.028-.024-.028-.038 1.289.12 2.578.24 3.867.242.615.308 1.472.356 2.22.356 2.668-.04 4.594 1.326 6.43 3.062-.304.16-.61.314-.92.45-1.18.53-2.93.285-3.458-.895-.692-1.506-1.872-1.75-3.174-1.79-1.18-.041-2.32.203-3.5.243-1.079 0-1.45-.746-1.54-1.698-.832.092-1.696.39-2.407.152-1.986-.689-3.568-.125-5.028 1.246-.217-1.053-.746-1.902-1.89-2.06-.977-.163-2.035-.203-3.052-.163-2.117.041-3.785-.447-4.314-2.807-.244-1.018-1.058-1.384-1.953-1.547-.692-.122-1.465-.163-2.198-.163-1.424-.04-2.116-.854-2.442-2.116-.04-.163-.488-.163-.814-.244-.854.855-2.197 1.343-2.441 2.727.814.936 3.133.081 2.482 2.441-1.953.082-3.418-.732-4.802-1.953-1.099-.936-2.32-.977-3.744-.488-1.84.672-3.276 1.562-3.273 3.495-.122-.044-.246-.09-.366-.13 0 0-.203.244-.162.326.122.407.244.814.325.976l.307-.037a.396.396 0 01-.086.212c-.285.244-.61.489-.895.733-.204-.326-.57-.651-.61-1.018-.204-2.726-.286-2.93-2.524-2.848-1.872.081-3.459-.163-4.843-1.628-.488-.53-1.465-.61-2.197-.895.203-.774.366-1.343.488-1.832-1.994-.773-3.825-1.627-5.778-2.197-1.1-.326-2.401-.04-3.5-.366-1.18-.326-2.279-1.058-3.46-1.628-.558.799-.96 1.401-1.36 2 .92.83 2.055.734 3.192.93 1.424.244 1.831 1.343 1.099 2.645-.57 1.017-1.384 1.953-1.669 3.052-.284 1.017 0 2.198 0 3.418-2.563.61-4.924 1.059-7.406.041a6.697 6.697 0 00-5.168.04c-.692.245-1.424.367-2.157.448-1.343.163-1.628-.366-1.18-2.4.977 0 1.994-.041 3.011 0 3.907.162 3.907.162 4.273-3.663.04-.285-.081-.57-.203-1.099h-2.442c-.163 1.058-.285 1.872-.448 2.808-3.052-.692-5.9-1.343-8.749-2.035-.936-.244-1.546-.936-1.709-1.83-.152-.952-.164-1.903-.231-2.855l.067-.026-.07-.03-.006-.072c-1.212-.436-2.574-.492-3.178-1.983-.367-.895-1.221-1.18-2.198-1.098-.692.081-1.424-.082-2.075-.163-.367-.529-.651-.855-.814-1.262-.936-2.197-2.442-3.052-4.924-2.482-1.384.326-3.052.285-4.355-.244-2.523-1.017-4.842-.855-7.487.529-.082-1.546-.407-2.523-1.547-3.256-1.343-.854-2.808-1.14-4.232-.936-2.157.326-4.11-.081-6.104-.65-1.099-.326-2.279-.652-3.418-.774-.489-.04-1.221.407-1.425.814-.203.407-.04 1.18.244 1.587.774 1.099 1.913 1.302 3.134.855 1.587-.57 3.093-.855 4.64 0 .447 1.098 0 1.83-1.14 1.75-1.872-.123-3.785-.489-5.657-.692-2.686-.285-5.453-1.425-8.26.407.08 1.953.203 3.866.284 5.778-2.564.489-2.727-2.36-4.517-2.645-.488-1.628-.936-3.255-1.424-4.924-2.36-.325-2.36-.285-4.314.855-.603.322-1.366.366-2.051.564-.056-.276-.044-.617-.228-.727-1.22-.773-2.442-1.587-3.744-2.075-.447-.163-1.383.325-1.872.732-.366.326-.407 1.099-.692 1.587-.691 1.18-1.83 1.017-2.563-.366-.244-.448-.448-.936-.692-1.425-1.628.407-2.32 2.93-4.273 1.343.285-1.058.651-2.034.244-3.296-.244-.814 1.221-1.831.651-3.174-1.668.285-3.011 1.75-4.72.855l-.003.005c-.7-.626-1.366-1.25-1.991-1.837.325-.773.57-1.383.976-2.36-1.452-.04-2.544-.04-3.634-.08l-.016-.013.029-.029-.036.024-.074-.055c.015.025.035.047.051.071-.596.43-1.256.792-1.65 1.344-.489.65-.733 1.505-1.1 2.32-1.586-.245-2.97-.49-4.354-.693-.162-1.79 2.483-1.14 2.198-3.011-.651-.285-1.262-.651-1.953-.855-.855-.244-1.75-.325-2.605-.407-2.93-.203-5.982 0-8.75-.732-2.115-.57-2.97-.04-3.784 1.628-.122.285-.651.366-1.099.61a649.774 649.774 0 01-1.587-3.54c-1.953-.204-3.703-.448-5.453-.57-.732-.081-1.465.203-1.627 1.384.854 1.098 1.79 2.36 2.848 3.54 1.22 1.343 1.506 2.808.855 4.476-1.37-.037-2.778.11-3.826-1.22-.529-.692-1.302-1.14-1.994-1.669l.041.082a79.745 79.745 0 01-3.052-.53c-1.75-.325-2.808-1.465-3.337-3.092-.163-.57-.163-1.18-.325-1.75-.733-2.97-1.669-3.46-4.762-3.052-1.75.244-2.523 1.22-3.174 2.645-.081.203-.529.203-.936.366-.407-1.058-.854-2.075-1.302-3.174-.936-.244-1.79-.529-2.645-.61-1.913-.123-3.948.203-5.738-.326-1.953-.61-3.785-1.546-5.9-1.18-3.5-1.587-7.244-1.221-10.907-1.547-1.302-.122-2.604-.488-3.907-.732-3.5-.61-6.918-1.628-10.54-1.22-1.139.121-2.32-.286-3.5-.49-.894-.162-1.75-.447-2.604-.488-4.273-.162-8.545-.203-12.818-.325-.855-.04-1.71-.326-2.564-.448-1.424-.203-2.849-.447-4.314-.529-1.424-.081-2.523-1.627-4.191-.773-.489.244-1.425-.163-2.035-.448-.773-.366-1.465-.895-1.953-1.22-2.28.325-4.192.65-6.796 1.058a516.21 516.21 0 007.528 2.685c-2.564 1.71-5.372.204-7.813 1.1-.163 1.057-.326 1.993-.448 2.848a686.32 686.32 0 01-8.115.283c.536 1.02 1.577 1.186 2.54 1.507.936.326 1.831.733 3.215 1.303-.855.732-1.302 1.424-1.831 1.505-1.1.163-2.239.041-3.663.041.651 1.017 1.099 1.71 1.628 2.564-1.14.895-2.116 1.75-3.418 2.808-2.157-2.849-4.965-2.116-7.854-1.994.203.773.366 1.302.529 1.953-.489.244-1.1.407-1.465.773-.53.53-.814 1.221-1.303 1.79-.529.57-1.505.408-1.872-.284-.407-.733-.65-2.076-1.139-2.157-2.157-.326-3.215-1.953-4.64-3.215-.488-.407-1.26-.529-1.953-.773-.366.855-.61 1.465-.936 2.238-2.889-1.058-2.075-3.825-2.726-5.778-3.378.61-5.779 2.482-8.139 4.028-.325.977.366 1.872-.854 2.36-.245-.04-.733-.04-1.1-.203-3.54-1.628-7.161-2.238-11.109-1.628-2.482.407-5.209.733-7.732-.285.244-1.464.448-2.726.692-4.191-.651.244-1.14.285-1.424.529-.936.936-1.587 1.994-1.628 3.46-.04 1.143-.585 2.24-2.027 2.306.02-.26.106-.543.033-.76-.081-.367-.285-.692-.448-1.018-.244.163-.65.285-.65.407 0 .325.121.732.325 1.017.112.187.424.239.664.34l-.054.027c.031 0 .056-.008.086-.009v-.006l.013.005-.013.001.005.037c-.005.009-.003.019.005.03.076.538.155 1.091.27 1.936 1.14-.367 2.076-.692 3.093-1.018 1.099.692 2.89.53 3.215 2.076-.244 1.628-2.604.57-2.279 2.686.733.162 1.587.488 2.401.488 1.628 0 3.256-.204 4.883-.326 1.872-.122 3.704.244 5.78 1.221-1.344.082-2.198.285-3.012.163-1.75-.326-3.337.081-4.395 1.384-1.669 2.116-3.907 2.482-6.267 2.563-1.343 0-2.645-.285-3.988-.366-1.506-.122-1.71.081-2.239 2.442a51.606 51.606 0 002.117-.285c.244.61.406 1.22.732 1.668.855 1.1 2.442 1.628 2.97.814 1.1-1.668 2.076-.976 3.338-.325-.53.65-1.058 1.261-1.628 1.953.57.366.895.773 1.261.855 1.75.284 3.5.488 5.25.691 1.343.163 1.384.122 2.157 2.198-2.966-.117-6.191-1.458-8.676 1.158a29.314 29.314 0 00-3.788-.639c-1.401-1.187-2.583-1.268-4.245-.388-1.253-.118-2.503-.263-3.74-.508-4.15-.773-8.423-1.058-12.615-1.546-2.197-1.343-4.639-.814-6.999-.773-1.994 0-3.947.285-5.941.244-1.954-.04-3.866-.407-5.82-.488-5.534-.204-11.069-.367-16.562-.53-1.994-.08-3.988-.121-5.942-.244-8.464-.488-16.97-.935-25.434-1.546-2.36-.163-4.761-.61-7.04-1.261-.977-.285-1.79-.489-2.808-.326-1.099.163-2.279.04-3.418.04-2.686-.04-2.686-.04-4.802 2.28-1.669-.122-3.54-.163-5.331-.448-3.215-.529-6.552.203-9.685-.977-.122-.04-.285 0-.407.041-3.337 1.017-6.47-.244-9.604-.977-2.97-.691-5.779-.814-8.83.041-.652-.366-1.344-.855-2.117-1.262-1.18-.61-1.22-.57-2.604 1.384 1.18.407 2.32.814 3.459 1.221-.448.692-1.221 1.668-1.1 1.75 1.791 1.75-.08 2.726-1.017 3.988 1.913 2.075 1.506 4.436 1.018 6.796-.733.163-1.506.325-2.28.529-.528-.895-1.057-1.79-1.627-2.727-1.099.692-1.994 1.343-2.97 1.832-.326.162-.896-.123-1.343-.204.976-.732 1.709-1.261 1.139-2.442 0 0 0-.04-.04-.04-1.628-2.523-3.378-4.965-5.82-6.756-.122-.122-.53.123-.855.204-.04 1.14-.04 2.32-.081 3.703-.895-.407-1.465-.692-2.075-.977-.61.57-1.18 1.1-1.75 1.628-.448-.529-.244-1.628-1.547-1.343-.04.733.122 1.628-.122 2.32-.285.732-.854 1.424-1.465 1.913-.61.447-1.465.57-2.36.895a57.698 57.698 0 00-.163-2.93c-1.953-.814-3.906-1.587-5.982-2.442 0-.692-.04-1.383-.04-2.075 1.098-.651 2.156-1.425 3.54-1.14-.977-1.424-2.767-1.872-4.029-1.668-1.668.244-2.482-1.099-3.744-1.302a583.27 583.27 0 01-2.116 4.883c-1.099.163-2.238.325-3.662.529.244-.773.407-1.14.488-1.506.081-.366.081-.773.163-1.424-1.221-.204-2.32-.407-3.378-.61-.407.244-.855.65-1.261.65-.489 0-1.059-.244-1.425-.57-.61-.487-1.099-1.098-1.709-1.668-1.302 2.564-1.14 3.012.895 3.419.855.163 1.71.203 2.523.407.448.122.855.488 1.221.773-.65 1.424-1.79 1.628-2.604 1.261-2.28-1.017-4.68-1.017-7.081-1.017-.692 0-1.384-.325-1.384-1.506 1.14-.488 2.36-1.017 3.663-1.587-3.093-3.377-4.965-3.133-6.552.692-.203.488-.488.977-.855 1.669-.812.014-1.624.06-2.433.097v57.783c.161.156.327.304.48.475-.158.065-.32.122-.48.183V150h1240V89.125zm-51.13-3.729a158.8 158.8 0 01-2.763-1.508c.295-.007.589-.011.875.01-.07-.192-.14-.382-.261-.546-.218.169-.456.332-.684.497l-.048-.026c-.127-.657-.206-1.367-.435-1.967-.232-.606-.596-1.172-.917-1.762.717-.974 2.414-1.4 1.727-3.22-.125-.292.206-.83.44-1.185.136-.172.545-.262.779-.192.234.07.55.292.608.522.13.42.235.92.08 1.298-.93 1.973-.376 3.668.53 5.468.317.647 1.167 1.496.069 2.611zm1.556-2.932l-.008-.257.25.16-.242.097zm-.019-4.338c.568-.765.989-1.319 1.483-1.978.375.877.735 1.664 1.426 3.187-1.435-.599-2.153-.898-2.909-1.21zm6.79 5.131c-1.033-.946-1.708-1.53-3.046-2.737 1.785.244 2.763.368 3.719.489l-.672 2.248zm.767-2.336c.06-.463.126-.95.162-1.336-1.045-.483-2.245.687-2.917-1.043 1.871-.29 3.473-.533 5.077 1.349-.895.388-1.611.71-2.322 1.03zm26.579 4.78l.144-.34.164.304-.308.036zm-77.636-11.962c.07-.234.296-.421.444-.632.16.176.5.32.52.538s-.152.507-.328.667c-.204.14-.481.146-.75.22.04-.278.046-.565.114-.793zm-133.404-14.665l.02.218-.273-.081.253-.137zm-28.951 1.366c-.234-.07-.406-.206-.617-.354.164-.121.328-.242.542-.39.11.202.27.377.39.541-.101.055-.237.226-.315.203zm3.126.765c-.128.004-.257.008-.323-.054-.012.039-.004-.129-.02-.218.129-.004.257-.008.335.015.04.012-.007.168.008.257zM532.806 48.911c.407-.245.692-.489.814-.448 1.18.61 2.28 1.262 3.826 2.116-1.913-.407-3.54-.203-4.64-1.668zm33.858 10.499c-.122-.082-.203-.163-.325-.204.122-.04.284-.162.366-.122.163.082.244.244.366.367-.163-.041-.285-.041-.407-.041zm5.494-2.605c-.733-.122-1.465-.284-2.198-.407v-.04c.733.122 1.465.285 2.198.407v.04zM2.23 122.651c.04-.204.081-.448.163-.61.04-.082.244-.082.325-.123.041.204.082.366.122.57-.162.081-.407.122-.61.163zm-.61-55.508c-.977 0-1.262-.854-1.262-1.75 1.465-.406 1.465-.406 3.011 0 .123 1.303-.732 1.75-1.75 1.75zm27.183-6.266c.082.08.245.122.245.203.081.204.122.407.162.651a1.674 1.674 0 01-.529-.325c-.081-.082.082-.326.122-.53zm-1.75 2.116c-1.18 1.994-1.18 1.994-3.174.814 1.384-.326 2.117-.53 3.175-.814zm-21.69 7c.407-.733.936-1.344.977-1.954.04-.773-.325-1.547-.488-2.32 2.848.204 2.89.204 4.07 1.994-1.832-.081-2.402 2.198-4.559 2.28zm4.68-1.914zm1.71 54.612c-.041 0-.082-.203-.082-.325.244-.04.488-.04.733 0 .04 0 .081.203.122.325-.245 0-.53.041-.773 0zm.203-56.728c1.506.285 2.767.53 4.273.774-2.401 1.302-2.442 1.261-4.273-.774zm10.784 63.524c-2.238.082-4.476.082-6.715.122h-.04c-.936-.691-1.872-1.383-3.337-2.441 4.11 1.017 7.772-.122 11.231 1.383.041.896-.61.936-1.139.936zm-3.133-62.303c-.082-1.22 1.22-1.058 1.994-1.587.935 1.18 2.32 1.424 3.703 1.75.814.203 1.628.488 2.36.814.163.081.326.57.244.732-.203.285-.732.733-.854.651-2.28-1.342-5.331-.122-7.447-2.36zm9.726 62.181c-.611-.081-1.221-.162-1.832-.203 0-.163.04-.326.04-.488.611.08 1.222.203 1.832.325 0 .122-.04.244-.04.366zm2.278-61c-.04 0-.162-.163-.244-.245.163-.081.366-.203.61-.285.082.082.204.163.286.244-.204.123-.448.245-.652.285zm9.767 1.546c-.04-.163-.04-.326-.081-.448.366 0 .773.04 1.18.081l-1.099.367zm1.628 5.738c-.122-.082-.204-.163-.326-.285.163-.082.367-.163.53-.163.04 0 .121.244.162.366-.122.04-.244.04-.366.082zm4.436-9.197c0-.122-.041-.244 0-.326.04-.081.203-.122.284-.163 0 .163.041.326.041.489h-.325zm12.33 5.046l-.855-.733c.367.122.733.204 1.1.285-.082.163-.164.285-.245.448zm13.388-.204c-1.18-.203-2.278-.407-3.377-.61l.04-.04c-.024 0-.036-.004-.048-.013a40.614 40.614 0 00-1.132-1.656c.12.72.283 1.397 1.1 1.653v.015c-2.117.244-2.443.082-2.565-1.546-.04-.692.041-1.384.082-2.076.285.041.57.122.854.163 0-.366-.04-.732-.081-1.383-.366.529-.57.854-.814 1.139-1.424-.244-2.645-.203-3.825 1.058-1.221 1.262-2.116.814-2.36-1.058.08-.203.244-.488.325-.814 1.14-.285 2.32-.488 3.418-.895.977-.326 1.872-.855 3.052-1.424-1.505-.489-2.685-.896-3.906-1.262-.977-.244-1.669-.936-1.384-1.79.244-.692 1.058-1.466 1.75-1.628 1.18-.285 2.482-.082 3.785-.082.122.651.284 1.303.447 1.954 1.14.936 2.238.366 3.093-.326 1.465-1.14 3.174-1.14 4.843-1.18.407 0 1.261.61 1.22.855-.203 1.627 1.018 1.79 2.035 2.238.163.04.163.488.285.895-1.506.081-3.011.203-4.72.285-1.018-.855-1.791-2.97-4.03-1.18.286 1.79.041 3.744 1.506 5.575.774.04 1.71.081 3.053.163-1.059 1.22-1.872 2.116-2.646 2.97zm3.663-4.557l.081-.204.204.163-.285.04zm3.174 1.75c-.651-1.303-.57-1.995.163-1.954 1.22.081 2.442.244 3.703.326 0 .203.04.366.081.57-1.342.366-2.685.732-3.947 1.057zm2.401-6.105c1.384-.895 2.075-.773 3.215.57a137.265 137.265 0 00-3.215-.57zM97.455 74.55l.163-.244.04.285-.203-.041zm1.71-10.662c-.774.244-1.629.692-2.402.57-2.4-.326-4.802-.896-7.772-1.506.936-.407 1.261-.733 1.627-.733 2.768.082 5.575.204 8.343.367.162 0 .407.407.447.61.041.244-.122.651-.244.692zm8.097 6.877c-.162-.244-.366-.529-.529-.814.245-.122.57-.366.692-.284.285.203.489.529.733.813-.244.041-.489.123-.896.285zm6.878-5.412c-.53.081-1.18.285-1.669.081-2.238-1.017-4.558-1.098-7-.936 2.85-1.14 5.739-.65 8.669-.407.162 0 .407.448.407.651 0 .204-.245.57-.407.61zm3.784 11.069l.204-.285.081.366-.285-.081zm7.325 1.261c-.04-.04-.081-.162-.04-.285.04-.08.162-.122.284-.162.041.162.041.325.082.488-.122 0-.204-.04-.326-.04zm4.11-8.464c-1.872.814-4.11-.57-5.208 1.831-.57-.814-1.058-1.506-1.506-2.075.61-.651 1.343-1.384 2.157-2.198 1.18.082 2.441.082 3.703.326 1.058.203 1.22 1.017.854 2.116zm9.482-.081c-.081-.041-.081-.204-.122-.326.082-.04.163-.122.285-.204.081.163.122.367.204.53-.123 0-.285.08-.367 0zm80.676-17.448c.244 0 .53.447.773.692-.325.162-.691.407-1.058.447-.203.04-.407-.285-.732-.529.366-.244.692-.61 1.017-.61zm-3.5 11.028c2.36-.855 3.826-.448 5.454.04-1.588 1.14-1.588 1.14-5.454-.04zm13.023-19.493c-.367-.04-.774 0-1.1-.122-.121-.04-.121-.407-.203-.65.245 0 .489-.042.733-.082.203.163.407.325.61.529.041.04-.04.325-.04.325zm33.532 2.198a1.237 1.237 0 01-.204-.285c.163.04.367.122.57.163l-.366.122zm93.597-1.384c.204.082.407.244.61.366-.244.163-.447.326-.65.448-.123-.203-.204-.448-.326-.651.122-.04.285-.203.366-.163zm-3.459 8.79c1.384-.976 2.523-.692 4.314.204-1.872.203-2.971.65-4.314-.204zm10.133 1.628c-.366-.122-.366-.081-1.058-1.628 1.587 0 3.133-.163 4.68 0 .783.079 1.49.68 2.195 1.088-1.91.421-3.786 1.337-5.817.54zm6.837.244a7.77 7.77 0 01-.814-.734c.365-.006.725-.03 1.017.042.122 0 .122.407.163.651-.122.041-.285.082-.366.041zm.04-6.959h-.036l2.826-.471c-.798.814-1.677 1.226-2.79.471zm4.273 10.907c-.691.122-1.505.284-2.686.529.123-1.14.245-1.913.285-2.727.041-.692.041-1.384.041-2.197 1.994-.61 2.727.203 3.378 1.465-.285.813-.61 1.75-1.018 2.93zm-.65-11.029c-.23-.076-.495-.258-.73-.381.244-.89.487-1.784.851-3.24.692.976 1.221 1.465 1.506 2.075.488 1.14-.203 1.831-1.628 1.546zm13.388-3.255c.203-.04.447.163.65.244-.121.203-.243.488-.406.57-.204 0-.448-.204-.651-.285.122-.204.244-.489.407-.53zm-7.488 13.917c-.082 0-.204-.081-.285-.162 0-.123.04-.204.04-.326l.49.244c-.082.082-.164.244-.245.244zm6.796 2.116c-.57-1.18-1.018-2.034-1.506-3.011-.366-.081-.814-.366-1.18-.326-1.668.245-3.174-.284-4.68-.936-.325-.122-.529-.61-.977-1.22.896-.245 1.832-.774 2.157-.53 1.872 1.425 3.744 1.791 6.104 1.547 1.384-.122 2.89 1.18 4.721 1.994-1.71.895-3.052 1.628-4.64 2.482zm11.232.163c-.163-.203-.448-.407-.448-.61-.04-.163.244-.366.366-.57.163.204.407.407.448.61 0 .163-.244.367-.366.57zm3.743-7.813v-.285l.204.081-.204.204zm21.324 5.494l-.081.244-.204-.163.285-.081zm-3.215-5.331c.37 0 .74.131 1.109.217-.302.231-.606.486-.946.637-.163.04-.447-.203-.65-.325.162-.204.325-.53.487-.53zm.53 3.377c-.123.082-.245.122-.326.204-.04-.163-.122-.367-.163-.53.122 0 .285-.04.366.041.082.041.082.163.122.285zm5.94 10.377c-.08 0-.162-.122-.284-.162.04-.123.04-.245.04-.326l.49.244c-.082.082-.164.244-.245.244zm-.528-3.54a8.132 8.132 0 01-1.71-.448c-1.627-.61-3.092-.57-4.598.489-.61.447-1.628.366-3.174.61 2.116-2.93 4.232-3.459 6.755-2.808 1.262.285 2.564.407 3.744.61.326 1.262-.081 1.669-1.017 1.547zm3.5-1.017c1.139-.326 1.587.244 1.79 1.139-.529-.326-1.058-.651-1.79-1.14zm39.026-5.779c-.082-.04-.245-.081-.285-.163-.041-.04.04-.203.081-.285.163.082.285.163.448.244-.082.082-.163.123-.244.204zm10.255 15.749l-.245-.163.326-.081-.081.244zm1.75-7.203c-.367.244-.815.366-1.221.407-.855.081-1.872.244-2.117-.936-.04-.326.204-.895.489-1.14.773-.691 2.035-.61 2.808.122.203.204.244.53.325.814-.081.285-.081.651-.285.733zm36.624 6.023c-.203 0-.57-.245-.61-.407-.04-.204.122-.53.325-.651.196-.118.468-.125.741-.197.043.238.112.536.073.766-.081.204-.325.489-.529.489zm.597-1.292c.615-.158 1.23-.348 1.845-.54-.491.945-1.193.595-1.845.54zm2.333 2.716c-.081-.244-.122-.488-.244-.692.244-.081.53-.244.773-.203.123 0 .163.407.245.65-.245.082-.53.163-.774.245zm16.36-1.506c-.204-.122-.407-.285-.61-.407.203-.122.406-.325.61-.285.244.041.447.285.65.407-.243.082-.447.204-.65.285zm2.278 4.72c.041-.366.204-.691.53-1.464.162.895.284 1.261.244 1.668-.041.163-.326.326-.489.489-.081-.245-.325-.489-.285-.692zm.53 9.401c-.041-.122-.082-.325-.082-.325.204-.041.448-.082.651-.122.04 0 .04.203.082.325a1.842 1.842 0 01-.652.122zm6.836-.773c-.163-.203-.285-.407-.407-.61.204-.082.448-.163.651-.204.041 0 .244.244.204.285-.082.203-.285.326-.448.529zm3.825-10.54c-.081.04-.162.122-.244.122h-.183c.141-.042.275-.091.427-.122zm3.46 12.371c-.041-.122-.163-.325-.123-.366.245-.326.489-.57.774-.855.04.122.08.245.203.448-.244.244-.57.488-.855.773zm.691-12.167c-.447 1.587-1.587 2.36-3.052 2.807-1.06.319-2.13.64-3.35 1.011a49.27 49.27 0 00-.585-.246c-.122-1.932.975-2.815 2.267-3.613.003 0 .005-.002.008-.003 1.617 1.261 1.755 1.331 2.962.044.783-.861 1.605-.967 2.572-.866-.29.29-.709.527-.822.866zm14.325 3.092c1.09.11 1.27.806 1.268 1.823-.956-.178-1.937-.357-2.942-.536.44-.531.988-.973 1.674-1.287zm1.288 12.63c-.257-.09-.485-.162-.72-.237l-.08-.062c.163-.122.407-.326.57-.285.244.04.407.285.61.407-.126.05-.253.114-.38.177zm1.927-2.944c-.072-.25-.148-.48-.224-.702.135.086.273.186.41.283-.063.136-.127.27-.186.419zm4.906-37.33c.122.082.285.164.407.286-.081-.04-.203-.04-.285-.082a.887.887 0 01-.122-.203zm1.018 5.902c-.245 0-.489-.041-.733-.041.04-.163.082-.285.122-.448.244.082.448.163.692.244 0 .082-.04.245-.081.245zm1.87 32.246c.126-.012.249-.032.373-.049l.134.126c-.19-.03-.356-.055-.507-.077zm7.327-30.619c-.652-.081-1.303-.162-1.994-.244 0-.081.04-.203.04-.285.692.122 1.425.245 2.116.367l-.162.162zm3.011-5.941c-.163-.163-.285-.366-.448-.529.204-.081.448-.285.651-.244.163.04.326.285.489.447-.244.123-.489.204-.692.326zm1.424 6.715c-.163-.123-.325-.285-.488-.407.081-.082.244-.204.285-.204.163.122.325.285.488.407-.081.081-.203.122-.285.204zm4.395 3.011c-.081-.081-.244-.122-.285-.244-.04-.082.041-.204.082-.326.163.122.325.204.488.326-.122.081-.203.163-.285.244zm2.076-6.267c-1.221-.122-2.442-.407-3.826-.651-.244-.936-.447-1.71-.691-2.686.732-.285 1.343-.488 1.953-.732.163.447.285.732.325.976.041.285.041.57.082 1.058.773 0 1.628-.122 2.36.082.326.081.61.814.692 1.302 0 .163-.61.651-.895.651zm6.063-1.058c-.976 0-1.261-.855-1.261-1.75 1.465-.407 1.465-.407 3.011 0 .122 1.302-.732 1.75-1.75 1.75zm3.744 2.849c.407-.733.936-1.343.977-1.954.04-.773-.326-1.546-.489-2.32 2.849.204 2.89.204 4.07 1.995-1.831-.082-2.401 2.197-4.558 2.279zm4.68-1.913zm1.913-2.116c1.505.285 2.767.529 4.273.773-2.401 1.302-2.442 1.262-4.273-.773zm15.097-2.97c-1.18 1.993-1.18 1.993-3.174.813 1.384-.326 2.116-.529 3.174-.814zm.855 5.9c-.204.285-.733.732-.855.65-2.279-1.342-5.33-.121-7.447-2.36-.081-1.22 1.221-1.057 1.994-1.586.936 1.18 2.32 1.424 3.703 1.75.814.203 1.628.488 2.36.813.163.082.326.57.245.733zm.773-7.488c-.081-.081.081-.326.122-.529.081.081.244.122.244.203.082.204.122.407.163.652a1.674 1.674 0 01-.529-.326zm2.93 6.959c-.04 0-.163-.163-.244-.244.163-.082.366-.204.61-.285.082.081.204.163.285.244-.203.122-.448.244-.651.285zm9.767 1.546c-.041-.163-.041-.325-.082-.447.367 0 .773.04 1.18.08l-1.098.367zm1.627 5.738a2.037 2.037 0 01-.325-.285c.163-.081.366-.163.529-.163.04 0 .122.245.163.367-.122.04-.245.04-.367.081zm4.436-9.197c0-.122-.04-.244 0-.325.04-.082.204-.123.285-.163 0 .163.04.325.04.488h-.325zm12.33 5.046l-.854-.732c.366.122.732.203 1.099.285-.082.162-.163.284-.244.447zm13.389-.203c-1.18-.204-2.279-.407-3.378-.61l.041-.041c-.024 0-.036-.004-.049-.013a40.612 40.612 0 00-1.131-1.656c.12.72.283 1.398 1.099 1.653v.016c-2.116.244-2.442.081-2.564-1.547-.04-.692.04-1.383.081-2.075.285.04.57.122.855.163 0-.367-.04-.733-.081-1.384-.367.529-.57.855-.814 1.14-1.425-.245-2.646-.204-3.826 1.058-1.22 1.261-2.116.813-2.36-1.059.081-.203.244-.488.326-.813 1.14-.285 2.32-.489 3.418-.896.977-.325 1.872-.854 3.052-1.424-1.506-.488-2.686-.895-3.907-1.262-.976-.244-1.668-.936-1.383-1.79.244-.692 1.058-1.465 1.75-1.628 1.18-.285 2.482-.081 3.784-.081.122.65.285 1.302.448 1.953 1.14.936 2.238.366 3.093-.326 1.465-1.139 3.174-1.139 4.842-1.18.407 0 1.262.61 1.221.855-.203 1.628 1.017 1.79 2.035 2.238.163.04.163.488.285.895-1.506.082-3.012.204-4.72.285-1.018-.854-1.791-2.97-4.03-1.18.285 1.79.041 3.744 1.506 5.575.773.041 1.71.082 3.052.163-1.058 1.22-1.872 2.116-2.645 2.97zm3.663-4.558l.08-.203.204.162-.284.041zm3.174 1.75c-.651-1.302-.57-1.994.162-1.953 1.221.08 2.442.244 3.704.325 0 .204.04.366.081.57-1.343.366-2.686.732-3.947 1.058zm2.4-6.104c1.384-.896 2.076-.774 3.216.57a137.267 137.267 0 00-3.215-.57zm15.058 12.167l.162-.244.041.285-.203-.04zm1.709-10.662c-.773.245-1.628.692-2.401.57-2.401-.325-4.802-.895-7.773-1.506.936-.407 1.262-.732 1.628-.732 2.767.081 5.575.203 8.342.366.163 0 .407.407.448.61.04.245-.122.652-.244.692zm8.098 6.878c-.163-.244-.366-.53-.529-.814.244-.122.57-.366.692-.285.285.203.488.529.732.814-.244.04-.488.122-.895.285zm6.877-5.413c-.529.082-1.18.285-1.668.082-2.238-1.018-4.558-1.099-7-.936 2.849-1.14 5.738-.651 8.668-.407.163 0 .407.448.407.651s-.244.57-.407.61zm3.785 11.07l.203-.286.082.367-.285-.082zm7.325 1.26c-.04-.04-.081-.162-.04-.284.04-.081.162-.122.284-.163.04.163.04.326.082.489-.123 0-.204-.041-.326-.041zm4.11-8.464c-1.872.814-4.11-.57-5.209 1.832-.57-.814-1.058-1.506-1.506-2.076.61-.65 1.343-1.383 2.157-2.197 1.18.081 2.442.081 3.704.325 1.058.204 1.22 1.018.854 2.116zm9.482-.081c-.082-.04-.081-.204-.122-.326.081-.04.163-.122.285-.203.081.163.122.366.203.529-.122 0-.285.081-.366 0zM876.552 81.1l-.162-.285.325.04-.163.245zm8.343 6.226l-.244-.244h.325l-.081.244zm25.8 4.558l-.57-.57c.245-.244.53-.57.814-.61.204-.04.448.366.692.61-.325.204-.651.366-.936.57zm12.94-19.29c-1.22-.691-2.481-.976-4.801-.488 2.075-1.18 2.075-1.18 5.9-.895.164 1.221-.447 1.75-1.098 1.384zm4.6-.162c.08-.366.162-.692.244-1.058 1.22.081 2.482.081 3.703.285.325.04.529.773 1.058 1.587-2.116.325-3.5-.448-5.006-.814zm12.981 25.353c-.04-.122-.122-.244-.163-.367.082-.081.163-.244.244-.244.122 0 .204.122.326.204-.122.122-.244.285-.407.407zm6.145-.896c-.082-.081-.204-.162-.285-.244.122-.081.244-.203.407-.325.04.122.122.244.122.366 0 .081-.163.163-.244.203zm.325-10.865c-.203-.04-.325-.326-.488-.53.244-.08.488-.243.733-.162.203.04.325.326.488.53-.244.08-.53.203-.733.162zm3.215-6.755c-.081-.082-.203-.163-.163-.244.041-.082.163-.163.204-.285.081.122.203.285.285.407-.122.04-.204.081-.326.122zm1.302 20.917c-.284.04-.65-.245-.935-.367.284-.244.529-.529.854-.65.488-.123 1.017-.123 1.506-.164 0 .204.04.407.04.61-.488.204-.976.49-1.465.57zm5.29-21.65l.245-.122a2.85 2.85 0 00-.326.407c0-.081 0-.203.082-.285zm-2.4 16.848c1.343-1.14 2.563-.082 3.744.163-1.18-.245-2.483 1.79-3.744-.163zm3.784-4.192l.082-.203.203.162-.285.041zm3.256 13.674l.122-.204.244.204h-.366zm8.708-23.44c-1.424.529-1.464.529-2.97-.285.977.081 1.953.203 2.97.285zm-2.278 13.347c-.122.041-.245.082-.326.122-.081-.081-.203-.203-.203-.284 0-.082.122-.163.203-.245.081.122.204.285.326.407zm-2.93 7.976c.285-.447.407-.814.529-.814 2.197.041 4.395.733 6.592.082.04 0 .244.448.61 1.14-2.848.406-5.29.65-7.731-.408zm8.79-12.615c-.163 1.058-.855 1.302-2.239.895.57-.691.896-1.139 1.262-1.546.122-.122.57-.163.732-.04s.285.488.245.691zm9.492-4.972c.014-.004.028-.005.042-.01.011.021.02.047.033.07-.026-.016-.052-.03-.075-.06zm1.022-11.524c-.023.078-.19.07-.28.086-.055-.102-.121-.164-.215-.277.18-.031.32-.074.499-.106.015.09.047.27-.004.297zm1.072 33.973l-.03.022c.041-1.246-1.817-1.74-.454-3.515l.152.071c.436.574.787 1.039 1.122 1.485-.235.662-.51 1.304-.79 1.937zm1.632-40.598l-.125-.292.296.003-.171.289zm1.77 19.007c.048-.05.1-.094.174-.137.003.036.004.074.017.1-.071 0-.136.022-.191.037zm9.625-7.742c-.558-.454-1.148-.957-1.966-1.607 1.624-.038 1.846.769 1.966 1.607zm-5.817-10.744c-.262-.12-.46-.307-.671-.455.362.066.725.132 1.283.256-.37.102-.534.223-.612.2zm.738-6.872c-.12-.164-.374-.452-.363-.491.3-.293.639-.574.99-.893.12.163.253.288.413.463-.35.32-.69.6-1.04.92zm1.053 9.83c-.02-.219.164-.547.378-.695.353-.222.758-.35 1.164-.474-.115.41-.172.835-.357 1.183-.109.222-.397.476-.615.495-.207-.019-.55-.291-.57-.51zm1.08 8.18a1.079 1.079 0 01-.176-.265c.118.13.236.24.341.353-.059-.027-.118-.055-.166-.088zm3.672 9.593c-.172-.136-.344-.272-.504-.448 0 0 .172-.288.25-.265.218-.02.452.05.697.081l-.443.632zm.102-7.981c-.301-.063-.602-.118-.903-.201-.598-.175-1.195-.01-1.55.498a76.845 76.845 0 00-.955-1.715c-.001 0-.003 0-.004-.002a72.89 72.89 0 012.595-.505l.008.053c.402.078.753.183 1.154.26-.111.557-.2 1.104-.345 1.612zm12.013-8.954l-.004.297-.288-.172.292-.125zm-8.2 1.71c.076.11.18.206.29.292-.205-.048-.405-.096-.593-.127.1-.055.225-.188.303-.164zm-.118 16.02c-.106-.073-.25-.159-.265-.248-.016-.09.058-.195.093-.312.105.074.261.12.277.21.054.101-.031.246-.105.35zm4.332-3.121c.302-1.863-.405-3.052-1.746-3.963-.424-.27-.855-.516-1.286-.763-.079-.201-.12-.439-.16-.439l-.63-.03c-.32-.185-.64-.365-.954-.566-.433-.257-.82-.67-1.611-1.289 1.363-.441 2.229-.777 3.12-1.063.092-.817.207-1.488.297-2.154.318.27.698.482.872.805.976 1.99 2.68 2.543 4.738 2.479.643-.02 1.493-.021 1.646 1.171-1.138.68-3.017-.137-3.698 1.57.48.526.921 1.04 1.495 1.68-.732.885-1.402 1.704-2.083 2.562zm6.064 2.277c-.49-.584-1.241-.826-1.971-.89a.623.623 0 00-.176.012c-.312-.38-.48-.87-.519-1.402-.035-.308.339-.706.627-.96.164-.12.655-.059.815.117.468.565.773 1.25 1.214 1.764.429.554.983.974 1.751 1.671-.673-.132-1.231-.22-1.741-.312zm1.06-7.495c-.195-.058-.258-.416-.355-.658.269-.047.538-.094.767-.153l.356.659c-.27.047-.585.25-.768.152zm3.134 5.143c.024-.078.02-.207.043-.285.129-.004.257-.008.452.05-.202.11-.343.153-.495.235zm1.32-15.067c-.09.016-.206-.019-.284-.042.165-.042.325-.068.487-.098-.07.055-.139.106-.203.14zm5.947 7.386c-.126-.183-.177-.403-.226-.607.203.091.43.174.604.337.133.125.14.382.211.573-.183-.097-.468-.14-.589-.303zm-.33-.687c-.394.13-.774.324-1.147.372-1.349.107-1.926-.236-1.927-1.086l.001-.018c.021.005.044.022.063.022 1.164-.064 2.292-.802 2.854-1.814.461.035.927.083 1.393.108-1.731.965-1.748 1.007-1.237 2.416zm2.679 3.343c.035-.117.015-.335.066-.363.128-.004.284.043.53.074-.253.137-.405.219-.596.289zm24.465-1.56c.234.07.394.244.616.353-.202.11-.377.27-.553.43-.148-.215-.257-.417-.406-.632.102-.054.277-.214.343-.152zm-9.508-5.987c-1.497-.533-3.018-.988-4.43-1.665-.966-.46-1.018-1.281-.122-2.288.725.132 1.555.338 2.37.454.971.163 1.914.275 2.897.4-.288 1.102-.478 2.023-.715 3.099zm-17.39-15.99c1.238-1.584 2.224-1.331 3.11.25-.916-.06-1.859-.173-3.11-.25zm4.135 4.21c-.507-.576-.948-1.09-2.08-2.278 2.024.477 2.617.91 2.08 2.278zm2.426 1.83c.423-2.125.72-2.121 2.954-1.07.222.108.542.034.838.038.303-.59.619-1.217 1.093-2.094 2.66 2.324 4.476 5.203 7.128 7.695-2.83.089-4.573-1.325-6.36-2.878-1.266.683-2.904-.232-4.2 1.122.183.522.484 1.08.45 1.621-.084 2.693.88 4.723 3.415 5.906.34.144.511.705.741 1.071l.069.03c-1.758 1.339-3.52 2.122-5.249.248-.3-1.407 1.238-2.858-.389-3.812-1.52-.88 1.187-2.406-.774-3.375-.928-.447-1.312-2.006-1.975-3.054.787-.36 1.949.158 2.26-1.448zm2.542 14.225c-.101.054-.315.203-.343.152a4.869 4.869 0 01-.34-.569c.102-.054.242-.097.344-.152.109.203.23.366.34.569zm-.096 10.547c-.117-.035-.25-.16-.355-.233.101-.055.226-.187.355-.191.128-.004.21.147.355.233-.102.055-.226.187-.355.191zm.645-2.865c-.184-.097-.367-.195-.562-.253.035-.117.031-.246.066-.363.183.098.417.168.55.292.039.012-.02.207-.054.324zm3.574 12.084a37.303 37.303 0 00-.306-.079l.063-.135.277.21-.034.004zm1.414-4.051c-.206.406-.86.89-1.235.862-.904-.1-.843-1.016-.94-1.683-.063-.358.026-.799.002-1.57.815.116 1.263.037 1.59.22.956.498 1.034 1.371.583 2.17zm.354-4.736c-.123.982-1.09 1.373-2.064 1.081-.507-.151-.983-.549-1.482-.868l.046-.42c.607-.42 1.27-.893 1.975-1.338-.081-.285-.203-.53-.285-.814-.47-.06-.94-.112-1.412-.156.11-.864.23-1.78.365-2.842-1.201-.53-2.258-.973-3.315-1.416-.784-.362-1.692-.591-2.39-1.097-.698-.507-1.248-1.223-.54-2.456 2.407 2.887 6.11 3.145 8.98 4.343 1.242 2.24.386 4.108.122 5.983zm1.019-7.808c-.23-.367-.472-.694-.613-1.076-.016-.09.3-.292.475-.452.164.304.418.592.492.911.043.14-.195.367-.354.617zm.861 9.05l.242-.098.02.218-.262-.12zm.801 8.203l-.229-.174c.039-.838.05-1.727.076-2.951 1.281.686 1.649.887 2.292 1.831-.692.524-1.418.995-2.139 1.294zm3.087.297c-.098-.031-.195-.065-.293-.096-.113-.31-.227-.644-.353-1.033.191.303.41.664.68 1.107l-.034.022zm1.459-6.018c-.14 0-.274.002-.397.003-.335-.972-.537-1.415-.54-1.889-.009-.257.544-.686.84-.683.258-.008.738.518.707.763-.03.459-.237.9-.61 1.806zm1.439 5.79l.187-.198.148.214-.335-.015zm-1.194-9.786c-1.692-.59-2.632-1.849-3.444-3.536 1.621.4 3.204.788 4.814 1.228.195.058.32.35.547.588-.627.534-1.227 1.12-1.917 1.72zm5.546 28.992a9.174 9.174 0 01-.882-.413c-.067-.062-.087-.28-.13-.42.015-.05.024-.11.033-.168.214-.023.423-.043.628-.062.013.006.029.008.04.014.106.074.138.253.18.394l.193.475a.854.854 0 01-.062.18zm-3.433-28.53c2.054-.617 2.054-.617 4.312.355-1.602.668-2.756.408-4.312-.355zm4.919 3.722l-.39-.116c.218-.02.425 0 .643-.02-.09.015-.152.082-.253.136zm8.935-3.317c-1.232.142-2.117.26-3.348.4 1.14-1.4 2.018-.925 3.348-.4zm-.816 8.124c-.062.066-.19.07-.331.113-.016-.09-.098-.241-.074-.32.1-.054.268-.046.37-.1.016.089.098.24.035.307zm.61 2.646a1.125 1.125 0 00-.362-.066c.152-.082.277-.214.417-.257.09-.016.171.136.277.21-.09.016-.23.059-.331.113zm3.07 5.659c-.246-.173-.502-.34-.76-.506.055-.07.11-.147.162-.209.328.183.55.292.772.401l-.175.314zm3.518-5.388c-.105-.074-.273-.081-.328-.183-.027-.05.082-.273.133-.3.14-.043.273.082.378.156-.074.105-.109.222-.183.327zm11.814-11.078l-.2-.06c-.067-.062-.121-.164-.176-.265.128.101.253.208.376.325zm-6.616 18.57c-.528.298-1.055.607-1.583.917.494-.97.812-1.22 1.763-1.006-.06.031-.121.055-.18.088zm.427-12.096c-.086-.28-.196-.483-.254-.713.202-.11.432-.168.635-.277.097.241.246.455.215.7-.035.118-.394.18-.596.29zm-.274-5.051c-.023.078-.764-.144-1.294-.218a588.559 588.559 0 00-.37-4.443c1.895 1.332 3.303 2.305 4.672 3.266-.727 1.44-2.487-.064-3.008 1.395zm4.241 13.798c.017.94.04 1.711.1 2.79-1.763-1.63-1.744-1.837-.1-2.79zm1.142-2.231c-.037-.063-.074-.125-.124-.2l-.259.195c-1.425-.034-1.67-.298-2.555-1.274 1.929-.91 3.263-.256 4.726 1.243-.74.02-1.316.035-1.788.036zm2.39 6.473c-.129.004-.168-.433-.31-.815.426 0 .784-.063 1.135.042.156.047.168.433.266.674-.359.063-.729.165-1.091.099zm1.633-8.729a1.238 1.238 0 01-.113-.331c.101-.055.187-.199.265-.176.116.035.21.148.315.222-.152.082-.315.203-.467.285zm2.492-3.077a4.947 4.947 0 00-.488-.359c.074-.105.137-.171.21-.277l.516.41c-.113.093-.176.16-.238.226zm-.06-2.78c-.348-.4-.754-1.032-.638-1.422.117-.39.818-.605 1.34-.788.217-.088.51.018.765.1-.373.807-.922 1.628-.418 2.588-.388-.133-.826-.222-1.05-.477zm1.352.673c.054.022.106.044.164.078.066.063.121.164.215.277-.114-.125-.25-.238-.379-.355zm1.564 14.43c-.066-.063-.098-.243-.113-.332.128-.004.292-.125.358-.063.078.023.098.242.113.331-.128.004-.292.125-.358.063zm.344-16.633c-.796.399-1.183-.196-1.662-.578.615-.39 1.185-.612 1.69.204.054.1.023.346-.028.374zm.056-2.744c-.249.265-.923.106-1.695.13.262-1.293.471-2.275.67-3.214.475.509 1.08.947 1.351 1.567.18.394-.014 1.185-.326 1.517zm3.65-2.264c-.577-.343-1.255-.63-1.669-1.094-.28-.339-.37-1.173-.11-1.477.448-.504 1.025-.161 1.337.357l.957 1.773c-.176.16-.34.28-.514.44zm.64-4.694c-.21-.148-.511-.28-.542-.46-.032-.179.178-.456.393-.604.204-.14.49-.182.726-.27-.039.258-.073.489-.184.73-.11.222-.246.394-.393.604zm.489 11.148l.339.143-.304.164-.035-.307zm.568 16.565c-.13.004-.285-.043-.414-.039.035-.117.016-.335.066-.362.14-.043.297.003.414.038.003.129-.031.246-.066.363zm32.577-37.066c.116-.39.86-.889 1.273-.85.363.066.746.775.902 1.246.102.37-.167.842-.28 1.36-.479-.1-1.033-.096-1.259-.333-.359-.363-.753-1.033-.636-1.423zm-18.422 13.308c.078.023.153.343.223.534-.129.004-.292.125-.398.05-.183-.096-.343-.272-.514-.408.23-.059.483-.195.69-.176zm-11.592-4.699c.043.14.137.254.102.37.015.09-.164.122-.265.176l-.316-.222c.164-.12.316-.203.48-.324zm-.328 7.633c.252.752.395 1.245.54 1.693-.413-.331-1.085-.54-.54-1.693zm.6 1.797c1.008.356.93 1.003.59 1.78-.785-.369-1.052-.983-.59-1.78zm2.409 3.053c-.148.21-.893.285-1.103.137-.341-.344-.48-.857-.66-1.322.385.031.777.038 1.15.11.596.136 1.107.416.613 1.075zm2.483-4.61c-.563-1.952-.935-3.125-1.51-5.038 1.647 2.021 1.647 2.021 1.51 5.038zm.633 6.264c-.02-.219.011-.464.03-.67.012-.04.219-.02.359-.063.02.218-.012.463.008.682-.128.004-.257.008-.397.05zm.992-10.704l.273.081c.059.23 0 .425.008.682-.116-.035-.323-.054-.311-.093-.02-.218.01-.464.03-.67zm1.172 16.533c-.284-.043-.569-.085-.83-.206-.078-.023-.11-.202-.153-.343.37-.101.702-.215 1.049-.238.09-.016.316.222.304.26-.109.223-.234.355-.37.527zm3.678 7.301c-.14.043-.308.036-.409.09-.055-.101-.148-.214-.203-.315.19-.07.37-.102.6-.16.004.128.035.307.012.385zm4.195 1.17c-1.24-.116-1.867-.856-1.572-1.702.07-.234.358-.488.588-.546.729-.165 1.669.669 1.67 1.519.008.257-.499.53-.686.729zm2.824 1.779c-.11-.203-.219-.405-.277-.635-.028-.05.249-.266.276-.215.183.097.382.284.554.42-.214.149-.378.27-.553.43zm4.593-12.091c-.472-.269-.772-.401-.971-.588-1.787-1.554-1.787-1.554-3.906-.149-1.325.878-1.84.895-2.986-.383-1.55-1.78-3.444-2.686-5.636-3.597 1.474.186 2.908.36 4.37.585 2.768.403 5.536.806 8.343 1.22.775.105 1.458.522 1.408 1.399-.023.503-.381.99-.622 1.513zm6.908 10.136c-.129.004-.234-.07-.39-.117.152-.082.265-.175.444-.207.129-.004.25.16.316.222-.14.043-.242.098-.37.102zm-6.38-16.732c-.182-.17-.301-.428-.425-.665 2.657-.689 4.996.795 7.929.998-4.173 2.447-4.793 2.39-7.504-.333zm4.842-7.811l.031-.246.25.16-.28.086zm2.924.45l-.25-.16.28-.086-.03.245zm-2.422-1.702c-1.49-1.125-1.62-2.396-.833-3.605.712-1.103 1.646-2.098 2.53-3.066.623-.663 1.707-.594 2.3.263.43.554.594 1.282 1.18 2.732-3.731-1.159-3.842 1.91-5.177 3.676zm14.207 4.334c-.378-.156-.893-.99-.76-1.29.166-.417.887-.839 1.35-.827 2.421.002 4.974-.297 6.808 1.95.507.577 1.455.818 3.026 1.67-2.525-.076-4.248.004-5.878-.229-1.551-.209-3.087-.753-4.546-1.274zm10.84 9.485c-3.043.662-3.043.662-6.133-2.64 1.461-.2 2.783-.358 4.026-.538.82 1.094 2.379 1.56 2.108 3.178zm-1.014-10.667c-.129.004-.25-.16-.355-.234.202-.109.463-.413.58-.378.364.15.685.442 1.024.672-.4-.002-.829-.013-1.25-.06zm3.023 29.66c-.184-.097-.585-.175-.6-.265-.02-.218.14-.468.248-.69.222.11.585.175.589.304.031.179-.128.429-.237.65zm.214-27.418c-.133-.124-.382-.284-.387-.412.017-.178.13-.364.237-.577.092.215.203.436.255.638.015.09-.07.234-.105.351zm2.33 16.923c-.035.117-.148.21-.261.304a17.03 17.03 0 01-.683-.841c-.11-.203-.207-.445-.332-.737.168.008.285.043.452.05.636.148.995.51.824 1.224zm-.55-8.532c-.089.44.321 1.2-.75 1.092-.602-1.114-.45-2.046 1.392-3.237-.338 1.131-.529 1.626-.641 2.145zm5.007-7.083c.062-.066.164-.12.265-.176a9.27 9.27 0 01-.35.422.65.65 0 01.085-.246zm.798 11.962a5.116 5.116 0 00-.355-.234c.113-.093.288-.253.315-.203.184.097.305.261.437.386-.128.004-.257.008-.397.05zm.449-3.349c-.44.336-1.029.457-1.882.754-.215-1.126-.34-1.843-.52-2.662.787.066 1.329.1 1.91.147a.693.693 0 01.39.116c.756.312.846 1.146.102 1.645zm3.044 22.488c-.082-.152-.152-.343-.261-.546.23-.058.448-.078.678-.137-.02.207 0 .425-.07.66-.012.038-.28.085-.347.023zm.199 13.397l.253-.137.008.257-.261-.12zm3.192 4.097c-.129.004-.218.02-.335-.015a.436.436 0 01-.008-.257c.128-.004.257-.008.335.015.039.012-.008.168.008.257zm8.734-45.682c.129-.004.246.031.336.015l-.047.156c-.117-.035-.207-.019-.324-.054l.035-.117zm-.123 33.646c-.183-.097-.394-.245-.577-.342.113-.094.199-.238.288-.254.258-.008.542.035.8.027-.176.16-.363.359-.51.57zm2.142-2.757a4.734 4.734 0 01-.655-.366c.074-.106.183-.328.183-.328.25.16.46.308.643.405a3.489 3.489 0 00-.171.289zm3.472-19.138c-.102.055-.246-.03-.374-.027.046-.156.081-.273.167-.417.105.074.183.097.288.171-.035.117-.042.285-.081.273zm.303-5.983c-.156-.047-.32-.35-.796-.748.604-.032.756-.114.861-.04.328.183.605.394.92.615-.319.075-.662.227-.985.173zm6.623 1.004c-.401.347-.962.519-1.48.831-.64-.701-1.132-1.188-2.01-2.087 1.874-1.012 3.149-1.013 4.67-.133-.46.542-.779 1.041-1.18 1.389zm3.801 5.894c-.078-.024-.222-.11-.3-.133.035-.117.07-.234.066-.362.144.085.34.144.484.23-.074.105-.148.21-.25.265zm-.812-6.232c.02-.207-.043-.565.07-.659.175-.16.483-.195.717-.125.128-.004.191.354.304.685a7.58 7.58 0 00-1.09.099zm6.191 5.716c-.078-.023-.164-.304-.152-.342.179-.032.37-.102.572-.211.098.241.157.471.266.674-.245-.031-.452-.05-.686-.12zm2.316-4.192c-.13.004-.285-.042-.414-.038.137-.172.222-.316.359-.488.105.074.21.148.304.26-.101.056-.175.161-.25.266zm1.24-6.85c-.065-.062-.108-.202-.112-.33l.303-.164c.032.179.114.33.145.51-.128.004-.269.047-.335-.015zm2.111 15.668a4.007 4.007 0 01-.565-.381c-.039-.012.109-.223.183-.328.172.136.394.245.565.382-.074.105-.109.222-.183.327zm5.088-12.75l-.114-.331.285.042-.171.289zm5.31 11.357c-.148-.214-.296-.428-.405-.63.241-.098.49-.364.725-.294.156.047.269.378.405.631-.268.047-.483.196-.724.293zm1.816-5.36c-1.255-.631-2.289-1.152-3.938-2.028 2.092-1.03 2.939.114 3.914.83.172.137.02.644.024 1.197zm2.432-.463s-.16-.175-.265-.249c.175-.16.362-.359.576-.507.04.011.16.175.266.249-.176.16-.363.359-.577.507zm-.136-4.798c2.625-1.253 3.986-.974 5.18.997.101.187-.053.51-.143.775-1.802-.039-3.5-.426-5.037-1.772zm5.162 1.992c.05.046.098.092.144.147.055.102.02.219.036.308-.066-.163-.122-.307-.18-.455zm1.818 2.22c-.054-.102-.16-.176-.175-.265-.016-.09.097-.184.16-.25.054.101.16.175.175.265a.753.753 0 01-.16.25zm.943 3.382c-.055-.101-.137-.253-.114-.331.024-.078.203-.11.292-.125.032.18.063.358.106.499a.916.916 0 00-.284-.043zm3.307-6.232l.293-.124.008.257-.3-.133zm3.56 1.447c-.09.016-.21-.148-.355-.233.137-.172.285-.382.42-.554l.598.56c-.242.098-.444.208-.663.227zm.87-3.902c-.343-.273-.702-.635-1.299-1.196.732-.46 1.106-.858 1.515-.948.18-.031.78.658.71.892-.14.468-.591.842-.926 1.252zM1240 85.666v-2.495l-.748.642c.258.625.544 1.233.748 1.853zM809.814 41.179c.284.285.366.407.488.488.57.366 1.18.936 1.872.285.122-.122.122-.692.081-.733-.65-.203-1.302-.366-1.953-.529-.082 0-.204.163-.488.489z"/><path d="M1062.563 65.463c-.39-.541-1.232-.708-1.743-.989-1.422.637-.96 1.794-1.143 2.972.897.693 1.888 1.499 3.249 2.628.571-1.91.539-3.364-.363-4.611zM1082.452 59.178c-.077-.023-.233.355-.37.527.2.187.422.296.671.455.137-.171.234-.355.382-.565-.21-.148-.449-.347-.683-.417zM1081.592 65.037c.029 1.75-.09 3.286.098 4.787.079.873.847 1.145 2.413.594-1.108-1.69.908-4.316-2.51-5.38zM1064.613 73.806c.234-.354.479-.748.712-1.103l-.05.027c-1.09-1.472-2.629-1.72-4.582-1.582-.525.904-1.101 1.836-1.65 2.82 3.043 3.458 3.43 3.446 5.57-.162zM1062.633 60.684l-.075-.064-.003.04s.067.063.078.024zM1071.346 70.893c-.168-.008-.405.219-.76.41.344.272.62.483.936.705.148-.211.425-.426.394-.605-.06-.23-.336-.44-.57-.51zM1071.299 74.744c.568-.765.217-1.294-.352-1.38-1.838-.298-3.72-.445-5.543-.653 1.75 1.308 3.674 2.166 5.895 2.033z"/><path d="M1065.404 72.711c-.022-.016-.045-.03-.067-.047 0 0-.062.066-.011.039l.078.008zM1076.44 75.305c2.399-3.19 3.234-6.551 1.714-10.276-.472-.269-.815-.541-1.255-.63-1.427-.342-2.89-.567-4.456-.866l-.851 2.846c-.812-.412-2.149-.77-2.122-1.144.002-1.996-1.612-2.988-2.514-4.66-1.064.574-2.038 1.132-3.304 1.816-.351-.53-.741-1.072-1.12-1.652l.09-.016c-1.435-.174-2.897-.399-4.783-.623 2.613 2.48 5.397 3.823 8.688 4.892-.358.487-.642.87-.938 1.291-.234.355-.506.698-.876 1.225 1.634 1.635 3.988.725 5.747 1.803 1.587.942 3.59 1.202 5.645 1.858-.759 1.26-1.397 2.259-2.082 3.413l2.417.723zM1214.395 74.043c.37-.526.58-.803.79-1.08-.21-.148-.425-.424-.631-.444-.246-.03-.484.196-.725.293.152.343.316.647.566 1.231zM1228.255 78.4c.242-.097.589-.12.674-.265.059-.195-.117-.46-.164-.729-.23.06-.588.122-.623.239-.059.195.066.487.113.756zM1224.319 74.378c.023-.078.109-.223.082-.273-.055-.102-.184-.097-.29-.171-.046.155-.092.311-.14.467.09-.015.22-.02.348-.023zM1203.31 69.921c.101-.054.175-.16.249-.265-.207-.02-.452-.05-.71-.042.016.09.036.308.075.32.117.034.284.042.386-.013zM1231.729 76.49l.021.025.012-.027.03-.001-.008-.02c.01-.01.017-.022.028-.018-.105-.074-.238-.199-.343-.273l.244.294-.04.022.056-.003zM1235.323 79.622c.814-1.158 1.195-2.573 2.766-2.57-.017-.515-.06-1.08-.076-1.595l.027.05c-.3-.981-.461-2.006-.926-2.867-.246-.456-1.049-.611-1.887-1.074-.162 1.82-.247 3.239-.378 4.814-1.149.023-2.107.065-3.057.107.264.629.4 1.44.864 1.828.753.607 1.778.872 2.667 1.307zM1238.052 75.469l.027.05c.129-.003.23-.058.359-.062l-.386.012zM1238.461 80.349l-.03.245.28-.086zM1230.965 83.119c.062-.067.136-.172.272-.344l-.83-.63-.2.238c.227.237.492.487.758.736zM843.305 49.847c1.343-.245 2.686-.651 3.947-1.1.53-.203.855-.65.367-1.301-1.71.366-3.419.773-5.046 1.14-.245.854.203 1.342.732 1.26zM883.186 50.538c-.122 0-.244.041-.326.041.04.122.04.244.082.407.08-.163.162-.326.244-.448zM959.57 62.055c.121-.04.243-.122.365-.163-.08-.122-.122-.203-.203-.325-.163.122-.326.203-.488.325.122.04.203.122.325.163zM1067.64 57.297c1.11.97 2.21.703 3.539.379-1.252-.502-2.235-1.05-3.54-.38zM962.377 76.501c-.57-.284-1.099-.61-1.668-.895-.041.204-.123.366-.204.57.61.122 1.262.244 1.872.325zM877.651 46.184c.244.04.489 0 .733-.04-.041-.123 0-.285-.082-.326-.244-.082-.488-.122-.732-.163.04.204.04.53.081.53zM837.649 48.83c.122.121.284.243.406.365.123-.04.204-.08.326-.162-.122-.122-.244-.285-.407-.367-.04-.04-.203.082-.325.163zM829.347 47.608c1.058-.732 1.994-1.343 3.133-2.116-2.482-.773-2.807-.529-3.133 2.116zM862.39 49.44c.082.57.49 1.058.937 1.912.651-.61 1.22-.854 1.343-1.261.244-.774-.53-1.71-1.343-1.75-.692-.04-1.058.529-.936 1.099zM1196.877 68.847c.09-.016.207.02.324.054.074-.105.187-.199.171-.288-.015-.09-.12-.164-.226-.238-.086.144-.183.328-.269.472zM962.58 76.624v-.082c-.04 0-.121 0-.203-.04.04.04.081.04.163.08l.04.042zM1052.389 68.24c.137 1.1.519 1.809 1.602 2.008.241-1.13-.147-1.825-1.602-2.009zM1053.996 70.25l-.005-.002-.006.04.011-.039zM1054.035 70.26s-.05.028-.062.067c.064.008.123.02.186.03-.042-.032-.08-.064-.124-.096zM1077.357 62.157l.3.132.003-.296zM968.101 71.703c.055.102.11.203.153.343.14-.043.241-.097.37-.101-.043-.14-.035-.308-.153-.343-.066-.063-.23.058-.37.101zM1046.637 56.792c.097-.183.234-.354.331-.538-.117-.035-.285-.042-.401-.077-.074.105-.2.238-.183.327.015.09.16.176.253.288zM1056.815 56.99c.09-.015.23-.058.319-.074-.094-.113-.215-.277-.308-.39-.062.067-.175.16-.238.227a.656.656 0 00.227.237zM1055.384 70.58a18.847 18.847 0 00-1.225-.224c.333.251.643.498.972.785.098-.184.156-.378.253-.562zM1056.6 66.653c-.16-.6-.41-1.185-.66-1.769 0 0-.257.008-.37.102-.67.394-.447.928-.263 1.45.152.343.203.74.36 1.212.61-.624.977-.855.934-.995z"/><path d="M1060.648 58.944a85.28 85.28 0 001.91 1.676c.124-1.657.106-1.663-1.91-1.676zM1112.243 85.12c-.007-.028-.016-.056-.024-.083l-.043.02.067.063zM1115.106 83.64l-.038.019.026.02.012-.04zM1112.68 81.81c-.335.41-.876.8-.876 1.225-.03.644.238 1.337.415 2.002.961-.456 1.888-.923 2.849-1.378-.755-.563-1.463-1.153-2.388-1.849zM1176.27 65.318c-.366-.195-.733-.39-1.084-.494-.039-.012-.381.565-.327.667.293.3.66.494.976.716.206-.406.326-.667.436-.89zM1082.473 73.88l.557-.3c-.105-.074-.238-.199-.289-.171-.19.07-.393.18-.557.3.067.063.184.098.289.172zM1136.187 67.263c.059.23.168.432.277.635.113-.094.226-.188.289-.254-.07-.19-.18-.394-.29-.596-.1.055-.303.164-.276.215zM1132.656 63.02c-.047.157.398.375.846.721.35-.32.701-.64 1.063-.999-.198-.186-.401-.502-.608-.521-.608-.097-1.208.063-1.301.8zM1118.448 63.232a2.73 2.73 0 00-.144-.51c-.113.093-.203.109-.343.152.016.09.047.269.125.292.105.074.245.03.362.066zM1121.727 63.915c-.721-.428-1.368-.112-1.298.504.24 1.473-.98 2-1.634 2.91.36.786.73 1.534 1.27 2.715-2.371-.454-3.818-1.44-4.28-3.446-.397.051-.604.032-.666.098-.44.76-.84 1.533-1.499 2.738.504.447 1.19.992 1.931 1.639-.482 1.045-.879 1.946-1.291 2.757.297.853.297.853 3.685 2.589.327-.4.629-.848.965-1.286l.012.006c.687.12 1.4.291 2.839.594-.987-1.102-1.444-1.706-2.014-2.216-.503-.448-1.068-.83-2.032-1.585 1.505-.06 2.483-.064 3.423-.08 1.245-2.601 1.445-5.26.59-7.937zm-3.019 11.118l-.28-.084a.697.697 0 01.28.084zM1103.8 66.2c-1.124-.932-2.45-.903-3.68-.337-.546.262-1.22.952-1.254 1.494-.023.503.702 1.06 1.4 1.99.241-.947.33-1.387.61-2.323 1.19.143 2.121.294 3.31.438-.172-.561-.149-1.064-.387-1.263zM1097.073 58.58c.14-.042.292-.124.533-.222-.284-.042-.401-.077-.49-.062-.04-.011-.059.195-.043.285zM1084.733 82.372a1.783 1.783 0 00-.101-.157c.017.06.034.119.05.184 0 0 .09-.015.051-.027zM1089.093 66.091c1.376.794 2.885 1.288 4.72 1.115.18-.881.335-1.684.536-2.643-1.964-.248-3.761-.488-5.48-.705-1.025 1.01-.537 1.793.224 2.233zM1084.53 82.057c.028.05.065.104.102.158a2.482 2.482 0 01-.098-.455c.016.09-.02.207-.004.297zM1140.536 61.385c.105.074.187.226.265.249.078.023.203-.11.304-.164-.105-.074-.187-.226-.265-.25s-.203.11-.304.165zM1102.168 72.507c-.241-.143-.485-.26-.706-.388a3 3 0 00.386.463c.027.05.19-.07.32-.075zM1110.382 70.462l-.28.086.226.237zM1101.327 72c-.023-.009-.046-.015-.068-.024.01.019.02.039.031.056l.037-.02c-.005.013-.012.028.002.032.041.026.09.05.133.075-.036-.051-.074-.101-.11-.153 0 0-.015.017-.025.034zM1099.874 70.802c.059.23.07.616.254.713.332.218.738.314 1.13.461-.213-.354-.38-.757-.659-1.042-.132-.125-.48-.101-.725-.132zM1116.297 59.063l.047.269.253-.137zM1169.18 74.538l-.027-.05c.051-.027-.187.199.028.05zM1167.503 85.972c1.473.186 2.362-.228 2.551-1.573.031-.245-.476-.822-.694-.802-1.465.071-1.796 1.034-1.857 2.375z"/><path d="M1169.18 74.538l.005-.034-.032-.016.028.05z"/><path d="M1170.966 74.393c.12-.262-.04-.862-.278-1.06-.515-.41-1.053-.315-1.34.363-.116.251-.125.534-.163.808.252.122.517.314.764.307.347-.024.896-.157 1.017-.418zM1159.807 76.86a94.98 94.98 0 00-1.402-1.753c-.002.964.609 1.45 1.402 1.754zM1171.592 77.553c.09-.015.191-.07.28-.086-.054-.101-.058-.23-.163-.304-.078-.023-.18.032-.32.075.094.113.148.214.203.315zM1168.896 64.981c.362.066.756-.113 1.216-.23-.176-.266-.317-.648-.406-.632-.386.012-.768.153-1.138.254.109.203.238.624.328.608zM1174.553 67.65c.184.098.394.246.578.343.058-.195.194-.367.214-.573.011-.04-.238-.199-.29-.172-.163.121-.338.281-.502.402zM1168.428 78.051c.1-.054.202-.11.292-.125-.016-.09-.07-.19-.086-.28-.102.054-.23.058-.292.125-.024.078.07.19.086.28zM1159.98 76.96c.077.28.084.673.223.755 1.571.853 2.976 2.122 5.31 1.843-1.4-2.298-3.61-2.17-5.533-2.597zM1153.74 77.736c-.136.172-.147.636-.015.76.48.526 1.108.841 2.023.053-.487-.358-.885-.732-1.318-.989-.144-.085-.565.044-.69.176zM1160.311 67.978c-.11-.202-.269-.378-.378-.58-.074.105-.238.226-.21.277.07.19.23.366.339.569.101-.055.175-.16.25-.266zM1150.256 68.794c.214-.148.35-.32.537-.519-.105-.074-.265-.25-.304-.26-.175.159-.362.358-.538.518.106.074.266.25.305.26zM1159.183 80.129c.14-.043.32-.074.577-.083-.222-.109-.327-.182-.456-.178-.039-.012-.097.183-.12.26z"/><path d="M1159.972 76.924c-.056-.02-.11-.042-.165-.063l.103.13.035-.038.035.008-.008-.037zM1161.38 73.777c.558.125 1.127.21 1.685.334s1.087.198 1.606.31c.167-.417.44-.76.385-.861-1.222-1.597-3.147-1.833-4.917-2.023-.58-.046-1.336.917-1.936 1.502-.603.616-.389 1.268.178 1.861.803-.855 1.73-1.42 3-1.123zM1158.38 74.9l-.078.08.103.127c0-.06-.007-.116-.002-.181l-.022-.026zM1145.442 64.72c-.097.184-.046.582.114.757.456.604 1.034.946 2.027.181-.503-.447-.968-.884-1.455-1.242-.144-.085-.589.122-.686.305zM1165.1 84.064c.09-.015.175-.16.238-.226-.145-.085-.3-.132-.445-.218l-.093.312c.117.035.21.148.3.132zM565.647 46.469l-.04.04c.04 0 .04-.04.04-.04zM591.162 43.824l1.587.61.082.082c.04.04.081-.041.081-.041-.081-.04-.122-.04-.203-.081l.039.039c-.407-.366-.813-.773-1.26-1.138-.04-.041-.244.081-.285.203-.04.082-.081.326-.04.326zM591.488 25.959c.122 0 .244-.081.366-.163-.163-.122-.325-.285-.448-.407-.08.082-.122.204-.203.285.081.122.163.285.285.285zM634.013 46.835h.082c-.04 0-.082 0-.122-.04 0 .04.04.04.04.04zM601.946 41.586l.285-.082-.203-.162zM595.964 41.382c-.162-.325-.244-.732-.366-.773-.366-.081-.773 0-1.14.04.123.204.163.611.286.652.366.122.773.04 1.22.081zM592.871 44.556l.082-.04c-.04 0-.082 0-.082.04zM593.482 37.516c.122.04.285.04.407.082a1.805 1.805 0 00-.326-.448c-.04.122-.04.244-.081.366zM601.743 43.62c.163.163.366.326.529.489.081-.122.163-.204.203-.326-.162-.163-.366-.325-.529-.488-.081.122-.203.285-.203.325z"/><path d="M594.865 45.655c.977-.081 1.832-.488 2.117-1.913-.774-.04-1.547-.162-2.28-.04-.61.122-1.18.529-1.75.814.286.895 1.018 1.22 1.913 1.14zM611.957 29.703l-.122-.204-.122.204zM630.351 41.26c.122.04.366-.244.57-.407-.285-.203-.57-.488-.895-.61-.122-.041-.367.203-.651.366.366.244.65.529.976.651zM634.543 50.05c.773-.163 1.709-.244 1.75-1.71-.652-.447-1.425-.935-2.198-1.464-.244.61-.57 1.22-.733 1.872-.162.773.448 1.465 1.18 1.302zM634.054 46.917c.04-.041.041-.082.041-.082l-.081.041s.04 0 .04.04zM625.468 29.906c-1.221-.122-2.28-1.302-4.151-.407 1.587.855 2.767 1.221 4.15.407zM617.45 29.133c-.61-.081-1.26-.203-1.871-.203-.163 0-.448.366-.407.529 0 .203.285.488.448.529.61.04 1.261-.082 1.872-.122 0-.244-.041-.489-.041-.733zM605.487 32.592l-.163-.203-.122.244zM622.375 39.836l-.244.081.203.163zM590.837 28.116l-.244-.204-.082.285zM617.288 42.237c0 .122-.122.325-.122.325.733.53 1.506 1.018 2.32 1.587.447-1.75.447-1.75-2.198-1.912zM599.83 45.452c.041-.082.204-.082.244-.163.041-.082 0-.204-.04-.285-.122 0-.204-.04-.285-.04.04.162.04.325.081.488zM535.045 27.505c-.692.285-1.669-.325-2.32 1.425 3.052 1.098 5.9 2.156 8.83 3.092.326.204.815-.203 1.344-.407-1.14-1.017-2.28-1.709-2.971-2.685-.651-.936-1.18-1.791-2.279-2.36-1.424-.733-1.75.61-2.604.935zM538.097 24.494l.285-.163-.245-.203zM540.62 46.062c1.546 1.343 3.133 1.953 5.82 1.628-2.972-2.116-3.5-2.238-5.82-1.628zM541.678 29.215c1.058.61 2.116 1.22 3.011 1.709-.04.773-.081 1.302-.122 1.994 1.22.244 2.32.407 3.663.65.284-.447.447-.65.57-.935.732-1.872.447-2.849-1.14-3.215-1.75-.407-3.581-.692-5.372-.936-.122 0-.325.366-.61.733zM584.61 39.47c-2.319.04-4.76-2.076-6.47 1.302-2.279-.326-4.598-.692-6.959-1.058-.61 1.75-.854 3.052 1.1 3.622l-.082.04h.122v-.04c1.709-.692 3.337-.896 4.476-.204 2.442 1.506 4.558.651 6.633-.651.204-.122.204-.488.326-.733-.326-.407-.692-.813-.855-1.017.163-1.099 1.547.285 1.71-1.261zM575.25 19.122c.937 0 1.67.041 2.402.041-.773-.651-1.547-1.302-2.401-.04zM548.19 17.576c-.408-.122-.774-.285-1.181-.326-.122 0-.285.367-.448.53.326.121.651.325 1.018.366.162 0 .366-.326.61-.57zM565.89 16.843c-.08-.04-.203-.162-.243-.162-.082 0-.122.162-.204.244.082.04.204.163.244.163.082-.041.163-.163.204-.245zM552.218 49.236l.162-.244-.325-.081zM557.833 22.663c-.203 0-.447.244-.732.407.326.325.61.691.936.854.651.285 1.302.53 1.994.651 2.482.489 5.005.896 7.488 1.343 3.58.692 7.162 1.425 10.784 2.116 1.383.245 2.36.814 2.767 2.239.04.122.488.122.814.162.448-.691.855-1.343 1.22-1.912 1.262-.407 2.565.65 3.745-.53-2.239-.772-4.192-1.424-6.145-2.115-.61.691-1.343.895-2.238.61-4.72-1.343-9.726-1.587-14.447-3.133-1.913-.61-4.11-.489-6.186-.692zM581.6 47.364c-1.1.244-1.547.936-.855 2.28a62.16 62.16 0 012.563-.815c.082-1.22-.529-1.709-1.709-1.465zM555.88 41.504c1.913.366 3.866.692 5.616-.61.04 0 .04 0 .081.04.367-.529.692-1.058 1.1-1.587-2.035-.57-2.036-.57-3.582.692.773.285 1.587.57 2.36.855-.936.122-1.83.203-2.4-.814-.774-.488-1.71-.855-2.28-1.546-.895-1.059-1.994-1.221-3.174-1.303-.366 1.262-1.017 2.198-2.4 2.645-2.85.855-2.85.896-4.64 2.768-.61-.407-1.261-.814-1.831-1.18a42.6 42.6 0 00.936-1.954c-1.22-.366-2.238-.692-3.296-.976.244-.774.447-1.384.61-2.035-1.668-.448-2.89-1.221-4.965-2.849-.488-.407-1.261-.692-1.912-.692-1.18.041-2.32.326-3.907.57.651.692 1.017 1.465 1.506 1.506 1.79.244 3.418.488 3.58 2.767 0 .244.245.529.49.692 2.197 1.465 3.824 3.703 6.388 4.68a188.186 188.186 0 008.017 2.889c.57.203 1.262-.081 2.645-.203a171.05 171.05 0 00-2.97-2.401c.366-.896.691-1.669 1.058-2.646 1.058.245 1.994.53 2.97.692zM572.81 44.353c.04.081.406-.04.69-.04-.162-.245-.284-.57-.487-.733-.163-.122-.448-.122-.651-.163.122.325.203.692.447.936zM583.349 48.829h.081v.041h-.081zM572.32 35.97c-2.522-1.343-5.167-1.547-7.853-1.79.773.488 1.505 1.18 2.36 1.383 1.628.407 3.296.529 5.005.692.123 0 .245-.122.489-.285zM566.42 39.347c.448.448.692.855 1.017.936.285.082.692-.203 1.018-.325-.244-.244-.448-.57-.733-.651-.325-.122-.732 0-1.302.04z"/><path d="M559.014 39.999l.04.08.041-.04c-.04 0-.04 0-.081-.04zM580.704 25.796c-.04-.04-.082-.04-.122-.081.081.04.081.081.081.122.04 0 .04-.04.04-.04zM565.606 46.51l.04-.041h-.08l.04.04zM694.69 38.452c.08.082.162.163.243.244.082-.122.163-.285.244-.407-.122-.04-.244-.081-.325-.04-.082 0-.122.122-.163.203zM742.627 39.225c.244.244.53.489.895.855.326-.326.57-.61.774-.895-.285-.204-.57-.61-.896-.61-.244 0-.488.406-.773.65zM695.218 35.93c-.57-.123-1.14-.204-1.71-.326 0 .162-.04.284-.04.447.61 0 1.18.04 1.79.04-.04-.04-.04-.08-.04-.162zM757.4 36.377l-.123-.285-.203.244zM754.51 44.19l-.204-.163-.081.204zM804.97 42.033l-.284.082.244.162zM688.015 37.069l-.325.081.244.203zM637.27 40.609c-.042-.081-.326-.04-.367 0-.04.163-.04.366-.082.57.245 0 .448-.041.733-.041-.081-.203-.122-.407-.285-.529zM691.27 26.61c.163.04.408-.244.611-.366-.244-.244-.448-.489-.692-.733-.163.204-.285.367-.447.57.162.203.325.488.529.529zM688.91 42.603c.122.081.163.285.244.285.245.04.53-.04.774-.04-.204-.164-.407-.326-.651-.408-.082-.04-.245.082-.367.163zM680.975 39.307c.04.081.122.162.163.244.122 0 .203-.04.325-.082-.081-.08-.122-.203-.203-.244-.082-.04-.204.041-.285.082zM789.222 40.243c-.04-.082-.04-.204-.04-.285-.123 0-.204.04-.407.04.203.082.325.163.447.245zM765.986 30.557c-.122-.04-.244-.04-.53-.122.245.204.367.285.489.407 0-.081.04-.285.04-.285zM793.251 41.097c.04-.081.122-.203.163-.285-.122-.08-.204-.122-.326-.203-.04.081-.203.244-.162.285a.885.885 0 00.325.203zM801.268 42.196c.325-.366.529-.61.732-.855-.203-.162-.407-.447-.61-.447-.326.04-.61.244-.936.407.244.244.447.488.814.895zM795.326 42.847c1.628-2.808 1.628-2.89 1.18-3.947-1.587 1.587-1.587 1.546-1.912 2.848-.163.61-.04 1.1.732 1.1zM766.84 38.574c1.384-.977 1.669-2.116.774-3.703-1.384 1.017-2.117 2.035-.774 3.703zM773.433 39.754l-.326.041.244.203zM784.42 37.394l-.407.04.285.286zM778.682 37.557c-.081.04-.122.325-.081.366.366.285.732.733 1.22.855.448.122.977-.122 1.384-.204.082-.366.163-.57.123-.61-.367-.326-.774-.814-1.221-.855-.448-.081-.977.244-1.425.448zM681.992 41.382c-.203-.081-.366-.122-.57-.203.082.162.123.244.204.325l.366-.122zM649.64 41.87c.082.041.082 0 .122 0-.04-.04-.081-.04-.122-.08-.04 0-.04.04-.081.04.04 0 .081 0 .081.04zM651.268 42.44c0-.244-.04-.692-.081-.65-.448 0-.936.08-1.384.121.407.244.773.489 1.18.733.04 0 .285-.122.285-.204zM652.733 48.626c.407-1.465.733-2.605 1.058-3.907-1.628-.04-3.255-.081-5.087-.163 1.425 1.587 1.425 1.587 1.588 4.11 1.058 0 1.871-.04 2.441-.04zM640.118 29.418c-.57.773-.855 1.017-.977 1.343-.04.122.366.529.53.529.325-.04.813-.244.854-.448.081-.325-.163-.692-.407-1.424zM646.385 33.121l.284.082-.122-.245zM653.058 33.447c-.08-.04-.244.04-.366.04l.122.611c.163-.122.326-.285.489-.407-.082-.081-.122-.204-.245-.244zM655.297 42.806c-.204-.122-.407-.284-.61-.406-.123.203-.285.406-.408.61.204.122.407.285.611.407.122-.204.244-.407.407-.61zM676.987 34.301c.203.082.326.163.448.244 0-.122 0-.244-.041-.284-.082-.041-.204 0-.407.04zM655.622 33.894c-.773-2.97-1.302-3.337-3.662-2.36 1.017.53 1.546.733 1.953 1.017.53.367.977.733 1.71 1.343zM637.106 47.039c.163-.245.326-.407.53-.57-.163-.163-.326-.448-.53-.488s-.447.203-.65.325c.203.244.447.488.65.733zM668.807 32.796c-.203.081-.366.203-.57.285.163.162.285.325.448.488.122-.163.285-.326.367-.53 0-.04-.204-.243-.245-.243zM673.731 35.644c.041-.081-.325-.447-.529-.529-.61-.163-1.18 0-1.261.692-.04.285.366.61.773 1.22.448-.569.773-.976 1.017-1.383zM662.744 32.673l-.244-.244-.122.285zM670.598 41.3c.732.042 1.71-.121 1.668-1.342-1.709-1.14-3.418-.57-5.29.732 1.221.204 2.401.57 3.622.61zM640.89 48.219c.896-.04 1.791-.244 2.687-.407 0-.285.04-.57.04-.855-.895-.163-1.79-.407-2.685-.447-.204 0-.652.529-.652.773 0 .325.407.936.61.936zM645.612 42.684c1.342-.04 2.807.122 3.988-.814-1.058-.244-2.117-.57-3.215-.691-1.221-.122-1.75-2.076-3.581-1.1.813 1.059 1.017 2.687 2.808 2.605zM644.065 44.8l-.203-.122-.041.204zM655.297 52.45c-.163 0-.366.286-.489.408.204.122.448.407.57.366.324-.121.648-.323.971-.526.025.003.047.01.047.038l-.041-.081s-.025.005-.035.03c-.351-.119-.669-.234-1.023-.234z"/><path d="M657.698 50.376a234.74 234.74 0 01-.489-2.36c-.813.04-1.383.08-1.953.121-.122 0-.244.123-.326.204-.284 2.279-.284 2.279 1.425 4.314.529.081 1.058.203 1.79.325-.162-1.058-.284-1.831-.447-2.604z"/></g></svg>