<svg xmlns="http://www.w3.org/2000/svg" viewBox="0 0 266.54072 114.52586"><defs><style>.cls-1{fill:none;stroke:#231f20;stroke-miterlimit:10;}.cls-2{fill:#e8b909;}.cls-3{fill:#fff;}.cls-4{fill:#fd0;}.cls-5{fill:#0054a4;}.cls-6{fill:#a30046;}.cls-7{fill:#e31937;}.cls-8{fill:#231f20;}.cls-9{fill:#00be40;}</style></defs><g id="Layer_2" data-name="Layer 2"><g id="ARTE"><g id="FR_joint-logo-horizontal-black"><line class="cls-1" x1="133.27036" x2="133.27036" y2="71.7104"/><path class="cls-2" d="M210.832,1.21078l.358.23732c3.92543,2.59863,7.08539,3.07415,11.89474,3.07415a16.365,16.365,0,0,0,5.25711-.92l.45633-.15788,2.28034,3.19512-.23457.31339c-8.47149,11.25577-1.86557,23.408,2.81,28.25887l.43248.449-.44105.44043c-.61327.61177-1.675,1.71626-2.46357,2.544l-.267.281.01708.3867.00432.13436c.00425.0984.00731.20036.02746.37751l.00731.07024c.3959,7.50756-1.54974,13.67424-5.78242,18.32722-4.49778,4.94434-11.59236,7.92109-19.97591,8.38166l-.32314.01833-.23945.21869c-2.135,1.94313-4.30168,3.55705-4.32489,3.57475l-.37788.28161-.37782-.28036c-.08976-.06718-2.22961-1.65908-4.33683-3.576l-.23913-.21869-.32347-.01833c-8.38379-.46057-15.47838-3.43732-19.97647-8.38166-4.23362-4.65479-6.17894-10.82147-5.78123-18.329l.00551-.07087c.01951-.16614.0232-.25778.02745-.36224l.00063-.02809.00031-.00307.00394-.116.01683-.38733-.26666-.28036c-.74369-.78128-1.835-1.91748-2.46332-2.544l-.44075-.44043.43224-.449c4.67618-4.85089,11.28079-17.0031,2.81024-28.25887l-.23576-.31339,2.28185-3.19512.45576.15788a16.34529,16.34529,0,0,0,5.257.92c4.809,0,7.96907-.47552,11.8945-3.07415l.35855-.23732.35279.24433a17.83466,17.83466,0,0,0,10.538,3.52284A17.83487,17.83487,0,0,0,210.4789,1.45511l.353-.24433"/><path class="cls-3" d="M174.14681,29.00482c2.65386-6.08574,3.64225-13.90174-.82131-21.54122a19.909,19.909,0,0,0,3.4721.3207c4.56809,0,8.16486-.41541,12.20451-2.69851a20.71212,20.71212,0,0,0,10.93113,3.15452,20.72441,20.72441,0,0,0,10.94638-3.15452c4.04027,2.2831,7.637,2.69851,12.20506,2.69851a18.43276,18.43276,0,0,0,3.48318-.33966c-4.474,7.65781-3.4868,15.47444-.83264,21.56018H174.14681"/><path class="cls-4" d="M225.73522,29.00482c-2.65416-6.08574-3.64137-13.90237.83264-21.56018a18.43276,18.43276,0,0,1-3.48318.33966c-4.568,0-8.16479-.41541-12.20506-2.69851a20.72441,20.72441,0,0,1-10.94638,3.15452c-.04036,0-.07976-.00212-.12036-.00244v20.767Z"/><path class="cls-5" d="M220.0542,58.41579c5.08358-3.71588,8.086-9.64917,7.645-18.30513-.05136-.49236-.088-.52107-.1271-1.01648H220.0542Z"/><path class="cls-6" d="M212.0085,62.14085a24.26063,24.26063,0,0,0,8.04689-3.72625V39.09418H212.0085Z"/><path class="cls-6" d="M179.82658,58.4146a24.26949,24.26949,0,0,0,8.04789,3.72625V39.09418h-8.04789Z"/><path class="cls-5" d="M172.18348,40.11066c-.44106,8.656,2.56133,14.58988,7.64529,18.30575V39.09418h-7.51888C172.2708,39.58959,172.23477,39.6183,172.18348,40.11066Z"/><path class="cls-6" d="M199.961,43.36658a7.53654,7.53654,0,0,1,4.00424,1.15209V39.09418h-8.04751v5.44889A7.53636,7.53636,0,0,1,199.961,43.36658Z"/><path class="cls-6" d="M199.961,58.52944a7.531,7.531,0,0,1-4.04327-1.17655v6.00117c.14231.00732.2828.01708.42542.0244,2.67318.01345,5.09678.02815,7.1963,0,.14293-.00732.28349-.01708.42579-.0244V57.37735A7.53707,7.53707,0,0,1,199.961,58.52944Z"/><path class="cls-5" d="M203.96343,39.09418v5.42324a7.56667,7.56667,0,0,1,0,12.86056v5.97608a38.46746,38.46746,0,0,0,8.04751-1.21321V39.09418Z"/><path class="cls-5" d="M192.38051,50.94857a7.571,7.571,0,0,1,3.53935-6.40732V39.09418H187.872V62.14085a38.46631,38.46631,0,0,0,8.04783,1.21321V57.35414A7.56879,7.56879,0,0,1,192.38051,50.94857Z"/><path class="cls-7" d="M175.95952,14.28633a22.46918,22.46918,0,0,1,.21106,7.67733h7.81663v7.04116h7.67732V21.96366h8.18013V14.28633h-8.18013v-7.809a23.64591,23.64591,0,0,1-2.66242-1.39154,19.42517,19.42517,0,0,1-5.0149,2.00668v7.19386Z"/><path class="cls-7" d="M216.36705,29.00482V7.2a18.74788,18.74788,0,0,1-2.7587-.82438v22.6292Z"/><path class="cls-7" d="M205.33114,29.00482V7.51214a19.83686,19.83686,0,0,1-2.75869.55559V29.00482Z"/><path class="cls-7" d="M221.885,29.00482V7.77148c-.95362-.01808-1.86988-.06236-2.7587-.14662v21.38Z"/><path class="cls-7" d="M210.84909,29.00482V5.10318a23.48249,23.48249,0,0,1-2.75869,1.42976V29.00482Z"/><path class="cls-8" d="M235.36244,35.65622l-1.05251-1.09285c-4.49046-4.65873-10.84036-16.31377-2.73912-27.08088l.63591-.846-3.06288-4.2916-1.0983.37932a15.41557,15.41557,0,0,1-4.96086.87017c-4.62726,0-7.65962-.45145-11.392-2.923L210.81975.0929l-.8601.59738a16.96919,16.96919,0,0,1-10.01816,3.36007A16.96953,16.96953,0,0,1,189.92269.69028L189.06291.0929l-.87324.57849c-3.73207,2.47151-6.76443,2.923-11.39207,2.923a15.40919,15.40919,0,0,1-4.96047-.87017l-1.09837-.37932-3.06407,4.291.63622.84665c8.10187,10.76711,1.75166,22.42215-2.73793,27.08088l-1.05282,1.09285,1.0739,1.07147c.577.576,1.60079,1.63831,2.44681,2.52893-.00244.05011-.00332.09408-.00519.13806-.00332.09226-.0055.16983-.02321.31889l-.00856.10021c-.41386,7.76528,1.61084,14.15984,6.01611,19.00334,4.67005,5.13438,11.969,8.20459,20.60018,8.67861,2.13836,1.94745,4.30937,3.56193,4.40683,3.63462l.9224.6842.92052-.68664c.09652-.07206,2.256-1.686,4.39214-3.63218,8.63156-.474,15.93013-3.54423,20.59961-8.67861,4.40614-4.8435,6.43-11.23681,6.017-19.00334l-.00914-.10021a2.99748,2.99748,0,0,1-.02263-.32071c-.00182-.04216-.00364-.08613-.00551-.13624.84671-.89062,1.87113-1.95351,2.44718-2.52893Zm-5.11292,3.03418c.07881.78.033.7495.08676,1.20582.92177,17.30824-11.136,25.481-25.70823,26.08455-2.22725,2.08062-4.68081,3.90953-4.68081,3.90953s-2.46544-1.82891-4.69294-3.90953c-14.57218-.60351-26.63032-8.77631-25.70854-26.08455.054-.45632.00826-.42579.08732-1.20582-.83532-.88331-2.21805-2.32652-2.94829-3.05494,5.22683-5.42356,11.32539-17.8318,2.86034-29.08144l1.78769-2.3708a16.92792,16.92792,0,0,0,5.46478.95542c4.85427,0,8.16912-.4814,12.24479-3.18017A18.59046,18.59046,0,0,0,199.94149,5.595a18.59118,18.59118,0,0,0,10.899-3.63649c4.075,2.69877,7.389,3.18017,12.24415,3.18017a16.93326,16.93326,0,0,0,5.46478-.95542l1.78745,2.3708c-8.46537,11.24964-2.3665,23.65788,2.86127,29.08144C232.46757,36.36388,231.08459,37.80709,230.24952,38.6904Z"/><path class="cls-8" d="M172.07933,39.07585c-.02077.26447-.04123.39095-.06293.53263-.01927.121-.03941.25234-.06412.49054-.33935,6.656,1.32343,12.04262,4.941,16.01139,4.14961,4.551,10.87213,7.14344,19.449,7.499l.32622.00119c1.42726.00857,2.78122.0147,4.05059.0147.99515,0,1.93832-.00369,2.82956-.01651,8.56858-.35493,15.29054-2.94742,19.44015-7.49837,3.61817-3.9694,5.28094-9.35542,4.94009-16.023-.02321-.22663-.044-.358-.06293-.479-.022-.14168-.04216-.26816-.06293-.53263l-.01714-.21381h-55.6901Zm.3344,1.05864c.02265-.21506.04185-.33966.05993-.45513.01645-.10628.032-.20524.0476-.35305h54.83952c.01582.14906.03171.24677.0476.3543.01833.11422.03791.23882.05987.44224.33233,6.52711-1.28953,11.80067-4.82093,15.6748-4.06529,4.45812-10.67547,6.99932-19.1115,7.34867-2.01219.02753-4.32251.01589-6.86489.00251l-.318-.00251c-8.44247-.34935-15.05327-2.89055-19.11763-7.348C173.70388,51.92477,172.08208,46.65,172.41373,40.13449Z"/><path class="cls-8" d="M173.93482,28.91168l-.14143.32371h52.295l-.14113-.32371c-2.27122-5.2095-3.97427-13.1431.821-21.35038l.25653-.4398-.5003.09652a18.26782,18.26782,0,0,1-3.43977.33415c-4.66761,0-8.14159-.4368-12.09022-2.6683l-.11854-.06687-.116.07056a20.43967,20.43967,0,0,1-10.826,3.12062,20.41973,20.41973,0,0,1-10.812-3.12062L189.006,4.817l-.11785.06687c-3.94863,2.2315-7.42355,2.6683-12.0906,2.6683a19.75555,19.75555,0,0,1-3.43151-.31614l-.49266-.08764.25259.43187C177.91123,15.77164,176.20692,23.70218,173.93482,28.91168Zm26.14041-20.4408a20.86911,20.86911,0,0,0,10.80926-3.11756c3.98773,2.22387,7.50143,2.66187,12.20019,2.66187a18.66642,18.66642,0,0,0,3.03724-.25534c-4.49233,8.0512-2.94191,15.79577-.73792,21.01315H200.07523Zm-26.30686-.6994a19.77279,19.77279,0,0,0,3.02923.24371c4.6982,0,8.21222-.438,12.2005-2.66187a20.86145,20.86145,0,0,0,10.61411,3.11512V28.773H174.498C176.70265,23.555,178.25608,15.81074,173.76837,7.77148Z"/><polygon class="cls-8" points="193.342 32.014 193.342 30.486 188.165 30.486 188.165 37.659 189.722 37.659 189.722 34.7 191.837 34.7 191.837 33.184 189.722 33.184 189.722 32.014 193.342 32.014"/><path class="cls-8" d="M199.4036,31.922a1.26346,1.26346,0,0,1,1.216.7208l.033.065,1.441-.664-.03359-.06994a2.74421,2.74421,0,0,0-2.63652-1.59865c-1.88115,0-3.19481,1.52046-3.19481,3.69667,0,2.24551,1.23428,3.696,3.14415,3.696a2.74832,2.74832,0,0,0,2.66642-1.62737l.03115-.06293-1.3091-.77577-.0391.06474a1.39269,1.39269,0,0,1-1.30847.85584c-.95018,0-1.58852-.865-1.58852-2.15055C197.82515,32.74634,198.43022,31.922,199.4036,31.922Z"/><path class="cls-8" d="M211.42326,32.41738c0-1.20889-.86129-1.9315-2.3023-1.9315h-3.29565v7.17278h3.26449a2.26591,2.26591,0,0,0,2.57416-2.34272,1.68388,1.68388,0,0,0-.90588-1.54455A1.63353,1.63353,0,0,0,211.42326,32.41738Zm-4.0708-.4856h1.708c.6964,0,.7856.31915.7856.59588,0,.39433-.234.58555-.71535.58555h-1.77825Zm1.78863,4.24h-1.78863V34.50932h1.78863c.631,0,.92609.26329.92609.8277C210.06718,35.88285,209.74648,36.17178,209.14109,36.17178Z"/><path class="cls-8" d="M199.91184,58.65405a7.747,7.747,0,1,0-7.7467-7.747A7.75587,7.75587,0,0,0,199.91184,58.65405Zm0-.46545a7.25405,7.25405,0,0,1-4.06317-1.23948,11.53329,11.53329,0,0,0,4.84908-1.21865c1.229-.73243,2.53381-1.64632,2.77208-2.86741a1.92965,1.92965,0,0,1,2.81855,1.56137A7.28164,7.28164,0,0,1,199.91184,58.1886Zm-3.59065-5.61385a3.02341,3.02341,0,0,0,1.29747.46058,2.49278,2.49278,0,0,0,2.50579-2.01463,1.745,1.745,0,0,1,2.78584.68051c.63773,1.52528-.70559,2.6267-2.43492,3.65907a11.54516,11.54516,0,0,1-5.19111,1.168,7.313,7.313,0,0,1-1.9218-2.438c.05836.00306.11666.00488.17621.00488A3.11956,3.11956,0,0,0,196.32119,52.57475Zm-1.15884-3.6774a16.38551,16.38551,0,0,1,.70284-4.04271,7.211,7.211,0,0,1,3.41074-1.19976,2.01756,2.01756,0,0,0,.19973,2.95048,2.14509,2.14509,0,0,0-.544.59557,2.80114,2.80114,0,0,0,.75751,3.81426,2.08116,2.08116,0,0,1-2.01525,1.59009C195.98641,52.389,195.18925,50.82278,195.16235,48.89735Zm8.34476,3.48193a2.47262,2.47262,0,0,0-.19736-.84671,2.173,2.173,0,0,0-3.39854-.89182,2.3656,2.3656,0,0,1-.613-3.20826c.846-1.3415,2.77026-.807,4.5283.17528a7.51348,7.51348,0,0,1,3.33531,3.96883,7.2179,7.2179,0,0,1-.56567,2.22106A2.35508,2.35508,0,0,0,203.50711,52.37928Zm.53083-5.14964c-1.27183-.70979-2.94073-1.35977-4.14474-.85885a1.60572,1.60572,0,0,1,.08156-2.744,7.27964,7.27964,0,0,1,7.20425,6.83981A8.45979,8.45979,0,0,0,204.03794,47.22964Zm-8.717-1.97366c-.13562.5357-.26635,1.00365-.37113,1.48012-.37444,1.71588-.37018,4.29923,1.02536,5.571a2.684,2.684,0,0,1-2.43648,1.35433,2.85675,2.85675,0,0,1-.37838-.02508,7.288,7.288,0,0,1,2.16063-8.38042Z"/><path class="cls-8" d="M258.31845,94.66923c0,2.7194,1.10015,3.73851,3.35052,3.73851a4.41617,4.41617,0,0,0,2.83245-1.11612h.064l.259,1.0031h1.71632V87.28909h-2.20135v8.54526a2.96537,2.96537,0,0,1-1.95829.66412c-1.36025,0-1.86129-.437-1.86129-1.94226V87.28909h-2.20134Zm-6.06781-5.40587c1.39223,0,2.00625.51812,2.00625,2.05534v2.94648c0,1.53723-.614,2.05527-2.00625,2.05527h-1.60226V89.26336Zm-3.80358,9.03136h3.93257c2.63842,0,4.07861-1.27813,4.07861-4.22461V91.51377c0-2.94654-1.44019-4.22468-4.07861-4.22468h-3.93257Zm-11.14958,0h6.32793l.32406-1.99021h-4.45065V87.28909h-2.20134Zm-8.75422,0h6.813V96.30451h-4.61272V93.79508h4.03065V91.80481h-4.03065V89.27937h4.45175l.323-1.99028h-6.975Zm-6.18187-1.53716v1.53716H226.763V96.75756l-1.10016-.19513V89.02035l1.10016-.194V87.28909h-4.40163v1.53723l1.10013.194v7.54208Zm-8.60925-2.57339c0,2.91238,1.44022,4.22357,4.07864,4.22357a4.3842,4.3842,0,0,0,3.30147-1.23018V95.46231H219.336s-.13007.98717-1.48924.98717c-1.44019,0-1.89327-.71214-1.89327-2.21736V91.35176c0-1.50528.45308-2.21736,1.89327-2.21736,1.35917,0,1.48924.98711,1.48924.98711h1.79625V88.40633a4.38409,4.38409,0,0,0-3.30147-1.23025c-2.63842,0-4.07864,1.31015-4.07864,4.22363Zm-5.85781,2.57339v1.53716H212.296V96.75756l-1.10012-.19513V89.02035l1.10012-.194V87.28909h-4.40163v1.53723l1.10016.194v7.54208Zm-7.71909,1.53716h2.20135V93.79508h3.86753V91.80481h-3.86753V89.27937h4.28863l.32406-1.99028h-6.814Zm-8.2052,0h2.20135V93.79508H198.04V91.80481h-3.86861V89.27937h4.28968l.323-1.99028H191.97ZM183.686,94.20018V91.3837c0-1.61823.614-2.29835,2.07128-2.29835,1.45619,0,2.07128.68012,2.07128,2.29835v2.81648c0,1.61817-.61509,2.29829-2.07128,2.29829-1.45726,0-2.07128-.68012-2.07128-2.29829m-2.20135-.16208c0,2.86443,1.50522,4.4187,4.27263,4.4187,2.78339,0,4.27263-1.57028,4.27263-4.4187V91.54572c0-2.86436-1.50522-4.41864-4.27263-4.41864-2.78446,0-4.27263,1.55428-4.27263,4.41864Zm-12.94584.275c0,2.78342,1.21314,4.11062,3.56053,4.11062a3.18041,3.18041,0,0,0,2.34634-.87311h.049l.275.74408H176.356V91.80481h-3.70659v1.92631h1.68326v2.33031a2.14243,2.14243,0,0,1-1.57025.56607c-1.37518,0-2.02333-.64708-2.02333-2.1843V91.35176c0-1.50528.59912-2.21736,2.03931-2.21736a1.532,1.532,0,0,1,1.6193.98711h1.79626V88.43827a4.42929,4.42929,0,0,0-3.35053-1.26219c-2.70238,0-4.30461,1.2782-4.30461,4.22363Zm-10.06541,3.98159h2.13632V93.08294c0-1.08411-.04906-2.08728-.04906-2.08728h.04906s.72808,1.26219,1.08415,1.89326l2.76738,4.51571v.89009h2.13634V87.28909h-2.13634v4.56367c0,1.08522.081,2.26635.081,2.26635h-.032s-.6151-1.2462-.87415-1.66723l-3.13946-5.16279h-2.0233Zm-6.18189-1.53716v1.53716h4.40162V96.75756l-1.10016-.19513V89.02035l1.10016-.194V87.28909h-4.40162v1.53723l1.10015.194v7.54208Zm-5.66379-7.4942c1.39223,0,2.00732.51812,2.00732,2.05534v2.94648c0,1.53723-.61509,2.05527-2.00732,2.05527h-1.60226V89.26336Zm-3.80254,9.03136h3.93257c2.63842,0,4.07864-1.27813,4.07864-4.22461V91.51377c0-2.94654-1.44022-4.22468-4.07864-4.22468h-3.93257Zm-6.991-6.60293c.27506-1.02016.59912-2.44443.59912-2.44443h.43707s.32409,1.42427.58312,2.44443l.64707,2.44332a7.46449,7.46449,0,0,1-1.47324.14607,8.17179,8.17179,0,0,1-1.42421-.13006Zm-3.64153,6.60293h1.92632l.59908-2.29829a10.63908,10.63908,0,0,0,1.90927.178,9.95309,9.95309,0,0,0,1.9583-.194l.59909,2.3143h1.9743V97.06454l-2.70238-9.77545h-3.56053l-2.70345,9.77545Zm-6.77993-6.19888V89.27937H127.452a1.28212,1.28212,0,0,1,1.42421,1.37626,1.43945,1.43945,0,0,1-1.01912,1.44021Zm-2.20027,6.19888h2.20027V94.08716h1.14916a24.43989,24.43989,0,0,0,2.78446,4.20756h1.68327V96.96753a17.859,17.859,0,0,1-2.21732-3.10745,3.5521,3.5521,0,0,0,2.26531-3.30147c0-2.13634-1.31123-3.26952-3.7066-3.26952H123.2124Zm-1.61822-9.01535.324-1.99028H114.3761v1.99028h2.62243v9.01535h2.20028V89.27937Zm-18.3346,9.01535h6.813V96.30451h-4.61269V93.79508h4.03065V91.80481h-4.03065V89.27937h4.45172l.323-1.99028h-6.975Zm-6.14884-9.03136c1.39117,0,2.00626.51812,2.00626,2.05534v2.94648c0,1.53723-.61509,2.05527-2.00626,2.05527H95.50851V89.26336Zm-3.80358,9.03136h3.93257c2.63842,0,4.07862-1.27813,4.07862-4.22461V91.51377c0-2.94654-1.4402-4.22468-4.07862-4.22468H93.30716Zm-11.99174,0h6.814V96.30451H83.51677V93.79508h4.03065V91.80481H83.51677V89.27937h4.45066l.32408-1.99028H81.31542Zm-7.378-6.19888V89.27937h2.03931A1.28211,1.28211,0,0,1,77.401,90.65563a1.43986,1.43986,0,0,1-1.02019,1.44021Zm-2.20134,6.19888h2.20134V94.08716h1.14917A24.47532,24.47532,0,0,0,77.87,98.29472h1.68325V96.96753a17.85965,17.85965,0,0,1-2.21734-3.10745,3.55244,3.55244,0,0,0,2.26638-3.30147c0-2.13634-1.3112-3.26952-3.70658-3.26952H71.73612Zm-6.1819-1.53716v1.53716h4.40269V96.75756l-1.10119-.19513V89.02035l1.10119-.194V87.28909H65.55422v1.53723l1.10015.194v7.54208Zm-6.50488-5.06577c.275-1.02016.5991-2.44443.5991-2.44443h.43707s.32408,1.42427.58312,2.44443l.64707,2.44332a7.46464,7.46464,0,0,1-1.47324.14607,8.17217,8.17217,0,0,1-1.42422-.13006Zm-3.64155,6.60293h1.9263l.59912-2.29829a10.63868,10.63868,0,0,0,1.90925.178,9.95289,9.95289,0,0,0,1.95828-.194l.59911,2.3143h1.97428V97.06454l-2.70238-9.77545H58.11123l-2.70344,9.77545Zm-9.79039,0h2.13738V93.08294c0-1.08411-.049-2.08728-.049-2.08728h.049s.7281,1.26219,1.08415,1.89326l2.7674,4.51571v.89009h2.13633V87.28909H51.60633v4.56367c0,1.08522.081,2.26635.081,2.26635h-.033s-.614-1.2462-.87307-1.66723l-3.14053-5.16279H45.6174Zm-8.7542,0h6.814V96.30451H39.06453V93.79508h4.02958V91.80481H39.06453V89.27937h4.45066l.32407-1.99028H36.8632ZM35.246,89.27937l.32407-1.99028H28.028v1.99028h2.62136v9.01535h2.20134V89.27937Zm-13.723,2.81647V89.27937h2.03932a1.28212,1.28212,0,0,1,1.42421,1.37626,1.43986,1.43986,0,0,1-1.02019,1.44021Zm-2.20133,6.19888h2.20133V94.08716h1.14918a24.47466,24.47466,0,0,0,2.7834,4.20756h1.68325V96.96753a17.85813,17.85813,0,0,1-2.21733-3.10745,3.55244,3.55244,0,0,0,2.26638-3.30147c0-2.13634-1.31123-3.26952-3.70658-3.26952H19.32173Zm-6.98994-6.60293c.275-1.02016.598-2.44443.598-2.44443h.43706s.32407,1.42427.58313,2.44443l.64707,2.44332a7.45393,7.45393,0,0,1-1.47218.14607,8.16238,8.16238,0,0,1-1.42421-.13006ZM8.69024,98.29472h1.92524l.59911-2.29829a10.64174,10.64174,0,0,0,1.91032.178,9.96878,9.96878,0,0,0,1.95828-.194l.59805,2.3143h1.97534V97.06454l-2.70343-9.77545H11.39262L8.69024,97.06454ZM2.20133,92.27386V89.27937H4.09459a1.3312,1.3312,0,0,1,1.50524,1.4082,1.61444,1.61444,0,0,1-.93811,1.58629ZM0,98.29472H2.20133V94.26518h3.1885a3.7213,3.7213,0,0,0,2.41134-3.4966c0-2.26531-1.26218-3.47949-3.72256-3.47949H0Z"/><path class="cls-8" d="M180.0766,107.76085c.2761-1.02016.59909-2.44443.59909-2.44443h.43707s.32409,1.42427.58312,2.44443l.6471,2.44332a7.457,7.457,0,0,1-1.47327.14607,8.17233,8.17233,0,0,1-1.42421-.13006Zm-3.64156,6.60293h1.92632l.59911-2.29829a10.63883,10.63883,0,0,0,1.90924.178,9.95286,9.95286,0,0,0,1.9583-.194l.59912,2.3143h1.97534V113.1336l-2.70345-9.77545h-3.56053L176.435,113.1336Zm-9.78931,0h2.13632V109.152c0-1.08412-.049-2.08729-.049-2.08729h.049s.72808,1.26219,1.08415,1.89326l2.76741,4.51571v.89009h2.13631V103.35815h-2.13631v4.56367c0,1.08522.081,2.26635.081,2.26635h-.032s-.6151-1.24619-.87415-1.66723l-3.1405-5.16279h-2.02226Zm-8.28516-4.09454v-2.81647c0-1.61824.6151-2.29836,2.07129-2.29836s2.07128.68012,2.07128,2.29836v2.81647c0,1.61817-.61509,2.29829-2.07128,2.29829s-2.07129-.68012-2.07129-2.29829m-2.20134-.16208c0,2.86443,1.50521,4.4187,4.27263,4.4187,2.78338,0,4.27263-1.57028,4.27263-4.4187v-2.49238c0-2.86436-1.50522-4.41864-4.27263-4.41864-2.78339,0-4.27263,1.55428-4.27263,4.41864Zm-7.59011,4.25662h6.329l.323-1.99021h-4.45065v-9.01542h-2.20135Zm-8.75421,0h6.814v-1.99021h-4.61269v-2.50943h4.02957v-1.99027h-4.02957v-2.52544h4.45064l.32409-1.99028h-6.97608Zm-9.09428-4.11055c0,2.91238,1.44022,4.22357,4.07864,4.22357a4.38423,4.38423,0,0,0,3.30147-1.23018v-1.71525h-1.79626s-.13006.98717-1.48924.98717c-1.44021,0-1.89326-.71214-1.89326-2.21736v-2.88036c0-1.50528.45305-2.21735,1.89326-2.21735,1.35918,0,1.48924.9871,1.48924.9871h1.79626v-1.71518a4.38412,4.38412,0,0,0-3.30147-1.23025c-2.63842,0-4.07864,1.31015-4.07864,4.22363Zm-7.05494-2.08833v-2.81647h2.0393a1.28212,1.28212,0,0,1,1.42421,1.37626,1.43986,1.43986,0,0,1-1.02019,1.44021Zm-2.20135,6.19888h2.20135v-4.20756h1.14916a24.47466,24.47466,0,0,0,2.7834,4.20756h1.68324v-1.32719a17.85843,17.85843,0,0,1-2.21732-3.10745,3.55244,3.55244,0,0,0,2.26638-3.30147c0-2.13634-1.31123-3.26952-3.70658-3.26952h-4.15963Zm-6.98994-6.60293c.275-1.02016.598-2.44443.598-2.44443h.43708s.32407,1.42427.58311,2.44443l.64707,2.44332a7.4539,7.4539,0,0,1-1.47217.14607,8.16238,8.16238,0,0,1-1.42421-.13006Zm-3.64155,6.60293h1.92524l.59911-2.29829a10.64176,10.64176,0,0,0,1.91033.178,9.969,9.969,0,0,0,1.95829-.194l.598,2.3143h1.97536V113.1336l-2.70345-9.77545h-3.56053l-2.70238,9.77545Zm-4.30355-4.64467a1.52854,1.52854,0,0,1,.97116,1.37522,1.26361,1.26361,0,0,1-1.36025,1.37626H104.0849v-2.75148Zm-.51808-4.46769a1.18257,1.18257,0,0,1,1.3272,1.2622,1.45678,1.45678,0,0,1-.85815,1.34424H104.0849v-2.60644Zm-4.06263,9.11236h4.12659c2.49344,0,3.57759-1.18112,3.57759-3.1565a2.81913,2.81913,0,0,0-1.4402-2.37826V108.796a2.77592,2.77592,0,0,0,1.27815-2.42738c0-1.8133-.9221-3.01044-3.56052-3.01044h-3.98161Zm-12.33073-4.11055c0,2.91238,1.4402,4.22357,4.07862,4.22357a4.38424,4.38424,0,0,0,3.30148-1.23018v-1.71525H95.20171s-.13006.98717-1.48924.98717c-1.4402,0-1.89434-.71214-1.89434-2.21736v-2.88036c0-1.50528.45414-2.21735,1.89434-2.21735,1.35918,0,1.48924.9871,1.48924.9871H96.998v-1.71518a4.38413,4.38413,0,0,0-3.30148-1.23025c-2.63842,0-4.07862,1.31015-4.07862,4.22363Zm-7.88112,4.11055h2.20133v-4.49964h3.86755v-1.99027H83.93807v-2.52544H88.2267l.32407-1.99028h-6.814Z"/><rect class="cls-9" x="30.18321" y="0.04477" width="71.71106" height="71.71106" rx="6.96466"/><rect class="cls-3" x="44.4256" y="45.43077" width="43.35785" height="3.4483"/><path class="cls-3" d="M56.25872,28.23917V24.73189H44.4256V41.10225h4.324V35.281h6.68789V31.76915H48.74959v-3.53Z"/><path class="cls-3" d="M69.20347,32.61307a3.96137,3.96137,0,0,0,2.64067-3.62979c0-2.64521-1.96009-4.23324-5.2632-4.23324H58.2052V41.10225h8.46649c3.60256,0,5.75321-1.706,5.75321-4.6053A4.02027,4.02027,0,0,0,69.20347,32.61307Zm-6.765-4.55992h3.344c1.216,0,1.86934.55808,1.86934,1.59257s-.65336,1.588-1.86934,1.588h-3.344ZM66.06823,37.781H62.43844v-3.2532h3.67063c1.216,0,1.89656.58076,1.89656,1.68331,0,1.039-.68058,1.56989-1.94193,1.56989Z"/><path class="cls-3" d="M82.86055,31.16116,80.89139,30.898c-1.94193-.28131-2.51363-.75772-2.51363-1.66063s.75772-1.52,2.44557-1.52a2.37144,2.37144,0,0,1,2.69512,2.00092l4.11528-.53085c-.60345-3.22144-2.91744-4.78679-6.69243-4.78679-4.22417,0-7.001,2.10982-7.001,5.33579,0,2.77225,1.68332,4.38751,5.12708,4.86392l2.05991.28131c2.18241.31307,2.72234.80763,2.72234,1.76045s-.80762,1.52-2.72234,1.52a3.09893,3.09893,0,0,1-3.10347-2.18241l-4.28769.64429c.6942,3.33487,3.23051,4.85484,7.25958,4.85484,4.57807,0,7.28227-1.96916,7.28227-5.3131C88.25987,33.2256,86.60831,31.70562,82.86055,31.16116Z"/></g></g></g></svg>