<svg xmlns="http://www.w3.org/2000/svg" viewBox="0 0 114.54 122.57"><defs><style>.cls-1{fill:none;stroke:#fff;stroke-miterlimit:10;}.cls-2{fill:#231f20;}.cls-3{fill:#e8b909;}.cls-4{fill:#0054a4;}.cls-5{fill:#a30046;}.cls-6{fill:#fff;}.cls-7{fill:#fd0;}.cls-8{fill:#e31837;}</style></defs><title>FR_logo-without - vertical color (dark bg)</title><g id="Layer_2" data-name="Layer 2"><g id="TEXTOS"><line class="cls-1" x1="87.74" y1="71.83" x2="29.97" y2="71.83"/><path class="cls-2" d="M87.72,29.29l-.86-.9C83.18,24.55,78,15,84.61,6.08l.52-.69-.45-.74a9,9,0,0,0-.79-1.07c-.21-.26-.42-.53-.71-.94l-.55-.79-.9.32a12.54,12.54,0,0,1-4.06.71c-3.79,0-6.28-.37-9.33-2.4L67.62,0l-.7.49a13.82,13.82,0,0,1-8.2,2.77A13.85,13.85,0,0,1,50.51.49L49.81,0,49.1.48c-3.06,2-5.54,2.4-9.33,2.4a12.6,12.6,0,0,1-4.07-.71l-.89-.32-.55.79c-.29.41-.51.68-.72.93a9,9,0,0,0-.78,1.08l-.46.74.52.69c6.63,8.87,1.43,18.47-2.24,22.31l-.86.9.87.88c.48.47,1.31,1.35,2,2.08a.49.49,0,0,0,0,.12,1.28,1.28,0,0,1,0,.26v.08c-.34,6.4,1.32,11.66,4.92,15.65,3.83,4.23,9.81,6.76,16.87,7.15,1.75,1.61,3.53,2.93,3.61,3l.75.57.76-.57c.08-.06,1.84-1.39,3.59-3,7.07-.39,13.05-2.92,16.87-7.15,3.61-4,5.26-9.25,4.93-15.65v-.08a1.28,1.28,0,0,1,0-.26v-.12c.69-.73,1.53-1.61,2-2.08Zm-4.19,2.5c.07.64,0,.61.07,1,.76,14.25-9.11,21-21,21.48-1.83,1.71-3.84,3.22-3.84,3.22s-2-1.51-3.84-3.22C43,53.76,33.07,47,33.83,32.78c0-.38,0-.35.07-1-.68-.73-1.82-1.92-2.41-2.52,4.28-4.47,9.27-14.69,2.34-23.95.45-.74.78-1,1.46-1.95a13.87,13.87,0,0,0,4.48.78c4,0,6.69-.39,10-2.62a15.13,15.13,0,0,0,8.93,3,15.12,15.12,0,0,0,8.92-3c3.33,2.23,6,2.62,10,2.62a13.81,13.81,0,0,0,4.47-.78c.68,1,1,1.21,1.46,2-6.93,9.26-1.93,19.48,2.35,24-.6.6-1.73,1.79-2.42,2.52"/><path class="cls-3" d="M58.72,57.48a48.51,48.51,0,0,1-3.84-3.22C43,53.76,33.07,47,33.83,32.78c0-.38,0-.35.07-1-.68-.72-1.82-1.91-2.41-2.51,4.28-4.47,9.27-14.69,2.34-23.95.45-.74.78-1,1.46-1.95a13.87,13.87,0,0,0,4.48.79c4,0,6.69-.4,10-2.62a15.18,15.18,0,0,0,8.92,3,15.19,15.19,0,0,0,8.93-3c3.34,2.22,6,2.62,10,2.62a13.83,13.83,0,0,0,4.48-.79c.68,1,1,1.21,1.46,2-6.92,9.26-1.93,19.48,2.35,24-.6.6-1.73,1.79-2.42,2.51.07.65,0,.62.07,1,.76,14.25-9.11,21-21,21.48a49.4,49.4,0,0,1-3.83,3.22"/><path class="cls-4" d="M42.37,32.12H36.09c0,.41-.06.43-.1.84-.37,7.2,2.14,12.11,6.38,15.17Z"/><path class="cls-5" d="M42.37,48.13a20.09,20.09,0,0,0,6.59,3v-19H42.37Z"/><path class="cls-4" d="M49,51.13a31.13,31.13,0,0,0,6.59,1v-20H49Z"/><path class="cls-5" d="M62.14,32.12h-6.6v20h.23c2.19,0,4.18,0,5.89,0l.48,0Z"/><path class="cls-4" d="M62.14,52.1a31,31,0,0,0,6.58-1v-19H62.14Z"/><path class="cls-5" d="M68.72,51.07a19.61,19.61,0,0,0,6.59-3.13V32.12H68.72Z"/><path class="cls-4" d="M81.34,32.12h-6V48C79.4,44.88,81.8,40,81.45,33c0-.41-.07-.43-.11-.84"/><path class="cls-2" d="M59.35,52.32H55.77c-7-.29-12.53-2.43-15.92-6.18-3-3.27-4.33-7.7-4.05-13.18,0-.2,0-.31.05-.4s0-.23.06-.45v-.17h45.6v.17c0,.22,0,.32,0,.45a3.91,3.91,0,0,1,0,.39c.28,5.49-1.08,9.92-4,13.19-3.4,3.75-8.9,5.89-15.92,6.18H59.35m-23.08-20c0,.12,0,.21,0,.29a2.2,2.2,0,0,0,0,.38c-.27,5.36,1,9.7,4,12.89,3.33,3.68,8.74,5.77,15.65,6.06h5.88c6.91-.29,12.32-2.38,15.65-6.06,2.89-3.19,4.22-7.53,3.94-12.9,0-.17,0-.28,0-.37a1.84,1.84,0,0,1,0-.29Z"/><path class="cls-3" d="M52.38,41.85a6.32,6.32,0,1,1,6.31,6.35,6.34,6.34,0,0,1-6.31-6.35"/><path class="cls-2" d="M58.7,35.68a6.17,6.17,0,1,0,6.12,6.17,6.16,6.16,0,0,0-6.12-6.17m0,12.45a6.29,6.29,0,1,1,6.24-6.28,6.28,6.28,0,0,1-6.24,6.28"/><path class="cls-2" d="M58.69,35.49a6.36,6.36,0,1,1-6.31,6.36,6.34,6.34,0,0,1,6.31-6.36M55.47,43c-1.14-1-1.15-3.17-.84-4.59.09-.39.19-.78.31-1.22a6,6,0,0,0-1.78,6.9l.31,0a2.19,2.19,0,0,0,2-1.12m6.14.46c-.2,1-1.27,1.76-2.28,2.36a9.1,9.1,0,0,1-4,1,5.85,5.85,0,0,0,3.32,1,5.94,5.94,0,0,0,5.22-3.1,1.57,1.57,0,0,0-2.3-1.28m-6.71,3a9.33,9.33,0,0,0,4.25-1c1.42-.84,2.52-1.75,2-3a1.43,1.43,0,0,0-2.28-.56,2,2,0,0,1-2,1.66,2.48,2.48,0,0,1-1.07-.38,2.53,2.53,0,0,1-2.28,1.25h-.14a6.19,6.19,0,0,0,1.57,2m3.78-8.37c1-.41,2.35.12,3.39.71a6.93,6.93,0,0,1,2.57,2.66,6,6,0,0,0-5.9-5.63,1.32,1.32,0,0,0-.06,2.26m-.17,3.83a2.33,2.33,0,0,1-.62-3.15,1.93,1.93,0,0,1,.45-.49,1.66,1.66,0,0,1-.17-2.43,6,6,0,0,0-2.79,1,14,14,0,0,0-.58,3.33c0,1.59.68,2.88,2.06,3.06a1.71,1.71,0,0,0,1.65-1.31m6.12.46a6.23,6.23,0,0,0-2.73-3.27c-1.44-.81-3-1.25-3.71-.15a2,2,0,0,0,.5,2.65,1.77,1.77,0,0,1,2.78.73,1.93,1.93,0,0,1,.17.7,1.93,1.93,0,0,1,2.53,1.17,6.23,6.23,0,0,0,.46-1.83"/><path class="cls-2" d="M66.21,30.94H63.53V25h2.71c1.18,0,1.89.6,1.89,1.6a1.33,1.33,0,0,1-.55,1.11A1.41,1.41,0,0,1,68.32,29a1.86,1.86,0,0,1-2.11,1.93M64.79,29.7h1.46c.49,0,.75-.23.75-.68s-.24-.67-.75-.67H64.79Zm0-2.51h1.45c.4,0,.58-.15.58-.47s-.08-.49-.64-.49H64.79Z"/><path class="cls-2" d="M58.25,31c-1.56,0-2.58-1.19-2.58-3.05s1.08-3.05,2.62-3.05a2.27,2.27,0,0,1,2.17,1.32l0,.07-1.19.55,0-.06a1,1,0,0,0-1-.59c-.8,0-1.29.68-1.29,1.76s.52,1.77,1.3,1.77a1.13,1.13,0,0,0,1.06-.7l0-.06,1.09.64,0,.06A2.26,2.26,0,0,1,58.25,31"/><polygon class="cls-2" points="50.35 30.94 49.07 30.94 49.07 25.02 53.32 25.02 53.32 26.29 50.35 26.29 50.35 27.24 52.09 27.24 52.09 28.5 50.35 28.5 50.35 30.94"/><path class="cls-6" d="M37.6,23.81c2.17-5,3-11.45-.68-17.74a16.69,16.69,0,0,0,2.85.26c3.74,0,6.68-.34,10-2.22a16.84,16.84,0,0,0,9,2.6,16.82,16.82,0,0,0,9-2.6C71,6,73.93,6.33,77.67,6.33a15.74,15.74,0,0,0,2.85-.27c-3.66,6.3-2.85,12.74-.68,17.75Z"/><path class="cls-7" d="M58.52,6.71v17.1h2.26V6.58a17.43,17.43,0,0,1-2.07.13h-.19"/><path class="cls-8" d="M60.78,23.81H63V6.13a16.14,16.14,0,0,1-2.26.45Z"/><path class="cls-7" d="M63,23.81H65.3V5.34A15.9,15.9,0,0,1,63,6.13Z"/><path class="cls-8" d="M65.3,23.81h2.26V4.18A17.85,17.85,0,0,1,65.3,5.34Z"/><path class="cls-7" d="M67.56,4.18V23.81h2.26V5.14a16.12,16.12,0,0,1-2.15-1,.67.67,0,0,1-.11.07"/><path class="cls-8" d="M69.82,23.81h2.26v-18a15.84,15.84,0,0,1-2.26-.69Z"/><path class="cls-7" d="M72.08,23.81h2.26V6.19a16.64,16.64,0,0,1-2.26-.36Z"/><path class="cls-8" d="M74.33,23.78h2.26V6.29c-.78,0-1.53,0-2.26-.12Z"/><path class="cls-7" d="M80.35,6.08a14.87,14.87,0,0,1-2.69.25H76.59V23.81h3.24c-2.13-4.93-2.94-11.24.52-17.45Z"/><path class="cls-8" d="M45.65,18v5.8h6.29V18h6.7V11.69h-6.7V5.26a19.69,19.69,0,0,1-2.18-1.15,15.58,15.58,0,0,1-4.11,1.65v5.93H39.08A18.49,18.49,0,0,1,39.25,18Z"/><path class="cls-2" d="M80.89,5.79l-.41.08a15.2,15.2,0,0,1-2.82.27C73.84,6.14,71,5.78,67.77,4l-.1-.06-.1.06a16.58,16.58,0,0,1-8.86,2.57A16.6,16.6,0,0,1,49.86,4l-.1-.06L49.67,4c-3.24,1.83-6.08,2.19-9.9,2.19A15.47,15.47,0,0,1,37,5.88l-.4-.07.2.36c3.92,6.74,2.52,13.27.66,17.56l-.11.27H80.13L80,23.73c-1.86-4.29-3.26-10.82.67-17.58Zm-43.6.53a15.33,15.33,0,0,0,2.48.2c3.84,0,6.72-.36,10-2.19A17,17,0,0,0,58.45,6.9V23.62H37.89a19.36,19.36,0,0,0-.6-17.3m42.26,17.3H58.83V6.9a17.17,17.17,0,0,0,8.85-2.57c3.26,1.83,6.14,2.19,10,2.19a15.13,15.13,0,0,0,2.49-.21,19.31,19.31,0,0,0-.6,17.31"/><path class="cls-6" d="M9,84.62h3.55c2.15,0,3.25,1.06,3.25,3a3.25,3.25,0,0,1-2.1,3H10.91v3.51H9ZM13.05,89a1.4,1.4,0,0,0,.82-1.38,1.16,1.16,0,0,0-1.31-1.22H10.91V89Z"/><path class="cls-6" d="M16.09,93.14l2.35-8.52h3.1l2.36,8.52v1.07H22.18l-.52-2a8.2,8.2,0,0,1-1.71.17,9.07,9.07,0,0,1-1.66-.15l-.53,2H16.09Zm2.62-2.54a7.15,7.15,0,0,0,1.24.11,6.77,6.77,0,0,0,1.28-.12l-.56-2.13c-.23-.89-.51-2.13-.51-2.13h-.38s-.28,1.24-.52,2.13Z"/><path class="cls-6" d="M25.49,84.62h3.63c2.08,0,3.23,1,3.23,2.85a3.1,3.1,0,0,1-2,2.88,15.81,15.81,0,0,0,1.93,2.7v1.16H30.84a21.27,21.27,0,0,1-2.43-3.67h-1v3.67H25.49Zm4.05,4.19a1.26,1.26,0,0,0,.89-1.26,1.11,1.11,0,0,0-1.24-1.19H27.41v2.45Z"/><path class="cls-6" d="M37.28,86.36v7.85H35.37V86.36H33.08V84.62h6.57l-.28,1.74Z"/><path class="cls-6" d="M40.93,84.62H47l-.28,1.74H42.84v2.2h3.51v1.73H42.84v2.18h4v1.74H40.93Z"/><path class="cls-6" d="M48.7,84.62h1.76l2.73,4.5c.23.37.77,1.45.77,1.45h0s-.07-1-.07-2v-4h1.86v9.59H53.91v-.78L51.5,89.5l-.94-1.65h0s0,.87,0,1.82v4.54H48.7Z"/><path class="cls-6" d="M57.37,93.14l2.36-8.52h3.1l2.35,8.52v1.07H63.46l-.52-2a8.13,8.13,0,0,1-1.71.17,9.15,9.15,0,0,1-1.66-.15l-.52,2H57.37ZM60,90.6a7.24,7.24,0,0,0,1.24.11,7,7,0,0,0,1.29-.12L62,88.46c-.22-.89-.5-2.13-.5-2.13h-.38s-.29,1.24-.53,2.13Z"/><path class="cls-6" d="M67.32,92.7V86.13l-1-.17V84.62h3.83V86l-1,.17V92.7l1,.17v1.34H66.36V92.87Z"/><path class="cls-6" d="M71.89,84.62h3.62c2.09,0,3.23,1,3.23,2.85a3.1,3.1,0,0,1-2,2.88,15.51,15.51,0,0,0,1.94,2.7v1.16H77.23a21.27,21.27,0,0,1-2.43-3.67h-1v3.67H71.89Zm4,4.19a1.26,1.26,0,0,0,.89-1.26,1.11,1.11,0,0,0-1.24-1.19H73.8v2.45Z"/><path class="cls-6" d="M80.38,84.62h6.07l-.28,1.74H82.29v2.2h3.52v1.73H82.29v2.18h4v1.74H80.38Z"/><path class="cls-6" d="M91,84.62H94.4c2.29,0,3.55,1.12,3.55,3.68v2.23c0,2.57-1.26,3.68-3.55,3.68H91Zm1.92,1.72v6.15h1.39C95.5,92.49,96,92,96,90.7V88.13c0-1.34-.53-1.79-1.75-1.79Z"/><path class="cls-6" d="M99.79,84.62h6.07l-.28,1.74H101.7v2.2h3.51v1.73H101.7v2.18h4v1.74H99.79Z"/><path class="cls-6" d="M4.2,100.46v7.86H2.28v-7.86H0V98.73H6.57l-.28,1.73Z"/><path class="cls-6" d="M7.84,98.73h3.63c2.08,0,3.22,1,3.22,2.85a3.09,3.09,0,0,1-2,2.87,15.71,15.71,0,0,0,1.93,2.71v1.16H13.19a21.27,21.27,0,0,1-2.43-3.67h-1v3.67H7.84Zm4.05,4.19a1.26,1.26,0,0,0,.89-1.26,1.12,1.12,0,0,0-1.24-1.2H9.76v2.46Z"/><path class="cls-6" d="M15.81,107.25l2.36-8.52h3.1l2.35,8.52v1.07H21.9l-.52-2a8.85,8.85,0,0,1-1.71.17,10.14,10.14,0,0,1-1.66-.15l-.52,2H15.81Zm2.62-2.54a7.24,7.24,0,0,0,1.24.11,6.14,6.14,0,0,0,1.29-.13l-.57-2.12c-.22-.89-.5-2.13-.5-2.13h-.38s-.29,1.24-.53,2.13Z"/><path class="cls-6" d="M25.22,98.73h3.43c2.29,0,3.55,1.11,3.55,3.68v2.23c0,2.56-1.26,3.68-3.55,3.68H25.22Zm1.92,1.72v6.15h1.39c1.22,0,1.75-.45,1.75-1.79v-2.57c0-1.34-.53-1.79-1.75-1.79Z"/><path class="cls-6" d="M34.39,106.81v-6.57l-1-.17V98.73h3.83v1.34l-.95.17v6.57l.95.17v1.34H33.43V107Z"/><path class="cls-6" d="M39,98.73h1.76l2.74,4.5c.22.36.76,1.45.76,1.45h0s-.08-1-.08-2v-4H46v9.59H44.17v-.78l-2.41-3.93L40.82,102h0s0,.87,0,1.82v4.54H39Z"/><path class="cls-6" d="M47.87,102.31c0-2.56,1.4-3.68,3.75-3.68a3.84,3.84,0,0,1,2.92,1.1v1.47H53a1.34,1.34,0,0,0-1.41-.86c-1.26,0-1.78.62-1.78,1.93V105c0,1.34.56,1.91,1.76,1.91a1.86,1.86,0,0,0,1.37-.5v-2H51.45v-1.68h3.23v5.66H53.3l-.24-.65h0a2.77,2.77,0,0,1-2.05.76c-2,0-3.1-1.16-3.1-3.58Z"/><path class="cls-6" d="M59.3,102.44c0-2.5,1.29-3.85,3.72-3.85s3.72,1.35,3.72,3.85v2.17c0,2.48-1.29,3.85-3.72,3.85s-3.72-1.35-3.72-3.85ZM63,106.75c1.27,0,1.8-.59,1.8-2V102.3c0-1.41-.53-2-1.8-2s-1.81.59-1.81,2v2.45C61.21,106.16,61.75,106.75,63,106.75Z"/><path class="cls-6" d="M68.58,98.73h5.94l-.29,1.73H70.5v2.2h3.37v1.74H70.5v3.92H68.58Z"/><path class="cls-6" d="M75.87,98.73h5.94l-.28,1.73H77.79v2.2h3.37v1.74H77.79v3.92H75.87Z"/><path class="cls-6" d="M83.7,106.81v-6.57l-1-.17V98.73h3.84v1.34l-1,.17v6.57l1,.17v1.34H82.74V107Z"/><path class="cls-6" d="M87.8,102.31c0-2.54,1.26-3.68,3.56-3.68a3.81,3.81,0,0,1,2.87,1.07v1.5H92.67s-.11-.86-1.3-.86-1.65.62-1.65,1.93v2.51c0,1.31.4,1.93,1.65,1.93s1.3-.86,1.3-.86h1.56v1.5a3.81,3.81,0,0,1-2.87,1.07c-2.3,0-3.56-1.15-3.56-3.68Z"/><path class="cls-6" d="M96.41,106.81v-6.57l-1-.17V98.73h3.83v1.34l-1,.17v6.57l1,.17v1.34H95.45V107Z"/><path class="cls-6" d="M101,98.73h6.08l-.29,1.73H102.9v2.2h3.51v1.74H102.9v2.18h4v1.74H101Z"/><path class="cls-6" d="M108.75,98.73h1.92v7.85h3.87l-.28,1.74h-5.51Z"/><path class="cls-6" d="M1.47,112.84H4.9c2.3,0,3.55,1.11,3.55,3.68v2.23c0,2.56-1.25,3.68-3.55,3.68H1.47Zm1.92,1.72v6.15h1.4c1.21,0,1.74-.46,1.74-1.79v-2.57c0-1.34-.53-1.79-1.74-1.79Z"/><path class="cls-6" d="M10.22,112.84h1.91v6.33c0,1.31.44,1.69,1.63,1.69a2.55,2.55,0,0,0,1.7-.58v-7.44h1.92v9.59h-1.5l-.22-.88H15.6a3.82,3.82,0,0,1-2.46,1c-2,0-2.92-.89-2.92-3.26Z"/><path class="cls-6" d="M22.32,112.84h5.94L28,114.57H24.24v2.2h3.37v1.74H24.24v3.92H22.32Z"/><path class="cls-6" d="M29.17,116.42c0-2.54,1.26-3.68,3.56-3.68a3.81,3.81,0,0,1,2.87,1.07v1.5H34s-.11-.86-1.3-.86-1.65.62-1.65,1.93v2.51c0,1.31.4,1.93,1.65,1.93S34,120,34,120H35.6v1.49a3.79,3.79,0,0,1-2.87,1.08c-2.3,0-3.56-1.15-3.56-3.68Z"/><path class="cls-6" d="M40.06,112.84h3.47c2.3,0,3.1,1,3.1,2.62a2.43,2.43,0,0,1-1.11,2.12v0a2.46,2.46,0,0,1,1.26,2.08c0,1.72-1,2.75-3.12,2.75h-3.6Zm1.86,1.65v2.27H44a1.27,1.27,0,0,0,.75-1.17,1,1,0,0,0-1.16-1.1Zm0,3.89v2.4h1.8a1.1,1.1,0,0,0,1.18-1.2,1.33,1.33,0,0,0-.85-1.2Z"/><path class="cls-6" d="M48,121.35l2.35-8.51h3.11l2.35,8.51v1.08H54l-.52-2a8.85,8.85,0,0,1-1.71.17,9.07,9.07,0,0,1-1.66-.16l-.52,2H48Zm2.62-2.53a7.24,7.24,0,0,0,1.24.11,6.21,6.21,0,0,0,1.29-.13l-.57-2.13c-.22-.88-.51-2.13-.51-2.13h-.38s-.28,1.25-.52,2.13Z"/><path class="cls-6" d="M57.36,112.84H61c2.09,0,3.23,1,3.23,2.85a3.09,3.09,0,0,1-2,2.87,15.51,15.51,0,0,0,1.93,2.71v1.16H62.7a21.36,21.36,0,0,1-2.42-3.67h-1v3.67H57.36Zm4,4.19a1.26,1.26,0,0,0,.89-1.26,1.12,1.12,0,0,0-1.24-1.2H59.27V117Z"/><path class="cls-6" d="M65.57,116.42c0-2.54,1.25-3.68,3.55-3.68A3.85,3.85,0,0,1,72,113.81v1.5H70.43s-.11-.86-1.3-.86-1.65.62-1.65,1.93v2.51c0,1.31.4,1.93,1.65,1.93s1.3-.86,1.3-.86H72v1.49a3.83,3.83,0,0,1-2.88,1.08c-2.3,0-3.55-1.15-3.55-3.68Z"/><path class="cls-6" d="M73.63,112.84h6.08l-.28,1.73H75.55v2.2h3.51v1.74H75.55v2.18h4v1.74H73.63Z"/><path class="cls-6" d="M81.41,112.84h1.91v7.85H87.2l-.28,1.74H81.41Z"/><path class="cls-6" d="M87.71,116.55c0-2.5,1.3-3.85,3.72-3.85s3.73,1.35,3.73,3.85v2.17c0,2.48-1.3,3.85-3.73,3.85s-3.72-1.36-3.72-3.85Zm3.72,4.31c1.27,0,1.81-.59,1.81-2v-2.45c0-1.41-.54-2-1.81-2s-1.8.6-1.8,2v2.45C89.63,120.27,90.17,120.86,91.43,120.86Z"/><path class="cls-6" d="M97,112.84h1.76l2.74,4.5c.23.36.76,1.45.76,1.45h0s-.07-1-.07-2v-4h1.86v9.59h-1.86v-.78l-2.41-3.93c-.31-.55-1-1.65-1-1.65h0s0,.87,0,1.82v4.54H97Z"/><path class="cls-6" d="M105.67,121.35l2.35-8.51h3.1l2.36,8.51v1.08h-1.72l-.52-2a8.93,8.93,0,0,1-1.71.17,9.07,9.07,0,0,1-1.66-.16l-.53,2h-1.67Zm2.62-2.53a7.15,7.15,0,0,0,1.24.11,6,6,0,0,0,1.28-.13l-.56-2.13c-.23-.88-.51-2.13-.51-2.13h-.38s-.28,1.25-.52,2.13Z"/></g></g></svg>