<svg xmlns="http://www.w3.org/2000/svg" viewBox="0 0 430.84389 71.80245"><defs><style>.cls-1{fill:#e8b909;}.cls-2{fill:#fff;}.cls-3{fill:#fd0;}.cls-4{fill:#0054a4;}.cls-5{fill:#a30046;}.cls-6{fill:#e31937;}.cls-7{fill:#231f20;}.cls-8{fill:none;stroke:#231f20;stroke-miterlimit:10;stroke-width:1.0007px;}.cls-9{fill:#00be40;}</style></defs><g id="Layer_2" data-name="Layer 2"><g id="ARTE"><g id="FR_joint-logo-flag-black"><path class="cls-1" d="M180.71731,1.19321l.358.23733c3.92543,2.59862,7.08539,3.07414,11.89474,3.07414a16.36506,16.36506,0,0,0,5.25711-.92l.45632-.15788L200.96382,6.622l-.23457.31339c-8.4715,11.25577-1.86557,23.408,2.81,28.25887l.43249.449-.44105.44044c-.61327.61176-1.675,1.71625-2.46358,2.54395l-.267.281.01708.3867.00432.13437c.00425.09839.00731.20035.02745.3775l.00732.07025c.3959,7.50756-1.54974,13.67424-5.78242,18.32721-4.49778,4.94434-11.59237,7.92109-19.97591,8.38167l-.32315.01833-.23945.21868c-2.135,1.94313-4.30167,3.55705-4.32488,3.57475l-.37788.28161-.37782-.28036c-.08976-.06718-2.22962-1.65908-4.33683-3.576l-.23913-.21868-.32347-.01833c-8.38379-.46058-15.47838-3.43733-19.97647-8.38167-4.23362-4.65479-6.17894-10.82147-5.78123-18.329l.00551-.07087c.01951-.16614.0232-.25778.02745-.36224l.00063-.02809.00031-.00306.00394-.116.01683-.38732-.26666-.28036c-.74369-.78129-1.835-1.91749-2.46332-2.54395l-.44075-.44044.43224-.449c4.67618-4.85089,11.28079-17.0031,2.81023-28.25887L138.6883,6.622l2.28186-3.19512.45576.15788a16.345,16.345,0,0,0,5.257.92c4.809,0,7.96907-.47552,11.89449-3.07414l.35856-.23733.35279.24433a17.83456,17.83456,0,0,0,10.538,3.52284,17.83483,17.83483,0,0,0,10.53742-3.52284l.353-.24433"/><path class="cls-2" d="M144.03217,28.98726c2.65386-6.08574,3.64225-13.90175-.82132-21.54123a19.90909,19.90909,0,0,0,3.47211.32071c4.56809,0,8.16486-.41541,12.2045-2.69852a20.71224,20.71224,0,0,0,10.93113,3.15453A20.72446,20.72446,0,0,0,180.765,5.06822c4.04027,2.28311,7.637,2.69852,12.20507,2.69852a18.43358,18.43358,0,0,0,3.48318-.33966c-4.474,7.65781-3.48681,15.47444-.83264,21.56018H144.03217"/><path class="cls-3" d="M195.62058,28.98726c-2.65417-6.08574-3.64137-13.90237.83264-21.56018a18.43358,18.43358,0,0,1-3.48318.33966c-4.568,0-8.1648-.41541-12.20507-2.69852a20.72446,20.72446,0,0,1-10.94638,3.15453c-.04035,0-.07976-.00213-.12035-.00244v20.767Z"/><path class="cls-4" d="M189.93956,58.39822c5.08358-3.71587,8.086-9.64917,7.645-18.30513-.05135-.49235-.088-.52106-.1271-1.01648h-7.51788Z"/><path class="cls-5" d="M181.89386,62.12329a24.26059,24.26059,0,0,0,8.04688-3.72626V39.07661h-8.04688Z"/><path class="cls-5" d="M149.71194,58.397a24.26932,24.26932,0,0,0,8.04789,3.72626V39.07661h-8.04789Z"/><path class="cls-4" d="M142.06883,40.09309c-.44106,8.656,2.56134,14.58988,7.6453,18.30576V39.07661h-7.51888C142.15616,39.572,142.12013,39.60074,142.06883,40.09309Z"/><path class="cls-5" d="M169.84636,43.349a7.53656,7.53656,0,0,1,4.00424,1.15209V39.07661h-8.04751V44.5255A7.53633,7.53633,0,0,1,169.84636,43.349Z"/><path class="cls-5" d="M169.84636,58.51188a7.531,7.531,0,0,1-4.04327-1.17655v6.00116c.1423.00732.2828.01708.42542.0244,2.67318.01345,5.09678.02815,7.19629,0,.14294-.00732.28349-.01708.4258-.0244V57.35978A7.537,7.537,0,0,1,169.84636,58.51188Z"/><path class="cls-4" d="M173.84879,39.07661v5.42324a7.56667,7.56667,0,0,1,0,12.86056v5.97608a38.46746,38.46746,0,0,0,8.04751-1.2132V39.07661Z"/><path class="cls-4" d="M162.26587,50.931a7.571,7.571,0,0,1,3.53935-6.40732V39.07661h-8.04783V62.12329a38.46621,38.46621,0,0,0,8.04783,1.2132V57.33658A7.56879,7.56879,0,0,1,162.26587,50.931Z"/><path class="cls-6" d="M145.84488,14.26876a22.46917,22.46917,0,0,1,.21105,7.67733h7.81663v7.04117h7.67733V21.94609H169.73V14.26876h-8.18012v-7.809a23.64691,23.64691,0,0,1-2.66243-1.39154,19.42494,19.42494,0,0,1-5.0149,2.00669v7.19385Z"/><path class="cls-6" d="M186.2524,28.98726V7.18243a18.74824,18.74824,0,0,1-2.7587-.82438V28.98726Z"/><path class="cls-6" d="M175.2165,28.98726V7.49457a19.837,19.837,0,0,1-2.7587.55559v20.9371Z"/><path class="cls-6" d="M191.77034,28.98726V7.75391c-.95361-.01807-1.86987-.06236-2.75869-.14662v21.38Z"/><path class="cls-6" d="M180.73445,28.98726V5.08561a23.48262,23.48262,0,0,1-2.7587,1.42976V28.98726Z"/><path class="cls-7" d="M205.24779,35.63866l-1.0525-1.09286c-4.49047-4.65873-10.84036-16.31377-2.73912-27.08088l.63591-.846-3.06289-4.29161-1.09829.37932a15.4153,15.4153,0,0,1-4.96086.87017c-4.62726,0-7.65962-.45144-11.392-2.923l-.87292-.57848-.8601.59737a16.96919,16.96919,0,0,1-10.01817,3.36008A16.96944,16.96944,0,0,1,159.80805.67271l-.85978-.59737L158.075.65382c-3.73207,2.47152-6.76443,2.923-11.39207,2.923a15.409,15.409,0,0,1-4.96048-.87017l-1.09836-.37932L137.56,6.61827l.63623.84665c8.10187,10.76711,1.75166,22.42215-2.73793,27.08088l-1.05282,1.09286,1.0739,1.07146c.577.576,1.60078,1.63831,2.44681,2.52894-.00244.0501-.00332.09408-.0052.138-.00331.09227-.00549.16983-.0232.31889l-.00857.10021c-.41385,7.76528,1.61085,14.15984,6.01612,19.00335,4.67,5.13437,11.969,8.20458,20.60018,8.6786,2.13836,1.94745,4.30937,3.56193,4.40683,3.63462l.9224.6842.92052-.68664c.09652-.07206,2.256-1.686,4.39214-3.63218,8.63155-.474,15.93013-3.54423,20.59961-8.6786,4.40614-4.84351,6.43-11.23682,6.017-19.00335l-.00913-.10021a2.99749,2.99749,0,0,1-.02263-.3207c-.00183-.04216-.00364-.08614-.00552-.13624.84671-.89063,1.87114-1.95352,2.44718-2.52894Zm-5.11292,3.03417c.07882.78.033.74951.08677,1.20583.92177,17.30823-11.13605,25.481-25.70823,26.08454-2.22725,2.08062-4.68081,3.90954-4.68081,3.90954s-2.46544-1.82892-4.69294-3.90954c-14.57219-.60351-26.63032-8.77631-25.70854-26.08454.054-.45632.00825-.4258.08732-1.20583-.83533-.8833-2.21805-2.32652-2.94829-3.05494,5.22683-5.42356,11.32539-17.8318,2.86034-29.08144l1.78769-2.3708a16.92793,16.92793,0,0,0,5.46478.95543c4.85427,0,8.16911-.48141,12.24479-3.18018a18.59043,18.59043,0,0,0,10.89909,3.6365,18.59115,18.59115,0,0,0,10.899-3.6365c4.07505,2.69877,7.389,3.18018,12.24416,3.18018a16.93327,16.93327,0,0,0,5.46478-.95543l1.78745,2.3708c-8.46537,11.24964-2.3665,23.65788,2.86127,29.08144C202.35292,36.34631,200.97,37.78953,200.13487,38.67283Z"/><path class="cls-7" d="M141.96468,39.05828c-.02076.26447-.04122.39095-.06293.53264-.01926.121-.0394.25233-.06411.49053-.33935,6.656,1.32342,12.04262,4.941,16.01139,4.1496,4.551,10.87213,7.14344,19.449,7.499l.32621.00119c1.42727.00857,2.78122.0147,4.05059.0147.99515,0,1.93833-.00369,2.82957-.01651,8.56858-.35493,15.29054-2.94742,19.44015-7.49837,3.61816-3.96939,5.28093-9.35542,4.94009-16.023-.02321-.22663-.044-.358-.06293-.479-.022-.14169-.04216-.26817-.06293-.53264l-.01714-.2138H141.98113Zm.33441,1.05864c.02265-.21506.04185-.33966.05992-.45513.01645-.10628.032-.20524.04761-.35305h54.83951c.01583.14906.03172.24677.04761.3543.01832.11422.0379.23882.05987.44225.33233,6.52711-1.28953,11.80066-4.82093,15.67479-4.06529,4.45812-10.67548,6.99932-19.1115,7.34868-2.01219.02752-4.32251.01589-6.8649.0025l-.31795-.0025c-8.44247-.34936-15.05328-2.89056-19.11763-7.348C143.58923,51.9072,141.96743,46.6324,142.29909,40.11692Z"/><path class="cls-7" d="M143.82018,28.89412l-.14143.3237h52.295l-.14113-.3237c-2.27122-5.20951-3.97428-13.14311.821-21.35038l.25654-.43981-.5003.09652A18.2679,18.2679,0,0,1,192.97,7.5346c-4.66761,0-8.14159-.4368-12.09022-2.6683l-.11854-.06687-.116.07056a20.43958,20.43958,0,0,1-10.826,3.12062A20.41961,20.41961,0,0,1,159.00719,4.87l-.11578-.07056-.11785.06687C154.82493,7.0978,151.35,7.5346,146.683,7.5346a19.75555,19.75555,0,0,1-3.43151-.31614l-.49266-.08763.25258.43186C147.79658,15.75407,146.09228,23.68461,143.82018,28.89412ZM169.96059,8.45331a20.86915,20.86915,0,0,0,10.80926-3.11755c3.98773,2.22387,7.50143,2.66186,12.20019,2.66186a18.66652,18.66652,0,0,0,3.03724-.25534c-4.49233,8.0512-2.94191,15.79577-.73793,21.01316H169.96059Zm-26.30686-.6994a19.77279,19.77279,0,0,0,3.02923.24371c4.6982,0,8.21221-.438,12.2005-2.66186a20.8615,20.8615,0,0,0,10.61411,3.11511V28.75544H144.3834C146.588,23.53743,148.14143,15.79317,143.65373,7.75391Z"/><polygon class="cls-7" points="163.227 31.996 163.227 30.468 158.05 30.468 158.05 37.641 159.607 37.641 159.607 34.683 161.722 34.683 161.722 33.166 159.607 33.166 159.607 31.996 163.227 31.996"/><path class="cls-7" d="M169.289,31.90446a1.26346,1.26346,0,0,1,1.216.72079l.033.065,1.441-.664-.03359-.06993a2.7442,2.7442,0,0,0-2.63652-1.59866c-1.88115,0-3.19482,1.52047-3.19482,3.69667,0,2.24551,1.23429,3.696,3.14415,3.696a2.7483,2.7483,0,0,0,2.66642-1.62737l.03116-.06292-1.3091-.77578-.0391.06474a1.39271,1.39271,0,0,1-1.30847.85585c-.95018,0-1.58853-.865-1.58853-2.15056C167.7105,32.72877,168.31557,31.90446,169.289,31.90446Z"/><path class="cls-7" d="M181.30862,32.39981c0-1.20889-.86129-1.9315-2.30231-1.9315h-3.29565v7.17278h3.2645a2.26592,2.26592,0,0,0,2.57416-2.34272,1.68389,1.68389,0,0,0-.90589-1.54455A1.6335,1.6335,0,0,0,181.30862,32.39981Zm-4.0708-.48559h1.708c.6964,0,.7856.31914.7856.59587,0,.39433-.234.58556-.71535.58556h-1.77825Zm1.78863,4.24h-1.78863V34.49176h1.78863c.631,0,.92609.26328.92609.82769C179.95254,35.86529,179.63184,36.15422,179.02645,36.15422Z"/><path class="cls-7" d="M169.79719,58.63648a7.747,7.747,0,1,0-7.74669-7.747A7.75587,7.75587,0,0,0,169.79719,58.63648Zm0-.46545a7.254,7.254,0,0,1-4.06316-1.23948,11.53306,11.53306,0,0,0,4.84907-1.21865c1.229-.73243,2.53382-1.64632,2.77208-2.86741a1.92966,1.92966,0,0,1,2.81856,1.56138A7.28166,7.28166,0,0,1,169.79719,58.171Zm-3.59064-5.61384a3.02354,3.02354,0,0,0,1.29747.46057,2.49278,2.49278,0,0,0,2.50579-2.01463,1.745,1.745,0,0,1,2.78584.68051c.63772,1.52528-.70559,2.62671-2.43492,3.65907a11.5453,11.5453,0,0,1-5.19111,1.168,7.313,7.313,0,0,1-1.9218-2.438c.05836.00306.11666.00488.17621.00488A3.11958,3.11958,0,0,0,166.20655,52.55719Zm-1.15884-3.67741a16.38549,16.38549,0,0,1,.70283-4.04271,7.21107,7.21107,0,0,1,3.41074-1.19975,2.01757,2.01757,0,0,0,.19973,2.95048,2.14473,2.14473,0,0,0-.54395.59556,2.80115,2.80115,0,0,0,.75751,3.81427,2.08117,2.08117,0,0,1-2.01526,1.59008C165.87177,52.37147,165.07461,50.80521,165.04771,48.87978Zm8.34475,3.48193a2.47236,2.47236,0,0,0-.19735-.84671,2.173,2.173,0,0,0-3.39854-.89181,2.3656,2.3656,0,0,1-.613-3.20826c.846-1.3415,2.77026-.807,4.5283.17527a7.51344,7.51344,0,0,1,3.3353,3.96884,7.2179,7.2179,0,0,1-.56566,2.221A2.35509,2.35509,0,0,0,173.39246,52.36171Zm.53083-5.14964c-1.27182-.70978-2.94072-1.35977-4.14473-.85885a1.60572,1.60572,0,0,1,.08156-2.744,7.27964,7.27964,0,0,1,7.20424,6.83981A8.45972,8.45972,0,0,0,173.92329,47.21207Zm-8.717-1.97366c-.13561.5357-.26634,1.00366-.37112,1.48012-.37444,1.71588-.37019,4.29924,1.02536,5.57106a2.684,2.684,0,0,1-2.43648,1.35432,2.85675,2.85675,0,0,1-.37838-.02508,7.28806,7.28806,0,0,1,2.16062-8.38042Z"/><line class="cls-8" x1="103.10904" y1="0.04199" x2="103.10893" y2="71.80245"/><path class="cls-7" d="M313.00836,44.23236c0,2.72905,1.066,3.74179,3.34736,3.74179a4.4239,4.4239,0,0,0,2.83563-1.066h.064l.25584,1.066h1.7163V36.85541h-2.196v8.52828a2.99531,2.99531,0,0,1-1.96154.66094c-1.36455,0-1.86556-.437-1.86556-1.94019V36.83407h-2.196Zm-6.06575-5.40481c1.38584,0,2.00416.52235,2.00416,2.05744v2.91032c0,1.5351-.61832,2.04677-2.00416,2.04677h-1.60972V38.78493Zm-3.80575,9.04h3.93367c2.63308,0,4.07227-1.27926,4.07227-4.26414V41.04486c0-2.94227-1.43913-4.26414-4.07227-4.26414h-3.93367Zm-11.15075,0h6.33225l.3198-1.99348h-4.456V36.85538h-2.196Zm-8.75217,0h6.812V45.92738H285.4407V43.41156h4.02965V41.42875H285.4407v-2.5265h4.456l.3198-1.99348h-6.97185Zm-6.183-1.54576v1.54576h4.40273V46.32175l-1.066-.19188V38.593l1.066-.20255V36.85535H277.051v1.53509l1.066.20255v7.53688Zm-8.61352-2.52644c0,2.91026,1.43912,4.26414,4.08293,4.26414a4.41337,4.41337,0,0,0,3.30468-1.226v-1.7163h-1.8016s-.12792.98073-1.49247.98073-1.88691-.70355-1.88691-2.21737V41.00224c0-1.50308.44772-2.21737,1.88691-2.21737s1.49247.9914,1.49247.9914h1.82295V38.06A4.41338,4.41338,0,0,0,272.5417,36.834c-2.64374,0-4.08293,1.30056-4.08293,4.26417Zm-5.85253,2.56912v1.54576h4.40274V46.36443l-1.066-.19188V38.63567l1.066-.20255V36.898H262.5849v1.53509l1.066.20255v7.53688Zm-7.71808,1.54576h2.196V43.40088h3.859V41.41807h-3.86971V38.89158h4.26414l.33047-1.99348h-6.812Zm-8.20848,0h2.196V43.40088h3.86971V41.41807h-3.86971V38.89158h4.26414l.31979-1.99348h-6.812Zm-8.28312-4.11488V40.981c0-1.62039.60765-2.292,2.06811-2.292s2.06811.67161,2.06811,2.292v2.81435c0,1.6204-.60764,2.30261-2.06811,2.30261s-2.06811-.68228-2.06811-2.30261m-2.2067-.15993c0,2.86764,1.51375,4.42407,4.26414,4.42407s4.26414-1.57771,4.26414-4.42407V41.14083c0-2.857-1.50308-4.4134-4.26414-4.4134s-4.26414,1.5564-4.26414,4.4134ZM404.71,28.02861c0,2.78234,1.2153,4.11488,3.56059,4.11488a3.19831,3.19831,0,0,0,2.34529-.87416h.05329l.2665.74624h1.6204V25.52339H408.825v1.91885h1.67368v2.33462a2.132,2.132,0,0,1-1.567.565c-1.37516,0-2.0255-.65027-2.0255-2.13207V25.11829c0-1.50308.60765-2.21737,2.04677-2.21737a1.54578,1.54578,0,0,1,1.6204.9914h1.79093V22.208a4.44539,4.44539,0,0,0-3.34737-1.25791c-2.7077,0-4.26414,1.26858-4.26414,4.26417Zm-10.06338,3.987h2.13208v-7.345h0l1.066,1.88691,2.761,4.52v.8955h2.13207V20.97146h-2.13207v4.56266c0,1.066.08527,2.27066.08527,2.27066h0s-.61829-1.24724-.87416-1.67368l-3.13415-5.15961h-2.02546Zm-6.183-1.54576v1.54576h4.40273V30.46981l-1.066-.19188V22.74105l1.066-.20255V21.00341h-4.40269V22.5385l1.066.20255v7.53688ZM382.803,23.00756c1.38583,0,2.00415.52235,2.00415,2.05744v2.84636c0,1.53509-.61829,2.04677-2.00415,2.04677h-1.60972V22.901Zm-3.80575,9.04h3.93367c2.63311,0,4.07226-1.27926,4.07226-4.26414V25.22487c0-2.94227-1.43915-4.26414-4.07226-4.26414h-3.93367Zm-6.99319-6.60943c.27718-1.066.597-2.4412.597-2.4412h.43708s.33047,1.41784.58631,2.4412l.65026,2.44119a7.59045,7.59045,0,0,1-1.4818.14926,8.76193,8.76193,0,0,1-1.41781-.12791Zm-3.64586,6.60943h1.92952l.597-2.30261a10.32939,10.32939,0,0,0,1.90821.18121,9.28589,9.28589,0,0,0,1.9615-.20255l.597,2.324h2.02553V30.811l-2.70774-9.77556h-3.56056L368.4009,30.811Zm-6.77993-6.26823V22.96494h2.0468a1.27925,1.27925,0,0,1,1.41781,1.37516,1.42846,1.42846,0,0,1-1.01275,1.43913Zm-2.196,6.20433h2.196V27.71948h1.1513a24.76252,24.76252,0,0,0,2.78234,4.26414h1.68432V30.65108A17.97329,17.97329,0,0,1,364.9789,27.549a3.56062,3.56062,0,0,0,2.27066-3.30469c0-2.13207-1.31124-3.27273-3.70982-3.27273h-4.15753Zm-1.62037-9.01868.33047-1.99348h-7.54751v1.99348h2.62244v9.01868h2.2067V22.96494Zm-18.33581,9.01868h6.812V30.04343h-4.60528V27.5276h4.02961V25.54479h-4.02961V23.0183h4.44538l.33047-1.99348h-6.98255Zm-6.14038-9.03995c1.38583,0,2.00415.52234,2.00415,2.05744v2.91025c0,1.53509-.61828,2.04677-2.00415,2.04677H331.676V22.901Zm-3.80575,9.03995h3.93367c2.63311,0,4.07226-1.27925,4.07226-4.26414V25.161c0-2.94227-1.43915-4.26414-4.07226-4.26414h-3.93367Zm-11.9929,0h6.812V30.04343H319.6831V27.5276h4.02962V25.54479H319.6831V23.0183h4.456l.3198-1.99348H317.487Zm-7.37694-6.20433V22.96494h2.03613a1.27918,1.27918,0,0,1,1.42848,1.37516,1.43917,1.43917,0,0,1-1.066,1.43913Zm-2.2067,6.20433h2.2067V27.71948h1.17264a24.76252,24.76252,0,0,0,2.78234,4.26414h1.68432V30.65108a17.34469,17.34469,0,0,1-2.21734-3.10213,3.56058,3.56058,0,0,0,2.26-3.30469c0-2.13207-1.31123-3.27273-3.70981-3.27273H307.9247Zm-6.183-1.54576v1.54576h4.40274V30.43786l-1.066-.19188V22.7091l1.066-.20254v-1.5351h-4.43472v1.5351l1.066.20254V30.246Zm-6.50282-5.06367c.27718-1.066.597-2.44119.597-2.44119h.43708s.33047,1.41784.58631,2.44119l.65026,2.4412a7.56893,7.56893,0,0,1-1.47113.14926,8.78252,8.78252,0,0,1-1.42849-.12792Zm-3.63518,6.60943h1.91885l.597-2.3026a10.35946,10.35946,0,0,0,1.91885.1812,9.177,9.177,0,0,0,1.95083-.20255l.597,2.324h1.98281V30.74705L297.84,20.97149H294.2794l-2.69707,9.77556Zm-9.79687,0h2.13207v-7.345h0s.7249,1.25791,1.066,1.8869L287.83,31.10947v.8955H289.962V20.97146H287.83v4.56266c0,1.066.08527,2.27066.08527,2.27066h0s-.60765-1.24724-.86349-1.67368l-3.14482-5.15961h-2.02546Zm-8.75214,0h6.812V30.04343h-4.61591V27.5276h4.07223V25.54479h-4.02962V23.0183h4.456l.3198-1.99348H273.076ZM271.413,22.96494l.33047-1.99348H264.196v1.99348h2.62244v9.01868h2.2067V22.96494Zm-13.71987,2.81435V22.96494h2.03613a1.27923,1.27923,0,0,1,1.42849,1.37516,1.43917,1.43917,0,0,1-1.066,1.43913Zm-2.2067,6.20433h2.2067V27.71948h1.15131a24.76187,24.76187,0,0,0,2.78233,4.26414h1.68436V30.65108a17.34419,17.34419,0,0,1-2.21734-3.10213,3.56061,3.56061,0,0,0,2.26-3.30469c0-2.13207-1.31124-3.27273-3.69915-3.27273h-4.1682Zm-6.98252-6.60943c.27718-1.066.597-2.44119.597-2.44119h.43708s.3198,1.41784.58631,2.44119l.63962,2.4412a7.4629,7.4629,0,0,1-1.47113.14926,8.76194,8.76194,0,0,1-1.41781-.12792Zm-3.64585,6.60943h1.92952l.597-2.3026a10.24567,10.24567,0,0,0,1.90821.1812,9.35925,9.35925,0,0,0,1.9615-.20255l.597,2.324h1.97217V30.74705l-2.69707-9.77556h-3.56055l-2.70774,9.77556Zm-6.49215-6.02312V22.96494h1.89754a1.33256,1.33256,0,0,1,1.50311,1.40718,1.62039,1.62039,0,0,1-.93811,1.58838Zm-2.196,6.02312h2.196V27.91136h3.1981a3.7204,3.7204,0,0,0,2.40925-3.49663c0-2.27066-1.26858-3.48592-3.72045-3.48592h-4.0829Z"/><path class="cls-7" d="M425.51371,41.43935c.27718-1.066.597-2.4412.597-2.4412h.437s.33046,1.42852.5863,2.4412l.65027,2.45187a7.55838,7.55838,0,0,1-1.47114.13859,7.82615,7.82615,0,0,1-1.42851-.12792Zm-3.63515,6.60943h1.91885l.60765-2.3026a10.15684,10.15684,0,0,0,1.90818.1812,9.92388,9.92388,0,0,0,1.95086-.19188l.60765,2.31328h1.97214V46.81221l-2.70771-9.77552H424.5756l-2.6971,9.77552Zm-9.79686,0h2.13207v-7.345h0l1.066,1.89758,2.77167,4.50931v.89549h2.13207V37.03662h-2.13207v4.57327c0,1.066.0853,2.26.0853,2.26h0s-.61832-1.24725-.87416-1.663l-3.1981-5.17025H412.039Zm-8.28309-4.0936V41.14083c0-1.62039.61829-2.30261,2.06811-2.30261s2.13207.68228,2.13207,2.30261v2.81435c0,1.62039-.61828,2.292-2.13207,2.292s-2.06811-.67161-2.06811-2.292m-2.22807-.15987c0,2.857,1.50311,4.4134,4.26414,4.4134s4.26414-1.567,4.26414-4.4134V41.30076c0-2.86764-1.50311-4.42407-4.26414-4.42407s-4.26414,1.55643-4.26414,4.42407Zm-7.59017,4.26414h6.32158l.33047-1.99348h-4.39206V37.04729h-2.196Zm-8.76281,0h6.82262V46.034h-4.61592V43.5288h4.02961V41.5566h-4.02961V39.0301h4.44538l.33047-1.99348h-6.98252Zm-9.0613-4.15756c0,2.91026,1.43916,4.26414,4.0829,4.26414a4.41343,4.41343,0,0,0,3.30472-1.226v-1.7163h-1.8016s-.12792.99141-1.49245.99141-1.88687-.71423-1.88687-2.21737V41.11949c0-1.51375.44775-2.21737,1.88687-2.21737s1.49245.98073,1.49245.98073h1.8016v-1.7163a4.41346,4.41346,0,0,0-3.30472-1.226c-2.64378,0-4.0829,1.31121-4.0829,4.26414Zm-7.04647-2.13207V38.95547h2.03613a1.27924,1.27924,0,0,1,1.41781,1.37516,1.42848,1.42848,0,0,1-1.066,1.43912Zm-2.20671,6.20433h2.20671V43.7633h1.14066a24.32364,24.32364,0,0,0,2.78234,4.21085h1.68432V46.64161a17.97336,17.97336,0,0,1-2.21734-3.10214,3.56061,3.56061,0,0,0,2.27066-3.30468c0-2.13207-1.31124-3.27273-3.70981-3.27273h-4.15754Zm-6.99318-6.60943c.27718-1.066.597-2.4412.597-2.4412h.43708s.33047,1.42852.58631,2.4412l.65026,2.45187a7.5582,7.5582,0,0,1-1.47113.13859,7.82543,7.82543,0,0,1-1.42848-.12792Zm-3.63519,6.60943h1.91885l.60765-2.30261a10.15641,10.15641,0,0,0,1.90821.18121,9.92335,9.92335,0,0,0,1.95083-.19188l.60765,2.31328h1.97217V46.73758l-2.70774-9.77552h-3.6032l-2.69707,9.77552Zm-4.26414-4.6479a1.53509,1.53509,0,0,1,.9701,1.37517,1.258,1.258,0,0,1-1.35386,1.37516h-2.05744V43.32619Zm-.52235-4.46669a1.18335,1.18335,0,0,1,1.33255,1.25792,1.46048,1.46048,0,0,1-.86349,1.35388h-2.38791v-2.6118Zm-4.06159,9.11459h4.04025c2.49452,0,3.58187-1.18328,3.58187-3.1981a2.80363,2.80363,0,0,0-1.43916-2.37724h0a2.793,2.793,0,0,0,1.27926-2.43059c0-1.81228-.92745-3.0169-3.56056-3.0169h-3.987Zm-12.366-4.07226c0,2.91026,1.43916,4.26414,4.07227,4.26414a4.39205,4.39205,0,0,0,3.30471-1.226v-1.7163H340.636s-.12792.99141-1.4818.99141-1.89755-.71423-1.89755-2.21737V41.11949c0-1.51375.45839-2.21737,1.89755-2.21737s1.4818.98073,1.4818.98073h1.8016v-1.7163a4.39209,4.39209,0,0,0-3.30471-1.226c-2.63311,0-4.07227,1.31121-4.07227,4.26414Zm-7.88865,4.11488h2.2067V43.51813h3.86971V41.5566h-3.86971V39.0301h4.26414l.33047-1.99348h-6.82262Z"/><rect class="cls-9" width="71.72194" height="71.72194" rx="6.96572"/><rect class="cls-2" x="14.24442" y="45.39241" width="43.36435" height="3.44882"/><path class="cls-2" d="M26.07932,28.19823V24.69042H14.24442V41.06323h4.32464V35.24109H25.258V31.72873H18.56906v-3.5305Z"/><path class="cls-2" d="M39.026,32.57279a3.962,3.962,0,0,0,2.64107-3.63034c0-2.6456-1.96038-4.23388-5.264-4.23388h-8.377V41.06323h8.46776c3.60311,0,5.75408-1.70626,5.75408-4.606A4.02086,4.02086,0,0,0,39.026,32.57279ZM32.26,28.01218h3.34445c1.21616,0,1.86962.55816,1.86962,1.59281s-.65346,1.58827-1.86962,1.58827H32.26Zm3.63033,9.7293H32.26V34.48779h3.67117c1.21617,0,1.89685.58085,1.89685,1.68357,0,1.03918-.68068,1.57012-1.94222,1.57012Z"/><path class="cls-2" d="M52.68513,31.12065l-1.96945-.2632c-1.94223-.28135-2.514-.75783-2.514-1.66088s.75783-1.5202,2.44594-1.5202a2.3718,2.3718,0,0,1,2.69552,2.00122l4.11589-.53093c-.60354-3.22192-2.91788-4.78751-6.69343-4.78751-4.2248,0-7.002,2.11014-7.002,5.3366,0,2.77266,1.68356,4.38816,5.12785,4.86464l2.06021.28136c2.18274.31311,2.72275.80775,2.72275,1.76071s-.80775,1.5202-2.72275,1.5202a3.09942,3.09942,0,0,1-3.10394-2.18274l-4.28833.64439c.6943,3.33537,3.231,4.85557,7.26067,4.85557,4.57876,0,7.28336-1.96946,7.28336-5.3139C58.08526,33.18541,56.43345,31.6652,52.68513,31.12065Z"/></g></g></g></svg>