<svg id="Layer_1" data-name="Layer 1" xmlns="http://www.w3.org/2000/svg" xmlns:xlink="http://www.w3.org/1999/xlink" viewBox="0 0 47.14 35.44"><defs><style>.cls-1{fill:url(#linear-gradient);}</style><linearGradient id="linear-gradient" x1="319.76" y1="421.16" x2="366.9" y2="421.16" gradientUnits="userSpaceOnUse"><stop offset="0" stop-color="#d8b848"/><stop offset="0.5" stop-color="#f4d03e"/><stop offset="1" stop-color="#d8b848"/></linearGradient></defs><title>gold</title><path class="cls-1" d="M351.39,430l-.45,2.14H335.76l-.5-2.14Zm-23.66,4.58,1.07,4.28h29.06l1.07-4.28Zm38.08-27.48a2.13,2.13,0,0,0-2.57.35l-11,11-8.89-15-9,14.93-10.91-10.91a2.14,2.14,0,0,0-3.6,2l7.36,22.84h4.41L325.85,416l7.39,7.38a2.21,2.21,0,0,0,1.64.63,2.15,2.15,0,0,0,1.55-.8l6.9-11.54,6.9,11.54a2.13,2.13,0,0,0,3.18.17L360.8,416l-5.74,16.37h4.42l7.35-22.84A2.12,2.12,0,0,0,365.81,407.11Z" transform="translate(-319.76 -403.44)"/></svg>