<svg width="164" height="49" viewBox="0 0 164 49" fill="none" xmlns="http://www.w3.org/2000/svg">
<g clip-path="url(#clip0_3551_121653)">
<rect y="0.0556641" width="164" height="48" rx="5" fill="#0A0A0A"/>
<path d="M57.5819 12.2994C57.5819 13.2591 57.3389 14.0988 56.7315 14.6986C56.0026 15.4183 55.1522 15.7782 54.0589 15.7782C52.9656 15.7782 52.1152 15.4183 51.3863 14.6986C50.6574 13.9788 50.293 13.1391 50.293 12.0595C50.293 10.9799 50.6574 10.1402 51.3863 9.42044C52.1152 8.70069 52.9656 8.34082 54.0589 8.34082C54.5448 8.34082 55.0307 8.46078 55.5167 8.70069C56.0026 8.94061 56.367 9.18053 56.61 9.5404L56.0026 10.1402C55.5167 9.5404 54.9093 9.30048 54.0589 9.30048C53.33 9.30048 52.6011 9.5404 52.1152 10.1402C51.5078 10.62 51.2648 11.3398 51.2648 12.1795C51.2648 13.0192 51.5078 13.7389 52.1152 14.2188C52.7226 14.6986 53.33 15.0585 54.0589 15.0585C54.9093 15.0585 55.5167 14.8186 56.1241 14.2188C56.4885 13.8589 56.7315 13.3791 56.7315 12.7793H54.0589V11.8196H57.5819V12.2994ZM63.17 9.30048H59.89V11.5797H62.927V12.4194H59.89V14.6986H63.17V15.6583H58.9181V8.46078H63.17V9.30048ZM67.1789 15.6583H66.207V9.30048H64.1418V8.46078H69.2441V9.30048H67.1789V15.6583ZM72.767 15.6583V8.46078H73.7389V15.6583H72.767ZM77.8692 15.6583H76.8974V9.30048H74.8322V8.46078H79.8129V9.30048H77.7478V15.6583H77.8692ZM89.41 14.6986C88.6811 15.4183 87.8307 15.7782 86.7374 15.7782C85.644 15.7782 84.7937 15.4183 84.0648 14.6986C83.3359 13.9788 82.9715 13.1391 82.9715 12.0595C82.9715 10.9799 83.3359 10.1402 84.0648 9.42044C84.7937 8.70069 85.644 8.34082 86.7374 8.34082C87.8307 8.34082 88.6811 8.70069 89.41 9.42044C90.1389 10.1402 90.5033 10.9799 90.5033 12.0595C90.5033 13.1391 90.1389 13.9788 89.41 14.6986ZM84.7937 14.0988C85.2796 14.5786 86.0085 14.9385 86.7374 14.9385C87.4663 14.9385 88.1952 14.6986 88.6811 14.0988C89.167 13.619 89.5314 12.8992 89.5314 12.0595C89.5314 11.2198 89.2885 10.5001 88.6811 10.0202C88.1952 9.5404 87.4663 9.18053 86.7374 9.18053C86.0085 9.18053 85.2796 9.42044 84.7937 10.0202C84.3078 10.5001 83.9433 11.2198 83.9433 12.0595C83.9433 12.8992 84.1863 13.619 84.7937 14.0988ZM91.8396 15.6583V8.46078H92.9329L96.4559 14.0988V8.46078H97.4277V15.6583H96.4559L92.69 9.78032V15.6583H91.8396Z" fill="white"/>
<path d="M82.7287 26.2152C79.8131 26.2152 77.505 28.3744 77.505 31.3734C77.505 34.2524 79.8131 36.5316 82.7287 36.5316C85.6443 36.5316 87.9524 34.3723 87.9524 31.3734C87.9524 28.2545 85.6443 26.2152 82.7287 26.2152ZM82.7287 34.3723C81.1494 34.3723 79.8131 33.0528 79.8131 31.2534C79.8131 29.454 81.1494 28.1345 82.7287 28.1345C84.308 28.1345 85.6443 29.3341 85.6443 31.2534C85.6443 33.0528 84.308 34.3723 82.7287 34.3723ZM71.4309 26.2152C68.5154 26.2152 66.2072 28.3744 66.2072 31.3734C66.2072 34.2524 68.5154 36.5316 71.4309 36.5316C74.3465 36.5316 76.6546 34.3723 76.6546 31.3734C76.6546 28.2545 74.3465 26.2152 71.4309 26.2152ZM71.4309 34.3723C69.8517 34.3723 68.5154 33.0528 68.5154 31.2534C68.5154 29.454 69.8517 28.1345 71.4309 28.1345C73.0102 28.1345 74.3465 29.3341 74.3465 31.2534C74.3465 33.0528 73.0102 34.3723 71.4309 34.3723ZM57.9465 27.7746V29.9339H63.1702C63.0487 31.1335 62.5628 32.0931 61.9554 32.6929C61.2265 33.4127 60.0117 34.2524 57.9465 34.2524C54.6665 34.2524 52.2369 31.7332 52.2369 28.4944C52.2369 25.2555 54.788 22.7364 57.9465 22.7364C59.6472 22.7364 60.9835 23.4561 61.9554 24.2958L63.5346 22.7364C62.1983 21.5368 60.4976 20.5771 58.068 20.5771C53.6946 20.5771 49.9287 24.1759 49.9287 28.4944C49.9287 32.8129 53.6946 36.4116 58.068 36.4116C60.4976 36.4116 62.1983 35.6919 63.6561 34.1324C65.1139 32.6929 65.5998 30.6536 65.5998 29.0942C65.5998 28.6143 65.5998 28.1345 65.4783 27.7746H57.9465ZM113.099 29.454C112.613 28.2545 111.398 26.2152 108.726 26.2152C106.053 26.2152 103.866 28.2545 103.866 31.3734C103.866 34.2524 106.053 36.5316 108.969 36.5316C111.277 36.5316 112.735 35.0921 113.221 34.2524L111.52 33.0528C110.912 33.8925 110.183 34.4923 108.969 34.4923C107.754 34.4923 107.025 34.0124 106.418 32.9328L113.342 30.0538L113.099 29.454ZM106.053 31.1335C106.053 29.2141 107.632 28.1345 108.726 28.1345C109.576 28.1345 110.426 28.6143 110.669 29.2141L106.053 31.1335ZM100.344 36.0517H102.652V21.057H100.344V36.0517ZM96.6991 27.2948C96.0917 26.695 95.1198 26.0952 93.905 26.0952C91.3539 26.0952 88.9242 28.3744 88.9242 31.2534C88.9242 34.1324 91.2324 36.2916 93.905 36.2916C95.1198 36.2916 96.0917 35.6919 96.5776 35.0921H96.6991V35.8118C96.6991 37.7311 95.6057 38.8108 93.905 38.8108C92.5687 38.8108 91.5968 37.8511 91.3539 37.0114L89.4102 37.8511C90.0176 39.1706 91.4754 40.8501 94.0265 40.8501C96.6991 40.8501 98.8857 39.2906 98.8857 35.5719V26.4551H96.6991V27.2948ZM94.0265 34.3723C92.4472 34.3723 91.1109 33.0528 91.1109 31.2534C91.1109 29.454 92.4472 28.1345 94.0265 28.1345C95.6057 28.1345 96.8205 29.454 96.8205 31.2534C96.8205 33.0528 95.6057 34.3723 94.0265 34.3723ZM123.668 21.057H118.201V36.0517H120.509V30.4137H123.668C126.219 30.4137 128.649 28.6143 128.649 25.7353C128.649 22.8563 126.219 21.057 123.668 21.057ZM123.789 28.2545H120.509V23.0963H123.789C125.49 23.0963 126.462 24.5358 126.462 25.6154C126.341 26.9349 125.369 28.2545 123.789 28.2545ZM137.76 26.0952C136.059 26.0952 134.358 26.815 133.751 28.3744L135.816 29.2141C136.302 28.3744 137.031 28.1345 137.881 28.1345C139.096 28.1345 140.189 28.8543 140.311 30.0538V30.1738C139.946 29.9339 138.975 29.574 138.003 29.574C135.816 29.574 133.629 30.7736 133.629 32.9328C133.629 34.9721 135.452 36.2916 137.395 36.2916C138.975 36.2916 139.703 35.5719 140.311 34.8522H140.432V36.0517H142.619V30.2937C142.376 27.6547 140.311 26.0952 137.76 26.0952ZM137.517 34.3723C136.788 34.3723 135.695 34.0124 135.695 33.0528C135.695 31.8532 137.031 31.4933 138.124 31.4933C139.096 31.4933 139.582 31.7332 140.189 31.9732C139.946 33.4127 138.732 34.3723 137.517 34.3723ZM150.272 26.4551L147.721 32.9328H147.6L144.927 26.4551H142.498L146.506 35.5719L144.198 40.6101H146.506L152.702 26.4551H150.272ZM129.863 36.0517H132.172V21.057H129.863V36.0517Z" fill="white"/>
<path d="M12.6344 9.06055C12.2699 9.42042 12.1484 10.0202 12.1484 10.74V37.2507C12.1484 37.9704 12.3914 38.5702 12.7558 38.9301L12.8773 39.05L27.941 24.1753V23.9353L12.6344 9.06055Z" fill="url(#paint0_linear_3551_121653)"/>
<path d="M32.8001 29.2135L27.8193 24.2952V23.9354L32.8001 19.0171L32.9216 19.137L38.8741 22.4959C40.5749 23.4555 40.5749 25.015 38.8741 25.9747L32.8001 29.2135Z" fill="url(#paint1_linear_3551_121653)"/>
<path d="M32.9222 29.0939L27.82 24.0557L12.6348 39.0504C13.2422 39.6502 14.0925 39.6502 15.1859 39.1704L32.9222 29.0939Z" fill="url(#paint2_linear_3551_121653)"/>
<path d="M32.9222 19.0174L15.1859 9.06084C14.0925 8.46105 13.2422 8.581 12.6348 9.18079L27.82 24.0556L32.9222 19.0174Z" fill="url(#paint3_linear_3551_121653)"/>
<path opacity="0.2" d="M32.8007 28.9736L15.1859 38.8102C14.214 39.41 13.3637 39.29 12.7562 38.8102L12.6348 38.9301L12.7562 39.0501C13.3637 39.5299 14.214 39.6499 15.1859 39.0501L32.8007 28.9736Z" fill="#0A0A0A"/>
<path opacity="0.2" d="M12.6344 38.8105C12.2699 38.4506 12.1484 37.8508 12.1484 37.1311V37.251C12.1484 37.9708 12.3914 38.5706 12.7558 38.9305V38.8105H12.6344ZM38.8744 25.6151L32.8003 28.9739L32.9218 29.0939L38.8744 25.7351C39.7247 25.2552 40.0892 24.6555 40.0892 24.0557C40.0892 24.6555 39.6033 25.1353 38.8744 25.6151Z" fill="#0A0A0A"/>
<path opacity="0.2" d="M15.1855 9.18088L38.8744 22.4962C39.6033 22.976 40.0892 23.4559 40.0892 24.0557C40.0892 23.4559 39.7247 22.8561 38.8744 22.3763L15.1855 9.06092C13.4847 8.10125 12.1484 8.821 12.1484 10.7403V10.8603C12.1484 9.06092 13.4847 8.22121 15.1855 9.18088Z" fill="white"/>
</g>
<defs>
<linearGradient id="paint0_linear_3551_121653" x1="26.4832" y1="10.512" x2="6.35228" y2="30.8974" gradientUnits="userSpaceOnUse">
<stop stop-color="#00A0FF"/>
<stop offset="0.007" stop-color="#00A1FF"/>
<stop offset="0.26" stop-color="#00BEFF"/>
<stop offset="0.512" stop-color="#00D2FF"/>
<stop offset="0.76" stop-color="#00DFFF"/>
<stop offset="1" stop-color="#00E3FF"/>
</linearGradient>
<linearGradient id="paint1_linear_3551_121653" x1="41.1021" y1="24.0565" x2="11.7073" y2="24.0565" gradientUnits="userSpaceOnUse">
<stop stop-color="#FFE000"/>
<stop offset="0.409" stop-color="#FFBD00"/>
<stop offset="0.775" stop-color="#FFA500"/>
<stop offset="1" stop-color="#FF9C00"/>
</linearGradient>
<linearGradient id="paint2_linear_3551_121653" x1="30.1609" y1="26.8099" x2="2.86303" y2="54.4545" gradientUnits="userSpaceOnUse">
<stop stop-color="#FF3A44"/>
<stop offset="1" stop-color="#C31162"/>
</linearGradient>
<linearGradient id="paint3_linear_3551_121653" x1="8.86519" y1="0.275112" x2="21.0556" y2="12.6203" gradientUnits="userSpaceOnUse">
<stop stop-color="#32A071"/>
<stop offset="0.069" stop-color="#2DA771"/>
<stop offset="0.476" stop-color="#15CF74"/>
<stop offset="0.801" stop-color="#06E775"/>
<stop offset="1" stop-color="#00F076"/>
</linearGradient>
<clipPath id="clip0_3551_121653">
<path d="M0 8.05567C0 3.63739 3.58172 0.0556641 8 0.0556641H156C160.418 0.0556641 164 3.63739 164 8.05566V40.0557C164 44.4739 160.418 48.0557 156 48.0557H8C3.58172 48.0557 0 44.4739 0 40.0557V8.05567Z" fill="white"/>
</clipPath>
</defs>
</svg>
