<svg id="Layer_1" data-name="Layer 1" xmlns="http://www.w3.org/2000/svg" xmlns:xlink="http://www.w3.org/1999/xlink"
     viewBox="0 0 209 61.47">
  <defs>
    <clipPath id="clip-path" transform="translate(0 -0.28)">
      <rect y="0.28" width="209" height="61.47" style="fill:none"/>
    </clipPath>
    <linearGradient id="linear-gradient" x1="33.68" y1="50.4" x2="7.9" y2="24.41"
                    gradientTransform="matrix(1, 0, 0, -1, 0, 64)" gradientUnits="userSpaceOnUse">
      <stop offset="0" stop-color="#00a0ff"/>
      <stop offset="0.01" stop-color="#00a1ff"/>
      <stop offset="0.26" stop-color="#00beff"/>
      <stop offset="0.51" stop-color="#00d2ff"/>
      <stop offset="0.76" stop-color="#00dfff"/>
      <stop offset="1" stop-color="#00e3ff"/>
    </linearGradient>
    <linearGradient id="linear-gradient-2" x1="52.38" y1="32.91" x2="14.92" y2="32.91"
                    gradientTransform="matrix(1, 0, 0, -1, 0, 64)" gradientUnits="userSpaceOnUse">
      <stop offset="0" stop-color="#ffe000"/>
      <stop offset="0.41" stop-color="#ffbd00"/>
      <stop offset="0.78" stop-color="orange"/>
      <stop offset="1" stop-color="#ff9c00"/>
    </linearGradient>
    <linearGradient id="linear-gradient-3" x1="38.35" y1="29.55" x2="3.38" y2="-5.69"
                    gradientTransform="matrix(1, 0, 0, -1, 0, 64)" gradientUnits="userSpaceOnUse">
      <stop offset="0" stop-color="#ff3a44"/>
      <stop offset="1" stop-color="#c31162"/>
    </linearGradient>
    <linearGradient id="linear-gradient-4" x1="11.38" y1="63.52" x2="26.99" y2="47.79"
                    gradientTransform="matrix(1, 0, 0, -1, 0, 64)" gradientUnits="userSpaceOnUse">
      <stop offset="0" stop-color="#32a071"/>
      <stop offset="0.07" stop-color="#2da771"/>
      <stop offset="0.48" stop-color="#15cf74"/>
      <stop offset="0.8" stop-color="#06e775"/>
      <stop offset="1" stop-color="#00f076"/>
    </linearGradient>
  </defs>
  <title>google-play-badge</title>
  <g style="clip-path:url(#clip-path)">
    <rect width="209" height="61.47" rx="5" style="fill:rgba(255,255,255,.1)"/>
    <path
      d="M73.38,16A4.16,4.16,0,0,1,72.3,19a4.87,4.87,0,0,1-6.81,0,4.49,4.49,0,0,1-1.4-3.38,4.52,4.52,0,0,1,1.4-3.38,4.57,4.57,0,0,1,3.4-1.38,4.25,4.25,0,0,1,1.86.46,3.39,3.39,0,0,1,1.39,1.08l-.77.77a2.89,2.89,0,0,0-2.48-1.08,3.06,3.06,0,0,0-2.47,1.08,3.13,3.13,0,0,0-1.09,2.61,3.15,3.15,0,0,0,1.09,2.61,4,4,0,0,0,2.47,1.07,3.38,3.38,0,0,0,2.63-1.07,2.52,2.52,0,0,0,.78-1.84H68.89V15.35h4.49V16Zm7.12-3.84H76.32V15h3.87v1.07H76.32V19H80.5v1.23H75.09V11.05H80.5Zm5.11,8.14H84.37V12.12H81.74V11.05h6.5v1.07H85.61Zm7.12,0V11.05H94v9.21Zm6.51,0H98V12.12H95.37V11.05h6.34v1.07H99.08v8.14ZM113.94,19a4.87,4.87,0,0,1-6.81,0,4.48,4.48,0,0,1-1.39-3.38,4.51,4.51,0,0,1,1.39-3.38,4.89,4.89,0,0,1,6.81,0,4.52,4.52,0,0,1,1.4,3.38A4.49,4.49,0,0,1,113.94,19Zm-5.88-.76a3.69,3.69,0,0,0,2.48,1.07A3.1,3.1,0,0,0,113,18.27a3.72,3.72,0,0,0,1.09-2.62A3.15,3.15,0,0,0,113,13,3.66,3.66,0,0,0,110.54,12,3.09,3.09,0,0,0,108.06,13,3.7,3.7,0,0,0,107,15.65,3.18,3.18,0,0,0,108.06,18.27Zm9,2V11.05h1.39l4.49,7.22V11.05h1.24v9.21h-1.24l-4.8-7.52v7.52Z"
      transform="translate(0 -0.28)" style="fill:#fff"/>
    <path
      d="M105.43,33.78a6.49,6.49,0,0,0-6.66,6.61,6.58,6.58,0,0,0,6.66,6.6,6.49,6.49,0,0,0,6.66-6.6A6.4,6.4,0,0,0,105.43,33.78Zm0,10.45a4,4,0,0,1,0-8,3.73,3.73,0,0,1,3.71,4A3.82,3.82,0,0,1,105.43,44.23ZM91,33.78a6.5,6.5,0,0,0-6.66,6.61A6.59,6.59,0,0,0,91,47a6.48,6.48,0,0,0,6.66-6.6A6.4,6.4,0,0,0,91,33.78Zm0,10.45a4,4,0,0,1,0-8,3.74,3.74,0,0,1,3.72,4A3.83,3.83,0,0,1,91,44.23ZM73.85,35.78v2.76H80.5A5.79,5.79,0,0,1,79,42.08a6.89,6.89,0,0,1-5.11,2,7.18,7.18,0,0,1-7.28-7.37,7.27,7.27,0,0,1,7.28-7.37,7.75,7.75,0,0,1,5.11,2l2-2a9.94,9.94,0,0,0-7-2.77A10.41,10.41,0,0,0,63.63,36.7,10.41,10.41,0,0,0,74,46.84a8.92,8.92,0,0,0,7.12-2.92,9.19,9.19,0,0,0,2.48-6.45,5.87,5.87,0,0,0-.15-1.69Zm70.28,2.15a6,6,0,0,0-5.57-4.15c-3.41,0-6.19,2.61-6.19,6.61a6.45,6.45,0,0,0,6.5,6.6,6.36,6.36,0,0,0,5.42-2.92l-2.17-1.53a3.78,3.78,0,0,1-3.25,1.84,3.35,3.35,0,0,1-3.25-2l8.82-3.68-.31-.77Zm-9,2.15a3.75,3.75,0,0,1,3.41-3.84A2.75,2.75,0,0,1,141,37.62Zm-7.27,6.3h2.94V27.18h-2.94Zm-4.65-11.22a5.13,5.13,0,0,0-3.56-1.53,6.63,6.63,0,0,0-6.35,6.6,6.4,6.4,0,0,0,6.35,6.46,4.46,4.46,0,0,0,3.41-1.54h.15v.92c0,2.46-1.39,3.84-3.56,3.84a3.44,3.44,0,0,1-3.25-2.3l-2.48,1.07a6.4,6.4,0,0,0,5.89,3.84c3.4,0,6.19-2,6.19-6.76V34.09h-2.79v1.07Zm-3.4,9.07a4,4,0,0,1,0-8,3.71,3.71,0,0,1,3.56,4A3.71,3.71,0,0,1,119.83,44.23Zm37.77-17h-7v19.2h3V39.16h4a6,6,0,1,0,0-12Zm.16,9.21h-4.18v-6.6h4.18a3.38,3.38,0,0,1,3.4,3.22A3.52,3.52,0,0,1,157.76,36.39Zm17.8-2.76c-2.17,0-4.33.92-5.11,2.92l2.63,1.07a2.75,2.75,0,0,1,2.63-1.38,2.9,2.9,0,0,1,3.1,2.46v.15a6.11,6.11,0,0,0-2.94-.77c-2.79,0-5.57,1.54-5.57,4.3a4.52,4.52,0,0,0,4.8,4.31,4.36,4.36,0,0,0,3.71-1.85H179v1.54h2.78V39a5.84,5.84,0,0,0-6.19-5.38Zm-.31,10.6c-.93,0-2.32-.46-2.32-1.69,0-1.54,1.7-2,3.09-2a6,6,0,0,1,2.64.62,3.6,3.6,0,0,1-3.41,3.07Zm16.26-10.14-3.25,8.29h-.16l-3.41-8.29H181.6l5.11,11.67-3,6.46h3l7.89-18.13Zm-26,12.29h2.94V27.18H165.5Z"
      transform="translate(0 -0.28)" style="fill:#fff"/>
    <path d="M16.1,11.81A3,3,0,0,0,15.48,14v34a3,3,0,0,0,.78,2.15l.15.15,19.2-19v-.31Z" transform="translate(0 -0.28)"
          style="fill:url(#linear-gradient)"/>
    <path d="M41.8,37.62l-6.35-6.3v-.46l6.35-6.3.15.16L49.54,29c2.17,1.23,2.17,3.23,0,4.45L41.8,37.62Z"
          transform="translate(0 -0.28)" style="fill:url(#linear-gradient-2)"/>
    <path d="M42,37.47,35.45,31,16.1,50.22c.77.77,1.86.77,3.25.15L42,37.47" transform="translate(0 -0.28)"
          style="fill:url(#linear-gradient-3)"/>
    <path d="M42,24.56,19.35,11.81c-1.39-.76-2.48-.61-3.25.16L35.45,31,42,24.56Z" transform="translate(0 -0.28)"
          style="fill:url(#linear-gradient-4)"/>
    <path d="M41.8,37.32,19.35,49.91a2.53,2.53,0,0,1-3.09,0l-.16.16.16.15a2.54,2.54,0,0,0,3.09,0Z"
          transform="translate(0 -0.28)" style="opacity:0.20000000298023224;isolation:isolate"/>
    <path
      d="M16.1,49.91a3,3,0,0,1-.62-2.15v.16a3,3,0,0,0,.78,2.15v-.16ZM49.54,33,41.8,37.32l.15.15,7.59-4.3A2.58,2.58,0,0,0,51.09,31c0,.76-.62,1.38-1.55,2Z"
      transform="translate(0 -0.28)" style="opacity:0.20000000298023224;isolation:isolate"/>
    <path
      d="M19.35,12,49.54,29c.93.61,1.55,1.23,1.55,2a2.56,2.56,0,0,0-1.55-2.15L19.35,11.81c-2.17-1.22-3.87-.3-3.87,2.15v.16C15.48,11.81,17.18,10.74,19.35,12Z"
      transform="translate(0 -0.28)" style="fill:#fff;opacity:0.20000000298023224;isolation:isolate"/>
  </g>
</svg>
