<svg width="141" height="44" viewBox="0 0 141 44" fill="none" xmlns="http://www.w3.org/2000/svg">
<path d="M136.594 44H4.40625C1.98281 44 0 42.02 0 39.6V4.4C0 1.98 1.98281 0 4.40625 0H136.594C139.017 0 141 1.98 141 4.4V39.6C141 42.02 139.017 44 136.594 44Z" fill="black"/>
<path fill-rule="evenodd" clip-rule="evenodd" d="M78.0773 37.2264C77.5282 36.7871 77.0889 36.0184 76.8693 35.5792L78.6263 34.8105C78.7361 35.0301 78.9558 35.3595 79.1754 35.689C79.6146 36.1282 80.2735 36.5675 80.9324 36.5675C81.5913 36.5675 82.36 36.238 82.7992 35.689C83.1286 35.1399 83.3483 34.5908 83.3483 33.8222V33.1633C82.0305 34.8105 79.2852 34.5908 77.7478 32.8338C76.1006 31.0768 76.1006 28.1119 77.7478 26.3549C79.395 24.7077 81.8109 24.4881 83.2385 26.0254V26.0254V25.2568H85.1053V33.4927C85.1053 35.5792 84.3366 36.7871 83.3483 37.5558C82.6894 38.1049 81.7011 38.3245 80.8226 38.3245C79.8343 38.2147 78.8459 37.8852 78.0773 37.2264V37.2264ZM124.089 37.6656V37.6656L125.956 33.2731L122.661 25.696H124.528L126.834 31.0768L129.14 25.696H131.007L125.956 37.6656H124.089V37.6656ZM115.194 33.4927V33.4927C114.645 32.9437 114.425 32.175 114.425 31.4063C114.425 30.7474 114.645 30.0885 115.084 29.6493C115.853 28.8806 116.951 28.5511 118.159 28.5511C118.928 28.5511 119.587 28.661 120.136 28.9904C120.136 27.6726 119.037 27.1236 118.159 27.1236C117.39 27.1236 116.622 27.5628 116.292 28.3315L114.645 27.6726C114.974 26.9039 115.853 25.4764 118.049 25.4764C119.147 25.4764 120.245 25.8058 120.904 26.5745C121.563 27.3432 121.783 28.2217 121.783 29.4296V34.0418H119.916V33.2731C119.696 33.6025 119.257 33.8222 118.928 34.0418C118.488 34.2614 117.939 34.3712 117.39 34.3712C116.731 34.2614 115.743 34.0418 115.194 33.4927V33.4927ZM56.6638 29.5395V29.5395C56.6638 27.3432 58.3109 24.9273 61.2759 24.9273C64.131 24.9273 65.888 27.3432 65.888 29.5395C65.888 31.7357 64.2408 34.1516 61.2759 34.1516C58.3109 34.1516 56.6638 31.7357 56.6638 29.5395V29.5395ZM66.5469 29.5395V29.5395C66.5469 27.3432 68.1941 24.9273 71.159 24.9273C74.0142 24.9273 75.7712 27.3432 75.7712 29.5395C75.7712 31.7357 74.124 34.1516 71.159 34.1516C68.3039 34.1516 66.5469 31.7357 66.5469 29.5395V29.5395ZM44.2549 31.9553V31.9553C41.5096 29.21 41.6194 24.7077 44.3647 21.8526C45.7923 20.425 47.5493 19.7661 49.4161 19.7661C51.1731 19.7661 52.9301 20.425 54.2479 21.7427L52.9301 23.1703C50.9535 21.1937 47.7689 21.3035 45.9021 23.2801C43.9255 25.3666 43.9255 28.5511 45.9021 30.6376C47.8787 32.724 51.1731 32.8338 53.1497 30.7474C53.8086 30.0885 54.0282 29.21 54.1381 28.3315H49.5259V26.3549H56.0049C56.1147 26.7941 56.1147 27.3432 56.1147 27.8923C56.1147 29.5395 55.4558 31.1866 54.3577 32.2848C53.1497 33.4927 51.3927 34.1516 49.6357 34.1516C47.6591 34.0418 45.6825 33.3829 44.2549 31.9553V31.9553ZM90.7057 32.724V32.724C89.0585 30.967 89.0585 28.0021 90.7057 26.1353C92.3529 24.3783 95.0982 24.3783 96.6356 26.1353C97.1847 26.6843 97.5141 27.453 97.8436 28.2217L91.8039 30.7474C92.1333 31.5161 92.902 32.175 94.0001 32.175C94.9884 32.175 95.6473 31.8455 96.3062 30.8572L97.9534 31.9553V31.9553C97.7338 32.175 97.5141 32.3946 97.4043 32.6142C95.5375 34.481 92.3529 34.481 90.7057 32.724V32.724ZM102.126 34.0418V34.0418V21.8526H106.08C108.386 21.8526 110.252 23.4997 110.252 25.4764C110.252 27.453 108.605 29.1002 106.519 29.1002H104.103V33.932H102.126V34.0418ZM111.351 34.0418V34.0418V21.8526H113.217V34.0418H111.351V34.0418ZM86.5328 33.8222V33.8222V20.2054H88.5095V33.8222H86.5328V33.8222ZM120.026 30.418V30.418C119.587 30.0885 118.928 29.9787 118.269 29.9787C116.951 29.9787 116.182 30.6376 116.182 31.4063C116.182 32.175 116.951 32.6142 117.72 32.6142C118.818 32.6142 120.026 31.7357 120.026 30.418V30.418ZM63.8016 29.5395V29.5395C63.8016 28.2217 62.9231 26.7941 61.2759 26.7941C59.6287 26.7941 58.7502 28.2217 58.7502 29.5395C58.7502 30.8572 59.6287 32.2848 61.2759 32.2848C62.8133 32.2848 63.8016 30.8572 63.8016 29.5395V29.5395ZM73.6847 29.5395V29.5395C73.6847 28.2217 72.8062 26.7941 71.159 26.7941C69.5119 26.7941 68.6334 28.2217 68.6334 29.5395C68.6334 30.8572 69.5119 32.2848 71.159 32.2848C72.8062 32.2848 73.6847 30.8572 73.6847 29.5395V29.5395ZM83.4581 30.3081V30.3081C83.4581 30.1983 83.4581 30.0885 83.5679 29.9787V29.9787C83.5679 29.8689 83.5679 29.6493 83.5679 29.5395C83.5679 29.4296 83.5679 29.21 83.5679 29.1002V28.9904C83.5679 28.8806 83.4581 28.661 83.4581 28.5511C83.1286 27.453 82.1403 26.6843 81.152 26.6843C79.8343 26.6843 78.7361 28.0021 78.7361 29.4296C78.7361 30.967 79.8343 32.175 81.2618 32.175C82.1403 32.2848 83.0188 31.5161 83.4581 30.3081V30.3081ZM91.4744 29.3198V29.3198L95.5375 27.5628C95.0982 26.7941 94.4394 26.5745 93.8903 26.5745C92.2431 26.6843 91.2548 28.4413 91.4744 29.3198V29.3198ZM108.276 25.5862V25.5862C108.276 24.4881 107.397 23.7194 106.189 23.7194H103.993V27.5628H106.299C107.397 27.5628 108.276 26.6843 108.276 25.5862Z" fill="white"/>
<path fill-rule="evenodd" clip-rule="evenodd" d="M125.516 35.4697V35.4697H125.406V35.4697V35.3599V35.3599H125.516V35.3599H125.406V35.3599V35.4697V35.4697H125.516Z" fill="white"/>
<path fill-rule="evenodd" clip-rule="evenodd" d="M125.845 35.3599H125.735V35.3599H125.845V35.4697V35.4697V35.3599V35.3599V35.3599Z" fill="white"/>
<path d="M42.7168 11.0913C42.7168 9.11468 44.1444 7.90674 45.9014 7.90674C47.1093 7.90674 47.878 8.4558 48.4271 9.22449L47.5486 9.77356C47.2191 9.3343 46.6701 9.00487 45.9014 9.00487C44.6934 9.00487 43.8149 9.88337 43.8149 11.2011C43.8149 12.5189 44.6934 13.3974 45.9014 13.3974C46.5602 13.3974 47.1093 13.0679 47.3289 12.8483V11.86H45.5719V10.8717H48.5369V13.1778C47.9878 13.8366 47.1093 14.2759 46.0112 14.2759C44.1444 14.2759 42.7168 12.9581 42.7168 11.0913Z" fill="white"/>
<path d="M49.8555 14.1656V8.01611H54.0284V9.00443H50.8438V10.5418H53.9185V11.5301H50.8438V13.2871H54.0284V14.2754L49.8555 14.1656V14.1656Z" fill="white"/>
<path d="M57.1031 14.1656V9.00443H55.2363V8.01611H60.0681V9.00443H58.2013V14.1656H57.1031Z" fill="white"/>
<path d="M63.8008 14.1656V8.01611H64.8989V14.1656H63.8008Z" fill="white"/>
<path d="M67.8639 14.1656V9.00443H65.9971V8.01611H70.8288V9.00443H68.962V14.1656H67.8639Z" fill="white"/>
<path fill-rule="evenodd" clip-rule="evenodd" d="M77.5283 7.90674C75.6615 7.90674 74.3438 9.22449 74.3438 11.0913C74.3438 12.8483 75.6615 14.2759 77.5283 14.2759C79.3951 14.2759 80.7129 12.9581 80.7129 11.0913C80.7129 9.22449 79.3951 7.90674 77.5283 7.90674ZM77.4185 8.89505C78.7363 8.89505 79.505 9.77356 79.505 11.0913C79.505 12.2993 78.7363 13.2876 77.4185 13.2876C76.1008 13.2876 75.3321 12.4091 75.3321 11.0913C75.3321 9.88337 76.2106 8.89505 77.4185 8.89505Z" fill="white"/>
<path d="M86.2026 14.1656L83.0181 9.77312V14.1656H81.9199V8.01611H83.0181L86.2026 12.2988V8.01611H87.3007V14.1656H86.2026Z" fill="white"/>
<path d="M11.4165 9.08594C11.1041 9.3959 11 9.91249 11 10.5324V33.3661C11 33.986 11.2082 34.5026 11.5206 34.8125L11.6247 34.9159L24.5358 22.1042V21.8976L11.4165 9.08594Z" fill="url(#paint0_linear)"/>
<path d="M28.7006 26.4438L24.4316 22.2077V21.8977L28.7006 17.6616L28.8047 17.7649L33.9067 20.6579C35.3644 21.4845 35.3644 22.8276 33.9067 23.6542L28.7006 26.4438V26.4438Z" fill="url(#paint1_linear)"/>
<path d="M28.8043 26.3404L24.4312 22.001L11.416 34.9159C11.9366 35.4325 12.6655 35.4325 13.6026 35.0193L28.8043 26.3404" fill="url(#paint2_linear)"/>
<path d="M28.8043 17.6618L13.6026 9.08622C12.6655 8.56962 11.9366 8.67294 11.416 9.18954L24.4312 22.0012L28.8043 17.6618V17.6618Z" fill="url(#paint3_linear)"/>
<path opacity="0.2" d="M28.7002 26.2373L13.6026 34.7095C12.7696 35.2261 12.0407 35.1228 11.5201 34.7095L11.416 34.8128L11.5201 34.9161C12.0407 35.3294 12.7696 35.4327 13.6026 34.9161L28.7002 26.2373Z" fill="black"/>
<path opacity="0.2" d="M11.4165 34.7093C11.1041 34.3993 11 33.8827 11 33.2628V33.3661C11 33.9861 11.2082 34.5027 11.5206 34.8126V34.7093H11.4165ZM33.9067 23.3441L28.7007 26.2371L28.8048 26.3404L33.9067 23.4475C34.6356 23.0342 34.9479 22.5176 34.9479 22.001C34.9479 22.5176 34.5315 22.9309 33.9067 23.3441V23.3441Z" fill="black"/>
<path opacity="0.2" d="M13.603 9.18952L33.9067 20.658C34.5315 21.0713 34.9479 21.4846 34.9479 22.0012C34.9479 21.4846 34.6356 20.968 33.9067 20.5547L13.603 9.0862C12.1453 8.25964 11 8.87956 11 10.5327V10.636C11 9.0862 12.1453 8.36296 13.603 9.18952Z" fill="white"/>
<defs>
<linearGradient id="paint0_linear" x1="23.2863" y1="10.3361" x2="5.94669" y2="27.8093" gradientUnits="userSpaceOnUse">
<stop stop-color="#00A0FF"/>
<stop offset="0.007" stop-color="#00A1FF"/>
<stop offset="0.26" stop-color="#00BEFF"/>
<stop offset="0.512" stop-color="#00D2FF"/>
<stop offset="0.76" stop-color="#00DFFF"/>
<stop offset="1" stop-color="#00E3FF"/>
</linearGradient>
<linearGradient id="paint1_linear" x1="35.8163" y1="22.0021" x2="10.622" y2="22.0021" gradientUnits="userSpaceOnUse">
<stop stop-color="#FFE000"/>
<stop offset="0.409" stop-color="#FFBD00"/>
<stop offset="0.775" stop-color="#FFA500"/>
<stop offset="1" stop-color="#FF9C00"/>
</linearGradient>
<linearGradient id="paint2_linear" x1="26.4376" y1="24.3732" x2="2.92482" y2="48.0685" gradientUnits="userSpaceOnUse">
<stop stop-color="#FF3A44"/>
<stop offset="1" stop-color="#C31162"/>
</linearGradient>
<linearGradient id="paint3_linear" x1="8.18512" y1="1.51908" x2="18.6852" y2="12.1006" gradientUnits="userSpaceOnUse">
<stop stop-color="#32A071"/>
<stop offset="0.069" stop-color="#2DA771"/>
<stop offset="0.476" stop-color="#15CF74"/>
<stop offset="0.801" stop-color="#06E775"/>
<stop offset="1" stop-color="#00F076"/>
</linearGradient>
</defs>
</svg>
