<svg id="Layer_1" data-name="Layer 1" xmlns="http://www.w3.org/2000/svg" xmlns:xlink="http://www.w3.org/1999/xlink" viewBox="0 0 47.14 35.44"><defs><style>.cls-1{fill:url(#linear-gradient);}</style><linearGradient id="linear-gradient" x1="145.67" y1="434.18" x2="189.02" y2="400.79" gradientUnits="userSpaceOnUse"><stop offset="0" stop-color="#6ca642"/><stop offset="1" stop-color="#6ca642"/></linearGradient></defs><title>green</title><path class="cls-1" d="M172.25,430l-.46,2.14H156.62l-.5-2.14Zm-23.66,4.58,1.07,4.28h29.06l1.07-4.28Zm38.08-27.48a2.13,2.13,0,0,0-2.57.35l-11,11-8.89-15-9,14.93-10.92-10.91a2.14,2.14,0,0,0-3.59,2L148,432.33h4.41L146.71,416l7.39,7.38a2.21,2.21,0,0,0,1.64.63,2.15,2.15,0,0,0,1.55-.8l6.9-11.54,6.9,11.54a2.13,2.13,0,0,0,3.18.17l7.39-7.38-5.74,16.37h4.42l7.35-22.84A2.12,2.12,0,0,0,186.67,407.11Z" transform="translate(-140.62 -403.44)"/></svg>