<svg xmlns="http://www.w3.org/2000/svg" viewBox="0 0 154.82 114.85"><defs><style>.cls-1{fill:none;stroke:#fff;stroke-miterlimit:10;}.cls-2{fill:#231f20;}.cls-3{fill:#e8b909;}.cls-4{fill:#0054a4;}.cls-5{fill:#a30046;}.cls-6{fill:#fff;}.cls-7{fill:#fd0;}.cls-8{fill:#e31837;}</style></defs><title>HI_logo-without - vertical color (dark bg)</title><g id="Layer_2" data-name="Layer 2"><g id="TEXTOS"><line class="cls-1" x1="105.72" y1="71.83" x2="47.95" y2="71.83"/><path class="cls-2" d="M105.7,29.29l-.86-.9C101.16,24.55,96,15,102.6,6.08l.52-.69-.46-.74a9,9,0,0,0-.79-1.07c-.21-.26-.42-.53-.71-.94l-.55-.79-.9.32a12.5,12.5,0,0,1-4.06.71c-3.79,0-6.28-.37-9.33-2.4L85.61,0,84.9.49a13.82,13.82,0,0,1-8.2,2.77A13.82,13.82,0,0,1,68.5.49L67.79,0l-.71.48c-3.06,2-5.54,2.4-9.33,2.4a12.5,12.5,0,0,1-4.06-.71l-.9-.32-.55.79c-.29.41-.51.68-.71.93a8.94,8.94,0,0,0-.79,1.08l-.46.74.52.69c6.63,8.87,1.43,18.47-2.24,22.31l-.86.9.87.88c.48.47,1.31,1.35,2,2.08a.49.49,0,0,0,0,.12,2.54,2.54,0,0,1,0,.26v.08c-.34,6.4,1.32,11.66,4.92,15.65,3.83,4.23,9.81,6.76,16.87,7.15,1.75,1.61,3.53,2.93,3.61,3l.75.57.76-.57c.08-.06,1.84-1.39,3.59-3,7.07-.39,13-2.92,16.87-7.15,3.61-4,5.26-9.25,4.93-15.65v-.08c0-.12,0-.17,0-.26v-.12c.69-.73,1.53-1.61,2-2.08Zm-4.19,2.5c.07.64,0,.61.08,1,.75,14.25-9.12,21-21,21.48C78.71,56,76.7,57.48,76.7,57.48s-2-1.51-3.84-3.22c-11.93-.5-21.81-7.23-21-21.48,0-.38,0-.35.07-1-.68-.73-1.81-1.92-2.41-2.52,4.28-4.47,9.27-14.69,2.34-23.95.46-.74.79-1,1.46-1.95a13.87,13.87,0,0,0,4.48.78c4,0,6.69-.39,10-2.62a15.13,15.13,0,0,0,8.93,3,15.07,15.07,0,0,0,8.92-3c3.34,2.23,6,2.62,10,2.62a13.81,13.81,0,0,0,4.47-.78c.68,1,1,1.21,1.47,2-6.93,9.26-1.94,19.48,2.34,24-.6.6-1.73,1.79-2.42,2.52"/><path class="cls-3" d="M76.7,57.48a48.51,48.51,0,0,1-3.84-3.22c-11.93-.5-21.8-7.23-21-21.48,0-.38,0-.35.07-1-.68-.72-1.82-1.91-2.41-2.51,4.28-4.47,9.27-14.69,2.34-23.95.45-.74.78-1,1.46-1.95a13.87,13.87,0,0,0,4.48.79c4,0,6.69-.4,10-2.62a15.13,15.13,0,0,0,8.92,3,15.15,15.15,0,0,0,8.92-3c3.34,2.22,6,2.62,10,2.62a13.81,13.81,0,0,0,4.47-.79c.68,1,1,1.21,1.47,2-6.93,9.26-1.94,19.48,2.34,24-.6.6-1.73,1.79-2.41,2.51.06.65,0,.62.07,1,.75,14.25-9.12,21-21,21.48C78.71,56,76.7,57.48,76.7,57.48"/><path class="cls-4" d="M60.35,32.12H54.07c0,.41-.06.43-.1.84-.37,7.2,2.14,12.11,6.38,15.17Z"/><path class="cls-5" d="M60.35,48.13a20.09,20.09,0,0,0,6.59,3v-19H60.35Z"/><path class="cls-4" d="M66.94,51.13a31.13,31.13,0,0,0,6.59,1v-20H66.94Z"/><path class="cls-5" d="M80.12,32.12H73.53v20h.22c2.19,0,4.18,0,5.89,0l.48,0Z"/><path class="cls-4" d="M80.12,52.1a31.2,31.2,0,0,0,6.59-1v-19H80.12Z"/><path class="cls-5" d="M86.7,51.07a19.61,19.61,0,0,0,6.59-3.13V32.12H86.7Z"/><path class="cls-4" d="M99.32,32.12h-6V48c4.09-3.07,6.49-7.93,6.14-15-.05-.41-.07-.43-.11-.84"/><path class="cls-2" d="M77.33,52.32H73.75c-7-.29-12.53-2.43-15.92-6.18-3-3.27-4.33-7.7-4-13.18,0-.2,0-.31,0-.4s0-.23.06-.45v-.17H99.5v.17c0,.22,0,.32,0,.45a2.2,2.2,0,0,1,0,.39c.28,5.49-1.08,9.92-4,13.19-3.4,3.75-8.9,5.89-15.91,6.18H77.33m-23.08-20c0,.12,0,.21,0,.29s0,.2-.05.38c-.27,5.36,1.05,9.7,4,12.89,3.33,3.68,8.74,5.77,15.65,6.06h5.88c6.91-.29,12.32-2.38,15.65-6.06,2.89-3.19,4.22-7.53,3.95-12.9,0-.17,0-.28,0-.37a1.84,1.84,0,0,1,0-.29Z"/><path class="cls-3" d="M70.36,41.85a6.32,6.32,0,1,1,6.31,6.35,6.34,6.34,0,0,1-6.31-6.35"/><path class="cls-2" d="M76.68,35.68a6.17,6.17,0,1,0,6.12,6.17,6.16,6.16,0,0,0-6.12-6.17m0,12.45a6.29,6.29,0,1,1,6.24-6.28,6.27,6.27,0,0,1-6.24,6.28"/><path class="cls-2" d="M76.67,35.49a6.36,6.36,0,1,1-6.31,6.36,6.34,6.34,0,0,1,6.31-6.36M73.45,43c-1.14-1-1.14-3.17-.84-4.59.09-.39.19-.78.31-1.22a6,6,0,0,0-1.78,6.9,1.73,1.73,0,0,0,.32,0,2.18,2.18,0,0,0,2-1.12m6.14.46c-.2,1-1.27,1.76-2.27,2.36a9.18,9.18,0,0,1-4,1,5.85,5.85,0,0,0,3.32,1,5.94,5.94,0,0,0,5.22-3.1,1.57,1.57,0,0,0-2.3-1.28m-6.71,3a9.33,9.33,0,0,0,4.25-1c1.42-.84,2.52-1.75,2-3a1.43,1.43,0,0,0-2.28-.56,2,2,0,0,1-2,1.66,2.48,2.48,0,0,1-1.07-.38,2.53,2.53,0,0,1-2.27,1.25h-.15a6.19,6.19,0,0,0,1.57,2m3.78-8.37c1-.41,2.35.12,3.39.71a6.86,6.86,0,0,1,2.57,2.66,6,6,0,0,0-5.9-5.63,1.32,1.32,0,0,0-.06,2.26m-.17,3.83a2.33,2.33,0,0,1-.62-3.15,1.93,1.93,0,0,1,.45-.49,1.67,1.67,0,0,1-.17-2.43,6,6,0,0,0-2.79,1,14,14,0,0,0-.58,3.33c0,1.59.68,2.88,2.06,3.06a1.7,1.7,0,0,0,1.65-1.31m6.12.46a6.18,6.18,0,0,0-2.73-3.27c-1.44-.81-3-1.25-3.71-.15a2,2,0,0,0,.5,2.65,1.77,1.77,0,0,1,2.78.73,1.93,1.93,0,0,1,.17.7,1.93,1.93,0,0,1,2.53,1.17,6.23,6.23,0,0,0,.46-1.83"/><path class="cls-2" d="M84.19,30.94H81.51V25h2.71c1.18,0,1.89.6,1.89,1.6a1.35,1.35,0,0,1-.54,1.11A1.4,1.4,0,0,1,86.3,29a1.86,1.86,0,0,1-2.11,1.93M82.77,29.7h1.46c.49,0,.75-.23.75-.68s-.23-.67-.75-.67H82.77Zm0-2.51h1.45c.4,0,.58-.15.58-.47s-.08-.49-.64-.49H82.77Z"/><path class="cls-2" d="M76.23,31c-1.56,0-2.58-1.19-2.58-3.05s1.08-3.05,2.62-3.05a2.26,2.26,0,0,1,2.17,1.32l0,.07-1.19.55,0-.06a1,1,0,0,0-1-.59c-.8,0-1.29.68-1.29,1.76s.52,1.77,1.3,1.77a1.13,1.13,0,0,0,1.06-.7l0-.06,1.08.64,0,.06A2.26,2.26,0,0,1,76.23,31"/><polygon class="cls-2" points="68.34 30.94 67.05 30.94 67.05 25.02 71.3 25.02 71.3 26.29 68.34 26.29 68.34 27.24 70.07 27.24 70.07 28.5 68.34 28.5 68.34 30.94"/><path class="cls-6" d="M55.58,23.81c2.17-5,3-11.45-.67-17.74a16.48,16.48,0,0,0,2.84.26c3.74,0,6.68-.34,10-2.22a16.84,16.84,0,0,0,9,2.6,16.85,16.85,0,0,0,9-2.6C89,6,91.91,6.33,95.65,6.33a15.74,15.74,0,0,0,2.85-.27c-3.66,6.3-2.85,12.74-.68,17.75Z"/><path class="cls-7" d="M76.51,6.71v17.1h2.26V6.58a17.6,17.6,0,0,1-2.08.13h-.18"/><path class="cls-8" d="M78.77,23.81H81V6.13a16.74,16.74,0,0,1-2.26.45Z"/><path class="cls-7" d="M81,23.81h2.26V5.34A15.48,15.48,0,0,1,81,6.13Z"/><path class="cls-8" d="M83.28,23.81h2.26V4.18a17.85,17.85,0,0,1-2.26,1.16Z"/><path class="cls-7" d="M85.54,4.18V23.81H87.8V5.14a16.73,16.73,0,0,1-2.15-1,.41.41,0,0,1-.11.07"/><path class="cls-8" d="M87.8,23.81h2.26v-18a15.84,15.84,0,0,1-2.26-.69Z"/><path class="cls-7" d="M90.06,23.81h2.26V6.19a16.89,16.89,0,0,1-2.26-.36Z"/><path class="cls-8" d="M92.31,23.78h2.27V6.29c-.78,0-1.54,0-2.27-.12Z"/><path class="cls-7" d="M98.33,6.08a14.84,14.84,0,0,1-2.68.25H94.58V23.81h3.24c-2.14-4.93-2.95-11.24.51-17.45Z"/><path class="cls-8" d="M63.64,18v5.8h6.28V18h6.7V11.69h-6.7V5.26a19.69,19.69,0,0,1-2.18-1.15,15.52,15.52,0,0,1-4.1,1.65v5.93H57.06A18.49,18.49,0,0,1,57.23,18Z"/><path class="cls-2" d="M98.88,5.79l-.42.08a15.1,15.1,0,0,1-2.81.27c-3.82,0-6.67-.36-9.9-2.19l-.1-.06L85.56,4a16.64,16.64,0,0,1-8.87,2.57A16.62,16.62,0,0,1,67.84,4l-.09-.06-.1.06c-3.24,1.83-6.08,2.19-9.9,2.19a15.47,15.47,0,0,1-2.81-.26l-.4-.07.2.36c3.92,6.74,2.52,13.27.66,17.56l-.11.27H98.11L98,23.73c-1.86-4.29-3.25-10.82.67-17.58Zm-43.61.53a15.33,15.33,0,0,0,2.48.2c3.84,0,6.72-.36,10-2.19A17,17,0,0,0,76.43,6.9V23.62H55.87a19.36,19.36,0,0,0-.6-17.3m42.26,17.3H76.81V6.9a17.14,17.14,0,0,0,8.85-2.57c3.26,1.83,6.14,2.19,10,2.19a15.22,15.22,0,0,0,2.49-.21,19.32,19.32,0,0,0-.61,17.31"/><path class="cls-6" d="M0,85.84H5.94l-.28,1.73H1.92v2.21H5.29v1.73H1.92v3.92H0Z"/><path class="cls-6" d="M6.87,89.42c0-2.54,1.26-3.68,3.56-3.68a3.85,3.85,0,0,1,2.88,1.07v1.5H11.74s-.11-.86-1.3-.86-1.65.62-1.65,1.93v2.51c0,1.31.4,1.94,1.65,1.94s1.3-.87,1.3-.87h1.57v1.5a3.85,3.85,0,0,1-2.88,1.07c-2.3,0-3.56-1.14-3.56-3.68Z"/><path class="cls-6" d="M16.45,86.57l.12-.17H24.9l.6,1.2-.12.17H23.85l0,7.8-.12.08-1.4-.4,0-1.83a3.22,3.22,0,0,1-1.66.46,3.14,3.14,0,0,1-2.52-1.32,2.84,2.84,0,0,1-.73-1.77c0-1.16.87-2.12,2.69-2.12A9,9,0,0,1,22.4,89V87.77H17.05Zm3.18,3.77a1.39,1.39,0,0,0-.75,1.24c0,.48.44.93,1.36.93a3.09,3.09,0,0,0,.8-.11Zm2.12,1.75A1.18,1.18,0,0,0,22.42,91v-.87A5.94,5.94,0,0,0,21.1,90a4.9,4.9,0,0,0-.7,0Z"/><path class="cls-6" d="M24.62,86.57l.13-.17h3.92l.59,1.2-.12.17H27.61l0,7.8-.13.08-1.41-.41,0-7.47h-.92Z"/><path class="cls-6" d="M28.38,86.57l.13-.17h6.3l.6,1.2-.13.17h-2a5.71,5.71,0,0,1,.1,1.08,3.36,3.36,0,0,1-1.92,3.27,10.78,10.78,0,0,0,3.25,2.15L34,95.77h-.13a13.86,13.86,0,0,1-4-4.3,2.31,2.31,0,0,1-.33-.9.91.91,0,0,1,.15-.5.92.92,0,0,1,.83-.37c.41,0,.81,0,1.09,0a2.13,2.13,0,0,0,.32-1.3,2.81,2.81,0,0,0-.07-.67H29Z"/><path class="cls-6" d="M31.29,96l.6,0a4,4,0,0,1,2.33.77,30.26,30.26,0,0,1,2.72,2.45l-.35.56h-.1c-1.44-1.41-2.39-2.31-3.79-2.31a4,4,0,0,0-.77.06l-.07-.06Z"/><path class="cls-6" d="M34.53,86.57l.12-.17h9.44l.6,1.2-.12.17H43l0,7.8-.12.08-1.4-.4,0-3a11.17,11.17,0,0,1-1.17.06,5.08,5.08,0,0,1-2.06-.47,5,5,0,0,1-1,.91,11,11,0,0,0,3.1,2l-.66,1.47h-.13a15.61,15.61,0,0,1-3.6-3.62A3.32,3.32,0,0,1,35.43,91a.86.86,0,0,1,.9-.92c.19,0,.54,0,.74.05A4.31,4.31,0,0,0,37.2,89a6.2,6.2,0,0,0-.11-1.22h-2Zm3.93,1.2a10.25,10.25,0,0,1,.18,1.92,8.16,8.16,0,0,1,0,.9,7.56,7.56,0,0,0,1.41.14,6.93,6.93,0,0,0,1.58-.16v-2.8Z"/><path class="cls-6" d="M43.81,86.57l.12-.17h1.66a2.36,2.36,0,0,1-.66-1.52c0-1.2,1-2.49,3-2.49,1.77,0,3.71.94,5.89,3.1l-.37.58h-.12a6.77,6.77,0,0,0-4.48-2.2c-1.54,0-2.51.92-2.51,2a1.25,1.25,0,0,0,.13.56h1.34l.6,1.2-.12.17H46.8l0,7.8-.12.08-1.42-.41,0-7.47h-.92Z"/><path class="cls-6" d="M47.57,86.57l.12-.17h9.86l.59,1.2-.12.17H56.49l0,7.8-.13.08L55,95.25l0-4.93a2.56,2.56,0,0,0-2.12,2.19h-.13l-1.17-.8a3.7,3.7,0,0,1,.65-1.51,1.35,1.35,0,0,0-.62-.14,1.71,1.71,0,0,0-1.6,1.8c0,1.14.89,1.85,2.59,2.41l-.43,1.38-.11,0c-1.79-.93-3.46-2.86-3.46-4.7a2.12,2.12,0,0,1,2.13-2.3,3.21,3.21,0,0,1,2.08.92,5.44,5.44,0,0,1,2.2-.79V87.77H48.17Z"/><path class="cls-6" d="M57.27,86.57l.12-.17h1.52c-.64-1.74-1-2.8-2.32-2.8a6.17,6.17,0,0,0-1.71.25h0l-.67-1.65A6.72,6.72,0,0,1,56,82c1.78,0,2.42,1.39,3.84,4.45h1.47l.6,1.2-.13.17H60.25l0,7.8-.12.08-1.42-.41,0-7.47h-.93Z"/><path class="cls-6" d="M61,86.57l.12-.17h8.31l.59,1.2-.12.17H68.4l0,7.8-.13.08-1.39-.4,0-4.17c-.41,0-.72,0-1.13,0a5,5,0,0,0-1.29.13,7,7,0,0,1,.08,1,.8.8,0,0,1-.24.7.84.84,0,0,1-.52.19c-.31,0-.71-.25-1.21-.77a2.17,2.17,0,0,1-.73-1.34c0-.23.13-1.4,2.44-1.4a19,19,0,0,1,2.59.21v-2H61.63Z"/><path class="cls-6" d="M69.17,86.57l.13-.17h3.92l.6,1.2-.13.17H72.16l0,7.8-.12.08-1.42-.41,0-7.47h-.93Z"/><path class="cls-6" d="M76.58,86.57l.13-.17H87.46l.6,1.2-.12.17H83.43v2.11l0,0a2.42,2.42,0,0,1,1.4-.51,2.08,2.08,0,0,1,1.62.75A2.63,2.63,0,0,1,87.22,92a4.88,4.88,0,0,1-1.1,2.79H86l-1.31-1A5.15,5.15,0,0,0,86,91.15c0-.33-.14-.48-.44-.48a3.34,3.34,0,0,0-2.12,1.4l0,3.5-.13.08L82,95.25l0-2h0a2.27,2.27,0,0,1-1.44.46,3.27,3.27,0,0,1-2.95-2.89A2.17,2.17,0,0,1,80,88.72a6.67,6.67,0,0,1,2,.34V87.77H77.18ZM82,90.14a4.39,4.39,0,0,0-.85-.08c-1.47,0-2.14.75-2.14,1.61,0,.48.35.71.94.71a2.91,2.91,0,0,0,2-1Z"/><path class="cls-6" d="M85.3,86.57c-.67-1.84-1.06-3-2.38-3a6.09,6.09,0,0,0-1.7.25h0l-.67-1.65A6.72,6.72,0,0,1,82.33,82c1.8,0,2.43,1.42,3.89,4.54l-.06.08Z"/><path class="cls-6" d="M101.34,95.57l-.12.08-1.41-.4,0-2.93a1.46,1.46,0,0,1-.3,0A2.64,2.64,0,0,1,98.22,92l-.07,0a2.56,2.56,0,0,1,.07.64,2.17,2.17,0,0,1-2.32,2.13c-1.78,0-3.2-1.52-4.45-4v-.08l.65-.44c1,1.86,1.77,2.92,3.24,2.92A1.61,1.61,0,0,0,97,91.73c0-.46-.26-.75-.87-.75a4.94,4.94,0,0,0-1.64.41L93.62,90l0-.17a12.9,12.9,0,0,1,1.89-.51c.58-.22.89-.58.89-1s-.13-.6-.8-.6a4.21,4.21,0,0,0-2,.74l-.9-1.35,0-.12a3.45,3.45,0,0,1,2-.74,2.55,2.55,0,0,1,2.28,1.31,2.58,2.58,0,0,1,.58,1.59,2,2,0,0,1-.46,1.18,2.57,2.57,0,0,1,.38.42,1.38,1.38,0,0,0,.89.18,2.88,2.88,0,0,0,1.42-.41V87.77H98.49l-.6-1.2L98,86.4h8.11l.6,1.2-.12.17h-1.53l0,7.8-.12.08-1.41-.41,0-7.47h-2.29Z"/><path class="cls-6" d="M111.44,86.57l.12-.17h4l.6,1.2-.13.17h-1.53l0,7.8-.12.08-1.4-.4,0-1.81a3.67,3.67,0,0,1-1.59.38,2.94,2.94,0,0,1-2-.95,2.88,2.88,0,0,1-1-2,1.54,1.54,0,0,1,.22-.77c-.91-.76-1.78-1.55-1.78-2.54a1.87,1.87,0,0,1,2-1.88,1.92,1.92,0,0,1,1.41.61A8.91,8.91,0,0,1,111.2,88l-.51.31c-.31-.62-.65-1.1-1.28-1.1a1.13,1.13,0,0,0-1.16,1.09c0,.57.48.87,1.24.87a18.29,18.29,0,0,0,1.89-.28l.8,1.29-.07.09c-2,.26-2.29,1.06-2.29,1.45s.34.65.94.65a3.17,3.17,0,0,0,1.31-.33,1.46,1.46,0,0,0,1-1.38v-2.9h-1Z"/><path class="cls-6" d="M115.32,86.57l.12-.17h1.66a2.38,2.38,0,0,1-.67-1.52c0-1.2,1-2.49,3-2.49,1.78,0,3.71.94,5.89,3.1l-.37.58h-.11a6.77,6.77,0,0,0-4.48-2.2c-1.54,0-2.51.92-2.51,2a1.25,1.25,0,0,0,.13.56h1.34l.6,1.2-.13.17h-1.52l0,7.8-.12.08-1.42-.41,0-7.47h-.92Z"/><path class="cls-6" d="M119.08,86.57l.12-.17H130l.6,1.2-.13.17h-4.5v2.11l0,0a2.44,2.44,0,0,1,1.41-.51,2.08,2.08,0,0,1,1.62.75,2.62,2.62,0,0,1,.73,1.82,4.94,4.94,0,0,1-1.09,2.79h-.13l-1.31-1a5.07,5.07,0,0,0,1.32-2.59c0-.33-.13-.48-.44-.48a3.39,3.39,0,0,0-2.12,1.4l0,3.5-.12.08-1.36-.4,0-2h0a2.27,2.27,0,0,1-1.44.46,3.27,3.27,0,0,1-2.94-2.89,2.17,2.17,0,0,1,2.4-2.11,6.66,6.66,0,0,1,2,.34V87.77h-4.83Zm5.45,3.57a4.54,4.54,0,0,0-.85-.08c-1.47,0-2.15.75-2.15,1.61,0,.48.35.71.94.71a2.93,2.93,0,0,0,2.06-1Z"/><path class="cls-6" d="M129.68,86.57l.12-.17h3.92l.6,1.2-.12.17h-1.53l0,7.8-.12.08-1.42-.41,0-7.47h-.92Z"/><path class="cls-6" d="M133.44,86.57l.12-.17h6.31l.59,1.2-.12.17h-2a5.71,5.71,0,0,1,.1,1.08,3.38,3.38,0,0,1-1.92,3.27,10.85,10.85,0,0,0,3.24,2.15l-.67,1.5h-.14a13.82,13.82,0,0,1-4-4.3,2.31,2.31,0,0,1-.33-.9,1,1,0,0,1,.14-.5.93.93,0,0,1,.83-.37c.41,0,.82,0,1.09,0a2.12,2.12,0,0,0,.33-1.3,2.81,2.81,0,0,0-.07-.67H134Z"/><path class="cls-6" d="M139.58,86.57l.13-.17h1.66a2.38,2.38,0,0,1-.67-1.52c0-1.2,1-2.49,3-2.49,1.78,0,3.71.94,5.89,3.1l-.37.58h-.11a6.8,6.8,0,0,0-4.49-2.2c-1.53,0-2.5.92-2.5,2a1.26,1.26,0,0,0,.12.56h1.35l.59,1.2-.12.17h-1.53l0,7.8-.13.08-1.41-.41,0-7.47h-.92Z"/><path class="cls-6" d="M143.35,86.57l.12-.17h10.76l.59,1.2-.12.17h-4.51v2.11l0,0a2.42,2.42,0,0,1,1.41-.51,2.07,2.07,0,0,1,1.61.75A2.63,2.63,0,0,1,154,92a4.88,4.88,0,0,1-1.1,2.79h-.12l-1.31-1a5.07,5.07,0,0,0,1.32-2.59c0-.33-.13-.48-.44-.48a3.37,3.37,0,0,0-2.12,1.4l0,3.5-.13.08-1.36-.4,0-2h0a2.27,2.27,0,0,1-1.44.46,3.27,3.27,0,0,1-3-2.89,2.17,2.17,0,0,1,2.4-2.11,6.67,6.67,0,0,1,2,.34V87.77h-4.84Zm5.44,3.57a4.39,4.39,0,0,0-.85-.08c-1.47,0-2.14.75-2.14,1.61,0,.48.35.71.94.71a2.89,2.89,0,0,0,2-1Z"/><path class="cls-6" d="M37.58,101.64l.13-.17h7.71l.6,1.21-.12.16H44.32v2.53l-.13.19h-1c-2.11,0-3.07.6-3.07,1.77a1.36,1.36,0,0,0,1.54,1.32,4,4,0,0,0,2.89-1.46l1,1.33,0,.14a4,4,0,0,1-3,1.41,3.88,3.88,0,0,1-2.78-1.18,3.49,3.49,0,0,1-1.12-2.31c0-1.16.63-2.38,3.08-2.38h.89c.24,0,.32-.09.32-.33v-1H38.18Z"/><path class="cls-6" d="M41.91,111.09l.59,0a3.94,3.94,0,0,1,2.33.77,29,29,0,0,1,2.72,2.45l-.34.56H47.1c-1.44-1.41-2.39-2.31-3.79-2.31a4,4,0,0,0-.77.06l-.07-.06Z"/><path class="cls-6" d="M45.14,101.64l.12-.17h6.31l.59,1.2-.12.17H50a5.71,5.71,0,0,1,.1,1.08,3.36,3.36,0,0,1-1.92,3.27,10.85,10.85,0,0,0,3.24,2.15l-.67,1.5h-.14a13.94,13.94,0,0,1-4-4.3,2.31,2.31,0,0,1-.33-.9.86.86,0,0,1,1-.87c.42,0,.82,0,1.09,0a2.06,2.06,0,0,0,.33-1.3,2.81,2.81,0,0,0-.07-.67H45.74Z"/><path class="cls-6" d="M49.4,101.65c-.67-1.85-1.06-3-2.38-3a6.09,6.09,0,0,0-1.7.25h0l-.67-1.65A6.78,6.78,0,0,1,46.43,97c1.8,0,2.43,1.42,3.89,4.54l-.06.09Z"/><path class="cls-6" d="M51.29,101.64l.12-.17h8l.59,1.2-.12.17H58.3l0,2.06-.15.18H56.93a14.12,14.12,0,0,0-1.5.07,1.34,1.34,0,0,0-.88.39.7.7,0,0,0-.2.43c0,.19.19.27.42.27.71,0,1.55-.28,2.3-.28a1.64,1.64,0,0,1,1.67,1.1,2.63,2.63,0,0,1,.35,1.28,2.26,2.26,0,0,1-2.43,2.09c-1.65,0-3.28-1.16-4.67-3.46v-.1l.61-.43c1,1.7,2.09,2.47,3.32,2.47a1.86,1.86,0,0,0,2-1.34c0-.08-.07-.14-.36-.14-.44,0-1.72.31-2.32.31-.43,0-.84-.28-1.41-.93a2.62,2.62,0,0,1-.75-1.6c0-1.28,1.17-1.52,2.72-1.52h1.06v-.85h-5Z"/><path class="cls-6" d="M59.13,101.64l.12-.17h1.66a2.36,2.36,0,0,1-.67-1.52c0-1.2,1-2.49,3-2.49,1.78,0,3.71.94,5.89,3.1l-.37.58h-.11a6.79,6.79,0,0,0-4.48-2.2c-1.54,0-2.51.92-2.51,2a1.26,1.26,0,0,0,.12.56h1.35l.6,1.2-.13.17H62.11l0,7.8-.12.08-1.42-.41,0-7.47h-.93Z"/><path class="cls-6" d="M61.15,98.21l1.2,1.2-1.2,1.21-1.21-1.21Z"/><path class="cls-6" d="M62.89,101.64l.12-.17h8.8l.6,1.2-.13.17H70.75l0,7.8-.12.08-1.42-.41,0-7.47H66.72c.08.91.1,1.67.1,2.31a5.65,5.65,0,0,1-.46,2.74.94.94,0,0,1-.79.48c-.28,0-.66-.25-1.11-.73a2,2,0,0,1-.67-1.21.74.74,0,0,1,.19-.52c.19-.23.65-.34,1.37-.42a9.3,9.3,0,0,0,.06-1.19,11.8,11.8,0,0,0-.09-1.46H63.48Z"/><path class="cls-6" d="M75.17,101.64l.13-.17h8.16l.6,1.2-.12.17H82.41l0,7.8-.12.08-1.4-.4L81,108a2.3,2.3,0,0,1-1.21.36A3,3,0,0,1,78,107.7c-1.06-.75-1.48-1.41-1.48-3.29,0-.57,0-1.09,0-1.57h-.82Zm5.8,1.2H78.13c0,.46,0,1,0,1.64,0,1.59.05,2.49,1,2.49a2.21,2.21,0,0,0,1.36-.56,1.44,1.44,0,0,0,.54-1.17Z"/><path class="cls-6" d="M83.18,101.64l.12-.17h3.92l.6,1.2-.12.17H86.17l0,7.8-.12.08-1.41-.41,0-7.47h-.92Z"/><path class="cls-6" d="M86.94,101.64l.13-.17h6.3l.59,1.2-.12.17h-2a5.71,5.71,0,0,1,.1,1.08A3.36,3.36,0,0,1,90,107.19a10.85,10.85,0,0,0,3.24,2.15l-.67,1.5h-.13a13.86,13.86,0,0,1-4-4.3,2.31,2.31,0,0,1-.33-.9.86.86,0,0,1,1-.87c.42,0,.82,0,1.09,0a2.06,2.06,0,0,0,.33-1.3,2.81,2.81,0,0,0-.07-.67H87.54Z"/><path class="cls-6" d="M89.85,111.09l.6,0a4,4,0,0,1,2.33.77,29,29,0,0,1,2.71,2.45l-.34.56h-.1c-1.45-1.41-2.39-2.31-3.79-2.31a4.1,4.1,0,0,0-.78.06l-.07-.06Z"/><path class="cls-6" d="M93.09,101.64l.12-.17h7.72l.59,1.21-.12.16H99.82v2.53l-.13.19h-1c-2.1,0-3.07.6-3.07,1.77,0,.73.54,1.32,1.55,1.32a4,4,0,0,0,2.89-1.46l1,1.33,0,.14a4.06,4.06,0,0,1-3,1.41,3.9,3.9,0,0,1-2.78-1.18,3.47,3.47,0,0,1-1.11-2.31c0-1.16.62-2.38,3.07-2.38h.89c.24,0,.32-.09.32-.33v-1H93.68Z"/><path class="cls-6" d="M100.64,101.64l.13-.17h8.3l.6,1.2-.12.17H108l0,7.8-.12.08-1.4-.4,0-4.17c-.42,0-.72,0-1.14,0a4.94,4.94,0,0,0-1.28.13,9,9,0,0,1,.08,1,.78.78,0,0,1-.77.9q-.45,0-1.2-.78a2.19,2.19,0,0,1-.74-1.34c0-.23.13-1.4,2.45-1.4a19.14,19.14,0,0,1,2.59.21v-2h-5.33Z"/><path class="cls-6" d="M108.79,101.64l.13-.17h6.3l.59,1.2-.12.17h-2a5.71,5.71,0,0,1,.1,1.08,3.36,3.36,0,0,1-1.92,3.27,10.85,10.85,0,0,0,3.24,2.15l-.67,1.5h-.13a13.86,13.86,0,0,1-4-4.3,2.31,2.31,0,0,1-.33-.9.86.86,0,0,1,1-.87c.42,0,.82,0,1.09,0a2.06,2.06,0,0,0,.33-1.3,2.81,2.81,0,0,0-.07-.67h-2.85Z"/></g></g></svg>