<svg xmlns="http://www.w3.org/2000/svg" viewBox="0 0 246.63992 103.24983"><defs><style>.cls-1{fill:none;stroke:#fff;stroke-miterlimit:10;}.cls-2{fill:#e8b909;}.cls-3{fill:#fff;}.cls-4{fill:#fd0;}.cls-5{fill:#0054a4;}.cls-6{fill:#a30046;}.cls-7{fill:#e31937;}.cls-8{fill:#231f20;}.cls-9{fill:#00be40;}</style></defs><g id="Layer_2" data-name="Layer 2"><g id="ARTE"><g id="HI_joint-logo-horizontal-white"><line class="cls-1" x1="123.8175" x2="123.8175" y2="71.7104"/><path class="cls-2" d="M201.37909,1.21078l.358.23732c3.92544,2.59863,7.0854,3.07415,11.89475,3.07415a16.365,16.365,0,0,0,5.2571-.92l.45633-.15788,2.28035,3.19512-.23457.31339c-8.4715,11.25577-1.86557,23.408,2.81,28.25887l.43249.449-.441.44043c-.61327.61177-1.675,1.71626-2.46358,2.544l-.267.281.01708.3867.00432.13436c.00425.0984.00731.20036.02745.37751l.00732.07024c.3959,7.50756-1.54974,13.67424-5.78242,18.32722-4.49778,4.94434-11.59237,7.92109-19.97591,8.38166l-.32315.01833-.23945.21869c-2.135,1.94313-4.30168,3.55705-4.32488,3.57475l-.37788.28161-.37782-.28036c-.08976-.06718-2.22962-1.65908-4.33683-3.576l-.23913-.21869-.32347-.01833c-8.38379-.46057-15.47838-3.43732-19.97647-8.38166-4.23362-4.65479-6.17894-10.82147-5.78123-18.329l.00551-.07087c.01951-.16614.0232-.25778.02745-.36224l.00063-.02809.00031-.00307.00394-.116.01683-.38733-.26667-.28036c-.74368-.78128-1.835-1.91748-2.46332-2.544l-.44074-.44043.43224-.449c4.67618-4.85089,11.28079-17.0031,2.81023-28.25887l-.23576-.31339,2.28186-3.19512.45576.15788a16.34525,16.34525,0,0,0,5.257.92c4.809,0,7.96907-.47552,11.89449-3.07415l.35855-.23732.3528.24433a17.83461,17.83461,0,0,0,10.538,3.52284A17.8349,17.8349,0,0,0,201.026,1.45511l.353-.24433"/><path class="cls-3" d="M164.694,29.00482c2.65386-6.08574,3.64225-13.90174-.82132-21.54122a19.90909,19.90909,0,0,0,3.47211.3207c4.56809,0,8.16486-.41541,12.2045-2.69851a20.71215,20.71215,0,0,0,10.93113,3.15452,20.72436,20.72436,0,0,0,10.94638-3.15452c4.04027,2.2831,7.637,2.69851,12.20507,2.69851a18.43276,18.43276,0,0,0,3.48318-.33966c-4.474,7.65781-3.48681,15.47444-.83264,21.56018H164.694"/><path class="cls-4" d="M216.28236,29.00482c-2.65417-6.08574-3.64137-13.90237.83264-21.56018a18.43276,18.43276,0,0,1-3.48318.33966c-4.568,0-8.1648-.41541-12.20507-2.69851a20.72436,20.72436,0,0,1-10.94638,3.15452c-.04035,0-.07976-.00212-.12035-.00244v20.767Z"/><path class="cls-5" d="M210.60134,58.41579c5.08358-3.71588,8.086-9.64917,7.645-18.30513-.05135-.49236-.088-.52107-.1271-1.01648h-7.51788Z"/><path class="cls-6" d="M202.55564,62.14085a24.26058,24.26058,0,0,0,8.04688-3.72625V39.09418h-8.04688Z"/><path class="cls-6" d="M170.37372,58.4146a24.2693,24.2693,0,0,0,8.04789,3.72625V39.09418h-8.04789Z"/><path class="cls-5" d="M162.73061,40.11066c-.44106,8.656,2.56134,14.58988,7.6453,18.30575V39.09418H162.857C162.81793,39.58959,162.7819,39.6183,162.73061,40.11066Z"/><path class="cls-6" d="M190.50814,43.36658a7.53656,7.53656,0,0,1,4.00424,1.15209V39.09418h-8.04751v5.44889A7.53633,7.53633,0,0,1,190.50814,43.36658Z"/><path class="cls-6" d="M190.50814,58.52944a7.53092,7.53092,0,0,1-4.04327-1.17655v6.00117c.1423.00732.2828.01708.42542.0244,2.67318.01345,5.09678.02815,7.19629,0,.14294-.00732.28349-.01708.4258-.0244V57.37735A7.53709,7.53709,0,0,1,190.50814,58.52944Z"/><path class="cls-5" d="M194.51057,39.09418v5.42324a7.56667,7.56667,0,0,1,0,12.86056v5.97608a38.46746,38.46746,0,0,0,8.04751-1.21321V39.09418Z"/><path class="cls-5" d="M182.92764,50.94857a7.571,7.571,0,0,1,3.53936-6.40732V39.09418h-8.04783V62.14085a38.46621,38.46621,0,0,0,8.04783,1.21321V57.35414A7.5688,7.5688,0,0,1,182.92764,50.94857Z"/><path class="cls-7" d="M166.50666,14.28633a22.46917,22.46917,0,0,1,.21105,7.67733h7.81663v7.04116h7.67733V21.96366h8.18012V14.28633h-8.18012v-7.809a23.64691,23.64691,0,0,1-2.66243-1.39154,19.42489,19.42489,0,0,1-5.0149,2.00668v7.19386Z"/><path class="cls-7" d="M206.91418,29.00482V7.2a18.74824,18.74824,0,0,1-2.7587-.82438v22.6292Z"/><path class="cls-7" d="M195.87828,29.00482V7.51214a19.837,19.837,0,0,1-2.7587.55559V29.00482Z"/><path class="cls-7" d="M212.43212,29.00482V7.77148c-.95361-.01808-1.86987-.06236-2.75869-.14662v21.38Z"/><path class="cls-7" d="M201.39623,29.00482V5.10318a23.48262,23.48262,0,0,1-2.7587,1.42976V29.00482Z"/><path class="cls-8" d="M225.90957,35.65622l-1.05251-1.09285C220.3666,29.90464,214.01671,18.2496,222.118,7.48249l.63591-.846L219.691,2.34486l-1.09829.37932a15.41557,15.41557,0,0,1-4.96086.87017c-4.62726,0-7.65962-.45145-11.392-2.923L201.36689.0929l-.8601.59738a16.96924,16.96924,0,0,1-10.01817,3.36007A16.9695,16.9695,0,0,1,180.46983.69028L179.61.0929l-.87323.57849c-3.73207,2.47151-6.76443,2.923-11.39207,2.923a15.4093,15.4093,0,0,1-4.96048-.87017l-1.09836-.37932-3.06408,4.291.63623.84665c8.10187,10.76711,1.75165,22.42215-2.73793,27.08088l-1.05282,1.09285,1.0739,1.07147c.577.576,1.60078,1.63831,2.44681,2.52893-.00244.05011-.00332.09408-.0052.13806-.00331.09226-.0055.16983-.0232.31889l-.00857.10021c-.41385,7.76528,1.61085,14.15984,6.01611,19.00334,4.67005,5.13438,11.969,8.20459,20.60019,8.67861,2.13836,1.94745,4.30937,3.56193,4.40683,3.63462l.9224.6842.92052-.68664c.09652-.07206,2.256-1.686,4.39214-3.63218,8.63155-.474,15.93012-3.54423,20.59961-8.67861,4.40614-4.8435,6.43-11.23681,6.017-19.00334l-.00913-.10021a3.00062,3.00062,0,0,1-.02264-.32071c-.00182-.04216-.00363-.08613-.00551-.13624.84671-.89062,1.87114-1.95351,2.44718-2.52893Zm-5.11292,3.03418c.07882.78.033.7495.08677,1.20582.92177,17.30824-11.13605,25.481-25.70823,26.08455-2.22725,2.08062-4.68081,3.90953-4.68081,3.90953s-2.46544-1.82891-4.69294-3.90953c-14.57219-.60351-26.63032-8.77631-25.70854-26.08455.054-.45632.00825-.42579.08732-1.20582-.83533-.88331-2.21805-2.32652-2.94829-3.05494,5.22683-5.42356,11.32539-17.8318,2.86034-29.08144L161.88,4.18322a16.92792,16.92792,0,0,0,5.46478.95542c4.85426,0,8.16911-.4814,12.24479-3.18017A18.5904,18.5904,0,0,0,190.48862,5.595a18.59114,18.59114,0,0,0,10.899-3.63649c4.075,2.69877,7.389,3.18017,12.24416,3.18017a16.93326,16.93326,0,0,0,5.46478-.95542l1.78745,2.3708c-8.46537,11.24964-2.3665,23.65788,2.86127,29.08144C223.0147,36.36388,221.63173,37.80709,220.79665,38.6904Z"/><path class="cls-8" d="M162.62646,39.07585c-.02076.26447-.04122.39095-.06293.53263-.01926.121-.0394.25234-.06411.49054-.33935,6.656,1.32342,12.04262,4.941,16.01139,4.1496,4.551,10.87213,7.14344,19.449,7.499l.32621.00119c1.42726.00857,2.78122.0147,4.05059.0147.99515,0,1.93833-.00369,2.82957-.01651,8.56858-.35493,15.29053-2.94742,19.44015-7.49837,3.61816-3.9694,5.28093-9.35542,4.94008-16.023-.0232-.22663-.044-.358-.06292-.479-.022-.14168-.04216-.26816-.06293-.53263L218.333,38.862H162.64291Zm.33441,1.05864c.02265-.21506.04185-.33966.05992-.45513.01645-.10628.032-.20524.04761-.35305h54.83951c.01583.14906.03172.24677.04761.3543.01832.11422.0379.23882.05987.44224.33233,6.52711-1.28953,11.80067-4.82093,15.6748-4.06529,4.45812-10.67548,6.99932-19.1115,7.34867-2.01219.02753-4.32251.01589-6.8649.00251l-.31795-.00251c-8.44247-.34935-15.05328-2.89055-19.11763-7.348C164.251,51.92477,162.62921,46.65,162.96087,40.13449Z"/><path class="cls-8" d="M164.482,28.91168l-.14143.32371h52.295l-.14113-.32371c-2.27122-5.2095-3.97428-13.1431.821-21.35038l.25654-.4398-.50031.09652a18.26772,18.26772,0,0,1-3.43976.33415c-4.66761,0-8.14159-.4368-12.09022-2.6683l-.11854-.06687-.116.07056a20.43967,20.43967,0,0,1-10.826,3.12062,20.41968,20.41968,0,0,1-10.812-3.12062l-.11579-.07056-.11784.06687c-3.94863,2.2315-7.42355,2.6683-12.0906,2.6683a19.75555,19.75555,0,0,1-3.43151-.31614l-.49266-.08764.25258.43187C168.45836,15.77164,166.75405,23.70218,164.482,28.91168Zm26.14041-20.4408a20.86916,20.86916,0,0,0,10.80926-3.11756c3.98773,2.22387,7.50143,2.66187,12.20019,2.66187a18.66652,18.66652,0,0,0,3.03724-.25534c-4.49233,8.0512-2.94191,15.79577-.73793,21.01315H190.62237Zm-26.30686-.6994a19.77279,19.77279,0,0,0,3.02923.24371c4.6982,0,8.21221-.438,12.2005-2.66187a20.86142,20.86142,0,0,0,10.61411,3.11512V28.773H165.04518C167.24978,23.555,168.80321,15.81074,164.31551,7.77148Z"/><polygon class="cls-8" points="183.889 32.014 183.889 30.486 178.712 30.486 178.712 37.659 180.269 37.659 180.269 34.7 182.384 34.7 182.384 33.184 180.269 33.184 180.269 32.014 183.889 32.014"/><path class="cls-8" d="M189.95073,31.922a1.26345,1.26345,0,0,1,1.216.7208l.033.065,1.441-.664-.03359-.06994a2.74422,2.74422,0,0,0-2.63652-1.59865c-1.88115,0-3.19482,1.52046-3.19482,3.69667,0,2.24551,1.23429,3.696,3.14415,3.696a2.74831,2.74831,0,0,0,2.66642-1.62737l.03115-.06293-1.3091-.77577-.03909.06474a1.3927,1.3927,0,0,1-1.30848.85584c-.95017,0-1.58852-.865-1.58852-2.15055C188.37228,32.74634,188.97735,31.922,189.95073,31.922Z"/><path class="cls-8" d="M201.9704,32.41738c0-1.20889-.86129-1.9315-2.30231-1.9315h-3.29565v7.17278h3.2645a2.26592,2.26592,0,0,0,2.57416-2.34272,1.68389,1.68389,0,0,0-.90589-1.54455A1.63352,1.63352,0,0,0,201.9704,32.41738Zm-4.0708-.4856h1.708c.6964,0,.7856.31915.7856.59588,0,.39433-.234.58555-.71536.58555H197.8996Zm1.78863,4.24H197.8996V34.50932h1.78863c.631,0,.92609.26329.92609.8277C200.61432,35.88285,200.29362,36.17178,199.68823,36.17178Z"/><path class="cls-8" d="M190.459,58.65405a7.747,7.747,0,1,0-7.74669-7.747A7.75587,7.75587,0,0,0,190.459,58.65405Zm0-.46545a7.254,7.254,0,0,1-4.06316-1.23948,11.5332,11.5332,0,0,0,4.84907-1.21865c1.229-.73243,2.53382-1.64632,2.77208-2.86741a1.92966,1.92966,0,0,1,2.81856,1.56137A7.28165,7.28165,0,0,1,190.459,58.1886Zm-3.59064-5.61385a3.02341,3.02341,0,0,0,1.29747.46058,2.49278,2.49278,0,0,0,2.50579-2.01463,1.745,1.745,0,0,1,2.78584.68051c.63772,1.52528-.70559,2.6267-2.43492,3.65907a11.54516,11.54516,0,0,1-5.19111,1.168,7.31306,7.31306,0,0,1-1.92181-2.438c.05837.00306.11667.00488.17622.00488A3.11958,3.11958,0,0,0,186.86833,52.57475Zm-1.15884-3.6774a16.38549,16.38549,0,0,1,.70283-4.04271,7.21109,7.21109,0,0,1,3.41074-1.19976,2.01757,2.01757,0,0,0,.19973,2.95048,2.14491,2.14491,0,0,0-.54395.59557,2.80113,2.80113,0,0,0,.75751,3.81426,2.08117,2.08117,0,0,1-2.01526,1.59009C186.53355,52.389,185.73639,50.82278,185.70949,48.89735Zm8.34475,3.48193a2.47236,2.47236,0,0,0-.19735-.84671,2.173,2.173,0,0,0-3.39854-.89182,2.3656,2.3656,0,0,1-.61295-3.20826c.846-1.3415,2.77026-.807,4.5283.17528a7.51346,7.51346,0,0,1,3.3353,3.96883,7.21789,7.21789,0,0,1-.56566,2.22106A2.35509,2.35509,0,0,0,194.05424,52.37928Zm.53083-5.14964c-1.27182-.70979-2.94073-1.35977-4.14473-.85885a1.60572,1.60572,0,0,1,.08156-2.744,7.27964,7.27964,0,0,1,7.20424,6.83981A8.45972,8.45972,0,0,0,194.58507,47.22964Zm-8.717-1.97366c-.13561.5357-.26635,1.00365-.37112,1.48012-.37444,1.71588-.37019,4.29923,1.02536,5.571a2.684,2.684,0,0,1-2.43648,1.35433,2.85664,2.85664,0,0,1-.37838-.02508,7.28806,7.28806,0,0,1,2.16062-8.38042Z"/><path class="cls-3" d="M5.13,95.60987H2v4.06H0v-10H5.47v1.67H1.96v2.55H5.09Z"/><path class="cls-3" d="M13.41,96.33985a3.85989,3.85989,0,0,1-1,2.58,3.45,3.45,0,0,1-2.49.87,3.14006,3.14006,0,0,1-2.59-1.11,4.87,4.87,0,0,1-.9-3.17v-1.65a4.72,4.72,0,0,1,.93-3.16,3.72,3.72,0,0,1,5.11-.22,4.15,4.15,0,0,1,1,2.61h-2a2.72,2.72,0,0,0-.32-1.46,1.28994,1.28994,0,0,0-1.09-.4,1.18993,1.18993,0,0,0-1.14.57,3.68,3.68,0,0,0-.36,1.85v1.88a4.31,4.31,0,0,0,.33,2,1.22,1.22,0,0,0,1.14.55,1.30987,1.30987,0,0,0,1.09-.38,2.65,2.65,0,0,0,.35-1.36Z"/><path class="cls-3" d="M26.78,91.00984H25.29v8.66H23.47v-2h0a3.84183,3.84183,0,0,1-.91.39,3.57019,3.57019,0,0,1-.91.13,3.28013,3.28013,0,0,1-1.32-.27,3.62087,3.62087,0,0,1-1.12-.71,3.4794,3.4794,0,0,1-.76-1.07,2.86,2.86,0,0,1-.33-1.27,2.69981,2.69981,0,0,1,.23-1.16,2.63,2.63,0,0,1,.61-.94,2.77033,2.77033,0,0,1,1-.64,3.10988,3.10988,0,0,1,1.32-.26h.35a2.28223,2.28223,0,0,1,.51.09,2.32,2.32,0,0,1,.61.21,3.28958,3.28958,0,0,1,.69.37h0v-1.53H17.05v-1.54h9.69Zm-6.86,3.93a1.52,1.52,0,0,0,.12.59,1.54984,1.54984,0,0,0,.33.55,1.87931,1.87931,0,0,0,.55.41,1.76034,1.76034,0,0,0,.76.16,2.42944,2.42944,0,0,0,.7-.11l-1.91-2.79992a1.43985,1.43985,0,0,0-.44.54A1.36007,1.36007,0,0,0,19.92,94.93983Zm3.62-.79a2.40975,2.40975,0,0,0-.92-.63,2.32,2.32,0,0,0-.89-.18h-.46l1.81,2.7a2.31943,2.31943,0,0,0,.34-.48,1.58,1.58,0,0,0,.12-.52Z"/><path class="cls-3" d="M31.09,91.00984H29.6v8.66H27.82v-8.66H26.3v-1.54h4.79Z"/><path class="cls-3" d="M35.4,91.00984H33.91v8.66H32.12v-8.66H30.61v-1.54h1.54a3.59,3.59,0,0,1-.38-1.6,2.61012,2.61012,0,0,1,.23-1,2.17963,2.17963,0,0,1,.62-.85,2.87081,2.87081,0,0,1,1.06-.57,4.93941,4.93941,0,0,1,1.54-.21,6.23006,6.23006,0,0,1,2,.31,6.86051,6.86051,0,0,1,1.81.87,10.50106,10.50106,0,0,1,1.63,1.36,16.91948,16.91948,0,0,1,1.48,1.77H40.47l-.55-.54c-.22-.2-.45-.4-.71-.61s-.54-.4-.84-.6a9.66279,9.66279,0,0,0-.94-.52,6.30078,6.30078,0,0,0-1-.36,4.07915,4.07915,0,0,0-1.09-.14,2.62019,2.62019,0,0,0-.84.11,1.45981,1.45981,0,0,0-.59.31,1,1,0,0,0-.34.47,1.28991,1.28991,0,0,0-.11.59,1.99929,1.99929,0,0,0,.08.59,2.58929,2.58929,0,0,0,.27.62h1.66Z"/><path class="cls-3" d="M34.92,89.46986H46.57v1.54H45.08v8.66H43.29v-4.24H39.77a2.86009,2.86009,0,0,1-1,.39h0a6.998,6.998,0,0,0,.44.8c.17.25.35.5.55.75a7.74009,7.74009,0,0,0,.68.73c.24.24.51.49.8.73l-1.13,1.25a10.42653,10.42653,0,0,1-.94-.94c-.31-.35-.61-.72-.9-1.09s-.56-.77-.82-1.16-.5-.77-.73-1.14-.42-.73-.6-1.06-.33-.63-.45-.89l1.51-.77a3.26022,3.26022,0,0,0,.55,1,.88984.88984,0,0,0,.6.3.57.57,0,0,0,.31-.1.9199.9199,0,0,0,.22-.26,1.872,1.872,0,0,0,.13-.4,4.33459,4.33459,0,0,0,0-.51,3.70973,3.70973,0,0,0-.16-1.05,3.58026,3.58026,0,0,0-.49-1h-3.5Zm8.37,4.4v-2.9h-3a6.72967,6.72967,0,0,1,.4,1,3.9101,3.9101,0,0,1,.15,1.08v.39a1,1,0,0,1-.05.38Z"/><path class="cls-3" d="M45.85,86.86988a1.38036,1.38036,0,0,0-.47-.43,1.0703,1.0703,0,0,0-.52-.14.93039.93039,0,0,0-.34.06.63989.63989,0,0,0-.27.18.71966.71966,0,0,0-.2.29,1.14,1.14,0,0,0-.07.41,2.00012,2.00012,0,0,0,.08.54,3.17813,3.17813,0,0,0,.23.58,5.8295,5.8295,0,0,0,.32.6c.12.2.25.4.38.6H43.24a4.21982,4.21982,0,0,1-.77-1.21991,3.17,3.17,0,0,1-.23-1.17,2.26985,2.26985,0,0,1,.2-1,1.80971,1.80971,0,0,1,.55-.73,2.06006,2.06006,0,0,1,.82-.45,2.829,2.829,0,0,1,1-.16,2.76012,2.76012,0,0,1,1.19.24,2.69,2.69,0,0,1,1,.84Z"/><path class="cls-3" d="M54,99.66987v-6h-.33a.93992.93992,0,0,0-.5.11,1.00007,1.00007,0,0,0-.35.29,1.19975,1.19975,0,0,0-.2.41,1.17007,1.17007,0,0,0-.07.46.66982.66982,0,0,0,0,.2.5995.5995,0,0,0,0,.19H51a3.35948,3.35948,0,0,0-.11-.62,2.52844,2.52844,0,0,0-.18-.55,1.1501,1.1501,0,0,0-.28-.4.63.63,0,0,0-.43-.15.53.53,0,0,0-.35.1.74994.74994,0,0,0-.25.28,1.0001,1.0001,0,0,0-.14.42,2.24027,2.24027,0,0,0-.05.52,2.84,2.84,0,0,0,.27,1.28,3.43986,3.43986,0,0,0,.69,1,5.24277,5.24277,0,0,0,1,.8,8.10155,8.10155,0,0,0,1.16.63l-.79,1.35a4.72239,4.72239,0,0,1-.68-.32,6.36089,6.36089,0,0,1-.87-.54,9.77088,9.77088,0,0,1-.92-.76,6.10053,6.10053,0,0,1-.84-1,4.52973,4.52973,0,0,1-.6-1.18,3.74029,3.74029,0,0,1-.22-1.32,3.23969,3.23969,0,0,1,.18-1.16,2.63994,2.63994,0,0,1,.51-1,2.27037,2.27037,0,0,1,.8-.64,2.18034,2.18034,0,0,1,1.1-.2,1.99993,1.99993,0,0,1,1.57.7c.1.12.19.24.26.34h0a1.99985,1.99985,0,0,1,.74-.74,1.29964,1.29964,0,0,1,.43-.2,1.85919,1.85919,0,0,1,.48-.06H54v-1H46.09v-1.44h11.2v1.54h-1.5v8.66Z"/><path class="cls-3" d="M58.47,89.66987l-.2-.37c-.24-.45-.45-.83-.63-1.15a8.4783,8.4783,0,0,0-.49-.78,2.73175,2.73175,0,0,0-.41-.48.99987.99987,0,0,0-.37-.26,1.2,1.2,0,0,0-.4-.11H54.11v-1.55h2.2a2.14092,2.14092,0,0,1,.69.18,2,2,0,0,1,.59.45,6.0612,6.0612,0,0,1,.6.81c.21.35.46.79.74,1.31s.61,1.16,1,1.92Zm3.09,1.34H60.07v8.66H58.29v-8.66H56.78v-1.54h4.78Z"/><path class="cls-3" d="M71.29,91.00984h-1.5v8.66H67.88v-4.8h-3v.79a3.2307,3.2307,0,0,1-.08.53.61019.61019,0,0,1-.19.29.7798.7798,0,0,1-.36.1,1.8109,1.8109,0,0,1-.57-.12,2.9981,2.9981,0,0,1-.52-.31,2.66154,2.66154,0,0,1-.44-.45,3.11028,3.11028,0,0,1-.35-.54,2.45112,2.45112,0,0,1-.23-.56,2.00057,2.00057,0,0,1-.08-.54.78.78,0,0,1,.08-.4.43.43,0,0,1,.22-.22.82007.82007,0,0,1,.35-.08h5.14v-2.35h-6.74v-1.54H71.29Z"/><path class="cls-3" d="M75.59,91.00984H74.1v8.66H72.32v-8.66H70.81v-1.54h4.78Z"/><path class="cls-3" d="M86.93,96.86988a5.07769,5.07769,0,0,0,.75-.49,3.51122,3.51122,0,0,0,.54-.55,2.68,2.68,0,0,0,.32-.57,2.07945,2.07945,0,0,0,.11-.54,2.19723,2.19723,0,0,0-.05-.37,1.07029,1.07029,0,0,0-.16-.36.92947.92947,0,0,0-.29-.27.78.78,0,0,0-.44-.11,1.00029,1.00029,0,0,0-.52.13,1.80037,1.80037,0,0,0-.47.35,2.19936,2.19936,0,0,0-.4.51,3.31951,3.31951,0,0,0-.31.59v4.48H84.23v-2.25h0l-.21.13-.32.16-.43.13a3.14579,3.14579,0,0,1-.52,0,2.84033,2.84033,0,0,1-1.16-.25,3.21924,3.21924,0,0,1-1-.7,3.15,3.15,0,0,1-.76-3.33,2.62958,2.62958,0,0,1,.54-.89,2.50053,2.50053,0,0,1,.86-.61,2.67074,2.67074,0,0,1,1.15-.24,3.00011,3.00011,0,0,1,.89.14,3.61966,3.61966,0,0,1,.94.52h0v-1.52H78.6v-1.54H91.76v1.54H86v1.62h0a2.76944,2.76944,0,0,1,1-.57,2.45744,2.45744,0,0,1,.47-.1h.4a2.23969,2.23969,0,0,1,1.13.21,2.69,2.69,0,0,1,.8.63,2.55015,2.55015,0,0,1,.5.88,3.33929,3.33929,0,0,1,.18,1,3.40984,3.40984,0,0,1-.19,1,4.16924,4.16924,0,0,1-.53,1,6.27086,6.27086,0,0,1-.82.89,8.00108,8.00108,0,0,1-1.09.74Zm-2.66-2.7-.27-.3a2.00107,2.00107,0,0,0-.34-.26,1.76147,1.76147,0,0,0-.4-.18,1.3305,1.3305,0,0,0-.48-.07,1.1504,1.1504,0,0,0-.55.11.99968.99968,0,0,0-.41.29.91967.91967,0,0,0-.24.43,1.59011,1.59011,0,0,0,0,1.11,1.32009,1.32009,0,0,0,.29.48,1.43,1.43,0,0,0,1.08.43,1.36027,1.36027,0,0,0,.65-.14,1.27957,1.27957,0,0,0,.4-.37,1.92038,1.92038,0,0,0,.22-.51,5.13972,5.13972,0,0,0,.06-.55Z"/><path class="cls-3" d="M84.47,89.66987l-.2-.37c-.24-.45-.45-.83-.63-1.15a8.4783,8.4783,0,0,0-.49-.78,2.73175,2.73175,0,0,0-.41-.48,1.27014,1.27014,0,0,0-.76-.37H80.11v-1.55h2.2a2.14092,2.14092,0,0,1,.69.18,2,2,0,0,1,.59.45,6.0612,6.0612,0,0,1,.6.81c.22.35.46.79.74,1.31l1,1.92Z"/><path class="cls-3" d="M101.92,94.03987h.46a4.28709,4.28709,0,0,0,.86-.1,4.55537,4.55537,0,0,0,.71-.24v-4.23h3.28v1.54h-1.49v8.66H104v-4.42l-.21.08-.28.08h-.63v.62a2.82988,2.82988,0,0,1-.23,1.11,2.87972,2.87972,0,0,1-.64.83,3.15956,3.15956,0,0,1-1,.51,3.71989,3.71989,0,0,1-3.33-.5,4.32989,4.32989,0,0,1-.79-.75,7.21265,7.21265,0,0,1-.64-.92c-.18-.34-.35-.68-.5-1a11.06559,11.06559,0,0,1-.4-1.06l1.52-.62c.09.26.18.53.28.8a6.25714,6.25714,0,0,0,.35.8,4.42048,4.42048,0,0,0,.43.72,2.99993,2.99993,0,0,0,.52.6,2.30049,2.30049,0,0,0,.61.4,1.7997,1.7997,0,0,0,.73.15,1.23008,1.23008,0,0,0,.92-.35,1.34981,1.34981,0,0,0,.31-.94,1.79943,1.79943,0,0,0-.11-.62,1.38012,1.38012,0,0,0-.32-.43,1.27011,1.27011,0,0,0-.49-.25,2.13075,2.13075,0,0,0-.61-.08h-.74v-1.46H99a3.64476,3.64476,0,0,0,.66,0,1.83072,1.83072,0,0,0,.54-.19,1,1,0,0,0,.48-.92.89.89,0,0,0-.3-.74,1.27,1.27,0,0,0-.81-.24,2.34975,2.34975,0,0,0-.75.11,4.40976,4.40976,0,0,0-.72.26l-.41-1.49a4.25959,4.25959,0,0,1,1-.36,4.15145,4.15145,0,0,1,1-.12,3.21018,3.21018,0,0,1,1.14.19,2.90944,2.90944,0,0,1,.89.5,2.53035,2.53035,0,0,1,.57.76,2.1101,2.1101,0,0,1,.21.93,2.33031,2.33031,0,0,1-.31,1.12,2.90027,2.90027,0,0,1-.9.91h0a1.52026,1.52026,0,0,1,.3.17Zm9.62-3H110v8.63h-1.78v-8.66h-1.51v-1.54h4.76Z"/><path class="cls-3" d="M115.84,91.00984h-1.49v8.66h-1.78v-8.66h-1.51v-1.54h1.53a3.73991,3.73991,0,0,1-.38-1.57,2.5896,2.5896,0,0,1,.2-1,2.15006,2.15006,0,0,1,.61-.85,2.87071,2.87071,0,0,1,1.06-.57,4.93937,4.93937,0,0,1,1.54-.21,6.23013,6.23013,0,0,1,2,.31,6.86079,6.86079,0,0,1,1.81.87,9.99883,9.99883,0,0,1,1.62,1.36,16.99972,16.99972,0,0,1,1.49,1.77H120.9l-.56-.54c-.21-.2-.45-.4-.71-.61s-.54-.4-.83-.6a9.668,9.668,0,0,0-.94-.52,6.30145,6.30145,0,0,0-1-.36,4.07969,4.07969,0,0,0-1.09-.14,2.62048,2.62048,0,0,0-.84.11,1.58963,1.58963,0,0,0-.59.31,1.21021,1.21021,0,0,0-.34.47,1.29017,1.29017,0,0,0-.11.59,1.69983,1.69983,0,0,0,.11.58,3.00094,3.00094,0,0,0,.26.62h1.6Z"/><path class="cls-3" d="M119.24,91.57984a2.0018,2.0018,0,0,0,.07-.23,1.30939,1.30939,0,0,0,0-.28,1.39956,1.39956,0,0,0,0-.29.52015.52015,0,0,0-.14-.21.44015.44015,0,0,0-.18-.13h-.21a.57.57,0,0,0-.5.29,1.19986,1.19986,0,0,0-.2.76,1.55007,1.55007,0,0,0,.45,1.2,1.86009,1.86009,0,0,0,1.26.43,4.57207,4.57207,0,0,0,1.21-.25l.22,1.47-.46.08a1.60939,1.60939,0,0,0-.57.2,1.43008,1.43008,0,0,0-.5.41.99992.99992,0,0,0-.21.7,1.18029,1.18029,0,0,0,.1.48.83969.83969,0,0,0,.25.35,1.11006,1.11006,0,0,0,.4.22,2.7354,2.7354,0,0,0,.5.07,2.06069,2.06069,0,0,0,.65-.11,2.77327,2.77327,0,0,0,.54-.28,2.70915,2.70915,0,0,0,.41-.35c.1-.11.19-.23.28-.35v-6.29h3.27v1.54h-1.49v8.66h-1.78v-1.8h0a3.65855,3.65855,0,0,1-.49.31,3.70264,3.70264,0,0,1-.52.2,5.28075,5.28075,0,0,1-.52.1h-.49a3.12994,3.12994,0,0,1-2.09-.8,2.62013,2.62013,0,0,1-.61-.84,2.21013,2.21013,0,0,1-.22-1,2.29058,2.29058,0,0,1,.15-.82,2.42034,2.42034,0,0,1,.48-.78v-.07a3.41076,3.41076,0,0,1-.85-.54,2.74,2.74,0,0,1-.57-.66,2.79943,2.79943,0,0,1-.34-.75,2.70018,2.70018,0,0,1-.1-.8,2.40011,2.40011,0,0,1,.18-1,2.21,2.21,0,0,1,1.27-1.24,2.6001,2.6001,0,0,1,1-.17,2.17975,2.17975,0,0,1,1,.19,2.26023,2.26023,0,0,1,.67.45,2.06971,2.06971,0,0,1,.38.62,1.81994,1.81994,0,0,1,0,1.26c-.06.17-.13.35-.21.52Z"/><path class="cls-3" d="M133.7,96.86988a5.08313,5.08313,0,0,0,.77-.53,6.63719,6.63719,0,0,0,.55-.51,2.6802,2.6802,0,0,0,.32-.57,2.0503,2.0503,0,0,0,.1-.54,2.28314,2.28314,0,0,0,0-.37,1.99972,1.99972,0,0,0-.16-.36,1.0806,1.0806,0,0,0-.3-.27.73014.73014,0,0,0-.43-.11,1.00024,1.00024,0,0,0-.52.13,1.651,1.651,0,0,0-.47.35,2.1994,2.1994,0,0,0-.4.51,2.59,2.59,0,0,0-.32.59v4.44h-1.82v-2.25h0l-.22.13a2.38963,2.38963,0,0,1-.32.16,4.1895,4.1895,0,0,1-.46.16,3.26985,3.26985,0,0,1-.53.05,2.87932,2.87932,0,0,1-1.16-.25,3.21924,3.21924,0,0,1-1-.7,3.34965,3.34965,0,0,1-.68-1,2.91,2.91,0,0,1-.26-1.26,2.77949,2.77949,0,0,1,.19-1.07,2.40048,2.40048,0,0,1,.54-.89,2.5004,2.5004,0,0,1,.86-.61,2.6107,2.6107,0,0,1,1.14-.22,2.72031,2.72031,0,0,1,.89.14,3.681,3.681,0,0,1,1,.52h0v-1.57h-5.63v-1.54h13.09v1.54h-5.75v1.62h0a1.89888,1.89888,0,0,1,.49-.35,2.052,2.052,0,0,1,.5-.22,2.35657,2.35657,0,0,1,.46-.1h.4a2.23037,2.23037,0,0,1,1.07.24,2.54036,2.54036,0,0,1,.8.63,2.85952,2.85952,0,0,1,.51.88,3.10986,3.10986,0,0,1,0,2,4.36125,4.36125,0,0,1-.53,1,6.35016,6.35016,0,0,1-.83.89,7.13314,7.13314,0,0,1-1.12.7799Zm-2.7-2.7-.29-.28a2.00139,2.00139,0,0,0-.34-.26,1.8298,1.8298,0,0,0-.41-.18,1.32953,1.32953,0,0,0-.49-.11,1.15042,1.15042,0,0,0-.55.11,1.00028,1.00028,0,0,0-.4.29,1.16037,1.16037,0,0,0-.25.43,1.76009,1.76009,0,0,0,0,1.11,1.43,1.43,0,0,0,.3.48,1.39994,1.39994,0,0,0,1.08.43,1.30016,1.30016,0,0,0,.64-.14,1.31932,1.31932,0,0,0,.41-.37,1.6198,1.6198,0,0,0,.21-.51,5.13972,5.13972,0,0,0,.06-.55Z"/><path class="cls-3" d="M142.83,91.00984h-1.49v8.66h-1.78v-8.66H138v-1.54h4.79Z"/><path class="cls-3" d="M147.14,91.00984h-1.49v8.66h-1.79v-8.66h-1.51v-1.54h1.54a5.21382,5.21382,0,0,1-.31-.83,2.87912,2.87912,0,0,1-.1-.82,2.84077,2.84077,0,0,1,.17-1,1.99994,1.99994,0,0,1,.5-.82,2.23,2.23,0,0,1,.83-.55,3.00015,3.00015,0,0,1,1.15-.2,3.6806,3.6806,0,0,1,1.49.3,4.91949,4.91949,0,0,1,1.32.86,8.28815,8.28815,0,0,1,1.21,1.36,19.21217,19.21217,0,0,1,1.12,1.79h-1.64l-.35-.54c-.14-.2-.29-.4-.46-.6a5.29247,5.29247,0,0,0-.55-.6,4.94264,4.94264,0,0,0-.61-.52,3.5795,3.5795,0,0,0-.66-.37,1.8,1.8,0,0,0-.68-.14,1.00056,1.00056,0,0,0-.51.11.79015.79015,0,0,0-.36.29,1.00022,1.00022,0,0,0-.22.43,1.59985,1.59985,0,0,0-.07.54,1.89011,1.89011,0,0,0,.1.66,2.72915,2.72915,0,0,0,.28.66h1.6Z"/><path class="cls-3" d="M154.58,91.00984h-2.29a8.04989,8.04989,0,0,1,.41,1,3.91947,3.91947,0,0,1,.16,1.08,4.25044,4.25044,0,0,1-.13.93,2.43994,2.43994,0,0,1-1.13,1.39,3.63173,3.63173,0,0,1-1,.36h0c.19.28.38.54.58.8s.41.5.63.75.45.49.7.73.51.49.8.73l-1.13,1.25a9.8256,9.8256,0,0,1-1-.93c-.33-.34-.64-.69-1-1.06a8.17173,8.17173,0,0,1-.84-1.12c-.26-.37-.51-.75-.73-1.11l-.6-1a9.0008,9.0008,0,0,1-.44-.88l1.51-.77a2.29992,2.29992,0,0,0,.5.87.80995.80995,0,0,0,.56.25,1.18969,1.18969,0,0,0,.36-.09,1.48116,1.48116,0,0,0,.3-.26,1.72086,1.72086,0,0,0,.21-.43,2.24111,2.24111,0,0,0,.08-.57,3.73974,3.73974,0,0,0-.17-1,3.55,3.55,0,0,0-.48-1h-3.74v-1.46h7.92Z"/><path class="cls-3" d="M162.47,96.86988a6.0009,6.0009,0,0,0,.75-.49,4.58541,4.58541,0,0,0,.53-.55,2.68,2.68,0,0,0,.32-.57,1.45021,1.45021,0,0,0,.11-.54,1.49954,1.49954,0,0,0-.05-.37,1.07007,1.07007,0,0,0-.16-.36.82.82,0,0,0-.29-.27.78.78,0,0,0-.44-.11.90015.90015,0,0,0-.51.13,1.85026,1.85026,0,0,0-.48.35,2.49886,2.49886,0,0,0-.4.51,3.31951,3.31951,0,0,0-.31.59v4.48h-1.78v-2.25h0l-.21.13-.32.16-.42.13a3.26787,3.26787,0,0,1-.53,0,2.84037,2.84037,0,0,1-1.16-.25,3.21947,3.21947,0,0,1-1-.7,3.57942,3.57942,0,0,1-.69-1,3.00023,3.00023,0,0,1-.25-1.26,2.77967,2.77967,0,0,1,.19-1.07,2.40061,2.40061,0,0,1,.54-.89,2.37,2.37,0,0,1,.85-.61,2.65064,2.65064,0,0,1,1.15-.22,3.00017,3.00017,0,0,1,.89.14,3.61982,3.61982,0,0,1,.94.52h0V90.96h-5.61V89.42h13.16v1.54h-5.82v1.62h0a1.89868,1.89868,0,0,1,.49-.35,2.052,2.052,0,0,1,.5-.22,2.358,2.358,0,0,1,.46-.1h.4a2.23037,2.23037,0,0,1,1.07.24,2.64,2.64,0,0,1,1.3,1.51,3,3,0,0,1,0,2,4.00017,4.00017,0,0,1-.52,1,7.003,7.003,0,0,1-.83.89,7.21028,7.21028,0,0,1-1.09.74Zm-2.67-2.69-.29-.28a2.11054,2.11054,0,0,0-.35-.26,1.76147,1.76147,0,0,0-.4-.18,1.33029,1.33029,0,0,0-.48-.07,1.15016,1.15016,0,0,0-.55.11.99975.99975,0,0,0-.41.29,1.13991,1.13991,0,0,0-.24.43,1.29,1.29,0,0,0-.08.52,1.5,1.5,0,0,0,.1.59,1.42968,1.42968,0,0,0,.3.48,1.56,1.56,0,0,0,1.72.29,1.31944,1.31944,0,0,0,.41-.37,1.62,1.62,0,0,0,.21-.51,5.14,5.14,0,0,0,.06-.55Z"/><path class="cls-3" d="M178.13,98.99983a5.36073,5.36073,0,0,1-1.3.57,5.06,5.06,0,0,1-1.39.19,4.51085,4.51085,0,0,1-1.71-.31,3.74982,3.74982,0,0,1-1.28-.86,3.48994,3.48994,0,0,1-.81-1.27,3.94,3.94,0,0,1-.28-1.55,3.48966,3.48966,0,0,1,.24-1.36,2.38,2.38,0,0,1,.68-1,2.79992,2.79992,0,0,1,1.05-.59,3.99964,3.99964,0,0,1,1.34-.2h1v-1.61h-5.41v-1.54h9.35v1.54h-2.14v3.17h-2.46a2.87953,2.87953,0,0,0-.78.1,1.33017,1.33017,0,0,0-.59.3,1.16,1.16,0,0,0-.37.53,2.05958,2.05958,0,0,0-.12.78,2.26013,2.26013,0,0,0,.16.92,2.13987,2.13987,0,0,0,.43.7,1.86973,1.86973,0,0,0,.66.44,2.35918,2.35918,0,0,0,.84.15,4.5469,4.5469,0,0,0,.73-.09,7.16088,7.16088,0,0,0,.75-.23c.25-.1.5-.21.73-.33l.66-.37Z"/><path class="cls-3" d="M177.26,103.24983l-1.85-1.61-1.83,1.61-1-1.22,2.83-2.38,2.88,2.5Z"/><path class="cls-3" d="M175.88,89.66987l-.2-.37c-.24-.45-.45-.83-.63-1.15a8.48045,8.48045,0,0,0-.49-.78,2.73181,2.73181,0,0,0-.41-.48.99979.99979,0,0,0-.37-.26,1.1999,1.1999,0,0,0-.4-.11h-1.86v-1.55h2.2a2.14085,2.14085,0,0,1,.69.18,1.99984,1.99984,0,0,1,.59.45,6.06127,6.06127,0,0,1,.6.81c.21.35.46.79.74,1.31s.61,1.16,1,1.92Z"/><path class="cls-3" d="M183.93,91.00984h-1.46v8.66h-1.79v-8.66h-1.51v-1.54h1.54a3.86994,3.86994,0,0,1-.38-1.6,2.26991,2.26991,0,0,1,.2-1,2.1501,2.1501,0,0,1,.61-.85,2.87093,2.87093,0,0,1,1.06-.57,4.93941,4.93941,0,0,1,1.54-.21,6.23006,6.23006,0,0,1,2,.31,7.00009,7.00009,0,0,1,1.8.87,10.06084,10.06084,0,0,1,1.63,1.36,15.77125,15.77125,0,0,1,1.48,1.77h-1.62l-.55-.54c-.21-.2-.45-.4-.71-.61s-.54-.4-.84-.6a9.66263,9.66263,0,0,0-.94-.52,6.30078,6.30078,0,0,0-1-.36,4.07922,4.07922,0,0,0-1.09-.14,2.5298,2.5298,0,0,0-.87.09,1.45981,1.45981,0,0,0-.59.31,1.07993,1.07993,0,0,0-.34.47,1.29017,1.29017,0,0,0-.11.59,1.999,1.999,0,0,0,.09.59,2.55966,2.55966,0,0,0,.26.62h1.6Z"/><path class="cls-3" d="M194.31,91.00984h-2.14v2.33h-3.44a.73015.73015,0,0,0-.48.1.39007.39007,0,0,0-.12.33.99978.99978,0,0,0,0,.25.60037.60037,0,0,0,.14.26.92035.92035,0,0,0,.28.19,1.18,1.18,0,0,0,.46.09h2a2.1096,2.1096,0,0,1,1,.17,1.59992,1.59992,0,0,1,.62.48,1.89981,1.89981,0,0,1,.34.7,3.56969,3.56969,0,0,1,.1.87,3.69948,3.69948,0,0,1-.21,1.23,3.13984,3.13984,0,0,1-.65,1,3.34943,3.34943,0,0,1-1.08.7,4.1906,4.1906,0,0,1-1.52.26,4.93076,4.93076,0,0,1-1.75-.32,5.93044,5.93044,0,0,1-1.54-.9,6.44054,6.44054,0,0,1-1.26-1.35,6.77955,6.77955,0,0,1-.83-1.74l1.54-.62a6.23119,6.23119,0,0,0,.6,1.25,5.47988,5.47988,0,0,0,.87,1,4.231,4.231,0,0,0,1.08.74,3.00058,3.00058,0,0,0,1.15.31,2.56992,2.56992,0,0,0,.72-.11,1.83962,1.83962,0,0,0,.52-.31,1.36982,1.36982,0,0,0,.31-.48,1.88022,1.88022,0,0,0,.11-.62,1.33964,1.33964,0,0,0,0-.4.54008.54008,0,0,0-.16-.25.55983.55983,0,0,0-.29-.12,1.33944,1.33944,0,0,0-.4,0h-1.94a1.6,1.6,0,0,1-.91-.25,2.09976,2.09976,0,0,1-.62-.64,2.73022,2.73022,0,0,1-.37-.84,3.33044,3.33044,0,0,1-.12-.88,1.90984,1.90984,0,0,1,.12-.75,1.05,1.05,0,0,1,.35-.48,1.17,1.17,0,0,1,.54-.25,2.60267,2.60267,0,0,1,.63,0h2.38v-.84h-6.87v-1.56h10.86Z"/><path class="cls-3" d="M190.28,87.33985a.84972.84972,0,0,1,.07-.39.6901.6901,0,0,1,.2-.3.85.85,0,0,1,.31-.21,1.1,1.1,0,0,1,.8,0,1.25987,1.25987,0,0,1,.32.21,1.12936,1.12936,0,0,1,.21.31,1.29035,1.29035,0,0,1,.08.4,1.781,1.781,0,0,1-.07.39,1.00049,1.00049,0,0,1-.21.3,1.48953,1.48953,0,0,1-.31.2,1.12083,1.12083,0,0,1-.4.07.9995.9995,0,0,1-.39-.07.88983.88983,0,0,1-.32-.21,1.05968,1.05968,0,0,1-.21-.31A.77992.77992,0,0,1,190.28,87.33985Z"/><path class="cls-3" d="M203.83,91.00984h-1.49v8.66h-1.79v-8.66h-2.5v5.52a1.9982,1.9982,0,0,1-.05.34.5.5,0,0,1-.48.31,1.26065,1.26065,0,0,1-.58-.16,3.2115,3.2115,0,0,1-.61-.4,4.31032,4.31032,0,0,1-.57-.56,4.771,4.771,0,0,1-.48-.63,2.79808,2.79808,0,0,1-.33-.61,1.16967,1.16967,0,0,1-.13-.51.2498.2498,0,0,1,0-.17.28.28,0,0,1,.12-.16.44.44,0,0,1,.25-.11,1.33951,1.33951,0,0,1,.4,0h.68v-2.8h-2.45v-1.6h10Z"/><path class="cls-3" d="M216.24,91.00984h-1.49v8.66H213v-2.64h0a3.23961,3.23961,0,0,1-1.68.51h-.43a2.81934,2.81934,0,0,1-.59-.14,3.38947,3.38947,0,0,1-.66-.33,2.48019,2.48019,0,0,1-.6-.61,3.20982,3.20982,0,0,1-.45-1,4.82076,4.82076,0,0,1-.17-1.41v-3h-1.53v-1.58h9.41Zm-3.27,0h-2.83v3.15a2.75021,2.75021,0,0,0,.1.85,1.40011,1.40011,0,0,0,.27.53.81987.81987,0,0,0,.39.26,1.50947,1.50947,0,0,0,.48.07,1.68,1.68,0,0,0,.92-.25,2.78006,2.78006,0,0,0,.7-.75Z"/><path class="cls-3" d="M220.55,91.00984h-1.49v8.66h-1.79v-8.66h-1.51v-1.54h4.79Z"/><path class="cls-3" d="M227.93,98.99983a5.3608,5.3608,0,0,1-1.3.57,5.06,5.06,0,0,1-1.39.19,4.51078,4.51078,0,0,1-1.71-.31,3.74982,3.74982,0,0,1-1.28-.86,3.49018,3.49018,0,0,1-.78-1.25,3.94,3.94,0,0,1-.28-1.55,3.48984,3.48984,0,0,1,.24-1.36,2.38,2.38,0,0,1,.68-1,2.53,2.53,0,0,1,1-.59,4.00127,4.00127,0,0,1,1.33-.2h1v-1.61h-5.41v-1.54h9.35v1.54h-2.15v3.17h-2.44a2.87953,2.87953,0,0,0-.78.1,1.33017,1.33017,0,0,0-.59.3,1.16,1.16,0,0,0-.37.53,2.14961,2.14961,0,0,0,0,.76,2.26012,2.26012,0,0,0,.16.92,2.13987,2.13987,0,0,0,.43.7,1.86977,1.86977,0,0,0,.66.44,2.35908,2.35908,0,0,0,.84.15,4.54688,4.54688,0,0,0,.73-.09,7.16234,7.16234,0,0,0,.75-.23c.25-.1.5-.21.73-.33l.66-.37Z"/><path class="cls-3" d="M228,86.86988a1.34927,1.34927,0,0,0-.46-.43,1.12957,1.12957,0,0,0-.53-.14.93039.93039,0,0,0-.34.06.63989.63989,0,0,0-.27.18.52989.52989,0,0,0-.19.29.84008.84008,0,0,0-.08.41,1.70064,1.70064,0,0,0,.09.54,2.5598,2.5598,0,0,0,.22.58,5.8295,5.8295,0,0,0,.32.6c.13.2.25.4.39.6h-1.76a4.2198,4.2198,0,0,1-.74-1.26,3.17024,3.17024,0,0,1-.23-1.17,2.26972,2.26972,0,0,1,.2-1,1.80978,1.80978,0,0,1,.55-.73,2.06006,2.06006,0,0,1,.82-.45,2.829,2.829,0,0,1,1-.16,2.76009,2.76009,0,0,1,1.19.24,2.69958,2.69958,0,0,1,1,.81Z"/><path class="cls-3" d="M239.11,91.00984h-1.49v8.66h-1.91v-4.8h-3v.79a3.2307,3.2307,0,0,1-.08.53.61013.61013,0,0,1-.19.29.77973.77973,0,0,1-.36.1,1.8109,1.8109,0,0,1-.57-.12,2.9981,2.9981,0,0,1-.52-.31,2.66154,2.66154,0,0,1-.44-.45,3.11092,3.11092,0,0,1-.35-.54,2.45064,2.45064,0,0,1-.23-.56,2.00018,2.00018,0,0,1-.08-.54.78.78,0,0,1,.08-.4.43.43,0,0,1,.22-.22.82011.82011,0,0,1,.35-.08h5.14v-2.35h-6.77v-1.54h10.17Z"/><path class="cls-3" d="M246.56,91.00984h-2.29a8.04989,8.04989,0,0,1,.41,1,3.91947,3.91947,0,0,1,.16,1.08,3.28045,3.28045,0,0,1-.14.93,2.70085,2.70085,0,0,1-.41.79,2.58981,2.58981,0,0,1-.72.6,3.63138,3.63138,0,0,1-1,.36h0c.19.28.38.54.58.8s.41.5.63.75.45.49.69.73.52.49.81.73l-1.13,1.25a9.8256,9.8256,0,0,1-1-.93c-.33-.34-.65-.69-.95-1.06s-.58-.75-.85-1.12-.5-.75-.72-1.11l-.6-1-.45-.88,1.51-.77a2.37953,2.37953,0,0,0,.5.87.77.77,0,0,0,.93.16,1.48143,1.48143,0,0,0,.3-.26,1.64,1.64,0,0,0,.28-1,3.73023,3.73023,0,0,0-.16-1,3.55,3.55,0,0,0-.48-1h-3.74v-1.46h7.92Z"/><rect class="cls-9" x="20.7207" y="0.0929" width="71.7218" height="71.7218" rx="6.96571"/><rect class="cls-3" x="34.96522" y="45.4857" width="43.36435" height="3.44882"/><path class="cls-3" d="M46.80011,28.29153V24.78372H34.96522V41.15653h4.32464V35.33438h6.68889V31.822H39.28986v-3.5305Z"/><path class="cls-3" d="M59.7468,32.66608a3.962,3.962,0,0,0,2.64106-3.63033c0-2.64561-1.96038-4.23388-5.264-4.23388h-8.377V41.15653h8.46776c3.6031,0,5.75408-1.70626,5.75408-4.606A4.02087,4.02087,0,0,0,59.7468,32.66608Zm-6.766-4.56061H56.3252c1.21617,0,1.86963.55817,1.86963,1.59281s-.65346,1.58827-1.86963,1.58827H52.98076Zm3.63033,9.7293H52.98076V34.58108h3.67117c1.21616,0,1.89685.58086,1.89685,1.68357,0,1.03919-.68068,1.57012-1.94222,1.57012Z"/><path class="cls-3" d="M73.40593,31.214l-1.96946-.2632c-1.94222-.28135-2.514-.75783-2.514-1.66088s.75783-1.5202,2.44593-1.5202a2.3718,2.3718,0,0,1,2.69553,2.00122L78.17982,29.24c-.60354-3.22192-2.91788-4.7875-6.69343-4.7875-4.2248,0-7.002,2.11013-7.002,5.33659,0,2.77267,1.68357,4.38817,5.12785,4.86465l2.06022.28135c2.18274.31312,2.72275.80775,2.72275,1.76071s-.80775,1.5202-2.72275,1.5202a3.09939,3.09939,0,0,1-3.10394-2.18273l-4.28833.64438c.6943,3.33537,3.231,4.85557,7.26067,4.85557,4.57876,0,7.28336-1.96945,7.28336-5.3139C78.80605,33.2787,77.15425,31.7585,73.40593,31.214Z"/></g></g></g></svg>