<svg xmlns="http://www.w3.org/2000/svg" viewBox="0 0 403.25876 71.83004"><defs><style>.cls-1{fill:#e7b921;}.cls-2{fill:#fff;}.cls-3{fill:#fedc00;}.cls-4{fill:#0556a3;}.cls-5{fill:#a31c49;}.cls-6{fill:#e21d39;}.cls-7{fill:#231f20;}.cls-8{fill:none;stroke:#010101;stroke-miterlimit:10;}.cls-9{fill:#010101;}.cls-10{fill:#00be40;}</style></defs><g id="Layer_2" data-name="Layer 2"><g id="ARTE"><g id="HI_joint-logo-flag-black"><g id="Layer_2-2" data-name="Layer 2"><g id="ARTE-2" data-name="ARTE"><path class="cls-1" d="M180.75873,1.2l.4.2c3.9,2.6,7.1,3.1,11.9,3.1a16.0002,16.0002,0,0,0,5.3-.9l.3-.2,2.3,3.2-.2.3c-8.5,11.3-1.9,23.4,2.8,28.3l.4.5-.4.4-2.5,2.5-.3.3v1c.4,7.5-1.6,13.7-5.8,18.3-4.5,5-11.6,7.9-20,8.4h-.3l-.2.2c-2.1,1.9-4.3,3.6-4.3,3.6l-.4.3-.4-.3c-.1-.1-2.2-1.7-4.3-3.6l-.2-.2h-.3c-8.4-.5-15.5-3.4-20-8.4-4.2-4.7-6.2-10.8-5.8-18.3v-.5h0v-.5l-.3-.3c-.8-.8-1.8-1.9-2.5-2.5l-.4-.4.4-.5c4.7-4.9,11.3-17,2.8-28.3l-.2-.3,2.4-3.2.5.2a16.00015,16.00015,0,0,0,5.3.9c4.8,0,8-.5,11.9-3.1l.4-.2.4.3a17.23,17.23,0,0,0,10.5,3.5,17.89009,17.89009,0,0,0,10.5-3.5l.3-.3"/><path class="cls-2" d="M143.95873,29c2.7-6.1,3.6-13.9-.8-21.5a19.82982,19.82982,0,0,0,3.5.3c4.6,0,8.2-.4,12.2-2.7a22.27,22.27,0,0,0,10.9,3.2,20.43992,20.43992,0,0,0,11-3.2c4,2.3,7.6,2.7,12.2,2.7a20.67974,20.67974,0,0,0,3.5-.3c-4.5,7.6-3.5,15.4-.9,21.6h-51.6"/><path class="cls-3" d="M195.65873,29c-2.6-6.1-3.6-14,.8-21.6a19.82982,19.82982,0,0,1-3.5.3c-4.6,0-8.2-.4-12.2-2.7a20.44,20.44,0,0,1-11,3.2h-.1V29Z"/><path class="cls-4" d="M189.95873,58.4c5.1-3.7,8.1-9.7,7.6-18.3a3.39973,3.39973,0,0,1-.1-1h-7.5Z"/><path class="cls-5" d="M181.85873,62.1a24.76989,24.76989,0,0,0,8.1-3.7V39h-8.1Z"/><path class="cls-5" d="M149.65873,58.4a23.37987,23.37987,0,0,0,8,3.7V39h-8Z"/><path class="cls-4" d="M142.05872,40.1c-.4,8.6,2.6,14.6,7.6,18.3V39h-7.5A4.10008,4.10008,0,0,1,142.05872,40.1Z"/><path class="cls-5" d="M169.85873,43.3a7.21,7.21,0,0,1,4,1.2V39h-8v5.5A7.20994,7.20994,0,0,1,169.85873,43.3Z"/><path class="cls-5" d="M169.85873,58.5a7.20994,7.20994,0,0,1-4-1.2v6h8v-6A7.21,7.21,0,0,1,169.85873,58.5Z"/><path class="cls-4" d="M173.85873,39v5.4a7.62,7.62,0,0,1,2.5,10.4,8.51,8.51,0,0,1-2.5,2.5v6a37.77007,37.77007,0,0,0,8.1-1.2V39Z"/><path class="cls-4" d="M162.25873,50.9a7.55,7.55,0,0,1,3.5-6.4V39h-8.1V62a36,36,0,0,0,8.1,1.2v-6A7.48,7.48,0,0,1,162.25873,50.9Z"/><path class="cls-6" d="M145.85873,14.2a22.0898,22.0898,0,0,1,.2,7.7h7.8V29h7.7V22h8.2V14.2h-8.2V6.4c-.9-.4-1.8-.9-2.7-1.4a18.05,18.05,0,0,1-5,2v7.2Z"/><path class="cls-6" d="M186.25873,29V7.2c-.9-.2-1.9-.5-2.8-.8V29.1h2.8Z"/><path class="cls-6" d="M175.25873,29V7.5a23.00081,23.00081,0,0,1-2.8.6v21h2.8Z"/><path class="cls-6" d="M191.75873,29V7.7c-1,0-1.9-.1-2.8-.1V29Z"/><path class="cls-6" d="M180.75873,29V5c-.9.6-1.8,1-2.7,1.5V29Z"/><path class="cls-7" d="M205.25873,35.6l-1.1-1.1c-4.5-4.6-10.8-16.3-2.7-27.1l.6-.8-3.1-4.3-1.1.4a14.26012,14.26012,0,0,1-5,.9c-4.6,0-7.7-.5-11.4-2.9l-.8-.7-.9.6a17.21,17.21,0,0,1-10,3.4,16.54,16.54,0,0,1-10-3.4l-.9-.6-.9.6c-3.7,2.5-6.8,2.9-11.4,2.9a14.26012,14.26012,0,0,1-5-.9l-.9-.3-3.1,4.3.6.8c8.1,10.8,1.8,22.4-2.7,27.1l-1.1,1.1,1.1,1.1c.6.6,1.6,1.6,2.4,2.5v.5c-.4,7.8,1.6,14.2,6,19,4.7,5.1,12,8.2,20.6,8.7a45.89088,45.89088,0,0,0,4.4,3.6l.9.7.9-.7c.1-.1,2.3-1.7,4.4-3.6,8.6-.5,15.9-3.5,20.6-8.7,4.4-4.8,6.4-11.2,6-19v-.5c.8-.9,1.9-2,2.4-2.5Zm-5.1,3c.1.8,0,.8.1,1.2.9,17.3-11.1,25.5-25.7,26.1a50.75206,50.75206,0,0,1-4.7,3.9,50.75206,50.75206,0,0,1-4.7-3.9c-14.6-.6-26.6-8.8-25.7-26.1.1-.5,0-.4.1-1.2a42.42432,42.42432,0,0,0-3-3c5.2-5.4,11.3-17.8,2.9-29.1l1.8-2.4a17.23991,17.23991,0,0,0,5.5,1c4.9,0,8.2-.5,12.3-3.2a18.73,18.73,0,0,0,10.9,3.6,18.73,18.73,0,0,0,10.9-3.6c4.1,2.7,7.4,3.2,12.2,3.2a17.24,17.24,0,0,0,5.5-1l1.8,2.4c-8.5,11.3-2.4,23.7,2.9,29.1C202.35874,36.3,200.95873,37.8,200.15873,38.6Z"/><path class="cls-7" d="M141.95873,39c0,.3,0,.4-.1.5s0,.3-.1.5c-.3,6.7,1.3,12,4.9,16,4.1,4.5,10.9,7.1,19.4,7.5h7.1c8.6-.4,15.3-3,19.4-7.5,3.6-4,5.3-9.4,4.9-16a.74994.74994,0,0,0-.1-.5c-.1-.1,0-.3-.1-.5v-.2h-55.7V39Zm.4,1a.89992.89992,0,0,1,.1-.5c.1-.2,0-.2,0-.3h54.8v.3a.76.76,0,0,0,.1.4c.3,6.5-1.3,11.8-4.8,15.7-4.1,4.5-10.7,7-19.1,7.3h-7.2c-8.4-.3-15.1-2.9-19.1-7.3C143.55872,51.9,141.95873,46.6,142.35873,40Z"/><path class="cls-7" d="M143.85873,28.9l-.1.3h52.3l-.1-.3c-2.3-5.2-4-13.1.8-21.4l.3-.4-.5.1a19.52983,19.52983,0,0,1-3.4.3c-4.7,0-8.1-.4-12.1-2.7l-.1-.1-.3.1a19.86,19.86,0,0,1-10.9,3.2,19.77992,19.77992,0,0,1-10.8-3.2l-.1-.1-.1.1c-3.9,2.2-7.4,2.7-12.1,2.7a18.69937,18.69937,0,0,1-3.4-.3l-.5-.1.3.4C147.75873,15.7,146.05872,23.7,143.85873,28.9Zm26.1-20.5a20.55,20.55,0,0,0,10.8-3.1c4,2.2,7.5,2.7,12.2,2.7a15.26052,15.26052,0,0,0,3-.3c-4.5,8.1-2.9,15.8-.7,21h-25.3Zm-26.3-.7c1,.2,2,.2,3,.3,4.7,0,8.2-.4,12.2-2.7a20.12,20.12,0,0,0,10.6,3.1V28.7h-25.1C146.55872,23.5,148.15873,15.8,143.65873,7.7Z"/><polygon class="cls-7" points="163.259 32 163.259 30.4 158.059 30.4 158.059 37.6 159.559 37.6 159.559 34.7 161.759 34.7 161.759 33.1 159.559 33.1 159.559 32 163.259 32"/><path class="cls-7" d="M169.25873,31.9a1.39,1.39,0,0,1,1.2.7v.1l1.5-.7v-.1a2.88,2.88,0,0,0-2.6-1.6c-1.9,0-3.2,1.5-3.2,3.7s1.2,3.7,3.1,3.7a2.86,2.86,0,0,0,2.7-1.6V36l-1.3-.8v.1a1.21,1.21,0,0,1-1.3.8c-1,0-1.6-.9-1.6-2.2S168.35873,31.9,169.25873,31.9Z"/><path class="cls-7" d="M181.25873,32.4c0-1.2-.9-1.9-2.3-1.9h-3.3v7.2h3.3a2.33,2.33,0,0,0,2.6-1.9v-.4a1.65,1.65,0,0,0-.9-1.5A1.99993,1.99993,0,0,0,181.25873,32.4Zm-4-.5h1.8c.7,0,.8.3.8.6s-.2.6-.7.6h-1.8Zm1.7,4.2h-1.8V34.4h1.8c.6,0,.9.3.9.8a.79.79,0,0,1-.9.9Z"/><path class="cls-7" d="M169.75873,58.6a7.75016,7.75016,0,1,0-7.7-7.7h0A7.77,7.77,0,0,0,169.75873,58.6Zm0-.4a7.54005,7.54005,0,0,1-4.1-1.2,12.19,12.19,0,0,0,4.9-1.2c1.2-.7,2.5-1.7,2.8-2.9a2,2,0,0,1,2.6.8,1.84992,1.84992,0,0,1,.2.7A7.57,7.57,0,0,1,169.75873,58.2Zm-3.6-5.7a5.00008,5.00008,0,0,0,1.3.5,2.48,2.48,0,0,0,2.5-2,1.76,1.76,0,0,1,2.48253.1795l.01747.0205c.1.2.2.3.3.5.6,1.5-.7,2.6-2.4,3.7a11.67,11.67,0,0,1-5.2,1.2,6.67,6.67,0,0,1-1.9-2.5h.2A3.15,3.15,0,0,0,166.15873,52.5Zm-1.1-3.6a17.62988,17.62988,0,0,1,.7-4,7,7,0,0,1,3.4-1.2,1.93,1.93,0,0,0,.0241,2.72932q.037.03636.07591.07068l.1.1a2.64977,2.64977,0,0,0-.5.6,2.73,2.73,0,0,0,.77328,3.78257L169.65873,51a2,2,0,0,1-2,1.6C165.85873,52.4,165.05872,50.8,165.05872,48.9Zm8.3,3.4a1.88014,1.88014,0,0,0-.2-.8,2.1,2.1,0,0,0-2.69827-1.24069q-.05139.019-.10173.04069l-.6.3a2.35,2.35,0,0,1-.6-3.2c.9-1.3,2.8-.8,4.5.2a7.24006,7.24006,0,0,1,3.3,4,7.94022,7.94022,0,0,1-.6,2.2,2.39,2.39,0,0,0-3-1.5Zm.6-5.1c-1.3-.7-2.9-1.4-4.1-.9a1.62,1.62,0,0,1-.5-2.2,1,1,0,0,1,.6-.5,7.23,7.23,0,0,1,7.2,6.8A9.79009,9.79009,0,0,0,173.95873,47.2Zm-8.8-2c-.1.5-.3,1-.4,1.5-.4,1.7-.4,4.3,1,5.6a2.43,2.43,0,0,1-2.4,1.3h-.4a6.46,6.46,0,0,1-.5-2.7,7.41,7.41,0,0,1,2.7-5.7Z"/><line class="cls-8" x1="103.05873" x2="103.05873" y2="71.8"/></g></g><path class="cls-9" d="M241.15873,27.5h-3.1v4.1h-2v-10h5.5v1.7h-3.5v2.5h3.1Z"/><path class="cls-9" d="M249.45873,28.2a4.1,4.1,0,0,1-1,2.6,3.76,3.76,0,0,1-5.1-.2,4.89,4.89,0,0,1-.9-3.2V25.7a5.07,5.07,0,0,1,.9-3.2,3.76,3.76,0,0,1,5.1-.2,4.1,4.1,0,0,1,1,2.6h-2a2.81008,2.81008,0,0,0-.3-1.5,1.25,1.25,0,0,0-1.1-.4,1.15,1.15,0,0,0-1.1.6,6.09009,6.09009,0,0,0-.4,1.9v1.9a4.31,4.31,0,0,0,.3,2,1.36,1.36,0,0,0,1.1.6,1.25,1.25,0,0,0,1.1-.4,2.42,2.42,0,0,0,.3-1.4Z"/><path class="cls-9" d="M262.85874,22.9h-1.5v8.7h-1.8V29.7h0a3.55009,3.55009,0,0,1-.9.4,3.34,3.34,0,0,1-2.2-.2,4.13019,4.13019,0,0,1-1.1-.7,4.44078,4.44078,0,0,1-.8-1.1,2.77026,2.77026,0,0,1-.3-1.3,4.99981,4.99981,0,0,1,.2-1.2,8.78842,8.78842,0,0,1,.6-1,2.07,2.07,0,0,1,1-.6,2.74,2.74,0,0,1,1.3-.2h.4a1.08982,1.08982,0,0,1,.5.1c.2.1.4.1.6.2a2.5101,2.5101,0,0,1,.7.4h0V22.9h-6.4V21.4h9.7v1.5Zm-6.9,3.9a1.27007,1.27007,0,0,0,.1.6l.3.6a.92.92,0,0,0,.6.4,1.8799,1.8799,0,0,0,.8.2,1.48,1.48,0,0,0,.7-.1l-1.9-2.8a1.75981,1.75981,0,0,0-.4.5,1.42,1.42,0,0,0-.2.6Zm3.6-.8a2.36,2.36,0,0,0-.9-.6,2.92027,2.92027,0,0,0-.9-.2h-.4l1.8,2.7a.85.85,0,0,0,.3-.5.89992.89992,0,0,0,.1-.5Z"/><path class="cls-9" d="M267.15873,22.9h-1.5v8.7h-1.8V22.9h-1.5V21.4h4.8Z"/><path class="cls-9" d="M271.45872,22.9h-1.5v8.7h-1.8V22.9h-1.5V21.4h1.5a3.43009,3.43009,0,0,1-.4-1.6,3.00026,3.00026,0,0,1,.2-1,1.56,1.56,0,0,1,.6-.8,5.42021,5.42021,0,0,1,1.1-.6,6.05021,6.05021,0,0,1,1.5-.2,6.44988,6.44988,0,0,1,2,.3,7.57007,7.57007,0,0,1,1.8.9,7.0002,7.0002,0,0,1,1.6,1.4,14.28118,14.28118,0,0,1,1.5,1.8h-1.6a3.16955,3.16955,0,0,0-.6-.5c-.3-.2-.4-.4-.7-.6s-.5-.4-.8-.6a4.05,4.05,0,0,0-.9-.5,4.1802,4.1802,0,0,0-1-.4,3.74971,3.74971,0,0,0-1.1-.1,1.99979,1.99979,0,0,0-.8.1l-.6.3c-.2.1-.3.1-.3.2a1.85,1.85,0,0,0,0,1.2c.1.2.1.4.3.6h1.6v1.6Z"/><path class="cls-9" d="M270.95872,21.4h11.7v1.5h-1.5v8.7h-1.8V27.4h-3.5a3.00009,3.00009,0,0,1-1,.4h0c.1.3.3.5.4.8a2.1,2.1,0,0,0,.6.8,4.62023,4.62023,0,0,0,.7.7c.3.2.5.5.8.7l-1.1,1.3-.9-.9a10.63047,10.63047,0,0,1-.9-1.1,8.33923,8.33923,0,0,1-.8-1.2,10.53891,10.53891,0,0,0-.7-1.1c-.2-.4-.4-.7-.6-1.1a7.26324,7.26324,0,0,0-.5-.9l1.5-.8a4.36986,4.36986,0,0,0,.6,1,.86.86,0,0,0,.6.3.37.37,0,0,0,.3-.1c.1-.1.2-.2.2-.3s.1-.2.1-.4V25a4.25125,4.25125,0,0,0-.2-1.1,3.12957,3.12957,0,0,0-.5-1h-3.5V21.4Zm8.4,4.4V22.9h-3a6.88969,6.88969,0,0,1,.4,1,3.749,3.749,0,0,1,.1,1.1v.4a.60012.60012,0,0,1-.1.4Z"/><path class="cls-9" d="M281.95872,18.7a1.00007,1.00007,0,0,0-.5-.4.9.9,0,0,0-.5-.1.37.37,0,0,0-.3.1c-.1,0-.2.1-.3.2s-.1.2-.2.3a.60012.60012,0,0,0-.1.4.75.75,0,0,0,.1.5c.1.1.1.4.2.6l.3.6c.1.2.3.4.4.6h-1.8a3.29,3.29,0,0,1-.7-1.3,6.001,6.001,0,0,1-.2-1.2,3.00005,3.00005,0,0,1,.2-1,1.79,1.79,0,0,1,.5-.7,5.58086,5.58086,0,0,1,.8-.5,3.54977,3.54977,0,0,1,1-.2,5,5,0,0,1,1.2.2,2.54,2.54,0,0,1,1,.8Z"/><path class="cls-9" d="M290.05872,31.5v-6h-.4a.75.75,0,0,0-.5.1c-.1.1-.3.2-.3.3a.75993.75993,0,0,0-.2.4c0,.2-.1.3-.1.5v.4h-1.6c0-.2-.1-.4-.1-.6a1.42,1.42,0,0,0-.2-.6,1.38011,1.38011,0,0,0-.3-.4.76.76,0,0,0-.4-.2.6.6,0,0,0-.4.1c-.1.1-.2.2-.2.3s-.1.3-.1.4v.5a2.7701,2.7701,0,0,0,.3,1.3,3.58959,3.58959,0,0,0,.7,1,3.92,3.92,0,0,0,1,.8l1.2.6-.8,1.3a4.87945,4.87945,0,0,0-.7-.3,4.05021,4.05021,0,0,1-.9-.5,6.46962,6.46962,0,0,1-.9-.8,3.92035,3.92035,0,0,1-.8-1,6.72168,6.72168,0,0,1-.6-1.2,3.18056,3.18056,0,0,1-.2-1.4,5.00029,5.00029,0,0,1,.2-1.2,3.12957,3.12957,0,0,1,.5-1,1.56,1.56,0,0,1,.8-.6,1.80005,1.80005,0,0,1,1-.2,1.48,1.48,0,0,1,.7.1,2.18962,2.18962,0,0,1,.5.3c.1.1.3.2.4.3l.3.3h0a1.38,1.38,0,0,1,.3-.4c.1-.1.3-.2.4-.3s.3-.1.5-.2a.90008.90008,0,0,1,.5-.1h.6v-1h-7.9V21.4h11.2v1.5h-1.5v8.7h-2Z"/><path class="cls-9" d="M294.55872,21.5l-.2-.4a10.90911,10.90911,0,0,0-.6-1.1,5.57952,5.57952,0,0,0-.5-.8,2.17984,2.17984,0,0,0-.4-.5,1.38005,1.38005,0,0,0-.4-.3.60007.60007,0,0,0-.4-.1h-1.9V16.8h2.2a1.84987,1.84987,0,0,1,.7.2,2.08987,2.08987,0,0,1,.6.4,5.54894,5.54894,0,0,1,.6.8,7.6195,7.6195,0,0,1,.7,1.3,18.17886,18.17886,0,0,0,1,1.9h-1.4Zm3.1,1.4h-1.5v8.7h-1.8V22.9h-1.5V21.4h4.8Z"/><path class="cls-9" d="M307.35874,22.9h-1.5v8.7h-1.9V26.8h-3v.8a.75.75,0,0,1-.1.5c0,.1-.1.2-.2.3s-.2.1-.4.1a1.27007,1.27007,0,0,1-.6-.1,2.19045,2.19045,0,0,1-.5-.3.99992.99992,0,0,1-.4-.5c-.1-.2-.3-.3-.3-.5s-.2-.4-.2-.6a1.09044,1.09044,0,0,1-.1-.5.60011.60011,0,0,1,.1-.4c.1-.1.1-.2.2-.2s.2-.1.3-.1h5.2V23h-6.8V21.4h10.2v1.5Z"/><path class="cls-9" d="M311.65873,22.9h-1.5v8.7h-1.8V22.9h-1.5V21.4h4.8Z"/><path class="cls-9" d="M322.95872,28.7c.3-.2.5-.3.8-.5a1.33,1.33,0,0,0,.5-.6c.1-.2.3-.4.3-.6a1.09031,1.09031,0,0,0,.1-.5v-.4a.52.52,0,0,0-.2-.4l-.3-.3a.6.6,0,0,0-.4-.1.75.75,0,0,0-.5.1,1.76019,1.76019,0,0,0-.5.4,2.17989,2.17989,0,0,0-.4.5l-.3.6v4.5h-1.8V29.2h0c-.1,0-.1.1-.2.1s-.2.1-.3.2a.6.6,0,0,1-.4.1,4.3282,4.3282,0,0,1-.5.1,2.65989,2.65989,0,0,1-1.2-.3,3.51,3.51,0,0,1-1.7-1.7,2.77,2.77,0,0,1-.3-1.3,4.25041,4.25041,0,0,1,.2-1.1,2.62,2.62,0,0,1,.5-.9,1.46006,1.46006,0,0,1,.9-.6,4.25013,4.25013,0,0,1,1.1-.2,2.76979,2.76979,0,0,1,.9.1,4.04981,4.04981,0,0,1,.9.5h0V22.7h-5.5V21.4h13.2v1.5h-5.7v1.6h0c.2-.1.3-.3.5-.4s.3-.2.5-.2.3-.1.5-.1h.4a3.59006,3.59006,0,0,1,1.1.2,2.41,2.41,0,0,1,.8.6,4.05061,4.05061,0,0,1,.5.9,3.55021,3.55021,0,0,1,.2,1,3.00025,3.00025,0,0,1-.2,1,4.66968,4.66968,0,0,1-.5,1,6.46892,6.46892,0,0,1-.8.9,4.12994,4.12994,0,0,1-1.1.7Zm-2.6-2.7-.3-.3-.3-.3c-.1-.1-.3-.1-.4-.2a4.3282,4.3282,0,0,0-.5-.1,1.27,1.27,0,0,0-.6.1,1.38005,1.38005,0,0,0-.4.3.75993.75993,0,0,0-.2.4,4.335,4.335,0,0,0-.1.5,1.2702,1.2702,0,0,0,.1.6c.1.2.2.3.3.5s.3.2.5.3a1.27,1.27,0,0,0,.6.1c.3,0,.5,0,.6-.1s.3-.2.4-.4.2-.3.2-.5.1-.4.1-.6V26Z"/><path class="cls-9" d="M320.45872,21.5l-.2-.4a10.911,10.911,0,0,0-.6-1.1,5.58041,5.58041,0,0,0-.5-.8,2.17988,2.17988,0,0,0-.4-.5,1.38005,1.38005,0,0,0-.4-.3.6.6,0,0,0-.4-.1h-1.9V16.8h2.2a1.84992,1.84992,0,0,1,.7.2,2.08982,2.08982,0,0,1,.6.4,5.549,5.549,0,0,1,.6.8,7.61945,7.61945,0,0,1,.7,1.3,18.18076,18.18076,0,0,0,1,1.9h-1.4Z"/><path class="cls-9" d="M337.95872,25.9h.4a2.76979,2.76979,0,0,0,.9-.1,2.54046,2.54046,0,0,1,.7-.2V21.4h3.3v1.5h-1.5v8.7h-1.8V27.2c-.1,0-.1.1-.2.1s-.2.1-.3.1a.37.37,0,0,0-.3.1c-.1.1-.2,0-.3,0a.37.37,0,0,0,.1.3c.1.1,0,.2,0,.3a3.58977,3.58977,0,0,1-.2,1.1,5.54894,5.54894,0,0,1-.6.8,3.13029,3.13029,0,0,1-1,.5,3.70009,3.70009,0,0,1-2.4,0,3.13029,3.13029,0,0,1-1-.5,5.72,5.72,0,0,1-.8-.7,6.99769,6.99769,0,0,1-.6-.9,4.66922,4.66922,0,0,1-.5-1c-.1-.4-.3-.7-.4-1.1l1.5-.6c.1.3.2.5.3.8s.2.5.3.8a4.35015,4.35015,0,0,0,.4.7c.2.2.3.4.5.6a2.09,2.09,0,0,0,.6.4,1.7,1.7,0,0,0,.7.1,1.06,1.06,0,0,0,1.2-1.2,1.27018,1.27018,0,0,0-.1-.6,1.37993,1.37993,0,0,0-.3-.4.76.76,0,0,0-.5-.2,1.26981,1.26981,0,0,0-.6-.1h-.8V25.1h.2a1.7,1.7,0,0,0,.7-.1c.2-.1.4-.1.5-.2a.78007.78007,0,0,0,.4-.4,1.08018,1.08018,0,0,0,.1-.6.78.78,0,0,0-.3-.7,1.8799,1.8799,0,0,0-.8-.2,2.2,2.2,0,0,0-.8.1c-.2.1-.5.2-.7.3l-.4-1.5a4.1802,4.1802,0,0,1,1-.4,3.39973,3.39973,0,0,1,1-.1,3.5897,3.5897,0,0,1,1.1.2,4.04952,4.04952,0,0,1,.9.5,2.41016,2.41016,0,0,1,.6.8,2.91936,2.91936,0,0,1,.2.9,1.99994,1.99994,0,0,1-.3,1.1,3.82,3.82,0,0,1-.9.9h0c.1,0,.2.1.3.2S337.85874,25.8,337.95872,25.9Zm9.6-3h-1.5v8.7h-1.8V22.9h-1.5V21.4h4.8Z"/><path class="cls-9" d="M351.85874,22.9h-1.5v8.7h-1.7V22.9h-1.5V21.4h1.5a3.43009,3.43009,0,0,1-.4-1.6,3.00026,3.00026,0,0,1,.2-1,1.56,1.56,0,0,1,.6-.8,5.42044,5.42044,0,0,1,1.1-.6,6.05021,6.05021,0,0,1,1.5-.2,6.44988,6.44988,0,0,1,2,.3,7.56989,7.56989,0,0,1,1.8.9,7.0002,7.0002,0,0,1,1.6,1.4,14.28118,14.28118,0,0,1,1.5,1.8h-1.6a3.16955,3.16955,0,0,0-.6-.5c-.3-.2-.4-.4-.7-.6s-.5-.4-.8-.6a4.05,4.05,0,0,0-.9-.5,4.1802,4.1802,0,0,0-1-.4,3.74971,3.74971,0,0,0-1.1-.1,1.99979,1.99979,0,0,0-.8.1l-.6.3a.55.55,0,0,0-.3.5,1.85,1.85,0,0,0,0,1.2c.1.2.1.4.3.6h1.6v1.3Z"/><path class="cls-9" d="M355.25873,23.5c0-.1.1-.1.1-.2V23a.36994.36994,0,0,0-.1-.3.35.35,0,0,0-.3-.3h-.2a.55.55,0,0,0-.5.3,1.55013,1.55013,0,0,0-.2.8,1.66,1.66,0,0,0,.5,1.2,1.7,1.7,0,0,0,1.3.4,5,5,0,0,0,1.2-.2l.2,1.5a1.09,1.09,0,0,0-.5.1,1.42006,1.42006,0,0,0-.6.2,1,1,0,0,0-.5.4,1.44979,1.44979,0,0,0-.2.7.89992.89992,0,0,0,.1.5c.1.1.1.3.3.3a.52.52,0,0,0,.4.2c.2,0,.3.1.5.1a1.70006,1.70006,0,0,0,.7-.1,2.19045,2.19045,0,0,0,.5-.3c.1-.1.3-.2.4-.4s.2-.2.3-.3V21.4h3.3v1.5h-1.5v8.7h-1.8V29.8h0c-.2.1-.3.2-.5.3s-.3.2-.5.2-.3.1-.5.1h-.5a5,5,0,0,1-1.2-.2,1.46005,1.46005,0,0,1-.9-.6,1.56,1.56,0,0,1-.6-.8,3.55022,3.55022,0,0,1-.2-1,2.34944,2.34944,0,0,1,.2-.8,3.51,3.51,0,0,1,.5-.8v-.1c-.3-.2-.6-.3-.9-.5a1.99983,1.99983,0,0,1-.6-.7,1.14,1.14,0,0,1-.3-.8,2.19976,2.19976,0,0,1-.1-.8,3.00035,3.00035,0,0,1,.2-1,1.79,1.79,0,0,1,.5-.7,2.17993,2.17993,0,0,1,.8-.5,2.6,2.6,0,0,1,2,0,1.79017,1.79017,0,0,1,.7.5,2.09016,2.09016,0,0,1,.4.6,1.47987,1.47987,0,0,1,.1.7,1.27,1.27,0,0,1-.1.6c-.1.2-.1.4-.2.5Z"/><path class="cls-9" d="M369.75873,28.7c.3-.2.5-.3.8-.5a1.33007,1.33007,0,0,0,.5-.6c.1-.2.3-.4.3-.6a1.09031,1.09031,0,0,0,.1-.5v-.4a.51994.51994,0,0,0-.2-.4l-.3-.3a.6.6,0,0,0-.4-.1.75.75,0,0,0-.5.1,1.76005,1.76005,0,0,0-.5.4,2.17989,2.17989,0,0,0-.4.5l-.3.6v4.5h-1.8V29.2h0c-.1,0-.1.1-.2.1s-.2.1-.3.2a.6.6,0,0,1-.4.1,4.3282,4.3282,0,0,1-.5.1,2.65989,2.65989,0,0,1-1.2-.3,3.51,3.51,0,0,1-1.7-1.7,2.77013,2.77013,0,0,1-.3-1.3,4.25041,4.25041,0,0,1,.2-1.1,4.04861,4.04861,0,0,1,.5-.9,1.46006,1.46006,0,0,1,.9-.6,4.25005,4.25005,0,0,1,1.1-.2,2.77006,2.77006,0,0,1,.9.1,4.05021,4.05021,0,0,1,.9.5h0V22.7h-5.6V21.4h13.2v1.5h-5.7v1.6h0c.2-.1.3-.3.5-.4s.3-.2.5-.2.3-.1.5-.1h.4a3.59,3.59,0,0,1,1.1.2,2.40976,2.40976,0,0,1,.8.6,4.05061,4.05061,0,0,1,.5.9,3.55021,3.55021,0,0,1,.2,1,3,3,0,0,1-.2,1,4.66968,4.66968,0,0,1-.5,1,6.46892,6.46892,0,0,1-.8.9,4.12994,4.12994,0,0,1-1.1.7Zm-2.7-2.7-.3-.3-.3-.3c-.1-.1-.3-.1-.4-.2a4.3282,4.3282,0,0,0-.5-.1,1.26993,1.26993,0,0,0-.6.1,1.38009,1.38009,0,0,0-.4.3.76007.76007,0,0,0-.2.4,4.335,4.335,0,0,0-.1.5,1.2702,1.2702,0,0,0,.1.6c.1.2.2.3.3.5a2.19045,2.19045,0,0,0,.5.3,1.27007,1.27007,0,0,0,.6.1c.3,0,.5,0,.6-.1a.78.78,0,0,0,.4-.4c.1-.2.2-.3.2-.5s.1-.4.1-.6V26Z"/><path class="cls-9" d="M378.85874,22.9h-1.5v8.7h-1.7V22.9h-1.5V21.4h4.8v1.5Z"/><path class="cls-9" d="M383.15873,22.9h-1.5v8.7h-1.8V22.9h-1.5V21.4h1.5a6.88649,6.88649,0,0,0-.3-.8,2.19975,2.19975,0,0,1-.1-.8,3.0001,3.0001,0,0,1,.2-1,2.18,2.18,0,0,1,.5-.8,5.55087,5.55087,0,0,1,.8-.6,3.72994,3.72994,0,0,1,1.2-.2,3.99983,3.99983,0,0,1,1.5.3,3.81029,3.81029,0,0,1,1.3.9,8.70024,8.70024,0,0,1,1.2,1.4,7.84007,7.84007,0,0,1,1.1,1.8h-1.6c-.1-.2-.2-.3-.3-.5a2.65024,2.65024,0,0,0-.5-.6,2.65024,2.65024,0,0,1-.5-.6,2.64938,2.64938,0,0,0-.6-.5,1.60988,1.60988,0,0,0-.7-.4,1.7,1.7,0,0,0-.7-.1.75.75,0,0,0-.5.1c-.1.1-.3.2-.4.3a.76.76,0,0,0-.2.4c0,.2-.1.3-.1.5a1.70013,1.70013,0,0,0,.1.7,4.8788,4.8788,0,0,1,.3.7h1.6v1.3Z"/><path class="cls-9" d="M390.65873,22.9h-2.3a6.88969,6.88969,0,0,1,.4,1,3.58977,3.58977,0,0,1,.2,1.1,2.76962,2.76962,0,0,1-.1.9,2.00008,2.00008,0,0,1-.4.8,4.35023,4.35023,0,0,1-.7.6,3,3,0,0,1-1,.4h0c.2.3.4.5.6.8s.4.5.6.8a4.62023,4.62023,0,0,0,.7.7,5.72009,5.72009,0,0,0,.8.7l-1.1,1.3a9.00143,9.00143,0,0,1-1-.9c-.3-.3-.6-.7-1-1.1a3.8301,3.8301,0,0,1-.8-1.1c-.2-.4-.5-.7-.7-1.1a8.787,8.787,0,0,0-.6-1,3.55048,3.55048,0,0,1-.4-.9l1.5-.8a3.6,3.6,0,0,0,.5.9.86.86,0,0,0,.6.3.7601.7601,0,0,0,.4-.1c.2-.1.2-.1.3-.3a.76007.76007,0,0,0,.2-.4,1.2702,1.2702,0,0,0,.1-.6,4.39991,4.39991,0,0,0-.2-1,3.12916,3.12916,0,0,0-.5-1h-3.7V21.4h7.9v1.5Z"/><path class="cls-9" d="M398.45872,28.7c.3-.2.5-.3.8-.5a1.33,1.33,0,0,0,.5-.6c.1-.2.3-.4.3-.6a1.09031,1.09031,0,0,0,.1-.5v-.4a.52.52,0,0,0-.2-.4l-.3-.3a.6.6,0,0,0-.4-.1.75.75,0,0,0-.5.1,1.76019,1.76019,0,0,0-.5.4,2.17989,2.17989,0,0,0-.4.5l-.3.6v4.5h-1.8V29.2h0c-.1,0-.1.1-.2.1s-.2.1-.3.2a.6.6,0,0,1-.4.1,4.3282,4.3282,0,0,1-.5.1,2.65989,2.65989,0,0,1-1.2-.3,3.51,3.51,0,0,1-1.7-1.7,2.77,2.77,0,0,1-.3-1.3,4.25041,4.25041,0,0,1,.2-1.1,4.04941,4.04941,0,0,1,.5-.9,1.46006,1.46006,0,0,1,.9-.6,4.25013,4.25013,0,0,1,1.1-.2,2.77006,2.77006,0,0,1,.9.1,4.05021,4.05021,0,0,1,.9.5h0V22.7h-5.6V21.4h13.2v1.5h-5.7v1.6h0c.2-.1.3-.3.5-.4s.3-.2.5-.2.3-.1.5-.1h.4a3.59,3.59,0,0,1,1.1.2,2.40976,2.40976,0,0,1,.8.6,4.05021,4.05021,0,0,1,.5.9,3.55021,3.55021,0,0,1,.2,1,3,3,0,0,1-.2,1,4.66922,4.66922,0,0,1-.5,1,6.46892,6.46892,0,0,1-.8.9,4.13,4.13,0,0,1-1.1.7Zm-2.6-2.7-.3-.3-.3-.3c-.1-.1-.3-.1-.4-.2a4.3282,4.3282,0,0,0-.5-.1,1.27,1.27,0,0,0-.6.1,1.38005,1.38005,0,0,0-.4.3.75993.75993,0,0,0-.2.4,4.335,4.335,0,0,0-.1.5,1.2702,1.2702,0,0,0,.1.6c.1.2.2.3.3.5a2.19024,2.19024,0,0,0,.5.3,1.27,1.27,0,0,0,.6.1c.3,0,.5,0,.6-.1a.78.78,0,0,0,.4-.4c.1-.2.2-.3.2-.5s.1-.4.1-.6V26Z"/><path class="cls-9" d="M243.15873,48.9a3.10015,3.10015,0,0,1-1.3.6,5.90022,5.90022,0,0,1-1.4.2,4.67024,4.67024,0,0,1-1.7-.3,3.81014,3.81014,0,0,1-1.3-.9,3.53006,3.53006,0,0,1-.8-1.3,4.15,4.15,0,0,1-.3-1.6,5.89963,5.89963,0,0,1,.2-1.4,3.58976,3.58976,0,0,1,.7-1,2.07,2.07,0,0,1,1-.6,5.85,5.85,0,0,1,1.3-.2h1V40.8h-5.4V39.4h9.4v1.5h-2.2v3.2h-2.4a2.19994,2.19994,0,0,0-.8.1l-.6.3a1,1,0,0,0-.4.5,2,2,0,0,0-.1.8,2.92,2.92,0,0,0,.2.9,4.3501,4.3501,0,0,0,.4.7,1.61016,1.61016,0,0,0,.7.4,2.34993,2.34993,0,0,0,.8.2,1.69992,1.69992,0,0,0,.7-.1c.3-.1.5-.1.8-.2a4.88,4.88,0,0,0,.7-.3,2.5099,2.5099,0,0,0,.7-.4v1.9Z"/><path class="cls-9" d="M242.35873,53.1l-1.8-1.6-1.8,1.6-1-1.2,2.8-2.4,2.9,2.5Z"/><path class="cls-9" d="M240.95873,39.5l-.2-.4a10.907,10.907,0,0,0-.6-1.1,5.57986,5.57986,0,0,0-.5-.8,2.17993,2.17993,0,0,0-.4-.5,1.38005,1.38005,0,0,0-.4-.3.6.6,0,0,0-.4-.1h-1.9V34.8h2.2a1.4501,1.4501,0,0,1,.7.2,2.09,2.09,0,0,1,.6.4,5.54974,5.54974,0,0,1,.6.8,7.62117,7.62117,0,0,1,.7,1.3,18.17886,18.17886,0,0,0,1,1.9h-1.4Z"/><path class="cls-9" d="M248.95873,40.9h-1.5v8.7h-1.8V40.9h-1.5V39.4h1.5a3.43009,3.43009,0,0,1-.4-1.6,3.00034,3.00034,0,0,1,.2-1,1.56,1.56,0,0,1,.6-.8,5.42036,5.42036,0,0,1,1.1-.6,6.05039,6.05039,0,0,1,1.5-.2,6.45029,6.45029,0,0,1,2,.3,7.5704,7.5704,0,0,1,1.8.9,7,7,0,0,1,1.6,1.4,14.28109,14.28109,0,0,1,1.5,1.8h-1.6a3.16993,3.16993,0,0,0-.6-.5,4.35039,4.35039,0,0,0-.7-.6c-.3-.2-.5-.4-.8-.6a4.04974,4.04974,0,0,0-.9-.5,4.18,4.18,0,0,0-1-.4,3.74977,3.74977,0,0,0-1.1-.1,1.99984,1.99984,0,0,0-.8.1l-.6.3a.55.55,0,0,0-.3.5,1.85,1.85,0,0,0,0,1.2c.1.2.1.4.3.6h1.6v1.3Z"/><path class="cls-9" d="M259.35874,40.9h-2.1v2.3h-3.4a.75.75,0,0,0-.5.1.37.37,0,0,0-.1.3v.3c0,.1.1.2.1.3s.2.1.3.2a.75.75,0,0,0,.5.1h1.9a3.00005,3.00005,0,0,1,1,.2,1,1,0,0,1,.6.5.91.91,0,0,1,.3.7,2.76934,2.76934,0,0,1,.1.9,5.00037,5.00037,0,0,1-.2,1.2,3.33,3.33,0,0,1-.6,1,3,3,0,0,1-1.1.7,3.65011,3.65011,0,0,1-1.5.3,5.66025,5.66025,0,0,1-1.8-.3,3.77015,3.77015,0,0,1-1.5-.9,5.53026,5.53026,0,0,1-1.2-1.4,5.31,5.31,0,0,1-.8-1.7l1.5-.6.6,1.2a4.36038,4.36038,0,0,0,.9,1.1,2.59011,2.59011,0,0,0,1.1.7,2.66007,2.66007,0,0,0,1.2.3,1.48006,1.48006,0,0,0,.7-.1,1.2,1.2,0,0,0,.8-.8,1.27007,1.27007,0,0,0,.1-.6c0-.2,0-.3-.1-.4a.22.22,0,0,0-.2-.2.37.37,0,0,0-.3-.1h-2.3a1.22,1.22,0,0,1-.9-.3,1.70014,1.70014,0,0,1-.6-.6,2.99994,2.99994,0,0,1-.4-.8,2.77016,2.77016,0,0,1-.1-.9,1.48009,1.48009,0,0,1,.1-.7,2.19024,2.19024,0,0,1,.3-.5c.2-.1.3-.2.5-.3a1.48276,1.48276,0,0,1,.7-.1h2.4v-.8h-6.9V39.4h10.9v1.5Z"/><path class="cls-9" d="M255.35874,37.2a.60012.60012,0,0,1,.1-.4c0-.1.1-.2.2-.3s.2-.2.3-.2.3-.1.4-.1a.6.6,0,0,1,.4.1c.1.1.2.1.3.2s.2.2.2.3a.85.85,0,0,1,0,.8c0,.1-.1.2-.2.3s-.2.2-.3.2-.3.1-.4.1a.6.6,0,0,1-.4-.1c-.1,0-.2-.1-.3-.2s-.2-.2-.2-.3A.76017.76017,0,0,1,255.35874,37.2Z"/><path class="cls-9" d="M268.85874,40.9h-1.5v8.7h-1.7V40.9h-2.5v5.5a.37.37,0,0,1-.1.3.22.22,0,0,1-.2.2.37.37,0,0,1-.3.1,1.4202,1.4202,0,0,1-.6-.2,2.08987,2.08987,0,0,1-.6-.4l-.6-.6c-.2-.2-.3-.4-.5-.6l-.3-.6a1.09029,1.09029,0,0,1-.1-.5v-.2c0-.1.1-.1.1-.2s.1-.1.2-.1h1.1V40.8h-2.4V39.4h10Z"/><path class="cls-9" d="M281.25873,40.9h-1.5v8.7h-1.8V47h0a3.37007,3.37007,0,0,1-1.7.5h-.4c-.2,0-.4-.1-.6-.1a4.87961,4.87961,0,0,0-.7-.3c-.2-.1-.4-.4-.6-.6a2.99958,2.99958,0,0,1-.4-1,5.89914,5.89914,0,0,1-.2-1.4v-3h-1.5V39.4h9.4v1.5Zm-3.2,0h-2.8v3.2a2.76962,2.76962,0,0,0,.1.9,2.19034,2.19034,0,0,0,.3.5,1.38005,1.38005,0,0,0,.4.3c.2,0,.3.1.5.1a1.22,1.22,0,0,0,.9-.3,4.62023,4.62023,0,0,0,.7-.7v-4Z"/><path class="cls-9" d="M285.65873,40.9h-1.5v8.7h-1.8V40.9h-1.5V39.4h4.8Z"/><path class="cls-9" d="M292.95872,48.9a3.10011,3.10011,0,0,1-1.3.6,5.90022,5.90022,0,0,1-1.4.2,4.67,4.67,0,0,1-1.7-.3,3.81038,3.81038,0,0,1-1.3-.9,3.53035,3.53035,0,0,1-.8-1.3,4.14976,4.14976,0,0,1-.3-1.6,5.89914,5.89914,0,0,1,.2-1.4,3.58959,3.58959,0,0,1,.7-1,2.07009,2.07009,0,0,1,1-.6,5.85041,5.85041,0,0,1,1.3-.2h1V40.8h-5.4V39.4h9.4v1.5h-2.2v3.2h-2.4a2.19994,2.19994,0,0,0-.8.1l-.6.3a.9999.9999,0,0,0-.4.5,2.00055,2.00055,0,0,0-.1.8,2.91971,2.91971,0,0,0,.2.9,4.35015,4.35015,0,0,0,.4.7,1.61014,1.61014,0,0,0,.7.4,2.34976,2.34976,0,0,0,.8.2,1.69987,1.69987,0,0,0,.7-.1c.3-.1.5-.1.8-.2a4.87945,4.87945,0,0,0,.7-.3,2.5101,2.5101,0,0,0,.7-.4v1.9Z"/><path class="cls-9" d="M293.05872,36.7a1,1,0,0,0-.5-.4.9.9,0,0,0-.5-.1.37.37,0,0,0-.3.1c-.1,0-.2.1-.3.2s-.1.2-.2.3a.60123.60123,0,0,0-.1.4.75.75,0,0,0,.1.5c.1.1.1.4.2.6l.3.6c.1.2.3.4.4.6h-1.8a3.28974,3.28974,0,0,1-.7-1.3,4.99938,4.99938,0,0,1-.2-1.2,3.0001,3.0001,0,0,1,.2-1,1.79007,1.79007,0,0,1,.5-.7,5.57976,5.57976,0,0,1,.8-.5,3.55047,3.55047,0,0,1,1-.2,5.0006,5.0006,0,0,1,1.2.2,2.54,2.54,0,0,1,1,.8Z"/><path class="cls-9" d="M304.15873,40.9h-1.5v8.7h-1.9V44.8h-3v.8a.74993.74993,0,0,1-.1.5c0,.1-.1.2-.2.3s-.2.1-.4.1a1.27,1.27,0,0,1-.6-.1,2.19024,2.19024,0,0,1-.5-.3.99992.99992,0,0,1-.4-.5c-.1-.2-.3-.3-.3-.5a1.42,1.42,0,0,1-.2-.6,1.09015,1.09015,0,0,1-.1-.5.60006.60006,0,0,1,.1-.4c.1-.1.1-.2.2-.2s.2-.1.3-.1h5.2V41h-6.8V39.4h10.2v1.5Z"/><path class="cls-9" d="M311.65873,40.9h-2.3a6.88923,6.88923,0,0,1,.4,1,3.58977,3.58977,0,0,1,.2,1.1,2.76965,2.76965,0,0,1-.1.9,2.00008,2.00008,0,0,1-.4.8,4.35023,4.35023,0,0,1-.7.6,3.00022,3.00022,0,0,1-1,.4h0c.2.3.4.5.6.8s.4.5.6.8a4.62023,4.62023,0,0,0,.7.7,5.72009,5.72009,0,0,0,.8.7l-1.1,1.3a9.00243,9.00243,0,0,1-1-.9c-.3-.3-.6-.7-1-1.1a3.8301,3.8301,0,0,1-.8-1.1c-.2-.4-.5-.7-.7-1.1a8.787,8.787,0,0,0-.6-1,3.55048,3.55048,0,0,1-.4-.9l1.5-.8a3.59985,3.59985,0,0,0,.5.9.86.86,0,0,0,.6.3.76.76,0,0,0,.4-.1c.2-.1.2-.1.3-.3a.76.76,0,0,0,.2-.4,1.27018,1.27018,0,0,0,.1-.6,4.40013,4.40013,0,0,0-.2-1,3.12927,3.12927,0,0,0-.5-1h-4.1V39.4h7.9v1.5Z"/><rect class="cls-10" y="0.10823" width="71.7218" height="71.7218" rx="6.96571"/><rect class="cls-2" x="14.24453" y="45.50103" width="43.36435" height="3.44882"/><path class="cls-2" d="M26.07942,28.30686V24.79905H14.24453V41.17186h4.32463V35.34971h6.68889V31.83736H18.56916v-3.5305Z"/><path class="cls-2" d="M39.0261,32.68141a3.962,3.962,0,0,0,2.64107-3.63033c0-2.64561-1.96038-4.23388-5.264-4.23388h-8.377V41.17186h8.46776c3.60311,0,5.75408-1.70626,5.75408-4.606A4.02087,4.02087,0,0,0,39.0261,32.68141Zm-6.766-4.56061h3.34445c1.21616,0,1.86962.55817,1.86962,1.59281s-.65346,1.58827-1.86962,1.58827H32.26006Zm3.63034,9.7293H32.26006V34.59641h3.67118c1.21616,0,1.89685.58086,1.89685,1.68357,0,1.03918-.68069,1.57012-1.94223,1.57012Z"/><path class="cls-2" d="M52.68523,31.22928l-1.96945-.2632c-1.94223-.28135-2.514-.75783-2.514-1.66088s.75783-1.5202,2.44594-1.5202a2.3718,2.3718,0,0,1,2.69552,2.00122l4.1159-.53094c-.60355-3.22192-2.91789-4.7875-6.69343-4.7875-4.22481,0-7.002,2.11013-7.002,5.33659,0,2.77267,1.68356,4.38816,5.12785,4.86465l2.06021.28135c2.18274.31312,2.72275.80775,2.72275,1.76071s-.80775,1.5202-2.72275,1.5202a3.0994,3.0994,0,0,1-3.10394-2.18273l-4.28833.64438c.6943,3.33537,3.231,4.85557,7.26067,4.85557,4.57876,0,7.28336-1.96945,7.28336-5.3139C58.08536,33.294,56.43356,31.77383,52.68523,31.22928Z"/></g></g></g></svg>