<?xml version="1.0" encoding="UTF-8"?>
<svg width="16px" height="16px" viewBox="0 0 16 16" version="1.1" xmlns="http://www.w3.org/2000/svg" xmlns:xlink="http://www.w3.org/1999/xlink">
    <!-- Generator: Sketch 55.2 (78181) - https://sketchapp.com -->
    <title>Group</title>
    <desc>Created with Sketch.</desc>
    <g id="Page-1" stroke="none" stroke-width="1" fill="none" fill-rule="evenodd">
        <g id="UIkit_CheckBox" transform="translate(-555.000000, -329.000000)">
            <g id="Group" transform="translate(555.000000, 329.000000)">
                <circle id="Oval" fill="#666666" cx="8" cy="8" r="8"></circle>
                <path d="M8.59710145,7 C8.81352765,7 8.92173913,7.15384462 8.92173913,7.46153846 L8.92173913,10.0236686 C8.92173913,10.4260375 8.99516835,10.6272189 9.14202899,10.6272189 C9.17294701,10.6272189 9.2289851,10.6173571 9.31014493,10.5976331 C9.39130475,10.5779092 9.45893693,10.5680473 9.51304348,10.5680473 C9.83768278,10.5680473 10,10.7731735 10,11.183432 C10,11.7278134 9.77198296,12 9.31594203,12 C9.23864696,12 9.022224,11.9802763 8.66666667,11.9408284 C8.45024046,11.9171598 8.20289994,11.9053254 7.92463768,11.9053254 C7.78550655,11.9053254 7.58067768,11.9211044 7.31014493,11.9526627 C7.03961217,11.9842211 6.838648,12 6.70724638,12 C6.49854968,12 6.32850307,11.9270224 6.19710145,11.7810651 C6.06569983,11.6351078 6,11.4477329 6,11.2189349 C6,10.7692285 6.18550539,10.5443787 6.55652174,10.5443787 L6.85797101,10.6153846 C6.88888904,10.6232742 6.91594191,10.6272189 6.93913043,10.6272189 C7.07826157,10.6272189 7.14782609,10.4063138 7.14782609,9.96449704 L7.14782609,9.04733728 C7.14782609,8.59763089 7.08212626,8.37278107 6.95072464,8.37278107 C6.92753612,8.37278107 6.85797159,8.39250473 6.74202899,8.43195266 C6.66473391,8.44773183 6.60289878,8.4556213 6.55652174,8.4556213 C6.18550539,8.4556213 6,8.23471621 6,7.79289941 C6,7.55621183 6.06569983,7.36489225 6.19710145,7.21893491 C6.32850307,7.07297757 6.50241438,7 6.71884058,7 C6.80386516,7 6.92753542,7.0118342 7.08985507,7.03550296 C7.36038783,7.07495089 7.57681078,7.09467456 7.73913043,7.09467456 C7.87053206,7.09467456 8.04057867,7.07889562 8.24927536,7.04733728 C8.45797206,7.01577893 8.57391293,7 8.59710145,7 Z M8,6 C7.72893637,6 7.49450648,5.90109989 7.2967033,5.7032967 C7.09890011,5.50549352 7,5.27106363 7,5 C7,4.72161033 7.09706863,4.48534896 7.29120879,4.29120879 C7.48534896,4.09706863 7.72161033,4 8,4 C8.27838967,4 8.51465104,4.09706863 8.70879121,4.29120879 C8.90293137,4.48534896 9,4.72161033 9,5 C9,5.27838967 8.90293137,5.51465104 8.70879121,5.70879121 C8.51465104,5.90293137 8.27838967,6 8,6 Z" id="i" fill="#FFFFFF" fill-rule="nonzero"></path>
            </g>
        </g>
    </g>
</svg>