<svg width="245" height="169" viewBox="0 0 245 169" fill="none" xmlns="http://www.w3.org/2000/svg">
<path d="M9.65179 168.152C4.33767 168.152 0 163.934 0 158.766V80.7562C0 75.5884 4.33767 71.3701 9.65179 71.3701H134.656C139.97 71.3701 144.307 75.5884 144.307 80.7562V158.766C144.307 163.934 139.97 168.152 134.656 168.152H9.65179Z" fill="#00BE40"/>
<path d="M134.168 73.4331C134.168 73.4331 12.2621 73.4331 8.52529 73.4331C4.78851 73.4331 3.54918 78.6192 8.69429 78.2722C13.8394 77.9253 134.168 78.2722 134.168 78.2722C134.168 78.2722 139.857 77.414 139.857 84.8461C139.857 92.9722 139.857 164.865 139.857 164.865C139.857 164.865 142.693 162.436 142.693 158.291C142.693 151.48 142.693 89.6852 142.693 84.8461C142.693 78.1079 140.74 73.4331 134.168 73.4331Z" fill="#09544F"/>
<path d="M49.8327 83.4428C62.5409 78.1679 68.3291 63.7598 62.7609 51.2615C57.1927 38.7632 42.3767 32.9074 29.6685 38.1823C16.9603 43.4572 11.1721 57.8653 16.7403 70.3636C22.3085 82.8619 37.1244 88.7177 49.8327 83.4428Z" fill="#FCBC00"/>
<path d="M44.4519 79.2351L42.9729 75.1676C39.8663 76.1291 36.2777 76.1873 34.0342 75.7202L34.4069 72.0985C36.6943 72.4749 39.5241 72.4421 42.469 71.4586C46.2357 70.2005 48.2958 67.8399 47.3837 65.3316C46.5209 62.9588 43.924 62.1536 39.4835 62.1922C33.4568 62.3044 29.3614 61.3914 28.0056 57.6628C26.6991 54.0698 28.8634 50.3059 33.5725 48.0489L31.9948 43.7102L35.2822 42.6122L36.8105 46.8154C40.054 45.8081 42.4921 45.7541 44.27 45.9966L43.9273 49.9123C42.6344 49.7359 40.4702 49.6985 37.0459 50.8422C32.9368 52.2146 31.8738 53.938 32.4901 55.6328C33.3036 57.87 35.7088 58.3592 40.8643 58.3859C47.0088 58.3864 50.6302 59.6857 52.0107 63.4821C53.2432 66.8718 51.5556 71.3127 46.3479 73.8883L47.8762 78.0915L44.4519 79.2351Z" fill="#FFD247"/>
<path d="M35.3901 42.5964L31.5938 43.8755L44.3209 79.184L48.1172 77.9049L35.3901 42.5964Z" fill="#FFD247"/>
<path d="M48.5923 85.0947C35.0488 89.6113 20.0859 82.3971 15.2064 68.998C10.3268 55.5989 17.3636 41.048 30.9071 36.5313C44.4506 32.0146 59.4135 39.2288 64.293 52.6279C69.1726 66.0271 62.1358 80.578 48.5923 85.0947ZM31.6006 38.4357C19.0883 42.6085 12.6481 56.0452 17.1313 68.356C21.6393 80.7349 35.4552 87.3401 47.8988 83.1902C60.411 79.0175 66.8513 65.5808 62.3681 53.2699C57.8601 40.891 44.1129 34.263 31.6006 38.4357Z" fill="#F7A605"/>
<path d="M72.4679 84.9625C86.071 87.383 99.2315 78.5092 101.863 65.1424C104.494 51.7756 95.5991 38.9775 81.9959 36.557C68.3928 34.1365 55.2323 43.0103 52.6012 56.3771C49.9701 69.7439 58.8647 82.542 72.4679 84.9625Z" fill="#FCBC00"/>
<path d="M70.3836 78.5734L71.5305 74.406C68.3951 73.5525 65.3871 71.6917 63.8003 70.1099L66.2217 67.2983C67.8978 68.828 70.2621 70.3062 73.2764 71.0554C77.1319 72.0137 80.2162 71.1478 80.9235 68.5779C81.5925 66.1469 79.91 64.0961 76.2074 61.7659C71.1474 58.653 68.2859 55.7155 69.3372 51.8954C70.3503 48.2142 74.3395 46.2374 79.5587 46.8669L80.782 42.4216L84.1468 43.258L82.9617 47.5643C86.2373 48.4527 88.2893 49.7048 89.6213 50.8522L87.0532 53.9242C86.0846 53.0898 84.3129 51.9074 80.8079 51.0362C76.6019 49.9907 74.7157 50.8576 74.2378 52.594C73.607 54.8861 75.315 56.5721 79.572 59.3371C84.6639 62.6063 86.9072 65.6127 85.8368 69.5023C84.8811 72.9751 80.892 75.7682 75.0737 75.1383L73.8886 79.4446L70.3836 78.5734Z" fill="#FFD247"/>
<path d="M84.1234 43.2842L80.2456 42.3071L70.4258 78.4784L74.3036 79.4555L84.1234 43.2842Z" fill="#FFD247"/>
<path d="M70.3679 85.6441C56.4976 82.2042 48.3085 68.2577 52.0959 54.526C55.8834 40.7943 70.2247 32.4354 84.095 35.8753C97.9653 39.3152 106.154 53.2617 102.367 66.9934C98.5796 80.7251 84.2382 89.084 70.3679 85.6441ZM83.5567 37.827C70.7425 34.6491 57.5472 42.3984 54.0673 55.0149C50.5682 67.701 58.1624 80.5318 70.9062 83.6924C83.7204 86.8703 96.9158 79.1209 100.396 66.5045C103.895 53.8183 96.3709 41.005 83.5567 37.827Z" fill="#F7A605"/>
<rect x="6.17773" y="78.0352" width="129.097" height="22.0955" fill="#00BE40"/>
<path d="M143.894 132.489H101.231C94.3018 132.489 88.6685 127.01 88.6685 120.272C88.6685 113.534 94.3018 108.056 101.231 108.056H143.894C147.556 108.056 150.522 110.941 150.522 114.502V126.043C150.522 129.603 147.556 132.489 143.894 132.489Z" fill="#00BE40"/>
<path opacity="0.6" d="M139.202 133.274H100.39C93.4289 133.274 87.7676 127.418 87.7676 120.218C87.7676 113.017 93.4289 107.161 100.39 107.161H139.11C139.221 107.161 139.314 107.257 139.314 107.372C139.314 107.488 139.221 107.584 139.11 107.584H100.39C93.6517 107.584 88.1759 113.248 88.1759 120.218C88.1759 127.187 93.6517 132.852 100.39 132.852H139.202C139.314 132.852 139.407 132.948 139.407 133.063C139.407 133.178 139.314 133.274 139.202 133.274Z" fill="#09544F"/>
<path d="M110.35 126.639C114.068 123.024 114.068 117.162 110.35 113.546C106.632 109.931 100.604 109.931 96.8866 113.546C93.1687 117.162 93.1687 123.024 96.8866 126.639C100.605 130.255 106.632 130.255 110.35 126.639Z" fill="#09544F"/>
<path d="M199.57 33.6377L185.055 43.3342L168.193 42.9142L164.23 43.9185L163.93 48.3376L166.427 51.1863L184.604 53.1767C186.238 53.5967 189.224 53.3411 190.463 52.4646L208.508 42.4759L199.57 33.6377Z" fill="#09544F"/>
<path opacity="0.99" d="M235.812 156.058C235.849 156.698 235.849 157.391 235.511 157.939C234.985 158.779 233.859 158.98 232.864 159.09C232.319 159.163 231.774 159.218 231.23 159.126C230.685 159.035 230.16 158.743 229.915 158.286C229.746 157.994 229.709 157.647 229.671 157.318C229.39 154.762 228.676 152.205 228.394 149.649C228.338 149.119 228.282 148.517 228.582 148.06C228.958 147.458 229.765 147.312 230.498 147.257C231.587 147.202 232.676 147.293 233.727 147.512C235.004 147.786 235.023 148.024 235.079 149.265C235.154 151.53 235.699 153.794 235.812 156.058Z" fill="#E1F0FA"/>
<path opacity="0.99" d="M214.837 156.624C214.837 157.191 214.837 157.793 214.517 158.268C213.973 159.071 212.809 159.144 211.832 159.09C210.95 159.035 210.086 158.944 209.203 158.816C208.79 158.761 208.339 158.651 208.095 158.341C207.87 158.049 207.851 157.647 207.87 157.264C207.908 155.091 207.945 152.899 207.983 150.726C208.001 149.868 208.058 148.918 208.696 148.334C209.522 147.585 210.837 147.841 211.888 148.206C213.353 148.718 214.724 148.991 214.818 150.635C214.93 152.607 214.837 154.634 214.837 156.624Z" fill="#E1F0FA"/>
<path d="M228.939 81.9741C220.489 82.9967 211.926 83.088 203.439 82.2845C203.307 78.742 203.176 75.2176 203.045 71.6751C203.026 71.0542 203.007 70.3968 203.383 69.9038C203.965 69.1368 205.11 69.1186 206.087 69.2099C212.114 69.6846 218.142 70.3055 224.132 71.0359C226.78 71.3646 228.226 71.0177 228.601 73.702C228.733 74.3594 228.995 81.9741 228.939 81.9741Z" fill="#BBCBFF"/>
<path d="M228.695 69.6117L236.093 149.229C236.093 149.229 236.356 150.763 232.3 150.891C228.225 151.018 227.981 150.197 227.981 150.197L217.034 83.4533L214.593 82.9238L215.644 150.416C215.644 150.416 214.874 151.256 210.799 151.128C206.725 151 206.631 149.941 206.631 149.941C206.631 149.941 204.396 122.239 203.439 100.089C202.481 77.9203 203.439 68.2969 203.439 68.2969L228.695 69.6117Z" fill="#262D39"/>
<path d="M214.95 156.916L214.518 157.117C212.508 158.03 210.18 157.994 208.208 157.026L207.739 156.789L205.316 159.473C204.133 160.788 202.65 161.792 200.998 162.431L198.65 163.344C197.73 163.709 197.073 164.513 196.96 165.481L196.81 166.649C196.735 167.252 197.223 167.782 197.843 167.782H216.377C217.109 167.782 217.672 167.161 217.578 166.467L217.071 162.066C216.959 161.043 216.64 160.057 216.17 159.144L214.95 156.916Z" fill="#262D39"/>
<path d="M235.962 156.423L238.497 159.692C239.323 160.751 240.318 161.664 241.464 162.376L242.778 163.198C243.83 163.855 244.581 164.878 244.938 166.047C245.219 166.978 244.506 167.928 243.529 167.928H231.437C229.728 167.928 228.395 166.485 228.526 164.787L229.409 156.496L230.197 156.807C232.131 157.537 233.746 157.428 235.455 156.606L235.962 156.423Z" fill="#262D39"/>
<path d="M157.776 73.039C172.157 72.0476 182.989 59.9067 181.969 45.9217C180.95 31.9367 168.465 21.4033 154.084 22.3948C139.703 23.3862 128.872 35.527 129.891 49.512C130.911 63.4971 143.395 74.0304 157.776 73.039Z" fill="#FCBC00"/>
<path d="M153.951 67.1818V62.7412C150.526 62.6672 146.949 61.557 144.895 60.3728L146.569 56.9683C148.7 58.0785 151.516 58.9666 154.788 58.9666C158.974 58.9666 161.866 57.3384 161.866 54.6C161.866 52.0096 159.583 50.3814 155.169 48.9752C149.156 47.125 145.427 44.9047 145.427 40.8341C145.427 36.9115 148.928 33.9511 154.408 33.285V28.5483H158.061V33.137C161.638 33.211 164.073 33.9511 165.748 34.7652L163.997 38.4657C162.779 37.8737 160.648 37.1336 156.843 37.1336C152.277 37.1336 150.602 38.4657 150.602 40.316C150.602 42.7583 152.81 44.0165 157.909 45.7188C163.997 47.717 167.117 50.1594 167.117 54.304C167.117 58.0045 163.845 61.779 157.756 62.5931V67.1818H153.951Z" fill="#FFD247"/>
<path d="M158.137 28.4746H153.875V67.1821H158.137V28.4746Z" fill="#FFD247"/>
<path d="M155.93 74.1388C140.937 74.1388 128.76 62.2972 128.76 47.7171C128.76 33.1371 140.937 21.2954 155.93 21.2954C170.922 21.2954 183.099 33.1371 183.099 47.7171C183.099 62.2972 170.922 74.1388 155.93 74.1388ZM155.93 23.3677C142.078 23.3677 130.891 34.3212 130.891 47.7171C130.891 61.187 142.154 72.0665 155.93 72.0665C169.781 72.0665 180.968 61.113 180.968 47.7171C180.968 34.2472 169.781 23.3677 155.93 23.3677Z" fill="#F7A605"/>
<path d="M216.864 28.5063C216.864 28.5063 224.338 28.7985 228.45 31.9211C232.563 35.062 232.262 47.315 231.38 53.5967C230.497 59.8784 230.215 66.7079 230.215 66.7079L228.751 70.2687L221.916 71.7661C216.62 72.9348 211.081 72.5879 205.973 70.78L203.401 69.867C203.401 69.867 202.499 67.9131 202.349 66.1235C201.936 61.0836 201.823 51.6245 200.734 46.8767C199.213 40.1933 199.57 33.6194 199.57 33.6194L208.377 29.7663L216.864 28.5063Z" fill="#09544F"/>
<path d="M184.905 59.0386L176.68 60.9925L171.798 62.6177C172.436 63.3664 173.432 63.7133 174.408 63.549L176.549 63.202C175.873 64.7177 174.802 66.0507 173.45 67.0551L172.756 67.5664L171.892 68.5342L169.413 71.4559H171.704C172.098 71.4559 172.474 71.3829 172.849 71.2551L176.492 69.9038C177.281 69.6298 178.99 69.0272 179.835 68.6072L185.9 64.3525L184.905 59.0386Z" fill="#F4C178"/>
<path d="M210.33 34.0578C209.879 34.0395 209.428 34.0213 208.996 33.8752C208.583 33.7291 208.189 33.4369 208.02 33.0352C207.87 32.6335 208.283 32.1769 208.677 31.9761C208.602 30.7526 208.377 29.4743 208.17 28.2326C206.537 28.3422 205.091 27.21 204.321 25.8039C203.551 24.3978 203.344 22.7726 203.157 21.1839C202.762 17.7692 202.368 14.3361 201.955 10.9214C201.88 10.2275 202.03 9.47877 202.405 8.89442C203.119 7.83529 204.49 7.37877 205.785 7.23268C208.358 6.94051 211.043 7.54311 213.221 8.93093C213.991 9.42398 214.705 10.0266 215.193 10.7935C216.113 12.2727 216.019 14.1718 216.62 15.797C216.827 15.7057 217.052 15.6509 217.296 15.6509C217.916 15.6509 218.517 16.0161 218.874 16.5092C219.23 17.0022 219.381 17.6413 219.362 18.2439C219.362 18.9561 219.136 19.6866 218.611 20.1796C217.897 20.8552 216.789 20.9283 215.794 20.9648C216.113 24.1422 216.489 27.3196 216.808 30.497C216.864 31.063 216.921 31.6474 216.695 32.1587C216.489 32.6335 216.076 32.9987 215.606 33.2726C214.104 34.2039 212.151 34.1491 210.33 34.0578Z" fill="#F4C178"/>
<path d="M212.039 31.7935C211.006 31.9213 209.766 31.8666 208.809 31.0814C208.527 30.844 208.32 30.3327 208.283 30.3144C208.283 30.3144 207.851 30.5883 207.588 30.8257C207.175 31.2274 207.325 31.9031 207.551 32.4327C208.095 33.784 208.94 35.1718 210.349 35.6831C211.175 35.9935 212.095 35.9387 212.977 35.884C214.423 35.7927 215.944 35.6831 217.109 34.8614C218.104 34.1674 218.686 33.0353 218.968 31.8848C219.268 30.6431 218.536 28.5248 216.846 28.5431C216.846 28.5431 216.188 29.5657 215.738 29.9674C215.156 30.4787 213.203 31.6474 212.039 31.7935Z" fill="#09544F"/>
<path d="M216.583 17.0387C215.137 15.2491 213.785 12.7109 212.339 10.9213C208.903 10.8117 205.429 11.177 202.087 11.9074C201.279 10.8483 201.523 9.25956 202.293 8.18218C203.063 7.10479 204.152 6.1735 205.429 5.7535C206.894 5.27872 208.696 4.95003 210.236 5.15089C211.701 5.35176 213.09 5.80828 214.367 6.53871C215.269 7.05001 215.87 7.87174 216.433 8.74826C216.959 9.55173 217.353 10.8117 217.56 11.743C217.747 12.5465 217.916 13.3682 217.86 14.19C217.804 14.9935 217.278 16.5639 216.583 17.0387Z" fill="#262D39"/>
<path d="M221.578 40.3213L206.931 53.1221L184.473 59.1847L185.637 64.316L208.283 59.5134C209.485 59.4221 210.63 58.9108 211.494 58.0708L225.427 45.0326L221.578 40.3213Z" fill="#F4C178"/>
<path d="M184.454 59.1664L186.351 57.5959C187.027 57.0298 187.853 56.6829 188.735 56.5551L205.861 51.3142L221.259 37.3447L231.079 46.0369L213.672 59.2394C212.02 60.4811 210.029 61.2663 207.964 61.449L190.181 64.8455C189.9 64.8455 189.599 64.8455 189.318 64.7907L185.938 64.2794C186.388 62.5081 185.9 60.6272 184.604 59.2759L184.454 59.1664Z" fill="#09544F"/>
<path d="M201.617 52.8118C201.542 52.8118 201.467 52.757 201.43 52.684C201.392 52.5927 201.448 52.4831 201.561 52.4466L205.786 51.1501L220.151 38.1119C220.226 38.0389 220.339 38.0389 220.414 38.1119C220.489 38.185 220.489 38.2945 220.414 38.3676L206.03 51.424C206.011 51.4422 205.993 51.4605 205.955 51.4605L201.692 52.757C201.655 52.8118 201.636 52.8118 201.617 52.8118Z" fill="#E1F0FA"/>
<path d="M202.744 62.5266C202.65 62.5266 202.575 62.4718 202.556 62.3805C202.537 62.2892 202.612 62.1796 202.706 62.1613L207.926 61.2848C209.992 61.084 211.926 60.3353 213.56 59.0935L229.671 46.8953C229.746 46.8405 229.878 46.8405 229.934 46.9318C229.99 47.0049 229.99 47.1327 229.896 47.1875L213.785 59.3857C212.095 60.664 210.086 61.4309 207.964 61.65L202.762 62.5266H202.744Z" fill="#E1F0FA"/>
</svg>
