<svg id="Layer_1" data-name="Layer 1" xmlns="http://www.w3.org/2000/svg" viewBox="0 0 486.02 417.65"><defs><style>.cls-1{fill:#c1c1c1;}.cls-2{fill:#fe9595;}.cls-3{opacity:0.39;}.cls-4{fill:#efc849;}.cls-5{fill:#fff;}.cls-6{opacity:0.15;}.cls-7{fill:#3a5c91;}.cls-8{fill:#a4e4ff;}.cls-9{fill:#ff9797;}.cls-10{fill:#ff7575;}.cls-11{fill:#89d9a2;}</style></defs><title>Untitled-1</title><path class="cls-1" d="M555.46,180.32a2.14,2.14,0,0,1-2.14-2.14v-18a2.15,2.15,0,1,1,4.29,0v18A2.14,2.14,0,0,1,555.46,180.32Z" transform="translate(-254.18 -158.03)"/><path class="cls-1" d="M564.46,171.32H547.32a2.15,2.15,0,0,1,0-4.29h17.14a2.15,2.15,0,1,1,0,4.29Z" transform="translate(-254.18 -158.03)"/><path class="cls-2" d="M723.07,331.8a1.72,1.72,0,0,1-1.7-1.41c-2-10.84-3.18-12-14-14a1.73,1.73,0,0,1,0-3.4c10.83-2,12-3.17,14-14a1.73,1.73,0,0,1,3.4,0c2,10.84,3.17,12,14,14a1.73,1.73,0,0,1,0,3.4c-10.84,2-12,3.17-14,14A1.73,1.73,0,0,1,723.07,331.8ZM715,314.68c4.37,1.51,6.57,3.7,8.08,8.07,1.51-4.37,3.7-6.56,8.07-8.07-4.37-1.51-6.56-3.71-8.07-8.08C721.56,311,719.36,313.17,715,314.68Z" transform="translate(-254.18 -158.03)"/><g class="cls-3"><path class="cls-4" d="M270.71,287.68H257.18a3,3,0,0,1,0-6h13.53a3,3,0,0,1,0,6Z" transform="translate(-254.18 -158.03)"/><path class="cls-4" d="M296.18,287.68H282.65a3,3,0,0,1,0-6h13.53a3,3,0,0,1,0,6Z" transform="translate(-254.18 -158.03)"/><path class="cls-4" d="M276.68,305.68a3,3,0,0,1-3-3V290.19a3,3,0,0,1,6,0v12.49A3,3,0,0,1,276.68,305.68Z" transform="translate(-254.18 -158.03)"/><path class="cls-4" d="M276.68,282.17a3,3,0,0,1-3-3V266.68a3,3,0,0,1,6,0v12.49A3,3,0,0,1,276.68,282.17Z" transform="translate(-254.18 -158.03)"/></g><rect class="cls-5" x="234.05" y="127.65" width="38" height="286.37"/><polygon class="cls-6" points="274.19 228.01 236.19 235.01 236.19 206.01 274.19 206.01 274.19 228.01"/><path class="cls-7" d="M529.37,575.05h-44l-.29-292.37h44Zm-38-6h32l-.28-280.37h-32Z" transform="translate(-254.18 -158.03)"/><path class="cls-7" d="M516.37,481.05a2,2,0,0,1-2-2v-9a2,2,0,0,1,4,0v9A2,2,0,0,1,516.37,481.05Z" transform="translate(-254.18 -158.03)"/><path class="cls-7" d="M516.37,462.69a2,2,0,0,1-2-2V407.05a2,2,0,0,1,4,0v53.64A2,2,0,0,1,516.37,462.69Z" transform="translate(-254.18 -158.03)"/><polygon class="cls-8" points="215.23 207.01 167.19 158.98 167.19 91.05 215.23 43.01 283.16 43.01 331.19 91.05 331.19 158.98 283.16 207.01 215.23 207.01"/><path class="cls-7" d="M537.33,369.05H469.4a4,4,0,0,1-2.83-1.18l-48-48a4,4,0,0,1-1.17-2.83V249.08a4,4,0,0,1,1.17-2.83l48-48a4,4,0,0,1,2.83-1.17h67.93a4,4,0,0,1,2.83,1.17l48,48a4,4,0,0,1,1.17,2.83V317a4,4,0,0,1-1.17,2.83l-48,48A4,4,0,0,1,537.33,369.05Zm-66.27-8h64.62l45.69-45.7V250.74l-45.69-45.69H471.06l-45.69,45.69v64.61Z" transform="translate(-254.18 -158.03)"/><polygon class="cls-9" points="279.66 51.47 218.73 51.47 175.65 94.55 175.65 155.48 218.73 198.56 279.66 198.56 322.74 155.48 322.74 94.55 279.66 51.47"/><polygon class="cls-10" points="220.48 194.33 179.87 153.73 179.87 96.3 220.48 55.69 277.9 55.69 318.51 96.3 318.51 153.73 277.9 194.33 220.48 194.33"/><path class="cls-5" d="M581.86,247.63l-43.08-43.08-2-2.05H470L468,204.55l-43.08,43.08-2.05,2.05v66.73l2.05,2L468,361.54l2.05,2h66.73l2-2,43.08-43.08,2-2V249.68Zm-9.17,6.7v57.43l-40.61,40.61H474.65l-40.6-40.61V254.33l40.6-40.6h57.43Z" transform="translate(-254.18 -158.03)"/><path class="cls-5" d="M459.7,291.22l15.08-35.65h9v35.65h3.92v7.54h-3.92v9.57h-8.29v-9.57H459.7Zm15.83,0V271.7h-.15l-8.07,19.52Z" transform="translate(-254.18 -158.03)"/><path class="cls-5" d="M490.83,268.23c0-8.44,4.44-13.26,12.58-13.26S516,259.79,516,268.23v27.44c0,8.44-4.45,13.26-12.59,13.26s-12.58-4.82-12.58-13.26Zm8.29,28c0,3.77,1.65,5.2,4.29,5.2s4.3-1.43,4.3-5.2V267.71c0-3.77-1.66-5.2-4.3-5.2s-4.29,1.43-4.29,5.2Z" transform="translate(-254.18 -158.03)"/><path class="cls-5" d="M519.39,291.22l15.07-35.65h9v35.65h3.92v7.54H543.5v9.57h-8.29v-9.57H519.39Zm15.82,0V271.7h-.15L527,291.22Z" transform="translate(-254.18 -158.03)"/><path class="cls-11" d="M442.37,516.05c15.69,15.73,34.64,24.85,31,56h27C487.19,527.93,461.38,513,442.37,516.05Z" transform="translate(-254.18 -158.03)"/><path class="cls-7" d="M500.37,575.05h-27a3,3,0,0,1-3-3.35c2.79-23.86-8.31-33.75-21.17-45.21-3-2.63-6-5.36-9-8.33a3,3,0,0,1,1.65-5.08c20.91-3.34,48,13.33,61.35,58.11a3,3,0,0,1-2.87,3.86Zm-23.71-6h19.62c-11.09-33.69-30.2-49-46.7-50.29,1.22,1.1,2.43,2.19,3.63,3.25C465.59,533,478.37,544.42,476.66,569.05Z" transform="translate(-254.18 -158.03)"/><path class="cls-11" d="M482.37,494.05q14.75,39,8.39,78h26.61C517.43,534,506.61,507.17,482.37,494.05Z" transform="translate(-254.18 -158.03)"/><path class="cls-7" d="M517.37,575.05H490.76a3,3,0,0,1-3-3.49c4.14-25.35,1.36-51.07-8.24-76.45a3,3,0,0,1,4.24-3.7c24.32,13.16,36.63,40.3,36.57,80.64A3,3,0,0,1,517.37,575.05Zm-23.12-6h20.1c-.45-32.57-9.08-54.88-26.29-67.81A151.59,151.59,0,0,1,494.25,569.05Z" transform="translate(-254.18 -158.03)"/><path class="cls-11" d="M556.37,510.05c-14,30.78-19.55,45.59-9.19,62H508.37C520.86,538.49,536.55,523,556.37,510.05Z" transform="translate(-254.18 -158.03)"/><path class="cls-7" d="M547.18,575.05H508.37a3,3,0,0,1-2.47-1.29,3,3,0,0,1-.34-2.76c12.83-34.46,28.93-50.3,49.17-63.47a3,3,0,0,1,4.37,3.76c-14.19,31.24-18.68,44.43-9.39,59.16a3,3,0,0,1-2.53,4.6Zm-34.44-6h29.37c-6.69-14.29-2.47-28.51,7.08-50.31C534.76,529.71,522.75,543.87,512.74,569.05Z" transform="translate(-254.18 -158.03)"/><path class="cls-7" d="M616.18,575.68h-278a3,3,0,1,1,0-6h278a3,3,0,0,1,0,6Z" transform="translate(-254.18 -158.03)"/><path class="cls-7" d="M645.18,575.68h-12a3,3,0,0,1,0-6h12a3,3,0,0,1,0,6Z" transform="translate(-254.18 -158.03)"/></svg>