<svg xmlns="http://www.w3.org/2000/svg" viewBox="0 0 612 612"><defs><style>.cls-1{fill:#8abd3c;}</style></defs><title>Accept</title><g id="Layer_2" data-name="Layer 2"><g id="Capa_1" data-name="Capa 1"><g id="Check"><path class="cls-1" d="M306,0C137,0,0,137,0,306S137,612,306,612,612,475,612,306,475,0,306,0Zm0,554.6C168.9,554.6,57.4,443.1,57.4,306S168.9,57.4,306,57.4,554.6,168.9,554.6,306,443.1,554.6,306,554.6Zm125.5-344a28.41,28.41,0,0,0-21.4,8.2L277.3,351.5,202,276.2a28.64,28.64,0,0,0-40.5,40.5l95.6,95.6a28.73,28.73,0,0,0,40.6,0l153-153a29,29,0,0,0,0-40.5A29,29,0,0,0,431.5,210.6Z"/></g></g></g></svg>