<svg xmlns="http://www.w3.org/2000/svg" viewBox="0 0 397.13 377.76"><defs><style>.cls-1{fill:#c1c1c1;}.cls-2{fill:#fe9595;}.cls-3{fill:#ffd599;}.cls-4{fill:#fff;}.cls-5{fill:#cdd3db;}.cls-6{fill:#3a5c91;}.cls-7{fill:#a4e4ff;}.cls-8{fill:#d4f2ff;}.cls-9{fill:#97d1eb;}.cls-10{fill:#d9d9d9;}.cls-11{fill:#ff9797;}.cls-12{fill:#b8b8b8;}.cls-13{fill:#fff7e0;}.cls-14{fill:#89d9a2;}.cls-15{fill:#7497c9;}.cls-16{fill:#83aae3;}.cls-17{fill:#ced3e2;}</style></defs><title>i-address</title><g id="Layer_2" data-name="Layer 2"><g id="Layer_1-2" data-name="Layer 1"><path class="cls-1" d="M336.87,289.55a1.82,1.82,0,0,1-1.83-1.82V272.37a1.83,1.83,0,0,1,3.66,0v15.36A1.82,1.82,0,0,1,336.87,289.55Z"/><path class="cls-1" d="M344.55,281.87H329.92a1.83,1.83,0,1,1,0-3.65h14.63a1.83,1.83,0,1,1,0,3.65Z"/><path class="cls-2" d="M259.34,65a1.83,1.83,0,0,1-1.83-1.83V48.55a1.83,1.83,0,0,1,3.66,0V63.18A1.83,1.83,0,0,1,259.34,65Z"/><path class="cls-2" d="M267,57.33H252.39a1.83,1.83,0,1,1,0-3.66H267a1.83,1.83,0,1,1,0,3.66Z"/><path class="cls-2" d="M373,169.85a1.48,1.48,0,0,1-1.45-1.21c-1.7-9.25-2.71-10.25-12-11.95a1.47,1.47,0,0,1,0-2.9c9.25-1.71,10.26-2.71,12-12a1.47,1.47,0,0,1,2.9,0c1.7,9.25,2.71,10.25,12,12a1.48,1.48,0,0,1,0,2.9c-9.25,1.7-10.26,2.7-12,11.95A1.48,1.48,0,0,1,373,169.85Zm-6.89-14.61a9.82,9.82,0,0,1,6.89,6.89,9.82,9.82,0,0,1,6.89-6.89,9.81,9.81,0,0,1-6.89-6.9A9.81,9.81,0,0,1,366.12,155.24Z"/><path class="cls-3" d="M22.73,233.4a4.32,4.32,0,0,1-2.11.77,4.39,4.39,0,0,1-4-1.83L.83,210.17a4.42,4.42,0,0,1,3.18-7l27.08-2.58a4.42,4.42,0,0,1,4.44,6.24L24.22,231.61h0A4.36,4.36,0,0,1,22.73,233.4Zm.15-2.4h0ZM3.59,206.39a1.49,1.49,0,0,0-.36,2.07L19,230.63a1.47,1.47,0,0,0,2.54-.25l11.3-24.73a1.48,1.48,0,0,0-.13-1.47,1.44,1.44,0,0,0-1.34-.61L4.29,206.14A1.45,1.45,0,0,0,3.59,206.39Z"/><rect class="cls-4" x="231.17" y="221.6" width="34.13" height="153.6"/><polygon class="cls-5" points="233.27 238.86 248.06 240.03 263.67 241.16 263.67 221.89 233.27 221.89 233.27 238.86"/><path class="cls-6" d="M265.3,377.76H231.17a2.56,2.56,0,0,1-2.56-2.56V221.6a2.55,2.55,0,0,1,2.56-2.56H265.3a2.55,2.55,0,0,1,2.56,2.56V375.2A2.56,2.56,0,0,1,265.3,377.76Zm-31.57-5.12h29V224.16h-29Z"/><path class="cls-7" d="M337.64,152.44v68.21a4.67,4.67,0,0,1-4.67,4.67H144.79V152.56a28,28,0,0,1,28-27.93H309.57a28.32,28.32,0,0,1,7,.87,28,28,0,0,1,18.33,15,26.1,26.1,0,0,1,1.73,4.54A27.92,27.92,0,0,1,337.64,152.44Z"/><rect class="cls-8" x="200.45" y="146.5" width="137.39" height="13.65"/><path class="cls-9" d="M337.48,152.42v68.36a4.67,4.67,0,0,1-4.67,4.67H145s184.06,0,189.74-85a27.33,27.33,0,0,1,1.72,4.55A28,28,0,0,1,337.48,152.42Z"/><path class="cls-6" d="M333,227.88H142.23V152.56a30.58,30.58,0,0,1,30.6-30.49H309.57a31.39,31.39,0,0,1,7.63.94,30.44,30.44,0,0,1,20,16.36,29.41,29.41,0,0,1,1.88,5,30.1,30.1,0,0,1,1.11,8.11v68.21A7.23,7.23,0,0,1,333,227.88Zm-185.62-5.12H333a2.12,2.12,0,0,0,2.11-2.11V152.44a25.24,25.24,0,0,0-.92-6.74,23.68,23.68,0,0,0-1.56-4.1,25.51,25.51,0,0,0-23-14.41H172.83a25.45,25.45,0,0,0-25.48,25.37Z"/><path class="cls-4" d="M221.94,166.07h0a4.51,4.51,0,0,0,4.51-4.51v-87h-9v87A4.51,4.51,0,0,0,221.94,166.07Z"/><path class="cls-6" d="M221.94,168.63a7.08,7.08,0,0,1-7.08-7.07v-87A2.56,2.56,0,0,1,217.42,72h9A2.56,2.56,0,0,1,229,74.53v87A7.08,7.08,0,0,1,221.94,168.63Zm-2-91.54v84.47a2,2,0,0,0,3.91,0V77.09Z"/><path class="cls-10" d="M171.88,124.63H160a28,28,0,0,0-28,28v72.69h68.26V153A28.46,28.46,0,0,0,171.88,124.63Z"/><path class="cls-6" d="M200.25,227.88H132a2.55,2.55,0,0,1-2.56-2.56V152.63A30.6,30.6,0,0,1,160,122.07h11.89A31,31,0,0,1,202.81,153v72.32A2.55,2.55,0,0,1,200.25,227.88Zm-65.7-5.12h63.14V153a25.84,25.84,0,0,0-25.81-25.81H160a25.47,25.47,0,0,0-25.44,25.44Z"/><path class="cls-4" d="M133.69,225.32l-19.43,30.24c-3,9.48,6.77,18.85,21.34,20.85l11.08,1.52c14.57,2,26.82-3.83,31.78-13.55l21.79-39.06Z"/><path class="cls-6" d="M152.36,280.89a44.64,44.64,0,0,1-6-.42L135.26,279c-9.67-1.33-17.76-5.79-21.66-11.94a14.27,14.27,0,0,1-1.79-12.22,2.7,2.7,0,0,1,.29-.62l19.44-30.23a2.54,2.54,0,0,1,2.15-1.18h66.56a2.57,2.57,0,0,1,2.24,3.81l-21.78,39C175.78,275.22,165,280.89,152.36,280.89Zm-35.75-24.26a9.21,9.21,0,0,0,1.31,7.64c3.06,4.81,10,8.5,18,9.61L147,275.4c13,1.79,24.46-3,29.14-12.18l.05-.09,19.67-35.25h-60.8Z"/><rect class="cls-11" x="218" y="74.53" width="36.1" height="23.85" rx="0.93"/><path class="cls-6" d="M253.17,101H218.94a3.5,3.5,0,0,1-3.5-3.5v-22a3.5,3.5,0,0,1,3.5-3.5h34.23a3.5,3.5,0,0,1,3.49,3.5v22A3.5,3.5,0,0,1,253.17,101Zm-32.61-5.12h31V77.09h-31Z"/><path class="cls-12" d="M171.88,127.19h-11.7a25.93,25.93,0,0,0-20.62,10,26.33,26.33,0,0,1,15.31-4.84h9.33A25.82,25.82,0,0,1,190,158.12v64.64h7.68V153A25.81,25.81,0,0,0,171.88,127.19Z"/><rect class="cls-13" x="117.48" y="157.91" width="82.77" height="67.41"/><path class="cls-6" d="M200.25,227.88H117.48a2.56,2.56,0,0,1-2.56-2.56V157.91a2.56,2.56,0,0,1,2.56-2.56h82.77a2.55,2.55,0,0,1,2.56,2.56v67.41A2.55,2.55,0,0,1,200.25,227.88ZM120,222.76h77.65V160.47H120Z"/><polygon class="cls-4" points="199.4 157.91 117.62 157.91 162.9 193.75 199.4 163.96 199.4 157.91"/><path class="cls-6" d="M162.9,195.45a1.74,1.74,0,0,1-1.06-.36l-45.27-35.84a1.71,1.71,0,0,1,1.05-3.05H199.4a1.72,1.72,0,0,1,1.71,1.71V164a1.71,1.71,0,0,1-.63,1.33L164,195.07A1.68,1.68,0,0,1,162.9,195.45Zm-40.37-35.84,40.36,31.95,34.8-28.41v-3.54Z"/><path class="cls-6" d="M150.42,202a1.72,1.72,0,0,0-2.38-.4l-30.47,21.66v4.18L150,204.35A1.7,1.7,0,0,0,150.42,202Z"/><path class="cls-6" d="M200.16,217.22,173.5,198.16a1.71,1.71,0,0,0-2,2.78l28.65,20.48Z"/><path class="cls-14" d="M197.89,331l15.36,44.17h12.8C222.35,343.79,197.89,331,197.89,331Z"/><path class="cls-6" d="M226.05,377.76h-12.8a2.56,2.56,0,0,1-2.42-1.72l-15.36-44.17a2.56,2.56,0,0,1,3.6-3.11c1.05.55,25.71,13.76,29.52,46.14a2.54,2.54,0,0,1-.63,2A2.57,2.57,0,0,1,226.05,377.76Zm-11-5.12h8a57,57,0,0,0-20.21-35Z"/><path class="cls-14" d="M241.41,309c7.54,21.48,5.58,43.64-2.56,66.25h-12.8C225.27,329.59,240.56,314.1,241.41,309Z"/><path class="cls-6" d="M238.85,377.76h-12.8a2.56,2.56,0,0,1-2.56-2.52c-.62-36.43,8.85-54.06,13.4-62.52a22.75,22.75,0,0,0,2-4.19,2.56,2.56,0,0,1,4.94-.43c7.28,20.73,6.45,43-2.56,68A2.57,2.57,0,0,1,238.85,377.76Zm-10.27-5.12H237c7.16-20.66,8.44-39.25,3.87-56.59C236.53,324.25,228.45,340.48,228.58,372.64Z"/><path class="cls-14" d="M290.9,331,275.54,375.2h-12.8C266.44,343.79,290.9,331,290.9,331Z"/><path class="cls-6" d="M275.54,377.76h-12.8a2.57,2.57,0,0,1-1.91-.86,2.54,2.54,0,0,1-.63-2c3.81-32.38,28.47-45.59,29.52-46.14a2.56,2.56,0,0,1,3.6,3.11L278,376A2.56,2.56,0,0,1,275.54,377.76Zm-9.85-5.12h8l12.17-35A57.29,57.29,0,0,0,265.69,372.64Z"/><path class="cls-14" d="M261.89,311.16c5.22,24.24,6.27,46.73-5.12,64H244C247.67,343.79,261.89,311.16,261.89,311.16Z"/><path class="cls-6" d="M256.77,377.76H244a2.57,2.57,0,0,1-1.91-.86,2.54,2.54,0,0,1-.63-2c3.7-31.42,18-64.44,18.11-64.77a2.56,2.56,0,0,1,4.85.49c4.36,20.22,7.67,46-5.48,66A2.58,2.58,0,0,1,256.77,377.76Zm-9.89-5.12h8.49c7.86-12.73,9.67-29.19,5.67-52.46C256.85,331.21,249.71,352.07,246.88,372.64Z"/><path class="cls-6" d="M255.06,258.29a1.7,1.7,0,0,1-1.7-1.71V231.84a1.71,1.71,0,1,1,3.41,0v24.74A1.71,1.71,0,0,1,255.06,258.29Z"/><path class="cls-6" d="M255.06,276.21a1.7,1.7,0,0,1-1.7-1.71v-9.38a1.71,1.71,0,1,1,3.41,0v9.38A1.71,1.71,0,0,1,255.06,276.21Z"/><path class="cls-6" d="M322.28,377.76H185.09a2.56,2.56,0,0,1,0-5.12H322.28a2.56,2.56,0,0,1,0,5.12Z"/><path class="cls-6" d="M166.32,377.76H145a2.56,2.56,0,0,1,0-5.12h21.34a2.56,2.56,0,0,1,0,5.12Z"/><path class="cls-15" d="M23,137.19c.89.6,1.78,1.13,2.65,1.6l.94-1.76c-.81-.44-1.64-.94-2.48-1.5Z"/><path class="cls-15" d="M18.15,133.43c.82.72,1.59,1.36,2.35,1.95l1.23-1.57c-.73-.58-1.47-1.19-2.26-1.88Z"/><path class="cls-15" d="M14.06,128.53a10.28,10.28,0,0,0,1.84,2.74l1.49-1.34a8.54,8.54,0,0,1-1.51-2.21Z"/><path class="cls-15" d="M18.12,116.78a22.61,22.61,0,0,0-2,2.43l1.63,1.15a19.85,19.85,0,0,1,1.81-2.21Z"/><path class="cls-15" d="M34.71,139.44l-.09,2,.77,0a17.75,17.75,0,0,0,2.41-.17l-.28-2A15.52,15.52,0,0,1,34.71,139.44Z"/><path class="cls-15" d="M16.32,122.8l-1.8-.88a9.81,9.81,0,0,0-1,3.17l2,.23A7.81,7.81,0,0,1,16.32,122.8Z"/><path class="cls-15" d="M28.47,140.1a22,22,0,0,0,3,.91l.44-1.95a19.32,19.32,0,0,1-2.73-.83Z"/><path class="cls-15" d="M40.28,138.68l.6,1.91a19.24,19.24,0,0,0,2.92-1.19l-.89-1.78A19,19,0,0,1,40.28,138.68Z"/><path class="cls-15" d="M34.45,108.45c-1,.18-2,.4-3,.67l.53,1.93c.93-.25,1.88-.46,2.84-.63Z"/><path class="cls-15" d="M37.69,110c1-.09,1.93-.14,2.92-.17l0-2c-1,0-2.07.09-3.06.18Z"/><path class="cls-15" d="M51.32,98.86c-.53-.86-1.1-1.72-1.7-2.56L48,97.47c.57.8,1.12,1.62,1.62,2.44Z"/><path class="cls-15" d="M21.68,116.2A23.5,23.5,0,0,1,24,114.51l-1.07-1.68a24.65,24.65,0,0,0-2.53,1.82Z"/><path class="cls-15" d="M52.33,105.09l1.83-.79c-.39-.92-.84-1.86-1.32-2.77l-1.77.92C51.53,103.32,52,104.21,52.33,105.09Z"/><path class="cls-15" d="M46.49,110.1l.19-2c-1-.1-2.07-.17-3-.2l-.08,2C44.5,109.94,45.49,110,46.49,110.1Z"/><path class="cls-15" d="M45.37,136.16l1.14,1.64a23.8,23.8,0,0,0,2.45-2l-1.35-1.48A22.23,22.23,0,0,1,45.37,136.16Z"/><path class="cls-15" d="M26.53,113.09c.85-.42,1.75-.8,2.66-1.15l-.7-1.87c-1,.37-1.93.78-2.84,1.23Z"/><path class="cls-15" d="M89.51,121.7c.91.39,1.81.8,2.71,1.21l.84-1.81c-.91-.43-1.83-.84-2.76-1.24Z"/><path class="cls-15" d="M94.91,124.2c.89.44,1.77.89,2.64,1.36l.94-1.77c-.89-.47-1.79-.94-2.69-1.39Z"/><path class="cls-15" d="M100.15,127c.86.49,1.71,1,2.55,1.52l1-1.7c-.86-.54-1.73-1-2.6-1.55Z"/><path class="cls-15" d="M84,119.47c.93.35,1.86.71,2.78,1.08l.75-1.85c-.94-.38-1.88-.75-2.82-1.1Z"/><path class="cls-15" d="M114.54,137.38c.72.66,1.44,1.34,2.13,2l1.41-1.41c-.71-.72-1.45-1.42-2.19-2.1Z"/><path class="cls-15" d="M105.2,130.11c.83.54,1.64,1.11,2.44,1.68l1.17-1.62c-.82-.59-1.66-1.17-2.5-1.73Z"/><path class="cls-15" d="M120.19,140.19l-1.47,1.35c.51.56,1,1.12,1.51,1.69l1.51-1.3C121.23,141.34,120.72,140.76,120.19,140.19Z"/><path class="cls-15" d="M78.36,117.48c1,.31,1.89.64,2.82,1l.67-1.89-2.86-1Z"/><path class="cls-15" d="M110,133.56c.78.61,1.55,1.23,2.3,1.86l1.29-1.52c-.77-.66-1.56-1.29-2.36-1.92Z"/><path class="cls-15" d="M54.58,122.1l2,.37a29,29,0,0,0,.4-3.09l-2-.14A24.83,24.83,0,0,1,54.58,122.1Z"/><path class="cls-15" d="M52.7,108.92c-1-.17-2-.33-3-.46l-.27,2c1,.13,2,.28,2.93.45Z"/><path class="cls-15" d="M72.67,115.71c1,.28,1.9.56,2.85.86l.6-1.91c-1-.3-1.93-.59-2.89-.87Z"/><path class="cls-15" d="M54.73,113.47c.13,1,.22,1.93.26,2.88l2-.08c0-1-.14-2-.28-3.09Z"/><path class="cls-15" d="M49.61,132.31l1.52,1.29A26.52,26.52,0,0,0,53,131.11L51.33,130A23.72,23.72,0,0,1,49.61,132.31Z"/><path class="cls-15" d="M52.76,127.51l1.79.88a22,22,0,0,0,1.2-2.89l-1.9-.64A21.71,21.71,0,0,1,52.76,127.51Z"/><path class="cls-15" d="M66.91,114.13c1,.24,1.92.5,2.88.77l.54-1.93c-1-.27-1.94-.53-2.92-.78Z"/><path class="cls-15" d="M61.11,112.71q1.45.33,2.91.69l.47-2c-1-.24-1.95-.47-2.93-.69Z"/><path class="cls-15" d="M55.27,107.18l-1.9.64c.31.93.58,1.87.81,2.8l1.33-.33-.23,1.15c1,.19,1.95.4,2.92.61l.43-2c-.89-.2-1.77-.39-2.66-.56C55.76,108.75,55.53,108,55.27,107.18Z"/><path class="cls-16" d="M25.26,56.47l.45,2.81L30.35,88.7l.27,1.67,1.59-.55,8.8-3,1.41-.49,3.19-1.1,1,5.6.2,1.09.53,3,.17,1,.78-2,1-2.72,3.14-8.22L62,78.68l2.68-1.17-2.58-1.38L27.78,57.81Zm2.07,4-.23-1.43,2.71,1.45L61.42,77.38l-9.27,4-.79.34-.24.63L48,90.54l-1.28-7.2h0l-1.41.48L31.75,88.48Z"/><polygon class="cls-16" points="45.59 84.22 46.71 83.35 32.74 65.06 51.45 82.58 52.42 81.54 27.34 58.07 26.29 59.02 45.59 84.22"/><polygon class="cls-16" points="40.52 86.17 41.01 86.78 47.51 95.81 47.51 95.08 47.9 94.79 48.29 93.77 46.98 92.83 42.42 86.29 41.64 85.3 40.52 86.17"/><path class="cls-4" d="M378.88,20.68A15.58,15.58,0,0,0,373,21.82a24.75,24.75,0,0,0-46-6.13,18.73,18.73,0,0,0-4.64-.58A18.47,18.47,0,0,0,322.07,52h56.81a15.69,15.69,0,1,0,0-31.37Z"/><path class="cls-17" d="M378.88,54.61H319.51v-.2a21,21,0,0,1,2.91-41.86,22.14,22.14,0,0,1,3.35.26,27.31,27.31,0,0,1,49,5.78,18.25,18.25,0,1,1,6.31,35.89v.12h-2.22ZM376,49.44l2.9.05A13.13,13.13,0,1,0,374,24.19l-2.78,1.12-.67-2.93a22.18,22.18,0,0,0-41.22-5.48l-.95,1.78-1.95-.51a16.3,16.3,0,0,0-4-.5,15.91,15.91,0,0,0-.3,31.81H376Z"/></g></g></svg>