<svg xmlns="http://www.w3.org/2000/svg" viewBox="0 0 24 20">
  <defs>
    <style>
      .cls-1 {
        fill: none;
        stroke: #b4b4b4;
        stroke-linecap: round;
        stroke-linejoin: round;
        stroke-width: 2px;
      }
    </style>
  </defs>
  <title>archive_icon</title>
  <g id="Layer_2" data-name="Layer 2">
    <g id="Layer_1-2" data-name="Layer 1">
      <polyline class="cls-1" points="21 6 21 19 3 19 3 6"/>
      <rect class="cls-1" x="1" y="1" width="22" height="5"/>
      <path fill="#b4b4b4" d="M14.09,15.82l-.41-1.08H10.19l-.41,1.11a4,4,0,0,1-.41.87.65.65,0,0,1-.56.22.82.82,0,0,1-.58-.24A.72.72,0,0,1,8,16.16,1.24,1.24,0,0,1,8,15.79c0-.12.1-.3.19-.52l2.2-5.58c.06-.16.14-.35.23-.57a2.43,2.43,0,0,1,.28-.56,1.12,1.12,0,0,1,.39-.36,1.11,1.11,0,0,1,.6-.14,1.17,1.17,0,0,1,.61.14,1.2,1.2,0,0,1,.39.35,2.64,2.64,0,0,1,.25.47c.07.16.16.38.26.66l2.25,5.54a3,3,0,0,1,.26.92.74.74,0,0,1-.25.55.82.82,0,0,1-.6.25.75.75,0,0,1-.35-.07.82.82,0,0,1-.25-.2,1.9,1.9,0,0,1-.21-.39C14.21,16.11,14.15,16,14.09,15.82Zm-3.44-2.38h2.56L11.92,9.89Z"/>
    </g>
  </g>
</svg>
