<svg version="1.1" id="Layer_1" xmlns="http://www.w3.org/2000/svg" xmlns:xlink="http://www.w3.org/1999/xlink" x="0px" y="0px"
     viewBox="0 0 486 435.6" style="enable-background:new 0 0 486 435.6;" xml:space="preserve">
<style type="text/css">
	.st0{fill:#C1C1C1;}
	.st1{fill:#FE9595;}
	.st2{opacity:0.39;}
	.st3{fill:#EFC849;}
	.st4{fill:#A4E4FF;}
	.st5{fill:#3A5C91;}
	.st6{fill:#FF9797;}
	.st7{fill:#FF7575;}
	.st8{fill:#FFFFFF;}
	.st9{opacity:0.2;}
</style>
  <title>Attention</title>
  <g>
	<g id="Isolation_Mode">
		<path class="st0" d="M301.3,40.3c-1.2,0-2.1-1-2.1-2.1c0,0,0,0,0,0v-18c0-1.2,1-2.1,2.1-2.1s2.1,1,2.1,2.1c0,0,0,0,0,0v18
			C303.4,39.3,302.5,40.3,301.3,40.3z"/>
    <path class="st0" d="M310.3,31.3h-17.1c-1.2,0-2.1-1-2.1-2.1c0-1.2,1-2.1,2.1-2.1h17.1c1.2,0,2.1,1,2.1,2.1
			C312.4,30.3,311.5,31.3,310.3,31.3L310.3,31.3z"/>
    <path class="st1" d="M468.9,191.8c-0.8,0-1.5-0.6-1.7-1.4c-2-10.8-3.2-12-14-14c-0.9-0.2-1.6-1.1-1.4-2c0.1-0.7,0.7-1.2,1.4-1.4
			c10.8-2,12-3.2,14-14c0.2-0.9,1.1-1.6,2-1.4c0.7,0.1,1.2,0.7,1.4,1.4c2,10.8,3.2,12,14,14c0.9,0.2,1.6,1.1,1.4,2
			c-0.1,0.7-0.7,1.2-1.4,1.4c-10.8,2-12,3.2-14,14C470.4,191.2,469.7,191.8,468.9,191.8z M460.8,174.6c4.4,1.5,6.6,3.7,8.1,8.1
			c1.5-4.4,3.7-6.6,8.1-8.1c-4.4-1.5-6.6-3.7-8.1-8.1C467.4,170.9,465.2,173.1,460.8,174.6L460.8,174.6z"/>
    <g class="st2">
			<path class="st3" d="M16.5,147.6H3c-1.7,0-3-1.3-3-3s1.3-3,3-3h13.5c1.7,0,3,1.3,3,3S18.2,147.6,16.5,147.6z"/>
      <path class="st3" d="M42,147.6H28.5c-1.7,0-3-1.3-3-3s1.3-3,3-3l0,0H42c1.7,0,3,1.3,3,3S43.7,147.6,42,147.6z"/>
      <path class="st3" d="M22.5,165.6c-1.7,0-3-1.3-3-3v-12.5c0-1.7,1.3-3,3-3s3,1.3,3,3v12.5C25.5,164.3,24.2,165.6,22.5,165.6z"/>
      <path class="st3" d="M22.5,142.1c-1.7,0-3-1.3-3-3v-12.5c0-1.7,1.3-3,3-3s3,1.3,3,3v12.5C25.5,140.8,24.2,142.1,22.5,142.1z"/>
		</g>
    <g>
			<polygon class="st4" points="194.7,334.4 126.4,266.1 126.4,169.5 194.7,101.3 291.3,101.3 359.5,169.5 359.5,266.1 291.3,334.4
							"/>
      <path class="st5" d="M291.3,340.1h-96.6c-1.5,0-3-0.6-4-1.7l-68.2-68.2c-1.1-1.1-1.7-2.5-1.7-4v-96.7c0-1.5,0.6-2.9,1.7-4
				l68.2-68.2c1.1-1.1,2.5-1.7,4-1.7h96.6c1.5,0,3,0.6,4,1.7l68.2,68.2c1.1,1.1,1.7,2.5,1.7,4v96.7c0,1.5-0.6,2.9-1.7,4l-68.2,68.2
				C294.2,339.5,292.8,340.1,291.3,340.1z M197.1,328.7h91.8l64.9-64.9v-91.8l-64.9-64.9h-91.8l-64.9,64.9v91.8L197.1,328.7z"/>
      <polygon class="st6" points="286.3,113.3 199.7,113.3 138.5,174.5 138.5,261.1 199.7,322.4 286.3,322.4 347.5,261.1 347.5,174.5
							"/>
      <polygon class="st7" points="202.2,316.3 144.5,258.6 144.5,177 202.2,119.3 283.8,119.3 341.5,177 341.5,258.6 283.8,316.3
				"/>
      <path class="st8" d="M354.6,167.5l-61.2-61.2l-2.9-2.8h-94.8l-2.9,2.8l-61.2,61.2l-2.8,2.8v94.8l2.8,2.8l61.2,61.2l2.9,2.9h94.8
				l2.9-2.9l61.2-61.2l2.9-2.8v-94.8L354.6,167.5z M341.5,177v81.6l-57.7,57.7h-81.6l-57.7-57.7V177l57.7-57.7h81.6L341.5,177z"/>
      <g class="st9">
				<path d="M243.4,248.3c-4.2,0-7.6,3.4-7.6,7.6c0,4.2,3.4,7.6,7.6,7.6c4.2,0,7.6-3.4,7.6-7.6c0-2-0.8-4-2.2-5.4
					C247.3,249.1,245.4,248.3,243.4,248.3z"/>
        <path d="M243.4,183.3c-4.2,0-7.6,3.4-7.6,7.6V235c0.2,4.2,3.7,7.4,7.9,7.3c3.9-0.2,7.1-3.3,7.3-7.3v-44.1
					C251,186.7,247.6,183.3,243.4,183.3z"/>
			</g>
      <path class="st8" d="M242.2,244.7c-4.2,0-7.6,3.4-7.6,7.6c0,4.2,3.4,7.6,7.6,7.6c4.2,0,7.6-3.4,7.6-7.6c0-2-0.8-4-2.2-5.4
				C246.1,245.4,244.2,244.6,242.2,244.7z"/>
      <path class="st8" d="M242.2,179.7c-4.2,0-7.6,3.4-7.6,7.6v44.1c0.2,4.2,3.7,7.4,7.9,7.3c3.9-0.2,7.1-3.3,7.3-7.3v-44.1
				C249.8,183.1,246.4,179.7,242.2,179.7z"/>
		</g>
    <path class="st5" d="M333.2,362.9H123.8c-1.7,0-3-1.3-3-3s1.3-3,3-3h209.4c1.7,0,3,1.3,3,3S334.9,362.9,333.2,362.9z"/>
    <path class="st5" d="M362.2,362.9h-12c-1.7,0-3-1.3-3-3s1.3-3,3-3h12c1.7,0,3,1.3,3,3S363.9,362.9,362.2,362.9z"/>
	</g>
</g>
</svg>
