<?xml version="1.0" encoding="UTF-8"?>
<svg width="26px" height="31px" viewBox="0 0 26 31" version="1.1" xmlns="http://www.w3.org/2000/svg" xmlns:xlink="http://www.w3.org/1999/xlink">
    <title></title>
    <g id="RegLog-/Global-/-Desk" stroke="none" stroke-width="1" fill="none" fill-rule="evenodd">
        <g id="Login-/-Desk" transform="translate(-630.000000, -546.000000)" fill="#000000" fill-rule="nonzero">
            <path d="M642.987285,553.153846 C644.386523,553.153846 646.140496,552.207883 647.184997,550.946599 C648.13096,549.80356 648.820725,548.207247 648.820725,546.610935 C648.820725,546.394151 648.801017,546.177368 648.761602,546 C647.204704,546.059123 645.332486,547.044501 644.209154,548.364908 C643.322314,549.369994 642.514304,550.946599 642.514304,552.562619 C642.514304,552.79911 642.553719,553.035601 642.573427,553.114431 C642.671964,553.134139 642.829625,553.153846 642.987285,553.153846 Z M638.060394,577 C639.972028,577 640.819453,575.719008 643.204069,575.719008 C645.628099,575.719008 646.160203,576.960585 648.28862,576.960585 C650.377622,576.960585 651.77686,575.029243 653.097266,573.137317 C654.575334,570.969485 655.186268,568.841068 655.225683,568.74253 C655.08773,568.703115 651.087095,567.067387 651.087095,562.475524 C651.087095,558.494596 654.240305,556.701208 654.417673,556.563255 C652.328671,553.567705 649.155753,553.488875 648.28862,553.488875 C645.94342,553.488875 644.031786,554.907819 642.829625,554.907819 C641.528926,554.907819 639.814367,553.567705 637.784488,553.567705 C633.921805,553.567705 630,556.760331 630,562.790846 C630,566.535283 631.45836,570.496503 633.251748,573.058487 C634.788938,575.226319 636.129053,577 638.060394,577 Z" id=""></path>
        </g>
    </g>
</svg>