<?xml version="1.0" encoding="UTF-8"?>
<svg width="32px" height="32px" viewBox="0 0 32 32" version="1.1" xmlns="http://www.w3.org/2000/svg" xmlns:xlink="http://www.w3.org/1999/xlink">
    <title>g_v18</title>
    <defs>
        <path d="M30.5406938,18.6709208 C29.2808982,24.4825653 24.7993067,29.0564574 19.0145486,30.4344526 C13.2297906,31.8124478 7.16740708,29.7502506 3.42278573,25.1307152 C2.82482994,24.3910769 2.29778714,23.596822 1.84862424,22.7584494 C-0.571769907,18.2692209 -0.617980807,12.8740984 1.7251606,8.34406871 L1.7251606,8.34406871 C3.60620599,4.70650482 6.85587153,1.96569936 10.7585979,0.725163319 C14.6613243,-0.515372718 18.8970874,-0.153915209 22.5331944,1.7299448 C23.5134727,2.23575072 24.4360219,2.8463482 25.28467,3.55103358 L20.4343124,7.51950793 C16.6427928,5.06461436 11.6355436,5.68918949 8.56323398,9.0002372 C5.49092432,12.3112849 5.24211383,17.3511987 7.97335944,20.9487564 C10.704605,24.546314 15.6259881,25.6610459 19.6408683,23.5915387 C23.6557486,21.5220316 25.6029604,16.866819 24.2572761,12.5550609 L30.5980162,12.5550609 C30.7728248,13.5080202 30.8642984,14.4743945 30.8715398,15.4432284 C30.8760404,16.5278142 30.7651801,17.6098111 30.5406938,18.6709208 Z" id="path-1"></path>
    </defs>
    <g id="RegLog-/Global-/-Desk" stroke="none" stroke-width="1" fill="none" fill-rule="evenodd">
        <g id="Login-/-Desk" transform="translate(-582.000000, -547.000000)">
            <g id="g_v18" transform="translate(582.000000, 547.000000)">
                <g id="Path" transform="translate(0.381560, 0.376776)">
                    <mask id="mask-2" fill="white">
                        <use xlink:href="#path-1"></use>
                    </mask>
                    <use id="Mask" fill="#FFFFFF" fill-rule="nonzero" xlink:href="#path-1"></use>
                    <polygon fill="#518EF8" fill-rule="nonzero" mask="url(#mask-2)" points="30.8715398 12.1141193 30.8715398 22.2301976 29.3727236 30.8558082 17.6166956 21.1578314 14.1023911 19.2088696 14.8475824 12.1141193"></polygon>
                    <path d="M1.4782333,23.2478946 L8.42747283,17.5729763 L14.1023911,19.2088696 L17.6299239,21.153422 L29.3727236,30.8558082 C29.3727236,30.8558082 8.42747283,30.8558082 8.42747283,30.8558082 L2.96861589,26.1635315 L1.4782333,23.2478946 Z" fill="#28B446" fill-rule="nonzero" mask="url(#mask-2)"></path>
                    <polygon fill="#FBBB00" fill-rule="nonzero" mask="url(#mask-2)" points="1.45177681 7.90312711 8.74054136 13.8205633 8.42747283 17.5729763 -1.0658141e-13 24.4654872 6.26142647e-13 16.3851286 6.26142647e-13 9.00299195"></polygon>
                    <polygon fill="#F14336" fill-rule="nonzero" mask="url(#mask-2)" points="29.7448323 5.5551523e-14 7.54360941 1.44330413e-13 3.56829646 1.96364384 1.45177681 7.90312711 8.74054136 13.8205633 20.5180913 7.66060924"></polygon>
                </g>
                <rect id="Rectangle" fill="#518EF8" fill-rule="nonzero" x="16.3006309" y="12.9362465" width="10.9000762" height="6.18200115"></rect>
            </g>
        </g>
    </g>
</svg>