<svg xmlns="http://www.w3.org/2000/svg" viewBox="0 0 111.8 111.8">
  <defs>
    <style>
      .cls-1 {
        fill: #eee;
      }

      .cls-2 {
        fill: #fbbb00;
      }

      .cls-3 {
        fill: #518ef8;
      }

      .cls-4 {
        fill: #28b446;
      }

      .cls-5 {
        fill: #f14336;
      }
    </style>
  </defs>
  <title>google_v10</title>
  <g id="Layer_2" data-name="Layer 2">
    <g id="Layer_1-2" data-name="Layer 1">
      <rect class="cls-1" width="111.8" height="111.8" rx="12"/>
      <g>
        <path class="cls-2" d="M36.63,63.42,34.2,72.5l-8.92.19A35,35,0,0,1,25,40h0L33,41.44l3.5,7.87A19.71,19.71,0,0,0,35.33,56,20.27,20.27,0,0,0,36.63,63.42Z"/>
        <path class="cls-3" d="M90.48,49.55a37.84,37.84,0,0,1,.62,6.55A34.65,34.65,0,0,1,78,83.38h0l-10-.5-1.44-8.82a21,21,0,0,0,9-10.64H56.85V49.55H90.48Z"/>
        <path class="cls-4" d="M78,83.36h0a35,35,0,0,1-49.15-5.29,34.39,34.39,0,0,1-3.57-5.38l11.35-9.27A20.76,20.76,0,0,0,63.35,75.55,20.39,20.39,0,0,0,66.58,74Z"/>
        <path class="cls-5" d="M78.43,29.15l-11.35,9.3A20.81,20.81,0,0,0,36.45,49.36L25,40h0A35,35,0,0,1,72.19,25,34.61,34.61,0,0,1,78.43,29.15Z"/>
      </g>
    </g>
  </g>
</svg>
