<svg id="Layer_1" data-name="Layer 1" xmlns="http://www.w3.org/2000/svg" viewBox="0 0 81.89 81.89"><defs><style>.cls-1{fill:#00aeef;}.cls-1,.cls-2,.cls-3{fill-rule:evenodd;}.cls-2{fill:#007db6;}.cls-3{fill:#fff;}</style></defs><title>twitter</title><polygon class="cls-1" points="0 0 81.89 0 81.89 81.89 0 81.89 0 0 0 0"/><polygon class="cls-2" points="81.89 34.47 66.68 19.3 58.87 27.17 35.08 57.57 14.5 59.29 37.14 81.89 81.89 81.89 81.89 34.47 81.89 34.47"/><path class="cls-3" d="M1417.12,604.4a1.38,1.38,0,0,1-1.14,1.74c-12.08-.67-19.75-7.47-23.23-13.46-2.33,5.19-1.92,10.9,3.45,14.72a4.07,4.07,0,0,1-3.68.25c.16,4.43,2.11,6.77,6.72,8.32a3.75,3.75,0,0,1-3.59.79c3.15,4.89,6.1,6.18,11.55,5.27-3.28,3.69-10.26,7-16.7,8.28,34.83,14.19,51.46-15.07,48.31-31.49a5.67,5.67,0,0,0,3.51-2.75,7.16,7.16,0,0,1-4,.55,12.42,12.42,0,0,0,4.32-6.3,13.11,13.11,0,0,1-6.15,3.31c-4.56-9.08-25.85-3-19.41,10.77Z" transform="translate(-1376 -571.02)"/></svg>