<svg xmlns="http://www.w3.org/2000/svg" viewBox="0 0 111.8 111.8">
  <defs>
    <style>
      .cls-1 {
        fill: #4f76bb;
      }

      .cls-2 {
        fill: #fff;
        fill-rule: evenodd;
      }
    </style>
  </defs>
  <title>fb_v10</title>
  <g id="Layer_2" data-name="Layer 2">
    <g id="Layer_1-2" data-name="Layer 1">
      <rect class="cls-1" width="111.8" height="111.8" rx="12"/>
      <path class="cls-2" d="M65.13,36.2c1.84-.06,3.69,0,5.53,0h.75V26.6c-1-.11-2-.24-3-.28-1.89-.09-3.78-.17-5.68-.13a14,14,0,0,0-8,2.47,11.83,11.83,0,0,0-4.8,8,29.87,29.87,0,0,0-.35,4.12c0,2.14,0,4.29,0,6.45V48H40.39v10.7H49.5V85.62H60.63V58.76h9.09c.47-3.56.92-7.08,1.39-10.74h-2c-2.59,0-8.51,0-8.51,0s0-5.3.09-7.61C60.73,37.25,62.62,36.29,65.13,36.2Z"/>
    </g>
  </g>
</svg>
