<svg xmlns="http://www.w3.org/2000/svg" viewBox="0 0 32 32"><defs><style>.cls-1{fill:#999;}</style></defs><title>Asset 2</title><g id="Layer_2" data-name="Layer 2"><g id="Capa_1" data-name="Capa 1"><g id="calendar"><path class="cls-1" d="M29.33,3H25V1a1,1,0,0,0-2,0V3H17V1a1,1,0,0,0-2,0V3H9V1A1,1,0,0,0,7,1V3H2.67A2.66,2.66,0,0,0,0,5.67V29.33A2.66,2.66,0,0,0,2.67,32H29.33A2.66,2.66,0,0,0,32,29.33V5.67A2.66,2.66,0,0,0,29.33,3ZM30,29.33a.67.67,0,0,1-.67.67H2.67A.67.67,0,0,1,2,29.33V5.67A.67.67,0,0,1,2.67,5H7V7A1,1,0,0,0,9,7V5h6V7a1,1,0,0,0,2,0V5h6V7a1,1,0,0,0,2,0V5h4.33a.67.67,0,0,1,.67.67Z"/><rect class="cls-1" x="7" y="12" width="4" height="3"/><rect class="cls-1" x="7" y="17" width="4" height="3"/><rect class="cls-1" x="7" y="22" width="4" height="3"/><rect class="cls-1" x="14" y="22" width="4" height="3"/><rect class="cls-1" x="14" y="17" width="4" height="3"/><rect class="cls-1" x="14" y="12" width="4" height="3"/><rect class="cls-1" x="21" y="22" width="4" height="3"/><rect class="cls-1" x="21" y="17" width="4" height="3"/><rect class="cls-1" x="21" y="12" width="4" height="3"/></g></g></g></svg>