<svg xmlns="http://www.w3.org/2000/svg" viewBox="0 0 113.41 113.3"><defs><style>.cls-1{fill:#29d667;}.cls-2{fill:#24b253;}.cls-3{fill:#fff;}</style></defs><title>CT</title><g id="Layer_2" data-name="Layer 2"><g id="Layer_1-2" data-name="Layer 1"><path class="cls-1" d="M56.7,0A56.65,56.65,0,1,1,0,56.7,56.72,56.72,0,0,1,56.7,0Z"/><path class="cls-2" d="M113.4,57.3c0-.1-19.9-19.9-19.9-19.9L57.1,47,72.3,62.3l-1,1.2L48.7,40.7l-9.3-3.9-15,12.4L21.9,71.9l41,41C92.7,110.1,113.8,83.9,113.4,57.3Z"/><path class="cls-3" d="M43.5,60.3,54,63.5a20.11,20.11,0,0,1-3.3,7.4,14.35,14.35,0,0,1-5.6,4.5,21.06,21.06,0,0,1-8.6,1.5,25,25,0,0,1-10.3-1.8,15.82,15.82,0,0,1-6.9-6.5,22.17,22.17,0,0,1-2.9-11.8c0-6.4,1.7-11.3,5.1-14.8s8.2-5.2,14.5-5.2c4.9,0,8.7,1,11.5,3a17.08,17.08,0,0,1,6.2,9.1L43.1,51.3a10.7,10.7,0,0,0-1.2-2.6,6.85,6.85,0,0,0-5.8-2.8,6.92,6.92,0,0,0-6.2,3.3c-1.1,1.6-1.6,4.2-1.6,7.6,0,4.3.7,7.2,2,8.8A6.64,6.64,0,0,0,35.8,68,6.65,6.65,0,0,0,41,66.1C42.2,64.8,42.9,62.7,43.5,60.3Z"/><path class="cls-3" d="M57.1,37.4H93.5V47H81.3V76.2h-12V47H57.1Z"/></g></g></svg>