<?xml version="1.0" encoding="utf-8"?>
<!-- Generator: Adobe Illustrator 22.1.0, SVG Export Plug-In . SVG Version: 6.00 Build 0)  -->
<svg version="1.1" id="Capa_1" xmlns="http://www.w3.org/2000/svg" xmlns:xlink="http://www.w3.org/1999/xlink" x="0px" y="0px"
	 viewBox="0 0 561 561" style="enable-background:new 0 0 561 561;" xml:space="preserve">
<style type="text/css">
	.st0{fill:#0E88E7;}
</style>
<g>
	<g id="content-copy">
		<path class="st0" d="M369.8,0h-255C72.7,0,38.3,34.4,38.3,76.5v306c0,14.1,11.4,25.5,25.5,25.5h0c14.1,0,25.5-11.4,25.5-25.5v-306
			c0-14.1,11.4-25.5,25.5-25.5h255c14.1,0,25.5-11.4,25.5-25.5v0C395.3,11.4,383.8,0,369.8,0z M446.3,102H216.7
			c-42.1,0-76.5,34.4-76.5,76.5v306c0,42.1,34.4,76.5,76.5,76.5h229.5c42.1,0,76.5-34.4,76.5-76.5v-306
			C522.8,136.4,488.3,102,446.3,102z M446.3,510H216.7c-14.1,0-25.5-11.4-25.5-25.5v-306c0-14.1,11.4-25.5,25.5-25.5h229.5
			c14.1,0,25.5,11.4,25.5,25.5v306C471.8,498.6,460.3,510,446.3,510z"/>
	</g>
</g>
</svg>
