<svg xmlns="http://www.w3.org/2000/svg" viewBox="0 0 416.34 360.9"><defs><style>.cls-1{fill:#c1c1c1;}.cls-2{fill:#fe9595;}.cls-3{fill:#ced3e2;}.cls-4{fill:#fae5a3;}.cls-5{fill:#3a5c91;}.cls-6{fill:#a4e4ff;}.cls-7{fill:#89d9a2;}.cls-8{opacity:0.13;}.cls-9{fill:#fcbf67;}</style></defs><title>i-country</title><g id="Layer_2" data-name="Layer 2"><g id="Layer_1-2" data-name="Layer 1"><path class="cls-1" d="M346.9,281.1h-5.85v-5.85a1.83,1.83,0,1,0-3.66,0v5.85h-5.12a1.83,1.83,0,1,0,0,3.65h5.12v5.86a1.83,1.83,0,0,0,3.66,0v-5.86h5.85a1.83,1.83,0,1,0,0-3.65Z"/><path class="cls-2" d="M236.33,46a1.83,1.83,0,0,1-1.83-1.83V29.57a1.83,1.83,0,1,1,3.65,0V44.19A1.82,1.82,0,0,1,236.33,46Z"/><path class="cls-2" d="M244,38.34H229.38a1.83,1.83,0,1,1,0-3.65H244a1.83,1.83,0,0,1,0,3.65Z"/><path class="cls-2" d="M401.72,207.49a1.48,1.48,0,0,1-1.45-1.21c-1.7-9.25-2.7-10.25-11.95-11.95a1.47,1.47,0,0,1,0-2.9c9.25-1.71,10.25-2.71,11.95-12a1.47,1.47,0,0,1,2.9,0c1.71,9.25,2.71,10.25,12,12a1.47,1.47,0,0,1,0,2.9c-9.25,1.7-10.25,2.7-12,11.95A1.48,1.48,0,0,1,401.72,207.49Zm-6.89-14.61a9.82,9.82,0,0,1,6.89,6.89,9.81,9.81,0,0,1,6.9-6.89,9.81,9.81,0,0,1-6.9-6.9A9.81,9.81,0,0,1,394.83,192.88Z"/><path class="cls-3" d="M17.48,199.06A1.47,1.47,0,0,1,16.07,198c-2.82-10.22-4.78-12.18-15-15a1.46,1.46,0,0,1,0-2.82c10.22-2.82,12.18-4.78,15-15a1.46,1.46,0,0,1,2.82,0c2.82,10.22,4.79,12.18,15,15a1.46,1.46,0,0,1,0,2.82c-10.21,2.82-12.18,4.78-15,15A1.46,1.46,0,0,1,17.48,199.06ZM6.39,181.58c6.18,2.22,8.87,4.91,11.09,11.09,2.22-6.18,4.91-8.87,11.09-11.09-6.18-2.22-8.87-4.91-11.09-11.09C15.26,176.67,12.57,179.36,6.39,181.58Z"/><path class="cls-4" d="M21.69,37.62A23.14,23.14,0,0,1,37.93,4.33a23.18,23.18,0,1,0-9,41.62A23,23,0,0,1,21.69,37.62Z"/><g id="earth"><path class="cls-5" d="M180.9,302.58A125.08,125.08,0,0,1,92.2,265.9a2.56,2.56,0,0,1,0-3.62L266,88.51a2.64,2.64,0,0,1,3.62,0A125.38,125.38,0,0,1,180.9,302.58ZM97.65,264.07A120.31,120.31,0,0,0,267.76,94Z"/><circle class="cls-6" cx="180.9" cy="177.2" r="108.32" transform="translate(-72.32 179.82) rotate(-45)"/><path class="cls-5" d="M180.67,288.12A111.24,111.24,0,1,1,202.14,286,111.73,111.73,0,0,1,180.67,288.12Zm.39-216.65a105.72,105.72,0,1,0,58.91,18A105.76,105.76,0,0,0,181.06,71.47Z"/><path class="cls-7" d="M127.48,146.91c20.33-8.22,57,19.35,54.69,36.83-2.7,20.89-17.47,4-36.67,20.73-24.78,21.61-21.21,42.5-26.3,39.07-23.44-15.78-6.16-36-5-60.11C115.28,162.94,114.32,152.24,127.48,146.91Z"/><path class="cls-5" d="M120.19,246.47a4.31,4.31,0,0,1-2.42-.81c-17.87-12-14-26.65-9.92-42.12,1.72-6.5,3.49-13.22,3.84-20.24q.15-3,.26-5.76c.74-17.2,1.18-27.58,14.57-33h0c12.9-5.22,30,2.6,40.73,10.89,9.31,7.18,18.78,18.48,17.46,28.64-1.72,13.29-8.64,13.76-16,14.25-5.94.4-13.32.9-21.56,8.08-15,13.09-19.28,26-21.56,32.86-1.29,3.91-2.07,6.26-4.28,7A3.56,3.56,0,0,1,120.19,246.47Zm.44-5.06h0ZM135.71,148a19.29,19.29,0,0,0-7.27,1.31h0c-10.33,4.18-10.66,11.79-11.37,28.47-.08,1.84-.16,3.77-.26,5.8-.38,7.55-2.23,14.53-4,21.29-3.84,14.52-6.89,26.05,6.88,35.91.34-.83.73-2,1.09-3.1,2.44-7.38,7-21.1,23-35.12,9.55-8.32,18.24-8.9,24.58-9.33,7.11-.48,10-.67,11.24-9.8.85-6.6-5.24-16-15.52-23.93C156,153.19,145,148,135.71,148Zm-8.23-1.07h0Z"/><path class="cls-7" d="M268.12,241.61c-2.84-1.91-42.65-54.72-54.69-36.83-5.26,7.82-19,5.24-23.6,18.18-5.78,16.33,13.27,30.81,7.66,39.22-7.13,10.7-32.14,9.36-15.78,23.44C216.35,282.88,246.65,271.27,268.12,241.61Z"/><path class="cls-5" d="M181.71,288.18a2.5,2.5,0,0,1-1.67-.62c-4.74-4.08-6.73-7.46-6.28-10.64.62-4.31,5.36-6.46,10.38-8.73,4.21-1.91,9-4.07,11.22-7.43,1.73-2.59-.54-7.1-3.17-12.32-3.69-7.31-8.28-16.42-4.77-26.33,3.06-8.64,9.85-11.32,15.32-13.47,3.65-1.44,6.81-2.68,8.56-5.29a10.35,10.35,0,0,1,8.17-4.8c12.31-.75,30.25,18,46.16,36.49,1.73,2,3.52,4.08,4,4.5a2.56,2.56,0,0,1,.56,3.57c-19.67,27.18-48.55,41.92-88.28,45.07Zm38.52-84.53h-.45a5.21,5.21,0,0,0-4.23,2.55c-2.64,3.93-6.86,5.59-10.94,7.2-5.19,2-10.08,4-12.37,10.41-2.78,7.85,1.1,15.54,4.52,22.32,3.21,6.37,6.24,12.39,2.86,17.46-3.05,4.58-8.53,7.06-13.36,9.25-3.21,1.46-7.21,3.27-7.43,4.8-.06.42.06,2,3.76,5.33,37.23-3.15,63.43-16.26,82.18-41.14-.71-.79-1.67-1.89-3-3.46C253.52,228.83,231.81,203.65,220.23,203.65Zm49.32,35.84.05,0Z"/><path class="cls-7" d="M266.92,111.35c-14.38,13.25-11.84,28.7-8.85,44,3.57,18.3-11,30.86-.16,34,17.19,5,29.7,6.15,28.7,8C292.67,166.11,286.38,137.41,266.92,111.35Z"/><path class="cls-5" d="M286.61,199.84a2.65,2.65,0,0,1-.87-.15,2.58,2.58,0,0,1-1.41-1.24c-1.38-.5-4.67-1.22-7.86-1.92-4.93-1.08-11.68-2.56-19.27-4.76a7.78,7.78,0,0,1-5.12-3.69c-1.71-3.19-.48-7,1.06-11.84,1.77-5.53,4-12.41,2.41-20.4-2.76-14.16-6.2-31.78,9.63-46.38a2.58,2.58,0,0,1,3.79.35c19.51,26.12,26.32,55.54,20.25,87.45a3,3,0,0,1-.37,1.25A2.55,2.55,0,0,1,286.61,199.84Zm-20-84.58c-10.53,11.21-9.14,23.61-6,39.6,1.81,9.27-.72,17.17-2.56,22.94-1.08,3.39-2.11,6.59-1.43,7.86a3.24,3.24,0,0,0,2,1.19c7.44,2.16,14.09,3.62,18.95,4.68,3.19.7,5.5,1.2,7.18,1.68C289.37,164.92,283.27,138.73,266.6,115.26Z"/><path class="cls-7" d="M122.53,86.8c8.56,26.39,33.81,34.12,46.88,31.57,15.54-3,45.52,9.29,47-2.4,2.71-20.88-23.68-42.91-15.47-44.48C174.64,64,148.54,72.19,122.53,86.8Z"/><path class="cls-5" d="M206.89,123.68a111.57,111.57,0,0,1-15-1.56c-8-1.17-16.2-2.37-22-1.24-15.38,3-41.24-6.89-49.8-33.28a2.56,2.56,0,0,1,1.18-3c31-17.43,56.56-22.37,80.4-15.54a2.57,2.57,0,0,1,.39,4.78c.54,1.64,2.77,5.11,4.61,8,5.89,9.16,14,21.71,12.31,34.53a7.47,7.47,0,0,1-2.9,5.11C213.88,123.08,210.72,123.68,206.89,123.68Zm-31.54-8.37a125.18,125.18,0,0,1,17.28,1.74c8.15,1.19,17.39,2.54,20.36.28a2.29,2.29,0,0,0,.92-1.69c1.42-11-6.07-22.6-11.54-31.09-3.36-5.23-5.62-8.73-5.55-11.49-21-4.9-43.77-.11-71.16,14.94,8.88,23.89,32.33,30,43.26,27.86A33.57,33.57,0,0,1,175.35,115.31Z"/><path class="cls-8" d="M246.92,94.58A105.75,105.75,0,0,1,98.79,239.33q-3.67-2.47-7.1-5.22A105.78,105.78,0,1,0,246.92,94.58Z"/></g><path class="cls-5" d="M180.9,327.58a2.56,2.56,0,0,1-2.56-2.56V300.19a2.56,2.56,0,1,1,5.12,0V325A2.56,2.56,0,0,1,180.9,327.58Z"/><path class="cls-9" d="M238.83,358.34c0-3.67-2.35-10.12-4.39-12.56a10.39,10.39,0,0,0-7.75-3.67c-12.07,0-19.35-5.56-23.18-16.82A7.94,7.94,0,0,0,196,319.9h-30.2a7.93,7.93,0,0,0-7.49,5.39c-3.82,11.23-11.65,17.18-23.7,17.18a8.87,8.87,0,0,0-7.17,3.25c-2,2.44-4.38,8.88-4.38,12.54Z"/><path class="cls-5" d="M238.83,360.9h0l-115.75-.08a2.55,2.55,0,0,1-2.56-2.56c0-4.14,2.46-11.16,5-14.18l.07-.08a11.4,11.4,0,0,1,9.06-4.09c10.78,0,17.74-5.06,21.28-15.45a10.47,10.47,0,0,1,9.91-7.12H196a10.47,10.47,0,0,1,9.91,7.12c3.55,10.44,9.95,15.09,20.76,15.09a12.85,12.85,0,0,1,9.64,4.51.6.6,0,0,1,.08.08c2.51,3,5,10.05,5,14.2a2.56,2.56,0,0,1-2.56,2.56ZM126,355.7l110,.08a24.27,24.27,0,0,0-3.44-8.32,7.94,7.94,0,0,0-5.82-2.79c-13,0-21.36-6.07-25.61-18.56a5.36,5.36,0,0,0-5.06-3.65h-30.2a5.35,5.35,0,0,0-5.06,3.65C156.54,338.49,147.51,345,134.63,345a6.32,6.32,0,0,0-5.23,2.37A24.32,24.32,0,0,0,126,355.7Z"/><path class="cls-5" d="M176.38,344.27H137a1.71,1.71,0,0,1,0-3.42h39.41a1.71,1.71,0,1,1,0,3.42Z"/><path class="cls-5" d="M191.33,344.27h-6.77a1.71,1.71,0,0,1,0-3.42h6.77a1.71,1.71,0,0,1,0,3.42Z"/><path class="cls-5" d="M271.17,360.82H72.58a2.56,2.56,0,1,1,0-5.12H271.17a2.56,2.56,0,1,1,0,5.12Z"/><path class="cls-5" d="M300.5,360.82H285.83a2.56,2.56,0,1,1,0-5.12H300.5a2.56,2.56,0,0,1,0,5.12Z"/></g></g></svg>