<svg xmlns="http://www.w3.org/2000/svg" viewBox="0 0 378.24 354.96"><defs><style>.cls-1{isolation:isolate;}.cls-2{fill:#c1c1c1;}.cls-3{fill:#fe9595;}.cls-4{fill:#fdc23f;}.cls-5{fill:#ced3e2;}.cls-6{opacity:0.7;}.cls-7{fill:#3a5c91;}.cls-8{fill:#a4e4ff;}.cls-11,.cls-12,.cls-9{fill:#fff;}.cls-11,.cls-9{opacity:0.2;}.cls-10{fill:#ffd599;}.cls-11,.cls-12{mix-blend-mode:overlay;}.cls-12{opacity:0.4;}</style></defs><title>verified</title><g class="cls-1"><g id="Layer_2" data-name="Layer 2"><g id="Layer_1-2" data-name="Layer 1"><path class="cls-2" d="M327.48,260.68a1.83,1.83,0,0,0-1.83,1.83v15.36a1.83,1.83,0,1,0,3.66,0V262.51A1.83,1.83,0,0,0,327.48,260.68Z"/><path class="cls-2" d="M335.16,268.36H320.53a1.83,1.83,0,0,0,0,3.66h14.63a1.83,1.83,0,0,0,0-3.66Z"/><path class="cls-3" d="M250,20.65a1.83,1.83,0,0,0-1.83,1.83V37.11a1.83,1.83,0,0,0,3.66,0V22.48A1.83,1.83,0,0,0,250,20.65Z"/><path class="cls-3" d="M257.63,27.6H243a1.83,1.83,0,0,0,0,3.66h14.63a1.83,1.83,0,0,0,0-3.66Z"/><path class="cls-3" d="M377,143.93c-9.25-1.7-10.26-2.71-12-12a1.48,1.48,0,0,0-2.9,0c-1.7,9.25-2.71,10.26-12,12a1.48,1.48,0,0,0,0,2.9c9.25,1.7,10.26,2.71,12,12a1.47,1.47,0,0,0,2.9,0c1.7-9.25,2.71-10.26,12-12a1.47,1.47,0,0,0,0-2.9Zm-13.41,8.34a9.82,9.82,0,0,0-6.89-6.89,9.82,9.82,0,0,0,6.89-6.89,9.82,9.82,0,0,0,6.89,6.89A9.82,9.82,0,0,0,363.62,152.27Z"/><path class="cls-4" d="M31.09,121.66,4,124.23a4.38,4.38,0,0,0-3.6,2.57,4.35,4.35,0,0,0,.42,4.4l15.76,22.16a4.4,4.4,0,0,0,4,1.84,4.39,4.39,0,0,0,3.6-2.56h0L35.53,127.9a4.42,4.42,0,0,0-4.44-6.24ZM22.88,152Zm10-25.35L21.54,151.41a1.43,1.43,0,0,1-1.2.85,1.41,1.41,0,0,1-1.34-.61L3.23,129.49A1.43,1.43,0,0,1,3.09,128a1.45,1.45,0,0,1,.5-.6,1.35,1.35,0,0,1,.7-.25l27.08-2.58a1.48,1.48,0,0,1,1.34.61A1.5,1.5,0,0,1,32.85,126.67Z"/><path class="cls-5" d="M90.18,16.07C80,13.25,78,11.29,75.18,1.07A1.46,1.46,0,0,0,73.77,0a1.48,1.48,0,0,0-1.41,1.07c-2.82,10.22-4.78,12.18-15,15a1.46,1.46,0,0,0,0,2.82c10.21,2.82,12.17,4.79,15,15A1.48,1.48,0,0,0,73.77,35a1.46,1.46,0,0,0,1.41-1.07c2.83-10.21,4.79-12.18,15-15a1.46,1.46,0,0,0,0-2.82ZM73.77,28.57c-2.22-6.18-4.91-8.87-11.09-11.09,6.18-2.22,8.87-4.91,11.09-11.09,2.23,6.18,4.91,8.87,11.09,11.09C78.68,19.71,76,22.39,73.77,28.57Z"/><g class="cls-6"><path class="cls-7" d="M337.2,349.84H227.3a2.56,2.56,0,1,0,0,5.12H337.2a2.56,2.56,0,1,0,0-5.12Z"/><path class="cls-7" d="M200.13,349.84H102a2.56,2.56,0,1,0,0,5.12h98.12a2.56,2.56,0,0,0,0-5.12Z"/><path class="cls-7" d="M81.75,349.84H56.45a2.56,2.56,0,1,0,0,5.12h25.3a2.56,2.56,0,0,0,0-5.12Z"/></g><path class="cls-8" d="M269.45,332.71h-3V303.07a3.24,3.24,0,0,0-3.45-3H142.41a3.23,3.23,0,0,0-3.44,3v29.64h-3.05a3.24,3.24,0,0,0-3.44,3v7H272.89v-7A3.24,3.24,0,0,0,269.45,332.71Z"/><path class="cls-7" d="M269.45,330.48h-.81V303.07a5.47,5.47,0,0,0-5.68-5.21H142.41a5.46,5.46,0,0,0-5.67,5.21v27.41h-.82a5.46,5.46,0,0,0-5.67,5.21v9.2H275.13v-9.2A5.47,5.47,0,0,0,269.45,330.48Zm1.21,9.95h-136v-4.74c0-.34.53-.75,1.21-.75h5.28V303.07c0-.35.53-.75,1.21-.75H263c.68,0,1.22.4,1.22.75v31.87h5.27c.68,0,1.21.41,1.21.75Z"/><path class="cls-9" d="M279.68,62.42c0,8.14-7.65,14.78-17.05,14.81l-7.8,0L254.66,82c-2,55.89-12.78,99.91-30.36,124L211.09,224l9.14-4.9,7.31-10c17.58-24.06,28.36-68.08,30.36-124l.17-4.75,7.8,0c9.4,0,17.05-6.67,17.05-14.81V60.67h28.32l.4-3.16h-32Z"/><path class="cls-10" d="M279.68,62.42c0,7.4-6.32,13.55-14.52,14.64l3.29-21.83H136.93l3.25,21.61a18.58,18.58,0,0,1-5.25-1.91h0a17,17,0,0,1-3.22-2.29l-.07-.06c-.3-.28-.6-.57-.88-.87l0,0a14,14,0,0,1-1.51-1.93,1,1,0,0,1-.08-.11c-.2-.32-.4-.65-.58-1a.8.8,0,0,0-.08-.16c-.17-.34-.34-.68-.49-1l0-.07c-.14-.35-.27-.7-.38-1.06a.56.56,0,0,0,0-.12,10,10,0,0,1-.27-1.08c0-.07,0-.14,0-.21-.07-.36-.12-.73-.16-1.1,0-.06,0-.12,0-.19a11.51,11.51,0,0,1-.06-1.18V57.51H95L95.7,63c6.76,52.26,27.33,122.15,78.85,149.8l1.81,1a47.36,47.36,0,0,0,12.07,10.08c.58.33,1.17.64,1.76.93l.73.33,1,.47,1,.37.8.31c.42.14.85.27,1.28.39l.5.16a27,27,0,0,0,7.09,1h.09a28.92,28.92,0,0,0,14.26-4,46.13,46.13,0,0,0,10.86-8.75l4.28-2.3c51.53-27.66,72.09-97.58,78.85-149.8l.7-5.46h-32ZM107.73,67.34h8.44c2.44,10.33,12.37,18.34,24.64,19.56,1.89,42.08,8.85,77.59,20,103.12C128.18,159.25,113.71,109,107.73,67.34Zm182.73,0h8.45c-6,41.63-20.46,91.91-53.11,122.68,11.18-25.53,18.13-61,20-103.12C278.1,85.68,288,77.67,290.46,67.34Z"/><polygon class="cls-11" points="202.69 55.23 136.93 55.23 140.98 76.29 202.69 76.29 202.69 76.29 265.27 76.29 268.45 55.23 202.69 55.23 202.69 55.23"/><path class="cls-12" d="M168.68,82.15l-4.05-26.92H145.27l4.06,26.92c3.45,96.39,31.41,135.07,43.33,141.77a17.64,17.64,0,0,0,8.37,3.21L199.78,222C172.62,206.71,170.1,121.65,168.68,82.15Z"/><path class="cls-7" d="M143,86.8,143,84.87l-1.92-.2c-11.14-1.1-20.47-8.44-22.68-17.84l-.41-1.73H105.15l.37,2.55c5.55,38.68,19.39,91.58,53.79,124l8,7.51-4.4-10C151.77,163.75,144.91,128.36,143,86.8ZM110.32,69.57h4.15c3.14,10,12.54,17.5,24.2,19.3,1.75,35.85,7.21,67.14,15.92,91.45C127.44,149.29,115.53,104.15,110.32,69.57Z"/><path class="cls-7" d="M263.68,84.87l-.08,1.93c-1.87,41.56-8.73,77-19.85,102.33l-4.39,10,8-7.51c34.39-32.42,48.23-85.32,53.79-124l.36-2.55H288.69l-.4,1.73c-2.21,9.4-11.54,16.74-22.68,17.85Zm28.48-15.3h4.16c-5.21,34.58-17.12,79.72-44.28,110.75,8.71-24.31,14.18-55.6,15.93-91.44C279.63,87.07,289,79.57,292.16,69.57Z"/><path class="cls-7" d="M277.45,62.42c0,5.25-4,9.92-9.6,11.75L271,53H134.33l3.12,20.68c-.47-.2-.92-.42-1.37-.66L136,73a14.73,14.73,0,0,1-2.86-2c-.26-.24-.52-.49-.73-.72l-.06-.06a13.87,13.87,0,0,1-1.28-1.63L131,68.4c-.17-.27-.34-.55-.49-.83l-.07-.13c-.14-.28-.28-.57-.4-.84l0-.09c-.12-.29-.22-.58-.32-.88l0-.1a7.73,7.73,0,0,1-.23-.92l0-.14c-.06-.31-.11-.61-.15-1V63.4c0-.32-.05-.65-.05-1V55.27H92.45l1,8c2.84,21.93,9.1,54.44,22.82,84.76,14.29,31.57,33.53,54,57.19,66.72l1.46.78a49.48,49.48,0,0,0,12.38,10.25c.62.35,1.25.68,1.87,1l.53.24.52.24.85.38c.25.11.51.2.77.3l.53.2.6.23c.41.14.83.26,1.25.39l.29.09.38.11a29.13,29.13,0,0,0,7.62,1.07h.15A31.09,31.09,0,0,0,218,225.77a48.06,48.06,0,0,0,11.15-8.91l3.95-2.12c23.67-12.7,42.91-35.15,57.2-66.74,13.72-30.32,20-62.82,22.81-84.74l1-8H277.45Zm4.46-2.68H309.1l-.38,2.94c-5.52,42.71-23,118.75-77.69,148.12l-4.6,2.47-.25.27a43.67,43.67,0,0,1-10.32,8.33,26.76,26.76,0,0,1-13.12,3.67h-.13a25.06,25.06,0,0,1-6.51-.91l-.19-.06-.39-.12c-.36-.11-.71-.21-1.06-.33L194,224l-.62-.24-.61-.23-.67-.31-.6-.27-.37-.17q-.82-.41-1.65-.87A45.21,45.21,0,0,1,178,212.26l-.27-.3-2.16-1.16c-54.73-29.37-72.16-105.41-77.69-148.12l-.38-2.94h27.2v2.68c0,.43,0,.89.07,1.44l0,.17c0,.43.11.86.19,1.29l0,.24c.1.45.2.87.32,1.26l.05.15c.13.42.28.83.44,1.22l0,.1c.17.41.37.82.6,1.26l.06.13c.21.39.44.77.68,1.14l.09.13a16.7,16.7,0,0,0,1.78,2.27c.32.34.65.67,1,1l.08.08a18.92,18.92,0,0,0,3.57,2.54l.09,0A20.73,20.73,0,0,0,139.74,79l3.13.63-3.35-22.2H265.85l-3.34,22.2,2.94-.39c9.38-1.24,16.46-8.48,16.46-16.85Z"/><path class="cls-10" d="M214.41,258.54c.32-.18,4.07-13.7,4.07-13.7a3.57,3.57,0,0,0,3.8-3.29V238a2.79,2.79,0,0,0-2.92-2.57c-3.18-3.76-5.08-7-2.6-11.84a28.84,28.84,0,0,1-14.07,3.85h0a28.87,28.87,0,0,1-14.08-3.85c.16.32.31.64.43,1a2.85,2.85,0,0,1,.12.31c.07.2.15.4.21.6l.09.35c0,.18.09.35.13.52l.06.37.06.46c0,.13,0,.25,0,.38s0,.29,0,.43,0,.25,0,.38,0,.27,0,.41,0,.24-.05.37l-.09.39-.09.37c0,.12-.08.24-.13.36s-.08.25-.13.38-.07.17-.11.26c-.13.3-.28.6-.44.9,0,.08-.08.16-.13.24l-.28.46-.16.25c-.1.15-.2.31-.31.46l-.17.24-.36.49-.17.21c-.13.18-.27.35-.41.53l-.13.15c-.16.21-.33.41-.5.61h-.2a2.57,2.57,0,0,0-2.73,2.36v3.79a3.58,3.58,0,0,0,3.8,3.29h.32l3.75,13.7c-9.89,19.84-18.29,32.26-48.66,41.9H263.07C232.7,290.8,224.3,278.38,214.41,258.54Z"/><path class="cls-7" d="M263.75,298.31c-29.48-9.35-37.61-21.36-46.9-39.88.61-1.69,1.55-5,3.39-11.6a5.62,5.62,0,0,0,4.27-5.28V238a4.86,4.86,0,0,0-4-4.68c-2.68-3.29-3.47-5.37-1.76-8.71a2.23,2.23,0,0,0-3.07-3,25.55,25.55,0,0,1-26,0,2.23,2.23,0,0,0-3.07,3q.19.39.36.78l0,.08.06.16c.06.16.12.32.16.46l.07.28c0,.13.07.26.1.38s0,.18,0,.28,0,.22.05.33,0,.17,0,.26,0,.2,0,.3a2.26,2.26,0,0,0,0,.25c0,.09,0,.18,0,.33l0,.21c0,.08,0,.17-.06.28l0,.09a1,1,0,0,1,0,.17,1.09,1.09,0,0,1-.05.17L187,230c-.1.23-.22.47-.35.71l-.11.2c-.07.13-.15.25-.23.38l-.13.21-.27.4-.16.22-.33.45-.15.19-.4.5h0a4.71,4.71,0,0,0-4,4.51v3.79a5.65,5.65,0,0,0,4.6,5.36c.79,2.88,2.51,9.15,3.12,11.4-9.31,18.59-17.42,30.63-47,40a2.23,2.23,0,0,0,.67,4.36H263.07a2.23,2.23,0,0,0,.68-4.36Zm-108.93-.1C177,288.7,184.59,276.33,193,259.54a2.25,2.25,0,0,0,.15-1.59c-3.9-14.27-3.9-14.27-4.32-14.69a2.23,2.23,0,0,0-1.58-.65h-.32c-.92,0-1.56-.56-1.56-1.06l0-3.73a.64.64,0,0,1,.51-.19h.2a2.24,2.24,0,0,0,1.7-.78l.53-.64.13-.16.46-.58.16-.22c.14-.17.27-.35.41-.54l.18-.26c.12-.17.24-.34.35-.52l.18-.28c.11-.18.23-.36.32-.53s.09-.16.16-.29c.2-.36.37-.72.56-1.15l.11-.26c0-.12.09-.25.13-.37l.07-.19.12-.37c0-.14.07-.28.11-.42l0-.09c0-.16.07-.32.1-.48s.05-.3.07-.47a5.32,5.32,0,0,0,.06-.56c0-.16,0-.32,0-.49v-.37a29.26,29.26,0,0,0,21.41,0c-.08,3.66,2,6.55,4.27,9.23a2.24,2.24,0,0,0,1.67.79.8.8,0,0,1,.73.34v3.57c0,.5-.65,1.06-1.57,1.06a2.22,2.22,0,0,0-2.15,1.63c-1.58,5.69-3.42,12-3.85,13.18a2.27,2.27,0,0,0-.07,2.12c8.37,16.79,16,29.16,38.15,38.67Zm58.5-41.62Zm0,0Z"/></g></g></g></svg>