<svg xmlns="http://www.w3.org/2000/svg" viewBox="0 0 285.9 285.87"><defs><style>.cls-1{fill:#a4e4ff;}.cls-2{fill:#3a5c91;}.cls-3{fill:#fff;}.cls-4{fill:#141414;opacity:0.2;isolation:isolate;}.cls-5{fill:#f2fbff;}.cls-6{fill:#dceff4;}</style></defs><title>Asset 11</title><g id="Layer_2" data-name="Layer 2"><g id="Layer_1-2" data-name="Layer 1"><path class="cls-1" d="M2.59,90.4V274.67a8.65,8.65,0,0,0,8.64,8.64H274.71a8.65,8.65,0,0,0,8.63-8.64V90.4L143,9.6Z"/><path class="cls-2" d="M284.62,88.18,144.24,7.38a2.58,2.58,0,0,0-2.55,0L1.32,88.18A2.57,2.57,0,0,0,0,90.4V274.67a11.21,11.21,0,0,0,11.2,11.2H274.71a11.21,11.21,0,0,0,11.19-11.2V90.4A2.58,2.58,0,0,0,284.62,88.18Zm-3.84,186.49a6.07,6.07,0,0,1-6.07,6.08H11.23a6.07,6.07,0,0,1-6.08-6.08V91.88L143,12.55,280.78,91.88Z"/><path class="cls-3" d="M58.91,2.56A17.06,17.06,0,0,0,41.85,19.63v169H244.09V50.15L197.35,2.56Z"/><path class="cls-2" d="M199.17.77A2.54,2.54,0,0,0,197.35,0H58.91A19.65,19.65,0,0,0,39.29,19.63v169a2.56,2.56,0,0,0,2.56,2.56H244.09a2.56,2.56,0,0,0,2.56-2.56V50.15a2.56,2.56,0,0,0-.74-1.79ZM241.53,186H44.41V19.63A14.53,14.53,0,0,1,58.91,5.12H196.27L241.53,51.2Z"/><path class="cls-4" d="M282.86,87.86,173.38,175.79H112.55L4.68,89.57C3.2,88.22,2.59,267,2.59,267a12.89,12.89,0,0,0,12.91,12.9L270.44,279a12.89,12.89,0,0,0,12.9-12.9S285,86,282.86,87.86Z"/><path class="cls-5" d="M2.56,274.56a8.63,8.63,0,0,0,8.64,8.64H274.67a8.63,8.63,0,0,0,8.64-8.64V188.48H2.56Z"/><path class="cls-2" d="M283.31,185.92H2.56A2.56,2.56,0,0,0,0,188.48v86.09a11.21,11.21,0,0,0,11.2,11.19H274.67a11.19,11.19,0,0,0,11.2-11.19V188.48A2.56,2.56,0,0,0,283.31,185.92Zm-2.56,88.65a6.07,6.07,0,0,1-6.08,6.07H11.2a6.07,6.07,0,0,1-6.08-6.07V191H280.75Z"/><path class="cls-6" d="M2.59,274.67a8.62,8.62,0,0,0,2.69,6.26l105.3-92.64L2.59,90.4Z"/><path class="cls-2" d="M4.31,88.51A2.56,2.56,0,0,0,0,90.4V274.67a11.26,11.26,0,0,0,3.49,8.12,2.54,2.54,0,0,0,3.45.07l105.3-92.65a2.55,2.55,0,0,0,0-3.82ZM5.69,277.17a6,6,0,0,1-.54-2.5V96.18l101.58,92.08Z"/><path class="cls-6" d="M280.62,280.93a8.62,8.62,0,0,0,2.69-6.26V90.4l-108,97.89Z"/><path class="cls-2" d="M284.34,88.06a2.55,2.55,0,0,0-2.75.45l-108,97.88a2.57,2.57,0,0,0,0,3.82l105.3,92.65a2.58,2.58,0,0,0,1.69.64,2.55,2.55,0,0,0,1.76-.71,11.22,11.22,0,0,0,3.49-8.12V90.4A2.56,2.56,0,0,0,284.34,88.06Zm-3.59,186.61a6.19,6.19,0,0,1-.53,2.5L179.17,188.26,280.75,96.18Z"/><path class="cls-4" d="M278.85,267a6,6,0,0,1-4.18,1.66H11.2a6.08,6.08,0,0,1-6-5.43v11.41a6.07,6.07,0,0,0,6.08,6.08H274.71a6.07,6.07,0,0,0,6.07-6.08l0-12.05A6,6,0,0,1,278.85,267Z"/><path class="cls-4" d="M200.17,3.81a4.27,4.27,0,0,0-7.28,3V41A17.08,17.08,0,0,0,210,58h34.14a4.27,4.27,0,0,0,3-7.29Z"/><path class="cls-1" d="M197.15,36.69A12.81,12.81,0,0,0,210,49.49h34.14L197.15,2.56Z"/><path class="cls-2" d="M199,.75a2.56,2.56,0,0,0-4.37,1.81V36.69A15.38,15.38,0,0,0,210,52.05h34.14a2.56,2.56,0,0,0,1.81-4.37Zm11,46.18a10.25,10.25,0,0,1-10.24-10.24V8.74l38.2,38.19Z"/><g id="around"><path class="cls-2" d="M137.87,72.93c7.8,0,15.25,4.27,15.83,6a3.16,3.16,0,0,0,.13.87,3.41,3.41,0,0,0,6.69-.94c0-2.93-2-5.47-4.94-7.5-4.79-3.31-12.13-5.25-17.71-5.25-13.67,0-34,9.05-34,34a31,31,0,0,0,12.65,24.64,28.56,28.56,0,0,0,16.86,5.81,23,23,0,0,0,6.77-1A36.27,36.27,0,0,0,155,121.39a26,26,0,0,0,5.17-6.89,3.76,3.76,0,0,0,.31-.91c-.07-.64-.14-1.31-.2-2,0,0,0,0,0,0a3.41,3.41,0,0,0-6.17-.22c-.19.36-.38.71-.6,1.06-2.92,4.89-7.93,8.37-15.29,10.59-5.55,1.69-12.12.28-17.59-3.78a24.11,24.11,0,0,1-9.89-19.15C110.7,80.16,127,72.93,137.87,72.93Z"/><path class="cls-2" d="M173.6,60a54.52,54.52,0,0,0-17-11.52A53.54,53.54,0,0,0,97.76,60,54.52,54.52,0,0,0,86.24,77a54.13,54.13,0,0,0,0,41.81,54.19,54.19,0,0,0,28.51,28.51,3.5,3.5,0,0,0,1.34.28,3.41,3.41,0,0,0,1.35-6.55A47.8,47.8,0,0,1,102.59,131,46.75,46.75,0,0,1,135.68,51.1a46.74,46.74,0,0,1,18.21,3.65,47.25,47.25,0,0,1,14.88,10.06,47.74,47.74,0,0,1,10.06,14.85,46.82,46.82,0,0,1,3.66,18.24c0,7.84-1.12,13.53-3.52,17.93-2.68,4.93-9.27,10.28-13.14,9.52-2.71-.55-4.66-4.76-5.37-11.56a1.34,1.34,0,0,1,0-.2c-.07-.64-.14-1.31-.2-2,0,0,0,0,0,0-1.13-12.25-1.44-28.58,2.7-41a3.42,3.42,0,0,0-6.48-2.16c-.32,1-.61,1.92-.88,2.91a70.43,70.43,0,0,0-1.75,8.44c-1.67,11.09-1.25,23.1-.36,32.64.06.7.13,1.4.2,2.07a39,39,0,0,0,1.3,6.89c2.18,7.5,6.19,10,9.52,10.65,8.27,1.65,17.11-6.75,20.48-12.94,3-5.45,4.34-12.18,4.34-21.2A53.56,53.56,0,0,0,185.11,77,54.29,54.29,0,0,0,173.6,60Z"/></g></g></g></svg>