<svg xmlns="http://www.w3.org/2000/svg" viewBox="0 0 473.82 312.12">
    <defs>
        <style>.cls-1{fill:#a1b0b8;}.cls-2{fill:#231f20;}</style>
    </defs>
    <title>eye</title>
    <g id="Layer_2" data-name="Layer 2">
        <g id="Isolation_Mode" data-name="Isolation Mode">
            <path class="cls-1"
                  d="M466.35,143.73c-44.16-23.06-82.55-68.56-83-69.08C318.94-1.37,247.55-.47,236.91.11,226.26-.48,154.85-1.35,90.38,74.72A358.57,358.57,0,0,1,53.7,111.31a13.91,13.91,0,0,0,18.2,21,385.85,385.85,0,0,0,39.77-39.72c58.54-69.08,121.46-64.91,124-64.73a13.05,13.05,0,0,0,2.5,0c.65,0,64.9-5,123.93,64.66,1.45,1.74,31.33,37.21,70.71,63.5-39.38,26.3-69.25,61.75-70.65,63.43-58.54,69.08-121.43,64.93-124,64.73a13.16,13.16,0,0,0-2.51,0c-.64,0-64.89,5-123.92-64.66-1.7-2-42.23-50.14-91.38-75.82A13.91,13.91,0,1,0,7.47,168.39C51.62,191.46,90,237,90.45,237.47c58.52,69.07,122.81,74.65,142.06,74.65,1.94,0,3.42-.05,4.4-.11,10.67.6,82,1.47,146.52-74.61.38-.46,38.62-45.87,82.92-69a13.91,13.91,0,0,0,0-24.66Z"/>
            <path class="cls-2"
                  d="M175.55,98.4a13.91,13.91,0,0,0-19.29,3.83,96.81,96.81,0,1,0,47.47-37.29,13.91,13.91,0,1,0,9.53,26.14,69.09,69.09,0,1,1-33.88,26.61A13.89,13.89,0,0,0,175.55,98.4Z"/>
        </g>
    </g>
</svg>