<svg xmlns="http://www.w3.org/2000/svg" viewBox="0 0 392.04 295.59"><defs><style>.cls-1{fill:#a4e4ff;}.cls-2{fill:#3a5c91;}.cls-3,.cls-6{opacity:0.2;}.cls-4{fill:#fff;}.cls-5{fill:#ff525d;}</style></defs><title>i-banned</title><g id="Layer_2" data-name="Layer 2"><g id="Layer_1-2" data-name="Layer 1"><g id="chat"><path class="cls-1" d="M191.88,106.3l-50.59.14-31.58.08a26.65,26.65,0,0,0-26.65,26.64v93.26a26.65,26.65,0,0,0,26.65,26.64h119.9l40,40,.32-112.74L270,160l-67.41-53.76Z"/><path class="cls-2" d="M204.15,104.27a2.6,2.6,0,0,0-1.6-.56h0l-92.83.25a29.24,29.24,0,0,0-29.21,29.2v93.26a29.24,29.24,0,0,0,29.21,29.2H228.55l39.22,39.22a2.55,2.55,0,0,0,1.81.75,2.59,2.59,0,0,0,1-.19,2.55,2.55,0,0,0,1.58-2.36l.38-133a2.54,2.54,0,0,0-1-2ZM267,286.87l-35.62-35.62a2.56,2.56,0,0,0-1.81-.75H109.71a24.11,24.11,0,0,1-24.09-24.08V133.16a24.11,24.11,0,0,1,24.09-24.08l92-.24,65.74,52.42Z"/><path class="cls-2" d="M198.83,149.33H127.15a4.27,4.27,0,1,0,0,8.54h71.68a4.27,4.27,0,0,0,0-8.54Z"/><path class="cls-2" d="M198.83,175.79H127.15a4.27,4.27,0,1,0,0,8.53h71.68a4.27,4.27,0,0,0,0-8.53Z"/><path class="cls-2" d="M198.83,202.24H127.15a4.27,4.27,0,1,0,0,8.53h71.68a4.27,4.27,0,0,0,0-8.53Z"/><path class="cls-3" d="M191.88,106.3V217.69a2.59,2.59,0,0,0,1.57,2.38,2.78,2.78,0,0,0,1,.18,2.51,2.51,0,0,0,1.81-.75l39.22-39.21H269.9L270,160l-67.41-53.76Z"/><path class="cls-4" d="M362.84,13.26H229.61A26.65,26.65,0,0,0,203,39.9V199.78l40-40H362.84a26.65,26.65,0,0,0,26.64-26.65V39.9A26.64,26.64,0,0,0,362.84,13.26Z"/><path class="cls-2" d="M362.84,10.7H229.61A29.24,29.24,0,0,0,200.4,39.9V199.78a2.56,2.56,0,0,0,1.58,2.36,2.6,2.6,0,0,0,1,.2,2.53,2.53,0,0,0,1.81-.75L244,162.37H362.84A29.24,29.24,0,0,0,392,133.16V39.9A29.23,29.23,0,0,0,362.84,10.7Zm24.08,122.46a24.11,24.11,0,0,1-24.08,24.09H242.93a2.56,2.56,0,0,0-1.81.75l-35.6,35.6V39.9a24.11,24.11,0,0,1,24.09-24.08H362.84A24.1,24.1,0,0,1,386.92,39.9Z"/><circle class="cls-3" cx="345.58" cy="90.11" r="13.23" transform="translate(37.5 270.75) rotate(-45)"/><path class="cls-3" d="M296.94,76.89a13.23,13.23,0,1,0,13.23,13.22A13.24,13.24,0,0,0,296.94,76.89Z"/><circle class="cls-3" cx="248.3" cy="90.11" r="13.23" transform="translate(-9.17 31.11) rotate(-7.04)"/><circle class="cls-1" cx="248.58" cy="88.41" r="10.67"/><path class="cls-2" d="M248.58,75.18A13.23,13.23,0,1,0,261.8,88.41,13.24,13.24,0,0,0,248.58,75.18Zm0,21.33a8.11,8.11,0,1,1,8.1-8.1A8.11,8.11,0,0,1,248.58,96.51Z"/><circle class="cls-1" cx="297.08" cy="88.41" r="10.67"/><path class="cls-2" d="M297.08,75.18A13.23,13.23,0,1,0,310.3,88.41,13.24,13.24,0,0,0,297.08,75.18Zm0,21.33a8.11,8.11,0,1,1,8.1-8.1A8.11,8.11,0,0,1,297.08,96.51Z"/><circle class="cls-1" cx="345.58" cy="88.41" r="10.67" transform="translate(229.16 425.58) rotate(-85.3)"/><path class="cls-2" d="M345.58,75.18A13.23,13.23,0,1,0,358.8,88.41,13.24,13.24,0,0,0,345.58,75.18Zm0,21.33a8.11,8.11,0,1,1,8.1-8.1A8.11,8.11,0,0,1,345.58,96.51Z"/></g><path class="cls-3" d="M83.06,133.16v17.62a47.53,47.53,0,0,0,58.23-44.34l-31.58.08A26.65,26.65,0,0,0,83.06,133.16Z"/><circle class="cls-5" cx="93.83" cy="97.68" r="44.94"/><path class="cls-2" d="M93.83,50.18a47.5,47.5,0,1,0,47.5,47.5A47.56,47.56,0,0,0,93.83,50.18Zm0,89.88a42.38,42.38,0,1,1,42.38-42.38A42.43,42.43,0,0,1,93.83,140.06Z"/><g class="cls-6"><path d="M93.63,115.45A5.34,5.34,0,1,0,97.4,117,5.14,5.14,0,0,0,93.63,115.45Z"/><path d="M93.63,69.73a5.36,5.36,0,0,0-5.33,5.34v31A5.34,5.34,0,0,0,99,106v-31a5.36,5.36,0,0,0-5.34-5.34Z"/></g><path class="cls-4" d="M92.78,112.89a5.33,5.33,0,1,0,3.77,1.56A5.16,5.16,0,0,0,92.78,112.89Z"/><path class="cls-4" d="M92.78,67.17a5.34,5.34,0,0,0-5.33,5.34v31a5.33,5.33,0,1,0,10.66,0v-31a5.34,5.34,0,0,0-5.33-5.34Z"/><path class="cls-2" d="M93,0a2.56,2.56,0,0,0-2.56,2.56v35a2.56,2.56,0,0,0,5.12,0v-35A2.56,2.56,0,0,0,93,0Z"/><path class="cls-2" d="M31.21,33.06a2.56,2.56,0,1,0-3.36,3.86l22.49,19.6a2.5,2.5,0,0,0,1.68.63,2.55,2.55,0,0,0,1.68-4.48Z"/><path class="cls-2" d="M35.84,94.72H2.56a2.56,2.56,0,0,0,0,5.12H35.84a2.56,2.56,0,0,0,0-5.12Z"/></g></g></svg>