<?xml version="1.0" encoding="UTF-8"?>
<svg width="47px" height="47px" viewBox="0 0 47 47" version="1.1" xmlns="http://www.w3.org/2000/svg" xmlns:xlink="http://www.w3.org/1999/xlink">
    <title>D2B658D6-8152-46EB-994C-8E6F7DA785FE</title>
    <g id="FBS-League-(ex-Pro)" stroke="none" stroke-width="1" fill="none" fill-rule="evenodd">
        <g id="3-FBS-Pro-Participate-Started-2---collapsed" transform="translate(-141.000000, -809.000000)">
            <g id="icon_team" transform="translate(141.000000, 809.000000)">
                <path d="M23.3763158,2.4158453e-13 C36.2807018,2.4158453e-13 46.7526316,10.3804609 46.7526316,23.1726348 C46.7526316,35.9652174 36.2807018,46.3456783 23.3763158,46.3456783 C10.4719298,46.3456783 -2.13162821e-14,35.9652174 -2.13162821e-14,23.1726348 C-2.13162821e-14,10.3804609 10.4719298,2.4158453e-13 23.3763158,2.4158453e-13" id="Fill-1" fill="#EEEEEE"></path>
                <g id="icon-selector-team" transform="translate(8.000000, 9.000000)" fill="#64A33A" fill-rule="nonzero">
                    <path d="M25.4422541,13.42 L23,13.42 C23.2466821,14.0806531 23.3823383,14.8013936 23.3823383,15.5461198 L23.3823383,24.5311134 C23.3823383,24.8434199 23.3268254,25.1437336 23.2281778,25.42 L27.2678028,25.42 C28.7788414,25.42 30,24.224834 30,22.7593674 L30,17.8584674 C30,15.4079866 27.9523994,13.42 25.4422541,13.42 Z" id="Path"></path>
                    <path d="M6.61766165,15.5461198 C6.61766165,14.8013936 6.75331788,14.0806531 7,13.42 L4.55772066,13.42 C2.04758163,13.42 0,15.4079866 0,17.8584674 L0,22.7593674 C0,24.2307997 1.2273162,25.42 2.73216557,25.42 L6.77182219,25.42 C6.6731746,25.1437336 6.61766165,24.8434199 6.61766165,24.5311134 L6.61766165,15.5461198 Z" id="Path"></path>
                    <path d="M17.654372,11.42 L12.3397949,11.42 C9.94379132,11.42 8,13.3704972 8,15.7616039 L8,24.5505121 C8,25.0322709 8.3875676,25.42 8.8691256,25.42 L21.1308744,25.42 C21.6124324,25.42 22,25.0322709 22,24.5505121 L22,15.7616039 C21.9941669,13.3646015 20.0444824,11.42 17.654372,11.42 Z" id="Path"></path>
                    <path d="M15.0056293,0.42 C12.2465829,0.42 10,2.66409671 10,5.42 C10,7.28728253 11.0304045,8.9239624 12.5562635,9.77881635 C13.2826379,10.1837532 14.1159677,10.42 14.9999788,10.42 C15.8839899,10.42 16.7229701,10.1893973 17.443694,9.77881635 C18.969553,8.9239624 20,7.28728253 20,5.42 C20.0112585,2.66409671 17.764618,0.42 15.0056293,0.42 Z" id="Path"></path>
                    <path d="M6.00001232,4.42 C3.79248517,4.42 2,6.21250556 2,8.4199692 C2,10.6274944 3.79248517,12.42 6.00001232,12.42 C6.55939477,12.42 7.09477386,12.3056817 7.57594983,12.0951538 C8.41203309,11.7342752 9.10380053,11.0966551 9.53083496,10.2966736 C9.83160073,9.73727786 10,9.09971944 10,8.4199692 C10,6.21848017 8.20753947,4.42 6.00001232,4.42 Z" id="Path"></path>
                    <path d="M24,4.42 C21.7924578,4.42 20,6.21250556 20,8.4199692 C20,9.09971944 20.168399,9.73727786 20.4691643,10.2966736 C20.8961981,11.0966551 21.5879645,11.7342752 22.4240464,12.0951538 C22.9052217,12.3056817 23.4405999,12.42 24,12.42 C26.2074806,12.42 28,10.6274944 28,8.4199692 C28,6.21250556 26.201506,4.42 24,4.42 Z" id="Path"></path>
                </g>
            </g>
        </g>
    </g>
</svg>