<?xml version="1.0" encoding="UTF-8"?>
<svg width="47px" height="47px" viewBox="0 0 47 47" version="1.1" xmlns="http://www.w3.org/2000/svg" xmlns:xlink="http://www.w3.org/1999/xlink">
    <title>FE67559F-1FE9-46B5-ABFE-1F31E063B31B</title>
    <g id="FBS-League-(ex-Pro)" stroke="none" stroke-width="1" fill="none" fill-rule="evenodd">
        <g id="3-FBS-Pro-Participate-Started-2---collapsed" transform="translate(-141.000000, -649.000000)">
            <g id="icon_solo" transform="translate(141.000000, 649.000000)">
                <path d="M23.3763158,2.4158453e-13 C36.2807018,2.4158453e-13 46.7526316,10.3804609 46.7526316,23.1726348 C46.7526316,35.9652174 36.2807018,46.3456783 23.3763158,46.3456783 C10.4719298,46.3456783 -2.13162821e-14,35.9652174 -2.13162821e-14,23.1726348 C-2.13162821e-14,10.3804609 10.4719298,2.4158453e-13 23.3763158,2.4158453e-13" id="Fill-1" fill="#EEEEEE"></path>
                <g id="icon-selector-solo" transform="translate(16.000000, 9.000000)" fill="#64A33A" fill-rule="nonzero">
                    <path d="M10.34397,13 L4.64978029,13 C2.08263355,13 0,15.0898184 0,17.6517184 L0,27.0684059 C0,27.5845759 0.415250998,28 0.931206,28 L14.068794,28 C14.584749,28 15,27.5845759 15,27.0684059 L15,17.6517184 C14.9937503,15.0835016 12.9048026,13 10.34397,13 Z" id="Path"></path>
                    <path d="M7.50619218,0 C4.47124115,0 2,2.46850638 2,5.5 C2,7.55401078 3.13344499,9.35435864 4.81188986,10.294698 C5.61090167,10.7401285 6.52756444,11 7.49997665,11 C8.47238886,11 9.39526716,10.7463371 10.1880634,10.294698 C11.8665083,9.35435864 13,7.55401078 13,5.5 C13.0123844,2.46850638 10.5410798,0 7.50619218,0 Z" id="Path"></path>
                </g>
            </g>
        </g>
    </g>
</svg>