<svg xmlns="http://www.w3.org/2000/svg" viewBox="0 0 41.41 32">
  <defs>
    <style>
      .cls-1 {
        fill: #FF4802;
      }
    </style>
  </defs>
  <title>id_icon_vb</title>
  <g id="Layer_2" data-name="Layer 2">
    <g id="svg7520">
      <path id="path7596" class="cls-1" d="M1.91,0A1.91,1.91,0,0,0,0,1.91V25.34a1.91,1.91,0,0,0,1.91,1.91l32.93,0a1.85,1.85,0,0,0,1.88-1.87V1.88A2.05,2.05,0,0,0,34.63,0ZM22,2.75h1.88a.5.5,0,0,1,.5.47V5.09a.5.5,0,0,1-.5.47H22a.47.47,0,0,1-.47-.47V3.22A.47.47,0,0,1,22,2.75Zm4.72,0h1.88a.46.46,0,0,1,.46.47V5.09a.46.46,0,0,1-.46.47H26.75a.47.47,0,0,1-.47-.47V3.22A.47.47,0,0,1,26.75,2.75Zm4.69,0h1.9a.47.47,0,0,1,.47.47V5.09a.47.47,0,0,1-.47.47h-1.9A.47.47,0,0,1,31,5.09V3.22A.47.47,0,0,1,31.44,2.75Zm7.15,2V28.63a.55.55,0,0,1-.56.56H4.72v.94a1.94,1.94,0,0,0,2,1.87H39.53a1.86,1.86,0,0,0,1.88-1.87V6.59a1.86,1.86,0,0,0-1.88-1.87ZM33.78,8.47v16l-30.94,0V8.5ZM10.84,10.34a3.33,3.33,0,0,0-3.31,3.32,3.3,3.3,0,1,0,3.31-3.32Zm7.07.94v1.91H31.06V11.28Zm0,3.78v1.88H31.06V15.06ZM8.25,17.88a2.59,2.59,0,0,0-2.59,2.5v1.18a1,1,0,0,0,1,1H15a1,1,0,0,0,1-1V20.47a2.59,2.59,0,0,0-2.59-2.59Zm9.66.93v1.91H31.06V18.81Z"/>
    </g>
  </g>
</svg>
