<svg xmlns="http://www.w3.org/2000/svg" viewBox="0 0 367.33 339.31"><defs><style>.cls-1{opacity:0.15;}.cls-2{fill:#fff;}.cls-3{fill:#3a5c91;}.cls-4{fill:#a4e4ff;}.cls-5{fill:#ced3e2;}</style></defs><title>identity</title><g id="Layer_2" data-name="Layer 2"><g id="Layer_1-2" data-name="Layer 1"><path class="cls-1" d="M357.68,291.6l-10.59-8.09h0l-55.94-42.77-16-12.26a10.63,10.63,0,0,0-12.57-.25L250.39,218A136.19,136.19,0,0,0,125.29,6.68,135.28,135.28,0,0,0,32.83,54.81c-48.27,57.52-40.74,143.6,16.78,191.87a135.19,135.19,0,0,0,87.31,31.87q6,0,12.11-.53a135.17,135.17,0,0,0,82.9-37.85L244,250.31a10.62,10.62,0,0,0,2.43,12.34l41.86,38.49L313.13,324h0l9.71,8.93.1.09a27,27,0,0,0,34.74-41.4Z"/><rect class="cls-2" x="235.26" y="209.48" width="22.69" height="37.81" transform="translate(-86.87 270.49) rotate(-50)"/><path class="cls-3" d="M220.5,225.3l33.67,28.26,18.53-22.09L239,203.22Zm43.55,6.93L253.41,244.9l-24.25-20.35,10.63-12.68Z"/><circle class="cls-4" cx="136.13" cy="136.21" r="133.12" transform="translate(-56.44 136.15) rotate(-45)"/><path class="cls-3" d="M223.68,31.88A136.2,136.2,0,0,0,31.8,48.66c-48.27,57.53-40.74,143.6,16.79,191.87a135.13,135.13,0,0,0,87.31,31.88c4,0,8.06-.18,12.1-.53a136.19,136.19,0,0,0,75.68-240ZM235.76,219.8a130.05,130.05,0,0,1-183.22,16c-54.93-46.1-62.12-128.29-16-183.22a129.2,129.2,0,0,1,88.29-46q5.8-.51,11.56-.5a130.06,130.06,0,0,1,99.4,213.65Z"/><path class="cls-2" d="M77.53,28.37A120.72,120.72,0,0,0,13.71,145.71a3.08,3.08,0,0,0,3.06,2.81l.27,0a3.06,3.06,0,0,0,2.79-3.32A114.83,114.83,0,0,1,80.4,33.8a3.07,3.07,0,1,0-2.87-5.43Z"/><circle class="cls-2" cx="136.13" cy="136.2" r="105.47" transform="translate(-56.44 136.15) rotate(-45)"/><path class="cls-3" d="M205.9,53.06a108.54,108.54,0,1,0,38.36,73.68A108.67,108.67,0,0,0,205.9,53.06Zm8.68,149a102.41,102.41,0,1,1,23.56-74.75A102.53,102.53,0,0,1,214.58,202Z"/><path class="cls-1" d="M202,57.76a101.64,101.64,0,0,0-65.64-24c-3,0-6.06.13-9.1.39A102.48,102.48,0,0,0,49.42,190.76a102.45,102.45,0,0,1,83.93-145.3q4.58-.41,9.1-.4A102.72,102.72,0,0,1,229,92.92,102.06,102.06,0,0,0,202,57.76Z"/><path class="cls-2" d="M354.68,287.81l-13-10-60.14-46-9.29-7.1a7.55,7.55,0,0,0-10.38,1.14l-15,17.9a7.55,7.55,0,0,0,.68,10.42l8.6,7.92,55.72,51.24,12.07,11.1a23.95,23.95,0,1,0,30.79-36.69Z"/><path class="cls-3" d="M356.65,285.46l-82.57-63.13a10.63,10.63,0,0,0-14.6,1.61l-15,17.9a10.62,10.62,0,0,0,1,14.66l76.39,70.26.11.09a27,27,0,1,0,34.73-41.39Zm-1.37,34.11a20.9,20.9,0,0,1-29.36,2.62L249.58,252a4.49,4.49,0,0,1-.41-6.19l15-17.9a4.48,4.48,0,0,1,6.16-.67l82.4,63a20.87,20.87,0,0,1,2.53,29.36Z"/><polygon class="cls-5" points="256.11 262.16 311.82 313.4 341.65 277.85 281.51 231.88 256.11 262.16"/><path class="cls-3" d="M251.86,262.43l60.25,55.41,34-40.48-65-49.7Zm85.37,15.91L311.53,309l-51.18-47.08L282,236.1Z"/><path class="cls-3" d="M197,84H155.66a3.07,3.07,0,1,0,0,6.14H197A3.07,3.07,0,0,0,197,84Z"/><path class="cls-3" d="M197,108H155.66a3.08,3.08,0,1,0,0,6.15H197a3.08,3.08,0,0,0,0-6.15Z"/><path class="cls-3" d="M197,134.16H155.66a3.07,3.07,0,1,0,0,6.14H197a3.07,3.07,0,0,0,0-6.14Z"/><path class="cls-3" d="M197,160.27H78.79a3.07,3.07,0,0,0,0,6.14H197a3.07,3.07,0,0,0,0-6.14Z"/><path class="cls-3" d="M197,186.38H78.79a3.07,3.07,0,0,0,0,6.14H197a3.07,3.07,0,0,0,0-6.14Z"/><path class="cls-2" d="M118.69,111.94a5.09,5.09,0,0,1-4.37-3.94,18.61,18.61,0,0,1-.55-5,4.15,4.15,0,0,1,1.67-3.1,13.61,13.61,0,0,0,5.33-10.81V82.28a13.64,13.64,0,0,0-13-13.62h-2.73a13.64,13.64,0,0,0-13,13.62v6.83a13.61,13.61,0,0,0,5.33,10.81A4.11,4.11,0,0,1,99.1,103a18.61,18.61,0,0,1-.54,5,5.11,5.11,0,0,1-4.37,3.94c-10.84,1.24-22.57,8.26-22.57,18.77v5.5a2,2,0,0,0,2,2H139.2a2,2,0,0,0,2.05-2v-5.5C141.25,120.2,129.52,113.18,118.69,111.94Z"/><path class="cls-3" d="M119,108.89a2,2,0,0,1-1.73-1.58h0a15.92,15.92,0,0,1-.47-4.18,1.12,1.12,0,0,1,.48-.78,16.58,16.58,0,0,0,6.52-13.24V82.28A16.7,16.7,0,0,0,108,65.59h-3A16.7,16.7,0,0,0,89,82.28v6.83a16.59,16.59,0,0,0,6.53,13.24,1.14,1.14,0,0,1,.47.79,15.08,15.08,0,0,1-.47,4.17,2,2,0,0,1-1.72,1.58c-12.26,1.4-25.29,9.53-25.29,21.82v5.49a5.12,5.12,0,0,0,5.12,5.12h65.54a5.12,5.12,0,0,0,5.12-5.12v-5.49C144.33,118.42,131.3,110.29,119,108.89Zm19.14,26.29H74.69v-4.47c0-8.42,10.09-14.6,19.85-15.72a8.18,8.18,0,0,0,7-6.31,21.09,21.09,0,0,0,.62-5.77,7.19,7.19,0,0,0-2.86-5.42,10.52,10.52,0,0,1-4.14-8.38V82.28a10.57,10.57,0,0,1,10-10.55h2.57a10.57,10.57,0,0,1,10,10.55v6.83a10.54,10.54,0,0,1-4.13,8.38,7.17,7.17,0,0,0-2.87,5.42,21.49,21.49,0,0,0,.62,5.77,8.18,8.18,0,0,0,7,6.31c9.75,1.12,19.84,7.3,19.84,15.72Z"/><path class="cls-2" d="M326.9,277.49l-43-33.79a3.07,3.07,0,0,0-3.79,4.83l43,33.8a3.08,3.08,0,1,0,3.8-4.84Z"/></g></g></svg>