<svg xmlns="http://www.w3.org/2000/svg" viewBox="0 0 456.36 319.96"><defs><style>.cls-1{fill:#c1c1c1;}.cls-2{fill:#fe9595;}.cls-3{fill:#ced3e2;}.cls-4{fill:#a4e4ff;}.cls-5{fill:#3a5c91;}.cls-6{fill:#e0f5ff;}.cls-7,.cls-8{fill:#fff;}.cls-8,.cls-9{fill-rule:evenodd;}.cls-9{fill:#c2ddf3;}.cls-10{fill:#ff7a7b;}.cls-11{fill:#efc849;}.cls-12{fill:#b0daf0;}.cls-13{fill:#417aaa;}</style></defs><title>Asset 5</title><g id="Layer_2" data-name="Layer 2"><g id="Layer_1-2" data-name="Layer 1"><path class="cls-1" d="M386.92,274h-5.85v-5.85a1.83,1.83,0,1,0-3.65,0V274H372.3a1.83,1.83,0,1,0,0,3.66h5.12v5.85a1.83,1.83,0,1,0,3.65,0v-5.85h5.85a1.83,1.83,0,0,0,0-3.66Z"/><path class="cls-2" d="M276.35,38.94a1.83,1.83,0,0,1-1.83-1.83V22.48a1.83,1.83,0,1,1,3.66,0V37.11A1.83,1.83,0,0,1,276.35,38.94Z"/><path class="cls-2" d="M284,31.26H269.4a1.83,1.83,0,1,1,0-3.66H284a1.83,1.83,0,1,1,0,3.66Z"/><path class="cls-2" d="M441.75,200.4a1.47,1.47,0,0,1-1.45-1.2c-1.7-9.25-2.71-10.26-12-12a1.47,1.47,0,0,1,0-2.9c9.25-1.7,10.26-2.71,12-12a1.48,1.48,0,0,1,2.9,0c1.7,9.25,2.71,10.26,12,12a1.48,1.48,0,0,1,0,2.9c-9.25,1.7-10.26,2.71-12,12A1.47,1.47,0,0,1,441.75,200.4Zm-6.89-14.61a9.82,9.82,0,0,1,6.89,6.89,9.82,9.82,0,0,1,6.89-6.89,9.82,9.82,0,0,1-6.89-6.89A9.82,9.82,0,0,1,434.86,185.79Z"/><path class="cls-3" d="M100.17,35a1.48,1.48,0,0,1-1.41-1.07c-2.82-10.22-4.78-12.18-15-15a1.46,1.46,0,0,1,0-2.82c10.21-2.82,12.17-4.78,15-15A1.48,1.48,0,0,1,100.17,0a1.46,1.46,0,0,1,1.41,1.07c2.83,10.22,4.79,12.18,15,15a1.46,1.46,0,0,1,0,2.82c-10.21,2.82-12.17,4.78-15,15A1.46,1.46,0,0,1,100.17,35ZM89.08,17.48c6.18,2.22,8.87,4.91,11.09,11.09,2.23-6.18,4.91-8.86,11.09-11.09-6.18-2.22-8.86-4.91-11.09-11.09C98,12.57,95.26,15.26,89.08,17.48Z"/><g id="laptop"><path class="cls-4" d="M102.55,104.17h247a14.69,14.69,0,0,1,14.69,14.69V309.64a0,0,0,0,1,0,0H87.87a0,0,0,0,1,0,0V118.85A14.69,14.69,0,0,1,102.55,104.17Z"/><path class="cls-5" d="M364.19,312.2H87.87a2.56,2.56,0,0,1-2.56-2.56V118.85a17.25,17.25,0,0,1,17.24-17.24h247a17.25,17.25,0,0,1,17.24,17.24V309.64A2.56,2.56,0,0,1,364.19,312.2ZM90.43,307.08h271.2V118.85a12.14,12.14,0,0,0-12.12-12.12h-247a12.14,12.14,0,0,0-12.12,12.12Z"/><rect class="cls-6" x="90.07" y="139.59" width="271.91" height="165.21"/><rect class="cls-7" x="95.81" y="147.37" width="260.24" height="140"/><path class="cls-8" d="M263.09,295.47H392.53a21.29,21.29,0,0,1-21.25,21.26H80.78a21.24,21.24,0,0,1-21.26-21.26H263.09Z"/><path class="cls-9" d="M63.33,307.62a21.19,21.19,0,0,0,17.45,9.11h290.5a21.2,21.2,0,0,0,15-6.24,20.63,20.63,0,0,0,2.4-2.87Z"/><path class="cls-5" d="M392.53,292.93H263.08a2.54,2.54,0,1,0,0,5.08H389.82a18.76,18.76,0,0,1-18.54,16.17H80.78A18.7,18.7,0,0,1,62.24,298H189a2.54,2.54,0,0,0,0-5.08H59.52A2.54,2.54,0,0,0,57,295.47a23.83,23.83,0,0,0,23.8,23.8h290.5a23.83,23.83,0,0,0,23.8-23.8A2.55,2.55,0,0,0,392.53,292.93Z"/><path class="cls-6" d="M189,295.47a14.16,14.16,0,0,0,12.26,7.09h49.6a13.84,13.84,0,0,0,10-4.19,13,13,0,0,0,2.27-2.9Z"/><path class="cls-5" d="M250.83,305.12h-49.6a16.62,16.62,0,0,1-14.47-8.36,2.56,2.56,0,1,1,4.42-2.58,11.56,11.56,0,0,0,10,5.82h49.6a11.24,11.24,0,0,0,8.15-3.41l.1-.1a9.84,9.84,0,0,0,1.81-2.34,2.56,2.56,0,1,1,4.39,2.64,15.24,15.24,0,0,1-2.68,3.42A16.35,16.35,0,0,1,250.83,305.12Z"/><path class="cls-10" d="M119.75,121.88a7.09,7.09,0,1,1-7.09-7.09A7.09,7.09,0,0,1,119.75,121.88Z"/><path class="cls-5" d="M141,121.88a7.09,7.09,0,1,1-7.09-7.09A7.1,7.1,0,0,1,141,121.88Z"/><path class="cls-11" d="M162.26,121.88a7.09,7.09,0,1,1-7.08-7.09A7.09,7.09,0,0,1,162.26,121.88Z"/><path class="cls-8" d="M236.66,139.59v-5.74a15.5,15.5,0,0,1,15.51-15.51h51.09a18.39,18.39,0,0,1,18.42,18.42v2.83Z"/><path class="cls-5" d="M321.68,142.15h-85a2.55,2.55,0,0,1-2.56-2.56v-5.74a18.1,18.1,0,0,1,18.07-18.07h51.09a21,21,0,0,1,21,21v2.83A2.55,2.55,0,0,1,321.68,142.15ZM239.22,137h79.9v-.27a15.87,15.87,0,0,0-15.86-15.86H252.17a13,13,0,0,0-12.95,12.95Z"/><path class="cls-8" d="M172.89,139.59a21.27,21.27,0,0,1,21.26-21.25h35.42a21.23,21.23,0,0,1,21.26,21.25Z"/><path class="cls-5" d="M250.83,142.15H172.89a2.56,2.56,0,0,1-2.56-2.56,23.83,23.83,0,0,1,23.82-23.81h35.42a23.84,23.84,0,0,1,23.82,23.81A2.56,2.56,0,0,1,250.83,142.15ZM175.62,137h72.47a18.72,18.72,0,0,0-18.52-16.13H194.15A18.73,18.73,0,0,0,175.62,137Z"/><path class="cls-5" d="M364.19,142.15H321.68a2.56,2.56,0,1,1,0-5.12h42.51a2.56,2.56,0,1,1,0,5.12Z"/><path class="cls-5" d="M172.89,142.15h-85a2.56,2.56,0,0,1,0-5.12h85a2.56,2.56,0,0,1,0,5.12Z"/><rect class="cls-12" x="111.15" y="174.44" width="85.73" height="77.94"/><polygon class="cls-8" points="146.93 188.61 122.39 231.12 171.48 231.12 146.93 188.61"/><polygon class="cls-8" points="169.02 205.14 154.02 231.12 184.01 231.12 169.02 205.14"/><path class="cls-8" d="M182.36,188.61a7.09,7.09,0,1,1-7.09-7.08A7.09,7.09,0,0,1,182.36,188.61Z"/><path class="cls-13" d="M335.85,191.75H229.57a2.56,2.56,0,0,1,0-5.12H335.85a2.56,2.56,0,0,1,0,5.12Z"/><path class="cls-13" d="M335.85,220.09H229.57a2.56,2.56,0,0,1,0-5.12H335.85a2.56,2.56,0,0,1,0,5.12Z"/><path class="cls-13" d="M335.85,248.43H229.57a2.56,2.56,0,0,1,0-5.12H335.85a2.56,2.56,0,0,1,0,5.12Z"/></g><path class="cls-5" d="M438.12,320H34.21a2.56,2.56,0,1,1,0-5.12H438.12a2.56,2.56,0,0,1,0,5.12Z"/><path class="cls-5" d="M20.55,320h-18a2.56,2.56,0,1,1,0-5.12h18a2.56,2.56,0,1,1,0,5.12Z"/></g></g></svg>