<svg xmlns="http://www.w3.org/2000/svg" viewBox="0 0 512 512"><defs><style>.cls-1{fill:#fff;}.cls-2{fill:#eaf4fe;}.cls-3{fill:#fe9595;}.cls-4{fill:#97aac4;}.cls-5{fill:#ced3e2;}.cls-6{fill:#d4dbe3;}.cls-7{fill:#a4e4ff;}.cls-8{fill:#ffd599;}.cls-9{fill:#ff9797;}.cls-10{fill:#3a5c91;}</style></defs><title>Demo</title><g id="Layer_2" data-name="Layer 2"><g id="Layer_1-2" data-name="Layer 1"><rect class="cls-1" width="512" height="512"/><path class="cls-2" d="M442.55,291.11a23.3,23.3,0,0,0-29.89-13.89L372.3,292a23.3,23.3,0,0,1-29.89-13.89l-2.25-6.15A23.3,23.3,0,0,1,354.05,242l40.35-14.76a23.3,23.3,0,0,0,13.89-29.89l-2.5-6.84a23.3,23.3,0,0,0-29.89-13.88l-8.21,3a23.3,23.3,0,0,1-29.89-13.89l-2-5.47a23.3,23.3,0,0,1,13.89-29.89l73.19-26.76a23.3,23.3,0,0,0,13.89-29.89l-2.25-6.16a23.3,23.3,0,0,0-29.89-13.88L81.08,172a23.3,23.3,0,0,0-13.89,29.89l2.25,6.16a23.3,23.3,0,0,0,29.89,13.88l10.26-3.75a23.3,23.3,0,0,1,29.89,13.89l2,5.47a23.3,23.3,0,0,1-13.89,29.89l-10.26,3.75a23.31,23.31,0,0,0-13.88,29.9l2.5,6.84a23.3,23.3,0,0,0,29.89,13.88l52.67-19.25a23.3,23.3,0,0,1,29.89,13.89l2.25,6.15a23.3,23.3,0,0,1-13.89,29.89L90.48,395a23.3,23.3,0,0,0-13.89,29.89l2.5,6.84A23.3,23.3,0,0,0,109,445.61L431.16,327.84A23.3,23.3,0,0,0,445.05,298ZM252.09,221.92l-8.89,3.26a23.31,23.31,0,0,1-29.89-13.89l-2-5.47a23.31,23.31,0,0,1,13.88-29.9l8.9-3.25A23.31,23.31,0,0,1,264,186.56l2,5.47A23.3,23.3,0,0,1,252.09,221.92Z"/><path class="cls-3" d="M305.86,93.92A1.83,1.83,0,0,0,304,95.75v14.63a1.83,1.83,0,1,0,3.66,0V95.75A1.83,1.83,0,0,0,305.86,93.92Z"/><path class="cls-3" d="M313.54,100.87H298.91a1.83,1.83,0,0,0,0,3.66h14.63a1.83,1.83,0,0,0,0-3.66Z"/><path class="cls-3" d="M442.94,136c-9.25-1.7-10.26-2.71-12-12a1.48,1.48,0,0,0-2.9,0c-1.7,9.25-2.71,10.26-11.95,12a1.47,1.47,0,0,0,0,2.9c9.24,1.7,10.25,2.71,11.95,12a1.48,1.48,0,0,0,2.9,0c1.7-9.25,2.71-10.26,12-12a1.47,1.47,0,0,0,0-2.9Zm-13.41,8.34a9.82,9.82,0,0,0-6.89-6.89,9.82,9.82,0,0,0,6.89-6.89,9.82,9.82,0,0,0,6.89,6.89A9.82,9.82,0,0,0,429.53,144.33Z"/><path class="cls-4" d="M87,178.72l-27.08,2.57a4.43,4.43,0,0,0-3.18,7l15.77,22.16a4.38,4.38,0,0,0,4,1.84,4.43,4.43,0,0,0,2.11-.78,4.36,4.36,0,0,0,1.49-1.79h0L91.44,185a4.42,4.42,0,0,0-.42-4.41A4.36,4.36,0,0,0,87,178.72Zm-8.21,30.36Zm10-25.35L77.45,208.47a1.43,1.43,0,0,1-1.2.85,1.41,1.41,0,0,1-1.34-.61L59.14,186.55a1.43,1.43,0,0,1-.14-1.47,1.39,1.39,0,0,1,.5-.6,1.27,1.27,0,0,1,.7-.25l27.08-2.58a1.46,1.46,0,0,1,1.34.61A1.47,1.47,0,0,1,88.76,183.73Z"/><path class="cls-5" d="M146.09,73.13c-10.21-2.82-12.17-4.78-15-15a1.46,1.46,0,0,0-1.41-1.07,1.48,1.48,0,0,0-1.41,1.07c-2.82,10.22-4.78,12.18-15,15a1.46,1.46,0,0,0,0,2.82c10.21,2.82,12.17,4.78,15,15A1.48,1.48,0,0,0,129.68,92,1.46,1.46,0,0,0,131.09,91c2.83-10.22,4.79-12.18,15-15a1.46,1.46,0,0,0,0-2.82Zm-16.41,12.5c-2.22-6.18-4.91-8.87-11.09-11.09,6.18-2.22,8.87-4.91,11.09-11.09,2.23,6.18,4.92,8.87,11.1,11.09C134.59,76.76,131.91,79.45,129.68,85.63Z"/><path class="cls-6" d="M369.23,354.67a78.88,78.88,0,0,1-70.52-43.9H236.08A78.75,78.75,0,1,1,205.67,208.4H329.13a78.64,78.64,0,1,1,40.1,146.27Z"/><path class="cls-1" d="M372.59,334.47A70.93,70.93,0,0,1,309.16,295H224a70.93,70.93,0,0,1-63.43,39.49c-39,0-70.77-25.25-70.77-64.27a70.67,70.67,0,0,1,106.84-60.81h139.9A70.66,70.66,0,0,1,443.35,270.2C443.35,309.22,411.61,334.47,372.59,334.47Z"/><path class="cls-7" d="M369.23,261.53a19.38,19.38,0,1,1,19.37-19.37A19.39,19.39,0,0,1,369.23,261.53Z"/><path class="cls-8" d="M403.07,295.38A19.38,19.38,0,1,1,422.44,276,19.4,19.4,0,0,1,403.07,295.38Z"/><path class="cls-9" d="M335.39,295.38A19.38,19.38,0,1,1,354.76,276,19.4,19.4,0,0,1,335.39,295.38Z"/><path class="cls-7" d="M176,327.81H155.11a9.76,9.76,0,0,1-9.76-9.75V296.22H123.51a9.76,9.76,0,0,1-9.75-9.76V265.53a9.76,9.76,0,0,1,9.75-9.75h21.84V233.94a9.77,9.77,0,0,1,9.76-9.76H176a9.76,9.76,0,0,1,9.75,9.76v21.84h21.84a9.76,9.76,0,0,1,9.76,9.75v20.93a9.77,9.77,0,0,1-9.76,9.76H185.79v21.84A9.76,9.76,0,0,1,176,327.81Z"/><path class="cls-10" d="M176,327.81H155.11a9.76,9.76,0,0,1-9.76-9.75V296.22H123.51a9.76,9.76,0,0,1-9.75-9.76V265.53a9.76,9.76,0,0,1,9.75-9.75h21.84V233.94a9.77,9.77,0,0,1,9.76-9.76H176a9.76,9.76,0,0,1,9.75,9.76v21.84h21.84a9.76,9.76,0,0,1,9.76,9.75v20.93a9.77,9.77,0,0,1-9.76,9.76H185.79v21.84A9.76,9.76,0,0,1,176,327.81Zm-52.53-64.45a2.17,2.17,0,0,0-2.17,2.17v20.93a2.18,2.18,0,0,0,2.17,2.18h25.63a3.78,3.78,0,0,1,3.79,3.79v25.63a2.18,2.18,0,0,0,2.18,2.17H176a2.17,2.17,0,0,0,2.17-2.17V292.43a3.79,3.79,0,0,1,3.79-3.79h25.63a2.19,2.19,0,0,0,2.18-2.18V265.53a2.18,2.18,0,0,0-2.18-2.17H182a3.79,3.79,0,0,1-3.79-3.79V233.94a2.18,2.18,0,0,0-2.17-2.18H155.11a2.19,2.19,0,0,0-2.18,2.18v25.63a3.79,3.79,0,0,1-3.79,3.79Z"/><path class="cls-10" d="M165.57,287.08a3.8,3.8,0,0,1-3.79-3.8V268.71a3.79,3.79,0,0,1,7.58,0v14.57A3.79,3.79,0,0,1,165.57,287.08Z"/><path class="cls-10" d="M172.86,279.79H158.29a3.79,3.79,0,1,1,0-7.58h14.57a3.79,3.79,0,0,1,0,7.58Z"/><path class="cls-10" d="M369.23,261.53a19.38,19.38,0,1,1,19.37-19.37A19.39,19.39,0,0,1,369.23,261.53Zm0-31.17A11.8,11.8,0,1,0,381,242.16,11.82,11.82,0,0,0,369.23,230.36Z"/><path class="cls-10" d="M369.23,329.21a19.38,19.38,0,1,1,19.37-19.37A19.39,19.39,0,0,1,369.23,329.21Zm0-31.17A11.8,11.8,0,1,0,381,309.84,11.81,11.81,0,0,0,369.23,298Z"/><path class="cls-10" d="M403.07,295.38A19.38,19.38,0,1,1,422.44,276,19.4,19.4,0,0,1,403.07,295.38Zm0-31.18A11.8,11.8,0,1,0,414.86,276,11.82,11.82,0,0,0,403.07,264.2Z"/><path class="cls-10" d="M335.39,295.38A19.38,19.38,0,1,1,354.76,276,19.4,19.4,0,0,1,335.39,295.38Zm0-31.18A11.8,11.8,0,1,0,347.18,276,11.82,11.82,0,0,0,335.39,264.2Z"/><path class="cls-10" d="M369.23,354.67a78.88,78.88,0,0,1-70.52-43.9H236.08A78.75,78.75,0,1,1,205.67,208.4H329.13a78.64,78.64,0,1,1,40.1,146.27ZM233.69,303.19h67.42a3.77,3.77,0,0,1,3.45,2.21,71.16,71.16,0,1,0,27.61-90,3.79,3.79,0,0,1-2,.56H204.61a3.78,3.78,0,0,1-2-.56,71.06,71.06,0,1,0,27.61,90A3.77,3.77,0,0,1,233.69,303.19Z"/><path class="cls-10" d="M281.61,271.2H253.19a11.62,11.62,0,0,1,0-23.23h28.42a11.62,11.62,0,0,1,0,23.23Zm-28.42-15.65a4,4,0,1,0,0,8.06h28.42a4,4,0,0,0,0-8.06Z"/><path class="cls-10" d="M304.37,216H230.43a3.79,3.79,0,0,1-3.79-3.79v-7.13a10.19,10.19,0,0,1,10.17-10.17H298a10.19,10.19,0,0,1,10.17,10.17v7.13A3.79,3.79,0,0,1,304.37,216Zm-70.15-7.58h66.36v-3.34a2.59,2.59,0,0,0-2.59-2.58H236.81a2.59,2.59,0,0,0-2.59,2.58Z"/><path class="cls-10" d="M285.09,202.48H249.71a3.79,3.79,0,0,1-3.79-3.79V183.64a3.78,3.78,0,0,1,3.79-3.79h35.38a3.78,3.78,0,0,1,3.79,3.79v15.05A3.79,3.79,0,0,1,285.09,202.48Zm-31.59-7.59h27.8v-7.46H253.5Z"/><path class="cls-10" d="M273.24,187.43H261.56a3.8,3.8,0,0,1-3.8-3.79v-5.53a9.64,9.64,0,0,1,19.28,0v5.53A3.8,3.8,0,0,1,273.24,187.43Zm-7.89-7.58h4.1v-1.74a2.05,2.05,0,1,0-4.1,0Z"/><path class="cls-10" d="M380,176.05h-7.58a3.79,3.79,0,1,1,0-7.58H380a3.79,3.79,0,1,1,0,7.58Z"/><path class="cls-10" d="M422,176.05h-7.58a3.79,3.79,0,1,1,0-7.58H422a3.79,3.79,0,1,1,0,7.58Z"/><path class="cls-10" d="M372.37,176.05h-14.2a19.63,19.63,0,0,1-19.61-19.61v-6.16a12,12,0,0,0-12-12H283.22a12,12,0,0,0-12,12v22a3.79,3.79,0,0,1-7.58,0v-22a19.64,19.64,0,0,1,19.61-19.61h43.31a19.64,19.64,0,0,1,19.61,19.61v6.16a12,12,0,0,0,12,12h14.2a3.79,3.79,0,1,1,0,7.58Z"/><path class="cls-10" d="M399.67,381.41h-6a2.56,2.56,0,1,1,0-5.12h6a2.56,2.56,0,1,1,0,5.12Z"/><path class="cls-10" d="M380,381.41H131.45a2.56,2.56,0,1,1,0-5.12H380a2.56,2.56,0,1,1,0,5.12Z"/></g></g></svg>