<svg xmlns="http://www.w3.org/2000/svg" viewBox="0 0 512 512"><defs><style>.a,.e{fill:#fff;}.a{opacity:0;}.b{fill:#a4e4ff;}.c{fill:#3a5c91;}.d{opacity:0.2;}.f{fill:#ff525d;}</style></defs><title>i-payment-success</title><rect class="a" width="512" height="512"/><path class="b" d="M253.57,244.31l-50.59.13-31.58.09a26.65,26.65,0,0,0-26.65,26.64v93.26a26.65,26.65,0,0,0,26.65,26.64H291.3l40,40,.33-112.74.06-20.26-67.42-53.76Z"/><path class="c" d="M265.84,242.28a2.57,2.57,0,0,0-1.6-.56h0L171.4,242a29.24,29.24,0,0,0-29.21,29.2v93.26a29.24,29.24,0,0,0,29.21,29.2H290.24l39.22,39.22a2.56,2.56,0,0,0,4.37-1.8l.39-133a2.58,2.58,0,0,0-1-2Zm62.89,182.6-35.62-35.62a2.56,2.56,0,0,0-1.81-.75H171.4a24.11,24.11,0,0,1-24.09-24.08V271.17a24.12,24.12,0,0,1,24.1-24.08l91.94-.25,65.74,52.43Z"/><path class="c" d="M260.52,287.34H188.84a4.27,4.27,0,1,0,0,8.53h71.68a4.27,4.27,0,1,0,0-8.53Z"/><path class="c" d="M260.52,313.79H188.84a4.27,4.27,0,0,0,0,8.54h71.68a4.27,4.27,0,1,0,0-8.54Z"/><path class="c" d="M260.52,340.25H188.84a4.27,4.27,0,1,0,0,8.53h71.68a4.27,4.27,0,1,0,0-8.53Z"/><path class="d" d="M253.57,244.31V355.7a2.56,2.56,0,0,0,1.58,2.37,2.5,2.5,0,0,0,1,.19,2.55,2.55,0,0,0,1.82-.75l39.22-39.21H331.6l.06-20.26-67.42-53.76Z"/><path class="e" d="M424.53,151.27H291.3a26.64,26.64,0,0,0-26.64,26.64V337.78l40-40H424.53a26.64,26.64,0,0,0,26.64-26.65V177.91A26.64,26.64,0,0,0,424.53,151.27Z"/><path class="c" d="M424.53,148.71H291.3a29.23,29.23,0,0,0-29.2,29.2V337.78a2.56,2.56,0,0,0,4.37,1.81l39.22-39.21H424.53a29.24,29.24,0,0,0,29.2-29.21V177.91A29.23,29.23,0,0,0,424.53,148.71Zm24.08,122.46a24.11,24.11,0,0,1-24.08,24.09H304.62a2.58,2.58,0,0,0-1.81.75L267.22,331.6V177.91a24.1,24.1,0,0,1,24.08-24.08H424.53a24.1,24.1,0,0,1,24.08,24.08Z"/><circle class="d" cx="407.27" cy="228.12" r="13.23" transform="translate(-42.02 354.8) rotate(-45)"/><path class="d" d="M358.63,214.89a13.23,13.23,0,1,0,13.23,13.23A13.25,13.25,0,0,0,358.63,214.89Z"/><circle class="d" cx="309.99" cy="228.12" r="13.23" transform="translate(-25.62 39.72) rotate(-7.04)"/><circle class="b" cx="310.27" cy="226.41" r="10.67"/><path class="c" d="M310.27,213.19a13.23,13.23,0,1,0,13.22,13.22A13.24,13.24,0,0,0,310.27,213.19Zm0,21.33a8.11,8.11,0,1,1,8.1-8.11A8.12,8.12,0,0,1,310.27,234.52Z"/><circle class="b" cx="358.77" cy="226.41" r="10.67"/><path class="c" d="M358.77,213.19A13.23,13.23,0,1,0,372,226.41,13.24,13.24,0,0,0,358.77,213.19Zm0,21.33a8.11,8.11,0,1,1,8.11-8.11A8.12,8.12,0,0,1,358.77,234.52Z"/><circle class="b" cx="407.27" cy="226.41" r="10.67" transform="translate(148.25 613.76) rotate(-85.3)"/><path class="c" d="M407.27,213.19a13.23,13.23,0,1,0,13.23,13.22A13.24,13.24,0,0,0,407.27,213.19Zm0,21.33a8.11,8.11,0,1,1,8.11-8.11A8.12,8.12,0,0,1,407.27,234.52Z"/><path class="d" d="M144.75,271.17v17.62A47.53,47.53,0,0,0,203,244.44l-31.58.09A26.65,26.65,0,0,0,144.75,271.17Z"/><circle class="f" cx="155.52" cy="235.69" r="44.94"/><path class="c" d="M155.52,188.19a47.5,47.5,0,1,0,47.5,47.5A47.56,47.56,0,0,0,155.52,188.19Zm0,89.88a42.38,42.38,0,1,1,42.38-42.38A42.43,42.43,0,0,1,155.52,278.07Z"/><g class="d"><path d="M155.32,253.45a5.36,5.36,0,1,0,3.77,1.57A5.16,5.16,0,0,0,155.32,253.45Z"/><path d="M155.32,207.74a5.36,5.36,0,0,0-5.33,5.34v31a5.34,5.34,0,0,0,10.67,0v-31a5.36,5.36,0,0,0-5.34-5.34Z"/></g><path class="e" d="M154.47,250.89a5.34,5.34,0,1,0,3.77,1.57A5.13,5.13,0,0,0,154.47,250.89Z"/><path class="e" d="M154.47,205.18a5.36,5.36,0,0,0-5.33,5.34v31a5.33,5.33,0,1,0,10.66,0v-31a5.34,5.34,0,0,0-5.33-5.34Z"/><path class="c" d="M154.71,138a2.55,2.55,0,0,0-2.56,2.56v35a2.56,2.56,0,0,0,5.12,0v-35A2.56,2.56,0,0,0,154.71,138Z"/><path class="c" d="M92.9,171.07a2.56,2.56,0,1,0-3.36,3.85L112,194.53a2.5,2.5,0,0,0,1.68.63,2.56,2.56,0,0,0,1.68-4.49Z"/><path class="c" d="M97.53,232.73H64.25a2.56,2.56,0,1,0,0,5.12H97.53a2.56,2.56,0,0,0,0-5.12Z"/></svg>