<svg id="Layer_1" data-name="Layer 1" xmlns="http://www.w3.org/2000/svg" viewBox="0 0 459.58 392.19"><defs><style>.cls-1{fill:#e0f5ff;}.cls-2{fill:#ffb5b5;}.cls-3{fill:#cfecf4;}.cls-4{fill:#ffd599;}.cls-5{fill:#3a5c91;}.cls-6{fill:#f5fafc;}.cls-7{fill:#a4e4ff;}.cls-8{opacity:0.16;}.cls-9{fill:#fff;}</style></defs><title>agreement</title><g id="bg"><path class="cls-1" d="M804.69,31.68c-39,0-43.12,61.3-92.57,81.28-85.69,34.6-161-114.15-218.81-81.28C446.76,58.16,444.15,184,468.06,268.73c4.87,17.24,37.69,133.52,109.41,149,30.89,6.66,48.06-9.89,140.26-74.5,148-103.73,172.56-109.28,179.54-149C909.57,124.19,852.55,31.73,804.69,31.68Z" transform="translate(-453.21 -26.9)"/><path class="cls-2" d="M896.44,55.65c-13-3.58-15.47-6.08-19.05-19a2.06,2.06,0,0,0-2-1.5,2,2,0,0,0-2,1.5c-3.59,13-6.08,15.47-19.05,19a2,2,0,0,0,0,4c13,3.58,15.46,6.07,19.05,19.05a2,2,0,0,0,2,1.5,2.06,2.06,0,0,0,2-1.5c3.58-13,6.07-15.47,19.05-19.05a2.05,2.05,0,0,0,0-4Zm-21,15.67c-2.78-7.44-6.26-10.91-13.7-13.7,7.44-2.78,10.92-6.25,13.7-13.69,2.79,7.44,6.26,10.91,13.7,13.69C881.67,60.41,878.2,63.88,875.41,71.32Z" transform="translate(-453.21 -26.9)"/><path class="cls-3" d="M895.89,303.38a2.05,2.05,0,0,0-2,2.05v29.7a2.05,2.05,0,0,0,4.1,0v-29.7A2.05,2.05,0,0,0,895.89,303.38Z" transform="translate(-453.21 -26.9)"/><path class="cls-3" d="M910.74,318.23H881a2.05,2.05,0,0,0,0,4.1h29.7a2,2,0,0,0,0-4.1Z" transform="translate(-453.21 -26.9)"/><path class="cls-4" d="M482.68,90.63a4.11,4.11,0,0,0-7.11,0l-8.66,15a4.11,4.11,0,0,0,3.56,6.16h17.31a4.11,4.11,0,0,0,3.55-6.16Zm-12.22,17,8.66-15h0l8.65,15Z" transform="translate(-453.21 -26.9)"/><path class="cls-5" d="M863.12,383.26H841.6a3.07,3.07,0,0,0,0,6.14h21.52a3.07,3.07,0,1,0,0-6.14Z" transform="translate(-453.21 -26.9)"/><path class="cls-5" d="M829.33,383.26h-300a3.07,3.07,0,1,0,0,6.14h300a3.07,3.07,0,0,0,0-6.14Z" transform="translate(-453.21 -26.9)"/></g><path class="cls-6" d="M717.72,99.22c0-7.69-6.6-14-14.7-14H531.53a14.19,14.19,0,0,1,14.15,14.5V276.91c0,.36,0,.71,0,1a14.43,14.43,0,0,0,14.54,13.14h144.9a14.6,14.6,0,0,0,14.6-14.86l-2-119.93Z" transform="translate(-453.21 -26.9)"/><path class="cls-5" d="M720.79,99.22c0-9.39-8-17-17.77-17H531.53v6.14a11.14,11.14,0,0,1,11.08,11.43V276.91c0,.43,0,.84,0,1.26a17.49,17.49,0,0,0,17.61,16h144.9a17.69,17.69,0,0,0,17.68-18l-2.05-119.88Zm-7.4,185.36a11.47,11.47,0,0,1-8.23,3.44H560.26a11.33,11.33,0,0,1-11.48-10.26c0-.28,0-.56,0-.85V99.77a17.77,17.77,0,0,0-4-11.43H703c6.41,0,11.62,4.88,11.62,10.88v57.15l2.05,119.93A11.46,11.46,0,0,1,713.39,284.58Z" transform="translate(-453.21 -26.9)"/><path class="cls-7" d="M574.36,171.29V276.76A14.34,14.34,0,0,1,560,291.1H733.08V157H588.69A14.33,14.33,0,0,0,574.36,171.29Z" transform="translate(-453.21 -26.9)"/><path class="cls-8" d="M587.47,156.47a13.72,13.72,0,0,0-6.56,1.71c-.32.18-.65.38-1,.59a8.28,8.28,0,0,0-.92.67,12.8,12.8,0,0,0-1.18,1,14.69,14.69,0,0,0-1.36,1.58c0,.08-.12.16-.16.24a13,13,0,0,1,3.15-.38h.23a13.72,13.72,0,0,1,13.72,13.72V291.46h7.62V170.19A13.72,13.72,0,0,0,587.47,156.47Z" transform="translate(-453.21 -26.9)"/><path class="cls-5" d="M733.08,153.88H588.69a17.43,17.43,0,0,0-17.41,17.41V276.76A11.27,11.27,0,0,1,560,288a3.08,3.08,0,0,0,0,6.15H733.08a3.08,3.08,0,0,0,3.07-3.07V157A3.08,3.08,0,0,0,733.08,153.88ZM730,288H573.28a17.28,17.28,0,0,0,4.15-11.26V171.29A11.28,11.28,0,0,1,588.69,160H730Z" transform="translate(-453.21 -26.9)"/><path class="cls-9" d="M774,347.41V170.89A13.94,13.94,0,0,0,760.1,157h-172a13.77,13.77,0,0,1,13.71,14L602,347.43a14.33,14.33,0,0,0,14.33,14.32h172A14.33,14.33,0,0,1,774,347.41Z" transform="translate(-453.21 -26.9)"/><path class="cls-5" d="M788.38,358.68a11.28,11.28,0,0,1-11.27-11.27V170.89a17,17,0,0,0-17-17h-172a3.07,3.07,0,0,0,0,6.14,10.65,10.65,0,0,1,10.64,10.89l.15,176.52a17.43,17.43,0,0,0,17.41,17.39h172a3.07,3.07,0,1,0,0-6.14Zm-172,0a11.28,11.28,0,0,1-11.26-11.26l-.15-176.51A17.1,17.1,0,0,0,601,160H760.1A10.89,10.89,0,0,1,771,170.89V347.41a17.35,17.35,0,0,0,4.14,11.27Z" transform="translate(-453.21 -26.9)"/><path class="cls-9" d="M531.35,84.74A14.25,14.25,0,0,0,517,98.9v12h28.67v-12A14.24,14.24,0,0,0,531.35,84.74Z" transform="translate(-453.21 -26.9)"/><path class="cls-5" d="M531.35,82.2a17.34,17.34,0,0,0-17.41,17.22v15h34.82v-15A17.34,17.34,0,0,0,531.35,82.2Zm11.26,26.13H520.08V99.42a11.27,11.27,0,0,1,22.53,0Z" transform="translate(-453.21 -26.9)"/><path class="cls-8" d="M531.35,88.34a11.35,11.35,0,0,0-8.14,3.44,11.45,11.45,0,0,1,4.43-.89A11.18,11.18,0,0,1,538.9,102v6.36h3.71V99.42A11.18,11.18,0,0,0,531.35,88.34Z" transform="translate(-453.21 -26.9)"/><path class="cls-5" d="M736.66,193.82H704.92a3.07,3.07,0,1,0,0,6.14h31.74a10.75,10.75,0,0,1,0,21.5H643.48a16.9,16.9,0,1,0,0,33.8h93.18a3.08,3.08,0,0,0,0-6.15H643.48a10.75,10.75,0,1,1,0-21.5h93.18a16.9,16.9,0,1,0,0-33.79Z" transform="translate(-453.21 -26.9)"/><path class="cls-5" d="M671.64,104.73H618.39a3.07,3.07,0,1,0,0,6.14h53.25a10.76,10.76,0,0,1,0,21.51H578.45a3.07,3.07,0,0,0,0,6.14h93.19a16.9,16.9,0,0,0,0-33.79Z" transform="translate(-453.21 -26.9)"/><path class="cls-5" d="M693.14,193.82H640.92a10.78,10.78,0,0,1-10.76-10.76,3.07,3.07,0,1,0-6.14,0,16.92,16.92,0,0,0,16.9,16.9h52.22a3.07,3.07,0,1,0,0-6.14Z" transform="translate(-453.21 -26.9)"/><path class="cls-5" d="M750.48,262.94a3.07,3.07,0,0,0-3.07,3.07,10.76,10.76,0,0,1-10.75,10.75H644a16.9,16.9,0,1,0,0,33.79h63.49a3.07,3.07,0,0,0,0-6.14H644a10.76,10.76,0,0,1,0-21.51h92.67A16.92,16.92,0,0,0,753.56,266,3.07,3.07,0,0,0,750.48,262.94Z" transform="translate(-453.21 -26.9)"/><path class="cls-8" d="M865.46,195.92c-6.88,1.4-60.6,23.88-84.64,55.72-32.24,42.71-41.48,70.45-27.48,82.49q-4.43,8.3-8.69,17.06a3.07,3.07,0,1,0,5.53,2.69q4.07-8.38,8.28-16.3A30.91,30.91,0,0,0,772.82,341a33.93,33.93,0,0,0,6-.53c8.31-1.47,19.83-6.55,31.89-21.24a3,3,0,0,0,1.16-1.45,119.93,119.93,0,0,0,9.49-14.05,199.69,199.69,0,0,0,10.74-21.58,2,2,0,0,0,.11-.26c4.26-9.94,7.87-20,11.41-29.9,7.18-20.06,14-39,24.75-51a3.08,3.08,0,0,0-2.9-5.07Z" transform="translate(-453.21 -26.9)"/><path class="cls-7" d="M781.23,247.35c-31.85,42.19-40,68.32-27.74,78.49s39.11,11.51,63.16-29.76c21.24-36.45,27-80.56,47.38-103.29C856.9,194.23,804.21,216.9,781.23,247.35Z" transform="translate(-453.21 -26.9)"/><path class="cls-5" d="M863.42,189.78c-6.89,1.4-60.61,23.88-84.65,55.72-32.43,43-41.59,70.78-27.24,82.71a29.94,29.94,0,0,0,19.25,6.69,34.87,34.87,0,0,0,6-.53c10.75-1.9,26.85-9.82,42.54-36.74,9.7-16.66,16.09-34.5,22.26-51.75,7.18-20,14-39,24.75-51a3.07,3.07,0,0,0-2.89-5.06Zm-27.64,54c-6.08,17-12.37,34.56-21.79,50.72-14.5,24.89-28.83,32.11-38.3,33.79-7.55,1.33-14.92-.43-20.23-4.84-11-9.17-1-35.55,28.22-74.28,18-23.78,54.12-42.44,71.59-49.91C847.32,211.56,841.68,227.32,835.78,243.81Z" transform="translate(-453.21 -26.9)"/><path class="cls-5" d="M817.79,239.88c-28,24.65-53.28,60-75.19,105.17a3.08,3.08,0,0,0,1.42,4.11,3.2,3.2,0,0,0,1.34.31,3.07,3.07,0,0,0,2.77-1.74c21.55-44.4,46.35-79.14,73.72-103.24a3.07,3.07,0,1,0-4.06-4.61Z" transform="translate(-453.21 -26.9)"/><path class="cls-5" d="M796.3,233.82a3.07,3.07,0,0,0-6,1.19l2.3,11.68a3.09,3.09,0,0,0,3,2.48,3.08,3.08,0,0,0,3-3.67Z" transform="translate(-453.21 -26.9)"/><path class="cls-5" d="M807.76,307.61l-14.32-3.86a3.07,3.07,0,0,0-1.6,5.93l14.32,3.86a2.8,2.8,0,0,0,.8.11,3.07,3.07,0,0,0,.8-6Z" transform="translate(-453.21 -26.9)"/><path class="cls-5" d="M772.63,263.56a3.07,3.07,0,0,0-6.06,1L769,279.14a3.08,3.08,0,0,0,3,2.56,2.92,2.92,0,0,0,.51,0,3.07,3.07,0,0,0,2.52-3.54Z" transform="translate(-453.21 -26.9)"/><path class="cls-5" d="M827.28,271.64H813a3.07,3.07,0,0,0,0,6.14h14.33a3.07,3.07,0,1,0,0-6.14Z" transform="translate(-453.21 -26.9)"/></svg>