<svg xmlns="http://www.w3.org/2000/svg" viewBox="0 0 300 300"><defs><style>.cls-1{fill:#0e88e7;}.cls-2{fill:#fff;}</style></defs><title>pencel</title><g id="Layer_2" data-name="Layer 2"><g id="Layer_1-2" data-name="Layer 1"><circle class="cls-1" cx="150" cy="150" r="119"/><path class="cls-2" d="M150,0A150,150,0,1,0,300,150,150.05,150.05,0,0,0,150,0Zm71.3,107.9-14.2,14.2-29-29-11,11,29,29L125,204.2l-29-29-11,11,29,29-7.1,7.1-.1-.1a6,6,0,0,1-3.6,2.6l-27,6a4.87,4.87,0,0,1-1.2.1,6,6,0,0,1-4-1.6,5.58,5.58,0,0,1-1.5-5.2l6-27a5.61,5.61,0,0,1,2.6-3.6l-.1-.1L192.3,78.9a4.29,4.29,0,0,1,6.1,0l22.9,22.9A4.29,4.29,0,0,1,221.3,107.9Z"/></g></g></svg>