<svg xmlns="http://www.w3.org/2000/svg" viewBox="0 0 31.8 31.8"><defs><style>.cls-1{fill:#999;}</style></defs><title>in_progress</title><g id="Layer_2" data-name="Layer 2"><g id="Capa_1" data-name="Capa 1"><path class="cls-1" d="M15.9,0A15.9,15.9,0,1,0,31.8,15.9,15.88,15.88,0,0,0,15.9,0Zm0,28.5A12.55,12.55,0,1,1,28.5,15.9,12.68,12.68,0,0,1,15.9,28.5Z"/><path class="cls-1" d="M24.2,15.4H17V6.8a1.3,1.3,0,0,0-2.6,0v9.9A1.32,1.32,0,0,0,15.7,18h8.5a1.32,1.32,0,0,0,1.3-1.3A1.26,1.26,0,0,0,24.2,15.4Z"/></g></g></svg>