<svg xmlns="http://www.w3.org/2000/svg" viewBox="0 0 18.94 32">
  <defs>
    <style>
      .cls-1 {
        fill: #FF4802;
      }
    </style>
  </defs>
  <title>phone_icon_vb</title>
  <g id="Layer_2" data-name="Layer 2">
    <g id="svg7520">
      <path id="path11254" class="cls-1" d="M3.28,0A3.31,3.31,0,0,0,0,3.34V28.66A3.31,3.31,0,0,0,3.28,32H15.69a3.29,3.29,0,0,0,3.25-3.34V3.34A3.29,3.29,0,0,0,15.69,0ZM7.69,2h4.06v.87H7.69ZM2,4.56H17V25.47H2ZM7.81,9.22l-.37.06a3.61,3.61,0,0,0-1.19.47,2.1,2.1,0,0,0-.91,1.69,9.52,9.52,0,0,0,1.44,5.44s0,0,0,0v0a9.44,9.44,0,0,0,4,4,2.21,2.21,0,0,0,2,.06,3.61,3.61,0,0,0,1-.81,1.42,1.42,0,0,0,.4-.57.61.61,0,0,0-.06-.5c0-.06-.1-.09-.15-.15C13,17.87,12.85,17.68,12.22,17c-.32-.33-.68-.48-1-.12l-.72.65c-.23.2-.39.27-.66,0a6.65,6.65,0,0,1-1.34-1.62,6.64,6.64,0,0,1-.72-2c-.07-.35.06-.47.34-.56L9,13.09c.48-.13.53-.49.41-.93-.28-.89-.38-1.07-.85-2.41a1.16,1.16,0,0,0-.06-.22.6.6,0,0,0-.37-.31,1,1,0,0,0-.35,0ZM9.47,27.13A1.59,1.59,0,0,1,11,28.75a1.56,1.56,0,1,1-3.12,0A1.59,1.59,0,0,1,9.47,27.13Z"/>
    </g>
  </g>
</svg>
