<svg xmlns="http://www.w3.org/2000/svg" viewBox="0 0 382.44 357.66"><defs><style>.cls-1{fill:#c1c1c1;}.cls-2{fill:#fe9595;}.cls-3{fill:#ced3e2;}.cls-4{fill:#3a5c91;}.cls-5,.cls-9{fill:#fff;}.cls-6{fill:#a4e4ff;}.cls-7{opacity:0.13;}.cls-8{opacity:0.21;}.cls-9{stroke:#3a5c91;stroke-linecap:round;stroke-linejoin:round;stroke-width:6px;}.cls-10{fill:#3fb564;}</style></defs><title>i-phone</title><g id="Layer_2" data-name="Layer 2"><g id="Isolation_Mode" data-name="Isolation Mode"><path class="cls-1" d="M360.52,274h-5.85v-5.85a1.83,1.83,0,1,0-3.65,0V274H345.9a1.83,1.83,0,1,0,0,3.66H351v5.85a1.83,1.83,0,1,0,3.65,0v-5.85h5.85a1.83,1.83,0,1,0,0-3.66Z"/><path class="cls-2" d="M250,38.94a1.83,1.83,0,0,1-1.83-1.83V22.48a1.83,1.83,0,0,1,3.66,0V37.11A1.83,1.83,0,0,1,250,38.94Z"/><path class="cls-2" d="M257.63,31.26H243a1.83,1.83,0,0,1,0-3.66h14.63a1.83,1.83,0,0,1,0,3.66Z"/><path class="cls-2" d="M367.82,218.9a1.46,1.46,0,0,1-1.44-1.21c-1.71-9.25-2.71-10.26-12-12a1.47,1.47,0,0,1,0-2.9c9.25-1.7,10.25-2.71,12-12a1.47,1.47,0,0,1,2.89,0c1.71,9.24,2.71,10.25,12,12a1.47,1.47,0,0,1,0,2.9c-9.25,1.7-10.25,2.71-12,12A1.46,1.46,0,0,1,367.82,218.9Zm-6.89-14.62a9.8,9.8,0,0,1,6.89,6.89,9.81,9.81,0,0,1,6.9-6.89,9.81,9.81,0,0,1-6.9-6.89A9.8,9.8,0,0,1,360.93,204.28Z"/><path class="cls-3" d="M22.73,154.43a4.52,4.52,0,0,1-2.11.77,4.4,4.4,0,0,1-4-1.84L.83,131.2a4.36,4.36,0,0,1-.42-4.4A4.38,4.38,0,0,1,4,124.23l27.08-2.57a4.42,4.42,0,0,1,4.44,6.24L24.22,152.63h0A4.45,4.45,0,0,1,22.73,154.43Zm.15-2.41ZM3.59,127.42a1.45,1.45,0,0,0-.5.6,1.43,1.43,0,0,0,.14,1.47L19,151.65a1.41,1.41,0,0,0,1.34.61,1.43,1.43,0,0,0,1.2-.85l11.31-24.74a1.5,1.5,0,0,0-.14-1.47,1.48,1.48,0,0,0-1.34-.61L4.29,127.17A1.35,1.35,0,0,0,3.59,127.42Z"/><path class="cls-3" d="M73.77,35a1.48,1.48,0,0,1-1.41-1.07c-2.82-10.22-4.78-12.18-15-15a1.46,1.46,0,0,1,0-2.82c10.21-2.82,12.17-4.78,15-15A1.48,1.48,0,0,1,73.77,0a1.46,1.46,0,0,1,1.41,1.07c2.83,10.22,4.79,12.18,15,15a1.46,1.46,0,0,1,0,2.82c-10.21,2.82-12.17,4.78-15,15A1.46,1.46,0,0,1,73.77,35ZM62.68,17.48c6.18,2.22,8.87,4.91,11.09,11.09,2.23-6.18,4.91-8.86,11.09-11.09C78.68,15.26,76,12.57,73.77,6.39,71.55,12.57,68.86,15.26,62.68,17.48Z"/><path class="cls-4" d="M280.46,357.66H63.72a2.56,2.56,0,1,1,0-5.12H280.46a2.56,2.56,0,1,1,0,5.12Z"/><path class="cls-4" d="M317.16,357.66H301.8a2.56,2.56,0,1,1,0-5.12h15.36a2.56,2.56,0,1,1,0,5.12Z"/><rect class="cls-5" x="108.94" y="76.06" width="157.01" height="279.04" rx="16.9"/><path class="cls-4" d="M249.06,357.66H125.84a19.48,19.48,0,0,1-19.46-19.46V93A19.48,19.48,0,0,1,125.84,73.5H249.06A19.48,19.48,0,0,1,268.52,93V338.21A19.48,19.48,0,0,1,249.06,357.66Zm-123.22-279A14.35,14.35,0,0,0,111.5,93V338.2a14.35,14.35,0,0,0,14.34,14.34H249.06a14.36,14.36,0,0,0,14.34-14.33V93a14.36,14.36,0,0,0-14.34-14.34Z"/><rect class="cls-6" x="108.94" y="99.95" width="157.01" height="218.45"/><path class="cls-4" d="M266,321h-157a2.56,2.56,0,0,1-2.56-2.56V100a2.56,2.56,0,0,1,2.56-2.56H266a2.56,2.56,0,0,1,2.56,2.56V318.41A2.56,2.56,0,0,1,266,321ZM111.5,315.85H263.4V102.51H111.5Z"/><path class="cls-7" d="M120,337.61V92.7a14.16,14.16,0,0,1,14.22-14.08h-8.68A14.09,14.09,0,0,0,111.5,92.7V337.61c0,7.77,6.31,14.93,14.08,14.93h8.68C126.41,352.54,120,345.37,120,337.61Z"/><path class="cls-7" d="M254.86,337.61V92.7a14.17,14.17,0,0,0-14.22-14.08h8.68A14.09,14.09,0,0,1,263.4,92.7V337.61c0,7.77-6.31,14.93-14.08,14.93h-8.68C248.48,352.54,254.86,345.37,254.86,337.61Z"/><circle class="cls-8" cx="245.48" cy="292.52" r="60.59"/><circle class="cls-9" cx="245.47" cy="288.49" r="58.03"/><path class="cls-10" d="M288.44,264.8l-5.08-5.08c-18.29,10.9-34.27,25.07-43,37.35L214.41,278.7l-6.08,6.08,28,31a5.12,5.12,0,0,0,7.24,0C254.54,298.39,269.33,280,288.44,264.8Z"/><rect class="cls-5" x="135.65" y="121.64" width="103.29" height="12.74"/><polygon class="cls-5" points="171.3 152.22 137.27 198.09 171.3 198.09 205.33 198.09 171.3 152.22"/><polygon class="cls-5" points="203.3 164.81 174.82 198.09 203.3 198.09 231.79 198.09 203.3 164.81"/><path class="cls-5" d="M222.33,222.21a69.7,69.7,0,0,0-9.44,4.13,8.29,8.29,0,0,1-3.9.95H139.91a2.56,2.56,0,0,1-2.56-2.56v-3.27a2.56,2.56,0,0,1,2.56-2.56h81.86A1.7,1.7,0,0,1,222.33,222.21Z"/><path class="cls-5" d="M191.43,243.86q-1.94,2.35-3.66,4.87a1.72,1.72,0,0,1-1.4.75H139.91a2.56,2.56,0,0,1-2.56-2.56v-3.27a2.56,2.56,0,0,1,2.56-2.56H190.1A1.7,1.7,0,0,1,191.43,243.86Z"/><path class="cls-5" d="M179.29,265.53c-.55,1.59-1,3.2-1.47,4.85a1.71,1.71,0,0,1-1.65,1.28H139.91a2.56,2.56,0,0,1-2.56-2.56v-3.27a2.56,2.56,0,0,1,2.56-2.56h37.77A1.7,1.7,0,0,1,179.29,265.53Z"/><path class="cls-5" d="M173.9,293.85h-34a2.56,2.56,0,0,1-2.56-2.56V288a2.56,2.56,0,0,1,2.56-2.56H173.8a1.71,1.71,0,0,1,1.71,1.72c0,.36,0,.71,0,1.07,0,1.27,0,2.53.1,3.78A1.72,1.72,0,0,1,173.9,293.85Z"/><circle class="cls-5" cx="219.84" cy="150.3" r="6.83"/></g></g></svg>