<svg width="159" height="150" viewBox="0 0 159 150" xmlns="http://www.w3.org/2000/svg" xmlns:xlink="http://www.w3.org/1999/xlink"><defs><path id="a" d="M.36.043h153.765v145.936H.361z"/><path id="c" d="M.298.356h14.06v14.06H.298z"/></defs><g fill="none" fill-rule="evenodd"><g transform="translate(4.021 3.666)"><mask id="b" fill="#fff"><use xlink:href="#a"/></mask><path d="M110.47 42.343C96.59 28.463 98.606.043 77.427.043c-21.18 0-40.354 8.584-54.233 22.464C9.315 36.387.361 68.52.361 89.7s5.36 15.632 19.24 29.512c13.88 13.88 37.693 26.767 58.872 26.767 21.18 0 37.042-6.024 50.921-19.904 13.88-13.88 24.731-28.156 24.731-49.335 0-21.18-29.776-20.517-43.656-34.397" fill="#EAF4FE" mask="url(#b)"/></g><path d="M132.68 105.234a.736.736 0 00-.735.735v6.177a.735.735 0 101.47 0v-6.177a.736.736 0 00-.735-.735" fill="#C1C1C1"/><path d="M135.768 108.322h-5.882a.735.735 0 100 1.471h5.882a.736.736 0 100-1.47" fill="#C1C1C1"/><path d="M101.501 15.227a.735.735 0 00-.735.735v5.883a.735.735 0 101.47 0v-5.883a.735.735 0 00-.735-.735" fill="#FE9595"/><path d="M104.59 18.021h-5.883a.735.735 0 100 1.47h5.883a.735.735 0 100-1.47M147.213 61.638c-.518-1.5-1.27-2.253-2.771-2.771 1.5-.52 2.253-1.271 2.771-2.772.519 1.5 1.27 2.253 2.772 2.772-1.501.518-2.253 1.27-2.772 2.771m5.392-3.354c-3.72-.685-4.124-1.09-4.809-4.809a.593.593 0 00-1.165 0c-.685 3.72-1.09 4.124-4.81 4.809a.593.593 0 000 1.165c3.72.685 4.125 1.09 4.81 4.81a.592.592 0 001.165 0c.685-3.72 1.09-4.125 4.809-4.81a.593.593 0 000-1.165" fill="#FE9595"/><path d="M12.88 83.668a.583.583 0 01-.567.175L1.648 81.415a.583.583 0 01-.435-.403.578.578 0 01.132-.578L8.78 72.41a.582.582 0 01.567-.174c.1.022.343.107.434.402l3.23 10.45a.583.583 0 01-.131.579zm1.264-.928l-3.23-10.45A1.761 1.761 0 009.61 71.08a1.76 1.76 0 00-1.699.525L.475 79.628a1.762 1.762 0 00-.394 1.734 1.76 1.76 0 001.304 1.208l10.665 2.428a1.761 1.761 0 001.699-.525c.215-.231.36-.506.429-.798a1.779 1.779 0 00-.034-.935z" fill="#FDC23F"/><g transform="translate(23.324 .046)"><mask id="d" fill="#fff"><use xlink:href="#c"/></mask><path d="M7.328 11.846c-.894-2.485-1.975-3.566-4.46-4.46 2.485-.894 3.566-1.974 4.46-4.46.894 2.486 1.975 3.566 4.46 4.46-2.486.894-3.566 1.974-4.46 4.46m6.599-5.027C9.819 5.685 9.029 4.896 7.895.787a.588.588 0 00-1.134 0C5.627 4.896 4.838 5.685.73 6.82a.587.587 0 000 1.134c4.108 1.134 4.897 1.924 6.031 6.032a.59.59 0 001.134 0c1.134-4.108 1.924-4.897 6.032-6.032a.588.588 0 000-1.134" fill="#CED3E2" mask="url(#d)"/></g><g fill="#3A5C91"><path d="M136.588 141.088H92.393a1.03 1.03 0 100 2.06h44.195a1.03 1.03 0 100-2.06M81.465 141.088H42.01a1.03 1.03 0 100 2.06h39.456a1.03 1.03 0 100-2.06M33.86 141.088H23.688a1.03 1.03 0 100 2.06h10.174a1.03 1.03 0 100-2.06"/></g><path d="M31.692 28.86h-.313a5.018 5.018 0 00-5.017 5.018v7.497h10.347v-7.497a5.012 5.012 0 00-5.017-5.018" fill="#A4E4FF"/><path d="M35.68 40.345H27.39v-6.467a3.992 3.992 0 013.988-3.988h.313c1.063 0 2.065.415 2.82 1.167a3.973 3.973 0 011.167 2.82v6.468zm.287-10.745a6.017 6.017 0 00-4.275-1.769h-.313a6.054 6.054 0 00-6.047 6.047v8.526h12.406v-8.526a6.017 6.017 0 00-1.769-4.276l-.002-.002z" fill="#3A5C91"/><path d="M31.692 29.89h-.313c-.209 0-.413.02-.614.052a3.973 3.973 0 013.37 3.935v6.468h1.544v-6.467a3.971 3.971 0 00-1.167-2.821 3.973 3.973 0 00-2.82-1.167" fill-opacity=".15" fill="#000"/><path d="M94.663 28.891l-63.285-.03a5.34 5.34 0 015.33 5.33V99.4c0 2.81 2.52 5.017 5.33 5.017a5.013 5.013 0 004.951-4.253L99.758 54.85V33.986a5.1 5.1 0 00-5.095-5.095" fill="#F5FAFC"/><path d="M98.728 54.377L46.029 99.632l-.057.376a3.96 3.96 0 01-3.935 3.38c-2.33 0-4.3-1.827-4.3-3.987V34.19a6.335 6.335 0 00-1.676-4.299l58.602.029a4.07 4.07 0 014.065 4.065v20.391zm-4.065-26.515l-63.28-.031h-.005v2.059c2.371 0 4.3 1.93 4.3 4.3V99.4c0 3.277 2.912 6.046 6.36 6.046a6.004 6.004 0 005.897-4.737l52.852-45.386V33.986a6.131 6.131 0 00-6.124-6.124z" fill="#3A5C91"/><path d="M49.64 55.509a4.992 4.992 0 00-2.223 2.514 4.964 4.964 0 00-.364 1.875v39.503a5.014 5.014 0 01-4.759 5.01h59.624V54.881H52.07c-.881 0-1.709.226-2.43.627" fill="#A4E4FF"/><path d="M100.889 103.38h-54.3a5.99 5.99 0 001.494-3.98V59.898c0-.518.097-1.018.29-1.492a3.936 3.936 0 011.767-1.998 3.98 3.98 0 011.93-.497h48.819v47.47zM49.144 54.608a5.978 5.978 0 00-2.68 3.028 5.964 5.964 0 00-.44 2.263V99.4c0 .844-.258 1.647-.747 2.325a3.972 3.972 0 01-3.036 1.657l.054 2.058h60.652V53.852H52.07c-1.027 0-2.04.262-2.926.755z" fill="#3A5C91"/><path d="M50.142 56.41a3.912 3.912 0 00-.687.476 4.368 4.368 0 011.047-.123c2.46 0 4.39 1.96 4.39 4.458v42.16h45.997V55.913H52.07c-.68 0-1.345.171-1.928.497" fill-opacity=".15" fill="#000"/><path d="M115.007 54.882H52.07c2.808 0 5.016 2.277 5.016 5.085V138.564l6.002-4.414 6.475 4.414 6.234-4.414 6.638 4.414 6.071-4.414 6.477 4.414 5.91-4.414 6.639 4.414 6.394-4.414 6.148 4.414v-4.817h.028v-73.77a5.095 5.095 0 00-5.095-5.095" fill="#FFF"/><path d="M119.072 132.718h-.027v3.84l-5.108-3.667-6.416 4.429-6.663-4.43-5.903 4.41-6.468-4.41-6.078 4.42-6.63-4.409-6.227 4.409-6.487-4.422-4.95 3.64V59.968a6.13 6.13 0 00-1.524-4.056h58.416a4.07 4.07 0 014.065 4.066v72.74zm-4.065-78.866H52.07v2.06c2.235 0 3.986 1.78 3.986 4.055v80.632l7.054-5.188 6.464 4.406 6.242-4.419 6.645 4.419 6.064-4.409 6.485 4.42 5.917-4.42 6.616 4.399 6.372-4.399 7.189 5.162v-5.794h.027v-74.8a6.131 6.131 0 00-6.124-6.124z" fill="#3A5C91"/><path fill="#CED3E2" d="M64.198 74.602H95.41v-4.147H64.198zM102.446 74.602h11.986v-4.147h-11.986zM64.198 85.745H95.41v-4.147H64.198zM102.446 85.745h11.986v-4.147h-11.986zM64.198 96.889H95.41V92.74H64.198zM102.446 96.889h11.986V92.74h-11.986z"/><path d="M109.41 115.76c-1.48-.506-2.505-1.04-3.076-1.602-.571-.562-.857-1.297-.857-2.205 0-1.002.276-1.791.83-2.368.551-.576 1.38-.864 2.486-.864 1.04 0 1.854.37 2.444 1.11.59.74.885 1.705.885 2.894h2.753c0-1.807-.433-3.25-1.299-4.327-.866-1.077-2.081-1.719-3.646-1.925v-3.118h-2.22v3.104c-1.554.197-2.776.782-3.666 1.757-.89.974-1.334 2.233-1.334 3.779 0 1.592.482 2.865 1.447 3.82.964.956 2.392 1.72 4.285 2.29 1.376.469 2.362 1 2.957 1.595.594.595.891 1.313.891 2.156 0 1.021-.339 1.82-1.018 2.396-.68.576-1.622.864-2.83.864-1.05 0-1.94-.307-2.67-.92-.73-.614-1.095-1.642-1.095-3.084h-2.67l-.028.07c-.037 1.948.459 3.426 1.49 4.433 1.03 1.007 2.35 1.594 3.961 1.762v2.684h2.206v-2.697c1.685-.178 3.01-.742 3.976-1.693.964-.95 1.446-2.231 1.446-3.842 0-1.583-.463-2.836-1.39-3.759-.928-.922-2.347-1.692-4.257-2.31" fill-opacity=".15" fill="#000"/><path d="M108.725 114.73c-1.48-.506-2.506-1.04-3.077-1.601-.572-.562-.857-1.298-.857-2.206 0-1.002.276-1.79.829-2.368.552-.575 1.381-.863 2.487-.863 1.04 0 1.854.37 2.444 1.11.59.74.884 1.705.884 2.893h2.754c0-1.807-.433-3.249-1.3-4.327-.866-1.076-2.08-1.718-3.645-1.924v-3.119h-2.22v3.105c-1.554.197-2.776.782-3.666 1.756-.89.974-1.335 2.234-1.335 3.78 0 1.592.482 2.865 1.448 3.82.964.955 2.392 1.72 4.284 2.29 1.377.469 2.363 1 2.957 1.594.595.596.892 1.314.892 2.157 0 1.02-.339 1.82-1.018 2.395-.68.577-1.623.864-2.83.864-1.05 0-1.94-.306-2.67-.92-.73-.613-1.095-1.641-1.095-3.084h-2.67l-.028.07c-.038 1.949.458 3.426 1.489 4.433 1.03 1.007 2.35 1.594 3.962 1.763v2.683h2.205v-2.697c1.686-.178 3.011-.742 3.976-1.693.965-.95 1.447-2.23 1.447-3.842 0-1.583-.464-2.835-1.39-3.758-.928-.922-2.347-1.693-4.257-2.311" fill="#FF8585"/><path d="M141.375 68.423l.908-1.715-1.22-.646-.905 1.708c-.912-.345-1.755-.38-2.528-.103-.772.277-1.384.84-1.834 1.69-.464.876-.57 1.717-.317 2.523.252.807.815 1.642 1.69 2.508.62.658 1.008 1.237 1.162 1.737.154.501.108.983-.137 1.446-.298.562-.717.902-1.258 1.021-.542.12-1.144.002-1.809-.349-.577-.306-.977-.733-1.2-1.284-.223-.55-.124-1.221.295-2.014l-1.468-.778-.035.03c-.588 1.06-.746 2.018-.472 2.872.273.854.828 1.561 1.665 2.123l-.781 1.476 1.213.642.785-1.483c.98.393 1.872.469 2.68.226.807-.241 1.446-.805 1.915-1.691.46-.87.57-1.695.33-2.472-.242-.777-.798-1.614-1.669-2.51-.667-.71-1.075-1.302-1.226-1.777-.15-.476-.093-.963.171-1.463.292-.551.674-.905 1.146-1.06.471-.156 1.01-.073 1.619.248.571.303.912.744 1.02 1.323.11.579-.01 1.195-.355 1.849l1.514.802c.527-.994.708-1.914.546-2.758-.163-.845-.645-1.552-1.445-2.12M83.95 15.38c-.092-.837-.533-1.566-1.32-2.187-.774-.61-1.565-.865-2.373-.768-.807.098-1.73.495-2.77 1.19-.817.529-1.472.825-1.967.887-.494.063-.964-.08-1.408-.43-.49-.387-.769-.826-.838-1.318-.069-.492.11-1.008.536-1.548.4-.508.895-.764 1.484-.767.589-.003 1.174.224 1.756.682l1.06-1.345c-.883-.697-1.755-1.04-2.615-1.032-.86.008-1.642.355-2.345 1.04l-1.524-1.202-.855 1.085 1.517 1.196c-.503.836-.688 1.659-.555 2.469.134.81.578 1.513 1.333 2.108.778.613 1.587.868 2.425.765.839-.104 1.762-.507 2.77-1.212.76-.492 1.4-.77 1.919-.831.52-.061.985.07 1.398.395.498.393.758.867.777 1.42.02.554-.202 1.126-.668 1.716-.404.514-.896.83-1.478.95-.58.122-1.224-.096-1.929-.652l-1.028 1.305.023.04c.938.77 1.851 1.096 2.74.98.89-.115 1.685-.534 2.388-1.257l1.312 1.034.849-1.078-1.318-1.039c.562-.892.797-1.757.704-2.595" fill="#D8DDED"/></g></svg>
