<svg xmlns="http://www.w3.org/2000/svg" viewBox="0 0 512 512"><defs><style>.cls-1{fill:#ff6465;}</style></defs><title>Rejected</title><g id="Layer_2" data-name="Layer 2"><g id="Layer_1-2" data-name="Layer 1"><path class="cls-1" d="M436.3,75.7C388,27.4,324.1,0,256,0,115.3,0,0,115.1,0,256S115.1,512,256,512c140.3,0,256-114.6,256-256C512,187.9,484.6,124,436.3,75.7ZM256,451A194.95,194.95,0,0,1,98.5,141.1L370.9,413.2A191.19,191.19,0,0,1,256,451Zm157.2-80.1L141.1,98.5A194.95,194.95,0,0,1,451,256,191.19,191.19,0,0,1,413.2,370.9Z"/></g></g></svg>