<svg xmlns="http://www.w3.org/2000/svg" viewBox="0 0 512 512"><defs><style>.cls-1{fill:#fff;}.cls-2{fill:#eaf4fe;}.cls-3{fill:#c1c1c1;}.cls-4{fill:#fe9595;}.cls-5{fill:#ced3e2;}.cls-6{fill:#3a5c91;}.cls-7,.cls-9{fill:#141414;}.cls-7{opacity:0.2;isolation:isolate;}.cls-8{fill:#fcbf67;}.cls-9{opacity:0.15;}</style></defs><title>Asset 2</title><g id="Layer_2" data-name="Layer 2"><g id="Layer_1-2" data-name="Layer 1"><rect class="cls-1" width="512" height="512"/><path class="cls-2" d="M400.21,122.88C336.72,68,209.91,16.55,140,63.15c-43.62,29-87.17,87.66-71.68,125.44,18.06,44,36.27,23.47,46.93,60.58,12.4,43.16-30.78,61.73-27.31,134,1.67,34.65,29.33,71.89,62.3,81.92,58.08,17.66,91.7-61.61,184.32-62.3,56.68-.42,79.94,29,104.1,12,11.26-8,56.45-37.45,9.39-141.65C424.11,220.16,440.32,157.54,400.21,122.88Z"/><path class="cls-3" d="M74.35,331.92H69.23v-5.85a1.83,1.83,0,1,0-3.65,0v5.85H59.72a1.83,1.83,0,0,0,0,3.66h5.86v5.85a1.83,1.83,0,1,0,3.65,0v-5.85h5.12a1.83,1.83,0,1,0,0-3.66Z"/><path class="cls-4" d="M193.46,83h-5.12V77.83a1.83,1.83,0,0,0-3.66,0V83h-5.85a1.83,1.83,0,0,0,0,3.66h5.85v5.85a1.83,1.83,0,0,0,3.66,0V86.61h5.12a1.83,1.83,0,0,0,0-3.66Z"/><path class="cls-4" d="M71.21,173.13C62,171.43,61,170.42,59.26,161.18a1.47,1.47,0,0,0-2.9,0c-1.7,9.24-2.71,10.25-12,11.95a1.47,1.47,0,0,0,0,2.9c9.25,1.7,10.26,2.71,12,12a1.47,1.47,0,0,0,2.9,0c1.7-9.25,2.71-10.26,11.95-12a1.47,1.47,0,0,0,0-2.9Zm-13.4,8.34a9.82,9.82,0,0,0-6.89-6.89,9.82,9.82,0,0,0,6.89-6.89,9.82,9.82,0,0,0,6.89,6.89A9.82,9.82,0,0,0,57.81,181.47Z"/><path class="cls-5" d="M398.72,107.26c-10.21-2.82-12.17-4.78-15-15a1.47,1.47,0,0,0-2.83,0c-2.82,10.21-4.78,12.17-15,15a1.47,1.47,0,0,0-1.08,1.41,1.46,1.46,0,0,0,1.08,1.41c10.21,2.82,12.17,4.79,15,15a1.47,1.47,0,0,0,2.83,0c2.82-10.21,4.78-12.18,15-15a1.46,1.46,0,0,0,1.08-1.41A1.47,1.47,0,0,0,398.72,107.26Zm-16.4,12.5c-2.23-6.18-4.91-8.86-11.1-11.09,6.18-2.22,8.87-4.91,11.1-11.09,2.22,6.18,4.91,8.87,11.08,11.09C387.23,110.9,384.54,113.58,382.32,119.76Z"/><path class="cls-5" d="M463.36,233H453.12a2.56,2.56,0,0,0,0,5.12h10.24a2.56,2.56,0,0,0,0-5.12Z"/><path class="cls-5" d="M443.73,233H433.49a2.56,2.56,0,0,0,0,5.12h10.24a2.56,2.56,0,0,0,0-5.12Z"/><path class="cls-5" d="M448.43,237.65a2.56,2.56,0,0,0-2.56,2.56v10.24a2.56,2.56,0,0,0,5.12,0V240.21A2.56,2.56,0,0,0,448.43,237.65Z"/><path class="cls-5" d="M448.43,218a2.55,2.55,0,0,0-2.56,2.56v10.24a2.56,2.56,0,0,0,5.12,0V220.59A2.56,2.56,0,0,0,448.43,218Z"/><path class="cls-1" d="M114.77,378.43a14.1,14.1,0,0,0,14.11,14.1H383.12a14.1,14.1,0,0,0,14.11-14.1V233.81H114.77Z"/><path class="cls-6" d="M397.23,231.25H114.77a2.56,2.56,0,0,0-2.56,2.56V378.43a16.68,16.68,0,0,0,16.67,16.66H383.12a16.68,16.68,0,0,0,16.67-16.66V233.81A2.56,2.56,0,0,0,397.23,231.25Zm-2.56,147.18A11.56,11.56,0,0,1,383.12,390H128.88a11.56,11.56,0,0,1-11.55-11.54V236.37H394.67Z"/><path class="cls-7" d="M117.33,378.88A11.09,11.09,0,0,0,128.43,390H383.57a11.09,11.09,0,0,0,11.1-11.09v-1.71H117.33Z"/><rect class="cls-7" x="117.33" y="283.31" width="277.33" height="13.65"/><path class="cls-8" d="M371,174.08H141a26.26,26.26,0,0,0-26.26,26.26v83H397.23v-83A26.26,26.26,0,0,0,371,174.08Z"/><path class="cls-6" d="M371,171.52H141a28.85,28.85,0,0,0-28.82,28.82v83a2.56,2.56,0,0,0,2.56,2.56H397.23a2.56,2.56,0,0,0,2.56-2.56v-83A28.86,28.86,0,0,0,371,171.52Zm23.71,109.23H117.33V200.34a23.73,23.73,0,0,1,23.7-23.7H371a23.73,23.73,0,0,1,23.71,23.7Z"/><rect class="cls-1" x="164.27" y="274.77" width="44.37" height="16.21" rx="8.09"/><path class="cls-6" d="M200.55,272.21h-28.2a10.67,10.67,0,0,0,0,21.34h28.2a10.67,10.67,0,0,0,0-21.34Zm0,16.22h-28.2a5.55,5.55,0,0,1,0-11.1h28.2a5.55,5.55,0,0,1,0,11.1Z"/><path class="cls-1" d="M172.16,301.72a14,14,0,0,0,14,14h.14a14,14,0,0,0,14-14v-9.88H172.16Z"/><path class="cls-6" d="M200.32,289.28H172.16a2.56,2.56,0,0,0-2.56,2.56v9.89a16.58,16.58,0,0,0,16.57,16.56h.14a16.58,16.58,0,0,0,16.57-16.56v-9.89A2.56,2.56,0,0,0,200.32,289.28Zm-2.56,12.45a11.46,11.46,0,0,1-11.45,11.44h-.14a11.46,11.46,0,0,1-11.45-11.44V294.4h23Z"/><rect class="cls-9" x="174.72" y="294.4" width="23.04" height="5.97"/><path class="cls-6" d="M255.57,280.75a2.56,2.56,0,0,0-2.56,2.56V392.53a2.56,2.56,0,0,0,5.12,0V283.31A2.55,2.55,0,0,0,255.57,280.75Z"/><rect class="cls-1" x="305.07" y="274.77" width="44.37" height="16.21" rx="8.09"/><path class="cls-6" d="M341.35,272.21h-28.2a10.67,10.67,0,0,0,0,21.34h28.2a10.67,10.67,0,0,0,0-21.34Zm0,16.22h-28.2a5.55,5.55,0,0,1,0-11.1h28.2a5.55,5.55,0,0,1,0,11.1Z"/><path class="cls-1" d="M313,301.72a14,14,0,0,0,14,14h.14a14,14,0,0,0,14-14v-9.88H313Z"/><path class="cls-6" d="M341.12,289.28H313a2.56,2.56,0,0,0-2.56,2.56v9.89A16.58,16.58,0,0,0,327,318.29h.14a16.58,16.58,0,0,0,16.57-16.56v-9.89A2.56,2.56,0,0,0,341.12,289.28Zm-2.56,12.45a11.46,11.46,0,0,1-11.45,11.44H327a11.46,11.46,0,0,1-11.45-11.44V294.4h23Z"/><rect class="cls-9" x="315.52" y="294.4" width="23.04" height="5.97"/><path class="cls-1" d="M313.19,160.43h-7.07a1,1,0,0,1-1-1h0c0-22.07-18.11-40-40.44-40H246.48c-22.34,0-40.44,17.89-40.44,40h0a1,1,0,0,1-1,1H198a8,8,0,0,0-8.08,8v5.66h18.78A11.08,11.08,0,0,0,219.73,163v-4.69a25.19,25.19,0,0,1,25.19-25.19h21.3a25.19,25.19,0,0,1,25.19,25.19V163a11.09,11.09,0,0,0,11.09,11.08h18.78v-5.66A8,8,0,0,0,313.19,160.43Z"/><path class="cls-6" d="M313.19,157.87h-5.55c-.84-22.73-19.79-41-43-41H246.48c-23.18,0-42.14,18.23-43,41H198a10.6,10.6,0,0,0-10.64,10.55v5.66a2.56,2.56,0,0,0,2.56,2.56h18.78A13.66,13.66,0,0,0,222.29,163v-4.69a22.66,22.66,0,0,1,22.63-22.63h21.3a22.65,22.65,0,0,1,22.63,22.63V163a13.66,13.66,0,0,0,13.65,13.64h18.78a2.56,2.56,0,0,0,2.56-2.56v-5.66A10.61,10.61,0,0,0,313.19,157.87Zm-5.52,1.56Zm11.05,12.09H302.5A8.54,8.54,0,0,1,294,163v-4.69a27.78,27.78,0,0,0-27.75-27.75h-21.3a27.78,27.78,0,0,0-27.75,27.75V163a8.53,8.53,0,0,1-8.52,8.52H192.43v-3.1A5.48,5.48,0,0,1,198,163H205a3.57,3.57,0,0,0,3.57-3.56c0-20.63,17-37.4,37.88-37.4h18.19c20.88,0,37.88,16.77,37.88,37.4a3.57,3.57,0,0,0,3.57,3.56h7.07a5.48,5.48,0,0,1,5.53,5.43Z"/><path class="cls-6" d="M412,390H94.51a2.56,2.56,0,0,0,0,5.12H412a2.56,2.56,0,1,0,0-5.12Z"/><path class="cls-6" d="M425.6,390h-4.27a2.56,2.56,0,0,0,0,5.12h4.27a2.56,2.56,0,1,0,0-5.12Z"/></g></g></svg>