<svg xmlns="http://www.w3.org/2000/svg" viewBox="0 0 512 512"><defs><style>.cls-1,.cls-14{fill:#fff;}.cls-2{fill:#eaf4fe;}.cls-3{fill:#c1c1c1;}.cls-4{fill:#fe9595;}.cls-5{fill:#ced3e2;}.cls-6{fill:#3a5c91;}.cls-11,.cls-7{fill:#cfecf4;}.cls-7{fill-rule:evenodd;}.cls-8{fill:#c2ddf3;}.cls-9{opacity:0.1;}.cls-10{opacity:0.15;}.cls-12{opacity:0.16;}.cls-13{fill:#a4e4ff;}.cls-14{opacity:0.25;}</style></defs><title>Asset 1</title><g id="Layer_2" data-name="Layer 2"><g id="Layer_1-2" data-name="Layer 1"><rect class="cls-1" width="512" height="512"/><path class="cls-2" d="M168.49,62.64c138-51.43,300,107.22,286.72,176.64-7,36.48-61.72,44.83-74.24,104.1-9.41,44.52,15.82,66.55,1.7,82.78-30.43,35-152.45-61.86-224.42-14.65-28.93,19-30.21,48.39-49.5,47.93-30.13-.73-58-73.36-64-131.42C36.52,248.67,59.35,103.29,168.49,62.64Z"/><path class="cls-3" d="M50.74,194H44.89v-5.86a1.83,1.83,0,0,0-3.66,0V194H36.11a1.83,1.83,0,1,0,0,3.65h5.12v5.85a1.83,1.83,0,1,0,3.66,0v-5.85h5.85a1.83,1.83,0,1,0,0-3.65Z"/><path class="cls-4" d="M297.71,95.49a1.83,1.83,0,0,1-1.83-1.83V79a1.83,1.83,0,0,1,3.66,0V93.66A1.83,1.83,0,0,1,297.71,95.49Z"/><path class="cls-4" d="M305.39,87.81H290.76a1.83,1.83,0,1,1,0-3.66h14.63a1.83,1.83,0,1,1,0,3.66Z"/><path class="cls-4" d="M463.11,257a1.47,1.47,0,0,1-1.45-1.2c-1.71-9.25-2.71-10.26-12-12a1.47,1.47,0,0,1,0-2.9c9.25-1.7,10.25-2.71,12-12a1.47,1.47,0,0,1,2.9,0c1.7,9.25,2.7,10.26,11.95,12a1.47,1.47,0,0,1,0,2.9c-9.25,1.7-10.25,2.71-11.95,12A1.47,1.47,0,0,1,463.11,257Zm-6.9-14.61a9.81,9.81,0,0,1,6.9,6.89,9.82,9.82,0,0,1,6.89-6.89,9.82,9.82,0,0,1-6.89-6.89A9.81,9.81,0,0,1,456.21,242.34Z"/><path class="cls-5" d="M121.53,91.51a1.47,1.47,0,0,1-1.41-1.07c-2.82-10.22-4.78-12.18-15-15a1.46,1.46,0,0,1,0-2.82c10.22-2.82,12.18-4.78,15-15a1.46,1.46,0,0,1,2.82,0c2.82,10.22,4.79,12.18,15,15a1.46,1.46,0,0,1,0,2.82c-10.21,2.82-12.18,4.78-15,15A1.46,1.46,0,0,1,121.53,91.51ZM110.44,74c6.18,2.22,8.87,4.91,11.09,11.09,2.23-6.18,4.91-8.87,11.09-11.09-6.18-2.22-8.86-4.91-11.09-11.09C119.31,69.12,116.62,71.81,110.44,74Z"/><path class="cls-6" d="M362.67,397.41h-6a2.56,2.56,0,1,1,0-5.12h6a2.56,2.56,0,1,1,0,5.12Z"/><path class="cls-6" d="M343,397.41H154.45a2.56,2.56,0,1,1,0-5.12H343a2.56,2.56,0,1,1,0,5.12Z"/><rect class="cls-1" x="104.11" y="141.41" width="276.48" height="202.24" rx="8.53"/><path class="cls-6" d="M372.05,346.21H112.64a11.1,11.1,0,0,1-11.09-11.09V150a11.1,11.1,0,0,1,11.09-11.1H372.05a11.11,11.11,0,0,1,11.1,11.1V335.12A11.1,11.1,0,0,1,372.05,346.21ZM112.64,144a6,6,0,0,0-6,6V335.12a6,6,0,0,0,6,6H372.05a6,6,0,0,0,6-6V150a6,6,0,0,0-6-6Z"/><path class="cls-1" d="M300.15,385.51a14.51,14.51,0,0,0-14.41-12.84H279a12,12,0,0,1-12-11.95V343.65H217.6v17.07a12,12,0,0,1-11.95,11.95h-7.18A14.51,14.51,0,0,0,184.13,385l-1.37,8.9a.86.86,0,0,0,.85,1H300.27a.85.85,0,0,0,.85-1Z"/><path class="cls-6" d="M300.27,397.41H183.61a3.42,3.42,0,0,1-3.38-3.93l1.37-8.9a17,17,0,0,1,16.87-14.47h7.18a9.4,9.4,0,0,0,9.39-9.39V341.09h54.61v19.63a9.4,9.4,0,0,0,9.39,9.39h6.7a17.05,17.05,0,0,1,16.95,15.11l1,8.39a3.41,3.41,0,0,1-3.39,3.8ZM185.6,392.29H298.35l-.74-6.49a11.94,11.94,0,0,0-11.87-10.57H279a14.53,14.53,0,0,1-14.51-14.51V346.21H220.16v14.51a14.53,14.53,0,0,1-14.51,14.51h-7.18a11.89,11.89,0,0,0-11.81,10.13Z"/><path class="cls-6" d="M239.79,375.23H205.65a2.56,2.56,0,0,1,0-5.12h34.14a2.56,2.56,0,0,1,0,5.12Z"/><path class="cls-6" d="M259.41,375.23h-6.82a2.56,2.56,0,0,1,0-5.12h6.82a2.56,2.56,0,0,1,0,5.12Z"/><path class="cls-7" d="M341.32,227c-6.16-3.64-13-13.57-21.32-23.65-2.13-2.58-4.36-5.16-6.68-7.66-10.88-11.63-22.75-12-32.54-3.27-5,4.42-8.75,11.14-12,19.05s-5.9,17-8.71,26.14c-4.6,15.07-9.43,28.25-15.39,36.77-4.78,6.83-10.54,9.8-19.92,6.91a18,18,0,0,1-7.18-4.49c-5.28-5.11-9.56-13.56-13.5-23.16-5.16-12.56-11.31-17.67-18.92-17.29-6.67-.23-12.37,4.9-18.78,13.53-.63.85-1.27,1.72-1.91,2.63-6.69,9.47-15,17.59-31.77,18.43a40.08,40.08,0,0,1-17.52-2.85V304.4h256v-68C359,234.89,349,231.6,341.32,227Z"/><path class="cls-8" d="M372.05,236.48V304.4H112.64v-37c.56.25,2,.49,2.56.72A40.08,40.08,0,0,0,132.72,271c16.76-.84,25.08-9,31.77-18.43.64-.91,1.28-1.78,1.91-2.63,6.41-8.63,12.11-13.76,18.78-13.53,7.61-.38,13.76,4.73,18.92,17.29,3.94,9.6,8.22,18,13.5,23.16a18,18,0,0,0,7.18,4.49c9.38,2.89,15.14-.08,19.92-6.91,6-8.52,10.79-21.7,15.39-36.77,2.81-9.16,5.48-18.24,8.71-26.14s7-14.63,12-19.05c9.79-8.7,21.66-8.36,32.54,3.27,2.33,2.5,4.55,5.08,6.68,7.66,8.32,10.08,15.16,20,21.32,23.65,7.72,4.58,17.67,7.87,29.88,9.36Z"/><path class="cls-9" d="M372.05,241v5.15c-12.43-1.41-23.07-4.7-31.68-9.78-5.11-3-10.3-9.55-16.31-17.13-3.86-4.86-7.83-9.87-12.29-14.64-9.51-10.16-19.81-11.27-29-3.11-8.95,7.94-13.91,24.23-19.17,41.46l-.78,2.57c-5.71,18.65-10.42,29.86-15.77,37.49-4.28,6.12-9.3,9.1-15.47,9.1a25.09,25.09,0,0,1-7.32-1.21c-10.44-3.22-17.14-16.53-22.31-29.12-6-14.52-12.23-15.91-16.45-15.71h-.21c-5.45-.16-10.82,4.18-18.53,15.08-6.79,9.6-15.58,18.61-33.77,19.51a43.15,43.15,0,0,1-20.35-3.76v-5.68a37.63,37.63,0,0,0,20.09,4.32c10.78-.54,17.81-4.1,23.5-9.69h0a54.43,54.43,0,0,0,6.35-7.65c4-5.71,7.89-10.38,11.92-13.41h0a17,17,0,0,1,10.85-3.82,16.12,16.12,0,0,1,10.23,3h0c4.27,3,8,8.27,11.08,15.87s7.12,16.17,12.15,21.49h0a16.59,16.59,0,0,0,6.93,4.67c6.58,2,11.17,1,15.28-3.62l0,0a25,25,0,0,0,1.79-2.29c6.34-9.06,11.38-24,15.06-36l.78-2.56c5.47-17.95,10.64-34.89,20.67-43.79.64-.57,1.29-1.1,1.94-1.6h0c9.31-7,19.93-6.72,29.54.77h0a39.68,39.68,0,0,1,4.64,4.27c4.59,4.9,8.82,10.24,12.56,14.95A154.44,154.44,0,0,0,338.3,228.1l0,0a24.61,24.61,0,0,0,4.65,3.79C350.83,236.55,360.59,239.58,372.05,241Z"/><path class="cls-6" d="M372.05,234.12v5.16c-12.43-1.42-23.07-4.7-31.68-9.78a19.38,19.38,0,0,1-2.05-1.38l0,0c-4.44-3.39-9-9.18-14.24-15.74-3.86-4.85-7.83-9.87-12.29-14.63l-.9-.94h0c-9.26-9.27-19.19-10.06-28.09-2.17-.5.45-1,.91-1.45,1.4h0c-8,8.36-12.74,23.78-17.71,40.06l-.78,2.57c-5.7,18.64-10.42,29.85-15.77,37.48a23.75,23.75,0,0,1-6,6.18l0,0a16.28,16.28,0,0,1-9.47,2.91,25.09,25.09,0,0,1-7.32-1.21,19,19,0,0,1-5.42-2.75h0c-7.44-5.37-12.67-16.1-16.88-26.37a38.57,38.57,0,0,0-6.35-11h0c-3.8-4.3-7.37-4.84-10.09-4.71h-.21c-3.41-.11-6.81,1.57-10.78,5.53h0a77.27,77.27,0,0,0-7.74,9.54,52.2,52.2,0,0,1-10.53,11.52h0c-5.63,4.35-12.92,7.47-23.24,8A42.59,42.59,0,0,1,112.64,270v-5.68a38.29,38.29,0,0,0,20.09,4.32c15.12-.76,22.87-7.48,29.85-17.35,7.44-10.52,14.18-17.51,22.78-17.25,8.94-.4,15.94,5.79,21.32,18.89,4.45,10.81,10.64,23.56,19.09,26.17,7.55,2.33,12.5.61,17.09-5.93,6.34-9.07,11.38-24,15.06-36.06l.78-2.56c5.47-17.94,10.64-34.89,20.67-43.79,11.26-10,24.77-8.71,36.14,3.45,4.59,4.9,8.82,10.23,12.56,14.94,5.7,7.18,10.62,13.38,14.9,15.91C350.83,229.73,360.59,232.76,372.05,234.12Z"/><path class="cls-9" d="M184.76,230.41a11.09,11.09,0,1,0,11.09,11.09A11.1,11.1,0,0,0,184.76,230.41Z"/><circle class="cls-1" cx="184.76" cy="238.09" r="8.53" transform="translate(-89.41 363.2) rotate(-76.72)"/><path class="cls-6" d="M184.76,249.18a11.1,11.1,0,1,1,11.09-11.09A11.11,11.11,0,0,1,184.76,249.18Zm0-17.07a6,6,0,1,0,6,6A6,6,0,0,0,184.76,232.11Z"/><circle class="cls-1" cx="233.37" cy="281.17" r="8.53" transform="translate(-93.9 443.7) rotate(-76.72)"/><path class="cls-6" d="M233.37,292.26a11.09,11.09,0,1,1,11.09-11.09A11.1,11.1,0,0,1,233.37,292.26Zm0-17.06a6,6,0,1,0,6,6A6,6,0,0,0,233.37,275.2Z"/><circle class="cls-1" cx="294.7" cy="186.66" r="8.53" transform="translate(63.25 447.65) rotate(-80.78)"/><path class="cls-6" d="M294.7,197.75a11.1,11.1,0,1,1,11.09-11.09A11.1,11.1,0,0,1,294.7,197.75Zm0-17.07a6,6,0,1,0,6,6A6,6,0,0,0,294.7,180.68Z"/><path class="cls-6" d="M160.43,162.75h-41a1.71,1.71,0,1,1,0-3.42h41a1.71,1.71,0,0,1,0,3.42Z"/><path class="cls-6" d="M181.76,174.69H119.47a1.71,1.71,0,1,1,0-3.41h62.29a1.71,1.71,0,1,1,0,3.41Z"/><polygon class="cls-10" points="264.53 357.31 220.16 354.75 220.16 346.21 264.53 346.21 264.53 357.31"/><path class="cls-11" d="M104.11,314.64H380.59a0,0,0,0,1,0,0v20.48a8.53,8.53,0,0,1-8.53,8.53H112.64a8.53,8.53,0,0,1-8.53-8.53V314.64A0,0,0,0,1,104.11,314.64Z"/><path class="cls-6" d="M372.05,346.21H112.64a11.1,11.1,0,0,1-11.09-11.09v-23h281.6v23A11.1,11.1,0,0,1,372.05,346.21Zm-265.38-29v17.92a6,6,0,0,0,6,6H372.05a6,6,0,0,0,6-6V317.2Z"/><path class="cls-12" d="M440.84,341.47c0-.23.07-.47.11-.7a.77.77,0,0,1,0-.15,15.07,15.07,0,0,0,.12-1.64s0-.06,0-.09c0-.29,0-.58,0-.87a12.89,12.89,0,0,0-4.35-9.43l-8.28-7.27,0,.05c-4.73-4.06-9.47-8.09-14.12-12-7.38-6.25-15-12.72-22.41-19.21a7.9,7.9,0,0,0-8.12-1.6L378.22,283a54.62,54.62,0,1,0-10.41,10.4l5.56,5.56a7.79,7.79,0,0,0,1.14,7.49c.15.2.31.41.49.61l0,0c6.47,7.37,13,14.94,19.25,22.27,4,4.62,8,9.33,12.09,14l0,0,7.09,8.07c.05.07.11.13.16.19a12.63,12.63,0,0,0,8,4.25c.46.06.93.1,1.4.12h.59c.32,0,.65,0,1-.05l.69,0a17.63,17.63,0,0,0,10.53-5.17,18,18,0,0,0,4.83-8.48c0-.23.1-.46.14-.69C440.81,341.59,440.83,341.53,440.84,341.47Z"/><rect class="cls-1" x="370.97" y="278.39" width="11.11" height="15.81" transform="translate(845.22 222.49) rotate(135)"/><path class="cls-6" d="M378.19,298.36l-13.72-13.73,10.4-10.4L388.59,288Zm-8.63-13.73,8.63,8.63L383.5,288l-8.63-8.63Z"/><path class="cls-13" d="M434.89,344.46h0c5.93-5.92,6.07-14.76,1-19.1-14.79-13-30.06-25.47-44.85-38.45-2.39-2.07-5.65-2.11-7.39-.18A87.45,87.45,0,0,1,377,293.4c-1.93,1.74-1.89,5,.18,7.39,13,14.79,25.65,29.89,38.63,44.67C420.13,350.53,429,350.38,434.89,344.46Z"/><path class="cls-6" d="M424.21,351.23h-.59a12.86,12.86,0,0,1-9.45-4.37c-6.48-7.38-13-15-19.31-22.33s-12.81-14.93-19.3-22.32c-2.83-3.27-2.84-7.83,0-10.39a81.86,81.86,0,0,0,6.52-6.52c2.56-2.82,7.12-2.82,10.38,0,7.39,6.48,15,12.95,22.41,19.21s15,12.74,22.45,19.25a12.85,12.85,0,0,1,4.35,9.43,18,18,0,0,1-17.45,18ZM387,287.46a2.32,2.32,0,0,0-1.75.7,84.4,84.4,0,0,1-6.82,6.82c-1.06,1-.9,2.95.37,4.41,6.49,7.39,13,15,19.32,22.34s12.81,14.94,19.3,22.32a8.61,8.61,0,0,0,6.38,2.9,13,13,0,0,0,9.59-4h0a13,13,0,0,0,4-9.59,8.65,8.65,0,0,0-2.87-6.36c-7.4-6.5-15-13-22.42-19.22s-15-12.75-22.45-19.25A4.15,4.15,0,0,0,387,287.46Z"/><path class="cls-1" d="M409.85,338.69l19.27-19.28,6.78,5.95c5.06,4.34,4.92,13.18-1,19.1s-14.76,6.07-19.09,1Z"/><path class="cls-6" d="M424.21,351.23h-.59a12.86,12.86,0,0,1-9.45-4.37l-7.25-8.26L429,316.48l8.28,7.28a12.85,12.85,0,0,1,4.35,9.43,18,18,0,0,1-17.45,18Zm-11.43-12.45,4.63,5.27a8.65,8.65,0,0,0,6.38,2.9,13.67,13.67,0,0,0,13.59-13.6,8.65,8.65,0,0,0-2.87-6.36l-5.29-4.65Z"/><path class="cls-1" d="M380.68,304.75c-.76-.87-2.74-3.09-3.51-4-2.07-2.38-2-5.55-.18-7.39l6.55-6.56c1.84-1.83,5-1.88,7.4.19.87.76,2.95,2.87,3.82,3.64Z"/><path class="cls-6" d="M380.58,307.88l-1.51-1.72-1.74-2-1.77-2c-2.75-3.17-2.79-7.6-.09-10.31l6.56-6.56c2.71-2.7,7.14-2.67,10.31.08.48.43,1.22,1.15,2,1.9s1.44,1.4,1.84,1.75l1.71,1.51ZM387,287.61a2.67,2.67,0,0,0-1.9.75c-2.54,2.53-4,4-6.55,6.55-1.1,1.1-1,3,.29,4.48l1.74,2c.08.09.16.19.25.28l10.92-10.92-.34-.33c-.71-.69-1.44-1.4-1.84-1.74A4,4,0,0,0,387,287.61Z"/><path class="cls-1" d="M423.31,321.25a1.07,1.07,0,0,1-.69-.25l-28.55-24.53a1.07,1.07,0,1,1,1.39-1.62L424,319.37a1.07,1.07,0,0,1,.11,1.51A1,1,0,0,1,423.31,321.25Z"/><path class="cls-14" d="M375.22,245.2c0,1-.05,2-.11,3a39.79,39.79,0,0,1-36.67,36.66c-1,.07-2,.11-3,.11a40.56,40.56,0,0,1-8.51-.91,39.75,39.75,0,0,1-9.34-3.32c-.75-.37-1.49-.76-2.21-1.2a39.14,39.14,0,0,1-7.52-5.69l-.46-.44A39.93,39.93,0,0,1,298,258.63a38,38,0,0,1-1.36-4.67,39.53,39.53,0,0,1-1-8.76c0-.25,0-.52,0-.76A40.08,40.08,0,0,1,297,235a39.16,39.16,0,0,1,4.35-10.25,40.26,40.26,0,0,1,7.74-9.3,39.57,39.57,0,0,1,24.58-9.95l1,0h.76a39.69,39.69,0,0,1,24.19,8.2,42.39,42.39,0,0,1,4.48,4,39.74,39.74,0,0,1,4.06,5,38,38,0,0,1,2.83,4.76A39.46,39.46,0,0,1,375.22,245.2Z"/><path class="cls-1" d="M335.44,192.85a52.35,52.35,0,1,0,52.34,52.35A52.35,52.35,0,0,0,335.44,192.85Zm3,92c-1,.07-2,.11-3,.11a40.56,40.56,0,0,1-8.51-.91,39.75,39.75,0,0,1-9.34-3.32c-.75-.37-1.49-.76-2.21-1.2a39.14,39.14,0,0,1-7.52-5.69l-.46-.44A39.8,39.8,0,0,1,298,258.63a38,38,0,0,1-1.36-4.67,39.53,39.53,0,0,1-1-8.76c0-.25,0-.52,0-.76A40.08,40.08,0,0,1,297,235a38.85,38.85,0,0,1,4.36-10.25,39.76,39.76,0,0,1,32.31-19.25l1,0h.76a39.69,39.69,0,0,1,24.19,8.2,42.39,42.39,0,0,1,4.48,4,39.74,39.74,0,0,1,4.06,5,38,38,0,0,1,2.83,4.76,39.46,39.46,0,0,1,4.23,17.85c0,1-.05,2-.11,3A39.79,39.79,0,0,1,338.44,284.87Z"/><path class="cls-6" d="M335.44,300.11a54.91,54.91,0,1,1,54.9-54.91A55,55,0,0,1,335.44,300.11Zm0-104.7a49.79,49.79,0,1,0,49.78,49.79A49.85,49.85,0,0,0,335.44,195.41Zm0,92.13a43.11,43.11,0,0,1-9.06-1,42.25,42.25,0,0,1-9.94-3.53c-.94-.47-1.7-.88-2.39-1.3a41.62,41.62,0,0,1-8-6c-.18-.17-.37-.34-.54-.52a42.57,42.57,0,0,1-10-15.69,40.65,40.65,0,0,1-1.45-5,42,42,0,0,1-1-9.31c0-.29,0-.58,0-.87a42.56,42.56,0,0,1,1.41-10,41.47,41.47,0,0,1,4.63-10.93,42.41,42.41,0,0,1,34.4-20.48l1.06,0h.83a42,42,0,0,1,16.48,3.33,42.52,42.52,0,0,1,9.26,5.39,44.5,44.5,0,0,1,4.76,4.25,42.52,42.52,0,0,1,4.34,5.32,40.06,40.06,0,0,1,3,5.07,41.77,41.77,0,0,1,4.5,19c0,1,0,2.05-.12,3.18a42.54,42.54,0,0,1-39,39C337.62,287.5,336.54,287.54,335.43,287.54ZM335.36,208h-.61l-1,0a37.21,37.21,0,0,0-30.25,18,36.39,36.39,0,0,0-4.07,9.59,37,37,0,0,0-1.24,8.86v.13c0,.19,0,.4,0,.59a36.92,36.92,0,0,0,.92,8.19,33.8,33.8,0,0,0,1.27,4.37,37.32,37.32,0,0,0,8.81,13.84l.38.38a37.06,37.06,0,0,0,7.08,5.36c.61.37,1.25.72,2.07,1.12a36.52,36.52,0,0,0,8.73,3.1,37.41,37.41,0,0,0,8,.86c1,0,1.93,0,2.81-.1h0A37.36,37.36,0,0,0,372.55,248c.07-1,.11-1.93.11-2.82a36.71,36.71,0,0,0-4-16.69,35.29,35.29,0,0,0-2.65-4.45,36.7,36.7,0,0,0-3.81-4.68,39,39,0,0,0-4.19-3.74,37.11,37.11,0,0,0-22.7-7.67Z"/><path class="cls-6" d="M252.59,331.71H232.11a2.56,2.56,0,0,1,0-5.12h20.48a2.56,2.56,0,1,1,0,5.12Z"/></g></g></svg>