<svg xmlns="http://www.w3.org/2000/svg" viewBox="0 0 246.08 295.58"><defs><style>.cls-1,.cls-3{fill:#3a5c91;}.cls-2{fill:#a4e4ff;}.cls-3{opacity:0.54;}.cls-4{fill:#fff;}.cls-5{opacity:0.15;}.cls-6{fill:#89d9a2;}</style></defs><title>i-password</title><g id="Layer_2" data-name="Layer 2"><g id="Layer_1-2" data-name="Layer 1"><path class="cls-1" d="M188.75,290.45H55.63a2.56,2.56,0,1,0,0,5.12H188.75a2.56,2.56,0,0,0,0-5.12Z"/><path class="cls-1" d="M216.05,290.45h-12.8a2.56,2.56,0,0,0,0,5.12h12.8a2.56,2.56,0,1,0,0-5.12Z"/><path class="cls-2" d="M2.56,49.68v48.1c0,87.5,48.54,167.39,120.48,195.06C195,265.17,243.52,185.28,243.52,97.78V49.68C195.88,45,155.15,30.38,123,3.35,90.92,30.38,50.19,45,2.56,49.68Z"/><path class="cls-1" d="M124.69,1.39,123,0l-1.65,1.39C91,27,50.94,42.36,2.31,47.14L0,47.36V97.78c0,43.56,11.63,85.51,33.64,121.31,22.18,36.08,52.78,62.4,88.48,76.14l.92.35.92-.35c35.7-13.74,66.3-40.06,88.48-76.14,22-35.8,33.64-77.75,33.64-121.31V47.36l-2.31-.22C195.14,42.36,155.08,27,124.69,1.39ZM241,97.78c0,86.15-48.44,165.06-117.92,192.31C53.56,262.84,5.12,183.93,5.12,97.78V52C52.89,47,92.55,31.71,123,6.68,153.53,31.71,193.19,47,241,52Z"/><path class="cls-3" d="M192.06,222.1a2.57,2.57,0,0,0-3.58.56c-13.74,18.79-30.09,33.91-48.59,45a2.56,2.56,0,0,0,2.62,4.4c19.1-11.39,36-27,50.1-46.33A2.56,2.56,0,0,0,192.06,222.1Z"/><path class="cls-3" d="M211,189.27a2.57,2.57,0,0,0-3.41,1.22c-1.91,4-4,8-6.17,11.95a2.56,2.56,0,0,0,1,3.49,2.52,2.52,0,0,0,1.24.32,2.56,2.56,0,0,0,2.24-1.31c2.23-4,4.36-8.12,6.33-12.26A2.57,2.57,0,0,0,211,189.27Z"/><path class="cls-4" d="M32.43,75.64V97.78c0,70.88,36.73,135.82,90.61,162.48,53.88-26.66,90.61-91.6,90.61-162.48V75.64C179.19,69.3,148.86,57.55,123,40.54,97.22,57.55,66.88,69.3,32.43,75.64Z"/><path class="cls-1" d="M213.17,112.07a2.55,2.55,0,0,0-2.77,2.34C205.25,177.08,171,233,123,257.39,70.32,230.65,35,166.7,35,97.79v-20C68.22,71.41,97.82,59.92,123,43.6a233,233,0,0,0,57.29,26.51,2.56,2.56,0,1,0,1.52-4.89,227,227,0,0,1-57.4-26.81L123,37.48l-1.41.93C96.16,55.18,66,66.86,32,73.12l-2.1.39V97.79c0,71.31,37,137.52,92,164.76l1.14.56,1.13-.56c50.15-24.82,86-82.8,91.34-147.72A2.57,2.57,0,0,0,213.17,112.07Z"/><polygon class="cls-1" points="211.09 98.26 216.22 98.25 211.09 98.25 211.09 98.26"/><path class="cls-5" d="M210.68,68.15a3.68,3.68,0,0,0-2.41-.89H208a3.69,3.69,0,0,0-2.53,1.3l-76.79,87.28L88.13,121.38a3.72,3.72,0,0,0-5.23.42L67.26,140.18a3.72,3.72,0,0,0,.43,5.24l61.73,52.5a3.68,3.68,0,0,0,2.41.89h.29a3.69,3.69,0,0,0,2.53-1.3L229.48,89a3.71,3.71,0,0,0-.42-5.23Z"/><path class="cls-1" d="M207.79,60.42a5.12,5.12,0,0,0-7.16.52l-75.87,86.33L85.24,113.65a5.11,5.11,0,0,0-3.31-1.22l-.42,0A5.09,5.09,0,0,0,78,114.24L62.39,132.61a5.12,5.12,0,0,0,.59,7.22l61.73,52.51a5.12,5.12,0,0,0,7.17-.53L226.71,83.32a5.12,5.12,0,0,0-.54-7.27Z"/><polygon class="cls-6" points="125.28 154.43 81.93 117.55 66.29 135.93 128.03 188.44 222.86 79.95 204.48 64.32 125.28 154.43"/><path class="cls-1" d="M207.79,60.42a5.12,5.12,0,0,0-7.16.52l-75.87,86.33L85.24,113.65a5.11,5.11,0,0,0-3.31-1.22l-.42,0A5.09,5.09,0,0,0,78,114.24L62.39,132.61a5.12,5.12,0,0,0,.59,7.22l61.73,52.51a5.12,5.12,0,0,0,7.17-.53L226.71,83.32a5.12,5.12,0,0,0-.54-7.27ZM128,188.44,66.29,135.93l15.64-18.38,43.35,36.88,79.2-90.11L222.86,80Z"/></g></g></svg>