<?xml version="1.0" encoding="UTF-8"?>
<svg width="32px" height="31px" viewBox="0 0 32 31" version="1.1" xmlns="http://www.w3.org/2000/svg" xmlns:xlink="http://www.w3.org/1999/xlink">
    <!-- Generator: Sketch 55.2 (78181) - https://sketchapp.com -->
    <title>Group 7</title>
    <desc>Created with Sketch.</desc>
    <defs>
        <polygon id="path-1" points="0 0.0472323108 32.0000302 0.0472323108 32.0000302 30.6666556 0 30.6666556"></polygon>
        <polygon id="path-3" points="7.2865012e-06 0.0472511247 18.652924 0.0472511247 18.652924 30.6666667 7.2865012e-06 30.6666667"></polygon>
    </defs>
    <g id="Page-1" stroke="none" stroke-width="1" fill="none" fill-rule="evenodd">
        <g id="save_change_с2" transform="translate(-329.000000, -213.000000)">
            <g id="Group-7" transform="translate(329.000000, 213.000000)">
                <g id="Group-3">
                    <mask id="mask-2" fill="white">
                        <use xlink:href="#path-1"></use>
                    </mask>
                    <g id="Clip-2"></g>
                    <path d="M31.2450125,11.1087586 L20.880075,10.1441696 L16.762825,0.551021677 C16.474575,-0.120697478 15.5253875,-0.120697478 15.2371375,0.551021677 L11.11995,10.1442323 L0.7550125,11.1087586 C0.0292625,11.1763005 -0.26405,12.0820646 0.2835125,12.564704 L8.1038875,19.4583073 L5.8152625,29.6476052 C5.6550125,30.3610285 6.4228875,30.9208049 7.049575,30.5474116 L16.0000125,25.2146727 L24.95045,30.5474116 C25.5771375,30.9208049 26.3451375,30.3610285 26.184825,29.6476052 L23.8961375,19.4583073 L31.7165125,12.564704 C32.264075,12.0820646 31.9707625,11.1763005 31.2450125,11.1087586" id="Fill-1" fill="#FFDC64" mask="url(#mask-2)"></path>
                </g>
                <g id="Group-6">
                    <mask id="mask-4" fill="white">
                        <use xlink:href="#path-3"></use>
                    </mask>
                    <g id="Clip-5"></g>
                    <path d="M16.632893,0.551040491 C16.3468775,-0.120678664 15.4050481,-0.120678664 15.1190326,0.551040491 L11.0337612,10.1442511 L0.749172093,11.1087774 C0.029048062,11.1763193 -0.261990698,12.0820834 0.281327132,12.5647228 L8.04107907,19.4582634 L5.77019535,29.647624 C5.6111876,30.3610473 6.37311008,30.9208237 6.99493953,30.5474304 L8.97714109,29.3572 C9.25149767,17.9370337 14.4986295,9.89496687 18.652924,5.29440245 L16.632893,0.551040491 Z" id="Fill-4" fill="#FFC850" mask="url(#mask-4)"></path>
                </g>
            </g>
        </g>
    </g>
</svg>