<?xml version="1.0" encoding="UTF-8"?>
<svg width="32px" height="31px" viewBox="0 0 32 31" version="1.1" xmlns="http://www.w3.org/2000/svg" xmlns:xlink="http://www.w3.org/1999/xlink">
    <!-- Generator: Sketch 55.2 (78181) - https://sketchapp.com -->
    <title>Group 3</title>
    <desc>Created with Sketch.</desc>
    <defs>
        <polygon id="path-1" points="0 3.11890838e-05 31.9376699 3.11890838e-05 31.9376699 30.455922 0 30.455922"></polygon>
    </defs>
    <g id="Page-1" stroke="none" stroke-width="1" fill="none" fill-rule="evenodd">
        <g id="save_change_с2" transform="translate(-371.000000, -213.000000)">
            <g id="Group-3" transform="translate(371.000000, 213.000000)">
                <mask id="mask-2" fill="white">
                    <use xlink:href="#path-1"></use>
                </mask>
                <g id="Clip-2"></g>
                <path d="M15.9687984,3.11890838e-05 C15.6600265,3.11890838e-05 15.351317,0.167079922 15.2074105,0.50111501 L11.0982487,10.0431033 L0.753578168,11.0024795 C0.0291805068,11.0696608 -0.263560234,11.9705887 0.282997271,12.4506511 L8.08812788,19.307384 L5.80390175,29.4423392 C5.6792078,29.9955712 6.11766394,30.455922 6.61325848,30.455922 C6.75342222,30.455922 6.89801481,30.4191813 7.03580819,30.3373411 L15.9688608,25.033076 L24.9018511,30.3373411 C25.0396444,30.4191813 25.1842994,30.455922 25.3244008,30.455922 C25.8200577,30.455922 26.2585138,29.9955712 26.1338199,29.4423392 L23.8495314,19.307384 L31.654662,12.4506511 C32.2012195,11.9705887 31.9084788,11.0696608 31.1840811,11.0024795 L20.8394105,10.0430409 L16.7301864,0.50111501 C16.5862799,0.167079922 16.2775704,3.11890838e-05 15.9687984,3.11890838e-05 M15.9688608,5.04149708 L18.547699,11.0299259 L19.1337419,12.3907057 L20.6089856,12.527501 L27.1012429,13.1296374 L22.2028101,17.4328577 L21.0897341,18.4106979 L21.4154729,19.856 L22.849048,26.2166394 L17.2427478,22.8876413 L15.9688608,22.1312437 L14.6949115,22.8876413 L9.08867368,26.2166394 L10.5221864,19.8559376 L10.8479251,18.4106979 L9.73484912,17.4328577 L4.83647875,13.1296374 L11.3286737,12.5275634 L12.8039173,12.390768 L13.3899602,11.0299883 L15.9688608,5.04149708" id="Fill-1" fill="#D9D9D9" mask="url(#mask-2)"></path>
            </g>
        </g>
    </g>
</svg>