<svg xmlns="http://www.w3.org/2000/svg" viewBox="0 0 424.88 336.53"><title>verify_survey</title><g id="Layer_2" data-name="Layer 2" fill="#FF4802"><g id="Layer_1-2" data-name="Layer 1"><path d="M163.57,175.86h0a10,10,0,0,1-7.07-2.93l-15.19-15.19a10,10,0,0,1,14.14-14.14l8.12,8.11,32.66-32.66a10,10,0,1,1,14.14,14.15l-39.73,39.73A10,10,0,0,1,163.57,175.86Z"/><path d="M279.62,174.49a10,10,0,0,1-7.24-3.11l-35.24-37a10,10,0,0,1,14.48-13.8l35.24,37a10,10,0,0,1-7.24,16.9Z"/><path d="M243.51,173.61a10,10,0,0,1-6.9-17.24l37-35.24a10,10,0,1,1,13.79,14.48l-37,35.24A9.91,9.91,0,0,1,243.51,173.61Z"/><path d="M414.88,287.49H10a10,10,0,0,1-10-10V10A10,10,0,0,1,10,0H414.88a10,10,0,0,1,10,10V277.49A10,10,0,0,1,414.88,287.49ZM20,267.49H404.88V20H20Z"/><path d="M414.88,287.49H10a10,10,0,0,1-10-10V229.3a10,10,0,0,1,10-10H414.88a10,10,0,0,1,10,10v48.19A10,10,0,0,1,414.88,287.49ZM20,267.49H404.88V239.3H20Z"/><path d="M242.84,336.53H182a10,10,0,0,1-10-10v-49a10,10,0,0,1,10-10h60.8a10,10,0,0,1,10,10v49A10,10,0,0,1,242.84,336.53Zm-50.8-20h40.8v-29H192Z"/><path d="M276.07,336.53H148.81a10,10,0,0,1,0-20H276.07a10,10,0,0,1,0,20Z"/><path d="M308.44,239.29h-192a10,10,0,0,1-10-10V50a10,10,0,0,1,10-10H261.19a10,10,0,0,1,6.08,2.06l47.25,36.17a10,10,0,0,1,3.92,7.94v143.1A10,10,0,0,1,308.44,239.29Zm-182-20h172V91.13L257.8,60H126.44Z"/><path d="M308.46,96.19H261.19a10,10,0,0,1-10-10V50a10,10,0,0,1,16.08-7.94L314.12,78a10,10,0,0,1-5.66,18.24Zm-37.27-20h7.73l-7.73-5.92Z"/></g></g></svg>
