<svg viewBox="0 0 40 40" fill="none" xmlns="http://www.w3.org/2000/svg">
<path fill-rule="evenodd" clip-rule="evenodd" d="M20 36.3636C29.0374 36.3636 36.3636 29.0374 36.3636 20C36.3636 10.9626 29.0374 3.63636 20 3.63636C10.9626 3.63636 3.63636 10.9626 3.63636 20C3.63636 29.0374 10.9626 36.3636 20 36.3636ZM20 40C31.0457 40 40 31.0457 40 20C40 8.9543 31.0457 0 20 0C8.9543 0 0 8.9543 0 20C0 31.0457 8.9543 40 20 40Z" fill="#695A93"/>
<path d="M9 27H12.2133V23.1473C12.2133 18.8876 13.6485 16.0659 15.8978 16.0659C17.9115 16.0388 18.7684 17.531 18.7684 21.5736V27H21.9816V23.1473C21.9816 18.8876 23.4169 16.0659 25.6662 16.0659C27.6798 16.0388 28.5367 17.531 28.5367 21.5736V27H31.75V21.1124C31.75 15.0891 30.3362 13.0543 27.3157 13C24.0596 13 22.5172 15.3062 22.0459 19.0233H21.896C21.5746 14.6008 20.1822 13.0543 17.5473 13C14.2912 13 12.7488 15.3062 12.2775 19.0233H12.0847L12.5132 13.4341H9V27Z" fill="#695A93"/>
</svg>
