<svg viewBox="0 0 40 40" fill="none" xmlns="http://www.w3.org/2000/svg">
<circle cx="20" cy="20" r="18.1818" stroke="#155B71" stroke-width="3.63636"/>
<path fill-rule="evenodd" clip-rule="evenodd" d="M21.8494 22.3714H17.9341V19.1238C13.9591 19.3369 10.99 20.1826 10.99 21.1934C10.99 22.3651 14.9792 23.3149 19.9 23.3149C24.8209 23.3149 28.81 22.3651 28.81 21.1934C28.81 20.1812 25.8326 19.3346 21.8494 19.1229V22.3714ZM17.9341 18.6563V15.2929H10V12H29.7835V15.2929H21.8494V18.6554C26.3835 18.914 29.8 20.0576 29.8 21.4291C29.8 22.8007 26.383 23.9443 21.8485 24.2029V30.1506H17.9333L17.9341 24.2019C13.4082 23.9414 10 22.799 10 21.4291C10 20.0592 13.4083 18.9168 17.9341 18.6563Z" fill="#155B71"/>
</svg>
