<svg viewBox="0 0 40 40" fill="none" xmlns="http://www.w3.org/2000/svg">
<g id="Type=Exchanger">
<g id="Group 3">
<mask id="mask0_662:3047" style="mask-type:alpha" maskUnits="userSpaceOnUse" x="0" y="0" width="40" height="40">
<path id="Clip 2" fill-rule="evenodd" clip-rule="evenodd" d="M0 0H40V40H0V0Z" fill="white"/>
</mask>
<g mask="url(#mask0_662:3047)">
<path id="Fill 1" fill-rule="evenodd" clip-rule="evenodd" d="M19.9999 0C31.0405 0 40 8.96702 40 20.0174C40 31.0681 31.0405 40.0001 19.9999 40.0001C8.95936 40.0001 -9.15527e-05 31.0681 -9.15527e-05 20.0174C-9.15527e-05 8.96702 8.95936 0 19.9999 0Z" fill="#008CFF"/>
</g>
</g>
<g id="Group 723">
<g id="Vector">
<path d="M29.7761 24.5198L26.0259 21.3947C25.8396 21.2384 25.5796 21.2072 25.3608 21.3084C25.1408 21.4122 25.0008 21.6322 25.0008 21.8747V23.7498H23.9545C23.0869 23.7498 22.2944 23.3098 21.8344 22.5747L17.7867 16.0994C16.8679 14.6281 15.2828 13.7493 13.5464 13.7493H10V16.2494H13.5464C14.414 16.2494 15.2065 16.6894 15.6666 17.4245L19.7143 23.8998C20.6343 25.3711 22.2194 26.2499 23.9545 26.2499H25.0008V28.125C25.0008 28.3676 25.1408 28.5876 25.3608 28.6913C25.4446 28.7301 25.5358 28.7501 25.6258 28.7501C25.7696 28.7501 25.9121 28.7013 26.0259 28.6051L29.7761 25.4799C29.9198 25.3611 30.0011 25.1849 30.0011 24.9999C30.0011 24.8149 29.9198 24.6386 29.7761 24.5198Z" fill="white"/>
<path d="M29.7761 15.4802L26.0259 18.6054C25.8396 18.7617 25.5796 18.7929 25.3608 18.6916C25.1408 18.5879 25.0008 18.3679 25.0008 18.1254V16.2503H23.9545C23.0869 16.2503 22.2944 16.6903 21.8344 17.4253L17.7867 23.9007C16.8679 25.372 15.2828 26.2508 13.5464 26.2508H10V23.7507H13.5464C14.414 23.7507 15.2065 23.3106 15.6666 22.5756L19.7143 16.1003C20.6343 14.6289 22.2194 13.7501 23.9545 13.7501H25.0008V11.875C25.0008 11.6325 25.1408 11.4125 25.3608 11.3088C25.4446 11.27 25.5358 11.25 25.6258 11.25C25.7696 11.25 25.9121 11.2988 26.0259 11.395L29.7761 14.5202C29.9198 14.6389 30.0011 14.8152 30.0011 15.0002C30.0011 15.1852 29.9198 15.3615 29.7761 15.4802Z" fill="white"/>
</g>
</g>
</g>
</svg>
