<svg viewBox="0 0 40 40" fill="none" xmlns="http://www.w3.org/2000/svg">
<path fill-rule="evenodd" clip-rule="evenodd" d="M20 36.3636C29.0374 36.3636 36.3636 29.0374 36.3636 20C36.3636 10.9626 29.0374 3.63636 20 3.63636C10.9626 3.63636 3.63636 10.9626 3.63636 20C3.63636 29.0374 10.9626 36.3636 20 36.3636ZM20 40C31.0457 40 40 31.0457 40 20C40 8.9543 31.0457 0 20 0C8.9543 0 0 8.9543 0 20C0 31.0457 8.9543 40 20 40Z" fill="#4D9E85"/>
<path fill-rule="evenodd" clip-rule="evenodd" d="M22.1526 19C21.8566 17.991 20.843 17.388 19.4018 17.388C17.6611 17.388 16.5553 18.3934 16.5553 20C16.5553 21.6066 17.6611 22.612 19.4018 22.612C20.8518 22.612 21.8667 22.009 22.1563 21H23.7697C23.5121 22.8228 21.8533 24 19.4018 24C16.7396 24 15.0091 22.4044 15.0091 20C15.0091 17.5956 16.7396 16 19.4018 16C21.8533 16 23.5121 17.1772 23.7697 19H22.1526ZM7 23.8251H14.2187V22.4372H8.54614V20.4044H13.6146V19.1148H8.54614V17.5628H14.2187V16.1749H7V23.8251ZM26.3649 23.8251H24.8188V16.1749H26.1909L31.4641 21.5082V16.1749H33V23.8251H31.6279L26.3649 18.5027V23.8251Z" fill="#4D9E85"/>
</svg>
