<svg viewBox="0 0 40 40" fill="none" xmlns="http://www.w3.org/2000/svg">
<path fill-rule="evenodd" clip-rule="evenodd" d="M20 36.3636C29.0374 36.3636 36.3636 29.0374 36.3636 20C36.3636 10.9626 29.0374 3.63636 20 3.63636C10.9626 3.63636 3.63636 10.9626 3.63636 20C3.63636 29.0374 10.9626 36.3636 20 36.3636ZM20 40C31.0457 40 40 31.0457 40 20C40 8.9543 31.0457 0 20 0C8.9543 0 0 8.9543 0 20C0 31.0457 8.9543 40 20 40Z" fill="#454D93"/>
<path d="M19.7617 28.5C25.0979 28.5 28.5 26.4225 28.5 19.139V11H24.3988V19.8722C24.3988 23.0985 22.7676 24.7116 19.7617 24.7116C16.7324 24.7116 15.1245 23.0985 15.1245 19.8722V11H11V19.139C11 26.4225 14.4254 28.5 19.7617 28.5Z" fill="#454D93"/>
</svg>
