<svg viewBox="0 0 32 32" fill="none" xmlns="http://www.w3.org/2000/svg">
<path d="M28.893 0H3.10702C1.39106 0 0 1.39106 0 3.10702V28.893C0 30.6089 1.39106 32 3.10702 32H28.893C30.6089 32 32 30.6089 32 28.893V3.10702C32 1.39106 30.6089 0 28.893 0Z" fill="#FFB500"/>
<path d="M20.2295 7.11272V10.6393C20.2219 10.9965 20.356 11.3422 20.6024 11.6009C20.8489 11.8596 21.1877 12.0102 21.5449 12.0199H25.0885C25.4075 12.0132 25.7109 11.8802 25.932 11.65C26.1531 11.4199 26.2739 11.1115 26.2678 10.7924V7.14107C26.2727 6.95905 26.2415 6.77786 26.1761 6.60794C26.1107 6.43801 26.0123 6.28271 25.8866 6.15096C25.7609 6.01921 25.6104 5.91363 25.4438 5.84029C25.2771 5.76695 25.0976 5.72731 24.9156 5.72363H21.5449C21.3673 5.72841 21.1924 5.76813 21.0301 5.84054C20.8679 5.91294 20.7215 6.01661 20.5994 6.14561C20.4772 6.27461 20.3817 6.42642 20.3182 6.59236C20.2548 6.7583 20.2246 6.93512 20.2295 7.11272Z" fill="#09544F"/>
<path d="M5.73193 17.2556V24.7624C5.73193 25.5958 6.33009 26.2677 7.06716 26.2677H10.6278C10.9625 26.2472 11.2755 26.0949 11.4982 25.8441C11.7208 25.5933 11.8349 25.2644 11.8156 24.9296V17.2925C11.8156 16.442 11.2061 15.7588 10.4548 15.7588H7.05298C6.33009 15.7532 5.73193 16.425 5.73193 17.2556Z" fill="white"/>
<path d="M13.0884 10.4605V21.6214C13.0884 22.5597 13.6809 23.1522 14.4066 23.1522H17.919C18.5653 23.1522 19.0898 22.6448 19.0898 21.8113V10.4888C19.0898 9.5335 18.4888 9.0459 17.7461 9.0459H14.4066C13.6809 9.05157 13.0884 9.52216 13.0884 10.4605Z" fill="white"/>
</svg>
