<svg viewBox="0 0 40 40" fill="none" xmlns="http://www.w3.org/2000/svg">
<path fill-rule="evenodd" clip-rule="evenodd" d="M20 36.3636C29.0374 36.3636 36.3636 29.0374 36.3636 20C36.3636 10.9626 29.0374 3.63636 20 3.63636C10.9626 3.63636 3.63636 10.9626 3.63636 20C3.63636 29.0374 10.9626 36.3636 20 36.3636ZM20 40C31.0457 40 40 31.0457 40 20C40 8.9543 31.0457 0 20 0C8.9543 0 0 8.9543 0 20C0 31.0457 8.9543 40 20 40Z" fill="#A77D3B"/>
<path fill-rule="evenodd" clip-rule="evenodd" d="M28.3506 13.9843L31.44 10.8949L29.5451 9L26.0834 12.4617C24.4502 11.6743 22.4663 11.244 20.22 11.244C13.7434 11.244 9.4488 14.8209 9.4488 20.22C9.4488 22.7645 10.4027 24.9044 12.0894 26.4557L9 29.5451L10.8949 31.44L14.3566 27.9783C15.9898 28.7657 17.9737 29.196 20.22 29.196C26.6966 29.196 30.9912 25.6191 30.9912 20.22C30.9912 17.6755 30.0373 15.5356 28.3506 13.9843ZM23.5725 14.9726C22.6073 14.568 21.4764 14.3485 20.22 14.3485C16.0985 14.3485 13.3278 16.7106 13.3278 20.22C13.3278 21.6705 13.8011 22.9249 14.6475 23.8976L23.5725 14.9726ZM16.8675 25.4674L25.7925 16.5424C26.6389 17.5151 27.1122 18.7695 27.1122 20.22C27.1122 23.7294 24.3415 26.0915 20.22 26.0915C18.9636 26.0915 17.8327 25.872 16.8675 25.4674Z" fill="#A77D3B"/>
</svg>
