<svg viewBox="0 0 40 40" fill="none" xmlns="http://www.w3.org/2000/svg">
<circle cx="20" cy="20" r="20" fill="#695A93"/>
<path d="M7 28H10.6723V23.5969C10.6723 18.7287 12.3126 15.5039 14.8832 15.5039C17.1846 15.4729 18.1638 17.1783 18.1638 21.7985V28H21.8362V23.5969C21.8362 18.7287 23.4765 15.5039 26.0471 15.5039C28.3484 15.4729 29.3277 17.1783 29.3277 21.7985V28H33V21.2713C33 14.3876 31.3842 12.062 27.9322 12C24.2109 12 22.4482 14.6357 21.9096 18.8837H21.7382C21.371 13.8295 19.7797 12.062 16.7684 12C13.0471 12 11.2844 14.6357 10.7458 18.8837H10.5254L11.0151 12.4961H7V28Z" fill="white"/>
</svg>
