<svg viewBox="0 0 40 40" fill="none" xmlns="http://www.w3.org/2000/svg">
<circle cx="20" cy="20" r="20" fill="#E8BF13"/>
<path fill-rule="evenodd" clip-rule="evenodd" d="M29.1276 13.8629H27.6C27.8027 13.5657 27.9302 13.2274 27.9724 12.8749C28.0957 11.8036 27.5118 10.7712 26.5062 10.2822C25.5005 9.79316 24.2829 9.94958 23.4483 10.675L21.5172 12.3447C21.1285 11.9379 20.5784 11.7061 20.0017 11.7061C19.425 11.7061 18.875 11.9379 18.4862 12.3447L16.5552 10.675C15.7197 9.95093 14.5026 9.79525 13.4971 10.2838C12.4915 10.7724 11.9067 11.8036 12.0276 12.8749C12.0713 13.227 12.1987 13.565 12.4 13.8629H10.8793C10.1175 13.8629 9.5 14.4527 9.5 15.1802V17.1562C9.5 17.52 9.80877 17.8149 10.1897 17.8149H29.8103C30.1912 17.8149 30.5 17.52 30.5 17.1562V15.1802C30.5 14.4553 29.8867 13.8665 29.1276 13.8629ZM17.9517 13.6456V13.8629H14.731C14.1001 13.8613 13.5546 13.442 13.4182 12.8537C13.2818 12.2653 13.5908 11.6653 14.1621 11.4094C14.6521 11.1835 15.2371 11.2685 15.6345 11.6235L17.9517 13.6258V13.6456ZM22.0552 13.8629H25.1931H25.2103C25.9354 13.8778 26.5487 13.354 26.6138 12.6642C26.6744 12.0463 26.259 11.4769 25.631 11.3172C25.1683 11.2053 24.6779 11.3299 24.3345 11.6465L22.0552 13.6225V13.8629ZM10.8794 28.6827C10.8794 29.4102 11.4969 30 12.2587 30H18.6345V19.0992H10.8794V28.6827ZM27.7585 30H21.3723V19.0992H29.1378V28.6827C29.1378 29.4102 28.5203 30 27.7585 30Z" fill="white"/>
</svg>
