<svg viewBox="0 0 40 40" fill="none" xmlns="http://www.w3.org/2000/svg">
<circle cx="20" cy="20" r="20" fill="#457A93"/>
<path fill-rule="evenodd" clip-rule="evenodd" d="M22.5 10.1069C27.4565 10.6388 30.574 13.1143 30.5977 16.612H26.4675C26.4944 14.6995 24.2415 13.4699 20.5405 13.4699C16.7858 13.4699 14.5866 14.235 14.5866 15.765C14.5866 17.7058 17.4522 17.8721 20.7887 18.0657C25.4373 18.3354 31 18.6581 31 23.9071C31 27.4783 27.777 29.5159 22.5 29.9237V33H18.5V29.9135C13.1969 29.423 9.95248 26.8878 10.0005 23.388H14.238C14.2111 25.2732 16.464 26.5301 20.3259 26.5301C24.5902 26.5301 26.9503 25.765 26.9503 24.071C26.9503 21.95 23.9594 21.8173 20.529 21.6651C15.9168 21.4605 10.5101 21.2205 10.5101 16.0656C10.5101 12.6071 13.7252 10.5187 18.5 10.0848V7H22.5V10.1069Z" fill="white"/>
</svg>
