<?xml version="1.0" encoding="utf-8"?>
<!-- Generator: Adobe Illustrator 24.0.2, SVG Export Plug-In . SVG Version: 6.00 Build 0)  -->
<svg version="1.1" id="Layer_1" xmlns="http://www.w3.org/2000/svg" xmlns:xlink="http://www.w3.org/1999/xlink" x="0px" y="0px"
	 width="48px" height="48px" viewBox="0 0 48 48" enable-background="new 0 0 48 48" xml:space="preserve">
<g>
	<linearGradient id="SVGID_1_" gradientUnits="userSpaceOnUse" x1="14.1940527" y1="-4.5916529" x2="49.1179199" y2="65.8480148">
		<stop  offset="0" style="stop-color:#7CBE44"/>
		<stop  offset="1" style="stop-color:#154284"/>
	</linearGradient>
	<path fill="url(#SVGID_1_)" d="M43.7516708,8.5501003c-0.2264519-1.6196623-0.4832802-3.2324252-1.0181351-4.7861614
		c-0.0344734-0.1000865-0.078743-0.2043653-0.1301537-0.3306112L23.7150402,0.2488107L4.8267217,3.4333277
		c-0.051435,0.126246-0.0957046,0.2305248-0.1301527,0.3306112C4.1617146,5.3176751,3.90486,6.930438,3.6784079,8.5501003
		c-0.4785371,3.4226322-0.5067089,6.8465109-0.0273335,10.2708912c0.4051609,2.8944836,1.1112766,5.7047882,2.1423016,8.4499321
		c1.7293549,4.6043854,4.2076578,8.7370605,7.4903173,12.3899078c1.5702896,1.7473946,3.2633057,3.3639183,5.1422367,4.7859955
		c1.494112,1.1308212,3.0224552,2.1990509,4.6641083,3.109436c0.2242718,0.1243782,0.4272957,0.1846504,0.6250019,0.1949272
		c0.1977043-0.0102768,0.400753-0.070549,0.6250019-0.1949272c1.6416531-0.9103851,3.1699982-1.9786148,4.6641102-3.109436
		c1.8789291-1.4220772,3.5719662-3.0386009,5.1422329-4.7859955c3.2826614-3.6528473,5.7609634-7.7855225,7.4903183-12.3899078
		c1.0310249-2.7451439,1.7371407-5.5554485,2.1423035-8.4499321C44.2583809,15.3966112,44.2302094,11.9727325,43.7516708,8.5501003z
		"/>
	<g opacity="0.5">
		<path fill="#103263" d="M24.182148,46.6709328c1.3392849-0.7504501,2.6961288-1.6597061,4.3811626-2.9350281
			c1.6927223-1.2811432,3.3057175-2.7831879,4.931139-4.5919533c3.1081734-3.458683,5.530899-7.4668846,7.2009239-11.9132862
			c0.9761391-2.5989876,1.6694832-5.3341522,2.0607796-8.1295166c0.4482841-3.202425,0.4390793-6.517787-0.0273933-9.8539867
			c-0.1832161-1.3105807-0.3951454-2.6882524-0.7850647-3.9893584L24.182148,2.2632718L6.420619,5.2578034
			C6.0306473,6.5590811,5.8187537,7.936635,5.6355276,9.2471523c-0.4664736,3.3361912-0.4756866,6.6515446-0.0273852,9.8539867
			c0.3912902,2.7953548,1.0846329,5.530529,2.0607715,8.1295357c1.6700239,4.4464016,4.0927677,8.4546089,7.2009058,11.9132652
			c1.6255131,1.8088226,3.2385082,3.3108749,4.9311657,4.5919838C21.486021,45.0112267,22.8428993,45.9205093,24.182148,46.6709328z
			 M15.9521761,38.1712799c-2.9864569-3.323246-5.3150139-7.1762829-6.9210358-11.45224
			c-0.9385834-2.499012-1.6053715-5.1298904-1.9819031-7.8195877c-0.4295321-3.068614-0.4203196-6.2483587,0.0274215-9.4508648
			c0.134254-0.9602242,0.2839341-1.9561434,0.5089788-2.9115267L24.182148,3.7389779l16.596981,2.7982273
			c0.2241783,0.9527097,0.374073,1.9499297,0.5085106,2.9114547c0.4477386,3.2024336,0.4569511,6.3821783,0.02742,9.4507923
			c-0.3764954,2.6894798-1.0433197,5.3204327-1.9819412,7.8196602c-1.6059837,4.2758846-3.9345398,8.1289215-6.9209633,11.4521675
			c-1.5628834,1.7390823-3.1090755,3.1798172-4.7270203,4.4043579c-1.3298187,1.0064697-2.4433727,1.7744904-3.5029869,2.4123764
			c-1.0596142-0.637886-2.1731682-1.4059067-3.5029869-2.4123764
			C19.0612164,41.3510971,17.5150242,39.9103622,15.9521761,38.1712799z"/>
	</g>
	<path fill="#ACDC68" d="M23.7150459,46.2038307c1.3392849-0.7504539,2.6961269-1.6597099,4.3811626-2.9350281
		c1.6927204-1.2811432,3.3057156-2.7831879,4.931139-4.5919533c3.1081734-3.4586868,5.530899-7.4668846,7.2009239-11.9132881
		c0.9761391-2.5989876,1.6694794-5.3341522,2.0607796-8.1295166c0.4482841-3.202424,0.4390793-6.517786-0.0273933-9.8539858
		c-0.1832161-1.3105807-0.3951492-2.688252-0.7850647-3.9893579L23.7150459,1.7961688L5.953516,4.7907009
		C5.5635448,6.0919785,5.3516507,7.4695325,5.1684246,8.7800503c-0.4664736,3.3361902-0.4756861,6.6515436-0.0273852,9.8539867
		c0.3912902,2.7953548,1.0846329,5.530529,2.0607719,8.1295338c1.6700234,4.4464035,4.0927672,8.4546108,7.2009053,11.9132671
		c1.6255121,1.8088226,3.2385073,3.3108749,4.9311647,4.5919838C21.0189171,44.5441208,22.3757973,45.4534035,23.7150459,46.2038307
		z M15.4850731,37.7041779c-2.9864569-3.323246-5.3150139-7.1762848-6.9210358-11.4522419
		c-0.9385829-2.4990101-1.6053715-5.1298904-1.9819031-7.8195877c-0.4295321-3.0686131-0.4203191-6.2483578,0.027422-9.4508638
		C6.7438097,8.0212603,6.8934903,7.025341,7.118535,6.0699582l16.5965118-2.7980831l16.596981,2.7982275
		c0.2241745,0.9527092,0.374073,1.9499292,0.5085068,2.9114542c0.4477425,3.2024336,0.456955,6.3821783,0.0274239,9.4507914
		c-0.3764954,2.6894817-1.0433197,5.3204327-1.9819412,7.8196602c-1.6059837,4.2758846-3.9345398,8.1289234-6.9209633,11.4521694
		c-1.5628834,1.7390823-3.1090775,3.1798172-4.7270203,4.4043579c-1.3298206,1.0064697-2.4433727,1.7744904-3.5029869,2.4123726
		c-1.0596142-0.6378822-2.1731682-1.4059029-3.5029869-2.4123726
		C18.5941143,40.8839951,17.0479221,39.4432602,15.4850731,37.7041779z"/>
	<g>
		<g opacity="0.5">
			<g>
				<path fill="#103263" d="M33.2409058,34.0438919c-2.1267891,0-4.1919518-0.4532089-6.1382313-1.3460426
					c-3.5790977-1.6420383-6.3036957-4.5796547-7.6730309-8.271328c-1.3693352-3.6921577-1.2189121-7.6958351,0.4231262-11.2744484
					c1.2271614-2.6741333,3.1977024-4.8960266,5.6995773-6.4250045c2.3247643-1.4207697,4.9896774-2.1714292,7.706995-2.1714292
					c2.1267891,0,4.1924362,0.4527249,6.1392021,1.3460436c3.5790977,1.6420374,6.3041801,4.5796537,7.6735153,8.2718115
					c1.3693352,3.6916714,1.218914,7.695837-0.4231262,11.2744484c-1.4513397,3.1627655-3.9837837,5.7175312-7.1315079,7.1941013
					c-1.9545288,0.917099-4.1249847,1.4018478-6.2755508,1.4018478
					C33.2413902,34.0438919,33.2413902,34.0438919,33.2409058,34.0438919z"/>
			</g>
			<g>
				<path fill="#103263" d="M24.7521935,40.7862396c-2.3116627,0-4.3569298-0.2843475-5.6656113-0.5230827
					c-1.5901165-0.2896881-1.9152241-1.4096107-1.9768486-1.7463646c-0.0592003-0.3231659-0.1509094-1.4183426,1.0767365-2.2189827
					c-0.198946-0.0543442-0.4993076-0.1028671-0.9365044-0.1028671l-0.2600861,0.0019379
					c-4.2356215,0-11.0352278-1.7769318-14.7118578-2.8357162c-1.8206038-0.5240517-1.9957739-1.6983242-1.9865545-2.1791916
					c0.0087343-0.4769878,0.2232084-1.6337891,2.0151832-2.0772934c2.2694471-0.5609322,4.3899269-1.8802891,5.2779074-2.7444935
					c-0.071815,0.0043678-0.1426592,0.0111599-0.2120481,0.0194092c-0.1348953,0.0160141-0.2620273,0.0232925-0.3823657,0.0232925
					c-0.8913774,0-1.6328177-0.3998356-2.0345926-1.0976028c-0.4061422-0.705534-0.3755722-1.5648861,0.0849161-2.3577614
					C10.8914385,12.8648138,17.2756824,9.0537729,20.5607281,7.679101c0.2135048-0.0892835,0.4371967-0.1324697,0.6584644-0.1324697
					c0.5293922,0,1.0437431,0.246985,1.373703,0.6929164c0.4672813,0.6327477,0.442049,1.5027752-0.0616264,2.107378
					c-0.3411198,0.4095392-0.6536121,0.8282976-0.9287395,1.2446299
					c-4.2506638,6.4235487-2.4824657,15.1068392,3.9405975,19.3570175c2.2912827,1.5163612,4.9494038,2.3174858,7.6861324,2.3174858
					c1.2543335,0,2.5052719-0.1683769,3.7178764-0.5002785c0.1499367-0.0412445,0.3013306-0.061142,0.4512672-0.061142
					c0.5900459,0,1.1524353,0.3071556,1.4658966,0.83218c0.3930397,0.6584663,0.2989044,1.4984093-0.2304878,2.0535164
					C35.3924408,38.9894142,30.5924892,40.7862396,24.7521935,40.7862396z"/>
			</g>
		</g>
		<g>
			<g>
				<path fill="#ACDC68" d="M32.9502487,33.6105766c-2.1267872,0-4.1919498-0.4532089-6.1382294-1.3460426
					c-3.5790977-1.6420383-6.3041821-4.5796547-7.6735172-8.271328c-1.3693333-3.6916714-1.2189121-7.6958351,0.4231262-11.2744484
					c1.226675-2.6741333,3.1977024-4.8960271,5.7000618-6.4250045c2.3242798-1.4207697,4.9896774-2.1714292,7.7069988-2.1714292
					c2.1272697,0,4.1929207,0.4527249,6.1396828,1.3460436c7.3872299,3.3898554,10.6392784,12.1585474,7.2494202,19.5462608
					c-1.4513397,3.1627655-3.9837837,5.7175312-7.1315079,7.1941013c-1.9545288,0.9170952-4.1245003,1.4018478-6.2755508,1.4018478
					C32.9507332,33.6105766,32.9507332,33.6105766,32.9502487,33.6105766z"/>
			</g>
			<g>
				<path fill="#ACDC68" d="M24.4610519,40.3529243c-2.3116627,0-4.3569298-0.2843475-5.6656113-0.5230827
					c-1.5901165-0.2901726-1.9147396-1.4105797-1.9763641-1.7468491c-0.0591984-0.3236504-0.150423-1.4183426,1.0767384-2.2184982
					c-0.1989479-0.0543442-0.4993076-0.1028671-0.9365044-0.1028671l-0.2586308,0.0014534
					c-4.2370777,0-11.0371695-1.7764473-14.7137995-2.8352318c-1.820604-0.5240555-1.995774-1.6983242-1.9865545-2.1791916
					c0.0087342-0.4769878,0.2232084-1.6337891,2.0151834-2.0772934c2.2694468-0.5609341,4.3899264-1.8802891,5.2779074-2.7444935
					c-0.0718145,0.0043678-0.1426592,0.0111599-0.2110772,0.0194092c-0.1353807,0.0160141-0.2629976,0.0232925-0.3828511,0.0232925
					c-0.8913774,0-1.6333027-0.3998356-2.035078-1.0976028c-0.4061422-0.705534-0.3755722-1.5648861,0.0849166-2.3577614
					C10.5998116,12.4314985,16.9845428,8.6204576,20.2695866,7.2457852c0.2135048-0.089283,0.4371967-0.1324692,0.6584644-0.1324692
					c0.5293922,0,1.0437431,0.246985,1.373703,0.6929164c0.4672813,0.6327477,0.442049,1.5027752-0.0616245,2.107378
					c-0.33918,0.4071131-0.6516724,0.8263569-0.9297123,1.2455997c-4.2492085,6.4225788-2.4814949,15.1058693,3.9415684,19.3560486
					c2.2912827,1.5163612,4.9494038,2.3174858,7.6861324,2.3174858c1.2543335,0,2.5052719-0.1683769,3.7178764-0.5002785
					c0.1499367-0.0412445,0.3013306-0.061142,0.4512672-0.061142c0.5900459,0,1.1524353,0.3071556,1.4658966,0.83218
					c0.3930397,0.6584663,0.2989044,1.4984093-0.2304878,2.0535164
					C35.1012993,38.5560989,30.3013477,40.3529243,24.4610519,40.3529243z"/>
			</g>
		</g>
		<circle fill="#FFFFFF" cx="32.8501854" cy="18.9272385" r="12.3323278"/>
		<g>
			
				<linearGradient id="SVGID_2_" gradientUnits="userSpaceOnUse" x1="47.165905" y1="-261.5640564" x2="96.4796829" y2="-309.3769836" gradientTransform="matrix(0.9985567 0.0537082 -0.0537082 0.9985567 -49.930397 296.4110413)">
				<stop  offset="0" style="stop-color:#154284"/>
				<stop  offset="1" style="stop-color:#CF122D"/>
			</linearGradient>
			<path fill="url(#SVGID_2_)" d="M27.4141083,30.7737427c3.6289825,1.6652756,7.625267,1.5229836,10.9775352-0.0496387
				c2.6914368-1.2626286,4.9679184-3.4470406,6.3049164-6.3606281c3.0022163-6.5425529,0.1322479-14.2801552-6.4102859-17.2824135
				c-4.0983124-1.8806448-8.6654339-1.4568629-12.2439251,0.730247c-2.1342144,1.3043852-3.9169483,3.2357798-5.0385609,5.6800022
				C18.0016212,20.033844,20.8715363,27.7714672,27.4141083,30.7737427z M43.0488853,24.8717003
				c0.0028687,0.0068283,0.0061951,0.0133343,0.0095253,0.0199318c-0.5992088,1.0296726-1.3449249,1.9552116-2.2265892,2.7609711
				c-0.2857552,0.2611408-0.582859,0.5069866-0.8903542,0.7373028c-0.0076141-0.0027828-0.015213-0.0056934-0.0231361-0.0079041
				l-3.306221-0.9595051l-1.287365-0.3736515l-0.7971497-3.4940147l-0.0210114-0.0919819l3.1179161-3.3848095l3.5863113,0.4061031
				L43.0488853,24.8717003z M36.9412727,11.4654102l4.731678-0.3806829c0.007988-0.0006466,0.0157967-0.0018663,0.0236549-0.0031052
				c0.9718628,1.0965567,1.7246056,2.3517647,2.2375336,3.7345667c0.0743103,0.2004242,0.1425171,0.4022293,0.2057915,0.6051025
				c-0.0043449,0.0052977-0.0088387,0.0104389-0.0128441,0.0160704l-2.7688332,3.8434114l-3.7084618-0.4199181l-2.2589149-4.0170078
				L36.9412727,11.4654102L36.9412727,11.4654102z M33.3719406,23.9391975l0.7798729,3.4181976l-3.4833069,3.1712074
				c-0.0060692,0.0055733-0.0116806,0.0114021-0.0172482,0.0173397c-0.9359455-0.1777573-1.8497887-0.4693699-2.7315922-0.8740158
				c-0.8818035-0.404644-1.6987724-0.9072704-2.4439106-1.5009346c0.0008678-0.0080929,0.0016823-0.0161667,0.0019341-0.0243664
				l0.1327114-4.7087402l3.0999851-1.6377945L33.3719406,23.9391975L33.3719406,23.9391975z M28.7390423,7.843462
				c1.3828373-0.5129113,2.8253307-0.7607188,4.2903843-0.7390165c0.0042038,0.0067301,0.0083885,0.0134974,0.0130692,0.0199585
				l2.7970009,3.8353748l-1.5503235,3.3784723l-4.267231,0.8565674l-0.2512188,0.0504217l-2.736599-2.5376091l0.5084457-2.1130228
				l0.5997791-2.4923706c0.0016041-0.0066891,0.0026245-0.0134678,0.003809-0.020215
				C28.3410912,7.9976792,28.5385628,7.9177914,28.7390423,7.843462z M21.0521965,19.7218971
				c-0.0259476-0.3833275-0.0332718-0.7688675-0.0216389-1.1558018c0.0359421-1.1938896,0.2512569-2.3627338,0.64118-3.4884872
				c0.0071373-0.0017939,0.0142593-0.0034599,0.0213242-0.0057755l4.5249214-1.4677315l2.6465454,2.4540482l-0.5329571,4.5710011
				l-3.2521648,1.718195l-4.0061836-2.6131325C21.0663815,19.7297401,21.0593052,19.7257805,21.0521965,19.7218971z"/>
			
				<linearGradient id="SVGID_3_" gradientUnits="userSpaceOnUse" x1="46.3353271" y1="-262.4207153" x2="95.6491013" y2="-310.2336121" gradientTransform="matrix(0.9985567 0.0537082 -0.0537082 0.9985567 -49.930397 296.4110413)">
				<stop  offset="0" style="stop-color:#154284"/>
				<stop  offset="1" style="stop-color:#CF122D"/>
			</linearGradient>
			<path fill="url(#SVGID_3_)" d="M24.2001572,31.9997807c-7.2196846-4.7772141-9.1997662-14.5026817-4.4225121-21.7224293
				c0.3244667-0.4903603,0.6735573-0.9542522,1.0414314-1.3958054c-3.2171078,1.3461189-9.1497822,4.9808311-14.7026939,14.5503254
				c-0.3315396,0.5712032-0.0404472,0.9639606,0.6504865,0.8803463c0.916153-0.1109886,2.042809-0.0144844,2.4534183,0.9898548
				c0.6032763,1.4762325-3.3474307,4.2078648-6.904366,5.0875549c-0.9713748,0.2403126-0.9552191,0.6735191,0.034198,0.9585419
				c3.5356123,1.0186405,10.3725224,2.817503,14.4057875,2.7678204c3.4442368-0.042366,3.6107025,2.2429504,2.0141182,3.206871
				c-0.5914574,0.3569031-0.4904633,0.7584953,0.2220211,0.8883896c3.975975,0.7249489,12.622963,1.4730721,18.0055275-4.1715279
				C32.7891388,35.1927567,28.1250286,34.5968361,24.2001572,31.9997807z"/>
		</g>
	</g>
</g>
</svg>
