<svg viewBox="0 0 40 40" fill="none" xmlns="http://www.w3.org/2000/svg">
<g clip-path="url(#clip0_2014:3919)">
<path fill-rule="evenodd" clip-rule="evenodd" d="M20 0C18.7716 0.000433463 17.5548 0.113938 16.3636 0.334751C12.4119 1.0673 8.74162 2.98087 5.85993 5.8651C2.10961 9.61873 0.00186982 14.7092 0 20.0177C0.00348842 23.9718 1.17795 27.8361 3.37498 31.1224C5.57201 34.4087 8.69301 36.9694 12.3436 38.481C15.9942 39.9925 20.0105 40.3871 23.885 39.6148C27.7596 38.8426 31.3185 36.9381 34.112 34.1421C36.9055 31.3461 38.8083 27.7841 39.5799 23.9061C40.3515 20.0282 39.9573 16.0083 38.447 12.3545C36.9368 8.70068 34.3783 5.57693 31.095 3.37796C27.8116 1.17899 23.9506 0.0034915 20 0ZM3.63636 20.0167C3.63966 23.2518 4.60078 26.4131 6.39799 29.1014C8.1956 31.7902 10.7488 33.8849 13.7347 35.1212C16.7206 36.3575 20.0054 36.6802 23.1742 36.0486C26.3431 35.417 29.2542 33.8594 31.5396 31.572C33.825 29.2845 35.382 26.37 36.0135 23.1965C36.6449 20.023 36.3222 16.7334 35.0864 13.7435C33.8506 10.7537 31.7573 8.1981 29.0715 6.39932C26.3863 4.60099 23.2292 3.63966 19.999 3.63636C15.6611 3.63849 11.5008 5.36415 8.43236 8.43526C5.36385 11.5065 3.63849 15.672 3.63636 20.0167Z" fill="#DB3A26"/>
<path d="M24.5503 12.639C25.4067 12.608 26.258 12.7845 27.0317 13.1532C27.8055 13.522 28.4789 14.0723 28.9947 14.7572C30.0529 16.0635 30.582 17.7581 30.582 19.7705C30.582 21.9947 30.0882 23.7599 29.1358 25.0661C28.0423 26.5842 26.3492 27.3609 24.127 27.3609C22.0811 27.3609 20.5996 26.5136 19.6473 24.7837C19.1398 25.3975 18.4842 25.8715 17.7425 26.1606C16.953 26.5078 16.1004 26.6881 15.2381 26.6902C14.3861 26.7247 13.5387 26.5497 12.77 26.1804C12.0014 25.8111 11.3349 25.2588 10.8289 24.5719C9.85625 23.151 9.36196 21.4566 9.41798 19.7352C9.37886 18.0759 9.91479 16.4542 10.9347 15.1456C12.0282 13.6981 13.4391 12.9567 15.097 12.9567C16.0042 12.9656 16.8973 13.183 17.7072 13.5922C18.5417 13.9576 19.2611 14.5434 19.7884 15.2868C20.8113 13.5569 22.3986 12.639 24.5503 12.639ZM15.3086 16.3812C14.9285 16.3784 14.5528 16.4629 14.2103 16.6282C13.8679 16.7934 13.5679 17.035 13.3333 17.3345C12.7673 17.9623 12.4642 18.7839 12.4868 19.6293C12.4375 20.5101 12.6591 21.3849 13.1217 22.1359C13.2961 22.4184 13.5402 22.6513 13.8305 22.8121C14.1209 22.9728 14.4477 23.0561 14.7795 23.0538C15.6614 23.0538 16.4374 22.4183 17.1076 21.1473C17.6001 20.0973 18.0128 19.0115 18.3421 17.8993C17.4603 16.8755 16.4727 16.3812 15.3086 16.3812V16.3812ZM24.8324 16.6284C23.8095 16.6284 22.9982 17.2992 22.328 18.6407C21.9048 19.7352 21.4815 20.7943 21.0935 21.8887C21.94 23.1244 23.0335 23.7246 24.3739 23.7246C24.7934 23.738 25.211 23.6633 25.5999 23.5052C25.9887 23.3471 26.3401 23.1091 26.6314 22.8067C27.2663 22.1359 27.5838 21.1827 27.5838 19.947C27.5838 17.7228 26.6667 16.6284 24.8324 16.6284V16.6284Z" fill="#DB3A26"/>
</g>
<defs>
<clipPath id="clip0_2014:3919">
<rect width="40" height="40" fill="white"/>
</clipPath>
</defs>
</svg>
