<svg viewBox="0 0 40 40" fill="none" xmlns="http://www.w3.org/2000/svg">
<circle cx="20" cy="20" r="18.1818" stroke="#457A93" stroke-width="3.63636"/>
<path fill-rule="evenodd" clip-rule="evenodd" d="M20.0947 30C26.5271 30 31.0427 26.8824 32 22H27.534C26.6507 24.7807 23.8801 26.5414 20.0947 26.5414C16.6619 26.5414 14.0637 25.0935 12.9506 22.75H22V20.25H12.3599C12.3571 20.1673 12.3556 20.0839 12.3556 20C12.3556 19.567 12.3938 19.1498 12.4679 18.75H22V16.25H13.5554C14.8688 14.5017 17.1811 13.4586 20.0947 13.4586C23.8801 13.4586 26.6507 15.2193 27.534 18H32C31.0427 13.1176 26.5271 10 20.0947 10C14.4685 10 10.3087 12.3851 8.71377 16.25H6V18.75H8.0721C8.02432 19.156 8 19.5729 8 20C8 20.0837 8.00093 20.1671 8.0028 20.25H6V22.75H8.36813C9.62334 27.1994 13.9981 30 20.0947 30Z" fill="#457A93"/>
</svg>
