<svg viewBox="0 0 40 40" fill="none" xmlns="http://www.w3.org/2000/svg">
<g id="Type=Partner">
<path id="Fill 1" fill-rule="evenodd" clip-rule="evenodd" d="M19.9999 0C31.0405 0 40 8.96702 40 20.0174C40 31.0681 31.0405 40.0001 19.9999 40.0001C8.95936 40.0001 -9.15527e-05 31.0681 -9.15527e-05 20.0174C-9.15527e-05 8.96702 8.95936 0 19.9999 0Z" fill="#008CFF"/>
<g id="Frame 1041">
<path id="P" d="M11.968 28.4H15.4194V22.16H23.4652C26.5509 22.16 28.8366 20.5372 28.8366 17.2915C28.8366 14.6172 26.7794 12.4 23.4652 12.4H11.968V28.4ZM15.3966 19.3486V15.2115H22.8937C24.608 15.2115 25.3852 15.8515 25.3852 17.2915C25.3852 18.7315 24.608 19.3486 22.8937 19.3486H15.3966Z" fill="white"/>
</g>
</g>
</svg>
