<svg viewBox="0 0 40 40" fill="none" xmlns="http://www.w3.org/2000/svg">
<g clip-path="url(#clip0_2014:3915)">
<path d="M20 0C23.9506 0.0034915 27.8116 1.17899 31.095 3.37796C34.3783 5.57693 36.9368 8.70068 38.447 12.3545C39.9573 16.0083 40.3515 20.0282 39.5799 23.9061C38.8083 27.7841 36.9055 31.3461 34.112 34.1421C31.3185 36.9381 27.7596 38.8426 23.885 39.6148C20.0105 40.3871 15.9942 39.9925 12.3436 38.481C8.69301 36.9694 5.57201 34.4087 3.37498 31.1224C1.17795 27.8361 0.00348842 23.9718 0 20.0177C0.00186982 14.7092 2.10961 9.61873 5.85993 5.8651C9.61025 2.11147 14.6962 0.00187147 20 0V0Z" fill="#DB3A26"/>
<path d="M24.5503 12.6391C25.4067 12.6082 26.258 12.7846 27.0317 13.1534C27.8055 13.5221 28.4789 14.0724 28.9947 14.7574C30.0529 16.0636 30.582 17.7582 30.582 19.7706C30.582 21.9948 30.0882 23.76 29.1358 25.0663C28.0423 26.5844 26.3492 27.3611 24.127 27.3611C22.0811 27.3611 20.5996 26.5138 19.6473 24.7838C19.1398 25.3976 18.4842 25.8716 17.7425 26.1607C16.953 26.5079 16.1004 26.6882 15.2381 26.6903C14.3861 26.7248 13.5387 26.5498 12.77 26.1805C12.0014 25.8112 11.3349 25.2589 10.8289 24.572C9.85625 23.1512 9.36196 21.4567 9.41798 19.7353C9.37886 18.076 9.91479 16.4544 10.9347 15.1457C12.0282 13.6982 13.4391 12.9568 15.097 12.9568C16.0042 12.9657 16.8973 13.1831 17.7072 13.5923C18.5417 13.9577 19.2611 14.5435 19.7884 15.2869C20.8113 13.557 22.3986 12.6391 24.5503 12.6391ZM15.3086 16.3814C14.9285 16.3786 14.5528 16.463 14.2103 16.6283C13.8679 16.7935 13.5679 17.0351 13.3333 17.3346C12.7673 17.9624 12.4642 18.784 12.4868 19.6294C12.4375 20.5102 12.6591 21.385 13.1217 22.136C13.2961 22.4186 13.5402 22.6514 13.8305 22.8122C14.1209 22.973 14.4477 23.0562 14.7795 23.0539C15.6614 23.0539 16.4374 22.4184 17.1076 21.1475C17.6001 20.0974 18.0128 19.0117 18.3421 17.8995C17.4603 16.8756 16.4727 16.3814 15.3086 16.3814V16.3814ZM24.8324 16.6285C23.8095 16.6285 22.9982 17.2993 22.328 18.6409C21.9048 19.7353 21.4815 20.7944 21.0935 21.8889C21.94 23.1245 23.0335 23.7247 24.3739 23.7247C24.7934 23.7382 25.211 23.6634 25.5999 23.5053C25.9887 23.3472 26.3401 23.1092 26.6314 22.8068C27.2663 22.136 27.5838 21.1828 27.5838 19.9471C27.5838 17.7229 26.6667 16.6285 24.8324 16.6285V16.6285Z" fill="white"/>
</g>
<defs>
<clipPath id="clip0_2014:3915">
<rect width="40" height="40" fill="white"/>
</clipPath>
</defs>
</svg>
