<svg viewBox="0 0 40 40" fill="none" xmlns="http://www.w3.org/2000/svg">
<circle cx="20" cy="20" r="20" fill="#65A33E"/>
<path fill-rule="evenodd" clip-rule="evenodd" d="M18.5 10.0665V7H22.5V10.1548C27.6398 10.8394 31.167 13.7516 32 18H27.534C26.6507 15.2193 23.8801 13.4586 20.0947 13.4586C15.4668 13.4586 12.3556 16.0902 12.3556 20C12.3556 23.9098 15.4668 26.5414 20.0947 26.5414C23.8801 26.5414 26.6507 24.7807 27.534 22H32C31.167 26.2484 27.6398 29.1606 22.5 29.8452V33H18.5V29.9335C12.1258 29.3905 8 25.5637 8 20C8 14.4363 12.1258 10.6095 18.5 10.0665Z" fill="white"/>
</svg>
