<svg viewBox="0 0 40 40" fill="none" xmlns="http://www.w3.org/2000/svg">
<circle cx="20" cy="20" r="20" fill="#A77D3B"/>
<path fill-rule="evenodd" clip-rule="evenodd" d="M29.0582 13.0529L32.5 9.61108L30.3889 7.5L26.5323 11.3566C24.7128 10.4794 22.5026 10 20 10C12.7846 10 8 13.985 8 20C8 22.8348 9.06273 25.2188 10.9418 26.9471L7.5 30.3889L9.61108 32.5L13.4677 28.6434C15.2872 29.5206 17.4974 30 20 30C27.2154 30 32 26.015 32 20C32 17.1652 30.9373 14.7812 29.0582 13.0529ZM23.7349 14.154C22.6597 13.7032 21.3998 13.4586 20 13.4586C15.4084 13.4586 12.3215 16.0902 12.3215 20C12.3215 21.6159 12.8488 23.0135 13.7917 24.0972L23.7349 14.154ZM16.2651 25.846L26.2083 15.9028C27.1512 16.9865 27.6785 18.3841 27.6785 20C27.6785 23.9098 24.5916 26.5414 20 26.5414C18.6002 26.5414 17.3403 26.2968 16.2651 25.846Z" fill="white"/>
</svg>
