<svg id="Capa_1" data-name="Capa 1" xmlns="http://www.w3.org/2000/svg" viewBox="0 0 443 512"><defs><style>.cls-1{fill:#f26782;}.cls-2{fill:#ffbbc0;}</style></defs><title>trash</title><path class="cls-1" d="M452.9,98.5H354.4a98.45,98.45,0,1,0-196.9,0H59.1a24.6,24.6,0,1,0,0,49.2h9.8V448a64.19,64.19,0,0,0,64,64H379.1a64.19,64.19,0,0,0,64-64V147.7h9.8a24.6,24.6,0,1,0,0-49.2ZM256,49.2a49.16,49.16,0,0,1,49.2,49.2H206.7A49.38,49.38,0,0,1,256,49.2ZM393.8,448A14.77,14.77,0,0,1,379,462.8H132.9A14.77,14.77,0,0,1,118.1,448V147.7H393.8Z" transform="translate(-34.5)"/><path class="cls-2" d="M201.8,379.1a24.58,24.58,0,0,1-24.6-24.6V256a24.6,24.6,0,1,1,49.2,0v98.5A24.52,24.52,0,0,1,201.8,379.1Z" transform="translate(-34.5)"/><path class="cls-2" d="M310.2,379.1a24.58,24.58,0,0,1-24.6-24.6V256a24.6,24.6,0,0,1,49.2,0v98.5A24.58,24.58,0,0,1,310.2,379.1Z" transform="translate(-34.5)"/></svg>