<svg id="icon" xmlns="http://www.w3.org/2000/svg" viewBox="0 0 230.33 230.33"><defs><style>.cls-1{fill:#fff;}</style></defs><title>zoom</title><path class="cls-1" d="M329.56,163.05a97.58,97.58,0,1,0-13.07,149l47.82,47.82a17,17,0,1,0,24.06-24.05L340.54,288A97.73,97.73,0,0,0,329.56,163.05ZM317.7,289.19a80.81,80.81,0,1,1,0-114.28A80.89,80.89,0,0,1,317.7,289.19Z" transform="translate(-163.02 -134.51)"/><path class="cls-1" d="M298.84,222.67H270.49V194.33a9,9,0,0,0-9-9h0a9,9,0,0,0-9,9v28.34H224.16a9,9,0,0,0-9,9h0a9,9,0,0,0,9,9h28.35V269a9,9,0,0,0,9,9h0a9,9,0,0,0,9-9V240.66h28.35a9,9,0,0,0,9-9h0A9,9,0,0,0,298.84,222.67Z" transform="translate(-163.02 -134.51)"/></svg>