<?xml version="1.0" encoding="utf-8"?>
<!-- Generator: Adobe Illustrator 24.1.1, SVG Export Plug-In . SVG Version: 6.00 Build 0)  -->
<svg version="1.1" id="Layer_1" xmlns="http://www.w3.org/2000/svg" xmlns:xlink="http://www.w3.org/1999/xlink" x="0px" y="0px"
	 viewBox="0 0 554.1 888.6" style="enable-background:new 0 0 554.1 888.6;" xml:space="preserve">
<style type="text/css">
	.st0{opacity:2.000000e-02;}
	.st1{fill-rule:evenodd;clip-rule:evenodd;fill:#FFFFFF;}
</style>
<g class="st0">
	<path class="st1" d="M172.4,626.9v-20c0-54.5,6.6-99.8,20.9-134.8c14.4-35.2,40.2-68.5,75.9-100.3c34.3-30.5,55.3-53.7,65.1-70
		c9.7-16.5,14.3-33.3,14.3-50.8c0-29.4-6.8-47.8-16.9-58.7c-9.8-10.7-25.9-17.7-52-17.7c-23.6,0-40.8,7.2-53.6,20.2l0,0
		c-12.3,12.6-19.9,31-20.5,57.8l-0.5,19.5H0l0.2-20.2C1,174.8,26.1,112.2,77,66.7l0,0l0,0C128.1,21.5,196.4,0,279.7,0
		c83.7,0,151.5,20.3,200.8,63.7c49.7,43.4,73.5,104.3,73.5,179.9c0,35.4-7.9,69.1-23.8,100.8l0,0l0,0
		c-15.9,31.3-42.9,64.8-79.8,100.6l-0.1,0.1L404.2,489c0,0,0,0,0,0c-25.6,24.6-39.8,52.8-43.5,84.8l-3.5,53H172.4z M340.7,572.1
		c4.2-37.3,20.7-69.8,49.6-97.5l46.2-43.9c36.1-35,61.4-66.7,75.9-95.2c14.4-28.9,21.7-59.5,21.7-91.8c0-71.1-22.2-126-66.7-164.8
		C422.9,39.6,360.3,20,279.7,20c-79.8,0-143,20.5-189.3,61.6C48.7,118.8,25.6,169,21,232.1c-0.5,6.5-0.7,13.2-0.8,20h165.4
		c0.8-30.4,9.5-54.2,26.2-71.3c17.1-17.5,39.7-26.2,67.9-26.2c59.3,0,89,32.1,89,96.4c0,21.3-5.7,41.6-17.1,61
		c-11.4,19-34.4,43.9-69,74.7c-34.2,30.4-57.8,61.4-70.7,93c-11.3,27.5-17.6,63.2-19.1,107.2c-0.2,6.5-0.3,13.2-0.3,20h146
		L340.7,572.1z"/>
	<path class="st1" d="M187.1,858.5L187.1,858.5c-21-20.5-31.2-46.5-31.2-76.5c0-30.5,10.5-56.8,31.8-77.2
		c21.7-20.7,49-30.6,80.5-30.6c31.4,0,58.7,9.9,80,30.6c21.7,20.4,32.4,46.7,32.4,77.2c0,30.1-10.5,56.2-31.8,76.5
		c-21.1,20.6-48.7,30.1-80.6,30.1C236.3,888.6,208.6,879.1,187.1,858.5L187.1,858.5z M335,844.1c17.1-16.3,25.7-37.1,25.7-62.2
		c0-25.5-8.7-46.4-26.2-62.7c-17.1-16.7-39.2-25.1-66.2-25.1s-49.2,8.4-66.7,25.1c-17.1,16.3-25.7,37.3-25.7,62.7
		c0,25.1,8.4,45.8,25.1,62.2c17.1,16.3,39.5,24.5,67.3,24.5S318.3,860.5,335,844.1z"/>
</g>
</svg>
