<svg width="40" height="40" viewBox="0 0 40 40" fill="none" xmlns="http://www.w3.org/2000/svg">
<path d="M20 0C8.955 0 0 8.955 0 20C0 31.045 8.955 40 20 40C31.045 40 40 31.045 40 20C40 8.955 31.045 0 20 0ZM20 30.4167C18.85 30.4167 17.9167 29.4833 17.9167 28.3333C17.9167 27.1833 18.85 26.25 20 26.25C21.1517 26.25 22.0833 27.1833 22.0833 28.3333C22.0833 29.4833 21.1517 30.4167 20 30.4167ZM23.2683 20.5367C21.7617 22.1617 21.69 23.06 21.71 24.1667H18.3683C18.3567 21.7083 18.4017 20.625 20.7533 18.3867C21.7083 17.48 22.4617 16.7617 22.3567 15.3517C22.26 14.01 21.14 13.3083 20.0817 13.3083C18.9 13.3083 17.5183 14.1867 17.5183 16.6633H14.1683C14.1683 12.6633 16.5167 10.08 20.1517 10.08C21.8783 10.08 23.3883 10.645 24.4017 11.6717C25.3517 12.635 25.8433 13.9583 25.825 15.5017C25.7983 17.8067 24.3967 19.32 23.2683 20.5367Z" fill="#879DA9"/>
</svg>
