<svg width="50" height="50" viewBox="0 0 50 50" fill="none" xmlns="http://www.w3.org/2000/svg">
<path d="M42.7834 26.9004H38.9163C39.3069 27.9746 39.5217 29.1465 39.5217 30.3574V44.9667C39.5217 45.4745 39.4338 45.9628 39.2776 46.412H45.674C48.0666 46.412 50.0002 44.4687 50.0002 42.0859V34.1172C50.0002 30.1328 46.758 26.9004 42.7834 26.9004Z" fill="#64A33A"/>
<path d="M10.4785 30.3574C10.4785 29.1465 10.6933 27.9746 11.0839 26.9004H7.21676C3.24217 26.9004 0 30.1328 0 34.1172V42.0859C0 44.4784 1.94335 46.412 4.32615 46.412H10.7226C10.5664 45.9628 10.4785 45.4745 10.4785 44.9667V30.3574Z" fill="#64A33A"/>
<path d="M29.4235 23.1406H20.5857C16.6013 23.1406 13.3689 26.3828 13.3689 30.3574V44.9667C13.3689 45.7675 14.0134 46.412 14.8142 46.412H35.2047C36.0055 46.412 36.65 45.7675 36.65 44.9667V30.3574C36.6403 26.373 33.3981 23.1406 29.4235 23.1406Z" fill="#64A33A"/>
<path d="M25 4C20.2148 4 16.3184 7.89647 16.3184 12.6816C16.3184 15.9238 18.1055 18.7656 20.7519 20.2499C22.0117 20.953 23.457 21.3632 24.9902 21.3632C26.5234 21.3632 27.9785 20.9628 29.2285 20.2499C31.8749 18.7656 33.662 15.9238 33.662 12.6816C33.6816 7.89647 29.7851 4 25 4Z" fill="#64A33A"/>
<path d="M9.75583 12.0859C6.17186 12.0859 3.26172 14.9961 3.26172 18.58C3.26172 22.164 6.17186 25.0742 9.75583 25.0742C10.664 25.0742 11.5332 24.8886 12.3144 24.5468C13.6718 23.9609 14.7949 22.9257 15.4882 21.6269C15.9765 20.7187 16.2499 19.6836 16.2499 18.58C16.2499 15.0058 13.3398 12.0859 9.75583 12.0859Z" fill="#64A33A"/>
<path d="M40.2445 12.0859C36.6605 12.0859 33.7504 14.9961 33.7504 18.58C33.7504 19.6836 34.0238 20.7187 34.5121 21.6269C35.2054 22.9257 36.3285 23.9609 37.6859 24.5468C38.4671 24.8886 39.3363 25.0742 40.2445 25.0742C43.8284 25.0742 46.7386 22.164 46.7386 18.58C46.7386 14.9961 43.8187 12.0859 40.2445 12.0859Z" fill="#64A33A"/>
</svg>
