<svg xmlns="http://www.w3.org/2000/svg" xmlns:xlink="http://www.w3.org/1999/xlink" viewBox="0 0 58.4333 58.3867"><defs><clipPath id="a" transform="translate(-0.0003 0)"><rect width="58.433" height="58.387" style="fill:none"/></clipPath></defs><title>icon-tags</title><g style="clip-path:url(#a)"><path d="M58.4063,24.9927l-2.438-18.25a3.1449,3.1449,0,0,0-2.495-2.671L33.6293.0637a3.1494,3.1494,0,0,0-2.852.859L.9223,30.7587a3.14,3.14,0,0,0,0,4.445L23.2033,57.47a3.1615,3.1615,0,0,0,4.453,0l29.852-29.836a3.1457,3.1457,0,0,0,.898-2.641m-25.25-4.981a5.7735,5.7735,0,1,1,5.774,5.771,5.7792,5.7792,0,0,1-5.774-5.771" transform="translate(-0.0003 0)" style="fill:#1d1d1b"/></g></svg>