<svg width="51" height="50" viewBox="0 0 51 50" fill="none" xmlns="http://www.w3.org/2000/svg">
<path d="M29.9235 23.1406H21.0857C17.1013 23.1406 13.8689 26.3828 13.8689 30.3574V44.9667C13.8689 45.7675 14.5134 46.412 15.3142 46.412H35.7047C36.5055 46.412 37.15 45.7675 37.15 44.9667V30.3574C37.1403 26.373 33.8981 23.1406 29.9235 23.1406Z" fill="#64A33A"/>
<path d="M25.5 4C20.7148 4 16.8184 7.89647 16.8184 12.6816C16.8184 15.9238 18.6055 18.7656 21.2519 20.2499C22.5117 20.953 23.957 21.3632 25.4902 21.3632C27.0234 21.3632 28.4785 20.9628 29.7285 20.2499C32.3749 18.7656 34.162 15.9238 34.162 12.6816C34.1816 7.89647 30.2851 4 25.5 4Z" fill="#64A33A"/>
</svg>
