<svg xmlns="http://www.w3.org/2000/svg" width="25" height="24" fill="none"><path fill="#666" fill-rule="evenodd" d="M2.112 7a2 2 0 0 1 2-2h16a2 2 0 0 1 2 2v10a2 2 0 0 1-2 2h-16a2 2 0 0 1-2-2V7Zm5.875 5a1.5 1.5 0 1 0 0-3 1.5 1.5 0 0 0 0 3Zm-2.835 2.518a3.001 3.001 0 0 1 5.671 0c.18.522-.283.982-.836.982h-4c-.552 0-1.016-.46-.835-.982Zm7.96-3.768a.75.75 0 0 1 .75-.75h5.5a.75.75 0 0 1 0 1.5h-5.5a.75.75 0 0 1-.75-.75Zm0 2.5a.75.75 0 0 1 .75-.75h5.5a.75.75 0 0 1 0 1.5h-5.5a.75.75 0 0 1-.75-.75Z" clip-rule="evenodd"/></svg>