<svg xmlns="http://www.w3.org/2000/svg" viewBox="0 0 156.62 108.46"><defs><style>.cls-1{fill:none;stroke:#fff;stroke-miterlimit:10;}.cls-2{fill:#231f20;}.cls-3{fill:#e8b909;}.cls-4{fill:#0054a4;}.cls-5{fill:#a30046;}.cls-6{fill:#fff;}.cls-7{fill:#fd0;}.cls-8{fill:#e31837;}</style></defs><title>ID_logo-without - vertical color (dark bg)</title><g id="Layer_2" data-name="Layer 2"><g id="TEXTOS"><line class="cls-1" x1="107.12" y1="71.83" x2="49.35" y2="71.83"/><path class="cls-2" d="M107.1,29.29l-.86-.9C102.56,24.55,97.37,15,104,6.08l.52-.69-.46-.74a9,9,0,0,0-.79-1.07c-.21-.26-.42-.53-.71-.94L102,1.85l-.9.32a12.5,12.5,0,0,1-4.06.71c-3.79,0-6.28-.37-9.33-2.4L87,0,86.3.49a13.82,13.82,0,0,1-8.2,2.77A13.87,13.87,0,0,1,69.89.49L69.19,0l-.71.48c-3.06,2-5.54,2.4-9.33,2.4a12.6,12.6,0,0,1-4.07-.71l-.89-.32-.55.79c-.29.41-.51.68-.72.93a10.22,10.22,0,0,0-.78,1.08l-.46.74.52.69C58.83,15,53.63,24.55,50,28.39l-.86.9.87.88c.48.47,1.31,1.35,2,2.08a.49.49,0,0,0,0,.12,2.54,2.54,0,0,1,0,.26v.08c-.34,6.4,1.32,11.66,4.92,15.65,3.83,4.23,9.81,6.76,16.87,7.15,1.75,1.61,3.53,2.93,3.61,3l.75.57.76-.57c.08-.06,1.84-1.39,3.59-3,7.07-.39,13-2.92,16.87-7.15,3.61-4,5.26-9.25,4.93-15.65v-.08c0-.12,0-.17,0-.26v-.12c.69-.73,1.53-1.61,2-2.08Zm-4.19,2.5c.07.64,0,.61.08,1,.75,14.25-9.12,21-21,21.48C80.11,56,78.1,57.48,78.1,57.48s-2-1.51-3.84-3.22C62.33,53.76,52.45,47,53.21,32.78c0-.38,0-.35.07-1-.68-.73-1.81-1.92-2.41-2.52,4.28-4.47,9.27-14.69,2.34-23.95.45-.74.78-1,1.46-1.95a13.87,13.87,0,0,0,4.48.78c4,0,6.69-.39,10-2.62a15.13,15.13,0,0,0,8.93,3,15.07,15.07,0,0,0,8.92-3c3.34,2.23,6,2.62,10,2.62a13.81,13.81,0,0,0,4.47-.78c.68,1,1,1.21,1.47,2-6.94,9.26-1.94,19.48,2.34,24-.6.6-1.73,1.79-2.42,2.52"/><path class="cls-3" d="M78.1,57.48a48.51,48.51,0,0,1-3.84-3.22c-11.93-.5-21.8-7.23-21.05-21.48,0-.38,0-.35.07-1-.68-.72-1.82-1.91-2.41-2.51,4.28-4.47,9.27-14.69,2.34-23.95.45-.74.78-1,1.46-1.95a13.87,13.87,0,0,0,4.48.79c4,0,6.69-.4,10-2.62a15.19,15.19,0,0,0,8.93,3,15.15,15.15,0,0,0,8.92-3c3.34,2.22,6,2.62,10,2.62a13.81,13.81,0,0,0,4.47-.79c.68,1,1,1.21,1.47,2-6.93,9.26-1.94,19.48,2.34,24-.6.6-1.73,1.79-2.41,2.51.06.65,0,.62.07,1,.75,14.25-9.12,21-21.06,21.48a49.4,49.4,0,0,1-3.83,3.22"/><path class="cls-4" d="M61.75,32.12H55.47c0,.41-.06.43-.1.84-.37,7.2,2.14,12.11,6.38,15.17Z"/><path class="cls-5" d="M61.75,48.13a20.09,20.09,0,0,0,6.59,3v-19H61.75Z"/><path class="cls-4" d="M68.34,51.13a31.13,31.13,0,0,0,6.59,1v-20H68.34Z"/><path class="cls-5" d="M81.52,32.12H74.93v20h.22c2.19,0,4.18,0,5.89,0l.48,0Z"/><path class="cls-4" d="M81.52,52.1a31.2,31.2,0,0,0,6.59-1v-19H81.52Z"/><path class="cls-5" d="M88.1,51.07a19.61,19.61,0,0,0,6.59-3.13V32.12H88.1Z"/><path class="cls-4" d="M100.72,32.12h-6V48c4.09-3.07,6.49-7.93,6.14-15,0-.41-.07-.43-.11-.84"/><path class="cls-2" d="M78.73,52.32H75.15c-7-.29-12.53-2.43-15.92-6.18-3-3.27-4.33-7.7-4-13.18,0-.2,0-.31,0-.4s0-.23.06-.45v-.17h45.6v.17c0,.22,0,.32,0,.45a2.2,2.2,0,0,1,.05.39c.28,5.49-1.08,9.92-4,13.19-3.4,3.75-8.9,5.89-15.91,6.18H78.73m-23.08-20c0,.12,0,.21,0,.29a2.2,2.2,0,0,0,0,.38c-.27,5.36,1,9.7,3.95,12.89,3.33,3.68,8.74,5.77,15.65,6.06H81c6.91-.29,12.32-2.38,15.65-6.06,2.89-3.19,4.22-7.53,3.94-12.9,0-.17,0-.28,0-.37a1.84,1.84,0,0,1,0-.29Z"/><path class="cls-3" d="M71.76,41.85a6.32,6.32,0,1,1,6.31,6.35,6.34,6.34,0,0,1-6.31-6.35"/><path class="cls-2" d="M78.08,35.68a6.17,6.17,0,1,0,6.12,6.17,6.16,6.16,0,0,0-6.12-6.17m0,12.45a6.29,6.29,0,1,1,6.24-6.28,6.27,6.27,0,0,1-6.24,6.28"/><path class="cls-2" d="M78.07,35.49a6.36,6.36,0,1,1-6.31,6.36,6.34,6.34,0,0,1,6.31-6.36M74.85,43c-1.14-1-1.15-3.17-.84-4.59.09-.39.19-.78.31-1.22a6,6,0,0,0-1.78,6.9,1.73,1.73,0,0,0,.32,0,2.18,2.18,0,0,0,2-1.12m6.14.46c-.2,1-1.27,1.76-2.28,2.36a9.1,9.1,0,0,1-4,1,5.85,5.85,0,0,0,3.32,1,5.94,5.94,0,0,0,5.22-3.1A1.57,1.57,0,0,0,81,43.46m-6.71,3a9.33,9.33,0,0,0,4.25-1c1.42-.84,2.52-1.75,2-3a1.43,1.43,0,0,0-2.28-.56,2,2,0,0,1-2,1.66,2.48,2.48,0,0,1-1.07-.38,2.53,2.53,0,0,1-2.27,1.25h-.15a6.19,6.19,0,0,0,1.57,2m3.78-8.37c1-.41,2.35.12,3.39.71A6.86,6.86,0,0,1,84,41.48a6,6,0,0,0-5.9-5.63,1.32,1.32,0,0,0-.06,2.26m-.17,3.83a2.33,2.33,0,0,1-.62-3.15,1.93,1.93,0,0,1,.45-.49,1.66,1.66,0,0,1-.17-2.43,6,6,0,0,0-2.79,1,14,14,0,0,0-.58,3.33c0,1.59.68,2.88,2.06,3.06a1.7,1.7,0,0,0,1.65-1.31M84,42.4a6.18,6.18,0,0,0-2.73-3.27c-1.44-.81-3-1.25-3.71-.15a2,2,0,0,0,.5,2.65,1.77,1.77,0,0,1,2.78.73,1.93,1.93,0,0,1,.17.7,1.93,1.93,0,0,1,2.53,1.17A6.23,6.23,0,0,0,84,42.4"/><path class="cls-2" d="M85.59,30.94H82.91V25h2.71c1.18,0,1.89.6,1.89,1.6A1.35,1.35,0,0,1,87,27.73,1.42,1.42,0,0,1,87.7,29a1.86,1.86,0,0,1-2.11,1.93M84.17,29.7h1.46c.49,0,.75-.23.75-.68s-.24-.67-.75-.67H84.17Zm0-2.51h1.45c.4,0,.58-.15.58-.47s-.08-.49-.64-.49H84.17Z"/><path class="cls-2" d="M77.63,31c-1.56,0-2.58-1.19-2.58-3.05s1.08-3.05,2.62-3.05a2.27,2.27,0,0,1,2.17,1.32l0,.07-1.19.55,0-.06a1,1,0,0,0-1-.59c-.8,0-1.29.68-1.29,1.76s.52,1.77,1.3,1.77a1.13,1.13,0,0,0,1.06-.7l0-.06,1.08.64,0,.06A2.26,2.26,0,0,1,77.63,31"/><polygon class="cls-2" points="69.74 30.94 68.45 30.94 68.45 25.02 72.7 25.02 72.7 26.29 69.74 26.29 69.74 27.24 71.47 27.24 71.47 28.5 69.74 28.5 69.74 30.94"/><path class="cls-6" d="M57,23.81c2.17-5,3-11.45-.67-17.74a16.48,16.48,0,0,0,2.84.26c3.74,0,6.68-.34,10-2.22a16.84,16.84,0,0,0,9,2.6,16.79,16.79,0,0,0,9-2.6c3.31,1.88,6.26,2.22,10,2.22a15.74,15.74,0,0,0,2.85-.27c-3.66,6.3-2.85,12.74-.68,17.75Z"/><path class="cls-7" d="M77.91,6.71v17.1h2.26V6.58a17.73,17.73,0,0,1-2.08.13h-.18"/><path class="cls-8" d="M80.17,23.81h2.26V6.13a16.74,16.74,0,0,1-2.26.45Z"/><path class="cls-7" d="M82.42,23.81h2.26V5.34a15.9,15.9,0,0,1-2.26.79Z"/><path class="cls-8" d="M84.68,23.81h2.26V4.18a17.85,17.85,0,0,1-2.26,1.16Z"/><path class="cls-7" d="M86.94,4.18V23.81H89.2V5.14a16.73,16.73,0,0,1-2.15-1,.41.41,0,0,1-.11.07"/><path class="cls-8" d="M89.2,23.81h2.26v-18a15.84,15.84,0,0,1-2.26-.69Z"/><path class="cls-7" d="M91.46,23.81h2.26V6.19a16.89,16.89,0,0,1-2.26-.36Z"/><path class="cls-8" d="M93.71,23.78H96V6.29c-.78,0-1.54,0-2.27-.12Z"/><path class="cls-7" d="M99.73,6.08A14.87,14.87,0,0,1,97,6.33H96V23.81h3.25c-2.14-4.93-3-11.24.51-17.45Z"/><path class="cls-8" d="M65,18v5.8h6.29V18H78V11.69h-6.7V5.26a19.69,19.69,0,0,1-2.18-1.15A15.58,15.58,0,0,1,65,5.76v5.93H58.46A18.49,18.49,0,0,1,58.63,18Z"/><path class="cls-2" d="M100.28,5.79l-.42.08A15.12,15.12,0,0,1,97,6.14c-3.81,0-6.66-.36-9.89-2.19l-.1-.06L87,4a16.64,16.64,0,0,1-8.87,2.57A16.62,16.62,0,0,1,69.24,4l-.09-.06-.1.06C65.81,5.78,63,6.14,59.15,6.14a15.47,15.47,0,0,1-2.81-.26l-.4-.07.2.36c3.92,6.74,2.52,13.27.66,17.56l-.11.27H99.51l-.12-.27c-1.86-4.29-3.25-10.82.67-17.58Zm-43.61.53a15.33,15.33,0,0,0,2.48.2c3.84,0,6.72-.36,10-2.19A17,17,0,0,0,77.83,6.9V23.62H57.27a19.36,19.36,0,0,0-.6-17.3m42.26,17.3H78.21V6.9a17.14,17.14,0,0,0,8.85-2.57c3.26,1.83,6.14,2.19,10,2.19a15,15,0,0,0,2.49-.21,19.35,19.35,0,0,0-.6,17.31"/><path class="cls-6" d="M0,84.61H3.56c2.14,0,3.24,1.06,3.24,3a3.25,3.25,0,0,1-2.1,3H1.92v3.51H0ZM4.07,89a1.4,1.4,0,0,0,.81-1.38,1.15,1.15,0,0,0-1.31-1.23H1.92V89Z"/><path class="cls-6" d="M7.58,93.14l2.35-8.53H13l2.36,8.53v1.07H13.67l-.52-2a8.13,8.13,0,0,1-1.71.17,9.15,9.15,0,0,1-1.66-.15l-.52,2H7.58ZM10.2,90.6a7.24,7.24,0,0,0,1.24.11,6.14,6.14,0,0,0,1.29-.13l-.57-2.13c-.22-.89-.5-2.13-.5-2.13h-.39s-.28,1.24-.52,2.13Z"/><path class="cls-6" d="M16.85,84.61h3.62c2.09,0,3.24,1,3.24,2.86a3.11,3.11,0,0,1-2,2.88,15.51,15.51,0,0,0,1.94,2.7v1.16H22.2a21.27,21.27,0,0,1-2.43-3.67h-1v3.67H16.85Zm4,4.2a1.26,1.26,0,0,0,.89-1.26,1.12,1.12,0,0,0-1.24-1.2H18.77v2.46Z"/><path class="cls-6" d="M28.64,86.35v7.86H26.72V86.35H24.44V84.61H31l-.29,1.74Z"/><path class="cls-6" d="M32.14,84.61h1.77l2.74,4.51c.22.36.76,1.45.76,1.45h0s-.07-1-.07-2v-4h1.87v9.6H37.36v-.77L35,89.5c-.31-.55-1-1.65-1-1.65h0s0,.87,0,1.82v4.54H32.14Z"/><path class="cls-6" d="M41.2,84.61h6.08L47,86.35H43.12v2.2h3.51v1.74H43.12v2.19h4v1.73H41.2Z"/><path class="cls-6" d="M48.83,84.61h3.63c2.09,0,3.23,1,3.23,2.86a3.11,3.11,0,0,1-2,2.88,15.21,15.21,0,0,0,1.93,2.7v1.16H54.18a21,21,0,0,1-2.42-3.67h-1v3.67H48.83Zm4.06,4.2a1.26,1.26,0,0,0,.88-1.26,1.12,1.12,0,0,0-1.24-1.2H50.75v2.46Z"/><path class="cls-6" d="M63.45,86.35v7.86H61.53V86.35H59.25V84.61h6.57l-.28,1.74Z"/><path class="cls-6" d="M67,84.61h3.63c2.09,0,3.23,1,3.23,2.86a3.11,3.11,0,0,1-2,2.88,15.51,15.51,0,0,0,1.94,2.7v1.16H72.3a21.27,21.27,0,0,1-2.43-3.67h-1v3.67H67Zm4,4.2a1.26,1.26,0,0,0,.89-1.26,1.12,1.12,0,0,0-1.24-1.2H68.87v2.46Z"/><path class="cls-6" d="M74.78,93.14l2.36-8.53h3.1l2.36,8.53v1.07H80.88l-.52-2a8.2,8.2,0,0,1-1.71.17A9.18,9.18,0,0,1,77,92.21l-.52,2H74.78Zm2.63-2.54a7.15,7.15,0,0,0,1.24.11,6,6,0,0,0,1.28-.13l-.56-2.13c-.23-.89-.51-2.13-.51-2.13h-.38s-.28,1.24-.52,2.13Z"/><path class="cls-6" d="M84.05,84.61h3.43c2.3,0,3.56,1.12,3.56,3.69v2.23c0,2.57-1.26,3.68-3.56,3.68H84.05ZM86,86.34v6.15h1.4c1.21,0,1.75-.45,1.75-1.79V88.13c0-1.34-.54-1.79-1.75-1.79Z"/><path class="cls-6" d="M93.27,92.7V86.12l-1-.16V84.61h3.84V86l-1,.16V92.7l1,.17v1.34H92.31V92.87Z"/><path class="cls-6" d="M97.7,84.61h1.76l2.74,4.51c.22.36.76,1.45.76,1.45h0s-.07-1-.07-2v-4h1.86v9.6h-1.86v-.77L100.5,89.5l-.94-1.65h0s0,.87,0,1.82v4.54H97.7Z"/><path class="cls-6" d="M106.47,88.2c0-2.57,1.4-3.68,3.76-3.68a3.87,3.87,0,0,1,2.92,1.1v1.46h-1.57a1.33,1.33,0,0,0-1.41-.86c-1.25,0-1.78.62-1.78,1.94v2.69c0,1.34.57,1.91,1.77,1.91a1.86,1.86,0,0,0,1.37-.5v-2h-1.47V88.55h3.23v5.66h-1.38l-.24-.65h0a2.75,2.75,0,0,1-2,.77c-2,0-3.11-1.16-3.11-3.59Z"/><path class="cls-6" d="M118,84.61h3.63c2.09,0,3.23,1,3.23,2.86a3.11,3.11,0,0,1-2,2.88,15.21,15.21,0,0,0,1.93,2.7v1.16h-1.47A21.27,21.27,0,0,1,121,90.54h-1v3.67H118Zm4,4.2a1.26,1.26,0,0,0,.89-1.26,1.12,1.12,0,0,0-1.24-1.2H120v2.46Z"/><path class="cls-6" d="M126.4,84.61h6.08l-.28,1.74h-3.88v2.2h3.51v1.74h-3.51v2.19h4v1.73H126.4Z"/><path class="cls-6" d="M133.61,92.08h1.49s.28.58,1.47.58,1.57-.42,1.57-1.07-.29-.91-1.12-1.2l-.86-.31c-1.79-.65-2.46-1.4-2.46-2.84,0-1.74,1.23-2.71,3.39-2.71a6.26,6.26,0,0,1,2.73.61v1.62h-1.51s-.17-.59-1.32-.59c-1,0-1.39.45-1.39,1s.31.77,1.17,1.08l.86.32c2,.73,2.4,1.58,2.4,2.85,0,1.8-1,2.85-3.52,2.85a7.37,7.37,0,0,1-2.9-.6Z"/><path class="cls-6" d="M141.61,84.61h3.14l1.13,5.18c.21,1,.5,2.81.5,2.81h.08s.28-1.82.5-2.81l1.12-5.18h3.15v9.6h-1.85V89.44c0-.83.06-3.24.06-3.24h-.16s-.41,1.9-.62,2.83l-1.18,5.18h-2.12L144.17,89c-.21-.93-.62-2.83-.62-2.83h-.14s0,2.41,0,3.24v4.77h-1.84Z"/><path class="cls-6" d="M153.74,92.7V86.12l-1-.16V84.61h3.84V86l-1,.16V92.7l1,.17v1.34h-3.84V92.87Z"/><path class="cls-6" d="M33.17,98.72h5.94l-.28,1.74H35.08v2.2h3.38v1.74H35.08v3.92H33.17Z"/><path class="cls-6" d="M40,102.31c0-2.54,1.25-3.68,3.55-3.68a3.82,3.82,0,0,1,2.88,1.07v1.5H44.91s-.12-.87-1.3-.87S42,101,42,102.27v2.51c0,1.31.39,1.93,1.65,1.93s1.3-.86,1.3-.86h1.56v1.5a3.82,3.82,0,0,1-2.88,1.07c-2.3,0-3.55-1.14-3.55-3.68Z"/><path class="cls-6" d="M50.79,98.72h3.47c2.3,0,3.11,1,3.11,2.63a2.43,2.43,0,0,1-1.12,2.12v0a2.44,2.44,0,0,1,1.26,2.07c0,1.72-.95,2.75-3.12,2.75h-3.6Zm1.86,1.66v2.27h2.09a1.27,1.27,0,0,0,.75-1.17,1,1,0,0,0-1.16-1.1Zm0,3.89v2.4h1.79a1.1,1.1,0,0,0,1.19-1.2,1.33,1.33,0,0,0-.85-1.2Z"/><path class="cls-6" d="M58.53,107.25l2.36-8.53H64l2.35,8.53v1.07H64.63l-.52-2a8.13,8.13,0,0,1-1.71.17,9.07,9.07,0,0,1-1.66-.15l-.53,2H58.53Zm2.63-2.54a7.24,7.24,0,0,0,1.24.11,7,7,0,0,0,1.29-.12l-.57-2.14c-.22-.89-.51-2.13-.51-2.13h-.38s-.28,1.24-.52,2.13Z"/><path class="cls-6" d="M67.8,98.72h3.63c2.09,0,3.24,1,3.24,2.86a3.09,3.09,0,0,1-2,2.87,15.12,15.12,0,0,0,1.93,2.71v1.16H73.15a21,21,0,0,1-2.42-3.67h-1v3.67H67.8Zm4.06,4.2a1.26,1.26,0,0,0,.89-1.26,1.12,1.12,0,0,0-1.25-1.2H69.72v2.46Z"/><path class="cls-6" d="M75.88,102.31c0-2.54,1.25-3.68,3.55-3.68a3.82,3.82,0,0,1,2.88,1.07v1.5H80.75s-.12-.87-1.3-.87-1.65.62-1.65,1.94v2.51c0,1.31.39,1.93,1.65,1.93s1.3-.86,1.3-.86h1.56v1.5a3.82,3.82,0,0,1-2.88,1.07c-2.3,0-3.55-1.14-3.55-3.68Z"/><path class="cls-6" d="M83.81,98.72h6.08l-.28,1.74H85.73v2.2h3.51v1.74H85.73v2.19h4v1.73H83.81Z"/><path class="cls-6" d="M91.44,98.72h1.92v7.87h3.88L97,108.32H91.44Z"/><path class="cls-6" d="M98.06,102.44c0-2.5,1.29-3.86,3.72-3.86s3.73,1.36,3.73,3.86v2.17c0,2.48-1.3,3.85-3.73,3.85s-3.72-1.35-3.72-3.85Zm3.72,4.32c1.27,0,1.81-.6,1.81-2V102.3c0-1.42-.54-2-1.81-2s-1.8.59-1.8,2v2.45C100,106.16,100.51,106.76,101.78,106.76Z"/><path class="cls-6" d="M107.2,98.72H109l2.74,4.51c.23.36.76,1.45.76,1.45h0s-.07-1-.07-2v-4h1.86v9.6h-1.86v-.77L110,103.61c-.31-.55-1-1.65-1-1.65h0s0,.87,0,1.82v4.54H107.2Z"/><path class="cls-6" d="M115.74,107.25l2.35-8.53h3.11l2.36,8.53v1.07h-1.73l-.52-2a8.13,8.13,0,0,1-1.71.17,9.07,9.07,0,0,1-1.66-.15l-.52,2h-1.68Zm2.62-2.54a7.24,7.24,0,0,0,1.24.11,7,7,0,0,0,1.29-.12l-.57-2.14c-.22-.89-.5-2.13-.5-2.13h-.39s-.28,1.24-.52,2.13Z"/></g></g></svg>