<svg xmlns="http://www.w3.org/2000/svg" viewBox="0 0 205.17909 112.52249"><defs><style>.cls-1{fill:none;stroke:#fff;stroke-miterlimit:10;}.cls-2{fill:#fff;}.cls-3{fill:#e8b909;}.cls-4{fill:#fd0;}.cls-5{fill:#0054a4;}.cls-6{fill:#a30046;}.cls-7{fill:#e31937;}.cls-8{fill:#231f20;}.cls-9{fill:#00be40;}</style></defs><g id="Layer_2" data-name="Layer 2"><g id="ARTE"><g id="ID_joint-logo-horizontal-white"><line class="cls-1" x1="103.08701" x2="103.08701" y2="71.7104"/><path class="cls-2" d="M18.5699,86.97683h3.82569c2.30761,0,3.49218,1.13867,3.49218,3.26416a3.48907,3.48907,0,0,1-2.2622,3.2793H20.63436v3.78052H18.5699Zm4.37256,4.676a1.51407,1.51407,0,0,0,.88037-1.4878,1.24827,1.24827,0,0,0-1.41211-1.3208H20.63436v2.8086Z"/><path class="cls-2" d="M26.72127,96.147l2.53564-9.17017h3.33985L35.1324,96.147v1.15381h-1.852l-.562-2.17115a9.29553,9.29553,0,0,1-1.83691.18213,9.93394,9.93394,0,0,1-1.79151-.167l-.562,2.156H26.72127Zm2.82422-2.73291a7.66392,7.66392,0,0,0,1.33594.12134,6.9892,6.9892,0,0,0,1.38134-.13648l-.60693-2.29272c-.24316-.9563-.54687-2.29248-.54687-2.29248H30.6993s-.30371,1.33618-.562,2.29248Z"/><path class="cls-2" d="M36.6949,86.97683h3.90186c2.24707,0,3.47656,1.06275,3.47656,3.06665a3.33265,3.33265,0,0,1-2.12549,3.09741,16.76712,16.76712,0,0,0,2.08008,2.915v1.24488h-1.5791a22.92576,22.92576,0,0,1-2.61133-3.94751H38.75936v3.94751H36.6949Zm4.35694,4.509a1.3505,1.3505,0,0,0,.95654-1.35132,1.20223,1.20223,0,0,0-1.33594-1.29029H38.75936v2.64161Z"/><path class="cls-2" d="M49.38533,88.84426v8.45655H47.32088V88.84426h-2.46V86.97683h7.07519l-.30371,1.86743Z"/><path class="cls-2" d="M53.14949,86.97683H55.047l2.94532,4.843c.24316.39477.82031,1.564.82031,1.564h.03027s-.07617-1.10839-.07617-2.12573V86.97683h2.00439v10.324H58.76668v-.835l-2.59619-4.23609c-.334-.592-1.01709-1.77637-1.01709-1.77637H55.108s.04541.94141.04541,1.95874v4.88868H53.14949Z"/><path class="cls-2" d="M62.8951,86.97683h6.54346l-.30372,1.86743H64.95955v2.36841h3.78076V93.0801H64.95955v2.35327H69.2867v1.86744H62.8951Z"/><path class="cls-2" d="M71.1075,86.97683h3.90186c2.24707,0,3.47656,1.06275,3.47656,3.06665a3.33265,3.33265,0,0,1-2.12549,3.09741,16.76712,16.76712,0,0,0,2.08008,2.915v1.24488h-1.5791a22.92576,22.92576,0,0,1-2.61133-3.94751H73.172v3.94751H71.1075Zm4.35693,4.509a1.35051,1.35051,0,0,0,.95655-1.35132A1.20223,1.20223,0,0,0,75.085,88.84426H73.172v2.64161Z"/><path class="cls-2" d="M86.83406,88.84426v8.45655H84.76961V88.84426H82.31014V86.97683h7.0747l-.30371,1.86743Z"/><path class="cls-2" d="M90.59822,86.97683h3.90186c2.24707,0,3.47656,1.06275,3.47656,3.06665a3.33265,3.33265,0,0,1-2.12549,3.09741,16.76712,16.76712,0,0,0,2.08008,2.915v1.24488h-1.5791A22.92576,22.92576,0,0,1,93.7408,93.3533H92.66268v3.94751H90.59822Zm4.35694,4.509a1.3505,1.3505,0,0,0,.95654-1.35132,1.20223,1.20223,0,0,0-1.33594-1.29029H92.66268v2.64161Z"/><path class="cls-2" d="M99.02254,96.147l2.53564-9.17017H104.898l2.53564,9.17017v1.15381h-1.85205l-.562-2.17115a9.29561,9.29561,0,0,1-1.83691.18213,9.93394,9.93394,0,0,1-1.79151-.167l-.562,2.156H99.02254Zm2.82422-2.73291a7.66392,7.66392,0,0,0,1.33594.12134A6.98555,6.98555,0,0,0,104.564,93.399l-.60693-2.29272c-.24316-.9563-.54687-2.29248-.54687-2.29248h-.40967s-.30371,1.33618-.562,2.29248Z"/><path class="cls-2" d="M108.99617,86.97683h3.689c2.4751,0,3.82617,1.19922,3.82617,3.9624v2.39893c0,2.76318-1.35107,3.96265-3.82617,3.96265h-3.689Zm2.06446,1.852v6.61963H112.564c1.30567,0,1.88233-.48584,1.88233-1.92822V90.75711c0-1.44239-.57666-1.92823-1.88233-1.92823Z"/><path class="cls-2" d="M118.90828,95.67629v-7.075l-1.03222-.18237V86.97683h4.12939V88.419l-1.03223.18237v7.075l1.03223.18213v1.44239h-4.12939V95.85842Z"/><path class="cls-2" d="M123.67488,86.97683h1.89746l2.94532,4.843c.24316.39477.82031,1.564.82031,1.564h.03027s-.07617-1.10839-.07617-2.12573V86.97683h2.0044v10.324h-2.0044v-.835l-2.59619-4.23609c-.334-.592-1.01709-1.77637-1.01709-1.77637h-.04541s.04541.94141.04541,1.95874v4.88868h-2.00391Z"/><path class="cls-2" d="M133.11678,90.833c0-2.76318,1.50293-3.96264,4.03857-3.96264a4.15354,4.15354,0,0,1,3.14258,1.18432v1.57886h-1.68506a1.437,1.437,0,0,0-1.51855-.926c-1.35108,0-1.91309.668-1.91309,2.08008v2.89966c0,1.44238.60742,2.04981,1.898,2.04981a2.00767,2.00767,0,0,0,1.47266-.5315V93.01931h-1.57862V91.21267h3.47657v6.08814H138.962l-.2583-.69849h-.04541a2.98382,2.98382,0,0,1-2.20166.81982c-2.20117,0-3.33984-1.24487-3.33984-3.8562Z"/><path class="cls-2" d="M145.56453,86.97683h3.90186c2.24707,0,3.47656,1.06275,3.47656,3.06665a3.33265,3.33265,0,0,1-2.12549,3.09741,16.76712,16.76712,0,0,0,2.08008,2.915v1.24488h-1.5791a22.92576,22.92576,0,0,1-2.61133-3.94751H147.629v3.94751h-2.06446Zm4.35694,4.509a1.3505,1.3505,0,0,0,.95654-1.35132,1.20223,1.20223,0,0,0-1.33594-1.29029H147.629v2.64161Z"/><path class="cls-2" d="M154.55086,86.97683h6.54346l-.30371,1.86743h-4.1753v2.36841h3.78076V93.0801h-3.78076v2.35327h4.32715v1.86744h-6.3916Z"/><path class="cls-2" d="M162.30721,95.00833h1.60937s.30371.62231,1.57862.62231c1.23,0,1.68554-.45532,1.68554-1.15381,0-.53125-.30371-.97168-1.1997-1.29053l-.92579-.334c-1.92822-.69849-2.64209-1.50293-2.64209-3.05176,0-1.86743,1.32129-2.915,3.644-2.915a6.74067,6.74067,0,0,1,2.93017.65284v1.74609h-1.62451s-.18213-.6377-1.41211-.6377c-1.04736,0-1.50293.48584-1.50293,1.1084,0,.60718.334.835,1.26026,1.16895l.92578.334c2.17138.78955,2.58105,1.70044,2.58105,3.0669,0,1.94336-1.09277,3.06689-3.78027,3.06689a8.06086,8.06086,0,0,1-3.12744-.63769Z"/><path class="cls-2" d="M170.91414,86.97683h3.38526l1.21484,5.57178c.22754,1.06274.53125,3.02148.53125,3.02148h.09131s.30371-1.95874.53125-3.02148l1.21484-5.57178h3.38526v10.324h-1.98877v-5.1316c0-.89575.061-3.49218.061-3.49218h-.167s-.44043,2.0498-.66846,3.05176l-1.2749,5.572h-2.27734l-1.2754-5.572c-.228-1.002-.668-3.05176-.668-3.05176h-.15186s.04541,2.59643.04541,3.49218v5.1316h-1.98877Z"/><path class="cls-2" d="M183.96883,95.67629v-7.075L182.9366,88.419V86.97683h4.1294V88.419l-1.03223.18237v7.075l1.03223.18213v1.44239h-4.1294V95.85842Z"/><path class="cls-2" d="M54.25008,102.04666h6.3916l-.30371,1.86743H56.31453v2.36841h3.62891v1.86743H56.31453v4.2207H54.25008Z"/><path class="cls-2" d="M61.64266,105.90286c0-2.73291,1.35107-3.96265,3.82568-3.96265a4.11235,4.11235,0,0,1,3.09717,1.15381v1.60937H66.88045s-.12158-.926-1.397-.926c-1.35108,0-1.77637.668-1.77637,2.08008v2.70239c0,1.41186.42529,2.08008,1.77637,2.08008,1.27539,0,1.397-.92627,1.397-.92627h1.68506V111.323a4.11235,4.11235,0,0,1-3.09717,1.15381c-2.47461,0-3.82568-1.22973-3.82568-3.96264Z"/><path class="cls-2" d="M73.21,102.04666H76.9449c2.47461,0,3.33985,1.12329,3.33985,2.82373a2.6038,2.6038,0,0,1-1.19922,2.27734v.03052a2.64586,2.64586,0,0,1,1.35107,2.23169c0,1.85229-1.01709,2.96069-3.35547,2.96069H73.21Zm2.00391,1.77612v2.44458H77.461a1.3658,1.3658,0,0,0,.80468-1.26025,1.10933,1.10933,0,0,0-1.24511-1.18433Zm0,4.19043v2.58105h1.92822a1.18449,1.18449,0,0,0,1.27539-1.29052,1.434,1.434,0,0,0-.91113-1.29053Z"/><path class="cls-2" d="M81.54354,111.21682l2.53564-9.17016H87.419l2.53565,9.17016v1.15381h-1.852l-.562-2.17114a9.29646,9.29646,0,0,1-1.83692.18213,9.93391,9.93391,0,0,1-1.7915-.167l-.562,2.156H81.54354Zm2.82421-2.73291a7.6641,7.6641,0,0,0,1.33594.12134,6.99,6.99,0,0,0,1.38135-.13647l-.60693-2.29273c-.24317-.9563-.54688-2.29248-.54688-2.29248h-.40967s-.30371,1.33618-.562,2.29248Z"/><path class="cls-2" d="M91.51717,102.04666H95.419c2.24707,0,3.47657,1.06274,3.47657,3.06665a3.33265,3.33265,0,0,1-2.12549,3.09741,16.76712,16.76712,0,0,0,2.08008,2.915v1.24487H97.27107a22.9257,22.9257,0,0,1-2.61132-3.94751H93.58162v3.94751H91.51717Zm4.35693,4.509a1.35051,1.35051,0,0,0,.95655-1.35132,1.20222,1.20222,0,0,0-1.33594-1.29028H93.58162v2.6416Z"/><path class="cls-2" d="M100.19979,105.90286c0-2.73291,1.35107-3.96265,3.82568-3.96265a4.11235,4.11235,0,0,1,3.09717,1.15381v1.60937h-1.68506s-.12158-.926-1.397-.926c-1.35108,0-1.77637.668-1.77637,2.08008v2.70239c0,1.41186.42529,2.08008,1.77637,2.08008,1.27539,0,1.397-.92627,1.397-.92627h1.68506V111.323a4.11235,4.11235,0,0,1-3.09717,1.15381c-2.47461,0-3.82568-1.22973-3.82568-3.96264Z"/><path class="cls-2" d="M108.731,102.04666h6.54345l-.30371,1.86743h-4.17529v2.36841h3.78076v1.86743h-3.78076v2.35327h4.32715v1.86743H108.731Z"/><path class="cls-2" d="M116.94344,102.04666h2.06445v8.45654h4.17529l-.30371,1.86743h-5.936Z"/><path class="cls-2" d="M124.06258,106.03958c0-2.68726,1.39648-4.14478,4.00781-4.14478,2.59619,0,4.0083,1.45752,4.0083,4.14478v2.33813c0,2.67212-1.39648,4.14478-4.0083,4.14478-2.59619,0-4.00781-1.45752-4.00781-4.14478Zm4.00781,4.64575c1.3667,0,1.94336-.6377,1.94336-2.15576v-2.64185c0-1.51831-.57666-2.156-1.94336-2.156-1.36621,0-1.94336.6377-1.94336,2.156v2.64185C126.127,110.04763,126.70418,110.68533,128.07039,110.68533Z"/><path class="cls-2" d="M133.899,102.04666h1.89747l2.94531,4.843c.24316.39478.82031,1.564.82031,1.564h.03027s-.07617-1.1084-.07617-2.12573v-4.28125h2.0044v10.324h-2.0044v-.835L136.92,107.29959c-.334-.59205-1.01709-1.77637-1.01709-1.77637h-.04541s.04541.9414.04541,1.95874v4.88867H133.899Z"/><path class="cls-2" d="M143.0826,111.21682l2.53564-9.17016h3.33985l2.53564,9.17016v1.15381h-1.852l-.562-2.17114a9.29638,9.29638,0,0,1-1.83692.18213,9.93391,9.93391,0,0,1-1.7915-.167l-.562,2.156H143.0826Zm2.82422-2.73291a7.66389,7.66389,0,0,0,1.33593.12134,6.99,6.99,0,0,0,1.38135-.13647l-.60693-2.29273c-.24317-.9563-.54688-2.29248-.54688-2.29248h-.40966s-.30372,1.33618-.562,2.29248Z"/><path class="cls-3" d="M180.6486,1.21078l.358.23732c3.92543,2.59863,7.08539,3.07415,11.89474,3.07415a16.365,16.365,0,0,0,5.25711-.92l.45633-.15788,2.28034,3.19512-.23457.31339c-8.47149,11.25577-1.86557,23.408,2.81,28.25887l.43248.449-.441.44043c-.61327.61177-1.675,1.71626-2.46357,2.544l-.267.281.01708.3867.00432.13436c.00425.0984.00731.20036.02746.37751l.00731.07024c.3959,7.50756-1.54973,13.67424-5.78242,18.32722-4.49778,4.94434-11.59236,7.92109-19.97591,8.38166l-.32314.01833-.23945.21869c-2.135,1.94313-4.30168,3.55705-4.32489,3.57475l-.37788.28161-.37782-.28036c-.08976-.06718-2.22961-1.65908-4.33683-3.576l-.23913-.21869-.32347-.01833c-8.38379-.46057-15.47838-3.43732-19.97647-8.38166-4.23362-4.65479-6.17894-10.82147-5.78123-18.329l.00551-.07087c.01951-.16614.0232-.25778.02745-.36224l.00063-.02809.00031-.00307.00394-.116.01683-.38733-.26666-.28036c-.74369-.78128-1.835-1.91748-2.46332-2.544l-.44075-.44043.43224-.449c4.67618-4.85089,11.28079-17.0031,2.81024-28.25887l-.23576-.31339,2.28185-3.19512.45576.15788a16.34529,16.34529,0,0,0,5.257.92c4.809,0,7.96907-.47552,11.8945-3.07415l.35855-.23732.35279.24433a17.83466,17.83466,0,0,0,10.538,3.52284,17.83487,17.83487,0,0,0,10.53741-3.52284l.353-.24433"/><path class="cls-2" d="M143.96346,29.00482c2.65386-6.08574,3.64225-13.90174-.82131-21.54122a19.909,19.909,0,0,0,3.4721.3207c4.56809,0,8.16486-.41541,12.20451-2.69851a20.71212,20.71212,0,0,0,10.93113,3.15452,20.72441,20.72441,0,0,0,10.94638-3.15452c4.04027,2.2831,7.637,2.69851,12.20506,2.69851a18.43276,18.43276,0,0,0,3.48318-.33966c-4.474,7.65781-3.4868,15.47444-.83264,21.56018H143.96346"/><path class="cls-4" d="M195.55187,29.00482c-2.65416-6.08574-3.64137-13.90237.83264-21.56018a18.43276,18.43276,0,0,1-3.48318.33966c-4.568,0-8.16479-.41541-12.20506-2.69851a20.72441,20.72441,0,0,1-10.94638,3.15452c-.04036,0-.07976-.00212-.12036-.00244v20.767Z"/><path class="cls-5" d="M189.87085,58.41579c5.08358-3.71588,8.086-9.64917,7.645-18.30513-.05136-.49236-.088-.52107-.1271-1.01648h-7.51789Z"/><path class="cls-6" d="M181.82515,62.14085A24.26063,24.26063,0,0,0,189.872,58.4146V39.09418h-8.04689Z"/><path class="cls-6" d="M149.64323,58.4146a24.26949,24.26949,0,0,0,8.04789,3.72625V39.09418h-8.04789Z"/><path class="cls-5" d="M142.00013,40.11066c-.44106,8.656,2.56133,14.58988,7.64529,18.30575V39.09418h-7.51888C142.08745,39.58959,142.05142,39.6183,142.00013,40.11066Z"/><path class="cls-6" d="M169.77765,43.36658a7.53654,7.53654,0,0,1,4.00424,1.15209V39.09418h-8.04751v5.44889A7.53636,7.53636,0,0,1,169.77765,43.36658Z"/><path class="cls-6" d="M169.77765,58.52944a7.531,7.531,0,0,1-4.04327-1.17655v6.00117c.14231.00732.2828.01708.42542.0244,2.67318.01345,5.09678.02815,7.1963,0,.14293-.00732.28349-.01708.42579-.0244V57.37735A7.53707,7.53707,0,0,1,169.77765,58.52944Z"/><path class="cls-5" d="M173.78008,39.09418v5.42324a7.56667,7.56667,0,0,1,0,12.86056v5.97608a38.46746,38.46746,0,0,0,8.04751-1.21321V39.09418Z"/><path class="cls-5" d="M162.19716,50.94857a7.571,7.571,0,0,1,3.53935-6.40732V39.09418h-8.04783V62.14085a38.46631,38.46631,0,0,0,8.04783,1.21321V57.35414A7.56879,7.56879,0,0,1,162.19716,50.94857Z"/><path class="cls-7" d="M145.77617,14.28633a22.46918,22.46918,0,0,1,.21106,7.67733h7.81663v7.04116h7.67732V21.96366h8.18013V14.28633h-8.18013v-7.809a23.64591,23.64591,0,0,1-2.66242-1.39154,19.42517,19.42517,0,0,1-5.0149,2.00668v7.19386Z"/><path class="cls-7" d="M186.1837,29.00482V7.2a18.74788,18.74788,0,0,1-2.7587-.82438v22.6292Z"/><path class="cls-7" d="M175.14779,29.00482V7.51214a19.83686,19.83686,0,0,1-2.75869.55559V29.00482Z"/><path class="cls-7" d="M191.70164,29.00482V7.77148c-.95362-.01808-1.86988-.06236-2.7587-.14662v21.38Z"/><path class="cls-7" d="M180.66574,29.00482V5.10318a23.48249,23.48249,0,0,1-2.75869,1.42976V29.00482Z"/><path class="cls-8" d="M205.17909,35.65622l-1.05251-1.09285c-4.49046-4.65873-10.84036-16.31377-2.73912-27.08088l.63591-.846-3.06288-4.2916-1.0983.37932a15.41557,15.41557,0,0,1-4.96086.87017c-4.62726,0-7.65962-.45145-11.392-2.923L180.6364.0929l-.8601.59738a16.96919,16.96919,0,0,1-10.01816,3.36007A16.96953,16.96953,0,0,1,159.73934.69028L158.87956.0929l-.87324.57849c-3.73207,2.47151-6.76443,2.923-11.39207,2.923a15.40919,15.40919,0,0,1-4.96047-.87017l-1.09837-.37932-3.06407,4.291.63622.84665c8.10187,10.76711,1.75166,22.42215-2.73793,27.08088l-1.05282,1.09285,1.0739,1.07147c.577.576,1.60079,1.63831,2.44681,2.52893-.00244.05011-.00332.09408-.00519.13806-.00332.09226-.0055.16983-.02321.31889l-.00856.10021c-.41386,7.76528,1.61084,14.15984,6.01611,19.00334,4.67005,5.13438,11.969,8.20459,20.60018,8.67861,2.13836,1.94745,4.30937,3.56193,4.40683,3.63462l.9224.6842.92052-.68664c.09652-.07206,2.256-1.686,4.39214-3.63218,8.63156-.474,15.93013-3.54423,20.59961-8.67861,4.40614-4.8435,6.43-11.23681,6.017-19.00334l-.00914-.10021a2.99748,2.99748,0,0,1-.02263-.32071c-.00182-.04216-.00364-.08613-.00551-.13624.84671-.89062,1.87113-1.95351,2.44718-2.52893Zm-5.11292,3.03418c.07881.78.033.7495.08676,1.20582.92177,17.30824-11.13605,25.481-25.70823,26.08455-2.22725,2.08062-4.68081,3.90953-4.68081,3.90953s-2.46544-1.82891-4.69294-3.90953c-14.57218-.60351-26.63032-8.77631-25.70854-26.08455.054-.45632.00826-.42579.08732-1.20582-.83532-.88331-2.218-2.32652-2.94829-3.05494,5.22683-5.42356,11.32539-17.8318,2.86034-29.08144l1.78769-2.3708a16.92792,16.92792,0,0,0,5.46478.95542c4.85427,0,8.16912-.4814,12.24479-3.18017A18.59046,18.59046,0,0,0,169.75814,5.595a18.59118,18.59118,0,0,0,10.899-3.63649c4.075,2.69877,7.389,3.18017,12.24415,3.18017a16.93326,16.93326,0,0,0,5.46478-.95542l1.78745,2.3708c-8.46537,11.24964-2.3665,23.65788,2.86127,29.08144C202.28422,36.36388,200.90124,37.80709,200.06617,38.6904Z"/><path class="cls-8" d="M141.896,39.07585c-.02077.26447-.04123.39095-.06293.53263-.01927.121-.03941.25234-.06412.49054-.33935,6.656,1.32343,12.04262,4.941,16.01139,4.14961,4.551,10.87213,7.14344,19.449,7.499l.32622.00119c1.42726.00857,2.78122.0147,4.05059.0147.99515,0,1.93832-.00369,2.82956-.01651,8.56858-.35493,15.29054-2.94742,19.44015-7.49837,3.61817-3.9694,5.28094-9.35542,4.94009-16.023-.02321-.22663-.044-.358-.06293-.479-.022-.14168-.04216-.26816-.06293-.53263l-.01714-.21381h-55.6901Zm.3344,1.05864c.02265-.21506.04185-.33966.05993-.45513.01645-.10628.032-.20524.0476-.35305h54.83952c.01582.14906.03171.24677.0476.3543.01833.11422.03791.23882.05987.44224.33233,6.52711-1.28953,11.80067-4.82093,15.6748-4.06529,4.45812-10.67547,6.99932-19.1115,7.34867-2.01219.02753-4.32251.01589-6.86489.00251l-.318-.00251c-8.44247-.34935-15.05327-2.89055-19.11763-7.348C143.52053,51.92477,141.89873,46.65,142.23038,40.13449Z"/><path class="cls-8" d="M143.75147,28.91168l-.14143.32371h52.295l-.14113-.32371c-2.27122-5.2095-3.97427-13.1431.821-21.35038l.25653-.4398-.5003.09652a18.26782,18.26782,0,0,1-3.43977.33415c-4.66761,0-8.14159-.4368-12.09022-2.6683l-.11854-.06687-.116.07056a20.43967,20.43967,0,0,1-10.826,3.12062,20.41973,20.41973,0,0,1-10.812-3.12062L158.8227,4.817l-.11785.06687c-3.94863,2.2315-7.42355,2.6683-12.0906,2.6683a19.75555,19.75555,0,0,1-3.43151-.31614l-.49266-.08764.25259.43187C147.72788,15.77164,146.02357,23.70218,143.75147,28.91168Zm26.14041-20.4408a20.86911,20.86911,0,0,0,10.80926-3.11756c3.98773,2.22387,7.50143,2.66187,12.20019,2.66187a18.66642,18.66642,0,0,0,3.03724-.25534c-4.49233,8.0512-2.94191,15.79577-.73792,21.01315H169.89188ZM143.585,7.77148a19.77279,19.77279,0,0,0,3.02923.24371c4.6982,0,8.21222-.438,12.2005-2.66187a20.86145,20.86145,0,0,0,10.61411,3.11512V28.773H144.31469C146.5193,23.555,148.07273,15.81074,143.585,7.77148Z"/><polygon class="cls-8" points="163.158 32.014 163.158 30.486 157.982 30.486 157.982 37.659 159.539 37.659 159.539 34.7 161.654 34.7 161.654 33.184 159.539 33.184 159.539 32.014 163.158 32.014"/><path class="cls-8" d="M169.22025,31.922a1.26346,1.26346,0,0,1,1.216.7208l.033.065,1.441-.664-.0336-.06994a2.74421,2.74421,0,0,0-2.63652-1.59865c-1.88115,0-3.19481,1.52046-3.19481,3.69667,0,2.24551,1.23428,3.696,3.14415,3.696a2.74832,2.74832,0,0,0,2.66642-1.62737l.03115-.06293-1.3091-.77577-.0391.06474a1.39269,1.39269,0,0,1-1.30847.85584c-.95018,0-1.58852-.865-1.58852-2.15055C167.6418,32.74634,168.24687,31.922,169.22025,31.922Z"/><path class="cls-8" d="M181.23991,32.41738c0-1.20889-.86129-1.9315-2.3023-1.9315H175.642v7.17278h3.26449a2.26591,2.26591,0,0,0,2.57416-2.34272,1.68388,1.68388,0,0,0-.90588-1.54455A1.63353,1.63353,0,0,0,181.23991,32.41738Zm-4.0708-.4856h1.708c.6964,0,.7856.31915.7856.59588,0,.39433-.234.58555-.71535.58555h-1.77825Zm1.78863,4.24h-1.78863V34.50932h1.78863c.631,0,.92609.26329.92609.8277C179.88383,35.88285,179.56313,36.17178,178.95774,36.17178Z"/><path class="cls-8" d="M169.72849,58.65405a7.747,7.747,0,1,0-7.7467-7.747A7.75587,7.75587,0,0,0,169.72849,58.65405Zm0-.46545a7.25405,7.25405,0,0,1-4.06317-1.23948,11.53329,11.53329,0,0,0,4.84908-1.21865c1.229-.73243,2.53381-1.64632,2.77208-2.86741a1.92965,1.92965,0,0,1,2.81855,1.56137A7.28164,7.28164,0,0,1,169.72849,58.1886Zm-3.59065-5.61385a3.02341,3.02341,0,0,0,1.29747.46058,2.49278,2.49278,0,0,0,2.50579-2.01463,1.745,1.745,0,0,1,2.78584.68051c.63773,1.52528-.70559,2.6267-2.43492,3.65907a11.54516,11.54516,0,0,1-5.19111,1.168,7.313,7.313,0,0,1-1.9218-2.438c.05836.00306.11666.00488.17621.00488A3.11956,3.11956,0,0,0,166.13784,52.57475Zm-1.15884-3.6774a16.38551,16.38551,0,0,1,.70284-4.04271,7.211,7.211,0,0,1,3.41074-1.19976,2.01756,2.01756,0,0,0,.19973,2.95048,2.14509,2.14509,0,0,0-.544.59557,2.80114,2.80114,0,0,0,.75751,3.81426,2.08116,2.08116,0,0,1-2.01525,1.59009C165.80306,52.389,165.0059,50.82278,164.979,48.89735Zm8.34476,3.48193a2.47262,2.47262,0,0,0-.19736-.84671,2.173,2.173,0,0,0-3.39854-.89182,2.3656,2.3656,0,0,1-.61295-3.20826c.846-1.3415,2.77026-.807,4.5283.17528a7.51348,7.51348,0,0,1,3.33531,3.96883,7.2179,7.2179,0,0,1-.56567,2.22106A2.35508,2.35508,0,0,0,173.32376,52.37928Zm.53083-5.14964c-1.27183-.70979-2.94073-1.35977-4.14474-.85885a1.60572,1.60572,0,0,1,.08156-2.744,7.27964,7.27964,0,0,1,7.20425,6.83981A8.45979,8.45979,0,0,0,173.85459,47.22964Zm-8.717-1.97366c-.13562.5357-.26635,1.00365-.37113,1.48012-.37444,1.71588-.37018,4.29923,1.02536,5.571a2.684,2.684,0,0,1-2.43648,1.35433,2.85675,2.85675,0,0,1-.37838-.02508,7.288,7.288,0,0,1,2.16063-8.38042Z"/><path class="cls-9" d="M6.9657.09311H64.75608a6.9657,6.9657,0,0,1,6.9657,6.9657V64.84918a6.96571,6.96571,0,0,1-6.96571,6.96571H6.96571A6.96571,6.96571,0,0,1,0,64.84918V7.05881A6.9657,6.9657,0,0,1,6.9657.09311Z"/><rect class="cls-2" x="14.24439" y="45.4857" width="43.36435" height="3.44882"/><path class="cls-2" d="M26.07928,28.29153V24.78372H14.24439V41.15653H18.569V35.33438h6.6889V31.822H18.569v-3.5305Z"/><path class="cls-2" d="M39.026,32.66608A3.962,3.962,0,0,0,41.667,29.03575c0-2.64561-1.96038-4.23388-5.264-4.23388h-8.377V41.15653H36.4938c3.60311,0,5.75408-1.70626,5.75408-4.606A4.02087,4.02087,0,0,0,39.026,32.66608Zm-6.766-4.56061h3.34445c1.21616,0,1.86963.55817,1.86963,1.59281s-.65347,1.58827-1.86963,1.58827H32.25992Zm3.63034,9.7293H32.25992V34.58108H35.9311c1.21616,0,1.89685.58086,1.89685,1.68357,0,1.03919-.68069,1.57012-1.94223,1.57012Z"/><path class="cls-2" d="M52.6851,31.214l-1.96946-.2632c-1.94223-.28135-2.514-.75783-2.514-1.66088s.75784-1.5202,2.44594-1.5202a2.37181,2.37181,0,0,1,2.69553,2.00122L57.459,29.24c-.60355-3.22192-2.91788-4.7875-6.69343-4.7875-4.2248,0-7.002,2.11013-7.002,5.33659,0,2.77267,1.68357,4.38817,5.12785,4.86465l2.06022.28135c2.18273.31312,2.72275.80775,2.72275,1.76071s-.80775,1.5202-2.72275,1.5202a3.09939,3.09939,0,0,1-3.10394-2.18273l-4.28833.64438c.6943,3.33537,3.231,4.85557,7.26067,4.85557,4.57875,0,7.28336-1.96945,7.28336-5.3139C58.08522,33.2787,56.43342,31.7585,52.6851,31.214Z"/></g></g></g></svg>