<svg xmlns="http://www.w3.org/2000/svg" viewBox="0 0 426.94761 71.80284"><defs><style>.cls-1{fill:#e8b909;}.cls-2{fill:#fff;}.cls-3{fill:#fd0;}.cls-4{fill:#0054a4;}.cls-5{fill:#a30046;}.cls-6{fill:#e31937;}.cls-7{fill:#231f20;}.cls-8{fill:none;stroke:#231f20;stroke-miterlimit:10;stroke-width:1.0007px;}.cls-9{fill:#00be40;}</style></defs><g id="Layer_2" data-name="Layer 2"><g id="ARTE"><g id="ID_joint-logo-flag-black"><path class="cls-1" d="M180.71741,1.1936l.358.23733c3.92543,2.59862,7.08539,3.07414,11.89474,3.07414a16.365,16.365,0,0,0,5.25711-.92l.45632-.15788,2.28035,3.19512-.23457.31339c-8.47149,11.25577-1.86557,23.408,2.81,28.25887l.43248.449-.44105.44044c-.61327.61176-1.675,1.71625-2.46357,2.544l-.267.281.01708.3867.00432.13437c.00425.09839.00731.20035.02745.3775l.00732.07025c.3959,7.50756-1.54974,13.67424-5.78242,18.32721-4.49778,4.94434-11.59236,7.92109-19.97591,8.38167l-.32314.01833-.23946.21868c-2.135,1.94313-4.30167,3.55705-4.32488,3.57475l-.37788.28162-.37782-.28036c-.08976-.06719-2.22961-1.65909-4.33683-3.576l-.23913-.21868-.32347-.01833c-8.38379-.46058-15.47838-3.43733-19.97647-8.38167-4.23362-4.65479-6.17894-10.82147-5.78123-18.329l.00551-.07087c.01951-.16614.0232-.25778.02745-.36224l.00063-.02809.00031-.00306.00394-.116.01683-.38732-.26666-.28036c-.74369-.78128-1.835-1.91749-2.46332-2.544l-.44075-.44044.43224-.449c4.67618-4.85089,11.28079-17.0031,2.81024-28.25887l-.23576-.31339,2.28185-3.19512.45576.15788a16.345,16.345,0,0,0,5.257.92c4.809,0,7.96907-.47552,11.8945-3.07414l.35855-.23733.35279.24433a17.83459,17.83459,0,0,0,10.538,3.52284,17.83482,17.83482,0,0,0,10.53741-3.52284l.353-.24433"/><path class="cls-2" d="M144.03227,28.98765c2.65386-6.08574,3.64225-13.90175-.82131-21.54123a19.90888,19.90888,0,0,0,3.4721.32071c4.56809,0,8.16486-.41541,12.20451-2.69852a20.71218,20.71218,0,0,0,10.93112,3.15453,20.72446,20.72446,0,0,0,10.94638-3.15453c4.04027,2.28311,7.637,2.69852,12.20507,2.69852a18.43358,18.43358,0,0,0,3.48318-.33966c-4.474,7.65781-3.48681,15.47444-.83264,21.56018H144.03227"/><path class="cls-3" d="M195.62068,28.98765c-2.65417-6.08574-3.64137-13.90237.83264-21.56018a18.43358,18.43358,0,0,1-3.48318.33966c-4.568,0-8.1648-.41541-12.20507-2.69852a20.72446,20.72446,0,0,1-10.94638,3.15453c-.04035,0-.07976-.00213-.12035-.00244V28.98765Z"/><path class="cls-4" d="M189.93966,58.39861c5.08358-3.71587,8.086-9.64917,7.645-18.30513-.05135-.49235-.088-.52106-.1271-1.01648h-7.51788Z"/><path class="cls-5" d="M181.894,62.12368a24.26064,24.26064,0,0,0,8.04689-3.72626V39.077H181.894Z"/><path class="cls-5" d="M149.712,58.39742a24.26932,24.26932,0,0,0,8.04789,3.72626V39.077H149.712Z"/><path class="cls-4" d="M142.06893,40.09348c-.441,8.656,2.56134,14.58988,7.6453,18.30576V39.077h-7.51888C142.15626,39.57242,142.12023,39.60113,142.06893,40.09348Z"/><path class="cls-5" d="M169.84646,43.3494a7.53646,7.53646,0,0,1,4.00424,1.1521V39.077h-8.04751v5.44889A7.53636,7.53636,0,0,1,169.84646,43.3494Z"/><path class="cls-5" d="M169.84646,58.51227a7.531,7.531,0,0,1-4.04327-1.17655v6.00117c.14231.00731.2828.01707.42542.02439,2.67318.01345,5.09678.02815,7.1963,0,.14293-.00732.28348-.01708.42579-.02439V57.36018A7.53707,7.53707,0,0,1,169.84646,58.51227Z"/><path class="cls-4" d="M173.84889,39.077v5.42324a7.56667,7.56667,0,0,1,0,12.86056v5.97609a38.46811,38.46811,0,0,0,8.04751-1.21321V39.077Z"/><path class="cls-4" d="M162.266,50.9314a7.571,7.571,0,0,1,3.53935-6.40732V39.077h-8.04783V62.12368a38.46686,38.46686,0,0,0,8.04783,1.21321V57.337A7.56879,7.56879,0,0,1,162.266,50.9314Z"/><path class="cls-6" d="M145.845,14.26915a22.46917,22.46917,0,0,1,.21105,7.67733h7.81663v7.04117H161.55V21.94648h8.18012V14.26915H161.55v-7.809a23.64591,23.64591,0,0,1-2.66242-1.39154,19.42514,19.42514,0,0,1-5.01491,2.00669v7.19385Z"/><path class="cls-6" d="M186.2525,28.98765V7.18282a18.74824,18.74824,0,0,1-2.7587-.82438V28.98765Z"/><path class="cls-6" d="M175.2166,28.98765V7.495a19.8354,19.8354,0,0,1-2.75869.55559v20.9371Z"/><path class="cls-6" d="M191.77045,28.98765V7.7543c-.95362-.01807-1.86988-.06236-2.7587-.14662v21.38Z"/><path class="cls-6" d="M180.73455,28.98765V5.086a23.47959,23.47959,0,0,1-2.7587,1.42976V28.98765Z"/><path class="cls-7" d="M205.2479,35.63905l-1.05251-1.09286c-4.49046-4.65872-10.84036-16.31377-2.73912-27.08088l.63591-.846L199.0293,2.32768,197.931,2.707a15.4153,15.4153,0,0,1-4.96086.87017c-4.62726,0-7.65962-.45144-11.392-2.923l-.87292-.57848-.8601.59737A16.96916,16.96916,0,0,1,169.827,4.03318,16.96945,16.96945,0,0,1,159.80815.6731l-.85978-.59737-.87324.57848c-3.73207,2.47152-6.76443,2.923-11.39207,2.923a15.40892,15.40892,0,0,1-4.96047-.87017l-1.09837-.37932-3.06408,4.291.63623.84665c8.10187,10.76711,1.75166,22.42216-2.73793,27.08088l-1.05282,1.09286,1.0739,1.07146c.577.57605,1.60078,1.63832,2.44681,2.52894-.00244.0501-.00332.09408-.00519.138-.00332.09227-.0055.16983-.02321.3189l-.00857.1002c-.41385,7.76528,1.61085,14.15984,6.01612,19.00335,4.67,5.13437,11.969,8.20458,20.60018,8.6786,2.13836,1.94745,4.30937,3.56193,4.40683,3.63462l.9224.6842.92052-.68664c.09652-.07206,2.256-1.686,4.39214-3.63218,8.63156-.474,15.93013-3.54423,20.59961-8.6786,4.40614-4.84351,6.43-11.23682,6.017-19.00335l-.00914-.1002a2.99782,2.99782,0,0,1-.02263-.32071c-.00182-.04216-.00364-.08614-.00552-.13624.84672-.89062,1.87114-1.95352,2.44719-2.52894ZM200.135,38.67322c.07882.78.033.74951.08677,1.20583.92177,17.30823-11.13605,25.481-25.70823,26.08454-2.22725,2.08063-4.68081,3.90954-4.68081,3.90954s-2.46544-1.82891-4.69294-3.90954c-14.57219-.6035-26.63032-8.77631-25.70854-26.08454.054-.45632.00825-.4258.08732-1.20583-.83533-.8833-2.21805-2.32651-2.94829-3.05494,5.22683-5.42356,11.32539-17.8318,2.86034-29.08144l1.78769-2.3708a16.92766,16.92766,0,0,0,5.46478.95543c4.85427,0,8.16911-.48141,12.24479-3.18017A18.5905,18.5905,0,0,0,169.827,5.57779,18.59125,18.59125,0,0,0,180.726,1.9413c4.075,2.69876,7.389,3.18017,12.24415,3.18017a16.933,16.933,0,0,0,5.46478-.95543l1.78745,2.3708c-8.46537,11.24964-2.3665,23.65788,2.86127,29.08144C202.353,36.34671,200.97,37.78992,200.135,38.67322Z"/><path class="cls-7" d="M141.96478,39.05867c-.02076.26447-.04122.391-.06292.53264-.01927.121-.03941.25233-.06412.49053-.33935,6.656,1.32342,12.04262,4.941,16.0114,4.14961,4.551,10.87213,7.14344,19.449,7.499l.32621.00119c1.42727.00857,2.78122.0147,4.0506.0147.99514,0,1.93832-.00369,2.82956-.01651,8.56858-.35492,15.29054-2.94741,19.44015-7.49836,3.61816-3.9694,5.28094-9.35543,4.94009-16.023-.02321-.22663-.044-.358-.06293-.479-.022-.14168-.04216-.26817-.06293-.53264l-.01714-.2138H141.98123Zm.33441,1.05864c.02265-.21505.04185-.33966.05992-.45513.01646-.10628.032-.20524.04761-.353h54.83951c.01583.14907.03172.24677.04761.3543.01833.11422.0379.23883.05987.44225.33233,6.52711-1.28953,11.80066-4.82093,15.67479-4.06529,4.45812-10.67548,6.99932-19.1115,7.34868-2.01219.02752-4.32251.01589-6.8649.0025l-.31795-.0025c-8.44247-.34936-15.05327-2.89056-19.11763-7.348C143.58934,51.90759,141.96754,46.63279,142.29919,40.11731Z"/><path class="cls-7" d="M143.82028,28.89451l-.14143.32371h52.295l-.14113-.32371c-2.27122-5.20951-3.97428-13.14311.821-21.35038l.25654-.43981-.5003.09652a18.26792,18.26792,0,0,1-3.43977.33416c-4.66761,0-8.14159-.43681-12.09022-2.66831l-.11854-.06687-.116.07056a20.43949,20.43949,0,0,1-10.826,3.12062,20.41952,20.41952,0,0,1-10.812-3.12062l-.11578-.07056-.11785.06687C154.825,7.09819,151.35011,7.535,146.68306,7.535a19.75559,19.75559,0,0,1-3.43151-.31615l-.49266-.08763.25259.43186C147.79668,15.75446,146.09238,23.685,143.82028,28.89451Zm26.14041-20.4408A20.86923,20.86923,0,0,0,180.77,5.33615C184.75768,7.56,188.27138,7.998,192.97014,7.998a18.66652,18.66652,0,0,0,3.03724-.25534c-4.49233,8.0512-2.94191,15.79577-.73792,21.01316H169.96069ZM143.65383,7.7543a19.77279,19.77279,0,0,0,3.02923.24371c4.6982,0,8.21221-.438,12.2005-2.66186a20.86161,20.86161,0,0,0,10.61411,3.11512V28.75583H144.3835C146.58811,23.53782,148.14154,15.79356,143.65383,7.7543Z"/><polygon class="cls-7" points="163.227 31.996 163.227 30.469 158.05 30.469 158.05 37.641 159.607 37.641 159.607 34.683 161.723 34.683 161.723 33.167 159.607 33.167 159.607 31.996 163.227 31.996"/><path class="cls-7" d="M169.28906,31.90485a1.26345,1.26345,0,0,1,1.21595.72079l.033.06506,1.441-.664-.03359-.06993a2.7442,2.7442,0,0,0-2.63652-1.59866c-1.88115,0-3.19481,1.52047-3.19481,3.69667,0,2.24551,1.23428,3.696,3.14414,3.696a2.74833,2.74833,0,0,0,2.66643-1.62736l.03115-.06293-1.3091-.77578-.0391.06474a1.3927,1.3927,0,0,1-1.30847.85585c-.95018,0-1.58853-.865-1.58853-2.15056C167.7106,32.72917,168.31568,31.90485,169.28906,31.90485Z"/><path class="cls-7" d="M181.30872,32.4002c0-1.20889-.86129-1.9315-2.3023-1.9315h-3.29566v7.17278h3.2645a2.26591,2.26591,0,0,0,2.57416-2.34272,1.68387,1.68387,0,0,0-.90589-1.54455A1.6335,1.6335,0,0,0,181.30872,32.4002Zm-4.0708-.48559h1.708c.6964,0,.7856.31914.7856.59587,0,.39433-.234.58556-.71535.58556h-1.77825Zm1.78863,4.24h-1.78863V34.49215h1.78863c.631,0,.92609.26328.92609.82769C179.95264,35.86568,179.63194,36.15461,179.02655,36.15461Z"/><path class="cls-7" d="M169.7973,58.63687a7.747,7.747,0,1,0-7.7467-7.747A7.75587,7.75587,0,0,0,169.7973,58.63687Zm0-.46545a7.25405,7.25405,0,0,1-4.06317-1.23948,11.533,11.533,0,0,0,4.84908-1.21865c1.229-.73243,2.53381-1.64632,2.77207-2.86741a1.92966,1.92966,0,0,1,2.81856,1.56138A7.28165,7.28165,0,0,1,169.7973,58.17142Zm-3.59065-5.61384a3.02354,3.02354,0,0,0,1.29747.46057,2.49277,2.49277,0,0,0,2.50579-2.01463,1.745,1.745,0,0,1,2.78584.68051c.63773,1.52528-.70559,2.62671-2.43492,3.65908a11.54529,11.54529,0,0,1-5.19111,1.168,7.31307,7.31307,0,0,1-1.9218-2.438c.05836.00307.11666.00488.17621.00488A3.11958,3.11958,0,0,0,166.20665,52.55758Zm-1.15884-3.6774a16.38541,16.38541,0,0,1,.70283-4.04271,7.21109,7.21109,0,0,1,3.41075-1.19976,2.01756,2.01756,0,0,0,.19973,2.95048,2.1449,2.1449,0,0,0-.544.59556,2.80115,2.80115,0,0,0,.75751,3.81427,2.08115,2.08115,0,0,1-2.01526,1.59008C165.87187,52.37186,165.07471,50.80561,165.04781,48.88018Zm8.34476,3.48192a2.47267,2.47267,0,0,0-.19736-.84671,2.173,2.173,0,0,0-3.39854-.89181,2.3656,2.3656,0,0,1-.613-3.20826c.846-1.3415,2.77026-.807,4.5283.17527a7.51343,7.51343,0,0,1,3.3353,3.96884,7.21762,7.21762,0,0,1-.56566,2.221A2.35508,2.35508,0,0,0,173.39257,52.3621Zm.53082-5.14964c-1.27182-.70978-2.94072-1.35977-4.14473-.85885a1.60572,1.60572,0,0,1,.08156-2.744,7.27964,7.27964,0,0,1,7.20424,6.83981A8.45972,8.45972,0,0,0,173.92339,47.21246Zm-8.717-1.97366c-.13562.5357-.26635,1.00366-.37113,1.48012-.37444,1.71588-.37019,4.29924,1.02536,5.57106a2.684,2.684,0,0,1-2.43648,1.35432,2.85675,2.85675,0,0,1-.37838-.02508,7.288,7.288,0,0,1,2.16063-8.38042Z"/><line class="cls-8" x1="103.10914" y1="0.04238" x2="103.10903" y2="71.80284"/><path d="M235.73912,20.66115h4.34131c2.61816,0,3.96191,1.292,3.96191,3.70362a3.95921,3.95921,0,0,1-2.56689,3.72119h-3.39356v4.28955h-2.34277Zm4.96142,5.30591a1.71805,1.71805,0,0,0,.999-1.68823,1.41636,1.41636,0,0,0-1.602-1.49878h-2.01563v3.187Z"/><path d="M244.98912,31.06618l2.87695-10.405h3.79l2.87695,10.405v1.30933H252.4315l-.63769-2.46338a10.56611,10.56611,0,0,1-2.08448.20654,11.29322,11.29322,0,0,1-2.03271-.18945l-.63721,2.44629h-2.05029Zm3.20459-3.10083a8.69217,8.69217,0,0,0,1.51562.1377,7.9187,7.9187,0,0,0,1.56787-.155l-.689-2.60132c-.27588-1.0852-.62012-2.60107-.62012-2.60107h-.46533s-.34473,1.51587-.63721,2.60107Z"/><path d="M256.307,20.66115h4.42724c2.54981,0,3.94483,1.20582,3.94483,3.47974a3.78119,3.78119,0,0,1-2.41162,3.51441,19.03424,19.03424,0,0,0,2.36035,3.30761v1.4126h-1.792a26.01028,26.01028,0,0,1-2.96289-4.479h-1.22315v4.479H256.307Zm4.94385,5.11646a1.53249,1.53249,0,0,0,1.08545-1.53345,1.36425,1.36425,0,0,0-1.51612-1.46411h-2.17041v2.99756Z"/><path d="M270.70787,22.78005v9.59546h-2.34278V22.78005h-2.791v-2.1189h8.02832l-.34473,2.1189Z"/><path d="M274.97984,20.66115h2.15332l3.3418,5.49537c.27588.448.93066,1.77441.93066,1.77441h.03418s-.08594-1.25757-.08594-2.41187V20.66115h2.27393V32.37551h-2.27393V31.428l-2.9458-4.8064c-.37939-.67187-1.15429-2.01562-1.15429-2.01562H277.202s.05176,1.06811.05176,2.22241v5.54712h-2.27393Z"/><path d="M286.03892,20.66115h7.42481l-.34473,2.1189h-4.7373v2.68726h4.28955v2.11914H288.3817v2.67016h4.90966v2.1189h-7.25244Z"/><path d="M295.35826,20.66115h4.42724c2.54981,0,3.94483,1.20582,3.94483,3.47974a3.78119,3.78119,0,0,1-2.41162,3.51441,19.03424,19.03424,0,0,0,2.36035,3.30761v1.4126h-1.792a26.01028,26.01028,0,0,1-2.96289-4.479H297.701v4.479h-2.34277Zm4.94385,5.11646a1.53249,1.53249,0,0,0,1.08545-1.53345,1.36425,1.36425,0,0,0-1.51612-1.46411H297.701v2.99756Z"/><path d="M313.20445,22.78005v9.59546h-2.34277V22.78005h-2.79053v-2.1189H316.099l-.34473,2.1189Z"/><path d="M317.47642,20.66115h4.42725c2.5498,0,3.94482,1.20582,3.94482,3.47974a3.78119,3.78119,0,0,1-2.41162,3.51441,19.03484,19.03484,0,0,0,2.36035,3.30761v1.4126h-1.792a26.01094,26.01094,0,0,1-2.96289-4.479H319.8192v4.479h-2.34278Zm4.94385,5.11646a1.53249,1.53249,0,0,0,1.08545-1.53345,1.36424,1.36424,0,0,0-1.51611-1.46411H319.8192v2.99756Z"/><path d="M327.03648,31.06618l2.877-10.405h3.79l2.877,10.405v1.30933h-2.10157l-.63769-2.46338a10.56609,10.56609,0,0,1-2.08447.20654,11.29333,11.29333,0,0,1-2.03272-.18945l-.63721,2.44629h-2.05029Zm3.20459-3.10083a8.6922,8.6922,0,0,0,1.51563.1377,7.92234,7.92234,0,0,0,1.56787-.155l-.689-2.60132c-.27588-1.0852-.62012-2.60107-.62012-2.60107h-.46533s-.34472,1.51587-.6372,2.60107Z"/><path d="M338.35435,20.66115h4.186c2.8081,0,4.34131,1.36084,4.34131,4.4961v2.72192c0,3.1355-1.53321,4.49634-4.34131,4.49634h-4.186Zm2.34278,2.10157v7.511h1.70556c1.48145,0,2.13623-.55127,2.13623-2.18774V24.95071c0-1.63672-.65478-2.188-2.13623-2.188Z"/><path d="M349.6024,30.53225V22.50442l-1.17139-.20679V20.66115h4.686v1.63648l-1.17139.20679v8.02783l1.17139.20679v1.63647h-4.686V30.739Z"/><path d="M355.01158,20.66115h2.15332l3.3418,5.49537c.27587.448.93066,1.77441.93066,1.77441h.03418s-.08594-1.25757-.08594-2.41187V20.66115h2.27393V32.37551H361.3856V31.428l-2.9458-4.8064c-.37939-.67187-1.1543-2.01562-1.1543-2.01562h-.05175s.05175,1.06811.05175,2.22241v5.54712h-2.27392Z"/><path d="M365.72593,25.03664c0-3.13525,1.70557-4.49609,4.58252-4.49609a4.71329,4.71329,0,0,1,3.56592,1.34351V23.6758h-1.91211a1.63024,1.63024,0,0,0-1.72265-1.05078c-1.53321,0-2.1709.75781-2.1709,2.36011v3.29028c0,1.63672.68945,2.32569,2.15332,2.32569a2.2788,2.2788,0,0,0,1.67138-.603V27.51736h-1.792v-2.05h3.94531v6.9082h-1.68847l-.29248-.79248H372.014a3.38724,3.38724,0,0,1-2.49805.93018c-2.498,0-3.79-1.4126-3.79-4.37549Z"/><path d="M379.85142,20.66115h4.42725c2.5498,0,3.94482,1.20582,3.94482,3.47974a3.78119,3.78119,0,0,1-2.41162,3.51441,19.03484,19.03484,0,0,0,2.36035,3.30761v1.4126h-1.792a26.01094,26.01094,0,0,1-2.96289-4.479H382.1942v4.479h-2.34278Zm4.94385,5.11646a1.53249,1.53249,0,0,0,1.08545-1.53345,1.36424,1.36424,0,0,0-1.51611-1.46411H382.1942v2.99756Z"/><path d="M390.04918,20.66115h7.4248l-.34473,2.1189H392.392v2.68726h4.28955v2.11914H392.392v2.67016h4.90967v2.1189h-7.25244Z"/><path d="M398.85142,29.77419h1.82617s.34473.7063,1.79151.7063c1.39551,0,1.9126-.51685,1.9126-1.30933,0-.60278-.34473-1.10253-1.36133-1.46411l-1.05078-.37915c-2.188-.79248-2.99756-1.70532-2.99756-3.46264,0-2.1189,1.499-3.30762,4.13476-3.30762a7.64886,7.64886,0,0,1,3.32471.74072v1.9812h-1.84326s-.20654-.72363-1.602-.72363c-1.189,0-1.70557.55127-1.70557,1.25757,0,.68921.37891.94751,1.42969,1.32666l1.05078.3789c2.46387.89576,2.92871,1.92945,2.92871,3.48,0,2.20507-1.24023,3.47973-4.28955,3.47973a9.14991,9.14991,0,0,1-3.54883-.72339Z"/><path d="M408.619,20.66115h3.84131l1.37842,6.32227c.2583,1.20581.603,3.42822.603,3.42822h.103s.34473-2.22241.603-3.42822l1.37842-6.32227H420.368V32.37551h-2.25683V26.55276c0-1.01636.06885-3.96241.06885-3.96241h-.18946s-.49951,2.32569-.7583,3.46289l-1.44678,6.32227H413.201l-1.44678-6.32227c-.2583-1.1372-.7583-3.46289-.7583-3.46289h-.17187s.05176,2.946.05176,3.96241v5.82275H408.619Z"/><path d="M423.433,30.53225V22.50442l-1.17139-.20679V20.66115h4.686v1.63648l-1.17138.20679v8.02783l1.17138.20679v1.63647h-4.686V30.739Z"/><path d="M235.73912,37.89114h7.25244L242.64683,40.01h-4.56494v2.68726h4.11719v2.11914h-4.11719v4.78906h-2.34277Z"/><path d="M244.12779,42.26662c0-3.10083,1.5332-4.49609,4.34131-4.49609a4.66624,4.66624,0,0,1,3.51416,1.30908v1.82617h-1.91211s-.1377-1.05078-1.585-1.05078c-1.53321,0-2.01563.75781-2.01563,2.36011v3.06641c0,1.602.48242,2.3601,2.01563,2.3601,1.44726,0,1.585-1.05078,1.585-1.05078h1.91211v1.82593a4.66584,4.66584,0,0,1-3.51416,1.30933c-2.80811,0-4.34131-1.39551-4.34131-4.49634Z"/><path d="M257.25425,37.89114h4.2378c2.8081,0,3.79,1.27465,3.79,3.2041a2.95433,2.95433,0,0,1-1.36084,2.584v.03467a3.00205,3.00205,0,0,1,1.5332,2.53223c0,2.1018-1.1543,3.35937-3.80762,3.35937h-4.39258Zm2.27393,2.01538V42.6802h2.54932a1.54977,1.54977,0,0,0,.91308-1.42993,1.25863,1.25863,0,0,0-1.4126-1.34375Zm0,4.75488v2.92847h2.188a1.34379,1.34379,0,0,0,1.44678-1.46436,1.62693,1.62693,0,0,0-1.0337-1.46411Z"/><path d="M266.71129,48.29616l2.87695-10.405h3.79l2.87695,10.405v1.30933h-2.10156l-.6377-2.46338a10.566,10.566,0,0,1-2.08447.20654,11.29322,11.29322,0,0,1-2.03271-.18945l-.63721,2.44629h-2.05029Zm3.20459-3.10083a8.69217,8.69217,0,0,0,1.51562.1377,7.92234,7.92234,0,0,0,1.56787-.155l-.689-2.60132c-.27588-1.0852-.62012-2.60107-.62012-2.60107H271.225s-.34473,1.51587-.63721,2.60107Z"/><path d="M278.02916,37.89114h4.42724c2.54981,0,3.94483,1.20581,3.94483,3.47973a3.78119,3.78119,0,0,1-2.41162,3.51441A19.03424,19.03424,0,0,0,286.35,48.19289v1.4126h-1.792a26.0106,26.0106,0,0,1-2.9629-4.479h-1.22314v4.479h-2.34277Zm4.94384,5.11645a1.53248,1.53248,0,0,0,1.08545-1.53345A1.36424,1.36424,0,0,0,282.54234,40.01h-2.17041v2.99756Z"/><path d="M287.88218,42.26662c0-3.10083,1.53321-4.49609,4.34131-4.49609a4.66624,4.66624,0,0,1,3.51416,1.30908v1.82617h-1.91211s-.13769-1.05078-1.585-1.05078c-1.5332,0-2.01562.75781-2.01562,2.36011v3.06641c0,1.602.48242,2.3601,2.01562,2.3601,1.44727,0,1.585-1.05078,1.585-1.05078h1.91211v1.82593a4.66584,4.66584,0,0,1-3.51416,1.30933c-2.8081,0-4.34131-1.39551-4.34131-4.49634Z"/><path d="M297.56334,37.89114h7.4248L304.64341,40.01h-4.7373v2.68726h4.28955v2.11914h-4.28955v2.67016h4.90967v2.1189h-7.25244Z"/><path d="M306.88267,37.89114h2.34278v9.59545h4.7373l-.34424,2.1189h-6.73584Z"/><path d="M314.96177,42.42165c0-3.04907,1.585-4.70288,4.54786-4.70288,2.9458,0,4.54834,1.65381,4.54834,4.70288v2.65308c0,3.032-1.585,4.70312-4.54834,4.70312-2.94581,0-4.54786-1.6538-4.54786-4.70312Zm4.54786,5.27173c1.55078,0,2.20507-.72363,2.20507-2.44629V42.24953c0-1.72265-.65429-2.44629-2.20507-2.44629-1.5503,0-2.20508.72364-2.20508,2.44629v2.99756C317.30455,46.96975,317.95933,47.69338,319.50963,47.69338Z"/><path d="M326.12437,37.89114h2.15332l3.3418,5.49536c.27588.448.93066,1.77441.93066,1.77441h.03418s-.08594-1.25757-.08594-2.41186V37.89114h2.27393V49.60549h-2.27393V48.658l-2.9458-4.8064c-.37939-.67187-1.15429-2.01562-1.15429-2.01562h-.05176s.05176,1.06811.05176,2.22241v5.54712h-2.27393Z"/><path d="M336.54576,48.29616l2.877-10.405h3.79l2.87695,10.405v1.30933h-2.10156l-.63769-2.46338a10.56611,10.56611,0,0,1-2.08448.20654,11.29322,11.29322,0,0,1-2.03271-.18945l-.63721,2.44629h-2.05029Zm3.20459-3.10083a8.69217,8.69217,0,0,0,1.51562.1377,7.9187,7.9187,0,0,0,1.56787-.155l-.689-2.60132c-.27588-1.0852-.62012-2.60107-.62012-2.60107h-.46533s-.34473,1.51587-.63721,2.60107Z"/><rect class="cls-9" width="71.7218" height="71.7218" rx="6.96571"/><rect class="cls-2" x="14.24453" y="45.3928" width="43.36435" height="3.44882"/><path class="cls-2" d="M26.07942,28.19863V24.69081H14.24453V41.06362h4.32463V35.24148h6.68889V31.72913H18.56916v-3.5305Z"/><path class="cls-2" d="M39.0261,32.57318a3.962,3.962,0,0,0,2.64107-3.63034c0-2.6456-1.96038-4.23387-5.264-4.23387h-8.377V41.06362h8.46776c3.60311,0,5.75408-1.70625,5.75408-4.606A4.02087,4.02087,0,0,0,39.0261,32.57318Zm-6.766-4.56061h3.34445c1.21616,0,1.86962.55816,1.86962,1.59281s-.65346,1.58827-1.86962,1.58827H32.26006Zm3.63034,9.7293H32.26006V34.48818h3.67118c1.21616,0,1.89685.58085,1.89685,1.68357,0,1.03918-.68069,1.57012-1.94223,1.57012Z"/><path class="cls-2" d="M52.68523,31.12105l-1.96945-.2632c-1.94223-.28136-2.514-.75784-2.514-1.66088s.75783-1.52021,2.44594-1.52021A2.3718,2.3718,0,0,1,53.34323,29.678l4.1159-.53093c-.60355-3.22192-2.91789-4.7875-6.69343-4.7875-4.22481,0-7.002,2.11013-7.002,5.33659,0,2.77267,1.68356,4.38816,5.12785,4.86465l2.06021.28135c2.18274.31312,2.72275.80775,2.72275,1.76071s-.80775,1.5202-2.72275,1.5202a3.0994,3.0994,0,0,1-3.10394-2.18274l-4.28833.64439c.6943,3.33537,3.231,4.85557,7.26067,4.85557,4.57876,0,7.28336-1.96946,7.28336-5.3139C58.08536,33.1858,56.43356,31.66559,52.68523,31.12105Z"/></g></g></g></svg>