<svg width="245" height="171" viewBox="0 0 245 171" fill="none" xmlns="http://www.w3.org/2000/svg">
<g clip-path="url(#clip0)">
<path d="M241.406 57H200.512V170.89H241.406V57Z" fill="#80C342"/>
<path d="M43.8939 148.177H3.00024V170.89H43.8939V148.177Z" fill="#80C342"/>
<path d="M93.272 132.573H52.3784V170.89H93.272V132.573Z" fill="#80C342"/>
<path d="M142.65 123.787H101.756V170.89H142.65V123.787Z" fill="#80C342"/>
<path d="M192.028 94.2552H151.135V170.89H192.028V94.2552Z" fill="#80C342"/>
<path d="M4 171.162C5.6487 163.542 7.33994 148.544 10.9835 141.713C14.6271 134.882 20.5586 128.96 27.9099 127.333C34.7879 125.81 42.0297 128.156 48.9357 126.776C59.0689 124.753 66.221 115.242 70.6584 105.562C75.0957 95.8824 77.89 85.2401 84.1103 76.6853C94.1401 62.8915 114.022 56.9685 128.549 65.396C139.568 71.7883 147.174 85.2735 159.711 86.7732C171.338 88.1641 177.492 78.3219 189.196 78.3237C199.143 78.3253 207.987 85.6504 213.063 94.5393C218.139 103.428 220.179 113.772 222.383 123.851C224.586 133.93 227.155 144.239 233.05 152.564C237.344 158.629 243.457 163.806 245 171.162H4Z" fill="#A6AFB7" fill-opacity="0.22"/>
<path d="M154.594 171.162H115.192C113.758 171.162 112.595 170 112.595 168.565V166.756C112.595 165.322 113.758 164.16 115.192 164.16H154.594C156.028 164.16 157.19 165.322 157.19 166.756V168.565C157.19 170 156.028 171.162 154.594 171.162Z" fill="#FFCE55"/>
<path d="M154.594 164.159H115.192C113.758 164.159 112.595 162.997 112.595 161.563V159.753C112.595 158.319 113.758 157.157 115.192 157.157H154.594C156.028 157.157 157.19 158.319 157.19 159.753V161.563C157.19 162.997 156.028 164.159 154.594 164.159Z" fill="#FFD96E"/>
<path d="M154.594 157.306H115.192C113.758 157.306 112.595 156.143 112.595 154.709V152.9C112.595 151.466 113.758 150.303 115.192 150.303H154.594C156.028 150.303 157.19 151.466 157.19 152.9V154.709C157.19 156.143 156.028 157.306 154.594 157.306Z" fill="#FFCE55"/>
<path d="M154.594 150.304H115.192C113.758 150.304 112.595 149.141 112.595 147.707V145.898C112.595 144.464 113.758 143.301 115.192 143.301H154.594C156.028 143.301 157.19 144.464 157.19 145.898V147.707C157.19 149.141 156.028 150.304 154.594 150.304Z" fill="#FFD96E"/>
<path d="M154.594 144.003H115.192C113.758 144.003 112.595 142.84 112.595 141.406V139.597C112.595 138.163 113.758 137 115.192 137H154.594C156.028 137 157.191 138.163 157.191 139.597V141.406C157.191 142.84 156.028 144.003 154.594 144.003Z" fill="#FFCE55"/>
<path d="M99.9985 170.858H60.5967C59.1626 170.858 58 169.696 58 168.262V166.453C58 165.018 59.1626 163.856 60.5967 163.856H99.9985C101.433 163.856 102.595 165.018 102.595 166.453V168.262C102.595 169.696 101.433 170.858 99.9985 170.858Z" fill="#FFD96E"/>
<path d="M99.9985 164.005H60.5967C59.1626 164.005 58 162.843 58 161.408V159.599C58 158.165 59.1626 157.003 60.5967 157.003H99.9985C101.433 157.003 102.595 158.165 102.595 159.599V161.408C102.595 162.843 101.433 164.005 99.9985 164.005Z" fill="#FFCE55"/>
<path d="M99.9985 157.003H60.5967C59.1626 157.003 58 155.84 58 154.406V152.597C58 151.163 59.1626 150 60.5967 150H99.9985C101.433 150 102.595 151.163 102.595 152.597V154.406C102.595 155.84 101.433 157.003 99.9985 157.003Z" fill="#FFD96E"/>
<path d="M228.45 171.162H183.934C182.314 171.162 181 169.849 181 168.228V166.184C181 164.564 182.314 163.251 183.934 163.251H228.45C230.07 163.251 231.384 164.564 231.384 166.184V168.228C231.384 169.849 230.07 171.162 228.45 171.162Z" fill="#FFCE55"/>
<path d="M228.45 163.25H183.934C182.314 163.25 181 161.937 181 160.317V158.273C181 156.652 182.314 155.339 183.934 155.339H228.45C230.07 155.339 231.384 156.652 231.384 158.273V160.317C231.384 161.937 230.07 163.25 228.45 163.25Z" fill="#FFD96E"/>
<path d="M228.45 155.508H183.934C182.314 155.508 181 154.194 181 152.574V150.53C181 148.91 182.314 147.596 183.934 147.596H228.45C230.07 147.596 231.384 148.91 231.384 150.53V152.574C231.384 154.194 230.07 155.508 228.45 155.508Z" fill="#FFCE55"/>
<path d="M228.45 147.596H183.934C182.314 147.596 181 146.283 181 144.662V142.618C181 140.998 182.314 139.685 183.934 139.685H228.45C230.07 139.685 231.384 140.998 231.384 142.618V144.662C231.384 146.283 230.07 147.596 228.45 147.596Z" fill="#FFD96E"/>
<path d="M228.45 140.477H183.934C182.314 140.477 181 139.164 181 137.543V135.5C181 133.879 182.314 132.566 183.934 132.566H228.45C230.07 132.566 231.384 133.879 231.384 135.5V137.543C231.384 139.164 230.07 140.477 228.45 140.477Z" fill="#FFCE55"/>
<path d="M228.45 132.566H183.934C182.314 132.566 181 131.252 181 129.632V127.588C181 125.968 182.314 124.654 183.934 124.654H228.45C230.07 124.654 231.384 125.968 231.384 127.588V129.632C231.384 131.252 230.07 132.566 228.45 132.566Z" fill="#FFD96E"/>
<path d="M228.45 124.823H183.934C182.314 124.823 181 123.509 181 121.889V119.845C181 118.225 182.314 116.911 183.934 116.911H228.45C230.07 116.911 231.384 118.225 231.384 119.845V121.889C231.384 123.509 230.07 124.823 228.45 124.823Z" fill="#FFCE55"/>
<path d="M228.45 116.911H183.934C182.314 116.911 181 115.598 181 113.978V111.934C181 110.313 182.314 109 183.934 109H228.45C230.07 109 231.384 110.313 231.384 111.934V113.978C231.384 115.598 230.07 116.911 228.45 116.911Z" fill="#FFD96E"/>
<path d="M165.686 148.941L175.399 163.907" stroke="#FFAD8C" stroke-width="12.0366" stroke-miterlimit="10" stroke-linecap="round"/>
<path d="M155.535 136.974L164.955 151.49" stroke="#2E2B33" stroke-width="17.1951" stroke-miterlimit="10" stroke-linecap="round"/>
<path d="M123.47 160.037L138.738 124.011C140.148 120.683 144.705 120.284 146.672 123.316L155.536 136.974" stroke="#0E0F2D" stroke-width="17.1951" stroke-miterlimit="10" stroke-linecap="round"/>
<path d="M167.383 162.535C166.719 164.31 166.395 166.137 166.429 167.976L166.486 171.11H195C194.817 168.117 192.019 165.461 187.805 164.337C185.935 163.838 184.341 162.974 183.234 161.858L181.661 160.273C180.991 159.598 180.169 159.112 179.277 158.851V158.851C179.077 160.953 177.31 162.557 175.198 162.552L167.383 162.535Z" fill="#F7FCEF"/>
<path d="M100.657 147.693L121.87 149.49C127.49 149.966 131.809 154.667 131.809 160.306V160.306C131.809 166.302 126.949 171.162 120.954 171.162H102.181L100.657 147.693Z" fill="#0E0F2D"/>
<path d="M58.8985 165.092H42.3069" stroke="#F6921E" stroke-width="12.0366" stroke-miterlimit="10" stroke-linecap="round"/>
<path d="M152.184 106.162L160.12 106.166" stroke="#FFAD8C" stroke-width="12.0366" stroke-miterlimit="10" stroke-linecap="round"/>
<path d="M161.176 111.936C161.938 112.818 162.977 113.463 164.17 113.739C166.163 114.202 168.16 114.268 170.105 113.924H170.105C171.907 113.606 173.245 112.075 173.319 110.247L174.209 90.5082C174.318 88.098 172.645 85.9718 170.277 85.5108C168.731 85.2099 167.117 85.6564 165.994 86.7597C164.504 88.2224 163.475 90.5536 163.18 93.3758C162.979 95.3004 162.373 97.0099 161.443 98.2774L160.123 100.078V100.078C162.168 101.824 163.044 104.579 162.383 107.185L161.176 111.936Z" fill="#F7FCEF"/>
<path d="M130.866 108.404L151.728 108.625" stroke="#2E2B33" stroke-width="17.1951" stroke-miterlimit="10"/>
<path d="M108.31 162.1L108.51 118.187C108.535 112.663 113.05 108.216 118.573 108.274L130.866 108.404" stroke="#0E0F2D" stroke-width="17.1951" stroke-miterlimit="10"/>
<path d="M108.442 171.162H51.0627C45.8404 171.162 41.6069 166.928 41.6069 161.706V161.706C41.6069 157.677 44.1597 154.091 47.9665 152.771L55.2237 150.256C65.0283 146.859 75.4366 145.556 85.7761 146.432L100.656 147.693C108.445 148.353 114.43 154.869 114.426 162.685L114.425 165.182C114.423 168.485 111.745 171.162 108.442 171.162Z" fill="#F04923"/>
<path d="M40.2053 147.326L38.7809 149.595C37.8099 151.143 35.9805 151.612 34.422 150.714L31.735 149.165C30.3238 148.351 29.8308 146.299 30.7101 144.898L33.9552 139.727C34.8247 138.341 36.6119 138.263 37.6999 139.567C38.3678 140.368 39.1082 141.256 39.7797 142.061C41.0108 143.537 41.1894 145.758 40.2053 147.326Z" stroke="#0E0F2D" stroke-width="2.18681" stroke-linecap="round"/>
<path d="M47.953 134.981L46.5288 137.25C45.5577 138.798 43.7283 139.267 42.1698 138.369L39.4827 136.819C38.0714 136.006 37.5786 133.954 38.4578 132.553L41.703 127.382C42.5726 125.996 44.3598 125.918 45.4476 127.222C46.1156 128.023 46.8559 128.911 47.5275 129.716C48.7587 131.192 48.9372 133.413 47.953 134.981Z" stroke="#0E0F2D" stroke-width="2.18681" stroke-linecap="round"/>
<path d="M40.0014 137.119C39.2902 136.743 38.4512 136.955 37.9963 137.68C37.5429 138.402 37.6177 139.4 38.1295 140.085" stroke="#0E0F2D" stroke-width="2.18681" stroke-linecap="round"/>
<path d="M65.2519 160.578C63.9084 164.408 59.9849 166.711 55.9911 165.989C55.6668 165.93 55.3421 165.875 55.017 165.824C50.5277 165.117 45.9488 165.111 41.4067 165.807C38.4334 166.263 35.653 164.224 35.1977 161.249C34.7419 158.276 36.7828 155.496 39.7562 155.04C45.3902 154.176 51.0758 154.182 56.6571 155.055L56.6573 155.054C56.6751 155.057 56.6929 155.061 56.7107 155.063C56.7254 155.066 56.7402 155.068 56.7549 155.07C56.765 155.072 56.7747 155.074 56.7848 155.076C58.9527 155.421 61.108 155.897 63.2244 156.5C64.9284 156.986 65.8746 158.803 65.2881 160.475L65.2519 160.578Z" fill="#FFB096"/>
<path d="M59.2763 154.889C55.4941 163.856 45.1453 168.054 36.1613 164.265L16.2617 155.872L26.9972 130.419C28.4023 127.087 32.242 125.525 35.5735 126.931C37.5567 127.767 39.1529 129.318 40.0443 131.276L44.75 133.26L55.6664 137.865C60.7256 139.998 63.1004 145.822 60.9704 150.872L59.2763 154.889Z" fill="#FFB096"/>
<path d="M47.6418 165.399L46.8023 158.976C46.4472 156.094 45.3225 153.396 43.5943 151.129C42.2368 152.004 40.4764 152.203 38.8786 151.49C36.3946 150.383 35.3216 147.427 36.3785 144.921L36.7015 144.155C37.8136 142.369 40.0877 141.603 42.091 142.448L42.5442 142.639C43.3667 142.986 44.349 142.704 44.7961 141.931C45.3365 140.997 44.9235 139.833 43.9599 139.427L40.7371 138.068C39.4584 137.24 38.6753 135.86 38.5778 134.389C38.4831 132.959 37.6269 131.692 36.3065 131.136C35.6168 130.688 35.074 130.08 34.7036 129.384C37.8351 124.972 35.6544 119.068 31.1728 116.889C27.4591 115.083 23.1961 117.751 22.8788 121.868C22.868 122.009 22.848 122.149 22.8296 122.289C21.9441 121.886 20.9494 121.66 19.876 121.682C16.9125 121.743 14.301 123.789 13.5359 126.653C13.1922 127.939 13.2385 129.218 13.5933 130.379C14.4167 133.073 14.3142 135.954 13.1869 138.535C13.1302 138.665 13.0745 138.795 13.0193 138.925L10.5959 144.651C6.80999 153.596 11.2013 163.897 20.2765 167.359H20.2765C23.0595 168.421 26.071 168.74 29.0146 168.284L47.6418 165.399Z" fill="#2E2B33"/>
<path d="M35.0757 144.62L45.5236 128.749" stroke="#0E0F2D" stroke-width="2.18681" stroke-linecap="round"/>
<path d="M29.9605 165.092H13.3689" stroke="#F04923" stroke-width="12.0366" stroke-miterlimit="10" stroke-linecap="round"/>
<path d="M29.6126 171.162H42.5607C45.0593 171.162 46.774 168.627 45.8233 166.316C45.5031 165.538 44.9993 164.822 44.3172 164.237C39.954 160.492 33.7059 159.942 28.7723 162.866C26.9885 163.922 26.0234 165.834 26.0861 167.775C26.0865 167.787 26.0869 167.799 26.0874 167.812C26.1606 169.69 27.733 171.162 29.6126 171.162Z" fill="#FFB096"/>
<path d="M79.6897 106.493C79.0437 107.112 78.5395 107.898 78.2509 108.812C77.3371 111.707 78.9377 114.789 81.8271 115.695C82.6572 115.956 83.5076 116.762 83.5353 117.974C83.6049 121.008 86.117 123.402 89.1463 123.324C92.1766 123.246 94.5759 120.722 94.506 117.69C94.3753 111.942 90.609 106.926 85.1369 105.21C83.1592 104.589 81.0915 105.149 79.6897 106.493Z" fill="#F59C7B"/>
<path d="M75.8765 155.314L95.0302 140.67C101.679 135.586 101.437 125.497 94.553 120.737L91.0901 118.343" stroke="#FD6441" stroke-width="12.0366" stroke-miterlimit="10" stroke-linecap="round"/>
<path d="M77.7482 100.331L84.9222 114.262C85.474 115.324 84.8277 116.316 83.5843 116.315L77.1893 116.307C75.9063 116.305 74.5744 115.516 74.005 114.419L66.831 100.488C66.2792 99.4252 66.9254 98.4334 68.1689 98.4349L74.5639 98.4428C75.8469 98.4444 77.1788 99.2341 77.7482 100.331Z" fill="#F7FCEF"/>
<path d="M171 57C185.359 57 197 45.3594 197 31C197 16.6406 185.359 5 171 5C156.641 5 145 16.6406 145 31C145 45.3594 156.641 57 171 57Z" fill="#FFCE55"/>
</g>
<defs>
<clipPath id="clip0">
<rect width="245" height="171" fill="white"/>
</clipPath>
</defs>
</svg>
