<svg width="245" height="171" viewBox="0 0 245 171" fill="none" xmlns="http://www.w3.org/2000/svg">
<g clip-path="url(#clip0)">
<rect x="52.0046" y="65.8154" width="2.31132" height="105.185" fill="#ABD75B"/>
<rect x="173.349" y="129.323" width="2.31132" height="41.6769" fill="#ABD75B"/>
<rect x="235.755" y="85.6616" width="2.31132" height="85.3385" fill="#ABD75B"/>
<rect x="152.547" y="151.154" width="2.31132" height="17.8615" fill="#ABD75B"/>
<rect x="214.953" y="135.277" width="2.31132" height="35.7231" fill="#ABD75B"/>
<rect x="131.745" y="145.2" width="2.31132" height="25.8" fill="#ABD75B"/>
<rect x="194.151" y="117.415" width="2.31132" height="53.5846" fill="#ABD75B"/>
<rect x="162.948" y="119.4" width="2.31132" height="51.6" fill="#ABD75B"/>
<rect x="225.354" y="82.1974" width="2.31132" height="88.8027" fill="#ABD75B"/>
<rect x="142.146" y="149.169" width="2.31132" height="21.8308" fill="#ABD75B"/>
<rect x="204.552" y="127.338" width="2.31132" height="43.6615" fill="#ABD75B"/>
<rect x="121.344" y="137.261" width="2.31132" height="33.7385" fill="#ABD75B"/>
<rect x="183.75" y="101.538" width="2.31132" height="69.4615" fill="#ABD75B"/>
<rect x="169.882" y="133.292" width="2.31132" height="37.7077" fill="#ABD75B"/>
<rect x="232.288" y="93.5999" width="2.31132" height="77.4" fill="#ABD75B"/>
<rect x="242.689" y="85.6616" width="2.31132" height="85.3385" fill="#ABD75B"/>
<rect x="239.222" y="93.5999" width="2.31132" height="77.4" fill="#ABD75B"/>
<rect x="149.08" y="153.139" width="2.31132" height="15.8769" fill="#ABD75B"/>
<rect x="211.486" y="139.246" width="2.31132" height="31.7538" fill="#ABD75B"/>
<rect x="128.278" y="145.2" width="2.31132" height="25.8" fill="#ABD75B"/>
<rect x="190.684" y="117.415" width="2.31132" height="53.5846" fill="#ABD75B"/>
<rect x="159.481" y="123.369" width="2.31132" height="47.6308" fill="#ABD75B"/>
<rect x="221.887" y="88.8994" width="2.31132" height="82.1006" fill="#ABD75B"/>
<rect x="138.679" y="149.169" width="2.31132" height="19.8462" fill="#ABD75B"/>
<rect x="201.085" y="131.308" width="2.31132" height="39.6923" fill="#ABD75B"/>
<rect x="117.877" y="141.231" width="2.31132" height="29.7692" fill="#ABD75B"/>
<rect x="180.283" y="109.477" width="2.31132" height="61.5231" fill="#ABD75B"/>
<rect x="166.415" y="141.231" width="2.31132" height="29.7692" fill="#ABD75B"/>
<rect x="228.821" y="109.477" width="2.31132" height="61.5231" fill="#ABD75B"/>
<rect x="145.613" y="157.108" width="2.31132" height="11.9077" fill="#ABD75B"/>
<rect x="208.019" y="147.185" width="2.31132" height="23.8154" fill="#ABD75B"/>
<rect x="124.811" y="149.169" width="2.31132" height="19.8462" fill="#ABD75B"/>
<rect x="187.217" y="131.308" width="2.31132" height="39.6923" fill="#ABD75B"/>
<rect x="156.014" y="133.292" width="2.31132" height="37.7077" fill="#ABD75B"/>
<rect x="218.42" y="93.5999" width="2.31132" height="77.4" fill="#ABD75B"/>
<rect x="135.212" y="153.139" width="2.31132" height="15.8769" fill="#ABD75B"/>
<rect x="197.618" y="139.246" width="2.31132" height="31.7538" fill="#ABD75B"/>
<rect x="114.41" y="147.185" width="2.31132" height="23.8154" fill="#ABD75B"/>
<rect x="176.816" y="123.369" width="2.31132" height="47.6308" fill="#ABD75B"/>
<rect x="72.8066" y="125.354" width="2.31132" height="45.6462" fill="#ABD75B"/>
<rect x="27.7358" y="125.354" width="2.31132" height="45.6462" fill="#ABD75B"/>
<rect x="3.46704" y="125.354" width="2.31132" height="45.6462" fill="#ABD75B"/>
<rect y="125.354" width="2.31132" height="45.6462" fill="#ABD75B"/>
<rect x="93.6084" y="103.523" width="2.31132" height="67.4769" fill="#ABD75B"/>
<rect x="48.5378" y="103.523" width="2.31132" height="67.4769" fill="#ABD75B"/>
<rect x="24.2688" y="103.523" width="2.31132" height="67.4769" fill="#ABD75B"/>
<rect x="62.4058" y="42" width="2.31132" height="129" fill="#ABD75B"/>
<rect x="83.2075" y="115.431" width="2.31132" height="55.5692" fill="#ABD75B"/>
<rect x="38.1367" y="115.431" width="2.31132" height="55.5692" fill="#ABD75B"/>
<rect x="13.8679" y="115.431" width="2.31132" height="55.5692" fill="#ABD75B"/>
<rect x="104.01" y="87.6461" width="2.31132" height="83.3538" fill="#ABD75B"/>
<rect x="55.4717" y="75.7385" width="2.31132" height="95.2615" fill="#ABD75B"/>
<rect x="76.2737" y="129.323" width="2.31132" height="41.6769" fill="#ABD75B"/>
<rect x="31.2029" y="129.323" width="2.31132" height="41.6769" fill="#ABD75B"/>
<rect x="6.93408" y="129.323" width="2.31132" height="41.6769" fill="#ABD75B"/>
<rect x="97.0754" y="107.492" width="2.31132" height="63.5077" fill="#ABD75B"/>
<rect x="65.8726" y="53.9077" width="2.31132" height="117.092" fill="#ABD75B"/>
<rect x="86.6746" y="121.385" width="2.31132" height="49.6154" fill="#ABD75B"/>
<rect x="41.6038" y="121.385" width="2.31132" height="49.6154" fill="#ABD75B"/>
<rect x="17.335" y="121.385" width="2.31132" height="49.6154" fill="#ABD75B"/>
<rect x="107.476" y="97.5693" width="2.31132" height="73.4308" fill="#ABD75B"/>
<rect x="58.9387" y="95.5847" width="2.31132" height="75.4154" fill="#ABD75B"/>
<rect x="79.7405" y="139.246" width="2.31132" height="31.7538" fill="#ABD75B"/>
<rect x="34.6699" y="139.246" width="2.31132" height="31.7538" fill="#ABD75B"/>
<rect x="10.4009" y="139.246" width="2.31132" height="31.7538" fill="#ABD75B"/>
<rect x="100.542" y="123.369" width="2.31132" height="47.6308" fill="#ABD75B"/>
<rect x="69.3396" y="77.723" width="2.31132" height="93.2769" fill="#ABD75B"/>
<rect x="90.1416" y="131.308" width="2.31132" height="39.6923" fill="#ABD75B"/>
<rect x="45.0708" y="131.308" width="2.31132" height="39.6923" fill="#ABD75B"/>
<rect x="20.802" y="131.308" width="2.31132" height="39.6923" fill="#ABD75B"/>
<rect x="110.943" y="111.462" width="2.31132" height="59.5385" fill="#ABD75B"/>
<rect x="52.0046" y="65.8154" width="2.31132" height="105.185" fill="#ABD75B"/>
<rect x="173.349" y="129.323" width="2.31132" height="41.6769" fill="#ABD75B"/>
<rect x="235.755" y="85.6616" width="2.31132" height="85.3385" fill="#ABD75B"/>
<rect x="214.953" y="135.277" width="2.31132" height="35.7231" fill="#ABD75B"/>
<rect x="131.745" y="145.2" width="2.31132" height="25.8" fill="#ABD75B"/>
<rect x="194.151" y="117.415" width="2.31132" height="53.5846" fill="#ABD75B"/>
<rect x="162.948" y="119.4" width="2.31132" height="51.6" fill="#ABD75B"/>
<rect x="142.146" y="149.169" width="2.31132" height="21.8308" fill="#ABD75B"/>
<rect x="204.552" y="127.338" width="2.31132" height="43.6615" fill="#ABD75B"/>
<rect x="121.344" y="137.261" width="2.31132" height="33.7385" fill="#ABD75B"/>
<rect x="183.75" y="101.538" width="2.31132" height="69.4615" fill="#ABD75B"/>
<rect x="169.882" y="133.292" width="2.31132" height="37.7077" fill="#ABD75B"/>
<rect x="232.288" y="93.5999" width="2.31132" height="77.4" fill="#ABD75B"/>
<rect x="242.689" y="85.6616" width="2.31132" height="85.3385" fill="#ABD75B"/>
<rect x="239.222" y="93.5999" width="2.31132" height="77.4" fill="#ABD75B"/>
<rect x="211.486" y="139.246" width="2.31132" height="31.7538" fill="#ABD75B"/>
<rect x="128.278" y="145.2" width="2.31132" height="25.8" fill="#ABD75B"/>
<rect x="190.684" y="117.415" width="2.31132" height="53.5846" fill="#ABD75B"/>
<rect x="159.481" y="123.369" width="2.31132" height="47.6308" fill="#ABD75B"/>
<rect x="138.679" y="149.169" width="2.31132" height="19.8462" fill="#ABD75B"/>
<rect x="201.085" y="131.308" width="2.31132" height="39.6923" fill="#ABD75B"/>
<rect x="117.877" y="141.231" width="2.31132" height="29.7692" fill="#ABD75B"/>
<rect x="180.283" y="109.477" width="2.31132" height="61.5231" fill="#ABD75B"/>
<rect x="166.415" y="141.231" width="2.31132" height="29.7692" fill="#ABD75B"/>
<rect x="228.821" y="109.477" width="2.31132" height="61.5231" fill="#ABD75B"/>
<rect x="208.019" y="147.185" width="2.31132" height="23.8154" fill="#ABD75B"/>
<rect x="124.811" y="149.169" width="2.31132" height="19.8462" fill="#ABD75B"/>
<rect x="187.217" y="131.308" width="2.31132" height="39.6923" fill="#ABD75B"/>
<rect x="156.014" y="133.292" width="2.31132" height="37.7077" fill="#ABD75B"/>
<rect x="218.42" y="93.5999" width="2.31132" height="77.4" fill="#ABD75B"/>
<rect x="197.618" y="139.246" width="2.31132" height="31.7538" fill="#ABD75B"/>
<rect x="114.41" y="147.185" width="2.31132" height="23.8154" fill="#ABD75B"/>
<rect x="176.816" y="123.369" width="2.31132" height="47.6308" fill="#ABD75B"/>
<rect x="72.8066" y="125.354" width="2.31132" height="45.6462" fill="#ABD75B"/>
<rect x="27.7358" y="125.354" width="2.31132" height="45.6462" fill="#ABD75B"/>
<rect x="3.46704" y="125.354" width="2.31132" height="45.6462" fill="#ABD75B"/>
<rect y="125.354" width="2.31132" height="45.6462" fill="#ABD75B"/>
<rect x="93.6084" y="103.523" width="2.31132" height="67.4769" fill="#ABD75B"/>
<rect x="48.5378" y="103.523" width="2.31132" height="67.4769" fill="#ABD75B"/>
<rect x="24.2688" y="103.523" width="2.31132" height="67.4769" fill="#ABD75B"/>
<rect x="62.4058" y="42" width="2.31132" height="129" fill="#ABD75B"/>
<rect x="83.2075" y="115.431" width="2.31132" height="55.5692" fill="#ABD75B"/>
<rect x="38.1367" y="115.431" width="2.31132" height="55.5692" fill="#ABD75B"/>
<rect x="13.8679" y="115.431" width="2.31132" height="55.5692" fill="#ABD75B"/>
<rect x="104.01" y="87.6461" width="2.31132" height="83.3538" fill="#ABD75B"/>
<rect x="55.4717" y="75.7385" width="2.31132" height="95.2615" fill="#ABD75B"/>
<rect x="76.2737" y="129.323" width="2.31132" height="41.6769" fill="#ABD75B"/>
<rect x="31.2029" y="129.323" width="2.31132" height="41.6769" fill="#ABD75B"/>
<rect x="6.93408" y="129.323" width="2.31132" height="41.6769" fill="#ABD75B"/>
<rect x="97.0754" y="107.492" width="2.31132" height="63.5077" fill="#ABD75B"/>
<rect x="65.8726" y="53.9077" width="2.31132" height="117.092" fill="#ABD75B"/>
<rect x="86.6746" y="121.385" width="2.31132" height="49.6154" fill="#ABD75B"/>
<rect x="41.6038" y="121.385" width="2.31132" height="49.6154" fill="#ABD75B"/>
<rect x="17.335" y="121.385" width="2.31132" height="49.6154" fill="#ABD75B"/>
<rect x="107.476" y="97.5693" width="2.31132" height="73.4308" fill="#ABD75B"/>
<rect x="58.9387" y="95.5847" width="2.31132" height="75.4154" fill="#ABD75B"/>
<rect x="79.7405" y="139.246" width="2.31132" height="31.7538" fill="#ABD75B"/>
<rect x="34.6699" y="139.246" width="2.31132" height="31.7538" fill="#ABD75B"/>
<rect x="10.4009" y="139.246" width="2.31132" height="31.7538" fill="#ABD75B"/>
<rect x="100.542" y="123.369" width="2.31132" height="47.6308" fill="#ABD75B"/>
<rect x="69.3396" y="77.723" width="2.31132" height="93.2769" fill="#ABD75B"/>
<rect x="90.1416" y="131.308" width="2.31132" height="39.6923" fill="#ABD75B"/>
<rect x="45.0708" y="131.308" width="2.31132" height="39.6923" fill="#ABD75B"/>
<rect x="20.802" y="131.308" width="2.31132" height="39.6923" fill="#ABD75B"/>
<rect x="110.943" y="111.462" width="2.31132" height="59.5385" fill="#ABD75B"/>
<path opacity="0.6" d="M224.158 49.8115C223.69 49.8115 223.221 49.8311 222.773 49.8801C220.271 40.7343 211.769 34 201.682 34C193.499 34 186.373 38.4209 182.625 44.969C181.06 44.5181 179.406 44.2828 177.692 44.2828C167.924 44.2828 160 52.0759 160 61.6823C160 71.2888 167.924 79.0818 177.692 79.0818C182.645 79.0818 219.633 79.0818 224.168 79.0818C232.381 79.0818 239.049 72.5337 239.049 64.4466C239.049 56.3596 232.371 49.8115 224.158 49.8115Z" fill="white"/>
<path opacity="0.3" d="M58.5332 45.0594C58.4482 45.0594 58.3578 45.0646 58.2781 45.0698C57.8157 43.3846 56.2372 42.1454 54.3664 42.1454C52.8517 42.1454 51.5284 42.9594 50.8321 44.1624C50.5398 44.0794 50.2369 44.0379 49.918 44.0379C48.1056 44.0379 46.6388 45.469 46.6388 47.2371C46.6388 49.0052 48.1056 50.4363 49.918 50.4363C50.8374 50.4363 57.6988 50.4363 58.5385 50.4363C60.0638 50.4363 61.2969 49.2334 61.2969 47.7453C61.2969 46.2571 60.0585 45.0594 58.5332 45.0594Z" fill="white"/>
<path opacity="0.6" d="M33.8474 73.7164C33.6207 73.7164 33.4 73.7283 33.1793 73.7461C31.9742 69.2806 27.8879 66 23.038 66C19.1067 66 15.6766 68.1553 13.881 71.3526C13.1294 71.1323 12.33 71.0192 11.5068 71.0192C6.81194 71.0192 3 74.8179 3 79.5096C3 84.2014 6.80597 88 11.5068 88C13.887 88 31.67 88 33.8474 88C37.7966 88 41 84.8027 41 80.8612C41 76.9137 37.7966 73.7164 33.8474 73.7164Z" fill="white"/>
<path opacity="0.3" d="M86.0479 50.2413C86.1329 50.2413 86.2232 50.2465 86.303 50.2516C86.7653 48.5665 88.3438 47.3273 90.2146 47.3273C91.7293 47.3273 93.0527 48.1413 93.7489 49.3443C94.0412 49.2613 94.3442 49.2198 94.6631 49.2198C96.4754 49.2198 97.9423 50.6509 97.9423 52.419C97.9423 54.1871 96.4754 55.6182 94.6631 55.6182C93.7436 55.6182 86.8823 55.6182 86.0425 55.6182C84.5172 55.6182 83.2842 54.4152 83.2842 52.9271C83.2842 51.439 84.5225 50.2413 86.0479 50.2413Z" fill="white"/>
<path opacity="0.6" d="M178.798 19.816C178.623 19.816 178.453 19.825 178.283 19.8384C177.353 16.4727 174.201 14 170.459 14C167.426 14 164.78 15.6245 163.395 18.0344C162.815 17.8683 162.198 17.7831 161.563 17.7831C157.941 17.7831 155 20.6462 155 24.1824C155 27.7187 157.936 30.5818 161.563 30.5818C163.399 30.5818 177.119 30.5818 178.798 30.5818C181.845 30.5818 184.316 28.172 184.316 25.2011C184.316 22.2258 181.845 19.816 178.798 19.816Z" fill="white"/>
<path d="M136.69 170.728H61.729C57.582 170.728 54.2202 167.366 54.2202 163.219V8.19365C54.2202 4.04662 57.582 0.684814 61.729 0.684814H136.69C140.837 0.684814 144.199 4.04662 144.199 8.19365V163.219C144.199 167.366 140.837 170.728 136.69 170.728Z" fill="white"/>
<path d="M135.883 20.4155H62.5352C61.4306 20.4155 60.5352 21.311 60.5352 22.4155V150.073C60.5352 151.178 61.4306 152.073 62.5352 152.073H135.883C136.987 152.073 137.883 151.178 137.883 150.073V22.4155C137.883 21.311 136.987 20.4155 135.883 20.4155Z" fill="#879DA9"/>
<path d="M102.432 164.84H95.9875C93.8776 164.84 92.1514 163.114 92.1514 161.004V161.004C92.1514 158.894 93.8776 157.168 95.9875 157.168H102.432C104.542 157.168 106.268 158.894 106.268 161.004V161.004C106.268 163.114 104.542 164.84 102.432 164.84Z" fill="#D6D6D6"/>
<path d="M76.4202 12.8103H76.4202C74.6914 12.8103 73.2769 11.3957 73.2769 9.66692C73.2769 7.93807 74.6914 6.52356 76.4202 6.52356H76.4202C78.149 6.52356 79.5636 7.93807 79.5636 9.66692C79.5636 11.3957 78.149 12.8103 76.4202 12.8103Z" fill="#D6D6D6"/>
<path d="M114.57 11.6317H114.57C113.49 11.6317 112.606 10.7476 112.606 9.66711C112.606 8.58657 113.49 7.70251 114.57 7.70251H114.57C115.651 7.70251 116.535 8.58657 116.535 9.66711C116.535 10.7476 115.651 11.6317 114.57 11.6317Z" fill="#D6D6D6"/>
<path d="M106.682 11.1404H91.737C91.3611 11.1404 91.0564 10.8357 91.0564 10.4598V8.87404C91.0564 8.49818 91.3611 8.19348 91.737 8.19348H106.682C107.058 8.19348 107.363 8.49818 107.363 8.87404V10.4598C107.363 10.8357 107.058 11.1404 106.682 11.1404Z" fill="#D6D6D6"/>
<rect x="65" y="62.4906" width="89" height="32" rx="3" fill="white"/>
<path d="M77.4019 79.721C78.0318 79.8096 78.6143 79.3709 78.7029 78.741C78.7916 78.1112 78.3529 77.5287 77.723 77.44C77.0931 77.3513 76.5106 77.79 76.422 78.4199C76.3333 79.0498 76.772 79.6323 77.4019 79.721Z" fill="#80C342"/>
<path d="M82.1504 80.3897C82.7803 80.4783 83.3628 80.0396 83.4515 79.4097C83.5402 78.7799 83.1014 78.1974 82.4715 78.1087C81.8417 78.02 81.2592 78.4587 81.1705 79.0886C81.0818 79.7185 81.5206 80.301 82.1504 80.3897Z" fill="#80C342"/>
<path d="M87.2487 78.0374C87.3435 77.3643 87.4327 76.5951 87.5029 75.6898C87.7602 72.2367 85.8063 71.218 83.0815 70.6629C80.7869 70.1682 76.746 69.7519 75.038 68.8822C74.6638 68.6961 74.253 68.9052 74.4116 69.4042C74.503 69.703 74.5543 70.0153 74.5896 70.3063C74.4827 70.2531 74.3945 70.2026 74.2876 70.1494C74.0711 70.0617 73.8178 70.2358 73.861 70.4707C74.018 71.5224 73.3599 74.8428 73.0927 76.0636C72.0194 76.1032 71.3319 76.7881 71.1582 78.0221C70.9239 79.6861 71.8569 80.237 72.4768 80.4386C72.4718 80.6095 72.4668 80.7804 72.4645 80.9326C72.328 84.7459 72.5428 86.6066 78.7501 87.4805C84.9573 88.3543 85.6801 86.6065 86.5991 82.9225C86.6389 82.7756 86.6813 82.6099 86.7236 82.4443C87.3751 82.4216 88.4239 82.1498 88.6582 80.4858C88.8185 79.2118 88.3281 78.361 87.2487 78.0374ZM86.3739 81.1366C85.976 81.1187 85.6347 81.3758 85.5447 81.7444C85.4652 82.0383 85.3857 82.3322 85.3275 82.61C84.509 85.8506 84.2228 86.9353 78.913 86.1878C73.6031 85.4402 73.6276 84.3187 73.7569 80.962C73.759 80.6763 73.7798 80.3932 73.7845 80.0888C73.8024 79.6909 73.5453 79.3497 73.1393 79.2544C72.5489 79.1141 72.3377 78.989 72.4509 78.185C72.564 77.3811 72.8842 77.2736 73.5012 77.3605C73.6882 77.3868 73.7338 77.4695 73.7741 77.5896C73.8389 77.9419 74.1865 78.1815 74.5388 78.1167C74.8911 78.0519 75.1307 77.7043 75.0659 77.352C74.9959 77.037 74.8618 76.7703 74.6451 76.5491C74.9155 75.5766 75.1514 74.7136 75.4971 74.0187C76.2834 74.6633 77.7826 75.2557 80.4375 75.6294C83.1298 76.0085 84.7343 75.853 85.652 75.4292C85.7924 76.1926 85.7835 77.0685 85.7748 78.0778C85.5055 78.2305 85.2656 78.4446 85.1087 78.7467C84.9491 79.0674 85.0647 79.4651 85.3855 79.6246C85.7062 79.7842 86.1038 79.6686 86.2634 79.3478C86.3379 79.2248 86.4019 79.1766 86.5889 79.203C87.2059 79.2898 87.4839 79.4815 87.3708 80.2855C87.2389 81.0868 86.9987 81.1674 86.3739 81.1366Z" fill="#80C342"/>
<path d="M82.0773 82.2669C81.8045 82.0378 81.4013 82.0573 81.1536 82.3275C80.7673 82.7689 80.0895 82.9785 79.3977 82.8811C78.6872 82.7811 78.1124 82.3951 77.863 81.8643C77.7181 81.5388 77.3199 81.3874 76.9918 81.5509C76.6664 81.6958 76.515 82.094 76.6785 82.4221C77.1023 83.3397 78.073 84.0293 79.2135 84.1899C80.354 84.3505 81.4747 83.9743 82.138 83.1906C82.3697 82.8991 82.3502 82.496 82.0773 82.2669Z" fill="#80C342"/>
<rect x="93" y="68.4906" width="54" height="4" rx="2" fill="#D6D6D6"/>
<rect x="93" y="76.4905" width="41" height="4" rx="2" fill="#D6D6D6"/>
<rect x="93" y="84.4906" width="13" height="4" rx="2" fill="#D6D6D6"/>
<rect x="113" y="84.4906" width="13" height="4" rx="2" fill="#D6D6D6"/>
<rect x="133" y="84.4906" width="13" height="4" rx="2" fill="#D6D6D6"/>
<rect x="45" y="99" width="89" height="32" rx="3" fill="white"/>
<rect x="73" y="105" width="54" height="4" rx="2" fill="#D6D6D6"/>
<rect x="73" y="113" width="41" height="4" rx="2" fill="#D6D6D6"/>
<rect x="73" y="121" width="13" height="4" rx="2" fill="#D6D6D6"/>
<rect x="93" y="121" width="13" height="4" rx="2" fill="#D6D6D6"/>
<rect x="113" y="121" width="13" height="4" rx="2" fill="#D6D6D6"/>
<rect x="45" y="26" width="89" height="32" rx="3" fill="white"/>
<path d="M67.3786 40.8633C67.1762 39.8825 66.8045 39.2527 66.2525 38.9204C66.1056 38.8391 65.9193 38.7474 65.6728 38.7239C62.9058 32.4342 58.1664 33.5239 57.2926 33.7042C56.4365 33.8809 51.6173 34.7639 51.5629 41.6174C51.3494 41.7544 51.1932 41.8982 51.0941 42.0488C50.7188 42.5725 50.6268 43.298 50.8292 44.2788C50.9912 45.0635 51.2873 45.5974 51.7391 45.8946C52.4351 52.2399 54.812 51.4147 57.8205 50.4963C58.7758 50.8011 59.7904 50.852 60.7712 50.6496C61.7699 50.4435 62.6598 49.9809 63.4201 49.3406C66.5464 48.9929 69.0951 48.8201 67.1828 42.7073C67.4585 42.2413 67.5369 41.6302 67.3786 40.8633ZM65.6058 42.3634C65.2387 42.4763 64.9981 42.8421 65.0538 43.2024C65.1994 44.8086 64.513 46.4377 63.0014 48.0325C61.6781 49.4584 59.4846 49.9111 57.7049 49.1256C55.6818 48.2417 54.4065 47.0174 53.9258 45.4991C53.8128 45.1319 53.4471 44.8913 53.0868 44.9471C52.612 44.9893 52.2874 45.0377 52.0776 44.0212C51.912 43.2187 52.0314 42.8966 52.1378 42.7816C52.152 42.7601 52.1803 42.7171 52.2479 42.6845C52.3493 42.9053 52.5681 43.0647 52.8251 43.0488C53.175 43.0324 53.434 42.7558 53.4354 42.4023C53.421 41.7917 53.4747 41.2414 53.5537 40.7231C54.5923 40.6203 56.0702 39.9434 57.5206 38.8632C58.26 38.3015 58.8813 37.7085 59.3778 37.1412C59.679 37.3393 59.9802 37.5375 60.3133 37.7104C61.5207 38.3351 62.7011 38.6493 63.5152 38.63C63.8144 39.0889 64.0853 39.5907 64.3175 40.175C64.4335 40.4671 64.7237 40.6118 65.0269 40.5492C65.0625 40.5418 65.0982 40.5345 65.1302 40.5093C65.3725 40.4221 65.5282 40.1854 65.516 39.9462C65.591 39.9493 65.634 39.9776 65.6555 39.9918C65.7846 40.0767 66.0397 40.3216 66.2016 41.1062C66.3579 42.1338 66.0443 42.2357 65.6058 42.3634Z" fill="#80C342"/>
<path d="M56.9602 43.5342C57.561 43.4102 57.9475 42.8226 57.8235 42.2218C57.6995 41.621 57.112 41.2345 56.5112 41.3585C55.9104 41.4825 55.5239 42.07 55.6479 42.6708C55.7718 43.2716 56.3594 43.6582 56.9602 43.5342Z" fill="#80C342"/>
<path d="M61.4539 42.6067C62.0546 42.4827 62.4412 41.8951 62.3172 41.2943C62.1932 40.6935 61.6056 40.307 61.0048 40.431C60.404 40.555 60.0175 41.1426 60.1415 41.7434C60.2655 42.3442 60.8531 42.7307 61.4539 42.6067Z" fill="#80C342"/>
<path d="M61.7699 44.0475L57.2402 44.9824C56.9906 45.0339 56.8601 45.3026 56.9614 45.5233C57.4792 46.6808 58.7369 47.3695 60.0387 47.1008C61.3406 46.8321 62.2229 45.7018 62.2401 44.4339C62.2458 44.191 62.0196 43.996 61.7699 44.0475Z" fill="#80C342"/>
<rect x="73" y="32" width="54" height="4" rx="2" fill="#D6D6D6"/>
<rect x="73" y="40" width="41" height="4" rx="2" fill="#D6D6D6"/>
<rect x="73" y="48" width="13" height="4" rx="2" fill="#D6D6D6"/>
<rect x="93" y="48" width="13" height="4" rx="2" fill="#D6D6D6"/>
<rect x="113" y="48" width="13" height="4" rx="2" fill="#D6D6D6"/>
<path d="M67.2726 113.053C67.2942 112.473 67.2994 111.814 67.2696 111.057C67.1009 107.273 63.8553 106.493 59.85 106.343C55.8446 106.194 52.55 106.729 52.0995 110.491C52.0133 111.243 51.9694 111.901 51.9477 112.481C51.0424 112.854 50.3685 113.779 50.3273 114.881C50.2775 116.217 51.1644 117.374 52.3568 117.612L52.2961 119.237C52.2036 121.714 54.1409 123.801 56.637 123.895L61.7646 124.086C64.2413 124.179 66.3482 122.242 66.4406 119.765L66.5013 118.14C67.7082 117.991 68.6782 116.923 68.7288 115.569C68.7506 114.465 68.1475 113.493 67.2726 113.053ZM59.6585 111.471C61.7676 111.55 63.6561 111.31 64.9326 110.854C65.1675 111.308 65.3019 112.379 65.281 112.94L53.9421 112.517C53.9631 111.956 54.1576 110.897 54.4451 110.462C55.6841 111.012 57.5494 111.392 59.6585 111.471ZM63.4611 113.938L63.4149 115.176C63.3795 116.124 63.0182 116.46 62.07 116.424C61.1219 116.389 60.7866 116.028 60.822 115.08L60.8683 113.841L63.4611 113.938ZM58.2561 113.744L58.2098 114.982C58.1744 115.93 57.8131 116.265 56.865 116.23C55.9169 116.195 55.5816 115.833 55.617 114.885L55.6632 113.647L58.2561 113.744ZM66.1656 116.752C66.0689 116.748 66.0302 116.747 66.0116 116.727C65.8009 116.661 65.5859 116.711 65.4067 116.84C65.2275 116.969 65.1235 117.158 65.1148 117.391L65.0281 119.713C64.9646 121.415 63.5194 122.756 61.7973 122.692L56.689 122.501C54.9669 122.437 53.6257 120.992 53.6893 119.289L53.776 116.967C53.7839 116.754 53.6951 116.538 53.526 116.396C53.3569 116.254 53.1455 116.207 52.9313 116.238C52.9119 116.237 52.8531 116.255 52.7757 116.252C52.1759 116.229 51.6945 115.63 51.7205 114.933C51.7407 114.392 52.0677 113.939 52.4998 113.781L52.4948 113.916C52.4803 114.303 52.7784 114.624 53.1654 114.639C53.5524 114.653 53.8735 114.355 53.888 113.968L53.9017 113.6L54.6176 113.627L54.5714 114.866C54.4991 116.8 55.761 117.255 56.8253 117.294C57.8895 117.334 59.1817 116.975 59.254 115.04L59.2901 114.073C59.2959 113.918 59.4163 113.806 59.5711 113.812C59.7259 113.818 59.8377 113.938 59.8319 114.093L59.7958 115.061C59.7235 116.996 60.9854 117.45 62.0496 117.489C63.1139 117.529 64.4061 117.17 64.4784 115.235L64.5246 113.997L65.2405 114.024L65.2268 114.391C65.2124 114.778 65.5104 115.1 65.8974 115.114C66.2844 115.128 66.6055 114.83 66.62 114.443L66.625 114.308C67.0442 114.498 67.3365 114.974 67.3162 115.516C67.2895 116.232 66.7655 116.774 66.1656 116.752Z" fill="#80C342"/>
<path d="M56.8879 115.611C57.2619 115.625 57.5764 115.333 57.5904 114.959C57.6044 114.585 57.3125 114.27 56.9385 114.256C56.5644 114.242 56.2499 114.534 56.2359 114.908C56.222 115.282 56.5139 115.597 56.8879 115.611Z" fill="#80C342"/>
<path d="M62.1125 115.806C62.4865 115.82 62.8011 115.528 62.815 115.154C62.829 114.78 62.5371 114.465 62.1631 114.451C61.789 114.437 61.4745 114.729 61.4606 115.103C61.4466 115.477 61.7385 115.792 62.1125 115.806Z" fill="#80C342"/>
<path d="M62.0847 118.614C61.8203 118.43 61.4692 118.495 61.2849 118.759C60.8963 119.306 60.148 119.627 59.3547 119.598C58.5614 119.568 57.8391 119.192 57.4924 118.617C57.3284 118.34 56.983 118.25 56.7056 118.414C56.4282 118.578 56.3378 118.923 56.5018 119.2C57.049 120.112 58.1124 120.694 59.3121 120.739C60.5117 120.784 61.6155 120.283 62.2293 119.414C62.3942 119.149 62.3491 118.799 62.0847 118.614Z" fill="#80C342"/>
<path d="M174.278 92.0309L182.098 120.949L169.626 125.339L157.607 97.8991L174.278 92.0309Z" fill="#FFAD8C"/>
<path d="M125.572 97.8991L113.553 125.339L101.081 120.949L108.901 92.0309L125.572 97.8991Z" fill="#FFAD8C"/>
<path d="M132.59 75.1787C132.59 75.1787 113.509 75.7902 106.826 96.793C106.826 96.793 113.343 102 124.969 102.608L132.59 75.1787Z" fill="#FD6441"/>
<path d="M150.872 75.1787C150.872 75.1787 169.953 75.7902 176.636 96.793C176.636 96.793 170.119 102 158.493 102.608L150.872 75.1787Z" fill="#FD6441"/>
<path d="M141.792 72.3612C108.731 73.9549 117.539 147.536 117.539 147.536C126.478 152.092 141.792 152.092 141.792 152.092C141.792 152.092 157.106 152.092 166.045 147.536C166.045 147.536 174.853 73.9549 141.792 72.3612Z" fill="#F04923"/>
<path d="M146.096 116.304H137.239C136.759 116.304 136.371 115.915 136.371 115.435V97.8562C136.371 97.3766 136.759 96.9878 137.239 96.9878H146.096C146.576 96.9878 146.964 97.3766 146.964 97.8562V115.435C146.964 115.915 146.576 116.304 146.096 116.304Z" fill="black"/>
<path d="M167.109 160.019L163.464 168.447C163.464 168.447 97.8514 174.649 84.4859 147.59C71.1203 120.53 120.937 139.363 129.443 142.401C137.948 145.438 167.109 160.019 167.109 160.019Z" fill="#08223A"/>
<path d="M167.025 159.935C167.025 159.935 174.204 161.36 177.748 163.993C181.292 166.625 182.31 168.489 181.762 169.866C181.14 171.428 170.736 172.902 163.547 168.447L167.025 159.935Z" fill="black"/>
<path d="M121.103 160.019L124.748 168.447C124.748 168.447 190.361 174.649 203.727 147.59C217.092 120.53 167.275 139.363 158.77 142.401C150.264 145.438 121.103 160.019 121.103 160.019Z" fill="#113255"/>
<path d="M144.695 70.4026H141.792H138.889L137.506 79.2801C138.751 80.5847 141.792 80.5847 141.792 80.5847C141.792 80.5847 144.834 80.5847 146.078 79.2801L144.695 70.4026Z" fill="#FFAD8C"/>
<path d="M149.639 38.0736L133.283 42.0201C133.283 42.0201 128.355 56.7253 130.042 62.7638C132.387 71.1581 139.493 71.5766 141.791 71.4841C144.09 71.5766 151.196 71.1581 153.54 62.7638C155.227 56.7253 149.639 38.0736 149.639 38.0736Z" fill="#FFAD8C"/>
<path d="M132.375 53.5654C134.565 52.0833 135.14 49.106 133.658 46.9154C132.176 44.7248 129.198 44.1504 127.008 45.6325C124.817 47.1146 124.243 50.0919 125.725 52.2825C127.207 54.4731 130.184 55.0475 132.375 53.5654Z" fill="#FFAD8C"/>
<path d="M156.577 53.5654C158.767 52.0834 159.342 49.106 157.86 46.9154C156.378 44.7248 153.4 44.1504 151.21 45.6325C149.019 47.1146 148.445 50.0919 149.927 52.2825C151.409 54.4731 154.386 55.0475 156.577 53.5654Z" fill="#FFAD8C"/>
<path d="M130.613 52.0515C130.613 52.0515 132.624 43.5434 136.149 43.6649C139.673 43.7865 144.778 40.3832 144.778 40.3832C144.778 40.3832 151.281 45.3665 153.003 52.0515C153.003 52.0515 154.485 42.8749 153.997 39.2893C153.567 36.1209 150.369 31.2674 146.358 33.0905C146.358 33.0905 137.972 28.2287 132.381 33.3336C126.79 38.4385 130.613 52.0515 130.613 52.0515Z" fill="black"/>
<path d="M106.703 114.686C109.064 114.077 111.462 113.583 113.876 113.134C115.08 112.901 116.295 112.704 117.506 112.49C118.724 112.3 119.938 112.097 121.16 111.918C123.604 111.561 126.054 111.221 128.524 110.943C130.993 110.659 133.473 110.41 135.989 110.269C137.792 110.168 139.335 111.547 139.436 113.349C139.503 114.547 138.912 115.633 137.983 116.255C135.885 117.65 133.75 118.938 131.605 120.191C129.461 121.45 127.297 122.647 125.127 123.828C124.042 124.417 122.948 124.982 121.859 125.561C120.763 126.115 119.671 126.686 118.568 127.222C116.367 128.31 114.152 129.353 111.898 130.281C107.69 132.012 102.876 130.005 101.145 125.798C99.4133 121.59 101.42 116.776 105.628 115.045C105.968 114.905 106.357 114.778 106.703 114.686Z" fill="#FFAD8C"/>
<path d="M130.296 113.421C130.296 113.421 132.625 105.928 136.371 103.802V106.029C136.371 106.029 141.094 104.612 142.681 105.928C144.269 107.244 145.281 114.636 137.08 117.066C128.878 119.496 130.296 113.421 130.296 113.421Z" fill="#FFAD8C"/>
<path d="M171.549 130.281C169.295 129.353 167.079 128.31 164.879 127.222C163.776 126.686 162.684 126.115 161.587 125.561C160.499 124.982 159.405 124.417 158.32 123.828C156.15 122.647 153.986 121.45 151.842 120.191C149.696 118.938 147.562 117.65 145.464 116.255C143.961 115.255 143.553 113.226 144.552 111.723C145.217 110.724 146.341 110.209 147.458 110.269C149.974 110.411 152.454 110.659 154.922 110.943C157.393 111.221 159.843 111.561 162.287 111.918C163.509 112.097 164.723 112.3 165.941 112.49C167.151 112.704 168.367 112.901 169.571 113.134C171.985 113.583 174.383 114.077 176.743 114.686C181.149 115.824 183.798 120.317 182.66 124.722C181.523 129.127 177.03 131.776 172.625 130.639C172.269 130.547 171.881 130.415 171.549 130.281Z" fill="#FFAD8C"/>
<path d="M153.151 113.421C153.151 113.421 150.822 105.928 147.076 103.802V106.029C147.076 106.029 142.353 104.612 140.765 105.928C139.178 107.244 138.165 114.636 146.367 117.066C154.569 119.496 153.151 113.421 153.151 113.421Z" fill="#FFAD8C"/>
<path d="M121.27 159.935C121.27 159.935 114.091 161.36 110.547 163.993C107.004 166.625 105.986 168.489 106.534 169.866C107.155 171.428 117.559 172.902 124.748 168.447L121.27 159.935Z" fill="black"/>
</g>
<defs>
<clipPath id="clip0">
<rect width="245" height="171" fill="white"/>
</clipPath>
</defs>
</svg>
