<svg xmlns="http://www.w3.org/2000/svg" viewBox="0 0 151.18 122.57"><defs><style>.cls-1{fill:none;stroke:#fff;stroke-miterlimit:10;}.cls-2{fill:#231f20;}.cls-3{fill:#e8b909;}.cls-4{fill:#0054a4;}.cls-5{fill:#a30046;}.cls-6{fill:#fff;}.cls-7{fill:#fd0;}.cls-8{fill:#e31837;}</style></defs><title>IT_logo-without - vertical color (dark bg)</title><g id="Layer_2" data-name="Layer 2"><g id="TEXTOS"><line class="cls-1" x1="104.4" y1="71.83" x2="46.63" y2="71.83"/><path class="cls-2" d="M104.38,29.29l-.86-.9C99.84,24.55,94.64,15,101.28,6.08l.52-.69-.46-.74a9,9,0,0,0-.79-1.07c-.21-.26-.42-.53-.71-.94l-.55-.79-.9.32a12.54,12.54,0,0,1-4.06.71c-3.79,0-6.28-.37-9.33-2.4L84.28,0l-.7.49a13.82,13.82,0,0,1-8.2,2.77A13.85,13.85,0,0,1,67.17.49L66.47,0l-.71.48c-3.06,2-5.54,2.4-9.33,2.4a12.6,12.6,0,0,1-4.07-.71l-.89-.32-.55.79c-.29.41-.51.68-.72.93a9,9,0,0,0-.78,1.08L49,5.39l.52.69c6.63,8.87,1.43,18.47-2.24,22.31l-.86.9.87.88c.48.47,1.31,1.35,2,2.08a.49.49,0,0,0,0,.12,1.28,1.28,0,0,1,0,.26v.08c-.34,6.4,1.32,11.66,4.92,15.65C58,52.59,64,55.12,71,55.51c1.75,1.61,3.53,2.93,3.61,3l.75.57.76-.57c.08-.06,1.84-1.39,3.59-3,7.07-.39,13-2.92,16.87-7.15,3.61-4,5.26-9.25,4.93-15.65v-.08c0-.12,0-.17,0-.26v-.12c.69-.73,1.53-1.61,2-2.08Zm-4.19,2.5c.07.64,0,.61.07,1,.76,14.25-9.11,21-21,21.48-1.83,1.71-3.84,3.22-3.84,3.22s-2-1.51-3.84-3.22C59.61,53.76,49.73,47,50.49,32.78c0-.38,0-.35.07-1-.68-.73-1.82-1.92-2.41-2.52,4.28-4.47,9.27-14.69,2.34-23.95.45-.74.78-1,1.46-1.95a13.87,13.87,0,0,0,4.48.78c4,0,6.69-.39,10-2.62a15.13,15.13,0,0,0,8.93,3,15.12,15.12,0,0,0,8.92-3c3.33,2.23,6,2.62,10,2.62a13.81,13.81,0,0,0,4.47-.78c.68,1,1,1.21,1.46,2-6.93,9.26-1.93,19.48,2.35,24-.6.6-1.73,1.79-2.42,2.52"/><path class="cls-3" d="M75.38,57.48a48.51,48.51,0,0,1-3.84-3.22C59.61,53.76,49.73,47,50.49,32.78c0-.38,0-.35.07-1-.68-.72-1.82-1.91-2.41-2.51,4.28-4.47,9.27-14.69,2.34-23.95.45-.74.78-1,1.46-1.95a13.87,13.87,0,0,0,4.48.79c4,0,6.69-.4,10-2.62a15.18,15.18,0,0,0,8.92,3,15.19,15.19,0,0,0,8.93-3c3.34,2.22,6,2.62,10,2.62a13.83,13.83,0,0,0,4.48-.79c.68,1,1,1.21,1.46,2-6.92,9.26-1.93,19.48,2.35,24-.6.6-1.73,1.79-2.42,2.51.07.65,0,.62.07,1,.76,14.25-9.11,21-21.05,21.48a49.4,49.4,0,0,1-3.83,3.22"/><path class="cls-4" d="M59,32.12H52.75c0,.41-.06.43-.1.84-.37,7.2,2.14,12.11,6.38,15.17Z"/><path class="cls-5" d="M59,48.13a20.09,20.09,0,0,0,6.59,3v-19H59Z"/><path class="cls-4" d="M65.62,51.13a31.13,31.13,0,0,0,6.59,1v-20H65.62Z"/><path class="cls-5" d="M78.8,32.12H72.2v20h.23c2.19,0,4.18,0,5.89,0l.48,0Z"/><path class="cls-4" d="M78.8,52.1a31,31,0,0,0,6.58-1v-19H78.8Z"/><path class="cls-5" d="M85.38,51.07A19.61,19.61,0,0,0,92,47.94V32.12H85.38Z"/><path class="cls-4" d="M98,32.12H92V48c4.09-3.07,6.49-7.93,6.14-15,0-.41-.07-.43-.11-.84"/><path class="cls-2" d="M76,52.32H72.43c-7-.29-12.53-2.43-15.92-6.18-3-3.27-4.33-7.7-4-13.18,0-.2,0-.31,0-.4s0-.23.06-.45v-.17h45.6v.17c0,.22,0,.32,0,.45a3.91,3.91,0,0,1,.05.39c.28,5.49-1.08,9.92-4,13.19-3.4,3.75-8.9,5.89-15.92,6.18H76m-23.08-20c0,.12,0,.21,0,.29a2.2,2.2,0,0,0,0,.38c-.27,5.36,1,9.7,3.95,12.89,3.33,3.68,8.74,5.77,15.65,6.06h5.88c6.91-.29,12.32-2.38,15.65-6.06,2.89-3.19,4.22-7.53,3.94-12.9,0-.17,0-.28,0-.37a1.84,1.84,0,0,1,0-.29Z"/><path class="cls-3" d="M69,41.85a6.32,6.32,0,1,1,6.31,6.35A6.34,6.34,0,0,1,69,41.85"/><path class="cls-2" d="M75.36,35.68a6.17,6.17,0,1,0,6.12,6.17,6.16,6.16,0,0,0-6.12-6.17m0,12.45a6.29,6.29,0,1,1,6.24-6.28,6.28,6.28,0,0,1-6.24,6.28"/><path class="cls-2" d="M75.35,35.49A6.36,6.36,0,1,1,69,41.85a6.34,6.34,0,0,1,6.31-6.36M72.13,43C71,42,71,39.83,71.29,38.41c.09-.39.19-.78.31-1.22a6,6,0,0,0-1.78,6.9,1.73,1.73,0,0,0,.32,0,2.18,2.18,0,0,0,2-1.12m6.14.46c-.2,1-1.27,1.76-2.28,2.36a9.1,9.1,0,0,1-4,1,5.85,5.85,0,0,0,3.32,1,5.94,5.94,0,0,0,5.22-3.1,1.57,1.57,0,0,0-2.3-1.28m-6.71,3a9.33,9.33,0,0,0,4.25-1c1.42-.84,2.52-1.75,2-3a1.43,1.43,0,0,0-2.28-.56,2,2,0,0,1-2,1.66,2.48,2.48,0,0,1-1.07-.38,2.53,2.53,0,0,1-2.27,1.25H70a6.19,6.19,0,0,0,1.57,2m3.78-8.37c1-.41,2.35.12,3.39.71a6.93,6.93,0,0,1,2.57,2.66,6,6,0,0,0-5.9-5.63,1.32,1.32,0,0,0-.06,2.26m-.17,3.83a2.33,2.33,0,0,1-.62-3.15A1.93,1.93,0,0,1,75,38.3a1.66,1.66,0,0,1-.17-2.43,6,6,0,0,0-2.79,1,14,14,0,0,0-.58,3.33c0,1.59.68,2.88,2.06,3.06a1.71,1.71,0,0,0,1.65-1.31m6.12.46a6.23,6.23,0,0,0-2.73-3.27c-1.44-.81-3-1.25-3.71-.15a2,2,0,0,0,.5,2.65,1.77,1.77,0,0,1,2.78.73,1.93,1.93,0,0,1,.17.7,1.93,1.93,0,0,1,2.53,1.17,6.23,6.23,0,0,0,.46-1.83"/><path class="cls-2" d="M82.87,30.94H80.19V25H82.9c1.18,0,1.89.6,1.89,1.6a1.35,1.35,0,0,1-.54,1.11A1.42,1.42,0,0,1,85,29a1.86,1.86,0,0,1-2.11,1.93M81.45,29.7h1.46c.49,0,.75-.23.75-.68s-.24-.67-.75-.67H81.45Zm0-2.51H82.9c.4,0,.58-.15.58-.47s-.08-.49-.64-.49H81.45Z"/><path class="cls-2" d="M74.91,31c-1.56,0-2.58-1.19-2.58-3.05s1.08-3.05,2.62-3.05a2.27,2.27,0,0,1,2.17,1.32l0,.07L76,26.87l0-.06a1,1,0,0,0-1-.59c-.8,0-1.29.68-1.29,1.76s.52,1.77,1.3,1.77a1.13,1.13,0,0,0,1.06-.7L76,29l1.09.64,0,.06A2.26,2.26,0,0,1,74.91,31"/><polygon class="cls-2" points="67.02 30.94 65.73 30.94 65.73 25.02 69.98 25.02 69.98 26.29 67.02 26.29 67.02 27.24 68.75 27.24 68.75 28.5 67.02 28.5 67.02 30.94"/><path class="cls-6" d="M54.26,23.81c2.17-5,3-11.45-.68-17.74a16.69,16.69,0,0,0,2.85.26c3.74,0,6.68-.34,10-2.22a16.84,16.84,0,0,0,9,2.6,16.82,16.82,0,0,0,9-2.6c3.31,1.88,6.26,2.22,10,2.22a15.74,15.74,0,0,0,2.85-.27c-3.66,6.3-2.85,12.74-.68,17.75Z"/><path class="cls-7" d="M75.19,6.71v17.1h2.25V6.58a17.43,17.43,0,0,1-2.07.13h-.18"/><path class="cls-8" d="M77.45,23.81H79.7V6.13a16.29,16.29,0,0,1-2.25.45Z"/><path class="cls-7" d="M79.7,23.81H82V5.34a15.9,15.9,0,0,1-2.26.79Z"/><path class="cls-8" d="M82,23.81h2.26V4.18A17.85,17.85,0,0,1,82,5.34Z"/><path class="cls-7" d="M84.22,4.18V23.81h2.26V5.14a16.12,16.12,0,0,1-2.15-1,.67.67,0,0,1-.11.07"/><path class="cls-8" d="M86.48,23.81h2.26v-18a15.84,15.84,0,0,1-2.26-.69Z"/><path class="cls-7" d="M88.74,23.81H91V6.19a16.64,16.64,0,0,1-2.26-.36Z"/><path class="cls-8" d="M91,23.78h2.26V6.29c-.78,0-1.53,0-2.26-.12Z"/><path class="cls-7" d="M97,6.08a14.87,14.87,0,0,1-2.69.25H93.25V23.81h3.24c-2.13-4.93-2.94-11.24.52-17.45Z"/><path class="cls-8" d="M62.31,18v5.8H68.6V18h6.7V11.69H68.6V5.26a19.69,19.69,0,0,1-2.18-1.15,15.58,15.58,0,0,1-4.11,1.65v5.93H55.74A18.49,18.49,0,0,1,55.91,18Z"/><path class="cls-2" d="M97.55,5.79l-.41.08a15.2,15.2,0,0,1-2.82.27c-3.82,0-6.66-.36-9.89-2.19l-.1-.06L84.24,4a16.64,16.64,0,0,1-8.87,2.57A16.6,16.6,0,0,1,66.52,4l-.09-.06-.1.06c-3.24,1.83-6.08,2.19-9.9,2.19a15.47,15.47,0,0,1-2.81-.26l-.4-.07.2.36c3.92,6.74,2.52,13.27.66,17.56L54,24H96.79l-.12-.27c-1.86-4.29-3.26-10.82.67-17.58ZM54,6.32a15.33,15.33,0,0,0,2.48.2c3.84,0,6.72-.36,10-2.19A17,17,0,0,0,75.11,6.9V23.62H54.55A19.36,19.36,0,0,0,54,6.32m42.26,17.3H75.49V6.9a17.17,17.17,0,0,0,8.85-2.57c3.26,1.83,6.14,2.19,10,2.19a15.13,15.13,0,0,0,2.49-.21,19.31,19.31,0,0,0-.6,17.31"/><path class="cls-6" d="M0,84.62H3.55c2.15,0,3.25,1.06,3.25,3a3.25,3.25,0,0,1-2.11,3H1.92v3.51H0ZM4.06,89a1.4,1.4,0,0,0,.82-1.38,1.16,1.16,0,0,0-1.31-1.22H1.92V89Z"/><path class="cls-6" d="M7.09,93.14l2.36-8.52h3.1l2.36,8.52v1.07H13.19l-.53-2a8,8,0,0,1-1.7.17,9.18,9.18,0,0,1-1.67-.15l-.52,2H7.09ZM9.72,90.6a7.15,7.15,0,0,0,1.24.11,6.77,6.77,0,0,0,1.28-.12l-.56-2.13c-.23-.89-.51-2.13-.51-2.13h-.38s-.28,1.24-.52,2.13Z"/><path class="cls-6" d="M16.5,84.62h3.63c2.08,0,3.22,1,3.22,2.85a3.09,3.09,0,0,1-2,2.88,15.81,15.81,0,0,0,1.93,2.7v1.16H21.85a21.27,21.27,0,0,1-2.43-3.67h-1v3.67H16.5Zm4.05,4.19a1.26,1.26,0,0,0,.89-1.26,1.11,1.11,0,0,0-1.24-1.19H18.42v2.45Z"/><path class="cls-6" d="M28.29,86.36v7.85H26.38V86.36H24.09V84.62h6.57l-.28,1.74Z"/><path class="cls-6" d="M31.93,84.62H33.7l2.73,4.5c.23.37.76,1.45.76,1.45h0s-.07-1-.07-2v-4H39v9.59H37.15v-.78L34.74,89.5c-.31-.55-1-1.65-1-1.65h0s0,.88,0,1.82v4.54H31.93Z"/><path class="cls-6" d="M41.13,84.62h6.08l-.29,1.74H43.05v2.2h3.51v1.73H43.05v2.19h4v1.73H41.13Z"/><path class="cls-6" d="M48.9,84.62h3.63c2.08,0,3.22,1,3.22,2.85a3.09,3.09,0,0,1-2,2.88,15.21,15.21,0,0,0,1.93,2.7v1.16H54.25a21.27,21.27,0,0,1-2.43-3.67h-1v3.67H48.9ZM53,88.81a1.26,1.26,0,0,0,.89-1.26,1.11,1.11,0,0,0-1.24-1.19H50.82v2.45Z"/><path class="cls-6" d="M59.93,88.2c0-2.53,1.26-3.68,3.56-3.68a3.81,3.81,0,0,1,2.87,1.07v1.5H64.8s-.12-.86-1.3-.86-1.65.62-1.65,1.93v2.51c0,1.31.4,1.93,1.65,1.93s1.3-.86,1.3-.86h1.56v1.5a3.81,3.81,0,0,1-2.87,1.07c-2.3,0-3.56-1.14-3.56-3.68Z"/><path class="cls-6" d="M67.58,88.33c0-2.5,1.3-3.85,3.72-3.85S75,85.83,75,88.33V90.5c0,2.48-1.29,3.85-3.72,3.85S67.58,93,67.58,90.5Zm3.72,4.31c1.27,0,1.8-.59,1.8-2V88.19c0-1.41-.53-2-1.8-2s-1.8.59-1.8,2v2.45C69.5,92.05,70,92.64,71.3,92.64Z"/><path class="cls-6" d="M76.86,84.62H80l1.13,5.18c.21,1,.49,2.8.49,2.8h.09s.28-1.82.49-2.8l1.13-5.18h3.14v9.59H84.63V89.44c0-.83.05-3.24.05-3.24h-.15s-.41,1.9-.62,2.83l-1.19,5.18H80.61L79.42,89c-.21-.93-.62-2.83-.62-2.83h-.14s0,2.41,0,3.24v4.77H76.86Z"/><path class="cls-6" d="M88.59,84.62h3.15l1.13,5.18c.21,1,.49,2.8.49,2.8h.08s.29-1.82.5-2.8l1.13-5.18h3.14v9.59H96.36V89.44c0-.83.06-3.24.06-3.24h-.16s-.4,1.9-.62,2.83l-1.18,5.18H92.34L91.16,89c-.21-.93-.62-2.83-.62-2.83H90.4s0,2.41,0,3.24v4.77H88.59Z"/><path class="cls-6" d="M100.33,84.62h6.08l-.29,1.74h-3.87v2.2h3.51v1.73h-3.51v2.19h4v1.73h-5.94Z"/><path class="cls-6" d="M108.1,84.62h3.63c2.08,0,3.22,1,3.22,2.85a3.09,3.09,0,0,1-2,2.88,15.21,15.21,0,0,0,1.93,2.7v1.16h-1.46A21.27,21.27,0,0,1,111,90.54h-1v3.67H108.1Zm4.05,4.19a1.26,1.26,0,0,0,.89-1.26,1.11,1.11,0,0,0-1.24-1.19H110v2.45Z"/><path class="cls-6" d="M116.31,88.2c0-2.53,1.26-3.68,3.55-3.68a3.82,3.82,0,0,1,2.88,1.07v1.5h-1.56s-.12-.86-1.3-.86-1.65.62-1.65,1.93v2.51c0,1.31.39,1.93,1.65,1.93s1.3-.86,1.3-.86h1.56v1.5a3.82,3.82,0,0,1-2.88,1.07c-2.29,0-3.55-1.14-3.55-3.68Z"/><path class="cls-6" d="M124.92,92.7V86.13L124,86V84.62h3.83V86l-1,.17V92.7l1,.17v1.34H124V92.87Z"/><path class="cls-6" d="M129,93.14l2.36-8.52h3.1l2.35,8.52v1.07h-1.72l-.52-2a8.1,8.1,0,0,1-1.7.17,9.18,9.18,0,0,1-1.67-.15l-.52,2H129Zm2.63-2.54a7.06,7.06,0,0,0,1.24.11,6.85,6.85,0,0,0,1.28-.12l-.56-2.13c-.23-.89-.51-2.13-.51-2.13h-.38s-.28,1.24-.52,2.13Z"/><path class="cls-6" d="M138.37,84.62h1.92v7.86h3.88l-.29,1.73h-5.51Z"/><path class="cls-6" d="M145.1,84.62h6.08l-.29,1.74H147v2.2h3.51v1.73H147v2.19h4v1.73H145.1Z"/><path class="cls-6" d="M30.64,98.73h1.92v6.33c0,1.31.44,1.69,1.62,1.69a2.62,2.62,0,0,0,1.71-.57V98.73h1.92v9.59h-1.5l-.23-.88h0a3.83,3.83,0,0,1-2.47,1c-2,0-2.92-.89-2.92-3.26Z"/><path class="cls-6" d="M39.92,98.73h5.94l-.28,1.74H41.84v2.19h3.37v1.74H41.84v3.92H39.92Z"/><path class="cls-6" d="M47.22,98.73h5.93l-.28,1.74H49.13v2.19H52.5v1.74H49.13v3.92H47.22Z"/><path class="cls-6" d="M55,106.81v-6.57l-1-.17V98.73h3.84v1.34l-1,.17v6.57l1,.17v1.34H54.08V107Z"/><path class="cls-6" d="M59.15,102.31c0-2.54,1.25-3.68,3.55-3.68a3.82,3.82,0,0,1,2.88,1.07v1.5H64s-.11-.86-1.29-.86-1.65.62-1.65,1.93v2.51c0,1.31.39,1.93,1.65,1.93s1.29-.86,1.29-.86h1.57v1.5a3.82,3.82,0,0,1-2.88,1.07c-2.3,0-3.55-1.14-3.55-3.68Z"/><path class="cls-6" d="M67.75,106.81v-6.57l-1-.17V98.73h3.84v1.34l-1,.17v6.57l1,.17v1.34H66.79V107Z"/><path class="cls-6" d="M71.8,107.25l2.36-8.52h3.1l2.35,8.52v1.07H77.89l-.52-2a8.83,8.83,0,0,1-1.7.17,10.17,10.17,0,0,1-1.67-.15l-.52,2H71.8Zm2.62-2.54a7.27,7.27,0,0,0,1.25.11A6.85,6.85,0,0,0,77,104.7l-.57-2.13c-.22-.89-.5-2.13-.5-2.13H75.5s-.29,1.24-.53,2.13Z"/><path class="cls-6" d="M81.21,98.73h1.92v7.85H87l-.28,1.74H81.21Z"/><path class="cls-6" d="M87.94,98.73H94l-.28,1.74H89.86v2.19h3.51v1.74H89.86v2.18h4v1.74H87.94Z"/><path class="cls-6" d="M98.53,98.73H102c2.29,0,3.55,1.11,3.55,3.68v2.23c0,2.56-1.26,3.68-3.55,3.68H98.53Zm1.92,1.72v6.15h1.39c1.22,0,1.75-.45,1.75-1.79v-2.57c0-1.34-.53-1.79-1.75-1.79Z"/><path class="cls-6" d="M107.35,98.73h6.07l-.28,1.74h-3.88v2.19h3.52v1.74h-3.52v2.18h4v1.74h-5.93Z"/><path class="cls-6" d="M115.12,98.73H117v7.85h3.87l-.28,1.74h-5.51Z"/><path class="cls-6" d="M30.06,112.84H36l-.28,1.73H32v2.2h3.37v1.74H32v3.92H30.06Z"/><path class="cls-6" d="M36.91,116.42c0-2.54,1.26-3.68,3.55-3.68a3.82,3.82,0,0,1,2.88,1.07v1.5H41.78s-.12-.86-1.3-.86-1.65.62-1.65,1.93v2.51c0,1.31.39,1.93,1.65,1.93s1.3-.86,1.3-.86h1.56v1.49a3.8,3.8,0,0,1-2.88,1.08c-2.29,0-3.55-1.15-3.55-3.68Z"/><path class="cls-6" d="M47.8,112.84h3.47c2.3,0,3.1,1,3.1,2.62a2.43,2.43,0,0,1-1.11,2.12v0a2.44,2.44,0,0,1,1.25,2.07c0,1.72-.94,2.75-3.11,2.75H47.8Zm1.86,1.65v2.27h2.09a1.27,1.27,0,0,0,.75-1.17,1,1,0,0,0-1.16-1.1Zm0,3.89v2.4h1.79a1.11,1.11,0,0,0,1.19-1.2,1.33,1.33,0,0,0-.85-1.2Z"/><path class="cls-6" d="M55.69,121.36,58,112.84h3.1l2.36,8.52v1.07H61.78l-.53-2a8.75,8.75,0,0,1-1.7.17,9.07,9.07,0,0,1-1.66-.16l-.53,2H55.69Zm2.62-2.54a7.15,7.15,0,0,0,1.24.11,6,6,0,0,0,1.28-.13l-.56-2.13c-.23-.88-.51-2.12-.51-2.12h-.38s-.28,1.24-.52,2.12Z"/><path class="cls-6" d="M65.09,112.84h3.63c2.08,0,3.23,1,3.23,2.85a3.09,3.09,0,0,1-2,2.87,15.71,15.71,0,0,0,1.93,2.71v1.16H70.44A21.27,21.27,0,0,1,68,118.76H67v3.67H65.09Zm4,4.19a1.26,1.26,0,0,0,.89-1.26,1.12,1.12,0,0,0-1.24-1.2H67V117Z"/><path class="cls-6" d="M73.3,116.42c0-2.54,1.26-3.68,3.56-3.68a3.81,3.81,0,0,1,2.87,1.07v1.5H78.17s-.12-.86-1.3-.86-1.65.62-1.65,1.93v2.51c0,1.31.4,1.93,1.65,1.93s1.3-.86,1.3-.86h1.56v1.49a3.79,3.79,0,0,1-2.87,1.08c-2.3,0-3.56-1.15-3.56-3.68Z"/><path class="cls-6" d="M81.37,112.84h6.08l-.28,1.73H83.29v2.2H86.8v1.74H83.29v2.18h4v1.74H81.37Z"/><path class="cls-6" d="M89.14,112.84h1.92v7.85h3.88l-.28,1.74H89.14Z"/><path class="cls-6" d="M95.45,116.55c0-2.5,1.3-3.85,3.72-3.85s3.72,1.35,3.72,3.85v2.17c0,2.48-1.29,3.85-3.72,3.85s-3.72-1.36-3.72-3.85Zm3.72,4.31c1.27,0,1.8-.59,1.8-2v-2.45c0-1.41-.53-2-1.8-2s-1.8.6-1.8,2v2.45C97.37,120.27,97.9,120.86,99.17,120.86Z"/><path class="cls-6" d="M104.73,112.84h1.76l2.74,4.5c.22.36.76,1.45.76,1.45h0s-.07-1-.07-2v-4h1.86v9.59H110v-.78l-2.41-3.93-1-1.65h0s0,.87,0,1.82v4.54h-1.86Z"/><path class="cls-6" d="M113.4,121.36l2.36-8.52h3.1l2.36,8.52v1.07H119.5l-.53-2a8.75,8.75,0,0,1-1.7.17,9.18,9.18,0,0,1-1.67-.16l-.52,2H113.4Zm2.63-2.54a7.06,7.06,0,0,0,1.24.11,6,6,0,0,0,1.28-.13l-.56-2.13c-.23-.88-.51-2.12-.51-2.12h-.38s-.28,1.24-.52,2.12Z"/></g></g></svg>