<?xml version="1.0" encoding="utf-8"?>
<!-- Generator: Adobe Illustrator 25.2.0, SVG Export Plug-In . SVG Version: 6.00 Build 0)  -->
<svg version="1.1" id="ARTE" xmlns="http://www.w3.org/2000/svg" xmlns:xlink="http://www.w3.org/1999/xlink" x="0px" y="0px"
	 viewBox="0 0 262.1 112.5" style="enable-background:new 0 0 262.1 112.5;" xml:space="preserve">
<style type="text/css">
	.st0{fill:none;stroke:#FFFFFF;stroke-miterlimit:10;}
	.st1{fill:#FFFFFF;}
	.st2{fill:#E8B909;}
	.st3{fill:#FFDD00;}
	.st4{fill:#0054A4;}
	.st5{fill:#A30046;}
	.st6{fill:#E31837;}
	.st7{fill:#231F20;}
	.st8{fill:#00BE40;}
</style>
<g>
	<line class="st0" x1="131.1" y1="0" x2="131.1" y2="71.7"/>
	<g>
		<path class="st1" d="M0,87h3.8c2.3,0,3.5,1.1,3.5,3.3c0,2.5-2.3,3.3-2.3,3.3H2v3.8H0V87z M4.4,91.7c0,0,0.9-0.3,0.9-1.5
			c0-0.8-0.5-1.3-1.4-1.3H2.1v2.8H4.4z"/>
		<path class="st1" d="M8.2,96.1l2.5-9.2H14l2.5,9.2v1.2h-1.9L14,95.1c-0.6,0.1-1.2,0.2-1.8,0.2s-1.2-0.1-1.8-0.2L10,97.3H8.2V96.1z
			 M11,93.4c0.4,0.1,0.9,0.1,1.3,0.1c0.5,0,0.9,0,1.4-0.1l-0.6-2.3c-0.2-1-0.5-2.3-0.5-2.3h-0.4c0,0-0.3,1.3-0.6,2.3L11,93.4z"/>
		<path class="st1" d="M18.1,87H22c2.2,0,3.5,1.1,3.5,3.1c0,2.4-2.1,3.1-2.1,3.1s1,1.8,2.1,2.9v1.2h-1.6c-1.3-1.4-2.6-3.9-2.6-3.9
			h-1.1v3.9h-2.1C18.1,97.3,18.1,87,18.1,87z M22.5,91.5c0,0,1-0.2,1-1.4c0-0.8-0.5-1.3-1.3-1.3h-1.9v2.6h2.2V91.5z"/>
		<path class="st1" d="M30.8,88.8v8.5h-2.1v-8.5h-2.5V87h7.1L33,88.9L30.8,88.8L30.8,88.8z"/>
		<path class="st1" d="M34.6,87h1.9l2.9,4.8c0.2,0.4,0.8,1.6,0.8,1.6l0,0c0,0-0.1-1.1-0.1-2.1V87h2v10.3h-2v-0.8l-2.6-4.2
			c-0.3-0.6-1-1.8-1-1.8l0,0c0,0,0,0.9,0,2v4.9h-2L34.6,87L34.6,87z"/>
		<path class="st1" d="M44.3,87h6.5l-0.3,1.9h-4.2v2.4h3.8v1.9h-3.8v2.4h4.3v1.9h-6.4V87H44.3z"/>
		<path class="st1" d="M52.5,87h3.9c2.2,0,3.5,1.1,3.5,3.1c0,2.4-2.1,3.1-2.1,3.1s1,1.8,2.1,2.9v1.2h-1.6c-1.3-1.4-2.6-3.9-2.6-3.9
			h-1.1v3.9h-2.1C52.5,97.3,52.5,87,52.5,87z M56.9,91.5c0,0,1-0.2,1-1.4c0-0.8-0.5-1.3-1.3-1.3h-1.9v2.6h2.2V91.5z"/>
		<path class="st1" d="M64.3,90.8c0-2.7,1.4-4,3.8-4c2.1,0,3.1,1.2,3.1,1.2v1.6h-1.7c0,0-0.1-0.9-1.4-0.9c-1.4,0-1.8,0.7-1.8,2.1
			v2.7c0,1.4,0.4,2.1,1.8,2.1c1.3,0,1.4-0.9,1.4-0.9h1.7v1.6c0,0-1,1.2-3.1,1.2c-2.5,0-3.8-1.2-3.8-4V90.8z"/>
		<path class="st1" d="M72.5,91c0-2.7,1.4-4.1,4-4.1s4,1.5,4,4.1v2.3c0,2.7-1.4,4.1-4,4.1s-4-1.5-4-4.1V91z M76.5,95.6
			c1.4,0,1.9-0.6,1.9-2.2v-2.6c0-1.5-0.6-2.2-1.9-2.2c-1.4,0-1.9,0.6-1.9,2.2v2.6C74.5,95,75.1,95.6,76.5,95.6z"/>
		<path class="st1" d="M82.3,87h3.4l1.2,5.6c0.2,1.1,0.5,3,0.5,3h0.1c0,0,0.3-2,0.5-3l1.2-5.6h3.4v10.3h-2v-5.1
			c0-0.9,0.1-3.5,0.1-3.5h-0.2c0,0-0.4,2-0.7,3.1l-1.3,5.6h-2.3l-1.3-5.6c-0.2-1-0.7-3.1-0.7-3.1H84c0,0,0,2.6,0,3.5v5.1h-2V87H82.3
			z"/>
		<path class="st1" d="M94.8,87h3.4l1.2,5.6c0.2,1.1,0.5,3,0.5,3h0.1c0,0,0.3-2,0.5-3l1.2-5.6h3.4v10.3h-2v-5.1
			c0-0.9,0.1-3.5,0.1-3.5H103c0,0-0.4,2-0.7,3.1l-1.3,5.6h-2.3l-1.3-5.6c-0.2-1-0.7-3.1-0.7-3.1h-0.2c0,0,0,2.6,0,3.5v5.1h-2V87
			H94.8z"/>
		<path class="st1" d="M107.3,87h6.5l-0.3,1.9h-4.2v2.4h3.8v1.9h-3.8v2.4h4.3v1.9h-6.4L107.3,87L107.3,87z"/>
		<path class="st1" d="M115.5,87h3.9c2.2,0,3.5,1.1,3.5,3.1c0,2.4-2.1,3.1-2.1,3.1s1,1.8,2.1,2.9v1.2h-1.6c-1.3-1.4-2.6-3.9-2.6-3.9
			h-1.1v3.9h-2.1C115.5,97.3,115.5,87,115.5,87z M119.8,91.5c0,0,1-0.2,1-1.4c0-0.8-0.5-1.3-1.3-1.3h-1.9v2.6h2.2V91.5z"/>
		<path class="st1" d="M124.2,90.8c0-2.7,1.4-4,3.8-4c2.1,0,3.1,1.2,3.1,1.2v1.6h-1.7c0,0-0.1-0.9-1.4-0.9c-1.4,0-1.8,0.7-1.8,2.1
			v2.7c0,1.4,0.4,2.1,1.8,2.1c1.3,0,1.4-0.9,1.4-0.9h1.7v1.6c0,0-1,1.2-3.1,1.2c-2.5,0-3.8-1.2-3.8-4V90.8z"/>
		<path class="st1" d="M133.3,95.7v-7.1l-1-0.2V87h4.1v1.4l-1,0.2v7.1l1,0.2v1.4h-4.1v-1.4L133.3,95.7z"/>
		<path class="st1" d="M137.5,96.1L140,87h3.3l2.5,9.2v1.2H144l-0.6-2.2c-0.6,0.1-1.2,0.2-1.8,0.2s-1.2-0.1-1.8-0.2l-0.6,2.2h-1.8
			v-1.3H137.5z M140.3,93.4c0.4,0.1,0.9,0.1,1.3,0.1c0.5,0,0.9,0,1.4-0.1l-0.6-2.3c-0.2-1-0.5-2.3-0.5-2.3h-0.4c0,0-0.3,1.3-0.6,2.3
			L140.3,93.4z"/>
		<path class="st1" d="M147.5,87h2.1v8.5h4.2l-0.3,1.9h-5.9V87H147.5z"/>
		<path class="st1" d="M154.9,87h6.5l-0.3,1.9h-4.2v2.4h3.8v1.9h-3.8v2.4h4.3v1.9h-6.4L154.9,87L154.9,87z"/>
		<path class="st1" d="M166.1,87h2.1v6.8c0,1.4,0.5,1.8,1.7,1.8s1.8-0.6,1.8-0.6v-8h2.1v10.3h-1.6l-0.2-0.9h-0.1c0,0-1.1,1-2.7,1
			c-2.1,0-3.1-1-3.1-3.5V87z"/>
		<path class="st1" d="M175.9,87h6.4l-0.3,1.9h-4v2.4h3.6v1.9H178v4.2h-2.1V87z"/>
		<path class="st1" d="M183.6,87h6.4l-0.3,1.9h-4v2.4h3.6v1.9h-3.6v4.2h-2.1L183.6,87L183.6,87z"/>
		<path class="st1" d="M191.9,95.7v-7.1l-1-0.2V87h4.1v1.4l-1,0.2v7.1l1,0.2v1.4h-4.1v-1.4L191.9,95.7z"/>
		<path class="st1" d="M196.3,90.8c0-2.7,1.4-4,3.8-4c2.1,0,3.1,1.2,3.1,1.2v1.6h-1.7c0,0-0.1-0.9-1.4-0.9c-1.4,0-1.8,0.7-1.8,2.1
			v2.7c0,1.4,0.4,2.1,1.8,2.1c1.3,0,1.4-0.9,1.4-0.9h1.7v1.6c0,0-1,1.2-3.1,1.2c-2.5,0-3.8-1.2-3.8-4V90.8z"/>
		<path class="st1" d="M205.4,95.7v-7.1l-1-0.2V87h4.1v1.4l-1,0.2v7.1l1,0.2v1.4h-4.1v-1.4L205.4,95.7z"/>
		<path class="st1" d="M209.6,96.1l2.5-9.2h3.3l2.5,9.2v1.2H216l-0.6-2.2c-0.6,0.1-1.2,0.2-1.8,0.2s-1.2-0.1-1.8-0.2l-0.6,2.2h-1.8
			v-1.2H209.6z M212.5,93.4c0.4,0.1,0.9,0.1,1.3,0.1c0.5,0,0.9,0,1.4-0.1l-0.6-2.3c-0.2-1-0.5-2.3-0.5-2.3h-0.4c0,0-0.3,1.3-0.6,2.3
			L212.5,93.4z"/>
		<path class="st1" d="M219.6,87h2.1v8.5h4.2l-0.3,1.9h-5.9V87H219.6z"/>
		<path class="st1" d="M227,87h6.5l-0.3,1.9H229v2.4h3.8v1.9H229v2.4h4.3v1.9H227V87z"/>
		<path class="st1" d="M238.3,87h3.7c2.5,0,3.8,1.2,3.8,4v2.4c0,2.8-1.4,4-3.8,4h-3.7V87z M240.3,88.8v6.6h1.5
			c1.3,0,1.9-0.5,1.9-1.9v-2.8c0-1.4-0.6-1.9-1.9-1.9C241.8,88.8,240.3,88.8,240.3,88.8z"/>
		<path class="st1" d="M247.6,87h6.5l-0.3,1.9h-4.2v2.4h3.8v1.9h-3.8v2.4h4.3v1.9h-6.4L247.6,87L247.6,87z"/>
		<path class="st1" d="M255.8,87h2.1v8.5h4.2l-0.3,1.9h-5.9V87H255.8z"/>
		<path class="st1" d="M82.2,102h6.4l-0.3,1.9h-4v2.4h3.6v1.9h-3.6v4.2h-2.1V102z"/>
		<path class="st1" d="M89.6,105.9c0-2.7,1.4-4,3.8-4c2.1,0,3.1,1.2,3.1,1.2v1.6h-1.7c0,0-0.1-0.9-1.4-0.9c-1.4,0-1.8,0.7-1.8,2.1
			v2.7c0,1.4,0.4,2.1,1.8,2.1c1.3,0,1.4-0.9,1.4-0.9h1.7v1.6c0,0-1,1.2-3.1,1.2c-2.5,0-3.8-1.2-3.8-4V105.9z"/>
		<path class="st1" d="M101.2,102h3.7c2.5,0,3.3,1.1,3.3,2.8c0,1.6-1.2,2.3-1.2,2.3l0,0c0,0,1.4,0.7,1.4,2.2c0,1.9-1,3-3.4,3h-3.9
			L101.2,102L101.2,102z M103.2,103.8v2.4h2.2c0,0,0.8-0.3,0.8-1.3c0-0.6-0.3-1.2-1.2-1.2L103.2,103.8L103.2,103.8z M103.2,108v2.6
			h1.9c0.8,0,1.3-0.5,1.3-1.3c0-1-0.9-1.3-0.9-1.3S103.2,108,103.2,108z"/>
		<path class="st1" d="M109.5,111.2l2.5-9.2h3.3l2.5,9.2v1.2h-1.9l-0.6-2.2c-0.6,0.1-1.2,0.2-1.8,0.2c-0.6,0-1.2-0.1-1.8-0.2
			l-0.6,2.2h-1.8v-1.2H109.5z M112.3,108.5c0.4,0.1,0.9,0.1,1.3,0.1c0.5,0,0.9,0,1.4-0.1l-0.6-2.3c-0.2-1-0.5-2.3-0.5-2.3h-0.4
			c0,0-0.3,1.3-0.6,2.3L112.3,108.5z"/>
		<path class="st1" d="M119.5,102h3.9c2.2,0,3.5,1.1,3.5,3.1c0,2.4-2.1,3.1-2.1,3.1s1,1.8,2.1,2.9v1.2h-1.6
			c-1.3-1.4-2.6-3.9-2.6-3.9h-1.1v3.9h-2.1C119.5,112.3,119.5,102,119.5,102z M123.8,106.6c0,0,1-0.2,1-1.4c0-0.8-0.5-1.3-1.3-1.3
			h-1.9v2.6h2.2V106.6z"/>
		<path class="st1" d="M128.2,105.9c0-2.7,1.4-4,3.8-4c2.1,0,3.1,1.2,3.1,1.2v1.6h-1.7c0,0-0.1-0.9-1.4-0.9c-1.4,0-1.8,0.7-1.8,2.1
			v2.7c0,1.4,0.4,2.1,1.8,2.1c1.3,0,1.4-0.9,1.4-0.9h1.7v1.6c0,0-1,1.2-3.1,1.2c-2.5,0-3.8-1.2-3.8-4V105.9z"/>
		<path class="st1" d="M136.7,102h6.5l-0.3,1.9h-4.2v2.4h3.8v1.9h-3.8v2.4h4.3v1.9h-6.4L136.7,102L136.7,102z"/>
		<path class="st1" d="M144.9,102h2.1v8.5h4.2l-0.3,1.9H145V102H144.9z"/>
		<path class="st1" d="M152,106c0-2.7,1.4-4.1,4-4.1s4,1.5,4,4.1v2.3c0,2.7-1.4,4.1-4,4.1s-4-1.5-4-4.1V106z M156,110.7
			c1.4,0,1.9-0.6,1.9-2.2v-2.6c0-1.5-0.6-2.2-1.9-2.2c-1.4,0-1.9,0.6-1.9,2.2v2.6C154.1,110,154.7,110.7,156,110.7z"/>
		<path class="st1" d="M161.9,102h1.9l2.9,4.8c0.2,0.4,0.8,1.6,0.8,1.6l0,0c0,0-0.1-1.1-0.1-2.1V102h2v10.3h-2v-0.8l-2.6-4.2
			c-0.3-0.6-1-1.8-1-1.8l0,0c0,0,0,0.9,0,2v4.9h-2V102H161.9z"/>
		<path class="st1" d="M171.1,111.2l2.5-9.2h3.3l2.5,9.2v1.2h-1.9l-0.6-2.2c-0.6,0.1-1.2,0.2-1.8,0.2s-1.2-0.1-1.8-0.2l-0.6,2.2
			h-1.8v-1.2H171.1z M173.9,108.5c0.4,0.1,0.9,0.1,1.3,0.1c0.5,0,0.9,0,1.4-0.1l-0.6-2.3c-0.2-1-0.5-2.3-0.5-2.3H175
			c0,0-0.3,1.3-0.6,2.3L173.9,108.5z"/>
	</g>
	<g>
		<g>
			<path class="st2" d="M208.6,1.2l0.4,0.2c3.9,2.6,7.1,3.1,11.9,3.1c1.7,0,3.5-0.3,5.3-0.9l0.5-0.2l2.3,3.2L228.6,7
				c-8.5,11.3-1.9,23.4,2.8,28.3l0.4,0.4l-0.4,0.4c-0.6,0.6-1.7,1.7-2.5,2.5l-0.3,0.3v0.4v0.1c0,0.1,0,0.2,0,0.4v0.1
				c0.4,7.5-1.5,13.7-5.8,18.3c-4.5,4.9-11.6,7.9-20,8.4h-0.3l-0.2,0.2c-2.1,1.9-4.3,3.6-4.3,3.6l-0.4,0.3l-0.4-0.3
				c-0.1-0.1-2.2-1.7-4.3-3.6l-0.2-0.2h-0.3c-8.4-0.5-15.5-3.4-20-8.4c-4.2-4.7-6.2-10.8-5.8-18.3v-0.1c0-0.2,0-0.3,0-0.4l0,0l0,0
				v-0.1v-0.4l-0.3-0.3c-0.7-0.8-1.8-1.9-2.5-2.5l-0.4-0.4l0.4-0.4c4.7-4.9,11.3-17,2.8-28.3l-0.2-0.3l2.3-3.2l0.5,0.2
				c1.7,0.6,3.6,0.9,5.3,0.9c4.8,0,8-0.5,11.9-3.1l0.4-0.2l0.4,0.2C190.7,3.9,194,5,197.7,5s7.1-1.1,10.5-3.5L208.6,1.2"/>
			<path class="st1" d="M171.9,29c2.7-6.1,3.6-13.9-0.8-21.5c1.1,0.2,2.3,0.3,3.5,0.3c4.6,0,8.2-0.4,12.2-2.7
				c3.2,1.9,6.8,3.2,10.9,3.2c4.2,0,7.8-1.2,10.9-3.2c4,2.3,7.6,2.7,12.2,2.7c1.2,0,2.4-0.1,3.5-0.3c-4.5,7.7-3.5,15.5-0.8,21.6
				h-51.6"/>
			<path class="st3" d="M223.5,29c-2.7-6.1-3.6-13.9,0.8-21.6c-1.1,0.2-2.3,0.3-3.5,0.3c-4.6,0-8.2-0.4-12.2-2.7
				c-3.2,1.9-6.8,3.2-10.9,3.2h-0.1V29H223.5z"/>
			<g>
				<path class="st4" d="M217.8,58.4c5.1-3.7,8.1-9.6,7.6-18.3c-0.1-0.5-0.1-0.5-0.1-1h-7.5V58.4z"/>
				<path class="st5" d="M209.8,62.1c3-0.8,5.7-2,8-3.7V39.1h-8V62.1z"/>
				<path class="st5" d="M177.6,58.4c2.3,1.7,5,2.9,8,3.7v-23h-8V58.4z"/>
				<path class="st4" d="M170,40.1c-0.4,8.7,2.6,14.6,7.6,18.3V39.1h-7.5C170.1,39.6,170,39.6,170,40.1z"/>
				<g>
					<path class="st5" d="M197.7,43.4c1.5,0,2.8,0.4,4,1.2v-5.4h-8v5.4C194.9,43.8,196.3,43.4,197.7,43.4z"/>
					<path class="st5" d="M197.7,58.5c-1.5,0-2.9-0.4-4-1.2v6c0.1,0,0.3,0,0.4,0c2.7,0,5.1,0,7.2,0c0.1,0,0.3,0,0.4,0v-6
						C200.6,58.1,199.2,58.5,197.7,58.5z"/>
				</g>
				<path class="st4" d="M201.8,39.1v5.4c2.1,1.3,3.6,3.7,3.6,6.4s-1.4,5.1-3.6,6.4v6c2.8-0.1,5.5-0.5,8-1.2v-23
					C209.8,39.1,201.8,39.1,201.8,39.1z"/>
				<path class="st4" d="M190.2,50.9c0-2.7,1.4-5.1,3.5-6.4v-5.4h-8v23c2.5,0.7,5.2,1.1,8,1.2v-6C191.6,56,190.2,53.6,190.2,50.9z"
					/>
			</g>
			<path class="st6" d="M173.7,14.3c0.5,2.6,0.6,5.2,0.2,7.7h7.8v7h7.7v-7h8.2v-7.7h-8.2V6.5c-0.9-0.4-1.8-0.9-2.7-1.4
				c-1.7,1-3.4,1.6-5,2v7.2C181.7,14.3,173.7,14.3,173.7,14.3z"/>
			<g>
				<path class="st6" d="M214.2,29V7.2c-0.9-0.2-1.8-0.5-2.8-0.8V29H214.2z"/>
				<path class="st6" d="M203.1,29V7.5c-0.9,0.2-1.8,0.4-2.8,0.6V29H203.1z"/>
				<path class="st6" d="M219.7,29V7.8c-1,0-1.9-0.1-2.8-0.1V29H219.7z"/>
				<path class="st6" d="M208.6,29V5.1c-0.9,0.5-1.8,1-2.8,1.4V29H208.6z"/>
			</g>
			<path class="st7" d="M233.2,35.7l-1.1-1.1c-4.5-4.7-10.8-16.3-2.7-27.1l0.6-0.8l-3.1-4.3l-1.1,0.4c-1.6,0.6-3.4,0.9-5,0.9
				c-4.6,0-7.7-0.5-11.4-2.9l-0.9-0.6l-0.9,0.6c-3.3,2.3-6.5,3.4-10,3.4s-6.7-1.1-10-3.4l-0.9-0.6L186,0.7
				c-3.7,2.5-6.8,2.9-11.4,2.9c-1.6,0-3.3-0.3-5-0.9l-1.1-0.4l-3.1,4.3l0.6,0.8c8.1,10.8,1.8,22.4-2.7,27.1l-1.1,1.1l1.1,1.1
				c0.6,0.6,1.6,1.6,2.4,2.5c0,0.1,0,0.1,0,0.1c0,0.1,0,0.2,0,0.3v0.1c-0.4,7.8,1.6,14.2,6,19c4.7,5.1,12,8.2,20.6,8.7
				c2.1,1.9,4.3,3.6,4.4,3.6l0.9,0.7l0.9-0.7c0.1-0.1,2.3-1.7,4.4-3.6c8.6-0.5,15.9-3.5,20.6-8.7c4.4-4.8,6.4-11.2,6-19v-0.1
				c0-0.2,0-0.2,0-0.3v-0.1c0.8-0.9,1.9-2,2.4-2.5L233.2,35.7z M228,38.7c0.1,0.8,0,0.7,0.1,1.2C229,57.2,217,65.4,202.4,66
				c-2.2,2.1-4.7,3.9-4.7,3.9s-2.5-1.8-4.7-3.9c-14.6-0.6-26.6-8.8-25.7-26.1c0.1-0.5,0-0.4,0.1-1.2c-0.8-0.9-2.2-2.3-2.9-3.1
				c5.2-5.4,11.3-17.8,2.9-29.1l1.8-2.4c1.7,0.6,3.6,1,5.5,1c4.9,0,8.2-0.5,12.2-3.2c3.2,2.2,6.7,3.6,10.9,3.6s7.7-1.4,10.9-3.6
				c4.1,2.7,7.4,3.2,12.2,3.2c1.9,0,3.8-0.4,5.5-1l1.8,2.4c-8.5,11.2-2.4,23.7,2.9,29.1C230.3,36.4,228.9,37.8,228,38.7z"/>
			<path class="st7" d="M169.9,39.1c0,0.3,0,0.4-0.1,0.5c0,0.1,0,0.3-0.1,0.5c-0.3,6.7,1.3,12,4.9,16c4.1,4.6,10.9,7.1,19.4,7.5h0.3
				c1.4,0,2.8,0,4.1,0c1,0,1.9,0,2.8,0c8.6-0.4,15.3-2.9,19.4-7.5c3.6-4,5.3-9.4,4.9-16c0-0.2,0-0.4-0.1-0.5c0-0.1,0-0.3-0.1-0.5
				v-0.2h-55.7L169.9,39.1z M170.2,40.1c0-0.2,0-0.3,0.1-0.5c0-0.1,0-0.2,0-0.4h54.8c0,0.1,0,0.2,0,0.4c0,0.1,0,0.2,0.1,0.4
				c0.3,6.5-1.3,11.8-4.8,15.7c-4.1,4.5-10.7,7-19.1,7.3c-2,0-4.3,0-6.9,0h-0.3c-8.4-0.3-15.1-2.9-19.1-7.3
				C171.5,51.9,169.9,46.6,170.2,40.1z"/>
			<path class="st7" d="M171.7,28.9l-0.1,0.3h52.3l-0.1-0.3c-2.3-5.2-4-13.1,0.8-21.4l0.3-0.4l-0.5,0.1c-1.2,0.2-2.3,0.3-3.4,0.3
				c-4.7,0-8.1-0.4-12.1-2.7l-0.1-0.1l-0.1,0.1c-3.5,2.1-7,3.1-10.8,3.1s-7.3-1-10.8-3.1L187,4.7l-0.1,0.1
				c-3.9,2.2-7.4,2.7-12.1,2.7c-1.1,0-2.2-0.1-3.4-0.3l-0.5-0.1l0.3,0.4C175.7,15.8,174,23.7,171.7,28.9z M197.9,8.5
				c3.8,0,7.3-1,10.8-3.1c4,2.2,7.5,2.7,12.2,2.7c1,0,2-0.1,3-0.3c-4.5,8.1-2.9,15.8-0.7,21h-25.3V8.5z M171.6,7.8
				c1,0.2,2.1,0.2,3,0.2c4.7,0,8.2-0.4,12.2-2.7c3.4,2,6.9,3.1,10.6,3.1v20.3h-25.1C174.5,23.6,176,15.8,171.6,7.8z"/>
			<polygon class="st7" points="191.1,32 191.1,30.5 186,30.5 186,37.7 187.5,37.7 187.5,34.7 189.6,34.7 189.6,33.2 187.5,33.2 
				187.5,32 			"/>
			<path class="st7" d="M197.2,31.9c0.6,0,1,0.2,1.2,0.7v0.1l1.4-0.7v-0.1c-0.5-1-1.4-1.6-2.6-1.6c-1.9,0-3.2,1.5-3.2,3.7
				s1.2,3.7,3.1,3.7c1.2,0,2.1-0.5,2.7-1.6V36l-1.3-0.8v0.1c-0.4,0.6-0.7,0.9-1.3,0.9c-1,0-1.6-0.9-1.6-2.2
				C195.6,32.7,196.2,31.9,197.2,31.9z"/>
			<path class="st7" d="M209.2,32.4c0-1.2-0.9-1.9-2.3-1.9h-3.3v7.2h3.3c1.6,0,2.6-0.9,2.6-2.3c0-0.7-0.3-1.2-0.9-1.5
				C209,33.5,209.2,33,209.2,32.4z M205.1,31.9h1.7c0.7,0,0.8,0.3,0.8,0.6c0,0.4-0.2,0.6-0.7,0.6h-1.8V31.9z M206.9,36.2h-1.8v-1.7
				h1.8c0.6,0,0.9,0.3,0.9,0.8C207.9,35.9,207.5,36.2,206.9,36.2z"/>
			<path class="st7" d="M197.7,58.7c4.3,0,7.7-3.5,7.7-7.7c0-4.3-3.5-7.7-7.7-7.7c-4.3,0-7.7,3.5-7.7,7.7S193.4,58.7,197.7,58.7z
				 M197.7,58.2c-1.5,0-2.9-0.5-4.1-1.2c1.5-0.1,3.6-0.5,4.8-1.2s2.5-1.6,2.8-2.9c0.9-0.4,2.6-0.2,2.8,1.6
				C202.8,56.7,200.4,58.2,197.7,58.2z M194.1,52.6c0.4,0.2,0.8,0.4,1.3,0.5c1,0.1,2.4-0.9,2.5-2c1.4-1,2.5-0.1,2.8,0.7
				c0.6,1.5-0.7,2.6-2.4,3.7c-1.3,0.8-3.7,1.2-5.2,1.2c-0.8-0.7-1.5-1.5-1.9-2.4c0.1,0,0.1,0,0.2,0
				C192.5,54.1,193.5,53.5,194.1,52.6z M193,48.9c0-1.4,0.4-2.7,0.7-4c1-0.7,2.2-1.1,3.4-1.2c-0.8,0.9-0.7,2.3,0.2,3
				c-0.2,0.1-0.4,0.3-0.5,0.6c-0.6,1-0.7,2.7,0.8,3.8c-0.1,0.9-1.2,1.7-2,1.6C193.8,52.4,193,50.8,193,48.9z M201.3,52.4
				c0-0.3-0.1-0.6-0.2-0.8c-0.4-0.9-1.7-2-3.4-0.9c-1.2-0.9-1.2-2.3-0.6-3.2c0.8-1.3,2.8-0.8,4.5,0.2c1.4,0.8,2.9,2.5,3.3,4
				c-0.1,0.8-0.3,1.5-0.6,2.2C203.9,52.3,202.3,52,201.3,52.4z M201.8,47.2c-1.3-0.7-2.9-1.4-4.1-0.9c-0.9-0.6-1.1-2,0.1-2.7
				c3.8,0,7,3,7.2,6.8C204.3,49.2,203,47.9,201.8,47.2z M193.1,45.3c-0.1,0.5-0.3,1-0.4,1.5c-0.4,1.7-0.4,4.3,1,5.6
				c-0.5,0.9-1.4,1.4-2.4,1.4c-0.1,0-0.3,0-0.4,0c-0.3-0.8-0.5-1.8-0.5-2.7C190.4,48.6,191.5,46.6,193.1,45.3z"/>
		</g>
	</g>
</g>
<g>
	<path class="st8" d="M34.9,0.3h57.8c3.8,0,7,3.1,7,7v57.8c0,3.8-3.1,7-7,7H34.9c-3.8,0-7-3.1-7-7V7.3C28,3.4,31.1,0.3,34.9,0.3z"/>
	<rect x="42.2" y="45.7" class="st1" width="43.4" height="3.4"/>
	<path class="st1" d="M54,28.5V25H42.2v16.4h4.3v-5.8h6.7V32h-6.7v-3.5H54z"/>
	<path class="st1" d="M67,32.9c1.7-0.8,2.6-2.1,2.6-3.6c0-2.6-2-4.2-5.3-4.2H56v16.4h8.5c3.6,0,5.8-1.7,5.8-4.6
		C70.2,34.9,69,33.5,67,32.9z M60.2,28.3h3.3c1.2,0,1.9,0.6,1.9,1.6s-0.7,1.6-1.9,1.6h-3.3V28.3z M63.9,38.1h-3.6v-3.3H64
		c1.2,0,1.9,0.6,1.9,1.7C65.8,37.5,65.1,38.1,63.9,38.1L63.9,38.1z"/>
	<path class="st1" d="M80.7,31.4l-2-0.3c-1.9-0.3-2.5-0.8-2.5-1.7c0-0.9,0.8-1.5,2.4-1.5s2.3,0.6,2.7,2l4.1-0.5
		c-0.6-3.2-2.9-4.8-6.7-4.8c-4.2,0-7,2.1-7,5.3c0,2.8,1.7,4.4,5.1,4.9l2.1,0.3c2.2,0.3,2.7,0.8,2.7,1.8s-0.8,1.5-2.7,1.5
		c-1.4,0.1-2.7-0.8-3.1-2.2l-4.3,0.6c0.7,3.3,3.2,4.9,7.3,4.9c4.6,0,7.3-2,7.3-5.3C86.1,33.5,84.4,32,80.7,31.4z"/>
</g>
</svg>
