<?xml version="1.0" encoding="utf-8"?>
<!-- Generator: Adobe Illustrator 25.2.0, SVG Export Plug-In . SVG Version: 6.00 Build 0)  -->
<svg version="1.1" id="ARTE" xmlns="http://www.w3.org/2000/svg" xmlns:xlink="http://www.w3.org/1999/xlink" x="0px" y="0px"
	 viewBox="0 0 459.5 71.8" style="enable-background:new 0 0 459.5 71.8;" xml:space="preserve">
<style type="text/css">
	.st0{fill:#E8B909;}
	.st1{fill:#FFFFFF;}
	.st2{fill:#FFDD00;}
	.st3{fill:#0054A4;}
	.st4{fill:#A30046;}
	.st5{fill:#E31837;}
	.st6{fill:#231F20;}
	.st7{fill:none;stroke:#231F20;stroke-width:1.0007;stroke-miterlimit:10;}
	.st8{fill:#00BE40;}
</style>
<g>
	<g>
		<g>
			<path class="st0" d="M180.4,1.2l0.4,0.2c3.9,2.6,7.1,3.1,11.9,3.1c1.7,0,3.5-0.3,5.3-0.9l0.5-0.2l2.3,3.2l-0.2,0.3
				c-8.5,11.3-1.9,23.4,2.8,28.3l0.4,0.4l-0.4,0.4c-0.6,0.6-1.7,1.7-2.5,2.5l-0.3,0.3v0.4v0.1c0,0.1,0,0.2,0,0.4v0.1
				c0.4,7.5-1.5,13.7-5.8,18.3c-4.5,4.9-11.6,7.9-20,8.4h-0.3l-0.2,0.2c-2.1,1.9-4.3,3.6-4.3,3.6l-0.4,0.3l-0.4-0.3
				c-0.1-0.1-2.2-1.7-4.3-3.6l-0.2-0.2h-0.3c-8.4-0.5-15.5-3.4-20-8.4c-4.2-4.7-6.2-10.8-5.8-18.3v-0.1c0-0.2,0-0.3,0-0.4l0,0l0,0
				v-0.1v-0.4l-0.3-0.3c-0.7-0.8-1.8-1.9-2.5-2.5l-0.4-0.4l0.4-0.4c4.7-4.9,11.3-17,2.8-28.3l-0.2-0.3l2.3-3.2l0.5,0.2
				c1.7,0.6,3.6,0.9,5.3,0.9c4.8,0,8-0.5,11.9-3.1l0.4-0.2l0.4,0.2c3.5,2.4,6.8,3.5,10.5,3.5s7.1-1.1,10.5-3.5L180.4,1.2"/>
			<path class="st1" d="M143.7,28.9c2.7-6.1,3.6-13.9-0.8-21.5c1.1,0.2,2.3,0.3,3.5,0.3c4.6,0,8.2-0.4,12.2-2.7
				c3.2,1.9,6.8,3.2,10.9,3.2c4.2,0,7.8-1.2,10.9-3.2c4,2.3,7.6,2.7,12.2,2.7c1.2,0,2.4-0.1,3.5-0.3c-4.5,7.7-3.5,15.5-0.8,21.6
				h-51.6"/>
			<path class="st2" d="M195.3,28.9c-2.7-6.1-3.6-13.9,0.8-21.6c-1.1,0.2-2.3,0.3-3.5,0.3c-4.6,0-8.2-0.4-12.2-2.7
				c-3.2,1.9-6.8,3.2-10.9,3.2h-0.1v20.8C169.4,28.9,195.3,28.9,195.3,28.9z"/>
			<g>
				<path class="st3" d="M189.7,58.4c5.1-3.7,8.1-9.6,7.6-18.3c-0.1-0.5-0.1-0.5-0.1-1h-7.5V58.4z"/>
				<path class="st4" d="M181.6,62.1c3-0.8,5.7-2,8-3.7V39h-8V62.1z"/>
				<path class="st4" d="M149.4,58.4c2.3,1.7,5,2.9,8,3.7V39h-8V58.4z"/>
				<path class="st3" d="M141.8,40.1c-0.4,8.7,2.6,14.6,7.6,18.3V39h-7.5C141.9,39.5,141.8,39.6,141.8,40.1z"/>
				<g>
					<path class="st4" d="M169.6,43.3c1.5,0,2.8,0.4,4,1.2V39h-8v5.4C166.7,43.7,168.1,43.3,169.6,43.3z"/>
					<path class="st4" d="M169.6,58.5c-1.5,0-2.9-0.4-4-1.2v6c0.1,0,0.3,0,0.4,0c2.7,0,5.1,0,7.2,0c0.1,0,0.3,0,0.4,0v-6
						C172.4,58,171,58.5,169.6,58.5z"/>
				</g>
				<path class="st3" d="M173.6,39v5.4c2.1,1.3,3.6,3.7,3.6,6.4s-1.4,5.1-3.6,6.4v6c2.8-0.1,5.5-0.5,8-1.2V39H173.6z"/>
				<path class="st3" d="M162,50.9c0-2.7,1.4-5.1,3.5-6.4V39h-8v23c2.5,0.7,5.2,1.1,8,1.2v-6C163.4,56,162,53.6,162,50.9z"/>
			</g>
			<path class="st5" d="M145.6,14.2c0.5,2.6,0.6,5.2,0.2,7.7h7.8v7h7.7v-7h8.2v-7.7h-8.2V6.4c-0.9-0.4-1.8-0.9-2.7-1.4
				c-1.7,1-3.4,1.6-5,2v7.2H145.6z"/>
			<g>
				<path class="st5" d="M186,28.9V7.1c-0.9-0.2-1.8-0.5-2.8-0.8v22.6H186z"/>
				<path class="st5" d="M174.9,28.9V7.5c-0.9,0.2-1.8,0.4-2.8,0.6V29L174.9,28.9z"/>
				<path class="st5" d="M191.5,28.9V7.7c-1,0-1.9-0.1-2.8-0.1V29h2.8V28.9z"/>
				<path class="st5" d="M180.4,28.9V5c-0.9,0.5-1.8,1-2.8,1.4v22.5H180.4z"/>
			</g>
			<path class="st6" d="M205,35.6l-1.1-1.1c-4.5-4.7-10.8-16.3-2.7-27.1l0.6-0.8l-3.1-4.3l-1.1,0.4c-1.6,0.6-3.4,0.9-5,0.9
				c-4.6,0-7.7-0.5-11.4-2.9L180.4,0l-0.9,0.6c-3.3,2.3-6.5,3.4-10,3.4s-6.7-1.1-10-3.4L158.7,0l-0.9,0.6c-3.7,2.5-6.8,2.9-11.4,2.9
				c-1.6,0-3.3-0.3-5-0.9l-1.1-0.4l-3.1,4.3l0.6,0.8c8.1,10.8,1.8,22.4-2.7,27.1l-1.1,1.1l1.1,1.1c0.6,0.6,1.6,1.6,2.4,2.5
				c0,0.1,0,0.1,0,0.1c0,0.1,0,0.2,0,0.3v0.1c-0.4,7.8,1.6,14.2,6,19c4.7,5.1,12,8.2,20.6,8.7c2.1,1.9,4.3,3.6,4.4,3.6l0.9,0.7
				l0.9-0.7c0.1-0.1,2.3-1.7,4.4-3.6c8.6-0.5,15.9-3.5,20.6-8.7c4.4-4.8,6.4-11.2,6-19v-0.1c0-0.2,0-0.2,0-0.3v-0.1
				c0.8-0.9,1.9-2,2.4-2.5L205,35.6z M199.8,38.6c0.1,0.8,0,0.7,0.1,1.2c0.9,17.3-11.1,25.5-25.7,26.1c-2.2,2.1-4.7,3.9-4.7,3.9
				s-2.5-1.8-4.7-3.9c-14.6-0.6-26.6-8.8-25.7-26.1c0.1-0.5,0-0.4,0.1-1.2c-0.8-0.9-2.2-2.3-2.9-3.1c5.2-5.4,11.3-17.8,2.9-29.1
				L141,4c1.7,0.6,3.6,1,5.5,1c4.9,0,8.2-0.5,12.2-3.2c3.2,2.2,6.7,3.6,10.9,3.6s7.7-1.4,10.9-3.6c4.1,2.7,7.4,3.2,12.2,3.2
				c1.9,0,3.8-0.4,5.5-1l1.8,2.4c-8.5,11.2-2.4,23.7,2.9,29.1C202.1,36.3,200.7,37.7,199.8,38.6z"/>
			<path class="st6" d="M141.7,39c0,0.3,0,0.4-0.1,0.5c0,0.1,0,0.3-0.1,0.5c-0.3,6.7,1.3,12,4.9,16c4.1,4.6,10.9,7.1,19.4,7.5h0.3
				c1.4,0,2.8,0,4.1,0c1,0,1.9,0,2.8,0c8.6-0.4,15.3-2.9,19.4-7.5c3.6-4,5.3-9.4,4.9-16c0-0.2,0-0.4-0.1-0.5c0-0.1,0-0.3-0.1-0.5
				v-0.2h-55.7L141.7,39z M142,40.1c0-0.2,0-0.3,0.1-0.5c0-0.1,0-0.2,0-0.4H197c0,0.1,0,0.2,0,0.4c0,0.1,0,0.2,0.1,0.4
				c0.3,6.5-1.3,11.8-4.8,15.7c-4.1,4.5-10.7,7-19.1,7.3c-2,0-4.3,0-6.9,0H166c-8.4-0.3-15.1-2.9-19.1-7.3
				C143.3,51.9,141.7,46.6,142,40.1z"/>
			<path class="st6" d="M143.5,28.9l-0.1,0.3h52.3l-0.1-0.3c-2.3-5.2-4-13.1,0.8-21.4l0.3-0.4l-0.5,0.1c-1.2,0.2-2.3,0.3-3.4,0.3
				c-4.7,0-8.1-0.4-12.1-2.7l-0.1-0.1l-0.1,0.1c-3.5,2.1-7,3.1-10.8,3.1s-7.3-1-10.8-3.1l-0.1-0.1l-0.1,0.1
				c-3.9,2.2-7.4,2.7-12.1,2.7c-1.1,0-2.2-0.1-3.4-0.3l-0.5-0.1l0.3,0.4C147.5,15.7,145.8,23.6,143.5,28.9z M169.7,8.4
				c3.8,0,7.3-1,10.8-3.1c4,2.2,7.5,2.7,12.2,2.7c1,0,2-0.1,3-0.3c-4.5,8.1-2.9,15.8-0.7,21h-25.3V8.4z M143.4,7.7
				c1,0.2,2.1,0.2,3,0.2c4.7,0,8.2-0.4,12.2-2.7c3.4,2,6.9,3.1,10.6,3.1v20.3h-25.1C146.3,23.5,147.9,15.8,143.4,7.7z"/>
			<polygon class="st6" points="162.9,32 162.9,30.4 157.8,30.4 157.8,37.6 159.3,37.6 159.3,34.6 161.4,34.6 161.4,33.1 
				159.3,33.1 159.3,32 			"/>
			<path class="st6" d="M169,31.9c0.6,0,1,0.2,1.2,0.7v0.1l1.4-0.7v-0.1c-0.5-1-1.4-1.6-2.6-1.6c-1.9,0-3.2,1.5-3.2,3.7
				s1.2,3.7,3.1,3.7c1.2,0,2.1-0.5,2.7-1.6V36l-1.3-0.8v0.1c-0.4,0.6-0.7,0.9-1.3,0.9c-1,0-1.6-0.9-1.6-2.2
				C167.4,32.7,168,31.9,169,31.9z"/>
			<path class="st6" d="M181,32.4c0-1.2-0.9-1.9-2.3-1.9h-3.3v7.2h3.3c1.6,0,2.6-0.9,2.6-2.3c0-0.7-0.3-1.2-0.9-1.5
				C180.8,33.4,181,32.9,181,32.4z M177,31.9h1.7c0.7,0,0.8,0.3,0.8,0.6c0,0.4-0.2,0.6-0.7,0.6H177V31.9z M178.7,36.1H177v-1.7h1.8
				c0.6,0,0.9,0.3,0.9,0.8C179.7,35.8,179.3,36.1,178.7,36.1z"/>
			<path class="st6" d="M169.5,58.6c4.3,0,7.7-3.5,7.7-7.7c0-4.3-3.5-7.7-7.7-7.7c-4.3,0-7.7,3.5-7.7,7.7S165.2,58.6,169.5,58.6z
				 M169.5,58.1c-1.5,0-2.9-0.5-4.1-1.2c1.5-0.1,3.6-0.5,4.8-1.2s2.5-1.6,2.8-2.9c0.9-0.4,2.6-0.2,2.8,1.6
				C174.6,56.6,172.3,58.1,169.5,58.1z M165.9,52.5c0.4,0.2,0.8,0.4,1.3,0.5c1,0.1,2.4-0.9,2.5-2c1.4-1,2.5-0.1,2.8,0.7
				c0.6,1.5-0.7,2.6-2.4,3.7c-1.3,0.8-3.7,1.2-5.2,1.2c-0.8-0.7-1.5-1.5-1.9-2.4c0.1,0,0.1,0,0.2,0C164.3,54,165.4,53.5,165.9,52.5z
				 M164.8,48.8c0-1.4,0.4-2.7,0.7-4c1-0.7,2.2-1.1,3.4-1.2c-0.8,0.9-0.7,2.3,0.2,3c-0.2,0.1-0.4,0.3-0.5,0.6
				c-0.6,1-0.7,2.7,0.8,3.8c-0.1,0.9-1.2,1.7-2,1.6C165.6,52.3,164.8,50.8,164.8,48.8z M173.1,52.3c0-0.3-0.1-0.6-0.2-0.8
				c-0.4-0.9-1.7-2-3.4-0.9c-1.2-0.9-1.2-2.3-0.6-3.2c0.8-1.3,2.8-0.8,4.5,0.2c1.4,0.8,2.9,2.5,3.3,4c-0.1,0.8-0.3,1.5-0.6,2.2
				C175.7,52.2,174.1,52,173.1,52.3z M173.6,47.2c-1.3-0.7-2.9-1.4-4.1-0.9c-0.9-0.6-1.1-2,0.1-2.7c3.8,0,7,3,7.2,6.8
				C176.1,49.1,174.8,47.8,173.6,47.2z M164.9,45.2c-0.1,0.5-0.3,1-0.4,1.5c-0.4,1.7-0.4,4.3,1,5.6c-0.5,0.9-1.4,1.4-2.4,1.4
				c-0.1,0-0.3,0-0.4,0c-0.3-0.8-0.5-1.8-0.5-2.7C162.2,48.6,163.3,46.5,164.9,45.2z"/>
		</g>
	</g>
	<line class="st7" x1="102.8" y1="0" x2="102.8" y2="71.8"/>
	<g>
		<path d="M235.4,21.5h4.3c2.6,0,4,1.3,4,3.7c0,2.9-2.6,3.7-2.6,3.7h-3.4v4.3h-2.3V21.5z M240.4,26.8c0,0,1-0.4,1-1.7
			c0-0.9-0.5-1.5-1.6-1.5h-2v3.2H240.4z"/>
		<path d="M244.7,31.9l2.9-10.4h3.8l2.9,10.4v1.3h-2.1l-0.6-2.5c-0.7,0.1-1.4,0.2-2.1,0.2c-0.7,0-1.4-0.1-2-0.2l-0.6,2.4h-2.1
			L244.7,31.9L244.7,31.9z M247.9,28.8c0.5,0.1,1,0.1,1.5,0.1s1.1-0.1,1.6-0.2l-0.7-2.6c-0.3-1.1-0.6-2.6-0.6-2.6h-0.5
			c0,0-0.3,1.5-0.6,2.6L247.9,28.8z"/>
		<path d="M256,21.5h4.4c2.5,0,3.9,1.2,3.9,3.5c0,2.7-2.4,3.5-2.4,3.5s1.2,2.1,2.4,3.3v1.4h-1.8c-1.5-1.6-3-4.5-3-4.5h-1.2v4.5H256
			V21.5z M261,26.6c0,0,1.1-0.3,1.1-1.5c0-0.9-0.6-1.5-1.5-1.5h-2.2v3H261z"/>
		<path d="M270.4,23.6v9.6h-2.3v-9.6h-2.8v-2.1h8l-0.3,2.1H270.4z"/>
		<path d="M274.7,21.5h2.2l3.3,5.5c0.3,0.4,0.9,1.8,0.9,1.8l0,0c0,0-0.1-1.3-0.1-2.4v-4.9h2.3v11.7H281v-0.9l-2.9-4.8
			c-0.4-0.7-1.2-2-1.2-2h-0.1c0,0,0.1,1.1,0.1,2.2v5.5h-2.3V21.5H274.7z"/>
		<path d="M285.7,21.5h7.4l-0.3,2.1h-4.7v2.7h4.3v2.1h-4.3v2.7h4.9v2.1h-7.3V21.5z"/>
		<path d="M295.1,21.5h4.4c2.5,0,3.9,1.2,3.9,3.5c0,2.7-2.4,3.5-2.4,3.5s1.2,2.1,2.4,3.3v1.4h-1.8c-1.5-1.6-3-4.5-3-4.5h-1.2v4.5
			h-2.3V21.5z M300,26.6c0,0,1.1-0.3,1.1-1.5c0-0.9-0.6-1.5-1.5-1.5h-2.2v3H300z"/>
		<path d="M308.4,25.9c0-3.1,1.5-4.5,4.3-4.5c2.4,0,3.5,1.3,3.5,1.3v1.8h-1.9c0,0-0.1-1.1-1.6-1.1s-2,0.8-2,2.4v3.1
			c0,1.6,0.5,2.4,2,2.4c1.4,0,1.6-1.1,1.6-1.1h1.9V32c0,0-1.1,1.3-3.5,1.3c-2.8,0-4.3-1.4-4.3-4.5V25.9z"/>
		<path d="M317.7,26c0-3,1.6-4.7,4.5-4.7s4.5,1.7,4.5,4.7v2.7c0,3-1.6,4.7-4.5,4.7s-4.5-1.7-4.5-4.7V26z M322.3,31.3
			c1.6,0,2.2-0.7,2.2-2.4v-3c0-1.7-0.7-2.4-2.2-2.4c-1.6,0-2.2,0.7-2.2,2.4v3C320,30.6,320.7,31.3,322.3,31.3z"/>
		<path d="M328.9,21.5h3.8l1.4,6.3c0.3,1.2,0.6,3.4,0.6,3.4h0.1c0,0,0.3-2.2,0.6-3.4l1.4-6.3h3.8v11.7h-2.3v-5.8c0-1,0.1-4,0.1-4
			h-0.2c0,0-0.5,2.3-0.8,3.5l-1.4,6.3h-2.6l-1.4-6.3c-0.3-1.1-0.8-3.5-0.8-3.5H331c0,0,0.1,2.9,0.1,4v5.8h-2.3L328.9,21.5
			L328.9,21.5z"/>
		<path d="M343,21.5h3.8l1.4,6.3c0.3,1.2,0.6,3.4,0.6,3.4h0.1c0,0,0.3-2.2,0.6-3.4l1.4-6.3h3.8v11.7h-2.3v-5.8c0-1,0.1-4,0.1-4h-0.2
			c0,0-0.5,2.3-0.8,3.5l-1.4,6.3h-2.6l-1.4-6.3c-0.3-1.1-0.8-3.5-0.8-3.5h-0.2c0,0,0.1,2.9,0.1,4v5.8H343V21.5z"/>
		<path d="M357.2,21.5h7.4l-0.3,2.1h-4.7v2.7h4.3v2.1h-4.3v2.7h4.9v2.1h-7.3V21.5z"/>
		<path d="M366.5,21.5h4.4c2.5,0,3.9,1.2,3.9,3.5c0,2.7-2.4,3.5-2.4,3.5s1.2,2.1,2.4,3.3v1.4H373c-1.5-1.6-3-4.5-3-4.5h-1.2v4.5
			h-2.3V21.5z M371.4,26.6c0,0,1.1-0.3,1.1-1.5c0-0.9-0.6-1.5-1.5-1.5h-2.2v3H371.4z"/>
		<path d="M376.4,25.9c0-3.1,1.5-4.5,4.3-4.5c2.4,0,3.5,1.3,3.5,1.3v1.8h-1.9c0,0-0.1-1.1-1.6-1.1s-2,0.8-2,2.4v3.1
			c0,1.6,0.5,2.4,2,2.4c1.4,0,1.6-1.1,1.6-1.1h1.9V32c0,0-1.1,1.3-3.5,1.3c-2.8,0-4.3-1.4-4.3-4.5V25.9z"/>
		<path d="M386.7,31.4v-8l-1.2-0.2v-1.6h4.7v1.6l-1.2,0.2v8l1.2,0.2v1.6h-4.7v-1.6L386.7,31.4z"/>
		<path d="M391.5,31.9l2.9-10.4h3.8l2.9,10.4v1.3H399l-0.6-2.5c-0.7,0.1-1.4,0.2-2.1,0.2s-1.4-0.1-2-0.2l-0.6,2.4h-2.1L391.5,31.9
			L391.5,31.9z M394.7,28.8c0.5,0.1,1,0.1,1.5,0.1s1.1-0.1,1.6-0.2l-0.7-2.6c-0.3-1.1-0.6-2.6-0.6-2.6H396c0,0-0.3,1.5-0.6,2.6
			L394.7,28.8z"/>
		<path d="M402.8,21.5h2.3v9.6h4.7l-0.3,2.1h-6.7V21.5z"/>
		<path d="M411.2,21.5h7.4l-0.3,2.1h-4.7v2.7h4.3v2.1h-4.3v2.7h4.9v2.1h-7.3V21.5z"/>
		<path d="M235.4,38.7h2.3v7.7c0,1.6,0.5,2.1,2,2.1c1.3,0,2.1-0.7,2.1-0.7v-9.1h2.3v11.7h-1.8l-0.3-1.1h-0.1c0,0-1.2,1.2-3,1.2
			c-2.4,0-3.6-1.1-3.6-4v-7.8H235.4z"/>
		<path d="M246.5,38.7h7.3l-0.3,2.1h-4.6v2.7h4.1v2.1h-4.1v4.8h-2.3L246.5,38.7L246.5,38.7z"/>
		<path d="M255.3,38.7h7.3l-0.3,2.1h-4.6v2.7h4.1v2.1h-4.1v4.8h-2.3V38.7H255.3z"/>
		<path d="M264.6,48.6v-8l-1.2-0.2v-1.6h4.7v1.6l-1.2,0.2v8l1.2,0.2v1.6h-4.7v-1.6L264.6,48.6z"/>
		<path d="M269.7,43.1c0-3.1,1.5-4.5,4.3-4.5c2.4,0,3.5,1.3,3.5,1.3v1.8h-1.9c0,0-0.1-1.1-1.6-1.1s-2,0.8-2,2.4v3.1
			c0,1.6,0.5,2.4,2,2.4c1.4,0,1.6-1.1,1.6-1.1h1.9v1.8c0,0-1.1,1.3-3.5,1.3c-2.8,0-4.3-1.4-4.3-4.5V43.1z"/>
		<path d="M280,48.6v-8l-1.2-0.2v-1.6h4.7v1.6l-1.2,0.2v8l1.2,0.2v1.6h-4.7v-1.6L280,48.6z"/>
		<path d="M284.8,49.1l2.9-10.4h3.8l2.9,10.4v1.3h-2.1l-0.6-2.5c-0.7,0.1-1.4,0.2-2.1,0.2s-1.4-0.1-2-0.2l-0.6,2.4h-2.1L284.8,49.1
			L284.8,49.1z M288,46c0.5,0.1,1,0.1,1.5,0.1s1.1-0.1,1.6-0.2l-0.7-2.6c-0.3-1.1-0.6-2.6-0.6-2.6h-0.5c0,0-0.3,1.5-0.6,2.6L288,46z
			"/>
		<path d="M296.1,38.7h2.3v9.6h4.7l-0.3,2.1h-6.7V38.7z"/>
		<path d="M304.6,38.7h7.4l-0.3,2.1H307v2.7h4.3v2.1H307v2.7h4.9v2.1h-7.3V38.7z"/>
		<path d="M317.3,38.7h4.2c2.8,0,4.3,1.4,4.3,4.5V46c0,3.1-1.5,4.5-4.3,4.5h-4.2V38.7z M319.7,40.8v7.5h1.7c1.5,0,2.1-0.6,2.1-2.2
			V43c0-1.6-0.7-2.2-2.1-2.2H319.7z"/>
		<path d="M327.9,38.7h7.4l-0.3,2.1h-4.7v2.7h4.3v2.1h-4.3v2.7h4.9v2.1h-7.3V38.7z"/>
		<path d="M337.2,38.7h2.3v9.6h4.7l-0.3,2.1h-6.7V38.7z"/>
		<path d="M349.1,38.7h7.3l-0.3,2.1h-4.6v2.7h4.1v2.1h-4.1v4.8h-2.3V38.7H349.1z"/>
		<path d="M357.5,43.1c0-3.1,1.5-4.5,4.3-4.5c2.4,0,3.5,1.3,3.5,1.3v1.8h-1.9c0,0-0.1-1.1-1.6-1.1s-2,0.8-2,2.4v3.1
			c0,1.6,0.5,2.4,2,2.4c1.4,0,1.6-1.1,1.6-1.1h1.9v1.8c0,0-1.1,1.3-3.5,1.3c-2.8,0-4.3-1.4-4.3-4.5V43.1z"/>
		<path d="M370.6,38.7h4.2c2.8,0,3.8,1.3,3.8,3.2c0,1.8-1.4,2.6-1.4,2.6l0,0c0,0,1.5,0.8,1.5,2.5c0,2.1-1.2,3.4-3.8,3.4h-4.4
			L370.6,38.7L370.6,38.7z M372.9,40.8v2.8h2.5c0,0,0.9-0.4,0.9-1.4c0-0.7-0.4-1.3-1.4-1.3L372.9,40.8L372.9,40.8z M372.9,45.5v2.9
			h2.2c0.9,0,1.4-0.6,1.4-1.5c0-1.1-1-1.5-1-1.5L372.9,45.5L372.9,45.5z"/>
		<path d="M380.1,49.1l2.9-10.4h3.8l2.9,10.4v1.3h-2.1l-0.6-2.5c-0.7,0.1-1.4,0.2-2.1,0.2s-1.4-0.1-2-0.2l-0.6,2.4h-2.1L380.1,49.1
			L380.1,49.1z M383.3,46c0.5,0.1,1,0.1,1.5,0.1s1.1-0.1,1.6-0.2l-0.7-2.6c-0.3-1.1-0.6-2.6-0.6-2.6h-0.5c0,0-0.3,1.5-0.6,2.6
			L383.3,46z"/>
		<path d="M391.4,38.7h4.4c2.5,0,3.9,1.2,3.9,3.5c0,2.7-2.4,3.5-2.4,3.5s1.2,2.1,2.4,3.3v1.4h-1.8c-1.5-1.6-3-4.5-3-4.5h-1.2v4.5
			h-2.3V38.7z M396.3,43.9c0,0,1.1-0.3,1.1-1.5c0-0.9-0.6-1.5-1.5-1.5h-2.2v3H396.3z"/>
		<path d="M401.2,43.1c0-3.1,1.5-4.5,4.3-4.5c2.4,0,3.5,1.3,3.5,1.3v1.8h-1.9c0,0-0.1-1.1-1.6-1.1s-2,0.8-2,2.4v3.1
			c0,1.6,0.5,2.4,2,2.4c1.4,0,1.6-1.1,1.6-1.1h1.9v1.8c0,0-1.1,1.3-3.5,1.3c-2.8,0-4.3-1.4-4.3-4.5V43.1z"/>
		<path d="M410.9,38.7h7.4l-0.3,2.1h-4.7v2.7h4.3v2.1h-4.3v2.7h4.9v2.1h-7.3V38.7z"/>
		<path d="M420.2,38.7h2.3v9.6h4.7l-0.3,2.1h-6.7V38.7z"/>
		<path d="M428.3,43.3c0-3,1.6-4.7,4.5-4.7s4.5,1.7,4.5,4.7V46c0,3-1.6,4.7-4.5,4.7s-4.5-1.7-4.5-4.7V43.3z M432.9,48.5
			c1.6,0,2.2-0.7,2.2-2.4v-3c0-1.7-0.7-2.4-2.2-2.4c-1.6,0-2.2,0.7-2.2,2.4v3C430.7,47.8,431.3,48.5,432.9,48.5z"/>
		<path d="M439.5,38.7h2.2l3.3,5.5c0.3,0.4,0.9,1.8,0.9,1.8l0,0c0,0-0.1-1.3-0.1-2.4v-4.9h2.3v11.7h-2.3v-0.9l-2.9-4.8
			c-0.4-0.7-1.2-2-1.2-2h-0.1c0,0,0.1,1.1,0.1,2.2v5.5h-2.3V38.7H439.5z"/>
		<path d="M449.9,49.1l2.9-10.4h3.8l2.9,10.4v1.3h-2.1l-0.6-2.5c-0.7,0.1-1.4,0.2-2.1,0.2s-1.4-0.1-2-0.2l-0.6,2.4H450L449.9,49.1
			L449.9,49.1z M453.1,46c0.5,0.1,1,0.1,1.5,0.1s1.1-0.1,1.6-0.2l-0.7-2.6c-0.3-1.1-0.6-2.6-0.6-2.6h-0.5c0,0-0.3,1.5-0.6,2.6
			L453.1,46z"/>
	</g>
</g>
<g>
	<path class="st8" d="M7.1,0h57.8c3.8,0,7,3.1,7,7v57.8c0,3.8-3.1,7-7,7H7.1c-3.8,0-7-3.1-7-7V7C0.1,3.1,3.2,0,7.1,0z"/>
	<rect x="14.4" y="45.4" class="st1" width="43.4" height="3.4"/>
	<path class="st1" d="M26.2,28.2v-3.5H14.4v16.4h4.3v-5.8h6.7v-3.5h-6.7v-3.5L26.2,28.2L26.2,28.2z"/>
	<path class="st1" d="M39.1,32.6c1.7-0.8,2.6-2.1,2.6-3.6c0-2.6-2-4.2-5.3-4.2H28v16.4h8.5c3.6,0,5.8-1.7,5.8-4.6
		C42.4,34.6,41.2,33.2,39.1,32.6z M32.4,28h3.3c1.2,0,1.9,0.6,1.9,1.6s-0.7,1.6-1.9,1.6h-3.3V28z M36,37.8h-3.6v-3.3H36
		c1.2,0,1.9,0.6,1.9,1.7C37.9,37.2,37.3,37.8,36,37.8L36,37.8z"/>
	<path class="st1" d="M52.8,31.1l-2-0.3c-1.9-0.3-2.5-0.8-2.5-1.7c0-0.9,0.8-1.5,2.4-1.5c1.6,0,2.3,0.6,2.7,2l4.1-0.5
		c-0.6-3.2-2.9-4.8-6.7-4.8c-4.2,0-7,2.1-7,5.3c0,2.8,1.7,4.4,5.1,4.9l2.1,0.3c2.2,0.3,2.7,0.8,2.7,1.8s-0.8,1.5-2.7,1.5
		c-1.4,0.1-2.7-0.8-3.1-2.2l-4.3,0.6c0.7,3.3,3.2,4.9,7.3,4.9c4.6,0,7.3-2,7.3-5.3C58.2,33.2,56.5,31.7,52.8,31.1z"/>
</g>
</svg>
