<svg width="640" height="280" viewBox="0 0 640 280" fill="none" xmlns="http://www.w3.org/2000/svg">
<g clip-path="url(#clip0)">
<path d="M89.3151 261.5V240.961H97.4928V246.248H100.003C100.738 246.248 101.258 246.058 101.563 245.677C101.867 245.297 102.019 244.752 102.019 244.042V240.961H110.197V244.764C110.197 245.779 110.032 246.691 109.702 247.503C109.373 248.289 108.815 248.898 108.029 249.329C108.789 249.734 109.335 250.318 109.664 251.078C109.994 251.814 110.159 252.663 110.159 253.627V261.5H101.981V254.768C101.981 254.032 101.829 253.487 101.525 253.132C101.22 252.752 100.7 252.562 99.9651 252.562H97.4928V261.5H89.3151ZM103.651 271.351V267.738H101.407L101.673 262.755H110.155V271.351H103.651ZM99.429 239.515V236.434H96.5383V231.262H104.488V234.381H112.399L112.095 239.515H99.429ZM120.349 261.88C118.269 261.88 116.558 261.272 115.214 260.055C113.895 258.838 113.236 257.075 113.236 254.768V240.961H121.414V253.665C121.414 255.135 122.162 255.871 123.658 255.871C124.165 255.871 124.685 255.769 125.217 255.566C125.775 255.338 126.181 255.072 126.434 254.768V240.961H134.612V261.5H127.043L126.777 260.093C126.016 260.6 125.078 261.031 123.962 261.386C122.872 261.716 121.667 261.88 120.349 261.88ZM144.03 261.88C142.711 261.88 141.507 261.665 140.416 261.234C139.351 260.803 138.489 260.118 137.83 259.18C137.196 258.216 136.879 256.936 136.879 255.338C136.879 253.107 137.576 251.395 138.971 250.203C140.391 249.012 142.432 248.416 145.095 248.416H149.925V247.921C149.925 246.831 148.619 246.286 146.008 246.286C144.867 246.286 143.675 246.387 142.432 246.59C141.19 246.768 140.011 247.034 138.895 247.389V241.988C140.011 241.557 141.38 241.214 143.003 240.961C144.651 240.707 146.223 240.58 147.719 240.58C148.404 240.58 149.063 240.618 149.697 240.694C150.331 240.745 150.927 240.834 151.485 240.961H159.853L159.434 246.742H157.38C157.558 247.097 157.685 247.566 157.761 248.149C157.862 248.733 157.913 249.341 157.913 249.975V261.5H149.925V253.513H147.225C146.54 253.513 146.008 253.627 145.627 253.855C145.272 254.083 145.095 254.527 145.095 255.186C145.095 255.769 145.234 256.175 145.513 256.403C145.817 256.631 146.248 256.746 146.806 256.746C147.111 256.746 147.39 256.733 147.643 256.708C147.897 256.682 148.163 256.631 148.442 256.555V261.272C147.935 261.449 147.313 261.589 146.578 261.69C145.843 261.817 144.993 261.88 144.03 261.88ZM149.746 239.591V233.087H157.923V239.591H149.746ZM168.973 261.88C167.452 261.88 166.019 261.766 164.675 261.538C163.357 261.335 162.127 260.968 160.986 260.435V253.893C161.873 254.349 162.849 254.717 163.914 254.996C164.979 255.249 165.981 255.376 166.919 255.376C168.618 255.376 169.861 255.059 170.647 254.425C171.433 253.791 171.826 252.726 171.826 251.23C171.826 249.734 171.433 248.669 170.647 248.035C169.861 247.401 168.644 247.084 166.995 247.084C166.006 247.084 164.979 247.186 163.914 247.389C162.875 247.592 161.911 247.909 161.024 248.34V242.026C162.165 241.569 163.42 241.214 164.789 240.961C166.159 240.707 167.566 240.58 169.011 240.58C172.713 240.58 175.49 241.43 177.341 243.129C179.217 244.802 180.156 247.503 180.156 251.23C180.156 254.983 179.217 257.696 177.341 259.37C175.465 261.044 172.675 261.88 168.973 261.88ZM189.548 261.88C187.469 261.88 185.757 261.272 184.414 260.055C183.095 258.838 182.436 257.075 182.436 254.768V240.961H190.613V253.665C190.613 255.135 191.361 255.871 192.857 255.871C193.365 255.871 193.884 255.769 194.417 255.566C194.975 255.338 195.381 255.072 195.634 254.768V240.961H203.812V261.5H196.243L195.976 260.093C195.216 260.6 194.277 261.031 193.162 261.386C192.071 261.716 190.867 261.88 189.548 261.88ZM206.839 261.5V240.961H215.017V246.248H217.528C218.263 246.248 218.783 246.058 219.087 245.677C219.391 245.297 219.543 244.752 219.543 244.042V240.961H227.721V244.764C227.721 245.779 227.556 246.691 227.227 247.503C226.897 248.289 226.339 248.898 225.553 249.329C226.314 249.734 226.859 250.318 227.189 251.078C227.518 251.814 227.683 252.663 227.683 253.627V261.5H219.505V254.768C219.505 254.032 219.353 253.487 219.049 253.132C218.745 252.752 218.225 252.562 217.489 252.562H215.017V261.5H206.839ZM237.15 261.88C235.832 261.88 234.627 261.665 233.537 261.234C232.472 260.777 231.61 260.055 230.951 259.066C230.317 258.077 230 256.784 230 255.186C230 252.955 230.697 251.268 232.092 250.127C233.512 248.986 235.553 248.416 238.215 248.416H243.046V247.921C243.046 246.831 241.74 246.286 239.128 246.286C237.987 246.286 236.795 246.387 235.553 246.59C234.31 246.768 233.131 247.034 232.016 247.389V241.988C233.131 241.557 234.501 241.214 236.123 240.961C237.772 240.707 239.344 240.58 240.84 240.58C244.162 240.58 246.685 241.303 248.409 242.748C250.159 244.168 251.033 246.336 251.033 249.253V261.5H243.046V253.513H240.345C239.661 253.513 239.128 253.627 238.748 253.855C238.393 254.083 238.215 254.527 238.215 255.186C238.215 255.769 238.355 256.175 238.634 256.403C238.938 256.631 239.369 256.746 239.927 256.746C240.231 256.746 240.51 256.733 240.764 256.708C241.017 256.682 241.284 256.631 241.563 256.555V261.272C241.055 261.449 240.434 261.589 239.699 261.69C238.963 261.817 238.114 261.88 237.15 261.88ZM239.101 239.173V231.642H245.034V234.114H253.935L253.669 239.173H239.101ZM253.821 261.5V255.072C253.821 254.159 254.049 253.297 254.505 252.486C254.962 251.674 255.659 251.104 256.597 250.774L253.326 249.671V244.042C254.518 243.179 256.039 242.393 257.891 241.683C259.767 240.948 261.884 240.58 264.242 240.58C266.93 240.58 269.086 240.961 270.709 241.721C272.357 242.457 273.561 243.471 274.322 244.764C275.083 246.032 275.463 247.49 275.463 249.138V261.5H267.095V249.557C267.095 248.416 266.842 247.604 266.334 247.123C265.827 246.641 264.965 246.4 263.748 246.4C263.063 246.4 262.417 246.489 261.808 246.666C261.2 246.818 260.68 247.021 260.249 247.275V247.465L264.128 248.796V252.257C263.444 252.46 262.937 252.803 262.607 253.284C262.277 253.741 262.112 254.387 262.112 255.224V261.5H253.821ZM287.848 261.88C285.996 261.88 284.183 261.716 282.408 261.386C280.659 261.056 279.226 260.625 278.11 260.093V249.138H288.152L288.418 254.121H285.756V255.947C286.313 256.124 286.973 256.213 287.733 256.213C289.052 256.213 289.939 255.833 290.396 255.072C290.878 254.311 291.119 253.081 291.119 251.383C291.119 249.379 290.688 248.048 289.825 247.389C288.963 246.704 287.594 246.362 285.718 246.362C284.703 246.362 283.511 246.451 282.142 246.628C280.798 246.806 279.53 247.072 278.339 247.427V241.988C279.277 241.658 280.291 241.392 281.381 241.189C282.497 240.986 283.6 240.834 284.691 240.733C285.781 240.631 286.783 240.58 287.695 240.58C291.778 240.58 294.757 241.493 296.634 243.319C298.536 245.119 299.486 247.807 299.486 251.383C299.486 254.856 298.574 257.481 296.748 259.256C294.948 261.006 291.981 261.88 287.848 261.88ZM312.164 261.88C308.538 261.88 305.774 261.259 303.872 260.017C301.97 258.749 301.019 257.012 301.019 254.806C301.019 253.107 301.653 251.801 302.921 250.888C302.414 250.508 301.983 249.988 301.628 249.329C301.273 248.669 301.096 247.871 301.096 246.932C301.096 244.828 301.793 243.243 303.187 242.178C304.582 241.113 306.535 240.58 309.045 240.58C309.958 240.58 310.769 240.644 311.479 240.771C312.215 240.897 312.823 241.049 313.305 241.227V246.172C313.026 246.121 312.696 246.07 312.316 246.019C311.936 245.969 311.593 245.943 311.289 245.943C310.706 245.943 310.249 246.032 309.92 246.21C309.616 246.387 309.463 246.704 309.463 247.161C309.463 247.617 309.603 247.934 309.882 248.111C310.186 248.289 310.579 248.378 311.061 248.378H312.849L312.963 253.322H311.023C309.932 253.322 309.387 253.791 309.387 254.73C309.387 255.211 309.577 255.579 309.958 255.833C310.364 256.086 311.086 256.213 312.126 256.213C314.078 256.213 315.055 255.427 315.055 253.855V240.961H323.232V253.665C323.232 256.429 322.256 258.495 320.304 259.864C318.351 261.208 315.638 261.88 312.164 261.88ZM315.038 239.591V233.087H323.215V239.591H315.038ZM332.8 261.5V250.051C332.8 248.936 332.559 248.137 332.078 247.655C331.621 247.173 330.822 246.932 329.681 246.932C328.769 246.932 327.881 247.034 327.019 247.237C326.182 247.439 325.421 247.68 324.737 247.959V242.026C325.497 241.62 326.486 241.278 327.704 240.999C328.921 240.72 330.151 240.58 331.393 240.58C334.588 240.58 336.908 241.303 338.354 242.748C339.824 244.168 340.56 246.273 340.56 249.062V261.5H332.8ZM352.733 261.88C351.896 261.88 350.945 261.804 349.88 261.652C348.815 261.525 347.915 261.335 347.18 261.082L341.703 247.237H349.462L352.999 256.213C354.774 255.782 355.662 253.944 355.662 250.698C355.662 249.278 355.383 248.289 354.825 247.731C354.293 247.173 353.443 246.894 352.277 246.894H350.869V240.961H354.064C357.234 240.961 359.681 241.772 361.405 243.395C363.155 244.993 364.03 247.414 364.03 250.66C364.03 253.272 363.548 255.414 362.584 257.088C361.646 258.736 360.328 259.953 358.629 260.739C356.955 261.5 354.99 261.88 352.733 261.88ZM370.331 261.5C369.089 261.5 368.1 261.132 367.365 260.397C366.655 259.662 366.3 258.711 366.3 257.544V240.961H374.553V255.262C374.553 255.972 374.908 256.327 375.618 256.327H376.95V261.5H370.331ZM390.142 261.88C388.012 261.88 386.123 261.538 384.475 260.853C382.827 260.169 381.533 259.129 380.595 257.734C379.682 256.34 379.226 254.59 379.226 252.486V240.961H387.404V252.448C387.404 253.563 387.606 254.362 388.012 254.844C388.418 255.326 389.128 255.566 390.142 255.566C391.131 255.566 391.828 255.326 392.234 254.844C392.665 254.362 392.881 253.563 392.881 252.448V234.875H401.058V252.486C401.058 254.59 400.589 256.34 399.651 257.734C398.738 259.129 397.458 260.169 395.809 260.853C394.187 261.538 392.297 261.88 390.142 261.88ZM382.927 239.706C381.228 239.706 379.884 239.249 378.895 238.336C377.906 237.398 377.411 236.092 377.411 234.419C377.411 232.872 377.919 231.604 378.933 230.615C379.922 229.601 381.354 229.094 383.231 229.094H392.207L391.903 233.087H383.916C383.434 233.087 383.053 233.201 382.774 233.43C382.496 233.658 382.356 234.013 382.356 234.495C382.356 235.331 382.787 235.75 383.649 235.75C384.106 235.75 384.448 235.623 384.676 235.369C384.904 235.116 385.019 234.799 385.019 234.419V234.114H388.556V234.419C388.556 235.23 388.987 235.636 389.849 235.636H391.523V239.629H389.735C389.126 239.629 388.543 239.541 387.985 239.363C387.428 239.16 387.022 238.856 386.768 238.45C386.489 238.856 385.944 239.173 385.133 239.401C384.321 239.604 383.586 239.706 382.927 239.706ZM411.225 261.88C409.146 261.88 407.434 261.272 406.09 260.055C404.772 258.838 404.113 257.075 404.113 254.768V240.961H412.29V253.665C412.29 255.135 413.038 255.871 414.534 255.871C415.041 255.871 415.561 255.769 416.094 255.566C416.652 255.338 417.057 255.072 417.311 254.768V240.961H425.489V261.5H417.919L417.653 260.093C416.893 260.6 415.954 261.031 414.839 261.386C413.748 261.716 412.544 261.88 411.225 261.88ZM428.516 261.5V240.961H436.085L436.352 242.368C437.112 241.861 438.038 241.443 439.128 241.113C440.244 240.758 441.461 240.58 442.78 240.58C444.96 240.58 446.685 241.202 447.953 242.444C449.246 243.661 449.892 245.424 449.892 247.731V261.5H441.715V248.834C441.715 247.338 440.967 246.59 439.471 246.59C438.989 246.59 438.469 246.704 437.911 246.932C437.379 247.135 436.973 247.389 436.694 247.693V261.5H428.516ZM459.462 261.5V250.051C459.462 248.936 459.221 248.137 458.74 247.655C458.283 247.173 457.484 246.932 456.343 246.932C455.43 246.932 454.543 247.034 453.681 247.237C452.844 247.439 452.083 247.68 451.399 247.959V242.026C452.159 241.62 453.148 241.278 454.365 240.999C455.583 240.72 456.812 240.58 458.055 240.58C461.25 240.58 463.57 241.303 465.015 242.748C466.486 244.168 467.221 246.273 467.221 249.062V261.5H459.462ZM479.395 261.88C478.558 261.88 477.607 261.804 476.542 261.652C475.477 261.525 474.577 261.335 473.842 261.082L468.365 247.237H476.124L479.661 256.213C481.436 255.782 482.324 253.944 482.324 250.698C482.324 249.278 482.045 248.289 481.487 247.731C480.954 247.173 480.105 246.894 478.939 246.894H477.531V240.961H480.726C483.896 240.961 486.343 241.772 488.067 243.395C489.817 244.993 490.692 247.414 490.692 250.66C490.692 253.272 490.21 255.414 489.246 257.088C488.308 258.736 486.989 259.953 485.291 260.739C483.617 261.5 481.652 261.88 479.395 261.88ZM492.695 261.5V255.072C492.695 254.159 492.924 253.297 493.38 252.486C493.836 251.674 494.534 251.104 495.472 250.774L492.201 249.671V244.042C493.393 243.179 494.914 242.393 496.765 241.683C498.642 240.948 500.759 240.58 503.117 240.58C505.805 240.58 507.96 240.961 509.583 241.721C511.231 242.457 512.436 243.471 513.197 244.764C513.957 246.032 514.338 247.49 514.338 249.138V261.5H505.97V249.557C505.97 248.416 505.716 247.604 505.209 247.123C504.702 246.641 503.84 246.4 502.623 246.4C501.938 246.4 501.291 246.489 500.683 246.666C500.074 246.818 499.554 247.021 499.123 247.275V247.465L503.003 248.796V252.257C502.318 252.46 501.811 252.803 501.482 253.284C501.152 253.741 500.987 254.387 500.987 255.224V261.5H492.695ZM523.907 261.5V250.051C523.907 248.936 523.667 248.137 523.185 247.655C522.728 247.173 521.93 246.932 520.789 246.932C519.876 246.932 518.988 247.034 518.126 247.237C517.289 247.439 516.529 247.68 515.844 247.959V242.026C516.605 241.62 517.594 241.278 518.811 240.999C520.028 240.72 521.258 240.58 522.5 240.58C525.695 240.58 528.015 241.303 529.461 242.748C530.931 244.168 531.667 246.273 531.667 249.062V261.5H523.907ZM542.243 261.88C540.595 261.88 539.035 261.754 537.564 261.5C536.094 261.272 534.953 260.993 534.141 260.663V254.92C535.079 255.351 536.157 255.706 537.374 255.985C538.617 256.264 539.707 256.403 540.645 256.403C541.609 256.403 542.281 256.34 542.661 256.213C543.067 256.061 543.27 255.807 543.27 255.452C543.27 254.945 542.902 254.552 542.167 254.273C541.431 253.994 540.354 253.589 538.934 253.056C537.235 252.397 535.98 251.623 535.168 250.736C534.357 249.823 533.951 248.593 533.951 247.046C533.951 245.17 534.724 243.623 536.271 242.406C537.818 241.189 540.189 240.58 543.384 240.58C544.702 240.58 546.034 240.682 547.378 240.885C548.747 241.062 549.812 241.265 550.573 241.493V247.161C549.761 246.806 548.836 246.539 547.796 246.362C546.782 246.184 545.907 246.096 545.171 246.096C544.309 246.096 543.612 246.159 543.08 246.286C542.547 246.413 542.281 246.691 542.281 247.123C542.281 247.604 542.648 247.972 543.384 248.226C544.119 248.454 545.121 248.809 546.389 249.291C547.783 249.798 548.861 250.33 549.622 250.888C550.382 251.421 550.902 252.054 551.181 252.79C551.485 253.5 551.638 254.413 551.638 255.528C551.638 257.456 550.839 259.002 549.241 260.169C547.644 261.31 545.311 261.88 542.243 261.88Z" fill="#164194"/>
</g>
<path d="M446.944 179.173C464.757 179.173 482.17 173.918 496.98 164.072C511.791 154.227 523.333 140.233 530.148 123.861C536.963 107.489 538.745 89.4746 535.267 72.0956C531.789 54.7165 523.208 38.7538 510.61 26.2264C498.012 13.699 481.962 5.16959 464.491 1.71699C447.02 -1.73561 428.911 0.043679 412.456 6.82983C396.002 13.616 381.939 25.1041 372.048 39.8413C362.157 54.5785 356.882 71.9026 356.889 89.6227C356.889 101.386 359.219 113.033 363.745 123.9C368.271 134.767 374.905 144.641 383.268 152.957C391.631 161.273 401.559 167.868 412.485 172.366C423.41 176.865 435.12 179.177 446.944 179.173Z" fill="white"/>
<path d="M446.944 175.974C464.121 175.974 480.912 170.907 495.194 161.413C509.476 151.919 520.606 138.425 527.178 122.637C533.75 106.85 535.467 89.4781 532.113 72.7195C528.76 55.9609 520.485 40.5681 508.337 28.4879C496.188 16.4078 480.711 8.18297 463.864 4.85377C447.016 1.52458 429.554 3.24054 413.687 9.78462C397.819 16.3287 384.259 27.4069 374.721 41.6182C365.184 55.8294 360.097 72.5352 360.104 89.6227C360.104 100.966 362.35 112.197 366.715 122.676C371.08 133.156 377.477 142.676 385.541 150.695C393.606 158.714 403.179 165.074 413.715 169.412C424.251 173.749 435.542 175.979 446.944 175.974Z" fill="#164194"/>
<path d="M446.945 170.414C463.01 170.385 478.706 165.619 492.049 156.719C505.392 147.818 515.784 135.183 521.91 120.409C528.036 105.635 529.622 89.3857 526.468 73.7153C523.313 58.0449 515.559 43.6564 504.187 32.3685C492.814 21.0806 478.333 13.3998 462.574 10.2969C446.814 7.19401 430.484 8.80832 415.646 14.9358C400.809 21.0632 388.13 31.4288 379.213 44.7225C370.296 58.0161 365.541 73.6411 365.548 89.6226C365.548 100.248 367.655 110.768 371.747 120.582C375.84 130.396 381.839 139.31 389.399 146.815C396.96 154.32 405.935 160.267 415.809 164.316C425.684 168.366 436.264 170.438 446.945 170.414Z" fill="white"/>
<path d="M367.594 89.6228C367.589 79.2552 369.638 68.9883 373.624 59.409C377.61 49.8296 383.455 41.1257 390.824 33.7947C398.194 26.4637 406.943 20.6494 416.573 16.6841C426.202 12.7188 436.523 10.6803 446.945 10.6851C457.367 10.6803 467.687 12.7188 477.317 16.6841C486.946 20.6494 495.696 26.4637 503.065 33.7947C510.434 41.1257 516.279 49.8296 520.265 59.409C524.251 68.9883 526.301 79.2552 526.296 89.6228C526.296 99.9873 524.243 110.25 520.255 119.825C516.267 129.401 510.421 138.1 503.052 145.427C495.683 152.754 486.935 158.566 477.308 162.529C467.681 166.492 457.364 168.529 446.945 168.524V167.579C457.238 167.59 467.432 165.579 476.942 161.662C486.453 157.746 495.092 152 502.366 144.756C509.649 137.52 515.424 128.925 519.361 119.464C523.298 110.003 525.32 99.8622 525.309 89.6228C525.326 79.3824 523.307 69.2398 519.37 59.7781C515.432 50.3165 509.654 41.7224 502.366 34.4899C495.099 27.2337 486.461 21.4785 476.95 17.5553C467.438 13.6321 457.241 11.6184 446.945 11.63C436.647 11.6124 426.448 13.6234 416.936 17.547C407.424 21.4705 398.787 27.2289 391.523 34.4899C384.224 41.7158 378.436 50.3078 374.492 59.7705C370.548 69.2331 368.526 79.379 368.544 89.6228C368.532 99.8657 370.556 110.01 374.5 119.472C378.444 128.933 384.229 137.526 391.523 144.756C398.794 152.005 407.433 157.754 416.944 161.671C426.455 165.588 436.651 167.596 446.945 167.579V168.524C436.526 168.529 426.208 166.492 416.581 162.529C406.954 158.566 398.206 152.754 390.837 145.427C383.468 138.1 377.623 129.401 373.635 119.825C369.646 110.25 367.594 99.9873 367.594 89.6228Z" fill="#164194"/>
<path d="M446.945 145.664C458.087 145.664 468.978 142.378 478.243 136.22C487.507 130.062 494.727 121.309 498.991 111.069C503.255 100.829 504.371 89.5608 502.197 78.6898C500.023 67.8189 494.658 57.8332 486.779 49.9957C478.901 42.1582 468.863 36.8208 457.935 34.6584C447.007 32.496 435.68 33.6058 425.386 37.8475C415.092 42.0891 406.294 49.2721 400.104 58.488C393.914 67.704 390.61 78.539 390.61 89.623C390.61 104.486 396.545 118.74 407.11 129.25C412.341 134.454 418.551 138.582 425.386 141.398C432.221 144.215 439.547 145.664 446.945 145.664Z" fill="white"/>
<path d="M445.447 37.688C444.278 44.0117 436.606 44.0117 432.368 47.3917C430.102 49.1819 428.559 51.7231 428.02 54.5513C424.002 52.5161 420.093 49.4996 415.928 47.8641C424.379 41.3652 434.765 37.849 445.447 37.8697" fill="#164194"/>
<path d="M476.975 46.9192L466.819 53.57C465.65 46.3014 457.612 44.2298 452.205 41.9765C451.109 40.8135 449.465 39.3234 450.086 37.688C459.803 38.1124 469.191 41.3177 477.121 46.9192" fill="#164194"/>
<path d="M450.598 43.6486C455.785 46.4106 463.969 47.2829 465.211 54.806C464.955 55.5692 464.006 55.8962 463.531 56.296C463.056 46.556 451.548 48.4459 447.858 41.0682C443.985 48.5186 431.6 47.1012 431.746 57.3863C430.906 56.9865 429.299 56.0416 430.175 54.5515C432.294 46.338 442.158 46.8831 446.908 41.2135L447.602 38.2334C447.951 40.3253 449.008 42.2359 450.598 43.6486Z" fill="#164194"/>
<path d="M447.894 46.8467C447.894 47.0647 447.894 47.4645 447.894 47.6099C447.894 47.7553 447.493 47.3191 447.237 47.2101C446.981 47.1011 447.894 46.0471 448.041 46.8467" fill="#164194"/>
<path d="M449.938 48.6999C449.938 49.027 449.938 49.2814 449.648 49.4994H449.575V48.3364C449.902 48.3364 449.974 48.5545 450.12 48.6999" fill="#164194"/>
<path d="M445.919 48.7001C445.919 48.9545 445.919 49.3542 445.919 49.4996H445.52V48.5547C445.52 48.5547 445.991 48.5547 446.064 48.5547" fill="#164194"/>
<path d="M410.448 61.3478C405.479 64.1826 404.091 71.9964 397.771 71.3422C400.627 63.5599 405.43 56.6303 411.726 51.208C410.261 54.3763 409.814 57.9175 410.448 61.3478Z" fill="#164194"/>
<path d="M448.442 57.2047H446.177L447.748 51.5352C447.693 53.4489 447.927 55.3601 448.442 57.2047Z" fill="#164194"/>
<path d="M495.388 70.2152C489.945 69.8154 488.081 63.2372 483.295 60.8022C484.116 58.2459 484.377 55.5446 484.063 52.8794C489.145 57.7008 493.023 63.6374 495.388 70.2152Z" fill="#164194"/>
<path d="M496.155 71.8512V72.1056C488.593 77.1936 496.484 88.6418 488.301 93.3664C485.784 94.7048 482.91 95.2258 480.081 94.8565C480.556 93.0393 483.478 93.7662 485.049 92.8213C494.511 89.9865 489.762 78.7564 494.438 72.7234C489.762 71.5604 486.109 67.5263 482.455 64.5825L482.674 63.2378C487.022 66.2906 490.273 72.4327 496.082 71.8512" fill="#164194"/>
<path d="M411.945 64.3277C408.292 68.3255 404.639 72.723 399.633 73.7407C400.181 75.2307 401.533 76.3937 402.081 77.9201C403.725 84.2802 403.908 93.039 412.091 94.8561C413.26 95.3286 414.868 94.6017 415.745 95.8011C413.886 96.227 411.951 96.1912 410.109 95.6968C408.268 95.2024 406.577 94.2646 405.187 92.9663C399.524 87.4784 405.187 76.9752 396.82 73.0501C403.689 74.5402 406.356 66.363 411.178 63.3828L411.982 64.3277H411.945Z" fill="#164194"/>
<path d="M484.792 72.2505C484.792 72.5049 484.792 72.8683 484.792 73.05H484.538V71.8507C484.593 71.8361 484.651 71.8362 484.706 71.8511C484.761 71.866 484.812 71.8952 484.852 71.9356C484.892 71.9761 484.922 72.0265 484.936 72.0817C484.951 72.137 484.952 72.1951 484.937 72.2505" fill="#164194"/>
<path d="M410.995 73.0502C410.995 73.0502 410.995 73.2682 410.995 73.3409C410.995 73.4136 410.411 73.3409 410.191 73.0502C409.936 72.1779 411.361 72.1779 411.141 73.0502" fill="#164194"/>
<path d="M483.076 74.6856C483.076 74.6856 482.82 75.1581 482.528 75.0854C482.416 75.0441 482.32 74.9697 482.252 74.8723C482.183 74.7748 482.147 74.659 482.147 74.5403C482.147 74.4216 482.183 74.3057 482.252 74.2083C482.32 74.1108 482.416 74.0364 482.528 73.9951C483.003 73.9951 482.93 74.4312 483.076 74.6856Z" fill="#164194"/>
<path d="M486.839 73.9951C486.839 74.2859 486.839 74.6857 486.839 74.9037C486.839 75.1218 486.437 74.613 486.291 74.5403C486.145 74.4676 486.291 73.8134 486.985 73.9951" fill="#164194"/>
<path d="M413.041 74.9038C413.041 74.9038 412.822 75.3036 412.493 75.2309L412.091 74.9038L412.712 74.1406C412.968 74.3587 412.968 74.6131 413.041 74.9038Z" fill="#164194"/>
<path d="M484.063 126.366L480.409 129.673C479.386 122.004 488.374 117.134 486.218 108.812C485.376 106.621 484.059 104.641 482.361 103.014C480.662 101.387 478.624 100.153 476.391 99.3989C476.391 93.9837 482.273 97.9088 485.122 96.7458C486.938 96.4639 488.658 95.7522 490.14 94.6707C491.621 93.5891 492.82 92.1695 493.634 90.5311C496.63 85.4431 492.429 78.6105 496.849 74.0312C499.743 83.0882 500.073 92.7628 497.805 101.994C495.537 111.226 490.757 119.658 483.99 126.366" fill="#164194"/>
<path d="M409.093 74.904C409.093 75.2311 409.093 75.4128 408.694 75.6308V74.5405C408.912 74.5405 409.093 74.7586 409.238 74.904" fill="#164194"/>
<path d="M402.081 92.0213C403.012 93.6124 404.278 94.9849 405.791 96.0449C407.304 97.1049 409.03 97.8275 410.849 98.1633C413.169 98.2142 415.489 98.0927 417.791 97.7999L418.412 99.29C416.19 99.9872 414.159 101.182 412.474 102.782C410.79 104.382 409.496 106.346 408.694 108.521C406.721 116.698 414.137 121.932 415.562 129.237L414.978 131.09C407.06 125.076 401.027 116.943 397.586 107.643C394.144 98.343 393.435 88.2603 395.542 78.5743L396.601 75.1943C403.36 78.0291 398.537 87.0423 401.899 92.1303" fill="#164194"/>
<path d="M486.108 84.0987C485.012 83.699 484.757 85.0437 484.355 85.5888C484.136 85.1163 484.136 84.4985 483.661 84.0987L482.455 84.3531L484.72 77.0845C484.886 79.4711 485.353 81.8276 486.108 84.0987Z" fill="#164194"/>
<path d="M412.713 84.4983C411.69 84.2802 411.288 85.1161 410.996 85.843V86.2064C410.74 85.4432 410.119 83.7714 408.95 84.6437C409.757 82.2573 410.439 79.8312 410.996 77.375C411.036 79.7995 411.623 82.184 412.713 84.3529" fill="#164194"/>
<path d="M419.362 102.234V102.924C416.183 104.414 412.493 107.177 412.493 111.029C412.018 118.298 418.887 122.15 418.156 129.201C419.252 130.073 420.275 128.51 421.554 128.655C425.718 128.365 437.555 129.6 440.332 126.22C441.026 126.22 441.501 126.475 442.049 126.802C441.426 127.948 440.524 128.92 439.427 129.631C438.329 130.342 437.071 130.769 435.765 130.872C429.299 131.49 421.882 126.075 416.658 131.963C420.604 122.804 407.05 116.844 411.543 107.104C412.277 105.631 413.302 104.321 414.558 103.253C415.813 102.185 417.274 101.381 418.85 100.889L419.252 102.088L419.362 102.234Z" fill="#164194"/>
<path d="M484.245 109.902C485.195 118.007 475.733 122.368 478.327 130.472C470.363 125.929 460.06 136.832 453.192 127.419C453.192 126.765 453.886 126.293 454.361 126.075C455.786 126.474 456.261 127.783 457.503 128.582C463.677 132.98 470.217 127.238 476.829 128.909C477.231 128.11 476.829 126.547 477.231 125.53C479.752 119.787 485.999 112.519 480.081 106.304C478.528 104.975 476.728 103.962 474.783 103.324C474.235 102.452 475.112 101.834 475.331 101.034C478.985 102.379 483.844 105.613 484.245 109.902Z" fill="#164194"/>
<path d="M469.266 111.392C468.791 111.647 468.791 111.102 468.572 110.847C468.353 110.593 468.791 110.084 469.266 110.302V111.392Z" fill="#164194"/>
<path d="M427.07 110.848C427.07 111.102 427.07 111.502 427.07 111.647C427.07 111.792 426.669 111.32 426.449 111.247C426.047 110.557 427.217 110.157 427.217 110.848" fill="#164194"/>
<path d="M471.491 113.137C471.273 113.137 471.201 113.137 471.092 113.137C470.983 113.137 470.656 112.047 471.092 112.047C471.527 112.047 471.092 112.665 471.31 112.992" fill="#164194"/>
<path d="M429.114 112.882C429.158 112.94 429.182 113.01 429.182 113.082C429.182 113.155 429.158 113.225 429.114 113.282H428.714V112.337C429.259 112.119 429.114 112.737 429.259 112.882" fill="#164194"/>
<path d="M425.17 112.882C425.17 113.21 425.17 113.537 425.17 113.682C425.17 113.827 424.769 113.464 424.549 113.282C424.33 113.101 425.317 112.119 425.317 112.882" fill="#164194"/>
<path d="M467.363 113.537H466.819V112.592H467.363V113.537Z" fill="#164194"/>
<path d="M428.422 122.55C427.618 122.005 426.778 123.313 426.668 123.894C426.648 123.679 426.581 123.47 426.473 123.282C426.365 123.094 426.218 122.931 426.042 122.804C425.866 122.676 425.664 122.588 425.451 122.544C425.238 122.5 425.018 122.502 424.805 122.55C425.823 120.329 426.536 117.982 426.924 115.572C427.198 117.94 427.699 120.277 428.422 122.55Z" fill="#164194"/>
<path d="M470.764 122.695C470.764 122.368 470.289 122.695 470.07 122.695L469.12 124.185C469.034 123.611 468.75 123.084 468.317 122.695H467.367L469.266 115.426C469.641 117.873 470.141 120.299 470.764 122.695Z" fill="#164194"/>
<path d="M461.923 133.453C467.147 133.743 471.787 130.109 476.829 132.435C469.226 137.612 460.405 140.744 451.225 141.527C442.046 142.311 432.818 140.718 424.44 136.905L418.375 133.271C419.046 132.547 419.868 131.978 420.783 131.601C421.697 131.225 422.683 131.05 423.672 131.09C430.139 132.108 439.601 135.415 444.095 128.292C445.224 128.733 446.435 128.925 447.646 128.856C448.857 128.787 450.038 128.458 451.109 127.892C452.305 129.67 453.942 131.11 455.863 132.071C457.783 133.033 459.922 133.484 462.069 133.38" fill="#164194"/>
<path d="M492.21 103.179C488.828 103.497 485.45 102.536 482.748 100.489C482.748 99.4715 483.624 99.0717 484.392 98.999C487.412 99.4311 490.181 100.912 492.21 103.179Z" fill="white"/>
<path d="M410.593 100.889C410.593 102.852 408.474 103.07 407.196 103.724C405.531 104.174 403.804 104.358 402.081 104.269C403.049 103.05 404.281 102.064 405.685 101.384C407.089 100.705 408.63 100.349 410.191 100.344L410.593 100.889Z" fill="white"/>
<path d="M449.575 130.473C449.546 132.837 449.088 135.176 448.223 137.378C447.602 135.016 445.483 131.345 447.931 129.128C448.315 129.142 448.684 129.281 448.981 129.524C449.278 129.767 449.487 130.1 449.575 130.473Z" fill="white"/>
<path d="M383.815 107.794C383.96 108.435 384.233 109.041 384.618 109.575L382.426 108.848C382.139 108.77 381.88 108.612 381.68 108.394C381.479 108.175 381.346 107.904 381.294 107.613L380.161 102.343L376.91 103.106C376.426 103.154 375.969 103.347 375.597 103.658C375.226 103.969 374.957 104.385 374.827 104.85L373.476 99.1445C374.024 99.8714 374.864 100.017 376.106 99.726L385.166 97.6181C386.408 97.3273 387.066 96.8185 387.249 95.9463L390.171 109.066C389.97 109 389.752 109 389.55 109.066C389.295 109.066 388.418 109.72 386.774 110.593C387.286 108.873 387.286 107.042 386.774 105.323L385.787 101.143L382.353 101.798L383.815 107.794Z" fill="#164194"/>
<path d="M389.587 123.386C390.163 123.174 390.684 122.838 391.114 122.403C391.545 121.967 391.873 121.442 392.075 120.866C392.278 120.289 392.349 119.676 392.286 119.068C392.222 118.461 392.024 117.875 391.706 117.353C391.447 116.736 391.055 116.184 390.556 115.737C390.057 115.29 389.464 114.959 388.821 114.768C388.178 114.576 387.5 114.53 386.836 114.631C386.172 114.732 385.539 114.979 384.983 115.354C384.415 115.569 383.901 115.906 383.479 116.342C383.057 116.777 382.736 117.3 382.541 117.873C382.345 118.446 382.28 119.055 382.348 119.656C382.417 120.257 382.618 120.836 382.938 121.351C383.189 121.964 383.574 122.514 384.065 122.961C384.556 123.408 385.141 123.741 385.777 123.936C386.414 124.13 387.085 124.182 387.744 124.087C388.403 123.992 389.032 123.752 389.587 123.386ZM380.709 122.695C380.117 121.842 379.714 120.873 379.53 119.852C379.345 118.832 379.382 117.783 379.638 116.778C379.894 115.773 380.363 114.834 381.014 114.024C381.665 113.214 382.483 112.552 383.413 112.083C384.343 111.561 385.377 111.248 386.442 111.166C387.507 111.085 388.576 111.237 389.576 111.611C390.576 111.985 391.481 112.573 392.227 113.332C392.974 114.092 393.544 115.005 393.898 116.008C394.507 116.869 394.921 117.851 395.112 118.887C395.302 119.923 395.264 120.987 395 122.007C394.735 123.027 394.252 123.977 393.582 124.792C392.913 125.608 392.073 126.269 391.121 126.729C390.188 127.229 389.157 127.522 388.099 127.586C387.041 127.65 385.982 127.484 384.995 127.101C384.008 126.717 383.117 126.124 382.383 125.363C381.649 124.603 381.09 123.692 380.746 122.695H380.709Z" fill="#164194"/>
<path d="M400.656 137.196C401.152 136.844 401.563 136.387 401.86 135.858C402.157 135.329 402.333 134.742 402.375 134.137C402.417 133.533 402.324 132.927 402.102 132.362C401.881 131.798 401.537 131.289 401.095 130.872C400.691 130.339 400.172 129.903 399.575 129.597C398.979 129.291 398.321 129.123 397.65 129.106C396.979 129.088 396.313 129.222 395.701 129.496C395.089 129.771 394.548 130.179 394.117 130.691C393.618 131.042 393.205 131.499 392.907 132.03C392.609 132.56 392.435 133.151 392.396 133.757C392.358 134.363 392.456 134.971 392.684 135.534C392.912 136.098 393.265 136.604 393.715 137.014C394.12 137.538 394.637 137.966 395.228 138.267C395.819 138.568 396.47 138.735 397.134 138.756C397.798 138.776 398.458 138.651 399.067 138.387C399.676 138.124 400.219 137.73 400.656 137.233V137.196ZM391.888 138.868C388.235 134.943 388.418 130.872 391.706 127.965C392.466 127.214 393.383 126.638 394.392 126.279C395.401 125.92 396.477 125.786 397.543 125.886C398.61 125.987 399.642 126.32 400.565 126.861C401.488 127.402 402.28 128.139 402.885 129.019C403.662 129.701 404.285 130.54 404.711 131.48C405.138 132.42 405.359 133.439 405.359 134.47C405.359 135.502 405.138 136.521 404.711 137.461C404.285 138.401 403.662 139.24 402.885 139.922C402.119 140.629 401.21 141.164 400.219 141.492C399.228 141.82 398.177 141.933 397.139 141.823C396.1 141.712 395.097 141.382 394.198 140.853C393.298 140.325 392.523 139.611 391.925 138.759L391.888 138.868Z" fill="#164194"/>
<path d="M405.515 148.172L405.917 147.517L411.069 139.885L410.484 139.486C409.048 138.394 407.319 137.749 405.515 137.632C406.904 136.433 407.781 135.851 407.927 135.597C407.989 135.396 407.989 135.18 407.927 134.979L419.508 142.684C419.301 142.744 419.12 142.872 418.996 143.047C418.996 143.265 418.631 144.283 418.046 146.064C417.234 144.442 415.964 143.091 414.393 142.175L413.955 141.775L408.803 149.407C408.499 149.794 408.31 150.258 408.259 150.747C408.207 151.235 408.294 151.728 408.511 152.169L403.616 149.044C403.972 149.094 404.335 149.05 404.669 148.916C405.002 148.782 405.294 148.563 405.515 148.281V148.172Z" fill="#164194"/>
<path d="M425.974 151.043C427.801 151.661 428.824 151.479 429.225 150.316C429.627 149.153 428.897 148.535 427.326 147.99L423.672 146.791L422.613 149.916L425.937 151.043H425.974ZM424.988 157.076C426.851 157.694 428.02 157.403 428.422 156.204C428.824 155.004 428.02 154.205 426.12 153.587L421.882 152.133L420.713 155.768L424.988 157.221V157.076ZM417.462 154.423L420.348 145.773C420.75 144.574 420.713 143.702 420.019 143.047L427.326 145.591C431.527 147.009 433.536 148.426 432.66 151.043C432.423 151.709 431.964 152.275 431.359 152.645C430.754 153.016 430.04 153.168 429.335 153.078C431.6 154.168 432.331 155.549 431.71 157.403C430.723 160.238 428.056 160.674 423.49 159.111L415.525 156.313C416.475 156.313 417.023 155.622 417.462 154.386V154.423Z" fill="#164194"/>
<path d="M443.62 157.367L441.172 150.571L437.738 156.858L443.62 157.367ZM449.575 163.073H444.314C444.623 162.776 444.806 162.373 444.825 161.946C444.87 161.657 444.87 161.363 444.825 161.074L444.46 159.947L436.349 159.22L435.984 159.875C435.841 160.158 435.754 160.467 435.728 160.783C435.695 161.327 435.879 161.863 436.24 162.273L430.796 161.074C431.518 160.592 432.139 159.975 432.623 159.257L438.615 149.444C438.751 149.259 438.85 149.049 438.907 148.826C438.939 148.658 438.939 148.486 438.907 148.317L444.752 148.826C444.652 148.983 444.578 149.155 444.533 149.335C444.484 149.55 444.484 149.774 444.533 149.989L448.186 160.892C448.524 161.762 449.02 162.562 449.648 163.255L449.575 163.073Z" fill="#164194"/>
<path d="M448.771 149.044L454.617 148.245C454.217 148.521 453.915 148.915 453.751 149.371C453.587 149.827 453.571 150.323 453.703 150.789L454.982 159.947L458.964 159.402C460.924 159.253 462.771 158.431 464.189 157.076C463.828 158.27 463.535 159.484 463.312 160.71C463.378 160.934 463.504 161.135 463.677 161.292L450.708 163.109C451.475 162.637 451.694 161.801 451.548 160.565L450.233 151.407C450.233 150.171 449.612 149.444 448.735 149.19L448.771 149.044Z" fill="#164194"/>
<path d="M460.827 147.627L466.38 145.664C466.049 146.021 465.836 146.47 465.771 146.951C465.705 147.433 465.791 147.922 466.015 148.353L469.157 157.04L472.81 155.695C474.724 155.136 476.371 153.911 477.45 152.242C477.38 153.453 477.38 154.666 477.45 155.877C477.45 156.058 477.706 156.167 477.925 156.349L465.577 160.747C465.903 160.393 466.107 159.945 466.16 159.468C466.213 158.99 466.111 158.509 465.869 158.093L462.763 149.371C462.325 148.172 461.74 147.59 460.827 147.518V147.627Z" fill="#164194"/>
<path d="M494.584 145.773C493.707 146.391 492.611 147.772 490.931 149.044C490.192 149.748 489.307 150.281 488.337 150.605C487.368 150.928 486.338 151.035 485.323 150.917C484.307 150.799 483.33 150.459 482.462 149.922C481.593 149.384 480.855 148.663 480.3 147.808C479.653 146.937 479.203 145.937 478.981 144.876C478.759 143.816 478.77 142.72 479.013 141.664C479.256 140.608 479.725 139.617 480.388 138.758C481.052 137.899 481.894 137.193 482.857 136.687C484.83 135.27 486.51 134.761 487.277 134.216C487.499 134.065 487.696 133.881 487.862 133.671L488.848 137.305C487.28 137.313 485.756 137.823 484.501 138.759C483.95 139.087 483.474 139.525 483.102 140.045C482.73 140.565 482.471 141.156 482.34 141.781C482.21 142.406 482.211 143.052 482.344 143.676C482.477 144.301 482.739 144.891 483.113 145.41C483.423 145.983 483.861 146.478 484.394 146.857C484.927 147.235 485.54 147.487 486.186 147.592C486.832 147.697 487.493 147.654 488.12 147.464C488.746 147.275 489.32 146.945 489.798 146.5C491.333 145.341 492.582 143.849 493.452 142.139L495.644 145.228C495.309 145.33 494.989 145.477 494.694 145.664L494.584 145.773Z" fill="#164194"/>
<path d="M487.643 133.562L491.552 129.128C491.432 129.601 491.462 130.1 491.639 130.556C491.815 131.011 492.13 131.401 492.538 131.672L499.516 137.741L502.147 134.761C503.5 133.327 504.291 131.457 504.375 129.491C504.896 130.626 505.482 131.73 506.129 132.799C506.129 132.799 506.494 132.799 506.786 132.799L498.128 142.648C498.384 141.775 498.128 140.976 497.068 140.14L490.09 134.071C489.141 133.235 488.337 132.98 487.497 133.38L487.643 133.562Z" fill="#164194"/>
<path d="M512.157 124.985C509.892 129.056 507.152 130.146 503.864 128.329L498.311 125.276C497.142 124.658 496.265 124.585 495.534 125.276L498.384 120.188C498.384 121.133 498.822 121.75 499.955 122.405L505.435 125.421C505.835 125.663 506.287 125.807 506.754 125.844C507.221 125.88 507.69 125.807 508.124 125.63C508.557 125.454 508.943 125.178 509.25 124.826C509.557 124.474 509.777 124.056 509.892 123.604C510.179 123.255 510.382 122.846 510.484 122.407C510.587 121.969 510.588 121.512 510.485 121.073C510.383 120.634 510.181 120.225 509.894 119.876C509.608 119.527 509.244 119.248 508.832 119.061L503.352 116.335C502.293 115.754 501.526 115.536 500.612 116.335L503.462 111.211C503.462 112.083 503.9 112.846 505.033 113.464L510.623 116.517C513.911 118.334 514.276 121.205 512.157 125.312V124.985Z" fill="#164194"/>
<path d="M517.126 104.269C517.564 102.343 517.126 101.253 515.92 100.962C514.714 100.671 513.947 101.543 513.509 103.506L512.522 107.831L516.176 108.667L517.199 104.269H517.126ZM511.024 103.906C511.426 102.052 511.025 101.035 509.928 100.78C508.832 100.526 508.175 101.253 507.81 102.888L506.969 106.522L510.221 107.286L511.024 103.869V103.906ZM515.335 112.01L506.385 109.939C505.143 109.648 504.266 109.939 503.718 110.557L505.471 102.924C506.458 98.5996 507.7 96.4554 510.403 97.0732C511.089 97.2382 511.698 97.6304 512.129 98.1852C512.561 98.7401 512.79 99.4246 512.778 100.126C513.618 97.8001 514.934 96.9279 516.87 97.364C519.793 98.0545 520.523 100.635 519.427 105.323L517.491 113.682C517.308 112.774 516.614 112.301 515.335 112.01Z" fill="#164194"/>
<path d="M374.097 79.9917L375.375 74.2494C375.496 74.7201 375.762 75.1414 376.135 75.4543C376.508 75.7671 376.971 75.9558 377.458 75.9939L386.518 77.9928L387.468 74.1041C388.017 72.1994 387.861 70.1622 387.03 68.3618C388.016 69.1216 389.054 69.8137 390.135 70.4334C390.35 70.494 390.578 70.494 390.793 70.4334L387.979 83.1899C387.76 82.2813 387.103 81.7725 385.86 81.5181L376.8 79.5192C376.352 79.3331 375.857 79.2926 375.384 79.4036C374.912 79.5146 374.487 79.7713 374.17 80.1371L374.097 79.9917Z" fill="#164194"/>
<path d="M389.258 67.1627L381.001 62.9469C380.604 62.6733 380.133 62.5268 379.65 62.5268C379.167 62.5268 378.695 62.6733 378.298 62.9469L385.057 49.8633C385.14 50.0477 385.281 50.2006 385.458 50.2994C386.482 50.5581 387.519 50.7643 388.564 50.9172C387.059 51.9126 385.869 53.3112 385.13 54.9513L382.572 59.9304L385.495 61.4568L388.345 55.9326C388.64 55.3558 388.814 54.7251 388.856 54.0791L390.098 56.0416C390.249 56.2945 390.329 56.5833 390.329 56.8775C390.329 57.1718 390.249 57.4605 390.098 57.7134L387.577 62.5471L390.756 64.1462L393.459 58.9128C394.48 57.2089 394.844 55.1939 394.482 53.2432C395.242 54.2228 396.072 55.1459 396.967 56.0053C397.191 56.0828 397.436 56.0828 397.661 56.0053L390.792 69.307C390.792 68.3984 390.317 67.7442 389.185 67.1627H389.258Z" fill="#164194"/>
<path d="M392.4 44.3756L399.707 50.0089C400.73 50.8084 401.57 51.0265 402.41 50.5903L398.757 55.1696C398.976 54.261 398.757 53.5342 397.551 52.7346L390.245 47.1014C389.222 46.3018 388.381 46.0838 387.578 46.5199L391.231 41.9043C390.975 42.8129 391.231 43.5761 392.4 44.3756Z" fill="#164194"/>
<path d="M411.434 41.6856C410.667 42.3761 409.717 43.8662 408.073 45.3199C407.425 46.1102 406.609 46.7472 405.683 47.1846C404.758 47.6221 403.746 47.849 402.721 47.849C401.696 47.849 400.684 47.6221 399.758 47.1846C398.832 46.7472 398.016 46.1102 397.369 45.3199C396.631 44.5261 396.073 43.5842 395.732 42.5576C395.391 41.531 395.276 40.4437 395.394 39.3689C395.512 38.2942 395.86 37.2571 396.415 36.3276C396.97 35.3981 397.718 34.5979 398.611 33.9808C399.918 32.9131 401.284 31.9182 402.703 31.0006C402.887 30.8157 403.046 30.6081 403.177 30.3828L404.639 33.7991C403.075 34.028 401.613 34.7107 400.437 35.7616C399.917 36.1664 399.489 36.6763 399.181 37.2576C398.873 37.839 398.692 38.4786 398.651 39.1345C398.61 39.7903 398.708 40.4474 398.941 41.0625C399.173 41.6776 399.534 42.2368 399.999 42.7032C400.376 43.2341 400.87 43.6721 401.443 43.9835C402.017 44.2949 402.654 44.4714 403.307 44.4995C403.959 44.5276 404.61 44.4065 405.208 44.1455C405.806 43.8845 406.336 43.4906 406.758 42.9939C408.113 41.673 409.139 40.055 409.754 38.2693L412.347 41.0677C412.006 41.1795 411.694 41.3657 411.434 41.6129V41.6856Z" fill="#164194"/>
<path d="M412.457 38.0151L408.109 29.8742C407.525 28.7476 406.831 28.2388 405.917 28.3115L419.033 21.4062C418.957 21.6053 418.957 21.825 419.033 22.0241C419.033 22.2421 419.983 22.9327 421.262 24.2774C419.478 24.2023 417.709 24.6173 416.147 25.4767L411.178 28.1298L412.713 31.0009L418.229 28.1298C418.807 27.8217 419.316 27.4015 419.727 26.8941V29.1837C419.715 29.484 419.62 29.7751 419.452 30.0252C419.285 30.2752 419.051 30.4745 418.777 30.6011L413.955 33.1451L415.635 36.2707L420.896 33.5086C422.676 32.671 424.109 31.2453 424.951 29.4745C425.022 30.6956 425.181 31.9102 425.426 33.1088C425.426 33.1088 425.682 33.3995 425.938 33.5449L412.676 40.5228C412.961 40.1319 413.115 39.6612 413.115 39.1781C413.115 38.6951 412.961 38.2244 412.676 37.8334L412.457 38.0151Z" fill="#164194"/>
<path d="M432.112 29.8381C434.413 29.2566 435.4 28.3843 435.107 27.185C434.815 25.9857 433.135 26.0584 430.321 26.3491C426.851 26.7125 424.878 25.8766 424.367 23.7687C423.855 21.6608 425.609 18.8987 429.554 17.9538C432.039 17.336 434.011 17.336 435.071 17.0816C435.266 17.027 435.451 16.9411 435.619 16.8271V20.4615C433.794 19.9274 431.854 19.9274 430.029 20.4615C428.349 20.8613 427.581 21.5881 427.801 22.4604C428.02 23.3326 429.7 23.2599 432.733 23.1145C435.765 22.9692 438.067 23.6233 438.651 25.9857C439.345 28.9295 437.299 31.2554 432.733 32.3457C430.65 32.8546 429.079 32.9272 428.203 33.109C427.955 33.1804 427.721 33.2908 427.508 33.436L425.718 29.8017C427.819 30.3089 430.011 30.3089 432.112 29.8017V29.8381Z" fill="#164194"/>
<path d="M442.999 28.6388C442.999 28.6388 442.999 28.2754 442.999 27.8393L442.597 18.6808H441.903C440.095 18.6411 438.315 19.1343 436.788 20.0981C437.19 18.281 437.555 17.2997 437.555 17.009C437.532 16.8044 437.442 16.613 437.3 16.4638L451.219 15.8823C451.089 16.0499 451.012 16.2525 451 16.4638C451 16.7182 451.438 17.6995 452.023 19.444C450.407 18.6401 448.598 18.3003 446.798 18.4627H445.921L446.287 27.6212C446.267 28.1155 446.387 28.6054 446.632 29.0357C446.877 29.466 447.238 29.8194 447.675 30.0562L441.793 30.2743C442.112 30.1126 442.382 29.8689 442.575 29.5686C442.768 29.2683 442.876 28.9222 442.889 28.5661L442.999 28.6388Z" fill="#164194"/>
<path d="M451.876 27.5847L453.557 18.4988C453.813 17.2632 453.557 16.4273 452.826 15.9185L467.44 18.5715C467.288 18.7104 467.175 18.8856 467.111 19.0803C467.111 19.3711 467.111 20.3887 467.403 22.2422C466.027 21.079 464.337 20.3457 462.544 20.1343L456.881 19.1167L456.26 22.3512L462.398 23.4779C463.037 23.6091 463.696 23.6091 464.334 23.4779L462.8 25.2223C462.601 25.4406 462.347 25.6026 462.065 25.6919C461.783 25.7813 461.482 25.7948 461.192 25.7312L455.822 24.7499L455.201 28.3842L461.046 29.4382C462.963 29.9081 464.986 29.6759 466.746 28.784C466.034 29.8091 465.387 30.8772 464.809 31.9822C464.749 32.1838 464.749 32.3984 464.809 32.6L450.196 29.9106C451.073 29.7289 451.548 29.0021 451.767 27.7664L451.876 27.5847Z" fill="#164194"/>
<path d="M476.865 29.1113C478.911 30.0926 479.971 30.0926 480.519 28.7115C481.067 27.3305 480.519 26.5673 478.473 25.586L475.148 24.0959L473.431 27.7302L476.829 29.3657L476.865 29.1113ZM471.166 35.1079L465.905 32.7456C466.819 32.7456 467.476 32.2005 468.024 31.0375L472.079 22.7876C472.359 22.3945 472.51 21.9246 472.51 21.4428C472.51 20.9611 472.359 20.4912 472.079 20.0981L479.569 23.7325C480.876 24.299 482.104 25.032 483.222 25.9131C483.841 26.4931 484.248 27.2612 484.381 28.0966C484.513 28.9321 484.362 29.7875 483.953 30.5287C483.447 31.3843 482.644 32.0264 481.695 32.3343C480.747 32.6422 479.717 32.5946 478.802 32.2005C479.522 33.1055 479.943 34.2099 480.007 35.3623C480.008 36.9681 480.357 38.5549 481.03 40.0143L475.587 37.3612C475.742 37.3303 475.888 37.2653 476.014 37.171C476.141 37.0767 476.244 36.9554 476.317 36.8161C476.655 35.7765 476.655 34.6574 476.317 33.6179C476.189 32.9686 475.907 32.3592 475.494 31.8407C475.081 31.3223 474.549 30.9097 473.943 30.6377L472.445 29.9108L471.203 32.5276C470.914 32.9241 470.759 33.401 470.759 33.8904C470.759 34.3798 470.914 34.8567 471.203 35.2533L471.166 35.1079Z" fill="#164194"/>
<path d="M493.086 50.9172C492.319 50.1903 490.785 49.3544 489.214 47.7917C488.386 47.1942 487.703 46.4214 487.212 45.5291C486.721 44.6368 486.436 43.6472 486.376 42.6319C486.317 41.6165 486.485 40.6007 486.868 39.6577C487.252 38.7148 487.841 37.8683 488.593 37.1794C489.35 36.3996 490.266 35.7908 491.28 35.3944C492.294 34.9979 493.382 34.8231 494.47 34.8817C495.558 34.9403 496.621 35.2309 497.586 35.734C498.551 36.2371 499.396 36.9407 500.064 37.7972C501.781 39.469 502.585 41.0681 503.243 41.686C503.442 41.869 503.663 42.0276 503.9 42.1584L500.539 43.7575C500.244 42.2203 499.478 40.8114 498.347 39.7234C497.912 39.2293 497.375 38.8333 496.773 38.562C496.172 38.2908 495.519 38.1504 494.858 38.1504C494.198 38.1504 493.545 38.2908 492.943 38.562C492.341 38.8333 491.805 39.2293 491.369 39.7234C490.847 40.1203 490.423 40.6317 490.132 41.2179C489.84 41.8041 489.688 42.4493 489.688 43.1034C489.688 43.7574 489.84 44.4026 490.132 44.9888C490.423 45.575 490.847 46.0864 491.369 46.4833C492.767 47.7567 494.443 48.6898 496.265 49.209L493.598 51.8984C493.451 51.5786 493.253 51.2842 493.013 51.0262L493.086 50.9172Z" fill="#164194"/>
<path d="M506.531 50.2267L499.005 55.4602C497.945 56.187 497.507 56.9139 497.69 57.8225L494.329 53.0615C495.132 53.534 495.936 53.3523 497.032 52.6254L504.558 47.2829C505.618 46.5197 506.056 45.8292 505.873 44.8843L509.234 49.6816C508.431 49.2091 507.59 49.3545 506.531 50.1177V50.2267Z" fill="#164194"/>
<path d="M501.672 61.5296L502.366 61.2025L510.732 57.2411L510.403 56.6232C509.73 54.9666 508.588 53.5399 507.115 52.5164C508.906 52.153 509.965 52.1166 510.257 51.9713C510.426 51.8616 510.564 51.7116 510.659 51.5352L516.651 64.0736C516.451 63.9982 516.23 63.9982 516.03 64.0736C515.774 64.0736 515.08 64.9822 513.655 66.1815C513.785 64.3887 513.391 62.5968 512.522 61.0208L512.194 60.3666L503.864 64.328C503.398 64.4852 502.99 64.7764 502.691 65.1645C502.392 65.5527 502.215 66.0205 502.183 66.5086L499.663 61.2388C499.933 61.4754 500.267 61.6288 500.624 61.6804C500.981 61.732 501.345 61.6796 501.672 61.5296Z" fill="#164194"/>
<path d="M519.172 78.2107C519.537 78.2107 519.72 77.9199 519.902 77.5202L521.071 83.008C520.025 82.3587 518.925 81.7994 517.783 81.3362L510.477 77.7019L508.321 78.138C507.042 78.3924 506.312 78.9739 506.166 79.8461L504.96 74.1039C505.544 74.9034 506.348 75.0125 507.59 74.7581L509.709 74.3219L515.701 67.9619C516.547 67.2495 517.179 66.3189 517.528 65.2725L518.806 71.3055C518.699 71.1615 518.553 71.0509 518.384 70.9865C518.216 70.9222 518.033 70.9067 517.856 70.942C517.386 71.067 516.973 71.3493 516.687 71.7416L513.034 75.6666L518.258 77.8836C518.633 78.0625 519.053 78.1258 519.464 78.0653L519.172 78.2107Z" fill="#164194"/>
<path d="M478.51 66.5448V66.3631V66.036C478.547 63.8458 479.019 61.6844 479.898 59.6759C480.379 58.8375 480.662 57.901 480.725 56.9376C480.789 55.9742 480.631 55.0091 480.263 54.1154C480.252 53.9581 480.252 53.8002 480.263 53.643C480.051 52.9035 479.77 52.1856 479.423 51.4987L479.058 50.8809H478.4C472.022 53.0169 466.402 56.9422 462.216 62.1836L460.206 63.7101C460.223 63.6017 460.223 63.4913 460.206 63.383C460.105 62.9906 459.904 62.6307 459.622 62.3379C459.341 62.0451 458.988 61.8293 458.599 61.7112C454.793 60.4573 450.807 59.8311 446.798 59.8577C442.443 59.8062 438.125 60.6604 434.121 62.3653L433.281 62.7651L433.537 63.2376C428.386 58.84 418.704 50.9535 415.964 50.9535H415.453L415.233 51.2443C414.859 51.7761 414.575 52.3654 414.393 52.9888L414.174 53.2432C413.261 54.1518 413.005 55.2057 414.174 58.3676C415.134 60.6853 415.726 63.1376 415.928 65.6362C416.23 67.5691 416.795 69.452 417.608 71.2331C417.827 72.1417 419.362 78.5018 420.092 80.1009C420.362 80.5854 420.433 81.1549 420.29 81.69C420.147 82.2252 419.801 82.6846 419.325 82.972H419.106C418.373 83.3331 417.725 83.8431 417.202 84.4691C416.68 85.0951 416.295 85.8232 416.074 86.6063C416.026 87.353 416.149 88.1008 416.434 88.7933C416.718 89.4858 417.157 90.105 417.718 90.6041C417.961 91.0849 418.169 91.5829 418.339 92.0942C417.864 92.8574 418.339 93.2935 418.814 93.766L419.069 94.0204C419.506 94.4314 419.983 94.7968 420.494 95.1107C421.002 95.3976 421.449 95.7803 421.809 96.2373C421.98 96.4379 422.128 96.6574 422.248 96.8915C422.567 97.5462 423.076 98.0906 423.709 98.4543V99.3992C423.587 100.606 423.849 101.82 424.459 102.87C425.068 103.921 425.995 104.753 427.107 105.25L429.262 106.195C430.578 106.777 430.578 106.777 431.016 107.54C431.974 109.39 433.319 111.013 434.962 112.301C436.105 113.159 437.051 114.249 437.738 115.499L439.126 115.899C439.212 115.812 439.286 115.715 439.346 115.608C438.894 116.597 438.61 117.653 438.505 118.734C438.505 120.006 439.017 122.913 443.657 123.64L444.899 124.512L446.433 125.821H446.652H447.858L448.954 125.566H449.246L449.429 125.348L450.123 124.476L450.708 123.749C451.954 123.64 453.138 123.159 454.105 122.368C455.073 121.351 455.753 120.097 456.078 118.734C456.078 118.479 456.078 117.28 455.822 116.59L455.311 115.245C455.468 115.486 455.603 115.742 455.713 116.008L456.224 117.535L457.211 116.299L459.476 113.537L461.668 111.465C462.257 110.868 462.728 110.165 463.056 109.394L463.312 108.848C464.879 107.424 466.623 106.202 468.499 105.214C469.564 104.681 470.435 103.831 470.992 102.782C471.548 101.733 471.763 100.538 471.605 99.3629V98.9994L471.495 98.5633C471.756 97.9769 471.963 97.3688 472.116 96.7461C473.81 95.7653 475.349 94.5406 476.683 93.1118L477.012 92.712V92.2396C477.012 92.2396 476.427 90.7495 478.071 88.7869C479.715 86.8244 479.861 86.3519 479.569 85.6978C479.504 85.5388 479.4 85.3987 479.265 85.2907C479.131 85.1827 478.972 85.1102 478.802 85.0799C477.464 84.2379 476.309 83.1381 475.404 81.8454C475.42 81.6761 475.42 81.5058 475.404 81.3366C474.951 79.8474 475.109 78.2402 475.843 76.8663C476.512 75.8398 476.855 74.6369 476.829 73.4137C476.805 73.2815 476.805 73.1461 476.829 73.0139C477.311 70.8279 477.909 68.6685 478.619 66.5448H478.51Z" fill="#FBBA00"/>
<path d="M451.986 109.066L452.753 111.429L453.119 114.591L451.036 116.153L443.51 115.935L440.624 113.391L441.903 112.301L442.633 109.066C433.208 102.052 429.08 101.325 429.08 101.325C427.297 100.565 425.415 100.063 423.49 99.8352C423.367 101.042 423.63 102.256 424.239 103.306C424.849 104.356 425.776 105.189 426.887 105.686L429.043 106.631C430.358 107.213 430.358 107.213 430.797 107.976C431.868 109.69 433.286 111.163 434.961 112.301C436.105 113.159 437.051 114.249 437.738 115.499L439.126 115.899C439.212 115.812 439.286 115.715 439.345 115.608C438.893 116.597 438.609 117.653 438.505 118.734C438.505 120.006 439.017 122.913 443.656 123.64L444.899 124.512L446.433 125.821H446.652H447.858L448.954 125.566H449.246L449.429 125.348L450.123 124.476L450.707 123.749C451.954 123.64 453.138 123.158 454.105 122.368C455.073 121.35 455.753 120.097 456.078 118.734C456.078 118.479 456.078 117.28 455.822 116.589L455.311 115.245C455.468 115.486 455.602 115.742 455.713 116.008L456.224 117.534L457.21 116.299L459.475 113.537L461.667 111.465C462.257 110.868 462.728 110.165 463.056 109.393L463.311 108.848C464.879 107.423 466.622 106.202 468.499 105.214C469.557 104.672 470.422 103.821 470.977 102.774C471.532 101.728 471.752 100.537 471.605 99.3627L471.495 98.1634V97.9453L468.865 99.3627C451.913 105.723 451.986 109.066 451.986 109.066Z" fill="white"/>
<path d="M429.737 90.1318C429.737 90.1318 430.249 89.4413 431.527 90.4952C433.45 92.3081 435.968 93.3667 438.615 93.4754C438.615 93.4754 439.236 94.384 437.154 94.3113C436.271 94.3024 435.391 94.2173 434.523 94.0569C433.077 93.2216 431.781 92.1531 430.687 90.895C430.442 90.5803 430.113 90.3408 429.737 90.2045V90.1318Z" fill="#164194"/>
<path d="M448.844 70.4335L447.931 69.6702C447.654 68.9658 447.566 68.2018 447.675 67.4533C449.016 66.1577 450.542 65.0676 452.205 64.2188C451.712 65.1602 451.042 65.999 450.232 66.6901C449.632 67.0779 449.131 67.6008 448.771 68.2165C448.607 68.9465 448.607 69.7035 448.771 70.4335H448.844Z" fill="#164194"/>
<path d="M445.921 70.1791C445.921 70.1791 447.054 68.3255 446.469 67.7804L442.268 64.4731C442.268 64.4731 442.268 66.254 443.218 66.8718C444.168 67.4896 444.862 67.4533 444.935 67.8894V68.3255C444.871 68.4555 444.837 68.5985 444.837 68.7435C444.837 68.8884 444.871 69.0314 444.935 69.1614C445.264 69.5976 445.775 70.1791 445.775 70.1791H445.921Z" fill="#164194"/>
<path d="M455.274 80.7911C457.177 79.7604 459.156 78.8735 461.193 78.138C462.727 77.7746 461.193 77.4112 460.864 77.3021C460.402 77.2606 459.937 77.2606 459.476 77.3021L458.051 77.8836L457.357 78.2471L456.297 79.0466L455.493 79.3737L455.018 79.6281C455.018 79.6281 454.58 81.2272 455.274 80.9001V80.7911Z" fill="#164194"/>
<path d="M433.025 77.6659C433.025 77.0844 433.61 77.8839 434.048 78.1383C434.487 78.3927 436.752 79.0469 436.752 79.0469L437.446 79.5194L438.615 80.428L438.359 81.0095C437.992 81.0121 437.633 80.8975 437.336 80.6824C436.971 80.3189 435.838 79.5557 435.765 79.7738C435.692 79.9918 434.998 79.7738 434.414 79.4104C434.06 79.2502 433.749 79.0085 433.508 78.7051C433.266 78.4017 433.101 78.0455 433.025 77.6659Z" fill="#164194"/>
<path d="M428.459 68.6161C428.269 68.2718 428.121 67.9056 428.02 67.5258V67.1987C427.795 66.4279 427.648 65.6365 427.582 64.8364C427.417 63.5287 426.797 62.3198 425.828 61.4202L425.609 61.1658C425.517 60.9946 425.387 60.8467 425.229 60.7333C425.07 60.6199 424.888 60.5441 424.696 60.5116C424.476 60.5116 424.038 60.5116 422.979 59.3849C421.637 58.1323 420.195 56.9898 418.668 55.9687L416.695 54.5513L417.462 56.8046C417.724 57.5673 417.943 58.3438 418.12 59.1305C418.12 59.3849 418.12 59.8937 418.12 60.7296C418.216 61.4044 418.277 62.0837 418.302 62.7649C418.302 63.4554 418.777 66.3992 418.887 67.1624V67.4168C419.279 68.2286 419.719 69.0174 420.202 69.7791C420.42 70.0286 420.57 70.3286 420.64 70.6514C420.343 71.6958 420.407 72.8096 420.823 73.8132C421.262 75.267 422.065 75.5577 422.65 75.5577C423.059 75.5048 423.452 75.3676 423.804 75.1548C424.156 74.942 424.46 74.6584 424.696 74.322L425.536 73.3771L425.792 73.0864C426.23 72.6139 427.07 71.778 427.911 71.0511C428.167 70.8744 428.379 70.6416 428.531 70.3708C428.683 70.0999 428.771 69.7981 428.787 69.4884C428.778 69.0342 428.61 68.5975 428.313 68.2527L428.459 68.6161Z" fill="white"/>
<path d="M463.494 88.9323C463.337 88.9823 463.202 89.0867 463.115 89.2266C463.028 89.3666 462.994 89.5328 463.019 89.6955C463.019 90.386 460.243 92.6756 459.366 93.0754C458.424 93.3806 457.424 93.4676 456.443 93.3298C455.493 93.3298 455.164 94.6018 455.164 94.6018C454.902 95.0913 454.682 95.6019 454.507 96.1282C454.196 97.7674 453.768 99.3827 453.228 100.962C452.853 102.973 453.043 105.048 453.776 106.959C454.134 107.806 454.587 108.611 455.128 109.357C455.38 110.119 455.503 110.917 455.493 111.72L456.114 109.503C456.114 109.503 456.114 108.703 455.895 108.231C455.676 107.758 455.128 107.177 454.909 106.377C454.557 105.186 454.288 103.971 454.105 102.743C454.105 102.161 454.69 99.1084 454.799 98.3815C455.155 97.2961 455.387 96.1747 455.493 95.0379V94.5291C456.985 94.6589 458.486 94.4142 459.858 93.8173C461.231 93.2205 462.431 92.2906 463.348 91.1129C463.733 90.388 464.027 89.6191 464.225 88.8232L463.494 88.9323Z" fill="#164194"/>
<path d="M475.441 55.7147C474.412 56.6776 473.257 57.4968 472.006 58.1497C469.632 59.5671 466.892 61.1662 466.672 64.5098V64.8005V65.0549C467.22 65.8181 466.928 66.436 466.307 67.4899C465.945 68.0107 465.674 68.588 465.503 69.1981V69.7432L465.942 70.0703C466.579 70.5831 467.167 71.155 467.695 71.7784C468.177 72.4922 468.797 73.1038 469.518 73.5779C470.239 74.052 471.048 74.3792 471.897 74.5405H472.372L472.664 74.1408C473.523 72.8186 474.049 71.3103 474.198 69.7432C474.332 68.4542 474.757 67.212 475.441 66.1089L475.66 65.8181V65.491C475.54 63.7114 475.751 61.9251 476.281 60.2213C476.626 58.9355 476.859 57.6221 476.975 56.2962V53.9702L475.404 55.6784L475.441 55.7147Z" fill="white"/>
<path d="M439.199 95.8008C439.491 99.4351 442.853 102.197 440.624 105.795C440.88 107.83 438.943 108.848 438.395 110.556C437.519 110.556 437.921 109.139 438.03 108.557C439.09 106.866 439.7 104.935 439.802 102.945C439.905 100.955 439.496 98.9714 438.615 97.1818C438.615 96.6003 438.615 95.9462 439.309 95.8008" fill="#164194"/>
<path d="M474.82 65.4543C473.029 67.9257 473.797 71.342 472.006 73.777C469.522 73.4862 468.353 70.8695 466.38 69.3431C466.782 67.7076 468.791 66.2902 467.476 64.364C467.805 59.6757 473.322 58.8762 476.135 55.8233C475.4 58.9866 474.959 62.2106 474.82 65.4543ZM476.865 53.5337C473.724 56.2231 469.814 57.1681 466.928 60.439C464.042 62.9466 467.403 67.1988 463.275 69.1614C465.855 71.9515 468.791 74.395 472.006 76.43C474.454 74.9763 474.527 72.2142 474.673 69.7065C477.158 65.309 475.916 60.1482 477.888 55.4599C477.486 54.8057 477.888 53.243 476.719 53.5337H476.865Z" fill="#164194"/>
<path d="M427.655 70.9785C426.746 71.7293 425.891 72.543 425.097 73.4136C424.76 73.7459 424.443 74.0978 424.147 74.4675C424.147 74.4675 422.43 76.7571 421.59 74.2131C420.75 71.6691 421.59 71.56 421.59 70.8695C421.473 70.3929 421.234 69.9546 420.896 69.5975C420.567 69.125 419.617 67.2715 419.617 67.2715C419.617 67.2715 419.033 63.6372 419.033 62.874C419.033 62.1108 418.667 59.6394 418.667 59.2397C418.485 58.3279 418.241 57.4294 417.937 56.5502C419.474 57.5605 420.927 58.6907 422.284 59.9302C424.257 61.7837 424.622 61.0932 424.842 61.5656C425.877 62.4638 426.583 63.678 426.851 65.0182C426.897 66.0112 427.094 66.9915 427.436 67.9257C427.589 68.4022 427.785 68.8643 428.02 69.3068C428.02 69.3068 428.933 70.1063 427.764 71.0512L427.655 70.9785ZM428.933 67.9621C428.714 67.3806 428.13 67.962 428.349 66.2539C428.86 62.6196 428.349 64.255 426.486 61.0205C425.967 60.4287 425.513 59.7829 425.134 59.0943C425.134 58.6945 424.732 58.9126 424.147 58.5855C423.563 58.2584 423.234 58.113 422.43 57.6405C421.621 57.1506 420.903 56.5233 420.311 55.787C419.321 54.9905 418.227 54.3304 417.06 53.8245C416.93 53.7213 416.769 53.665 416.603 53.665C416.437 53.665 416.276 53.7213 416.147 53.8245C415.562 53.8245 416.366 56.2595 416.366 56.732C416.51 58.7093 416.778 60.6757 417.17 62.6196C417.551 64.9915 418.137 67.3262 418.923 69.5975C419.471 71.0421 419.791 72.5622 419.873 74.1041C419.89 74.8426 420.098 75.5643 420.475 76.2005C420.852 76.8367 421.387 77.3662 422.029 77.7384C423.419 76.416 424.909 75.2011 426.486 74.1041C427.452 73.4933 428.255 72.6576 428.824 71.6691C429.518 70.7241 429.518 70.7241 430.102 69.8156C430.687 68.907 429.189 68.7616 428.933 68.1801V67.9621Z" fill="#164194"/>
<path d="M438.615 90.8947C438.615 91.4152 438.407 91.9144 438.037 92.2824C437.667 92.6505 437.165 92.8572 436.642 92.8572C436.119 92.8572 435.617 92.6505 435.247 92.2824C434.877 91.9144 434.669 91.4152 434.669 90.8947C434.669 90.3742 434.877 89.875 435.247 89.5069C435.617 89.1389 436.119 88.9321 436.642 88.9321C437.165 88.9321 437.667 89.1389 438.037 89.5069C438.407 89.875 438.615 90.3742 438.615 90.8947Z" fill="#164194"/>
<path d="M436.058 90.0953C436.063 90.1508 436.056 90.2067 436.038 90.2595C436.02 90.3122 435.991 90.3607 435.954 90.4018C435.916 90.4428 435.87 90.4756 435.818 90.4979C435.767 90.5202 435.712 90.5316 435.656 90.5314C435.539 90.5314 435.428 90.4855 435.346 90.4037C435.263 90.3219 435.217 90.2109 435.217 90.0953C435.217 90.0396 435.229 89.9844 435.251 89.9334C435.273 89.8824 435.306 89.8366 435.348 89.7989C435.389 89.7613 435.438 89.7326 435.491 89.7148C435.544 89.697 435.6 89.6904 435.656 89.6955C435.762 89.6955 435.864 89.7376 435.94 89.8126C436.015 89.8876 436.058 89.9893 436.058 90.0953Z" fill="white"/>
<path d="M460.17 90.8945C460.208 91.1722 460.186 91.4547 460.105 91.7232C460.024 91.9917 459.887 92.2399 459.702 92.451C459.517 92.6622 459.288 92.8315 459.032 92.9475C458.775 93.0635 458.497 93.1235 458.215 93.1235C457.933 93.1235 457.655 93.0635 457.398 92.9475C457.142 92.8315 456.913 92.6622 456.728 92.451C456.543 92.2399 456.406 91.9917 456.325 91.7232C456.244 91.4547 456.222 91.1722 456.26 90.8945C456.222 90.6169 456.244 90.3343 456.325 90.0658C456.406 89.7973 456.543 89.5492 456.728 89.338C456.913 89.1268 457.142 88.9575 457.398 88.8415C457.655 88.7255 457.933 88.6655 458.215 88.6655C458.497 88.6655 458.775 88.7255 459.032 88.8415C459.288 88.9575 459.517 89.1268 459.702 89.338C459.887 89.5492 460.024 89.7973 460.105 90.0658C460.186 90.3343 460.208 90.6169 460.17 90.8945Z" fill="#164194"/>
<path d="M432.149 87.442C430.207 87.6403 428.254 87.7131 426.303 87.6601C428.152 88.3305 430.108 88.6629 432.076 88.6413C433.266 88.3243 434.506 88.2379 435.729 88.3869C438.871 88.7867 440.332 92.0213 442.816 93.2933L443.218 92.0576C442.248 90.1121 440.608 88.5768 438.598 87.7301C436.587 86.8833 434.338 86.7811 432.258 87.442H432.149Z" fill="#164194"/>
<path d="M477.231 88.133C476.651 88.6751 476.233 89.3651 476.02 90.1277C475.807 90.8902 475.809 91.6962 476.025 92.4578C473.758 94.813 471.02 96.67 467.988 97.9093C467.659 97.9093 467.075 98.6725 466.709 98.9996L464.59 101.398H465.431L465.138 102.489C465.138 102.489 466.38 101.071 466.819 100.453C467.257 99.8355 468.353 100.199 468.353 100.199L469.559 99.6175L470.326 99.1087C470.582 98.9269 470.984 99.1087 470.984 99.1087C471.114 100.102 470.931 101.111 470.46 101.997C469.989 102.882 469.253 103.6 468.353 104.051C466.347 105.122 464.502 106.467 462.873 108.049C462.495 108.948 461.977 109.782 461.339 110.52L459.11 112.628L456.882 115.609C456.721 115.139 456.487 114.697 456.188 114.3C455.603 113.392 455.932 113.464 455.859 112.955C455.728 112.351 455.493 111.773 455.165 111.247C454.763 110.484 454.215 110.92 453.886 110.666C453.454 110.134 453.244 109.457 453.301 108.776C453.301 107.94 451.256 98.2364 451.073 97.4005V96.5283C452.039 94.5896 453.269 92.7921 454.726 91.1858C455.232 90.607 455.809 90.0941 456.443 89.6594C457.042 89.272 457.712 89.008 458.415 88.8832C459.118 88.7583 459.839 88.7751 460.535 88.9325C461.464 89.196 462.42 89.3545 463.385 89.405C464.327 89.4391 465.264 89.2643 466.13 88.8935C466.996 88.5226 467.767 87.9649 468.39 87.2607C467.075 87.5515 464.481 87.8059 464.481 87.8059C452.023 86.7156 455.092 88.351 455.092 88.351C453.201 89.3126 451.76 90.9677 451.073 92.9666L449.867 94.5658C449.585 95.5575 449.498 96.5941 449.612 97.6186C449.612 98.1274 449.867 99.5084 449.867 99.5084C449.598 103.232 450.211 106.967 451.657 110.411C451.657 110.702 452.571 114.409 452.571 114.409H453.046L453.74 113.719H454.142V114.155L455.092 116.699C455.092 116.699 455.347 118.48 455.347 118.734C455.025 119.857 454.464 120.898 453.703 121.787C453.118 122.302 452.422 122.677 451.669 122.885C450.915 123.093 450.124 123.128 449.356 122.986H449.137H448.223H447.748L447.383 122.623V122.15V121.351C448.547 121.116 449.593 120.489 450.346 119.575C451.098 118.661 451.51 117.517 451.511 116.335C451.511 115.681 450.488 115.172 450.488 115.172C448.277 114.566 445.941 114.566 443.73 115.172C442.268 115.5 442.78 117.535 442.78 117.535C442.78 118.77 445.191 120.697 445.191 120.697C445.671 121.075 446.26 121.291 446.871 121.314V121.751C446.794 122.064 446.684 122.368 446.543 122.659C446.36 122.986 445.666 123.132 445.227 123.204H444.826C440.478 122.768 439.638 120.588 439.638 119.025C439.95 117.315 440.516 115.662 441.318 114.118L441.83 114.518C442.23 114.576 442.636 114.576 443.035 114.518C443.291 114.518 443.035 113.9 443.035 113.646C442.875 113.4 442.728 113.145 442.597 112.883C444.57 110.848 445.775 97.3278 445.849 97.0008C445.923 96.6901 445.923 96.3664 445.849 96.0558L445.593 95.4743L445.008 94.5294C445.008 94.5294 443.912 93.6572 443.364 93.9116C442.816 94.166 443.912 95.547 443.912 95.547L444.497 96.3102C443.922 98.0936 443.542 99.9335 443.364 101.798L442.451 107.649C441.977 108.729 441.598 109.848 441.318 110.993C440.99 112.592 439.455 111.393 439.455 111.393C439.619 112.074 439.629 112.782 439.483 113.467C439.338 114.153 439.041 114.797 438.615 115.354C437.902 113.892 436.819 112.64 435.473 111.72C433.879 110.646 432.534 109.246 431.527 107.613C430.76 106.268 430.687 106.595 427.253 104.996C426.31 104.58 425.523 103.878 425.004 102.99C424.486 102.103 424.263 101.075 424.367 100.054C424.367 100.054 426.741 100.999 427.107 101.071C427.977 101.308 428.831 101.6 429.664 101.943C430.249 102.198 432.806 103.797 430.249 100.999C427.691 98.2001 426.413 99.1087 424.769 98.5272C423.125 97.9457 423.234 97.2552 422.467 96.2375C421.7 95.2199 420.604 94.8565 419.654 93.9479C418.704 93.0393 418.96 93.3301 419.142 92.8213C419.325 92.3125 418.375 90.6043 418.375 90.6043C414.722 86.7883 418.375 84.7531 419.727 83.9898C420.403 83.6017 420.897 82.964 421.102 82.2153C421.307 81.4666 421.207 80.6676 420.823 79.9921C420.056 78.2113 418.339 71.1607 418.339 71.1607C417.565 69.4313 417.012 67.612 416.695 65.7455C416.499 63.1481 415.895 60.5974 414.905 58.1861C413.37 53.8612 414.905 54.5518 415.16 53.3524C415.325 52.839 415.558 52.35 415.854 51.8987C419.033 51.8987 435.692 66.436 435.692 66.436C435.409 65.3589 434.992 64.3211 434.45 63.3468C442.07 60.37 450.497 60.1385 458.27 62.6927C460.645 63.6376 458.526 66.327 458.526 66.327L462.873 63.0924C466.985 58.0235 472.477 54.2386 478.692 52.1894C479.019 52.814 479.276 53.4721 479.459 54.152C479.861 54.9857 480.07 55.8986 480.07 56.8232C480.07 57.7479 479.861 58.6607 479.459 59.4945C478.493 61.6339 477.971 63.9455 477.925 66.2906C477.083 68.3811 476.399 70.5314 475.879 72.7234C475.933 74.0019 475.602 75.2672 474.929 76.3577C474.056 78.0693 473.898 80.0552 474.491 81.8819C474.747 83.263 478.437 85.807 478.437 85.807C478.437 85.807 479.277 85.5526 477.231 88.0239V88.133ZM449.027 124.949L447.931 125.203H447.164L445.447 124.186C446.041 124.105 446.643 124.105 447.237 124.186C448.442 124.186 449.356 124.186 449.612 124.186L448.917 125.021L449.027 124.949ZM478.254 82.9359C474.6 80.2101 476.793 77.9932 477.596 76.4668C478.292 74.8151 478.699 73.0576 478.802 71.2697C478.802 70.5065 478.985 67.6354 479.898 66.6904C480.811 65.7455 481.03 61.2389 481.469 60.1486C481.8 59.0743 481.996 57.9635 482.053 56.8414C482.013 56.1515 482.013 55.4598 482.053 54.7698C481.28 52.5991 480.327 50.4961 479.204 48.4824C475.112 48.9185 464.59 57.859 463.64 58.9493C463.016 59.6336 462.304 60.2325 461.521 60.7301C456.747 59.5309 451.83 58.9928 446.908 59.131C442.209 59.1767 437.538 59.8615 433.025 61.1662C428.158 55.9116 422.147 51.834 415.453 49.2456C411.105 53.6068 414.174 63.9647 414.612 64.9096C415.443 66.2719 415.909 67.8236 415.964 69.4162C416.293 72.0531 416.805 74.664 417.498 77.23C417.863 78.6417 418.442 79.9899 419.216 81.2278C419.216 81.2278 418.302 82.2454 416.658 83.8808C415.014 85.5163 415.635 84.7167 414.685 85.1528C414.398 85.3255 414.151 85.5577 413.962 85.8336C413.773 86.1095 413.646 86.4227 413.589 86.7519C414.267 88.0332 415.062 89.2498 415.964 90.3863C417.097 91.5856 415.635 92.6032 415.635 92.6032L418.814 95.1472C419.983 96.0922 419.325 96.0195 420.165 96.7827C421.006 97.5459 420.348 98.1637 420.348 98.1637L421.042 98.7816C421.384 100.887 422.286 102.864 423.654 104.506C425.022 106.149 426.807 107.397 428.824 108.122C430.106 108.874 431.234 109.861 432.148 111.029L433.756 112.301C437.884 115.172 437.884 117.825 437.884 117.825C437.117 122.405 440.369 123.241 440.369 123.241C444.716 124.694 444.46 125.058 444.46 125.058C447.785 127.675 448.735 126.33 449.94 125.966C450.878 125.647 451.764 125.194 452.571 124.622C454.229 124.143 455.664 123.096 456.62 121.666C457.577 120.235 457.993 118.514 457.795 116.808C458.341 116.03 458.939 115.289 459.585 114.591C460.179 113.9 460.671 113.129 461.047 112.301C463.227 110.313 465.573 108.514 468.061 106.922C469.741 106.089 471.186 104.851 472.264 103.321C473.342 101.792 474.019 100.019 474.235 98.1637C474.471 96.7826 475.073 95.4889 475.978 94.4158C476.884 93.3427 478.06 92.5289 479.386 92.0581C479.071 91.5635 478.904 90.99 478.904 90.4044C478.904 89.8189 479.071 89.2454 479.386 88.7508C480.336 87.3698 481.871 85.1165 481.871 85.1165C481.871 85.1165 481.651 85.1165 478.217 82.6451L478.254 82.9359Z" fill="#164194"/>
<path d="M457.795 90.0953C457.8 90.1508 457.793 90.2067 457.775 90.2595C457.758 90.3122 457.729 90.3607 457.691 90.4018C457.653 90.4428 457.607 90.4756 457.556 90.4979C457.504 90.5202 457.449 90.5316 457.393 90.5314C457.277 90.5314 457.165 90.4855 457.083 90.4037C457.001 90.3219 456.955 90.2109 456.955 90.0953C456.954 90.0396 456.966 89.9844 456.988 89.9334C457.011 89.8824 457.044 89.8366 457.085 89.7989C457.126 89.7613 457.175 89.7326 457.228 89.7148C457.281 89.697 457.337 89.6904 457.393 89.6955C457.5 89.6955 457.602 89.7376 457.677 89.8126C457.753 89.8876 457.795 89.9893 457.795 90.0953Z" fill="white"/>
<path d="M320.928 177.865C321.895 177.865 322.823 177.482 323.507 176.801C324.191 176.119 324.575 175.195 324.575 174.231V5.63433C324.575 4.67045 324.191 3.74604 323.507 3.06447C322.823 2.3829 321.895 2 320.928 2C319.96 2 319.032 2.3829 318.348 3.06447C317.664 3.74604 317.28 4.67045 317.28 5.63433V174.231C317.28 175.195 317.664 176.119 318.348 176.801C319.032 177.482 319.96 177.865 320.928 177.865Z" fill="#164194"/>
<g clip-path="url(#clip1)">
<path d="M261.004 2H119.997C110.61 2 103 9.60946 103 18.9962V160.004C103 169.391 110.61 177 119.997 177H261.004C270.391 177 278 169.391 278 160.004V18.9962C278 9.60946 270.391 2 261.004 2Z" fill="#00BE40"/>
<path d="M243.565 112.758H137.757V121.173H243.565V112.758Z" fill="white"/>
<path d="M166.634 70.8041V62.2451H137.757V102.195H148.309V87.9886H164.63V79.4185H148.309V70.8041H166.634Z" fill="white"/>
<path d="M198.223 81.4781C202.442 79.5293 204.668 76.4512 204.668 72.6201C204.668 66.1649 199.884 62.2896 191.824 62.2896H171.384V102.195H192.045C200.836 102.195 206.085 98.0314 206.085 90.9561C206.085 86.3832 203.173 82.9618 198.223 81.4781ZM181.714 70.3503H189.875C192.842 70.3503 194.437 71.7122 194.437 74.2367C194.437 76.7612 192.842 78.1121 189.875 78.1121H181.714V70.3503ZM190.572 94.0896H181.714V86.1507H190.672C193.639 86.1507 195.3 87.5679 195.3 90.2586C195.3 92.7941 193.639 94.0896 190.561 94.0896H190.572Z" fill="white"/>
<path d="M231.551 77.935L226.746 77.2928C222.007 76.6063 220.612 75.4437 220.612 73.2402C220.612 71.0368 222.461 69.531 226.58 69.531C230.389 69.531 232.26 70.9372 233.157 74.4139L243.2 73.1184C241.727 65.257 236.08 61.437 226.868 61.437C216.559 61.437 209.783 66.5857 209.783 74.4582C209.783 81.2235 213.891 85.1653 222.295 86.3279L227.322 87.0144C232.648 87.7784 233.965 88.9853 233.965 91.3105C233.965 93.6357 231.994 95.0197 227.322 95.0197C225.648 95.0966 223.995 94.6153 222.625 93.6513C221.254 92.6873 220.242 91.2953 219.748 89.6939L209.285 91.2662C210.979 99.4044 217.168 103.114 227.001 103.114C238.173 103.114 244.772 98.3083 244.772 90.1479C244.728 82.9729 240.697 79.2636 231.551 77.935Z" fill="white"/>
</g>
<defs>
<clipPath id="clip0">
<rect width="640" height="70" fill="white" transform="translate(0 210)"/>
</clipPath>
<clipPath id="clip1">
<rect width="175" height="175" fill="white" transform="translate(103 2)"/>
</clipPath>
</defs>
</svg>
