<svg width="640" height="280" viewBox="0 0 640 280" fill="none" xmlns="http://www.w3.org/2000/svg">
<g clip-path="url(#clip0)">
<path d="M40.9579 261V253.168H45.4435C51.6379 253.168 54.8775 249.537 54.8775 244.624C54.8775 239.711 51.6379 236.08 45.4435 236.08H35.0483V261H40.9579ZM40.9579 241.349H45.0875C47.1879 241.349 48.8255 242.346 48.8255 244.624C48.8255 246.902 47.1879 247.899 45.0875 247.899H40.9579V241.349ZM78.8905 261L69.8837 236.08H62.5501L53.5433 261H60.0225L61.6245 256.158H70.8093L72.4113 261H78.8905ZM66.2169 242.417L69.0293 250.89H63.4045L66.2169 242.417ZM87.5786 261V252.741H90.1774L96.1582 261H102.958L96.3718 252.064C99.6114 250.783 101.498 248.291 101.498 244.41C101.498 239.391 98.5078 236.08 92.6338 236.08H81.669V261H87.5786ZM87.5786 241.349H92.0642C94.2002 241.349 95.4462 242.452 95.4462 244.41C95.4462 246.368 94.2002 247.472 92.0642 247.472H87.5786V241.349ZM117.674 261V241.349H125.862L124.972 236.08H104.466L103.576 241.349H111.764V261H117.674ZM134.684 261V245.087L143.086 261H150.598V236.08H144.759V252.812L136.073 236.08H128.846V261H134.684ZM172.472 261L173.362 255.731H160.795V250.818H168.129L168.805 245.763H160.795V241.349H172.792L171.902 236.08H154.885V261H172.472ZM182.558 261V252.741H185.157L191.138 261H197.937L191.351 252.064C194.591 250.783 196.478 248.291 196.478 244.41C196.478 239.391 193.487 236.08 187.613 236.08H176.649V261H182.558ZM182.558 241.349H187.044C189.18 241.349 190.426 242.452 190.426 244.41C190.426 246.368 189.18 247.472 187.044 247.472H182.558V241.349ZM213.847 261V253.168H218.333C224.527 253.168 227.767 249.537 227.767 244.624C227.767 239.711 224.527 236.08 218.333 236.08H207.938V261H213.847ZM213.847 241.349H217.977C220.077 241.349 221.715 242.346 221.715 244.624C221.715 246.902 220.077 247.899 217.977 247.899H213.847V241.349ZM237.245 261V252.741H239.843L245.824 261H252.624L246.038 252.064C249.277 250.783 251.164 248.291 251.164 244.41C251.164 239.391 248.174 236.08 242.3 236.08H231.335V261H237.245ZM237.245 241.349H241.73C243.866 241.349 245.112 242.452 245.112 244.41C245.112 246.368 243.866 247.472 241.73 247.472H237.245V241.349ZM261.129 261V236.08H255.219V261H261.129ZM271.244 261V245.087L279.645 261H287.157V236.08H281.319V252.812L272.632 236.08H265.405V261H271.244ZM303.549 261.427C308.141 261.427 311.844 259.469 314.158 256.408L310.954 251.708C308.853 254.485 306.61 256.016 303.549 256.016C299.953 256.016 296.429 253.31 296.429 248.54C296.429 243.77 300.06 241.064 303.584 241.064C306.575 241.064 308.711 242.559 310.704 245.3L314.193 240.352C311.808 237.468 307.892 235.653 303.549 235.653C297.283 235.653 290.377 239.498 290.377 248.54C290.377 257.582 297.283 261.427 303.549 261.427ZM323.394 261V236.08H317.484V261H323.394ZM333.58 261V253.168H338.066C344.26 253.168 347.5 249.537 347.5 244.624C347.5 239.711 344.26 236.08 338.066 236.08H327.671V261H333.58ZM333.58 241.349H337.71C339.81 241.349 341.448 242.346 341.448 244.624C341.448 246.902 339.81 247.899 337.71 247.899H333.58V241.349ZM371.513 261L362.506 236.08H355.172L346.166 261H352.645L354.247 256.158H363.432L365.034 261H371.513ZM358.839 242.417L361.652 250.89H356.027L358.839 242.417ZM391.344 261L392.234 255.731H380.201V236.08H374.291V261H391.344ZM413.224 261L414.114 255.731H401.547V250.818H408.881L409.557 245.763H401.547V241.349H413.544L412.654 236.08H395.637V261H413.224ZM435.059 261.427C440.755 261.427 445.667 258.152 445.667 250.747V236.08H439.758V251.068C439.758 254.628 437.657 256.016 435.059 256.016C432.46 256.016 430.359 254.628 430.359 251.068V236.08H424.45V250.747C424.45 258.152 429.363 261.427 435.059 261.427ZM455.503 261V252.242H464.047L464.724 247.187H455.503V241.349H468.034L467.144 236.08H449.594V261H455.503ZM477.336 261V252.242H485.88L486.556 247.187H477.336V241.349H489.867L488.977 236.08H471.426V261H477.336ZM499.169 261V236.08H493.259V261H499.169ZM515.55 261.427C520.142 261.427 523.844 259.469 526.158 256.408L522.954 251.708C520.854 254.485 518.611 256.016 515.55 256.016C511.954 256.016 508.43 253.31 508.43 248.54C508.43 243.77 512.061 241.064 515.585 241.064C518.576 241.064 520.712 242.559 522.705 245.3L526.194 240.352C523.809 237.468 519.893 235.653 515.55 235.653C509.284 235.653 502.378 239.498 502.378 248.54C502.378 257.582 509.284 261.427 515.55 261.427ZM535.395 261V236.08H529.485V261H535.395ZM563.523 261L554.517 236.08H547.183L538.176 261H544.655L546.257 256.158H555.442L557.044 261H563.523ZM550.85 242.417L553.662 250.89H548.037L550.85 242.417ZM583.354 261L584.244 255.731H572.211V236.08H566.302V261H583.354ZM605.234 261L606.124 255.731H593.558V250.818H600.891L601.568 245.763H593.558V241.349H605.555L604.665 236.08H587.648V261H605.234Z" fill="#164194"/>
</g>
<path d="M446.944 179.173C464.757 179.173 482.17 173.918 496.98 164.072C511.791 154.227 523.333 140.233 530.148 123.861C536.963 107.489 538.745 89.4746 535.267 72.0956C531.789 54.7165 523.208 38.7538 510.61 26.2264C498.012 13.699 481.962 5.16959 464.491 1.71699C447.02 -1.73561 428.911 0.043679 412.456 6.82983C396.002 13.616 381.939 25.1041 372.048 39.8413C362.157 54.5785 356.882 71.9026 356.889 89.6227C356.889 101.386 359.219 113.033 363.745 123.9C368.271 134.767 374.905 144.641 383.268 152.957C391.631 161.273 401.559 167.868 412.485 172.366C423.41 176.865 435.12 179.177 446.944 179.173Z" fill="white"/>
<path d="M446.944 175.975C464.121 175.975 480.912 170.907 495.194 161.413C509.476 151.919 520.606 138.425 527.178 122.637C533.75 106.85 535.467 89.4783 532.113 72.7196C528.76 55.961 520.485 40.5682 508.337 28.488C496.188 16.4079 480.711 8.18309 463.864 4.8539C447.016 1.5247 429.554 3.24066 413.687 9.78474C397.819 16.3288 384.259 27.4071 374.721 41.6183C365.184 55.8295 360.097 72.5353 360.104 89.6228C360.104 100.966 362.35 112.198 366.715 122.677C371.08 133.156 377.477 142.677 385.541 150.696C393.606 158.715 403.179 165.074 413.715 169.412C424.251 173.749 435.542 175.979 446.944 175.975Z" fill="#164194"/>
<path d="M446.945 170.414C463.01 170.385 478.706 165.62 492.049 156.719C505.392 147.819 515.784 135.183 521.91 120.409C528.036 105.635 529.622 89.3859 526.468 73.7155C523.313 58.0451 515.559 43.6567 504.187 32.3687C492.814 21.0808 478.333 13.4 462.574 10.2971C446.814 7.19425 430.484 8.80856 415.646 14.936C400.809 21.0635 388.13 31.4291 379.213 44.7227C370.296 58.0163 365.541 73.6413 365.548 89.6228C365.548 100.248 367.655 110.768 371.747 120.582C375.84 130.396 381.839 139.311 389.399 146.815C396.96 154.32 405.935 160.267 415.809 164.316C425.684 168.366 436.264 170.438 446.945 170.414Z" fill="white"/>
<path d="M367.594 89.6228C367.589 79.2552 369.638 68.9883 373.624 59.409C377.61 49.8296 383.455 41.1257 390.824 33.7947C398.194 26.4637 406.943 20.6494 416.573 16.6841C426.202 12.7188 436.523 10.6803 446.945 10.6851C457.367 10.6803 467.687 12.7188 477.317 16.6841C486.946 20.6494 495.696 26.4637 503.065 33.7947C510.434 41.1257 516.279 49.8296 520.265 59.409C524.251 68.9883 526.301 79.2552 526.296 89.6228C526.296 99.9873 524.243 110.25 520.255 119.825C516.267 129.401 510.421 138.1 503.052 145.427C495.683 152.754 486.935 158.566 477.308 162.529C467.681 166.492 457.364 168.529 446.945 168.524V167.579C457.238 167.59 467.432 165.579 476.942 161.662C486.453 157.746 495.092 152 502.366 144.756C509.649 137.52 515.424 128.925 519.361 119.464C523.298 110.003 525.32 99.8622 525.309 89.6228C525.326 79.3824 523.307 69.2398 519.37 59.7781C515.432 50.3165 509.654 41.7224 502.366 34.4899C495.099 27.2337 486.461 21.4785 476.95 17.5553C467.438 13.6321 457.241 11.6184 446.945 11.63C436.647 11.6124 426.448 13.6234 416.936 17.547C407.424 21.4705 398.787 27.2289 391.523 34.4899C384.224 41.7158 378.436 50.3078 374.492 59.7705C370.548 69.2331 368.526 79.379 368.544 89.6228C368.532 99.8657 370.556 110.01 374.5 119.472C378.444 128.933 384.229 137.526 391.523 144.756C398.794 152.005 407.433 157.754 416.944 161.671C426.455 165.588 436.651 167.596 446.945 167.579V168.524C436.526 168.529 426.208 166.492 416.581 162.529C406.954 158.566 398.206 152.754 390.837 145.427C383.468 138.1 377.623 129.401 373.635 119.825C369.646 110.25 367.594 99.9873 367.594 89.6228Z" fill="#164194"/>
<path d="M446.945 145.664C458.087 145.664 468.978 142.377 478.243 136.219C487.507 130.062 494.727 121.309 498.991 111.069C503.255 100.829 504.371 89.5606 502.197 78.6896C500.023 67.8186 494.658 57.833 486.779 49.9955C478.901 42.1579 468.863 36.8205 457.935 34.6581C447.007 32.4958 435.68 33.6056 425.386 37.8472C415.092 42.0889 406.294 49.2718 400.104 58.4878C393.914 67.7038 390.61 78.5388 390.61 89.6227C390.61 104.486 396.545 118.74 407.11 129.25C412.341 134.454 418.551 138.582 425.386 141.398C432.221 144.215 439.547 145.664 446.945 145.664Z" fill="white"/>
<path d="M445.447 37.6881C444.278 44.0118 436.606 44.0118 432.368 47.3918C430.102 49.182 428.559 51.7232 428.02 54.5514C424.002 52.5162 420.093 49.4997 415.928 47.8642C424.379 41.3654 434.765 37.8492 445.447 37.8698" fill="#164194"/>
<path d="M476.975 46.9193L466.819 53.5701C465.65 46.3015 457.612 44.2299 452.205 41.9766C451.109 40.8136 449.465 39.3236 450.086 37.6881C459.803 38.1125 469.191 41.3178 477.121 46.9193" fill="#164194"/>
<path d="M450.598 43.6484C455.785 46.4105 463.969 47.2828 465.211 54.8058C464.955 55.569 464.006 55.8961 463.531 56.2959C463.056 46.5559 451.548 48.4457 447.858 41.0681C443.985 48.5184 431.6 47.101 431.746 57.3862C430.906 56.9864 429.299 56.0415 430.175 54.5514C432.294 46.3378 442.158 46.883 446.908 41.2134L447.602 38.2333C447.951 40.3252 449.008 42.2357 450.598 43.6484Z" fill="#164194"/>
<path d="M447.894 46.8466C447.894 47.0647 447.894 47.4645 447.894 47.6098C447.894 47.7552 447.493 47.3191 447.237 47.21C446.981 47.101 447.894 46.0471 448.041 46.8466" fill="#164194"/>
<path d="M449.938 48.7C449.938 49.0271 449.938 49.2815 449.648 49.4995H449.575V48.3365C449.902 48.3365 449.974 48.5546 450.12 48.7" fill="#164194"/>
<path d="M445.919 48.7001C445.919 48.9545 445.919 49.3542 445.919 49.4996H445.52V48.5547C445.52 48.5547 445.991 48.5547 446.064 48.5547" fill="#164194"/>
<path d="M410.448 61.3477C405.479 64.1825 404.091 71.9963 397.771 71.3421C400.627 63.5598 405.43 56.6302 411.726 51.2079C410.261 54.3762 409.814 57.9174 410.448 61.3477Z" fill="#164194"/>
<path d="M448.442 57.2045H446.177L447.748 51.5349C447.693 53.4487 447.927 55.3599 448.442 57.2045Z" fill="#164194"/>
<path d="M495.388 70.2153C489.945 69.8156 488.081 63.2374 483.295 60.8024C484.116 58.246 484.377 55.5447 484.063 52.8796C489.145 57.701 493.023 63.6375 495.388 70.2153Z" fill="#164194"/>
<path d="M496.155 71.851V72.1054C488.593 77.1934 496.484 88.6416 488.301 93.3662C485.784 94.7046 482.91 95.2257 480.081 94.8563C480.556 93.0391 483.478 93.766 485.049 92.8211C494.511 89.9863 489.762 78.7562 494.438 72.7232C489.762 71.5602 486.109 67.5261 482.455 64.5823L482.674 63.2376C487.022 66.2904 490.273 72.4325 496.082 71.851" fill="#164194"/>
<path d="M411.945 64.3279C408.292 68.3256 404.639 72.7232 399.633 73.7408C400.181 75.2309 401.533 76.3938 402.081 77.9203C403.725 84.2803 403.908 93.0391 412.091 94.8562C413.26 95.3287 414.868 94.6018 415.745 95.8012C413.886 96.2271 411.951 96.1913 410.109 95.6969C408.268 95.2025 406.577 94.2648 405.187 92.9664C399.524 87.4786 405.187 76.9753 396.82 73.0503C403.689 74.5403 406.356 66.3631 411.178 63.3829L411.982 64.3279H411.945Z" fill="#164194"/>
<path d="M484.792 72.2506C484.792 72.505 484.792 72.8684 484.792 73.0501H484.538V71.8508C484.593 71.8362 484.651 71.8364 484.706 71.8513C484.761 71.8662 484.812 71.8953 484.852 71.9358C484.892 71.9762 484.922 72.0266 484.936 72.0818C484.951 72.1371 484.952 72.1953 484.937 72.2506" fill="#164194"/>
<path d="M410.995 73.0502C410.995 73.0502 410.995 73.2682 410.995 73.3409C410.995 73.4136 410.411 73.3409 410.191 73.0502C409.936 72.1779 411.361 72.1779 411.141 73.0502" fill="#164194"/>
<path d="M483.076 74.6855C483.076 74.6855 482.82 75.158 482.528 75.0853C482.416 75.044 482.32 74.9696 482.252 74.8722C482.183 74.7747 482.147 74.6588 482.147 74.5401C482.147 74.4214 482.183 74.3056 482.252 74.2081C482.32 74.1107 482.416 74.0363 482.528 73.995C483.003 73.995 482.93 74.4311 483.076 74.6855Z" fill="#164194"/>
<path d="M486.839 73.9951C486.839 74.2858 486.839 74.6856 486.839 74.9037C486.839 75.1217 486.437 74.6129 486.291 74.5402C486.145 74.4675 486.291 73.8134 486.985 73.9951" fill="#164194"/>
<path d="M413.041 74.9037C413.041 74.9037 412.822 75.3034 412.493 75.2308L412.091 74.9037L412.712 74.1404C412.968 74.3585 412.968 74.6129 413.041 74.9037Z" fill="#164194"/>
<path d="M484.063 126.366L480.409 129.673C479.386 122.005 488.374 117.135 486.218 108.812C485.376 106.621 484.059 104.641 482.361 103.014C480.662 101.387 478.624 100.153 476.391 99.3991C476.391 93.9839 482.273 97.909 485.122 96.746C486.938 96.464 488.658 95.7523 490.14 94.6708C491.621 93.5893 492.82 92.1697 493.634 90.5313C496.63 85.4432 492.429 78.6107 496.849 74.0314C499.743 83.0884 500.073 92.763 497.805 101.995C495.537 111.226 490.757 119.658 483.99 126.366" fill="#164194"/>
<path d="M409.093 74.9037C409.093 75.2308 409.093 75.4125 408.694 75.6306V74.5403C408.912 74.5403 409.093 74.7583 409.238 74.9037" fill="#164194"/>
<path d="M402.081 92.0215C403.012 93.6126 404.278 94.9851 405.791 96.0451C407.304 97.1051 409.03 97.8277 410.849 98.1635C413.169 98.2144 415.489 98.0929 417.791 97.8001L418.412 99.2901C416.19 99.9874 414.159 101.182 412.474 102.782C410.79 104.383 409.496 106.346 408.694 108.521C406.721 116.699 414.137 121.932 415.562 129.237L414.978 131.091C407.06 125.076 401.027 116.943 397.586 107.643C394.144 98.3431 393.435 88.2605 395.542 78.5744L396.601 75.1945C403.36 78.0293 398.537 87.0424 401.899 92.1305" fill="#164194"/>
<path d="M486.108 84.0985C485.012 83.6988 484.757 85.0435 484.355 85.5886C484.136 85.1162 484.136 84.4983 483.661 84.0985L482.455 84.353L484.72 77.0843C484.886 79.4709 485.353 81.8274 486.108 84.0985Z" fill="#164194"/>
<path d="M412.713 84.4984C411.69 84.2803 411.288 85.1162 410.996 85.8431V86.2065C410.74 85.4433 410.119 83.7715 408.95 84.6437C409.757 82.2574 410.439 79.8313 410.996 77.3751C411.036 79.7995 411.623 82.1841 412.713 84.353" fill="#164194"/>
<path d="M419.362 102.234V102.924C416.183 104.414 412.493 107.177 412.493 111.029C412.018 118.298 418.887 122.15 418.156 129.201C419.252 130.073 420.275 128.51 421.554 128.655C425.718 128.365 437.555 129.6 440.332 126.22C441.026 126.22 441.501 126.475 442.049 126.802C441.426 127.948 440.524 128.92 439.427 129.631C438.329 130.342 437.071 130.769 435.765 130.872C429.299 131.49 421.882 126.075 416.658 131.963C420.604 122.804 407.05 116.844 411.543 107.104C412.277 105.631 413.302 104.321 414.558 103.253C415.813 102.185 417.274 101.381 418.85 100.889L419.252 102.088L419.362 102.234Z" fill="#164194"/>
<path d="M484.245 109.902C485.195 118.007 475.733 122.368 478.327 130.473C470.363 125.93 460.06 136.833 453.192 127.42C453.192 126.765 453.886 126.293 454.361 126.075C455.786 126.475 456.261 127.783 457.503 128.583C463.677 132.98 470.217 127.238 476.829 128.91C477.231 128.11 476.829 126.547 477.231 125.53C479.752 119.788 485.999 112.519 480.081 106.304C478.528 104.975 476.728 103.963 474.783 103.324C474.235 102.452 475.112 101.834 475.331 101.034C478.985 102.379 483.844 105.614 484.245 109.902Z" fill="#164194"/>
<path d="M469.266 111.393C468.791 111.647 468.791 111.102 468.572 110.847C468.353 110.593 468.791 110.084 469.266 110.302V111.393Z" fill="#164194"/>
<path d="M427.07 110.847C427.07 111.102 427.07 111.502 427.07 111.647C427.07 111.792 426.669 111.32 426.449 111.247C426.047 110.557 427.217 110.157 427.217 110.847" fill="#164194"/>
<path d="M471.491 113.137C471.273 113.137 471.201 113.137 471.092 113.137C470.983 113.137 470.656 112.047 471.092 112.047C471.527 112.047 471.092 112.665 471.31 112.992" fill="#164194"/>
<path d="M429.114 112.883C429.158 112.94 429.182 113.01 429.182 113.082C429.182 113.155 429.158 113.225 429.114 113.282H428.714V112.337C429.259 112.119 429.114 112.737 429.259 112.883" fill="#164194"/>
<path d="M425.17 112.882C425.17 113.209 425.17 113.537 425.17 113.682C425.17 113.827 424.769 113.464 424.549 113.282C424.33 113.1 425.317 112.119 425.317 112.882" fill="#164194"/>
<path d="M467.363 113.537H466.819V112.592H467.363V113.537Z" fill="#164194"/>
<path d="M428.422 122.55C427.618 122.005 426.778 123.313 426.668 123.894C426.648 123.679 426.581 123.47 426.473 123.282C426.365 123.094 426.218 122.931 426.042 122.804C425.866 122.676 425.664 122.588 425.451 122.544C425.238 122.5 425.018 122.502 424.805 122.55C425.823 120.329 426.536 117.982 426.924 115.572C427.198 117.94 427.699 120.277 428.422 122.55Z" fill="#164194"/>
<path d="M470.764 122.695C470.764 122.368 470.289 122.695 470.07 122.695L469.12 124.185C469.034 123.611 468.75 123.084 468.317 122.695H467.367L469.266 115.426C469.641 117.873 470.141 120.299 470.764 122.695Z" fill="#164194"/>
<path d="M461.923 133.453C467.147 133.743 471.787 130.109 476.829 132.435C469.226 137.612 460.405 140.744 451.225 141.528C442.046 142.311 432.818 140.719 424.44 136.905L418.375 133.271C419.046 132.547 419.868 131.978 420.783 131.601C421.697 131.225 422.683 131.05 423.672 131.09C430.139 132.108 439.601 135.415 444.095 128.292C445.224 128.733 446.435 128.925 447.646 128.856C448.857 128.787 450.038 128.458 451.109 127.892C452.305 129.67 453.942 131.11 455.863 132.072C457.783 133.033 459.922 133.484 462.069 133.38" fill="#164194"/>
<path d="M492.21 103.179C488.828 103.497 485.45 102.537 482.748 100.489C482.748 99.4717 483.624 99.0719 484.392 98.9992C487.412 99.4313 490.181 100.912 492.21 103.179Z" fill="white"/>
<path d="M410.593 100.889C410.593 102.852 408.474 103.07 407.196 103.724C405.531 104.174 403.804 104.358 402.081 104.269C403.049 103.05 404.281 102.064 405.685 101.384C407.089 100.704 408.63 100.349 410.191 100.344L410.593 100.889Z" fill="white"/>
<path d="M449.575 130.473C449.546 132.837 449.088 135.176 448.223 137.378C447.602 135.016 445.483 131.345 447.931 129.128C448.315 129.142 448.684 129.281 448.981 129.524C449.278 129.767 449.487 130.1 449.575 130.473Z" fill="white"/>
<path d="M383.815 107.794C383.96 108.436 384.233 109.041 384.618 109.575L382.426 108.848C382.139 108.77 381.88 108.613 381.68 108.394C381.479 108.175 381.346 107.904 381.294 107.613L380.161 102.343L376.91 103.106C376.426 103.154 375.969 103.347 375.597 103.658C375.226 103.969 374.957 104.385 374.827 104.851L373.476 99.1447C374.024 99.8716 374.864 100.017 376.106 99.7262L385.166 97.6183C386.408 97.3275 387.066 96.8187 387.249 95.9465L390.171 109.066C389.97 109 389.752 109 389.55 109.066C389.295 109.066 388.418 109.721 386.774 110.593C387.286 108.873 387.286 107.043 386.774 105.323L385.787 101.144L382.353 101.798L383.815 107.794Z" fill="#164194"/>
<path d="M389.587 123.386C390.163 123.174 390.684 122.838 391.114 122.403C391.545 121.967 391.873 121.442 392.075 120.866C392.278 120.289 392.349 119.675 392.286 119.068C392.222 118.461 392.024 117.875 391.706 117.353C391.447 116.736 391.055 116.184 390.556 115.737C390.057 115.29 389.464 114.959 388.821 114.767C388.178 114.576 387.5 114.529 386.836 114.631C386.172 114.732 385.539 114.979 384.983 115.354C384.415 115.569 383.901 115.906 383.479 116.341C383.057 116.777 382.736 117.3 382.541 117.873C382.345 118.446 382.28 119.055 382.348 119.656C382.417 120.257 382.618 120.836 382.938 121.35C383.189 121.964 383.574 122.514 384.065 122.961C384.556 123.408 385.141 123.741 385.777 123.936C386.414 124.13 387.085 124.182 387.744 124.087C388.403 123.992 389.032 123.752 389.587 123.386ZM380.709 122.695C380.117 121.842 379.714 120.873 379.53 119.852C379.345 118.831 379.382 117.783 379.638 116.778C379.894 115.773 380.363 114.834 381.014 114.024C381.665 113.214 382.483 112.552 383.413 112.083C384.343 111.561 385.377 111.248 386.442 111.166C387.507 111.085 388.576 111.236 389.576 111.611C390.576 111.985 391.481 112.572 392.227 113.332C392.974 114.092 393.544 115.005 393.898 116.008C394.507 116.869 394.921 117.851 395.112 118.887C395.302 119.923 395.264 120.987 395 122.007C394.735 123.026 394.252 123.977 393.582 124.792C392.913 125.608 392.073 126.268 391.121 126.729C390.188 127.229 389.157 127.522 388.099 127.586C387.041 127.65 385.982 127.484 384.995 127.1C384.008 126.717 383.117 126.124 382.383 125.363C381.649 124.602 381.09 123.692 380.746 122.695H380.709Z" fill="#164194"/>
<path d="M400.656 137.196C401.152 136.844 401.563 136.387 401.86 135.858C402.157 135.329 402.333 134.741 402.375 134.137C402.417 133.533 402.324 132.926 402.102 132.362C401.881 131.798 401.537 131.289 401.095 130.872C400.691 130.339 400.172 129.903 399.575 129.597C398.979 129.291 398.321 129.123 397.65 129.106C396.979 129.088 396.313 129.222 395.701 129.496C395.089 129.771 394.548 130.179 394.117 130.691C393.618 131.042 393.205 131.499 392.907 132.03C392.609 132.56 392.435 133.15 392.396 133.757C392.358 134.363 392.456 134.971 392.684 135.534C392.912 136.098 393.265 136.604 393.715 137.014C394.12 137.538 394.637 137.966 395.228 138.267C395.819 138.568 396.47 138.735 397.134 138.755C397.798 138.776 398.458 138.651 399.067 138.387C399.676 138.124 400.219 137.729 400.656 137.232V137.196ZM391.888 138.868C388.235 134.943 388.418 130.872 391.706 127.965C392.466 127.214 393.383 126.638 394.392 126.279C395.401 125.92 396.477 125.786 397.543 125.886C398.61 125.987 399.642 126.32 400.565 126.861C401.488 127.402 402.28 128.139 402.885 129.019C403.662 129.701 404.285 130.54 404.711 131.48C405.138 132.42 405.359 133.439 405.359 134.47C405.359 135.502 405.138 136.521 404.711 137.461C404.285 138.401 403.662 139.24 402.885 139.922C402.119 140.629 401.21 141.164 400.219 141.492C399.228 141.82 398.177 141.933 397.139 141.822C396.1 141.712 395.097 141.382 394.198 140.853C393.298 140.325 392.523 139.611 391.925 138.759L391.888 138.868Z" fill="#164194"/>
<path d="M405.515 148.172L405.917 147.518L411.069 139.886L410.484 139.486C409.048 138.394 407.319 137.75 405.515 137.632C406.904 136.433 407.781 135.851 407.927 135.597C407.989 135.396 407.989 135.181 407.927 134.979L419.508 142.684C419.301 142.744 419.12 142.872 418.996 143.047C418.996 143.266 418.631 144.283 418.046 146.064C417.234 144.443 415.964 143.092 414.393 142.175L413.955 141.775L408.803 149.408C408.499 149.794 408.31 150.258 408.259 150.747C408.207 151.235 408.294 151.728 408.511 152.17L403.616 149.044C403.972 149.094 404.335 149.05 404.669 148.916C405.002 148.782 405.294 148.563 405.515 148.281V148.172Z" fill="#164194"/>
<path d="M425.974 151.043C427.801 151.661 428.824 151.479 429.225 150.316C429.627 149.153 428.897 148.535 427.326 147.99L423.672 146.791L422.613 149.916L425.937 151.043H425.974ZM424.988 157.076C426.851 157.694 428.02 157.403 428.422 156.204C428.824 155.004 428.02 154.205 426.12 153.587L421.882 152.133L420.713 155.767L424.988 157.221V157.076ZM417.462 154.423L420.348 145.773C420.75 144.574 420.713 143.701 420.019 143.047L427.326 145.591C431.527 147.009 433.536 148.426 432.66 151.043C432.423 151.709 431.964 152.275 431.359 152.645C430.754 153.015 430.04 153.168 429.335 153.078C431.6 154.168 432.331 155.549 431.71 157.403C430.723 160.238 428.056 160.674 423.49 159.111L415.525 156.313C416.475 156.313 417.023 155.622 417.462 154.386V154.423Z" fill="#164194"/>
<path d="M443.62 157.367L441.172 150.57L437.738 156.858L443.62 157.367ZM449.575 163.073H444.314C444.623 162.776 444.806 162.373 444.825 161.946C444.87 161.657 444.87 161.363 444.825 161.074L444.46 159.947L436.349 159.22L435.984 159.874C435.841 160.158 435.754 160.467 435.728 160.783C435.695 161.327 435.879 161.863 436.24 162.273L430.796 161.074C431.518 160.592 432.139 159.975 432.623 159.256L438.615 149.444C438.751 149.259 438.85 149.049 438.907 148.826C438.939 148.658 438.939 148.485 438.907 148.317L444.752 148.826C444.652 148.983 444.578 149.155 444.533 149.335C444.484 149.55 444.484 149.774 444.533 149.989L448.186 160.892C448.524 161.762 449.02 162.562 449.648 163.254L449.575 163.073Z" fill="#164194"/>
<path d="M448.771 149.044L454.617 148.245C454.217 148.521 453.915 148.915 453.751 149.371C453.587 149.827 453.571 150.323 453.703 150.789L454.982 159.947L458.964 159.402C460.924 159.253 462.771 158.431 464.189 157.076C463.828 158.27 463.535 159.484 463.312 160.71C463.378 160.934 463.504 161.135 463.677 161.292L450.708 163.109C451.475 162.637 451.694 161.801 451.548 160.565L450.233 151.407C450.233 150.171 449.612 149.444 448.735 149.19L448.771 149.044Z" fill="#164194"/>
<path d="M460.827 147.627L466.38 145.664C466.049 146.021 465.836 146.47 465.771 146.951C465.705 147.433 465.791 147.922 466.015 148.354L469.157 157.04L472.81 155.695C474.724 155.136 476.371 153.911 477.45 152.242C477.38 153.453 477.38 154.666 477.45 155.877C477.45 156.058 477.706 156.167 477.925 156.349L465.577 160.747C465.903 160.393 466.107 159.945 466.16 159.468C466.213 158.991 466.111 158.509 465.869 158.094L462.763 149.371C462.325 148.172 461.74 147.59 460.827 147.518V147.627Z" fill="#164194"/>
<path d="M494.584 145.773C493.707 146.391 492.611 147.772 490.931 149.044C490.192 149.748 489.307 150.281 488.337 150.605C487.368 150.929 486.338 151.035 485.323 150.917C484.307 150.799 483.33 150.459 482.462 149.922C481.593 149.384 480.855 148.663 480.3 147.809C479.653 146.937 479.203 145.937 478.981 144.876C478.759 143.816 478.77 142.72 479.013 141.664C479.256 140.608 479.725 139.617 480.388 138.758C481.052 137.899 481.894 137.193 482.857 136.687C484.83 135.27 486.51 134.761 487.277 134.216C487.499 134.065 487.696 133.881 487.862 133.671L488.848 137.305C487.28 137.313 485.756 137.823 484.501 138.759C483.95 139.087 483.474 139.525 483.102 140.045C482.73 140.565 482.471 141.156 482.34 141.781C482.21 142.407 482.211 143.052 482.344 143.676C482.477 144.301 482.739 144.891 483.113 145.41C483.423 145.983 483.861 146.478 484.394 146.857C484.927 147.235 485.54 147.487 486.186 147.592C486.832 147.697 487.493 147.654 488.12 147.464C488.746 147.275 489.32 146.945 489.798 146.5C491.333 145.341 492.582 143.849 493.452 142.139L495.644 145.228C495.309 145.33 494.989 145.477 494.694 145.664L494.584 145.773Z" fill="#164194"/>
<path d="M487.643 133.562L491.552 129.128C491.432 129.601 491.462 130.1 491.639 130.556C491.815 131.011 492.13 131.401 492.538 131.672L499.516 137.741L502.147 134.761C503.5 133.327 504.291 131.457 504.375 129.491C504.896 130.626 505.482 131.73 506.129 132.799C506.129 132.799 506.494 132.799 506.786 132.799L498.128 142.648C498.384 141.775 498.128 140.976 497.068 140.14L490.09 134.071C489.141 133.235 488.337 132.98 487.497 133.38L487.643 133.562Z" fill="#164194"/>
<path d="M512.157 124.985C509.892 129.055 507.152 130.146 503.864 128.328L498.311 125.276C497.142 124.658 496.265 124.585 495.534 125.276L498.384 120.188C498.384 121.132 498.822 121.75 499.955 122.404L505.435 125.421C505.835 125.663 506.287 125.807 506.754 125.844C507.221 125.88 507.69 125.807 508.124 125.63C508.557 125.453 508.943 125.178 509.25 124.826C509.557 124.474 509.777 124.056 509.892 123.604C510.179 123.255 510.382 122.846 510.484 122.407C510.587 121.968 510.588 121.512 510.485 121.073C510.383 120.634 510.181 120.225 509.894 119.876C509.608 119.527 509.244 119.248 508.832 119.061L503.352 116.335C502.293 115.754 501.526 115.536 500.612 116.335L503.462 111.211C503.462 112.083 503.9 112.846 505.033 113.464L510.623 116.517C513.911 118.334 514.276 121.205 512.157 125.312V124.985Z" fill="#164194"/>
<path d="M517.126 104.269C517.564 102.343 517.126 101.253 515.92 100.962C514.714 100.671 513.947 101.543 513.509 103.506L512.522 107.831L516.176 108.667L517.199 104.269H517.126ZM511.024 103.906C511.426 102.052 511.025 101.035 509.928 100.78C508.832 100.526 508.175 101.253 507.81 102.888L506.969 106.522L510.221 107.286L511.024 103.869V103.906ZM515.335 112.01L506.385 109.939C505.143 109.648 504.266 109.939 503.718 110.556L505.471 102.924C506.458 98.5995 507.7 96.4553 510.403 97.0731C511.089 97.2381 511.698 97.6303 512.129 98.1851C512.561 98.74 512.79 99.4245 512.778 100.126C513.618 97.8 514.934 96.9277 516.87 97.3639C519.793 98.0544 520.523 100.635 519.427 105.323L517.491 113.682C517.308 112.773 516.614 112.301 515.335 112.01Z" fill="#164194"/>
<path d="M374.097 79.9917L375.375 74.2495C375.496 74.7202 375.762 75.1415 376.135 75.4543C376.508 75.7672 376.971 75.9559 377.458 75.994L386.518 77.9929L387.468 74.1041C388.017 72.1995 387.861 70.1623 387.03 68.3619C388.016 69.1217 389.054 69.8138 390.135 70.4335C390.35 70.4941 390.578 70.4941 390.793 70.4335L387.979 83.19C387.76 82.2814 387.103 81.7726 385.86 81.5182L376.8 79.5193C376.352 79.3332 375.857 79.2927 375.384 79.4037C374.912 79.5146 374.487 79.7714 374.17 80.1371L374.097 79.9917Z" fill="#164194"/>
<path d="M389.258 67.1627L381.001 62.9469C380.604 62.6733 380.133 62.5268 379.65 62.5268C379.167 62.5268 378.695 62.6733 378.298 62.9469L385.057 49.8633C385.14 50.0477 385.281 50.2006 385.458 50.2994C386.482 50.5581 387.519 50.7643 388.564 50.9172C387.059 51.9126 385.869 53.3112 385.13 54.9513L382.572 59.9304L385.495 61.4568L388.345 55.9326C388.64 55.3558 388.814 54.7251 388.856 54.0791L390.098 56.0416C390.249 56.2945 390.329 56.5833 390.329 56.8775C390.329 57.1718 390.249 57.4605 390.098 57.7134L387.577 62.5471L390.756 64.1462L393.459 58.9128C394.48 57.2089 394.844 55.1939 394.482 53.2432C395.242 54.2228 396.072 55.1459 396.967 56.0053C397.191 56.0828 397.436 56.0828 397.661 56.0053L390.792 69.307C390.792 68.3984 390.317 67.7442 389.185 67.1627H389.258Z" fill="#164194"/>
<path d="M392.4 44.3755L399.707 50.0087C400.73 50.8082 401.57 51.0263 402.41 50.5902L398.757 55.1694C398.976 54.2608 398.757 53.534 397.551 52.7344L390.245 47.1012C389.222 46.3017 388.381 46.0836 387.578 46.5197L391.231 41.9041C390.975 42.8127 391.231 43.5759 392.4 44.3755Z" fill="#164194"/>
<path d="M411.434 41.6858C410.667 42.3763 409.717 43.8664 408.073 45.3201C407.425 46.1104 406.609 46.7474 405.683 47.1848C404.758 47.6223 403.746 47.8492 402.721 47.8492C401.696 47.8492 400.684 47.6223 399.758 47.1848C398.832 46.7474 398.016 46.1104 397.369 45.3201C396.631 44.5263 396.073 43.5844 395.732 42.5578C395.391 41.5312 395.276 40.4439 395.394 39.3691C395.512 38.2944 395.86 37.2573 396.415 36.3278C396.97 35.3983 397.718 34.598 398.611 33.981C399.918 32.9133 401.284 31.9184 402.703 31.0008C402.887 30.8159 403.046 30.6082 403.177 30.383L404.639 33.7993C403.075 34.0282 401.613 34.7108 400.437 35.7618C399.917 36.1666 399.489 36.6765 399.181 37.2578C398.873 37.8392 398.692 38.4788 398.651 39.1346C398.61 39.7905 398.708 40.4476 398.941 41.0627C399.173 41.6778 399.534 42.237 399.999 42.7034C400.376 43.2343 400.87 43.6723 401.443 43.9837C402.017 44.2951 402.654 44.4716 403.307 44.4997C403.959 44.5278 404.61 44.4067 405.208 44.1457C405.806 43.8847 406.336 43.4907 406.758 42.9941C408.113 41.6732 409.139 40.0552 409.754 38.2695L412.347 41.0679C412.006 41.1796 411.694 41.3659 411.434 41.6131V41.6858Z" fill="#164194"/>
<path d="M412.457 38.0153L408.109 29.8744C407.525 28.7477 406.831 28.2389 405.917 28.3116L419.033 21.4064C418.957 21.6054 418.957 21.8252 419.033 22.0242C419.033 22.2423 419.983 22.9328 421.262 24.2775C419.478 24.2024 417.709 24.6174 416.147 25.4768L411.178 28.1299L412.713 31.001L418.229 28.1299C418.807 27.8219 419.316 27.4017 419.727 26.8942V29.1838C419.715 29.4841 419.62 29.7752 419.452 30.0253C419.285 30.2753 419.051 30.4746 418.777 30.6012L413.955 33.1453L415.635 36.2708L420.896 33.5087C422.676 32.6711 424.109 31.2454 424.951 29.4746C425.022 30.6958 425.181 31.9103 425.426 33.1089C425.426 33.1089 425.682 33.3997 425.938 33.545L412.676 40.523C412.961 40.132 413.115 39.6613 413.115 39.1783C413.115 38.6952 412.961 38.2245 412.676 37.8336L412.457 38.0153Z" fill="#164194"/>
<path d="M432.112 29.838C434.413 29.2565 435.4 28.3843 435.107 27.1849C434.815 25.9856 433.135 26.0583 430.321 26.349C426.851 26.7125 424.878 25.8766 424.367 23.7687C423.855 21.6607 425.609 18.8987 429.554 17.9537C432.039 17.3359 434.011 17.3359 435.071 17.0815C435.266 17.0269 435.451 16.941 435.619 16.8271V20.4614C433.794 19.9273 431.854 19.9273 430.029 20.4614C428.349 20.8612 427.581 21.5881 427.801 22.4603C428.02 23.3325 429.7 23.2599 432.733 23.1145C435.765 22.9691 438.067 23.6233 438.651 25.9856C439.345 28.9294 437.299 31.2554 432.733 32.3457C430.65 32.8545 429.079 32.9272 428.203 33.1089C427.955 33.1803 427.721 33.2908 427.508 33.436L425.718 29.8017C427.819 30.3088 430.011 30.3088 432.112 29.8017V29.838Z" fill="#164194"/>
<path d="M442.999 28.6386C442.999 28.6386 442.999 28.2752 442.999 27.8391L442.597 18.6806H441.903C440.095 18.641 438.315 19.1341 436.788 20.098C437.19 18.2808 437.555 17.2995 437.555 17.0088C437.532 16.8042 437.442 16.6128 437.3 16.4636L451.219 15.8821C451.089 16.0497 451.012 16.2523 451 16.4636C451 16.718 451.438 17.6993 452.023 19.4438C450.407 18.64 448.598 18.3002 446.798 18.4625H445.921L446.287 27.621C446.267 28.1153 446.387 28.6052 446.632 29.0355C446.877 29.4658 447.238 29.8193 447.675 30.056L441.793 30.2741C442.112 30.1124 442.382 29.8688 442.575 29.5684C442.768 29.2681 442.876 28.922 442.889 28.566L442.999 28.6386Z" fill="#164194"/>
<path d="M451.876 27.5847L453.557 18.4988C453.813 17.2632 453.557 16.4273 452.826 15.9185L467.44 18.5715C467.288 18.7104 467.175 18.8856 467.111 19.0803C467.111 19.3711 467.111 20.3887 467.403 22.2422C466.027 21.079 464.337 20.3457 462.544 20.1343L456.881 19.1167L456.26 22.3512L462.398 23.4779C463.037 23.6091 463.696 23.6091 464.334 23.4779L462.8 25.2223C462.601 25.4406 462.347 25.6026 462.065 25.6919C461.783 25.7813 461.482 25.7948 461.192 25.7312L455.822 24.7499L455.201 28.3842L461.046 29.4382C462.963 29.9081 464.986 29.6759 466.746 28.784C466.034 29.8091 465.387 30.8772 464.809 31.9822C464.749 32.1838 464.749 32.3984 464.809 32.6L450.196 29.9106C451.073 29.7289 451.548 29.0021 451.767 27.7664L451.876 27.5847Z" fill="#164194"/>
<path d="M476.865 29.1113C478.911 30.0926 479.971 30.0926 480.519 28.7115C481.067 27.3305 480.519 26.5673 478.473 25.586L475.148 24.0959L473.431 27.7302L476.829 29.3657L476.865 29.1113ZM471.166 35.1079L465.905 32.7456C466.819 32.7456 467.476 32.2005 468.024 31.0375L472.079 22.7876C472.359 22.3945 472.51 21.9246 472.51 21.4428C472.51 20.9611 472.359 20.4912 472.079 20.0981L479.569 23.7325C480.876 24.299 482.104 25.032 483.222 25.9131C483.841 26.4931 484.248 27.2612 484.381 28.0966C484.513 28.9321 484.362 29.7875 483.953 30.5287C483.447 31.3843 482.644 32.0264 481.695 32.3343C480.747 32.6422 479.717 32.5946 478.802 32.2005C479.522 33.1055 479.943 34.2099 480.007 35.3623C480.008 36.9681 480.357 38.5549 481.03 40.0143L475.587 37.3612C475.742 37.3303 475.888 37.2653 476.014 37.171C476.141 37.0767 476.244 36.9554 476.317 36.8161C476.655 35.7765 476.655 34.6574 476.317 33.6179C476.189 32.9686 475.907 32.3592 475.494 31.8407C475.081 31.3223 474.549 30.9097 473.943 30.6377L472.445 29.9108L471.203 32.5276C470.914 32.9241 470.759 33.401 470.759 33.8904C470.759 34.3798 470.914 34.8567 471.203 35.2533L471.166 35.1079Z" fill="#164194"/>
<path d="M493.086 50.917C492.319 50.1901 490.785 49.3542 489.214 47.7915C488.386 47.194 487.703 46.4213 487.212 45.5289C486.721 44.6366 486.436 43.6471 486.376 42.6317C486.317 41.6163 486.485 40.6005 486.868 39.6576C487.252 38.7146 487.841 37.8681 488.593 37.1792C489.35 36.3994 490.266 35.7906 491.28 35.3942C492.294 34.9977 493.382 34.8229 494.47 34.8815C495.558 34.9401 496.621 35.2308 497.586 35.7338C498.551 36.2369 499.396 36.9405 500.064 37.7971C501.781 39.4688 502.585 41.068 503.243 41.6858C503.442 41.8688 503.663 42.0275 503.9 42.1583L500.539 43.7574C500.244 42.2201 499.478 40.8112 498.347 39.7233C497.912 39.2291 497.375 38.8331 496.773 38.5619C496.172 38.2906 495.519 38.1502 494.858 38.1502C494.198 38.1502 493.545 38.2906 492.943 38.5619C492.341 38.8331 491.805 39.2291 491.369 39.7233C490.847 40.1201 490.423 40.6315 490.132 41.2177C489.84 41.8039 489.688 42.4492 489.688 43.1032C489.688 43.7572 489.84 44.4024 490.132 44.9886C490.423 45.5748 490.847 46.0863 491.369 46.4831C492.767 47.7565 494.443 48.6896 496.265 49.2089L493.598 51.8983C493.451 51.5784 493.253 51.284 493.013 51.026L493.086 50.917Z" fill="#164194"/>
<path d="M506.531 50.2267L499.005 55.4601C497.945 56.187 497.507 56.9138 497.69 57.8224L494.329 53.0615C495.132 53.5339 495.936 53.3522 497.032 52.6253L504.558 47.2829C505.618 46.5197 506.056 45.8291 505.873 44.8842L509.234 49.6815C508.431 49.2091 507.59 49.3544 506.531 50.1177V50.2267Z" fill="#164194"/>
<path d="M501.672 61.5293L502.366 61.2022L510.732 57.2408L510.403 56.623C509.73 54.9663 508.588 53.5397 507.115 52.5162C508.906 52.1527 509.965 52.1164 510.257 51.971C510.426 51.8613 510.564 51.7114 510.659 51.5349L516.651 64.0734C516.451 63.998 516.23 63.998 516.03 64.0734C515.774 64.0734 515.08 64.9819 513.655 66.1813C513.785 64.3885 513.391 62.5965 512.522 61.0205L512.194 60.3663L503.864 64.3278C503.398 64.485 502.99 64.7761 502.691 65.1643C502.392 65.5525 502.215 66.0203 502.183 66.5084L499.663 61.2386C499.933 61.4752 500.267 61.6286 500.624 61.6802C500.981 61.7318 501.345 61.6794 501.672 61.5293Z" fill="#164194"/>
<path d="M519.172 78.2109C519.537 78.2109 519.72 77.9202 519.902 77.5204L521.071 83.0082C520.025 82.3589 518.925 81.7996 517.783 81.3365L510.477 77.7021L508.321 78.1382C507.042 78.3926 506.312 78.9741 506.166 79.8464L504.96 74.1041C505.544 74.9037 506.348 75.0127 507.59 74.7583L509.709 74.3222L515.701 67.9621C516.547 67.2497 517.179 66.3192 517.528 65.2727L518.806 71.3057C518.699 71.1617 518.553 71.0511 518.384 70.9868C518.216 70.9224 518.033 70.907 517.856 70.9423C517.386 71.0672 516.973 71.3496 516.687 71.7418L513.034 75.6669L518.258 77.8838C518.633 78.0627 519.053 78.126 519.464 78.0655L519.172 78.2109Z" fill="#164194"/>
<path d="M478.51 66.5447V66.363V66.0359C478.547 63.8457 479.019 61.6843 479.898 59.6758C480.379 58.8373 480.662 57.9009 480.725 56.9375C480.789 55.9741 480.631 55.0089 480.263 54.1153C480.252 53.958 480.252 53.8001 480.263 53.6428C480.051 52.9034 479.77 52.1855 479.423 51.4986L479.058 50.8807H478.4C472.022 53.0168 466.402 56.9421 462.216 62.1835L460.206 63.7099C460.223 63.6016 460.223 63.4912 460.206 63.3828C460.105 62.9904 459.904 62.6306 459.622 62.3378C459.341 62.045 458.988 61.8292 458.599 61.711C454.793 60.4571 450.807 59.831 446.798 59.8575C442.443 59.8061 438.125 60.6603 434.121 62.3652L433.281 62.765L433.537 63.2375C428.386 58.8399 418.704 50.9534 415.964 50.9534H415.453L415.233 51.2442C414.859 51.7759 414.575 52.3653 414.393 52.9886L414.174 53.2431C413.261 54.1516 413.005 55.2056 414.174 58.3675C415.134 60.6852 415.726 63.1374 415.928 65.6361C416.23 67.569 416.795 69.4519 417.608 71.233C417.827 72.1416 419.362 78.5017 420.092 80.1008C420.362 80.5853 420.433 81.1547 420.29 81.6899C420.147 82.2251 419.801 82.6845 419.325 82.9719H419.106C418.373 83.3329 417.725 83.843 417.202 84.469C416.68 85.095 416.295 85.8231 416.074 86.6062C416.026 87.3529 416.149 88.1007 416.434 88.7932C416.718 89.4857 417.157 90.1049 417.718 90.604C417.961 91.0847 418.169 91.5828 418.339 92.0941C417.864 92.8573 418.339 93.2934 418.814 93.7659L419.069 94.0203C419.506 94.4313 419.983 94.7966 420.494 95.1106C421.002 95.3975 421.449 95.7802 421.809 96.2372C421.98 96.4378 422.128 96.6573 422.248 96.8914C422.567 97.5461 423.076 98.0905 423.709 98.4541V99.3991C423.587 100.606 423.849 101.82 424.459 102.87C425.068 103.92 425.995 104.753 427.107 105.25L429.262 106.195C430.578 106.777 430.578 106.777 431.016 107.54C431.974 109.39 433.319 111.013 434.962 112.301C436.105 113.159 437.051 114.249 437.738 115.499L439.126 115.899C439.212 115.812 439.286 115.715 439.346 115.608C438.894 116.597 438.61 117.653 438.505 118.734C438.505 120.006 439.017 122.913 443.657 123.64L444.899 124.512L446.433 125.821H446.652H447.858L448.954 125.566H449.246L449.429 125.348L450.123 124.476L450.708 123.749C451.954 123.64 453.138 123.158 454.105 122.368C455.073 121.35 455.753 120.097 456.078 118.734C456.078 118.479 456.078 117.28 455.822 116.589L455.311 115.245C455.468 115.486 455.603 115.742 455.713 116.008L456.224 117.534L457.211 116.299L459.476 113.537L461.668 111.465C462.257 110.868 462.728 110.165 463.056 109.393L463.312 108.848C464.879 107.423 466.623 106.202 468.499 105.214C469.564 104.681 470.435 103.831 470.992 102.782C471.548 101.733 471.763 100.538 471.605 99.3627V98.9993L471.495 98.5632C471.756 97.9768 471.963 97.3687 472.116 96.746C473.81 95.7652 475.349 94.5405 476.683 93.1117L477.012 92.7119V92.2394C477.012 92.2394 476.427 90.7494 478.071 88.7868C479.715 86.8243 479.861 86.3518 479.569 85.6976C479.504 85.5386 479.4 85.3986 479.265 85.2906C479.131 85.1825 478.972 85.11 478.802 85.0798C477.464 84.2378 476.309 83.138 475.404 81.8452C475.42 81.676 475.42 81.5057 475.404 81.3364C474.951 79.8473 475.109 78.2401 475.843 76.8662C476.512 75.8396 476.855 74.6368 476.829 73.4136C476.805 73.2814 476.805 73.146 476.829 73.0138C477.311 70.8277 477.909 68.6684 478.619 66.5447H478.51Z" fill="#FBBA00"/>
<path d="M451.986 109.066L452.753 111.429L453.119 114.591L451.036 116.153L443.51 115.935L440.624 113.391L441.903 112.301L442.633 109.066C433.208 102.052 429.08 101.325 429.08 101.325C427.297 100.565 425.415 100.063 423.49 99.8352C423.367 101.042 423.63 102.256 424.239 103.306C424.849 104.356 425.776 105.189 426.887 105.686L429.043 106.631C430.358 107.213 430.358 107.213 430.797 107.976C431.868 109.69 433.286 111.163 434.961 112.301C436.105 113.159 437.051 114.249 437.738 115.499L439.126 115.899C439.212 115.812 439.286 115.715 439.345 115.608C438.893 116.597 438.609 117.653 438.505 118.734C438.505 120.006 439.017 122.913 443.656 123.64L444.899 124.512L446.433 125.821H446.652H447.858L448.954 125.566H449.246L449.429 125.348L450.123 124.476L450.707 123.749C451.954 123.64 453.138 123.158 454.105 122.368C455.073 121.35 455.753 120.097 456.078 118.734C456.078 118.479 456.078 117.28 455.822 116.589L455.311 115.245C455.468 115.486 455.602 115.742 455.713 116.008L456.224 117.534L457.21 116.299L459.475 113.537L461.667 111.465C462.257 110.868 462.728 110.165 463.056 109.393L463.311 108.848C464.879 107.423 466.622 106.202 468.499 105.214C469.557 104.672 470.422 103.821 470.977 102.774C471.532 101.728 471.752 100.537 471.605 99.3627L471.495 98.1634V97.9453L468.865 99.3627C451.913 105.723 451.986 109.066 451.986 109.066Z" fill="white"/>
<path d="M429.737 90.1316C429.737 90.1316 430.249 89.441 431.527 90.495C433.45 92.3078 435.968 93.3665 438.615 93.4751C438.615 93.4751 439.236 94.3837 437.154 94.311C436.271 94.3022 435.391 94.2171 434.523 94.0566C433.077 93.2214 431.781 92.1529 430.687 90.8948C430.442 90.58 430.113 90.3406 429.737 90.2042V90.1316Z" fill="#164194"/>
<path d="M448.844 70.4334L447.931 69.6702C447.654 68.9658 447.566 68.2018 447.675 67.4532C449.016 66.1576 450.542 65.0675 452.205 64.2187C451.712 65.1601 451.042 65.999 450.232 66.69C449.632 67.0778 449.131 67.6007 448.771 68.2165C448.607 68.9465 448.607 69.7034 448.771 70.4334H448.844Z" fill="#164194"/>
<path d="M445.921 70.179C445.921 70.179 447.054 68.3255 446.469 67.7803L442.268 64.4731C442.268 64.4731 442.268 66.2539 443.218 66.8717C444.168 67.4896 444.862 67.4532 444.935 67.8894V68.3255C444.871 68.4555 444.837 68.5985 444.837 68.7434C444.837 68.8884 444.871 69.0314 444.935 69.1614C445.264 69.5975 445.775 70.179 445.775 70.179H445.921Z" fill="#164194"/>
<path d="M455.274 80.7912C457.177 79.7605 459.156 78.8737 461.193 78.1382C462.727 77.7747 461.193 77.4113 460.864 77.3023C460.402 77.2607 459.937 77.2607 459.476 77.3023L458.051 77.8838L457.357 78.2472L456.297 79.0467L455.493 79.3738L455.018 79.6282C455.018 79.6282 454.58 81.2273 455.274 80.9002V80.7912Z" fill="#164194"/>
<path d="M433.025 77.6658C433.025 77.0843 433.61 77.8838 434.048 78.1382C434.487 78.3926 436.752 79.0468 436.752 79.0468L437.446 79.5193L438.615 80.4278L438.359 81.0093C437.992 81.012 437.633 80.8973 437.336 80.6823C436.971 80.3188 435.838 79.5556 435.765 79.7737C435.692 79.9917 434.998 79.7737 434.414 79.4102C434.06 79.2501 433.749 79.0083 433.508 78.705C433.266 78.4016 433.101 78.0453 433.025 77.6658Z" fill="#164194"/>
<path d="M428.459 68.6163C428.269 68.2719 428.121 67.9058 428.02 67.526V67.1989C427.795 66.428 427.648 65.6366 427.582 64.8366C427.417 63.5288 426.797 62.3199 425.828 61.4203L425.609 61.1659C425.517 60.9948 425.387 60.8468 425.229 60.7334C425.07 60.6201 424.888 60.5442 424.696 60.5117C424.476 60.5117 424.038 60.5117 422.979 59.3851C421.637 58.1324 420.195 56.9899 418.668 55.9688L416.695 54.5514L417.462 56.8047C417.724 57.5675 417.943 58.344 418.12 59.1307C418.12 59.3851 418.12 59.8939 418.12 60.7298C418.216 61.4045 418.277 62.0839 418.302 62.765C418.302 63.4555 418.777 66.3993 418.887 67.1625V67.4169C419.279 68.2288 419.719 69.0175 420.202 69.7793C420.42 70.0287 420.57 70.3287 420.64 70.6515C420.343 71.6959 420.407 72.8097 420.823 73.8134C421.262 75.2671 422.065 75.5578 422.65 75.5578C423.059 75.505 423.452 75.3677 423.804 75.1549C424.156 74.9422 424.46 74.6585 424.696 74.3222L425.536 73.3772L425.792 73.0865C426.23 72.614 427.07 71.7781 427.911 71.0513C428.167 70.8745 428.379 70.6418 428.531 70.3709C428.683 70.1001 428.771 69.7982 428.787 69.4885C428.778 69.0343 428.61 68.5976 428.313 68.2528L428.459 68.6163Z" fill="white"/>
<path d="M463.494 88.9323C463.337 88.9823 463.202 89.0867 463.115 89.2266C463.028 89.3666 462.994 89.5328 463.019 89.6955C463.019 90.386 460.243 92.6756 459.366 93.0754C458.424 93.3806 457.424 93.4676 456.443 93.3298C455.493 93.3298 455.164 94.6018 455.164 94.6018C454.902 95.0913 454.682 95.6019 454.507 96.1282C454.196 97.7674 453.768 99.3827 453.228 100.962C452.853 102.973 453.043 105.048 453.776 106.959C454.134 107.806 454.587 108.611 455.128 109.357C455.38 110.119 455.503 110.917 455.493 111.72L456.114 109.503C456.114 109.503 456.114 108.703 455.895 108.231C455.676 107.758 455.128 107.177 454.909 106.377C454.557 105.186 454.288 103.971 454.105 102.743C454.105 102.161 454.69 99.1084 454.799 98.3815C455.155 97.2961 455.387 96.1747 455.493 95.0379V94.5291C456.985 94.6589 458.486 94.4142 459.858 93.8173C461.231 93.2205 462.431 92.2906 463.348 91.1129C463.733 90.388 464.027 89.6191 464.225 88.8232L463.494 88.9323Z" fill="#164194"/>
<path d="M475.441 55.7145C474.412 56.6774 473.257 57.4966 472.006 58.1495C469.632 59.5669 466.892 61.166 466.672 64.5096V64.8003V65.0547C467.22 65.8179 466.928 66.4358 466.307 67.4897C465.945 68.0105 465.674 68.5879 465.503 69.1979V69.743L465.942 70.0701C466.579 70.5829 467.167 71.1549 467.695 71.7783C468.177 72.492 468.797 73.1036 469.518 73.5777C470.239 74.0519 471.048 74.379 471.897 74.5403H472.372L472.664 74.1406C473.523 72.8184 474.049 71.3101 474.198 69.743C474.332 68.4541 474.757 67.2118 475.441 66.1087L475.66 65.818V65.4909C475.54 63.7112 475.751 61.9249 476.281 60.2211C476.626 58.9353 476.859 57.6219 476.975 56.296V53.97L475.404 55.6782L475.441 55.7145Z" fill="white"/>
<path d="M439.199 95.801C439.491 99.4354 442.853 102.197 440.624 105.795C440.88 107.831 438.943 108.848 438.395 110.556C437.519 110.556 437.921 109.139 438.03 108.558C439.09 106.867 439.7 104.935 439.802 102.945C439.905 100.955 439.496 98.9717 438.615 97.1821C438.615 96.6006 438.615 95.9464 439.309 95.801" fill="#164194"/>
<path d="M474.82 65.4545C473.029 67.9259 473.797 71.3421 472.006 73.7771C469.522 73.4864 468.353 70.8697 466.38 69.3432C466.782 67.7078 468.791 66.2904 467.476 64.3642C467.805 59.6759 473.322 58.8764 476.135 55.8235C475.4 58.9868 474.959 62.2108 474.82 65.4545ZM476.865 53.5339C473.724 56.2233 469.814 57.1682 466.928 60.4391C464.042 62.9468 467.403 67.199 463.275 69.1615C465.855 71.9517 468.791 74.3952 472.006 76.4302C474.454 74.9765 474.527 72.2144 474.673 69.7067C477.158 65.3091 475.916 60.1484 477.888 55.4601C477.486 54.8059 477.888 53.2432 476.719 53.5339H476.865Z" fill="#164194"/>
<path d="M427.655 70.9785C426.746 71.7293 425.891 72.543 425.097 73.4136C424.76 73.7459 424.443 74.0978 424.147 74.4675C424.147 74.4675 422.43 76.7571 421.59 74.2131C420.75 71.6691 421.59 71.56 421.59 70.8695C421.473 70.3929 421.234 69.9546 420.896 69.5975C420.567 69.125 419.617 67.2715 419.617 67.2715C419.617 67.2715 419.033 63.6372 419.033 62.874C419.033 62.1108 418.667 59.6394 418.667 59.2397C418.485 58.3279 418.241 57.4294 417.937 56.5502C419.474 57.5605 420.927 58.6907 422.284 59.9302C424.257 61.7837 424.622 61.0932 424.842 61.5656C425.877 62.4638 426.583 63.678 426.851 65.0182C426.897 66.0112 427.094 66.9915 427.436 67.9257C427.589 68.4022 427.785 68.8643 428.02 69.3068C428.02 69.3068 428.933 70.1063 427.764 71.0512L427.655 70.9785ZM428.933 67.9621C428.714 67.3806 428.13 67.962 428.349 66.2539C428.86 62.6196 428.349 64.255 426.486 61.0205C425.967 60.4287 425.513 59.7829 425.134 59.0943C425.134 58.6945 424.732 58.9126 424.147 58.5855C423.563 58.2584 423.234 58.113 422.43 57.6405C421.621 57.1506 420.903 56.5233 420.311 55.787C419.321 54.9905 418.227 54.3304 417.06 53.8245C416.93 53.7213 416.769 53.665 416.603 53.665C416.437 53.665 416.276 53.7213 416.147 53.8245C415.562 53.8245 416.366 56.2595 416.366 56.732C416.51 58.7093 416.778 60.6757 417.17 62.6196C417.551 64.9915 418.137 67.3262 418.923 69.5975C419.471 71.0421 419.791 72.5622 419.873 74.1041C419.89 74.8426 420.098 75.5643 420.475 76.2005C420.852 76.8367 421.387 77.3662 422.029 77.7384C423.419 76.416 424.909 75.2011 426.486 74.1041C427.452 73.4933 428.255 72.6576 428.824 71.6691C429.518 70.7241 429.518 70.7241 430.102 69.8156C430.687 68.907 429.189 68.7616 428.933 68.1801V67.9621Z" fill="#164194"/>
<path d="M438.615 90.8948C438.615 91.4153 438.407 91.9145 438.037 92.2825C437.667 92.6506 437.165 92.8573 436.642 92.8573C436.119 92.8573 435.617 92.6506 435.247 92.2825C434.877 91.9145 434.669 91.4153 434.669 90.8948C434.669 90.3743 434.877 89.8751 435.247 89.5071C435.617 89.139 436.119 88.9323 436.642 88.9323C437.165 88.9323 437.667 89.139 438.037 89.5071C438.407 89.8751 438.615 90.3743 438.615 90.8948Z" fill="#164194"/>
<path d="M436.058 90.0953C436.063 90.1508 436.056 90.2067 436.038 90.2595C436.02 90.3122 435.991 90.3607 435.954 90.4018C435.916 90.4428 435.87 90.4756 435.818 90.4979C435.767 90.5202 435.712 90.5316 435.656 90.5314C435.539 90.5314 435.428 90.4855 435.346 90.4037C435.263 90.3219 435.217 90.2109 435.217 90.0953C435.217 90.0396 435.229 89.9844 435.251 89.9334C435.273 89.8824 435.306 89.8366 435.348 89.7989C435.389 89.7613 435.438 89.7326 435.491 89.7148C435.544 89.697 435.6 89.6904 435.656 89.6955C435.762 89.6955 435.864 89.7376 435.94 89.8126C436.015 89.8876 436.058 89.9893 436.058 90.0953Z" fill="white"/>
<path d="M460.17 90.8947C460.208 91.1723 460.186 91.4549 460.105 91.7234C460.024 91.9919 459.887 92.2401 459.702 92.4512C459.517 92.6624 459.288 92.8317 459.032 92.9477C458.775 93.0637 458.497 93.1237 458.215 93.1237C457.933 93.1237 457.655 93.0637 457.398 92.9477C457.142 92.8317 456.913 92.6624 456.728 92.4512C456.543 92.2401 456.406 91.9919 456.325 91.7234C456.244 91.4549 456.222 91.1723 456.26 90.8947C456.222 90.6171 456.244 90.3345 456.325 90.066C456.406 89.7975 456.543 89.5493 456.728 89.3382C456.913 89.127 457.142 88.9577 457.398 88.8417C457.655 88.7257 457.933 88.6657 458.215 88.6657C458.497 88.6657 458.775 88.7257 459.032 88.8417C459.288 88.9577 459.517 89.127 459.702 89.3382C459.887 89.5493 460.024 89.7975 460.105 90.066C460.186 90.3345 460.208 90.6171 460.17 90.8947Z" fill="#164194"/>
<path d="M432.149 87.4421C430.207 87.6404 428.254 87.7132 426.303 87.6601C428.152 88.3305 430.108 88.663 432.076 88.6414C433.266 88.3244 434.506 88.238 435.729 88.387C438.871 88.7868 440.332 92.0213 442.816 93.2934L443.218 92.0577C442.248 90.1121 440.608 88.5769 438.598 87.7301C436.587 86.8834 434.338 86.7812 432.258 87.4421H432.149Z" fill="#164194"/>
<path d="M477.231 88.1328C476.651 88.675 476.233 89.3649 476.02 90.1275C475.807 90.8901 475.809 91.696 476.025 92.4577C473.758 94.8128 471.02 96.6698 467.988 97.9092C467.659 97.9092 467.075 98.6724 466.709 98.9995L464.59 101.398H465.431L465.138 102.488C465.138 102.488 466.38 101.071 466.819 100.453C467.257 99.8353 468.353 100.199 468.353 100.199L469.559 99.6173L470.326 99.1085C470.582 98.9268 470.984 99.1085 470.984 99.1085C471.114 100.102 470.931 101.111 470.46 101.997C469.989 102.882 469.253 103.6 468.353 104.051C466.347 105.121 464.502 106.467 462.873 108.049C462.495 108.948 461.977 109.781 461.339 110.52L459.11 112.628L456.882 115.608C456.721 115.139 456.487 114.697 456.188 114.3C455.603 113.391 455.932 113.464 455.859 112.955C455.728 112.35 455.493 111.773 455.165 111.247C454.763 110.484 454.215 110.92 453.886 110.666C453.454 110.134 453.244 109.457 453.301 108.776C453.301 107.94 451.256 98.2362 451.073 97.4003V96.5281C452.039 94.5895 453.269 92.7919 454.726 91.1856C455.232 90.6068 455.809 90.0939 456.443 89.6592C457.042 89.2718 457.712 89.0078 458.415 88.883C459.118 88.7581 459.839 88.7749 460.535 88.9324C461.464 89.1958 462.42 89.3543 463.385 89.4048C464.327 89.4389 465.264 89.2641 466.13 88.8933C466.996 88.5224 467.767 87.9647 468.39 87.2606C467.075 87.5513 464.481 87.8057 464.481 87.8057C452.023 86.7154 455.092 88.3509 455.092 88.3509C453.201 89.3124 451.76 90.9675 451.073 92.9665L449.867 94.5656C449.585 95.5573 449.498 96.5939 449.612 97.6184C449.612 98.1272 449.867 99.5083 449.867 99.5083C449.598 103.232 450.211 106.966 451.657 110.411C451.657 110.702 452.571 114.409 452.571 114.409H453.046L453.74 113.718H454.142V114.155L455.092 116.699C455.092 116.699 455.347 118.479 455.347 118.734C455.025 119.857 454.464 120.898 453.703 121.787C453.118 122.302 452.422 122.677 451.669 122.885C450.915 123.093 450.124 123.127 449.356 122.986H449.137H448.223H447.748L447.383 122.623V122.15V121.351C448.547 121.116 449.593 120.489 450.346 119.575C451.098 118.661 451.51 117.516 451.511 116.335C451.511 115.681 450.488 115.172 450.488 115.172C448.277 114.566 445.941 114.566 443.73 115.172C442.268 115.499 442.78 117.535 442.78 117.535C442.78 118.77 445.191 120.696 445.191 120.696C445.671 121.074 446.26 121.291 446.871 121.314V121.75C446.794 122.064 446.684 122.368 446.543 122.659C446.36 122.986 445.666 123.131 445.227 123.204H444.826C440.478 122.768 439.638 120.587 439.638 119.025C439.95 117.315 440.516 115.662 441.318 114.118L441.83 114.518C442.23 114.576 442.636 114.576 443.035 114.518C443.291 114.518 443.035 113.9 443.035 113.646C442.875 113.4 442.728 113.145 442.597 112.883C444.57 110.847 445.775 97.3277 445.849 97.0006C445.923 96.69 445.923 96.3663 445.849 96.0556L445.593 95.4742L445.008 94.5292C445.008 94.5292 443.912 93.657 443.364 93.9114C442.816 94.1658 443.912 95.5468 443.912 95.5468L444.497 96.31C443.922 98.0934 443.542 99.9334 443.364 101.798L442.451 107.649C441.977 108.729 441.598 109.848 441.318 110.993C440.99 112.592 439.455 111.393 439.455 111.393C439.619 112.074 439.629 112.782 439.483 113.467C439.338 114.152 439.041 114.797 438.615 115.354C437.902 113.892 436.819 112.64 435.473 111.72C433.879 110.646 432.534 109.246 431.527 107.613C430.76 106.268 430.687 106.595 427.253 104.996C426.31 104.58 425.523 103.878 425.004 102.99C424.486 102.103 424.263 101.075 424.367 100.053C424.367 100.053 426.741 100.998 427.107 101.071C427.977 101.308 428.831 101.599 429.664 101.943C430.249 102.198 432.806 103.797 430.249 100.998C427.691 98.1999 426.413 99.1085 424.769 98.527C423.125 97.9455 423.234 97.255 422.467 96.2374C421.7 95.2197 420.604 94.8563 419.654 93.9477C418.704 93.0392 418.96 93.3299 419.142 92.8211C419.325 92.3123 418.375 90.6041 418.375 90.6041C414.722 86.7881 418.375 84.7529 419.727 83.9897C420.403 83.6015 420.897 82.9638 421.102 82.2151C421.307 81.4664 421.207 80.6674 420.823 79.9919C420.056 78.2111 418.339 71.1605 418.339 71.1605C417.565 69.4311 417.012 67.6118 416.695 65.7453C416.499 63.148 415.895 60.5972 414.905 58.1859C413.37 53.8611 414.905 54.5516 415.16 53.3522C415.325 52.8388 415.558 52.3499 415.854 51.8985C419.033 51.8985 435.692 66.4358 435.692 66.4358C435.409 65.3587 434.992 64.3209 434.45 63.3467C442.07 60.3698 450.497 60.1384 458.27 62.6925C460.645 63.6374 458.526 66.3268 458.526 66.3268L462.873 63.0923C466.985 58.0233 472.477 54.2384 478.692 52.1893C479.019 52.8138 479.276 53.4719 479.459 54.1518C479.861 54.9855 480.07 55.8984 480.07 56.823C480.07 57.7477 479.861 58.6605 479.459 59.4943C478.493 61.6337 477.971 63.9454 477.925 66.2905C477.083 68.3809 476.399 70.5312 475.879 72.7232C475.933 74.0017 475.602 75.2671 474.929 76.3576C474.056 78.0691 473.898 80.055 474.491 81.8818C474.747 83.2628 478.437 85.8068 478.437 85.8068C478.437 85.8068 479.277 85.5524 477.231 88.0238V88.1328ZM449.027 124.949L447.931 125.203H447.164L445.447 124.185C446.041 124.105 446.643 124.105 447.237 124.185C448.442 124.185 449.356 124.185 449.612 124.185L448.917 125.021L449.027 124.949ZM478.254 82.9357C474.6 80.21 476.793 77.993 477.596 76.4666C478.292 74.8149 478.699 73.0574 478.802 71.2695C478.802 70.5063 478.985 67.6352 479.898 66.6902C480.811 65.7453 481.03 61.2387 481.469 60.1484C481.8 59.0741 481.996 57.9633 482.053 56.8412C482.013 56.1513 482.013 55.4596 482.053 54.7696C481.28 52.5989 480.327 50.4959 479.204 48.4822C475.112 48.9184 464.59 57.8588 463.64 58.9491C463.016 59.6335 462.304 60.2323 461.521 60.7299C456.747 59.5307 451.83 58.9926 446.908 59.1308C442.209 59.1766 437.538 59.8613 433.025 61.1661C428.158 55.9114 422.147 51.8338 415.453 49.2454C411.105 53.6066 414.174 63.9645 414.612 64.9094C415.443 66.2717 415.909 67.8234 415.964 69.416C416.293 72.0529 416.805 74.6638 417.498 77.2298C417.863 78.6416 418.442 79.9897 419.216 81.2276C419.216 81.2276 418.302 82.2452 416.658 83.8806C415.014 85.5161 415.635 84.7165 414.685 85.1526C414.398 85.3253 414.151 85.5575 413.962 85.8334C413.773 86.1093 413.646 86.4226 413.589 86.7518C414.267 88.033 415.062 89.2496 415.964 90.3861C417.097 91.5854 415.635 92.603 415.635 92.603L418.814 95.1471C419.983 96.092 419.325 96.0193 420.165 96.7825C421.006 97.5457 420.348 98.1636 420.348 98.1636L421.042 98.7814C421.384 100.887 422.286 102.864 423.654 104.506C425.022 106.148 426.807 107.397 428.824 108.122C430.106 108.874 431.234 109.861 432.148 111.029L433.756 112.301C437.884 115.172 437.884 117.825 437.884 117.825C437.117 122.405 440.369 123.24 440.369 123.24C444.716 124.694 444.46 125.058 444.46 125.058C447.785 127.674 448.735 126.33 449.94 125.966C450.878 125.647 451.764 125.194 452.571 124.621C454.229 124.143 455.664 123.096 456.62 121.666C457.577 120.235 457.993 118.514 457.795 116.808C458.341 116.03 458.939 115.289 459.585 114.591C460.179 113.9 460.671 113.129 461.047 112.301C463.227 110.313 465.573 108.514 468.061 106.922C469.741 106.088 471.186 104.851 472.264 103.321C473.342 101.792 474.019 100.019 474.235 98.1636C474.471 96.7824 475.073 95.4888 475.978 94.4156C476.884 93.3425 478.06 92.5287 479.386 92.0579C479.071 91.5633 478.904 90.9898 478.904 90.4043C478.904 89.8187 479.071 89.2452 479.386 88.7506C480.336 87.3696 481.871 85.1163 481.871 85.1163C481.871 85.1163 481.651 85.1163 478.217 82.645L478.254 82.9357Z" fill="#164194"/>
<path d="M457.795 90.0953C457.8 90.1508 457.793 90.2067 457.775 90.2595C457.758 90.3122 457.729 90.3607 457.691 90.4018C457.653 90.4428 457.607 90.4756 457.556 90.4979C457.504 90.5202 457.449 90.5316 457.393 90.5314C457.277 90.5314 457.165 90.4855 457.083 90.4037C457.001 90.3219 456.955 90.2109 456.955 90.0953C456.954 90.0396 456.966 89.9844 456.988 89.9334C457.011 89.8824 457.044 89.8366 457.085 89.7989C457.126 89.7613 457.175 89.7326 457.228 89.7148C457.281 89.697 457.337 89.6904 457.393 89.6955C457.5 89.6955 457.602 89.7376 457.677 89.8126C457.753 89.8876 457.795 89.9893 457.795 90.0953Z" fill="white"/>
<path d="M320.928 177.865C321.895 177.865 322.823 177.482 323.507 176.801C324.191 176.119 324.575 175.195 324.575 174.231V5.63433C324.575 4.67045 324.191 3.74604 323.507 3.06447C322.823 2.3829 321.895 2 320.928 2C319.96 2 319.032 2.3829 318.348 3.06447C317.664 3.74604 317.28 4.67045 317.28 5.63433V174.231C317.28 175.195 317.664 176.119 318.348 176.801C319.032 177.482 319.96 177.865 320.928 177.865Z" fill="#164194"/>
<g clip-path="url(#clip1)">
<path d="M261.004 2H119.997C110.61 2 103 9.60946 103 18.9962V160.004C103 169.391 110.61 177 119.997 177H261.004C270.391 177 278 169.391 278 160.004V18.9962C278 9.60946 270.391 2 261.004 2Z" fill="#00BE40"/>
<path d="M243.565 112.758H137.757V121.173H243.565V112.758Z" fill="white"/>
<path d="M166.634 70.8041V62.2451H137.757V102.195H148.309V87.9886H164.63V79.4185H148.309V70.8041H166.634Z" fill="white"/>
<path d="M198.223 81.478C202.442 79.5293 204.668 76.4511 204.668 72.6201C204.668 66.1648 199.884 62.2895 191.824 62.2895H171.384V102.195H192.045C200.836 102.195 206.085 98.0313 206.085 90.9561C206.085 86.3831 203.173 82.9617 198.223 81.478ZM181.714 70.3502H189.875C192.842 70.3502 194.437 71.7121 194.437 74.2367C194.437 76.7612 192.842 78.112 189.875 78.112H181.714V70.3502ZM190.572 94.0896H181.714V86.1506H190.672C193.639 86.1506 195.3 87.5679 195.3 90.2585C195.3 92.7941 193.639 94.0896 190.561 94.0896H190.572Z" fill="white"/>
<path d="M231.551 77.9348L226.746 77.2926C222.007 76.6061 220.612 75.4435 220.612 73.2401C220.612 71.0367 222.461 69.5308 226.58 69.5308C230.389 69.5308 232.26 70.937 233.157 74.4138L243.2 73.1183C241.727 65.2569 236.08 61.4369 226.868 61.4369C216.559 61.4369 209.783 66.5856 209.783 74.4581C209.783 81.2234 213.891 85.1651 222.295 86.3277L227.322 87.0142C232.648 87.7782 233.965 88.9851 233.965 91.3104C233.965 93.6356 231.994 95.0196 227.322 95.0196C225.648 95.0965 223.995 94.6151 222.625 93.6512C221.254 92.6872 220.242 91.2952 219.748 89.6938L209.285 91.2661C210.979 99.4043 217.168 103.114 227.001 103.114C238.173 103.114 244.772 98.3081 244.772 90.1477C244.728 82.9728 240.697 79.2635 231.551 77.9348Z" fill="white"/>
</g>
<defs>
<clipPath id="clip0">
<rect width="640" height="70" fill="white" transform="translate(0 210)"/>
</clipPath>
<clipPath id="clip1">
<rect width="175" height="175" fill="white" transform="translate(103 2)"/>
</clipPath>
</defs>
</svg>
