<svg width="640" height="280" viewBox="0 0 640 280" fill="none" xmlns="http://www.w3.org/2000/svg">
<g clip-path="url(#clip0)">
<path d="M67.0663 261.427C74.5779 261.427 79.9535 256.123 79.9535 248.54C79.9535 240.957 74.5779 235.653 67.0663 235.653C59.5547 235.653 54.1791 240.957 54.1791 248.54C54.1791 256.123 59.5547 261.427 67.0663 261.427ZM67.0663 256.016C63.1503 256.016 60.2311 253.061 60.2311 248.54C60.2311 244.019 63.1503 241.064 67.0663 241.064C70.9823 241.064 73.9015 244.019 73.9015 248.54C73.9015 253.061 70.9823 256.016 67.0663 256.016ZM89.0735 261V252.242H97.6175L98.2939 247.187H89.0735V241.349H101.605L100.715 236.08H83.1639V261H89.0735ZM110.906 261V252.242H119.45L120.127 247.187H110.906V241.349H123.438L122.548 236.08H104.997V261H110.906ZM132.739 261V236.08H126.83V261H132.739ZM149.12 261.427C153.712 261.427 157.415 259.469 159.729 256.408L156.525 251.708C154.424 254.485 152.181 256.016 149.12 256.016C145.524 256.016 142 253.31 142 248.54C142 243.77 145.631 241.064 149.155 241.064C152.146 241.064 154.282 242.559 156.275 245.3L159.764 240.352C157.379 237.468 153.463 235.653 149.12 235.653C142.854 235.653 135.948 239.498 135.948 248.54C135.948 257.582 142.854 261.427 149.12 261.427ZM168.965 261V236.08H163.055V261H168.965ZM197.094 261L188.087 236.08H180.753L171.746 261H178.226L179.828 256.158H189.012L190.614 261H197.094ZM184.42 242.417L187.232 250.89H181.608L184.42 242.417ZM216.925 261L217.815 255.731H205.782V236.08H199.872V261H216.925ZM234.533 261V253.168H239.019C245.213 253.168 248.453 249.537 248.453 244.624C248.453 239.711 245.213 236.08 239.019 236.08H228.623V261H234.533ZM234.533 241.349H238.663C240.763 241.349 242.401 242.346 242.401 244.624C242.401 246.902 240.763 247.899 238.663 247.899H234.533V241.349ZM257.93 261V252.741H260.529L266.51 261H273.309L266.723 252.064C269.963 250.783 271.85 248.291 271.85 244.41C271.85 239.391 268.859 236.08 262.985 236.08H252.021V261H257.93ZM257.93 241.349H262.416C264.552 241.349 265.798 242.452 265.798 244.41C265.798 246.368 264.552 247.472 262.416 247.472H257.93V241.349ZM281.814 261V236.08H275.905V261H281.814ZM291.929 261V245.087L300.331 261H307.842V236.08H302.004V252.812L293.318 236.08H286.091V261H291.929ZM324.234 261.427C328.827 261.427 332.529 259.469 334.843 256.408L331.639 251.708C329.539 254.485 327.296 256.016 324.234 256.016C320.639 256.016 317.114 253.31 317.114 248.54C317.114 243.77 320.746 241.064 324.27 241.064C327.26 241.064 329.396 242.559 331.39 245.3L334.879 240.352C332.494 237.468 328.578 235.653 324.234 235.653C317.969 235.653 311.062 239.498 311.062 248.54C311.062 257.582 317.969 261.427 324.234 261.427ZM344.079 261V236.08H338.17V261H344.079ZM354.266 261V253.168H358.751C364.946 253.168 368.185 249.537 368.185 244.624C368.185 239.711 364.946 236.08 358.751 236.08H348.356V261H354.266ZM354.266 241.349H358.395C360.496 241.349 362.133 242.346 362.133 244.624C362.133 246.902 360.496 247.899 358.395 247.899H354.266V241.349ZM392.198 261L383.192 236.08H375.858L366.851 261H373.33L374.932 256.158H384.117L385.719 261H392.198ZM379.525 242.417L382.337 250.89H376.712L379.525 242.417ZM412.029 261L412.919 255.731H400.886V236.08H394.977V261H412.029ZM429.638 261V253.168H434.123C440.318 253.168 443.557 249.537 443.557 244.624C443.557 239.711 440.318 236.08 434.123 236.08H423.728V261H429.638ZM429.638 241.349H433.767C435.868 241.349 437.505 242.346 437.505 244.624C437.505 246.902 435.868 247.899 433.767 247.899H429.638V241.349ZM467.57 261L458.563 236.08H451.23L442.223 261H448.702L450.304 256.158H459.489L461.091 261H467.57ZM454.897 242.417L457.709 250.89H452.084L454.897 242.417ZM476.258 261V252.741H478.857L484.838 261H491.638L485.052 252.064C488.291 250.783 490.178 248.291 490.178 244.41C490.178 239.391 487.188 236.08 481.314 236.08H470.349V261H476.258ZM476.258 241.349H480.744C482.88 241.349 484.126 242.452 484.126 244.41C484.126 246.368 482.88 247.472 480.744 247.472H476.258V241.349ZM506.353 261V241.349H514.541L513.651 236.08H493.146L492.256 241.349H500.444V261H506.353ZM523.364 261V245.087L531.766 261H539.277V236.08H533.439V252.812L524.752 236.08H517.526V261H523.364ZM561.151 261L562.041 255.731H549.475V250.818H556.808L557.485 245.763H549.475V241.349H561.472L560.582 236.08H543.565V261H561.151ZM571.238 261V252.741H573.837L579.818 261H586.617L580.031 252.064C583.271 250.783 585.158 248.291 585.158 244.41C585.158 239.391 582.167 236.08 576.293 236.08H565.328V261H571.238ZM571.238 241.349H575.724C577.86 241.349 579.106 242.452 579.106 244.41C579.106 246.368 577.86 247.472 575.724 247.472H571.238V241.349Z" fill="#164194"/>
</g>
<path d="M446.944 179.173C464.757 179.173 482.17 173.918 496.98 164.072C511.791 154.227 523.333 140.233 530.148 123.861C536.963 107.489 538.745 89.4746 535.267 72.0956C531.789 54.7165 523.208 38.7538 510.61 26.2264C498.012 13.699 481.962 5.16959 464.491 1.71699C447.02 -1.73561 428.911 0.043679 412.456 6.82983C396.002 13.616 381.939 25.1041 372.048 39.8413C362.157 54.5785 356.882 71.9026 356.889 89.6227C356.889 101.386 359.219 113.033 363.745 123.9C368.271 134.767 374.905 144.641 383.268 152.957C391.631 161.273 401.559 167.868 412.485 172.366C423.41 176.865 435.12 179.177 446.944 179.173Z" fill="white"/>
<path d="M446.944 175.974C464.121 175.974 480.912 170.907 495.194 161.413C509.476 151.919 520.606 138.425 527.178 122.637C533.75 106.85 535.467 89.4781 532.113 72.7195C528.76 55.9609 520.485 40.5681 508.337 28.4879C496.188 16.4078 480.711 8.18297 463.864 4.85377C447.016 1.52458 429.554 3.24054 413.687 9.78462C397.819 16.3287 384.259 27.4069 374.721 41.6182C365.184 55.8294 360.097 72.5352 360.104 89.6227C360.104 100.966 362.35 112.197 366.715 122.676C371.08 133.156 377.477 142.676 385.541 150.695C393.606 158.714 403.179 165.074 413.715 169.412C424.251 173.749 435.542 175.979 446.944 175.974Z" fill="#164194"/>
<path d="M446.945 170.414C463.01 170.385 478.706 165.619 492.049 156.719C505.392 147.818 515.784 135.183 521.91 120.409C528.036 105.635 529.622 89.3857 526.468 73.7153C523.313 58.0449 515.559 43.6564 504.187 32.3685C492.814 21.0806 478.333 13.3998 462.574 10.2969C446.814 7.19401 430.484 8.80832 415.646 14.9358C400.809 21.0632 388.13 31.4288 379.213 44.7225C370.296 58.0161 365.541 73.6411 365.548 89.6226C365.548 100.248 367.655 110.768 371.747 120.582C375.84 130.396 381.839 139.31 389.399 146.815C396.96 154.32 405.935 160.267 415.809 164.316C425.684 168.366 436.264 170.438 446.945 170.414Z" fill="white"/>
<path d="M367.594 89.6232C367.589 79.2557 369.638 68.9888 373.624 59.4095C377.61 49.8301 383.455 41.1262 390.824 33.7952C398.194 26.4642 406.943 20.6499 416.573 16.6846C426.202 12.7193 436.523 10.6808 446.945 10.6856C457.367 10.6808 467.687 12.7193 477.317 16.6846C486.946 20.6499 495.696 26.4642 503.065 33.7952C510.434 41.1262 516.279 49.8301 520.265 59.4095C524.251 68.9888 526.301 79.2557 526.296 89.6232C526.296 99.9878 524.243 110.251 520.255 119.826C516.267 129.401 510.421 138.101 503.052 145.428C495.683 152.755 486.935 158.566 477.308 162.529C467.681 166.492 457.364 168.529 446.945 168.525V167.58C457.238 167.59 467.432 165.579 476.942 161.663C486.453 157.746 495.092 152.001 502.366 144.756C509.649 137.52 515.424 128.925 519.361 119.464C523.298 110.004 525.32 99.8627 525.309 89.6232C525.326 79.3829 523.307 69.2403 519.37 59.7786C515.432 50.317 509.654 41.7229 502.366 34.4904C495.099 27.2342 486.461 21.479 476.95 17.5558C467.438 13.6326 457.241 11.6189 446.945 11.6305C436.647 11.6129 426.448 13.6239 416.936 17.5474C407.424 21.471 398.787 27.2294 391.523 34.4904C384.224 41.7163 378.436 50.3083 374.492 59.771C370.548 69.2336 368.526 79.3795 368.544 89.6232C368.532 99.8661 370.556 110.01 374.5 119.472C378.444 128.934 384.229 137.527 391.523 144.756C398.794 152.006 407.433 157.754 416.944 161.671C426.455 165.588 436.651 167.596 446.945 167.58V168.525C436.526 168.529 426.208 166.492 416.581 162.529C406.954 158.566 398.206 152.755 390.837 145.428C383.468 138.101 377.623 129.401 373.635 119.826C369.646 110.251 367.594 99.9878 367.594 89.6232Z" fill="#164194"/>
<path d="M446.945 145.664C458.087 145.664 468.978 142.377 478.243 136.219C487.507 130.061 494.727 121.309 498.991 111.069C503.255 100.828 504.371 89.5603 502.197 78.6893C500.023 67.8184 494.658 57.8328 486.779 49.9952C478.901 42.1577 468.863 36.8203 457.935 34.6579C447.007 32.4955 435.68 33.6053 425.386 37.847C415.092 42.0886 406.294 49.2716 400.104 58.4875C393.914 67.7035 390.61 78.5385 390.61 89.6225C390.61 104.486 396.545 118.74 407.11 129.25C412.341 134.454 418.551 138.582 425.386 141.398C432.221 144.214 439.547 145.664 446.945 145.664Z" fill="white"/>
<path d="M445.447 37.6885C444.278 44.0122 436.606 44.0122 432.368 47.3921C430.102 49.1824 428.559 51.7236 428.02 54.5518C424.002 52.5166 420.093 49.5001 415.928 47.8646C424.379 41.3657 434.765 37.8495 445.447 37.8702" fill="#164194"/>
<path d="M476.975 46.9197L466.819 53.5705C465.65 46.3018 457.612 44.2303 452.205 41.977C451.109 40.814 449.465 39.3239 450.086 37.6885C459.803 38.1128 469.191 41.3182 477.121 46.9197" fill="#164194"/>
<path d="M450.598 43.6486C455.785 46.4106 463.969 47.2829 465.211 54.806C464.955 55.5692 464.006 55.8962 463.531 56.296C463.056 46.556 451.548 48.4459 447.858 41.0682C443.985 48.5186 431.6 47.1012 431.746 57.3863C430.906 56.9865 429.299 56.0416 430.175 54.5515C432.294 46.338 442.158 46.8831 446.908 41.2135L447.602 38.2334C447.951 40.3253 449.008 42.2359 450.598 43.6486Z" fill="#164194"/>
<path d="M447.894 46.8462C447.894 47.0643 447.894 47.464 447.894 47.6094C447.894 47.7548 447.493 47.3187 447.237 47.2096C446.981 47.1006 447.894 46.0466 448.041 46.8462" fill="#164194"/>
<path d="M449.938 48.7003C449.938 49.0274 449.938 49.2818 449.648 49.4999H449.575V48.3369C449.902 48.3369 449.974 48.555 450.12 48.7003" fill="#164194"/>
<path d="M445.919 48.7001C445.919 48.9545 445.919 49.3542 445.919 49.4996H445.52V48.5547C445.52 48.5547 445.991 48.5547 446.064 48.5547" fill="#164194"/>
<path d="M410.448 61.3478C405.479 64.1826 404.091 71.9964 397.771 71.3422C400.627 63.5599 405.43 56.6303 411.726 51.208C410.261 54.3763 409.814 57.9175 410.448 61.3478Z" fill="#164194"/>
<path d="M448.442 57.2047H446.177L447.748 51.5352C447.693 53.4489 447.927 55.3601 448.442 57.2047Z" fill="#164194"/>
<path d="M495.388 70.2156C489.945 69.8159 488.081 63.2377 483.295 60.8027C484.116 58.2464 484.377 55.545 484.063 52.8799C489.145 57.7013 493.023 63.6379 495.388 70.2156Z" fill="#164194"/>
<path d="M496.155 71.8507V72.1051C488.593 77.1931 496.484 88.6413 488.301 93.3659C485.784 94.7043 482.91 95.2254 480.081 94.856C480.556 93.0388 483.478 93.7657 485.049 92.8208C494.511 89.986 489.762 78.7559 494.438 72.7229C489.762 71.5599 486.109 67.5258 482.455 64.582L482.674 63.2373C487.022 66.2901 490.273 72.4322 496.082 71.8507" fill="#164194"/>
<path d="M411.945 64.3277C408.292 68.3255 404.639 72.723 399.633 73.7407C400.181 75.2307 401.533 76.3937 402.081 77.9201C403.725 84.2802 403.908 93.039 412.091 94.8561C413.26 95.3286 414.868 94.6017 415.745 95.8011C413.886 96.227 411.951 96.1912 410.109 95.6968C408.268 95.2024 406.577 94.2646 405.187 92.9663C399.524 87.4784 405.187 76.9752 396.82 73.0501C403.689 74.5402 406.356 66.363 411.178 63.3828L411.982 64.3277H411.945Z" fill="#164194"/>
<path d="M484.792 72.2505C484.792 72.5049 484.792 72.8683 484.792 73.05H484.538V71.8507C484.593 71.8361 484.651 71.8362 484.706 71.8511C484.761 71.866 484.812 71.8952 484.852 71.9356C484.892 71.9761 484.922 72.0265 484.936 72.0817C484.951 72.137 484.952 72.1951 484.937 72.2505" fill="#164194"/>
<path d="M410.995 73.0497C410.995 73.0497 410.995 73.2677 410.995 73.3404C410.995 73.4131 410.411 73.3404 410.191 73.0497C409.936 72.1774 411.361 72.1774 411.141 73.0497" fill="#164194"/>
<path d="M483.076 74.6856C483.076 74.6856 482.82 75.1581 482.528 75.0854C482.416 75.0441 482.32 74.9697 482.252 74.8723C482.183 74.7748 482.147 74.659 482.147 74.5403C482.147 74.4216 482.183 74.3057 482.252 74.2083C482.32 74.1108 482.416 74.0364 482.528 73.9951C483.003 73.9951 482.93 74.4312 483.076 74.6856Z" fill="#164194"/>
<path d="M486.839 73.9946C486.839 74.2854 486.839 74.6852 486.839 74.9032C486.839 75.1213 486.437 74.6125 486.291 74.5398C486.145 74.4671 486.291 73.8129 486.985 73.9946" fill="#164194"/>
<path d="M413.041 74.9038C413.041 74.9038 412.822 75.3036 412.493 75.2309L412.091 74.9038L412.712 74.1406C412.968 74.3587 412.968 74.6131 413.041 74.9038Z" fill="#164194"/>
<path d="M484.063 126.366L480.409 129.673C479.386 122.004 488.374 117.134 486.218 108.812C485.376 106.621 484.059 104.641 482.361 103.014C480.662 101.387 478.624 100.153 476.391 99.3989C476.391 93.9837 482.273 97.9088 485.122 96.7458C486.938 96.4639 488.658 95.7522 490.14 94.6707C491.621 93.5891 492.82 92.1695 493.634 90.5311C496.63 85.4431 492.429 78.6105 496.849 74.0312C499.743 83.0882 500.073 92.7628 497.805 101.994C495.537 111.226 490.757 119.658 483.99 126.366" fill="#164194"/>
<path d="M409.093 74.9035C409.093 75.2306 409.093 75.4123 408.694 75.6303V74.54C408.912 74.54 409.093 74.7581 409.238 74.9035" fill="#164194"/>
<path d="M402.081 92.0213C403.012 93.6124 404.278 94.9849 405.791 96.0449C407.304 97.1049 409.03 97.8275 410.849 98.1633C413.169 98.2142 415.489 98.0927 417.791 97.7999L418.412 99.29C416.19 99.9872 414.159 101.182 412.474 102.782C410.79 104.382 409.496 106.346 408.694 108.521C406.721 116.698 414.137 121.932 415.562 129.237L414.978 131.09C407.06 125.076 401.027 116.943 397.586 107.643C394.144 98.343 393.435 88.2603 395.542 78.5743L396.601 75.1943C403.36 78.0291 398.537 87.0423 401.899 92.1303" fill="#164194"/>
<path d="M486.108 84.0982C485.012 83.6985 484.757 85.0432 484.355 85.5883C484.136 85.1159 484.136 84.498 483.661 84.0982L482.455 84.3526L484.72 77.084C484.886 79.4706 485.353 81.8271 486.108 84.0982Z" fill="#164194"/>
<path d="M412.713 84.4983C411.69 84.2802 411.288 85.1161 410.996 85.843V86.2064C410.74 85.4432 410.119 83.7714 408.95 84.6437C409.757 82.2573 410.439 79.8312 410.996 77.375C411.036 79.7995 411.623 82.184 412.713 84.3529" fill="#164194"/>
<path d="M419.362 102.233V102.924C416.183 104.414 412.493 107.176 412.493 111.028C412.018 118.297 418.887 122.15 418.156 129.2C419.252 130.072 420.275 128.51 421.554 128.655C425.718 128.364 437.555 129.6 440.332 126.22C441.026 126.22 441.501 126.474 442.049 126.801C441.426 127.947 440.524 128.92 439.427 129.631C438.329 130.342 437.071 130.768 435.765 130.872C429.299 131.49 421.882 126.075 416.658 131.962C420.604 122.804 407.05 116.843 411.543 107.103C412.277 105.631 413.302 104.321 414.558 103.252C415.813 102.184 417.274 101.38 418.85 100.889L419.252 102.088L419.362 102.233Z" fill="#164194"/>
<path d="M484.245 109.902C485.195 118.007 475.733 122.368 478.327 130.472C470.363 125.929 460.06 136.832 453.192 127.419C453.192 126.765 453.886 126.293 454.361 126.075C455.786 126.474 456.261 127.783 457.503 128.582C463.677 132.98 470.217 127.238 476.829 128.909C477.231 128.11 476.829 126.547 477.231 125.53C479.752 119.787 485.999 112.519 480.081 106.304C478.528 104.975 476.728 103.962 474.783 103.324C474.235 102.452 475.112 101.834 475.331 101.034C478.985 102.379 483.844 105.613 484.245 109.902Z" fill="#164194"/>
<path d="M469.266 111.392C468.791 111.647 468.791 111.102 468.572 110.847C468.353 110.593 468.791 110.084 469.266 110.302V111.392Z" fill="#164194"/>
<path d="M427.07 110.848C427.07 111.102 427.07 111.502 427.07 111.647C427.07 111.792 426.669 111.32 426.449 111.247C426.047 110.557 427.217 110.157 427.217 110.848" fill="#164194"/>
<path d="M471.491 113.137C471.273 113.137 471.201 113.137 471.092 113.137C470.983 113.137 470.656 112.047 471.092 112.047C471.527 112.047 471.092 112.665 471.31 112.992" fill="#164194"/>
<path d="M429.114 112.882C429.158 112.94 429.182 113.01 429.182 113.082C429.182 113.155 429.158 113.225 429.114 113.282H428.714V112.337C429.259 112.119 429.114 112.737 429.259 112.882" fill="#164194"/>
<path d="M425.17 112.882C425.17 113.21 425.17 113.537 425.17 113.682C425.17 113.827 424.769 113.464 424.549 113.282C424.33 113.101 425.317 112.119 425.317 112.882" fill="#164194"/>
<path d="M467.363 113.537H466.819V112.592H467.363V113.537Z" fill="#164194"/>
<path d="M428.422 122.549C427.618 122.004 426.778 123.312 426.668 123.894C426.648 123.678 426.581 123.47 426.473 123.281C426.365 123.093 426.218 122.93 426.042 122.803C425.866 122.676 425.664 122.588 425.451 122.544C425.238 122.5 425.018 122.502 424.805 122.549C425.823 120.328 426.536 117.981 426.924 115.571C427.198 117.94 427.699 120.276 428.422 122.549Z" fill="#164194"/>
<path d="M470.764 122.695C470.764 122.368 470.289 122.695 470.07 122.695L469.12 124.185C469.034 123.611 468.75 123.085 468.317 122.695H467.367L469.266 115.427C469.641 117.873 470.141 120.299 470.764 122.695Z" fill="#164194"/>
<path d="M461.923 133.453C467.147 133.744 471.787 130.11 476.829 132.435C469.226 137.612 460.405 140.745 451.225 141.528C442.046 142.311 432.818 140.719 424.44 136.906L418.375 133.271C419.046 132.548 419.868 131.978 420.783 131.602C421.697 131.225 422.683 131.051 423.672 131.091C430.139 132.108 439.601 135.416 444.095 128.292C445.224 128.733 446.435 128.926 447.646 128.857C448.857 128.788 450.038 128.459 451.109 127.893C452.305 129.67 453.942 131.11 455.863 132.072C457.783 133.034 459.922 133.484 462.069 133.38" fill="#164194"/>
<path d="M492.21 103.179C488.828 103.497 485.45 102.536 482.748 100.489C482.748 99.4715 483.624 99.0717 484.392 98.999C487.412 99.4311 490.181 100.912 492.21 103.179Z" fill="white"/>
<path d="M410.593 100.889C410.593 102.851 408.474 103.07 407.196 103.724C405.531 104.174 403.804 104.358 402.081 104.269C403.049 103.05 404.281 102.063 405.685 101.384C407.089 100.704 408.63 100.349 410.191 100.344L410.593 100.889Z" fill="white"/>
<path d="M449.575 130.473C449.546 132.837 449.088 135.176 448.223 137.378C447.602 135.016 445.483 131.345 447.931 129.128C448.315 129.142 448.684 129.281 448.981 129.524C449.278 129.767 449.487 130.1 449.575 130.473Z" fill="white"/>
<path d="M383.815 107.794C383.96 108.435 384.233 109.041 384.618 109.575L382.426 108.848C382.139 108.77 381.88 108.612 381.68 108.394C381.479 108.175 381.346 107.904 381.294 107.613L380.161 102.343L376.91 103.106C376.426 103.154 375.969 103.347 375.597 103.658C375.226 103.969 374.957 104.385 374.827 104.85L373.476 99.1445C374.024 99.8714 374.864 100.017 376.106 99.726L385.166 97.6181C386.408 97.3273 387.066 96.8185 387.249 95.9463L390.171 109.066C389.97 109 389.752 109 389.55 109.066C389.295 109.066 388.418 109.72 386.774 110.593C387.286 108.873 387.286 107.042 386.774 105.323L385.787 101.143L382.353 101.798L383.815 107.794Z" fill="#164194"/>
<path d="M389.587 123.385C390.163 123.174 390.684 122.838 391.114 122.402C391.545 121.967 391.873 121.442 392.075 120.865C392.278 120.289 392.349 119.675 392.286 119.068C392.222 118.46 392.024 117.875 391.706 117.352C391.447 116.736 391.055 116.184 390.556 115.737C390.057 115.29 389.464 114.958 388.821 114.767C388.178 114.576 387.5 114.529 386.836 114.63C386.172 114.732 385.539 114.979 384.983 115.353C384.415 115.568 383.901 115.906 383.479 116.341C383.057 116.777 382.736 117.299 382.541 117.872C382.345 118.445 382.28 119.054 382.348 119.655C382.417 120.257 382.618 120.835 382.938 121.35C383.189 121.963 383.574 122.513 384.065 122.96C384.556 123.408 385.141 123.74 385.777 123.935C386.414 124.13 387.085 124.182 387.744 124.087C388.403 123.991 389.032 123.752 389.587 123.385ZM380.709 122.695C380.117 121.842 379.714 120.872 379.53 119.852C379.345 118.831 379.382 117.783 379.638 116.778C379.894 115.773 380.363 114.834 381.014 114.024C381.665 113.214 382.483 112.552 383.413 112.082C384.343 111.56 385.377 111.248 386.442 111.166C387.507 111.084 388.576 111.236 389.576 111.61C390.576 111.984 391.481 112.572 392.227 113.332C392.974 114.092 393.544 115.005 393.898 116.008C394.507 116.868 394.921 117.851 395.112 118.886C395.302 119.922 395.264 120.987 395 122.006C394.735 123.026 394.252 123.976 393.582 124.792C392.913 125.607 392.073 126.268 391.121 126.729C390.188 127.229 389.157 127.521 388.099 127.585C387.041 127.649 385.982 127.484 384.995 127.1C384.008 126.716 383.117 126.123 382.383 125.363C381.649 124.602 381.09 123.692 380.746 122.695H380.709Z" fill="#164194"/>
<path d="M400.656 137.196C401.152 136.843 401.563 136.387 401.86 135.858C402.157 135.329 402.333 134.741 402.375 134.137C402.417 133.532 402.324 132.926 402.102 132.362C401.881 131.797 401.537 131.288 401.095 130.872C400.691 130.338 400.172 129.903 399.575 129.597C398.979 129.291 398.321 129.123 397.65 129.105C396.979 129.088 396.313 129.221 395.701 129.496C395.089 129.77 394.548 130.179 394.117 130.69C393.618 131.041 393.205 131.499 392.907 132.029C392.609 132.56 392.435 133.15 392.396 133.757C392.358 134.363 392.456 134.97 392.684 135.534C392.912 136.098 393.265 136.603 393.715 137.014C394.12 137.537 394.637 137.965 395.228 138.266C395.819 138.567 396.47 138.734 397.134 138.755C397.798 138.776 398.458 138.65 399.067 138.387C399.676 138.123 400.219 137.729 400.656 137.232V137.196ZM391.888 138.867C388.235 134.942 388.418 130.872 391.706 127.964C392.466 127.213 393.383 126.638 394.392 126.279C395.401 125.919 396.477 125.785 397.543 125.886C398.61 125.987 399.642 126.319 400.565 126.861C401.488 127.402 402.28 128.139 402.885 129.018C403.662 129.701 404.285 130.539 404.711 131.479C405.138 132.419 405.359 133.439 405.359 134.47C405.359 135.501 405.138 136.521 404.711 137.461C404.285 138.4 403.662 139.239 402.885 139.921C402.119 140.628 401.21 141.164 400.219 141.492C399.228 141.82 398.177 141.932 397.139 141.822C396.1 141.712 395.097 141.381 394.198 140.853C393.298 140.324 392.523 139.61 391.925 138.758L391.888 138.867Z" fill="#164194"/>
<path d="M405.515 148.172L405.917 147.518L411.069 139.886L410.484 139.486C409.048 138.395 407.319 137.75 405.515 137.633C406.904 136.433 407.781 135.852 407.927 135.597C407.989 135.396 407.989 135.181 407.927 134.979L419.508 142.684C419.301 142.744 419.12 142.872 418.996 143.048C418.996 143.266 418.631 144.283 418.046 146.064C417.234 144.443 415.964 143.092 414.393 142.175L413.955 141.776L408.803 149.408C408.499 149.794 408.31 150.259 408.259 150.747C408.207 151.236 408.294 151.729 408.511 152.17L403.616 149.044C403.972 149.094 404.335 149.05 404.669 148.916C405.002 148.782 405.294 148.563 405.515 148.281V148.172Z" fill="#164194"/>
<path d="M425.974 151.042C427.801 151.66 428.824 151.479 429.225 150.316C429.627 149.153 428.897 148.535 427.326 147.99L423.672 146.79L422.613 149.916L425.937 151.042H425.974ZM424.988 157.075C426.851 157.693 428.02 157.402 428.422 156.203C428.824 155.004 428.02 154.204 426.12 153.586L421.882 152.133L420.713 155.767L424.988 157.221V157.075ZM417.462 154.422L420.348 145.773C420.75 144.573 420.713 143.701 420.019 143.047L427.326 145.591C431.527 147.008 433.536 148.426 432.66 151.042C432.423 151.709 431.964 152.274 431.359 152.645C430.754 153.015 430.04 153.168 429.335 153.078C431.6 154.168 432.331 155.549 431.71 157.402C430.723 160.237 428.056 160.673 423.49 159.111L415.525 156.312C416.475 156.312 417.023 155.622 417.462 154.386V154.422Z" fill="#164194"/>
<path d="M443.62 157.367L441.172 150.571L437.738 156.858L443.62 157.367ZM449.575 163.073H444.314C444.623 162.776 444.806 162.373 444.825 161.946C444.87 161.657 444.87 161.363 444.825 161.074L444.46 159.947L436.349 159.22L435.984 159.875C435.841 160.158 435.754 160.467 435.728 160.783C435.695 161.327 435.879 161.863 436.24 162.273L430.796 161.074C431.518 160.592 432.139 159.975 432.623 159.257L438.615 149.444C438.751 149.259 438.85 149.049 438.907 148.826C438.939 148.658 438.939 148.486 438.907 148.317L444.752 148.826C444.652 148.983 444.578 149.155 444.533 149.335C444.484 149.55 444.484 149.774 444.533 149.989L448.186 160.892C448.524 161.762 449.02 162.562 449.648 163.255L449.575 163.073Z" fill="#164194"/>
<path d="M448.771 149.045L454.617 148.245C454.217 148.522 453.915 148.916 453.751 149.372C453.587 149.828 453.571 150.323 453.703 150.789L454.982 159.948L458.964 159.403C460.924 159.253 462.771 158.431 464.189 157.077C463.828 158.271 463.535 159.484 463.312 160.711C463.378 160.934 463.504 161.135 463.677 161.292L450.708 163.11C451.475 162.637 451.694 161.801 451.548 160.565L450.233 151.407C450.233 150.171 449.612 149.444 448.735 149.19L448.771 149.045Z" fill="#164194"/>
<path d="M460.827 147.627L466.38 145.664C466.049 146.021 465.836 146.47 465.771 146.951C465.705 147.433 465.791 147.922 466.015 148.353L469.157 157.04L472.81 155.695C474.724 155.136 476.371 153.911 477.45 152.242C477.38 153.453 477.38 154.666 477.45 155.877C477.45 156.058 477.706 156.167 477.925 156.349L465.577 160.747C465.903 160.393 466.107 159.945 466.16 159.468C466.213 158.99 466.111 158.509 465.869 158.093L462.763 149.371C462.325 148.172 461.74 147.59 460.827 147.518V147.627Z" fill="#164194"/>
<path d="M494.584 145.773C493.707 146.391 492.611 147.772 490.931 149.044C490.192 149.748 489.307 150.281 488.337 150.605C487.368 150.928 486.338 151.035 485.323 150.917C484.307 150.799 483.33 150.459 482.462 149.922C481.593 149.384 480.855 148.663 480.3 147.808C479.653 146.937 479.203 145.937 478.981 144.876C478.759 143.816 478.77 142.72 479.013 141.664C479.256 140.608 479.725 139.617 480.388 138.758C481.052 137.899 481.894 137.193 482.857 136.687C484.83 135.27 486.51 134.761 487.277 134.216C487.499 134.065 487.696 133.881 487.862 133.671L488.848 137.305C487.28 137.313 485.756 137.823 484.501 138.759C483.95 139.087 483.474 139.525 483.102 140.045C482.73 140.565 482.471 141.156 482.34 141.781C482.21 142.406 482.211 143.052 482.344 143.676C482.477 144.301 482.739 144.891 483.113 145.41C483.423 145.983 483.861 146.478 484.394 146.857C484.927 147.235 485.54 147.487 486.186 147.592C486.832 147.697 487.493 147.654 488.12 147.464C488.746 147.275 489.32 146.945 489.798 146.5C491.333 145.341 492.582 143.849 493.452 142.139L495.644 145.228C495.309 145.33 494.989 145.477 494.694 145.664L494.584 145.773Z" fill="#164194"/>
<path d="M487.643 133.562L491.552 129.128C491.432 129.601 491.462 130.1 491.639 130.556C491.815 131.011 492.13 131.401 492.538 131.672L499.516 137.741L502.147 134.761C503.5 133.327 504.291 131.457 504.375 129.491C504.896 130.626 505.482 131.73 506.129 132.799C506.129 132.799 506.494 132.799 506.786 132.799L498.128 142.648C498.384 141.775 498.128 140.976 497.068 140.14L490.09 134.071C489.141 133.235 488.337 132.98 487.497 133.38L487.643 133.562Z" fill="#164194"/>
<path d="M512.157 124.985C509.892 129.056 507.152 130.146 503.864 128.329L498.311 125.276C497.142 124.658 496.265 124.585 495.534 125.276L498.384 120.188C498.384 121.133 498.822 121.75 499.955 122.405L505.435 125.421C505.835 125.663 506.287 125.807 506.754 125.844C507.221 125.88 507.69 125.807 508.124 125.63C508.557 125.454 508.943 125.178 509.25 124.826C509.557 124.474 509.777 124.056 509.892 123.604C510.179 123.255 510.382 122.846 510.484 122.407C510.587 121.969 510.588 121.512 510.485 121.073C510.383 120.634 510.181 120.225 509.894 119.876C509.608 119.527 509.244 119.248 508.832 119.061L503.352 116.335C502.293 115.754 501.526 115.536 500.612 116.335L503.462 111.211C503.462 112.083 503.9 112.846 505.033 113.464L510.623 116.517C513.911 118.334 514.276 121.205 512.157 125.312V124.985Z" fill="#164194"/>
<path d="M517.126 104.269C517.564 102.343 517.126 101.253 515.92 100.962C514.714 100.671 513.947 101.543 513.509 103.506L512.522 107.831L516.176 108.667L517.199 104.269H517.126ZM511.024 103.906C511.426 102.052 511.025 101.035 509.928 100.78C508.832 100.526 508.175 101.253 507.81 102.888L506.969 106.522L510.221 107.286L511.024 103.869V103.906ZM515.335 112.01L506.385 109.939C505.143 109.648 504.266 109.939 503.718 110.557L505.471 102.924C506.458 98.5996 507.7 96.4554 510.403 97.0732C511.089 97.2382 511.698 97.6304 512.129 98.1852C512.561 98.7401 512.79 99.4246 512.778 100.126C513.618 97.8001 514.934 96.9279 516.87 97.364C519.793 98.0545 520.523 100.635 519.427 105.323L517.491 113.682C517.308 112.774 516.614 112.301 515.335 112.01Z" fill="#164194"/>
<path d="M374.097 79.9922L375.375 74.2499C375.496 74.7206 375.762 75.1419 376.135 75.4548C376.508 75.7676 376.971 75.9563 377.458 75.9944L386.518 77.9933L387.468 74.1045C388.017 72.1999 387.861 70.1627 387.03 68.3623C388.016 69.1221 389.054 69.8142 390.135 70.4339C390.35 70.4945 390.578 70.4945 390.793 70.4339L387.979 83.1904C387.76 82.2818 387.103 81.773 385.86 81.5186L376.8 79.5197C376.352 79.3336 375.857 79.2931 375.384 79.4041C374.912 79.5151 374.487 79.7718 374.17 80.1375L374.097 79.9922Z" fill="#164194"/>
<path d="M389.258 67.1627L381.001 62.9469C380.604 62.6733 380.133 62.5268 379.65 62.5268C379.167 62.5268 378.695 62.6733 378.298 62.9469L385.057 49.8633C385.14 50.0477 385.281 50.2006 385.458 50.2994C386.482 50.5581 387.519 50.7643 388.564 50.9172C387.059 51.9126 385.869 53.3112 385.13 54.9513L382.572 59.9304L385.495 61.4568L388.345 55.9326C388.64 55.3558 388.814 54.7251 388.856 54.0791L390.098 56.0416C390.249 56.2945 390.329 56.5833 390.329 56.8775C390.329 57.1718 390.249 57.4605 390.098 57.7134L387.577 62.5471L390.756 64.1462L393.459 58.9128C394.48 57.2089 394.844 55.1939 394.482 53.2432C395.242 54.2228 396.072 55.1459 396.967 56.0053C397.191 56.0828 397.436 56.0828 397.661 56.0053L390.792 69.307C390.792 68.3984 390.317 67.7442 389.185 67.1627H389.258Z" fill="#164194"/>
<path d="M392.4 44.3756L399.707 50.0089C400.73 50.8084 401.57 51.0265 402.41 50.5903L398.757 55.1696C398.976 54.261 398.757 53.5342 397.551 52.7346L390.245 47.1014C389.222 46.3018 388.381 46.0838 387.578 46.5199L391.231 41.9043C390.975 42.8129 391.231 43.5761 392.4 44.3756Z" fill="#164194"/>
<path d="M411.434 41.6856C410.667 42.3761 409.717 43.8662 408.073 45.3199C407.425 46.1102 406.609 46.7472 405.683 47.1846C404.758 47.6221 403.746 47.849 402.721 47.849C401.696 47.849 400.684 47.6221 399.758 47.1846C398.832 46.7472 398.016 46.1102 397.369 45.3199C396.631 44.5261 396.073 43.5842 395.732 42.5576C395.391 41.531 395.276 40.4437 395.394 39.3689C395.512 38.2942 395.86 37.2571 396.415 36.3276C396.97 35.3981 397.718 34.5979 398.611 33.9808C399.918 32.9131 401.284 31.9182 402.703 31.0006C402.887 30.8157 403.046 30.6081 403.177 30.3828L404.639 33.7991C403.075 34.028 401.613 34.7107 400.437 35.7616C399.917 36.1664 399.489 36.6763 399.181 37.2576C398.873 37.839 398.692 38.4786 398.651 39.1345C398.61 39.7903 398.708 40.4474 398.941 41.0625C399.173 41.6776 399.534 42.2368 399.999 42.7032C400.376 43.2341 400.87 43.6721 401.443 43.9835C402.017 44.2949 402.654 44.4714 403.307 44.4995C403.959 44.5276 404.61 44.4065 405.208 44.1455C405.806 43.8845 406.336 43.4906 406.758 42.9939C408.113 41.673 409.139 40.055 409.754 38.2693L412.347 41.0677C412.006 41.1795 411.694 41.3657 411.434 41.6129V41.6856Z" fill="#164194"/>
<path d="M412.457 38.0151L408.109 29.8742C407.525 28.7476 406.831 28.2388 405.917 28.3115L419.033 21.4062C418.957 21.6053 418.957 21.825 419.033 22.0241C419.033 22.2421 419.983 22.9327 421.262 24.2774C419.478 24.2023 417.709 24.6173 416.147 25.4767L411.178 28.1298L412.713 31.0009L418.229 28.1298C418.807 27.8217 419.316 27.4015 419.727 26.8941V29.1837C419.715 29.484 419.62 29.7751 419.452 30.0252C419.285 30.2752 419.051 30.4745 418.777 30.6011L413.955 33.1451L415.635 36.2707L420.896 33.5086C422.676 32.671 424.109 31.2453 424.951 29.4745C425.022 30.6956 425.181 31.9102 425.426 33.1088C425.426 33.1088 425.682 33.3995 425.938 33.5449L412.676 40.5228C412.961 40.1319 413.115 39.6612 413.115 39.1781C413.115 38.6951 412.961 38.2244 412.676 37.8334L412.457 38.0151Z" fill="#164194"/>
<path d="M432.112 29.8381C434.413 29.2566 435.4 28.3843 435.107 27.185C434.815 25.9857 433.135 26.0584 430.321 26.3491C426.851 26.7125 424.878 25.8766 424.367 23.7687C423.855 21.6608 425.609 18.8987 429.554 17.9538C432.039 17.336 434.011 17.336 435.071 17.0816C435.266 17.027 435.451 16.9411 435.619 16.8271V20.4615C433.794 19.9274 431.854 19.9274 430.029 20.4615C428.349 20.8613 427.581 21.5881 427.801 22.4604C428.02 23.3326 429.7 23.2599 432.733 23.1145C435.765 22.9692 438.067 23.6233 438.651 25.9857C439.345 28.9295 437.299 31.2554 432.733 32.3457C430.65 32.8546 429.079 32.9272 428.203 33.109C427.955 33.1804 427.721 33.2908 427.508 33.436L425.718 29.8017C427.819 30.3089 430.011 30.3089 432.112 29.8017V29.8381Z" fill="#164194"/>
<path d="M442.999 28.6383C442.999 28.6383 442.999 28.2749 442.999 27.8388L442.597 18.6803H441.903C440.095 18.6407 438.315 19.1338 436.788 20.0977C437.19 18.2805 437.555 17.2992 437.555 17.0085C437.532 16.8039 437.442 16.6125 437.3 16.4633L451.219 15.8818C451.089 16.0494 451.012 16.252 451 16.4633C451 16.7177 451.438 17.699 452.023 19.4435C450.407 18.6397 448.598 18.2998 446.798 18.4622H445.921L446.287 27.6207C446.267 28.115 446.387 28.6049 446.632 29.0352C446.877 29.4655 447.238 29.819 447.675 30.0557L441.793 30.2738C442.112 30.1121 442.382 29.8685 442.575 29.5681C442.768 29.2678 442.876 28.9217 442.889 28.5657L442.999 28.6383Z" fill="#164194"/>
<path d="M451.876 27.5851L453.557 18.4993C453.813 17.2636 453.557 16.4278 452.826 15.9189L467.44 18.572C467.288 18.7109 467.175 18.8861 467.111 19.0808C467.111 19.3716 467.111 20.3892 467.403 22.2427C466.027 21.0795 464.337 20.3462 462.544 20.1348L456.881 19.1172L456.26 22.3517L462.398 23.4784C463.037 23.6096 463.696 23.6096 464.334 23.4784L462.8 25.2228C462.601 25.4411 462.347 25.6031 462.065 25.6924C461.783 25.7818 461.482 25.7953 461.192 25.7316L455.822 24.7504L455.201 28.3847L461.046 29.4387C462.963 29.9086 464.986 29.6764 466.746 28.7845C466.034 29.8096 465.387 30.8777 464.809 31.9827C464.749 32.1843 464.749 32.3989 464.809 32.6005L450.196 29.9111C451.073 29.7294 451.548 29.0025 451.767 27.7669L451.876 27.5851Z" fill="#164194"/>
<path d="M476.865 29.1108C478.911 30.0921 479.971 30.0921 480.519 28.711C481.067 27.33 480.519 26.5668 478.473 25.5855L475.148 24.0954L473.431 27.7298L476.829 29.3652L476.865 29.1108ZM471.166 35.1074L465.905 32.7451C466.819 32.7451 467.476 32.2 468.024 31.037L472.079 22.7871C472.359 22.394 472.51 21.9241 472.51 21.4424C472.51 20.9606 472.359 20.4907 472.079 20.0977L479.569 23.732C480.876 24.2985 482.104 25.0315 483.222 25.9126C483.841 26.4926 484.248 27.2607 484.381 28.0961C484.513 28.9316 484.362 29.7871 483.953 30.5282C483.447 31.3838 482.644 32.0259 481.695 32.3338C480.747 32.6417 479.717 32.5941 478.802 32.2C479.522 33.1051 479.943 34.2094 480.007 35.3618C480.008 36.9677 480.357 38.5544 481.03 40.0138L475.587 37.3607C475.742 37.3298 475.888 37.2648 476.014 37.1705C476.141 37.0762 476.244 36.9549 476.317 36.8156C476.655 35.776 476.655 34.6569 476.317 33.6174C476.189 32.9681 475.907 32.3587 475.494 31.8402C475.081 31.3218 474.549 30.9093 473.943 30.6372L472.445 29.9104L471.203 32.5271C470.914 32.9236 470.759 33.4006 470.759 33.8899C470.759 34.3793 470.914 34.8562 471.203 35.2528L471.166 35.1074Z" fill="#164194"/>
<path d="M493.086 50.9167C492.319 50.1898 490.785 49.3539 489.214 47.7912C488.386 47.1937 487.703 46.421 487.212 45.5286C486.721 44.6363 486.436 43.6468 486.376 42.6314C486.317 41.616 486.485 40.6002 486.868 39.6572C487.252 38.7143 487.841 37.8678 488.593 37.1789C489.35 36.3991 490.266 35.7903 491.28 35.3939C492.294 34.9974 493.382 34.8226 494.47 34.8812C495.558 34.9398 496.621 35.2305 497.586 35.7335C498.551 36.2366 499.396 36.9402 500.064 37.7968C501.781 39.4685 502.585 41.0676 503.243 41.6855C503.442 41.8685 503.663 42.0271 503.9 42.1579L500.539 43.7571C500.244 42.2198 499.478 40.8109 498.347 39.7229C497.912 39.2288 497.375 38.8328 496.773 38.5615C496.172 38.2903 495.519 38.1499 494.858 38.1499C494.198 38.1499 493.545 38.2903 492.943 38.5615C492.341 38.8328 491.805 39.2288 491.369 39.7229C490.847 40.1198 490.423 40.6312 490.132 41.2174C489.84 41.8036 489.688 42.4489 489.688 43.1029C489.688 43.7569 489.84 44.4021 490.132 44.9883C490.423 45.5745 490.847 46.086 491.369 46.4828C492.767 47.7562 494.443 48.6893 496.265 49.2085L493.598 51.898C493.451 51.5781 493.253 51.2837 493.013 51.0257L493.086 50.9167Z" fill="#164194"/>
<path d="M506.531 50.2263L499.005 55.4597C497.945 56.1866 497.507 56.9134 497.69 57.822L494.329 53.061C495.132 53.5335 495.936 53.3518 497.032 52.6249L504.558 47.2824C505.618 46.5192 506.056 45.8287 505.873 44.8838L509.234 49.6811C508.431 49.2086 507.59 49.354 506.531 50.1172V50.2263Z" fill="#164194"/>
<path d="M501.672 61.5296L502.366 61.2025L510.732 57.2411L510.403 56.6232C509.73 54.9666 508.588 53.5399 507.115 52.5164C508.906 52.153 509.965 52.1166 510.257 51.9713C510.426 51.8616 510.564 51.7116 510.659 51.5352L516.651 64.0736C516.451 63.9982 516.23 63.9982 516.03 64.0736C515.774 64.0736 515.08 64.9822 513.655 66.1815C513.785 64.3887 513.391 62.5968 512.522 61.0208L512.194 60.3666L503.864 64.328C503.398 64.4852 502.99 64.7764 502.691 65.1645C502.392 65.5527 502.215 66.0205 502.183 66.5086L499.663 61.2388C499.933 61.4754 500.267 61.6288 500.624 61.6804C500.981 61.732 501.345 61.6796 501.672 61.5296Z" fill="#164194"/>
<path d="M519.172 78.2107C519.537 78.2107 519.72 77.9199 519.902 77.5202L521.071 83.008C520.025 82.3587 518.925 81.7994 517.783 81.3362L510.477 77.7019L508.321 78.138C507.042 78.3924 506.312 78.9739 506.166 79.8461L504.96 74.1039C505.544 74.9034 506.348 75.0125 507.59 74.7581L509.709 74.3219L515.701 67.9619C516.547 67.2495 517.179 66.3189 517.528 65.2725L518.806 71.3055C518.699 71.1615 518.553 71.0509 518.384 70.9865C518.216 70.9222 518.033 70.9067 517.856 70.942C517.386 71.067 516.973 71.3493 516.687 71.7416L513.034 75.6666L518.258 77.8836C518.633 78.0625 519.053 78.1258 519.464 78.0653L519.172 78.2107Z" fill="#164194"/>
<path d="M478.51 66.5448V66.3631V66.036C478.547 63.8458 479.019 61.6844 479.898 59.6759C480.379 58.8375 480.662 57.901 480.725 56.9376C480.789 55.9742 480.631 55.0091 480.263 54.1154C480.252 53.9581 480.252 53.8002 480.263 53.643C480.051 52.9035 479.77 52.1856 479.423 51.4987L479.058 50.8809H478.4C472.022 53.0169 466.402 56.9422 462.216 62.1836L460.206 63.7101C460.223 63.6017 460.223 63.4913 460.206 63.383C460.105 62.9906 459.904 62.6307 459.622 62.3379C459.341 62.0451 458.988 61.8293 458.599 61.7112C454.793 60.4573 450.807 59.8311 446.798 59.8577C442.443 59.8062 438.125 60.6604 434.121 62.3653L433.281 62.7651L433.537 63.2376C428.386 58.84 418.704 50.9535 415.964 50.9535H415.453L415.233 51.2443C414.859 51.7761 414.575 52.3654 414.393 52.9888L414.174 53.2432C413.261 54.1518 413.005 55.2057 414.174 58.3676C415.134 60.6853 415.726 63.1376 415.928 65.6362C416.23 67.5691 416.795 69.452 417.608 71.2331C417.827 72.1417 419.362 78.5018 420.092 80.1009C420.362 80.5854 420.433 81.1549 420.29 81.69C420.147 82.2252 419.801 82.6846 419.325 82.972H419.106C418.373 83.3331 417.725 83.8431 417.202 84.4691C416.68 85.0951 416.295 85.8232 416.074 86.6063C416.026 87.353 416.149 88.1008 416.434 88.7933C416.718 89.4858 417.157 90.105 417.718 90.6041C417.961 91.0849 418.169 91.5829 418.339 92.0942C417.864 92.8574 418.339 93.2935 418.814 93.766L419.069 94.0204C419.506 94.4314 419.983 94.7968 420.494 95.1107C421.002 95.3976 421.449 95.7803 421.809 96.2373C421.98 96.4379 422.128 96.6574 422.248 96.8915C422.567 97.5462 423.076 98.0906 423.709 98.4543V99.3992C423.587 100.606 423.849 101.82 424.459 102.87C425.068 103.921 425.995 104.753 427.107 105.25L429.262 106.195C430.578 106.777 430.578 106.777 431.016 107.54C431.974 109.39 433.319 111.013 434.962 112.301C436.105 113.159 437.051 114.249 437.738 115.499L439.126 115.899C439.212 115.812 439.286 115.715 439.346 115.608C438.894 116.597 438.61 117.653 438.505 118.734C438.505 120.006 439.017 122.913 443.657 123.64L444.899 124.512L446.433 125.821H446.652H447.858L448.954 125.566H449.246L449.429 125.348L450.123 124.476L450.708 123.749C451.954 123.64 453.138 123.159 454.105 122.368C455.073 121.351 455.753 120.097 456.078 118.734C456.078 118.479 456.078 117.28 455.822 116.59L455.311 115.245C455.468 115.486 455.603 115.742 455.713 116.008L456.224 117.535L457.211 116.299L459.476 113.537L461.668 111.465C462.257 110.868 462.728 110.165 463.056 109.394L463.312 108.848C464.879 107.424 466.623 106.202 468.499 105.214C469.564 104.681 470.435 103.831 470.992 102.782C471.548 101.733 471.763 100.538 471.605 99.3629V98.9994L471.495 98.5633C471.756 97.9769 471.963 97.3688 472.116 96.7461C473.81 95.7653 475.349 94.5406 476.683 93.1118L477.012 92.712V92.2396C477.012 92.2396 476.427 90.7495 478.071 88.7869C479.715 86.8244 479.861 86.3519 479.569 85.6978C479.504 85.5388 479.4 85.3987 479.265 85.2907C479.131 85.1827 478.972 85.1102 478.802 85.0799C477.464 84.2379 476.309 83.1381 475.404 81.8454C475.42 81.6761 475.42 81.5058 475.404 81.3366C474.951 79.8474 475.109 78.2402 475.843 76.8663C476.512 75.8398 476.855 74.6369 476.829 73.4137C476.805 73.2815 476.805 73.1461 476.829 73.0139C477.311 70.8279 477.909 68.6685 478.619 66.5448H478.51Z" fill="#FBBA00"/>
<path d="M451.986 109.066L452.753 111.429L453.119 114.591L451.036 116.153L443.51 115.935L440.624 113.391L441.903 112.301L442.633 109.066C433.208 102.052 429.08 101.325 429.08 101.325C427.297 100.565 425.415 100.063 423.49 99.8352C423.367 101.042 423.63 102.256 424.239 103.306C424.849 104.356 425.776 105.189 426.887 105.686L429.043 106.631C430.358 107.213 430.358 107.213 430.797 107.976C431.868 109.69 433.286 111.163 434.961 112.301C436.105 113.159 437.051 114.249 437.738 115.499L439.126 115.899C439.212 115.812 439.286 115.715 439.345 115.608C438.893 116.597 438.609 117.653 438.505 118.734C438.505 120.006 439.017 122.913 443.656 123.64L444.899 124.512L446.433 125.821H446.652H447.858L448.954 125.566H449.246L449.429 125.348L450.123 124.476L450.707 123.749C451.954 123.64 453.138 123.158 454.105 122.368C455.073 121.35 455.753 120.097 456.078 118.734C456.078 118.479 456.078 117.28 455.822 116.589L455.311 115.245C455.468 115.486 455.602 115.742 455.713 116.008L456.224 117.534L457.21 116.299L459.475 113.537L461.667 111.465C462.257 110.868 462.728 110.165 463.056 109.393L463.311 108.848C464.879 107.423 466.622 106.202 468.499 105.214C469.557 104.672 470.422 103.821 470.977 102.774C471.532 101.728 471.752 100.537 471.605 99.3627L471.495 98.1634V97.9453L468.865 99.3627C451.913 105.723 451.986 109.066 451.986 109.066Z" fill="white"/>
<path d="M429.737 90.1313C429.737 90.1313 430.249 89.4408 431.527 90.4947C433.45 92.3076 435.968 93.3663 438.615 93.4749C438.615 93.4749 439.236 94.3835 437.154 94.3108C436.271 94.302 435.391 94.2168 434.523 94.0564C433.077 93.2212 431.781 92.1526 430.687 90.8945C430.442 90.5798 430.113 90.3404 429.737 90.204V90.1313Z" fill="#164194"/>
<path d="M448.844 70.4335L447.931 69.6702C447.654 68.9658 447.566 68.2018 447.675 67.4533C449.016 66.1577 450.542 65.0676 452.205 64.2188C451.712 65.1602 451.042 65.999 450.232 66.6901C449.632 67.0779 449.131 67.6008 448.771 68.2165C448.607 68.9465 448.607 69.7035 448.771 70.4335H448.844Z" fill="#164194"/>
<path d="M445.921 70.1786C445.921 70.1786 447.054 68.3251 446.469 67.7799L442.268 64.4727C442.268 64.4727 442.268 66.2535 443.218 66.8713C444.168 67.4892 444.862 67.4528 444.935 67.8889V68.3251C444.871 68.4551 444.837 68.5981 444.837 68.743C444.837 68.888 444.871 69.031 444.935 69.161C445.264 69.5971 445.775 70.1786 445.775 70.1786H445.921Z" fill="#164194"/>
<path d="M455.274 80.7916C457.177 79.7609 459.156 78.874 461.193 78.1385C462.727 77.7751 461.193 77.4117 460.864 77.3026C460.402 77.2611 459.937 77.2611 459.476 77.3026L458.051 77.8841L457.357 78.2476L456.297 79.0471L455.493 79.3742L455.018 79.6286C455.018 79.6286 454.58 81.2277 455.274 80.9006V80.7916Z" fill="#164194"/>
<path d="M433.025 77.6654C433.025 77.0839 433.61 77.8834 434.048 78.1378C434.487 78.3923 436.752 79.0464 436.752 79.0464L437.446 79.5189L438.615 80.4275L438.359 81.009C437.992 81.0116 437.633 80.897 437.336 80.6819C436.971 80.3185 435.838 79.5552 435.765 79.7733C435.692 79.9914 434.998 79.7733 434.414 79.4099C434.06 79.2497 433.749 79.008 433.508 78.7046C433.266 78.4012 433.101 78.045 433.025 77.6654Z" fill="#164194"/>
<path d="M428.459 68.6166C428.269 68.2723 428.121 67.9061 428.02 67.5263V67.1992C427.795 66.4284 427.648 65.637 427.582 64.8369C427.417 63.5292 426.797 62.3203 425.828 61.4206L425.609 61.1662C425.517 60.9951 425.387 60.8472 425.229 60.7338C425.07 60.6204 424.888 60.5446 424.696 60.5121C424.476 60.5121 424.038 60.5121 422.979 59.3854C421.637 58.1328 420.195 56.9903 418.668 55.9691L416.695 54.5518L417.462 56.805C417.724 57.5678 417.943 58.3443 418.12 59.131C418.12 59.3854 418.12 59.8942 418.12 60.7301C418.216 61.4049 418.277 62.0842 418.302 62.7654C418.302 63.4559 418.777 66.3997 418.887 67.1629V67.4173C419.279 68.2291 419.719 69.0179 420.202 69.7796C420.42 70.029 420.57 70.329 420.64 70.6519C420.343 71.6963 420.407 72.8101 420.823 73.8137C421.262 75.2675 422.065 75.5582 422.65 75.5582C423.059 75.5053 423.452 75.3681 423.804 75.1553C424.156 74.9425 424.46 74.6589 424.696 74.3225L425.536 73.3776L425.792 73.0869C426.23 72.6144 427.07 71.7785 427.911 71.0516C428.167 70.8748 428.379 70.6421 428.531 70.3713C428.683 70.1004 428.771 69.7986 428.787 69.4889C428.778 69.0347 428.61 68.598 428.313 68.2532L428.459 68.6166Z" fill="white"/>
<path d="M463.494 88.9323C463.337 88.9823 463.202 89.0867 463.115 89.2266C463.028 89.3666 462.994 89.5328 463.019 89.6955C463.019 90.386 460.243 92.6756 459.366 93.0754C458.424 93.3806 457.424 93.4676 456.443 93.3298C455.493 93.3298 455.164 94.6018 455.164 94.6018C454.902 95.0913 454.682 95.6019 454.507 96.1282C454.196 97.7674 453.768 99.3827 453.228 100.962C452.853 102.973 453.043 105.048 453.776 106.959C454.134 107.806 454.587 108.611 455.128 109.357C455.38 110.119 455.503 110.917 455.493 111.72L456.114 109.503C456.114 109.503 456.114 108.703 455.895 108.231C455.676 107.758 455.128 107.177 454.909 106.377C454.557 105.186 454.288 103.971 454.105 102.743C454.105 102.161 454.69 99.1084 454.799 98.3815C455.155 97.2961 455.387 96.1747 455.493 95.0379V94.5291C456.985 94.6589 458.486 94.4142 459.858 93.8173C461.231 93.2205 462.431 92.2906 463.348 91.1129C463.733 90.388 464.027 89.6191 464.225 88.8232L463.494 88.9323Z" fill="#164194"/>
<path d="M475.441 55.7142C474.412 56.6771 473.257 57.4963 472.006 58.1492C469.632 59.5666 466.892 61.1657 466.672 64.5093V64.8V65.0544C467.22 65.8176 466.928 66.4355 466.307 67.4894C465.945 68.0102 465.674 68.5876 465.503 69.1976V69.7427L465.942 70.0698C466.579 70.5826 467.167 71.1546 467.695 71.7779C468.177 72.4917 468.797 73.1033 469.518 73.5774C470.239 74.0515 471.048 74.3787 471.897 74.54H472.372L472.664 74.1403C473.523 72.8181 474.049 71.3098 474.198 69.7427C474.332 68.4538 474.757 67.2115 475.441 66.1084L475.66 65.8176V65.4906C475.54 63.7109 475.751 61.9246 476.281 60.2208C476.626 58.935 476.859 57.6216 476.975 56.2957V53.9697L475.404 55.6779L475.441 55.7142Z" fill="white"/>
<path d="M439.199 95.8008C439.491 99.4351 442.853 102.197 440.624 105.795C440.88 107.83 438.943 108.848 438.395 110.556C437.519 110.556 437.921 109.139 438.03 108.557C439.09 106.866 439.7 104.935 439.802 102.945C439.905 100.955 439.496 98.9714 438.615 97.1818C438.615 96.6003 438.615 95.9462 439.309 95.8008" fill="#164194"/>
<path d="M474.82 65.4543C473.029 67.9257 473.797 71.342 472.006 73.777C469.522 73.4862 468.353 70.8695 466.38 69.3431C466.782 67.7076 468.791 66.2902 467.476 64.364C467.805 59.6757 473.322 58.8762 476.135 55.8233C475.4 58.9866 474.959 62.2106 474.82 65.4543ZM476.865 53.5337C473.724 56.2231 469.814 57.1681 466.928 60.439C464.042 62.9466 467.403 67.1988 463.275 69.1614C465.855 71.9515 468.791 74.395 472.006 76.43C474.454 74.9763 474.527 72.2142 474.673 69.7065C477.158 65.309 475.916 60.1482 477.888 55.4599C477.486 54.8057 477.888 53.243 476.719 53.5337H476.865Z" fill="#164194"/>
<path d="M427.655 70.9785C426.746 71.7293 425.891 72.543 425.097 73.4136C424.76 73.7459 424.443 74.0978 424.147 74.4675C424.147 74.4675 422.43 76.7571 421.59 74.2131C420.75 71.6691 421.59 71.56 421.59 70.8695C421.473 70.3929 421.234 69.9546 420.896 69.5975C420.567 69.125 419.617 67.2715 419.617 67.2715C419.617 67.2715 419.033 63.6372 419.033 62.874C419.033 62.1108 418.667 59.6394 418.667 59.2397C418.485 58.3279 418.241 57.4294 417.937 56.5502C419.474 57.5605 420.927 58.6907 422.284 59.9302C424.257 61.7837 424.622 61.0932 424.842 61.5656C425.877 62.4638 426.583 63.678 426.851 65.0182C426.897 66.0112 427.094 66.9915 427.436 67.9257C427.589 68.4022 427.785 68.8643 428.02 69.3068C428.02 69.3068 428.933 70.1063 427.764 71.0512L427.655 70.9785ZM428.933 67.9621C428.714 67.3806 428.13 67.962 428.349 66.2539C428.86 62.6196 428.349 64.255 426.486 61.0205C425.967 60.4287 425.513 59.7829 425.134 59.0943C425.134 58.6945 424.732 58.9126 424.147 58.5855C423.563 58.2584 423.234 58.113 422.43 57.6405C421.621 57.1506 420.903 56.5233 420.311 55.787C419.321 54.9905 418.227 54.3304 417.06 53.8245C416.93 53.7213 416.769 53.665 416.603 53.665C416.437 53.665 416.276 53.7213 416.147 53.8245C415.562 53.8245 416.366 56.2595 416.366 56.732C416.51 58.7093 416.778 60.6757 417.17 62.6196C417.551 64.9915 418.137 67.3262 418.923 69.5975C419.471 71.0421 419.791 72.5622 419.873 74.1041C419.89 74.8426 420.098 75.5643 420.475 76.2005C420.852 76.8367 421.387 77.3662 422.029 77.7384C423.419 76.416 424.909 75.2011 426.486 74.1041C427.452 73.4933 428.255 72.6576 428.824 71.6691C429.518 70.7241 429.518 70.7241 430.102 69.8156C430.687 68.907 429.189 68.7616 428.933 68.1801V67.9621Z" fill="#164194"/>
<path d="M438.615 90.8952C438.615 91.4157 438.407 91.9148 438.037 92.2829C437.667 92.6509 437.165 92.8577 436.642 92.8577C436.119 92.8577 435.617 92.6509 435.247 92.2829C434.877 91.9148 434.669 91.4157 434.669 90.8952C434.669 90.3747 434.877 89.8755 435.247 89.5074C435.617 89.1394 436.119 88.9326 436.642 88.9326C437.165 88.9326 437.667 89.1394 438.037 89.5074C438.407 89.8755 438.615 90.3747 438.615 90.8952Z" fill="#164194"/>
<path d="M436.058 90.0958C436.063 90.1512 436.056 90.2072 436.038 90.2599C436.02 90.3127 435.991 90.3612 435.954 90.4023C435.916 90.4433 435.87 90.4761 435.818 90.4984C435.767 90.5207 435.712 90.5321 435.656 90.5319C435.539 90.5319 435.428 90.4859 435.346 90.4042C435.263 90.3224 435.217 90.2114 435.217 90.0958C435.217 90.0401 435.229 89.9849 435.251 89.9339C435.273 89.8829 435.306 89.8371 435.348 89.7994C435.389 89.7618 435.438 89.7331 435.491 89.7153C435.544 89.6975 435.6 89.6909 435.656 89.696C435.762 89.696 435.864 89.7381 435.94 89.8131C436.015 89.8881 436.058 89.9897 436.058 90.0958Z" fill="white"/>
<path d="M460.17 90.895C460.208 91.1726 460.186 91.4552 460.105 91.7237C460.024 91.9922 459.887 92.2404 459.702 92.4515C459.517 92.6627 459.288 92.832 459.032 92.948C458.775 93.064 458.497 93.124 458.215 93.124C457.933 93.124 457.655 93.064 457.398 92.948C457.142 92.832 456.913 92.6627 456.728 92.4515C456.543 92.2404 456.406 91.9922 456.325 91.7237C456.244 91.4552 456.222 91.1726 456.26 90.895C456.222 90.6174 456.244 90.3348 456.325 90.0663C456.406 89.7978 456.543 89.5496 456.728 89.3385C456.913 89.1273 457.142 88.958 457.398 88.842C457.655 88.726 457.933 88.666 458.215 88.666C458.497 88.666 458.775 88.726 459.032 88.842C459.288 88.958 459.517 89.1273 459.702 89.3385C459.887 89.5496 460.024 89.7978 460.105 90.0663C460.186 90.3348 460.208 90.6174 460.17 90.895Z" fill="#164194"/>
<path d="M432.149 87.4425C430.207 87.6408 428.254 87.7136 426.303 87.6606C428.152 88.331 430.108 88.6634 432.076 88.6418C433.266 88.3248 434.506 88.2384 435.729 88.3874C438.871 88.7872 440.332 92.0218 442.816 93.2938L443.218 92.0581C442.248 90.1126 440.608 88.5773 438.598 87.7306C436.587 86.8838 434.338 86.7816 432.258 87.4425H432.149Z" fill="#164194"/>
<path d="M477.231 88.133C476.651 88.6751 476.233 89.3651 476.02 90.1277C475.807 90.8902 475.809 91.6962 476.025 92.4578C473.758 94.813 471.02 96.67 467.988 97.9093C467.659 97.9093 467.075 98.6725 466.709 98.9996L464.59 101.398H465.431L465.138 102.489C465.138 102.489 466.38 101.071 466.819 100.453C467.257 99.8355 468.353 100.199 468.353 100.199L469.559 99.6175L470.326 99.1087C470.582 98.9269 470.984 99.1087 470.984 99.1087C471.114 100.102 470.931 101.111 470.46 101.997C469.989 102.882 469.253 103.6 468.353 104.051C466.347 105.122 464.502 106.467 462.873 108.049C462.495 108.948 461.977 109.782 461.339 110.52L459.11 112.628L456.882 115.609C456.721 115.139 456.487 114.697 456.188 114.3C455.603 113.392 455.932 113.464 455.859 112.955C455.728 112.351 455.493 111.773 455.165 111.247C454.763 110.484 454.215 110.92 453.886 110.666C453.454 110.134 453.244 109.457 453.301 108.776C453.301 107.94 451.256 98.2364 451.073 97.4005V96.5283C452.039 94.5896 453.269 92.7921 454.726 91.1858C455.232 90.607 455.809 90.0941 456.443 89.6594C457.042 89.272 457.712 89.008 458.415 88.8832C459.118 88.7583 459.839 88.7751 460.535 88.9325C461.464 89.196 462.42 89.3545 463.385 89.405C464.327 89.4391 465.264 89.2643 466.13 88.8935C466.996 88.5226 467.767 87.9649 468.39 87.2607C467.075 87.5515 464.481 87.8059 464.481 87.8059C452.023 86.7156 455.092 88.351 455.092 88.351C453.201 89.3126 451.76 90.9677 451.073 92.9666L449.867 94.5658C449.585 95.5575 449.498 96.5941 449.612 97.6186C449.612 98.1274 449.867 99.5084 449.867 99.5084C449.598 103.232 450.211 106.967 451.657 110.411C451.657 110.702 452.571 114.409 452.571 114.409H453.046L453.74 113.719H454.142V114.155L455.092 116.699C455.092 116.699 455.347 118.48 455.347 118.734C455.025 119.857 454.464 120.898 453.703 121.787C453.118 122.302 452.422 122.677 451.669 122.885C450.915 123.093 450.124 123.128 449.356 122.986H449.137H448.223H447.748L447.383 122.623V122.15V121.351C448.547 121.116 449.593 120.489 450.346 119.575C451.098 118.661 451.51 117.517 451.511 116.335C451.511 115.681 450.488 115.172 450.488 115.172C448.277 114.566 445.941 114.566 443.73 115.172C442.268 115.5 442.78 117.535 442.78 117.535C442.78 118.77 445.191 120.697 445.191 120.697C445.671 121.075 446.26 121.291 446.871 121.314V121.751C446.794 122.064 446.684 122.368 446.543 122.659C446.36 122.986 445.666 123.132 445.227 123.204H444.826C440.478 122.768 439.638 120.588 439.638 119.025C439.95 117.315 440.516 115.662 441.318 114.118L441.83 114.518C442.23 114.576 442.636 114.576 443.035 114.518C443.291 114.518 443.035 113.9 443.035 113.646C442.875 113.4 442.728 113.145 442.597 112.883C444.57 110.848 445.775 97.3278 445.849 97.0008C445.923 96.6901 445.923 96.3664 445.849 96.0558L445.593 95.4743L445.008 94.5294C445.008 94.5294 443.912 93.6572 443.364 93.9116C442.816 94.166 443.912 95.547 443.912 95.547L444.497 96.3102C443.922 98.0936 443.542 99.9335 443.364 101.798L442.451 107.649C441.977 108.729 441.598 109.848 441.318 110.993C440.99 112.592 439.455 111.393 439.455 111.393C439.619 112.074 439.629 112.782 439.483 113.467C439.338 114.153 439.041 114.797 438.615 115.354C437.902 113.892 436.819 112.64 435.473 111.72C433.879 110.646 432.534 109.246 431.527 107.613C430.76 106.268 430.687 106.595 427.253 104.996C426.31 104.58 425.523 103.878 425.004 102.99C424.486 102.103 424.263 101.075 424.367 100.054C424.367 100.054 426.741 100.999 427.107 101.071C427.977 101.308 428.831 101.6 429.664 101.943C430.249 102.198 432.806 103.797 430.249 100.999C427.691 98.2001 426.413 99.1087 424.769 98.5272C423.125 97.9457 423.234 97.2552 422.467 96.2375C421.7 95.2199 420.604 94.8565 419.654 93.9479C418.704 93.0393 418.96 93.3301 419.142 92.8213C419.325 92.3125 418.375 90.6043 418.375 90.6043C414.722 86.7883 418.375 84.7531 419.727 83.9898C420.403 83.6017 420.897 82.964 421.102 82.2153C421.307 81.4666 421.207 80.6676 420.823 79.9921C420.056 78.2113 418.339 71.1607 418.339 71.1607C417.565 69.4313 417.012 67.612 416.695 65.7455C416.499 63.1481 415.895 60.5974 414.905 58.1861C413.37 53.8612 414.905 54.5518 415.16 53.3524C415.325 52.839 415.558 52.35 415.854 51.8987C419.033 51.8987 435.692 66.436 435.692 66.436C435.409 65.3589 434.992 64.3211 434.45 63.3468C442.07 60.37 450.497 60.1385 458.27 62.6927C460.645 63.6376 458.526 66.327 458.526 66.327L462.873 63.0924C466.985 58.0235 472.477 54.2386 478.692 52.1894C479.019 52.814 479.276 53.4721 479.459 54.152C479.861 54.9857 480.07 55.8986 480.07 56.8232C480.07 57.7479 479.861 58.6607 479.459 59.4945C478.493 61.6339 477.971 63.9455 477.925 66.2906C477.083 68.3811 476.399 70.5314 475.879 72.7234C475.933 74.0019 475.602 75.2672 474.929 76.3577C474.056 78.0693 473.898 80.0552 474.491 81.8819C474.747 83.263 478.437 85.807 478.437 85.807C478.437 85.807 479.277 85.5526 477.231 88.0239V88.133ZM449.027 124.949L447.931 125.203H447.164L445.447 124.186C446.041 124.105 446.643 124.105 447.237 124.186C448.442 124.186 449.356 124.186 449.612 124.186L448.917 125.021L449.027 124.949ZM478.254 82.9359C474.6 80.2101 476.793 77.9932 477.596 76.4668C478.292 74.8151 478.699 73.0576 478.802 71.2697C478.802 70.5065 478.985 67.6354 479.898 66.6904C480.811 65.7455 481.03 61.2389 481.469 60.1486C481.8 59.0743 481.996 57.9635 482.053 56.8414C482.013 56.1515 482.013 55.4598 482.053 54.7698C481.28 52.5991 480.327 50.4961 479.204 48.4824C475.112 48.9185 464.59 57.859 463.64 58.9493C463.016 59.6336 462.304 60.2325 461.521 60.7301C456.747 59.5309 451.83 58.9928 446.908 59.131C442.209 59.1767 437.538 59.8615 433.025 61.1662C428.158 55.9116 422.147 51.834 415.453 49.2456C411.105 53.6068 414.174 63.9647 414.612 64.9096C415.443 66.2719 415.909 67.8236 415.964 69.4162C416.293 72.0531 416.805 74.664 417.498 77.23C417.863 78.6417 418.442 79.9899 419.216 81.2278C419.216 81.2278 418.302 82.2454 416.658 83.8808C415.014 85.5163 415.635 84.7167 414.685 85.1528C414.398 85.3255 414.151 85.5577 413.962 85.8336C413.773 86.1095 413.646 86.4227 413.589 86.7519C414.267 88.0332 415.062 89.2498 415.964 90.3863C417.097 91.5856 415.635 92.6032 415.635 92.6032L418.814 95.1472C419.983 96.0922 419.325 96.0195 420.165 96.7827C421.006 97.5459 420.348 98.1637 420.348 98.1637L421.042 98.7816C421.384 100.887 422.286 102.864 423.654 104.506C425.022 106.149 426.807 107.397 428.824 108.122C430.106 108.874 431.234 109.861 432.148 111.029L433.756 112.301C437.884 115.172 437.884 117.825 437.884 117.825C437.117 122.405 440.369 123.241 440.369 123.241C444.716 124.694 444.46 125.058 444.46 125.058C447.785 127.675 448.735 126.33 449.94 125.966C450.878 125.647 451.764 125.194 452.571 124.622C454.229 124.143 455.664 123.096 456.62 121.666C457.577 120.235 457.993 118.514 457.795 116.808C458.341 116.03 458.939 115.289 459.585 114.591C460.179 113.9 460.671 113.129 461.047 112.301C463.227 110.313 465.573 108.514 468.061 106.922C469.741 106.089 471.186 104.851 472.264 103.321C473.342 101.792 474.019 100.019 474.235 98.1637C474.471 96.7826 475.073 95.4889 475.978 94.4158C476.884 93.3427 478.06 92.5289 479.386 92.0581C479.071 91.5635 478.904 90.99 478.904 90.4044C478.904 89.8189 479.071 89.2454 479.386 88.7508C480.336 87.3698 481.871 85.1165 481.871 85.1165C481.871 85.1165 481.651 85.1165 478.217 82.6451L478.254 82.9359Z" fill="#164194"/>
<path d="M457.795 90.0958C457.8 90.1512 457.793 90.2072 457.775 90.2599C457.758 90.3127 457.729 90.3612 457.691 90.4023C457.653 90.4433 457.607 90.4761 457.556 90.4984C457.504 90.5207 457.449 90.5321 457.393 90.5319C457.277 90.5319 457.165 90.4859 457.083 90.4042C457.001 90.3224 456.955 90.2114 456.955 90.0958C456.954 90.0401 456.966 89.9849 456.988 89.9339C457.011 89.8829 457.044 89.8371 457.085 89.7994C457.126 89.7618 457.175 89.7331 457.228 89.7153C457.281 89.6975 457.337 89.6909 457.393 89.696C457.5 89.696 457.602 89.7381 457.677 89.8131C457.753 89.8881 457.795 89.9897 457.795 90.0958Z" fill="white"/>
<path d="M320.928 177.865C321.895 177.865 322.823 177.482 323.507 176.801C324.191 176.119 324.575 175.195 324.575 174.231V5.63433C324.575 4.67045 324.191 3.74604 323.507 3.06447C322.823 2.3829 321.895 2 320.928 2C319.96 2 319.032 2.3829 318.348 3.06447C317.664 3.74604 317.28 4.67045 317.28 5.63433V174.231C317.28 175.195 317.664 176.119 318.348 176.801C319.032 177.482 319.96 177.865 320.928 177.865Z" fill="#164194"/>
<g clip-path="url(#clip1)">
<path d="M261.004 2H119.997C110.61 2 103 9.60946 103 18.9962V160.004C103 169.391 110.61 177 119.997 177H261.004C270.391 177 278 169.391 278 160.004V18.9962C278 9.60946 270.391 2 261.004 2Z" fill="#00BE40"/>
<path d="M243.565 112.758H137.757V121.173H243.565V112.758Z" fill="white"/>
<path d="M166.634 70.8041V62.2451H137.757V102.195H148.309V87.9886H164.63V79.4185H148.309V70.8041H166.634Z" fill="white"/>
<path d="M198.223 81.4776C202.442 79.5289 204.668 76.4507 204.668 72.6197C204.668 66.1644 199.884 62.2891 191.824 62.2891H171.384V102.194H192.045C200.836 102.194 206.085 98.0309 206.085 90.9556C206.085 86.3827 203.173 82.9613 198.223 81.4776ZM181.714 70.3498H189.875C192.842 70.3498 194.437 71.7117 194.437 74.2362C194.437 76.7607 192.842 78.1116 189.875 78.1116H181.714V70.3498ZM190.572 94.0891H181.714V86.1502H190.672C193.639 86.1502 195.3 87.5675 195.3 90.2581C195.3 92.7937 193.639 94.0891 190.561 94.0891H190.572Z" fill="white"/>
<path d="M231.551 77.9345L226.746 77.2923C222.007 76.6058 220.612 75.4432 220.612 73.2397C220.612 71.0363 222.461 69.5305 226.58 69.5305C230.389 69.5305 232.26 70.9367 233.157 74.4134L243.2 73.118C241.727 65.2565 236.08 61.4365 226.868 61.4365C216.559 61.4365 209.783 66.5852 209.783 74.4577C209.783 81.223 213.891 85.1648 222.295 86.3274L227.322 87.0139C232.648 87.7779 233.965 88.9848 233.965 91.31C233.965 93.6352 231.994 95.0193 227.322 95.0193C225.648 95.0961 223.995 94.6148 222.625 93.6508C221.254 92.6868 220.242 91.2948 219.748 89.6934L209.285 91.2657C210.979 99.4039 217.168 103.113 227.001 103.113C238.173 103.113 244.772 98.3078 244.772 90.1474C244.728 82.9724 240.697 79.2632 231.551 77.9345Z" fill="white"/>
</g>
<defs>
<clipPath id="clip0">
<rect width="640" height="70" fill="white" transform="translate(0 210)"/>
</clipPath>
<clipPath id="clip1">
<rect width="175" height="175" fill="white" transform="translate(103 2)"/>
</clipPath>
</defs>
</svg>
