<svg width="640" height="280" viewBox="0 0 640 280" fill="none" xmlns="http://www.w3.org/2000/svg">
<g clip-path="url(#clip0)">
<path d="M130.712 258.074C130.712 257.196 130.83 256.128 131.068 254.87C131.305 253.589 131.839 251.987 132.67 250.064L137.476 251.773C137.001 253.055 136.669 254.087 136.479 254.87C136.313 255.654 136.23 256.401 136.23 257.113C136.23 258.561 136.799 259.712 137.939 260.566C139.078 261.421 140.798 261.86 143.101 261.884C144.904 261.884 146.352 261.706 147.444 261.35C148.559 260.994 149.366 260.566 149.865 260.068C150.363 259.593 150.612 259.131 150.612 258.68C150.612 258.3 150.28 257.92 149.615 257.54C148.975 257.137 147.871 256.674 146.305 256.152L147.693 251.204C149.615 251.987 151.419 252.628 153.104 253.126C154.789 253.601 156.284 253.838 157.59 253.838C158.515 253.838 159.192 254.099 159.619 254.621C160.046 255.12 160.26 255.725 160.26 256.437C160.26 257.244 159.999 257.908 159.477 258.43C158.954 258.929 158.207 259.178 157.234 259.178H155.739C155.81 259.534 155.845 259.854 155.845 260.139C155.845 260.899 155.584 261.682 155.062 262.489C154.54 263.319 153.733 264.091 152.641 264.803C151.573 265.515 150.209 266.096 148.547 266.547C146.91 266.998 144.976 267.224 142.745 267.224C140.324 267.224 138.212 266.891 136.408 266.227C134.604 265.562 133.204 264.554 132.207 263.201C131.21 261.872 130.712 260.163 130.712 258.074ZM146.198 275.376C145.486 275.376 144.892 275.127 144.418 274.628C143.943 274.154 143.706 273.584 143.706 272.92C143.706 272.208 143.943 271.602 144.418 271.104C144.892 270.629 145.486 270.392 146.198 270.392C146.886 270.392 147.468 270.629 147.942 271.104C148.441 271.602 148.69 272.208 148.69 272.92C148.69 273.584 148.441 274.154 147.942 274.628C147.468 275.127 146.886 275.376 146.198 275.376ZM140.003 275.376C139.315 275.376 138.722 275.127 138.223 274.628C137.749 274.154 137.511 273.584 137.511 272.92C137.511 272.208 137.749 271.602 138.223 271.104C138.722 270.629 139.315 270.392 140.003 270.392C140.692 270.392 141.273 270.629 141.748 271.104C142.246 271.602 142.495 272.208 142.495 272.92C142.495 273.584 142.246 274.154 141.748 274.628C141.273 275.127 140.692 275.376 140.003 275.376ZM157.251 259.178L157.607 253.838C158.177 253.838 158.651 253.719 159.031 253.482C159.411 253.221 159.802 252.77 160.206 252.129C160.609 251.465 161.143 250.515 161.808 249.281C162.923 247.216 164.098 245.721 165.332 244.796C166.59 243.87 167.919 243.407 169.319 243.407C170.815 243.407 172.025 243.906 172.951 244.902C173.9 245.899 174.814 247.383 175.692 249.352C176.333 250.824 176.985 251.939 177.65 252.699C178.314 253.458 179.098 253.838 179.999 253.838C180.925 253.838 181.601 254.099 182.029 254.621C182.456 255.12 182.669 255.725 182.669 256.437C182.669 257.244 182.408 257.908 181.886 258.43C181.364 258.929 180.617 259.178 179.643 259.178C177.626 259.178 175.989 258.537 174.731 257.256C174.327 257.944 173.758 258.513 173.022 258.964C172.31 259.415 171.467 259.641 170.494 259.641C169.45 259.641 168.299 259.368 167.041 258.822C165.807 258.276 164.668 257.315 163.623 255.938C162.722 257.244 161.772 258.11 160.775 258.537C159.779 258.964 158.604 259.178 157.251 259.178ZM166.151 251.595C166.626 252.307 167.255 252.972 168.038 253.589C168.845 254.182 169.628 254.479 170.387 254.479C170.933 254.479 171.313 254.289 171.527 253.909C171.74 253.506 171.74 253.007 171.527 252.414C171.005 251.132 170.542 250.171 170.138 249.53C169.735 248.89 169.308 248.569 168.857 248.569C168.382 248.569 167.907 248.854 167.433 249.424C166.958 249.993 166.531 250.717 166.151 251.595ZM179.64 259.178L179.996 253.838C180.708 253.838 181.278 253.767 181.705 253.624C182.156 253.482 182.524 253.173 182.809 252.699C183.117 252.224 183.39 251.5 183.627 250.527C183.865 249.554 184.126 248.237 184.411 246.576L189.501 247.466C189.406 247.988 189.288 248.652 189.145 249.459C189.027 250.266 188.967 251.002 188.967 251.666C188.967 252.331 189.157 252.865 189.537 253.268C189.917 253.648 190.605 253.838 191.602 253.838C192.219 253.838 192.729 253.767 193.133 253.624C193.536 253.482 193.88 253.173 194.165 252.699C194.45 252.2 194.699 251.453 194.913 250.456C195.126 249.435 195.363 248.059 195.625 246.326L200.858 247.145C200.715 247.952 200.561 248.83 200.395 249.78C200.253 250.705 200.181 251.429 200.181 251.951C200.181 252.473 200.383 252.924 200.787 253.304C201.214 253.66 201.973 253.838 203.065 253.838C204.085 253.838 204.833 253.648 205.308 253.268C205.782 252.889 206.02 252.224 206.02 251.275C206.02 250.325 205.83 249.139 205.45 247.715C205.094 246.267 204.631 244.713 204.062 243.051L209.331 241.449C209.734 242.565 210.09 243.728 210.399 244.938C210.707 246.148 210.944 247.311 211.111 248.427C211.3 249.542 211.395 250.527 211.395 251.382C211.395 253.043 211.039 254.455 210.327 255.618C209.639 256.781 208.69 257.671 207.479 258.288C206.269 258.881 204.892 259.178 203.35 259.178C201.902 259.178 200.715 258.964 199.79 258.537C198.888 258.086 198.235 257.291 197.832 256.152C197.333 257.078 196.787 257.754 196.194 258.181C195.601 258.608 194.936 258.881 194.201 259C193.465 259.119 192.646 259.178 191.744 259.178C191.127 259.178 190.498 259.119 189.857 259C189.217 258.905 188.599 258.68 188.006 258.324C187.413 257.944 186.903 257.386 186.475 256.65C185.597 257.718 184.565 258.407 183.378 258.715C182.215 259.024 180.969 259.178 179.64 259.178ZM214.148 267.224L211.977 262.346C214.635 261.397 216.593 260.222 217.851 258.822C219.109 257.422 219.738 255.95 219.738 254.408C219.738 253.387 219.5 252.283 219.026 251.097C218.551 249.886 217.934 248.605 217.174 247.252L222.194 244.796C222.787 245.887 223.298 247.015 223.725 248.178C224.176 249.317 224.52 250.254 224.757 250.99C225.066 252.105 225.517 252.865 226.11 253.268C226.703 253.648 227.546 253.838 228.638 253.838C229.563 253.838 230.24 254.099 230.667 254.621C231.094 255.12 231.308 255.725 231.308 256.437C231.308 257.244 231.047 257.908 230.525 258.43C230.002 258.929 229.255 259.178 228.282 259.178C226.668 259.178 225.422 258.715 224.544 257.79C223.903 259.759 222.704 261.587 220.948 263.272C219.216 264.957 216.949 266.274 214.148 267.224ZM228.277 259.178L228.633 253.838C229.559 253.838 230.223 253.731 230.627 253.518C231.054 253.28 231.315 252.841 231.41 252.2C231.505 251.536 231.529 250.551 231.481 249.246L230.805 232.442H236.323L237.035 249.815C237.106 251.215 237.059 252.497 236.892 253.66C236.75 254.799 236.382 255.784 235.789 256.615C235.219 257.445 234.329 258.086 233.119 258.537C231.932 258.964 230.318 259.178 228.277 259.178ZM241.798 259L241.051 232.442H246.533L247.281 259H241.798ZM259.449 258.074C259.449 257.196 259.568 256.128 259.805 254.87C260.042 253.589 260.576 251.987 261.407 250.064L266.213 251.773C265.738 253.055 265.406 254.087 265.216 254.87C265.05 255.654 264.967 256.401 264.967 257.113C264.967 258.561 265.537 259.712 266.676 260.566C267.815 261.421 269.536 261.86 271.838 261.884C273.641 261.884 275.089 261.706 276.181 261.35C277.296 260.994 278.103 260.566 278.602 260.068C279.1 259.593 279.349 259.131 279.349 258.68C279.349 258.3 279.017 257.92 278.353 257.54C277.712 257.137 276.608 256.674 275.042 256.152L276.43 251.204C278.353 251.987 280.156 252.628 281.841 253.126C283.526 253.601 285.022 253.838 286.327 253.838C287.253 253.838 287.929 254.099 288.356 254.621C288.783 255.12 288.997 255.725 288.997 256.437C288.997 257.244 288.736 257.908 288.214 258.43C287.692 258.929 286.944 259.178 285.971 259.178H284.476C284.547 259.534 284.583 259.854 284.583 260.139C284.583 260.899 284.321 261.682 283.799 262.489C283.277 263.319 282.47 264.091 281.379 264.803C280.311 265.515 278.946 266.096 277.285 266.547C275.647 266.998 273.713 267.224 271.482 267.224C269.061 267.224 266.949 266.891 265.145 266.227C263.341 265.562 261.941 264.554 260.944 263.201C259.947 261.872 259.449 260.163 259.449 258.074ZM274.935 275.376C274.223 275.376 273.63 275.127 273.155 274.628C272.68 274.154 272.443 273.584 272.443 272.92C272.443 272.208 272.68 271.602 273.155 271.104C273.63 270.629 274.223 270.392 274.935 270.392C275.623 270.392 276.205 270.629 276.679 271.104C277.178 271.602 277.427 272.208 277.427 272.92C277.427 273.584 277.178 274.154 276.679 274.628C276.205 275.127 275.623 275.376 274.935 275.376ZM268.741 275.376C268.052 275.376 267.459 275.127 266.961 274.628C266.486 274.154 266.249 273.584 266.249 272.92C266.249 272.208 266.486 271.602 266.961 271.104C267.459 270.629 268.052 270.392 268.741 270.392C269.429 270.392 270.01 270.629 270.485 271.104C270.983 271.602 271.233 272.208 271.233 272.92C271.233 273.584 270.983 274.154 270.485 274.628C270.01 275.127 269.429 275.376 268.741 275.376ZM285.988 259.178L286.344 253.838C287.032 253.838 287.59 253.767 288.017 253.624C288.468 253.482 288.836 253.173 289.121 252.699C289.43 252.224 289.702 251.5 289.94 250.527C290.177 249.554 290.438 248.237 290.723 246.576L295.849 247.466C295.754 247.964 295.636 248.605 295.493 249.388C295.351 250.147 295.28 250.824 295.28 251.417C295.28 252.177 295.47 252.77 295.849 253.197C296.229 253.624 296.965 253.838 298.057 253.838C298.626 253.838 299.113 253.767 299.516 253.624C299.92 253.482 300.264 253.173 300.549 252.699C300.833 252.2 301.094 251.453 301.332 250.456C301.569 249.435 301.795 248.059 302.008 246.326L307.206 247.145C307.04 248.023 306.885 248.913 306.743 249.815C306.624 250.717 306.565 251.429 306.565 251.951C306.565 252.473 306.779 252.924 307.206 253.304C307.633 253.66 308.428 253.838 309.591 253.838C310.612 253.838 311.335 253.601 311.763 253.126C312.19 252.628 312.403 251.868 312.403 250.848C312.403 250.041 312.368 249.103 312.297 248.035C312.225 246.967 312.095 245.662 311.905 244.119L317.031 243.728C317.221 245.864 317.411 247.608 317.601 248.961C317.815 250.29 318.099 251.31 318.455 252.022C318.811 252.711 319.262 253.185 319.808 253.446C320.378 253.707 321.114 253.838 322.015 253.838C322.941 253.838 323.617 254.099 324.045 254.621C324.472 255.12 324.685 255.725 324.685 256.437C324.685 257.244 324.424 257.908 323.902 258.43C323.404 258.929 322.656 259.178 321.659 259.178C321.066 259.178 320.378 259.095 319.595 258.929C318.811 258.763 318.028 258.419 317.245 257.896C316.486 257.351 315.845 256.52 315.323 255.404C314.777 256.757 314.017 257.73 313.044 258.324C312.071 258.893 310.813 259.178 309.271 259.178C308.108 259.178 307.052 258.964 306.102 258.537C305.153 258.11 304.488 257.374 304.109 256.33C303.658 257.161 303.159 257.778 302.613 258.181C302.068 258.585 301.415 258.858 300.655 259C299.92 259.119 299.042 259.178 298.021 259.178C297.095 259.178 296.158 259.024 295.209 258.715C294.259 258.407 293.452 257.718 292.788 256.65C291.933 257.718 290.937 258.407 289.797 258.715C288.658 259.024 287.388 259.178 285.988 259.178ZM321.658 259.178L322.014 253.838C322.868 253.838 323.58 253.755 324.15 253.589C324.743 253.423 325.218 253.09 325.574 252.592C325.953 252.094 326.274 251.334 326.535 250.314C326.796 249.293 327.045 247.928 327.283 246.22L332.409 247.074C332.338 247.596 332.243 248.225 332.124 248.961C332.029 249.673 331.982 250.361 331.982 251.026C331.982 251.975 332.302 252.687 332.943 253.162C333.607 253.613 334.853 253.838 336.681 253.838C337.607 253.838 338.271 254.099 338.675 254.621C339.102 255.12 339.315 255.725 339.315 256.437C339.315 257.244 339.054 257.908 338.532 258.43C338.034 258.929 337.298 259.178 336.325 259.178C334.426 259.178 332.895 258.941 331.733 258.466C330.593 257.991 329.775 257.244 329.276 256.223C328.635 257.101 327.888 257.754 327.033 258.181C326.203 258.608 325.325 258.881 324.399 259C323.473 259.119 322.56 259.178 321.658 259.178ZM331.661 267.33C330.949 267.33 330.356 267.081 329.881 266.583C329.407 266.108 329.169 265.539 329.169 264.874C329.169 264.162 329.407 263.557 329.881 263.058C330.356 262.584 330.949 262.346 331.661 262.346C332.35 262.346 332.931 262.584 333.406 263.058C333.904 263.557 334.153 264.162 334.153 264.874C334.153 265.539 333.904 266.108 333.406 266.583C332.931 267.081 332.35 267.33 331.661 267.33ZM325.467 267.33C324.779 267.33 324.185 267.081 323.687 266.583C323.212 266.108 322.975 265.539 322.975 264.874C322.975 264.162 323.212 263.557 323.687 263.058C324.185 262.584 324.779 262.346 325.467 262.346C326.155 262.346 326.737 262.584 327.211 263.058C327.71 263.557 327.959 264.162 327.959 264.874C327.959 265.539 327.71 266.108 327.211 266.583C326.737 267.081 326.155 267.33 325.467 267.33ZM336.294 259.178L336.65 253.838C337.86 253.838 338.739 253.648 339.284 253.268C339.83 252.865 340.103 252.129 340.103 251.061C340.103 250.325 340.008 249.471 339.818 248.498C339.652 247.525 339.427 246.54 339.142 245.543C338.857 244.546 338.584 243.621 338.323 242.766L343.485 241.342C343.77 242.149 344.055 243.099 344.34 244.19C344.648 245.282 344.909 246.433 345.123 247.644C345.336 248.854 345.443 250.029 345.443 251.168C345.443 252.901 345.158 254.301 344.589 255.369C344.043 256.413 343.319 257.22 342.417 257.79C341.515 258.335 340.53 258.703 339.462 258.893C338.394 259.083 337.338 259.178 336.294 259.178ZM336.97 238.637L336.365 236.18C337.054 236.085 337.599 235.991 338.003 235.896C337.623 235.587 337.291 235.195 337.006 234.721C336.721 234.246 336.579 233.724 336.579 233.154C336.579 231.92 336.97 231.03 337.754 230.484C338.561 229.939 339.439 229.666 340.388 229.666C340.72 229.666 341.053 229.689 341.385 229.737C341.717 229.784 342.002 229.844 342.239 229.915L341.99 232.3C341.753 232.253 341.515 232.205 341.278 232.158C341.041 232.11 340.792 232.086 340.53 232.086C340.127 232.086 339.795 232.193 339.534 232.407C339.296 232.597 339.178 232.846 339.178 233.154C339.178 233.653 339.368 234.08 339.747 234.436C340.127 234.768 340.519 235.006 340.922 235.148C341.753 234.911 342.5 234.661 343.165 234.4L343.877 236.75C342.975 237.059 341.895 237.391 340.637 237.747C339.403 238.103 338.181 238.399 336.97 238.637ZM347.057 267.224L344.886 262.346C347.544 261.397 349.502 260.222 350.76 258.822C352.018 257.422 352.647 255.95 352.647 254.408C352.647 253.387 352.409 252.283 351.935 251.097C351.46 249.886 350.843 248.605 350.083 247.252L355.103 244.796C355.696 245.887 356.207 247.015 356.634 248.178C357.085 249.317 357.429 250.254 357.666 250.99C357.975 252.105 358.426 252.865 359.019 253.268C359.612 253.648 360.455 253.838 361.547 253.838C362.472 253.838 363.149 254.099 363.576 254.621C364.003 255.12 364.217 255.725 364.217 256.437C364.217 257.244 363.956 257.908 363.433 258.43C362.911 258.929 362.164 259.178 361.191 259.178C359.577 259.178 358.331 258.715 357.453 257.79C356.812 259.759 355.613 261.587 353.857 263.272C352.125 264.957 349.858 266.274 347.057 267.224ZM361.186 259.178L361.542 253.838C362.468 253.838 363.132 253.731 363.536 253.518C363.963 253.28 364.224 252.841 364.319 252.2C364.414 251.536 364.438 250.551 364.39 249.246L363.714 232.442H369.232L369.944 249.815C370.015 251.215 369.968 252.497 369.801 253.66C369.659 254.799 369.291 255.784 368.698 256.615C368.128 257.445 367.238 258.086 366.028 258.537C364.841 258.964 363.227 259.178 361.186 259.178ZM374.707 259L373.96 232.442H379.442L380.19 259H374.707ZM406.171 259.748C403.608 259.748 401.448 259.534 399.692 259.107C397.959 258.68 396.571 258.086 395.526 257.327C394.506 256.567 393.758 255.689 393.284 254.692C392.833 253.696 392.607 252.628 392.607 251.488C392.607 250.254 392.761 249.02 393.07 247.786C393.378 246.528 393.687 245.46 393.996 244.582L398.659 245.721C398.493 246.409 398.327 247.133 398.161 247.893C397.995 248.652 397.912 249.364 397.912 250.029C397.912 250.883 398.173 251.643 398.695 252.307C399.241 252.972 400.178 253.494 401.507 253.874C402.86 254.23 404.723 254.408 407.096 254.408C409.185 254.431 410.894 254.372 412.223 254.23C413.552 254.063 414.572 253.743 415.284 253.268C415.996 252.794 416.471 252.105 416.708 251.204C416.946 250.302 417.029 249.127 416.958 247.679L416.21 232.442H421.657L422.369 248.106C422.44 249.673 422.594 250.871 422.832 251.702C423.069 252.509 423.437 253.067 423.935 253.375C424.434 253.684 425.098 253.838 425.929 253.838C426.831 253.838 427.495 254.099 427.922 254.621C428.373 255.12 428.599 255.725 428.599 256.437C428.599 257.244 428.338 257.908 427.816 258.43C427.293 258.929 426.546 259.178 425.573 259.178C424.457 259.178 423.401 258.976 422.404 258.573C421.431 258.146 420.684 257.398 420.162 256.33C419.188 257.374 417.978 258.146 416.53 258.644C415.106 259.142 413.504 259.451 411.724 259.57C409.944 259.712 408.093 259.771 406.171 259.748ZM404.498 251.132L403.501 247.359C404.782 247.074 405.72 246.813 406.313 246.576C406.93 246.338 407.239 246.065 407.239 245.757C407.239 245.496 407.061 245.187 406.705 244.831C406.349 244.475 405.981 244.06 405.601 243.585C405.245 243.087 405.067 242.505 405.067 241.841C405.067 240.868 405.459 239.99 406.242 239.206C407.049 238.423 408.366 237.676 410.194 236.964L411.867 240.381C410.917 240.761 410.241 241.105 409.838 241.414C409.458 241.722 409.268 242.019 409.268 242.304C409.268 242.612 409.446 242.968 409.802 243.372C410.182 243.775 410.55 244.238 410.906 244.76C411.285 245.282 411.475 245.864 411.475 246.504C411.475 246.908 411.404 247.323 411.262 247.75C411.119 248.154 410.811 248.557 410.336 248.961C409.861 249.341 409.161 249.72 408.236 250.1C407.31 250.48 406.064 250.824 404.498 251.132ZM425.572 259.178L425.928 253.838C427.305 253.838 428.373 253.755 429.132 253.589C429.892 253.399 430.414 253.102 430.699 252.699C431.007 252.295 431.161 251.749 431.161 251.061C431.161 250.325 431.066 249.471 430.877 248.498C430.71 247.525 430.497 246.54 430.236 245.543C429.975 244.546 429.702 243.621 429.417 242.766L434.543 241.342C434.828 242.149 435.125 243.099 435.433 244.19C435.742 245.282 435.991 246.421 436.181 247.608C436.395 248.795 436.501 249.946 436.501 251.061C436.501 252.794 436.217 254.206 435.647 255.298C435.077 256.366 434.282 257.184 433.262 257.754C432.265 258.3 431.102 258.68 429.773 258.893C428.468 259.083 427.067 259.178 425.572 259.178ZM434.757 267.33C434.045 267.33 433.452 267.081 432.977 266.583C432.502 266.108 432.265 265.539 432.265 264.874C432.265 264.162 432.502 263.557 432.977 263.058C433.452 262.584 434.045 262.346 434.757 262.346C435.445 262.346 436.027 262.584 436.501 263.058C437 263.557 437.249 264.162 437.249 264.874C437.249 265.539 437 266.108 436.501 266.583C436.027 267.081 435.445 267.33 434.757 267.33ZM428.563 267.33C427.874 267.33 427.281 267.081 426.783 266.583C426.308 266.108 426.071 265.539 426.071 264.874C426.071 264.162 426.308 263.557 426.783 263.058C427.281 262.584 427.874 262.346 428.563 262.346C429.251 262.346 429.832 262.584 430.307 263.058C430.805 263.557 431.055 264.162 431.055 264.874C431.055 265.539 430.805 266.108 430.307 266.583C429.832 267.081 429.251 267.33 428.563 267.33ZM439.604 267.224L437.432 262.346C440.09 261.397 442.048 260.222 443.306 258.822C444.564 257.422 445.193 255.95 445.193 254.408C445.193 253.387 444.955 252.283 444.481 251.097C444.006 249.886 443.389 248.605 442.63 247.252L447.649 244.796C448.243 245.887 448.753 247.015 449.18 248.178C449.631 249.317 449.975 250.254 450.212 250.99C450.521 252.105 450.972 252.865 451.565 253.268C452.159 253.648 453.001 253.838 454.093 253.838C455.018 253.838 455.695 254.099 456.122 254.621C456.549 255.12 456.763 255.725 456.763 256.437C456.763 257.244 456.502 257.908 455.98 258.43C455.457 258.929 454.71 259.178 453.737 259.178C452.123 259.178 450.877 258.715 449.999 257.79C449.358 259.759 448.159 261.587 446.403 263.272C444.671 264.957 442.404 266.274 439.604 267.224ZM453.732 259.178L454.088 253.838C454.777 253.838 455.334 253.767 455.762 253.624C456.212 253.482 456.58 253.173 456.865 252.699C457.174 252.224 457.447 251.5 457.684 250.527C457.921 249.554 458.182 248.237 458.467 246.576L463.594 247.466C463.499 247.964 463.38 248.605 463.238 249.388C463.095 250.147 463.024 250.824 463.024 251.417C463.024 252.177 463.214 252.77 463.594 253.197C463.973 253.624 464.709 253.838 465.801 253.838C466.37 253.838 466.857 253.767 467.26 253.624C467.664 253.482 468.008 253.173 468.293 252.699C468.578 252.2 468.839 251.453 469.076 250.456C469.313 249.435 469.539 248.059 469.752 246.326L474.95 247.145C474.784 248.023 474.63 248.913 474.487 249.815C474.368 250.717 474.309 251.429 474.309 251.951C474.309 252.473 474.523 252.924 474.95 253.304C475.377 253.66 476.172 253.838 477.335 253.838C478.356 253.838 479.08 253.601 479.507 253.126C479.934 252.628 480.148 251.868 480.148 250.848C480.148 250.041 480.112 249.103 480.041 248.035C479.97 246.967 479.839 245.662 479.649 244.119L484.776 243.728C484.965 245.864 485.155 247.608 485.345 248.961C485.559 250.29 485.844 251.31 486.2 252.022C486.556 252.711 487.006 253.185 487.552 253.446C488.122 253.707 488.858 253.838 489.76 253.838C490.685 253.838 491.362 254.099 491.789 254.621C492.216 255.12 492.43 255.725 492.43 256.437C492.43 257.244 492.168 257.908 491.646 258.43C491.148 258.929 490.4 259.178 489.404 259.178C488.81 259.178 488.122 259.095 487.339 258.929C486.556 258.763 485.772 258.419 484.989 257.896C484.23 257.351 483.589 256.52 483.067 255.404C482.521 256.757 481.761 257.73 480.788 258.324C479.815 258.893 478.557 259.178 477.015 259.178C475.852 259.178 474.796 258.964 473.846 258.537C472.897 258.11 472.232 257.374 471.853 256.33C471.402 257.161 470.903 257.778 470.358 258.181C469.812 258.585 469.159 258.858 468.4 259C467.664 259.119 466.786 259.178 465.765 259.178C464.84 259.178 463.902 259.024 462.953 258.715C462.003 258.407 461.196 257.718 460.532 256.65C459.678 257.718 458.681 258.407 457.542 258.715C456.402 259.024 455.133 259.178 453.732 259.178ZM471.639 235.967C470.951 235.967 470.369 235.729 469.895 235.255C469.444 234.78 469.218 234.211 469.218 233.546C469.218 232.881 469.444 232.312 469.895 231.837C470.369 231.363 470.951 231.125 471.639 231.125C472.327 231.125 472.897 231.363 473.348 231.837C473.823 232.312 474.06 232.881 474.06 233.546C474.06 234.211 473.823 234.78 473.348 235.255C472.897 235.729 472.327 235.967 471.639 235.967ZM468.72 241.164C468.032 241.164 467.45 240.915 466.976 240.417C466.501 239.918 466.264 239.337 466.264 238.672C466.264 238.032 466.501 237.474 466.976 236.999C467.45 236.501 468.032 236.252 468.72 236.252C469.361 236.252 469.918 236.501 470.393 236.999C470.868 237.474 471.105 238.032 471.105 238.672C471.105 239.337 470.868 239.918 470.393 240.417C469.918 240.915 469.361 241.164 468.72 241.164ZM474.594 241.164C473.929 241.164 473.372 240.915 472.921 240.417C472.47 239.918 472.244 239.337 472.244 238.672C472.244 238.032 472.47 237.474 472.921 236.999C473.372 236.501 473.929 236.252 474.594 236.252C475.258 236.252 475.828 236.501 476.303 236.999C476.801 237.474 477.05 238.032 477.05 238.672C477.05 239.337 476.801 239.918 476.303 240.417C475.828 240.915 475.258 241.164 474.594 241.164ZM489.402 259.178L489.758 253.838C490.683 253.838 491.348 253.731 491.751 253.518C492.179 253.28 492.44 252.841 492.535 252.2C492.63 251.536 492.653 250.551 492.606 249.246L491.929 232.442H497.447L498.159 249.815C498.231 251.215 498.183 252.497 498.017 253.66C497.875 254.799 497.507 255.784 496.913 256.615C496.344 257.445 495.454 258.086 494.243 258.537C493.057 258.964 491.443 259.178 489.402 259.178ZM502.923 259L502.175 232.442H507.658L508.405 259H502.923Z" fill="#164194"/>
</g>
<path d="M193.055 179.173C210.868 179.173 228.281 173.918 243.091 164.072C257.901 154.227 269.444 140.233 276.259 123.861C283.074 107.489 284.855 89.4746 281.378 72.0956C277.9 54.7165 269.319 38.7538 256.721 26.2264C244.123 13.699 228.073 5.16959 210.602 1.71699C193.13 -1.73561 175.022 0.043679 158.567 6.82983C142.113 13.616 128.05 25.1041 118.159 39.8413C108.268 54.5785 102.993 71.9026 103 89.6227C103 101.386 105.33 113.033 109.856 123.9C114.382 134.767 121.016 144.641 129.379 152.957C137.742 161.273 147.67 167.868 158.595 172.366C169.521 176.865 181.231 179.177 193.055 179.173Z" fill="white"/>
<path d="M193.055 175.974C210.232 175.974 227.023 170.907 241.305 161.413C255.587 151.919 266.717 138.425 273.289 122.637C279.86 106.85 281.578 89.4781 278.224 72.7195C274.871 55.9609 266.596 40.5681 254.448 28.4879C242.299 16.4078 226.822 8.18297 209.975 4.85377C193.127 1.52458 175.665 3.24054 159.798 9.78462C143.93 16.3287 130.37 27.4069 120.832 41.6182C111.295 55.8294 106.208 72.5352 106.215 89.6227C106.215 100.966 108.461 112.197 112.826 122.676C117.19 133.156 123.588 142.676 131.652 150.695C139.716 158.714 149.29 165.074 159.826 169.412C170.361 173.749 181.653 175.979 193.055 175.974Z" fill="#164194"/>
<path d="M193.056 170.414C209.121 170.385 224.817 165.619 238.16 156.719C251.503 147.818 261.894 135.183 268.021 120.409C274.147 105.635 275.733 89.3857 272.578 73.7153C269.424 58.0449 261.67 43.6564 250.298 32.3685C238.925 21.0806 224.444 13.3998 208.685 10.2969C192.925 7.19401 176.595 8.80832 161.757 14.9358C146.92 21.0632 134.241 31.4288 125.324 44.7225C116.407 58.0161 111.652 73.6411 111.659 89.6226C111.659 100.248 113.765 110.768 117.858 120.582C121.951 130.396 127.95 139.31 135.51 146.815C143.071 154.32 152.046 160.267 161.92 164.316C171.795 168.366 182.375 170.438 193.056 170.414Z" fill="white"/>
<path d="M113.705 89.6228C113.7 79.2552 115.749 68.9883 119.735 59.409C123.721 49.8296 129.566 41.1257 136.935 33.7947C144.305 26.4637 153.054 20.6494 162.684 16.6841C172.313 12.7188 182.634 10.6803 193.056 10.6851C203.477 10.6803 213.798 12.7188 223.428 16.6841C233.057 20.6494 241.807 26.4637 249.176 33.7947C256.545 41.1257 262.39 49.8296 266.376 59.409C270.362 68.9883 272.411 79.2552 272.407 89.6228C272.407 99.9873 270.354 110.25 266.366 119.825C262.377 129.401 256.532 138.1 249.163 145.427C241.794 152.754 233.046 158.566 223.419 162.529C213.792 166.492 203.474 168.529 193.056 168.524V167.579C203.349 167.59 213.543 165.579 223.053 161.662C232.563 157.746 241.203 152 248.477 144.756C255.76 137.52 261.535 128.925 265.472 119.464C269.409 110.003 271.431 99.8622 271.42 89.6228C271.437 79.3824 269.418 69.2398 265.481 59.7781C261.543 50.3165 255.765 41.7224 248.477 34.4899C241.21 27.2337 232.572 21.4785 223.061 17.5553C213.549 13.6321 203.352 11.6184 193.056 11.63C182.758 11.6124 172.559 13.6234 163.047 17.547C153.535 21.4705 144.898 27.2289 137.634 34.4899C130.335 41.7158 124.546 50.3078 120.602 59.7705C116.658 69.2331 114.637 79.379 114.654 89.6228C114.643 99.8657 116.667 110.01 120.611 119.472C124.555 128.933 130.34 137.526 137.634 144.756C144.904 152.005 153.544 157.754 163.055 161.671C172.566 165.588 182.762 167.596 193.056 167.579V168.524C182.637 168.529 172.319 166.492 162.692 162.529C153.065 158.566 144.317 152.754 136.948 145.427C129.579 138.1 123.734 129.401 119.746 119.825C115.757 110.25 113.705 99.9873 113.705 89.6228Z" fill="#164194"/>
<path d="M193.056 145.664C204.197 145.664 215.089 142.378 224.353 136.22C233.618 130.062 240.838 121.309 245.102 111.069C249.366 100.829 250.482 89.5608 248.308 78.6898C246.134 67.8189 240.769 57.8332 232.89 49.9957C225.012 42.1582 214.974 36.8208 204.046 34.6584C193.118 32.496 181.791 33.6058 171.497 37.8475C161.203 42.0891 152.405 49.2721 146.215 58.488C140.025 67.704 136.721 78.539 136.721 89.623C136.721 104.486 142.656 118.74 153.221 129.25C158.452 134.454 164.662 138.582 171.497 141.398C178.332 144.215 185.658 145.664 193.056 145.664Z" fill="white"/>
<path d="M191.557 37.688C190.388 44.0117 182.716 44.0117 178.478 47.3917C176.212 49.1819 174.669 51.7231 174.131 54.5513C170.112 52.5161 166.203 49.4996 162.038 47.8641C170.49 41.3652 180.875 37.849 191.557 37.8697" fill="#164194"/>
<path d="M223.086 46.9192L212.93 53.57C211.76 46.3014 203.723 44.2298 198.316 41.9765C197.22 40.8135 195.576 39.3234 196.197 37.688C205.914 38.1124 215.301 41.3177 223.232 46.9192" fill="#164194"/>
<path d="M196.709 43.6486C201.896 46.4106 210.08 47.2829 211.322 54.806C211.066 55.5692 210.116 55.8962 209.641 56.296C209.167 46.556 197.658 48.4459 193.969 41.0682C190.096 48.5186 177.711 47.1012 177.857 57.3863C177.017 56.9865 175.409 56.0416 176.286 54.5515C178.405 46.338 188.269 46.8831 193.019 41.2135L193.713 38.2334C194.062 40.3253 195.119 42.2359 196.709 43.6486Z" fill="#164194"/>
<path d="M194.005 46.8467C194.005 47.0647 194.005 47.4645 194.005 47.6099C194.005 47.7553 193.603 47.3191 193.348 47.2101C193.092 47.1011 194.005 46.0471 194.151 46.8467" fill="#164194"/>
<path d="M196.049 48.6999C196.049 49.027 196.049 49.2814 195.759 49.4994H195.686V48.3364C196.013 48.3364 196.085 48.5545 196.231 48.6999" fill="#164194"/>
<path d="M192.03 48.7001C192.03 48.9545 192.03 49.3542 192.03 49.4996H191.63V48.5547C191.63 48.5547 192.102 48.5547 192.175 48.5547" fill="#164194"/>
<path d="M156.559 61.3478C151.59 64.1826 150.202 71.9964 143.881 71.3422C146.737 63.5599 151.541 56.6303 157.837 51.208C156.372 54.3763 155.925 57.9175 156.559 61.3478Z" fill="#164194"/>
<path d="M194.553 57.2047H192.288L193.859 51.5352C193.804 53.4489 194.038 55.3601 194.553 57.2047Z" fill="#164194"/>
<path d="M241.499 70.2152C236.055 69.8154 234.192 63.2372 229.406 60.8022C230.227 58.2459 230.488 55.5446 230.173 52.8794C235.255 57.7008 239.134 63.6374 241.499 70.2152Z" fill="#164194"/>
<path d="M242.266 71.8512V72.1056C234.704 77.1936 242.595 88.6418 234.411 93.3664C231.895 94.7048 229.021 95.2258 226.191 94.8565C226.666 93.0393 229.589 93.7662 231.16 92.8213C240.622 89.9865 235.873 78.7564 240.549 72.7234C235.873 71.5604 232.219 67.5263 228.566 64.5825L228.785 63.2378C233.133 66.2906 236.384 72.4327 242.193 71.8512" fill="#164194"/>
<path d="M158.056 64.3277C154.403 68.3255 150.749 72.723 145.744 73.7407C146.292 75.2307 147.644 76.3937 148.192 77.9201C149.836 84.2802 150.019 93.039 158.202 94.8561C159.371 95.3286 160.979 94.6017 161.856 95.8011C159.997 96.227 158.062 96.1912 156.22 95.6968C154.379 95.2024 152.688 94.2646 151.297 92.9663C145.635 87.4784 151.297 76.9752 142.931 73.0501C149.799 74.5402 152.466 66.363 157.289 63.3828L158.093 64.3277H158.056Z" fill="#164194"/>
<path d="M230.903 72.2505C230.903 72.5049 230.903 72.8683 230.903 73.05H230.648V71.8507C230.704 71.8361 230.762 71.8362 230.817 71.8511C230.872 71.866 230.922 71.8952 230.963 71.9356C231.003 71.9761 231.032 72.0265 231.047 72.0817C231.062 72.137 231.062 72.1951 231.048 72.2505" fill="#164194"/>
<path d="M157.106 73.0502C157.106 73.0502 157.106 73.2682 157.106 73.3409C157.106 73.4136 156.522 73.3409 156.302 73.0502C156.047 72.1779 157.471 72.1779 157.252 73.0502" fill="#164194"/>
<path d="M229.187 74.6856C229.187 74.6856 228.931 75.1581 228.639 75.0854C228.527 75.0441 228.431 74.9697 228.362 74.8723C228.294 74.7748 228.258 74.659 228.258 74.5403C228.258 74.4216 228.294 74.3057 228.362 74.2083C228.431 74.1108 228.527 74.0364 228.639 73.9951C229.114 73.9951 229.041 74.4312 229.187 74.6856Z" fill="#164194"/>
<path d="M232.95 73.9951C232.95 74.2859 232.95 74.6857 232.95 74.9037C232.95 75.1218 232.548 74.613 232.402 74.5403C232.256 74.4676 232.402 73.8134 233.096 73.9951" fill="#164194"/>
<path d="M159.152 74.9038C159.152 74.9038 158.933 75.3036 158.604 75.2309L158.202 74.9038L158.823 74.1406C159.079 74.3587 159.079 74.6131 159.152 74.9038Z" fill="#164194"/>
<path d="M230.174 126.366L226.52 129.673C225.497 122.004 234.484 117.134 232.329 108.812C231.487 106.621 230.17 104.641 228.471 103.014C226.773 101.387 224.734 100.153 222.501 99.3989C222.501 93.9837 228.383 97.9088 231.233 96.7458C233.048 96.4639 234.769 95.7522 236.251 94.6707C237.732 93.5891 238.931 92.1695 239.745 90.5311C242.741 85.4431 238.54 78.6105 242.96 74.0312C245.854 83.0882 246.184 92.7628 243.916 101.994C241.647 111.226 236.868 119.658 230.1 126.366" fill="#164194"/>
<path d="M155.204 74.904C155.204 75.2311 155.204 75.4128 154.805 75.6308V74.5405C155.022 74.5405 155.204 74.7586 155.349 74.904" fill="#164194"/>
<path d="M148.192 92.0213C149.123 93.6124 150.389 94.9849 151.902 96.0449C153.415 97.1049 155.14 97.8275 156.96 98.1633C159.28 98.2142 161.6 98.0927 163.902 97.7999L164.523 99.29C162.301 99.9872 160.27 101.182 158.585 102.782C156.901 104.382 155.607 106.346 154.805 108.521C152.832 116.698 160.248 121.932 161.673 129.237L161.088 131.09C153.171 125.076 147.138 116.943 143.696 107.643C140.255 98.343 139.546 88.2603 141.653 78.5743L142.712 75.1943C149.471 78.0291 144.648 87.0423 148.009 92.1303" fill="#164194"/>
<path d="M232.219 84.0987C231.123 83.699 230.868 85.0437 230.466 85.5888C230.246 85.1163 230.246 84.4985 229.772 84.0987L228.566 84.3531L230.831 77.0845C230.997 79.4711 231.463 81.8276 232.219 84.0987Z" fill="#164194"/>
<path d="M158.823 84.4983C157.801 84.2802 157.399 85.1161 157.106 85.843V86.2064C156.851 85.4432 156.23 83.7714 155.061 84.6437C155.867 82.2573 156.55 79.8312 157.106 77.375C157.147 79.7995 157.734 82.184 158.823 84.3529" fill="#164194"/>
<path d="M165.472 102.234V102.924C162.294 104.414 158.604 107.177 158.604 111.029C158.129 118.298 164.998 122.15 164.267 129.201C165.363 130.073 166.386 128.51 167.664 128.655C171.829 128.365 183.666 129.6 186.443 126.22C187.137 126.22 187.612 126.475 188.16 126.802C187.537 127.948 186.635 128.92 185.538 129.631C184.44 130.342 183.182 130.769 181.876 130.872C175.41 131.49 167.993 126.075 162.769 131.963C166.715 122.804 153.161 116.844 157.654 107.104C158.387 105.631 159.413 104.321 160.669 103.253C161.924 102.185 163.384 101.381 164.961 100.889L165.363 102.088L165.472 102.234Z" fill="#164194"/>
<path d="M230.356 109.902C231.306 118.007 221.844 122.368 224.438 130.472C216.474 125.929 206.171 136.832 199.303 127.419C199.303 126.765 199.997 126.293 200.472 126.075C201.897 126.474 202.372 127.783 203.614 128.582C209.788 132.98 216.327 127.238 222.94 128.909C223.342 128.11 222.94 126.547 223.342 125.53C225.863 119.787 232.11 112.519 226.191 106.304C224.639 104.975 222.839 103.962 220.894 103.324C220.346 102.452 221.223 101.834 221.442 101.034C225.095 102.379 229.954 105.613 230.356 109.902Z" fill="#164194"/>
<path d="M215.377 111.392C214.902 111.647 214.902 111.102 214.683 110.847C214.464 110.593 214.902 110.084 215.377 110.302V111.392Z" fill="#164194"/>
<path d="M173.181 110.848C173.181 111.102 173.181 111.502 173.181 111.647C173.181 111.792 172.779 111.32 172.56 111.247C172.158 110.557 173.327 110.157 173.327 110.848" fill="#164194"/>
<path d="M217.602 113.137C217.384 113.137 217.311 113.137 217.203 113.137C217.094 113.137 216.767 112.047 217.203 112.047C217.638 112.047 217.203 112.665 217.42 112.992" fill="#164194"/>
<path d="M175.224 112.882C175.269 112.94 175.293 113.01 175.293 113.082C175.293 113.155 175.269 113.225 175.224 113.282H174.825V112.337C175.37 112.119 175.224 112.737 175.37 112.882" fill="#164194"/>
<path d="M171.281 112.882C171.281 113.21 171.281 113.537 171.281 113.682C171.281 113.827 170.879 113.464 170.66 113.282C170.441 113.101 171.427 112.119 171.427 112.882" fill="#164194"/>
<path d="M213.474 113.537H212.93V112.592H213.474V113.537Z" fill="#164194"/>
<path d="M174.533 122.55C173.729 122.005 172.889 123.313 172.779 123.894C172.759 123.679 172.692 123.47 172.584 123.282C172.476 123.094 172.329 122.931 172.153 122.804C171.977 122.676 171.775 122.588 171.562 122.544C171.349 122.5 171.128 122.502 170.916 122.55C171.934 120.329 172.647 117.982 173.035 115.572C173.308 117.94 173.81 120.277 174.533 122.55Z" fill="#164194"/>
<path d="M216.875 122.695C216.875 122.368 216.4 122.695 216.181 122.695L215.231 124.185C215.145 123.611 214.861 123.084 214.427 122.695H213.478L215.377 115.426C215.752 117.873 216.252 120.299 216.875 122.695Z" fill="#164194"/>
<path d="M208.034 133.453C213.258 133.743 217.898 130.109 222.94 132.435C215.336 137.612 206.516 140.744 197.336 141.527C188.156 142.311 178.929 140.718 170.55 136.905L164.486 133.271C165.157 132.547 165.979 131.978 166.893 131.601C167.808 131.225 168.794 131.05 169.783 131.09C176.25 132.108 185.712 135.415 190.205 128.292C191.334 128.733 192.546 128.925 193.757 128.856C194.968 128.787 196.149 128.458 197.22 127.892C198.415 129.67 200.053 131.11 201.974 132.071C203.894 133.033 206.032 133.484 208.18 133.38" fill="#164194"/>
<path d="M238.321 103.179C234.939 103.497 231.561 102.536 228.858 100.489C228.858 99.4715 229.735 99.0717 230.502 98.999C233.522 99.4311 236.292 100.912 238.321 103.179Z" fill="white"/>
<path d="M156.704 100.889C156.704 102.852 154.585 103.07 153.307 103.724C151.641 104.174 149.915 104.358 148.192 104.269C149.16 103.05 150.392 102.064 151.796 101.384C153.2 100.705 154.741 100.349 156.302 100.344L156.704 100.889Z" fill="white"/>
<path d="M195.686 130.473C195.657 132.837 195.199 135.176 194.334 137.378C193.713 135.016 191.594 131.345 194.042 129.128C194.426 129.142 194.795 129.281 195.092 129.524C195.389 129.767 195.598 130.1 195.686 130.473Z" fill="white"/>
<path d="M129.925 107.794C130.071 108.435 130.344 109.041 130.729 109.575L128.537 108.848C128.25 108.77 127.991 108.612 127.791 108.394C127.59 108.175 127.456 107.904 127.405 107.613L126.272 102.343L123.021 103.106C122.537 103.154 122.08 103.347 121.708 103.658C121.337 103.969 121.068 104.385 120.938 104.85L119.586 99.1445C120.134 99.8714 120.975 100.017 122.217 99.726L131.277 97.6181C132.519 97.3273 133.177 96.8185 133.36 95.9463L136.282 109.066C136.081 109 135.863 109 135.661 109.066C135.405 109.066 134.529 109.72 132.885 110.593C133.397 108.873 133.397 107.042 132.885 105.323L131.898 101.143L128.464 101.798L129.925 107.794Z" fill="#164194"/>
<path d="M135.698 123.386C136.273 123.174 136.795 122.838 137.225 122.403C137.655 121.967 137.984 121.442 138.186 120.866C138.388 120.289 138.46 119.676 138.396 119.068C138.333 118.461 138.135 117.875 137.816 117.353C137.558 116.736 137.166 116.184 136.667 115.737C136.168 115.29 135.575 114.959 134.932 114.768C134.289 114.576 133.61 114.53 132.947 114.631C132.283 114.732 131.65 114.979 131.094 115.354C130.526 115.569 130.012 115.906 129.59 116.342C129.167 116.777 128.847 117.3 128.652 117.873C128.456 118.446 128.39 119.055 128.459 119.656C128.528 120.257 128.729 120.836 129.048 121.351C129.3 121.964 129.685 122.514 130.176 122.961C130.667 123.408 131.252 123.741 131.888 123.936C132.524 124.13 133.196 124.182 133.855 124.087C134.514 123.992 135.143 123.752 135.698 123.386ZM126.82 122.695C126.227 121.842 125.825 120.873 125.641 119.852C125.456 118.832 125.493 117.783 125.749 116.778C126.005 115.773 126.474 114.834 127.125 114.024C127.776 113.214 128.594 112.552 129.523 112.083C130.454 111.561 131.488 111.248 132.552 111.166C133.617 111.085 134.687 111.237 135.687 111.611C136.687 111.985 137.592 112.573 138.338 113.332C139.085 114.092 139.655 115.005 140.008 116.008C140.618 116.869 141.032 117.851 141.222 118.887C141.413 119.923 141.374 120.987 141.11 122.007C140.846 123.027 140.363 123.977 139.693 124.792C139.023 125.608 138.184 126.269 137.232 126.729C136.299 127.229 135.268 127.522 134.21 127.586C133.152 127.65 132.093 127.484 131.106 127.101C130.119 126.717 129.227 126.124 128.494 125.363C127.76 124.603 127.201 123.692 126.856 122.695H126.82Z" fill="#164194"/>
<path d="M146.767 137.196C147.263 136.844 147.674 136.387 147.971 135.858C148.268 135.329 148.444 134.742 148.486 134.137C148.528 133.533 148.435 132.927 148.213 132.362C147.992 131.798 147.648 131.289 147.206 130.872C146.802 130.339 146.283 129.903 145.686 129.597C145.09 129.291 144.431 129.123 143.761 129.106C143.09 129.088 142.424 129.222 141.812 129.496C141.2 129.771 140.659 130.179 140.228 130.691C139.729 131.042 139.316 131.499 139.018 132.03C138.72 132.56 138.545 133.151 138.507 133.757C138.468 134.363 138.567 134.971 138.795 135.534C139.023 136.098 139.375 136.604 139.826 137.014C140.231 137.538 140.748 137.966 141.339 138.267C141.93 138.568 142.581 138.735 143.245 138.756C143.908 138.776 144.569 138.651 145.178 138.387C145.787 138.124 146.33 137.73 146.767 137.233V137.196ZM137.999 138.868C134.346 134.943 134.528 130.872 137.816 127.965C138.577 127.214 139.494 126.638 140.503 126.279C141.512 125.92 142.587 125.786 143.654 125.886C144.721 125.987 145.752 126.32 146.676 126.861C147.599 127.402 148.391 128.139 148.996 129.019C149.773 129.701 150.396 130.54 150.822 131.48C151.249 132.42 151.469 133.439 151.469 134.47C151.469 135.502 151.249 136.521 150.822 137.461C150.396 138.401 149.773 139.24 148.996 139.922C148.23 140.629 147.321 141.164 146.33 141.492C145.339 141.82 144.288 141.933 143.249 141.823C142.211 141.712 141.208 141.382 140.308 140.853C139.409 140.325 138.634 139.611 138.036 138.759L137.999 138.868Z" fill="#164194"/>
<path d="M151.626 148.172L152.028 147.517L157.179 139.885L156.595 139.486C155.159 138.394 153.43 137.749 151.626 137.632C153.015 136.433 153.891 135.851 154.038 135.597C154.1 135.396 154.1 135.18 154.038 134.979L165.619 142.684C165.412 142.744 165.231 142.872 165.107 143.047C165.107 143.265 164.742 144.283 164.157 146.064C163.344 144.442 162.075 143.091 160.504 142.175L160.066 141.775L154.914 149.407C154.61 149.794 154.421 150.258 154.369 150.747C154.318 151.235 154.405 151.728 154.622 152.169L149.727 149.044C150.083 149.094 150.446 149.05 150.779 148.916C151.113 148.782 151.405 148.563 151.626 148.281V148.172Z" fill="#164194"/>
<path d="M172.085 151.043C173.912 151.661 174.934 151.479 175.336 150.316C175.738 149.153 175.008 148.535 173.437 147.99L169.783 146.791L168.724 149.916L172.048 151.043H172.085ZM171.098 157.076C172.962 157.694 174.131 157.403 174.533 156.204C174.934 155.004 174.131 154.205 172.231 153.587L167.993 152.133L166.824 155.768L171.098 157.221V157.076ZM163.573 154.423L166.459 145.773C166.861 144.574 166.824 143.702 166.13 143.047L173.437 145.591C177.638 147.009 179.647 148.426 178.77 151.043C178.534 151.709 178.075 152.275 177.47 152.645C176.865 153.016 176.151 153.168 175.446 153.078C177.711 154.168 178.442 155.549 177.821 157.403C176.834 160.238 174.167 160.674 169.601 159.111L161.636 156.313C162.586 156.313 163.134 155.622 163.573 154.386V154.423Z" fill="#164194"/>
<path d="M189.731 157.367L187.283 150.571L183.849 156.858L189.731 157.367ZM195.686 163.073H190.425C190.734 162.776 190.917 162.373 190.936 161.946C190.981 161.657 190.981 161.363 190.936 161.074L190.571 159.947L182.46 159.22L182.095 159.875C181.952 160.158 181.865 160.467 181.839 160.783C181.806 161.327 181.99 161.863 182.351 162.273L176.907 161.074C177.629 160.592 178.25 159.975 178.734 159.257L184.725 149.444C184.862 149.259 184.961 149.049 185.018 148.826C185.049 148.658 185.049 148.486 185.018 148.317L190.863 148.826C190.763 148.983 190.689 149.155 190.644 149.335C190.595 149.55 190.595 149.774 190.644 149.989L194.297 160.892C194.635 161.762 195.13 162.562 195.759 163.255L195.686 163.073Z" fill="#164194"/>
<path d="M194.882 149.044L200.728 148.245C200.328 148.521 200.025 148.915 199.862 149.371C199.698 149.827 199.681 150.323 199.814 150.789L201.093 159.947L205.075 159.402C207.035 159.253 208.882 158.431 210.299 157.076C209.939 158.27 209.646 159.484 209.423 160.71C209.489 160.934 209.615 161.135 209.788 161.292L196.819 163.109C197.586 162.637 197.805 161.801 197.659 160.565L196.344 151.407C196.344 150.171 195.723 149.444 194.846 149.19L194.882 149.044Z" fill="#164194"/>
<path d="M206.938 147.627L212.491 145.664C212.16 146.021 211.947 146.47 211.881 146.951C211.816 147.433 211.901 147.922 212.126 148.353L215.268 157.04L218.921 155.695C220.835 155.136 222.482 153.911 223.561 152.242C223.49 153.453 223.49 154.666 223.561 155.877C223.561 156.058 223.817 156.167 224.036 156.349L211.687 160.747C212.014 160.393 212.218 159.945 212.271 159.468C212.323 158.99 212.221 158.509 211.98 158.093L208.874 149.371C208.436 148.172 207.851 147.59 206.938 147.518V147.627Z" fill="#164194"/>
<path d="M240.695 145.773C239.818 146.391 238.722 147.772 237.042 149.044C236.303 149.748 235.418 150.281 234.448 150.605C233.479 150.928 232.449 151.035 231.433 150.917C230.418 150.799 229.441 150.459 228.572 149.922C227.704 149.384 226.966 148.663 226.41 147.808C225.764 146.937 225.314 145.937 225.092 144.876C224.87 143.816 224.881 142.72 225.124 141.664C225.366 140.608 225.836 139.617 226.499 138.758C227.162 137.899 228.005 137.193 228.968 136.687C230.941 135.27 232.621 134.761 233.388 134.216C233.61 134.065 233.807 133.881 233.973 133.671L234.959 137.305C233.391 137.313 231.866 137.823 230.612 138.759C230.061 139.087 229.585 139.525 229.213 140.045C228.841 140.565 228.581 141.156 228.451 141.781C228.32 142.406 228.322 143.052 228.455 143.676C228.588 144.301 228.849 144.891 229.223 145.41C229.534 145.983 229.972 146.478 230.505 146.857C231.037 147.235 231.651 147.487 232.297 147.592C232.943 147.697 233.604 147.654 234.231 147.464C234.857 147.275 235.431 146.945 235.909 146.5C237.443 145.341 238.693 143.849 239.562 142.139L241.754 145.228C241.419 145.33 241.1 145.477 240.805 145.664L240.695 145.773Z" fill="#164194"/>
<path d="M233.754 133.562L237.663 129.128C237.543 129.601 237.573 130.1 237.75 130.556C237.926 131.011 238.24 131.401 238.649 131.672L245.627 137.741L248.257 134.761C249.611 133.327 250.401 131.457 250.486 129.491C251.007 130.626 251.592 131.73 252.24 132.799C252.24 132.799 252.605 132.799 252.897 132.799L244.239 142.648C244.494 141.775 244.239 140.976 243.179 140.14L236.201 134.071C235.251 133.235 234.448 132.98 233.607 133.38L233.754 133.562Z" fill="#164194"/>
<path d="M258.268 124.985C256.003 129.056 253.263 130.146 249.975 128.329L244.422 125.276C243.252 124.658 242.376 124.585 241.645 125.276L244.495 120.188C244.495 121.133 244.933 121.75 246.066 122.405L251.546 125.421C251.946 125.663 252.398 125.807 252.865 125.844C253.332 125.88 253.801 125.807 254.235 125.63C254.668 125.454 255.054 125.178 255.361 124.826C255.668 124.474 255.888 124.056 256.003 123.604C256.29 123.255 256.492 122.846 256.595 122.407C256.698 121.969 256.698 121.512 256.596 121.073C256.494 120.634 256.291 120.225 256.005 119.876C255.718 119.527 255.355 119.248 254.943 119.061L249.463 116.335C248.404 115.754 247.637 115.536 246.723 116.335L249.573 111.211C249.573 112.083 250.011 112.846 251.144 113.464L256.733 116.517C260.021 118.334 260.387 121.205 258.268 125.312V124.985Z" fill="#164194"/>
<path d="M263.236 104.269C263.675 102.343 263.236 101.253 262.031 100.962C260.825 100.671 260.058 101.543 259.62 103.506L258.633 107.831L262.287 108.667L263.31 104.269H263.236ZM257.135 103.906C257.537 102.052 257.135 101.035 256.039 100.78C254.943 100.526 254.286 101.253 253.92 102.888L253.08 106.522L256.332 107.286L257.135 103.869V103.906ZM261.446 112.01L252.496 109.939C251.253 109.648 250.377 109.939 249.829 110.557L251.582 102.924C252.569 98.5996 253.811 96.4554 256.514 97.0732C257.2 97.2382 257.808 97.6304 258.24 98.1852C258.672 98.7401 258.9 99.4246 258.889 100.126C259.729 97.8001 261.044 96.9279 262.981 97.364C265.903 98.0545 266.634 100.635 265.538 105.323L263.602 113.682C263.419 112.774 262.725 112.301 261.446 112.01Z" fill="#164194"/>
<path d="M120.208 79.9917L121.486 74.2494C121.607 74.7201 121.872 75.1414 122.246 75.4543C122.619 75.7671 123.082 75.9558 123.569 75.9939L132.629 77.9928L133.579 74.1041C134.127 72.1994 133.972 70.1622 133.14 68.3618C134.127 69.1216 135.165 69.8137 136.246 70.4334C136.461 70.494 136.688 70.494 136.903 70.4334L134.09 83.1899C133.871 82.2813 133.213 81.7725 131.971 81.5181L122.911 79.5192C122.463 79.3331 121.967 79.2926 121.495 79.4036C121.023 79.5146 120.598 79.7713 120.281 80.1371L120.208 79.9917Z" fill="#164194"/>
<path d="M135.369 67.1627L127.112 62.9469C126.715 62.6733 126.243 62.5268 125.76 62.5268C125.277 62.5268 124.806 62.6733 124.409 62.9469L131.167 49.8633C131.251 50.0477 131.392 50.2006 131.569 50.2994C132.593 50.5581 133.63 50.7643 134.675 50.9172C133.17 51.9126 131.98 53.3112 131.24 54.9513L128.683 59.9304L131.606 61.4568L134.455 55.9326C134.751 55.3558 134.925 54.7251 134.967 54.0791L136.209 56.0416C136.36 56.2945 136.44 56.5833 136.44 56.8775C136.44 57.1718 136.36 57.4605 136.209 57.7134L133.688 62.5471L136.867 64.1462L139.57 58.9128C140.591 57.2089 140.955 55.1939 140.593 53.2432C141.353 54.2228 142.183 55.1459 143.077 56.0053C143.302 56.0828 143.547 56.0828 143.772 56.0053L136.903 69.307C136.903 68.3984 136.428 67.7442 135.296 67.1627H135.369Z" fill="#164194"/>
<path d="M138.511 44.3756L145.818 50.0089C146.841 50.8084 147.681 51.0265 148.521 50.5903L144.868 55.1696C145.087 54.261 144.868 53.5342 143.662 52.7346L136.355 47.1014C135.332 46.3018 134.492 46.0838 133.688 46.5199L137.342 41.9043C137.086 42.8129 137.342 43.5761 138.511 44.3756Z" fill="#164194"/>
<path d="M157.545 41.6856C156.778 42.3761 155.828 43.8662 154.184 45.3199C153.536 46.1102 152.72 46.7472 151.794 47.1846C150.869 47.6221 149.857 47.849 148.832 47.849C147.807 47.849 146.795 47.6221 145.869 47.1846C144.943 46.7472 144.127 46.1102 143.479 45.3199C142.742 44.5261 142.184 43.5842 141.843 42.5576C141.502 41.531 141.387 40.4437 141.505 39.3689C141.622 38.2942 141.97 37.2571 142.525 36.3276C143.08 35.3981 143.829 34.5979 144.722 33.9808C146.029 32.9131 147.395 31.9182 148.813 31.0006C148.998 30.8157 149.157 30.6081 149.288 30.3828L150.75 33.7991C149.186 34.028 147.724 34.7107 146.548 35.7616C146.028 36.1664 145.6 36.6763 145.292 37.2576C144.984 37.839 144.803 38.4786 144.762 39.1345C144.72 39.7903 144.819 40.4474 145.052 41.0625C145.284 41.6776 145.645 42.2368 146.11 42.7032C146.487 43.2341 146.981 43.6721 147.554 43.9835C148.127 44.2949 148.765 44.4714 149.418 44.4995C150.07 44.5276 150.721 44.4065 151.319 44.1455C151.917 43.8845 152.447 43.4906 152.869 42.9939C154.224 41.673 155.25 40.055 155.864 38.2693L158.458 41.0677C158.117 41.1795 157.805 41.3657 157.545 41.6129V41.6856Z" fill="#164194"/>
<path d="M158.568 38.0151L154.22 29.8742C153.636 28.7476 152.942 28.2388 152.028 28.3115L165.144 21.4062C165.068 21.6053 165.068 21.825 165.144 22.0241C165.144 22.2421 166.094 22.9327 167.372 24.2774C165.589 24.2023 163.82 24.6173 162.258 25.4767L157.289 28.1298L158.824 31.0009L164.34 28.1298C164.918 27.8217 165.427 27.4015 165.838 26.8941V29.1837C165.826 29.484 165.731 29.7751 165.563 30.0252C165.396 30.2752 165.162 30.4745 164.888 30.6011L160.066 33.1451L161.746 36.2707L167.007 33.5086C168.787 32.671 170.22 31.2453 171.062 29.4745C171.133 30.6956 171.292 31.9102 171.537 33.1088C171.537 33.1088 171.793 33.3995 172.049 33.5449L158.787 40.5228C159.072 40.1319 159.226 39.6612 159.226 39.1781C159.226 38.6951 159.072 38.2244 158.787 37.8334L158.568 38.0151Z" fill="#164194"/>
<path d="M178.222 29.8381C180.524 29.2566 181.511 28.3843 181.218 27.185C180.926 25.9857 179.245 26.0584 176.432 26.3491C172.962 26.7125 170.989 25.8766 170.477 23.7687C169.966 21.6608 171.72 18.8987 175.665 17.9538C178.149 17.336 180.122 17.336 181.182 17.0816C181.377 17.027 181.562 16.9411 181.73 16.8271V20.4615C179.905 19.9274 177.965 19.9274 176.14 20.4615C174.46 20.8613 173.692 21.5881 173.912 22.4604C174.131 23.3326 175.811 23.2599 178.844 23.1145C181.876 22.9692 184.177 23.6233 184.762 25.9857C185.456 28.9295 183.41 31.2554 178.844 32.3457C176.761 32.8546 175.19 32.9272 174.313 33.109C174.066 33.1804 173.832 33.2908 173.619 33.436L171.829 29.8017C173.93 30.3089 176.122 30.3089 178.222 29.8017V29.8381Z" fill="#164194"/>
<path d="M189.11 28.6388C189.11 28.6388 189.11 28.2754 189.11 27.8393L188.708 18.6808H188.014C186.206 18.6411 184.426 19.1343 182.899 20.0981C183.301 18.281 183.666 17.2997 183.666 17.009C183.643 16.8044 183.553 16.613 183.41 16.4638L197.33 15.8823C197.2 16.0499 197.123 16.2525 197.11 16.4638C197.11 16.7182 197.549 17.6995 198.133 19.444C196.518 18.6401 194.708 18.3003 192.909 18.4627H192.032L192.398 27.6212C192.378 28.1155 192.497 28.6054 192.743 29.0357C192.988 29.466 193.349 29.8194 193.786 30.0562L187.904 30.2743C188.223 30.1126 188.493 29.8689 188.686 29.5686C188.878 29.2683 188.987 28.9222 189 28.5661L189.11 28.6388Z" fill="#164194"/>
<path d="M197.987 27.5847L199.668 18.4988C199.923 17.2632 199.668 16.4273 198.937 15.9185L213.551 18.5715C213.399 18.7104 213.286 18.8856 213.222 19.0803C213.222 19.3711 213.222 20.3887 213.514 22.2422C212.138 21.079 210.448 20.3457 208.655 20.1343L202.992 19.1167L202.371 22.3512L208.509 23.4779C209.148 23.6091 209.806 23.6091 210.445 23.4779L208.911 25.2223C208.712 25.4406 208.458 25.6026 208.176 25.6919C207.894 25.7813 207.593 25.7948 207.303 25.7312L201.933 24.7499L201.312 28.3842L207.157 29.4382C209.074 29.9081 211.097 29.6759 212.856 28.784C212.145 29.8091 211.498 30.8772 210.92 31.9822C210.86 32.1838 210.86 32.3984 210.92 32.6L196.307 29.9106C197.183 29.7289 197.658 29.0021 197.878 27.7664L197.987 27.5847Z" fill="#164194"/>
<path d="M222.976 29.1113C225.022 30.0926 226.082 30.0926 226.63 28.7115C227.178 27.3305 226.63 26.5673 224.584 25.586L221.259 24.0959L219.542 27.7302L222.94 29.3657L222.976 29.1113ZM217.277 35.1079L212.016 32.7456C212.929 32.7456 213.587 32.2005 214.135 31.0375L218.19 22.7876C218.47 22.3945 218.621 21.9246 218.621 21.4428C218.621 20.9611 218.47 20.4912 218.19 20.0981L225.68 23.7325C226.987 24.299 228.215 25.032 229.333 25.9131C229.952 26.4931 230.359 27.2612 230.492 28.0966C230.624 28.9321 230.473 29.7875 230.064 30.5287C229.558 31.3843 228.755 32.0264 227.806 32.3343C226.857 32.6422 225.828 32.5946 224.912 32.2005C225.632 33.1055 226.054 34.2099 226.118 35.3623C226.119 36.9681 226.467 38.5549 227.141 40.0143L221.698 37.3612C221.852 37.3303 221.998 37.2653 222.125 37.171C222.251 37.0767 222.355 36.9554 222.428 36.8161C222.766 35.7765 222.766 34.6574 222.428 33.6179C222.3 32.9686 222.018 32.3592 221.605 31.8407C221.192 31.3223 220.66 30.9097 220.053 30.6377L218.556 29.9108L217.313 32.5276C217.025 32.9241 216.87 33.401 216.87 33.8904C216.87 34.3798 217.025 34.8567 217.313 35.2533L217.277 35.1079Z" fill="#164194"/>
<path d="M239.197 50.9172C238.43 50.1903 236.896 49.3544 235.325 47.7917C234.497 47.1942 233.813 46.4214 233.323 45.5291C232.832 44.6368 232.547 43.6472 232.487 42.6319C232.428 41.6165 232.596 40.6007 232.979 39.6577C233.362 38.7148 233.951 37.8683 234.704 37.1794C235.46 36.3996 236.377 35.7908 237.391 35.3944C238.405 34.9979 239.493 34.8231 240.581 34.8817C241.669 34.9403 242.732 35.2309 243.697 35.734C244.662 36.2371 245.507 36.9407 246.175 37.7972C247.892 39.469 248.696 41.0681 249.353 41.686C249.553 41.869 249.774 42.0276 250.011 42.1584L246.65 43.7575C246.355 42.2203 245.589 40.8114 244.458 39.7234C244.023 39.2293 243.486 38.8333 242.884 38.562C242.283 38.2908 241.63 38.1504 240.969 38.1504C240.308 38.1504 239.655 38.2908 239.054 38.562C238.452 38.8333 237.916 39.2293 237.48 39.7234C236.957 40.1203 236.534 40.6317 236.242 41.2179C235.951 41.8041 235.799 42.4493 235.799 43.1034C235.799 43.7574 235.951 44.4026 236.242 44.9888C236.534 45.575 236.957 46.0864 237.48 46.4833C238.878 47.7567 240.554 48.6898 242.376 49.209L239.709 51.8984C239.562 51.5786 239.364 51.2842 239.124 51.0262L239.197 50.9172Z" fill="#164194"/>
<path d="M252.642 50.2267L245.116 55.4602C244.056 56.187 243.618 56.9139 243.801 57.8225L240.439 53.0615C241.243 53.534 242.047 53.3523 243.143 52.6254L250.669 47.2829C251.728 46.5197 252.167 45.8292 251.984 44.8843L255.345 49.6816C254.541 49.2091 253.701 49.3545 252.642 50.1177V50.2267Z" fill="#164194"/>
<path d="M247.783 61.5296L248.477 61.2025L256.843 57.2411L256.514 56.6232C255.841 54.9666 254.699 53.5399 253.226 52.5164C255.016 52.153 256.076 52.1166 256.368 51.9713C256.537 51.8616 256.675 51.7116 256.77 51.5352L262.762 64.0736C262.561 63.9982 262.341 63.9982 262.141 64.0736C261.885 64.0736 261.191 64.9822 259.766 66.1815C259.895 64.3887 259.502 62.5968 258.633 61.0208L258.304 60.3666L249.975 64.328C249.509 64.4852 249.101 64.7764 248.802 65.1645C248.503 65.5527 248.326 66.0205 248.294 66.5086L245.773 61.2388C246.044 61.4754 246.378 61.6288 246.735 61.6804C247.091 61.732 247.455 61.6796 247.783 61.5296Z" fill="#164194"/>
<path d="M265.282 78.2107C265.648 78.2107 265.83 77.9199 266.013 77.5202L267.182 83.008C266.136 82.3587 265.036 81.7994 263.894 81.3362L256.587 77.7019L254.432 78.138C253.153 78.3924 252.423 78.9739 252.276 79.8461L251.071 74.1039C251.655 74.9034 252.459 75.0125 253.701 74.7581L255.82 74.3219L261.812 67.9619C262.658 67.2495 263.29 66.3189 263.638 65.2725L264.917 71.3055C264.81 71.1615 264.663 71.0509 264.495 70.9865C264.327 70.9222 264.144 70.9067 263.967 70.942C263.497 71.067 263.084 71.3493 262.798 71.7416L259.145 75.6666L264.369 77.8836C264.744 78.0625 265.164 78.1258 265.575 78.0653L265.282 78.2107Z" fill="#164194"/>
<path d="M224.62 66.5448V66.3631V66.036C224.658 63.8458 225.13 61.6844 226.009 59.6759C226.49 58.8375 226.773 57.901 226.836 56.9376C226.899 55.9742 226.741 55.0091 226.374 54.1154C226.363 53.9581 226.363 53.8002 226.374 53.643C226.162 52.9035 225.881 52.1856 225.534 51.4987L225.168 50.8809H224.511C218.133 53.0169 212.513 56.9422 208.326 62.1836L206.317 63.7101C206.334 63.6017 206.334 63.4913 206.317 63.383C206.216 62.9906 206.015 62.6307 205.733 62.3379C205.452 62.0451 205.099 61.8293 204.71 61.7112C200.904 60.4573 196.918 59.8311 192.909 59.8577C188.554 59.8062 184.236 60.6604 180.232 62.3653L179.392 62.7651L179.648 63.2376C174.496 58.84 164.815 50.9535 162.075 50.9535H161.563L161.344 51.2443C160.97 51.7761 160.686 52.3654 160.504 52.9888L160.285 53.2432C159.371 54.1518 159.116 55.2057 160.285 58.3676C161.245 60.6853 161.836 63.1376 162.038 65.6362C162.341 67.5691 162.906 69.452 163.719 71.2331C163.938 72.1417 165.473 78.5018 166.203 80.1009C166.473 80.5854 166.543 81.1549 166.4 81.69C166.257 82.2252 165.912 82.6846 165.436 82.972H165.217C164.484 83.3331 163.835 83.8431 163.313 84.4691C162.791 85.0951 162.406 85.8232 162.185 86.6063C162.137 87.353 162.26 88.1008 162.544 88.7933C162.829 89.4858 163.268 90.105 163.829 90.6041C164.072 91.0849 164.28 91.5829 164.45 92.0942C163.975 92.8574 164.45 93.2935 164.925 93.766L165.18 94.0204C165.616 94.4314 166.094 94.7968 166.605 95.1107C167.113 95.3976 167.56 95.7803 167.92 96.2373C168.091 96.4379 168.238 96.6574 168.359 96.8915C168.678 97.5462 169.187 98.0906 169.82 98.4543V99.3992C169.698 100.606 169.96 101.82 170.57 102.87C171.179 103.921 172.106 104.753 173.218 105.25L175.373 106.195C176.688 106.777 176.688 106.777 177.127 107.54C178.084 109.39 179.43 111.013 181.072 112.301C182.216 113.159 183.162 114.249 183.849 115.499L185.237 115.899C185.323 115.812 185.397 115.715 185.456 115.608C185.004 116.597 184.721 117.653 184.616 118.734C184.616 120.006 185.128 122.913 189.767 123.64L191.01 124.512L192.544 125.821H192.763H193.969L195.065 125.566H195.357L195.54 125.348L196.234 124.476L196.818 123.749C198.065 123.64 199.249 123.159 200.216 122.368C201.184 121.351 201.864 120.097 202.189 118.734C202.189 118.479 202.189 117.28 201.933 116.59L201.422 115.245C201.579 115.486 201.713 115.742 201.824 116.008L202.335 117.535L203.321 116.299L205.586 113.537L207.778 111.465C208.368 110.868 208.839 110.165 209.167 109.394L209.422 108.848C210.99 107.424 212.733 106.202 214.61 105.214C215.675 104.681 216.546 103.831 217.103 102.782C217.659 101.733 217.873 100.538 217.716 99.3629V98.9994L217.606 98.5633C217.866 97.9769 218.074 97.3688 218.227 96.7461C219.921 95.7653 221.46 94.5406 222.794 93.1118L223.123 92.712V92.2396C223.123 92.2396 222.538 90.7495 224.182 88.7869C225.826 86.8244 225.972 86.3519 225.68 85.6978C225.615 85.5388 225.51 85.3987 225.376 85.2907C225.242 85.1827 225.083 85.1102 224.913 85.0799C223.575 84.2379 222.42 83.1381 221.515 81.8454C221.53 81.6761 221.53 81.5058 221.515 81.3366C221.062 79.8474 221.219 78.2402 221.954 76.8663C222.623 75.8398 222.966 74.6369 222.94 73.4137C222.916 73.2815 222.916 73.1461 222.94 73.0139C223.422 70.8279 224.02 68.6685 224.73 66.5448H224.62Z" fill="#FBBA00"/>
<path d="M198.097 109.066L198.864 111.429L199.229 114.591L197.147 116.153L189.621 115.935L186.735 113.391L188.014 112.301L188.744 109.066C179.319 102.052 175.19 101.325 175.19 101.325C173.408 100.565 171.526 100.063 169.601 99.8352C169.478 101.042 169.74 102.256 170.35 103.306C170.96 104.356 171.886 105.189 172.998 105.686L175.154 106.631C176.469 107.213 176.469 107.213 176.907 107.976C177.979 109.69 179.397 111.163 181.072 112.301C182.216 113.159 183.162 114.249 183.849 115.499L185.237 115.899C185.323 115.812 185.397 115.715 185.456 115.608C185.004 116.597 184.72 117.653 184.616 118.734C184.616 120.006 185.127 122.913 189.767 123.64L191.009 124.512L192.544 125.821H192.763H193.969L195.065 125.566H195.357L195.54 125.348L196.234 124.476L196.818 123.749C198.065 123.64 199.249 123.158 200.216 122.368C201.184 121.35 201.864 120.097 202.189 118.734C202.189 118.479 202.189 117.28 201.933 116.589L201.421 115.245C201.579 115.486 201.713 115.742 201.823 116.008L202.335 117.534L203.321 116.299L205.586 113.537L207.778 111.465C208.368 110.868 208.839 110.165 209.167 109.393L209.422 108.848C210.99 107.423 212.733 106.202 214.61 105.214C215.668 104.672 216.533 103.821 217.088 102.774C217.643 101.728 217.862 100.537 217.715 99.3627L217.606 98.1634V97.9453L214.975 99.3627C198.024 105.723 198.097 109.066 198.097 109.066Z" fill="white"/>
<path d="M175.848 90.1318C175.848 90.1318 176.36 89.4413 177.638 90.4952C179.561 92.3081 182.079 93.3667 184.726 93.4754C184.726 93.4754 185.347 94.384 183.264 94.3113C182.382 94.3024 181.502 94.2173 180.634 94.0569C179.188 93.2216 177.892 92.1531 176.798 90.895C176.553 90.5803 176.224 90.3408 175.848 90.2045V90.1318Z" fill="#164194"/>
<path d="M194.955 70.4335L194.042 69.6702C193.765 68.9658 193.676 68.2018 193.786 67.4533C195.126 66.1577 196.653 65.0676 198.316 64.2188C197.823 65.1602 197.153 65.999 196.343 66.6901C195.743 67.0779 195.242 67.6008 194.882 68.2165C194.718 68.9465 194.718 69.7035 194.882 70.4335H194.955Z" fill="#164194"/>
<path d="M192.032 70.1791C192.032 70.1791 193.165 68.3255 192.58 67.7804L188.379 64.4731C188.379 64.4731 188.379 66.254 189.329 66.8718C190.279 67.4896 190.973 67.4533 191.046 67.8894V68.3255C190.981 68.4555 190.948 68.5985 190.948 68.7435C190.948 68.8884 190.981 69.0314 191.046 69.1614C191.375 69.5976 191.886 70.1791 191.886 70.1791H192.032Z" fill="#164194"/>
<path d="M201.385 80.7911C203.288 79.7604 205.267 78.8735 207.303 78.138C208.838 77.7746 207.303 77.4112 206.975 77.3021C206.513 77.2606 206.048 77.2606 205.586 77.3021L204.162 77.8836L203.467 78.2471L202.408 79.0466L201.604 79.3737L201.129 79.6281C201.129 79.6281 200.691 81.2272 201.385 80.9001V80.7911Z" fill="#164194"/>
<path d="M179.136 77.6659C179.136 77.0844 179.721 77.8839 180.159 78.1383C180.598 78.3927 182.863 79.0469 182.863 79.0469L183.557 79.5194L184.726 80.428L184.47 81.0095C184.103 81.0121 183.744 80.8975 183.447 80.6824C183.082 80.3189 181.949 79.5557 181.876 79.7738C181.803 79.9918 181.109 79.7738 180.524 79.4104C180.17 79.2502 179.86 79.0085 179.618 78.7051C179.377 78.4017 179.212 78.0455 179.136 77.6659Z" fill="#164194"/>
<path d="M174.569 68.6161C174.379 68.2718 174.232 67.9056 174.131 67.5258V67.1987C173.906 66.4279 173.759 65.6365 173.693 64.8364C173.528 63.5287 172.907 62.3198 171.939 61.4202L171.72 61.1658C171.628 60.9946 171.498 60.8467 171.339 60.7333C171.181 60.6199 170.999 60.5441 170.807 60.5116C170.587 60.5116 170.149 60.5116 169.089 59.3849C167.748 58.1323 166.306 56.9898 164.778 55.9687L162.806 54.5513L163.573 56.8046C163.835 57.5673 164.054 58.3438 164.23 59.1305C164.23 59.3849 164.23 59.8937 164.23 60.7296C164.327 61.4044 164.388 62.0837 164.413 62.7649C164.413 63.4554 164.888 66.3992 164.998 67.1624V67.4168C165.39 68.2286 165.829 69.0174 166.313 69.7791C166.53 70.0286 166.681 70.3286 166.751 70.6514C166.454 71.6958 166.518 72.8096 166.934 73.8132C167.372 75.267 168.176 75.5577 168.761 75.5577C169.169 75.5048 169.562 75.3676 169.915 75.1548C170.267 74.942 170.571 74.6584 170.807 74.322L171.647 73.3771L171.903 73.0864C172.341 72.6139 173.181 71.778 174.021 71.0511C174.278 70.8744 174.49 70.6416 174.642 70.3708C174.794 70.0999 174.882 69.7981 174.898 69.4884C174.889 69.0342 174.721 68.5975 174.423 68.2527L174.569 68.6161Z" fill="white"/>
<path d="M209.605 88.9323C209.447 88.9823 209.313 89.0867 209.226 89.2266C209.139 89.3666 209.105 89.5328 209.13 89.6955C209.13 90.386 206.353 92.6756 205.477 93.0754C204.535 93.3806 203.535 93.4676 202.554 93.3298C201.604 93.3298 201.275 94.6018 201.275 94.6018C201.013 95.0913 200.793 95.6019 200.618 96.1282C200.306 97.7674 199.879 99.3827 199.339 100.962C198.964 102.973 199.154 105.048 199.887 106.959C200.245 107.806 200.698 108.611 201.239 109.357C201.491 110.119 201.614 110.917 201.604 111.72L202.225 109.503C202.225 109.503 202.225 108.703 202.006 108.231C201.787 107.758 201.239 107.177 201.02 106.377C200.668 105.186 200.399 103.971 200.216 102.743C200.216 102.161 200.8 99.1084 200.91 98.3815C201.265 97.2961 201.498 96.1747 201.604 95.0379V94.5291C203.096 94.6589 204.597 94.4142 205.969 93.8173C207.342 93.2205 208.541 92.2906 209.459 91.1129C209.844 90.388 210.138 89.6191 210.336 88.8232L209.605 88.9323Z" fill="#164194"/>
<path d="M221.551 55.7147C220.523 56.6776 219.368 57.4968 218.117 58.1497C215.743 59.5671 213.003 61.1662 212.783 64.5098V64.8005V65.0549C213.331 65.8181 213.039 66.436 212.418 67.4899C212.056 68.0107 211.784 68.588 211.614 69.1981V69.7432L212.053 70.0703C212.69 70.5831 213.277 71.155 213.806 71.7784C214.288 72.4922 214.908 73.1038 215.629 73.5779C216.35 74.052 217.159 74.3792 218.008 74.5405H218.483L218.775 74.1408C219.633 72.8186 220.16 71.3103 220.309 69.7432C220.443 68.4542 220.868 67.212 221.551 66.1089L221.771 65.8181V65.491C221.651 63.7114 221.861 61.9251 222.392 60.2213C222.737 58.9355 222.97 57.6221 223.086 56.2962V53.9702L221.515 55.6784L221.551 55.7147Z" fill="white"/>
<path d="M185.31 95.8008C185.602 99.4351 188.963 102.197 186.735 105.795C186.991 107.83 185.054 108.848 184.506 110.556C183.63 110.556 184.031 109.139 184.141 108.557C185.201 106.866 185.811 104.935 185.913 102.945C186.015 100.955 185.607 98.9714 184.726 97.1818C184.726 96.6003 184.726 95.9462 185.42 95.8008" fill="#164194"/>
<path d="M220.93 65.4543C219.14 67.9257 219.907 71.342 218.117 73.777C215.633 73.4862 214.464 70.8695 212.491 69.3431C212.893 67.7076 214.902 66.2902 213.587 64.364C213.916 59.6757 219.432 58.8762 222.246 55.8233C221.51 58.9866 221.07 62.2106 220.93 65.4543ZM222.976 53.5337C219.834 56.2231 215.925 57.1681 213.039 60.439C210.153 62.9466 213.514 67.1988 209.386 69.1614C211.966 71.9515 214.902 74.395 218.117 76.43C220.565 74.9763 220.638 72.2142 220.784 69.7065C223.269 65.309 222.026 60.1482 223.999 55.4599C223.597 54.8057 223.999 53.243 222.83 53.5337H222.976Z" fill="#164194"/>
<path d="M173.766 70.9785C172.857 71.7293 172.002 72.543 171.208 73.4136C170.871 73.7459 170.554 74.0978 170.258 74.4675C170.258 74.4675 168.541 76.7571 167.701 74.2131C166.861 71.6691 167.701 71.56 167.701 70.8695C167.584 70.3929 167.345 69.9546 167.007 69.5975C166.678 69.125 165.728 67.2715 165.728 67.2715C165.728 67.2715 165.144 63.6372 165.144 62.874C165.144 62.1108 164.778 59.6394 164.778 59.2397C164.596 58.3279 164.352 57.4294 164.048 56.5502C165.585 57.5605 167.038 58.6907 168.395 59.9302C170.368 61.7837 170.733 61.0932 170.952 61.5656C171.988 62.4638 172.694 63.678 172.962 65.0182C173.008 66.0112 173.205 66.9915 173.546 67.9257C173.7 68.4022 173.896 68.8643 174.131 69.3068C174.131 69.3068 175.044 70.1063 173.875 71.0512L173.766 70.9785ZM175.044 67.9621C174.825 67.3806 174.24 67.962 174.46 66.2539C174.971 62.6196 174.46 64.255 172.596 61.0205C172.077 60.4287 171.624 59.7829 171.245 59.0943C171.245 58.6945 170.843 58.9126 170.258 58.5855C169.674 58.2584 169.345 58.113 168.541 57.6405C167.731 57.1506 167.014 56.5233 166.422 55.787C165.432 54.9905 164.338 54.3304 163.171 53.8245C163.041 53.7213 162.88 53.665 162.714 53.665C162.548 53.665 162.387 53.7213 162.257 53.8245C161.673 53.8245 162.477 56.2595 162.477 56.732C162.621 58.7093 162.889 60.6757 163.28 62.6196C163.661 64.9915 164.248 67.3262 165.034 69.5975C165.582 71.0421 165.902 72.5622 165.984 74.1041C166.001 74.8426 166.209 75.5643 166.586 76.2005C166.963 76.8367 167.498 77.3662 168.139 77.7384C169.53 76.416 171.02 75.2011 172.596 74.1041C173.563 73.4933 174.366 72.6576 174.935 71.6691C175.629 70.7241 175.629 70.7241 176.213 69.8156C176.798 68.907 175.3 68.7616 175.044 68.1801V67.9621Z" fill="#164194"/>
<path d="M184.726 90.8947C184.726 91.4152 184.518 91.9144 184.148 92.2824C183.778 92.6505 183.276 92.8572 182.753 92.8572C182.23 92.8572 181.728 92.6505 181.358 92.2824C180.988 91.9144 180.78 91.4152 180.78 90.8947C180.78 90.3742 180.988 89.875 181.358 89.5069C181.728 89.1389 182.23 88.9321 182.753 88.9321C183.276 88.9321 183.778 89.1389 184.148 89.5069C184.518 89.875 184.726 90.3742 184.726 90.8947Z" fill="#164194"/>
<path d="M182.168 90.0953C182.173 90.1508 182.167 90.2067 182.149 90.2595C182.131 90.3122 182.102 90.3607 182.064 90.4018C182.027 90.4428 181.981 90.4756 181.929 90.4979C181.878 90.5202 181.823 90.5316 181.767 90.5314C181.65 90.5314 181.539 90.4855 181.457 90.4037C181.374 90.3219 181.328 90.2109 181.328 90.0953C181.328 90.0396 181.339 89.9844 181.362 89.9334C181.384 89.8824 181.417 89.8366 181.458 89.7989C181.5 89.7613 181.548 89.7326 181.602 89.7148C181.655 89.697 181.711 89.6904 181.767 89.6955C181.873 89.6955 181.975 89.7376 182.051 89.8126C182.126 89.8876 182.168 89.9893 182.168 90.0953Z" fill="white"/>
<path d="M206.28 90.8945C206.319 91.1722 206.297 91.4547 206.216 91.7232C206.135 91.9917 205.998 92.2399 205.813 92.451C205.627 92.6622 205.399 92.8315 205.142 92.9475C204.886 93.0635 204.608 93.1235 204.326 93.1235C204.044 93.1235 203.766 93.0635 203.509 92.9475C203.253 92.8315 203.024 92.6622 202.839 92.451C202.654 92.2399 202.516 91.9917 202.436 91.7232C202.355 91.4547 202.333 91.1722 202.371 90.8945C202.333 90.6169 202.355 90.3343 202.436 90.0658C202.516 89.7973 202.654 89.5492 202.839 89.338C203.024 89.1268 203.253 88.9575 203.509 88.8415C203.766 88.7255 204.044 88.6655 204.326 88.6655C204.608 88.6655 204.886 88.7255 205.142 88.8415C205.399 88.9575 205.627 89.1268 205.813 89.338C205.998 89.5492 206.135 89.7973 206.216 90.0658C206.297 90.3343 206.319 90.6169 206.28 90.8945Z" fill="#164194"/>
<path d="M178.259 87.442C176.318 87.6403 174.365 87.7131 172.414 87.6601C174.263 88.3305 176.219 88.6629 178.186 88.6413C179.376 88.3243 180.617 88.2379 181.84 88.3869C184.982 88.7867 186.443 92.0213 188.927 93.2933L189.329 92.0576C188.358 90.1121 186.719 88.5768 184.709 87.7301C182.698 86.8833 180.449 86.7811 178.369 87.442H178.259Z" fill="#164194"/>
<path d="M223.342 88.133C222.762 88.6751 222.343 89.3651 222.131 90.1277C221.918 90.8902 221.92 91.6962 222.136 92.4578C219.869 94.813 217.131 96.67 214.099 97.9093C213.77 97.9093 213.185 98.6725 212.82 98.9996L210.701 101.398H211.541L211.249 102.489C211.249 102.489 212.491 101.071 212.93 100.453C213.368 99.8355 214.464 100.199 214.464 100.199L215.67 99.6175L216.437 99.1087C216.693 98.9269 217.095 99.1087 217.095 99.1087C217.225 100.102 217.042 101.111 216.571 101.997C216.1 102.882 215.363 103.6 214.464 104.051C212.458 105.122 210.613 106.467 208.984 108.049C208.606 108.948 208.088 109.782 207.45 110.52L205.221 112.628L202.993 115.609C202.832 115.139 202.597 114.697 202.298 114.3C201.714 113.392 202.043 113.464 201.97 112.955C201.839 112.351 201.604 111.773 201.275 111.247C200.874 110.484 200.326 110.92 199.997 110.666C199.564 110.134 199.355 109.457 199.412 108.776C199.412 107.94 197.366 98.2364 197.184 97.4005V96.5283C198.15 94.5896 199.379 92.7921 200.837 91.1858C201.342 90.607 201.919 90.0941 202.554 89.6594C203.153 89.272 203.823 89.008 204.526 88.8832C205.229 88.7583 205.95 88.7751 206.646 88.9325C207.575 89.196 208.531 89.3545 209.496 89.405C210.437 89.4391 211.375 89.2643 212.241 88.8935C213.106 88.5226 213.878 87.9649 214.501 87.2607C213.185 87.5515 210.592 87.8059 210.592 87.8059C198.134 86.7156 201.202 88.351 201.202 88.351C199.312 89.3126 197.871 90.9677 197.184 92.9666L195.978 94.5658C195.696 95.5575 195.609 96.5941 195.722 97.6186C195.722 98.1274 195.978 99.5084 195.978 99.5084C195.708 103.232 196.322 106.967 197.768 110.411C197.768 110.702 198.682 114.409 198.682 114.409H199.157L199.851 113.719H200.253V114.155L201.202 116.699C201.202 116.699 201.458 118.48 201.458 118.734C201.136 119.857 200.575 120.898 199.814 121.787C199.228 122.302 198.533 122.677 197.779 122.885C197.026 123.093 196.235 123.128 195.467 122.986H195.247H194.334H193.859L193.494 122.623V122.15V121.351C194.658 121.116 195.704 120.489 196.456 119.575C197.209 118.661 197.62 117.517 197.622 116.335C197.622 115.681 196.599 115.172 196.599 115.172C194.388 114.566 192.052 114.566 189.84 115.172C188.379 115.5 188.891 117.535 188.891 117.535C188.891 118.77 191.302 120.697 191.302 120.697C191.782 121.075 192.37 121.291 192.982 121.314V121.751C192.905 122.064 192.795 122.368 192.654 122.659C192.471 122.986 191.777 123.132 191.338 123.204H190.936C186.589 122.768 185.749 120.588 185.749 119.025C186.061 117.315 186.627 115.662 187.429 114.118L187.941 114.518C188.34 114.576 188.747 114.576 189.146 114.518C189.402 114.518 189.146 113.9 189.146 113.646C188.985 113.4 188.839 113.145 188.708 112.883C190.681 110.848 191.886 97.3278 191.959 97.0008C192.034 96.6901 192.034 96.3664 191.959 96.0558L191.704 95.4743L191.119 94.5294C191.119 94.5294 190.023 93.6572 189.475 93.9116C188.927 94.166 190.023 95.547 190.023 95.547L190.608 96.3102C190.032 98.0936 189.653 99.9335 189.475 101.798L188.562 107.649C188.088 108.729 187.709 109.848 187.429 110.993C187.1 112.592 185.566 111.393 185.566 111.393C185.73 112.074 185.739 112.782 185.594 113.467C185.449 114.153 185.152 114.797 184.726 115.354C184.013 113.892 182.93 112.64 181.584 111.72C179.99 110.646 178.644 109.246 177.638 107.613C176.871 106.268 176.798 106.595 173.364 104.996C172.42 104.58 171.633 103.878 171.115 102.99C170.597 102.103 170.374 101.075 170.478 100.054C170.478 100.054 172.852 100.999 173.218 101.071C174.088 101.308 174.942 101.6 175.775 101.943C176.36 102.198 178.917 103.797 176.36 100.999C173.802 98.2001 172.524 99.1087 170.88 98.5272C169.235 97.9457 169.345 97.2552 168.578 96.2375C167.811 95.2199 166.715 94.8565 165.765 93.9479C164.815 93.0393 165.071 93.3301 165.253 92.8213C165.436 92.3125 164.486 90.6043 164.486 90.6043C160.833 86.7883 164.486 84.7531 165.838 83.9898C166.513 83.6017 167.007 82.964 167.213 82.2153C167.418 81.4666 167.318 80.6676 166.934 79.9921C166.167 78.2113 164.45 71.1607 164.45 71.1607C163.675 69.4313 163.123 67.612 162.806 65.7455C162.609 63.1481 162.005 60.5974 161.015 58.1861C159.481 53.8612 161.015 54.5518 161.271 53.3524C161.436 52.839 161.669 52.35 161.965 51.8987C165.144 51.8987 181.803 66.436 181.803 66.436C181.52 65.3589 181.103 64.3211 180.561 63.3468C188.181 60.37 196.607 60.1385 204.381 62.6927C206.756 63.6376 204.637 66.327 204.637 66.327L208.984 63.0924C213.096 58.0235 218.588 54.2386 224.803 52.1894C225.13 52.814 225.387 53.4721 225.57 54.152C225.972 54.9857 226.181 55.8986 226.181 56.8232C226.181 57.7479 225.972 58.6607 225.57 59.4945C224.604 61.6339 224.082 63.9455 224.036 66.2906C223.193 68.3811 222.51 70.5314 221.99 72.7234C222.044 74.0019 221.713 75.2672 221.04 76.3577C220.166 78.0693 220.009 80.0552 220.602 81.8819C220.857 83.263 224.547 85.807 224.547 85.807C224.547 85.807 225.388 85.5526 223.342 88.0239V88.133ZM195.138 124.949L194.042 125.203H193.275L191.558 124.186C192.152 124.105 192.754 124.105 193.348 124.186C194.553 124.186 195.467 124.186 195.722 124.186L195.028 125.021L195.138 124.949ZM224.365 82.9359C220.711 80.2101 222.903 77.9932 223.707 76.4668C224.403 74.8151 224.81 73.0576 224.913 71.2697C224.913 70.5065 225.095 67.6354 226.009 66.6904C226.922 65.7455 227.141 61.2389 227.58 60.1486C227.91 59.0743 228.107 57.9635 228.164 56.8414C228.124 56.1515 228.124 55.4598 228.164 54.7698C227.391 52.5991 226.438 50.4961 225.315 48.4824C221.223 48.9185 210.701 57.859 209.751 58.9493C209.127 59.6336 208.415 60.2325 207.632 60.7301C202.858 59.5309 197.941 58.9928 193.019 59.131C188.32 59.1767 183.649 59.8615 179.136 61.1662C174.269 55.9116 168.258 51.834 161.563 49.2456C157.216 53.6068 160.285 63.9647 160.723 64.9096C161.554 66.2719 162.02 67.8236 162.075 69.4162C162.403 72.0531 162.916 74.664 163.609 77.23C163.974 78.6417 164.553 79.9899 165.326 81.2278C165.326 81.2278 164.413 82.2454 162.769 83.8808C161.125 85.5163 161.746 84.7167 160.796 85.1528C160.509 85.3255 160.262 85.5577 160.073 85.8336C159.884 86.1095 159.757 86.4227 159.7 86.7519C160.378 88.0332 161.173 89.2498 162.075 90.3863C163.207 91.5856 161.746 92.6032 161.746 92.6032L164.925 95.1472C166.094 96.0922 165.436 96.0195 166.276 96.7827C167.117 97.5459 166.459 98.1637 166.459 98.1637L167.153 98.7816C167.495 100.887 168.396 102.864 169.765 104.506C171.133 106.149 172.918 107.397 174.935 108.122C176.217 108.874 177.345 109.861 178.259 111.029L179.867 112.301C183.995 115.172 183.995 117.825 183.995 117.825C183.228 122.405 186.479 123.241 186.479 123.241C190.827 124.694 190.571 125.058 190.571 125.058C193.896 127.675 194.846 126.33 196.051 125.966C196.989 125.647 197.875 125.194 198.682 124.622C200.34 124.143 201.775 123.096 202.731 121.666C203.688 120.235 204.104 118.514 203.906 116.808C204.452 116.03 205.05 115.289 205.696 114.591C206.29 113.9 206.782 113.129 207.157 112.301C209.338 110.313 211.684 108.514 214.172 106.922C215.852 106.089 217.297 104.851 218.375 103.321C219.453 101.792 220.13 100.019 220.346 98.1637C220.582 96.7826 221.184 95.4889 222.089 94.4158C222.994 93.3427 224.171 92.5289 225.497 92.0581C225.182 91.5635 225.015 90.99 225.015 90.4044C225.015 89.8189 225.182 89.2454 225.497 88.7508C226.447 87.3698 227.982 85.1165 227.982 85.1165C227.982 85.1165 227.762 85.1165 224.328 82.6451L224.365 82.9359Z" fill="#164194"/>
<path d="M203.906 90.0953C203.911 90.1508 203.904 90.2067 203.886 90.2595C203.868 90.3122 203.84 90.3607 203.802 90.4018C203.764 90.4428 203.718 90.4756 203.667 90.4979C203.615 90.5202 203.56 90.5316 203.504 90.5314C203.388 90.5314 203.276 90.4855 203.194 90.4037C203.112 90.3219 203.065 90.2109 203.065 90.0953C203.065 90.0396 203.077 89.9844 203.099 89.9334C203.122 89.8824 203.154 89.8366 203.196 89.7989C203.237 89.7613 203.286 89.7326 203.339 89.7148C203.392 89.697 203.448 89.6904 203.504 89.6955C203.61 89.6955 203.713 89.7376 203.788 89.8126C203.863 89.8876 203.906 89.9893 203.906 90.0953Z" fill="white"/>
<path d="M319.073 177.865C318.106 177.865 317.178 177.482 316.494 176.801C315.81 176.119 315.425 175.195 315.425 174.231V5.63433C315.425 4.67045 315.81 3.74604 316.494 3.06447C317.178 2.3829 318.106 2 319.073 2C320.04 2 320.968 2.3829 321.652 3.06447C322.336 3.74604 322.721 4.67045 322.721 5.63433V174.231C322.721 175.195 322.336 176.119 321.652 176.801C320.968 177.482 320.04 177.865 319.073 177.865Z" fill="#164194"/>
<path d="M520.004 2H378.996C369.609 2 362 9.60946 362 18.9962V160.004C362 169.391 369.609 177 378.996 177H520.004C529.391 177 537 169.391 537 160.004V18.9962C537 9.60946 529.391 2 520.004 2Z" fill="#00BE40"/>
<path d="M502.565 112.758H396.756V121.173H502.565V112.758Z" fill="white"/>
<path d="M425.633 70.8041V62.2451H396.756V102.195H407.308V87.9886H423.629V79.4185H407.308V70.8041H425.633Z" fill="white"/>
<path d="M457.223 81.4781C461.442 79.5293 463.667 76.4512 463.667 72.6201C463.667 66.1649 458.884 62.2896 450.823 62.2896H430.383V102.195H451.044C459.836 102.195 465.084 98.0314 465.084 90.9561C465.084 86.3832 462.172 82.9618 457.223 81.4781ZM440.714 70.3503H448.874C451.842 70.3503 453.436 71.7122 453.436 74.2367C453.436 76.7612 451.842 78.1121 448.874 78.1121H440.714V70.3503ZM449.572 94.0896H440.714V86.1507H449.672C452.639 86.1507 454.3 87.5679 454.3 90.2586C454.3 92.7941 452.639 94.0896 449.561 94.0896H449.572Z" fill="white"/>
<path d="M490.551 77.935L485.745 77.2928C481.006 76.6063 479.611 75.4437 479.611 73.2402C479.611 71.0368 481.46 69.531 485.579 69.531C489.388 69.531 491.26 70.9372 492.156 74.4139L502.199 73.1184C500.726 65.257 495.079 61.437 485.867 61.437C475.559 61.437 468.782 66.5857 468.782 74.4582C468.782 81.2235 472.89 85.1653 481.294 86.3279L486.321 87.0144C491.647 87.7784 492.965 88.9853 492.965 91.3105C492.965 93.6357 490.994 95.0197 486.321 95.0197C484.647 95.0966 482.995 94.6153 481.624 93.6513C480.253 92.6873 479.242 91.2953 478.748 89.6939L468.284 91.2662C469.978 99.4044 476.168 103.114 486 103.114C497.172 103.114 503.771 98.3083 503.771 90.1479C503.727 82.9729 499.697 79.2636 490.551 77.935Z" fill="white"/>
<defs>
<clipPath id="clip0">
<rect width="640" height="70" fill="white" transform="translate(0 210)"/>
</clipPath>
</defs>
</svg>
