<?xml version="1.0" encoding="utf-8"?>
<!-- Generator: Adobe Illustrator 25.2.0, SVG Export Plug-In . SVG Version: 6.00 Build 0)  -->
<svg version="1.1" id="Layer_1" xmlns="http://www.w3.org/2000/svg" xmlns:xlink="http://www.w3.org/1999/xlink" x="0px" y="0px"
	 viewBox="0 0 365.6 71.8" style="enable-background:new 0 0 365.6 71.8;" xml:space="preserve">
<style type="text/css">
	.st0{fill:#E8B909;}
	.st1{fill:#FFFFFF;}
	.st2{fill:#FFDD00;}
	.st3{fill:#0054A4;}
	.st4{fill:#A30046;}
	.st5{fill:#E31937;}
	.st6{fill:#231F20;}
	.st7{fill:none;stroke:#231F20;stroke-width:1.001;stroke-miterlimit:10;}
	.st8{fill:#00BE40;}
	.st9{fill:none;stroke:#231F20;stroke-width:0.6;stroke-miterlimit:10;}
</style>
<g>
	<path class="st0" d="M180.7,1.2l0.4,0.2C185,4,188.2,4.5,193,4.5c1.8,0,3.6-0.3,5.3-0.9l0.5-0.2l2.3,3.2l-0.2,0.3
		c-8.5,11.3-1.9,23.4,2.8,28.3l0.4,0.4l-0.4,0.4c-0.6,0.6-1.7,1.7-2.5,2.5l-0.3,0.3l0,0.4l0,0.1c0,0.1,0,0.2,0,0.4l0,0.1
		c0.4,7.5-1.6,13.7-5.8,18.3c-4.5,4.9-11.6,7.9-20,8.4l-0.3,0l-0.2,0.2c-2.1,1.9-4.3,3.6-4.3,3.6l-0.4,0.3l-0.4-0.3
		c-0.1-0.1-2.2-1.7-4.3-3.6l-0.2-0.2l-0.3,0c-8.4-0.5-15.5-3.4-20-8.4c-4.2-4.7-6.2-10.8-5.8-18.3l0-0.1c0-0.2,0-0.3,0-0.4l0,0v0
		l0-0.1l0-0.4l-0.3-0.3c-0.7-0.8-1.8-1.9-2.5-2.5l-0.4-0.4l0.4-0.4c4.7-4.9,11.3-17,2.8-28.3l-0.2-0.3l2.3-3.2l0.5,0.2
		c1.7,0.6,3.5,0.9,5.3,0.9c4.8,0,8-0.5,11.9-3.1l0.4-0.2l0.4,0.2c3,2.3,6.7,3.5,10.5,3.5c3.8,0,7.5-1.3,10.5-3.5L180.7,1.2"/>
	<path class="st1" d="M144,29c2.7-6.1,3.6-13.9-0.8-21.5c1.1,0.2,2.3,0.3,3.5,0.3c4.6,0,8.2-0.4,12.2-2.7c3.3,2.1,7.1,3.1,10.9,3.2
		c3.9,0,7.7-1.1,10.9-3.2c4,2.3,7.6,2.7,12.2,2.7c1.2,0,2.3-0.1,3.5-0.3c-4.5,7.7-3.5,15.5-0.8,21.6H144"/>
	<path class="st2" d="M195.6,29c-2.7-6.1-3.6-13.9,0.8-21.6c-1.1,0.2-2.3,0.3-3.5,0.3c-4.6,0-8.2-0.4-12.2-2.7
		c-3.3,2.1-7.1,3.1-10.9,3.2c0,0-0.1,0-0.1,0V29H195.6z"/>
	<path class="st3" d="M189.9,58.4c5.1-3.7,8.1-9.6,7.6-18.3c-0.1-0.5-0.1-0.5-0.1-1h-7.5V58.4z"/>
	<path class="st4" d="M181.9,62.1c2.9-0.7,5.6-2,8-3.7V39.1h-8V62.1z"/>
	<path class="st4" d="M149.7,58.4c2.4,1.7,5.2,3,8,3.7v-23h-8V58.4z"/>
	<path class="st3" d="M142.1,40.1c-0.4,8.7,2.6,14.6,7.6,18.3V39.1h-7.5C142.2,39.6,142.1,39.6,142.1,40.1"/>
	<path class="st4" d="M169.8,43.3c1.4,0,2.8,0.4,4,1.2v-5.4h-8v5.4C167,43.8,168.4,43.3,169.8,43.3"/>
	<path class="st4" d="M169.8,58.5c-1.4,0-2.8-0.4-4-1.2v6c0.1,0,0.3,0,0.4,0c2.7,0,5.1,0,7.2,0c0.1,0,0.3,0,0.4,0v-6
		C172.7,58.1,171.3,58.5,169.8,58.5"/>
	<path class="st3" d="M173.8,39.1v5.4c3.6,2.2,4.6,6.9,2.4,10.4c-0.6,1-1.5,1.8-2.4,2.4v6c2.7-0.1,5.4-0.5,8-1.2v-23H173.8z"/>
	<path class="st3" d="M162.3,50.9c0-2.6,1.3-5,3.5-6.4v-5.4h-8v23c2.6,0.7,5.3,1.1,8,1.2v-6C163.6,56,162.3,53.5,162.3,50.9"/>
	<path class="st5" d="M145.8,14.3c0.5,2.5,0.6,5.1,0.2,7.7h7.8v7h7.7v-7h8.2v-7.7h-8.2V6.5c-0.9-0.4-1.8-0.9-2.7-1.4
		c-1.6,0.9-3.3,1.6-5,2v7.2L145.8,14.3z"/>
	<path class="st5" d="M186.3,29V7.2c-0.9-0.2-1.9-0.5-2.8-0.8V29L186.3,29z"/>
	<path class="st5" d="M175.2,29V7.5c-0.9,0.3-1.8,0.4-2.8,0.6V29L175.2,29z"/>
	<path class="st5" d="M191.8,29V7.8c-1,0-1.9-0.1-2.8-0.1V29H191.8z"/>
	<path class="st5" d="M180.7,29V5.1c-0.9,0.5-1.8,1-2.8,1.4V29L180.7,29z"/>
	<path class="st6" d="M205.2,35.6l-1.1-1.1c-4.5-4.7-10.8-16.3-2.7-27.1l0.6-0.8L199,2.3l-1.1,0.4c-1.6,0.6-3.3,0.9-5,0.9
		c-4.6,0-7.7-0.5-11.4-2.9l-0.9-0.6l-0.9,0.6c-2.9,2.2-6.4,3.3-10,3.4c-3.6,0-7.1-1.2-10-3.4l-0.9-0.6l-0.9,0.6
		c-3.7,2.5-6.8,2.9-11.4,2.9c-1.7,0-3.4-0.3-5-0.9l-1.1-0.4l-3.1,4.3l0.6,0.8c8.1,10.8,1.8,22.4-2.7,27.1l-1.1,1.1l1.1,1.1
		c0.6,0.6,1.6,1.6,2.4,2.5c0,0,0,0.1,0,0.1c0,0.1,0,0.2,0,0.3l0,0.1c-0.4,7.8,1.6,14.2,6,19c4.7,5.1,12,8.2,20.6,8.7
		c2.1,1.9,4.3,3.6,4.4,3.6l0.9,0.7l0.9-0.7c0.1-0.1,2.3-1.7,4.4-3.6c8.6-0.5,15.9-3.5,20.6-8.7c4.4-4.8,6.4-11.2,6-19l0-0.1
		c0-0.1,0-0.2,0-0.3c0,0,0-0.1,0-0.1c0.8-0.9,1.9-2,2.4-2.5L205.2,35.6z M200.1,38.7c0.1,0.8,0,0.8,0.1,1.2
		c0.9,17.3-11.1,25.5-25.7,26.1c-2.2,2.1-4.7,3.9-4.7,3.9s-2.5-1.8-4.7-3.9c-14.6-0.6-26.6-8.8-25.7-26.1c0.1-0.5,0-0.4,0.1-1.2
		c-0.8-0.9-2.2-2.3-2.9-3.1c5.2-5.4,11.3-17.8,2.9-29.1l1.8-2.4c1.8,0.6,3.6,0.9,5.5,1c4.9,0,8.2-0.5,12.2-3.2
		c3.2,2.3,7,3.6,10.9,3.6c3.9,0,7.7-1.3,10.9-3.6c4.1,2.7,7.4,3.2,12.2,3.2c1.9,0,3.7-0.3,5.5-1l1.8,2.4
		c-8.5,11.2-2.4,23.7,2.9,29.1C202.4,36.3,201,37.8,200.1,38.7"/>
	<path class="st6" d="M142,39.1c0,0.3,0,0.4-0.1,0.5c0,0.1,0,0.3-0.1,0.5c-0.3,6.7,1.3,12,4.9,16c4.1,4.6,10.9,7.1,19.4,7.5l0.3,0
		c1.4,0,2.8,0,4.1,0c1,0,1.9,0,2.8,0c8.6-0.4,15.3-2.9,19.4-7.5c3.6-4,5.3-9.4,4.9-16c0-0.2,0-0.4-0.1-0.5c0-0.1,0-0.3-0.1-0.5
		l0-0.2H142L142,39.1z M142.3,40.1c0-0.2,0-0.3,0.1-0.5c0-0.1,0-0.2,0-0.4h54.8c0,0.1,0,0.2,0,0.4c0,0.1,0,0.2,0.1,0.4
		c0.3,6.5-1.3,11.8-4.8,15.7c-4.1,4.5-10.7,7-19.1,7.3c-2,0-4.3,0-6.9,0l-0.3,0c-8.4-0.3-15.1-2.9-19.1-7.3
		C143.6,51.9,142,46.6,142.3,40.1"/>
	<path class="st6" d="M143.8,28.9l-0.1,0.3H196l-0.1-0.3c-2.3-5.2-4-13.1,0.8-21.4l0.3-0.4l-0.5,0.1c-1.1,0.2-2.3,0.3-3.4,0.3
		c-4.7,0-8.1-0.4-12.1-2.7l-0.1-0.1l-0.1,0.1c-3.2,2-7,3.1-10.8,3.1c-3.8,0-7.6-1.1-10.8-3.1l-0.1-0.1l-0.1,0.1
		c-3.9,2.2-7.4,2.7-12.1,2.7c-1.2,0-2.3-0.1-3.4-0.3l-0.5-0.1l0.3,0.4C147.8,15.8,146.1,23.7,143.8,28.9 M170,8.5
		c3.8,0,7.6-1.1,10.8-3.1c4,2.2,7.5,2.7,12.2,2.7c1,0,2-0.1,3-0.3c-4.5,8.1-2.9,15.8-0.7,21H170L170,8.5z M143.7,7.8
		c1,0.2,2,0.2,3,0.2c4.7,0,8.2-0.4,12.2-2.7c3.2,2,6.9,3.1,10.6,3.1v20.3h-25.1C146.6,23.5,148.1,15.8,143.7,7.8"/>
	<polygon class="st6" points="163.2,32 163.2,30.5 158.1,30.5 158.1,37.6 159.6,37.6 159.6,34.7 161.7,34.7 161.7,33.2 159.6,33.2 
		159.6,32 	"/>
	<path class="st6" d="M169.3,31.9c0.5,0,1,0.3,1.2,0.7l0,0.1L172,32l0-0.1c-0.5-1-1.5-1.7-2.6-1.6c-1.9,0-3.2,1.5-3.2,3.7
		c0,2.2,1.2,3.7,3.1,3.7c1.1,0.1,2.2-0.6,2.7-1.6l0-0.1l-1.3-0.8l0,0.1c-0.2,0.5-0.7,0.9-1.3,0.9c-0.9,0-1.6-0.9-1.6-2.2
		C167.7,32.7,168.3,31.9,169.3,31.9"/>
	<path class="st6" d="M181.3,32.4c0-1.2-0.9-1.9-2.3-1.9h-3.3v7.2h3.3c1.2,0.2,2.4-0.7,2.6-1.9c0-0.1,0-0.3,0-0.4
		c0-0.6-0.3-1.2-0.9-1.5C181.1,33.4,181.3,32.9,181.3,32.4 M177.2,31.9h1.7c0.7,0,0.8,0.3,0.8,0.6c0,0.4-0.2,0.6-0.7,0.6h-1.8
		L177.2,31.9z M179,36.2h-1.8v-1.7h1.8c0.6,0,0.9,0.3,0.9,0.8C180,35.9,179.6,36.2,179,36.2"/>
	<path class="st6" d="M169.8,58.6c4.3,0,7.7-3.5,7.7-7.7s-3.5-7.7-7.7-7.7s-7.7,3.5-7.7,7.7v0C162.1,55.2,165.5,58.6,169.8,58.6
		 M169.8,58.2c-1.4,0-2.9-0.4-4.1-1.2c1.7,0,3.3-0.5,4.8-1.2c1.2-0.7,2.5-1.6,2.8-2.9c0.9-0.5,2.1-0.1,2.6,0.8
		c0.1,0.2,0.2,0.5,0.2,0.7C174.9,56.7,172.5,58.2,169.8,58.2 M166.2,52.6c0.4,0.3,0.8,0.4,1.3,0.5c1.2,0,2.3-0.8,2.5-2
		c0.7-0.6,1.8-0.6,2.5,0.1c0.1,0.2,0.2,0.3,0.3,0.5c0.6,1.5-0.7,2.6-2.4,3.7c-1.6,0.8-3.4,1.2-5.2,1.2c-0.8-0.7-1.5-1.5-1.9-2.4
		c0.1,0,0.1,0,0.2,0C164.6,54.1,165.6,53.5,166.2,52.6 M165,48.9c0.1-1.4,0.3-2.7,0.7-4c1-0.7,2.2-1.1,3.4-1.2
		c-0.8,0.8-0.7,2.1,0.1,2.9c0,0,0.1,0.1,0.1,0.1c-0.2,0.2-0.4,0.4-0.5,0.6c-0.8,1.3-0.5,3,0.8,3.8c-0.2,0.9-1.1,1.6-2,1.6
		C165.9,52.4,165.1,50.8,165,48.9 M173.4,52.4c0-0.3-0.1-0.6-0.2-0.8c-0.4-1.1-1.7-1.7-2.8-1.2c-0.2,0.1-0.4,0.2-0.6,0.3
		c-1-0.7-1.3-2.1-0.6-3.2c0.8-1.3,2.8-0.8,4.5,0.2c1.5,0.9,2.7,2.3,3.3,4c-0.1,0.8-0.3,1.5-0.6,2.2
		C176.1,52.6,174.7,51.9,173.4,52.4C173.5,52.3,173.4,52.3,173.4,52.4 M173.9,47.2c-1.3-0.7-2.9-1.4-4.1-0.9c-0.7-0.5-1-1.5-0.5-2.2
		c0.1-0.2,0.3-0.4,0.6-0.5c3.8,0,7,3,7.2,6.8C176.3,49.1,175.2,48,173.9,47.2 M165.2,45.2c-0.1,0.5-0.3,1-0.4,1.5
		c-0.4,1.7-0.4,4.3,1,5.6c-0.5,0.9-1.4,1.4-2.4,1.4c-0.1,0-0.3,0-0.4,0C161.8,50.7,162.7,47.3,165.2,45.2"/>
	<line class="st7" x1="103.1" y1="0" x2="103.1" y2="71.8"/>
	<path class="st8" d="M7,0h57.8c3.8,0,7,3.1,7,7c0,0,0,0,0,0v57.8c0,3.8-3.1,7-7,7c0,0,0,0,0,0H7c-3.8,0-7-3.1-7-7V7
		C0,3.1,3.1,0,7,0"/>
	<rect x="14.2" y="45.4" class="st1" width="43.4" height="3.4"/>
	<polygon class="st1" points="26.1,28.2 26.1,24.7 14.2,24.7 14.2,41.1 18.6,41.1 18.6,35.2 25.3,35.2 25.3,31.7 18.6,31.7 
		18.6,28.2 	"/>
	<path class="st1" d="M39,32.6c1.5-0.5,2.6-2,2.6-3.6c0-2.6-2-4.2-5.3-4.2H28v16.4h8.5c3.6,0,5.8-1.7,5.8-4.6
		C42.2,34.6,40.9,32.9,39,32.6 M32.3,28h3.3c1.2,0,1.9,0.6,1.9,1.6c0,1-0.7,1.6-1.9,1.6h-3.3V28z M35.9,37.7h-3.6v-3.3h3.7
		c1.2,0,1.9,0.6,1.9,1.7C37.8,37.2,37.1,37.7,35.9,37.7L35.9,37.7z"/>
	<path class="st1" d="M52.7,31.1l-2-0.3c-1.9-0.3-2.5-0.8-2.5-1.7s0.8-1.5,2.4-1.5c1.3-0.2,2.5,0.7,2.7,2c0,0,0,0,0,0l4.1-0.5
		c-0.6-3.2-2.9-4.8-6.7-4.8c-4.2,0-7,2.1-7,5.3c0,2.8,1.7,4.4,5.1,4.9l2.1,0.3c2.2,0.3,2.7,0.8,2.7,1.8s-0.8,1.5-2.7,1.5
		c-1.4,0.1-2.7-0.8-3.1-2.2l-4.3,0.6c0.7,3.3,3.2,4.9,7.3,4.9c4.6,0,7.3-2,7.3-5.3C58.1,33.2,56.4,31.7,52.7,31.1"/>
</g>
<g>
	<polygon class="st6" points="235.7,20.7 243,20.7 242.6,22.8 238.1,22.8 238.1,25.5 242.2,25.5 242.2,27.6 238.1,27.6 238.1,32.4 
		235.7,32.4 	"/>
	<path class="st6" d="M244.1,25c0-3.1,1.5-4.5,4.3-4.5c1.3-0.1,2.6,0.4,3.5,1.3v1.8h-1.9c0,0-0.1-1.1-1.6-1.1c-1.5,0-2,0.8-2,2.4
		v3.1c0,1.6,0.5,2.4,2,2.4c1.4,0,1.6-1.1,1.6-1.1h1.9v1.8c-0.9,0.9-2.2,1.4-3.5,1.3c-2.8,0-4.3-1.4-4.3-4.5L244.1,25z"/>
	<path class="st6" d="M262.3,21h1.5v9.4h-6.5V21h1.6v3.5h3.4V21z M262.3,25.7h-3.4v3.4h3.4V25.7z M269.6,26.4h-2.1v7.2h-1.6V19.8
		h1.6v5.3h2.1V26.4z"/>
	<path class="st9" d="M262.3,21h1.5v9.4h-6.5V21h1.6v3.5h3.4V21z M262.3,25.7h-3.4v3.4h3.4V25.7z M269.6,26.4h-2.1v7.2h-1.6V19.8
		h1.6v5.3h2.1V26.4z"/>
	<path class="st6" d="M283.2,31.9h-12.4v-1.3h12.4V31.9z M280.2,22.1h-7.9v-1.3h9.5v4.3h-7.9v1.9h8.2v1.3h-9.7v-4.4h7.9V22.1z"/>
	<path class="st9" d="M283.2,31.9h-12.4v-1.3h12.4V31.9z M280.2,22.1h-7.9v-1.3h9.5v4.3h-7.9v1.9h8.2v1.3h-9.7v-4.4h7.9V22.1z"/>
	<path class="st6" d="M290.7,26.6c-1.1-0.5-2-1.4-2.5-2.6c-0.5,1.3-1.4,2.4-2.6,3l-0.9-1.2c1.7-0.8,2.7-2.5,2.7-4.3v-1.2h1.5v1.2
		c0,1.7,1,3.2,2.5,3.8L290.7,26.6z M296.9,32.2v1.2h-9.6v-3.5h7.6v-1h-7.6v-1.2h9.2V31h-7.6v1.2H296.9z M292.2,23.5h-1.9v-1.3h1.9
		v-2.1h1.5V27h-1.5V23.5z M296.4,27.1h-1.5v-7.2h1.5V27.1z"/>
	<path class="st9" d="M290.7,26.6c-1.1-0.5-2-1.4-2.5-2.6c-0.5,1.3-1.4,2.4-2.6,3l-0.9-1.2c1.7-0.8,2.7-2.5,2.7-4.3v-1.2h1.5v1.2
		c0,1.7,1,3.2,2.5,3.8L290.7,26.6z M296.9,32.2v1.2h-9.6v-3.5h7.6v-1h-7.6v-1.2h9.2V31h-7.6v1.2H296.9z M292.2,23.5h-1.9v-1.3h1.9
		v-2.1h1.5V27h-1.5V23.5z M296.4,27.1h-1.5v-7.2h1.5V27.1z"/>
	<polygon class="st6" points="311.2,30.6 311.2,31.9 298.7,31.9 298.7,30.6 304.1,30.6 304.1,28.3 300.2,28.3 300.2,23.9 
		308.1,23.9 308.1,22.1 300.2,22.1 300.2,20.8 309.7,20.8 309.7,25.1 301.8,25.1 301.8,27 310,27 310,28.3 305.7,28.3 305.7,30.6 	
		"/>
	<polygon class="st9" points="311.2,30.6 311.2,31.9 298.7,31.9 298.7,30.6 304.1,30.6 304.1,28.3 300.2,28.3 300.2,23.9 
		308.1,23.9 308.1,22.1 300.2,22.1 300.2,20.8 309.7,20.8 309.7,25.1 301.8,25.1 301.8,27 310,27 310,28.3 305.7,28.3 305.7,30.6 	
		"/>
	<path class="st6" d="M314.8,28.8c2,0,4-0.2,5.9-0.6l0.2,1.3c-2.1,0.4-4.3,0.6-6.5,0.6h-1.1v-9h1.6V28.8z M325.4,26.5h-2.1v7.1h-1.6
		V19.8h1.6v5.3h2.1V26.5z"/>
	<path class="st9" d="M314.8,28.8c2,0,4-0.2,5.9-0.6l0.2,1.3c-2.1,0.4-4.3,0.6-6.5,0.6h-1.1v-9h1.6V28.8z M325.4,26.5h-2.1v7.1h-1.6
		V19.8h1.6v5.3h2.1V26.5z"/>
	<path class="st6" d="M247.7,43.3v1.3h-12.4v-1.3h4.9v-2.5h1.6v2.5H247.7z M246.3,48.2c0,1.6-1.9,2.6-4.8,2.6c-3,0-4.8-1-4.8-2.6
		c0-1.6,1.9-2.6,4.8-2.6C244.4,45.7,246.3,46.6,246.3,48.2 M244.2,42.3c0.3-1.1,0.4-2.2,0.4-3.4h-7.9v-1.3h9.4v1.2
		c0,1.2-0.1,2.5-0.4,3.6L244.2,42.3z M244.7,48.2c0-0.8-1.2-1.4-3.2-1.4c-2,0-3.3,0.5-3.3,1.4c0,0.9,1.2,1.4,3.3,1.4
		C243.5,49.6,244.7,49.1,244.7,48.2"/>
	<path class="st9" d="M247.7,43.3v1.3h-12.4v-1.3h4.9v-2.5h1.6v2.5H247.7z M246.3,48.2c0,1.6-1.9,2.6-4.8,2.6c-3,0-4.8-1-4.8-2.6
		c0-1.6,1.9-2.6,4.8-2.6C244.4,45.7,246.3,46.6,246.3,48.2L246.3,48.2z M244.2,42.3c0.3-1.1,0.4-2.2,0.4-3.4h-7.9v-1.3h9.4v1.2
		c0,1.2-0.1,2.5-0.4,3.6L244.2,42.3z M244.7,48.2c0-0.8-1.2-1.4-3.2-1.4c-2,0-3.3,0.5-3.3,1.4c0,0.9,1.2,1.4,3.3,1.4
		C243.5,49.6,244.7,49.1,244.7,48.2L244.7,48.2z"/>
	<path class="st6" d="M256.8,44.5c-1.5-0.5-2.7-1.6-3.3-3c-0.6,1.5-1.9,2.7-3.4,3.2l-0.8-1.2c2-0.6,3.3-2.4,3.4-4.5v-1.3h1.6V39
		c0,2,1.4,3.7,3.3,4.3L256.8,44.5z M251.3,45.9h9.2v4.8H259v-3.6h-7.7V45.9z M260.6,45.3H259V37h1.6V45.3z"/>
	<path class="st9" d="M256.8,44.5c-1.5-0.5-2.7-1.6-3.3-3c-0.6,1.5-1.9,2.7-3.4,3.2l-0.8-1.2c2-0.6,3.3-2.4,3.4-4.5v-1.3h1.6V39
		c0,2,1.4,3.7,3.3,4.3L256.8,44.5z M251.3,45.9h9.2v4.8H259v-3.6h-7.7V45.9z M260.6,45.3H259V37h1.6V45.3z"/>
	<path class="st6" d="M279.1,49.1h-12.4v-1.3h12.4V49.1z M277.7,45.6h-9.5v-7.4h9.4v1.3h-7.8v1.8h7.5v1.2h-7.5v1.9h7.9L277.7,45.6z"
		/>
	<path class="st9" d="M279.1,49.1h-12.4v-1.3h12.4V49.1z M277.7,45.6h-9.5v-7.4h9.4v1.3h-7.8v1.8h7.5v1.2h-7.5v1.9h7.9L277.7,45.6z"
		/>
	<path class="st6" d="M282.6,46.2c1.5,0,2.9-0.1,4.4-0.4l0.1,1.3c-1.7,0.3-3.4,0.4-5.1,0.4h-0.9v-5.3h3.3v-2.5H281v-1.3h4.9v5h-3.3
		V46.2z M288.1,37.4h1.5v12.7h-1.5v-6.9h-1.5v-1.3h1.5V37.4z M292.3,50.8h-1.5V37.1h1.5V50.8z"/>
	<path class="st9" d="M282.6,46.2c1.5,0,2.9-0.1,4.4-0.4l0.1,1.3c-1.7,0.3-3.4,0.4-5.1,0.4h-0.9v-5.3h3.3v-2.5H281v-1.3h4.9v5h-3.3
		V46.2z M288.1,37.4h1.5v12.7h-1.5v-6.9h-1.5v-1.3h1.5V37.4z M292.3,50.8h-1.5V37.1h1.5V50.8z"/>
	<path class="st6" d="M302.1,42.9c0,3-1.5,4.8-3.5,4.8c-2,0-3.5-1.9-3.5-4.8c0-2.9,1.5-4.8,3.5-4.8
		C300.6,38.1,302.1,39.9,302.1,42.9 M296.6,42.9c0,2.2,0.8,3.4,2,3.4c1.2,0,2-1.3,2-3.4c0-2.1-0.8-3.4-2-3.4
		C297.4,39.5,296.6,40.8,296.6,42.9 M305.9,50.8h-1.6V37h1.6V50.8z"/>
	<path class="st9" d="M302.1,42.9c0,3-1.5,4.8-3.5,4.8c-2,0-3.5-1.9-3.5-4.8c0-2.9,1.5-4.8,3.5-4.8
		C300.6,38.1,302.1,39.9,302.1,42.9z M296.6,42.9c0,2.2,0.8,3.4,2,3.4c1.2,0,2-1.3,2-3.4c0-2.1-0.8-3.4-2-3.4
		C297.4,39.5,296.6,40.8,296.6,42.9L296.6,42.9z M305.9,50.8h-1.6V37h1.6V50.8z"/>
	<path class="st6" d="M317.3,43.8c-2.2,0.4-4.5,0.6-6.7,0.5h-1.2v-6.2h6.5v1.3H311V43c2.1,0.1,4.1-0.1,6.1-0.5L317.3,43.8z
		 M320,48.1c0,1.7-1.8,2.7-4.6,2.7c-2.9,0-4.6-1-4.6-2.7c0-1.7,1.8-2.7,4.6-2.7C318.2,45.5,320,46.4,320,48.1 M318.4,48.1
		c0-0.9-1.1-1.4-3.1-1.4c-1.9,0-3.1,0.5-3.1,1.4c0,0.9,1.1,1.4,3.1,1.4C317.3,49.6,318.4,49,318.4,48.1 M319.9,45.4h-1.6v-8.3h1.6
		V45.4z"/>
	<path class="st9" d="M317.3,43.8c-2.2,0.4-4.5,0.6-6.7,0.5h-1.2v-6.2h6.5v1.3H311V43c2.1,0.1,4.1-0.1,6.1-0.5L317.3,43.8z
		 M320,48.1c0,1.7-1.8,2.7-4.6,2.7c-2.9,0-4.6-1-4.6-2.7c0-1.7,1.8-2.7,4.6-2.7C318.2,45.5,320,46.4,320,48.1L320,48.1z M318.4,48.1
		c0-0.9-1.1-1.4-3.1-1.4c-1.9,0-3.1,0.5-3.1,1.4c0,0.9,1.1,1.4,3.1,1.4C317.3,49.6,318.4,49,318.4,48.1z M319.9,45.4h-1.6v-8.3h1.6
		V45.4z"/>
	<path class="st6" d="M332.4,46c0.6-0.1,1.3-0.1,1.9-0.2l0.1,1.2c-2.8,0.4-5.6,0.6-8.4,0.5l-0.2-1.3h1.7v-6.5h-1.3v-1.3h7.6v1.3
		h-1.3V46z M329,46.2c0.6,0,1.2,0,1.9-0.1v-6.4H329V46.2z M338.7,43.7h-2.1v7.1H335V37.1h1.6v5.4h2.1V43.7z"/>
	<path class="st9" d="M332.4,46c0.6-0.1,1.3-0.1,1.9-0.2l0.1,1.2c-2.8,0.4-5.6,0.6-8.4,0.5l-0.2-1.3h1.7v-6.5h-1.3v-1.3h7.6v1.3
		h-1.3V46z M329,46.2c0.6,0,1.2,0,1.9-0.1v-6.4H329V46.2z M338.7,43.7h-2.1v7.1H335V37.1h1.6v5.4h2.1V43.7z"/>
	<path class="st6" d="M352.4,49.1H340v-1.3h12.4V49.1z M351,45.6h-9.5v-7.4h9.4v1.3h-7.8v1.8h7.5v1.2h-7.5v1.9h7.9L351,45.6z"/>
	<path class="st9" d="M352.4,49.1H340v-1.3h12.4V49.1z M351,45.6h-9.5v-7.4h9.4v1.3h-7.8v1.8h7.5v1.2h-7.5v1.9h7.9L351,45.6z"/>
	<path class="st6" d="M356.2,46.2c1.9,0,3.8-0.2,5.7-0.5l0.2,1.3c-2.1,0.4-4.2,0.6-6.3,0.6h-1.1v-9h1.5L356.2,46.2z M365.3,37.1
		v13.7h-1.6v-8.1h-4v-1.3h4v-4.4L365.3,37.1z"/>
	<path class="st9" d="M356.2,46.2c1.9,0,3.8-0.2,5.7-0.5l0.2,1.3c-2.1,0.4-4.2,0.6-6.3,0.6h-1.1v-9h1.5L356.2,46.2z M365.3,37.1
		v13.7h-1.6v-8.1h-4v-1.3h4v-4.4L365.3,37.1z"/>
</g>
</svg>
