<?xml version="1.0" encoding="utf-8"?>
<!-- Generator: Adobe Illustrator 25.2.0, SVG Export Plug-In . SVG Version: 6.00 Build 0)  -->
<svg version="1.1" id="ARTE" xmlns="http://www.w3.org/2000/svg" xmlns:xlink="http://www.w3.org/1999/xlink" x="0px" y="0px"
	 viewBox="0 0 206.3 98.7" style="enable-background:new 0 0 206.3 98.7;" xml:space="preserve">
<style type="text/css">
	.st0{fill:none;stroke:#FFFFFF;stroke-miterlimit:10;}
	.st1{fill:#E7B809;}
	.st2{fill:#FFFFFF;}
	.st3{fill:#FFDD00;}
	.st4{fill:#0055A3;}
	.st5{fill:#A30046;}
	.st6{fill:#E21936;}
	.st7{fill:#231F20;}
	.st8{fill:#00BE40;}
	.st9{fill:none;stroke:#FFFFFF;stroke-width:0.5;stroke-miterlimit:10;}
</style>
<g>
	<line class="st0" x1="103.5" y1="0" x2="103.5" y2="71.7"/>
	<path class="st1" d="M181.1,1.2l0.4,0.2c3.9,2.6,7.1,3.1,11.9,3.1c1.8,0,3.6-0.3,5.3-0.9l0.5-0.2l2.3,3.2L201.1,7
		c-8.5,11.3-1.9,23.4,2.8,28.3l0.4,0.4l-0.4,0.4c-0.6,0.6-1.7,1.7-2.5,2.5l-0.3,0.3l0,0.4l0,0.1c0,0.1,0,0.2,0,0.4l0,0.1
		c0.4,7.5-1.6,13.7-5.8,18.3c-4.5,4.9-11.6,7.9-20,8.4l-0.3,0l-0.2,0.2c-2.1,1.9-4.3,3.6-4.3,3.6l-0.4,0.3l-0.4-0.3
		c-0.1-0.1-2.2-1.7-4.3-3.6l-0.2-0.2l-0.3,0c-8.4-0.5-15.5-3.4-20-8.4c-4.2-4.7-6.2-10.8-5.8-18.3l0-0.1c0-0.2,0-0.3,0-0.4l0,0v0
		l0-0.1l0-0.4l-0.3-0.3c-0.7-0.8-1.8-1.9-2.5-2.5l-0.4-0.4l0.4-0.4c4.7-4.9,11.3-17,2.8-28.3L139,6.6l2.3-3.2l0.5,0.2
		c1.7,0.6,3.5,0.9,5.3,0.9c4.8,0,8-0.5,11.9-3.1l0.4-0.2l0.4,0.2c3,2.3,6.7,3.5,10.5,3.5c3.8,0,7.5-1.3,10.5-3.5L181.1,1.2"/>
	<path class="st2" d="M144.4,29c2.7-6.1,3.6-13.9-0.8-21.5c1.1,0.2,2.3,0.3,3.5,0.3c4.6,0,8.2-0.4,12.2-2.7
		c3.3,2.1,7.1,3.1,10.9,3.2c3.9,0,7.7-1.1,10.9-3.2c4,2.3,7.6,2.7,12.2,2.7c1.2,0,2.3-0.1,3.5-0.3c-4.5,7.7-3.5,15.5-0.8,21.6H144.4
		"/>
	<path class="st3" d="M196,29c-2.7-6.1-3.6-13.9,0.8-21.6c-1.1,0.2-2.3,0.3-3.5,0.3c-4.6,0-8.2-0.4-12.2-2.7
		c-3.3,2.1-7.1,3.1-10.9,3.2c0,0-0.1,0-0.1,0V29H196z"/>
	<path class="st4" d="M190.3,58.4c5.1-3.7,8.1-9.6,7.6-18.3c-0.1-0.5-0.1-0.5-0.1-1h-7.5V58.4z"/>
	<path class="st5" d="M182.2,62.1c2.9-0.7,5.6-2,8-3.7V39.1h-8V62.1z"/>
	<path class="st5" d="M150.1,58.4c2.4,1.7,5.2,3,8,3.7v-23h-8V58.4z"/>
	<path class="st4" d="M142.4,40.1c-0.4,8.7,2.6,14.6,7.6,18.3V39.1h-7.5C142.5,39.6,142.5,39.6,142.4,40.1"/>
	<path class="st5" d="M170.2,43.4c1.4,0,2.8,0.4,4,1.2v-5.4h-8v5.4C167.4,43.8,168.8,43.4,170.2,43.4"/>
	<path class="st5" d="M170.2,58.5c-1.4,0-2.8-0.4-4-1.2v6c0.1,0,0.3,0,0.4,0c2.7,0,5.1,0,7.2,0c0.1,0,0.3,0,0.4,0v-6
		C173,58.1,171.6,58.5,170.2,58.5"/>
	<path class="st4" d="M174.2,39.1v5.4c3.6,2.2,4.6,6.9,2.4,10.4c-0.6,1-1.5,1.8-2.4,2.4v6c2.7-0.1,5.4-0.5,8-1.2v-23L174.2,39.1z"/>
	<path class="st4" d="M162.6,50.9c0-2.6,1.3-5,3.5-6.4v-5.4h-8v23c2.6,0.7,5.3,1.1,8,1.2v-6C163.9,56,162.6,53.6,162.6,50.9"/>
	<path class="st6" d="M146.2,14.3c0.5,2.5,0.6,5.1,0.2,7.7h7.8v7h7.7v-7h8.2v-7.7h-8.2V6.5c-0.9-0.4-1.8-0.9-2.7-1.4
		c-1.6,0.9-3.3,1.6-5,2v7.2L146.2,14.3z"/>
	<path class="st6" d="M186.6,29V7.2c-0.9-0.2-1.9-0.5-2.8-0.8V29H186.6z"/>
	<path class="st6" d="M175.6,29V7.5c-0.9,0.3-1.8,0.4-2.8,0.6V29H175.6z"/>
	<path class="st6" d="M192.1,29V7.8c-1,0-1.9-0.1-2.8-0.1V29L192.1,29z"/>
	<path class="st6" d="M181.1,29V5.1c-0.9,0.5-1.8,1-2.8,1.4V29H181.1z"/>
	<path class="st7" d="M205.6,35.7l-1.1-1.1c-4.5-4.7-10.8-16.3-2.7-27.1l0.6-0.8l-3.1-4.3l-1.1,0.4c-1.6,0.6-3.3,0.9-5,0.9
		c-4.6,0-7.7-0.5-11.4-2.9L181,0.1l-0.9,0.6c-2.9,2.2-6.4,3.3-10,3.4c-3.6,0-7.1-1.2-10-3.4l-0.9-0.6l-0.9,0.6
		c-3.7,2.5-6.8,2.9-11.4,2.9c-1.7,0-3.4-0.3-5-0.9L141,2.3l-3.1,4.3l0.6,0.8c8.1,10.8,1.8,22.4-2.7,27.1l-1.1,1.1l1.1,1.1
		c0.6,0.6,1.6,1.6,2.4,2.5c0,0,0,0.1,0,0.1c0,0.1,0,0.2,0,0.3l0,0.1c-0.4,7.8,1.6,14.2,6,19c4.7,5.1,12,8.2,20.6,8.7
		c2.1,1.9,4.3,3.6,4.4,3.6l0.9,0.7l0.9-0.7c0.1-0.1,2.3-1.7,4.4-3.6c8.6-0.5,15.9-3.5,20.6-8.7c4.4-4.8,6.4-11.2,6-19l0-0.1
		c0-0.1,0-0.2,0-0.3c0,0,0-0.1,0-0.1c0.8-0.9,1.9-2,2.4-2.5L205.6,35.7z M200.5,38.7c0.1,0.8,0,0.8,0.1,1.2
		c0.9,17.3-11.1,25.5-25.7,26.1c-2.2,2.1-4.7,3.9-4.7,3.9s-2.5-1.8-4.7-3.9c-14.6-0.6-26.6-8.8-25.7-26.1c0.1-0.5,0-0.4,0.1-1.2
		c-0.8-0.9-2.2-2.3-2.9-3.1c5.2-5.4,11.3-17.8,2.9-29.1l1.8-2.4c1.8,0.6,3.6,0.9,5.5,1c4.9,0,8.2-0.5,12.2-3.2
		c3.2,2.3,7,3.6,10.9,3.6c3.9,0,7.7-1.3,10.9-3.6c4.1,2.7,7.4,3.2,12.2,3.2c1.9,0,3.7-0.3,5.5-1l1.8,2.4
		c-8.5,11.2-2.4,23.7,2.9,29.1C202.7,36.4,201.3,37.8,200.5,38.7"/>
	<path class="st7" d="M142.3,39.1c0,0.3,0,0.4-0.1,0.5c0,0.1,0,0.3-0.1,0.5c-0.3,6.7,1.3,12,4.9,16c4.1,4.6,10.9,7.1,19.4,7.5l0.3,0
		c1.4,0,2.8,0,4.1,0c1,0,1.9,0,2.8,0c8.6-0.4,15.3-2.9,19.4-7.5c3.6-4,5.3-9.4,4.9-16c0-0.2,0-0.4-0.1-0.5c0-0.1,0-0.3-0.1-0.5
		l0-0.2h-55.7L142.3,39.1z M142.6,40.1c0-0.2,0-0.3,0.1-0.5c0-0.1,0-0.2,0-0.4h54.8c0,0.1,0,0.2,0,0.4c0,0.1,0,0.2,0.1,0.4
		c0.3,6.5-1.3,11.8-4.8,15.7c-4.1,4.5-10.7,7-19.1,7.3c-2,0-4.3,0-6.9,0l-0.3,0c-8.4-0.3-15.1-2.9-19.1-7.3
		C143.9,51.9,142.3,46.6,142.6,40.1"/>
	<path class="st7" d="M144.2,28.9l-0.1,0.3h52.3l-0.1-0.3c-2.3-5.2-4-13.1,0.8-21.4l0.3-0.4l-0.5,0.1c-1.1,0.2-2.3,0.3-3.4,0.3
		c-4.7,0-8.1-0.4-12.1-2.7l-0.1-0.1L181,4.9c-3.2,2-7,3.1-10.8,3.1c-3.8,0-7.6-1.1-10.8-3.1l-0.1-0.1l-0.1,0.1
		c-3.9,2.2-7.4,2.7-12.1,2.7c-1.2,0-2.3-0.1-3.4-0.3l-0.5-0.1l0.3,0.4C148.1,15.8,146.4,23.7,144.2,28.9 M170.3,8.5
		c3.8,0,7.6-1.1,10.8-3.1c4,2.2,7.5,2.7,12.2,2.7c1,0,2-0.1,3-0.3c-4.5,8.1-2.9,15.8-0.7,21h-25.3L170.3,8.5z M144,7.8
		c1,0.2,2,0.2,3,0.2c4.7,0,8.2-0.4,12.2-2.7c3.2,2,6.9,3.1,10.6,3.1v20.3h-25.1C146.9,23.6,148.5,15.8,144,7.8"/>
	<polygon class="st7" points="163.6,32 163.6,30.5 158.4,30.5 158.4,37.7 160,37.7 160,34.7 162.1,34.7 162.1,33.2 160,33.2 160,32 
			"/>
	<path class="st7" d="M169.6,31.9c0.5,0,1,0.3,1.2,0.7l0,0.1l1.4-0.7l0-0.1c-0.5-1-1.5-1.7-2.6-1.6c-1.9,0-3.2,1.5-3.2,3.7
		c0,2.2,1.2,3.7,3.1,3.7c1.1,0.1,2.2-0.6,2.7-1.6l0-0.1l-1.3-0.8l0,0.1c-0.2,0.5-0.7,0.9-1.3,0.9c-0.9,0-1.6-0.9-1.6-2.2
		C168.1,32.7,168.7,31.9,169.6,31.9"/>
	<path class="st7" d="M181.7,32.4c0-1.2-0.9-1.9-2.3-1.9h-3.3v7.2h3.3c1.2,0.2,2.4-0.7,2.6-1.9c0-0.1,0-0.3,0-0.4
		c0-0.6-0.3-1.2-0.9-1.5C181.4,33.5,181.7,32.9,181.7,32.4 M177.6,31.9h1.7c0.7,0,0.8,0.3,0.8,0.6c0,0.4-0.2,0.6-0.7,0.6h-1.8
		L177.6,31.9z M179.4,36.2h-1.8v-1.7h1.8c0.6,0,0.9,0.3,0.9,0.8C180.3,35.9,180,36.2,179.4,36.2"/>
	<path class="st7" d="M170.1,58.7c4.3,0,7.7-3.5,7.7-7.7s-3.5-7.7-7.7-7.7s-7.7,3.5-7.7,7.7v0C162.4,55.2,165.9,58.6,170.1,58.7
		 M170.1,58.2c-1.4,0-2.9-0.4-4.1-1.2c1.7,0,3.3-0.5,4.8-1.2c1.2-0.7,2.5-1.6,2.8-2.9c0.9-0.5,2.1-0.1,2.6,0.8
		c0.1,0.2,0.2,0.5,0.2,0.7C175.2,56.7,172.8,58.2,170.1,58.2 M166.6,52.6c0.4,0.3,0.8,0.4,1.3,0.5c1.2,0,2.3-0.8,2.5-2
		c0.7-0.6,1.8-0.6,2.5,0.1c0.1,0.2,0.2,0.3,0.3,0.5c0.6,1.5-0.7,2.6-2.4,3.7c-1.6,0.8-3.4,1.2-5.2,1.2c-0.8-0.7-1.5-1.5-1.9-2.4
		c0.1,0,0.1,0,0.2,0C164.9,54.1,166,53.6,166.6,52.6 M165.4,48.9c0.1-1.4,0.3-2.7,0.7-4c1-0.7,2.2-1.1,3.4-1.2
		c-0.8,0.8-0.7,2.1,0.1,2.9c0,0,0.1,0.1,0.1,0.1c-0.2,0.2-0.4,0.4-0.5,0.6c-0.8,1.3-0.5,3,0.8,3.8c-0.2,0.9-1.1,1.6-2,1.6
		C166.2,52.4,165.4,50.8,165.4,48.9 M173.7,52.4c0-0.3-0.1-0.6-0.2-0.8c-0.4-1.1-1.7-1.7-2.8-1.2c-0.2,0.1-0.4,0.2-0.6,0.3
		c-1-0.7-1.3-2.1-0.6-3.2c0.8-1.3,2.8-0.8,4.5,0.2c1.5,0.9,2.7,2.3,3.3,4c-0.1,0.8-0.3,1.5-0.6,2.2
		C176.4,52.6,175.1,51.9,173.7,52.4C173.8,52.4,173.8,52.4,173.7,52.4 M174.3,47.2c-1.3-0.7-2.9-1.4-4.1-0.9c-0.7-0.5-1-1.5-0.5-2.2
		c0.1-0.2,0.3-0.4,0.6-0.5c3.8,0,7,3,7.2,6.8C176.7,49.1,175.6,48,174.3,47.2 M165.6,45.3c-0.1,0.5-0.3,1-0.4,1.5
		c-0.4,1.7-0.4,4.3,1,5.6c-0.5,0.9-1.4,1.4-2.4,1.4c-0.1,0-0.3,0-0.4,0C162.2,50.7,163.1,47.3,165.6,45.3"/>
	<path class="st8" d="M7.4,0.1h57.8c3.8,0,7,3.1,7,7c0,0,0,0,0,0v57.8c0,3.8-3.1,7-7,7c0,0,0,0,0,0H7.4c-3.8,0-7-3.1-7-7
		c0,0,0,0,0,0V7.1C0.4,3.2,3.5,0.1,7.4,0.1C7.4,0.1,7.4,0.1,7.4,0.1"/>
	<rect x="14.7" y="45.5" class="st2" width="43.4" height="3.4"/>
	<polygon class="st2" points="26.5,28.3 26.5,24.8 14.7,24.8 14.7,41.2 19,41.2 19,35.3 25.7,35.3 25.7,31.8 19,31.8 19,28.3 	"/>
	<path class="st2" d="M39.4,32.7c1.5-0.5,2.6-2,2.6-3.6c0-2.6-2-4.2-5.3-4.2h-8.4v16.4h8.5c3.6,0,5.8-1.7,5.8-4.6
		C42.6,34.7,41.3,33,39.4,32.7 M32.7,28.1H36c1.2,0,1.9,0.6,1.9,1.6c0,1-0.7,1.6-1.9,1.6h-3.3V28.1z M36.3,37.8h-3.6v-3.3h3.7
		c1.2,0,1.9,0.6,1.9,1.7C38.2,37.3,37.6,37.8,36.3,37.8L36.3,37.8z"/>
	<path class="st2" d="M53.1,31.2l-2-0.3c-1.9-0.3-2.5-0.8-2.5-1.7s0.8-1.5,2.4-1.5c1.3-0.2,2.5,0.7,2.7,2c0,0,0,0,0,0l4.1-0.5
		c-0.6-3.2-2.9-4.8-6.7-4.8c-4.2,0-7,2.1-7,5.3c0,2.8,1.7,4.4,5.1,4.9l2.1,0.3c2.2,0.3,2.7,0.8,2.7,1.8s-0.8,1.5-2.7,1.5
		c-1.4,0.1-2.7-0.8-3.1-2.2L44,36.7c0.7,3.3,3.2,4.9,7.3,4.9c4.6,0,7.3-2,7.3-5.3C58.5,33.3,56.8,31.8,53.1,31.2"/>
</g>
<g>
	<polygon class="st2" points="0,87 6.4,87 6.1,88.8 2.1,88.8 2.1,91.2 5.7,91.2 5.7,93.1 2.1,93.1 2.1,97.3 0,97.3 	"/>
	<path class="st2" d="M7.4,90.8c0-2.7,1.4-4,3.8-4c1.1-0.1,2.3,0.4,3.1,1.2v1.6h-1.7c0,0-0.1-0.9-1.4-0.9c-1.4,0-1.8,0.7-1.8,2.1
		v2.7c0,1.4,0.4,2.1,1.8,2.1c1.3,0,1.4-0.9,1.4-0.9h1.7v1.6c-0.8,0.8-1.9,1.2-3.1,1.2c-2.5,0-3.8-1.2-3.8-4L7.4,90.8z"/>
	<path class="st2" d="M23.6,86.8h1.4v8.6h-6v-8.6h1.4V90h3.1L23.6,86.8z M23.6,91.1h-3.1v3.1h3.1V91.1z M30.4,91.8h-2v6.6H27V85.7
		h1.4v4.9h2V91.8z"/>
	<path class="st9" d="M23.6,86.8h1.4v8.6h-6v-8.6h1.4V90h3.1L23.6,86.8z M23.6,91.1h-3.1v3.1h3.1V91.1z M30.4,91.8h-2v6.6H27V85.7
		h1.4v4.9h2V91.8z"/>
	<path class="st2" d="M42.9,96.9H31.5v-1.2h11.5V96.9z M40.2,87.8h-7.3v-1.2h8.7v4h-7.3v1.8h7.6v1.2h-9v-4.1h7.3V87.8z"/>
	<path class="st9" d="M42.9,96.9H31.5v-1.2h11.5V96.9z M40.2,87.8h-7.3v-1.2h8.7v4h-7.3v1.8h7.6v1.2h-9v-4.1h7.3V87.8z"/>
	<path class="st2" d="M49.8,92c-1.1-0.4-1.9-1.3-2.3-2.4c-0.4,1.2-1.3,2.2-2.4,2.7l-0.8-1.1c1.5-0.7,2.5-2.3,2.5-4v-1.1h1.4v1.1
		c0,1.6,0.9,3,2.3,3.5L49.8,92z M55.5,97.1v1.1h-8.9V95h7v-1h-7v-1.1h8.4v3.1h-7v1.1H55.5z M51.2,89.1h-1.7v-1.2h1.7v-2h1.4v6.4
		h-1.4V89.1z M55.1,92.4h-1.4v-6.7h1.4V92.4z"/>
	<path class="st9" d="M49.8,92c-1.1-0.4-1.9-1.3-2.3-2.4c-0.4,1.2-1.3,2.2-2.4,2.7l-0.8-1.1c1.5-0.7,2.5-2.3,2.5-4v-1.1h1.4v1.1
		c0,1.6,0.9,3,2.3,3.5L49.8,92z M55.5,97.1v1.1h-8.9V95h7v-1h-7v-1.1h8.4v3.1h-7v1.1H55.5z M51.2,89.1h-1.7v-1.2h1.7v-2h1.4v6.4
		h-1.4V89.1z M55.1,92.4h-1.4v-6.7h1.4V92.4z"/>
	<polygon class="st2" points="68.7,95.7 68.7,96.9 57.3,96.9 57.3,95.7 62.2,95.7 62.2,93.5 58.6,93.5 58.6,89.5 65.9,89.5 
		65.9,87.8 58.6,87.8 58.6,86.6 67.4,86.6 67.4,90.6 60.1,90.6 60.1,92.4 67.6,92.4 67.6,93.5 63.7,93.5 63.7,95.7 	"/>
	<polygon class="st9" points="68.7,95.7 68.7,96.9 57.3,96.9 57.3,95.7 62.2,95.7 62.2,93.5 58.6,93.5 58.6,89.5 65.9,89.5 
		65.9,87.8 58.6,87.8 58.6,86.6 67.4,86.6 67.4,90.6 60.1,90.6 60.1,92.4 67.6,92.4 67.6,93.5 63.7,93.5 63.7,95.7 	"/>
	<path class="st2" d="M72,94c1.8,0,3.7-0.2,5.4-0.5l0.2,1.2c-2,0.4-4,0.6-6,0.6h-1.1V87H72L72,94z M81.8,91.9h-1.9v6.5h-1.4V85.7
		h1.4v4.9h1.9V91.9z"/>
	<path class="st9" d="M72,94c1.8,0,3.7-0.2,5.4-0.5l0.2,1.2c-2,0.4-4,0.6-6,0.6h-1.1V87H72L72,94z M81.8,91.9h-1.9v6.5h-1.4V85.7
		h1.4v4.9h1.9V91.9z"/>
	<path class="st2" d="M97.6,91.5v1.2H86.2v-1.2h4.5v-2.3h1.5v2.3H97.6z M96.3,96c0,1.5-1.7,2.4-4.4,2.4c-2.7,0-4.5-0.9-4.5-2.4
		c0-1.5,1.7-2.4,4.5-2.4C94.5,93.7,96.3,94.6,96.3,96 M94.4,90.6c0.3-1,0.4-2.1,0.3-3.1h-7.3v-1.2h8.7v1.1c0,1.1-0.1,2.3-0.4,3.4
		L94.4,90.6z M94.8,96c0-0.8-1.1-1.2-3-1.2c-1.9,0-3,0.5-3,1.2c0,0.8,1.1,1.3,3,1.3C93.7,97.3,94.8,96.8,94.8,96"/>
	<path class="st9" d="M97.6,91.5v1.2H86.2v-1.2h4.5v-2.3h1.5v2.3H97.6z M96.3,96c0,1.5-1.7,2.4-4.4,2.4c-2.7,0-4.5-0.9-4.5-2.4
		c0-1.5,1.7-2.4,4.5-2.4C94.5,93.7,96.3,94.6,96.3,96L96.3,96z M94.4,90.6c0.3-1,0.4-2.1,0.3-3.1h-7.3v-1.2h8.7v1.1
		c0,1.1-0.1,2.3-0.4,3.4L94.4,90.6z M94.8,96c0-0.8-1.1-1.2-3-1.2c-1.9,0-3,0.5-3,1.2c0,0.8,1.1,1.3,3,1.3
		C93.7,97.3,94.8,96.8,94.8,96L94.8,96z"/>
	<path class="st2" d="M106,92.6c-1.4-0.4-2.5-1.4-3.1-2.8c-0.6,1.4-1.7,2.5-3.2,3l-0.7-1.1c1.8-0.6,3.1-2.2,3.1-4.2v-1.2h1.5v1.2
		c0,1.8,1.3,3.4,3.1,3.9L106,92.6z M100.9,93.9h8.5v4.5H108v-3.3h-7.1V93.9z M109.5,93.3H108v-7.6h1.4V93.3z"/>
	<path class="st9" d="M106,92.6c-1.4-0.4-2.5-1.4-3.1-2.8c-0.6,1.4-1.7,2.5-3.2,3l-0.7-1.1c1.8-0.6,3.1-2.2,3.1-4.2v-1.2h1.5v1.2
		c0,1.8,1.3,3.4,3.1,3.9L106,92.6z M100.9,93.9h8.5v4.5H108v-3.3h-7.1V93.9z M109.5,93.3H108v-7.6h1.4V93.3z"/>
	<path class="st2" d="M126.5,96.8h-11.5v-1.2h11.5V96.8z M125.3,93.6h-8.8v-6.8h8.7v1.2H118v1.6h6.9v1.1H118v1.7h7.3V93.6z"/>
	<path class="st9" d="M126.5,96.8h-11.5v-1.2h11.5V96.8z M125.3,93.6h-8.8v-6.8h8.7v1.2H118v1.6h6.9v1.1H118v1.7h7.3V93.6z"/>
	<path class="st2" d="M129.7,94.1c1.4,0,2.7-0.1,4.1-0.3l0.1,1.2c-1.6,0.3-3.1,0.4-4.7,0.3h-0.9v-4.8h3.1v-2.3h-3.1v-1.2h4.5v4.6
		h-3.1L129.7,94.1z M134.8,86h1.3v11.7h-1.3v-6.4h-1.4v-1.2h1.4V86z M138.7,98.4h-1.4V85.7h1.4V98.4z"/>
	<path class="st9" d="M129.7,94.1c1.4,0,2.7-0.1,4.1-0.3l0.1,1.2c-1.6,0.3-3.1,0.4-4.7,0.3h-0.9v-4.8h3.1v-2.3h-3.1v-1.2h4.5v4.6
		h-3.1L129.7,94.1z M134.8,86h1.3v11.7h-1.3v-6.4h-1.4v-1.2h1.4V86z M138.7,98.4h-1.4V85.7h1.4V98.4z"/>
	<path class="st2" d="M147.8,91.1c0,2.7-1.4,4.5-3.3,4.5c-1.9,0-3.2-1.7-3.2-4.5c0-2.7,1.4-4.5,3.2-4.5
		C146.4,86.7,147.8,88.4,147.8,91.1 M142.6,91.1c0,2,0.8,3.2,1.9,3.2c1.1,0,1.9-1.2,1.9-3.2c0-2-0.8-3.2-1.9-3.2
		C143.4,88,142.6,89.1,142.6,91.1 M151.2,98.4h-1.5V85.7h1.5V98.4z"/>
	<path class="st9" d="M147.8,91.1c0,2.7-1.4,4.5-3.3,4.5c-1.9,0-3.2-1.7-3.2-4.5c0-2.7,1.4-4.5,3.2-4.5
		C146.4,86.7,147.8,88.4,147.8,91.1z M142.6,91.1c0,2,0.8,3.2,1.9,3.2c1.1,0,1.9-1.2,1.9-3.2c0-2-0.8-3.2-1.9-3.2
		C143.4,88,142.6,89.1,142.6,91.1L142.6,91.1z M151.2,98.4h-1.5V85.7h1.5V98.4z"/>
	<path class="st2" d="M161.7,91.9c-2,0.4-4.1,0.5-6.2,0.4h-1.1v-5.7h6v1.2h-4.5v3.3c1.9,0.1,3.8-0.1,5.7-0.4L161.7,91.9z
		 M164.2,95.9c0,1.6-1.7,2.5-4.3,2.5c-2.6,0-4.3-0.9-4.3-2.5c0-1.5,1.6-2.5,4.3-2.5C162.5,93.5,164.2,94.4,164.2,95.9 M162.7,95.9
		c0-0.8-1.1-1.3-2.8-1.3s-2.8,0.5-2.8,1.3c0,0.9,1.1,1.3,2.8,1.3S162.7,96.8,162.7,95.9 M164.1,93.4h-1.4v-7.7h1.4V93.4z"/>
	<path class="st9" d="M161.7,91.9c-2,0.4-4.1,0.5-6.2,0.4h-1.1v-5.7h6v1.2h-4.5v3.3c1.9,0.1,3.8-0.1,5.7-0.4L161.7,91.9z
		 M164.2,95.9c0,1.6-1.7,2.5-4.3,2.5c-2.6,0-4.3-0.9-4.3-2.5c0-1.5,1.6-2.5,4.3-2.5C162.5,93.5,164.2,94.4,164.2,95.9L164.2,95.9z
		 M162.7,95.9c0-0.8-1.1-1.3-2.8-1.3s-2.8,0.5-2.8,1.3c0,0.9,1.1,1.3,2.8,1.3S162.7,96.8,162.7,95.9L162.7,95.9z M164.1,93.4h-1.4
		v-7.7h1.4V93.4z"/>
	<path class="st2" d="M175.7,94c0.6-0.1,1.2-0.1,1.7-0.2l0.1,1.1c-2.6,0.4-5.2,0.5-7.7,0.5l-0.2-1.2h1.6v-6h-1.2V87h7v1.2h-1.2
		L175.7,94z M172.5,94.1c0.6,0,1.1,0,1.7-0.1v-5.9h-1.7V94.1z M181.5,91.9h-2v6.5h-1.4V85.7h1.4v4.9h2V91.9z"/>
	<path class="st9" d="M175.7,94c0.6-0.1,1.2-0.1,1.7-0.2l0.1,1.1c-2.6,0.4-5.2,0.5-7.7,0.5l-0.2-1.2h1.6v-6h-1.2V87h7v1.2h-1.2
		L175.7,94z M172.5,94.1c0.6,0,1.1,0,1.7-0.1v-5.9h-1.7V94.1z M181.5,91.9h-2v6.5h-1.4V85.7h1.4v4.9h2V91.9z"/>
	<path class="st2" d="M194.1,96.8h-11.5v-1.2h11.5V96.8z M192.8,93.6H184v-6.8h8.7v1.2h-7.2v1.6h6.9v1.1h-6.9v1.7h7.3L192.8,93.6z"
		/>
	<path class="st9" d="M194.1,96.8h-11.5v-1.2h11.5V96.8z M192.8,93.6H184v-6.8h8.7v1.2h-7.2v1.6h6.9v1.1h-6.9v1.7h7.3L192.8,93.6z"
		/>
	<path class="st2" d="M197.6,94.2c1.8,0,3.5-0.2,5.2-0.5l0.2,1.2c-1.9,0.4-3.9,0.5-5.8,0.5h-1v-8.3h1.4V94.2z M206,85.7v12.7h-1.4
		V91h-3.7v-1.2h3.7v-4.1H206z"/>
	<path class="st9" d="M197.6,94.2c1.8,0,3.5-0.2,5.2-0.5l0.2,1.2c-1.9,0.4-3.9,0.5-5.8,0.5h-1v-8.3h1.4V94.2z M206,85.7v12.7h-1.4
		V91h-3.7v-1.2h3.7v-4.1H206z"/>
	<rect x="15" y="45.5" class="st2" width="43.4" height="3.4"/>
</g>
</svg>
