<svg xmlns="http://www.w3.org/2000/svg" viewBox="0 0 120.97 110.36"><defs><style>.cls-1{fill:none;stroke:#fff;stroke-miterlimit:10;}.cls-2{fill:#1d1d1b;}.cls-3{fill:#ebbd00;}.cls-4{fill:#004a99;}.cls-5{fill:#a50343;}.cls-6{fill:#fff;}.cls-7{fill:#fd0;}.cls-8{fill:#dd052b;}</style></defs><title>KO_logo-without - vertical color (dark bg)</title><g id="Layer_2" data-name="Layer 2"><g id="TEXTOS"><line class="cls-1" x1="89.98" y1="71.83" x2="32.21" y2="71.83"/><path class="cls-2" d="M90,29.29l-.86-.9C85.43,24.55,80.23,15,86.86,6.08l.52-.69-.46-.74a8.06,8.06,0,0,0-.78-1.07c-.21-.26-.43-.53-.72-.94l-.55-.79-.9.32a12.5,12.5,0,0,1-4.06.71c-3.79,0-6.27-.37-9.33-2.4L69.87,0l-.71.49A13.82,13.82,0,0,1,61,3.26,13.82,13.82,0,0,1,52.76.49L52.05,0l-.71.48c-3.06,2-5.54,2.4-9.33,2.4A12.5,12.5,0,0,1,38,2.17l-.9-.32-.55.79c-.29.41-.5.68-.71.93A10.17,10.17,0,0,0,35,4.65l-.46.74.52.69C41.7,15,36.5,24.55,32.82,28.39l-.86.9.88.88c.47.47,1.31,1.35,2,2.08v.12c0,.09,0,.14,0,.26v.08c-.34,6.4,1.32,11.66,4.93,15.65,3.82,4.23,9.8,6.76,16.86,7.15,1.76,1.61,3.53,2.93,3.61,3l.76.57.75-.57c.08-.06,1.85-1.39,3.6-3,7.06-.39,13-2.92,16.86-7.15,3.62-4,5.27-9.25,4.93-15.65v-.08a1.28,1.28,0,0,1,0-.26.49.49,0,0,0,0-.12c.7-.73,1.53-1.61,2-2.08Zm-4.18,2.5c.06.64,0,.61.07,1,.75,14.25-9.12,21-21,21.48C63,56,61,57.48,61,57.48S59,56,57.12,54.26c-11.93-.5-21.8-7.23-21-21.48,0-.38,0-.35.08-1-.69-.73-1.82-1.92-2.42-2.52C38,24.8,43,14.58,36.07,5.32c.46-.74.79-1,1.47-1.95A13.76,13.76,0,0,0,42,4.15c4,0,6.69-.39,10-2.62a15.1,15.1,0,0,0,8.92,3,15.13,15.13,0,0,0,8.93-3c3.33,2.23,6,2.62,10,2.62a13.76,13.76,0,0,0,4.47-.78c.68,1,1,1.21,1.47,2-6.93,9.26-1.94,19.48,2.34,24-.6.6-1.73,1.79-2.41,2.52"/><path class="cls-3" d="M61,57.48a49.71,49.71,0,0,1-3.85-3.22c-11.93-.5-21.8-7.23-21-21.48,0-.38,0-.35.07-1-.68-.72-1.81-1.91-2.41-2.51C38,24.8,43,14.58,36.07,5.32c.46-.74.79-1,1.47-1.95A13.77,13.77,0,0,0,42,4.16c4,0,6.69-.4,10-2.62a15.15,15.15,0,0,0,8.92,3,15.19,15.19,0,0,0,8.93-3c3.33,2.22,6,2.62,10,2.62a13.87,13.87,0,0,0,4.48-.79c.68,1,1,1.21,1.46,2-6.93,9.26-1.94,19.48,2.34,24-.6.6-1.73,1.79-2.41,2.51.07.65,0,.62.07,1,.75,14.25-9.12,21-21,21.48A49.4,49.4,0,0,1,61,57.48"/><path class="cls-4" d="M44.62,32.12H38.34c0,.41-.06.43-.11.84-.36,7.2,2.15,12.11,6.39,15.17Z"/><path class="cls-5" d="M44.62,48.13a19.94,19.94,0,0,0,6.58,3v-19H44.62Z"/><path class="cls-4" d="M51.2,51.13a31.23,31.23,0,0,0,6.59,1v-20H51.2Z"/><path class="cls-5" d="M64.38,32.12H57.79v20H58c2.18,0,4.17,0,5.89,0l.47,0Z"/><path class="cls-4" d="M64.38,52.1a31.1,31.1,0,0,0,6.59-1v-19H64.38Z"/><path class="cls-5" d="M71,51.07a19.7,19.7,0,0,0,6.59-3.13V32.12H71Z"/><path class="cls-4" d="M83.59,32.12h-6V48c4.09-3.07,6.5-7.93,6.14-15,0-.41-.07-.43-.1-.84"/><path class="cls-2" d="M61.59,52.32H58c-7-.29-12.54-2.43-15.93-6.18-3-3.27-4.32-7.7-4.05-13.18a3.21,3.21,0,0,1,.06-.4c0-.13,0-.23,0-.45v-.17h45.6l0,.17a3.37,3.37,0,0,0,0,.45c0,.09,0,.2,0,.39.29,5.49-1.07,9.92-4,13.19-3.4,3.75-8.9,5.89-15.91,6.18H61.59m-23.08-20c0,.12,0,.21,0,.29s0,.2,0,.38c-.27,5.36,1.06,9.7,3.95,12.89,3.33,3.68,8.74,5.77,15.65,6.06H63.9c6.91-.29,12.32-2.38,15.65-6.06,2.89-3.19,4.22-7.53,4-12.9,0-.17,0-.28,0-.37s0-.17,0-.29Z"/><path class="cls-3" d="M54.62,41.85a6.32,6.32,0,1,1,6.32,6.35,6.34,6.34,0,0,1-6.32-6.35"/><path class="cls-2" d="M60.94,35.68a6.17,6.17,0,1,0,6.12,6.17,6.16,6.16,0,0,0-6.12-6.17m0,12.45a6.29,6.29,0,1,1,6.25-6.28,6.27,6.27,0,0,1-6.25,6.28"/><path class="cls-2" d="M60.94,35.49a6.36,6.36,0,1,1-6.32,6.36,6.33,6.33,0,0,1,6.32-6.36M57.71,43c-1.14-1-1.14-3.17-.84-4.59.09-.39.2-.78.31-1.22a6,6,0,0,0-1.77,6.9,1.55,1.55,0,0,0,.31,0,2.18,2.18,0,0,0,2-1.12m6.14.46c-.2,1-1.26,1.76-2.27,2.36a9.18,9.18,0,0,1-4,1,5.88,5.88,0,0,0,3.33,1,6,6,0,0,0,5.22-3.1,1.58,1.58,0,0,0-2.31-1.28m-6.7,3a9.35,9.35,0,0,0,4.25-1c1.41-.84,2.51-1.75,2-3a1.43,1.43,0,0,0-2.28-.56,2,2,0,0,1-2,1.66A2.43,2.43,0,0,1,58,43.22a2.56,2.56,0,0,1-2.28,1.25h-.15a6.08,6.08,0,0,0,1.58,2m3.77-8.37c1-.41,2.35.12,3.4.71a6.93,6.93,0,0,1,2.57,2.66A6,6,0,0,0,61,35.85a1.33,1.33,0,0,0-.07,2.26m-.17,3.83a2.34,2.34,0,0,1-.62-3.15,1.93,1.93,0,0,1,.45-.49,1.67,1.67,0,0,1-.16-2.43,5.92,5.92,0,0,0-2.79,1,13.07,13.07,0,0,0-.58,3.33c0,1.59.67,2.88,2.05,3.06a1.7,1.7,0,0,0,1.65-1.31m6.12.46a6.18,6.18,0,0,0-2.73-3.27c-1.44-.81-3-1.25-3.71-.15a2,2,0,0,0,.51,2.65,1.77,1.77,0,0,1,2.78.73,2.13,2.13,0,0,1,.16.7,1.93,1.93,0,0,1,2.53,1.17,5.66,5.66,0,0,0,.46-1.83"/><path class="cls-2" d="M68.45,30.94H65.77V25h2.71c1.18,0,1.89.6,1.89,1.6a1.32,1.32,0,0,1-.54,1.11A1.41,1.41,0,0,1,70.57,29a1.87,1.87,0,0,1-2.12,1.93M67,29.7h1.45c.5,0,.76-.23.76-.68s-.24-.67-.76-.67H67Zm0-2.51h1.45c.39,0,.57-.15.57-.47s-.07-.49-.63-.49H67Z"/><path class="cls-2" d="M60.5,31c-1.57,0-2.59-1.19-2.59-3.05s1.08-3.05,2.62-3.05a2.25,2.25,0,0,1,2.17,1.32l0,.07-1.19.55,0-.06a1,1,0,0,0-1-.59c-.79,0-1.28.68-1.28,1.76s.51,1.77,1.29,1.77a1.13,1.13,0,0,0,1.06-.7l0-.06,1.08.64,0,.06A2.27,2.27,0,0,1,60.5,31"/><polygon class="cls-2" points="52.6 30.94 51.31 30.94 51.31 25.02 55.56 25.02 55.56 26.29 52.6 26.29 52.6 27.24 54.33 27.24 54.33 28.5 52.6 28.5 52.6 30.94"/><path class="cls-6" d="M39.84,23.81c2.17-5,3-11.45-.67-17.74A16.48,16.48,0,0,0,42,6.33c3.74,0,6.68-.34,10-2.22A16.77,16.77,0,0,0,61,6.71a16.85,16.85,0,0,0,9-2.6c3.31,1.88,6.25,2.22,10,2.22a15.93,15.93,0,0,0,2.86-.27c-3.67,6.3-2.86,12.74-.69,17.75Z"/><path class="cls-7" d="M60.77,6.71v17.1H63V6.58A17.46,17.46,0,0,1,61,6.71h-.18"/><path class="cls-8" d="M63,23.81h2.26V6.13A16.43,16.43,0,0,1,63,6.58Z"/><path class="cls-7" d="M65.29,23.81h2.26V5.34a15.9,15.9,0,0,1-2.26.79Z"/><path class="cls-8" d="M67.55,23.81H69.8V4.18a17.72,17.72,0,0,1-2.25,1.16Z"/><path class="cls-7" d="M69.8,4.18V23.81h2.26V5.14a17.39,17.39,0,0,1-2.15-1,.41.41,0,0,1-.11.07"/><path class="cls-8" d="M72.06,23.81h2.26v-18a16.24,16.24,0,0,1-2.26-.69Z"/><path class="cls-7" d="M74.32,23.81h2.26V6.19a16.89,16.89,0,0,1-2.26-.36Z"/><path class="cls-8" d="M76.58,23.78h2.26V6.29c-.78,0-1.53,0-2.26-.12Z"/><path class="cls-7" d="M82.59,6.08a14.84,14.84,0,0,1-2.68.25H78.84V23.81h3.24c-2.14-4.93-3-11.24.51-17.45Z"/><path class="cls-8" d="M47.9,18v5.8h6.28V18h6.7V11.69h-6.7V5.26A19.55,19.55,0,0,1,52,4.11,15.72,15.72,0,0,1,47.9,5.76v5.93H41.32A18.5,18.5,0,0,1,41.5,18Z"/><path class="cls-2" d="M83.14,5.79l-.41.08a15.28,15.28,0,0,1-2.82.27c-3.82,0-6.66-.36-9.9-2.19l-.1-.06L69.82,4A16.64,16.64,0,0,1,61,6.52,16.62,16.62,0,0,1,52.1,4L52,3.89l-.1.06C48.68,5.78,45.83,6.14,42,6.14a15.55,15.55,0,0,1-2.81-.26l-.4-.07.2.36c3.92,6.74,2.53,13.27.67,17.56l-.12.27H82.37l-.12-.27c-1.86-4.29-3.25-10.82.68-17.58Zm-43.61.53a15.42,15.42,0,0,0,2.48.2c3.85,0,6.73-.36,10-2.19A17,17,0,0,0,60.69,6.9V23.62H40.13a19.32,19.32,0,0,0-.6-17.3M81.8,23.62H61.07V6.9a17.12,17.12,0,0,0,8.85-2.57c3.27,1.83,6.14,2.19,10,2.19a15.22,15.22,0,0,0,2.49-.21,19.31,19.31,0,0,0-.6,17.31"/><path class="cls-6" d="M20.71,85.43h5.93l-.28,1.73H22.62v2.2H26v1.73H22.62V95H20.71Z"/><path class="cls-6" d="M27.56,89c0-2.54,1.26-3.68,3.55-3.68A3.82,3.82,0,0,1,34,86.4v1.49H32.42S32.31,87,31.13,87s-1.65.62-1.65,1.94v2.5c0,1.32.39,1.94,1.65,1.94s1.29-.86,1.29-.86H34V94a3.82,3.82,0,0,1-2.88,1.07c-2.29,0-3.55-1.14-3.55-3.68Z"/><path class="cls-6" d="M43.09,84.41h1.44V93.1H38.48V84.41h1.45v3.24h3.16Zm0,4.4H39.93v3.12h3.16Zm6.79.66h-2v6.64H46.44V83.37H47.9v4.89h2Z"/><path class="cls-6" d="M48,96.24h-1.7v-13H48v4.9h2V89.6H48ZM46.57,96h1.2V89.35h2v-1h-2v-4.9h-1.2Zm-1.92-2.77h-6.3V84.29h1.7v3.24H43V84.29h1.69Zm-6-.25h5.8V84.54H43.21v3.24H39.8V84.54H38.6Zm4.61-.92H39.8V88.69h3.41Zm-3.16-.25H43V88.94H40.05Z"/><path class="cls-6" d="M62.55,93.38v1.2H51v-1.2Zm-2.81-7.91H52.38V84.28h8.8v4H53.84v1.77h7.62v1.19H52.41V87.16h7.33Z"/><path class="cls-6" d="M62.67,94.7H50.89V93.25H62.67Zm-11.53-.25H62.42v-1H51.14Zm10.45-3h-9.3V87h7.33V85.59H52.26V84.16h9.05v4.28H54V90h7.63Zm-9.05-.25h8.8v-.93H53.71v-2h7.35V84.41H52.51v.93h7.36v2H52.54Z"/><path class="cls-6" d="M69.48,89.68a4.22,4.22,0,0,1-2.31-2.38,4.82,4.82,0,0,1-2.44,2.75L63.92,89a4.34,4.34,0,0,0,2.54-4V83.88h1.41V85a3.73,3.73,0,0,0,2.36,3.57Zm5.75,5.16V96H66.29V92.7h7v-1H66.26V90.61h8.51v3.16h-7v1.07Zm-4.34-8.09H69.15V85.57h1.74v-2h1.37V90H70.89Zm3.88,3.34H73.38V83.37h1.39Z"/><path class="cls-6" d="M75.36,96.11H66.17V92.58h7v-.71H66.14V90.49h8.75V93.9h-7v.82h7.5Zm-8.94-.25h8.69V95h-7.5V93.65h7V90.74H66.39v.88h7.08v1.21h-7Zm8.47-5.64H73.26v-7h1.63ZM73.51,90h1.13V83.49H73.51Zm-8.82.24-1-1.31.14-.06A4.25,4.25,0,0,0,66.34,85V83.75H68V85a3.58,3.58,0,0,0,2.27,3.45l.15.06-.89,1.33-.1,0a4.33,4.33,0,0,1-2.26-2.18,4.84,4.84,0,0,1-2.39,2.54ZM64.11,89l.66.89a4.7,4.7,0,0,0,2.28-2.63l.11-.3.12.29a4.12,4.12,0,0,0,2.15,2.28l.61-.9A3.88,3.88,0,0,1,67.75,85V84H66.59v1A4.49,4.49,0,0,1,64.11,89Zm8.27,1.12H70.76V86.88H69V85.44h1.73v-2h1.62ZM71,89.87h1.12V83.72H71v2H69.28v.94H71Z"/><path class="cls-6" d="M88.5,93.41v1.2H77v-1.2h5V91.24H78.37V87.13H85.7v-1.7H78.34V84.26h8.8v4H79.79v1.78h7.63v1.17h-4v2.17Z"/><path class="cls-6" d="M88.63,94.73H76.85V93.28h5V91.36H78.24V87h7.33V85.55H78.21V84.13h9.05v4.28H79.92v1.53h7.62v1.42h-4v1.92h5.06ZM77.1,94.48H88.38v-1H83.32V91.11h4v-.92H79.67v-2H87V84.38H78.46v.92h7.36v2H78.49v3.85h3.63v2.42h-5Z"/><path class="cls-6" d="M91.84,91.71a27.58,27.58,0,0,0,5.48-.55l.17,1.2a30.39,30.39,0,0,1-6,.57h-1V84.61h1.45Zm9.9-2.18H99.8V96.1H98.35V83.37H99.8v5h1.94Z"/><path class="cls-6" d="M99.93,96.22h-1.7v-13h1.7v5h1.93v1.44H99.93ZM98.48,96h1.2V89.4h1.93v-.94H99.68v-5h-1.2Zm-7-2.92H90.26V84.48H92v7.11A27.43,27.43,0,0,0,97.3,91l.13,0,.2,1.44-.11,0A31.31,31.31,0,0,1,91.44,93.05Zm-.93-.25h.93a30.35,30.35,0,0,0,5.91-.54l-.13-1a28.69,28.69,0,0,1-5.38.53h-.13V84.73h-1.2Z"/><path class="cls-6" d="M11.6,103.3v1.17H.13V103.3H4.64V101H6.1v2.34Zm-1.32,4.52c0,1.49-1.75,2.39-4.46,2.39s-4.48-.9-4.48-2.39,1.73-2.36,4.48-2.36S10.28,106.36,10.28,107.82Zm-1.86-5.44a11.46,11.46,0,0,0,.33-3.13H1.45V98.08h8.74v1.07a12.16,12.16,0,0,1-.35,3.39Zm.4,5.44c0-.79-1.12-1.25-3-1.25s-3,.46-3,1.25,1.15,1.27,3,1.27S8.82,108.63,8.82,107.82Z"/><path class="cls-6" d="M5.82,110.33c-2.84,0-4.61-1-4.61-2.51s1.77-2.49,4.61-2.49,4.58,1,4.58,2.49S8.65,110.33,5.82,110.33Zm0-4.75c-2.69,0-4.36.86-4.36,2.24s1.67,2.26,4.36,2.26,4.33-.86,4.33-2.26S8.49,105.58,5.82,105.58Zm0,3.64c-2,0-3.17-.51-3.17-1.4s1.19-1.37,3.17-1.37S9,107,9,107.82,7.81,109.22,5.82,109.22Zm0-2.52c-1.8,0-2.92.43-2.92,1.12S4,109,5.82,109s2.88-.43,2.88-1.15S7.6,106.7,5.82,106.7Zm5.91-2.11H0v-1.42H4.51v-2.34H6.23v2.34h5.5ZM.25,104.34H11.48v-.92H6v-2.34H4.76v2.34H.25Zm9.68-1.67-1.67-.18,0-.14a10.75,10.75,0,0,0,.34-3H1.33V98h9v1.19a12.07,12.07,0,0,1-.36,3.42Zm-1.36-.4,1.18.13a12.14,12.14,0,0,0,.32-3.25v-.94H1.58v.92h7.3v.12A11.7,11.7,0,0,1,8.57,102.27Z"/><path class="cls-6" d="M20.09,104.4A5.13,5.13,0,0,1,17,101.62a5.28,5.28,0,0,1-3.18,3l-.71-1.14a4.46,4.46,0,0,0,3.13-4.19V98.05h1.48v1.24a4.21,4.21,0,0,0,3.08,4ZM15,105.71h8.59v4.5H22.13v-3.33H15Zm8.59-8.25v7.64H22.13V97.46Z"/><path class="cls-6" d="M23.7,110.33H22V107H14.87v-1.43H23.7Zm-1.45-.25h1.2v-4.25H15.12v.93h7.13Zm1.45-4.85H22V97.34h1.7ZM22.25,105h1.2V97.59h-1.2Zm-8.47-.2-.85-1.36.14-.06a4.32,4.32,0,0,0,3.05-4.07V97.93h1.73v1.36a4.12,4.12,0,0,0,3,3.85l.15,0-.85,1.36-.1,0a5.34,5.34,0,0,1-3-2.6,5.4,5.4,0,0,1-3.13,2.82Zm-.48-1.23.59.92a5.13,5.13,0,0,0,3-2.9l.11-.26.12.26A5.05,5.05,0,0,0,20,104.25l.58-.93a4.33,4.33,0,0,1-3-4V98.18H16.37v1.11A4.57,4.57,0,0,1,13.3,103.55Z"/><path class="cls-6" d="M40.79,107.46v1.18H29.24v-1.18Zm-1.3-2.09H30.66V98.51h8.73v1.17H32.14v1.63h7v1.14h-7v1.75h7.35Z"/><path class="cls-6" d="M40.91,108.77H29.11v-1.44h11.8Zm-11.55-.25h11.3v-.94H29.36Zm10.25-3H30.54V98.38h9V99.8H32.27v1.39h7v1.39h-7v1.5h7.34Zm-8.82-.25h8.57v-.92H32v-2h7v-.89H32V99.55h7.24v-.92H30.79Z"/><path class="cls-6" d="M44,106a24.75,24.75,0,0,0,4.08-.34l.13,1.2a25.94,25.94,0,0,1-4.74.34h-.87v-4.88h3.1V100H42.58V98.82h4.53v4.62H44Zm5.1-8.19h1.35v11.81H49.11v-6.44H47.67v-1.2h1.44Zm4-.28v12.73H51.69V97.48Z"/><path class="cls-6" d="M53.2,110.33H51.56v-13H53.2Zm-1.39-.25H53V97.6H51.81Zm-1.22-.38H49v-6.45H47.55v-1.44H49V97.63h1.61Zm-1.36-.25h1.11V97.88H49.23v4.18H47.8V103h1.43Zm-5.75-2.18h-1v-5.12h3.1v-2H42.46V98.69h4.77v4.88h-3.1v2.25a24.3,24.3,0,0,0,3.94-.33l.14,0,.15,1.44-.12,0A26.11,26.11,0,0,1,43.48,107.27Zm-.74-.25h.74a26.67,26.67,0,0,0,4.6-.31l-.1-.95a25.63,25.63,0,0,1-4,.31h-.13v-2.76H47V98.94H42.71v.92h3.13v2.54h-3.1Z"/><path class="cls-6" d="M62.17,102.89c0,2.76-1.38,4.5-3.28,4.5s-3.27-1.74-3.27-4.5,1.38-4.48,3.27-4.48S62.17,100.16,62.17,102.89Zm-5.16,0c0,2,.78,3.2,1.88,3.2s1.89-1.2,1.89-3.2-.78-3.17-1.89-3.17S57,100.92,57,102.89Zm8.66-5.43v12.78H64.2V97.46Z"/><path class="cls-6" d="M65.79,110.36H64.08v-13h1.71Zm-1.46-.25h1.21V97.59H64.33Zm-5.44-2.6c-2,0-3.4-1.85-3.4-4.62s1.4-4.61,3.4-4.61,3.41,1.85,3.41,4.61S60.93,107.51,58.89,107.51Zm0-9c-1.89,0-3.15,1.75-3.15,4.36s1.26,4.37,3.15,4.37,3.16-1.75,3.16-4.37S60.78,98.53,58.89,98.53Zm0,7.69c-1.22,0-2-1.31-2-3.33s.78-3.3,2-3.3,2,1.3,2,3.3S60.11,106.22,58.89,106.22Zm0-6.38c-1.07,0-1.75,1.2-1.75,3s.68,3.08,1.75,3.08,1.76-1.21,1.76-3.08S60,99.84,58.89,99.84Z"/><path class="cls-6" d="M76.21,103.74a29.77,29.77,0,0,1-6.22.43H68.92V98.45h6v1.18H70.37V103a28.79,28.79,0,0,0,5.69-.42Zm2.51,4c0,1.57-1.67,2.48-4.32,2.48s-4.31-.91-4.31-2.48,1.65-2.47,4.31-2.47S78.72,106.19,78.72,107.74Zm-1.46,0c0-.85-1.05-1.33-2.86-1.33s-2.86.48-2.86,1.33,1.06,1.34,2.86,1.34S77.26,108.6,77.26,107.74Zm1.4-2.54H77.21V97.48h1.45Z"/><path class="cls-6" d="M74.4,110.35c-2.78,0-4.44-1-4.44-2.61s1.66-2.59,4.44-2.59,4.44,1,4.44,2.59S77.18,110.35,74.4,110.35Zm0-4.95c-2.62,0-4.19.87-4.19,2.34s1.57,2.36,4.19,2.36,4.19-.88,4.19-2.36S77,105.4,74.4,105.4Zm0,3.8c-1.9,0-3-.53-3-1.46s1.09-1.45,3-1.45,3,.53,3,1.45S76.3,109.2,74.4,109.2Zm0-2.66c-1.71,0-2.74.45-2.74,1.2s1,1.21,2.74,1.21,2.74-.44,2.74-1.21S76.12,106.54,74.4,106.54Zm4.38-1.21h-1.7v-8h1.7Zm-1.45-.25h1.2V97.6h-1.2ZM70,104.3h-1.2v-6h6.26v1.44H70.49v3.1a26.48,26.48,0,0,0,5.55-.42l.13,0,.17,1.42-.11,0A29.7,29.7,0,0,1,70,104.3Zm-.95-.25H70a29.77,29.77,0,0,0,6.08-.41l-.11-.93a27.6,27.6,0,0,1-5.59.4h-.13v-3.6H74.8v-.94H69Z"/><path class="cls-6" d="M90.28,105.79c.6-.05,1.19-.11,1.75-.18l.09,1.07a49.3,49.3,0,0,1-7.8.48l-.15-1.2h1.56v-6H84.49V98.76h7v1.17H90.28Zm-3.14.15,1.73-.08V99.93H87.14Zm9-2.29h-2v6.57H92.72V97.48h1.45v5h2Z"/><path class="cls-6" d="M94.3,110.35H92.6v-13h1.7v5h2v1.45h-2Zm-1.45-.25h1.2v-6.57h2v-1h-2v-5h-1.2Zm-8.53-2.81h-.11L84,105.84H85.6v-5.79H84.36V98.63h7.29v1.42H90.41v5.61l1.61-.17.13,0,.1,1.32-.11,0A49.82,49.82,0,0,1,84.32,107.29Zm0-1.2.12,1a49.91,49.91,0,0,0,7.55-.46l-.06-.83c-.53.07-1.09.12-1.63.17h-.13V99.8H91.4v-.92H84.61v.92h1.24v6.29Zm2.7,0V99.8h2V106h-.12c-.63,0-1.19.06-1.74.07Zm.25-6v5.76l1.49-.06v-5.7Z"/><path class="cls-6" d="M108.84,107.46v1.18H97.3v-1.18Zm-1.29-2.09H98.72V98.51h8.73v1.17H100.2v1.63h7v1.14h-7v1.75h7.35Z"/><path class="cls-6" d="M109,108.77H97.17v-1.44H109Zm-11.55-.25h11.3v-.94H97.42Zm10.25-3H98.6V98.38h9V99.8h-7.24v1.39h7v1.39h-7v1.5h7.34Zm-8.82-.25h8.57v-.92h-7.34v-2h7v-.89h-7V99.55h7.24v-.92H98.85Z"/><path class="cls-6" d="M112.39,106a28.65,28.65,0,0,0,5.26-.51l.17,1.2a30.14,30.14,0,0,1-5.85.52h-1V98.87h1.44Zm8.46-8.5v12.76H119.4v-7.49h-3.7v-1.18h3.7V97.48Z"/><path class="cls-6" d="M121,110.36h-1.7v-7.49h-3.69v-1.43h3.69V97.35H121Zm-1.45-.25h1.2V97.6h-1.2v4.09h-3.69v.93h3.69ZM112,107.32h-1.14V98.75h1.68v7.1a27.5,27.5,0,0,0,5.11-.5l.13,0,.21,1.45-.12,0A29.86,29.86,0,0,1,112,107.32Zm-.89-.25H112a29.9,29.9,0,0,0,5.71-.5l-.14-.95a27.9,27.9,0,0,1-5.15.48h-.13V99h-1.18Z"/></g></g></svg>