<svg data-name="Layer 1" xmlns="http://www.w3.org/2000/svg" viewBox="0 0 143.54 143.54"><rect width="143.54" height="143.54" rx="14.78" style="fill:#00be40"/><path d="M26.17 91.56h91.33v7.26H26.17zm26.06-36.21V48H26.17v34.45h9.11V70.18H50v-7.39H35.28v-7.44ZM79 64.56c3.65-1.68 5.57-4.34 5.57-7.68 0-5.57-4.14-8.92-11.08-8.92H55.83v34.49h17.84c7.59 0 12.12-3.6 12.12-9.71 0-3.94-2.51-6.9-6.79-8.18ZM64.76 55h7c2.56 0 3.94 1.18 3.94 3.35s-1.38 3.34-3.94 3.34h-7Zm7.63 20.49h-7.63V68.6h7.73c2.56 0 4 1.23 4 3.55-.01 2.17-1.44 3.3-4.1 3.3Zm34.74-13.99-4.13-.59c-4.09-.6-5.3-1.6-5.3-3.5s1.6-3.2 5.16-3.2c3.29 0 4.9 1.2 5.67 4.2l8.68-1.11c-1.28-6.79-6.16-10.09-14.1-10.09-8.9 0-14.75 4.45-14.75 11.24 0 5.85 3.55 9.25 10.8 10.25l4.34.6c4.6.65 5.7 1.7 5.7 3.7s-1.7 3.2-5.75 3.2a6.51 6.51 0 0 1-6.54-4.59l-9 1.35c1.47 7 6.8 10.23 15.32 10.23 9.65 0 15.35-4.14 15.35-11.19-.05-6.15-3.58-9.35-11.45-10.5Z" style="fill:#fff"/></svg>