<svg width="960" height="44" viewBox="0 0 960 44" fill="none" xmlns="http://www.w3.org/2000/svg">
<path fill-rule="evenodd" clip-rule="evenodd" d="M0 6.67143C16 -1.55714 32 -1.55714 48 6.67143C64 14.9 80 14.9 96 6.67143C112 -1.55714 128 -1.55714 144 6.67143C160 14.9 176 14.9 192 6.67143C208 -1.55714 224 -1.55714 240 6.67143C256 14.9 272 14.9 288 6.67143C304 -1.55714 320 -1.55714 336 6.67143C352 14.9 368 14.9 384 6.67143C400 -1.55714 416 -1.55714 432 6.67143C448 14.9 464 14.9 480 6.67143C496 -1.55714 512 -1.55714 528 6.67143C544 14.9 560 14.9 576 6.67143C592 -1.55714 608 -1.55714 624 6.67143C640 14.9 656 14.9 672 6.67143C688 -1.55714 704 -1.55714 720 6.67143C736 14.9 752 14.9 768 6.67143C784 -1.55714 800 -1.55714 816 6.67143C832 14.9 848 14.9 864 6.67143C880 -1.55714 896 -1.55714 912 6.67143C928 14.9 944 14.9 960 6.67143V48.5H480H0V6.67143Z" fill="white"/>
</svg>
