<svg width="80" height="81" viewBox="0 0 80 81" fill="none" xmlns="http://www.w3.org/2000/svg">
<g clip-path="url(#clip0_563_109469)">
<path d="M20.8418 10.3324C20.6484 10.1374 20.4264 9.97281 20.1835 9.84432C20.0169 9.74376 19.842 9.65761 19.6608 9.58679C19.5127 9.5187 19.3578 9.46641 19.1987 9.43079C19.0081 9.36954 18.8127 9.32414 18.6146 9.29501C18.5412 9.27836 18.4662 9.26943 18.3909 9.26835C18.0954 9.23706 17.7978 9.23016 17.5011 9.24779C14.5615 9.44413 9.5653 10.2651 6.63975 12.0071C6.54867 12.0584 6.46215 12.1175 6.3811 12.1835" stroke="#09544F" stroke-width="2" stroke-linecap="round" stroke-linejoin="round"/>
<path d="M6.36769 12.1836C4.4125 13.4916 2.95946 15.986 2.65356 18.2568C2.13845 21.9991 4.16791 25.768 5.81756 29.1245C6.26713 30.0677 6.98524 30.8576 7.88204 31.3953C8.47962 31.7329 9.14997 31.9213 9.83612 31.9447" stroke="#09544F" stroke-width="2" stroke-linecap="round" stroke-linejoin="round"/>
<path d="M7.88204 31.3953C6.98524 30.8576 6.26713 30.0677 5.81756 29.1245C4.16791 25.768 2.13845 21.9991 2.65356 18.2568C2.95946 15.986 4.4125 13.4916 6.36769 12.1836" stroke="#09544F" stroke-width="2" stroke-linecap="round" stroke-linejoin="round"/>
<path d="M6.3811 12.1835C6.46215 12.1175 6.54867 12.0584 6.63975 12.0071C9.5653 10.2651 14.5615 9.44413 17.5011 9.24779C17.7978 9.23016 18.0954 9.23706 18.3909 9.26835C18.4662 9.26943 18.5412 9.27836 18.6146 9.29501C18.8127 9.32414 19.0081 9.36954 19.1987 9.43079C19.3578 9.46641 19.5127 9.5187 19.6608 9.58679C19.842 9.65761 20.0169 9.74376 20.1835 9.84432" stroke="#09544F" stroke-width="2" stroke-linecap="round" stroke-linejoin="round"/>
<path d="M22.3421 11.6681C21.9625 11.104 21.4465 10.6447 20.8418 10.3328C20.587 10.181 20.3094 10.071 20.0197 10.0068C18.5533 9.57308 16.7273 9.87817 14.7588 11.0046C13.2756 11.9065 11.9462 13.0392 10.821 14.36C7.94959 17.6815 5.97998 22.2375 5.97998 26.2024C5.97998 28.5755 6.68662 30.3582 7.88209 31.3957" stroke="#09544F" stroke-width="2" stroke-linecap="round" stroke-linejoin="round"/>
<path d="M20.936 12.2032H20.9227C20.1145 11.7644 19.1836 11.605 18.2752 11.7498C17.3041 11.9068 16.3699 12.2396 15.5186 12.732C14.4014 13.4021 13.3845 14.2261 12.4977 15.1797C12.1788 15.532 11.8527 15.9056 11.5273 16.3119C9.83908 18.4622 8.66413 20.9686 8.09173 23.6405C7.87665 24.7016 7.80614 25.7869 7.88214 26.8669C8.07838 28.4464 8.49972 29.7688 9.75542 30.6971" stroke="#09544F" stroke-width="2" stroke-linecap="round" stroke-linejoin="round"/>
<path d="M14.9489 51.4211C15.4041 54.9735 15.7566 55.0816 17.1617 55.78C18.8867 56.6478 19.4563 56.7767 22.0362 55.4205C22.3288 55.2786 22.6477 55.1161 22.9871 54.9191C25.0577 53.7941 25.1049 52.5665 24.9422 50.6826" stroke="#09544F" stroke-width="2" stroke-linecap="round" stroke-linejoin="round"/>
<path d="M24.9422 50.6826C25.1049 52.5665 25.0577 53.7941 22.9871 54.9191C22.687 55.1163 22.3685 55.2842 22.0362 55.4205C20.1835 56.2886 19.212 55.6654 18.9541 53.4887" stroke="#09544F" stroke-width="2" stroke-linecap="round" stroke-linejoin="round"/>
<path d="M23.2317 43.4351C23.2376 44.1472 22.9646 44.8335 22.4709 45.3474C22.3709 45.4622 22.2422 45.5483 22.098 45.5971C21.9537 45.6459 21.7991 45.6556 21.6499 45.6252" stroke="#09544F" stroke-width="2" stroke-linecap="round" stroke-linejoin="round"/>
<path d="M21.6967 42.0933H21.8734L21.9209 42.1138L22.5529 42.3036L22.6332 42.3375H22.6477" stroke="#09544F" stroke-width="2" stroke-linecap="round" stroke-linejoin="round"/>
<path d="M33.0481 36.5482V36.5351L33.0615 36.5205" stroke="#09544F" stroke-width="2" stroke-linecap="round" stroke-linejoin="round"/>
<path d="M36.076 17.1804H36.0287C36.0146 17.1325 36.0146 17.1325 35.9941 17.1325C35.9807 17.1191 35.9674 17.0986 35.9472 17.0986C35.9308 17.0782 35.9096 17.0621 35.8855 17.0518" stroke="#09544F" stroke-width="2" stroke-linecap="round" stroke-linejoin="round"/>
<path d="M35.6751 16.8879C35.5438 16.8055 35.4078 16.7309 35.2679 16.6643C35.2545 16.6643 35.2415 16.6643 35.2415 16.6441C35.2077 16.633 35.1756 16.6171 35.1463 16.5969C35.0252 16.5367 34.9002 16.4846 34.7722 16.4409" stroke="#09544F" stroke-width="2" stroke-linecap="round" stroke-linejoin="round"/>
<path d="M12.0632 36.5347L13.1296 37.1441L17.2436 39.5302L20.3734 41.3407" stroke="#09544F" stroke-width="2" stroke-linecap="round" stroke-linejoin="round"/>
<path d="M20.3735 41.3408C20.7692 41.6569 21.2108 41.9106 21.6833 42.0933H21.6967" stroke="#09544F" stroke-width="2" stroke-linecap="round" stroke-linejoin="round"/>
<path d="M26.4556 11.6476C26.1534 11.5416 25.8424 11.4623 25.5263 11.4105C25.4924 11.4105 25.4711 11.39 25.4444 11.39C25.1231 11.3427 24.7988 11.3178 24.474 11.3155C24.2265 11.3143 23.9792 11.3301 23.7339 11.3626C23.6181 11.377 23.5026 11.39 23.3738 11.4105C23.3125 11.4239 23.245 11.4239 23.1632 11.4444C23.0679 11.4707 22.9731 11.4913 22.8584 11.5251C22.6823 11.557 22.5095 11.6048 22.3421 11.6678C22.3082 11.6678 22.2938 11.6678 22.2808 11.6811C22.1923 11.6994 22.1058 11.7268 22.0229 11.7629C21.9967 11.7655 21.9723 11.7775 21.9543 11.7967C21.802 11.8337 21.6524 11.8811 21.5067 11.9386C21.3101 12.0201 21.12 12.1151 20.936 12.203H20.9227C19.8428 12.7332 18.825 13.3811 17.8878 14.1349C16.5433 15.2717 15.332 16.557 14.2772 17.9661" stroke="#09544F" stroke-width="2" stroke-linecap="round" stroke-linejoin="round"/>
<path d="M21.6968 42.0933H21.6834C21.2109 41.9107 20.7693 41.6569 20.3736 41.3408C19.0494 40.2422 18.2139 38.3849 18.0851 35.9037C18.0561 35.6632 18.0448 35.4209 18.0512 35.1787C18.0512 31.0841 19.857 26.4463 22.5864 22.7591C24.2154 20.5629 26.1713 18.7118 28.2686 17.5047C30.916 15.9731 33.32 15.7497 35.1463 16.5969C35.1756 16.6171 35.2077 16.633 35.2416 16.6441C35.2416 16.6643 35.2545 16.6643 35.2679 16.6643C35.4079 16.7309 35.5439 16.8056 35.6751 16.888" stroke="#09544F" stroke-width="2" stroke-linecap="round" stroke-linejoin="round"/>
<path d="M22.6333 42.3374C22.3498 41.8131 22.0253 41.312 21.6629 40.8385C20.7131 39.6325 20.1836 37.8895 20.1836 35.6799C20.1836 29.3408 24.6235 21.6402 30.1225 18.4807C31.9478 17.417 33.6728 17.0031 35.1464 17.145C35.4394 17.176 35.7342 17.1876 36.0288 17.18H36.076C41.0321 17.0647 52.8916 13.4917 58.0588 13.0375C58.1009 13.0271 58.1442 13.0227 58.1875 13.0242H58.2344C58.29 13.0242 58.3502 13.0037 58.3982 13.0037C58.4792 12.9925 58.5611 12.9881 58.6428 12.9903C58.4935 13.0036 58.3502 13.0242 58.2215 13.0375" stroke="#09544F" stroke-width="2" stroke-linecap="round" stroke-linejoin="round"/>
<path d="M37.081 29.1045V29.1252H37.0603" stroke="#09544F" stroke-width="2" stroke-linecap="round" stroke-linejoin="round"/>
<path d="M37.0604 29.125C35.6416 31.2833 34.3954 33.55 33.3333 35.9039C33.2384 36.1143 33.1432 36.3246 33.0613 36.5206" stroke="#09544F" stroke-width="2" stroke-linecap="round" stroke-linejoin="round"/>
<path d="M33.048 36.5479C31.6758 40.1158 30.6614 42.6848 29.9591 46.5269C29.3801 50.1377 29.1626 53.4938 29.9457 57.1157C30.4764 59.5497 31.0716 60.7907 32.3691 62.8378C32.3825 62.8511 32.3969 62.8644 32.4164 62.8846" stroke="#09544F" stroke-width="2" stroke-linecap="round" stroke-linejoin="round"/>
<path d="M32.4777 62.993C32.4485 62.9625 32.4273 62.9253 32.4163 62.8846C32.3968 62.8644 32.3825 62.8511 32.3691 62.8378C32.1941 62.607 32.0353 62.3645 31.8937 62.1119C31.8408 62.055 31.7995 61.9883 31.7721 61.9156C31.7035 61.8076 31.6433 61.7053 31.5614 61.5767" stroke="#09544F" stroke-width="2" stroke-linecap="round" stroke-linejoin="round"/>
<path d="M31.5614 61.5625C31.5322 61.5054 31.4979 61.4511 31.4589 61.4001C29.0222 57.2104 26.5375 50.4722 24.2969 45.605V45.5917C23.924 44.8187 23.5845 44.0928 23.2317 43.4351" stroke="#09544F" stroke-width="2" stroke-linecap="round" stroke-linejoin="round"/>
<path d="M64.5959 13.9391C63.0614 13.2778 61.4071 12.9386 59.7358 12.9424C59.3686 12.9424 59.0158 12.9557 58.6428 12.9903C58.561 12.9881 58.4792 12.9926 58.3982 13.0037C58.3502 13.0037 58.2899 13.0242 58.2344 13.0242" stroke="#09544F" stroke-width="2" stroke-linecap="round" stroke-linejoin="round"/>
<path d="M31.5614 61.5767C31.614 61.6997 31.685 61.814 31.7721 61.9156C31.7995 61.9883 31.8408 62.055 31.8937 62.1119C32.0353 62.3645 32.1941 62.607 32.3691 62.8378C32.3825 62.8511 32.3968 62.8644 32.4163 62.8846C33.1139 63.8192 33.9525 64.64 34.9021 65.3178" stroke="#09544F" stroke-width="2" stroke-linecap="round" stroke-linejoin="round"/>
<path d="M34.902 65.3179L37.7865 66.9935L40.8213 68.7488L40.8418 68.7149" stroke="#09544F" stroke-width="2" stroke-linecap="round" stroke-linejoin="round"/>
<path d="M37.0809 29.1043C37.2949 28.7576 37.5306 28.4247 37.7866 28.1076C42.4404 21.69 49.8549 13.7901 58.3981 13.0038C60.5103 12.7757 62.6456 13.098 64.5959 13.9392" stroke="#09544F" stroke-width="2" stroke-linecap="round" stroke-linejoin="round"/>
<path fill-rule="evenodd" clip-rule="evenodd" d="M56.4155 67.7255C68.0181 61.0273 77.4278 44.7574 77.4278 31.3617C77.4278 17.9732 68.0181 12.5361 56.4155 19.2333C44.793 25.9246 35.3837 42.215 35.3837 55.6103C35.3837 69.006 44.793 74.4229 56.4155 67.7255Z" stroke="#09544F" stroke-width="2" stroke-linecap="round" stroke-linejoin="round"/>
<path fill-rule="evenodd" clip-rule="evenodd" d="M56.4156 62.4508C65.7095 57.1023 73.2456 44.0722 73.2456 33.3548C73.2456 22.6365 65.7095 18.2909 56.4156 23.6477C47.1145 29.0019 39.5791 42.0392 39.5791 52.7567C39.5791 63.481 47.1145 67.8133 56.4156 62.4508Z" stroke="#09544F" stroke-width="2" stroke-linecap="round" stroke-linejoin="round"/>
<path fill-rule="evenodd" clip-rule="evenodd" d="M64.786 21.3898C62.3219 21.1795 59.4638 21.8913 56.4156 23.6477C47.1145 29.0019 39.5791 42.0392 39.5791 52.7567C39.5791 56.1863 40.3532 58.9668 41.711 60.9732C44.1817 61.1897 47.0398 60.4779 50.088 58.7157C59.383 53.36 66.918 40.3371 66.918 29.6189C66.918 26.1828 66.1438 23.4095 64.786 21.3898Z" stroke="#09544F" stroke-width="2" stroke-linecap="round" stroke-linejoin="round"/>
<path fill-rule="evenodd" clip-rule="evenodd" d="M53.3948 46.195C51.0727 47.5368 49.1644 46.4454 49.1644 43.7539C49.1644 41.063 51.0727 37.7887 53.3948 36.4397C55.7363 35.09 57.6239 36.1886 57.6239 38.8801C57.6239 41.5717 55.7363 44.8453 53.3948 46.195Z" stroke="#09544F" stroke-width="2" stroke-linecap="round" stroke-linejoin="round"/>
<path d="M13.1296 37.1445L14.9488 51.4213" stroke="#09544F" stroke-width="2" stroke-linecap="round" stroke-linejoin="round"/>
<path d="M24.9422 50.6826L24.2969 45.605" stroke="#09544F" stroke-width="2" stroke-linecap="round" stroke-linejoin="round"/>
<path d="M18.9541 53.4886L17.2435 39.5303" stroke="#09544F" stroke-width="2" stroke-linecap="round" stroke-linejoin="round"/>
<path d="M34.7723 16.441L26.4556 11.6479" stroke="#09544F" stroke-width="2" stroke-linecap="round" stroke-linejoin="round"/>
<path d="M23.2317 43.4146C23.0344 43.0422 22.8439 42.6899 22.6682 42.3711" stroke="#09544F" stroke-width="2" stroke-linecap="round" stroke-linejoin="round"/>
<path d="M70.4683 17.3428L64.5959 13.9395" stroke="#09544F" stroke-width="2" stroke-linecap="round" stroke-linejoin="round"/>
<path d="M50.4078 46.4863L41.6294 42.3232" stroke="#09544F" stroke-width="2" stroke-linecap="round" stroke-linejoin="round"/>
<path d="M21.6499 45.6252L21.568 45.5917L20.9227 45.3946L20.8758 45.3813C20.7775 45.336 20.6894 45.2712 20.617 45.1908C20.5445 45.1104 20.4893 45.0162 20.4545 44.9137L20.4411 44.8525C20.2904 44.288 20.3411 43.6887 20.5843 43.1573C20.7939 42.7795 21.1712 42.0933 21.6834 42.0933" stroke="#09544F" stroke-width="2" stroke-linecap="round" stroke-linejoin="round"/>
<path d="M48.1327 30.9277L56.3816 36.1472" stroke="#09544F" stroke-width="2" stroke-linecap="round" stroke-linejoin="round"/>
<path d="M26.4556 11.648C16.3378 8.64709 4.66228 29.8825 12.0634 36.5349" stroke="#09544F" stroke-width="2" stroke-linecap="round" stroke-linejoin="round"/>
</g>
<defs>
<clipPath id="clip0_563_109469">
<rect width="76" height="62.5" fill="white" transform="translate(2 8.66797)"/>
</clipPath>
</defs>
</svg>
