<svg width="80" height="81" viewBox="0 0 80 81" fill="none" xmlns="http://www.w3.org/2000/svg">
<g clip-path="url(#clip0_563_109472)">
<path d="M6.37398 62.8468L29.2054 76.0676C29.319 76.1334 29.4478 76.168 29.579 76.168C29.7101 76.168 29.8389 76.1334 29.9525 76.0676C29.9544 76.0666 29.9551 76.0642 29.9571 76.0631C35.8005 72.7142 67.6652 54.1001 73.5678 50.6541C73.6808 50.5884 73.7747 50.4941 73.8401 50.3806C73.9054 50.2671 73.9399 50.1384 73.9402 50.0074C73.9416 49.2535 74.0001 17.7151 74.0001 18.1474C73.9958 18.0168 73.9594 17.8892 73.8942 17.776C73.829 17.6628 73.7369 17.5675 73.6262 17.4985L63.3518 11.5436C63.2668 11.4943 63.1729 11.4624 63.0755 11.4495C62.9781 11.4367 62.8792 11.4432 62.7844 11.4687C62.6895 11.4942 62.6005 11.5382 62.5226 11.5982C62.4447 11.6581 62.3794 11.7329 62.3303 11.8182C62.2812 11.9035 62.2493 11.9977 62.2365 12.0954C62.2237 12.193 62.2302 12.2923 62.2556 12.3874C62.281 12.4825 62.3249 12.5717 62.3847 12.6499C62.4445 12.728 62.519 12.7936 62.6041 12.8428L71.7612 18.1496L58.2405 26.0301L56.2014 24.8484L66.57 18.7963C66.6831 18.7301 66.777 18.6353 66.8421 18.5213C66.9073 18.4073 66.9414 18.2782 66.9412 18.1468C66.941 18.0154 66.9063 17.8864 66.8408 17.7727C66.7753 17.6589 66.6812 17.5644 66.5678 17.4985L50.805 8.37897C50.6911 8.31288 50.5619 8.27813 50.4303 8.27826C50.2987 8.27839 50.1695 8.31339 50.0558 8.37971L38.9478 14.8493L36.9025 13.6639L50.4165 5.78561L54.2597 8.01351C54.4315 8.11296 54.6356 8.1399 54.8272 8.08839C55.0188 8.03689 55.1822 7.91116 55.2813 7.73887C55.3805 7.56658 55.4073 7.36184 55.356 7.16969C55.3046 6.97755 55.1793 6.81372 55.0075 6.71427L50.7896 4.26885C50.6757 4.20253 50.5462 4.16771 50.4145 4.16797C50.2827 4.16823 50.1534 4.20355 50.0397 4.27032C48.7823 4.99923 25.7781 18.4117 6.46499 29.6828C6.45779 29.6867 6.44905 29.6848 6.44192 29.689C6.32823 29.7545 6.23374 29.8489 6.16798 29.9627C6.10222 30.0765 6.06748 30.2057 6.06729 30.3372C6.05184 37.6668 6.01712 54.1346 6.00012 62.1957C6.00001 62.3275 6.03449 62.4571 6.10012 62.5714C6.16575 62.6857 6.26019 62.7807 6.37398 62.8468ZM39.5455 32.8201L29.6421 38.5955L15.3573 30.3247L25.2629 24.5492C26.7239 25.3952 19.9716 21.485 39.5455 32.8201ZM23.236 21.6414L35.4128 14.5329C55.9431 26.4347 55.6658 26.2706 57.4747 27.3189C57.4692 38.7501 57.4651 47.356 57.4598 58.3046L45.4595 65.2961L45.3049 34.853C45.2684 34.5972 45.1344 34.3657 44.931 34.2071C14.2184 16.4183 54.1268 39.5299 23.236 21.6414ZM30.3934 43.9871L43.813 36.1706L43.8452 42.4086L30.3801 50.2603L30.3934 43.9871ZM30.3765 51.9971L43.8542 44.1383L43.8863 50.3755L30.3636 58.2564C30.3639 58.1053 30.3773 51.5932 30.3765 51.9971ZM28.8832 50.2692L7.54667 37.9225L7.55989 31.6364L28.895 43.9899L28.8832 50.2692ZM28.8799 51.9988C28.8796 52.1499 28.8671 58.6873 28.8679 58.2713L7.52977 45.9016L7.54302 39.6523L28.8799 51.9988ZM7.52611 47.6322L28.8643 60.0014L28.8514 66.1063L7.51324 53.7365L7.52611 47.6322ZM30.3603 59.9923L43.8953 52.1042L43.9268 58.1985L30.3488 66.1097L30.3603 59.9923ZM72.4755 33.7043L58.9688 41.5704L58.9717 35.3328L72.4873 27.4534L72.4755 33.7043ZM72.4905 25.7168L58.9725 33.5975L58.9754 27.336L72.5024 19.4525L72.4905 25.7168ZM58.9681 43.3059L72.4722 35.4412L72.4606 41.5645L58.9653 49.4176L58.9681 43.3059ZM7.49637 61.765L7.50958 55.4671L28.8477 67.8364L28.8345 74.1203L7.49637 61.765ZM30.3337 74.11L30.3455 67.8455L43.9356 59.927L43.9678 66.1652L30.3337 74.11ZM58.9616 57.4292L58.9644 51.1526L72.4573 43.3007L72.4454 49.5738L58.9616 57.4292ZM50.4326 9.89499L64.7021 18.1511L54.7093 23.9837L40.4408 15.7146L50.4326 9.89499ZM21.7463 22.5108L23.7717 23.6839L13.4894 29.6787C13.3761 29.7449 13.2821 29.8397 13.2169 29.9537C13.1517 30.0677 13.1174 30.1968 13.1177 30.3283C13.1179 30.4597 13.1526 30.5888 13.2182 30.7025C13.2838 30.8163 13.3781 30.9108 13.4916 30.9765L29.2697 40.1115C29.3838 40.1775 29.5132 40.2121 29.6449 40.2118C29.7766 40.2116 29.9058 40.1765 30.0197 40.11L41.0384 33.6848L43.0768 34.8654L29.6421 42.6902L8.31351 30.3401L21.7463 22.5108Z" fill="#09544F"/>
<path d="M59.7962 11.2164C59.968 11.3159 60.1722 11.3428 60.3637 11.2913C60.5553 11.2398 60.7186 11.1141 60.8178 10.9418C60.917 10.7695 60.9438 10.5648 60.8925 10.3726C60.8411 10.1805 60.7158 10.0166 60.544 9.91719L57.6851 8.262C57.6 8.21263 57.5061 8.18056 57.4087 8.16762C57.3112 8.15469 57.2122 8.16113 57.1173 8.1866C57.0223 8.21206 56.9333 8.25605 56.8553 8.31605C56.7774 8.37604 56.7119 8.45086 56.6628 8.53623C56.6136 8.6216 56.5818 8.71585 56.569 8.81358C56.5562 8.91131 56.5627 9.01061 56.5882 9.10581C56.6137 9.20101 56.6577 9.29023 56.7176 9.36838C56.7775 9.44652 56.8522 9.51207 56.9373 9.56125L59.7962 11.2164Z" fill="#09544F"/>
<path d="M55.1783 19.3681C57.1663 18.2111 57.0875 16.1123 55.16 14.9958C53.4608 14.0122 50.8064 14.0122 49.1174 14.9973C47.2077 16.1102 47.1308 18.2078 49.1364 19.3696C50.833 20.3513 53.4881 20.355 55.1783 19.3681ZM49.8841 18.0703C48.9274 17.5171 48.9129 16.8524 49.8688 16.2936C51.0963 15.5798 53.1761 15.5793 54.4123 16.295C55.3552 16.841 55.3983 17.5048 54.4269 18.0718C53.2227 18.7741 51.0985 18.7727 49.8841 18.0703Z" fill="#09544F"/>
<path d="M24.9086 33.4907C26.6053 34.4724 29.2604 34.4761 30.9506 33.4892C32.9432 32.3295 32.8554 30.2304 30.9316 29.1169C29.2323 28.1341 26.5779 28.1326 24.8889 29.1184C22.9813 30.2302 22.9019 32.3282 24.9086 33.4907ZM25.6403 30.4147C26.8679 29.7009 28.9477 29.7004 30.1838 30.4161C31.1399 30.9697 31.1578 31.6349 30.1992 32.1929C28.9943 32.8945 26.8715 32.896 25.6564 32.1914C24.697 31.6359 24.6878 30.97 25.6403 30.4147Z" fill="#09544F"/>
</g>
<defs>
<clipPath id="clip0_563_109472">
<rect width="68" height="72" fill="white" transform="translate(6 4.16797)"/>
</clipPath>
</defs>
</svg>
