<svg xmlns="http://www.w3.org/2000/svg" viewBox="0 0 139.92 108.46"><defs><style>.cls-1{fill:#fff;}.cls-2{fill:none;stroke:#fff;stroke-miterlimit:10;}.cls-3{fill:#231f20;}.cls-4{fill:#e8b909;}.cls-5{fill:#0054a4;}.cls-6{fill:#a30046;}.cls-7{fill:#fd0;}.cls-8{fill:#e31837;}</style></defs><title>MS_logo-without - vertical color (dark bg)</title><g id="Layer_2" data-name="Layer 2"><g id="LOGOS"><path class="cls-1" d="M0,84.62H3.62c2.09,0,3.23,1,3.23,2.85a3.09,3.09,0,0,1-2,2.88,15.21,15.21,0,0,0,1.93,2.7v1.16H5.34a21,21,0,0,1-2.42-3.67h-1v3.67H0Zm4.05,4.19a1.26,1.26,0,0,0,.88-1.26,1.11,1.11,0,0,0-1.24-1.19H1.92v2.45Z"/><path class="cls-1" d="M8,93.14l2.35-8.52h3.11l2.35,8.52v1.07H14.06l-.52-2a8.2,8.2,0,0,1-1.71.17,9.07,9.07,0,0,1-1.66-.15l-.52,2H8Zm2.62-2.54a7.24,7.24,0,0,0,1.24.11,7,7,0,0,0,1.29-.12l-.57-2.13c-.22-.89-.51-2.13-.51-2.13h-.38s-.28,1.24-.52,2.13Z"/><path class="cls-1" d="M19.29,94.21H17.38V84.62h1.91v2.5c0,.74,0,1.44,0,1.44h.78s.46-.67.83-1.16L23,84.62h1.44v1.13l-2.77,3.58v0a20.92,20.92,0,0,0,2.87,3.72v1.13H23a26.48,26.48,0,0,1-3-3.93h-.74Z"/><path class="cls-1" d="M25.43,93.14l2.36-8.52h3.1l2.35,8.52v1.07H31.52l-.52-2a8.13,8.13,0,0,1-1.71.17,9.15,9.15,0,0,1-1.66-.15l-.52,2H25.43Zm2.62-2.54a7.24,7.24,0,0,0,1.24.11,6.88,6.88,0,0,0,1.29-.12L30,88.46c-.22-.89-.5-2.13-.5-2.13h-.38s-.29,1.24-.53,2.13Z"/><path class="cls-1" d="M34.84,84.62H36.6l2.74,4.5c.22.37.76,1.45.76,1.45h0s-.07-1-.07-2v-4h1.86v9.59H40.06v-.78L37.65,89.5l-.95-1.65h0s0,.88,0,1.82v4.54H34.84Z"/><path class="cls-1" d="M46.86,84.62h3.55c2.14,0,3.24,1.06,3.24,3a3.25,3.25,0,0,1-2.1,3H48.77v3.51H46.86ZM50.92,89a1.4,1.4,0,0,0,.82-1.38,1.16,1.16,0,0,0-1.32-1.22H48.77V89Z"/><path class="cls-1" d="M55.09,84.62h6.08l-.28,1.74H57v2.2h3.51v1.73H57v2.19h4v1.73H55.09Z"/><path class="cls-1" d="M62.87,84.62h3.62c2.09,0,3.23,1,3.23,2.85a3.09,3.09,0,0,1-2,2.88,15.21,15.21,0,0,0,1.93,2.7v1.16H68.21a21,21,0,0,1-2.42-3.67h-1v3.67H62.87Zm4,4.19a1.26,1.26,0,0,0,.89-1.26,1.11,1.11,0,0,0-1.24-1.19H64.78v2.45Z"/><path class="cls-1" d="M71.36,84.62h3.42c2.3,0,3.56,1.12,3.56,3.68v2.23c0,2.57-1.26,3.68-3.56,3.68H71.36Zm1.92,1.72v6.15h1.39c1.21,0,1.75-.45,1.75-1.79V88.13c0-1.34-.54-1.79-1.75-1.79Z"/><path class="cls-1" d="M79.45,93.14l2.36-8.52h3.1l2.36,8.52v1.07H85.54l-.52-2a8,8,0,0,1-1.7.17,9.18,9.18,0,0,1-1.67-.15l-.52,2H79.45Zm2.63-2.54a7.06,7.06,0,0,0,1.24.11,6.85,6.85,0,0,0,1.28-.12L84,88.46c-.23-.89-.51-2.13-.51-2.13h-.38s-.28,1.24-.52,2.13Z"/><path class="cls-1" d="M88.38,88.2c0-2.56,1.4-3.68,3.75-3.68a3.84,3.84,0,0,1,2.92,1.1v1.47H93.49a1.34,1.34,0,0,0-1.41-.86c-1.26,0-1.78.62-1.78,1.93v2.69c0,1.34.57,1.91,1.76,1.91a1.86,1.86,0,0,0,1.37-.5v-2H92V88.56h3.23v5.65H93.81l-.24-.65h0a2.76,2.76,0,0,1-2,.76c-2,0-3.11-1.15-3.11-3.58Z"/><path class="cls-1" d="M96.75,93.14l2.35-8.52h3.1l2.36,8.52v1.07h-1.72l-.52-2a8.2,8.2,0,0,1-1.71.17A9.07,9.07,0,0,1,99,92.21l-.53,2H96.75Zm2.62-2.54a7.15,7.15,0,0,0,1.24.11,6.77,6.77,0,0,0,1.28-.12l-.56-2.13c-.23-.89-.51-2.13-.51-2.13h-.38s-.28,1.24-.52,2.13Z"/><path class="cls-1" d="M106.16,84.62h1.76l2.73,4.5c.23.37.77,1.45.77,1.45h0s-.07-1-.07-2v-4h1.86v9.59h-1.86v-.78L109,89.5,108,87.85h0s0,.88,0,1.82v4.54h-1.86Z"/><path class="cls-1" d="M115.07,88.2c0-2.56,1.4-3.68,3.75-3.68a3.87,3.87,0,0,1,2.92,1.1v1.47h-1.57a1.33,1.33,0,0,0-1.41-.86c-1.25,0-1.77.62-1.77,1.93v2.69c0,1.34.56,1.91,1.76,1.91a1.86,1.86,0,0,0,1.37-.5v-2h-1.47V88.56h3.23v5.65H120.5l-.24-.65h0a2.8,2.8,0,0,1-2,.76c-2,0-3.1-1.15-3.1-3.58Z"/><path class="cls-1" d="M123.43,93.14l2.36-8.52h3.1l2.36,8.52v1.07h-1.72l-.53-2a8,8,0,0,1-1.7.17,9.18,9.18,0,0,1-1.67-.15l-.52,2h-1.68Zm2.63-2.54a7.15,7.15,0,0,0,1.24.11,6.77,6.77,0,0,0,1.28-.12L128,88.46c-.23-.89-.51-2.13-.51-2.13h-.38s-.28,1.24-.52,2.13Z"/><path class="cls-1" d="M132.84,84.62h1.76l2.74,4.5c.23.37.76,1.45.76,1.45h0s-.07-1-.07-2v-4h1.86v9.59h-1.86v-.78l-2.41-3.93c-.31-.55-1-1.65-1-1.65h0s0,.88,0,1.82v4.54h-1.86Z"/><path class="cls-1" d="M2.31,98.73H5.93c2.09,0,3.23,1,3.23,2.85a3.09,3.09,0,0,1-2,2.87,15.42,15.42,0,0,0,1.94,2.71v1.16H7.65a21.27,21.27,0,0,1-2.43-3.67h-1v3.67H2.31Zm4,4.19a1.26,1.26,0,0,0,.89-1.26A1.11,1.11,0,0,0,6,100.47H4.22v2.45Z"/><path class="cls-1" d="M10.27,107.25l2.36-8.52h3.1l2.36,8.52v1.07H16.37l-.53-2a8.75,8.75,0,0,1-1.7.17,10.17,10.17,0,0,1-1.67-.15l-.52,2H10.27Zm2.63-2.54a7.06,7.06,0,0,0,1.24.11,6.77,6.77,0,0,0,1.28-.12l-.56-2.13c-.23-.89-.51-2.13-.51-2.13H14s-.28,1.24-.52,2.13Z"/><path class="cls-1" d="M19.17,106.19h1.5s.28.58,1.47.58,1.56-.43,1.56-1.07-.28-.91-1.11-1.2l-.86-.31c-1.79-.65-2.46-1.4-2.46-2.84,0-1.73,1.23-2.7,3.39-2.7a6.32,6.32,0,0,1,2.72.6v1.62H23.87s-.17-.59-1.31-.59c-1,0-1.4.45-1.4,1s.31.78,1.17,1.09l.86.31c2,.73,2.4,1.58,2.4,2.84,0,1.81-1,2.85-3.51,2.85a7.55,7.55,0,0,1-2.91-.59Z"/><path class="cls-1" d="M27.31,98.73h3.15l1.13,5.18c.21,1,.49,2.8.49,2.8h.08s.29-1.82.5-2.8l1.13-5.18h3.14v9.59H35.08v-4.77c0-.83.06-3.24.06-3.24H35s-.4,1.9-.62,2.83l-1.18,5.18H31.06l-1.18-5.18c-.21-.93-.62-2.83-.62-2.83h-.14s0,2.41,0,3.24v4.77H27.31Z"/><path class="cls-1" d="M39.58,106.81v-6.57l-.95-.17V98.73h3.83v1.34l-1,.17v6.57l1,.17v1.34H38.63V107Z"/><path class="cls-1" d="M47,98.73h5.93l-.28,1.74H48.89v2.19h3.37v1.74H48.89v3.92H47Z"/><path class="cls-1" d="M53.83,102.31c0-2.54,1.26-3.68,3.55-3.68a3.82,3.82,0,0,1,2.88,1.07v1.5H58.7s-.12-.86-1.3-.86-1.65.62-1.65,1.93v2.51c0,1.31.39,1.93,1.65,1.93s1.3-.86,1.3-.86h1.56v1.5a3.82,3.82,0,0,1-2.88,1.07c-2.29,0-3.55-1.14-3.55-3.68Z"/><path class="cls-1" d="M64.72,98.73h3.47c2.3,0,3.1,1,3.1,2.62a2.43,2.43,0,0,1-1.11,2.12v0a2.46,2.46,0,0,1,1.25,2.07c0,1.72-.94,2.75-3.11,2.75h-3.6Zm1.86,1.65v2.27h2.09a1.27,1.27,0,0,0,.75-1.17,1,1,0,0,0-1.16-1.1Zm0,3.89v2.4h1.79a1.1,1.1,0,0,0,1.19-1.2,1.33,1.33,0,0,0-.85-1.2Z"/><path class="cls-1" d="M72.61,107.25,75,98.73h3.1l2.36,8.52v1.07H78.7l-.53-2a8.75,8.75,0,0,1-1.7.17,10,10,0,0,1-1.66-.15l-.53,2H72.61Zm2.62-2.54a7.15,7.15,0,0,0,1.24.11,6.77,6.77,0,0,0,1.28-.12l-.56-2.13c-.23-.89-.51-2.13-.51-2.13H76.3s-.28,1.24-.52,2.13Z"/><path class="cls-1" d="M82,98.73h3.63c2.08,0,3.23,1,3.23,2.85a3.09,3.09,0,0,1-2,2.87,15.71,15.71,0,0,0,1.93,2.71v1.16H87.36a21.27,21.27,0,0,1-2.43-3.67h-1v3.67H82Zm4,4.19a1.26,1.26,0,0,0,.89-1.26,1.11,1.11,0,0,0-1.24-1.19H83.93v2.45Z"/><path class="cls-1" d="M90.22,102.31c0-2.54,1.26-3.68,3.56-3.68a3.81,3.81,0,0,1,2.87,1.07v1.5H95.09s-.12-.86-1.3-.86-1.65.62-1.65,1.93v2.51c0,1.31.4,1.93,1.65,1.93s1.3-.86,1.3-.86h1.56v1.5a3.81,3.81,0,0,1-2.87,1.07c-2.3,0-3.56-1.14-3.56-3.68Z"/><path class="cls-1" d="M98.29,98.73h6.08l-.28,1.74h-3.88v2.19h3.51v1.74h-3.51v2.18h4v1.74H98.29Z"/><path class="cls-1" d="M106.06,98.73H108v7.85h3.88l-.28,1.74h-5.52Z"/><path class="cls-1" d="M112.37,102.44c0-2.5,1.3-3.85,3.72-3.85s3.72,1.35,3.72,3.85v2.17c0,2.48-1.29,3.85-3.72,3.85s-3.72-1.35-3.72-3.85Zm3.72,4.31c1.27,0,1.8-.59,1.8-2V102.3c0-1.41-.53-2-1.8-2s-1.8.59-1.8,2v2.45C114.29,106.16,114.82,106.75,116.09,106.75Z"/><path class="cls-1" d="M121.65,98.73h1.76l2.74,4.5c.22.37.76,1.45.76,1.45h0s-.07-1-.07-2v-4h1.86v9.59h-1.86v-.78l-2.41-3.93-.95-1.65h0s0,.87,0,1.82v4.54h-1.86Z"/><path class="cls-1" d="M130.32,107.25l2.36-8.52h3.1l2.36,8.52v1.07h-1.72l-.53-2a8.75,8.75,0,0,1-1.7.17,10.17,10.17,0,0,1-1.67-.15l-.52,2h-1.68Zm2.63-2.54a7.06,7.06,0,0,0,1.24.11,6.77,6.77,0,0,0,1.28-.12l-.56-2.13c-.23-.89-.51-2.13-.51-2.13H134s-.28,1.24-.52,2.13Z"/><line class="cls-2" x1="98.98" y1="71.83" x2="41.21" y2="71.83"/><path class="cls-3" d="M99,29.29l-.86-.9C94.43,24.55,89.23,15,95.86,6.08l.52-.69-.46-.74a8.06,8.06,0,0,0-.78-1.07c-.21-.26-.43-.53-.72-.94l-.55-.79-.9.32a12.5,12.5,0,0,1-4.06.71c-3.79,0-6.27-.37-9.33-2.4L78.87,0l-.71.49A13.82,13.82,0,0,1,70,3.26,13.82,13.82,0,0,1,61.76.49L61.05,0l-.71.48c-3.06,2-5.54,2.4-9.33,2.4A12.5,12.5,0,0,1,47,2.17l-.9-.32-.55.79c-.29.41-.5.68-.71.93A10.17,10.17,0,0,0,44,4.65l-.46.74.52.69C50.7,15,45.5,24.55,41.82,28.39l-.86.9.88.88c.47.47,1.31,1.35,2,2.08v.12c0,.09,0,.14,0,.26v.08c-.34,6.4,1.32,11.66,4.93,15.65,3.82,4.23,9.8,6.76,16.86,7.15,1.76,1.61,3.53,2.93,3.61,3l.76.57.75-.57c.08-.06,1.85-1.39,3.6-3,7.06-.39,13-2.92,16.86-7.15,3.62-4,5.27-9.25,4.93-15.65v-.08a1.28,1.28,0,0,1,0-.26.49.49,0,0,0,0-.12c.7-.73,1.53-1.61,2-2.08Zm-4.18,2.5c.06.64,0,.61.07,1,.75,14.25-9.12,21-21,21.48C72,56,70,57.48,70,57.48S68,56,66.12,54.26c-11.93-.5-21.8-7.23-21.05-21.48,0-.38,0-.35.08-1-.69-.73-1.82-1.92-2.42-2.52C47,24.8,52,14.58,45.07,5.32c.46-.74.79-1,1.47-1.95A13.76,13.76,0,0,0,51,4.15c4,0,6.69-.39,10-2.62a15.1,15.1,0,0,0,8.92,3,15.13,15.13,0,0,0,8.93-3c3.33,2.23,6,2.62,10,2.62a13.76,13.76,0,0,0,4.47-.78c.68,1,1,1.21,1.47,2-6.93,9.26-1.94,19.48,2.34,24-.6.6-1.73,1.79-2.41,2.52"/><path class="cls-4" d="M70,57.48a49.71,49.71,0,0,1-3.85-3.22c-11.93-.5-21.8-7.23-21.05-21.48,0-.38,0-.35.07-1-.68-.72-1.81-1.91-2.41-2.51C47,24.8,52,14.58,45.07,5.32c.46-.74.79-1,1.47-1.95A13.77,13.77,0,0,0,51,4.16c4,0,6.69-.4,10-2.62a15.15,15.15,0,0,0,8.92,3,15.19,15.19,0,0,0,8.93-3c3.33,2.22,6,2.62,10,2.62a13.87,13.87,0,0,0,4.48-.79c.68,1,1,1.21,1.46,2-6.93,9.26-1.94,19.48,2.34,24-.6.6-1.73,1.79-2.41,2.51.07.65,0,.62.07,1,.75,14.25-9.12,21-21,21.48A49.4,49.4,0,0,1,70,57.48"/><path class="cls-5" d="M53.62,32.12H47.34c0,.41-.06.43-.11.84-.36,7.2,2.15,12.11,6.39,15.17Z"/><path class="cls-6" d="M53.62,48.13a19.94,19.94,0,0,0,6.58,3v-19H53.62Z"/><path class="cls-5" d="M60.2,51.13a31.23,31.23,0,0,0,6.59,1v-20H60.2Z"/><path class="cls-6" d="M73.38,32.12H66.79v20H67c2.18,0,4.17,0,5.89,0l.47,0Z"/><path class="cls-5" d="M73.38,52.1a31.1,31.1,0,0,0,6.59-1v-19H73.38Z"/><path class="cls-6" d="M80,51.07a19.7,19.7,0,0,0,6.59-3.13V32.12H80Z"/><path class="cls-5" d="M92.59,32.12h-6V48c4.09-3.07,6.5-7.93,6.14-15,0-.41-.07-.43-.1-.84"/><path class="cls-3" d="M70.59,52.32H67c-7-.29-12.54-2.43-15.93-6.18-3-3.27-4.32-7.7-4.05-13.18a3.21,3.21,0,0,1,.06-.4c0-.13,0-.23,0-.45v-.17h45.6l0,.17a3.37,3.37,0,0,0,0,.45c0,.09,0,.2,0,.39.29,5.49-1.07,9.92-4,13.19-3.4,3.75-8.9,5.89-15.91,6.18H70.59m-23.08-20c0,.12,0,.21,0,.29s0,.2,0,.38c-.27,5.36,1.06,9.7,3.95,12.89,3.33,3.68,8.74,5.77,15.65,6.06H72.9c6.91-.29,12.32-2.38,15.65-6.06,2.89-3.19,4.22-7.53,4-12.9,0-.17,0-.28,0-.37s0-.17,0-.29Z"/><path class="cls-4" d="M63.62,41.85a6.32,6.32,0,1,1,6.32,6.35,6.34,6.34,0,0,1-6.32-6.35"/><path class="cls-3" d="M69.94,35.68a6.17,6.17,0,1,0,6.12,6.17,6.16,6.16,0,0,0-6.12-6.17m0,12.45a6.29,6.29,0,1,1,6.25-6.28,6.27,6.27,0,0,1-6.25,6.28"/><path class="cls-3" d="M69.94,35.49a6.36,6.36,0,1,1-6.32,6.36,6.33,6.33,0,0,1,6.32-6.36M66.71,43c-1.14-1-1.14-3.17-.84-4.59.09-.39.2-.78.31-1.22a6,6,0,0,0-1.77,6.9,1.55,1.55,0,0,0,.31,0,2.18,2.18,0,0,0,2-1.12m6.14.46c-.2,1-1.26,1.76-2.27,2.36a9.18,9.18,0,0,1-4,1,5.88,5.88,0,0,0,3.33,1,6,6,0,0,0,5.22-3.1,1.58,1.58,0,0,0-2.31-1.28m-6.7,3a9.35,9.35,0,0,0,4.25-1c1.41-.84,2.51-1.75,2-3a1.43,1.43,0,0,0-2.28-.56,2,2,0,0,1-2,1.66A2.43,2.43,0,0,1,67,43.22a2.56,2.56,0,0,1-2.28,1.25h-.15a6.08,6.08,0,0,0,1.58,2m3.77-8.37c1-.41,2.35.12,3.4.71a6.93,6.93,0,0,1,2.57,2.66A6,6,0,0,0,70,35.85a1.33,1.33,0,0,0-.07,2.26m-.17,3.83a2.34,2.34,0,0,1-.62-3.15,1.93,1.93,0,0,1,.45-.49,1.67,1.67,0,0,1-.16-2.43,5.92,5.92,0,0,0-2.79,1,13.07,13.07,0,0,0-.58,3.33c0,1.59.67,2.88,2,3.06a1.7,1.7,0,0,0,1.65-1.31m6.12.46a6.18,6.18,0,0,0-2.73-3.27c-1.44-.81-3-1.25-3.71-.15a2,2,0,0,0,.51,2.65,1.77,1.77,0,0,1,2.78.73,2.13,2.13,0,0,1,.16.7,1.93,1.93,0,0,1,2.53,1.17,5.66,5.66,0,0,0,.46-1.83"/><path class="cls-3" d="M77.45,30.94H74.77V25h2.71c1.18,0,1.89.6,1.89,1.6a1.32,1.32,0,0,1-.54,1.11A1.41,1.41,0,0,1,79.57,29a1.87,1.87,0,0,1-2.12,1.93M76,29.7h1.45c.5,0,.76-.23.76-.68s-.24-.67-.76-.67H76Zm0-2.51h1.45c.39,0,.57-.15.57-.47s-.07-.49-.63-.49H76Z"/><path class="cls-3" d="M69.5,31c-1.57,0-2.59-1.19-2.59-3.05s1.08-3.05,2.62-3.05a2.25,2.25,0,0,1,2.17,1.32l0,.07-1.19.55,0-.06a1,1,0,0,0-1-.59c-.79,0-1.28.68-1.28,1.76s.51,1.77,1.29,1.77a1.13,1.13,0,0,0,1.06-.7l0-.06,1.08.64,0,.06A2.27,2.27,0,0,1,69.5,31"/><polygon class="cls-3" points="61.6 30.94 60.31 30.94 60.31 25.02 64.56 25.02 64.56 26.29 61.6 26.29 61.6 27.24 63.33 27.24 63.33 28.5 61.6 28.5 61.6 30.94"/><path class="cls-1" d="M48.84,23.81c2.17-5,3-11.45-.67-17.74A16.48,16.48,0,0,0,51,6.33c3.74,0,6.68-.34,10-2.22A16.77,16.77,0,0,0,70,6.71a16.85,16.85,0,0,0,9-2.6c3.31,1.88,6.25,2.22,10,2.22a15.93,15.93,0,0,0,2.86-.27c-3.67,6.3-2.86,12.74-.69,17.75Z"/><path class="cls-7" d="M69.77,6.71v17.1H72V6.58A17.46,17.46,0,0,1,70,6.71h-.18"/><path class="cls-8" d="M72,23.81h2.26V6.13A16.43,16.43,0,0,1,72,6.58Z"/><path class="cls-7" d="M74.29,23.81h2.26V5.34a15.9,15.9,0,0,1-2.26.79Z"/><path class="cls-8" d="M76.55,23.81H78.8V4.18a17.72,17.72,0,0,1-2.25,1.16Z"/><path class="cls-7" d="M78.8,4.18V23.81h2.26V5.14a17.39,17.39,0,0,1-2.15-1,.41.41,0,0,1-.11.07"/><path class="cls-8" d="M81.06,23.81h2.26v-18a16.24,16.24,0,0,1-2.26-.69Z"/><path class="cls-7" d="M83.32,23.81h2.26V6.19a16.89,16.89,0,0,1-2.26-.36Z"/><path class="cls-8" d="M85.58,23.78h2.26V6.29c-.78,0-1.53,0-2.26-.12Z"/><path class="cls-7" d="M91.59,6.08a14.84,14.84,0,0,1-2.68.25H87.84V23.81h3.24c-2.14-4.93-3-11.24.51-17.45Z"/><path class="cls-8" d="M56.9,18v5.8h6.28V18h6.7V11.69h-6.7V5.26A19.55,19.55,0,0,1,61,4.11,15.72,15.72,0,0,1,56.9,5.76v5.93H50.32A18.5,18.5,0,0,1,50.5,18Z"/><path class="cls-3" d="M92.14,5.79l-.41.08a15.28,15.28,0,0,1-2.82.27c-3.82,0-6.66-.36-9.9-2.19l-.1-.06L78.82,4A16.64,16.64,0,0,1,70,6.52,16.62,16.62,0,0,1,61.1,4L61,3.89l-.1.06C57.68,5.78,54.83,6.14,51,6.14a15.55,15.55,0,0,1-2.81-.26l-.4-.07.2.36c3.92,6.74,2.53,13.27.67,17.56l-.12.27H91.37l-.12-.27c-1.86-4.29-3.25-10.82.68-17.58Zm-43.61.53a15.42,15.42,0,0,0,2.48.2c3.85,0,6.73-.36,10-2.19A17,17,0,0,0,69.69,6.9V23.62H49.13a19.32,19.32,0,0,0-.6-17.3M90.8,23.62H70.07V6.9a17.12,17.12,0,0,0,8.85-2.57c3.27,1.83,6.14,2.19,10,2.19a15.22,15.22,0,0,0,2.49-.21,19.31,19.31,0,0,0-.6,17.31"/></g></g></svg>