<?xml version="1.0" encoding="utf-8"?>
<!-- Generator: Adobe Illustrator 25.2.0, SVG Export Plug-In . SVG Version: 6.00 Build 0)  -->
<svg version="1.1" id="ARTE" xmlns="http://www.w3.org/2000/svg" xmlns:xlink="http://www.w3.org/1999/xlink" x="0px" y="0px"
	 viewBox="0 0 205.2 112.5" style="enable-background:new 0 0 205.2 112.5;" xml:space="preserve">
<style type="text/css">
	.st0{fill:none;stroke:#231F20;stroke-miterlimit:10;}
	.st1{fill:#E7B809;}
	.st2{fill:#FFFFFF;}
	.st3{fill:#FFDD00;}
	.st4{fill:#0055A3;}
	.st5{fill:#A30046;}
	.st6{fill:#E21936;}
	.st7{fill:#231F20;}
	.st8{fill:#00BE40;}
</style>
<g>
	<line class="st0" x1="103.1" y1="0" x2="103.1" y2="71.7"/>
	<path class="st1" d="M180.6,1.2l0.4,0.2c3.9,2.6,7.1,3.1,11.9,3.1c1.8,0,3.6-0.3,5.3-0.9l0.5-0.2l2.3,3.2L200.7,7
		c-8.5,11.3-1.9,23.4,2.8,28.3l0.4,0.4l-0.4,0.4c-0.6,0.6-1.7,1.7-2.5,2.5l-0.3,0.3l0,0.4l0,0.1c0,0.1,0,0.2,0,0.4l0,0.1
		c0.4,7.5-1.6,13.7-5.8,18.3c-4.5,4.9-11.6,7.9-20,8.4l-0.3,0l-0.2,0.2c-2.1,1.9-4.3,3.6-4.3,3.6l-0.4,0.3l-0.4-0.3
		c-0.1-0.1-2.2-1.7-4.3-3.6l-0.2-0.2l-0.3,0c-8.4-0.5-15.5-3.4-20-8.4c-4.2-4.7-6.2-10.8-5.8-18.3l0-0.1c0-0.2,0-0.3,0-0.4l0,0v0
		l0-0.1l0-0.4l-0.3-0.3c-0.7-0.8-1.8-1.9-2.5-2.5l-0.4-0.4l0.4-0.4c4.7-4.9,11.3-17,2.8-28.3l-0.2-0.3l2.3-3.2l0.5,0.2
		c1.7,0.6,3.5,0.9,5.3,0.9c4.8,0,8-0.5,11.9-3.1l0.4-0.2l0.4,0.2c3,2.3,6.7,3.5,10.5,3.5c3.8,0,7.5-1.3,10.5-3.5L180.6,1.2"/>
	<path class="st2" d="M144,29c2.7-6.1,3.6-13.9-0.8-21.5c1.1,0.2,2.3,0.3,3.5,0.3c4.6,0,8.2-0.4,12.2-2.7c3.3,2.1,7.1,3.1,10.9,3.2
		c3.9,0,7.7-1.1,10.9-3.2c4,2.3,7.6,2.7,12.2,2.7c1.2,0,2.3-0.1,3.5-0.3c-4.5,7.7-3.5,15.5-0.8,21.6L144,29"/>
	<path class="st3" d="M195.6,29c-2.7-6.1-3.6-13.9,0.8-21.6c-1.1,0.2-2.3,0.3-3.5,0.3c-4.6,0-8.2-0.4-12.2-2.7
		c-3.3,2.1-7.1,3.1-10.9,3.2c0,0-0.1,0-0.1,0V29L195.6,29z"/>
	<path class="st4" d="M189.9,58.4c5.1-3.7,8.1-9.6,7.6-18.3c-0.1-0.5-0.1-0.5-0.1-1h-7.5V58.4z"/>
	<path class="st5" d="M181.8,62.1c2.9-0.7,5.6-2,8-3.7V39.1h-8V62.1z"/>
	<path class="st5" d="M149.6,58.4c2.4,1.7,5.2,3,8,3.7v-23h-8V58.4z"/>
	<path class="st4" d="M142,40.1c-0.4,8.7,2.6,14.6,7.6,18.3V39.1h-7.5C142.1,39.6,142.1,39.6,142,40.1"/>
	<path class="st5" d="M169.8,43.4c1.4,0,2.8,0.4,4,1.2v-5.4h-8v5.4C166.9,43.8,168.3,43.4,169.8,43.4"/>
	<path class="st5" d="M169.8,58.5c-1.4,0-2.8-0.4-4-1.2v6c0.1,0,0.3,0,0.4,0c2.7,0,5.1,0,7.2,0c0.1,0,0.3,0,0.4,0v-6
		C172.6,58.1,171.2,58.5,169.8,58.5"/>
	<path class="st4" d="M173.8,39.1v5.4c3.6,2.2,4.6,6.9,2.4,10.4c-0.6,1-1.5,1.8-2.4,2.4v6c2.7-0.1,5.4-0.5,8-1.2v-23H173.8z"/>
	<path class="st4" d="M162.2,50.9c0-2.6,1.3-5,3.5-6.4v-5.4h-8v23c2.6,0.7,5.3,1.1,8,1.2v-6C163.5,56,162.2,53.6,162.2,50.9"/>
	<path class="st6" d="M145.8,14.3c0.5,2.5,0.6,5.1,0.2,7.7h7.8v7h7.7v-7h8.2v-7.7h-8.2V6.5c-0.9-0.4-1.8-0.9-2.7-1.4
		c-1.6,0.9-3.3,1.6-5,2v7.2L145.8,14.3z"/>
	<path class="st6" d="M186.2,29V7.2c-0.9-0.2-1.9-0.5-2.8-0.8V29L186.2,29z"/>
	<path class="st6" d="M175.1,29V7.5c-0.9,0.3-1.8,0.4-2.8,0.6V29L175.1,29z"/>
	<path class="st6" d="M191.7,29V7.8c-1,0-1.9-0.1-2.8-0.1V29H191.7z"/>
	<path class="st6" d="M180.7,29V5.1c-0.9,0.5-1.8,1-2.8,1.4V29L180.7,29z"/>
	<path class="st7" d="M205.2,35.7l-1.1-1.1c-4.5-4.7-10.8-16.3-2.7-27.1l0.6-0.8L199,2.3l-1.1,0.4c-1.6,0.6-3.3,0.9-5,0.9
		c-4.6,0-7.7-0.5-11.4-2.9l-0.9-0.6l-0.9,0.6c-2.9,2.2-6.4,3.3-10,3.4c-3.6,0-7.1-1.2-10-3.4l-0.9-0.6L158,0.7
		c-3.7,2.5-6.8,2.9-11.4,2.9c-1.7,0-3.4-0.3-5-0.9l-1.1-0.4l-3.1,4.3l0.6,0.8c8.1,10.8,1.8,22.4-2.7,27.1l-1.1,1.1l1.1,1.1
		c0.6,0.6,1.6,1.6,2.4,2.5c0,0,0,0.1,0,0.1c0,0.1,0,0.2,0,0.3l0,0.1c-0.4,7.8,1.6,14.2,6,19c4.7,5.1,12,8.2,20.6,8.7
		c2.1,1.9,4.3,3.6,4.4,3.6l0.9,0.7l0.9-0.7c0.1-0.1,2.3-1.7,4.4-3.6c8.6-0.5,15.9-3.5,20.6-8.7c4.4-4.8,6.4-11.2,6-19l0-0.1
		c0-0.1,0-0.2,0-0.3c0,0,0-0.1,0-0.1c0.8-0.9,1.9-2,2.4-2.5L205.2,35.7z M200.1,38.7c0.1,0.8,0,0.8,0.1,1.2
		c0.9,17.3-11.1,25.5-25.7,26.1c-2.2,2.1-4.7,3.9-4.7,3.9s-2.5-1.8-4.7-3.9c-14.6-0.6-26.6-8.8-25.7-26.1c0.1-0.5,0-0.4,0.1-1.2
		c-0.8-0.9-2.2-2.3-2.9-3.1c5.2-5.4,11.3-17.8,2.9-29.1l1.8-2.4c1.8,0.6,3.6,0.9,5.5,1c4.9,0,8.2-0.5,12.2-3.2
		c3.2,2.3,7,3.6,10.9,3.6c3.9,0,7.7-1.3,10.9-3.6c4.1,2.7,7.4,3.2,12.2,3.2c1.9,0,3.7-0.3,5.5-1l1.8,2.4
		c-8.5,11.2-2.4,23.7,2.9,29.1C202.3,36.4,200.9,37.8,200.1,38.7"/>
	<path class="st7" d="M141.9,39.1c0,0.3,0,0.4-0.1,0.5c0,0.1,0,0.3-0.1,0.5c-0.3,6.7,1.3,12,4.9,16c4.1,4.6,10.9,7.1,19.4,7.5l0.3,0
		c1.4,0,2.8,0,4.1,0c1,0,1.9,0,2.8,0c8.6-0.4,15.3-2.9,19.4-7.5c3.6-4,5.3-9.4,4.9-16c0-0.2,0-0.4-0.1-0.5c0-0.1,0-0.3-0.1-0.5
		l0-0.2h-55.7L141.9,39.1z M142.2,40.1c0-0.2,0-0.3,0.1-0.5c0-0.1,0-0.2,0-0.4h54.8c0,0.1,0,0.2,0,0.4c0,0.1,0,0.2,0.1,0.4
		c0.3,6.5-1.3,11.8-4.8,15.7c-4.1,4.5-10.7,7-19.1,7.3c-2,0-4.3,0-6.9,0l-0.3,0c-8.4-0.3-15.1-2.9-19.1-7.3
		C143.5,51.9,141.9,46.7,142.2,40.1"/>
	<path class="st7" d="M143.8,28.9l-0.1,0.3h52.3l-0.1-0.3c-2.3-5.2-4-13.1,0.8-21.4l0.3-0.4l-0.5,0.1c-1.1,0.2-2.3,0.3-3.4,0.3
		c-4.7,0-8.1-0.4-12.1-2.7l-0.1-0.1l-0.1,0.1c-3.2,2-7,3.1-10.8,3.1c-3.8,0-7.6-1.1-10.8-3.1l-0.1-0.1l-0.1,0.1
		c-3.9,2.2-7.4,2.7-12.1,2.7c-1.2,0-2.3-0.1-3.4-0.3l-0.5-0.1l0.3,0.4C147.7,15.8,146,23.7,143.8,28.9 M169.9,8.5
		c3.8,0,7.6-1.1,10.8-3.1c4,2.2,7.5,2.7,12.2,2.7c1,0,2-0.1,3-0.3c-4.5,8.1-2.9,15.8-0.7,21h-25.3L169.9,8.5z M143.6,7.8
		c1,0.2,2,0.2,3,0.2c4.7,0,8.2-0.4,12.2-2.7c3.2,2,6.9,3.1,10.6,3.1v20.3h-25.1C146.5,23.6,148.1,15.8,143.6,7.8"/>
	<polygon class="st7" points="163.2,32 163.2,30.5 158,30.5 158,37.7 159.5,37.7 159.5,34.7 161.7,34.7 161.7,33.2 159.5,33.2 
		159.5,32 	"/>
	<path class="st7" d="M169.2,31.9c0.5,0,1,0.3,1.2,0.7l0,0.1l1.4-0.7l0-0.1c-0.5-1-1.5-1.7-2.6-1.6c-1.9,0-3.2,1.5-3.2,3.7
		c0,2.2,1.2,3.7,3.1,3.7c1.1,0.1,2.2-0.6,2.7-1.6l0-0.1l-1.3-0.8l0,0.1c-0.2,0.5-0.7,0.9-1.3,0.9c-0.9,0-1.6-0.9-1.6-2.2
		C167.6,32.7,168.2,31.9,169.2,31.9"/>
	<path class="st7" d="M181.2,32.4c0-1.2-0.9-1.9-2.3-1.9h-3.3v7.2h3.3c1.2,0.2,2.4-0.7,2.6-1.9c0-0.1,0-0.3,0-0.4
		c0-0.6-0.3-1.2-0.9-1.5C181,33.5,181.3,33,181.2,32.4 M177.2,31.9h1.7c0.7,0,0.8,0.3,0.8,0.6c0,0.4-0.2,0.6-0.7,0.6h-1.8
		L177.2,31.9z M179,36.2h-1.8v-1.7h1.8c0.6,0,0.9,0.3,0.9,0.8C179.9,35.9,179.6,36.2,179,36.2"/>
	<path class="st7" d="M169.7,58.7c4.3,0,7.7-3.5,7.7-7.7s-3.5-7.7-7.7-7.7s-7.7,3.5-7.7,7.7v0C162,55.2,165.5,58.6,169.7,58.7
		 M169.7,58.2c-1.4,0-2.9-0.4-4.1-1.2c1.7,0,3.3-0.5,4.8-1.2c1.2-0.7,2.5-1.6,2.8-2.9c0.9-0.5,2.1-0.1,2.6,0.8
		c0.1,0.2,0.2,0.5,0.2,0.7C174.8,56.7,172.4,58.2,169.7,58.2 M166.1,52.6c0.4,0.3,0.8,0.4,1.3,0.5c1.2,0,2.3-0.8,2.5-2
		c0.7-0.6,1.8-0.6,2.5,0.1c0.1,0.2,0.2,0.3,0.3,0.5c0.6,1.5-0.7,2.6-2.4,3.7c-1.6,0.8-3.4,1.2-5.2,1.2c-0.8-0.7-1.5-1.5-1.9-2.4
		c0.1,0,0.1,0,0.2,0C164.5,54.1,165.6,53.6,166.1,52.6 M165,48.9c0.1-1.4,0.3-2.7,0.7-4c1-0.7,2.2-1.1,3.4-1.2
		c-0.8,0.8-0.7,2.1,0.1,2.9c0,0,0.1,0.1,0.1,0.1c-0.2,0.2-0.4,0.4-0.5,0.6c-0.8,1.3-0.5,3,0.8,3.8c-0.2,0.9-1.1,1.6-2,1.6
		C165.8,52.4,165,50.8,165,48.9 M173.3,52.4c0-0.3-0.1-0.6-0.2-0.8c-0.4-1.1-1.7-1.7-2.8-1.2c-0.2,0.1-0.4,0.2-0.6,0.3
		c-1-0.7-1.3-2.1-0.6-3.2c0.8-1.3,2.8-0.8,4.5,0.2c1.5,0.9,2.7,2.3,3.3,4c-0.1,0.8-0.3,1.5-0.6,2.2C176,52.6,174.6,51.9,173.3,52.4
		C173.4,52.4,173.4,52.4,173.3,52.4 M173.9,47.2c-1.3-0.7-2.9-1.4-4.1-0.9c-0.7-0.5-1-1.5-0.5-2.2c0.1-0.2,0.3-0.4,0.6-0.5
		c3.8,0,7,3,7.2,6.8C176.3,49.1,175.2,48,173.9,47.2 M165.1,45.3c-0.1,0.5-0.3,1-0.4,1.5c-0.4,1.7-0.4,4.3,1,5.6
		c-0.5,0.9-1.4,1.4-2.4,1.4c-0.1,0-0.3,0-0.4,0C161.8,50.7,162.7,47.3,165.1,45.3"/>
	<path class="st8" d="M7,0h57.8c3.8,0,7,3.1,7,7v57.8c0,3.8-3.1,7-7,7H7c-3.8,0-7-3.1-7-7c0,0,0,0,0,0V7C0,3.2,3.1,0,7,0
		C7,0,7,0,7,0"/>
	<rect x="14.2" y="45.4" class="st2" width="43.4" height="3.4"/>
	<polygon class="st2" points="26.1,28.2 26.1,24.7 14.2,24.7 14.2,41.1 18.6,41.1 18.6,35.3 25.3,35.3 25.3,31.8 18.6,31.8 
		18.6,28.2 	"/>
	<path class="st2" d="M39,32.6c1.5-0.5,2.6-2,2.6-3.6c0-2.6-2-4.2-5.3-4.2H28v16.4h8.5c3.6,0,5.8-1.7,5.8-4.6
		C42.2,34.6,40.9,33,39,32.6 M32.3,28.1h3.3c1.2,0,1.9,0.6,1.9,1.6c0,1-0.7,1.6-1.9,1.6h-3.3V28.1z M35.9,37.8h-3.6v-3.3h3.7
		c1.2,0,1.9,0.6,1.9,1.7C37.8,37.3,37.1,37.8,35.9,37.8L35.9,37.8z"/>
	<path class="st2" d="M52.7,31.2l-2-0.3c-1.9-0.3-2.5-0.8-2.5-1.7s0.8-1.5,2.4-1.5c1.3-0.2,2.5,0.7,2.7,2c0,0,0,0,0,0l4.1-0.5
		c-0.6-3.2-2.9-4.8-6.7-4.8c-4.2,0-7,2.1-7,5.3c0,2.8,1.7,4.4,5.1,4.9l2.1,0.3c2.2,0.3,2.7,0.8,2.7,1.8s-0.8,1.5-2.7,1.5
		c-1.4,0.1-2.7-0.8-3.1-2.2l-4.3,0.6c0.7,3.3,3.2,4.9,7.3,4.9c4.6,0,7.3-2,7.3-5.3C58.1,33.2,56.4,31.7,52.7,31.2"/>
</g>
<g>
	<path d="M4.3,87h3.9c2.2,0,3.5,1.1,3.5,3.1c0,1.4-0.8,2.6-2.1,3.1c0.6,1,1.3,2,2.1,2.9v1.2H10c-1-1.2-1.9-2.5-2.6-3.9H6.4v3.9H4.3
		V87z M8.6,91.5c0.6-0.2,1-0.7,1-1.4c0.1-0.7-0.4-1.2-1.1-1.3c-0.1,0-0.2,0-0.2,0H6.4v2.6L8.6,91.5z"/>
	<path d="M12.7,96.1l2.5-9.2h3.3l2.5,9.2v1.2h-1.9l-0.6-2.2c-0.6,0.1-1.2,0.2-1.8,0.2c-0.6,0-1.2-0.1-1.8-0.2l-0.6,2.2h-1.8
		L12.7,96.1z M15.5,93.4c0.4,0.1,0.9,0.1,1.3,0.1c0.5,0,0.9,0,1.4-0.1l-0.6-2.3c-0.2-1-0.5-2.3-0.5-2.3h-0.4c0,0-0.3,1.3-0.6,2.3
		L15.5,93.4z"/>
	<path d="M24.8,97.3h-2.1V87h2.1v2.7c0,0.8,0,1.5,0,1.5h0.8c0,0,0.5-0.7,0.9-1.2l2.2-3h1.5v1.2l-3,3.9v0c0.9,1.4,1.9,2.8,3.1,4v1.2
		h-1.6c-1.2-1.3-2.3-2.7-3.2-4.2h-0.8V97.3z"/>
	<path d="M31.2,96.1l2.5-9.2h3.3l2.5,9.2v1.2h-1.9l-0.6-2.2c-0.6,0.1-1.2,0.2-1.8,0.2c-0.6,0-1.2-0.1-1.8-0.2L33,97.3h-1.8
		L31.2,96.1z M34,93.4c0.4,0.1,0.9,0.1,1.3,0.1c0.5,0,0.9,0,1.4-0.1l-0.6-2.3c-0.2-1-0.5-2.3-0.5-2.3h-0.4c0,0-0.3,1.3-0.6,2.3
		L34,93.4z"/>
	<path d="M41.2,87h1.9l2.9,4.8c0.2,0.4,0.8,1.6,0.8,1.6h0c0,0-0.1-1.1-0.1-2.1V87h2v10.3h-2v-0.8l-2.6-4.2c-0.3-0.6-1-1.8-1-1.8h0
		c0,0,0,0.9,0,2v4.9h-2L41.2,87z"/>
	<path d="M54,87h3.8c2.3,0,3.5,1.1,3.5,3.3c0,1.5-0.9,2.8-2.3,3.3h-3v3.8H54V87z M58.3,91.7c0.6-0.3,0.9-0.9,0.9-1.5
		c0-0.7-0.5-1.3-1.2-1.3c-0.1,0-0.2,0-0.3,0H56v2.8H58.3z"/>
	<polygon points="62.7,87 69.2,87 68.9,88.8 64.7,88.8 64.7,91.2 68.5,91.2 68.5,93.1 64.7,93.1 64.7,95.4 69.1,95.4 69.1,97.3 
		62.7,97.3 	"/>
	<path d="M70.9,87h3.9c2.2,0,3.5,1.1,3.5,3.1c0,1.4-0.8,2.6-2.1,3.1c0.6,1,1.3,2,2.1,2.9v1.2h-1.6c-1-1.2-1.9-2.5-2.6-3.9H73v3.9
		h-2.1L70.9,87z M75.2,91.5c0.6-0.2,1-0.7,1-1.4c0.1-0.7-0.4-1.2-1.1-1.3c-0.1,0-0.2,0-0.2,0H73v2.6L75.2,91.5z"/>
	<path d="M79.9,87h3.7c2.5,0,3.8,1.2,3.8,4v2.4c0,2.8-1.4,4-3.8,4h-3.7V87z M81.9,88.8v6.6h1.5c1.3,0,1.9-0.5,1.9-1.9v-2.8
		c0-1.4-0.6-1.9-1.9-1.9L81.9,88.8z"/>
	<path d="M88.6,96.1l2.5-9.2h3.3l2.5,9.2v1.2h-1.9l-0.6-2.2c-0.6,0.1-1.2,0.2-1.8,0.2c-0.6,0-1.2-0.1-1.8-0.2l-0.6,2.2h-1.8
		L88.6,96.1z M91.5,93.4c0.4,0.1,0.9,0.1,1.3,0.1c0.5,0,0.9,0,1.4-0.1l-0.6-2.3c-0.2-1-0.5-2.3-0.5-2.3h-0.4c0,0-0.3,1.3-0.6,2.3
		L91.5,93.4z"/>
	<path d="M98.3,90.8c0-2.8,1.5-4,4-4c1.2-0.1,2.3,0.4,3.1,1.2v1.6h-1.7c-0.2-0.6-0.9-1-1.5-0.9c-1.4,0-1.9,0.7-1.9,2.1v2.9
		c0,1.4,0.6,2.1,1.9,2.1c0.5,0,1.1-0.2,1.5-0.5V93h-1.6v-1.8h3.5v6.1h-1.5l-0.3-0.7h0c-0.6,0.6-1.4,0.9-2.2,0.8
		c-2.2,0-3.3-1.2-3.3-3.9V90.8z"/>
	<path d="M107.2,96.1l2.5-9.2h3.3l2.5,9.2v1.2h-1.9l-0.6-2.2c-0.6,0.1-1.2,0.2-1.8,0.2c-0.6,0-1.2-0.1-1.8-0.2l-0.6,2.2h-1.8
		L107.2,96.1z M110,93.4c0.4,0.1,0.9,0.1,1.3,0.1c0.5,0,0.9,0,1.4-0.1l-0.6-2.3c-0.2-1-0.5-2.3-0.5-2.3h-0.4c0,0-0.3,1.3-0.6,2.3
		L110,93.4z"/>
	<path d="M117.1,87h1.9l2.9,4.8c0.2,0.4,0.8,1.6,0.8,1.6h0c0,0-0.1-1.1-0.1-2.1V87h2v10.3h-2v-0.8l-2.6-4.2c-0.3-0.6-1-1.8-1-1.8h0
		c0,0,0,0.9,0,2v4.9h-2L117.1,87z"/>
	<path d="M126.6,90.8c0-2.8,1.5-4,4-4c1.2-0.1,2.3,0.4,3.1,1.2v1.6h-1.7c-0.2-0.6-0.9-1-1.5-0.9c-1.4,0-1.9,0.7-1.9,2.1v2.9
		c0,1.4,0.6,2.1,1.9,2.1c0.5,0,1.1-0.2,1.5-0.5V93h-1.6v-1.8h3.5v6.1h-1.5l-0.3-0.7h0c-0.6,0.6-1.4,0.9-2.2,0.8
		c-2.2,0-3.3-1.2-3.3-3.9L126.6,90.8z"/>
	<path d="M135.4,96.1L138,87h3.3l2.5,9.2v1.2H142l-0.6-2.2c-0.6,0.1-1.2,0.2-1.8,0.2c-0.6,0-1.2-0.1-1.8-0.2l-0.6,2.2h-1.8
		L135.4,96.1z M138.3,93.4c0.4,0.1,0.9,0.1,1.3,0.1c0.5,0,0.9,0,1.4-0.1l-0.6-2.3c-0.2-1-0.5-2.3-0.5-2.3h-0.4c0,0-0.3,1.3-0.6,2.3
		L138.3,93.4z"/>
	<path d="M145.4,87h1.9l2.9,4.8c0.2,0.4,0.8,1.6,0.8,1.6h0c0,0-0.1-1.1-0.1-2.1V87h2v10.3h-2v-0.8l-2.6-4.2c-0.3-0.6-1-1.8-1-1.8h0
		c0,0,0,0.9,0,2v4.9h-2L145.4,87z"/>
	<path d="M158.2,87h3.9c2.2,0,3.5,1.1,3.5,3.1c0,1.4-0.8,2.6-2.1,3.1c0.6,1,1.3,2,2.1,2.9v1.2h-1.6c-1-1.2-1.9-2.5-2.6-3.9h-1.1v3.9
		h-2.1V87z M162.5,91.5c0.6-0.2,1-0.7,1-1.4c0.1-0.7-0.4-1.2-1.1-1.3c-0.1,0-0.2,0-0.2,0h-1.9v2.6L162.5,91.5z"/>
	<path d="M166.6,96.1l2.5-9.2h3.3l2.5,9.2v1.2h-1.9l-0.6-2.2c-0.6,0.1-1.2,0.2-1.8,0.2c-0.6,0-1.2-0.1-1.8-0.2l-0.6,2.2h-1.8
		L166.6,96.1z M169.4,93.4c0.4,0.1,0.9,0.1,1.3,0.1c0.5,0,0.9,0,1.4-0.1l-0.6-2.3c-0.2-1-0.5-2.3-0.5-2.3h-0.4c0,0-0.3,1.3-0.6,2.3
		L169.4,93.4z"/>
	<path d="M176.1,95h1.6c0,0,0.3,0.6,1.6,0.6c1.2,0,1.7-0.5,1.7-1.2c0-0.5-0.3-1-1.2-1.3l-0.9-0.3c-1.9-0.7-2.6-1.5-2.6-3.1
		c0-1.9,1.3-2.9,3.6-2.9c1,0,2,0.2,2.9,0.7v1.7h-1.6c0,0-0.2-0.6-1.4-0.6c-1,0-1.5,0.5-1.5,1.1c0,0.6,0.3,0.8,1.3,1.2l0.9,0.3
		c2.2,0.8,2.6,1.7,2.6,3.1c0,1.9-1.1,3.1-3.8,3.1c-1.1,0-2.1-0.2-3.1-0.6L176.1,95z"/>
	<path d="M184.7,87h3.4l1.2,5.6c0.2,1.1,0.5,3,0.5,3h0.1c0,0,0.3-2,0.5-3l1.2-5.6h3.4v10.3h-2v-5.1c0-0.9,0.1-3.5,0.1-3.5H193
		c0,0-0.4,2.1-0.7,3.1l-1.3,5.6h-2.3l-1.3-5.6c-0.2-1-0.7-3.1-0.7-3.1h-0.2c0,0,0,2.6,0,3.5v5.1h-2L184.7,87z"/>
	<polygon points="197.8,95.7 197.8,88.6 196.8,88.4 196.8,87 200.9,87 200.9,88.4 199.9,88.6 199.9,95.7 200.9,95.9 200.9,97.3 
		196.8,97.3 196.8,95.9 	"/>
	<polygon points="54,102 60.4,102 60.1,103.9 56.1,103.9 56.1,106.3 59.7,106.3 59.7,108.2 56.1,108.2 56.1,112.4 54,112.4 	"/>
	<path d="M61.4,105.9c0-2.7,1.4-4,3.8-4c1.1-0.1,2.3,0.4,3.1,1.2v1.6h-1.7c0,0-0.1-0.9-1.4-0.9c-1.4,0-1.8,0.7-1.8,2.1v2.7
		c0,1.4,0.4,2.1,1.8,2.1c1.3,0,1.4-0.9,1.4-0.9h1.7v1.6c-0.8,0.8-1.9,1.2-3.1,1.2c-2.5,0-3.8-1.2-3.8-4L61.4,105.9z"/>
	<path d="M73,102h3.7c2.5,0,3.3,1.1,3.3,2.8c0,0.9-0.4,1.8-1.2,2.3v0c0.8,0.5,1.3,1.3,1.4,2.2c0,1.9-1,3-3.4,3H73L73,102z M75,103.8
		v2.4h2.2c0.5-0.2,0.8-0.7,0.8-1.3c0-0.6-0.4-1.1-1-1.2c-0.1,0-0.1,0-0.2,0H75z M75,108v2.6h1.9c0.7,0.1,1.2-0.4,1.3-1.1
		c0-0.1,0-0.1,0-0.2c0-0.6-0.4-1.1-0.9-1.3L75,108z"/>
	<path d="M81.3,111.2l2.5-9.2h3.3l2.5,9.2v1.2h-1.9l-0.6-2.2c-0.6,0.1-1.2,0.2-1.8,0.2c-0.6,0-1.2-0.1-1.8-0.2l-0.6,2.2h-1.8
		L81.3,111.2z M84.1,108.5c0.4,0.1,0.9,0.1,1.3,0.1c0.5,0,0.9,0,1.4-0.1l-0.6-2.3c-0.2-1-0.5-2.3-0.5-2.3h-0.4c0,0-0.3,1.3-0.6,2.3
		L84.1,108.5z"/>
	<path d="M91.3,102h3.9c2.2,0,3.5,1.1,3.5,3.1c0,1.4-0.8,2.6-2.1,3.1c0.6,1,1.3,2,2.1,2.9v1.2H97c-1-1.2-1.9-2.5-2.6-3.9h-1.1v3.9
		h-2.1L91.3,102z M95.6,106.6c0.6-0.2,1-0.7,1-1.4c0.1-0.7-0.4-1.2-1.1-1.3c-0.1,0-0.2,0-0.2,0h-1.9v2.6H95.6z"/>
	<path d="M100,105.9c0-2.7,1.4-4,3.8-4c1.1-0.1,2.3,0.4,3.1,1.2v1.6h-1.7c0,0-0.1-0.9-1.4-0.9c-1.4,0-1.8,0.7-1.8,2.1v2.7
		c0,1.4,0.4,2.1,1.8,2.1c1.3,0,1.4-0.9,1.4-0.9h1.7v1.6c-0.8,0.8-1.9,1.2-3.1,1.2c-2.5,0-3.8-1.2-3.8-4V105.9z"/>
	<polygon points="108.5,102 115,102 114.7,103.9 110.6,103.9 110.6,106.3 114.3,106.3 114.3,108.2 110.6,108.2 110.6,110.5 
		114.9,110.5 114.9,112.4 108.5,112.4 	"/>
	<polygon points="116.7,102 118.8,102 118.8,110.5 123,110.5 122.6,112.4 116.7,112.4 	"/>
	<path d="M123.8,106c0-2.7,1.4-4.1,4-4.1c2.6,0,4,1.5,4,4.1v2.3c0,2.7-1.4,4.1-4,4.1c-2.6,0-4-1.5-4-4.1L123.8,106z M127.8,110.7
		c1.4,0,1.9-0.6,1.9-2.2v-2.6c0-1.5-0.6-2.2-1.9-2.2c-1.4,0-1.9,0.6-1.9,2.2v2.6C125.9,110,126.5,110.7,127.8,110.7"/>
	<path d="M133.7,102h1.9l2.9,4.8c0.2,0.4,0.8,1.6,0.8,1.6h0c0,0-0.1-1.1-0.1-2.1V102h2v10.3h-2v-0.8l-2.6-4.2c-0.3-0.6-1-1.8-1-1.8
		h0c0,0,0,0.9,0,2v4.9h-2L133.7,102z"/>
	<path d="M142.9,111.2l2.5-9.2h3.3l2.5,9.2v1.2h-1.9l-0.6-2.2c-0.6,0.1-1.2,0.2-1.8,0.2c-0.6,0-1.2-0.1-1.8-0.2l-0.6,2.2h-1.8
		L142.9,111.2z M145.7,108.5c0.4,0.1,0.9,0.1,1.3,0.1c0.5,0,0.9,0,1.4-0.1l-0.6-2.3c-0.2-1-0.5-2.3-0.5-2.3h-0.4
		c0,0-0.3,1.3-0.6,2.3L145.7,108.5z"/>
</g>
</svg>
