<?xml version="1.0" encoding="utf-8"?>
<!-- Generator: Adobe Illustrator 25.2.0, SVG Export Plug-In . SVG Version: 6.00 Build 0)  -->
<svg version="1.1" id="Layer_1" xmlns="http://www.w3.org/2000/svg" xmlns:xlink="http://www.w3.org/1999/xlink" x="0px" y="0px"
	 viewBox="0 0 404.5 71.8" style="enable-background:new 0 0 404.5 71.8;" xml:space="preserve">
<style type="text/css">
	.st0{fill:#E8B909;}
	.st1{fill:#FFFFFF;}
	.st2{fill:#FFDD00;}
	.st3{fill:#0054A4;}
	.st4{fill:#A30046;}
	.st5{fill:#E31937;}
	.st6{fill:#231F20;}
	.st7{fill:none;stroke:#231F20;stroke-width:1.001;stroke-miterlimit:10;}
	.st8{fill:#00BE40;}
</style>
<g>
	<path class="st0" d="M180.7,1.2l0.4,0.2C185,4,188.2,4.5,193,4.5c1.8,0,3.6-0.3,5.3-0.9l0.5-0.2l2.3,3.2l-0.2,0.3
		c-8.5,11.3-1.9,23.4,2.8,28.3l0.4,0.4l-0.4,0.4c-0.6,0.6-1.7,1.7-2.5,2.5l-0.3,0.3v0.4v0.1c0,0.1,0,0.2,0,0.4v0.1
		c0.4,7.5-1.6,13.7-5.8,18.3c-4.5,4.9-11.6,7.9-20,8.4h-0.3l-0.2,0.2c-2.1,1.9-4.3,3.6-4.3,3.6l-0.4,0.3l-0.4-0.3
		c-0.1-0.1-2.2-1.7-4.3-3.6l-0.2-0.2h-0.3c-8.4-0.5-15.5-3.4-20-8.4c-4.2-4.7-6.2-10.8-5.8-18.3v-0.1c0-0.2,0-0.3,0-0.4l0,0l0,0
		v-0.1v-0.4l-0.3-0.3c-0.7-0.8-1.8-1.9-2.5-2.5l-0.4-0.4l0.4-0.4c4.7-4.9,11.3-17,2.8-28.3l-0.2-0.3l2.3-3.2l0.5,0.2
		c1.7,0.6,3.5,0.9,5.3,0.9c4.8,0,8-0.5,11.9-3.1l0.4-0.2l0.4,0.2c3,2.3,6.7,3.5,10.5,3.5s7.5-1.3,10.5-3.5L180.7,1.2"/>
	<path class="st1" d="M144,29c2.7-6.1,3.6-13.9-0.8-21.5c1.1,0.2,2.3,0.3,3.5,0.3c4.6,0,8.2-0.4,12.2-2.7c3.3,2.1,7.1,3.1,10.9,3.2
		c3.9,0,7.7-1.1,10.9-3.2c4,2.3,7.6,2.7,12.2,2.7c1.2,0,2.3-0.1,3.5-0.3c-4.5,7.7-3.5,15.5-0.8,21.6H144"/>
	<path class="st2" d="M195.6,29c-2.7-6.1-3.6-13.9,0.8-21.6c-1.1,0.2-2.3,0.3-3.5,0.3c-4.6,0-8.2-0.4-12.2-2.7
		c-3.3,2.1-7.1,3.1-10.9,3.2h-0.1V29H195.6z"/>
	<path class="st3" d="M189.9,58.4c5.1-3.7,8.1-9.6,7.6-18.3c-0.1-0.5-0.1-0.5-0.1-1h-7.5V58.4z"/>
	<path class="st4" d="M181.9,62.1c2.9-0.7,5.6-2,8-3.7V39.1h-8V62.1z"/>
	<path class="st4" d="M149.7,58.4c2.4,1.7,5.2,3,8,3.7v-23h-8V58.4z"/>
	<path class="st3" d="M142.1,40.1c-0.4,8.7,2.6,14.6,7.6,18.3V39.1h-7.5C142.2,39.6,142.1,39.6,142.1,40.1"/>
	<path class="st4" d="M169.8,43.3c1.4,0,2.8,0.4,4,1.2v-5.4h-8v5.4C167,43.8,168.4,43.3,169.8,43.3"/>
	<path class="st4" d="M169.8,58.5c-1.4,0-2.8-0.4-4-1.2v6c0.1,0,0.3,0,0.4,0c2.7,0,5.1,0,7.2,0c0.1,0,0.3,0,0.4,0v-6
		C172.7,58.1,171.3,58.5,169.8,58.5"/>
	<path class="st3" d="M173.8,39.1v5.4c3.6,2.2,4.6,6.9,2.4,10.4c-0.6,1-1.5,1.8-2.4,2.4v6c2.7-0.1,5.4-0.5,8-1.2v-23
		C181.8,39.1,173.8,39.1,173.8,39.1z"/>
	<path class="st3" d="M162.3,50.9c0-2.6,1.3-5,3.5-6.4v-5.4h-8v23c2.6,0.7,5.3,1.1,8,1.2v-6C163.6,56,162.3,53.5,162.3,50.9"/>
	<path class="st5" d="M145.8,14.3c0.5,2.5,0.6,5.1,0.2,7.7h7.8v7h7.7v-7h8.2v-7.7h-8.2V6.5c-0.9-0.4-1.8-0.9-2.7-1.4
		c-1.6,0.9-3.3,1.6-5,2v7.2L145.8,14.3z"/>
	<path class="st5" d="M186.3,29V7.2c-0.9-0.2-1.9-0.5-2.8-0.8V29H186.3z"/>
	<path class="st5" d="M175.2,29V7.5c-0.9,0.3-1.8,0.4-2.8,0.6V29H175.2z"/>
	<path class="st5" d="M191.8,29V7.8c-1,0-1.9-0.1-2.8-0.1V29H191.8z"/>
	<path class="st5" d="M180.7,29V5.1c-0.9,0.5-1.8,1-2.8,1.4V29H180.7z"/>
	<path class="st6" d="M205.2,35.6l-1.1-1.1c-4.5-4.7-10.8-16.3-2.7-27.1l0.6-0.8l-3-4.3l-1.1,0.4c-1.6,0.6-3.3,0.9-5,0.9
		c-4.6,0-7.7-0.5-11.4-2.9l-0.9-0.6l-0.9,0.6c-2.9,2.2-6.4,3.3-10,3.4c-3.6,0-7.1-1.2-10-3.4l-0.9-0.6l-0.9,0.6
		c-3.7,2.5-6.8,2.9-11.4,2.9c-1.7,0-3.4-0.3-5-0.9l-1.1-0.4l-3.1,4.3l0.6,0.8c8.1,10.8,1.8,22.4-2.7,27.1l-1.1,1.1l1.1,1.1
		c0.6,0.6,1.6,1.6,2.4,2.5v0.1c0,0.1,0,0.2,0,0.3v0.1c-0.4,7.8,1.6,14.2,6,19c4.7,5.1,12,8.2,20.6,8.7c2.1,1.9,4.3,3.6,4.4,3.6
		l0.9,0.7l0.9-0.7c0.1-0.1,2.3-1.7,4.4-3.6c8.6-0.5,15.9-3.5,20.6-8.7c4.4-4.8,6.4-11.2,6-19v-0.1c0-0.1,0-0.2,0-0.3v-0.1
		c0.8-0.9,1.9-2,2.4-2.5L205.2,35.6z M200.1,38.7c0.1,0.8,0,0.8,0.1,1.2c0.9,17.3-11.1,25.5-25.7,26.1c-2.2,2.1-4.7,3.9-4.7,3.9
		s-2.5-1.8-4.7-3.9c-14.6-0.6-26.6-8.8-25.7-26.1c0.1-0.5,0-0.4,0.1-1.2c-0.8-0.9-2.2-2.3-2.9-3.1c5.2-5.4,11.3-17.8,2.9-29.1
		l1.8-2.4c1.8,0.6,3.6,0.9,5.5,1c4.9,0,8.2-0.5,12.2-3.2c3.2,2.3,7,3.6,10.9,3.6s7.7-1.3,10.9-3.6c4.1,2.7,7.4,3.2,12.2,3.2
		c1.9,0,3.7-0.3,5.5-1l1.8,2.4c-8.5,11.2-2.4,23.7,2.9,29.1C202.4,36.3,201,37.8,200.1,38.7"/>
	<path class="st6" d="M142,39.1c0,0.3,0,0.4-0.1,0.5c0,0.1,0,0.3-0.1,0.5c-0.3,6.7,1.3,12,4.9,16c4.1,4.6,10.9,7.1,19.4,7.5h0.3
		c1.4,0,2.8,0,4.1,0c1,0,1.9,0,2.8,0c8.6-0.4,15.3-2.9,19.4-7.5c3.6-4,5.3-9.4,4.9-16c0-0.2,0-0.4-0.1-0.5c0-0.1,0-0.3-0.1-0.5v-0.2
		H142V39.1z M142.3,40.1c0-0.2,0-0.3,0.1-0.5c0-0.1,0-0.2,0-0.4h54.8c0,0.1,0,0.2,0,0.4c0,0.1,0,0.2,0.1,0.4
		c0.3,6.5-1.3,11.8-4.8,15.7c-4.1,4.5-10.7,7-19.1,7.3c-2,0-4.3,0-6.9,0h-0.3c-8.4-0.3-15.1-2.9-19.1-7.3
		C143.6,51.9,142,46.6,142.3,40.1"/>
	<path class="st6" d="M143.8,28.9l-0.1,0.3H196l-0.1-0.3c-2.3-5.2-4-13.1,0.8-21.4l0.3-0.4l-0.5,0.1c-1.1,0.2-2.3,0.3-3.4,0.3
		c-4.7,0-8.1-0.4-12.1-2.7l-0.1-0.1l-0.1,0.1c-3.2,2-7,3.1-10.8,3.1s-7.6-1.1-10.8-3.1l-0.1-0.1L159,4.8c-3.9,2.2-7.4,2.7-12.1,2.7
		c-1.2,0-2.3-0.1-3.4-0.3L143,7.1l0.3,0.4C147.8,15.8,146.1,23.7,143.8,28.9 M170,8.5c3.8,0,7.6-1.1,10.8-3.1
		c4,2.2,7.5,2.7,12.2,2.7c1,0,2-0.1,3-0.3c-4.5,8.1-2.9,15.8-0.7,21H170V8.5z M143.7,7.8c1,0.2,2,0.2,3,0.2c4.7,0,8.2-0.4,12.2-2.7
		c3.2,2,6.9,3.1,10.6,3.1v20.3h-25.1C146.6,23.5,148.1,15.8,143.7,7.8"/>
	<polygon class="st6" points="163.2,32 163.2,30.5 158.1,30.5 158.1,37.6 159.6,37.6 159.6,34.7 161.7,34.7 161.7,33.2 159.6,33.2 
		159.6,32 	"/>
	<path class="st6" d="M169.3,31.9c0.5,0,1,0.3,1.2,0.7v0.1L172,32v-0.1c-0.5-1-1.5-1.7-2.6-1.6c-1.9,0-3.2,1.5-3.2,3.7
		s1.2,3.7,3.1,3.7c1.1,0.1,2.2-0.6,2.7-1.6V36l-1.3-0.8v0.1c-0.2,0.5-0.7,0.9-1.3,0.9c-0.9,0-1.6-0.9-1.6-2.2
		C167.7,32.7,168.3,31.9,169.3,31.9"/>
	<path class="st6" d="M181.3,32.4c0-1.2-0.9-1.9-2.3-1.9h-3.3v7.2h3.3c1.2,0.2,2.4-0.7,2.6-1.9c0-0.1,0-0.3,0-0.4
		c0-0.6-0.3-1.2-0.9-1.5C181.1,33.4,181.3,32.9,181.3,32.4 M177.2,31.9h1.7c0.7,0,0.8,0.3,0.8,0.6c0,0.4-0.2,0.6-0.7,0.6h-1.8V31.9z
		 M179,36.2h-1.8v-1.7h1.8c0.6,0,0.9,0.3,0.9,0.8C180,35.9,179.6,36.2,179,36.2"/>
	<path class="st6" d="M169.8,58.6c4.3,0,7.7-3.5,7.7-7.7s-3.5-7.7-7.7-7.7s-7.7,3.5-7.7,7.7l0,0C162.1,55.2,165.5,58.6,169.8,58.6
		 M169.8,58.2c-1.4,0-2.9-0.4-4.1-1.2c1.7,0,3.3-0.5,4.8-1.2c1.2-0.7,2.5-1.6,2.8-2.9c0.9-0.5,2.1-0.1,2.6,0.8
		c0.1,0.2,0.2,0.5,0.2,0.7C174.9,56.7,172.5,58.2,169.8,58.2 M166.2,52.6c0.4,0.3,0.8,0.4,1.3,0.5c1.2,0,2.3-0.8,2.5-2
		c0.7-0.6,1.8-0.6,2.5,0.1c0.1,0.2,0.2,0.3,0.3,0.5c0.6,1.5-0.7,2.6-2.4,3.7c-1.6,0.8-3.4,1.2-5.2,1.2c-0.8-0.7-1.5-1.5-1.9-2.4
		c0.1,0,0.1,0,0.2,0C164.6,54.1,165.6,53.5,166.2,52.6 M165,48.9c0.1-1.4,0.3-2.7,0.7-4c1-0.7,2.2-1.1,3.4-1.2
		c-0.8,0.8-0.7,2.1,0.1,2.9l0.1,0.1c-0.2,0.2-0.4,0.4-0.5,0.6c-0.8,1.3-0.5,3,0.8,3.8c-0.2,0.9-1.1,1.6-2,1.6
		C165.9,52.4,165.1,50.8,165,48.9 M173.4,52.4c0-0.3-0.1-0.6-0.2-0.8c-0.4-1.1-1.7-1.7-2.8-1.2c-0.2,0.1-0.4,0.2-0.6,0.3
		c-1-0.7-1.3-2.1-0.6-3.2c0.8-1.3,2.8-0.8,4.5,0.2c1.5,0.9,2.7,2.3,3.3,4c-0.1,0.8-0.3,1.5-0.6,2.2
		C176.1,52.6,174.7,51.9,173.4,52.4C173.5,52.3,173.4,52.3,173.4,52.4 M173.9,47.2c-1.3-0.7-2.9-1.4-4.1-0.9c-0.7-0.5-1-1.5-0.5-2.2
		c0.1-0.2,0.3-0.4,0.6-0.5c3.8,0,7,3,7.2,6.8C176.3,49.1,175.2,48,173.9,47.2 M165.2,45.2c-0.1,0.5-0.3,1-0.4,1.5
		c-0.4,1.7-0.4,4.3,1,5.6c-0.5,0.9-1.4,1.4-2.4,1.4c-0.1,0-0.3,0-0.4,0C161.8,50.7,162.7,47.3,165.2,45.2"/>
	<line class="st7" x1="103.1" y1="0" x2="103.1" y2="71.8"/>
	<path class="st8" d="M7,0h57.8c3.8,0,7,3.1,7,7l0,0v57.8c0,3.8-3.1,7-7,7l0,0H7c-3.8,0-7-3.1-7-7V7C0,3.1,3.1,0,7,0"/>
	<rect x="14.2" y="45.4" class="st1" width="43.4" height="3.4"/>
	<polygon class="st1" points="26.1,28.2 26.1,24.7 14.2,24.7 14.2,41.1 18.6,41.1 18.6,35.2 25.3,35.2 25.3,31.7 18.6,31.7 
		18.6,28.2 	"/>
	<path class="st1" d="M39,32.6c1.5-0.5,2.6-2,2.6-3.6c0-2.6-2-4.2-5.3-4.2H28v16.4h8.5c3.6,0,5.8-1.7,5.8-4.6
		C42.2,34.6,40.9,32.9,39,32.6 M32.3,28h3.3c1.2,0,1.9,0.6,1.9,1.6s-0.7,1.6-1.9,1.6h-3.3V28z M35.9,37.7h-3.6v-3.3H36
		c1.2,0,1.9,0.6,1.9,1.7C37.8,37.2,37.1,37.7,35.9,37.7L35.9,37.7z"/>
	<path class="st1" d="M52.7,31.1l-2-0.3c-1.9-0.3-2.5-0.8-2.5-1.7s0.8-1.5,2.4-1.5c1.3-0.2,2.5,0.7,2.7,2l0,0l4.1-0.5
		c-0.6-3.2-2.9-4.8-6.7-4.8c-4.2,0-7,2.1-7,5.3c0,2.8,1.7,4.4,5.1,4.9l2.1,0.3c2.2,0.3,2.7,0.8,2.7,1.8s-0.8,1.5-2.7,1.5
		c-1.4,0.1-2.7-0.8-3.1-2.2l-4.3,0.6c0.7,3.3,3.2,4.9,7.3,4.9c4.6,0,7.3-2,7.3-5.3C58.1,33.2,56.4,31.7,52.7,31.1"/>
</g>
<g>
	<path d="M235.7,21.6h4.4c2.6,0,3.9,1.2,3.9,3.5c0,1.6-1,3-2.4,3.5c0.7,1.2,1.5,2.3,2.4,3.3v1.4h-1.8c-1.1-1.4-2.1-2.9-3-4.5H238
		v4.5h-2.3L235.7,21.6L235.7,21.6z M240.7,26.7c0.7-0.2,1.1-0.8,1.1-1.5c0.1-0.8-0.5-1.4-1.3-1.5c-0.1,0-0.2,0-0.3,0H238v3H240.7z"
		/>
	<path d="M245.3,32l2.9-10.4h3.8l2.9,10.4v1.3h-2.1l-0.6-2.5c-0.7,0.1-1.4,0.2-2.1,0.2c-0.7,0-1.4-0.1-2-0.2l-0.6,2.4h-2.1L245.3,32
		L245.3,32z M248.5,28.9c0.5,0.1,1,0.1,1.5,0.1s1.1-0.1,1.6-0.2l-0.7-2.6c-0.3-1.1-0.6-2.6-0.6-2.6h-0.5c0,0-0.3,1.5-0.6,2.6
		L248.5,28.9z"/>
	<path d="M259,33.3h-2.3V21.6h2.3v3c0,0.9,0,1.8,0,1.8h0.9c0,0,0.6-0.8,1-1.4l2.5-3.4h1.8V23l-3.4,4.4l0,0c1,1.6,2.2,3.2,3.5,4.5
		v1.4h-1.8c-1.4-1.5-2.6-3.1-3.6-4.8H259V33.3z"/>
	<path d="M266.3,32l2.9-10.4h3.8l2.9,10.4v1.3h-2.1l-0.6-2.5c-0.7,0.1-1.4,0.2-2.1,0.2s-1.4-0.1-2-0.2l-0.6,2.4h-2.1L266.3,32z
		 M269.5,28.9c0.5,0.1,1,0.1,1.5,0.1s1.1-0.1,1.6-0.2l-0.7-2.6c-0.3-1.1-0.6-2.6-0.6-2.6h-0.5c0,0-0.3,1.5-0.6,2.6L269.5,28.9z"/>
	<path d="M277.6,21.6h2.2l3.3,5.5c0.3,0.4,0.9,1.8,0.9,1.8l0,0c0,0-0.1-1.3-0.1-2.4v-4.9h2.3v11.7H284v-0.9l-2.9-4.8
		c-0.4-0.7-1.2-2-1.2-2h-0.1c0,0,0.1,1.1,0.1,2.2v5.5h-2.3V21.6z"/>
	<path d="M292.1,21.6h4.3c2.6,0,4,1.3,4,3.7c0,1.7-1,3.1-2.6,3.7h-3.4v4.3h-2.3V21.6z M297.1,26.9c0.7-0.3,1.1-1,1-1.7
		c0.1-0.8-0.5-1.5-1.3-1.5c-0.1,0-0.2,0-0.3,0h-2v3.2H297.1z"/>
	<polygon points="302,21.6 309.4,21.6 309.1,23.7 304.3,23.7 304.3,26.4 308.6,26.4 308.6,28.5 304.3,28.5 304.3,31.1 309.2,31.1 
		309.2,33.3 302,33.3 	"/>
	<path d="M311.3,21.6h4.4c2.5,0,3.9,1.2,3.9,3.5c0,1.6-1,3-2.4,3.5c0.7,1.2,1.5,2.3,2.4,3.3v1.4h-1.8c-1.1-1.4-2.1-2.9-3-4.5h-1.2
		v4.5h-2.3V21.6z M316.3,26.7c0.7-0.2,1.1-0.8,1.1-1.5c0.1-0.8-0.5-1.4-1.3-1.5c-0.1,0-0.2,0-0.3,0h-2.2v3H316.3z"/>
	<path d="M321.5,21.6h4.2c2.8,0,4.3,1.4,4.3,4.5v2.7c0,3.1-1.5,4.5-4.3,4.5h-4.2V21.6z M323.9,23.7v7.5h1.7c1.5,0,2.1-0.6,2.1-2.2
		v-3.1c0-1.6-0.7-2.2-2.1-2.2L323.9,23.7z"/>
	<path d="M331.5,32l2.9-10.4h3.8L341,32v1.3h-2.1l-0.6-2.5c-0.7,0.1-1.4,0.2-2.1,0.2s-1.4-0.1-2-0.2l-0.6,2.4h-2.1L331.5,32z
		 M334.7,28.9c0.5,0.1,1,0.1,1.5,0.1s1.1-0.1,1.6-0.2l-0.7-2.6c-0.3-1.1-0.6-2.6-0.6-2.6H336c0,0-0.3,1.5-0.6,2.6L334.7,28.9z"/>
	<path d="M342.4,25.9c0-3.1,1.7-4.5,4.6-4.5c1.3-0.1,2.6,0.4,3.6,1.3v1.8h-1.9c-0.3-0.7-1-1.1-1.7-1.1c-1.5,0-2.2,0.8-2.2,2.4v3.3
		c0,1.6,0.7,2.3,2.2,2.3c0.6,0,1.2-0.2,1.7-0.6v-2.5h-1.8v-2h3.9v6.9h-1.7l-0.3-0.8h-0.1c-0.7,0.6-1.6,1-2.5,0.9
		c-2.5,0-3.8-1.4-3.8-4.4L342.4,25.9z"/>
	<path d="M352.5,32l2.9-10.4h3.8L362,32v1.3h-2.1l-0.6-2.5c-0.7,0.1-1.4,0.2-2.1,0.2s-1.4-0.1-2-0.2l-0.6,2.4h-2.1L352.5,32z
		 M355.7,28.9c0.5,0.1,1,0.1,1.5,0.1s1.1-0.1,1.6-0.2l-0.7-2.6c-0.3-1.1-0.6-2.6-0.6-2.6H357c0,0-0.3,1.5-0.6,2.6L355.7,28.9z"/>
	<path d="M363.8,21.6h2.2l3.3,5.5c0.3,0.4,0.9,1.8,0.9,1.8l0,0c0,0-0.1-1.3-0.1-2.4v-4.9h2.3v11.7h-2.3v-0.9l-2.9-4.8
		c-0.4-0.7-1.2-2-1.2-2h0c0,0,0.1,1.1,0.1,2.2v5.5h-2.3L363.8,21.6z"/>
	<path d="M374.5,25.9c0-3.1,1.7-4.5,4.6-4.5c1.3-0.1,2.6,0.4,3.6,1.3v1.8h-1.9c-0.3-0.7-1-1.1-1.7-1.1c-1.5,0-2.2,0.8-2.2,2.4v3.3
		c0,1.6,0.7,2.3,2.2,2.3c0.6,0,1.2-0.2,1.7-0.6v-2.5H379v-2h3.9v6.9h-1.7l-0.3-0.8h-0.1c-0.7,0.6-1.6,1-2.5,0.9
		c-2.5,0-3.8-1.4-3.8-4.4L374.5,25.9z"/>
	<path d="M384.6,32l2.9-10.4h3.8l2.9,10.4v1.3H392l-0.6-2.5c-0.7,0.1-1.4,0.2-2.1,0.2s-1.4-0.1-2-0.2l-0.6,2.4h-2.1L384.6,32z
		 M387.8,28.9c0.5,0.1,1,0.1,1.5,0.1s1.1-0.1,1.6-0.2l-0.7-2.6c-0.3-1.1-0.6-2.6-0.6-2.6h-0.5c0,0-0.3,1.5-0.6,2.6L387.8,28.9z"/>
	<path d="M395.9,21.6h2.2l3.3,5.5c0.3,0.4,0.9,1.8,0.9,1.8l0,0c0,0-0.1-1.3-0.1-2.4v-4.9h2.3v11.7h-2.3v-0.9l-2.9-4.8
		c-0.4-0.7-1.2-2-1.2-2H398c0,0,0.1,1.1,0.1,2.2v5.5h-2.3L395.9,21.6z"/>
	<path d="M235.7,38.8h4.4c2.6,0,3.9,1.2,3.9,3.5c0,1.6-1,3-2.4,3.5c0.7,1.2,1.5,2.3,2.4,3.3v1.4h-1.8c-1.1-1.4-2.1-2.9-3-4.5H238
		v4.5h-2.3L235.7,38.8L235.7,38.8z M240.7,43.9c0.7-0.2,1.1-0.8,1.1-1.5c0.1-0.8-0.5-1.4-1.3-1.5c-0.1,0-0.2,0-0.3,0H238v3H240.7z"
		/>
	<path d="M245.3,49.2l2.9-10.4h3.8l2.9,10.4v1.3h-2.1l-0.6-2.5c-0.7,0.1-1.4,0.2-2.1,0.2c-0.7,0-1.4-0.1-2-0.2l-0.6,2.4h-2.1
		L245.3,49.2L245.3,49.2z M248.5,46.1c0.5,0.1,1,0.1,1.5,0.1s1.1-0.1,1.6-0.2l-0.7-2.6c-0.3-1.1-0.6-2.6-0.6-2.6h-0.5
		c0,0-0.3,1.5-0.6,2.6L248.5,46.1z"/>
	<path d="M256.1,47.9h1.8c0,0,0.3,0.7,1.8,0.7c1.4,0,1.9-0.5,1.9-1.3c0-0.6-0.3-1.1-1.4-1.5l-1.1-0.4c-2.2-0.8-3-1.7-3-3.5
		c0-2.1,1.5-3.3,4.1-3.3c1.1,0,2.3,0.2,3.3,0.7v2h-1.8c0,0-0.2-0.7-1.6-0.7c-1.2,0-1.7,0.6-1.7,1.3s0.4,0.9,1.4,1.3l1.1,0.4
		c2.5,0.9,2.9,1.9,2.9,3.5c0,2.2-1.2,3.5-4.3,3.5c-1.2,0-2.4-0.2-3.5-0.7v-2H256.1z"/>
	<path d="M265.9,38.8h3.8l1.4,6.3c0.3,1.2,0.6,3.4,0.6,3.4h0.1c0,0,0.3-2.2,0.6-3.4l1.4-6.3h3.8v11.7h-2.3v-5.8c0-1,0.1-4,0.1-4
		h-0.2c0,0-0.5,2.3-0.8,3.5l-1.4,6.3h-2.6l-1.4-6.3c-0.3-1.1-0.8-3.5-0.8-3.5H268c0,0,0.1,2.9,0.1,4v5.8h-2.3L265.9,38.8z"/>
	<polygon points="280.7,48.7 280.7,40.6 279.5,40.4 279.5,38.8 284.2,38.8 284.2,40.4 283,40.6 283,48.7 284.2,48.9 284.2,50.5 
		279.5,50.5 279.5,48.9 	"/>
	<polygon points="289.5,38.8 296.8,38.8 296.4,40.9 291.9,40.9 291.9,43.6 296,43.6 296,45.7 291.9,45.7 291.9,50.5 289.5,50.5 	"/>
	<path d="M297.9,43.2c0-3.1,1.5-4.5,4.3-4.5c1.3-0.1,2.6,0.4,3.5,1.3v1.8h-1.9c0,0-0.1-1.1-1.6-1.1s-2,0.8-2,2.4v3.1
		c0,1.6,0.5,2.4,2,2.4c1.4,0,1.6-1.1,1.6-1.1h1.9v1.8c-0.9,0.9-2.2,1.4-3.5,1.3c-2.8,0-4.3-1.4-4.3-4.5V43.2z"/>
	<path d="M311.1,38.8h4.2c2.8,0,3.8,1.3,3.8,3.2c0,1-0.5,2-1.4,2.6l0,0c0.9,0.5,1.5,1.5,1.5,2.5c0,2.1-1.2,3.4-3.8,3.4H311
		L311.1,38.8L311.1,38.8z M313.3,40.8v2.8h2.5c0.6-0.3,0.9-0.8,0.9-1.4c0.1-0.7-0.5-1.3-1.2-1.4c-0.1,0-0.2,0-0.3,0L313.3,40.8z
		 M313.3,45.6v2.9h2.2c0.7,0.1,1.4-0.5,1.4-1.2c0-0.1,0-0.2,0-0.2c0-0.7-0.4-1.2-1-1.5H313.3z"/>
	<path d="M320.5,49.2l2.9-10.4h3.8l2.9,10.4v1.3H328l-0.6-2.5c-0.7,0.1-1.4,0.2-2.1,0.2s-1.4-0.1-2-0.2l-0.6,2.4h-2.1L320.5,49.2z
		 M323.7,46.1c0.5,0.1,1,0.1,1.5,0.1s1.1-0.1,1.6-0.2l-0.7-2.6c-0.3-1.1-0.6-2.6-0.6-2.6H325c0,0-0.3,1.5-0.6,2.6L323.7,46.1z"/>
	<path d="M331.8,38.8h4.4c2.5,0,3.9,1.2,3.9,3.5c0,1.6-1,3-2.4,3.5c0.7,1.2,1.5,2.3,2.4,3.3v1.4h-1.8c-1.1-1.4-2.1-2.9-3-4.5h-1.2
		v4.5h-2.3V38.8z M336.8,43.9c0.7-0.2,1.1-0.8,1.1-1.5c0.1-0.8-0.5-1.4-1.3-1.5c-0.1,0-0.2,0-0.3,0h-2.2v3H336.8z"/>
	<path d="M341.7,43.2c0-3.1,1.5-4.5,4.3-4.5c1.3-0.1,2.6,0.4,3.5,1.3v1.8h-1.9c0,0-0.1-1.1-1.6-1.1s-2,0.8-2,2.4v3.1
		c0,1.6,0.5,2.4,2,2.4c1.4,0,1.6-1.1,1.6-1.1h1.9v1.8c-0.9,0.9-2.2,1.4-3.5,1.3c-2.8,0-4.3-1.4-4.3-4.5V43.2z"/>
	<polygon points="351.4,38.8 358.8,38.8 358.4,40.9 353.7,40.9 353.7,43.6 358,43.6 358,45.7 353.7,45.7 353.7,48.4 358.6,48.4 
		358.6,50.5 351.4,50.5 	"/>
	<polygon points="360.7,38.8 363,38.8 363,48.4 367.8,48.4 367.4,50.5 360.7,50.5 	"/>
	<path d="M368.8,43.3c0-3,1.6-4.7,4.5-4.7s4.5,1.7,4.5,4.7V46c0,3-1.6,4.7-4.5,4.7s-4.5-1.7-4.5-4.7V43.3z M373.3,48.6
		c1.6,0,2.2-0.7,2.2-2.4v-3c0-1.7-0.7-2.4-2.2-2.4s-2.2,0.7-2.2,2.4v3C371.1,47.9,371.8,48.6,373.3,48.6"/>
	<path d="M379.9,38.8h2.2l3.3,5.5c0.3,0.4,0.9,1.8,0.9,1.8l0,0c0,0-0.1-1.3-0.1-2.4v-4.9h2.3v11.7h-2.3v-0.9l-2.9-4.8
		c-0.4-0.7-1.2-2-1.2-2H382c0,0,0.1,1.1,0.1,2.2v5.5h-2.3L379.9,38.8z"/>
	<path d="M390.3,49.2l2.9-10.4h3.8l2.9,10.4v1.3h-2.1l-0.6-2.5c-0.7,0.1-1.4,0.2-2.1,0.2s-1.4-0.1-2-0.2l-0.6,2.4h-2.1L390.3,49.2z
		 M393.5,46.1c0.5,0.1,1,0.1,1.5,0.1s1.1-0.1,1.6-0.2l-0.7-2.6c-0.3-1.1-0.6-2.6-0.6-2.6h-0.5c0,0-0.3,1.5-0.6,2.6L393.5,46.1z"/>
</g>
</svg>
