<svg width="48" height="24" viewBox="0 0 48 24" fill="none" xmlns="http://www.w3.org/2000/svg">
<path d="M7.14209 6V18H9.60303V10.1602H9.70264L12.8081 17.9414H14.4839L17.5894 10.1895H17.689V18H20.1499V6H17.021L13.7163 14.0625H13.5757L10.271 6H7.14209Z" fill="#0187D4"/>
<path d="M21.7832 8.0918H25.457V18H27.9648V8.0918H31.6387V6H21.7832V8.0918Z" fill="#0187D4"/>
<path d="M33.0098 15.8906H38.7695V18H41.1953V15.8906H42.6836V13.8574H41.1953V6H38.0195L33.0098 13.8926V15.8906ZM38.8164 13.8574H35.5645V13.7637L38.7227 8.76562H38.8164V13.8574Z" fill="#0187D4"/>
<path d="M3 1H45V-1H3V1ZM47 3V21H49V3H47ZM45 23H3V25H45V23ZM1 21V3H-1V21H1ZM3 23C1.89543 23 1 22.1046 1 21H-1C-1 23.2091 0.790861 25 3 25V23ZM47 21C47 22.1046 46.1046 23 45 23V25C47.2091 25 49 23.2091 49 21H47ZM45 1C46.1046 1 47 1.89543 47 3H49C49 0.790861 47.2091 -1 45 -1V1ZM3 -1C0.790861 -1 -1 0.790861 -1 3H1C1 1.89543 1.89543 1 3 1V-1Z" fill="#0187D4" fill-opacity="0.3"/>
</svg>
