<svg width="48" height="24" viewBox="0 0 48 24" fill="none" xmlns="http://www.w3.org/2000/svg">
<path d="M7.41553 6V18H9.87647V10.1602H9.97607L13.0815 17.9414H14.7573L17.8628 10.1895H17.9624V18H20.4233V6H17.2944L13.9897 14.0625H13.8491L10.5444 6H7.41553Z" fill="#0187D4"/>
<path d="M22.0566 8.0918H25.7305V18H28.2383V8.0918H31.9121V6H22.0566V8.0918Z" fill="#0187D4"/>
<path d="M37.8477 18.1641C40.5195 18.1641 42.3359 16.4238 42.3301 13.998C42.3359 11.7012 40.7305 10.0488 38.5684 10.0488C37.5137 10.0488 36.6055 10.4883 36.1836 11.0801H36.1133L36.4238 8.07422H41.668V6H34.332L33.7637 12.3281L36.0195 12.7324C36.3887 12.2344 37.1035 11.9238 37.8125 11.9238C39.0195 11.9297 39.8867 12.8027 39.8867 14.0625C39.8867 15.3105 39.0371 16.1719 37.8477 16.1719C36.8398 16.1719 36.0254 15.5391 35.9668 14.6074H33.5059C33.5527 16.6816 35.3633 18.1641 37.8477 18.1641Z" fill="#0187D4"/>
<path d="M3 1H45V-1H3V1ZM47 3V21H49V3H47ZM45 23H3V25H45V23ZM1 21V3H-1V21H1ZM3 23C1.89543 23 1 22.1046 1 21H-1C-1 23.2091 0.790861 25 3 25V23ZM47 21C47 22.1046 46.1046 23 45 23V25C47.2091 25 49 23.2091 49 21H47ZM45 1C46.1046 1 47 1.89543 47 3H49C49 0.790861 47.2091 -1 45 -1V1ZM3 -1C0.790861 -1 -1 0.790861 -1 3H1C1 1.89543 1.89543 1 3 1V-1Z" fill="#0187D4" fill-opacity="0.3"/>
</svg>
