<svg id="Layer_1" data-name="Layer 1" xmlns="http://www.w3.org/2000/svg" viewBox="0 0 107.31 105.48"><defs><style>.cls-1{fill:#e58613;}.cls-2{fill:#fff;}.cls-3{fill:none;}.cls-4{fill:#678925;}.cls-5{fill:#2f6fa8;}.cls-6{fill:#c1a840;}</style></defs><title>mt4_icon</title><circle class="cls-1" cx="53.63" cy="60.44" r="26.08"/><circle class="cls-2" cx="53.63" cy="60.44" r="20.77"/><path d="M1307.07,554.75H1304v5.32h-5.29v-5.32h-10.62V551l10.91-16.6h5v16.16h3.09Zm-8.38-4.22v-5c0-.29,0-.61,0-1s0-.73,0-1.12,0-.76.06-1.11,0-.66,0-.92,0-.46,0-.57h-.15q-.32.74-.72,1.56a16.78,16.78,0,0,1-.9,1.65l-4.29,6.51Z" transform="translate(-1245.51 -487.26)"/><path class="cls-3" d="M1263.36,546.38a39.1,39.1,0,0,1,6.75-1.8,28.44,28.44,0,0,1,1.33-6C1268.5,540,1263.24,544.48,1263.36,546.38Z" transform="translate(-1245.51 -487.26)"/><path class="cls-3" d="M1316.42,578.5a36.46,36.46,0,0,1-4.39-4.34,29.15,29.15,0,0,1-5.19,2C1309.9,577.78,1315,579.41,1316.42,578.5Z" transform="translate(-1245.51 -487.26)"/><path class="cls-3" d="M1317.73,517.26a38.17,38.17,0,0,1-1.8,6.68,29.58,29.58,0,0,1,4.52,3.91C1320.63,524.51,1319.38,518.09,1317.73,517.26Z" transform="translate(-1245.51 -487.26)"/><ellipse class="cls-4" cx="53.73" cy="13" rx="10.5" ry="13"/><path class="cls-4" d="M1315.93,523.94a38.17,38.17,0,0,0,1.8-6.68c1.65.83,2.9,7.25,2.72,10.59a29.15,29.15,0,0,1,7.92,18.6c3.44-5.22,13.5-41.58-16.87-50.51,1.65,17.85-10.53,19.87-12,19.9s-14.62-1.63-12.82-19.58c-20,4.27-21.69,22.64-21.12,29.39,2.74-1.95,8.75-3.93,14.12-4.39a9.78,9.78,0,0,1,2-4c.06,1.6.11,2.5.14,3.81,1-.12,3.53-.39,6.89-.51a29.24,29.24,0,0,1,27.17,3.38Z" transform="translate(-1245.51 -487.26)"/><ellipse class="cls-5" cx="1340.4" cy="570.98" rx="10.5" ry="13" transform="translate(-1069.98 958.79) rotate(-59.99)"/><path class="cls-5" d="M1326.74,563.46c.73-1.3,8.73-11.84,23.37-1.3,6.32-19.47-8.75-30.11-14.88-33,.32,3.35-1,9.54-3.26,14.42a9.88,9.88,0,0,1,2.46,3.73c-1.41-.74-2.22-1.16-3.36-1.78-.37.88-1.39,3.14-2.9,6A29.26,29.26,0,0,1,1312,574.16a36.46,36.46,0,0,0,4.39,4.34c-1.38.91-6.52-.72-9.58-2.39a29.23,29.23,0,0,1-20.3-1.83c5.13,7.36,29.86,30.06,51.47,9.49C1321.73,576.27,1326.07,564.71,1326.74,563.46Z" transform="translate(-1245.51 -487.26)"/><path class="cls-6" d="M1269.18,564.4c-2.91-5-10.3-6.17-16.52-2.57s-8.89,10.59-6,15.6,10.3,6.17,16.51,2.57S1272.08,569.41,1269.18,564.4Z" transform="translate(-1245.51 -487.26)"/><path class="cls-6" d="M1269.92,547.89a30.17,30.17,0,0,1,.19-3.31,39.1,39.1,0,0,0-6.75,1.8c-.12-1.9,5.14-6.41,8.08-7.79a29.28,29.28,0,0,1,8.12-12.4,24.58,24.58,0,0,1,4.28-3.57c-4.1-1.09-43.57,8-35.8,39.85,14.61-10.37,22.47-.85,23.21.36s5.91,13.47-10.52,20.91c13.73,15.18,30.47,7.42,36,3.54-3.06-1.4-7.79-5.61-10.87-10a9.79,9.79,0,0,1-4.47.27c1.35-.85,2.11-1.34,3.22-2-.47-.63-1.53-2.09-2.86-4.11A29.2,29.2,0,0,1,1269.92,547.89Z" transform="translate(-1245.51 -487.26)"/></svg>