<svg id="Layer_1" data-name="Layer 1" xmlns="http://www.w3.org/2000/svg" viewBox="0 0 107.31 105.48"><defs><style>.cls-1{fill:#e58613;}.cls-2{fill:#fff;}.cls-3{fill:none;}.cls-4{fill:#678925;}.cls-5{fill:#2f6fa8;}.cls-6{fill:#c1a840;}</style></defs><title>mt5_icon</title><circle class="cls-1" cx="53.63" cy="60.44" r="26.08"/><circle class="cls-2" cx="53.63" cy="60.44" r="20.77"/><path d="M1423.75,543.91a9,9,0,0,1,3.07.51,6.85,6.85,0,0,1,2.48,1.49,6.63,6.63,0,0,1,1.65,2.45,8.85,8.85,0,0,1,.6,3.37,10.11,10.11,0,0,1-.65,3.75,7.28,7.28,0,0,1-1.91,2.81,8.66,8.66,0,0,1-3.14,1.77,13.78,13.78,0,0,1-4.3.61c-.64,0-1.28,0-1.92-.08s-1.24-.15-1.82-.26a11.71,11.71,0,0,1-1.65-.43,8.31,8.31,0,0,1-1.41-.61v-4.7a9,9,0,0,0,1.42.66,15,15,0,0,0,1.68.53,17.47,17.47,0,0,0,1.75.35,10.9,10.9,0,0,0,1.67.13,5.66,5.66,0,0,0,3.58-1,3.74,3.74,0,0,0,1.24-3.11,3.56,3.56,0,0,0-1.21-2.89,5.78,5.78,0,0,0-3.72-1c-.3,0-.63,0-1,.05s-.69.08-1,.14-.66.12-1,.19a7.52,7.52,0,0,0-.79.2l-2.16-1.16,1-13.1h13.57v4.61h-8.86l-.42,5c.38-.08.81-.16,1.31-.24A12.6,12.6,0,0,1,1423.75,543.91Z" transform="translate(-1369.22 -487.26)"/><path class="cls-3" d="M1387.07,546.38a39.1,39.1,0,0,1,6.75-1.8,28.44,28.44,0,0,1,1.33-6C1392.21,540,1387,544.48,1387.07,546.38Z" transform="translate(-1369.22 -487.26)"/><path class="cls-3" d="M1440.13,578.5a36.46,36.46,0,0,1-4.39-4.34,29,29,0,0,1-5.2,2C1433.61,577.78,1438.75,579.41,1440.13,578.5Z" transform="translate(-1369.22 -487.26)"/><path class="cls-3" d="M1441.44,517.26a38.17,38.17,0,0,1-1.8,6.68,29.58,29.58,0,0,1,4.52,3.91C1444.34,524.51,1443.09,518.09,1441.44,517.26Z" transform="translate(-1369.22 -487.26)"/><ellipse class="cls-4" cx="53.73" cy="13" rx="10.5" ry="13"/><path class="cls-4" d="M1439.64,523.94a38.17,38.17,0,0,0,1.8-6.68c1.65.83,2.9,7.25,2.72,10.59a29.15,29.15,0,0,1,7.92,18.6c3.44-5.22,13.5-41.58-16.88-50.51,1.65,17.85-10.53,19.87-11.94,19.9s-14.62-1.63-12.82-19.58c-20,4.27-21.69,22.64-21.12,29.39,2.74-1.95,8.75-3.93,14.12-4.39a9.78,9.78,0,0,1,2-4c.06,1.6.11,2.5.14,3.81,1-.12,3.53-.39,6.89-.51a29.24,29.24,0,0,1,27.17,3.38Z" transform="translate(-1369.22 -487.26)"/><ellipse class="cls-5" cx="1464.11" cy="570.98" rx="10.5" ry="13" transform="translate(-1131.86 1065.91) rotate(-59.99)"/><path class="cls-5" d="M1450.45,563.46c.73-1.3,8.73-11.84,23.37-1.3,6.32-19.47-8.75-30.11-14.88-33,.31,3.35-1,9.54-3.27,14.42a9.88,9.88,0,0,1,2.47,3.73c-1.41-.74-2.22-1.16-3.37-1.78-.37.88-1.38,3.14-2.89,6a29.26,29.26,0,0,1-16.14,22.62,36.46,36.46,0,0,0,4.39,4.34c-1.38.91-6.52-.72-9.59-2.39a29.2,29.2,0,0,1-20.29-1.83c5.13,7.36,29.86,30.06,51.47,9.49C1445.44,576.27,1449.78,564.71,1450.45,563.46Z" transform="translate(-1369.22 -487.26)"/><path class="cls-6" d="M1392.89,564.4c-2.91-5-10.3-6.17-16.52-2.57s-8.89,10.59-6,15.6,10.3,6.17,16.51,2.57S1395.79,569.41,1392.89,564.4Z" transform="translate(-1369.22 -487.26)"/><path class="cls-6" d="M1393.63,547.89a30.17,30.17,0,0,1,.19-3.31,39.1,39.1,0,0,0-6.75,1.8c-.12-1.9,5.14-6.41,8.08-7.79a29.28,29.28,0,0,1,8.12-12.4,24.58,24.58,0,0,1,4.28-3.57c-4.1-1.09-43.57,8-35.81,39.85,14.62-10.37,22.48-.85,23.22.36s5.91,13.47-10.52,20.91c13.73,15.18,30.47,7.42,36,3.54-3.06-1.4-7.79-5.61-10.88-10a9.73,9.73,0,0,1-4.46.27c1.35-.85,2.11-1.34,3.22-2-.47-.63-1.54-2.09-2.86-4.11A29.2,29.2,0,0,1,1393.63,547.89Z" transform="translate(-1369.22 -487.26)"/></svg>