<svg xmlns="http://www.w3.org/2000/svg" viewBox="0 0 403.1566 375.1888"><title>p2-display-money</title><rect x="11.9791" y="15.9998" width="375" height="246" style="fill:#fff"/><path d="M0,309.3033Q0,292.44,0,275.5761l.8621-.9441c1.565.054,3.13.1553,4.6951.1554q196.0208.0109,392.0415,0c1.5651,0,3.13-.1009,4.6952-.1548l.8626.9435v33.7271a1.667,1.667,0,0,0-1.4712,1.0649c-3.9735,9.9084-8.5994,13.0527-19.15,13.0531q-52.05.002-104.1.0023H124.721q-52.8327-.0011-105.6655-.0072c-8.6118-.0031-14.681-4.27-17.4233-12.2865C1.3108,310.19,1.1383,309.39,0,309.3033Zm210.7226-10.1945a9.1455,9.1455,0,1,0-9.2439,9.1455A9.2567,9.2567,0,0,0,210.7226,299.1087Z" style="fill:#f1f1f1"/><path d="M.8621,274.632Q.8657,147.4346.84,20.2371C.8368,14.2153,2.11,8.8715,6.85,4.7446c3.675-3.2,8.0445-4.1159,12.7268-4.1162Q29.7684.6277,39.96.65q.01,12.0973.0212,24.195a64.1615,64.1615,0,0,1-7.4432-.0607c-3.8518-.4562-5.0277.7095-5.0194,4.8318q.22,108.0234.1158,216.0475c.0012,5.5961-.6971,4.89,5.0913,4.891q100.77.0243,201.54.01,68.6177,0,137.2354.0132c2.2875.0009,4.12.3322,4.1151-3.2391q-.166-109.592-.0315-219.1843c.0022-2.5326-.6268-3.3839-3.2568-3.3694-20.5191.1132-41.0389.0878-61.5585.1051-2.98-3.0135-4.1544-7.0652-6.0062-10.7033-2.2664-4.4527-5.0465-8.68-6.4418-13.5509Q342.0436.63,385.7663.63c11.7924.0059,16.52,4.8293,16.52,16.7637q.0058,128.6193.0076,257.2386c-1.5651.0538-3.13.1547-4.6952.1548q-196.0208.0109-392.0415,0C3.9922,274.7873,2.4272,274.6861.8621,274.632Z" style="fill:#a2abaf"/><path d="M278.4355,323.4236q-.0313,6.2461-.0622,12.4925-76.7945,0-153.59,0-.0313-6.2461-.0626-12.4923Z" style="fill:#acb3b9"/><path d="M210.7226,299.1087a9.1455,9.1455,0,1,1-9.24-9.1465A9.2729,9.2729,0,0,1,210.7226,299.1087Z" style="fill:#ccd5df"/><path d="M278.419,354.7917c6.242.2548,12.48-.3168,18.7384.7018,8.0018,1.3023,14.4184,9.3557,13.4541,17.5044-.1676,1.4159-.6486,2.1938-2.13,2.1747-.7839-.01-1.5682.0154-2.3523.0154q-104.89.0013-209.78-.0011c-4.8064,0-4.54.0182-3.9887-4.74,1.276-11.0059,9.0918-15.2358,19.0469-15.6187,4.4374-.1707,8.8867-.0338,13.33-.0364Z" style="fill:#f1f1f1"/><path d="M278.419,354.7917H124.7374q.023-9.4377.0459-18.8756h153.59Q278.3958,345.3536,278.419,354.7917Z" style="fill:#ccd5df"/><path d="M310.7688,24.8905c20.52-.0174,41.0394.0081,61.5585-.1051,2.63-.0145,3.259.8368,3.2568,3.3694q-.0958,109.5922.0315,219.1843c.0054,3.5712-1.8276,3.24-4.1151,3.2391q-68.6177-.0266-137.2354-.0132-100.77,0-201.54-.01c-5.7883-.0014-5.09.7051-5.0913-4.891Q27.6113,137.64,27.5182,29.6161c-.0084-4.1223,1.1676-5.288,5.0194-4.8318a64.1377,64.1377,0,0,0,7.4434.0606c.0421,6.1362.2336,12.2758.094,18.408-.2694,11.8383,7.7218,20.3248,19.8458,20.0717,21.1465-.4414,42.3091-.0837,63.4644-.1721a7.8459,7.8459,0,0,1,6.1835,2.567c6.7406,6.9236,13.61,13.7223,20.4689,20.53,1.0473,1.0394,1.879,2.433,3.79,2.9671,0-7.711.0418-15.1345-.0266-22.5571-.0193-2.1.3011-3.2938,2.8739-3.5462,11.5046-1.1287,17.3432-7.7915,17.3992-19.4721q.0451-9.4005.119-18.8009l70.518.1169a2.311,2.311,0,0,1-.2328.74C233.1573,40.3788,219.3944,52.6149,205.4086,64.62c-6.4685,5.5526-13.02,11.0089-19.5334,16.5089q-23.7493,11.9876-47.4963,23.98a17.6168,17.6168,0,0,0-4.4781,3.1138c-5.2336,5.129-5.9035,11.3278-4.4,18.075a12.8331,12.8331,0,0,0-7.68,18.2739c6.2158,12.505,12.6731,24.89,19.0222,37.3286a13.86,13.86,0,0,0,7.6568,6.9292c4.5173,1.704,9.2848.8936,11.6994-1.9388l.298.0355.2972-.0423c3.0736,4.3762,6.927,7.5368,12.3859,8.5461,3.6237.67,6.8456-.8643,10.253-1.3686,1.2589,1.6185,2.2843,3.4379,4.0065,4.658,10.0588,11.9717,20.1521,23.9148,30.1352,35.9493,1.3388,1.6139,2.3509,1.3757,3.9005.5458,8.2613-4.4248,16.5161-8.8681,24.8882-13.0759,2.557-1.2852,2.5343-2.5,1.3778-4.7686-6.6187-12.9847-13.107-26.0359-19.64-39.0644-.09-2.0879-1.8541-3.4395-2.3518-5.348.8988-2.2779,3.9466-1.9086,4.9692-4.034,4.9146.1651,9.4572-1.6229,14.0772-2.8436,22.2279-5.873,44.6378-10.784,67.6618-11.9874a162.6981,162.6981,0,0,1,42.9339,3.79c5.0294,5.5577,15.157,4.2917,17.4241-3.5272,1.0056-3.4682-.207-6.4329-1.6782-9.3473q-13.7646-27.2666-27.6053-54.4949c-.7616-1.504-1.7381-2.9371-1.8215-4.7095,8.6779-11.0083,10.992-23.0163,4.3638-35.6651-6.5567-12.5124-17.5395-17.96-31.5446-17.5175A19.8541,19.8541,0,0,1,310.7688,24.8905Z" style="fill:#fefefe"/><path d="M174.1927,24.84q.0089-12.093.0179-24.1858Q215.4071.641,256.6037.62c1.4266-.001,2.8531-.1093,4.28-.1675.0826.374.3609.86.22,1.1056-4.7658,8.2868-9.5771,16.5466-16.3923,23.3985Z" style="fill:#a2abaf"/><path d="M160.199,186.8906a.7807.7807,0,0,1-.2061-.7185q.4007.3565.8014.7124l-.2972.0416Z" style="fill:#ccd5df"/><path d="M156.069,178.3544c-1.4455-1.59-2.1007-3.6117-2.9991-5.5C155.4634,173.9277,155.8539,176.0932,156.069,178.3544Z" style="fill:#ccd5df"/><path d="M156.8611,179.8986a1.6809,1.6809,0,0,1-.8209-1.5812C156.832,178.5754,156.8748,179.2223,156.8611,179.8986Z" style="fill:#ccd5df"/><path d="M157.644,181.4664a1.5932,1.5932,0,0,1-.79-1.5782C157.61,180.1678,157.6636,180.7987,157.644,181.4664Z" style="fill:#ccd5df"/><path d="M158.4268,183.0336a1.5824,1.5824,0,0,1-.7883-1.575C158.402,181.733,158.452,182.3645,158.4268,183.0336Z" style="fill:#ccd5df"/><path d="M159.21,184.6016a1.5743,1.5743,0,0,1-.7866-1.5724C159.1945,183.2987,159.2391,183.9318,159.21,184.6016Z" style="fill:#ccd5df"/><path d="M159.9932,186.169a1.5649,1.5649,0,0,1-.7855-1.57C159.9847,184.8647,160.0263,185.4981,159.9932,186.169Z" style="fill:#ccd5df"/><line x1="29.9791" y1="11.9998" x2="189.9791" y2="12.9998" style="fill:none;stroke:#a2abaf;stroke-miterlimit:10;stroke-width:24px"/><line x1="194.9791" y1="11.9998" x2="354.9791" y2="12.9998" style="fill:none;stroke:#a2abaf;stroke-miterlimit:10;stroke-width:24px"/><rect x="104.9296" y="95.7104" width="164.4909" height="80.1866" transform="translate(374.3501 271.6074) rotate(180)" style="fill:#8bcb0a"/><path d="M113.0329,103.5679v64.4715H261.3173V103.5679Zm127.76,56.4126H199.1914c6.5977-4.8354,10.9788-13.7548,10.9788-23.7171,0-10.5959-4.9494-19.8012-12.2589-24.6365h42.8819c0,6.4471,6.018,14.6176,12.4651,14.6176v23.64C246.8112,149.8844,240.7932,153.5333,240.7932,159.9805Zm-119.7014-33.736c6.4472,0,12.2491-8.1705,12.2491-14.6176H174.7c-7.3093,4.8353-12.259,14.0406-12.259,24.6365,0,9.9623,4.381,18.8817,10.9789,23.7171H133.3409c0-6.4472-5.8019-10.0961-12.2491-10.0961Z" style="fill:#419b19"/><path d="M194.8768,128.3366a5.4448,5.4448,0,0,0-1.0342-.8381,11.8848,11.8848,0,0,0-1.5787-.858,12.9732,12.9732,0,0,0-1.9691-.7011,11.3473,11.3473,0,0,0-2.2037-.3707v8.0707l.7415.1558a34.4751,34.4751,0,0,1,3.8012,1.131,10.8521,10.8521,0,0,1,2.8662,1.52,6.2108,6.2108,0,0,1,1.8133,2.2029,7.1543,7.1543,0,0,1,.6421,3.1779,7.75,7.75,0,0,1-.74,3.529,6.8841,6.8841,0,0,1-2.0478,2.4366,9.1728,9.1728,0,0,1-3.0409,1.4622,14.7824,14.7824,0,0,1-3.7226.5265v4.094h-2.0289v-4.172a19.6424,19.6424,0,0,1-5.34-1.1111,16.8212,16.8212,0,0,1-4.64-2.5539l1.988-3.7431a6.9072,6.9072,0,0,0,1.2482,1.0137,14.1022,14.1022,0,0,0,1.9108,1.0523,17.6353,17.6353,0,0,0,2.3971.8971,15.34,15.34,0,0,0,2.7106.5455v-8.0707c-.1559-.0521-.32-.0977-.4881-.1362s-.33-.0842-.4862-.137a32.9559,32.9559,0,0,1-3.6077-1.15,9.0168,9.0168,0,0,1-2.5531-1.4624,5.7266,5.7266,0,0,1-1.5408-2.0076,6.6668,6.6668,0,0,1-.5258-2.7884,8.2239,8.2239,0,0,1,.6626-3.3919,7.4415,7.4415,0,0,1,1.8714-2.5538,8.9029,8.9029,0,0,1,2.8271-1.6765,13.1341,13.1341,0,0,1,3.5666-.76v-3.9382h2.0289V121.67a15.0025,15.0025,0,0,1,4.678,1.0137,16.9365,16.9365,0,0,1,3.7824,2.0666Zm-12.8676,1.0145a2.8181,2.8181,0,0,0,1.15,2.4562,11.1089,11.1089,0,0,0,3.49,1.4425v-7.6811a5.6537,5.6537,0,0,0-3.51,1.1113A3.3775,3.3775,0,0,0,182.0092,129.3511Zm11.2683,12.9445a2.886,2.886,0,0,0-1.3647-2.5932,14.626,14.626,0,0,0-3.8217-1.5785v7.72a7.1074,7.1074,0,0,0,3.8406-.9358A2.9427,2.9427,0,0,0,193.2775,142.2956Z" style="fill:#fff"/><circle cx="232.3031" cy="135.8036" r="6.2968" style="fill:#fff"/><circle cx="142.0469" cy="135.8036" r="6.2968" style="fill:#fff"/><rect x="129.5376" y="116.1026" width="164.491" height="80.1865" transform="translate(423.5662 312.3917) rotate(180)" style="fill:#8bcb0a"/><path d="M137.6409,123.96v64.4715H285.9253V123.96Zm127.76,56.4126H223.7994c6.5977-4.8354,10.9789-13.7549,10.9789-23.7172,0-10.5959-4.9495-19.8011-12.259-24.6365h42.882c0,6.4472,6.0179,14.6177,12.4651,14.6177v23.64C271.4192,170.2766,265.4013,173.9255,265.4013,180.3727ZM145.7,146.6367c6.4472,0,12.2491-8.1705,12.2491-14.6177h41.3588c-7.3093,4.8354-12.2589,14.0406-12.2589,24.6365,0,9.9623,4.381,18.8818,10.9788,23.7172H157.9489c0-6.4472-5.8019-10.0961-12.2491-10.0961Z" style="fill:#419b19"/><path d="M219.4848,148.7288a5.4468,5.4468,0,0,0-1.0341-.8382,11.898,11.898,0,0,0-1.5788-.8579,12.9624,12.9624,0,0,0-1.9691-.7011,11.3465,11.3465,0,0,0-2.2036-.3708v8.0707l.7414.1559a34.4751,34.4751,0,0,1,3.8012,1.131,10.8515,10.8515,0,0,1,2.8663,1.52,6.2113,6.2113,0,0,1,1.8132,2.2028,7.1547,7.1547,0,0,1,.6422,3.178,7.7484,7.7484,0,0,1-.74,3.529,6.8845,6.8845,0,0,1-2.0477,2.4365,9.1713,9.1713,0,0,1-3.041,1.4622,14.7817,14.7817,0,0,1-3.7226.5266v4.094h-2.0289v-4.172a19.6471,19.6471,0,0,1-5.34-1.1112,16.8223,16.8223,0,0,1-4.64-2.5538l1.988-3.7431a6.9151,6.9151,0,0,0,1.2482,1.0137,14.1253,14.1253,0,0,0,1.9108,1.0523,17.6318,17.6318,0,0,0,2.3972.8971,15.3281,15.3281,0,0,0,2.71.5454v-8.0707c-.1558-.052-.32-.0976-.488-.1362s-.3305-.0841-.4863-.137a32.9642,32.9642,0,0,1-3.6077-1.15,9.0148,9.0148,0,0,1-2.553-1.4624,5.7275,5.7275,0,0,1-1.5409-2.0077,6.6663,6.6663,0,0,1-.5258-2.7883,8.2253,8.2253,0,0,1,.6626-3.3919,7.4408,7.4408,0,0,1,1.8715-2.5539,8.9051,8.9051,0,0,1,2.827-1.6764,13.1349,13.1349,0,0,1,3.5666-.76v-3.9382h2.0289v3.9382a15.0065,15.0065,0,0,1,4.6781,1.0136,16.9452,16.9452,0,0,1,3.7824,2.0667Zm-12.8676,1.0144a2.8182,2.8182,0,0,0,1.15,2.4562,11.1064,11.1064,0,0,0,3.49,1.4426v-7.6812a5.654,5.654,0,0,0-3.51,1.1114A3.3772,3.3772,0,0,0,206.6172,149.7432Zm11.2684,12.9446a2.8862,2.8862,0,0,0-1.3647-2.5932,14.6287,14.6287,0,0,0-3.8217-1.5786v7.72a7.1079,7.1079,0,0,0,3.84-.9358A2.9429,2.9429,0,0,0,217.8856,162.6878Z" style="fill:#fff"/><circle cx="256.9112" cy="156.1958" r="6.2969" style="fill:#fff"/><circle cx="166.655" cy="156.1958" r="6.2968" style="fill:#fff"/></svg>