<svg id="Front_Coins" data-name="Front Coins" xmlns="http://www.w3.org/2000/svg" viewBox="0 0 403.16 375.19"><title>p2-display-fbs</title><rect x="11.98" y="16" width="375" height="246" style="fill:#fff"/><path d="M479.24-101.63q0-16.86,0-33.73l.86-.94c1.57.05,3.13.16,4.7.16h392c1.57,0,3.13-.1,4.7-.15l.86.94v33.73a1.67,1.67,0,0,0-1.47,1.06c-4,9.91-8.6,13.05-19.15,13.05H604q-52.83,0-105.67,0c-8.61,0-14.68-4.27-17.42-12.29C480.55-100.74,480.37-101.54,479.24-101.63ZM690-111.82a9.26,9.26,0,0,0-9.24-9.15,9.24,9.24,0,0,0-9,8.95,9.28,9.28,0,0,0,9,9.34A9.27,9.27,0,0,0,690-111.82Z" transform="translate(-479.24 410.93)" style="fill:#f1f1f1"/><path d="M480.1-136.3q0-127.2,0-254.39c0-6,1.27-11.37,6-15.49,3.68-3.2,8-4.12,12.73-4.12l20.38,0q0,12.1,0,24.19a64.16,64.16,0,0,1-7.44-.06c-3.85-.46-5,.71-5,4.83q.22,108,.12,216c0,5.6-.7,4.89,5.09,4.89q100.77,0,201.54,0,68.62,0,137.24,0c2.29,0,4.12.33,4.12-3.24q-.17-109.59,0-219.18c0-2.53-.63-3.38-3.26-3.37-20.52.11-41,.09-61.56.11-3-3-4.15-7.07-6-10.7-2.27-4.45-5-8.68-6.44-13.55q43.72,0,87.45,0c11.79,0,16.52,4.83,16.52,16.76q0,128.62,0,257.24c-1.57.05-3.13.15-4.7.15h-392C483.23-136.14,481.66-136.24,480.1-136.3Z" transform="translate(-479.24 410.93)" style="fill:#a2abaf"/><path d="M757.67-87.51q0,6.25-.06,12.49H604L604-87.51Z" transform="translate(-479.24 410.93)" style="fill:#acb3b9"/><path d="M690-111.82a9.27,9.27,0,0,1-9.24,9.15,9.28,9.28,0,0,1-9-9.34,9.24,9.24,0,0,1,9-8.95A9.26,9.26,0,0,1,690-111.82Z" transform="translate(-479.24 410.93)" style="fill:#ccd5df"/><path d="M757.65-56.14c6.24.25,12.48-.32,18.74.7,8,1.3,14.42,9.36,13.45,17.5-.17,1.42-.65,2.19-2.13,2.17-.78,0-1.57,0-2.35,0H575.58c-4.81,0-4.54,0-4-4.74,1.28-11,9.09-15.24,19-15.62,4.44-.17,8.89,0,13.33,0Z" transform="translate(-479.24 410.93)" style="fill:#f1f1f1"/><path d="M757.65-56.14H604q0-9.44,0-18.88H757.61Q757.63-65.58,757.65-56.14Z" transform="translate(-479.24 410.93)" style="fill:#ccd5df"/><path d="M790-386c20.52,0,41,0,61.56-.11,2.63,0,3.26.84,3.26,3.37q-.1,109.59,0,219.18c0,3.57-1.83,3.24-4.12,3.24q-68.62,0-137.24,0-100.77,0-201.54,0c-5.79,0-5.09.71-5.09-4.89q0-108-.12-216c0-4.12,1.17-5.29,5-4.83a64.14,64.14,0,0,0,7.44.06c0,6.14.23,12.28.09,18.41-.27,11.84,7.72,20.32,19.85,20.07,21.15-.44,42.31-.08,63.46-.17a7.85,7.85,0,0,1,6.18,2.57c6.74,6.92,13.61,13.72,20.47,20.53,1,1,1.88,2.43,3.79,3,0-7.71,0-15.13,0-22.56,0-2.1.3-3.29,2.87-3.55,11.5-1.13,17.34-7.79,17.4-19.47q0-9.4.12-18.8l70.52.12a2.31,2.31,0,0,1-.23.74c-11.32,14.68-25.08,26.92-39.07,38.92-6.47,5.55-13,11-19.53,16.51l-47.5,24a17.62,17.62,0,0,0-4.48,3.11c-5.23,5.13-5.9,11.33-4.4,18.07a12.83,12.83,0,0,0-7.68,18.27c6.22,12.5,12.67,24.89,19,37.33a13.86,13.86,0,0,0,7.66,6.93c4.52,1.7,9.28.89,11.7-1.94l.3,0,.3,0c3.07,4.38,6.93,7.54,12.39,8.55,3.62.67,6.85-.86,10.25-1.37,1.26,1.62,2.28,3.44,4,4.66,10.06,12,20.15,23.91,30.14,35.95,1.34,1.61,2.35,1.38,3.9.55,8.26-4.42,16.52-8.87,24.89-13.08,2.56-1.29,2.53-2.5,1.38-4.77-6.62-13-13.11-26-19.64-39.06-.09-2.09-1.85-3.44-2.35-5.35.9-2.28,3.95-1.91,5-4,4.91.17,9.46-1.62,14.08-2.84,22.23-5.87,44.64-10.78,67.66-12A162.7,162.7,0,0,1,834.63-253c5,5.56,15.16,4.29,17.42-3.53,1-3.47-.21-6.43-1.68-9.35q-13.76-27.27-27.61-54.49c-.76-1.5-1.74-2.94-1.82-4.71,8.68-11,11-23,4.36-35.67s-17.54-18-31.54-17.52A19.85,19.85,0,0,1,790-386Z" transform="translate(-479.24 410.93)" style="fill:#fefefe"/><path d="M653.43-386.09q0-12.09,0-24.19l82.39,0c1.43,0,2.85-.11,4.28-.17.08.37.36.86.22,1.11-4.77,8.29-9.58,16.55-16.39,23.4Z" transform="translate(-479.24 410.93)" style="fill:#a2abaf"/><path d="M639.43-224a.78.78,0,0,1-.21-.72l.8.71-.3,0Z" transform="translate(-479.24 410.93)" style="fill:#ccd5df"/><line x1="29.98" y1="12" x2="189.98" y2="13" style="fill:none;stroke:#a2abaf;stroke-miterlimit:10;stroke-width:24px"/><line x1="194.98" y1="12" x2="354.98" y2="13" style="fill:none;stroke:#a2abaf;stroke-miterlimit:10;stroke-width:24px"/><path d="M666.49-293.86c-.57-4,.76-5.93-.09-9.65a38.49,38.49,0,0,0-1.37-3.75l.32.4s7.52-4.16,2.72-8.33c-3.54-3.07-5.86-1.34-7.19.79-7.13-9.13-17.16-10.48-21.09-10.75-10.81-1.06-17.51,3.84-28.61,14.62-17.59,3-26.49,9.32-38,27.23-8.45,3.37-12.19,6.67-17.72,12.74a30.61,30.61,0,0,0-6.18,11.61l-.08-.18c-.19,1.1-6.13,5-6.7,8.25-.34,1.93,2.92,2.53,5.74,2.34.16,3.72.74,7.25,1.13,10.53-2.6,8.52-3.31,12.3-3.31,12.3s-1.78,3.13,2.34,7.69c3.91,4.32,5.61,7.81,9.2,8.35a34.06,34.06,0,0,0,10.6,0,20.26,20.26,0,0,1,4.23,0s0-2.33-3.31-6a62.9,62.9,0,0,0-6-5.86,42.52,42.52,0,0,0,10.3-3c5-1.27,11.37-4.79,16-14,1.43-2.86,3.19-3.06,5.23-2.69a5.28,5.28,0,0,0-.43.72c-5.81,12.29-12.41,16-16.87,17a21.29,21.29,0,0,0,.46,4.15,11.76,11.76,0,0,0,8.74,5.69,84.65,84.65,0,0,0,11.46.1c3.39-.13,3.39,0,3.39,0,.64-7.42-5.17-8.48-7.84-10.64-1.83-1.48,3.73-6,5.86-16.18a7.68,7.68,0,0,0,4-.79c-4.94-3.74-9.43-7.29-12.28-10.36a19.25,19.25,0,0,1-4.46-16.91c.54-2.16,1.54-2.3,2.23-2.09-1.3,16.32,9.87,19,22,30.38,1.33,1.25,3,9.54,4.35,14.88.63,2.45,2.31,6.84,12.48,9.39,4.8,1.2,9.37-.77,12.15-1.26,2.73,1.71,3.77,1.06,3.77,1.06s.67-10-6.68-14.71c-4.66-3-2.62-12-5-15.4a155.41,155.41,0,0,1-8.86-15.46c4.48-4,3.89-7.8,4.07-10.8.16-2.78,1.84-.1,2.36,1.85,1,3.94-.42,7.73-1.91,10.31.78.35,19.41,5.47,19.42,5.68s-1.77.85-3.46,2.45a6.19,6.19,0,0,0-4,2.12c0,.29.38.53,1.57,1.73A9.64,9.64,0,0,0,642.69-236c4,2.09,14.22-1.45,21.54-7.56,5-4.15,3-13.07.49-16.17-1.08-3.11-20.55-15.07-25.13-17.85,2.62-1.78,6-1.94,10.51.69,2.23,1.29,5.19,6.4,5.23,6.41,8,2,10.88-3.17,10.88-3.17s6.5-2.12,6.64-7.17C672.85-280.83,675-281.76,666.49-293.86ZM640-305c-1,.91-1.56-2.6,1.87-4.59-6.61-4.86-1.11-7.57.21-7,6.32,2.85,6.71,8.1,6.71,8.1S643.48-308.1,640-305Zm10.06,9.83a4.45,4.45,0,0,1-.42-6.28l6.7,5.86A4.45,4.45,0,0,1,650.06-295.2Zm19.18,12.43a3.87,3.87,0,0,0-3.6.21c-1.45.85-1.27,7.63-1.27,7.63s-3.53,3.28-6.78,1.59c-2.86-1.49-4.34-4.42-4.34-5.72a17.57,17.57,0,0,1,2.08-8c4-7.91,7.91-5.42,7.91-5.42,1.5.08,3.78,3.15,6.43,8.24C670-283.64,669.75-282.57,669.24-282.77Z" transform="translate(-479.24 410.93)" style="fill:#a2abaf"/><path d="M727.89-244.41l.07.15.12-.13Z" transform="translate(-479.24 410.93)" style="fill:#a2abaf"/><path d="M812.37-286c-2.82-2.56-7.06-4.1-12.67-4.09h-.36c-8.18,0-12.27-.78-14.23-1.63l-.46-.22c-1.73-1.35-2.41-3.73-1.26-5.28,2.52-3.41,3.17-6,.55-10.58-2.18-3.79-5.53-4.75-9.56-4-3.55.65-4.26,2.67-4.26,2.67,6.56-.85,6.44,3.18,6.64,6,.12,1.79-1.22,9.67,3.14,13l.2.23a9.08,9.08,0,0,0,2.29,1.75,18.37,18.37,0,0,0,6,1.82,72.56,72.56,0,0,0,10.95.66h.36c4.85,0,7.9,1.3,9.74,3a8,8,0,0,1,2.64,6.07,9.2,9.2,0,0,1-2,5.79,6.38,6.38,0,0,1-5,2.44,10.45,10.45,0,0,1-6.22-2.53c-5.58-9.18-20.61-11.14-27.22-20.31-10.51-23.24-23.24-27.48-31.62-28.85-7.76-1.27-21.31-2.75-35.68,11.14a23.42,23.42,0,0,0-5.39-3.85c-9.15-4.95-9.5-14.82-9.5-14.82-3.42,5.16-3.22,14.47,7.12,22.41,7,5.37,5.27,8.62,5.27,8.62,2.07,1.59,5.75,1,6.68.52a5.34,5.34,0,0,0,2.59-3c1,0,.44,3.81-2.42,5.25-.95.48-7,2.17-9.46-2.25,0,0,1.41-2.64-4.22-7.41-.61.46-1.19,1-1.77,1.47a34.33,34.33,0,0,0-3.11-1.76,15.64,15.64,0,0,1-8.39-12.12c-2.71,4.42-2.26,12.21,6.63,18.55l.49.37c-3,4.61-4.07,9.63.74,12.83,0,0,1.48-7.14,2-7.07s1.82,3.5,2.29,3.5,2-3.62,2.29-3-.27,4.65-1.28,6.74c-.24.49-2.71-2.62-2.71-2.62s-2.19,12.22-3.76,17.38c-.09.29-.19.58-.3.87a.93.93,0,0,0-.12.09c-5.67,6-.34,9.37-.34,9.37,1.28,3.3,6,3.52,7.06,3.57,4.34.18,5.16-.77,8-4.87.07-.1,15-1.75,16.8-12.66,0-.28,3.11,1.92,5.33,5.15.94-1.35,1.65-3.4,1.72-7a.61.61,0,0,1,1-.61c1.36,1.42,1.94,3.82,1.29,6.87s-2,6.22-4.18,10.85-1.72,8.8,1.87,10.62c2.63,1.34,9.6,3.84,14.33,4.24l-.08.16c11.32,2.68,9.8-4.87,8.21-7.78s-3.78-4.2-5.53-3.54c-.3.11-.64.21-1,.31,2.68,4.69.44,7.23.44,7.23-.94-7.33-4.38-6.47-4.38-6.47a5.94,5.94,0,0,1-3-.69c-.9-4.62,8.24-9,8.24-9a30.57,30.57,0,0,0,13.41-15.8c.75-2.13,2.05-.07,1.14,2.86-3.69,11.88-11.72,14.75-13.74,16.17,4,.85,10,4.17,14.38,8.57.87-5.33,5.56-10.09,5-5.43-.49,4.18-2.33,10.46,1.62,15.36,5.46,6.77,15.16,5.05,18.59,5.86,2.29.54-3.53,9.82-4.94,13.33a10.07,10.07,0,0,0-1.16,3.52l-.1,0c-1.34,11.55,6,9.16,8.68,7.24s3.73-4.24,2.87-5.91a18.54,18.54,0,0,1-1.08-2.82,13.22,13.22,0,0,1-5.59,1.3,10.24,10.24,0,0,0,5.66-3.84c1.81-3.6,5.22-8.45,6.84-11.54,1.55,1.7,1.6,8.54,2.52,11.7a10.06,10.06,0,0,0,1.25,3.49l-.1,0c6,9.94,10.34,3.56,11.3.39s.34-5.63-1.36-6.43a15.36,15.36,0,0,1-1.88-1.08,9.89,9.89,0,0,1-3.11,6,14.05,14.05,0,0,0,1.4-7.21l-.16-.12,0-.09c-2.56-7.74-.4-17.71-4.69-18.11a26.54,26.54,0,0,1-6.32,5.74c-2-1.81-1.26-2.68,2.25-7.26a19.43,19.43,0,0,0,1.62-2.14,14.14,14.14,0,0,0,2.88-7,21.17,21.17,0,0,0,.21-7.76c0-.45-.09-.87-.15-1.29a12.2,12.2,0,0,0,4.1.74,10.77,10.77,0,0,0,8.34-4,13.53,13.53,0,0,0,3-8.57A12.39,12.39,0,0,0,812.37-286ZM693.08-261c-1.63.25,1.51-2.41,0-2.85s-2.54,1.4-3.23,2.29c-.53.68-3.6-.78-.54-3.84s7-2.44,6.8.54C696-263.06,694.39-261.74,693.08-261Zm11.11-20.27a4.78,4.78,0,0,1-6.29,2.47l3.82-8.76A4.77,4.77,0,0,1,704.2-281.22Zm12.61-10.06c1,1.18,2.76,3.34,2.46,6.07-.1,1.62-1.32.77-1.41.3a11.31,11.31,0,0,0-7-7.58s2.82-6,12.23-4.19C723.09-296.69,721.43-291.93,716.81-291.29Z" transform="translate(-479.24 410.93)" style="fill:#a2abaf"/><path d="M732.48-240.88l.09-.12a28.77,28.77,0,0,1-3.54-1.3c-.13,4.38-1.89,4.31-1.89,4.31.81-3.37.29-4.54-.2-5.46a39.58,39.58,0,0,1-6.17-3.74c-2.72-2.13-1-7,1.49-11.26-4.52,3.7-11.12,10.08-8.34,13.89a44.34,44.34,0,0,0,9.68,9.15l-.12.1c7.92,6.7,9.75.08,9.66-2.88a8.44,8.44,0,0,0-.46-2.6Z" transform="translate(-479.24 410.93)" style="fill:#a2abaf"/></svg>