<svg id="Front_Coins" data-name="Front Coins" xmlns="http://www.w3.org/2000/svg" viewBox="0 0 403.16 375.19"><title>p2-display-1</title><rect x="11.98" y="16" width="375" height="246" style="fill:#fff"/><path d="M1033.24-106.63q0-16.86,0-33.73l.86-.94c1.57.05,3.13.16,4.7.16h392c1.57,0,3.13-.1,4.7-.15l.86.94v33.73a1.67,1.67,0,0,0-1.47,1.06c-4,9.91-8.6,13.05-19.15,13.05H1158q-52.83,0-105.67,0c-8.61,0-14.68-4.27-17.42-12.29C1034.55-105.74,1034.37-106.54,1033.24-106.63ZM1244-116.82a9.26,9.26,0,0,0-9.24-9.15,9.24,9.24,0,0,0-9,8.95,9.28,9.28,0,0,0,9,9.34A9.27,9.27,0,0,0,1244-116.82Z" transform="translate(-1033.24 415.93)" style="fill:#f1f1f1"/><path d="M1034.1-141.3q0-127.2,0-254.39c0-6,1.27-11.37,6-15.49,3.68-3.2,8-4.12,12.73-4.12l20.38,0q0,12.1,0,24.19a64.16,64.16,0,0,1-7.44-.06c-3.85-.46-5,.71-5,4.83q.22,108,.12,216c0,5.6-.7,4.89,5.09,4.89q100.77,0,201.54,0,68.62,0,137.24,0c2.29,0,4.12.33,4.12-3.24q-.17-109.59,0-219.18c0-2.53-.63-3.38-3.26-3.37-20.52.11-41,.09-61.56.11-3-3-4.15-7.07-6-10.7-2.27-4.45-5-8.68-6.44-13.55q43.72,0,87.45,0c11.79,0,16.52,4.83,16.52,16.76q0,128.62,0,257.24c-1.57.05-3.13.15-4.7.15h-392C1037.23-141.14,1035.66-141.24,1034.1-141.3Z" transform="translate(-1033.24 415.93)" style="fill:#a3abb0"/><path d="M1311.67-92.51q0,6.25-.06,12.49H1158L1158-92.51Z" transform="translate(-1033.24 415.93)" style="fill:#acb3b9"/><path d="M1244-116.82a9.27,9.27,0,0,1-9.24,9.15,9.28,9.28,0,0,1-9-9.34,9.24,9.24,0,0,1,9-8.95A9.26,9.26,0,0,1,1244-116.82Z" transform="translate(-1033.24 415.93)" style="fill:#ccd5df"/><path d="M1311.65-61.14c6.24.25,12.48-.32,18.74.7,8,1.3,14.42,9.36,13.45,17.5-.17,1.42-.65,2.19-2.13,2.17-.78,0-1.57,0-2.35,0H1129.58c-4.81,0-4.54,0-4-4.74,1.28-11,9.09-15.24,19-15.62,4.44-.17,8.89,0,13.33,0Z" transform="translate(-1033.24 415.93)" style="fill:#f1f1f1"/><path d="M1311.65-61.14H1158q0-9.44,0-18.88h153.59Q1311.63-70.58,1311.65-61.14Z" transform="translate(-1033.24 415.93)" style="fill:#ccd5df"/><path d="M1344-391c20.52,0,41,0,61.56-.11,2.63,0,3.26.84,3.26,3.37q-.1,109.59,0,219.18c0,3.57-1.83,3.24-4.12,3.24q-68.62,0-137.24,0-100.77,0-201.54,0c-5.79,0-5.09.71-5.09-4.89q0-108-.12-216c0-4.12,1.17-5.29,5-4.83a64.14,64.14,0,0,0,7.44.06c0,6.14.23,12.28.09,18.41-.27,11.84,7.72,20.32,19.85,20.07,21.15-.44,42.31-.08,63.46-.17a7.85,7.85,0,0,1,6.18,2.57c6.74,6.92,13.61,13.72,20.47,20.53,1,1,1.88,2.43,3.79,3,0-7.71,0-15.13,0-22.56,0-2.1.3-3.29,2.87-3.55,11.5-1.13,17.34-7.79,17.4-19.47q0-9.4.12-18.8l70.52.12a2.31,2.31,0,0,1-.23.74c-11.32,14.68-25.08,26.92-39.07,38.92-6.47,5.55-13,11-19.53,16.51l-47.5,24a17.62,17.62,0,0,0-4.48,3.11c-5.23,5.13-5.9,11.33-4.4,18.07a12.83,12.83,0,0,0-7.68,18.27c6.22,12.5,12.67,24.89,19,37.33a13.86,13.86,0,0,0,7.66,6.93c4.52,1.7,9.28.89,11.7-1.94l.3,0,.3,0c3.07,4.38,6.93,7.54,12.39,8.55,3.62.67,6.85-.86,10.25-1.37,1.26,1.62,2.28,3.44,4,4.66,10.06,12,20.15,23.91,30.14,35.95,1.34,1.61,2.35,1.38,3.9.55,8.26-4.42,16.52-8.87,24.89-13.08,2.56-1.29,2.53-2.5,1.38-4.77-6.62-13-13.11-26-19.64-39.06-.09-2.09-1.85-3.44-2.35-5.35.9-2.28,3.95-1.91,5-4,4.91.17,9.46-1.62,14.08-2.84,22.23-5.87,44.64-10.78,67.66-12a162.7,162.7,0,0,1,42.93,3.79c5,5.56,15.16,4.29,17.42-3.53,1-3.47-.21-6.43-1.68-9.35q-13.76-27.27-27.61-54.49c-.76-1.5-1.74-2.94-1.82-4.71,8.68-11,11-23,4.36-35.67s-17.54-18-31.54-17.52A19.85,19.85,0,0,1,1344-391Z" transform="translate(-1033.24 415.93)" style="fill:#fefefe"/><path d="M1207.43-391.09q0-12.09,0-24.19l82.39,0c1.43,0,2.85-.11,4.28-.17.08.37.36.86.22,1.11-4.77,8.29-9.58,16.55-16.39,23.4Z" transform="translate(-1033.24 415.93)" style="fill:#a3abb0"/><path d="M1193.43-229a.78.78,0,0,1-.21-.72l.8.71-.3,0Z" transform="translate(-1033.24 415.93)" style="fill:#ccd5df"/><path d="M1189.3-237.58c-1.45-1.59-2.1-3.61-3-5.5C1188.7-242,1189.09-239.84,1189.3-237.58Z" transform="translate(-1033.24 415.93)" style="fill:#ccd5df"/><path d="M1190.1-236a1.68,1.68,0,0,1-.82-1.58C1190.07-237.35,1190.11-236.71,1190.1-236Z" transform="translate(-1033.24 415.93)" style="fill:#ccd5df"/><path d="M1190.88-234.46a1.59,1.59,0,0,1-.79-1.58C1190.85-235.76,1190.9-235.13,1190.88-234.46Z" transform="translate(-1033.24 415.93)" style="fill:#ccd5df"/><path d="M1191.66-232.9a1.58,1.58,0,0,1-.79-1.58C1191.64-234.2,1191.69-233.56,1191.66-232.9Z" transform="translate(-1033.24 415.93)" style="fill:#ccd5df"/><path d="M1192.45-231.33a1.57,1.57,0,0,1-.79-1.57C1192.43-232.63,1192.47-232,1192.45-231.33Z" transform="translate(-1033.24 415.93)" style="fill:#ccd5df"/><path d="M1193.23-229.76a1.56,1.56,0,0,1-.79-1.57C1193.22-231.06,1193.26-230.43,1193.23-229.76Z" transform="translate(-1033.24 415.93)" style="fill:#ccd5df"/><line x1="29.98" y1="12" x2="189.98" y2="13" style="fill:none;stroke:#a3abb0;stroke-miterlimit:10;stroke-width:24px"/><line x1="194.98" y1="12" x2="354.98" y2="13" style="fill:none;stroke:#a3abb0;stroke-miterlimit:10;stroke-width:24px"/><path d="M1172.09-209.05a89.61,89.61,0,0,0,126.71,0,89.57,89.57,0,0,0,0-126.69,89.57,89.57,0,0,0-126.69,0A89.6,89.6,0,0,0,1172.09-209.05Zm78.44-44.08c-1.17-2.07-3.88-4.22-7.24-5.76l-3.8-1.74c-7.7-3.53-23.71-10.82-27-12.51a23.37,23.37,0,0,1-10.16-10.31c-4.74-9.3-2.42-20.62,5.76-28.17,4.85-4.51,11.68-7.55,19.39-8.81v-9a2.46,2.46,0,0,1,2.5-2.41h8.6a2.43,2.43,0,0,1,2.48,2.41v8.69a48.53,48.53,0,0,1,6.92,1.23c6.87,1.83,19.06,5.45,23,11.49,1.3,2,1.23,4.56-.18,7-1.63,2.79-7,7-10.44,4.34-13.25-10.23-23-8.74-25.8-8.74a20.26,20.26,0,0,0-13.18,4.51c-2.85,2.42-3.38,7.61-1.17,11.12,1.87,2.94,4.37,4,8.13,5.69l.71.3c1.54.62,6.72,2.76,10.23,4.34l1.77.69c10.77,4.28,25.56,10.11,29.27,20.65,3.37,9.6.23,20.3-8,27.31-4.72,4-12.33,6.55-21.27,7.16v8.07a2.42,2.42,0,0,1-2.48,2.39H1230a2.46,2.46,0,0,1-2.5-2.39v-8.63c-11.16-1.62-22.43-6.18-27.63-14.15-1.3-2-1.22-4.56.17-7,1.6-2.78,5.19-5.61,8.88-5.61a6.08,6.08,0,0,1,5.24,2.81,3.22,3.22,0,0,0,.44.59s.07.09.09.12l.19.19a13.07,13.07,0,0,0,1,.9,30,30,0,0,0,8.59,4.88,44.36,44.36,0,0,0,13.3,2.26c4.62,0,8.34-1,10.78-2.93A8.82,8.82,0,0,0,1250.53-253.13Z" transform="translate(-1033.24 415.93)" style="fill:#a3abb0"/></svg>