<svg xmlns="http://www.w3.org/2000/svg" xmlns:xlink="http://www.w3.org/1999/xlink" viewBox="0 0 242.3578 255.192"><defs><clipPath id="a"><rect x="0.0001" y="0.0004" width="242.358" height="255.192" style="fill:none"/></clipPath></defs><title>p2-men3</title><g style="clip-path:url(#a)"><path d="M217.3858,247.12c-22.902,3.384-45.892,5.904-69.017,7.181-2.904.16-5.899-.143-8.73.891h-7.476a16.6907,16.6907,0,0,0-8.97,0h-6.977a15.2348,15.2348,0,0,0-8.472,0h-6.977c-3.349-1.001-6.831-.746-10.244-.942-16.977-.976-33.874-2.699-50.732-4.894-12.156-1.583-24.271-3.412-36.331-5.617-3.585-.655-3.577-.598-3.401-4.151a161.7178,161.7178,0,0,1,4.964-34.106c2.731-10.194,8.541-17.635,17.763-22.471,8.515-4.465,17.698-6.922,27.12-8.568,1.143.183,1.465,1.072,1.49,2,.172,6.638,2.428,12.779,4.46,18.971,3.657,11.147,9.394,20.916,18.714,28.347a130.8586,130.8586,0,0,0,43.315,23.111,4.3821,4.3821,0,0,0,2.869-.07,140.2419,140.2419,0,0,0,16.396-7.099,152.3159,152.3159,0,0,0,28.152-17.14c4.587-3.578,9.176-7.237,12.203-12.51a101.9911,101.9911,0,0,0,9.518-23.643c3.033.696,5.685,2.288,8.357,3.75a32.48,32.48,0,0,1,16.127,19.238c3.889,12.285,5.264,24.939,5.879,37.722" style="fill:#558834"/><path d="M123.1924,255.192a16.6943,16.6943,0,0,1,8.971,0Z" style="fill:#558834"/><path d="M107.7442,255.192a15.2257,15.2257,0,0,1,8.472,0Z" style="fill:#558834"/><path d="M61.9122,171.9752c6.217-1.36,12.52-2.416,18.264-5.399,4.423-2.298,7.535-5.872,10.105-10.033.959-1.551.427-2.567-.812-3.614a59.6748,59.6748,0,0,1-15.511-20.735,96.1943,96.1943,0,0,1-6.588-20.529,20.6913,20.6913,0,0,1,2.704.28c2.297.534,2.959-.292,2.895-2.624-.215-7.713.751-15.499-1.642-23.057.857-.756.407-1.632.301-2.526-.692-5.819-.454-11.578,1.898-17.023.675-1.563,1.521-3.344,3.839-3.411a78.1392,78.1392,0,0,1,15.515,1.317,122.7281,122.7281,0,0,1,27.24,8.155,2.333,2.333,0,0,0,2.102.025,113.1454,113.1454,0,0,1,18.038-6.23,101.5305,101.5305,0,0,1,20.219-3.243c1.171-.075,2.055.018,2.109,1.632.266,7.927.579,15.854.996,23.774.188,3.579-.683,7.079-.531,10.645a50.693,50.693,0,0,1-1.184,11.049,80.2392,80.2392,0,0,1-14.254,33.439c-5.984,8.244-12.667,15.673-21.662,20.732-.569.319-1.252.533-1.287,1.359-1.383.165-2.83.676-4.139.435-5.165-.952-10.348-1.892-15.203-4.066-2.307-1.034-4.694-1.888-7.046-2.824a.65.65,0,0,0-.081-.17c-.024-.028-.087-.023-.132-.034.069.071.137.142.206.212,4.461,3.85,9.793,6.033,15.291,7.829,3.682,1.202,7.429,2.256,11.371,1.101a29.4364,29.4364,0,0,1,5.735-1.458c1.912,3.755,5.253,5.802,8.937,7.396,4.572,1.978,9.452,2.888,14.285,3.909,6.84,1.447,13.711,2.753,20.57,4.12a2.189,2.189,0,0,1,.02.492c-.444.787-.943,1.548-1.324,2.364a56.66,56.66,0,0,1-8.574,13.291c-10.693,12.3-24.618,17.357-40.535,17.749a99.768,99.768,0,0,1-18.056-.938A49.2919,49.2919,0,0,1,79.87,203.16c-9.334-8.467-14.615-19.268-17.958-31.185" style="fill:#e7c49d"/><path d="M71.3273,86.2642c2.392,7.558,1.427,15.344,1.641,23.057.065,2.332-.597,3.158-2.894,2.624a20.6913,20.6913,0,0,0-2.704-.28l.007.008c-.672-3.913-1.317-7.83-2.022-11.737-1.274-7.067-2.584-14.128-3.879-21.191-.488-7.032-1.21-14.044-1.155-21.115a99.15,99.15,0,0,1,3.198-25.858c2.254-8.125,7.443-14.347,14.053-19.412,8.457-6.479,18.234-9.716,28.619-11.22a96.2486,96.2486,0,0,1,37.087,1.438c13.863,3.409,25.579,10.055,32.839,22.961,3.158,5.614,4.011,11.887,4.863,18.127,1.596,11.677.967,23.342-.343,34.996-.287,1.545-.595,3.086-.857,4.635q-2.397,14.181-4.776,28.366l.013-.016c-1.072.104-2.162.124-3.214.332-1.663.331-2.435-.045-2.382-1.958.071-2.563-.262-5.136-.227-7.703.045-3.303-.634-6.66.283-9.902a65.9276,65.9276,0,0,0,2.332-10.41c.77-6.725.169-13.236-3.294-19.263a4.9757,4.9757,0,0,0-4.939-2.895c-13.695.32-26.715,3.603-39.316,8.728a7.2,7.2,0,0,1-6.056.132c-12.736-5.228-25.905-8.624-39.785-8.855a4.652,4.652,0,0,0-4.593,2.649c-4.233,7.566-4.71,15.522-2.499,23.762m88.161-53.62a56.72,56.72,0,0,0-9.084.218,121.265,121.265,0,0,0-19.369,2.364c-5.51,1.211-10.696,3.445-16.703.852-5.49-2.371-11.75-2.535-17.723-2.972-4.711-.344-9.466-1.064-14.237-.453,2.489.509,5.002.832,7.491,1.281,8.537,1.54,17.092,3.152,25.132,6.473,4.001,1.653,7.63,2.856,11.534.133a8.0205,8.0205,0,0,1,1.875-.635c10.053-3.64,20.522-5.463,31.084-7.261" style="fill:#545250"/><path d="M71.3274,86.2641c-2.211-8.24-1.734-16.196,2.499-23.762a4.65,4.65,0,0,1,4.593-2.648c13.879.23,27.049,3.626,39.785,8.854a7.2,7.2,0,0,0,6.056-.132c12.601-5.125,25.621-8.408,39.316-8.728a4.9757,4.9757,0,0,1,4.939,2.895c3.463,6.028,4.064,12.538,3.294,19.263a65.9261,65.9261,0,0,1-2.332,10.41c-.917,3.242-.238,6.599-.283,9.902-.035,2.567.298,5.14.227,7.704-.053,1.912.719,2.288,2.382,1.958,1.052-.209,2.142-.229,3.214-.333-2.174,10.165-5.395,19.929-11.119,28.713a51.8477,51.8477,0,0,1-9.942,11.645c-2.901,2.437-2.931,2.62-.922,5.87,3.935,6.368,9.904,9.774,16.947,11.604,2.708.703,5.419,1.393,8.128,2.088-.037.475-.075.952-.113,1.428l-3.536,9.413c-6.859-1.366-13.73-2.673-20.571-4.119-4.833-1.022-9.713-1.932-14.284-3.91-3.684-1.594-7.025-3.641-8.937-7.396.532-.702,1.424-.726,2.102-1.12,2.466-1.436,5.513-1.901,7.368-4.36.458-.06,1.008.163,1.295-.413a.2389.2389,0,0,0-.09-.203,1.2062,1.2062,0,0,0-1.208.613,4.654,4.654,0,0,0-2.334.658,52.53,52.53,0,0,1-13.135,3.8c.035-.826.717-1.04,1.287-1.359,8.995-5.058,15.678-12.488,21.662-20.732a80.252,80.252,0,0,0,14.254-33.439,50.63,50.63,0,0,0,1.183-11.049c-.151-3.566.72-7.066.532-10.645-.417-7.92-.73-15.847-.996-23.774-.054-1.614-.938-1.707-2.109-1.632a101.5393,101.5393,0,0,0-20.22,3.243,113.2137,113.2137,0,0,0-18.038,6.23,2.3309,2.3309,0,0,1-2.101-.025,122.689,122.689,0,0,0-27.24-8.154,78.0724,78.0724,0,0,0-15.515-1.318c-2.318.068-3.164,1.848-3.839,3.411-2.353,5.445-2.59,11.204-1.898,17.023.106.894.556,1.77-.301,2.526m71.492,74.007c-.126-.011-.251-.021-.377-.031.059.047.114.128.176.134.064.004.134-.065.201-.103" style="fill:#dbb48d"/><path d="M187.0225,186.41a101.9481,101.9481,0,0,1-9.518,23.643c-3.027,5.273-7.616,8.932-12.203,12.51a152.3157,152.3157,0,0,1-28.152,17.14,140.2418,140.2418,0,0,1-16.396,7.099,4.3822,4.3822,0,0,1-2.869.07,130.8686,130.8686,0,0,1-43.315-23.111c-9.319-7.431-15.057-17.2-18.714-28.347-2.031-6.192-4.288-12.333-4.46-18.971a1.7951,1.7951,0,0,0-1.49-2q5.694-1.206,11.387-2.415c.569,8.962,3.263,17.375,6.751,25.555,1.588,3.722,2.997,7.601,5.807,10.64,12.228,13.223,27.388,21.783,44.21,27.688a2.4256,2.4256,0,0,0,1.89-.043c14.53-6.017,28.354-13.269,40.772-23.033a36.0987,36.0987,0,0,0,11.487-15.587c1.787-4.553,3.245-9.2,4.811-13.819a7.0109,7.0109,0,0,1,2.641.46c2.425.714,4.872,1.362,7.31,2.036.012.162.03.324.051.485" style="fill:#558834"/><path d="M187.0225,186.41c-.021-.161-.039-.323-.051-.485a40.15,40.15,0,0,0,1.528-12.351q.49.0315.982.064.297.13.597.263c12.702,2.36,25.281,5.079,35.853,13.197,5.795,4.451,9.235,10.421,11.231,17.394a141.6055,141.6055,0,0,1,5.143,33.943c.169,4.63.205,4.767-4.447,5.571-6.094,1.053-12.23,1.862-18.348,2.776a1.1,1.1,0,0,0-1.105.302c-.34.012-.68.023-1.02.036-.615-12.783-1.99-25.437-5.879-37.722a32.48,32.48,0,0,0-16.127-19.238c-2.671-1.462-5.324-3.054-8.357-3.75" style="fill:#558834"/><path d="M177.0206,183.4283c-1.566,4.619-3.024,9.267-4.812,13.819a36.0769,36.0769,0,0,1-11.486,15.587c-12.418,9.765-26.242,17.017-40.772,23.033a2.4169,2.4169,0,0,1-1.89.043c-16.822-5.905-31.982-14.464-44.21-27.687-2.81-3.039-4.219-6.919-5.807-10.641-3.488-8.179-6.182-16.592-6.752-25.554q.31-.027.62-.053c3.343,11.917,8.625,22.718,17.959,31.184a49.2736,49.2736,0,0,0,26.121,12.206,99.7576,99.7576,0,0,0,18.055.939c15.917-.393,29.842-5.449,40.536-17.749a56.6605,56.6605,0,0,0,8.574-13.291c.381-.816.88-1.577,1.325-2.363l2.42.044q.0585.2415.119.483" style="fill:#e8e3da"/><path d="M61.4766,78.7447c1.295,7.063,2.604,14.124,3.879,21.191.705,3.907,1.35,7.825,2.021,11.738a7.5047,7.5047,0,0,1-5.72-3.59c-5.439-7.934-7.605-16.446-3.658-25.725.661-1.552,1.511-3.191,3.478-3.614" style="fill:#e6c49e"/><path d="M175.004,111.6627q2.3865-14.184,4.776-28.366c.262-1.549.571-3.09.858-4.635,3.858,1.756,4.767,5.416,5.187,8.981a27.8917,27.8917,0,0,1-4.697,19.78,9.348,9.348,0,0,1-6.124,4.24" style="fill:#dbb48e"/><path d="M177.0206,183.4283q-.06-.2415-.119-.483c.652-3.286,1.464-6.553,1.095-9.951.038-.475.076-.952.113-1.427a72.6842,72.6842,0,0,1,10.39,2.007,40.1473,40.1473,0,0,1-1.528,12.35c-2.438-.674-4.885-1.321-7.31-2.036a7.0107,7.0107,0,0,0-2.641-.46" style="fill:#558834"/><path d="M218.4053,247.0836a1.1,1.1,0,0,1,1.105-.302,1.073,1.073,0,0,1-1.105.302" style="fill:#3b8d93"/><path d="M190.0782,173.901l-.597-.264.597.264" style="fill:#53989e"/><path d="M140.1387,161.5035c-1.855,2.459-4.902,2.924-7.368,4.359-.678.395-1.57.418-2.103,1.12a29.5075,29.5075,0,0,0-5.735,1.458c-3.941,1.156-7.689.102-11.37-1.1-5.498-1.796-10.83-3.98-15.291-7.829l.007-.008c2.351.936,4.739,1.79,7.046,2.823,4.854,2.175,10.038,3.115,15.203,4.067,1.308.241,2.756-.27,4.138-.435a52.5522,52.5522,0,0,0,13.136-3.801,4.6539,4.6539,0,0,1,2.334-.658Z" style="fill:#cda382"/><path d="M177.9961,172.9947c.369,3.397-.442,6.665-1.095,9.95l-2.42-.044a2.2547,2.2547,0,0,0-.021-.493Z" style="fill:#ddd8d0"/><path d="M98.2715,159.5113c-.069-.07-.138-.142-.206-.212.045.011.107.006.132.034a.6836.6836,0,0,1,.081.17Z" style="fill:#cda382"/><path d="M159.4883,32.6442c-10.562,1.798-21.031,3.621-31.084,7.261a8.0205,8.0205,0,0,0-1.875.635c-3.904,2.723-7.533,1.52-11.534-.133-8.04-3.321-16.595-4.933-25.132-6.473-2.489-.449-5.002-.772-7.491-1.281,4.771-.611,9.526.109,14.237.453,5.973.437,12.233.601,17.723,2.972,6.007,2.593,11.193.359,16.703-.852a121.265,121.265,0,0,1,19.369-2.364,56.72,56.72,0,0,1,9.084-.218" style="fill:#5f5d5a"/><path d="M140.1358,161.5a1.2047,1.2047,0,0,1,1.208-.612c.039.005.112.158.09.203-.287.575-.837.352-1.295.413Z" style="fill:#cda382"/><path d="M142.8194,160.2721c-.067.037-.137.106-.201.102-.062-.006-.117-.087-.176-.134.126.01.251.02.377.032" style="fill:#cda382"/></g></svg>