<svg xmlns="http://www.w3.org/2000/svg" xmlns:xlink="http://www.w3.org/1999/xlink" viewBox="0 0 260.0661 259.3354"><defs><clipPath id="a" transform="translate(0 -0.0001)"><rect x="0.0001" width="260.066" height="259.336" style="fill:none"/></clipPath></defs><title>p2-men1</title><g style="clip-path:url(#a)"><path d="M65.516,173.8479a12.5823,12.5823,0,0,1,4.031-1.44c.692.264,1.531.928,1.564-.581a22.08,22.08,0,0,1,5.509-1.981,3.7663,3.7663,0,0,0,2.145.572q.2625.2565.525.512-.2415.255-.483.509c-.174.181-.348.364-.522.546-.001.148-.004.297-.011.446-.166.189-.332.38-.498.57,0,.149-.004.297-.01.446l-.498.57c-.001.149-.004.298-.01.446-.166.191-.332.38-.499.571-.001.153-.004.307-.011.46-.9.005-1.271.622-1.687,1.31a172.4538,172.4538,0,0,0-10.009,19.031c-.299.671-.873,1.35.001,2.023.14,1.257,1.109,1.01,1.899,1.014,2.411.016,4.821-.001,7.232-.004.708-.063,1.506.245,2.048-.499,1.076-.181,2.035.333,3.052.511.055.731.314,1.326,1.126,1.435.671.089.836-.393.906-.932,1.232-.182,1.999.093,1.545,1.569a23.7831,23.7831,0,0,1-3.04,6.081c-.17.158-.339.316-.509.473l-.026.036c-2.384,1.017-3.021,2.699-1.521,4.014l.015.026c.161.162.323.324.484.485l.026.017c-.17,1.972,1.062,2.148,2.553,1.993q.759.7605,1.52,1.522.237.267.476.534l.022.023c.163.162.325.325.488.487l.019.014a.9626.9626,0,0,0,1,.502l.007.007c.167.167.335.334.502.501l.008.008.497.495.019.016c-.015.168-.023.337-.026.506-.35,1.726.973.766,1.567.975a6.5665,6.5665,0,0,1,2.035,2.042l.503.512a1.11,1.11,0,0,1,1.004.516c-.255,1.963.567,2.833,2.556,2.521a6.6971,6.6971,0,0,1,2.036,2.031c.176.468.567.539.996.541q.2565.2475.513.497c-.355,2.061.463,2.935,2.554,2.522l1.018,1.017c.155.175.311.35.466.526l.03.03c.161.16.321.322.482.483l.027.018a.9615.9615,0,0,0,1.011.494c.17.166.341.332.511.499-.355,2.062.463,2.937,2.553,2.523q.507.507,1.014,1.013.237.267.474.535l.023.022c.162.162.324.325.487.487l.02.015a.9611.9611,0,0,0,1,.502l.006.007.502.499.012.01-.021.508c-.774,2.543,1.287,1.124,2.074,1.484a6.5036,6.5036,0,0,1,2.034,2.043c.155.172.311.345.467.516l.031.024a.94.94,0,0,0,.989.494l.019.017c-.249,1.961.592,2.804,2.559,2.497a6.7565,6.7565,0,0,1,2.038,2.03c.173.47.565.539.993.542q.2565.2475.513.496c-.354,2.062.464,2.936,2.554,2.522q.51.5085,1.019,1.017c.155.175.31.351.465.526l.031.031.48.48.03.021a.9623.9623,0,0,0,1.008.496l.512.497q.0345,1.731.069,3.463c-2.623.032-5.245.091-7.868.091q-52.4505.009-104.903.003c-3.166,0-6.254-.276-8.797-2.485.253-1.952-.593-2.811-2.551-2.563-1.429-.993-1.268-2.971-2.52-4.074V248.68a1.23,1.23,0,0,0,0-2.032v-3.05c1.622-4.078,1.734-8.46,2.516-12.703,1.432-7.776,2.69-15.584,4.085-23.367a15.3791,15.3791,0,0,1,2.189-5.601c1.738.038,1.334-1.198,1.313-2.206.197-.28.393-.561.589-.84.453-.047,1.016.113,1.259-.413.161-.351-.194-.544-.472-.701a14.67,14.67,0,0,1,4.703-4.657c.164.273.37.611.713.433.504-.259.347-.813.388-1.265,5.196-3.722,11.35-5.151,17.245-7.199.925.943,1.383.635,1.51-.563a12.6579,12.6579,0,0,1,4.028-1.438c.693.264,1.537.935,1.566-.583,5.51-2.251,11.095-4.293,16.779-6.062.931.951,1.389.642,1.51-.566a13.4457,13.4457,0,0,1,4.085-1.457c.923.938,1.382.63,1.51-.562" transform="translate(0 -0.0001)" style="fill:#3a5569"/><path d="M0,246.6477a1.2306,1.2306,0,0,1,0,2.032Z" transform="translate(0 -0.0001)" style="fill:#3a556a"/><path d="M184.4262,98.2857c-1.117,13.266-3.83,26.045-11.513,37.276a34.34,34.34,0,0,1-8.536,8.931,3.7544,3.7544,0,0,0-1.811,3.546c.11,4.731-.005,9.466-.031,14.201q-11.93,7.8525-23.86,15.705c-2.815,1.853-5.567,5.061-8.46,5.193-3.037.139-5.794-3.318-8.675-5.201q-11.9535-7.815-23.865-15.697c-.026-4.647-.076-9.293-.062-13.94a2.8524,2.8524,0,0,0-1.105-2.637c-10.889-7.94-15.896-19.33-18.793-31.985a68.488,68.488,0,0,1-1.57-16.833c.034-1.593-.164-3.192-.256-4.789.064-.922.182-1.843.184-2.764.015-8.038.177-16.08-.032-24.114-.293-11.244,11.464-22.668,22.262-22.342,5.242.157,10.494-.06,15.737.058a25.2094,25.2094,0,0,0,9.413-1.621c3.798-1.401,7.596-2.809,11.431-4.102,2.634-.889,5.356-1.749,8.165-1.099a131.6743,131.6743,0,0,1,29.066,10.132c8.013,3.985,12.267,11.101,12.274,20.354q.012,15.864.037,31.728m-51.397,63.865.012-.254h-6.474v.254Z" transform="translate(0 -0.0001)" style="fill:#e7c49d"/><path d="M180.0375,168.4651c18.991,6.856,38.028,13.591,56.956,20.62,10.4,3.862,15.847,11.874,17.556,22.67,1.705,10.774,3.505,21.534,5.27,32.3,1.476,9.002-3.779,15.249-12.929,15.265q-22.4865.0435-44.973.008-34.3005,0-68.601-.006c-1.011-.001-2.022-.098-3.029-.15.268-.47.531-.939.795-1.409q10.1955-9.2595,20.388-18.522c2.494-2.272,4.938-4.6,7.432-6.873,7.228-6.584,14.448-13.177,21.728-19.703,1.344-1.205,1.368-2.24.53-3.726-1.536-2.72-2.859-5.559-4.349-8.306-.643-1.189-.448-1.698.928-1.767,2.771-.135,5.54-.317,8.309-.479,2.808,1.019,5.697.371,8.549.357.541-.002.407-.567.032-.891-.476-.784-1.01-1.541-1.42-2.359-4.015-8.001-7.998-16.018-12.026-24.012-.392-.779-.488-1.867-1.642-2.071q.2475-.4725.496-.946" transform="translate(0 -0.0001)" style="fill:#3a556a"/><path d="M184.4266,98.2854q-.02-15.864-.038-31.728c-.007-9.252-4.26-16.369-12.274-20.354a131.7081,131.7081,0,0,0-29.066-10.132c-2.809-.649-5.53.21-8.164,1.099-3.835,1.294-7.633,2.701-11.432,4.102a25.1823,25.1823,0,0,1-9.413,1.621c-5.243-.118-10.495.099-15.736-.058-10.798-.325-22.555,11.098-22.262,22.343.209,8.033.047,16.075.032,24.113-.002.922-.121,1.843-.185,2.765-.74-4.384-2.042-8.586-4.79-12.134a27.1831,27.1831,0,0,1-5.653-18.229c.236-7.441-.049-14.898.115-22.343.458-20.747,17.283-38.424,37.993-38.971,20.892-.553,41.813-.439,62.712-.056,7.84.145,14.147,5.547,11.474,15.06-.431,1.536.045,1.798,1.304,2.237a23.6,23.6,0,0,1,15.973,22.661c.001,9.057-.026,18.113.012,27.17a20.5151,20.5151,0,0,1-2.876,11.128c-3.385,5.532-5.371,11.638-7.035,17.86-.169.635-.062,1.381-.691,1.846" transform="translate(0 -0.0001)" style="fill:#545250"/><path d="M180.0375,168.4651q-.249.4725-.496.946c-.418.732-.846,1.457-1.254,2.195q-12.1785,22.014-24.355,44.032a1.7256,1.7256,0,0,1-1.415-.885c-2.216-3.125-4.32-6.345-6.744-9.301-1.584-1.931-2.318-4.7-5.072-5.577.391-.928-.105-1.63-.609-2.317-2.949-4.015-5.942-7.997-8.833-12.053-.888-1.244-1.381-1.278-2.286-.01-2.892,4.055-5.889,8.034-8.843,12.045-.51.694-.995,1.398-.502,2.312a2.6957,2.6957,0,0,0-2.194,1.471c-1.891,2.663-3.689,5.408-5.784,7.903-1.792,2.135-2.803,4.935-5.373,6.412q-5.6565-10.1955-11.314-20.39-7.326-13.173-14.669-26.337c1.368-1.704,3.535-1.698,5.345-2.403,3.964-1.544,8.018-2.859,12.035-4.269q11.931,7.854,23.866,15.698c2.88,1.882,5.638,5.34,8.675,5.201,2.892-.132,5.644-3.34,8.46-5.194q11.9295-7.8525,23.86-15.705Z" transform="translate(0 -0.0001)" style="fill:#e0e5e7"/><path d="M80.2948,168.9114q7.335,13.167,14.668,26.337,5.6685,10.1895,11.315,20.39,6.5805,11.946,13.161,23.894c.449.9.878,1.812,1.353,2.698q4.158,7.776,8.335,15.54-1.278-1-2.557-2.001l-.512-.497a1.0511,1.0511,0,0,0-1.008-.496l-.029-.02-.481-.481-.03-.03c-.155-.176-.311-.352-.466-.526q-.51-.5085-1.019-1.017a9.3449,9.3449,0,0,0-2.554-2.522c-.171-.166-.342-.331-.512-.497q-.498-.27-.994-.542a6.76,6.76,0,0,0-2.039-2.03,8.6856,8.6856,0,0,0-2.558-2.497l-.019-.015a.9922.9922,0,0,0-.989-.496l-.031-.022-.467-.518a6.5005,6.5005,0,0,0-2.034-2.042,3.8259,3.8259,0,0,0-1.522-1.505q-.2655-.243-.531-.488l-.012-.009c-.167-.167-.335-.334-.502-.5l-.006-.006a1.012,1.012,0,0,0-1-.502l-.02-.015-.487-.487-.023-.023q-.237-.267-.474-.535-.507-.5055-1.014-1.012a9.3449,9.3449,0,0,0-2.553-2.523c-.17-.167-.341-.333-.511-.499a1.0561,1.0561,0,0,0-1.011-.494l-.027-.019q-.24-.2415-.482-.482l-.029-.031q-.234-.2625-.467-.526l-1.018-1.016a9.3624,9.3624,0,0,0-2.554-2.523q-.2565-.249-.513-.496c-.332-.181-.664-.36-.996-.541a6.6861,6.6861,0,0,0-2.036-2.031,9.3383,9.3383,0,0,0-2.556-2.522,1.1107,1.1107,0,0,0-1.004-.515q-.252-.255-.502-.512a6.5454,6.5454,0,0,0-2.036-2.041q-.504-.5025-1.007-1.005-.267-.2385-.534-.478l-.019-.015q-.2475-.2475-.497-.495l-.008-.008-.501-.501-.008-.008a1.012,1.012,0,0,0-1-.502l-.019-.013c-.162-.163-.325-.325-.488-.488l-.022-.022c-.159-.178-.317-.357-.476-.534q-.759-.7605-1.521-1.522c-.682-.88-1.263-1.889-2.551-1.993l-.027-.018c-.161-.161-.322-.323-.484-.484l-.016-.026c.206-1.453,1.802-2.377,1.522-4.014l.026-.035c.17-.158.339-.317.509-.475a23.7444,23.7444,0,0,0,3.04-6.08c.592-.382,1.285-.913.795-1.6-.696-.975-1.884-.307-2.842-.469l-1.53-.003c-1.016-.178-1.976-.693-3.051-.512l-2.06.021c-2.856-.303-5.784.562-8.591-.533q6.066-10.941,11.167-22.362c.006-.153.009-.308.01-.462.166-.19.333-.38.499-.569.006-.149.01-.297.01-.447.166-.19.332-.379.499-.57.006-.148.009-.297.009-.446.166-.191.332-.38.498-.569.007-.15.01-.298.01-.448l.523-.545c.161-.169.322-.339.484-.508,0-.174.001-.349.001-.523v-1.416c.335-.026.669-.054,1.003-.08" transform="translate(0 -0.0001)" style="fill:#304859"/><path d="M129.1268,257.7708q-4.17-7.77-8.335-15.54c-.475-.887-.904-1.798-1.353-2.698a3.2192,3.2192,0,0,0,.292-.7q2.382-14.844,4.725-29.694c.164-1.05.411-2.164-.35-3.176-1.518-2.018-2.987-4.072-4.477-6.111-.494-.914-.009-1.618.501-2.311,2.955-4.011,5.952-7.991,8.844-12.045.904-1.269,1.398-1.235,2.285.009,2.891,4.056,5.885,8.038,8.833,12.053.505.688,1,1.39.61,2.317a23.3136,23.3136,0,0,1-2.152,2.762c-2.976,2.852-3.144,6.244-2.221,9.96.424,1.706.62,3.471.908,5.21q1.79,10.812,3.572,21.623c-.446.907-.867,1.828-1.343,2.719q-4.1805,7.8135-8.383,15.614-.396.705-.795,1.409c-.005,0-.217.075-.217.075l-.228-.055c-.256-.465-.141-1.116-.716-1.421" transform="translate(0 -0.0001)" style="fill:#e46454"/><path d="M129.1268,257.7708c.575.305.46.956.716,1.421q-1.6005.021-3.204.041-.0345-1.731-.069-3.463,1.278,1,2.557,2.001" transform="translate(0 -0.0001)" style="fill:#3a556a"/><path d="M2.52,254.2786c1.958-.248,2.804.611,2.551,2.563a5.6716,5.6716,0,0,1-2.551-2.563" transform="translate(0 -0.0001)" style="fill:#3a556a"/><path d="M79.2918,168.9915v1.416c-.176.003-.352.007-.527.011a3.7671,3.7671,0,0,1-2.145-.573,4.0184,4.0184,0,0,1,2.672-.854" transform="translate(0 -0.0001)" style="fill:#3a556a"/><path d="M10.1034,199.721c.021,1.008.425,2.244-1.313,2.206a5.0957,5.0957,0,0,1,1.313-2.206" transform="translate(0 -0.0001)" style="fill:#3a556a"/><path d="M36.0379,184.5159c-.127,1.198-.585,1.506-1.51.563.388-.497.965-.488,1.51-.563" transform="translate(0 -0.0001)" style="fill:#3a556a"/><path d="M65.516,173.8479c-.128,1.192-.587,1.5-1.51.562.388-.497.964-.491,1.51-.562" transform="translate(0 -0.0001)" style="fill:#3a556a"/><path d="M59.9208,175.8665c-.121,1.208-.579,1.518-1.51.566.389-.495.968-.48,1.51-.566" transform="translate(0 -0.0001)" style="fill:#3a556a"/><path d="M71.1107,171.8274c-.033,1.509-.872.845-1.563.58a2.0573,2.0573,0,0,1,1.563-.58" transform="translate(0 -0.0001)" style="fill:#3a556a"/><path d="M41.6322,182.4954c-.029,1.518-.874.847-1.566.583a2.0831,2.0831,0,0,1,1.566-.583" transform="translate(0 -0.0001)" style="fill:#3a556a"/><path d="M17.2831,192.2776c-.041.452.116,1.006-.388,1.266-.343.177-.549-.161-.713-.434a1.6082,1.6082,0,0,1,1.101-.832" transform="translate(0 -0.0001)" style="fill:#3a556a"/><path d="M11.4793,197.7669c.277.157.633.35.471.701-.242.527-.805.366-1.259.413q.3945-.558.788-1.114" transform="translate(0 -0.0001)" style="fill:#3a556a"/><path d="M76.7484,175.4944q-5.082,11.4315-11.167,22.362c-.176,0-.352.001-.528.001-.874-.673-.3-1.351-.002-2.022a172.4527,172.4527,0,0,1,10.01-19.031c.416-.689.787-1.305,1.687-1.31" transform="translate(0 -0.0001)" style="fill:#3a556a"/><path d="M79.2855,207.5423c.28,1.637-1.316,2.562-1.521,4.014-1.5-1.316-.863-2.997,1.521-4.014" transform="translate(0 -0.0001)" style="fill:#3a556a"/><path d="M65.0531,197.8577c.176,0,.353-.001.529-.001,2.806,1.095,5.735.23,8.592.532a3.3283,3.3283,0,0,1,.01.479c-2.411.004-4.821.02-7.232.005-.79-.005-1.759.242-1.899-1.015" transform="translate(0 -0.0001)" style="fill:#304859"/><path d="M96.5848,228.3264a9.3588,9.3588,0,0,1,2.554,2.522c-2.091.414-2.908-.46-2.554-2.522" transform="translate(0 -0.0001)" style="fill:#3a556a"/><path d="M120.471,250.18a9.3729,9.3729,0,0,1,2.554,2.522c-2.09.414-2.908-.46-2.554-2.522" transform="translate(0 -0.0001)" style="fill:#3a556a"/><path d="M102.6839,233.9163a9.3449,9.3449,0,0,1,2.553,2.523c-2.09.414-2.908-.461-2.553-2.523" transform="translate(0 -0.0001)" style="fill:#3a556a"/><path d="M114.3675,244.6145a8.7012,8.7012,0,0,1,2.559,2.497c-1.966.308-2.808-.536-2.559-2.497" transform="translate(0 -0.0001)" style="fill:#3a556a"/><path d="M90.4842,222.7366a9.3488,9.3488,0,0,1,2.556,2.521c-1.989.312-2.811-.558-2.556-2.521" transform="translate(0 -0.0001)" style="fill:#3a556a"/><path d="M78.29,212.0843c1.288.104,1.87,1.113,2.552,1.993-1.49.154-2.722-.021-2.552-1.993" transform="translate(0 -0.0001)" style="fill:#3a556a"/><path d="M109.3055,240.0169a3.82,3.82,0,0,1,1.522,1.505c-.786-.361-2.848,1.058-2.073-1.484l.551-.021" transform="translate(0 -0.0001)" style="fill:#3a556a"/><path d="M79.2835,198.88l1.53.003c.168.167.335.333.502.5-.069.539-.235,1.02-.906.932-.812-.109-1.071-.705-1.126-1.435" transform="translate(0 -0.0001)" style="fill:#3a556a"/><path d="M81.3158,199.3831c-.167-.167-.334-.333-.502-.5.958.162,2.146-.506,2.842.47.49.686-.203,1.217-.795,1.599.455-1.476-.313-1.752-1.545-1.569" transform="translate(0 -0.0001)" style="fill:#415b6e"/><path d="M85.9349,218.6634q.5025.5025,1.007,1.005c-.594-.21-1.917.75-1.566-.977.186-.009.372-.019.559-.028" transform="translate(0 -0.0001)" style="fill:#3a556a"/><path d="M74.1839,198.8675a3.3324,3.3324,0,0,0-.01-.479q1.029-.009,2.058-.02c-.542.744-1.34.437-2.048.499" transform="translate(0 -0.0001)" style="fill:#3a556a"/><path d="M101.162,232.9231a1.0561,1.0561,0,0,1,1.011.494.9614.9614,0,0,1-1.011-.494" transform="translate(0 -0.0001)" style="fill:#3a556a"/><path d="M107.2547,238.511a1.0137,1.0137,0,0,1,1,.502.9611.9611,0,0,1-1-.502" transform="translate(0 -0.0001)" style="fill:#3f586c"/><path d="M113.36,244.1038a.9931.9931,0,0,1,.989.495.9425.9425,0,0,1-.989-.495" transform="translate(0 -0.0001)" style="fill:#3a556a"/><path d="M118.9647,249.1419q.4965.2715.994.542c-.429-.003-.821-.072-.994-.542" transform="translate(0 -0.0001)" style="fill:#3a556a"/><path d="M125.05,254.7766a1.05,1.05,0,0,1,1.008.496.9608.9608,0,0,1-1.008-.496" transform="translate(0 -0.0001)" style="fill:#3a556a"/><path d="M83.3675,216.6565a1.0111,1.0111,0,0,1,1,.502.96.96,0,0,1-1-.502" transform="translate(0 -0.0001)" style="fill:#3f586c"/><path d="M95.0755,227.2893c.332.181.664.36.996.541-.428-.002-.82-.073-.996-.541" transform="translate(0 -0.0001)" style="fill:#3a556a"/><path d="M78.7645,170.4182c.176-.004.352-.008.527-.011,0,.174-.001.349-.001.523-.175-.17-.351-.341-.526-.512" transform="translate(0 -0.0001)" style="fill:#415b6e"/><path d="M78.807,171.4388l-.523.545q.2625-.2715.523-.545" transform="translate(0 -0.0001)" style="fill:#415b6e"/><path d="M78.2743,172.4309q-.249.2835-.498.569c.166-.189.332-.38.498-.569" transform="translate(0 -0.0001)" style="fill:#415b6e"/><path d="M77.2582,174.4632q-.2505.2835-.499.569.249-.2835.499-.569" transform="translate(0 -0.0001)" style="fill:#415b6e"/><path d="M77.7665,173.4466q-.2505.285-.499.57c.166-.189.332-.38.499-.57" transform="translate(0 -0.0001)" style="fill:#415b6e"/><path d="M77.78,211.5823c.162.161.323.323.484.484l-.484-.484" transform="translate(0 -0.0001)" style="fill:#3a556a"/><path d="M106.7479,238.0091l.487.487c-.163-.162-.325-.325-.487-.487" transform="translate(0 -0.0001)" style="fill:#3f586c"/><path d="M100.1566,231.8655q.2325.264.467.526-.234-.2625-.467-.526" transform="translate(0 -0.0001)" style="fill:#3d576b"/><path d="M108.2611,239.02q.25.249.501.5-.25-.25-.501-.5" transform="translate(0 -0.0001)" style="fill:#3f586c"/><path d="M109.3055,240.0169l-.551.021c.007-.17.013-.339.021-.509q.264.2445.53.488" transform="translate(0 -0.0001)" style="fill:#3f586c"/><path d="M88.9774,221.7093q.25.2565.502.512c-.167-.171-.335-.341-.502-.512" transform="translate(0 -0.0001)" style="fill:#3a556a"/><path d="M85.9349,218.6634c-.187.009-.373.019-.559.028.002-.169.01-.338.025-.506q.267.24.534.478" transform="translate(0 -0.0001)" style="fill:#3f586c"/><path d="M100.6532,232.4222q.2415.24.481.482-.24-.2415-.481-.482" transform="translate(0 -0.0001)" style="fill:#3d576b"/><path d="M84.3753,217.1663l.501.501-.501-.501" transform="translate(0 -0.0001)" style="fill:#3f586c"/><path d="M82.8612,216.1555c.163.163.325.325.487.488q-.243-.2445-.487-.488" transform="translate(0 -0.0001)" style="fill:#3f586c"/><path d="M79.8211,207.0325q-.255.237-.509.475c.17-.159.339-.317.509-.475" transform="translate(0 -0.0001)" style="fill:#3a556a"/><path d="M112.8617,243.5638c.156.173.312.345.467.518q-.2325-.26-.467-.518" transform="translate(0 -0.0001)" style="fill:#3a556a"/><path d="M124.0438,253.719l.466.526-.466-.526" transform="translate(0 -0.0001)" style="fill:#3d576b"/><path d="M82.3631,215.5989c.159.178.317.356.476.534q-.2385-.267-.476-.534" transform="translate(0 -0.0001)" style="fill:#3f586c"/><path d="M124.54,254.2757l.48.48Z" transform="translate(0 -0.0001)" style="fill:#3d576b"/><path d="M84.8851,217.6751q.249.2475.497.495Z" transform="translate(0 -0.0001)" style="fill:#3f586c"/><path d="M106.2508,237.4514q.237.2685.474.535c-.158-.179-.316-.356-.474-.535" transform="translate(0 -0.0001)" style="fill:#3f586c"/><path d="M133.0292,162.1507h-6.462v-.254h6.474l-.012.254" transform="translate(0 -0.0001)" style="fill:#fad882"/><path d="M131.0824,257.763q4.194-7.806,8.383-15.614c.477-.891.897-1.812,1.344-2.718,4.6-7.807,8.894-15.781,13.123-23.793q12.177-22.017,24.356-44.032c.407-.738.835-1.463,1.253-2.195,1.154.205,1.25,1.292,1.643,2.071,4.027,7.994,8.01,16.011,12.025,24.012.41.818.944,1.575,1.42,2.359-2.802,1.103-5.728.233-8.581.534-2.769.162-5.538.344-8.309.48-1.376.068-1.571.578-.928,1.766,1.49,2.747,2.813,5.586,4.349,8.306.839,1.486.815,2.521-.53,3.726-7.28,6.526-14.5,13.119-21.728,19.703-2.494,2.273-4.938,4.601-7.432,6.874q-10.182,9.273-20.388,18.521" transform="translate(0 -0.0001)" style="fill:#304859"/><path d="M186.0487,198.387c2.853-.301,5.778.569,8.581-.534.375.324.509.889-.033.891-2.852.014-5.74.663-8.548-.357" transform="translate(0 -0.0001)" style="fill:#304859"/><path d="M119.6288,199.8518c1.49,2.039,2.959,4.093,4.477,6.111.761,1.012.514,2.126.35,3.176q-2.316,14.853-4.725,29.693a3.2063,3.2063,0,0,1-.292.701l-13.161-23.895c2.57-1.476,3.58-4.277,5.373-6.412,2.095-2.495,3.893-5.24,5.784-7.902a2.6975,2.6975,0,0,1,2.194-1.472" transform="translate(0 -0.0001)" style="fill:#d4d4d9"/><path d="M153.9325,215.638c-4.229,8.012-8.523,15.986-13.124,23.793q-1.785-10.812-3.572-21.624c-.287-1.739-.483-3.504-.908-5.21-.922-3.716-.754-7.108,2.221-9.96a23.2107,23.2107,0,0,0,2.152-2.762c2.754.877,3.488,3.646,5.072,5.577,2.424,2.957,4.528,6.176,6.744,9.301a1.7256,1.7256,0,0,0,1.415.885" transform="translate(0 -0.0001)" style="fill:#d4d4d9"/><path d="M167.6849,17.6175c-10.561,1.798-21.031,3.62-31.083,7.26a8.0127,8.0127,0,0,0-1.876.635c-3.904,2.723-7.533,1.52-11.535-.133-8.039-3.321-16.594-4.933-25.131-6.473-2.489-.449-5.001-.771-7.491-1.281,4.772-.611,9.527.109,14.238.454,5.971.436,12.232.6,17.722,2.971,6.007,2.593,11.194.36,16.703-.852a121.3893,121.3893,0,0,1,19.37-2.364,56.8194,56.8194,0,0,1,9.083-.217" transform="translate(0 -0.0001)" style="fill:#5f5d5a"/></g></svg>