<svg xmlns="http://www.w3.org/2000/svg" xmlns:xlink="http://www.w3.org/1999/xlink" viewBox="0 0 242.4908 255.8823"><defs><clipPath id="a" transform="translate(-0.0003)"><rect y="0.0002" width="242.491" height="255.882" style="fill:none"/></clipPath></defs><title>p2-men2</title><g style="clip-path:url(#a)"><path d="M217.3775,247.3973q-6.357.8325-12.713,1.662c-4.807.619-9.609,1.277-14.424,1.825q-9.186,1.047-18.389,1.935c-4.26.414-8.525.926-12.796,1.023-7.922.18-15.796,1.359-23.736,1.049-.754-.029-1.55-.07-1.676.991h-5.981a1.1372,1.1372,0,0,0-1.039-.518c.002-3.609-2.078-5.965-5.321-6.024-3.35-.062-5.529,2.296-5.578,6.034-1.001.186-2.134-.406-3.013.508h-6.977c-.176-1.236-1.144-1.01-1.928-.985-7.867.262-15.703-.551-23.513-1.136q-16.113-1.21-32.183-3.242c-12.17-1.523-24.299-3.293-36.422-5.125-3.093-.466-6.164-1.079-9.251-1.584-1.691-.275-2.408-.975-2.434-2.912-.047-3.41.431-6.77.666-10.138a106.1982,106.1982,0,0,1,3.453-21.43c1.36-4.833,2.426-9.744,5.286-14.093,4.709-7.162,11.408-11.552,19.133-14.68,10.789-4.368,22.256-6.043,33.552-8.393,6.386-1.328,12.734-2.774,18.709-5.497q1.2285,3.25,2.458,6.502a15.5423,15.5423,0,0,0,1.994,5.523c1.85,6.95,4.319,13.704,6.509,20.547.478,1.496,1.071,1.19,1.792.26,1.01-1.308,2.028-2.612,2.973-3.967,2.682-3.846,5.952-7.269,8.222-11.41l-.009.008a.8781.8781,0,0,0,.506-1.01l-.012.013c.161-.159.32-.317.48-.476,2.194-1.646,3.51-4.093,5.441-5.978q4.863,12.4155,9.726,24.828c.189-.056.38-.113.57-.169q4.377-12.0915,8.755-24.183c2.37.608,2.587,3.321,4.385,4.489.184,0,.368-.001.553-.001l-.023-.024a.9733.9733,0,0,0,.514,1.021l-.017-.017c.116.889.532,1.478,1.508,1.507l-.007-.011a.8684.8684,0,0,0,.505,1.007l-.008-.007c3.272,5.521,7.664,10.187,11.707,15.88,2.549-7.672,4.905-14.765,7.26-21.858,2.753.498,5.525.907,8.255,1.508,10.32,2.273,20.744,4.213,30.144,9.454,6.683,3.727,12.199,8.627,15.074,15.841,5.295,13.288,6.616,27.328,7.32,41.453m-90.668-32.347a5.5287,5.5287,0,1,0-5.575,5.46,5.5081,5.5081,0,0,0,5.575-5.46m.002,19.732a5.5279,5.5279,0,0,0-11.054.102,5.528,5.528,0,1,0,11.054-.102" transform="translate(-0.0003)" style="fill:#f8f4ec"/><path d="M126.6236,255.3643a1.1382,1.1382,0,0,1,1.039.518h-14.951c.879-.914,2.012-.322,3.013-.508q5.448-.006,10.899-.01" transform="translate(-0.0003)" style="fill:#fefefe"/><path d="M130.2073,177.1553q-4.377,12.0915-8.755,24.183c-.19.056-.38.113-.57.169q-4.863-12.414-9.726-24.828c-2.485-2.859-4.856-5.827-7.481-8.551-4.631-4.805-8.417-10.418-13.829-14.474a64.4463,64.4463,0,0,1-15.41-20.248,92.9441,92.9441,0,0,1-6.553-19.26c-.225-.969-.208-2.016-1.384-2.419-3.946-1.349-6.128-4.451-7.641-8.043-2.858-6.779-3.747-13.711-1.027-20.794a5.9228,5.9228,0,0,1,1.636-2.443c1.636,4.456,3.092,9.009,6.829,12.845.18-11.197-.086-22.032,1.687-32.75,1.524-.726,1.311-2.363,1.792-3.594,1.99-5.1,5.01-9.217,10.504-10.768a21.5485,21.5485,0,0,1,14.778,1.309c5.234,2.284,10.392,4.743,15.65,6.974,10.403,4.412,21.296,2.805,32.08,2.43.16-.006.312-.134.472-.15a47.73,47.73,0,0,1,17.403,1.581,1.6342,1.6342,0,0,1,1.411,1.706c.449,8.075,1.154,16.141,1.416,24.221a143.27,143.27,0,0,1-1.388,24.465c-2.503,17.966-11.081,32.833-23.173,45.933-4.126,4.47-9.098,7.879-14.255,11.032-1.54.19-2.88,1.21-4.559.915a69.4023,69.4023,0,0,1-17.249-5.063,3.0684,3.0684,0,0,0-2.694-.372,46.7449,46.7449,0,0,0,13.14,6.293c3.777,1.196,7.575,2.345,11.604,1.18a29.7808,29.7808,0,0,1,5.737-1.458,11.32,11.32,0,0,0,4.032,4.017q-.24.4905-.482.981c-1.212,1.756-3.291,2.817-3.995,4.981M98.26,159.6993c-.071-.039-.143-.077-.214-.116l.213.117c.239.419.451.891,1.061.778a.408.408,0,0,0,.189-.347c-.244-.603-.804-.365-1.249-.432" transform="translate(-0.0003)" style="fill:#dab390"/><path d="M67.983,60.5421c-1.772,10.718-1.507,21.553-1.687,32.75-3.737-3.836-5.193-8.389-6.829-12.845-2.774-13.212-2.064-26.378.348-39.556a20.1788,20.1788,0,0,1,7.433-12.26c.617-.511,1.35-.851,1.671-1.752,3.196-8.989,10.077-14.638,18.244-18.474,27.352-12.846,53.709-11.287,78.339,6.889,7.746,5.717,13.851,13.184,16.252,22.675a91.8506,91.8506,0,0,1,1.415,40.716c-.144.728-.199,1.474-.295,2.212-1.878,4.181-3.043,8.766-6.769,12.239-.194-6.883.209-13.427-.559-19.967-1.204-10.237-6.098-16.113-16.031-18.72-8.687-2.278-17.484-1.191-26.223-.621-8.5.554-16.66-.318-24.549-3.69-6.16-2.632-11.963-6.186-18.57-7.68-6.474-1.465-12.415-.495-16.921,4.896-3.171,3.794-4.601,8.357-5.269,13.188" transform="translate(-0.0003)" style="fill:#3c3c3b"/><path d="M217.3775,247.3975c-.704-14.125-2.025-28.165-7.32-41.453-2.875-7.214-8.391-12.114-15.074-15.841-9.4-5.241-19.824-7.182-30.144-9.454-2.73-.602-5.502-1.01-8.255-1.508q.2475-1.4985.494-2.998l-.009.015c.61-.355.479-.966.53-1.516a24.432,24.432,0,0,0,2.958-8.968c4.7,3.2,10.154,4.272,15.552,5.471,11.099,2.465,22.407,4.082,33.239,7.624,6.943,2.27,13.545,5.459,18.91,10.579,5.115,4.882,7.868,11.101,9.533,17.913a136.8714,136.8714,0,0,1,4.109,26.332,71.714,71.714,0,0,0,.541,8.389c.205,1.239-.232,1.286-1.197,1.492-6.93,1.481-13.966,2.297-20.949,3.438-.973.159-1.945.323-2.918.485" transform="translate(-0.0003)" style="fill:#e9e9e0"/><path d="M67.983,60.5421c.668-4.831,2.098-9.394,5.269-13.188,4.506-5.391,10.447-6.361,16.921-4.896,6.607,1.494,12.41,5.048,18.57,7.68,7.889,3.372,16.049,4.244,24.549,3.69,8.739-.57,17.536-1.657,26.223.621,9.933,2.607,14.827,8.483,16.031,18.72.768,6.54.365,13.084.559,19.967,3.726-3.473,4.891-8.058,6.769-12.239,2.213,1.752,2.642,4.39,2.926,6.859a28.7245,28.7245,0,0,1-4.117,19.03,10.3781,10.3781,0,0,1-5.518,4.762c-1.129.366-1.434,1.213-1.654,2.231-2.473,11.447-6.678,22.123-13.952,31.448a82.0232,82.0232,0,0,1-8.579,8.925,34.5717,34.5717,0,0,0-6.097,4.954c-3.849,3.924-7.114,8.386-11.199,12.087a11.312,11.312,0,0,1-4.032-4.017c3.407-1.82,7.27-2.837,10.133-5.619-3.319.977-6.523,2.22-9.806,3.191-2.028.6-4.051,1.69-6.306.934,5.158-3.154,10.129-6.563,14.255-11.033,12.092-13.1,20.67-27.966,23.173-45.933a143.3694,143.3694,0,0,0,1.389-24.465c-.263-8.08-.968-16.146-1.416-24.221a1.6358,1.6358,0,0,0-1.411-1.706,47.7327,47.7327,0,0,0-17.404-1.581c-.16.016-.312.145-.471.151-10.784.375-21.678,1.981-32.08-2.431-5.258-2.231-10.416-4.69-15.651-6.974a21.5421,21.5421,0,0,0-14.778-1.308c-5.493,1.55-8.514,5.668-10.504,10.767-.48,1.232-.268,2.868-1.792,3.594" transform="translate(-0.0003)" style="fill:#cba383"/><path d="M89.8463,153.6544c5.412,4.056,9.198,9.669,13.829,14.474,2.625,2.724,4.996,5.692,7.482,8.551-1.932,1.885-3.248,4.332-5.442,5.978-.16.158-.319.317-.479.476l.011-.013a.8961.8961,0,0,0-.505,1.01l.008-.008c-1.711.329-2.434,1.819-3.473,2.943-2.717,2.936-5.112,6.18-8.305,8.958-2.466-6.121-4.831-11.994-7.197-17.867-.854-1.655-.844-3.745-2.516-4.987q-1.2285-3.252-2.457-6.502c3.01-4.341,6.544-8.318,9.044-13.013" transform="translate(-0.0003)" style="fill:#e9e9e0"/><path d="M134.6842,171.1934c4.085-3.701,7.35-8.163,11.199-12.087a34.5275,34.5275,0,0,1,6.097-4.954c2.53,4.086,5.819,7.606,8.577,11.522a24.407,24.407,0,0,1-2.959,8.969c-.627.348-.521.95-.528,1.515l.009-.015c-.84.634-.978,1.697-1.536,2.505a91.8209,91.8209,0,0,1-14.376-3.445c-2.445-.763-4.419-2.543-6.964-3.03q.24-.489.481-.98" transform="translate(-0.0003)" style="fill:#dfdad2"/><path d="M134.2027,172.1739c2.546.486,4.52,2.267,6.965,3.029a91.7974,91.7974,0,0,0,14.376,3.446c-2.317,5.733-4.633,11.466-7.109,17.592-2.449-2.74-4.628-5.19-6.823-7.629-1.189-1.323-2.058-3.02-3.994-3.493l.008.007a.8843.8843,0,0,0-.505-1.007l.007.011a1.4144,1.4144,0,0,0-1.508-1.507l.017.018a.9952.9952,0,0,0-.514-1.022l.022.025c-.185-.4-.369-.332-.552.001-1.798-1.168-2.015-3.881-4.385-4.49.704-2.164,2.783-3.224,3.995-4.981" transform="translate(-0.0003)" style="fill:#e9e9df"/><path d="M126.71,215.05a5.5278,5.5278,0,1,1-5.352-5.673,5.5307,5.5307,0,0,1,5.352,5.673" transform="translate(-0.0003)" style="fill:#6f6f6f"/><path d="M126.7115,234.7823a5.528,5.528,0,1,1-11.054.102,5.5279,5.5279,0,0,1,11.054-.102" transform="translate(-0.0003)" style="fill:#6f6f6f"/><path d="M137.6178,185.1192c1.936.473,2.805,2.17,3.994,3.493,2.194,2.439,4.374,4.889,6.823,7.629,2.476-6.126,4.792-11.859,7.109-17.593.557-.807.695-1.871,1.535-2.505q-.246,1.4985-.494,2.998c-2.356,7.093-4.711,14.186-7.26,21.858-4.043-5.692-8.436-10.359-11.707-15.88" transform="translate(-0.0003)" style="fill:#c9c8b3"/><path d="M85.775,178.1563c2.366,5.873,4.731,11.746,7.197,17.867,3.194-2.778,5.588-6.022,8.305-8.958,1.039-1.124,1.763-2.614,3.474-2.943-2.271,4.141-5.54,7.564-8.222,11.41-.945,1.355-1.963,2.659-2.974,3.967-.72.93-1.313,1.236-1.792-.26-2.189-6.843-4.659-13.597-6.508-20.548l.52-.535" transform="translate(-0.0003)" style="fill:#c8c7b2"/><path d="M126.6236,255.3643q-5.45.0045-10.899.01c.048-3.739,2.228-6.096,5.578-6.034,3.243.059,5.323,2.415,5.321,6.024" transform="translate(-0.0003)" style="fill:#706f6f"/><path d="M85.775,178.1563l-.52.535a15.5322,15.5322,0,0,1-1.995-5.522c1.671,1.242,1.661,3.332,2.515,4.987" transform="translate(-0.0003)" style="fill:#cfcebb"/><path d="M135.62,182.6231a1.4145,1.4145,0,0,1,1.508,1.507c-.976-.028-1.392-.617-1.508-1.507" transform="translate(-0.0003)" style="fill:#c9c8b3"/><path d="M135.1227,181.6192a.9946.9946,0,0,1,.514,1.021.9712.9712,0,0,1-.514-1.021" transform="translate(-0.0003)" style="fill:#c9c8b3"/><path d="M104.7418,184.13a.8973.8973,0,0,1,.506-1.01.8781.8781,0,0,1-.506,1.01" transform="translate(-0.0003)" style="fill:#c8c7b2"/><path d="M137.1207,184.1192a.8832.8832,0,0,1,.505,1.007.8679.8679,0,0,1-.505-1.007" transform="translate(-0.0003)" style="fill:#c9c8b3"/><path d="M134.5924,181.6446c.184-.333.367-.4.553-.001-.185,0-.368.001-.553.001" transform="translate(-0.0003)" style="fill:#c9c8b3"/><path d="M105.2359,183.1329c.16-.158.319-.317.479-.476-.16.16-.319.318-.479.476" transform="translate(-0.0003)" style="fill:#c8c7b2"/><path d="M124.6734,165.6817c2.255.757,4.277-.334,6.306-.934,3.283-.97,6.487-2.213,9.805-3.191-2.862,2.782-6.725,3.8-10.132,5.619a29.7814,29.7814,0,0,0-5.737,1.458c-4.029,1.165-7.827.017-11.604-1.18a46.745,46.745,0,0,1-13.14-6.293,3.0683,3.0683,0,0,1,2.694.373,69.45,69.45,0,0,0,17.248,5.063c1.68.295,3.02-.726,4.56-.915" transform="translate(-0.0003)" style="fill:#c69f80"/><path d="M98.26,159.6993c.445.067,1.005-.171,1.249.432a.408.408,0,0,1-.189.347c-.61.113-.822-.359-1.061-.778Z" transform="translate(-0.0003)" style="fill:#c69f80"/><path d="M98.2594,159.7l-.213-.117c.071.039.143.077.214.116Z" transform="translate(-0.0003)" style="fill:#c69f80"/><path d="M157.07,176.1583c.007-.564-.099-1.167.528-1.515-.049.549.081,1.161-.528,1.515" transform="translate(-0.0003)" style="fill:#c9c8b3"/></g></svg>