<svg xmlns="http://www.w3.org/2000/svg" viewBox="0 0 677.8252 422.9201"><title>p2-speak</title><path d="M490.2488,54.6319l4.6743.5464c3.9623,2.5268,5.7335,6.4418,7.2605,10.7043,2.1891,6.1108,3.9356,12.4072,7.0049,18.1829.82,5,3.0908,9.5215,4.8248,14.2072,1.4168,3.8285,2.1127,7.9892,4.7228,11.3283a19.8541,19.8541,0,0,0,2.8388,8.1148,16.1945,16.1945,0,0,0,.4854,2.2705q9.2569,25.3743,18.5534,50.7343a5.9232,5.9232,0,0,0,1.7813,2.9751c-.1211,1.769.6824,3.3058,1.2642,4.888Q554.2,207.2512,564.75,235.9153c1.1229,3.0655,1.983,6.1509.5815,9.4789-3.16,7.5028-13.3656,7.5843-17.7162,1.48q-9.6278-26.0477-19.2493-52.0977Q509.1946,142.618,490.0526,90.4483c-2.6985-7.325-5.6455-14.5584-8.478-21.834C480.9968,59.6312,482.6026,57.0426,490.2488,54.6319Z" style="fill:#adb4bb"/><path d="M388.1575,150.958c7.1082-4.7065,14.2487-9.3652,21.3181-14.1292,15.2851-10.3,30.3757-20.8557,43.3244-34.1243a2.3109,2.3109,0,0,0,.3171-.7077c7.5647-6.0142,13.3025-13.66,18.9983-21.3369.1686-.2272-.0513-.7426-.09-1.1236,3.2632-1.7617,4.1489-5.3988,6.3282-8.0146.9321-1.1188,1.2175-2.97,3.2206-2.9074,2.833,7.2756,5.78,14.509,8.4784,21.834q19.21,52.1447,38.3138,104.3285,9.5806,26.065,19.2493,52.0977a162.6862,162.6862,0,0,0-42.203-8.7493c-23.008-1.4781-45.8366.7977-68.5961,4.05-4.73.676-9.45,1.9245-14.3128,1.19C410.6481,212.7137,399.414,181.8317,388.1575,150.958Z" style="fill:#f0f0f1"/><path d="M521.5749,117.7158c13.9617,1.1869,24.2377,7.8726,29.2973,21.0617,5.1147,13.3328,1.422,24.9909-8.4754,34.9172a5.9059,5.9059,0,0,1-1.7832-2.974q-9.2847-25.3642-18.5534-50.7343A16.1945,16.1945,0,0,1,521.5749,117.7158Z" style="fill:#558834"/><path d="M543.5742,26.3975c.0521-3.1.0307-6.2043.17-9.3009A17.5425,17.5425,0,0,1,559.2276,0q51.4849.0129,102.9686.0252c7.921,1.0547,13.4634,6.4764,14.9822,14.2827.7837,4.0278.1844,8.0732.6468,12.0856q-.01,12.0973-.0214,24.1949c-.0421,6.1362-.2336,12.2758-.094,18.408.2694,11.8383-7.7218,20.3248-19.8458,20.0717-21.1465-.4414-42.3091-.0837-63.4644-.1721a7.8459,7.8459,0,0,0-6.1835,2.567c-6.7406,6.9236-13.61,13.7223-20.4689,20.53-1.0473,1.0394-1.879,2.433-3.79,2.9671,0-7.711-.0418-15.1345.0266-22.5571.0193-2.1-.3011-3.2938-2.8739-3.5462-11.5046-1.1287-17.3432-7.7915-17.3992-19.4721q-.0451-9.4005-.119-18.8009Q543.5831,38.49,543.5742,26.3975Zm27.15,5.1043c-6.9107-.0266-12.8034,5.5382-12.8686,12.1524a13.2817,13.2817,0,0,0,12.6564,12.9119,12.5351,12.5351,0,0,0,.2122-25.0643ZM650.92,56.5652a12.89,12.89,0,0,0,12.4483-12.5747,12.5352,12.5352,0,0,0-12.8116-12.4881c-7.0233.0665-12.0715,5.361-12.0436,12.6313A12.4382,12.4382,0,0,0,650.92,56.5652ZM610.769,31.5017a12.6882,12.6882,0,0,0-12.6852,12.6216,13.0909,13.0909,0,0,0,12.625,12.4435,12.4481,12.4481,0,0,0,12.2324-12.5837C622.9288,36.77,617.8137,31.5246,610.769,31.5017Z" style="fill:#e8e8e8"/><path d="M388.1575,150.958c11.2565,30.8737,22.4906,61.7557,34.3463,92.4071-1.2619,1.9924-4.2462,1.2717-5.4034,3.43-1.4325-1.0244-2.7594-.1988-4.0689.2845-4.1641,1.5368-8.3523,3.02-12.4541,4.7114-9.2662,3.82-18.946,6.5923-27.9579,11.0518-3.4429.1053-6.8213,1.2551-10.3426.1689-5.3048-1.6364-8.7651-5.223-11.31-9.9258q-.3567-.4-.7132-.8006l.0006-.003c.1108-.6625.143-1.2964-.5979-1.65l.002.0026c.1066-.6619.1358-1.2959-.5988-1.6531l.0029.0048c.1028-.6617.1264-1.2947-.6-1.656l.0045.0085c.097-.6609.1169-1.2938-.6012-1.6593l.0056.0112c.0922-.67.1248-1.3177-.6317-1.666l.0243.04c.0489-2.2708-.0875-4.467-2.34-5.8112-.4705-1.2053-.9634-2.4024-1.4082-3.6171q-8.3042-22.6783-16.5963-45.3611c-.71-6.8761.6756-12.9552,6.4693-17.4418a17.6168,17.6168,0,0,1,4.8093-2.5728Q363.1743,160.1,388.1575,150.958Z" style="fill:#acb3b9"/><path d="M418.8153,252.38c4.9757,13.699,9.9047,27.4152,14.971,41.0806.8852,2.3877.7668,3.5967-1.9222,4.5763-8.8041,3.2072-17.5189,6.6621-26.2382,10.0977-1.6354.6444-2.6684.7635-3.8108-.9949-8.5183-13.1122-17.1566-26.1465-25.7573-39.2052,5.8632-2.1232,11.7183-4.2691,17.5915-6.3643C402.0611,258.5693,410.1556,254.7,418.8153,252.38Z" style="fill:#558834"/><path d="M326.9195,189.2753q8.2965,22.6812,16.5963,45.3611c.4448,1.2147.9377,2.4118,1.4079,3.617.6731,1.98,1.0891,4.0638,2.34,5.8112l-.0243-.04a1.6809,1.6809,0,0,0,.6318,1.6659l-.0057-.0111a1.5932,1.5932,0,0,0,.6012,1.6592l-.0045-.0084a1.5824,1.5824,0,0,0,.6,1.6559l-.0029-.0048a1.5743,1.5743,0,0,0,.5988,1.6531l-.002-.0026a1.5649,1.5649,0,0,0,.5979,1.65l-.0006.003a.7807.7807,0,0,0,.1213.7376c-2.7271,2.5328-7.5565,2.7843-11.8454.5673a13.86,13.86,0,0,1-6.8-7.7714c-4.8619-13.0918-9.8375-26.1427-14.5593-39.2848A12.8331,12.8331,0,0,1,326.9195,189.2753Z" style="fill:#558834"/><path d="M418.8153,252.38c-8.66,2.3206-16.7542,6.1895-25.1659,9.19-5.8732,2.0952-11.7283,4.2411-17.5915,6.3643-1.5688-1.4118-2.3761-3.3379-3.4386-5.0917,9.0119-4.46,18.6917-7.2314,27.9579-11.0518,4.1018-1.6911,8.29-3.1746,12.4541-4.7114,1.31-.4833,2.6364-1.3089,4.0689-.2845C417.3731,248.7483,418.9686,250.2956,418.8153,252.38Z" style="fill:#558834"/><path d="M350.375,253.0227a.7807.7807,0,0,1-.1213-.7376q.3566.4006.7132.8006l-.3.0069Z" style="fill:#ccd5df"/><path d="M582.9047,44.1141A12.353,12.353,0,0,0,570.724,31.5018c-6.9107-.0266-12.8034,5.5382-12.8686,12.1524a13.2817,13.2817,0,0,0,12.6564,12.9119A12.4593,12.4593,0,0,0,582.9047,44.1141Z" style="fill:#a3abb0"/><path d="M638.5133,44.1337A12.4382,12.4382,0,0,0,650.92,56.5652a12.89,12.89,0,0,0,12.4483-12.5747,12.5352,12.5352,0,0,0-12.8116-12.4881C643.5336,31.5689,638.4854,36.8635,638.5133,44.1337Z" style="fill:#a3abb0"/><path d="M622.9412,43.9831c-.0124-7.2134-5.1275-12.4584-12.1721-12.4814a12.6882,12.6882,0,0,0-12.6852,12.6216,13.0909,13.0909,0,0,0,12.625,12.4435A12.4481,12.4481,0,0,0,622.9412,43.9831Z" style="fill:#a3abb0"/><path d="M347.264,244.0647c-1.2511-1.7474-1.6671-3.8312-2.34-5.8112C347.1765,239.5977,347.3129,241.7939,347.264,244.0647Z" style="fill:#ccd5df"/><path d="M347.8714,245.69a1.6809,1.6809,0,0,1-.6318-1.6659C347.9962,244.3728,347.9636,245.02,347.8714,245.69Z" style="fill:#ccd5df"/><path d="M348.467,247.3386a1.5932,1.5932,0,0,1-.6012-1.6592C348.5839,246.0448,348.564,246.6777,348.467,247.3386Z" style="fill:#ccd5df"/><path d="M349.0626,248.9861a1.5824,1.5824,0,0,1-.6-1.6559C349.189,247.6913,349.1653,248.3244,349.0626,248.9861Z" style="fill:#ccd5df"/><path d="M349.6584,250.6344a1.5743,1.5743,0,0,1-.5988-1.6531C349.7942,249.3385,349.765,249.9725,349.6584,250.6344Z" style="fill:#ccd5df"/><path d="M350.2543,252.2821a1.5649,1.5649,0,0,1-.5979-1.65C350.3973,250.9856,350.3651,251.62,350.2543,252.2821Z" style="fill:#ccd5df"/><path d="M337.4917,410.3866c-35.5562,5.2538-71.2474,9.1671-107.1488,11.1491-4.5087.2489-9.1589-.2217-13.5542,1.3844H205.1832a25.9092,25.9092,0,0,0-13.9265,0H180.4249a23.6344,23.6344,0,0,0-13.1528,0H156.44c-5.1987-1.5544-10.6055-1.1589-15.9036-1.4635-26.3564-1.5152-52.59-4.19-78.7609-7.5976-18.8724-2.4571-37.6821-5.2974-56.4047-8.7206-5.5655-1.0176-5.5525-.93-5.28-6.4453.8825-17.8952,3.0441-35.5441,7.7073-52.9486,4.24-15.8263,13.26-27.38,27.5781-34.8873,13.218-6.9307,27.4737-10.7454,42.1016-13.3005,1.776.2842,2.2763,1.663,2.3137,3.1056.2672,10.3038,3.77,19.838,6.9242,29.4512,5.6782,17.3061,14.5844,32.4729,29.0536,44.0079a203.1758,203.1758,0,0,0,67.2471,35.8809,6.8,6.8,0,0,0,4.4544-.1089c8.8176-2.91,17.1184-7.0355,25.4539-11.02a236.4677,236.4677,0,0,0,43.7062-26.6092c7.1206-5.5549,14.2448-11.2363,18.946-19.4232,6.6528-11.5857,11.21-23.9244,14.7762-36.7057,4.7078,1.0811,8.8255,3.5525,12.9738,5.8215,12.1954,6.6707,20.7754,16.4028,25.0373,29.8675C334.4013,370.8972,336.5363,390.5409,337.4917,410.3866Z" style="fill:#558834"/><path d="M191.2567,422.92a25.9092,25.9092,0,0,1,13.9265,0Z" style="fill:#558834"/><path d="M167.2721,422.92a23.6344,23.6344,0,0,1,13.1528,0Z" style="fill:#558834"/><path d="M96.118,293.7256c9.6526-2.1126,19.4375-3.7511,28.3549-8.383,6.8675-3.5672,11.6987-9.1152,15.6892-15.5752,1.4878-2.4085.6621-3.9857-1.2614-5.61a92.64,92.64,0,0,1-24.0814-32.1917,149.4025,149.4025,0,0,1-10.2273-31.87,32.1776,32.1776,0,0,1,4.1985.4339c3.5656.8293,4.5936-.4537,4.4929-4.0735-.3333-11.9749,1.1669-24.0626-2.5478-35.7957,1.3306-1.1738.6325-2.5344.4675-3.9226-1.0736-9.0326-.7051-17.9743,2.9461-26.4278,1.0478-2.426,2.3611-5.1909,5.96-5.2955a121.298,121.298,0,0,1,24.0863,2.0455,190.4732,190.4732,0,0,1,42.291,12.66,3.6151,3.6151,0,0,0,3.2618.0378,175.82,175.82,0,0,1,28.0054-9.6715,157.5588,157.5588,0,0,1,31.3912-5.0356c1.8176-.1153,3.1886.0283,3.273,2.5345.4142,12.3068.8983,24.6129,1.5457,36.9094.2925,5.557-1.0588,10.9895-.8246,16.526.2453,5.8006-.8262,11.5-1.8381,17.1541a124.5824,124.5824,0,0,1-22.1283,51.9132c-9.2911,12.7983-19.666,24.334-33.6311,32.1869-.883.4966-1.9439.8276-1.9976,2.1108-2.1473.2566-4.3937,1.0486-6.4252.6742-8.0192-1.4781-16.0658-2.9363-23.6024-6.3124-3.5821-1.6047-7.289-2.9307-10.9394-4.3828a1.0173,1.0173,0,0,0-.1254-.264c-.0387-.044-.135-.0376-.2054-.0537l.3195.3292c6.9263,5.9771,15.2041,9.3667,23.74,12.1549,5.7148,1.8666,11.533,3.5017,17.6517,1.7091,2.9394-.8612,5.8117-2.0009,8.9043-2.2646,2.9678,5.8294,8.1549,9.0081,13.8757,11.4831,7.0965,3.07,14.6728,4.4829,22.1757,6.0693,10.621,2.2457,21.2879,4.2736,31.9361,6.3949a3.3736,3.3736,0,0,1,.0315.7646c-.69,1.2213-1.4644,2.403-2.0556,3.67a87.9622,87.9622,0,0,1-13.3124,20.6342c-16.6014,19.0953-38.2189,26.9453-62.93,27.5557a154.9483,154.9483,0,0,1-28.0321-1.4575c-15.3761-2.421-28.9866-8.4577-40.5533-18.95C109.5073,328.9946,101.3075,312.2267,96.118,293.7256Z" style="fill:#e7c49d"/><path d="M110.7356,160.6594c3.7147,11.7331,2.2145,23.8208,2.5478,35.7957.1007,3.62-.9273,4.9028-4.4929,4.0735a32.1776,32.1776,0,0,0-4.1985-.4339l.0111.0121c-1.0432-6.0746-2.0448-12.1566-3.1386-18.2221-1.9785-10.9717-4.0119-21.9336-6.0223-32.9-.7584-10.917-1.8783-21.8027-1.793-32.78.1057-13.5945,1.3366-27.063,4.9656-40.1456,3.4987-12.6129,11.5535-22.2741,21.8168-30.1373C133.56,35.8641,148.74,30.84,164.8622,28.5036c19.2993-2.7967,38.5769-2.4407,57.5767,2.2322,21.5237,5.2936,39.7126,15.6118,50.9829,35.6466,4.9038,8.7173,6.2272,18.4549,7.5508,28.1441,2.4764,18.1275,1.5,36.2372-.5324,54.33-.4455,2.399-.9248,4.7916-1.3313,7.1966q-3.7213,22.0163-7.4151,44.0373l.0211-.0234c-1.665.1619-3.3561.1917-4.9889.5157-2.582.5124-3.7817-.0715-3.7-3.04.11-3.98-.4068-7.9751-.3523-11.96.07-5.1284-.9835-10.3394.4394-15.3728a102.4456,102.4456,0,0,0,3.6218-16.1613c1.1938-10.441.2615-20.5486-5.1147-29.907-1.74-3.03-3.8392-4.5844-7.6689-4.4946-21.2618.4982-41.4735,5.5942-61.0363,13.5508-3.2841,1.3357-5.9274,1.6321-9.4038.2051-19.7708-8.1161-40.2182-13.3889-61.7653-13.7466a7.2212,7.2212,0,0,0-7.1312,4.1129C108.0448,135.5144,107.3028,147.8658,110.7356,160.6594Zm136.87-83.2453c-4.674-.4921-9.3732.0745-14.1024.3379a188.2746,188.2746,0,0,0-30.07,3.6706c-8.5542,1.88-16.6064,5.3486-25.9314,1.3219-8.5232-3.6805-18.2432-3.935-27.5149-4.6128-7.3133-.5346-14.6957-1.6526-22.1036-.7044,3.8653.7907,7.7654,1.2919,11.63,1.989,13.2537,2.3908,26.5356,4.8938,39.0165,10.049,6.212,2.5658,11.8454,4.4342,17.9074.206a12.5009,12.5009,0,0,1,2.9112-.9853C214.9545,83.0358,231.2092,80.2057,247.6053,77.4141Z" style="fill:#545250"/><path d="M110.7356,160.6594c-3.4327-12.7936-2.6907-25.1449,3.8793-36.89a7.2212,7.2212,0,0,1,7.1312-4.1129c21.5471.3577,41.9944,5.6305,61.7653,13.7466,3.4764,1.4271,6.12,1.1307,9.4038-.2051,19.5628-7.9566,39.7745-13.0526,61.0363-13.5508,3.83-.09,5.9285,1.465,7.6689,4.4946,5.3762,9.3583,6.3086,19.4659,5.1147,29.907a102.4456,102.4456,0,0,1-3.6218,16.1613c-1.4229,5.0334-.3693,10.2444-.4394,15.3728-.0545,3.9845.4621,7.98.3523,11.96-.0819,2.9682,1.1178,3.5521,3.7,3.04,1.6327-.324,3.3238-.3538,4.9889-.5157-3.3744,15.78-8.3758,30.9387-17.2621,44.5762a80.5245,80.5245,0,0,1-15.4352,18.08c-4.5034,3.782-4.55,4.0671-1.432,9.1121,6.11,9.886,15.3762,15.174,26.3109,18.0151,4.2034,1.0921,8.4129,2.1612,12.6192,3.2406q-.0885,1.1086-.1762,2.2175l-5.4906,14.6132c-10.6473-2.121-21.3143-4.1489-31.9352-6.3946-7.5028-1.5864-15.0791-2.999-22.1757-6.0693-5.7208-2.4751-10.9079-5.6537-13.8757-11.4831.8261-1.09,2.2116-1.1266,3.2639-1.7392,3.8279-2.2286,8.5583-2.9494,11.4391-6.7675.7113-.0932,1.5654.2524,2.011-.6412.0346-.0693-.0786-.3083-.14-.3153a1.87,1.87,0,0,0-1.8754.9508,7.2149,7.2149,0,0,0-3.6231,1.0212,81.5672,81.5672,0,0,1-20.3936,5.9009c.054-1.2827,1.1149-1.6137,1.998-2.11,13.9651-7.8529,24.34-19.3885,33.6311-32.1869a124.5824,124.5824,0,0,0,22.1283-51.9132c1.0119-5.6544,2.0835-11.3534,1.8381-17.1541-.2342-5.5365,1.1171-10.969.8246-16.526-.6474-12.2965-1.1315-24.6026-1.5457-36.9094-.0844-2.5061-1.4554-2.65-3.273-2.5345a157.5588,157.5588,0,0,0-31.3912,5.0356,175.82,175.82,0,0,0-28.0054,9.6715,3.6151,3.6151,0,0,1-3.2618-.0378,190.4732,190.4732,0,0,0-42.291-12.66,121.298,121.298,0,0,0-24.0863-2.0455c-3.5992.1046-4.9125,2.87-5.96,5.2955-3.6512,8.4535-4.02,17.3952-2.9461,26.4278C111.368,158.125,112.0661,159.4856,110.7356,160.6594Zm110.991,114.8949-.5849-.0488c.0908.074.1774.2.2736.2078C221.514,275.7213,221.6222,275.614,221.7265,275.5543Z" style="fill:#dbb48d"/><path d="M290.353,316.1348c-3.5667,12.7813-8.1233,25.12-14.7762,36.7057-4.7012,8.187-11.8254,13.8684-18.946,19.4232a236.4677,236.4677,0,0,1-43.7062,26.6092c-8.3356,3.9849-16.6363,8.1106-25.4539,11.02a6.8,6.8,0,0,1-4.4544.1089,203.1758,203.1758,0,0,1-67.2471-35.8809C101.3,362.5864,92.3938,347.42,86.7157,330.1135c-3.1541-9.6132-6.657-19.1474-6.9242-29.4512-.0374-1.4426-.5378-2.8214-2.3137-3.1056l17.6783-3.7495c.8832,13.9138,5.0661,26.975,10.4828,39.6745,2.4639,5.7766,4.6508,11.8012,9.0136,16.519,18.9831,20.5278,42.52,33.8175,68.6366,42.9841a3.754,3.754,0,0,0,2.934-.0657c22.558-9.3412,44.02-20.6,63.2992-35.7589a56.0346,56.0346,0,0,0,17.8321-24.1991c2.7739-7.0686,5.0388-14.2831,7.47-21.4541a10.86,10.86,0,0,1,4.1.7143c3.7667,1.1095,7.5643,2.1141,11.35,3.16Q290.3013,315.7593,290.353,316.1348Z" style="fill:#558834"/><path d="M290.353,316.1348q-.0517-.3755-.08-.7535c1.6-6.2915,2.7675-12.6364,2.3708-19.1748l1.5251.1.9261.409c19.7206,3.6629,39.25,7.8853,55.6626,20.4882,8.9973,6.9089,14.3378,16.1789,17.4356,27.0043a219.64,219.64,0,0,1,7.9851,52.6969c.2623,7.1874.32,7.4-6.9042,8.6483-9.46,1.635-18.9857,2.8913-28.4834,4.31a1.7082,1.7082,0,0,0-1.717.4684l-1.5824.055c-.9555-19.8456-3.09-39.4893-9.1276-58.5627-4.2619-13.4647-12.842-23.1968-25.0373-29.8675C299.1786,319.6873,295.0609,317.2159,290.353,316.1348Z" style="fill:#558834"/><path d="M274.8241,311.5069c-2.4309,7.171-4.6958,14.3855-7.47,21.4541A56.0346,56.0346,0,0,1,249.5223,357.16c-19.2793,15.1587-40.7412,26.4177-63.2992,35.7589a3.754,3.754,0,0,1-2.934.0657c-26.1161-9.1666-49.6535-22.4563-68.6366-42.9841-4.3628-4.7178-6.55-10.7424-9.0136-16.519-5.4167-12.6995-9.6-25.7606-10.4828-39.6745l.9617-.0816c5.19,18.5012,13.39,35.2691,27.88,48.4138,11.5667,10.4922,25.1772,16.5289,40.5533,18.95a154.9483,154.9483,0,0,0,28.0321,1.4575c24.7107-.61,46.3282-8.46,62.93-27.5557a87.9622,87.9622,0,0,0,13.3124-20.6342c.5912-1.2673,1.3658-2.449,2.0563-3.67q1.8794.035,3.7575.0689Q274.7315,311.1314,274.8241,311.5069Z" style="fill:#e8e3da"/><path d="M95.4421,148.9852c2.01,10.966,4.0439,21.9278,6.0223,32.9,1.0937,6.0654,2.0954,12.1474,3.1386,18.2221-3.967-.249-6.8581-2.6208-8.8819-5.5735-8.4426-12.3173-11.8059-25.5314-5.6776-39.9368C91.0691,152.1857,92.3891,149.642,95.4421,148.9852Z" style="fill:#e6c49e"/><path d="M271.6937,200.09q3.7048-22.0191,7.4151-44.0373c.4065-2.4049.8858-4.7976,1.3313-7.1966,5.9895,2.7266,7.4011,8.4082,8.0537,13.9429,1.2977,11.0038-.8371,21.4281-7.2932,30.7085C278.8495,196.8872,275.8671,199.3464,271.6937,200.09Z" style="fill:#dbb48e"/><path d="M274.8241,311.5069q-.0926-.3755-.1845-.751c1.0132-5.1,2.272-10.173,1.7-15.4474q.0879-1.1088.1762-2.2175a113.2153,113.2153,0,0,1,16.1288,3.1155c.3968,6.5383-.7707,12.8832-2.3708,19.1747-3.7856-1.046-7.5831-2.0506-11.35-3.16A10.86,10.86,0,0,0,274.8241,311.5069Z" style="fill:#558834"/><path d="M339.0741,410.3316a1.7082,1.7082,0,0,1,1.717-.4684A1.6715,1.6715,0,0,1,339.0741,410.3316Z" style="fill:#3b8d93"/><path d="M295.0955,296.7151l-.9261-.409Z" style="fill:#53989e"/><path d="M217.5652,277.468c-2.8809,3.818-7.6113,4.5389-11.4392,6.7674-1.0523.6126-2.4378.6491-3.2639,1.7392-3.0926.2637-5.965,1.4034-8.9043,2.2646-6.1187,1.7926-11.937.1575-17.6517-1.7091-8.5363-2.7882-16.814-6.1778-23.74-12.1549l.0114-.0116c3.65,1.4522,7.3573,2.7783,10.9394,4.3829,7.5367,3.3762,15.5832,4.8344,23.6024,6.3124,2.0315.3745,4.2779-.4176,6.4252-.6742a81.5909,81.5909,0,0,0,20.3932-5.9014,7.2149,7.2149,0,0,1,3.6231-1.0212Z" style="fill:#cda382"/><path d="M276.3393,295.3085c.5722,5.2744-.6866,10.3474-1.7,15.4474q-1.8788-.0342-3.7578-.0689a3.42,3.42,0,0,0-.0321-.7651Q273.5936,302.6149,276.3393,295.3085Z" style="fill:#ddd8d0"/><path d="M152.5657,274.3753l-.3195-.3292c.07.0162.1666.01.2054.0537a1.0173,1.0173,0,0,1,.1254.264Z" style="fill:#cda382"/><path d="M247.6053,77.4141c-16.3961,2.7917-32.6508,5.6217-48.2576,11.2719a12.5009,12.5009,0,0,0-2.9112.9853c-6.062,4.2282-11.6955,2.36-17.9074-.206-12.481-5.1552-25.7628-7.6582-39.0165-10.049-3.8647-.6971-7.7648-1.1983-11.63-1.989,7.4079-.9482,14.79.17,22.1036.7044,9.2717.6778,18.9917.9322,27.5149,4.6128,9.325,4.0268,17.3772.5583,25.9314-1.3219a188.2746,188.2746,0,0,1,30.07-3.6706C238.2321,77.4886,242.9314,76.922,247.6053,77.4141Z" style="fill:#5f5d5a"/><path d="M217.56,277.4623a1.87,1.87,0,0,1,1.8754-.9508c.0617.0069.1749.2459.14.3153-.4455.8936-1.3.5481-2.011.6412Z" style="fill:#cda382"/><path d="M221.7264,275.5557c-.1042.0582-.2124.1656-.3112.1576-.0962-.0078-.1828-.1337-.2736-.2078C221.3366,275.5218,221.5316,275.538,221.7264,275.5557Z" style="fill:#cda382"/></svg>