<svg width="145" height="169" viewBox="0 0 145 169" fill="none" xmlns="http://www.w3.org/2000/svg">
<g clip-path="url(#clip0)">
<rect width="145" height="169" fill="#111D23"/>
<rect width="145" height="169" fill="#111D23"/>
<path fill-rule="evenodd" clip-rule="evenodd" d="M-141.242 31.9041C-143.647 34.2938 -145 37.5441 -145 40.9346L-145 156.27C-145 163.301 -139.301 169 -132.27 169L49.9488 169C53.308 169 56.5311 167.672 58.9155 165.306L64.4995 159.765C66.884 157.399 70.107 156.071 73.4662 156.071H132.27C139.301 156.071 145 150.372 145 143.341V12.7299C145 5.69938 139.301 0 132.27 0L-103.882 0C-107.244 0 -110.47 1.3299 -112.854 3.69943L-141.242 31.9041Z" fill="#060E11"/>
</g>
<defs>
<clipPath id="clip0">
<rect width="145" height="169" fill="white"/>
</clipPath>
</defs>
</svg>
