<svg width="12" height="12" viewBox="0 0 12 12" fill="none" xmlns="http://www.w3.org/2000/svg">
<path d="M4.24996 8.33329H5.41663V3.66663H4.24996V8.33329ZM5.99996 0.166626C2.77996 0.166626 0.166626 2.77996 0.166626 5.99996C0.166626 9.21996 2.77996 11.8333 5.99996 11.8333C9.21996 11.8333 11.8333 9.21996 11.8333 5.99996C11.8333 2.77996 9.21996 0.166626 5.99996 0.166626ZM5.99996 10.6666C3.42746 10.6666 1.33329 8.57246 1.33329 5.99996C1.33329 3.42746 3.42746 1.33329 5.99996 1.33329C8.57246 1.33329 10.6666 3.42746 10.6666 5.99996C10.6666 8.57246 8.57246 10.6666 5.99996 10.6666ZM6.58329 8.33329H7.74996V3.66663H6.58329V8.33329Z" fill="#666666"/>
</svg>
