<svg id="Layer_1" data-name="Layer 1" xmlns="http://www.w3.org/2000/svg" viewBox="0 0 47.14 35.44"><defs><style>.cls-1{fill:#818181;}</style></defs><title>platinum</title><path class="cls-1" d="M441,430l-.45,2.14H425.33l-.5-2.14Zm-23.66,4.58,1.07,4.28h29.06l1.07-4.28Zm38.08-27.48a2.13,2.13,0,0,0-2.57.35l-11,11-8.88-15-9,14.93L413,407.46a2.14,2.14,0,0,0-3.6,2l7.36,22.84h4.41L415.43,416l7.38,7.38a2.21,2.21,0,0,0,1.64.63,2.15,2.15,0,0,0,1.55-.8l6.9-11.54,6.9,11.54a2.14,2.14,0,0,0,1.55.8,2.18,2.18,0,0,0,1.64-.63l7.38-7.38-5.74,16.37h4.42l7.35-22.84A2.12,2.12,0,0,0,455.38,407.11Z" transform="translate(-409.33 -403.44)"/></svg>