<svg id="Calque_1" data-name="Calque 1" xmlns="http://www.w3.org/2000/svg" viewBox="0 0 35.36 35"><defs><style>.cls-1{fill:#e6e6e6;}</style></defs><title>preview_preload</title><path class="cls-1" d="M311.85,413.34h-7.47a8.84,8.84,0,0,0,2.22-.76,4.62,4.62,0,1,0-4.59-8c-1.25.71-2.88,3.48-4.06,5.73a2.47,2.47,0,0,0-1.85,0c-1.17-2.25-2.81-5-4.06-5.73a4.62,4.62,0,1,0-4.59,8,9,9,0,0,0,2.22.76H282.2a2.86,2.86,0,0,0-2.85,2.85v4.12a1.18,1.18,0,0,0,1.18,1.18H281v14.6a2.85,2.85,0,0,0,2.85,2.85h26.31a2.86,2.86,0,0,0,2.86-2.85v-14.6h.48a1.18,1.18,0,0,0,1.18-1.18v-4.12A2.86,2.86,0,0,0,311.85,413.34Zm.49,2.85v2.94H299.59v-3.42h12.26A.48.48,0,0,1,312.34,416.19Zm-9.28-9.81a2.58,2.58,0,0,1,1.24-.33,2.54,2.54,0,0,1,2.19,1.27,2.52,2.52,0,0,1-.94,3.42c-.85.49-3.64,1-6,1.3l0-.11C300.82,409.3,302.36,406.79,303.06,406.38Zm-15.74,2.85a2.51,2.51,0,0,1,2.43-3.18,2.58,2.58,0,0,1,1.24.33c.71.41,2.24,2.92,3.58,5.55l0,.11c-2.4-.32-5.19-.81-6-1.3A2.51,2.51,0,0,1,287.32,409.23Zm-5.61,7a.48.48,0,0,1,.49-.48h12.26v3.42H281.71Zm1.67,19.9v-14.6h11.08v15.08H283.87A.49.49,0,0,1,283.38,436.09Zm27.29,0a.49.49,0,0,1-.49.48H299.59V421.49h11.08Z" transform="translate(-279.35 -403.94)"/></svg>