<?xml version="1.0" encoding="utf-8"?>
<!-- Generator: Adobe Illustrator 25.2.0, SVG Export Plug-In . SVG Version: 6.00 Build 0)  -->
<svg version="1.1" id="Layer_1" xmlns="http://www.w3.org/2000/svg" xmlns:xlink="http://www.w3.org/1999/xlink" x="0px" y="0px"
	 viewBox="0 0 226.4 112.5" style="enable-background:new 0 0 226.4 112.5;" xml:space="preserve">
<style type="text/css">
	.st0{fill:none;stroke:#FFFFFF;stroke-miterlimit:10;}
	.st1{fill:#FFFFFF;}
	.st2{fill:#E7B809;}
	.st3{fill:#FFDD00;}
	.st4{fill:#0055A3;}
	.st5{fill:#A30046;}
	.st6{fill:#E21936;}
	.st7{fill:#231F20;}
	.st8{fill:#00BE40;}
</style>
<g>
	<g id="ARTE">
		<g>
			<line class="st0" x1="113.5" y1="0" x2="113.5" y2="71.7"/>
			<path class="st1" d="M0,87h3.8c2.3,0,3.5,1.1,3.5,3.3c0,1.5-0.9,2.8-2.3,3.3h-3v3.8H0V87z M4.4,91.7c0.6-0.3,0.9-0.9,0.9-1.5
				c0-0.7-0.5-1.3-1.2-1.3c-0.1,0-0.2,0-0.3,0H2.1v2.8H4.4z"/>
			<path class="st1" d="M8.2,96.1l2.5-9.2H14l2.5,9.2v1.2h-1.9l-0.6-2.2c-0.6,0.1-1.2,0.2-1.8,0.2c-0.6,0-1.2-0.1-1.8-0.2L10,97.3
				H8.2V96.1z M11,93.4c0.4,0.1,0.9,0.1,1.3,0.1c0.5,0,0.9,0,1.4-0.1l-0.6-2.3c-0.2-1-0.5-2.3-0.5-2.3h-0.4c0,0-0.3,1.3-0.6,2.3
				L11,93.4z"/>
			<path class="st1" d="M18.1,87H22c2.2,0,3.5,1.1,3.5,3.1c0,1.4-0.8,2.6-2.1,3.1c0.6,1,1.3,2,2.1,2.9v1.2h-1.6
				c-1-1.2-1.9-2.5-2.6-3.9h-1.1v3.9h-2.1V87z M22.5,91.5c0.6-0.2,1-0.7,1-1.4c0.1-0.7-0.4-1.2-1.1-1.3c-0.1,0-0.2,0-0.2,0h-1.9v2.6
				H22.5z"/>
			<path class="st1" d="M26.8,90.8c0-2.7,1.4-4,3.8-4c1.1-0.1,2.3,0.4,3.1,1.2v1.6H32c0,0-0.1-0.9-1.4-0.9c-1.4,0-1.8,0.7-1.8,2.1
				v2.7c0,1.4,0.4,2.1,1.8,2.1c1.3,0,1.4-0.9,1.4-0.9h1.7v1.6c-0.8,0.8-1.9,1.2-3.1,1.2c-2.5,0-3.8-1.2-3.8-4L26.8,90.8z"/>
			<polygon class="st1" points="35.3,87 41.9,87 41.6,88.8 37.4,88.8 37.4,91.2 41.2,91.2 41.2,93.1 37.4,93.1 37.4,95.4 41.7,95.4 
				41.7,97.3 35.3,97.3 			"/>
			<polygon class="st1" points="44.1,95.7 44.1,88.6 43.1,88.4 43.1,87 47.2,87 47.2,88.4 46.2,88.6 46.2,95.7 47.2,95.9 47.2,97.3 
				43.1,97.3 43.1,95.9 			"/>
			<path class="st1" d="M48.9,87h3.9c2.2,0,3.5,1.1,3.5,3.1c0,1.4-0.8,2.6-2.1,3.1c0.6,1,1.3,2,2.1,2.9v1.2h-1.6
				c-1-1.2-1.9-2.5-2.6-3.9H51v3.9h-2.1L48.9,87z M53.3,91.5c0.6-0.2,1-0.7,1-1.4c0.1-0.7-0.4-1.2-1.1-1.3c-0.1,0-0.2,0-0.2,0H51
				v2.6H53.3z"/>
			<path class="st1" d="M57.3,96.1l2.5-9.2h3.3l2.5,9.2v1.2h-1.9l-0.6-2.2c-0.6,0.1-1.2,0.2-1.8,0.2c-0.6,0-1.2-0.1-1.8-0.2
				l-0.6,2.2h-1.8V96.1z M60.1,93.4c0.4,0.1,0.9,0.1,1.3,0.1c0.5,0,0.9,0,1.4-0.1l-0.6-2.3c-0.2-1-0.5-2.3-0.5-2.3h-0.4
				c0,0-0.3,1.3-0.6,2.3L60.1,93.4z"/>
			<path class="st1" d="M70.3,87H74c2.5,0,3.8,1.2,3.8,4v2.4c0,2.8-1.4,4-3.8,4h-3.7V87z M72.4,88.8v6.6h1.5c1.3,0,1.9-0.5,1.9-1.9
				v-2.8c0-1.4-0.6-1.9-1.9-1.9H72.4z"/>
			<polygon class="st1" points="79.7,87 86.2,87 85.9,88.8 81.7,88.8 81.7,91.2 85.5,91.2 85.5,93.1 81.7,93.1 81.7,95.4 86.1,95.4 
				86.1,97.3 79.7,97.3 			"/>
			<polygon class="st1" points="94.6,88.8 94.6,97.3 92.6,97.3 92.6,88.8 90.1,88.8 90.1,87 97.2,87 96.9,88.8 			"/>
			<path class="st1" d="M98.4,87h3.9c2.2,0,3.5,1.1,3.5,3.1c0,1.4-0.8,2.6-2.1,3.1c0.6,1,1.3,2,2.1,2.9v1.2h-1.6
				c-1-1.2-1.9-2.5-2.6-3.9h-1.1v3.9h-2.1L98.4,87z M102.7,91.5c0.6-0.2,1-0.7,1-1.4c0.1-0.7-0.4-1.2-1.1-1.3c-0.1,0-0.2,0-0.2,0
				h-1.9v2.6H102.7z"/>
			<path class="st1" d="M106.8,96.1l2.5-9.2h3.3l2.5,9.2v1.2h-1.9l-0.6-2.2c-0.6,0.1-1.2,0.2-1.8,0.2c-0.6,0-1.2-0.1-1.8-0.2
				l-0.6,2.2h-1.8L106.8,96.1z M109.6,93.4c0.4,0.1,0.9,0.1,1.3,0.1c0.5,0,0.9,0,1.4-0.1l-0.6-2.3c-0.2-1-0.5-2.3-0.5-2.3h-0.4
				c0,0-0.3,1.3-0.6,2.3L109.6,93.4z"/>
			<path class="st1" d="M116.8,87h3.7c2.5,0,3.8,1.2,3.8,4v2.4c0,2.8-1.4,4-3.8,4h-3.7V87z M118.8,88.8v6.6h1.5
				c1.3,0,1.9-0.5,1.9-1.9v-2.8c0-1.4-0.6-1.9-1.9-1.9H118.8z"/>
			<polygon class="st1" points="126.7,95.7 126.7,88.6 125.7,88.4 125.7,87 129.8,87 129.8,88.4 128.8,88.6 128.8,95.7 129.8,95.9 
				129.8,97.3 125.7,97.3 125.7,95.9 			"/>
			<path class="st1" d="M131.5,87h1.9l2.9,4.8c0.2,0.4,0.8,1.6,0.8,1.6h0c0,0-0.1-1.1-0.1-2.1V87h2v10.3h-2v-0.8l-2.6-4.2
				c-0.3-0.6-1-1.8-1-1.8h0c0,0,0,0.9,0,2v4.9h-2L131.5,87z"/>
			<path class="st1" d="M140.9,90.8c0-2.8,1.5-4,4-4c1.2-0.1,2.3,0.4,3.1,1.2v1.6h-1.7c-0.2-0.6-0.9-1-1.5-0.9
				c-1.4,0-1.9,0.7-1.9,2.1v2.9c0,1.4,0.6,2.1,1.9,2.1c0.5,0,1.1-0.2,1.5-0.5V93h-1.6v-1.8h3.5v6.1h-1.5l-0.3-0.7h0
				c-0.6,0.6-1.4,0.9-2.2,0.8c-2.2,0-3.3-1.2-3.3-3.9L140.9,90.8z"/>
			<path class="st1" d="M153,91c0-2.7,1.4-4.1,4-4.1c2.6,0,4,1.5,4,4.1v2.3c0,2.7-1.4,4.1-4,4.1c-2.6,0-4-1.5-4-4.1V91z M157.1,95.6
				c1.4,0,1.9-0.6,1.9-2.2v-2.6c0-1.5-0.6-2.2-1.9-2.2c-1.4,0-1.9,0.6-1.9,2.2v2.6C155.1,95,155.7,95.6,157.1,95.6"/>
			<polygon class="st1" points="162.9,87 169.3,87 169,88.8 164.9,88.8 164.9,91.2 168.6,91.2 168.6,93.1 164.9,93.1 164.9,97.3 
				162.9,97.3 			"/>
			<polygon class="st1" points="171.2,95.7 171.2,88.6 170.1,88.4 170.1,87 174.2,87 174.2,88.4 173.2,88.6 173.2,95.7 174.2,95.9 
				174.2,97.3 170.1,97.3 170.1,95.9 			"/>
			<path class="st1" d="M175.6,90.8c0-2.7,1.4-4,3.8-4c1.1-0.1,2.3,0.4,3.1,1.2v1.6h-1.7c0,0-0.1-0.9-1.4-0.9
				c-1.4,0-1.8,0.7-1.8,2.1v2.7c0,1.4,0.4,2.1,1.8,2.1c1.3,0,1.4-0.9,1.4-0.9h1.7v1.6c-0.8,0.8-1.9,1.2-3.1,1.2
				c-2.5,0-3.8-1.2-3.8-4V90.8z"/>
			<polygon class="st1" points="184.7,95.7 184.7,88.6 183.7,88.4 183.7,87 187.8,87 187.8,88.4 186.8,88.6 186.8,95.7 187.8,95.9 
				187.8,97.3 183.7,97.3 183.7,95.9 			"/>
			<path class="st1" d="M188.9,96.1l2.5-9.2h3.3l2.5,9.2v1.2h-1.9l-0.6-2.2c-0.6,0.1-1.2,0.2-1.8,0.2c-0.6,0-1.2-0.1-1.8-0.2
				l-0.6,2.2h-1.8L188.9,96.1z M191.8,93.4c0.4,0.1,0.9,0.1,1.3,0.1c0.5,0,0.9,0,1.4-0.1l-0.6-2.3c-0.2-1-0.5-2.3-0.5-2.3h-0.4
				c0,0-0.3,1.3-0.6,2.3L191.8,93.4z"/>
			<polygon class="st1" points="198.9,87 201,87 201,95.4 205.1,95.4 204.8,97.3 198.9,97.3 			"/>
			<path class="st1" d="M209.4,87h3.7c2.5,0,3.8,1.2,3.8,4v2.4c0,2.8-1.4,4-3.8,4h-3.7V87z M211.4,88.8v6.6h1.5
				c1.3,0,1.9-0.5,1.9-1.9v-2.8c0-1.4-0.6-1.9-1.9-1.9H211.4z"/>
			<path class="st1" d="M218.4,91c0-2.7,1.4-4.1,4-4.1c2.6,0,4,1.5,4,4.1v2.3c0,2.7-1.4,4.1-4,4.1c-2.6,0-4-1.5-4-4.1V91z
				 M222.4,95.6c1.4,0,1.9-0.6,1.9-2.2v-2.6c0-1.5-0.6-2.2-1.9-2.2c-1.4,0-1.9,0.6-1.9,2.2v2.6C220.5,95,221,95.6,222.4,95.6"/>
			<polygon class="st1" points="64.7,102 71.1,102 70.8,103.9 66.8,103.9 66.8,106.3 70.4,106.3 70.4,108.2 66.8,108.2 66.8,112.4 
				64.7,112.4 			"/>
			<path class="st1" d="M72.1,105.9c0-2.7,1.4-4,3.8-4c1.1-0.1,2.3,0.4,3.1,1.2v1.6h-1.7c0,0-0.1-0.9-1.4-0.9
				c-1.4,0-1.8,0.7-1.8,2.1v2.7c0,1.4,0.4,2.1,1.8,2.1c1.3,0,1.4-0.9,1.4-0.9H79v1.6c-0.8,0.8-1.9,1.2-3.1,1.2c-2.5,0-3.8-1.2-3.8-4
				V105.9z"/>
			<path class="st1" d="M83.7,102h3.7c2.5,0,3.3,1.1,3.3,2.8c0,0.9-0.4,1.8-1.2,2.3v0c0.8,0.5,1.3,1.3,1.4,2.2c0,1.9-1,3-3.4,3h-3.9
				L83.7,102z M85.7,103.8v2.4h2.2c0.5-0.2,0.8-0.7,0.8-1.3c0-0.6-0.4-1.1-1-1.2c-0.1,0-0.1,0-0.2,0H85.7z M85.7,108v2.6h1.9
				c0.7,0.1,1.2-0.4,1.3-1.1c0-0.1,0-0.1,0-0.2c0-0.6-0.4-1.1-0.9-1.3H85.7z"/>
			<path class="st1" d="M92,111.2l2.5-9.2h3.3l2.5,9.2v1.2h-1.9l-0.6-2.2c-0.6,0.1-1.2,0.2-1.8,0.2c-0.6,0-1.2-0.1-1.8-0.2l-0.6,2.2
				H92V111.2z M94.8,108.5c0.4,0.1,0.9,0.1,1.3,0.1c0.5,0,0.9,0,1.4-0.1l-0.6-2.3c-0.2-1-0.5-2.3-0.5-2.3H96c0,0-0.3,1.3-0.6,2.3
				L94.8,108.5z"/>
			<path class="st1" d="M102,102h3.9c2.2,0,3.5,1.1,3.5,3.1c0,1.4-0.8,2.6-2.1,3.1c0.6,1,1.3,2,2.1,2.9v1.2h-1.6
				c-1-1.2-1.9-2.5-2.6-3.9H104v3.9H102L102,102z M106.3,106.6c0.6-0.2,1-0.7,1-1.4c0.1-0.7-0.4-1.2-1.1-1.3c-0.1,0-0.2,0-0.2,0H104
				v2.6H106.3z"/>
			<path class="st1" d="M110.7,105.9c0-2.7,1.4-4,3.8-4c1.1-0.1,2.3,0.4,3.1,1.2v1.6h-1.7c0,0-0.1-0.9-1.4-0.9
				c-1.4,0-1.8,0.7-1.8,2.1v2.7c0,1.4,0.4,2.1,1.8,2.1c1.3,0,1.4-0.9,1.4-0.9h1.7v1.6c-0.8,0.8-1.9,1.2-3.1,1.2
				c-2.5,0-3.8-1.2-3.8-4V105.9z"/>
			<polygon class="st1" points="119.2,102 125.7,102 125.4,103.9 121.3,103.9 121.3,106.3 125,106.3 125,108.2 121.3,108.2 
				121.3,110.5 125.6,110.5 125.6,112.4 119.2,112.4 			"/>
			<polygon class="st1" points="127.4,102 129.5,102 129.5,110.5 133.6,110.5 133.3,112.4 127.4,112.4 			"/>
			<path class="st1" d="M134.5,106c0-2.7,1.4-4.1,4-4.1c2.6,0,4,1.5,4,4.1v2.3c0,2.7-1.4,4.1-4,4.1c-2.6,0-4-1.5-4-4.1V106z
				 M138.5,110.7c1.4,0,1.9-0.6,1.9-2.2v-2.6c0-1.5-0.6-2.2-1.9-2.2c-1.4,0-1.9,0.6-1.9,2.2v2.6C136.6,110,137.2,110.7,138.5,110.7"
				/>
			<path class="st1" d="M144.4,102h1.9l2.9,4.8c0.2,0.4,0.8,1.6,0.8,1.6h0c0,0-0.1-1.1-0.1-2.1V102h2v10.3h-2v-0.8l-2.6-4.2
				c-0.3-0.6-1-1.8-1-1.8h0c0,0,0,0.9,0,2v4.9h-2L144.4,102z"/>
			<path class="st1" d="M153.5,111.2l2.5-9.2h3.3l2.5,9.2v1.2h-1.9l-0.6-2.2c-0.6,0.1-1.2,0.2-1.8,0.2c-0.6,0-1.2-0.1-1.8-0.2
				l-0.6,2.2h-1.8L153.5,111.2z M156.4,108.5c0.4,0.1,0.9,0.1,1.3,0.1c0.5,0,0.9,0,1.4-0.1l-0.6-2.3c-0.2-1-0.5-2.3-0.5-2.3h-0.4
				c0,0-0.3,1.3-0.6,2.3L156.4,108.5z"/>
			<path class="st2" d="M191.1,1.2l0.4,0.2c3.9,2.6,7.1,3.1,11.9,3.1c1.8,0,3.6-0.3,5.3-0.9l0.5-0.2l2.3,3.2L211.1,7
				c-8.5,11.3-1.9,23.4,2.8,28.3l0.4,0.4l-0.4,0.4c-0.6,0.6-1.7,1.7-2.5,2.5l-0.3,0.3l0,0.4l0,0.1c0,0.1,0,0.2,0,0.4l0,0.1
				c0.4,7.5-1.6,13.7-5.8,18.3c-4.5,4.9-11.6,7.9-20,8.4l-0.3,0l-0.2,0.2c-2.1,1.9-4.3,3.6-4.3,3.6l-0.4,0.3l-0.4-0.3
				c-0.1-0.1-2.2-1.7-4.3-3.6l-0.2-0.2l-0.3,0c-8.4-0.5-15.5-3.4-20-8.4c-4.2-4.7-6.2-10.8-5.8-18.3l0-0.1c0-0.2,0-0.3,0-0.4l0,0v0
				l0-0.1l0-0.4l-0.3-0.3c-0.7-0.8-1.8-1.9-2.5-2.5l-0.4-0.4l0.4-0.4c4.7-4.9,11.3-17,2.8-28.3l-0.2-0.3l2.3-3.2l0.5,0.2
				c1.7,0.6,3.5,0.9,5.3,0.9c4.8,0,8-0.5,11.9-3.1l0.4-0.2l0.4,0.2c3,2.3,6.7,3.5,10.5,3.5c3.8,0,7.5-1.3,10.5-3.5L191.1,1.2"/>
			<path class="st1" d="M154.4,29c2.7-6.1,3.6-13.9-0.8-21.5c1.1,0.2,2.3,0.3,3.5,0.3c4.6,0,8.2-0.4,12.2-2.7
				c3.3,2.1,7.1,3.1,10.9,3.2c3.9,0,7.7-1.1,10.9-3.2c4,2.3,7.6,2.7,12.2,2.7c1.2,0,2.3-0.1,3.5-0.3c-4.5,7.7-3.5,15.5-0.8,21.6
				H154.4"/>
			<path class="st3" d="M206,29c-2.7-6.1-3.6-13.9,0.8-21.6c-1.1,0.2-2.3,0.3-3.5,0.3c-4.6,0-8.2-0.4-12.2-2.7
				c-3.3,2.1-7.1,3.1-10.9,3.2c0,0-0.1,0-0.1,0V29H206z"/>
			<path class="st4" d="M200.3,58.4c5.1-3.7,8.1-9.6,7.6-18.3c-0.1-0.5-0.1-0.5-0.1-1h-7.5V58.4z"/>
			<path class="st5" d="M192.3,62.1c2.9-0.7,5.6-2,8-3.7V39.1h-8V62.1z"/>
			<path class="st5" d="M160.1,58.4c2.4,1.7,5.2,3,8,3.7v-23h-8V58.4z"/>
			<path class="st4" d="M152.5,40.1c-0.4,8.7,2.6,14.6,7.6,18.3V39.1h-7.5C152.5,39.6,152.5,39.6,152.5,40.1"/>
			<path class="st5" d="M180.2,43.4c1.4,0,2.8,0.4,4,1.2v-5.4h-8v5.4C177.4,43.8,178.8,43.4,180.2,43.4"/>
			<path class="st5" d="M180.2,58.5c-1.4,0-2.8-0.4-4-1.2v6c0.1,0,0.3,0,0.4,0c2.7,0,5.1,0,7.2,0c0.1,0,0.3,0,0.4,0v-6
				C183,58.1,181.7,58.5,180.2,58.5"/>
			<path class="st4" d="M184.2,39.1v5.4c3.6,2.2,4.6,6.9,2.4,10.4c-0.6,1-1.5,1.8-2.4,2.4v6c2.7-0.1,5.4-0.5,8-1.2v-23L184.2,39.1z"
				/>
			<path class="st4" d="M172.7,50.9c0-2.6,1.3-5,3.5-6.4v-5.4h-8v23c2.6,0.7,5.3,1.1,8,1.2v-6C174,56,172.7,53.6,172.7,50.9"/>
			<path class="st6" d="M156.2,14.3c0.5,2.5,0.6,5.1,0.2,7.7h7.8v7h7.7v-7h8.2v-7.7h-8.2V6.5c-0.9-0.4-1.8-0.9-2.7-1.4
				c-1.6,0.9-3.3,1.6-5,2v7.2L156.2,14.3z"/>
			<path class="st6" d="M196.6,29V7.2c-0.9-0.2-1.9-0.5-2.8-0.8V29H196.6z"/>
			<path class="st6" d="M185.6,29V7.5c-0.9,0.3-1.8,0.4-2.8,0.6V29H185.6z"/>
			<path class="st6" d="M202.2,29V7.8c-1,0-1.9-0.1-2.8-0.1V29L202.2,29z"/>
			<path class="st6" d="M191.1,29V5.1c-0.9,0.5-1.8,1-2.8,1.4V29H191.1z"/>
			<path class="st7" d="M215.6,35.7l-1.1-1.1c-4.5-4.7-10.8-16.3-2.7-27.1l0.6-0.8l-3.1-4.3l-1.1,0.4c-1.6,0.6-3.3,0.9-5,0.9
				c-4.6,0-7.7-0.5-11.4-2.9l-0.9-0.6l-0.9,0.6c-2.9,2.2-6.4,3.3-10,3.4c-3.6,0-7.1-1.2-10-3.4l-0.9-0.6l-0.9,0.6
				c-3.7,2.5-6.8,2.9-11.4,2.9c-1.7,0-3.4-0.3-5-0.9L151,2.3L148,6.6l0.6,0.8c8.1,10.8,1.8,22.4-2.7,27.1l-1.1,1.1l1.1,1.1
				c0.6,0.6,1.6,1.6,2.4,2.5c0,0,0,0.1,0,0.1c0,0.1,0,0.2,0,0.3l0,0.1c-0.4,7.8,1.6,14.2,6,19c4.7,5.1,12,8.2,20.6,8.7
				c2.1,1.9,4.3,3.6,4.4,3.6l0.9,0.7l0.9-0.7c0.1-0.1,2.3-1.7,4.4-3.6c8.6-0.5,15.9-3.5,20.6-8.7c4.4-4.8,6.4-11.2,6-19l0-0.1
				c0-0.1,0-0.2,0-0.3c0,0,0-0.1,0-0.1c0.8-0.9,1.9-2,2.4-2.5L215.6,35.7z M210.5,38.7c0.1,0.8,0,0.8,0.1,1.2
				c0.9,17.3-11.1,25.5-25.7,26.1c-2.2,2.1-4.7,3.9-4.7,3.9s-2.5-1.8-4.7-3.9c-14.6-0.6-26.6-8.8-25.7-26.1c0.1-0.5,0-0.4,0.1-1.2
				c-0.8-0.9-2.2-2.3-2.9-3.1c5.2-5.4,11.3-17.8,2.9-29.1l1.8-2.4c1.8,0.6,3.6,0.9,5.5,1c4.9,0,8.2-0.5,12.2-3.2
				c3.2,2.3,7,3.6,10.9,3.6c3.9,0,7.7-1.3,10.9-3.6c4.1,2.7,7.4,3.2,12.2,3.2c1.9,0,3.7-0.3,5.5-1l1.8,2.4
				c-8.5,11.2-2.4,23.7,2.9,29.1C212.7,36.4,211.4,37.8,210.5,38.7"/>
			<path class="st7" d="M152.4,39.1c0,0.3,0,0.4-0.1,0.5c0,0.1,0,0.3-0.1,0.5c-0.3,6.7,1.3,12,4.9,16c4.1,4.6,10.9,7.1,19.4,7.5
				l0.3,0c1.4,0,2.8,0,4.1,0c1,0,1.9,0,2.8,0c8.6-0.4,15.3-2.9,19.4-7.5c3.6-4,5.3-9.4,4.9-16c0-0.2,0-0.4-0.1-0.5
				c0-0.1,0-0.3-0.1-0.5l0-0.2h-55.7L152.4,39.1z M152.7,40.1c0-0.2,0-0.3,0.1-0.5c0-0.1,0-0.2,0-0.4h54.8c0,0.1,0,0.2,0,0.4
				c0,0.1,0,0.2,0.1,0.4c0.3,6.5-1.3,11.8-4.8,15.7c-4.1,4.5-10.7,7-19.1,7.3c-2,0-4.3,0-6.9,0l-0.3,0c-8.4-0.3-15.1-2.9-19.1-7.3
				C154,51.9,152.4,46.6,152.7,40.1"/>
			<path class="st7" d="M154.2,28.9l-0.1,0.3h52.3l-0.1-0.3c-2.3-5.2-4-13.1,0.8-21.4l0.3-0.4l-0.5,0.1c-1.1,0.2-2.3,0.3-3.4,0.3
				c-4.7,0-8.1-0.4-12.1-2.7l-0.1-0.1L191,4.9c-3.2,2-7,3.1-10.8,3.1c-3.8,0-7.6-1.1-10.8-3.1l-0.1-0.1l-0.1,0.1
				c-3.9,2.2-7.4,2.7-12.1,2.7c-1.2,0-2.3-0.1-3.4-0.3l-0.5-0.1l0.3,0.4C158.2,15.8,156.5,23.7,154.2,28.9 M180.4,8.5
				c3.8,0,7.6-1.1,10.8-3.1c4,2.2,7.5,2.7,12.2,2.7c1,0,2-0.1,3-0.3c-4.5,8.1-2.9,15.8-0.7,21h-25.3L180.4,8.5z M154,7.8
				c1,0.2,2,0.2,3,0.2c4.7,0,8.2-0.4,12.2-2.7c3.2,2,6.9,3.1,10.6,3.1v20.3h-25.1C157,23.6,158.5,15.8,154,7.8"/>
			<polygon class="st7" points="173.6,32 173.6,30.5 168.4,30.5 168.4,37.7 170,37.7 170,34.7 172.1,34.7 172.1,33.2 170,33.2 
				170,32 			"/>
			<path class="st7" d="M179.7,31.9c0.5,0,1,0.3,1.2,0.7l0,0.1l1.4-0.7l0-0.1c-0.5-1-1.5-1.7-2.6-1.6c-1.9,0-3.2,1.5-3.2,3.7
				c0,2.2,1.2,3.7,3.1,3.7c1.1,0.1,2.2-0.6,2.7-1.6l0-0.1l-1.3-0.8l0,0.1c-0.2,0.5-0.7,0.9-1.3,0.9c-0.9,0-1.6-0.9-1.6-2.2
				C178.1,32.7,178.7,31.9,179.7,31.9"/>
			<path class="st7" d="M191.7,32.4c0-1.2-0.9-1.9-2.3-1.9h-3.3v7.2h3.3c1.2,0.2,2.4-0.7,2.6-1.9c0-0.1,0-0.3,0-0.4
				c0-0.6-0.3-1.2-0.9-1.5C191.5,33.5,191.7,32.9,191.7,32.4 M187.6,31.9h1.7c0.7,0,0.8,0.3,0.8,0.6c0,0.4-0.2,0.6-0.7,0.6h-1.8
				L187.6,31.9z M189.4,36.2h-1.8v-1.7h1.8c0.6,0,0.9,0.3,0.9,0.8C190.3,35.9,190,36.2,189.4,36.2"/>
			<path class="st7" d="M180.2,58.7c4.3,0,7.7-3.5,7.7-7.7s-3.5-7.7-7.7-7.7s-7.7,3.5-7.7,7.7v0C172.4,55.2,175.9,58.6,180.2,58.7
				 M180.2,58.2c-1.4,0-2.9-0.4-4.1-1.2c1.7,0,3.3-0.5,4.8-1.2c1.2-0.7,2.5-1.6,2.8-2.9c0.9-0.5,2.1-0.1,2.6,0.8
				c0.1,0.2,0.2,0.5,0.2,0.7C185.3,56.7,182.8,58.2,180.2,58.2 M176.6,52.6c0.4,0.3,0.8,0.4,1.3,0.5c1.2,0,2.3-0.8,2.5-2
				c0.7-0.6,1.8-0.6,2.5,0.1c0.1,0.2,0.2,0.3,0.3,0.5c0.6,1.5-0.7,2.6-2.4,3.7c-1.6,0.8-3.4,1.2-5.2,1.2c-0.8-0.7-1.5-1.5-1.9-2.4
				c0.1,0,0.1,0,0.2,0C175,54.1,176,53.6,176.6,52.6 M175.4,48.9c0.1-1.4,0.3-2.7,0.7-4c1-0.7,2.2-1.1,3.4-1.2
				c-0.8,0.8-0.7,2.1,0.1,2.9c0,0,0.1,0.1,0.1,0.1c-0.2,0.2-0.4,0.4-0.5,0.6c-0.8,1.3-0.5,3,0.8,3.8c-0.2,0.9-1.1,1.6-2,1.6
				C176.3,52.4,175.5,50.8,175.4,48.9 M183.8,52.4c0-0.3-0.1-0.6-0.2-0.8c-0.4-1.1-1.7-1.7-2.8-1.2c-0.2,0.1-0.4,0.2-0.6,0.3
				c-1-0.7-1.3-2.1-0.6-3.2c0.8-1.3,2.8-0.8,4.5,0.2c1.5,0.9,2.7,2.3,3.3,4c-0.1,0.8-0.3,1.5-0.6,2.2
				C186.4,52.6,185.1,51.9,183.8,52.4C183.8,52.4,183.8,52.4,183.8,52.4 M184.3,47.2c-1.3-0.7-2.9-1.4-4.1-0.9
				c-0.7-0.5-1-1.5-0.5-2.2c0.1-0.2,0.3-0.4,0.6-0.5c3.8,0,7,3,7.2,6.8C186.7,49.1,185.6,48,184.3,47.2 M175.6,45.3
				c-0.1,0.5-0.3,1-0.4,1.5c-0.4,1.7-0.4,4.3,1,5.6c-0.5,0.9-1.4,1.4-2.4,1.4c-0.1,0-0.3,0-0.4,0C172.2,50.7,173.1,47.3,175.6,45.3"
				/>
			<path class="st8" d="M17.4,0.1h57.8c3.8,0,7,3.1,7,7c0,0,0,0,0,0v57.8c0,3.8-3.1,7-7,7c0,0,0,0,0,0H17.4c-3.8,0-7-3.1-7-7
				c0,0,0,0,0,0V7.1C10.5,3.2,13.6,0.1,17.4,0.1C17.4,0.1,17.4,0.1,17.4,0.1"/>
			<rect x="24.7" y="45.5" class="st1" width="43.4" height="3.4"/>
			<polygon class="st1" points="36.5,28.3 36.5,24.8 24.7,24.8 24.7,41.2 29,41.2 29,35.3 35.7,35.3 35.7,31.8 29,31.8 29,28.3 			
				"/>
			<path class="st1" d="M49.5,32.7c1.5-0.5,2.6-2,2.6-3.6c0-2.6-2-4.2-5.3-4.2h-8.4v16.4H47c3.6,0,5.8-1.7,5.8-4.6
				C52.7,34.7,51.3,33,49.5,32.7 M42.7,28.1h3.3c1.2,0,1.9,0.6,1.9,1.6c0,1-0.7,1.6-1.9,1.6h-3.3L42.7,28.1z M46.4,37.8h-3.6v-3.3
				h3.7c1.2,0,1.9,0.6,1.9,1.7C48.3,37.3,47.6,37.8,46.4,37.8L46.4,37.8z"/>
			<path class="st1" d="M63.1,31.2l-2-0.3c-1.9-0.3-2.5-0.8-2.5-1.7s0.8-1.5,2.4-1.5c1.3-0.2,2.5,0.7,2.7,2c0,0,0,0,0,0l4.1-0.5
				c-0.6-3.2-2.9-4.8-6.7-4.8c-4.2,0-7,2.1-7,5.3c0,2.8,1.7,4.4,5.1,4.9l2.1,0.3c2.2,0.3,2.7,0.8,2.7,1.8s-0.8,1.5-2.7,1.5
				c-1.4,0.1-2.7-0.8-3.1-2.2L54,36.7c0.7,3.3,3.2,4.9,7.3,4.9c4.6,0,7.3-2,7.3-5.3C68.5,33.3,66.9,31.8,63.1,31.2"/>
		</g>
	</g>
</g>
</svg>
