<?xml version="1.0" encoding="utf-8"?>
<!-- Generator: Adobe Illustrator 25.2.0, SVG Export Plug-In . SVG Version: 6.00 Build 0)  -->
<svg version="1.1" id="Layer_1" xmlns="http://www.w3.org/2000/svg" xmlns:xlink="http://www.w3.org/1999/xlink" x="0px" y="0px"
	 viewBox="0 0 434.5 71.8" style="enable-background:new 0 0 434.5 71.8;" xml:space="preserve">
<style type="text/css">
	.st0{fill:#00BE40;}
	.st1{fill:#FFFFFF;}
	.st2{fill:#E8B909;}
	.st3{fill:#FFDD00;}
	.st4{fill:#0054A4;}
	.st5{fill:#A30046;}
	.st6{fill:#E31937;}
	.st7{fill:#231F20;}
</style>
<g>
	<g>
		<path class="st0" d="M7,0h57.8c3.8,0,7,3.1,7,7c0,0,0,0,0,0v57.8c0,3.8-3.1,7-7,7c0,0,0,0,0,0H7c-3.8,0-7-3.1-7-7c0,0,0,0,0,0V7
			C0,3.1,3.1,0,7,0C7,0,7,0,7,0"/>
		<rect x="14.2" y="45.4" class="st1" width="43.4" height="3.4"/>
		<polygon class="st1" points="26.1,28.2 26.1,24.7 14.2,24.7 14.2,41.1 18.6,41.1 18.6,35.2 25.3,35.2 25.3,31.7 18.6,31.7 
			18.6,28.2 		"/>
		<path class="st1" d="M39,32.6c1.5-0.5,2.6-2,2.6-3.6c0-2.6-2-4.2-5.3-4.2H28v16.4h8.5c3.6,0,5.8-1.7,5.8-4.6
			C42.2,34.6,40.9,32.9,39,32.6 M32.3,28h3.3c1.2,0,1.9,0.6,1.9,1.6c0,1-0.7,1.6-1.9,1.6h-3.3V28z M35.9,37.7h-3.6v-3.3h3.7
			c1.2,0,1.9,0.6,1.9,1.7C37.8,37.2,37.1,37.7,35.9,37.7L35.9,37.7z"/>
		<path class="st1" d="M52.7,31.1l-2-0.3c-1.9-0.3-2.5-0.8-2.5-1.7s0.8-1.5,2.4-1.5c1.3-0.2,2.5,0.7,2.7,2c0,0,0,0,0,0l4.1-0.5
			c-0.6-3.2-2.9-4.8-6.7-4.8c-4.2,0-7,2.1-7,5.3c0,2.8,1.7,4.4,5.1,4.9l2.1,0.3c2.2,0.3,2.7,0.8,2.7,1.8s-0.8,1.5-2.7,1.5
			c-1.4,0.1-2.7-0.8-3.1-2.2l-4.3,0.6c0.7,3.3,3.2,4.9,7.3,4.9c4.6,0,7.3-2,7.3-5.3C58.1,33.2,56.4,31.7,52.7,31.1"/>
	</g>
	<g>
		<path class="st2" d="M180.7,1.1l0.4,0.2C185,4,188.2,4.4,193,4.4c1.8,0,3.6-0.3,5.3-0.9l0.5-0.2l2.3,3.2l-0.2,0.3
			c-8.5,11.3-1.9,23.4,2.8,28.3l0.4,0.4l-0.4,0.4c-0.6,0.6-1.7,1.7-2.5,2.5l-0.3,0.3l0,0.4l0,0.1c0,0.1,0,0.2,0,0.4l0,0.1
			c0.4,7.5-1.6,13.7-5.8,18.3c-4.5,4.9-11.6,7.9-20,8.4l-0.3,0l-0.2,0.2c-2.1,1.9-4.3,3.6-4.3,3.6l-0.4,0.3l-0.4-0.3
			c-0.1-0.1-2.2-1.7-4.3-3.6l-0.2-0.2l-0.3,0c-8.4-0.5-15.5-3.4-20-8.4c-4.2-4.7-6.2-10.8-5.8-18.3l0-0.1c0-0.2,0-0.3,0-0.4l0,0v0
			l0-0.1l0-0.4l-0.3-0.3c-0.7-0.8-1.8-1.9-2.5-2.5l-0.4-0.4l0.4-0.4c4.7-4.9,11.3-17,2.8-28.3l-0.2-0.3l2.3-3.2l0.5,0.2
			c1.7,0.6,3.5,0.9,5.3,0.9c4.8,0,8-0.5,11.9-3.1l0.4-0.2l0.4,0.2c3,2.3,6.7,3.5,10.5,3.5c3.8,0,7.5-1.3,10.5-3.5L180.7,1.1"/>
		<path class="st1" d="M144,28.9c2.7-6.1,3.6-13.9-0.8-21.5c1.1,0.2,2.3,0.3,3.5,0.3c4.6,0,8.2-0.4,12.2-2.7
			c3.3,2.1,7.1,3.1,10.9,3.2c3.9,0,7.7-1.1,10.9-3.2c4,2.3,7.6,2.7,12.2,2.7c1.2,0,2.3-0.1,3.5-0.3c-4.5,7.7-3.5,15.5-0.8,21.6H144"
			/>
		<path class="st3" d="M195.6,28.9C193,22.8,192,15,196.5,7.4c-1.1,0.2-2.3,0.3-3.5,0.3c-4.6,0-8.2-0.4-12.2-2.7
			c-3.3,2.1-7.1,3.1-10.9,3.2c0,0-0.1,0-0.1,0v20.8H195.6z"/>
		<path class="st4" d="M189.9,58.3c5.1-3.7,8.1-9.6,7.6-18.3c-0.1-0.5-0.1-0.5-0.1-1h-7.5V58.3z"/>
		<path class="st5" d="M181.9,62c2.9-0.7,5.6-2,8-3.7V39h-8V62z"/>
		<path class="st5" d="M149.7,58.3c2.4,1.7,5.2,3,8,3.7V39h-8V58.3z"/>
		<path class="st4" d="M142.1,40c-0.4,8.7,2.6,14.6,7.6,18.3V39h-7.5C142.2,39.5,142.1,39.5,142.1,40"/>
		<path class="st5" d="M169.8,43.3c1.4,0,2.8,0.4,4,1.2V39h-8v5.4C167,43.7,168.4,43.3,169.8,43.3"/>
		<path class="st5" d="M169.8,58.4c-1.4,0-2.8-0.4-4-1.2v6c0.1,0,0.3,0,0.4,0c2.7,0,5.1,0,7.2,0c0.1,0,0.3,0,0.4,0v-6
			C172.6,58,171.3,58.4,169.8,58.4"/>
		<path class="st4" d="M173.8,39v5.4c3.6,2.2,4.6,6.9,2.4,10.4c-0.6,1-1.5,1.8-2.4,2.4v6c2.7-0.1,5.4-0.5,8-1.2V39H173.8z"/>
		<path class="st4" d="M162.3,50.9c0-2.6,1.3-5,3.5-6.4V39h-8v23c2.6,0.7,5.3,1.1,8,1.2v-6C163.6,55.9,162.3,53.5,162.3,50.9"/>
		<path class="st6" d="M145.8,14.2c0.5,2.5,0.6,5.1,0.2,7.7h7.8v7h7.7v-7h8.2v-7.7h-8.2V6.4c-0.9-0.4-1.8-0.9-2.7-1.4
			c-1.6,0.9-3.3,1.6-5,2v7.2L145.8,14.2z"/>
		<path class="st6" d="M186.3,28.9V7.1c-0.9-0.2-1.9-0.5-2.8-0.8v22.6L186.3,28.9z"/>
		<path class="st6" d="M175.2,28.9V7.4c-0.9,0.3-1.8,0.4-2.8,0.6v20.9L175.2,28.9z"/>
		<path class="st6" d="M191.8,28.9V7.7c-1,0-1.9-0.1-2.8-0.1v21.4H191.8z"/>
		<path class="st6" d="M180.7,28.9V5c-0.9,0.5-1.8,1-2.8,1.4v22.5L180.7,28.9z"/>
		<path class="st7" d="M205.2,35.6l-1.1-1.1c-4.5-4.7-10.8-16.3-2.7-27.1l0.6-0.8L199,2.3l-1.1,0.4c-1.6,0.6-3.3,0.9-5,0.9
			c-4.6,0-7.7-0.5-11.4-2.9L180.7,0l-0.9,0.6c-2.9,2.2-6.4,3.3-10,3.4c-3.6,0-7.1-1.2-10-3.4L158.9,0l-0.9,0.6
			c-3.7,2.5-6.8,2.9-11.4,2.9c-1.7,0-3.4-0.3-5-0.9l-1.1-0.4l-3.1,4.3l0.6,0.8c8.1,10.8,1.8,22.4-2.7,27.1l-1.1,1.1l1.1,1.1
			c0.6,0.6,1.6,1.6,2.4,2.5c0,0,0,0.1,0,0.1c0,0.1,0,0.2,0,0.3l0,0.1c-0.4,7.8,1.6,14.2,6,19c4.7,5.1,12,8.2,20.6,8.7
			c2.1,1.9,4.3,3.6,4.4,3.6l0.9,0.7l0.9-0.7c0.1-0.1,2.3-1.7,4.4-3.6c8.6-0.5,15.9-3.5,20.6-8.7c4.4-4.8,6.4-11.2,6-19l0-0.1
			c0-0.1,0-0.2,0-0.3c0,0,0-0.1,0-0.1c0.8-0.9,1.9-2,2.4-2.5L205.2,35.6z M200.1,38.6c0.1,0.8,0,0.8,0.1,1.2
			c0.9,17.3-11.1,25.5-25.7,26.1c-2.2,2.1-4.7,3.9-4.7,3.9s-2.5-1.8-4.7-3.9c-14.6-0.6-26.6-8.8-25.7-26.1c0.1-0.5,0-0.4,0.1-1.2
			c-0.8-0.9-2.2-2.3-2.9-3.1c5.2-5.4,11.3-17.8,2.9-29.1l1.8-2.4c1.8,0.6,3.6,0.9,5.5,1c4.9,0,8.2-0.5,12.2-3.2
			c3.2,2.3,7,3.6,10.9,3.6c3.9,0,7.7-1.3,10.9-3.6C184.8,4.6,188.1,5,193,5c1.9,0,3.7-0.3,5.5-1l1.8,2.4
			c-8.5,11.2-2.4,23.7,2.9,29.1C202.4,36.3,201,37.7,200.1,38.6"/>
		<path class="st7" d="M142,39c0,0.3,0,0.4-0.1,0.5c0,0.1,0,0.3-0.1,0.5c-0.3,6.7,1.3,12,4.9,16c4.1,4.6,10.9,7.1,19.4,7.5l0.3,0
			c1.4,0,2.8,0,4.1,0c1,0,1.9,0,2.8,0c8.6-0.4,15.3-2.9,19.4-7.5c3.6-4,5.3-9.4,4.9-16c0-0.2,0-0.4-0.1-0.5c0-0.1,0-0.3-0.1-0.5
			l0-0.2H142L142,39z M142.3,40c0-0.2,0-0.3,0.1-0.5c0-0.1,0-0.2,0-0.4h54.8c0,0.1,0,0.2,0,0.4c0,0.1,0,0.2,0.1,0.4
			c0.3,6.5-1.3,11.8-4.8,15.7c-4.1,4.5-10.7,7-19.1,7.3c-2,0-4.3,0-6.9,0l-0.3,0c-8.4-0.3-15.1-2.9-19.1-7.3
			C143.6,51.8,142,46.6,142.3,40"/>
		<path class="st7" d="M143.8,28.8l-0.1,0.3H196l-0.1-0.3c-2.3-5.2-4-13.1,0.8-21.4l0.3-0.4l-0.5,0.1c-1.1,0.2-2.3,0.3-3.4,0.3
			c-4.7,0-8.1-0.4-12.1-2.7l-0.1-0.1l-0.1,0.1c-3.2,2-7,3.1-10.8,3.1c-3.8,0-7.6-1.1-10.8-3.1l-0.1-0.1l-0.1,0.1
			c-3.9,2.2-7.4,2.7-12.1,2.7c-1.2,0-2.3-0.1-3.4-0.3l-0.5-0.1l0.3,0.4C147.8,15.7,146.1,23.6,143.8,28.8 M170,8.4
			c3.8,0,7.6-1.1,10.8-3.1c4,2.2,7.5,2.7,12.2,2.7c1,0,2-0.1,3-0.3c-4.5,8.1-2.9,15.8-0.7,21H170L170,8.4z M143.7,7.7
			c1,0.2,2,0.2,3,0.2c4.7,0,8.2-0.4,12.2-2.7c3.2,2,6.9,3.1,10.6,3.1v20.3h-25.1C146.6,23.5,148.1,15.7,143.7,7.7"/>
		<polygon class="st7" points="163.2,31.9 163.2,30.4 158,30.4 158,37.6 159.6,37.6 159.6,34.6 161.7,34.6 161.7,33.1 159.6,33.1 
			159.6,31.9 		"/>
		<path class="st7" d="M169.3,31.8c0.5,0,1,0.3,1.2,0.7l0,0.1L172,32l0-0.1c-0.5-1-1.5-1.7-2.6-1.6c-1.9,0-3.2,1.5-3.2,3.7
			c0,2.2,1.2,3.7,3.1,3.7c1.1,0.1,2.2-0.6,2.7-1.6l0-0.1l-1.3-0.8l0,0.1c-0.2,0.5-0.7,0.9-1.3,0.9c-0.9,0-1.6-0.9-1.6-2.2
			C167.7,32.7,168.3,31.8,169.3,31.8"/>
		<path class="st7" d="M181.3,32.3c0-1.2-0.9-1.9-2.3-1.9h-3.3v7.2h3.3c1.2,0.2,2.4-0.7,2.6-1.9c0-0.1,0-0.3,0-0.4
			c0-0.6-0.3-1.2-0.9-1.5C181.1,33.4,181.3,32.9,181.3,32.3 M177.2,31.8h1.7c0.7,0,0.8,0.3,0.8,0.6c0,0.4-0.2,0.6-0.7,0.6h-1.8
			L177.2,31.8z M179,36.1h-1.8v-1.7h1.8c0.6,0,0.9,0.3,0.9,0.8C180,35.8,179.6,36.1,179,36.1"/>
		<path class="st7" d="M169.8,58.6c4.3,0,7.7-3.5,7.7-7.7s-3.5-7.7-7.7-7.7s-7.7,3.5-7.7,7.7v0C162.1,55.1,165.5,58.6,169.8,58.6
			 M169.8,58.1c-1.4,0-2.9-0.4-4.1-1.2c1.7,0,3.3-0.5,4.8-1.2c1.2-0.7,2.5-1.6,2.8-2.9c0.9-0.5,2.1-0.1,2.6,0.8
			c0.1,0.2,0.2,0.5,0.2,0.7C174.9,56.7,172.4,58.1,169.8,58.1 M166.2,52.5c0.4,0.3,0.8,0.4,1.3,0.5c1.2,0,2.3-0.8,2.5-2
			c0.7-0.6,1.8-0.6,2.5,0.1c0.1,0.2,0.2,0.3,0.3,0.5c0.6,1.5-0.7,2.6-2.4,3.7c-1.6,0.8-3.4,1.2-5.2,1.2c-0.8-0.7-1.5-1.5-1.9-2.4
			c0.1,0,0.1,0,0.2,0C164.6,54,165.6,53.5,166.2,52.5 M165,48.8c0.1-1.4,0.3-2.7,0.7-4c1-0.7,2.2-1.1,3.4-1.2
			c-0.8,0.8-0.7,2.1,0.1,2.9c0,0,0.1,0.1,0.1,0.1c-0.2,0.2-0.4,0.4-0.5,0.6c-0.8,1.3-0.5,3,0.8,3.8c-0.2,0.9-1.1,1.6-2,1.6
			C165.9,52.3,165.1,50.7,165,48.8 M173.4,52.3c0-0.3-0.1-0.6-0.2-0.8c-0.4-1.1-1.7-1.7-2.8-1.2c-0.2,0.1-0.4,0.2-0.6,0.3
			c-1-0.7-1.3-2.1-0.6-3.2c0.8-1.3,2.8-0.8,4.5,0.2c1.5,0.9,2.7,2.3,3.3,4c-0.1,0.8-0.3,1.5-0.6,2.2
			C176.1,52.5,174.7,51.8,173.4,52.3C173.5,52.3,173.4,52.3,173.4,52.3 M173.9,47.1c-1.3-0.7-2.9-1.4-4.1-0.9
			c-0.7-0.5-1-1.5-0.5-2.2c0.1-0.2,0.3-0.4,0.6-0.5c3.8,0,7,3,7.2,6.8C176.3,49,175.2,47.9,173.9,47.1 M165.2,45.2
			c-0.1,0.5-0.3,1-0.4,1.5c-0.4,1.7-0.4,4.3,1,5.6c-0.5,0.9-1.4,1.4-2.4,1.4c-0.1,0-0.3,0-0.4,0C161.8,50.6,162.7,47.2,165.2,45.2"
			/>
	</g>
	<rect x="102.6" y="0" class="st7" width="1" height="71.8"/>
</g>
<g>
	<path d="M235.7,21.5h4.3c2.6,0,4,1.3,4,3.7c0,1.7-1,3.1-2.6,3.7h-3.4v4.3h-2.3L235.7,21.5z M240.7,26.8c0.7-0.3,1.1-1,1-1.7
		c0.1-0.8-0.5-1.5-1.3-1.5c-0.1,0-0.2,0-0.3,0h-2v3.2H240.7z"/>
	<path d="M245,31.9l2.9-10.4h3.8l2.9,10.4v1.3h-2.1l-0.6-2.5c-0.7,0.1-1.4,0.2-2.1,0.2c-0.7,0-1.4-0.1-2-0.2l-0.6,2.4H245V31.9z
		 M248.2,28.8c0.5,0.1,1,0.1,1.5,0.1c0.5,0,1.1-0.1,1.6-0.2l-0.7-2.6c-0.3-1.1-0.6-2.6-0.6-2.6h-0.5c0,0-0.3,1.5-0.6,2.6L248.2,28.8
		z"/>
	<path d="M256.3,21.5h4.4c2.5,0,3.9,1.2,3.9,3.5c0,1.6-1,3-2.4,3.5c0.7,1.2,1.5,2.3,2.4,3.3v1.4h-1.8c-1.1-1.4-2.1-2.9-3-4.5h-1.2
		v4.5h-2.3V21.5z M261.2,26.6c0.7-0.2,1.1-0.8,1.1-1.5c0.1-0.8-0.5-1.4-1.3-1.5c-0.1,0-0.2,0-0.3,0h-2.2v3L261.2,26.6z"/>
	<path d="M266.1,25.9c0-3.1,1.5-4.5,4.3-4.5c1.3-0.1,2.6,0.4,3.5,1.3v1.8h-1.9c0,0-0.1-1.1-1.6-1.1c-1.5,0-2,0.8-2,2.4v3.1
		c0,1.6,0.5,2.4,2,2.4c1.4,0,1.6-1.1,1.6-1.1h1.9V32c-0.9,0.9-2.2,1.4-3.5,1.3c-2.8,0-4.3-1.4-4.3-4.5V25.9z"/>
	<polygon points="275.8,21.5 283.2,21.5 282.9,23.6 278.2,23.6 278.2,26.3 282.5,26.3 282.5,28.4 278.2,28.4 278.2,31.1 283.1,31.1 
		283.1,33.2 275.8,33.2 	"/>
	<polygon points="285.8,31.4 285.8,23.4 284.6,23.1 284.6,21.5 289.3,21.5 289.3,23.1 288.1,23.4 288.1,31.4 289.3,31.6 289.3,33.2 
		284.6,33.2 284.6,31.6 	"/>
	<path d="M291.2,21.5h4.4c2.5,0,3.9,1.2,3.9,3.5c0,1.6-1,3-2.4,3.5c0.7,1.2,1.5,2.3,2.4,3.3v1.4h-1.8c-1.1-1.4-2.1-2.9-3-4.5h-1.2
		v4.5h-2.3V21.5z M296.1,26.6c0.7-0.2,1.1-0.8,1.1-1.5c0.1-0.8-0.5-1.4-1.3-1.5c-0.1,0-0.2,0-0.3,0h-2.2v3L296.1,26.6z"/>
	<path d="M300.8,31.9l2.9-10.4h3.8l2.9,10.4v1.3h-2.1l-0.6-2.5c-0.7,0.1-1.4,0.2-2.1,0.2c-0.7,0-1.4-0.1-2-0.2l-0.6,2.4h-2.1
		L300.8,31.9z M304,28.8c0.5,0.1,1,0.1,1.5,0.1c0.5,0,1.1-0.1,1.6-0.2l-0.7-2.6c-0.3-1.1-0.6-2.6-0.6-2.6h-0.5c0,0-0.3,1.5-0.6,2.6
		L304,28.8z"/>
	<path d="M315.5,21.5h4.2c2.8,0,4.3,1.4,4.3,4.5v2.7c0,3.1-1.5,4.5-4.3,4.5h-4.2V21.5z M317.9,23.6v7.5h1.7c1.5,0,2.1-0.6,2.1-2.2
		v-3.1c0-1.6-0.7-2.2-2.1-2.2L317.9,23.6z"/>
	<polygon points="326.1,21.5 333.5,21.5 333.2,23.6 328.5,23.6 328.5,26.3 332.8,26.3 332.8,28.4 328.5,28.4 328.5,31.1 333.4,31.1 
		333.4,33.2 326.1,33.2 	"/>
	<polygon points="343.1,23.6 343.1,33.2 340.7,33.2 340.7,23.6 338,23.6 338,21.5 346,21.5 345.6,23.6 	"/>
	<path d="M347.4,21.5h4.4c2.5,0,3.9,1.2,3.9,3.5c0,1.6-1,3-2.4,3.5c0.7,1.2,1.5,2.3,2.4,3.3v1.4h-1.8c-1.1-1.4-2.1-2.9-3-4.5h-1.2
		v4.5h-2.3V21.5z M352.3,26.6c0.7-0.2,1.1-0.8,1.1-1.5c0.1-0.8-0.5-1.4-1.3-1.5c-0.1,0-0.2,0-0.3,0h-2.2v3L352.3,26.6z"/>
	<path d="M356.9,31.9l2.9-10.4h3.8l2.9,10.4v1.3h-2.1l-0.6-2.5c-0.7,0.1-1.4,0.2-2.1,0.2c-0.7,0-1.4-0.1-2-0.2l-0.6,2.4h-2.1
		L356.9,31.9z M360.1,28.8c0.5,0.1,1,0.1,1.5,0.1c0.5,0,1.1-0.1,1.6-0.2l-0.7-2.6c-0.3-1.1-0.6-2.6-0.6-2.6h-0.5
		c0,0-0.3,1.5-0.6,2.6L360.1,28.8z"/>
	<path d="M368.2,21.5h4.2c2.8,0,4.3,1.4,4.3,4.5v2.7c0,3.1-1.5,4.5-4.3,4.5h-4.2V21.5z M370.6,23.6v7.5h1.7c1.5,0,2.1-0.6,2.1-2.2
		v-3.1c0-1.6-0.7-2.2-2.1-2.2L370.6,23.6z"/>
	<polygon points="379.5,31.4 379.5,23.4 378.3,23.1 378.3,21.5 383,21.5 383,23.1 381.8,23.4 381.8,31.4 383,31.6 383,33.2 
		378.3,33.2 378.3,31.6 	"/>
	<path d="M384.9,21.5h2.2l3.3,5.5c0.3,0.4,0.9,1.8,0.9,1.8h0c0,0-0.1-1.3-0.1-2.4v-4.9h2.3v11.7h-2.3v-0.9l-2.9-4.8
		c-0.4-0.7-1.2-2-1.2-2h-0.1c0,0,0.1,1.1,0.1,2.2v5.5h-2.3L384.9,21.5z"/>
	<path d="M395.6,25.9c0-3.1,1.7-4.5,4.6-4.5c1.3-0.1,2.6,0.4,3.6,1.3v1.8h-1.9c-0.3-0.7-1-1.1-1.7-1.1c-1.5,0-2.2,0.8-2.2,2.4v3.3
		c0,1.6,0.7,2.3,2.2,2.3c0.6,0,1.2-0.2,1.7-0.6v-2.5H400v-2h3.9v6.9h-1.7l-0.3-0.8h-0.1c-0.7,0.6-1.6,1-2.5,0.9
		c-2.5,0-3.8-1.4-3.8-4.4L395.6,25.9z"/>
	<path d="M235.4,43.3c0-3,1.6-4.7,4.5-4.7c2.9,0,4.5,1.7,4.5,4.7v2.7c0,3-1.6,4.7-4.5,4.7c-2.9,0-4.5-1.7-4.5-4.7V43.3z M239.9,48.5
		c1.6,0,2.2-0.7,2.2-2.4v-3c0-1.7-0.7-2.4-2.2-2.4c-1.6,0-2.2,0.7-2.2,2.4v3C237.7,47.8,238.4,48.5,239.9,48.5"/>
	<polygon points="246.5,38.7 253.8,38.7 253.4,40.9 248.9,40.9 248.9,43.5 253,43.5 253,45.7 248.9,45.7 248.9,50.5 246.5,50.5 	"/>
	<polygon points="255.9,48.6 255.9,40.6 254.8,40.4 254.8,38.7 259.4,38.7 259.4,40.4 258.3,40.6 258.3,48.6 259.4,48.8 259.4,50.5 
		254.8,50.5 254.8,48.8 	"/>
	<path d="M261,43.1c0-3.1,1.5-4.5,4.3-4.5c1.3-0.1,2.6,0.4,3.5,1.3v1.8h-1.9c0,0-0.1-1.1-1.6-1.1c-1.5,0-2,0.8-2,2.4v3.1
		c0,1.6,0.5,2.4,2,2.4c1.4,0,1.6-1.1,1.6-1.1h1.9v1.8c-0.9,0.9-2.2,1.4-3.5,1.3c-2.8,0-4.3-1.4-4.3-4.5V43.1z"/>
	<polygon points="271.3,48.6 271.3,40.6 270.2,40.4 270.2,38.7 274.8,38.7 274.8,40.4 273.7,40.6 273.7,48.6 274.8,48.8 274.8,50.5 
		270.2,50.5 270.2,48.8 	"/>
	<path d="M276.1,49.1l2.9-10.4h3.8l2.9,10.4v1.3h-2.1l-0.6-2.5c-0.7,0.1-1.4,0.2-2.1,0.2c-0.7,0-1.4-0.1-2-0.2l-0.6,2.4h-2.1
		L276.1,49.1z M279.3,46c0.5,0.1,1,0.1,1.5,0.1c0.5,0,1.1-0.1,1.6-0.2l-0.7-2.6c-0.3-1.1-0.6-2.6-0.6-2.6h-0.5c0,0-0.3,1.5-0.6,2.6
		L279.3,46z"/>
	<polygon points="287.4,38.7 289.8,38.7 289.8,48.3 294.5,48.3 294.2,50.5 287.4,50.5 	"/>
	<path d="M299.3,38.7h4.2c2.8,0,4.3,1.4,4.3,4.5V46c0,3.1-1.5,4.5-4.3,4.5h-4.2V38.7z M301.6,40.8v7.5h1.7c1.5,0,2.1-0.6,2.1-2.2V43
		c0-1.6-0.7-2.2-2.1-2.2L301.6,40.8z"/>
	<path d="M309.5,43.3c0-3,1.6-4.7,4.5-4.7c2.9,0,4.5,1.7,4.5,4.7v2.7c0,3-1.6,4.7-4.5,4.7c-2.9,0-4.5-1.7-4.5-4.7V43.3z M314.1,48.5
		c1.6,0,2.2-0.7,2.2-2.4v-3c0-1.7-0.7-2.4-2.2-2.4c-1.5,0-2.2,0.7-2.2,2.4v3C311.9,47.8,312.5,48.5,314.1,48.5"/>
	<polygon points="324.1,38.7 331.4,38.7 331,40.9 326.5,40.9 326.5,43.5 330.6,43.5 330.6,45.7 326.5,45.7 326.5,50.5 324.1,50.5 	
		"/>
	<path d="M332.5,43.1c0-3.1,1.5-4.5,4.3-4.5c1.3-0.1,2.6,0.4,3.5,1.3v1.8h-1.9c0,0-0.1-1.1-1.6-1.1c-1.5,0-2,0.8-2,2.4v3.1
		c0,1.6,0.5,2.4,2,2.4c1.4,0,1.6-1.1,1.6-1.1h1.9v1.8c-0.9,0.9-2.2,1.4-3.5,1.3c-2.8,0-4.3-1.4-4.3-4.5V43.1z"/>
	<path d="M345.7,38.7h4.2c2.8,0,3.8,1.3,3.8,3.2c0,1-0.5,2-1.4,2.6v0c0.9,0.5,1.5,1.5,1.5,2.5c0,2.1-1.2,3.4-3.8,3.4h-4.4V38.7z
		 M347.9,40.8v2.8h2.5c0.6-0.3,0.9-0.8,0.9-1.4c0.1-0.7-0.5-1.3-1.2-1.4c-0.1,0-0.2,0-0.3,0L347.9,40.8z M347.9,45.5v2.9h2.2
		c0.7,0.1,1.4-0.5,1.4-1.2c0-0.1,0-0.2,0-0.2c0-0.7-0.4-1.2-1-1.5L347.9,45.5z"/>
	<path d="M355.1,49.1l2.9-10.4h3.8l2.9,10.4v1.3h-2.1l-0.6-2.5c-0.7,0.1-1.4,0.2-2.1,0.2c-0.7,0-1.4-0.1-2-0.2l-0.6,2.4h-2.1
		L355.1,49.1z M358.3,46c0.5,0.1,1,0.1,1.5,0.1c0.5,0,1.1-0.1,1.6-0.2l-0.7-2.6c-0.3-1.1-0.6-2.6-0.6-2.6h-0.5c0,0-0.3,1.5-0.6,2.6
		L358.3,46z"/>
	<path d="M366.4,38.7h4.4c2.5,0,3.9,1.2,3.9,3.5c0,1.6-1,3-2.4,3.5c0.7,1.2,1.5,2.3,2.4,3.3v1.4H373c-1.1-1.4-2.1-2.9-3-4.5h-1.2
		v4.5h-2.3V38.7z M371.4,43.9c0.7-0.2,1.1-0.8,1.1-1.5c0.1-0.8-0.5-1.4-1.3-1.5c-0.1,0-0.2,0-0.3,0h-2.2v3H371.4z"/>
	<path d="M376.3,43.1c0-3.1,1.5-4.5,4.3-4.5c1.3-0.1,2.6,0.4,3.5,1.3v1.8h-1.9c0,0-0.1-1.1-1.6-1.1c-1.5,0-2,0.8-2,2.4v3.1
		c0,1.6,0.5,2.4,2,2.4c1.4,0,1.6-1.1,1.6-1.1h1.9v1.8c-0.9,0.9-2.2,1.4-3.5,1.3c-2.8,0-4.3-1.4-4.3-4.5V43.1z"/>
	<polygon points="386,38.7 393.4,38.7 393,40.9 388.3,40.9 388.3,43.5 392.6,43.5 392.6,45.7 388.3,45.7 388.3,48.3 393.2,48.3 
		393.2,50.5 386,50.5 	"/>
	<polygon points="395.3,38.7 397.6,38.7 397.6,48.3 402.4,48.3 402,50.5 395.3,50.5 	"/>
	<path d="M403.4,43.3c0-3,1.6-4.7,4.5-4.7c2.9,0,4.5,1.7,4.5,4.7v2.7c0,3-1.6,4.7-4.5,4.7c-2.9,0-4.5-1.7-4.5-4.7V43.3z M407.9,48.5
		c1.6,0,2.2-0.7,2.2-2.4v-3c0-1.7-0.7-2.4-2.2-2.4c-1.5,0-2.2,0.7-2.2,2.4v3C405.7,47.8,406.4,48.5,407.9,48.5"/>
	<path d="M414.5,38.7h2.2l3.3,5.5c0.3,0.4,0.9,1.8,0.9,1.8h0c0,0-0.1-1.3-0.1-2.4v-4.9h2.3v11.7h-2.3v-0.9l-2.9-4.8
		c-0.4-0.7-1.2-2-1.2-2h-0.1c0,0,0.1,1.1,0.1,2.2v5.5h-2.3L414.5,38.7z"/>
	<path d="M424.9,49.1l2.9-10.4h3.8l2.9,10.4v1.3h-2.1l-0.6-2.5c-0.7,0.1-1.4,0.2-2.1,0.2c-0.7,0-1.4-0.1-2-0.2l-0.6,2.4h-2.1
		L424.9,49.1z M428.2,46c0.5,0.1,1,0.1,1.5,0.1c0.5,0,1.1-0.1,1.6-0.2l-0.7-2.6c-0.3-1.1-0.6-2.6-0.6-2.6h-0.5c0,0-0.3,1.5-0.6,2.6
		L428.2,46z"/>
</g>
</svg>
