<svg xmlns="http://www.w3.org/2000/svg" viewBox="0 0 111.79 122.57"><defs><style>.cls-1{fill:none;stroke:#fff;stroke-miterlimit:10;}.cls-2{fill:#231f20;}.cls-3{fill:#e8b909;}.cls-4{fill:#0054a4;}.cls-5{fill:#a30046;}.cls-6{fill:#fff;}.cls-7{fill:#fd0;}.cls-8{fill:#e31837;}</style></defs><title>PT_logo-without - vertical color (dark bg)</title><g id="Layer_2" data-name="Layer 2"><g id="TEXTOS"><line class="cls-1" x1="84.66" y1="71.83" x2="26.89" y2="71.83"/><path class="cls-2" d="M84.64,29.29l-.86-.9C80.1,24.55,74.91,15,81.54,6.08l.52-.69-.46-.74a9,9,0,0,0-.79-1.07c-.21-.26-.42-.53-.71-.94l-.55-.79-.9.32a12.5,12.5,0,0,1-4.06.71c-3.79,0-6.28-.37-9.33-2.4L64.55,0l-.71.49a13.82,13.82,0,0,1-8.2,2.77A13.87,13.87,0,0,1,47.43.49L46.73,0,46,.48c-3.06,2-5.54,2.4-9.33,2.4a12.6,12.6,0,0,1-4.07-.71l-.89-.32-.55.79c-.29.41-.51.68-.72.93a10.22,10.22,0,0,0-.78,1.08l-.46.74.52.69C36.37,15,31.17,24.55,27.5,28.39l-.86.9.87.88c.48.47,1.31,1.35,2,2.08a.49.49,0,0,0,0,.12,2.54,2.54,0,0,1,0,.26v.08c-.34,6.4,1.32,11.66,4.92,15.65,3.83,4.23,9.81,6.76,16.87,7.15,1.75,1.61,3.53,2.93,3.61,3l.75.57.76-.57c.08-.06,1.84-1.39,3.59-3,7.07-.39,13.05-2.92,16.87-7.15,3.61-4,5.26-9.25,4.93-15.65v-.08c0-.12,0-.17,0-.26v-.12c.69-.73,1.53-1.61,2-2.08Zm-4.19,2.5c.07.64,0,.61.08,1,.75,14.25-9.12,21-21.05,21.48-1.83,1.71-3.84,3.22-3.84,3.22s-2-1.51-3.84-3.22C39.87,53.76,30,47,30.75,32.78c0-.38,0-.35.07-1-.68-.73-1.81-1.92-2.41-2.52,4.28-4.47,9.27-14.69,2.34-23.95.45-.74.78-1,1.46-1.95a13.87,13.87,0,0,0,4.48.78c4,0,6.69-.39,10-2.62a15.13,15.13,0,0,0,8.93,3,15.07,15.07,0,0,0,8.92-3c3.34,2.23,6,2.62,10,2.62a13.81,13.81,0,0,0,4.47-.78c.68,1,1,1.21,1.47,2-6.94,9.26-1.94,19.48,2.34,24-.6.6-1.73,1.79-2.42,2.52"/><path class="cls-3" d="M55.64,57.48a48.51,48.51,0,0,1-3.84-3.22c-11.93-.5-21.8-7.23-21-21.48,0-.38,0-.35.07-1-.68-.72-1.82-1.91-2.41-2.51,4.28-4.47,9.27-14.69,2.34-23.95.45-.74.78-1,1.46-1.95a13.87,13.87,0,0,0,4.48.79c4,0,6.69-.4,10-2.62a15.19,15.19,0,0,0,8.93,3,15.15,15.15,0,0,0,8.92-3c3.34,2.22,6,2.62,10,2.62a13.81,13.81,0,0,0,4.47-.79c.68,1,1,1.21,1.47,2-6.93,9.26-1.94,19.48,2.34,24-.6.6-1.73,1.79-2.41,2.51.06.65,0,.62.07,1,.75,14.25-9.12,21-21.06,21.48a49.4,49.4,0,0,1-3.83,3.22"/><path class="cls-4" d="M39.29,32.12H33c0,.41-.06.43-.1.84-.37,7.2,2.14,12.11,6.38,15.17Z"/><path class="cls-5" d="M39.29,48.13a20.09,20.09,0,0,0,6.59,3v-19H39.29Z"/><path class="cls-4" d="M45.88,51.13a31.13,31.13,0,0,0,6.59,1v-20H45.88Z"/><path class="cls-5" d="M59.06,32.12H52.47v20h.22c2.19,0,4.18,0,5.89,0l.48,0Z"/><path class="cls-4" d="M59.06,52.1a31.2,31.2,0,0,0,6.59-1v-19H59.06Z"/><path class="cls-5" d="M65.64,51.07a19.61,19.61,0,0,0,6.59-3.13V32.12H65.64Z"/><path class="cls-4" d="M78.26,32.12h-6V48c4.09-3.07,6.49-7.93,6.14-15-.05-.41-.07-.43-.11-.84"/><path class="cls-2" d="M56.27,52.32H52.69c-7-.29-12.53-2.43-15.92-6.18-3-3.27-4.33-7.7-4.05-13.18,0-.2,0-.31.05-.4s0-.23.06-.45v-.17h45.6v.17c0,.22,0,.32,0,.45a2.2,2.2,0,0,1,0,.39c.28,5.49-1.08,9.92-4,13.19-3.4,3.75-8.9,5.89-15.91,6.18H56.27m-23.08-20c0,.12,0,.21,0,.29a2.2,2.2,0,0,0,0,.38c-.27,5.36,1,9.7,3.95,12.89,3.33,3.68,8.74,5.77,15.65,6.06h5.88c6.91-.29,12.32-2.38,15.65-6.06,2.89-3.19,4.22-7.53,3.94-12.9,0-.17,0-.28,0-.37a1.84,1.84,0,0,1,0-.29Z"/><path class="cls-3" d="M49.3,41.85a6.32,6.32,0,1,1,6.31,6.35,6.34,6.34,0,0,1-6.31-6.35"/><path class="cls-2" d="M55.62,35.68a6.17,6.17,0,1,0,6.12,6.17,6.16,6.16,0,0,0-6.12-6.17m0,12.45a6.29,6.29,0,1,1,6.24-6.28,6.27,6.27,0,0,1-6.24,6.28"/><path class="cls-2" d="M55.61,35.49a6.36,6.36,0,1,1-6.31,6.36,6.34,6.34,0,0,1,6.31-6.36M52.39,43c-1.14-1-1.15-3.17-.84-4.59.09-.39.19-.78.31-1.22a6,6,0,0,0-1.78,6.9,1.73,1.73,0,0,0,.32,0,2.18,2.18,0,0,0,2-1.12m6.14.46c-.2,1-1.27,1.76-2.28,2.36a9.1,9.1,0,0,1-4,1,5.85,5.85,0,0,0,3.32,1,5.94,5.94,0,0,0,5.22-3.1,1.57,1.57,0,0,0-2.3-1.28m-6.71,3a9.33,9.33,0,0,0,4.25-1c1.42-.84,2.52-1.75,2-3a1.43,1.43,0,0,0-2.28-.56,2,2,0,0,1-2,1.66,2.48,2.48,0,0,1-1.07-.38,2.53,2.53,0,0,1-2.27,1.25h-.15a6.19,6.19,0,0,0,1.57,2m3.78-8.37c1-.41,2.35.12,3.39.71a6.86,6.86,0,0,1,2.57,2.66,6,6,0,0,0-5.9-5.63,1.32,1.32,0,0,0-.06,2.26m-.17,3.83a2.33,2.33,0,0,1-.62-3.15,1.93,1.93,0,0,1,.45-.49,1.66,1.66,0,0,1-.17-2.43,6,6,0,0,0-2.79,1,14,14,0,0,0-.58,3.33c0,1.59.68,2.88,2.06,3.06a1.7,1.7,0,0,0,1.65-1.31m6.12.46a6.18,6.18,0,0,0-2.73-3.27c-1.44-.81-3-1.25-3.71-.15a2,2,0,0,0,.5,2.65,1.77,1.77,0,0,1,2.78.73,1.93,1.93,0,0,1,.17.7,1.93,1.93,0,0,1,2.53,1.17,6.23,6.23,0,0,0,.46-1.83"/><path class="cls-2" d="M63.13,30.94H60.45V25h2.71c1.18,0,1.89.6,1.89,1.6a1.35,1.35,0,0,1-.54,1.11A1.42,1.42,0,0,1,65.24,29a1.86,1.86,0,0,1-2.11,1.93M61.71,29.7h1.46c.49,0,.75-.23.75-.68s-.24-.67-.75-.67H61.71Zm0-2.51h1.45c.4,0,.58-.15.58-.47s-.08-.49-.64-.49H61.71Z"/><path class="cls-2" d="M55.17,31c-1.56,0-2.58-1.19-2.58-3.05s1.08-3.05,2.62-3.05a2.27,2.27,0,0,1,2.17,1.32l0,.07-1.19.55,0-.06a1,1,0,0,0-1-.59c-.8,0-1.29.68-1.29,1.76s.52,1.77,1.3,1.77a1.13,1.13,0,0,0,1.06-.7l0-.06,1.08.64,0,.06A2.26,2.26,0,0,1,55.17,31"/><polygon class="cls-2" points="47.28 30.94 45.99 30.94 45.99 25.02 50.24 25.02 50.24 26.29 47.28 26.29 47.28 27.24 49.01 27.24 49.01 28.5 47.28 28.5 47.28 30.94"/><path class="cls-6" d="M34.52,23.81c2.17-5,3-11.45-.67-17.74a16.48,16.48,0,0,0,2.84.26c3.74,0,6.68-.34,10-2.22a16.84,16.84,0,0,0,9,2.6,16.79,16.79,0,0,0,9-2.6c3.31,1.88,6.26,2.22,10,2.22a15.74,15.74,0,0,0,2.85-.27c-3.66,6.3-2.85,12.74-.68,17.75Z"/><path class="cls-7" d="M55.45,6.71v17.1h2.26V6.58a17.73,17.73,0,0,1-2.08.13h-.18"/><path class="cls-8" d="M57.71,23.81H60V6.13a16.74,16.74,0,0,1-2.26.45Z"/><path class="cls-7" d="M60,23.81h2.26V5.34A15.48,15.48,0,0,1,60,6.13Z"/><path class="cls-8" d="M62.22,23.81h2.26V4.18a17.85,17.85,0,0,1-2.26,1.16Z"/><path class="cls-7" d="M64.48,4.18V23.81h2.26V5.14a16.73,16.73,0,0,1-2.15-1,.41.41,0,0,1-.11.07"/><path class="cls-8" d="M66.74,23.81H69v-18a15.84,15.84,0,0,1-2.26-.69Z"/><path class="cls-7" d="M69,23.81h2.26V6.19A16.89,16.89,0,0,1,69,5.83Z"/><path class="cls-8" d="M71.25,23.78h2.27V6.29c-.78,0-1.54,0-2.27-.12Z"/><path class="cls-7" d="M77.27,6.08a14.87,14.87,0,0,1-2.69.25H73.51V23.81h3.25c-2.14-4.93-3-11.24.51-17.45Z"/><path class="cls-8" d="M42.57,18v5.8h6.29V18h6.7V11.69h-6.7V5.26a19.69,19.69,0,0,1-2.18-1.15,15.58,15.58,0,0,1-4.11,1.65v5.93H36A18.49,18.49,0,0,1,36.17,18Z"/><path class="cls-2" d="M77.82,5.79l-.42.08a15.12,15.12,0,0,1-2.82.27c-3.81,0-6.66-.36-9.89-2.19l-.1-.06L64.5,4a16.64,16.64,0,0,1-8.87,2.57A16.62,16.62,0,0,1,46.78,4l-.09-.06-.1.06c-3.24,1.83-6.08,2.19-9.9,2.19a15.47,15.47,0,0,1-2.81-.26l-.4-.07.2.36c3.92,6.74,2.52,13.27.66,17.56l-.11.27H77.05l-.12-.27c-1.86-4.29-3.25-10.82.67-17.58Zm-43.61.53a15.33,15.33,0,0,0,2.48.2c3.84,0,6.72-.36,10-2.19A17,17,0,0,0,55.37,6.9V23.62H34.81a19.36,19.36,0,0,0-.6-17.3m42.26,17.3H55.75V6.9A17.14,17.14,0,0,0,64.6,4.33c3.26,1.83,6.14,2.19,10,2.19a15,15,0,0,0,2.49-.21,19.35,19.35,0,0,0-.6,17.31"/><path class="cls-6" d="M15.56,84.62h3.55c2.14,0,3.24,1.06,3.24,3a3.25,3.25,0,0,1-2.1,3H17.48v3.51H15.56ZM19.62,89a1.4,1.4,0,0,0,.82-1.38,1.16,1.16,0,0,0-1.31-1.22H17.48V89Z"/><path class="cls-6" d="M22.65,93.14,25,84.62h3.1l2.35,8.52v1.07H28.74l-.52-2a8.1,8.1,0,0,1-1.7.17,9.18,9.18,0,0,1-1.67-.15l-.52,2H22.65Zm2.63-2.54a7.06,7.06,0,0,0,1.24.11,6.85,6.85,0,0,0,1.28-.12l-.56-2.13c-.23-.89-.51-2.13-.51-2.13h-.38s-.28,1.24-.52,2.13Z"/><path class="cls-6" d="M32.06,84.62h3.62c2.09,0,3.23,1,3.23,2.85a3.09,3.09,0,0,1-2,2.88,15.21,15.21,0,0,0,1.93,2.7v1.16H37.4A21.61,21.61,0,0,1,35,90.54H34v3.67H32.06Zm4,4.19A1.26,1.26,0,0,0,37,87.55a1.12,1.12,0,0,0-1.25-1.19H34v2.45Z"/><path class="cls-6" d="M40.27,88.2c0-2.53,1.26-3.68,3.55-3.68a3.82,3.82,0,0,1,2.88,1.07v1.5H45.13s-.11-.86-1.29-.86-1.65.62-1.65,1.93v2.51c0,1.31.39,1.93,1.65,1.93s1.29-.86,1.29-.86H46.7v1.5a3.82,3.82,0,0,1-2.88,1.07c-2.29,0-3.55-1.14-3.55-3.68Z"/><path class="cls-6" d="M48.34,84.62h6.08l-.29,1.74H50.26v2.2h3.51v1.73H50.26v2.19h4v1.73H48.34Z"/><path class="cls-6" d="M56.65,92.7V86.13l-1-.17V84.62h3.83V86l-1,.17V92.7l1,.17v1.34H55.69V92.87Z"/><path class="cls-6" d="M61.22,84.62h3.62c2.09,0,3.23,1,3.23,2.85a3.1,3.1,0,0,1-2,2.88A15.51,15.51,0,0,0,68,93.05v1.16H66.56a21.27,21.27,0,0,1-2.43-3.67h-1v3.67H61.22Zm4,4.19a1.26,1.26,0,0,0,.89-1.26,1.11,1.11,0,0,0-1.24-1.19H63.13v2.45Z"/><path class="cls-6" d="M69.19,93.14l2.35-8.52h3.1L77,93.14v1.07H75.28l-.53-2a8,8,0,0,1-1.7.17,9.07,9.07,0,0,1-1.66-.15l-.53,2H69.19Zm2.62-2.54a7.15,7.15,0,0,0,1.24.11,6.77,6.77,0,0,0,1.28-.12l-.56-2.13c-.23-.89-.51-2.13-.51-2.13h-.38s-.28,1.24-.52,2.13Z"/><path class="cls-6" d="M81.25,84.62h3.42c2.3,0,3.55,1.12,3.55,3.68v2.23c0,2.57-1.25,3.68-3.55,3.68H81.25Zm1.91,1.72v6.15h1.4c1.21,0,1.75-.45,1.75-1.79V88.13c0-1.34-.54-1.79-1.75-1.79Z"/><path class="cls-6" d="M90.06,84.62h6.08l-.28,1.74H92v2.2h3.51v1.73H92v2.19h4v1.73H90.06Z"/><path class="cls-6" d="M5.71,100.47v7.85H3.79v-7.85H1.51V98.73H8.08l-.28,1.74Z"/><path class="cls-6" d="M9.35,98.73H13c2.08,0,3.22,1,3.22,2.85a3.09,3.09,0,0,1-2,2.87,15.12,15.12,0,0,0,1.93,2.71v1.16H14.7a21.27,21.27,0,0,1-2.43-3.67h-1v3.67H9.35Zm4.05,4.19a1.26,1.26,0,0,0,.89-1.26,1.11,1.11,0,0,0-1.24-1.19H11.27v2.45Z"/><path class="cls-6" d="M17.32,107.25l2.36-8.52h3.1l2.35,8.52v1.07H23.41l-.52-2a8.85,8.85,0,0,1-1.71.17,10.14,10.14,0,0,1-1.66-.15l-.52,2H17.32Zm2.62-2.54a7.24,7.24,0,0,0,1.24.11,7,7,0,0,0,1.29-.12l-.57-2.13c-.22-.89-.5-2.13-.5-2.13H21s-.29,1.24-.53,2.13Z"/><path class="cls-6" d="M26.73,98.73h3.43c2.29,0,3.55,1.11,3.55,3.68v2.23c0,2.56-1.26,3.68-3.55,3.68H26.73Zm1.92,1.72v6.15H30c1.21,0,1.75-.45,1.75-1.79v-2.57c0-1.34-.54-1.79-1.75-1.79Z"/><path class="cls-6" d="M35.9,106.81v-6.57l-1-.17V98.73h3.83v1.34l-1,.17v6.57l1,.17v1.34H34.94V107Z"/><path class="cls-6" d="M40.47,98.73h1.76l2.74,4.5c.22.37.76,1.45.76,1.45h0s-.07-1-.07-2v-4h1.86v9.59H45.69v-.78l-2.42-3.93L42.33,102h0s0,.87,0,1.82v4.54H40.47Z"/><path class="cls-6" d="M49.38,102.31c0-2.56,1.4-3.68,3.75-3.68a3.87,3.87,0,0,1,2.92,1.1v1.47H54.49a1.34,1.34,0,0,0-1.41-.86c-1.26,0-1.78.62-1.78,1.93V105c0,1.34.56,1.91,1.76,1.91a1.86,1.86,0,0,0,1.37-.5v-2H53v-1.68h3.23v5.66H54.81l-.24-.65h0a2.77,2.77,0,0,1-2.05.76c-2,0-3.1-1.15-3.1-3.58Z"/><path class="cls-6" d="M60.81,102.44c0-2.5,1.29-3.85,3.72-3.85s3.72,1.35,3.72,3.85v2.17c0,2.48-1.29,3.85-3.72,3.85s-3.72-1.35-3.72-3.85Zm3.72,4.31c1.27,0,1.8-.59,1.8-2V102.3c0-1.41-.53-2-1.8-2s-1.81.59-1.81,2v2.45C62.72,106.16,63.26,106.75,64.53,106.75Z"/><path class="cls-6" d="M70.09,98.73H76l-.29,1.74H72v2.19h3.37v1.74H72v3.92H70.09Z"/><path class="cls-6" d="M77.92,106.81v-6.57l-1-.17V98.73h3.83v1.34l-1,.17v6.57l1,.17v1.34H77V107Z"/><path class="cls-6" d="M82,102.31c0-2.54,1.26-3.68,3.56-3.68a3.81,3.81,0,0,1,2.87,1.07v1.5H86.89s-.12-.86-1.3-.86-1.65.62-1.65,1.93v2.51c0,1.31.39,1.93,1.65,1.93s1.3-.86,1.3-.86h1.56v1.5a3.81,3.81,0,0,1-2.87,1.07c-2.3,0-3.56-1.14-3.56-3.68Z"/><path class="cls-6" d="M90.63,106.81v-6.57l-1-.17V98.73H93.5v1.34l-1,.17v6.57l1,.17v1.34H89.67V107Z"/><path class="cls-6" d="M94.67,107.25,97,98.73h3.1l2.36,8.52v1.07h-1.73l-.52-2a8.75,8.75,0,0,1-1.7.17,10.17,10.17,0,0,1-1.67-.15l-.52,2H94.67Zm2.63-2.54a7.06,7.06,0,0,0,1.24.11,6.85,6.85,0,0,0,1.28-.12l-.56-2.13c-.23-.89-.51-2.13-.51-2.13h-.38s-.28,1.24-.52,2.13Z"/><path class="cls-6" d="M104.08,98.73H106v7.85h3.88l-.28,1.74h-5.52Z"/><path class="cls-6" d="M0,112.84H3.43C5.72,112.84,7,114,7,116.52v2.23c0,2.56-1.26,3.68-3.55,3.68H0Zm1.92,1.72v6.15H3.31c1.22,0,1.75-.45,1.75-1.79v-2.57c0-1.34-.53-1.79-1.75-1.79Z"/><path class="cls-6" d="M8.53,116.55c0-2.5,1.3-3.85,3.72-3.85S16,114.05,16,116.55v2.17c0,2.48-1.3,3.85-3.73,3.85s-3.72-1.36-3.72-3.85Zm3.72,4.31c1.27,0,1.81-.59,1.81-2v-2.45c0-1.41-.54-2-1.81-2s-1.8.6-1.8,2v2.45C10.45,120.27,11,120.86,12.25,120.86Z"/><path class="cls-6" d="M20.64,112.84h5.93l-.28,1.73H22.55v2.2h3.37v1.74H22.55v3.92H20.64Z"/><path class="cls-6" d="M27.49,116.42c0-2.54,1.26-3.68,3.55-3.68a3.82,3.82,0,0,1,2.88,1.07v1.5H32.36s-.12-.86-1.3-.86-1.65.62-1.65,1.93v2.51c0,1.31.39,1.93,1.65,1.93s1.3-.86,1.3-.86h1.56v1.49A3.8,3.8,0,0,1,31,122.53c-2.29,0-3.55-1.15-3.55-3.68Z"/><path class="cls-6" d="M38.38,112.84h3.47c2.3,0,3.1,1,3.1,2.62a2.43,2.43,0,0,1-1.11,2.12v0a2.44,2.44,0,0,1,1.25,2.07c0,1.72-.94,2.75-3.12,2.75H38.38Zm1.86,1.65v2.27h2.09a1.27,1.27,0,0,0,.74-1.17,1,1,0,0,0-1.15-1.1Zm0,3.89v2.4H42a1.11,1.11,0,0,0,1.19-1.2,1.33,1.33,0,0,0-.85-1.2Z"/><path class="cls-6" d="M46.26,121.36l2.36-8.52h3.1l2.36,8.52v1.07H52.36l-.53-2a8.75,8.75,0,0,1-1.7.17,9.18,9.18,0,0,1-1.67-.16l-.52,2H46.26Zm2.63-2.54a7.15,7.15,0,0,0,1.24.11,6,6,0,0,0,1.28-.13l-.56-2.13c-.23-.88-.51-2.12-.51-2.12H50s-.28,1.24-.52,2.12Z"/><path class="cls-6" d="M55.67,112.84H59.3c2.08,0,3.23,1,3.23,2.85a3.09,3.09,0,0,1-2,2.87,15.71,15.71,0,0,0,1.93,2.71v1.16H61a21.27,21.27,0,0,1-2.43-3.67h-1v3.67H55.67Zm4,4.19a1.26,1.26,0,0,0,.89-1.26,1.12,1.12,0,0,0-1.24-1.2H57.59V117Z"/><path class="cls-6" d="M63.88,116.42c0-2.54,1.26-3.68,3.56-3.68a3.81,3.81,0,0,1,2.87,1.07v1.5H68.75s-.12-.86-1.3-.86-1.65.62-1.65,1.93v2.51c0,1.31.4,1.93,1.65,1.93s1.3-.86,1.3-.86h1.56v1.49a3.79,3.79,0,0,1-2.87,1.08c-2.3,0-3.56-1.15-3.56-3.68Z"/><path class="cls-6" d="M72,112.84H78l-.28,1.73H73.87v2.2h3.51v1.74H73.87v2.18h4v1.74H72Z"/><path class="cls-6" d="M79.72,112.84h1.92v7.85h3.88l-.28,1.74H79.72Z"/><path class="cls-6" d="M86,116.55c0-2.5,1.29-3.85,3.72-3.85s3.72,1.35,3.72,3.85v2.17c0,2.48-1.3,3.85-3.72,3.85S86,121.21,86,118.72Zm3.72,4.31c1.27,0,1.8-.59,1.8-2v-2.45c0-1.41-.53-2-1.8-2s-1.81.6-1.81,2v2.45C87.94,120.27,88.48,120.86,89.75,120.86Z"/><path class="cls-6" d="M95.31,112.84h1.76l2.74,4.5c.22.36.76,1.45.76,1.45h0s-.07-1-.07-2v-4h1.86v9.59h-1.86v-.78l-2.42-3.93-.94-1.65h0s0,.87,0,1.82v4.54H95.31Z"/><path class="cls-6" d="M104,121.36l2.36-8.52h3.1l2.35,8.52v1.07h-1.72l-.52-2a8.83,8.83,0,0,1-1.7.17,9.18,9.18,0,0,1-1.67-.16l-.52,2H104Zm2.63-2.54a7.06,7.06,0,0,0,1.24.11,6.11,6.11,0,0,0,1.28-.13l-.56-2.13c-.23-.88-.51-2.12-.51-2.12h-.38s-.28,1.24-.52,2.12Z"/></g></g></svg>