<?xml version="1.0" encoding="utf-8"?>
<!-- Generator: Adobe Illustrator 25.2.0, SVG Export Plug-In . SVG Version: 6.00 Build 0)  -->
<svg version="1.1" id="Layer_1" xmlns="http://www.w3.org/2000/svg" xmlns:xlink="http://www.w3.org/1999/xlink" x="0px" y="0px"
	 viewBox="0 0 226.4 112.6" style="enable-background:new 0 0 226.4 112.6;" xml:space="preserve">
<style type="text/css">
	.st0{fill:#231F20;}
	.st1{fill:#E7B809;}
	.st2{fill:#FFFFFF;}
	.st3{fill:#FFDD00;}
	.st4{fill:#0055A3;}
	.st5{fill:#A30046;}
	.st6{fill:#E21936;}
	.st7{fill:#3CB453;}
	.st8{fill:none;stroke:#231F20;stroke-miterlimit:10;}
	.st9{fill:#00BE40;}
</style>
<g>
	<g id="ARTE">
		<g>
			<rect x="113.2" y="0" class="st0" width="1" height="71.7"/>
			<path class="st1" d="M191.3,1.2l0.4,0.2c3.9,2.6,7.1,3.1,11.9,3.1c1.8,0,3.6-0.3,5.3-0.9l0.5-0.2l2.3,3.2L211.3,7
				c-8.5,11.3-1.9,23.4,2.8,28.3l0.4,0.4l-0.4,0.4c-0.6,0.6-1.7,1.7-2.5,2.5l-0.3,0.3l0,0.4l0,0.1c0,0.1,0,0.2,0,0.4l0,0.1
				c0.4,7.5-1.6,13.7-5.8,18.3c-4.5,4.9-11.6,7.9-20,8.4l-0.3,0l-0.2,0.2c-2.1,1.9-4.3,3.6-4.3,3.6l-0.4,0.3l-0.4-0.3
				c-0.1-0.1-2.2-1.7-4.3-3.6l-0.2-0.2l-0.3,0c-8.4-0.5-15.5-3.4-20-8.4c-4.2-4.7-6.2-10.8-5.8-18.3l0-0.1c0-0.2,0-0.3,0-0.4l0,0v0
				l0-0.1l0-0.4l-0.3-0.3c-0.7-0.8-1.8-1.9-2.5-2.5l-0.4-0.4l0.4-0.4c4.7-4.9,11.3-17,2.8-28.3l-0.2-0.3l2.3-3.2l0.5,0.2
				c1.7,0.6,3.5,0.9,5.3,0.9c4.8,0,8-0.5,11.9-3.1l0.4-0.2l0.4,0.2c3,2.3,6.7,3.5,10.5,3.5c3.8,0,7.5-1.3,10.5-3.5L191.3,1.2"/>
			<path class="st2" d="M154.6,29c2.7-6.1,3.6-13.9-0.8-21.5c1.1,0.2,2.3,0.3,3.5,0.3c4.6,0,8.2-0.4,12.2-2.7
				c3.3,2.1,7.1,3.1,10.9,3.2c3.9,0,7.7-1.1,10.9-3.2c4,2.3,7.6,2.7,12.2,2.7c1.2,0,2.3-0.1,3.5-0.3c-4.5,7.7-3.5,15.5-0.8,21.6
				L154.6,29"/>
			<path class="st3" d="M206.2,29c-2.7-6.1-3.6-13.9,0.8-21.6c-1.1,0.2-2.3,0.3-3.5,0.3c-4.6,0-8.2-0.4-12.2-2.7
				c-3.3,2.1-7.1,3.1-10.9,3.2c0,0-0.1,0-0.1,0V29H206.2z"/>
			<path class="st4" d="M200.5,58.4c5.1-3.7,8.1-9.6,7.6-18.3c-0.1-0.5-0.1-0.5-0.1-1h-7.5V58.4z"/>
			<path class="st5" d="M192.4,62.1c2.9-0.7,5.6-2,8-3.7V39.1h-8V62.1z"/>
			<path class="st5" d="M160.3,58.4c2.4,1.7,5.2,3,8,3.7v-23h-8V58.4z"/>
			<path class="st4" d="M152.6,40.1c-0.4,8.7,2.6,14.6,7.6,18.3V39.1h-7.5C152.7,39.6,152.7,39.6,152.6,40.1"/>
			<path class="st5" d="M180.4,43.4c1.4,0,2.8,0.4,4,1.2v-5.4h-8v5.4C177.6,43.8,179,43.4,180.4,43.4"/>
			<path class="st5" d="M180.4,58.5c-1.4,0-2.8-0.4-4-1.2v6c0.1,0,0.3,0,0.4,0c2.7,0,5.1,0,7.2,0c0.1,0,0.3,0,0.4,0v-6
				C183.2,58.1,181.8,58.5,180.4,58.5"/>
			<path class="st4" d="M184.4,39.1v5.4c3.6,2.2,4.6,6.9,2.4,10.4c-0.6,1-1.5,1.8-2.4,2.4v6c2.7-0.1,5.4-0.5,8-1.2v-23H184.4z"/>
			<path class="st4" d="M172.8,50.9c0-2.6,1.3-5,3.5-6.4v-5.4h-8v23c2.6,0.7,5.3,1.1,8,1.2v-6C174.1,56,172.8,53.6,172.8,50.9"/>
			<path class="st6" d="M156.4,14.3c0.5,2.5,0.6,5.1,0.2,7.7h7.8v7h7.7v-7h8.2v-7.7h-8.2V6.5c-0.9-0.4-1.8-0.9-2.7-1.4
				c-1.6,0.9-3.3,1.6-5,2v7.2L156.4,14.3z"/>
			<path class="st6" d="M196.8,29V7.2c-0.9-0.2-1.9-0.5-2.8-0.8V29L196.8,29z"/>
			<path class="st6" d="M185.8,29V7.5c-0.9,0.3-1.8,0.4-2.8,0.6V29L185.8,29z"/>
			<path class="st6" d="M202.3,29V7.8c-1,0-1.9-0.1-2.8-0.1V29H202.3z"/>
			<path class="st6" d="M191.3,29V5.1c-0.9,0.5-1.8,1-2.8,1.4V29L191.3,29z"/>
			<path class="st0" d="M215.8,35.7l-1.1-1.1c-4.5-4.7-10.8-16.3-2.7-27.1l0.6-0.8l-3.1-4.3l-1.1,0.4c-1.6,0.6-3.3,0.9-5,0.9
				c-4.6,0-7.7-0.5-11.4-2.9l-0.9-0.6l-0.9,0.6c-2.9,2.2-6.4,3.3-10,3.4c-3.6,0-7.1-1.2-10-3.4l-0.9-0.6l-0.9,0.6
				c-3.7,2.5-6.8,2.9-11.4,2.9c-1.7,0-3.4-0.3-5-0.9l-1.1-0.4l-3.1,4.3l0.6,0.8c8.1,10.8,1.8,22.4-2.7,27.1l-1.1,1.1l1.1,1.1
				c0.6,0.6,1.6,1.6,2.4,2.5c0,0,0,0.1,0,0.1c0,0.1,0,0.2,0,0.3l0,0.1c-0.4,7.8,1.6,14.2,6,19c4.7,5.1,12,8.2,20.6,8.7
				c2.1,1.9,4.3,3.6,4.4,3.6l0.9,0.7l0.9-0.7c0.1-0.1,2.3-1.7,4.4-3.6c8.6-0.5,15.9-3.5,20.6-8.7c4.4-4.8,6.4-11.2,6-19l0-0.1
				c0-0.1,0-0.2,0-0.3c0,0,0-0.1,0-0.1c0.8-0.9,1.9-2,2.4-2.5L215.8,35.7z M210.7,38.7c0.1,0.8,0,0.8,0.1,1.2
				c0.9,17.3-11.1,25.5-25.7,26.1c-2.2,2.1-4.7,3.9-4.7,3.9s-2.5-1.8-4.7-3.9c-14.6-0.6-26.6-8.8-25.7-26.1c0.1-0.5,0-0.4,0.1-1.2
				c-0.8-0.9-2.2-2.3-2.9-3.1c5.2-5.4,11.3-17.8,2.9-29.1l1.8-2.4c1.8,0.6,3.6,0.9,5.5,1c4.9,0,8.2-0.5,12.2-3.2
				c3.2,2.3,7,3.6,10.9,3.6c3.9,0,7.7-1.3,10.9-3.6c4.1,2.7,7.4,3.2,12.2,3.2c1.9,0,3.7-0.3,5.5-1l1.8,2.4
				c-8.5,11.2-2.4,23.7,2.9,29.1C212.9,36.4,211.5,37.8,210.7,38.7"/>
			<path class="st0" d="M152.5,39.1c0,0.3,0,0.4-0.1,0.5c0,0.1,0,0.3-0.1,0.5c-0.3,6.7,1.3,12,4.9,16c4.1,4.6,10.9,7.1,19.4,7.5
				l0.3,0c1.4,0,2.8,0,4.1,0c1,0,1.9,0,2.8,0c8.6-0.4,15.3-2.9,19.4-7.5c3.6-4,5.3-9.4,4.9-16c0-0.2,0-0.4-0.1-0.5
				c0-0.1,0-0.3-0.1-0.5l0-0.2h-55.7L152.5,39.1z M152.8,40.1c0-0.2,0-0.3,0.1-0.5c0-0.1,0-0.2,0-0.4h54.8c0,0.1,0,0.2,0,0.4
				c0,0.1,0,0.2,0.1,0.4c0.3,6.5-1.3,11.8-4.8,15.7c-4.1,4.5-10.7,7-19.1,7.3c-2,0-4.3,0-6.9,0l-0.3,0c-8.4-0.3-15.1-2.9-19.1-7.3
				C154.1,51.9,152.5,46.7,152.8,40.1"/>
			<path class="st0" d="M154.4,28.9l-0.1,0.3h52.3l-0.1-0.3c-2.3-5.2-4-13.1,0.8-21.4l0.3-0.4L207,7.2c-1.1,0.2-2.3,0.3-3.4,0.3
				c-4.7,0-8.1-0.4-12.1-2.7l-0.1-0.1l-0.1,0.1c-3.2,2-7,3.1-10.8,3.1c-3.8,0-7.6-1.1-10.8-3.1l-0.1-0.1l-0.1,0.1
				c-3.9,2.2-7.4,2.7-12.1,2.7c-1.2,0-2.3-0.1-3.4-0.3l-0.5-0.1l0.3,0.4C158.3,15.8,156.6,23.7,154.4,28.9 M180.5,8.5
				c3.8,0,7.6-1.1,10.8-3.1c4,2.2,7.5,2.7,12.2,2.7c1,0,2-0.1,3-0.3c-4.5,8.1-2.9,15.8-0.7,21h-25.3L180.5,8.5z M154.2,7.8
				c1,0.2,2,0.2,3,0.2c4.7,0,8.2-0.4,12.2-2.7c3.2,2,6.9,3.1,10.6,3.1v20.3h-25.1C157.1,23.6,158.7,15.8,154.2,7.8"/>
			<polygon class="st0" points="173.8,32 173.8,30.5 168.6,30.5 168.6,37.7 170.2,37.7 170.2,34.7 172.3,34.7 172.3,33.2 
				170.2,33.2 170.2,32 			"/>
			<path class="st0" d="M179.8,31.9c0.5,0,1,0.3,1.2,0.7l0,0.1l1.4-0.7l0-0.1c-0.5-1-1.5-1.7-2.6-1.6c-1.9,0-3.2,1.5-3.2,3.7
				c0,2.2,1.2,3.7,3.1,3.7c1.1,0.1,2.2-0.6,2.7-1.6l0-0.1l-1.3-0.8l0,0.1c-0.2,0.5-0.7,0.9-1.3,0.9c-0.9,0-1.6-0.9-1.6-2.2
				C178.3,32.7,178.9,31.9,179.8,31.9"/>
			<path class="st0" d="M191.9,32.4c0-1.2-0.9-1.9-2.3-1.9h-3.3v7.2h3.3c1.2,0.2,2.4-0.7,2.6-1.9c0-0.1,0-0.3,0-0.4
				c0-0.6-0.3-1.2-0.9-1.5C191.6,33.5,191.9,33,191.9,32.4 M187.8,31.9h1.7c0.7,0,0.8,0.3,0.8,0.6c0,0.4-0.2,0.6-0.7,0.6h-1.8
				L187.8,31.9z M189.6,36.2h-1.8v-1.7h1.8c0.6,0,0.9,0.3,0.9,0.8C190.5,35.9,190.2,36.2,189.6,36.2"/>
			<path class="st0" d="M180.3,58.7c4.3,0,7.7-3.5,7.7-7.7s-3.5-7.7-7.7-7.7s-7.7,3.5-7.7,7.7v0C172.6,55.2,176.1,58.6,180.3,58.7
				 M180.3,58.2c-1.4,0-2.9-0.4-4.1-1.2c1.7,0,3.3-0.5,4.8-1.2c1.2-0.7,2.5-1.6,2.8-2.9c0.9-0.5,2.1-0.1,2.6,0.8
				c0.1,0.2,0.2,0.5,0.2,0.7C185.4,56.7,183,58.2,180.3,58.2 M176.8,52.6c0.4,0.3,0.8,0.4,1.3,0.5c1.2,0,2.3-0.8,2.5-2
				c0.7-0.6,1.8-0.6,2.5,0.1c0.1,0.2,0.2,0.3,0.3,0.5c0.6,1.5-0.7,2.6-2.4,3.7c-1.6,0.8-3.4,1.2-5.2,1.2c-0.8-0.7-1.5-1.5-1.9-2.4
				c0.1,0,0.1,0,0.2,0C175.1,54.1,176.2,53.6,176.8,52.6 M175.6,48.9c0.1-1.4,0.3-2.7,0.7-4c1-0.7,2.2-1.1,3.4-1.2
				c-0.8,0.8-0.7,2.1,0.1,2.9c0,0,0.1,0.1,0.1,0.1c-0.2,0.2-0.4,0.4-0.5,0.6c-0.8,1.3-0.5,3,0.8,3.8c-0.2,0.9-1.1,1.6-2,1.6
				C176.4,52.4,175.6,50.8,175.6,48.9 M183.9,52.4c0-0.3-0.1-0.6-0.2-0.8c-0.4-1.1-1.7-1.7-2.8-1.2c-0.2,0.1-0.4,0.2-0.6,0.3
				c-1-0.7-1.3-2.1-0.6-3.2c0.8-1.3,2.8-0.8,4.5,0.2c1.5,0.9,2.7,2.3,3.3,4c-0.1,0.8-0.3,1.5-0.6,2.2
				C186.6,52.6,185.3,51.9,183.9,52.4C184,52.4,184,52.4,183.9,52.4 M184.5,47.2c-1.3-0.7-2.9-1.4-4.1-0.9c-0.7-0.5-1-1.5-0.5-2.2
				c0.1-0.2,0.3-0.4,0.6-0.5c3.8,0,7,3,7.2,6.8C186.9,49.1,185.8,48,184.5,47.2 M175.8,45.3c-0.1,0.5-0.3,1-0.4,1.5
				c-0.4,1.7-0.4,4.3,1,5.6c-0.5,0.9-1.4,1.4-2.4,1.4c-0.1,0-0.3,0-0.4,0C172.4,50.7,173.3,47.3,175.8,45.3"/>
			<path class="st7" d="M17.6,0h57.8c3.8,0,7,3.1,7,7v57.8c0,3.8-3.1,7-7,7H17.6c-3.8,0-7-3.1-7-7c0,0,0,0,0,0V7
				C10.6,3.2,13.7,0,17.6,0C17.6,0,17.6,0,17.6,0"/>
			<rect x="24.9" y="45.4" class="st2" width="43.4" height="3.4"/>
			<polygon class="st2" points="36.7,28.2 36.7,24.7 24.9,24.7 24.9,41.1 29.2,41.1 29.2,35.3 35.9,35.3 35.9,31.8 29.2,31.8 
				29.2,28.2 			"/>
			<path class="st2" d="M49.6,32.6c1.5-0.5,2.6-2,2.6-3.6c0-2.6-2-4.2-5.3-4.2h-8.4v16.4h8.5c3.6,0,5.8-1.7,5.8-4.6
				C52.8,34.6,51.5,33,49.6,32.6 M42.9,28.1h3.3c1.2,0,1.9,0.6,1.9,1.6c0,1-0.7,1.6-1.9,1.6h-3.3V28.1z M46.5,37.8h-3.6v-3.3h3.7
				c1.2,0,1.9,0.6,1.9,1.7C48.4,37.3,47.8,37.8,46.5,37.8L46.5,37.8z"/>
			<path class="st2" d="M63.3,31.2l-2-0.3c-1.9-0.3-2.5-0.8-2.5-1.7s0.8-1.5,2.4-1.5c1.3-0.2,2.5,0.7,2.7,2c0,0,0,0,0,0l4.1-0.5
				c-0.6-3.2-2.9-4.8-6.7-4.8c-4.2,0-7,2.1-7,5.3c0,2.8,1.7,4.4,5.1,4.9l2.1,0.3c2.2,0.3,2.7,0.8,2.7,1.8s-0.8,1.5-2.7,1.5
				c-1.4,0.1-2.7-0.8-3.1-2.2l-4.3,0.6c0.7,3.3,3.2,4.9,7.3,4.9c4.6,0,7.3-2,7.3-5.3C68.7,33.2,67,31.7,63.3,31.2"/>
		</g>
		<g>
			<g>
				<path d="M0,87h3.8c2.3,0,3.5,1.1,3.5,3.3c0,1.5-0.9,2.8-2.3,3.3h-3v3.8H0V87z M4.4,91.7c0.6-0.3,0.9-0.9,0.9-1.5
					c0-0.7-0.5-1.3-1.2-1.3c-0.1,0-0.2,0-0.3,0H2.1v2.8H4.4z"/>
				<path d="M8.2,96.2l2.5-9.2H14l2.5,9.2v1.2h-1.9l-0.6-2.2c-0.6,0.1-1.2,0.2-1.8,0.2c-0.6,0-1.2-0.1-1.8-0.2L10,97.3H8.2V96.2z
					 M11,93.5c0.4,0.1,0.9,0.1,1.3,0.1c0.5,0,0.9,0,1.4-0.1l-0.6-2.3c-0.2-1-0.5-2.3-0.5-2.3h-0.4c0,0-0.3,1.3-0.6,2.3L11,93.5z"/>
				<path d="M18.1,87H22c2.2,0,3.5,1.1,3.5,3.1c0,1.4-0.8,2.6-2.1,3.1c0.6,1,1.3,2,2.1,2.9v1.2h-1.6c-1-1.2-1.9-2.5-2.6-3.9h-1.1
					v3.9h-2.1V87z M22.5,91.5c0.6-0.2,1-0.7,1-1.4c0.1-0.7-0.4-1.2-1.1-1.3c-0.1,0-0.2,0-0.2,0h-1.9v2.6L22.5,91.5z"/>
				<path d="M26.8,90.9c0-2.7,1.4-4,3.8-4c1.1-0.1,2.3,0.4,3.1,1.2v1.6H32c0,0-0.1-0.9-1.4-0.9c-1.4,0-1.8,0.7-1.8,2.1v2.7
					c0,1.4,0.4,2.1,1.8,2.1c1.3,0,1.4-0.9,1.4-0.9h1.7v1.6c-0.8,0.8-1.9,1.2-3.1,1.2c-2.5,0-3.8-1.2-3.8-4L26.8,90.9z"/>
				<polygon points="35.3,87 41.9,87 41.6,88.9 37.4,88.9 37.4,91.3 41.2,91.3 41.2,93.1 37.4,93.1 37.4,95.5 41.7,95.5 41.7,97.3 
					35.3,97.3 				"/>
				<polygon points="44.1,95.7 44.1,88.6 43.1,88.5 43.1,87 47.2,87 47.2,88.5 46.2,88.6 46.2,95.7 47.2,95.9 47.2,97.3 43.1,97.3 
					43.1,95.9 				"/>
				<path d="M48.9,87h3.9c2.2,0,3.5,1.1,3.5,3.1c0,1.4-0.8,2.6-2.1,3.1c0.6,1,1.3,2,2.1,2.9v1.2h-1.6c-1-1.2-1.9-2.5-2.6-3.9H51v3.9
					h-2.1L48.9,87z M53.3,91.5c0.6-0.2,1-0.7,1-1.4c0.1-0.7-0.4-1.2-1.1-1.3c-0.1,0-0.2,0-0.2,0H51v2.6L53.3,91.5z"/>
				<path d="M57.3,96.2l2.5-9.2h3.3l2.5,9.2v1.2h-1.9l-0.6-2.2c-0.6,0.1-1.2,0.2-1.8,0.2c-0.6,0-1.2-0.1-1.8-0.2l-0.6,2.2h-1.8V96.2
					z M60.1,93.5c0.4,0.1,0.9,0.1,1.3,0.1c0.5,0,0.9,0,1.4-0.1l-0.6-2.3c-0.2-1-0.5-2.3-0.5-2.3h-0.4c0,0-0.3,1.3-0.6,2.3L60.1,93.5
					z"/>
				<path d="M70.3,87H74c2.5,0,3.8,1.2,3.8,4v2.4c0,2.8-1.4,4-3.8,4h-3.7V87z M72.4,88.9v6.6h1.5c1.3,0,1.9-0.5,1.9-1.9v-2.8
					c0-1.4-0.6-1.9-1.9-1.9L72.4,88.9z"/>
				<polygon points="79.7,87 86.2,87 85.9,88.9 81.7,88.9 81.7,91.3 85.5,91.3 85.5,93.1 81.7,93.1 81.7,95.5 86.1,95.5 86.1,97.3 
					79.7,97.3 				"/>
				<polygon points="94.6,88.9 94.6,97.3 92.6,97.3 92.6,88.9 90.1,88.9 90.1,87 97.2,87 96.9,88.9 				"/>
				<path d="M98.4,87h3.9c2.2,0,3.5,1.1,3.5,3.1c0,1.4-0.8,2.6-2.1,3.1c0.6,1,1.3,2,2.1,2.9v1.2h-1.6c-1-1.2-1.9-2.5-2.6-3.9h-1.1
					v3.9h-2.1L98.4,87z M102.7,91.5c0.6-0.2,1-0.7,1-1.4c0.1-0.7-0.4-1.2-1.1-1.3c-0.1,0-0.2,0-0.2,0h-1.9v2.6L102.7,91.5z"/>
				<path d="M106.8,96.2l2.5-9.2h3.3l2.5,9.2v1.2h-1.9l-0.6-2.2c-0.6,0.1-1.2,0.2-1.8,0.2c-0.6,0-1.2-0.1-1.8-0.2l-0.6,2.2h-1.8
					L106.8,96.2z M109.6,93.5c0.4,0.1,0.9,0.1,1.3,0.1c0.5,0,0.9,0,1.4-0.1l-0.6-2.3c-0.2-1-0.5-2.3-0.5-2.3h-0.4
					c0,0-0.3,1.3-0.6,2.3L109.6,93.5z"/>
				<path d="M116.8,87h3.7c2.5,0,3.8,1.2,3.8,4v2.4c0,2.8-1.4,4-3.8,4h-3.7V87z M118.8,88.9v6.6h1.5c1.3,0,1.9-0.5,1.9-1.9v-2.8
					c0-1.4-0.6-1.9-1.9-1.9L118.8,88.9z"/>
				<polygon points="126.7,95.7 126.7,88.6 125.7,88.5 125.7,87 129.8,87 129.8,88.5 128.8,88.6 128.8,95.7 129.8,95.9 129.8,97.3 
					125.7,97.3 125.7,95.9 				"/>
				<path d="M131.5,87h1.9l2.9,4.8c0.2,0.4,0.8,1.6,0.8,1.6h0c0,0-0.1-1.1-0.1-2.1V87h2v10.3h-2v-0.8l-2.6-4.2c-0.3-0.6-1-1.8-1-1.8
					h0c0,0,0,0.9,0,2v4.9h-2L131.5,87z"/>
				<path d="M140.9,90.9c0-2.8,1.5-4,4-4c1.2-0.1,2.3,0.4,3.1,1.2v1.6h-1.7c-0.2-0.6-0.9-1-1.5-0.9c-1.4,0-1.9,0.7-1.9,2.1v2.9
					c0,1.4,0.6,2.1,1.9,2.1c0.5,0,1.1-0.2,1.5-0.5v-2.2h-1.6v-1.8h3.5v6.1h-1.5l-0.3-0.7h0c-0.6,0.6-1.4,0.9-2.2,0.8
					c-2.2,0-3.3-1.2-3.3-3.9L140.9,90.9z"/>
				<path d="M153,91c0-2.7,1.4-4.1,4-4.1c2.6,0,4,1.5,4,4.1v2.3c0,2.7-1.4,4.1-4,4.1c-2.6,0-4-1.5-4-4.1V91z M157.1,95.7
					c1.4,0,1.9-0.6,1.9-2.2v-2.6c0-1.5-0.6-2.2-1.9-2.2c-1.4,0-1.9,0.6-1.9,2.2v2.6C155.1,95,155.7,95.7,157.1,95.7"/>
				<polygon points="162.9,87 169.3,87 169,88.9 164.9,88.9 164.9,91.3 168.6,91.3 168.6,93.1 164.9,93.1 164.9,97.3 162.9,97.3 
									"/>
				<polygon points="171.2,95.7 171.2,88.6 170.1,88.5 170.1,87 174.2,87 174.2,88.5 173.2,88.6 173.2,95.7 174.2,95.9 174.2,97.3 
					170.1,97.3 170.1,95.9 				"/>
				<path d="M175.6,90.9c0-2.7,1.4-4,3.8-4c1.1-0.1,2.3,0.4,3.1,1.2v1.6h-1.7c0,0-0.1-0.9-1.4-0.9c-1.4,0-1.8,0.7-1.8,2.1v2.7
					c0,1.4,0.4,2.1,1.8,2.1c1.3,0,1.4-0.9,1.4-0.9h1.7v1.6c-0.8,0.8-1.9,1.2-3.1,1.2c-2.5,0-3.8-1.2-3.8-4V90.9z"/>
				<polygon points="184.7,95.7 184.7,88.6 183.7,88.5 183.7,87 187.8,87 187.8,88.5 186.8,88.6 186.8,95.7 187.8,95.9 187.8,97.3 
					183.7,97.3 183.7,95.9 				"/>
				<path d="M188.9,96.2l2.5-9.2h3.3l2.5,9.2v1.2h-1.9l-0.6-2.2c-0.6,0.1-1.2,0.2-1.8,0.2c-0.6,0-1.2-0.1-1.8-0.2l-0.6,2.2h-1.8
					L188.9,96.2z M191.8,93.5c0.4,0.1,0.9,0.1,1.3,0.1c0.5,0,0.9,0,1.4-0.1l-0.6-2.3c-0.2-1-0.5-2.3-0.5-2.3h-0.4
					c0,0-0.3,1.3-0.6,2.3L191.8,93.5z"/>
				<polygon points="198.9,87 201,87 201,95.5 205.1,95.5 204.8,97.3 198.9,97.3 				"/>
				<path d="M209.4,87h3.7c2.5,0,3.8,1.2,3.8,4v2.4c0,2.8-1.4,4-3.8,4h-3.7V87z M211.4,88.9v6.6h1.5c1.3,0,1.9-0.5,1.9-1.9v-2.8
					c0-1.4-0.6-1.9-1.9-1.9L211.4,88.9z"/>
				<path d="M218.4,91c0-2.7,1.4-4.1,4-4.1c2.6,0,4,1.5,4,4.1v2.3c0,2.7-1.4,4.1-4,4.1c-2.6,0-4-1.5-4-4.1V91z M222.4,95.7
					c1.4,0,1.9-0.6,1.9-2.2v-2.6c0-1.5-0.6-2.2-1.9-2.2c-1.4,0-1.9,0.6-1.9,2.2v2.6C220.5,95,221,95.7,222.4,95.7"/>
				<polygon points="64.7,102.1 71.1,102.1 70.8,104 66.8,104 66.8,106.3 70.4,106.3 70.4,108.2 66.8,108.2 66.8,112.4 64.7,112.4 
									"/>
				<path d="M72.1,105.9c0-2.7,1.4-4,3.8-4c1.1-0.1,2.3,0.4,3.1,1.2v1.6h-1.7c0,0-0.1-0.9-1.4-0.9c-1.4,0-1.8,0.7-1.8,2.1v2.7
					c0,1.4,0.4,2.1,1.8,2.1c1.3,0,1.4-0.9,1.4-0.9H79v1.6c-0.8,0.8-1.9,1.2-3.1,1.2c-2.5,0-3.8-1.2-3.8-4V105.9z"/>
				<path d="M83.7,102.1h3.7c2.5,0,3.3,1.1,3.3,2.8c0,0.9-0.4,1.8-1.2,2.3v0c0.8,0.5,1.3,1.3,1.4,2.2c0,1.9-1,3-3.4,3h-3.9
					L83.7,102.1z M85.7,103.9v2.4h2.2c0.5-0.2,0.8-0.7,0.8-1.3c0-0.6-0.4-1.1-1-1.2c-0.1,0-0.1,0-0.2,0H85.7z M85.7,108.1v2.6h1.9
					c0.7,0.1,1.2-0.4,1.3-1.1c0-0.1,0-0.1,0-0.2c0-0.6-0.4-1.1-0.9-1.3L85.7,108.1z"/>
				<path d="M92,111.3l2.5-9.2h3.3l2.5,9.2v1.2h-1.9l-0.6-2.2c-0.6,0.1-1.2,0.2-1.8,0.2c-0.6,0-1.2-0.1-1.8-0.2l-0.6,2.2H92V111.3z
					 M94.8,108.5c0.4,0.1,0.9,0.1,1.3,0.1c0.5,0,0.9,0,1.4-0.1l-0.6-2.3c-0.2-1-0.5-2.3-0.5-2.3H96c0,0-0.3,1.3-0.6,2.3L94.8,108.5z
					"/>
				<path d="M102,102.1h3.9c2.2,0,3.5,1.1,3.5,3.1c0,1.4-0.8,2.6-2.1,3.1c0.6,1,1.3,2,2.1,2.9v1.2h-1.6c-1-1.2-1.9-2.5-2.6-3.9H104
					v3.9H102L102,102.1z M106.3,106.6c0.6-0.2,1-0.7,1-1.4c0.1-0.7-0.4-1.2-1.1-1.3c-0.1,0-0.2,0-0.2,0H104v2.6H106.3z"/>
				<path d="M110.7,105.9c0-2.7,1.4-4,3.8-4c1.1-0.1,2.3,0.4,3.1,1.2v1.6h-1.7c0,0-0.1-0.9-1.4-0.9c-1.4,0-1.8,0.7-1.8,2.1v2.7
					c0,1.4,0.4,2.1,1.8,2.1c1.3,0,1.4-0.9,1.4-0.9h1.7v1.6c-0.8,0.8-1.9,1.2-3.1,1.2c-2.5,0-3.8-1.2-3.8-4V105.9z"/>
				<polygon points="119.2,102.1 125.7,102.1 125.4,104 121.3,104 121.3,106.3 125,106.3 125,108.2 121.3,108.2 121.3,110.5 
					125.6,110.5 125.6,112.4 119.2,112.4 				"/>
				<polygon points="127.4,102.1 129.5,102.1 129.5,110.5 133.6,110.5 133.3,112.4 127.4,112.4 				"/>
				<path d="M134.5,106.1c0-2.7,1.4-4.1,4-4.1c2.6,0,4,1.5,4,4.1v2.3c0,2.7-1.4,4.1-4,4.1c-2.6,0-4-1.5-4-4.1V106.1z M138.5,110.7
					c1.4,0,1.9-0.6,1.9-2.2v-2.6c0-1.5-0.6-2.2-1.9-2.2c-1.4,0-1.9,0.6-1.9,2.2v2.6C136.6,110.1,137.2,110.7,138.5,110.7"/>
				<path d="M144.4,102.1h1.9l2.9,4.8c0.2,0.4,0.8,1.6,0.8,1.6h0c0,0-0.1-1.1-0.1-2.1v-4.3h2v10.3h-2v-0.8l-2.6-4.2
					c-0.3-0.6-1-1.8-1-1.8h0c0,0,0,0.9,0,2v4.9h-2L144.4,102.1z"/>
				<path d="M153.5,111.3l2.5-9.2h3.3l2.5,9.2v1.2h-1.9l-0.6-2.2c-0.6,0.1-1.2,0.2-1.8,0.2c-0.6,0-1.2-0.1-1.8-0.2l-0.6,2.2h-1.8
					L153.5,111.3z M156.4,108.5c0.4,0.1,0.9,0.1,1.3,0.1c0.5,0,0.9,0,1.4-0.1l-0.6-2.3c-0.2-1-0.5-2.3-0.5-2.3h-0.4
					c0,0-0.3,1.3-0.6,2.3L156.4,108.5z"/>
			</g>
			<g>
				<line class="st8" x1="113.7" y1="0" x2="113.7" y2="71.8"/>
				<path class="st1" d="M191.3,1.3l0.4,0.2c3.9,2.6,7.1,3.1,11.9,3.1c1.8,0,3.6-0.3,5.3-0.9l0.5-0.2l2.3,3.2L211.3,7
					c-8.5,11.3-1.9,23.4,2.8,28.3l0.4,0.4l-0.4,0.4c-0.6,0.6-1.7,1.7-2.5,2.5l-0.3,0.3l0,0.4l0,0.1c0,0.1,0,0.2,0,0.4l0,0.1
					c0.4,7.5-1.6,13.7-5.8,18.3c-4.5,4.9-11.6,7.9-20,8.4l-0.3,0l-0.2,0.2c-2.1,1.9-4.3,3.6-4.3,3.6l-0.4,0.3l-0.4-0.3
					c-0.1-0.1-2.2-1.7-4.3-3.6l-0.2-0.2l-0.3,0c-8.4-0.5-15.5-3.4-20-8.4c-4.2-4.7-6.2-10.8-5.8-18.3l0-0.1c0-0.2,0-0.3,0-0.4l0,0v0
					l0-0.1l0-0.4l-0.3-0.3c-0.7-0.8-1.8-1.9-2.5-2.5l-0.4-0.4l0.4-0.4c4.7-4.9,11.3-17,2.8-28.3l-0.2-0.3l2.3-3.2l0.5,0.2
					c1.7,0.6,3.5,0.9,5.3,0.9c4.8,0,8-0.5,11.9-3.1l0.4-0.2l0.4,0.2c3,2.3,6.7,3.5,10.5,3.5c3.8,0,7.5-1.3,10.5-3.5L191.3,1.3"/>
				<path class="st2" d="M154.6,29c2.7-6.1,3.6-13.9-0.8-21.5c1.1,0.2,2.3,0.3,3.5,0.3c4.6,0,8.2-0.4,12.2-2.7
					c3.3,2.1,7.1,3.1,10.9,3.2c3.9,0,7.7-1.1,10.9-3.2c4,2.3,7.6,2.7,12.2,2.7c1.2,0,2.3-0.1,3.5-0.3c-4.5,7.7-3.5,15.5-0.8,21.6
					L154.6,29"/>
				<path class="st3" d="M206.2,29c-2.7-6.1-3.6-13.9,0.8-21.6c-1.1,0.2-2.3,0.3-3.5,0.3c-4.6,0-8.2-0.4-12.2-2.7
					c-3.3,2.1-7.1,3.1-10.9,3.2c0,0-0.1,0-0.1,0V29L206.2,29z"/>
				<path class="st4" d="M200.5,58.5c5.1-3.7,8.1-9.6,7.6-18.3c-0.1-0.5-0.1-0.5-0.1-1h-7.5V58.5z"/>
				<path class="st5" d="M192.4,62.2c2.9-0.7,5.6-2,8-3.7V39.1h-8V62.2z"/>
				<path class="st5" d="M160.3,58.5c2.4,1.7,5.2,3,8,3.7v-23h-8V58.5z"/>
				<path class="st4" d="M152.6,40.2c-0.4,8.7,2.6,14.6,7.6,18.3V39.1h-7.5C152.7,39.6,152.7,39.7,152.6,40.2"/>
				<path class="st5" d="M180.4,43.4c1.4,0,2.8,0.4,4,1.2v-5.4h-8v5.4C177.6,43.8,179,43.4,180.4,43.4"/>
				<path class="st5" d="M180.4,58.6c-1.4,0-2.8-0.4-4-1.2v6c0.1,0,0.3,0,0.4,0c2.7,0,5.1,0,7.2,0c0.1,0,0.3,0,0.4,0v-6
					C183.2,58.2,181.8,58.6,180.4,58.6"/>
				<path class="st4" d="M184.4,39.1v5.4c3.6,2.2,4.6,6.9,2.4,10.4c-0.6,1-1.5,1.8-2.4,2.4v6c2.7-0.1,5.4-0.5,8-1.2v-23H184.4z"/>
				<path class="st4" d="M172.8,51c0-2.6,1.3-5,3.5-6.4v-5.4h-8v23c2.6,0.7,5.3,1.1,8,1.2v-6C174.1,56,172.8,53.6,172.8,51"/>
				<path class="st6" d="M156.4,14.3c0.5,2.5,0.6,5.1,0.2,7.7h7.8v7h7.7v-7h8.2v-7.7h-8.2V6.5c-0.9-0.4-1.8-0.9-2.7-1.4
					c-1.6,0.9-3.3,1.6-5,2v7.2L156.4,14.3z"/>
				<path class="st6" d="M196.8,29V7.2c-0.9-0.2-1.9-0.5-2.8-0.8V29L196.8,29z"/>
				<path class="st6" d="M185.8,29V7.6c-0.9,0.3-1.8,0.4-2.8,0.6V29L185.8,29z"/>
				<path class="st6" d="M202.3,29V7.8c-1,0-1.9-0.1-2.8-0.1V29H202.3z"/>
				<path class="st6" d="M191.3,29V5.1c-0.9,0.5-1.8,1-2.8,1.4V29L191.3,29z"/>
				<path class="st0" d="M215.8,35.7l-1.1-1.1c-4.5-4.7-10.8-16.3-2.7-27.1l0.6-0.8l-3.1-4.3l-1.1,0.4c-1.6,0.6-3.3,0.9-5,0.9
					c-4.6,0-7.7-0.5-11.4-2.9l-0.9-0.6l-0.9,0.6c-2.9,2.2-6.4,3.3-10,3.4c-3.6,0-7.1-1.2-10-3.4l-0.9-0.6l-0.9,0.6
					c-3.7,2.5-6.8,2.9-11.4,2.9c-1.7,0-3.4-0.3-5-0.9l-1.1-0.4l-3.1,4.3l0.6,0.8c8.1,10.8,1.8,22.4-2.7,27.1l-1.1,1.1l1.1,1.1
					c0.6,0.6,1.6,1.6,2.4,2.5c0,0,0,0.1,0,0.1c0,0.1,0,0.2,0,0.3l0,0.1c-0.4,7.8,1.6,14.2,6,19c4.7,5.1,12,8.2,20.6,8.7
					c2.1,1.9,4.3,3.6,4.4,3.6l0.9,0.7l0.9-0.7c0.1-0.1,2.3-1.7,4.4-3.6c8.6-0.5,15.9-3.5,20.6-8.7c4.4-4.8,6.4-11.2,6-19l0-0.1
					c0-0.1,0-0.2,0-0.3c0,0,0-0.1,0-0.1c0.8-0.9,1.9-2,2.4-2.5L215.8,35.7z M210.7,38.7c0.1,0.8,0,0.8,0.1,1.2
					c0.9,17.3-11.1,25.5-25.7,26.1c-2.2,2.1-4.7,3.9-4.7,3.9s-2.5-1.8-4.7-3.9c-14.6-0.6-26.6-8.8-25.7-26.1c0.1-0.5,0-0.4,0.1-1.2
					c-0.8-0.9-2.2-2.3-2.9-3.1c5.2-5.4,11.3-17.8,2.9-29.1l1.8-2.4c1.8,0.6,3.6,0.9,5.5,1c4.9,0,8.2-0.5,12.2-3.2
					c3.2,2.3,7,3.6,10.9,3.6c3.9,0,7.7-1.3,10.9-3.6c4.1,2.7,7.4,3.2,12.2,3.2c1.9,0,3.7-0.3,5.5-1l1.8,2.4
					c-8.5,11.2-2.4,23.7,2.9,29.1C212.9,36.4,211.5,37.9,210.7,38.7"/>
				<path class="st0" d="M152.5,39.1c0,0.3,0,0.4-0.1,0.5c0,0.1,0,0.3-0.1,0.5c-0.3,6.7,1.3,12,4.9,16c4.1,4.6,10.9,7.1,19.4,7.5
					l0.3,0c1.4,0,2.8,0,4.1,0c1,0,1.9,0,2.8,0c8.6-0.4,15.3-2.9,19.4-7.5c3.6-4,5.3-9.4,4.9-16c0-0.2,0-0.4-0.1-0.5
					c0-0.1,0-0.3-0.1-0.5l0-0.2h-55.7L152.5,39.1z M152.8,40.2c0-0.2,0-0.3,0.1-0.5c0-0.1,0-0.2,0-0.4h54.8c0,0.1,0,0.2,0,0.4
					c0,0.1,0,0.2,0.1,0.4c0.3,6.5-1.3,11.8-4.8,15.7c-4.1,4.5-10.7,7-19.1,7.3c-2,0-4.3,0-6.9,0l-0.3,0c-8.4-0.3-15.1-2.9-19.1-7.3
					C154.1,52,152.5,46.7,152.8,40.2"/>
				<path class="st0" d="M154.4,29l-0.1,0.3h52.3l-0.1-0.3c-2.3-5.2-4-13.1,0.8-21.4l0.3-0.4L207,7.3c-1.1,0.2-2.3,0.3-3.4,0.3
					c-4.7,0-8.1-0.4-12.1-2.7l-0.1-0.1l-0.1,0.1c-3.2,2-7,3.1-10.8,3.1c-3.8,0-7.6-1.1-10.8-3.1l-0.1-0.1l-0.1,0.1
					c-3.9,2.2-7.4,2.7-12.1,2.7c-1.2,0-2.3-0.1-3.4-0.3l-0.5-0.1l0.3,0.4C158.3,15.8,156.6,23.7,154.4,29 M180.5,8.5
					c3.8,0,7.6-1.1,10.8-3.1c4,2.2,7.5,2.7,12.2,2.7c1,0,2-0.1,3-0.3c-4.5,8.1-2.9,15.8-0.7,21h-25.3L180.5,8.5z M154.2,7.8
					c1,0.2,2,0.2,3,0.2c4.7,0,8.2-0.4,12.2-2.7c3.2,2,6.9,3.1,10.6,3.1v20.3h-25.1C157.1,23.6,158.7,15.9,154.2,7.8"/>
				<polygon class="st0" points="173.8,32.1 173.8,30.5 168.6,30.5 168.6,37.7 170.2,37.7 170.2,34.7 172.3,34.7 172.3,33.2 
					170.2,33.2 170.2,32.1 				"/>
				<path class="st0" d="M179.8,32c0.5,0,1,0.3,1.2,0.7l0,0.1l1.4-0.7l0-0.1c-0.5-1-1.5-1.7-2.6-1.6c-1.9,0-3.2,1.5-3.2,3.7
					c0,2.2,1.2,3.7,3.1,3.7c1.1,0.1,2.2-0.6,2.7-1.6l0-0.1l-1.3-0.8l0,0.1c-0.2,0.5-0.7,0.9-1.3,0.9c-0.9,0-1.6-0.9-1.6-2.2
					C178.3,32.8,178.9,32,179.8,32"/>
				<path class="st0" d="M191.9,32.5c0-1.2-0.9-1.9-2.3-1.9h-3.3v7.2h3.3c1.2,0.2,2.4-0.7,2.6-1.9c0-0.1,0-0.3,0-0.4
					c0-0.6-0.3-1.2-0.9-1.5C191.6,33.5,191.9,33,191.9,32.5 M187.8,32h1.7c0.7,0,0.8,0.3,0.8,0.6c0,0.4-0.2,0.6-0.7,0.6h-1.8
					L187.8,32z M189.6,36.2h-1.8v-1.7h1.8c0.6,0,0.9,0.3,0.9,0.8C190.5,35.9,190.2,36.2,189.6,36.2"/>
				<path class="st0" d="M180.3,58.7c4.3,0,7.7-3.5,7.7-7.7s-3.5-7.7-7.7-7.7s-7.7,3.5-7.7,7.7v0C172.6,55.2,176.1,58.7,180.3,58.7
					 M180.3,58.2c-1.4,0-2.9-0.4-4.1-1.2c1.7,0,3.3-0.5,4.8-1.2c1.2-0.7,2.5-1.6,2.8-2.9c0.9-0.5,2.1-0.1,2.6,0.8
					c0.1,0.2,0.2,0.5,0.2,0.7C185.4,56.8,183,58.2,180.3,58.2 M176.8,52.6c0.4,0.3,0.8,0.4,1.3,0.5c1.2,0,2.3-0.8,2.5-2
					c0.7-0.6,1.8-0.6,2.5,0.1c0.1,0.2,0.2,0.3,0.3,0.5c0.6,1.5-0.7,2.6-2.4,3.7c-1.6,0.8-3.4,1.2-5.2,1.2c-0.8-0.7-1.5-1.5-1.9-2.4
					c0.1,0,0.1,0,0.2,0C175.1,54.2,176.2,53.6,176.8,52.6 M175.6,48.9c0.1-1.4,0.3-2.7,0.7-4c1-0.7,2.2-1.1,3.4-1.2
					c-0.8,0.8-0.7,2.1,0.1,2.9c0,0,0.1,0.1,0.1,0.1c-0.2,0.2-0.4,0.4-0.5,0.6c-0.8,1.3-0.5,3,0.8,3.8c-0.2,0.9-1.1,1.6-2,1.6
					C176.4,52.4,175.6,50.9,175.6,48.9 M183.9,52.4c0-0.3-0.1-0.6-0.2-0.8c-0.4-1.1-1.7-1.7-2.8-1.2c-0.2,0.1-0.4,0.2-0.6,0.3
					c-1-0.7-1.3-2.1-0.6-3.2c0.8-1.3,2.8-0.8,4.5,0.2c1.5,0.9,2.7,2.3,3.3,4c-0.1,0.8-0.3,1.5-0.6,2.2
					C186.6,52.6,185.3,52,183.9,52.4C184,52.4,184,52.4,183.9,52.4 M184.5,47.3c-1.3-0.7-2.9-1.4-4.1-0.9c-0.7-0.5-1-1.5-0.5-2.2
					c0.1-0.2,0.3-0.4,0.6-0.5c3.8,0,7,3,7.2,6.8C186.9,49.2,185.8,48,184.5,47.3 M175.8,45.3c-0.1,0.5-0.3,1-0.4,1.5
					c-0.4,1.7-0.4,4.3,1,5.6c-0.5,0.9-1.4,1.4-2.4,1.4c-0.1,0-0.3,0-0.4,0C172.4,50.7,173.3,47.3,175.8,45.3"/>
				<path class="st7" d="M17.6,0.1h57.8c3.8,0,7,3.1,7,7v57.8c0,3.8-3.1,7-7,7H17.6c-3.8,0-7-3.1-7-7c0,0,0,0,0,0V7.1
					C10.6,3.2,13.7,0.1,17.6,0.1C17.6,0.1,17.6,0.1,17.6,0.1"/>
				<rect x="24.9" y="45.5" class="st2" width="43.4" height="3.4"/>
				<polygon class="st2" points="36.7,28.3 36.7,24.8 24.9,24.8 24.9,41.1 29.2,41.1 29.2,35.3 35.9,35.3 35.9,31.8 29.2,31.8 
					29.2,28.3 				"/>
				<path class="st2" d="M49.6,32.7c1.5-0.5,2.6-2,2.6-3.6c0-2.6-2-4.2-5.3-4.2h-8.4v16.4h8.5c3.6,0,5.8-1.7,5.8-4.6
					C52.8,34.7,51.5,33,49.6,32.7 M42.9,28.1h3.3c1.2,0,1.9,0.6,1.9,1.6c0,1-0.7,1.6-1.9,1.6h-3.3V28.1z M46.5,37.8h-3.6v-3.3h3.7
					c1.2,0,1.9,0.6,1.9,1.7C48.4,37.3,47.8,37.8,46.5,37.8L46.5,37.8z"/>
				<path class="st2" d="M63.3,31.2l-2-0.3c-1.9-0.3-2.5-0.8-2.5-1.7s0.8-1.5,2.4-1.5c1.3-0.2,2.5,0.7,2.7,2c0,0,0,0,0,0l4.1-0.5
					c-0.6-3.2-2.9-4.8-6.7-4.8c-4.2,0-7,2.1-7,5.3c0,2.8,1.7,4.4,5.1,4.9l2.1,0.3c2.2,0.3,2.7,0.8,2.7,1.8s-0.8,1.5-2.7,1.5
					c-1.4,0.1-2.7-0.8-3.1-2.2l-4.3,0.6c0.7,3.3,3.2,4.9,7.3,4.9c4.6,0,7.3-2,7.3-5.3C68.7,33.3,67,31.8,63.3,31.2"/>
			</g>
		</g>
		<g>
			<g>
				<path d="M0,87h3.8c2.3,0,3.5,1.1,3.5,3.3c0,1.5-0.9,2.8-2.3,3.3h-3v3.8H0V87z M4.4,91.7c0.6-0.3,0.9-0.9,0.9-1.5
					c0-0.7-0.5-1.3-1.2-1.3c-0.1,0-0.2,0-0.3,0H2.1v2.8H4.4z"/>
				<path d="M8.2,96.2l2.5-9.2H14l2.5,9.2v1.2h-1.9l-0.6-2.2c-0.6,0.1-1.2,0.2-1.8,0.2c-0.6,0-1.2-0.1-1.8-0.2L10,97.3H8.2V96.2z
					 M11,93.5c0.4,0.1,0.9,0.1,1.3,0.1c0.5,0,0.9,0,1.4-0.1l-0.6-2.3c-0.2-1-0.5-2.3-0.5-2.3h-0.4c0,0-0.3,1.3-0.6,2.3L11,93.5z"/>
				<path d="M18.1,87H22c2.2,0,3.5,1.1,3.5,3.1c0,1.4-0.8,2.6-2.1,3.1c0.6,1,1.3,2,2.1,2.9v1.2h-1.6c-1-1.2-1.9-2.5-2.6-3.9h-1.1
					v3.9h-2.1V87z M22.5,91.5c0.6-0.2,1-0.7,1-1.4c0.1-0.7-0.4-1.2-1.1-1.3c-0.1,0-0.2,0-0.2,0h-1.9v2.6L22.5,91.5z"/>
				<path d="M26.8,90.9c0-2.7,1.4-4,3.8-4c1.1-0.1,2.3,0.4,3.1,1.2v1.6H32c0,0-0.1-0.9-1.4-0.9c-1.4,0-1.8,0.7-1.8,2.1v2.7
					c0,1.4,0.4,2.1,1.8,2.1c1.3,0,1.4-0.9,1.4-0.9h1.7v1.6c-0.8,0.8-1.9,1.2-3.1,1.2c-2.5,0-3.8-1.2-3.8-4L26.8,90.9z"/>
				<polygon points="35.3,87 41.9,87 41.6,88.9 37.4,88.9 37.4,91.3 41.2,91.3 41.2,93.1 37.4,93.1 37.4,95.5 41.7,95.5 41.7,97.3 
					35.3,97.3 				"/>
				<polygon points="44.1,95.7 44.1,88.6 43.1,88.5 43.1,87 47.2,87 47.2,88.5 46.2,88.6 46.2,95.7 47.2,95.9 47.2,97.3 43.1,97.3 
					43.1,95.9 				"/>
				<path d="M48.9,87h3.9c2.2,0,3.5,1.1,3.5,3.1c0,1.4-0.8,2.6-2.1,3.1c0.6,1,1.3,2,2.1,2.9v1.2h-1.6c-1-1.2-1.9-2.5-2.6-3.9H51v3.9
					h-2.1L48.9,87z M53.3,91.5c0.6-0.2,1-0.7,1-1.4c0.1-0.7-0.4-1.2-1.1-1.3c-0.1,0-0.2,0-0.2,0H51v2.6L53.3,91.5z"/>
				<path d="M57.3,96.2l2.5-9.2h3.3l2.5,9.2v1.2h-1.9l-0.6-2.2c-0.6,0.1-1.2,0.2-1.8,0.2c-0.6,0-1.2-0.1-1.8-0.2l-0.6,2.2h-1.8V96.2
					z M60.1,93.5c0.4,0.1,0.9,0.1,1.3,0.1c0.5,0,0.9,0,1.4-0.1l-0.6-2.3c-0.2-1-0.5-2.3-0.5-2.3h-0.4c0,0-0.3,1.3-0.6,2.3L60.1,93.5
					z"/>
				<path d="M70.3,87H74c2.5,0,3.8,1.2,3.8,4v2.4c0,2.8-1.4,4-3.8,4h-3.7V87z M72.4,88.9v6.6h1.5c1.3,0,1.9-0.5,1.9-1.9v-2.8
					c0-1.4-0.6-1.9-1.9-1.9L72.4,88.9z"/>
				<polygon points="79.7,87 86.2,87 85.9,88.9 81.7,88.9 81.7,91.3 85.5,91.3 85.5,93.1 81.7,93.1 81.7,95.5 86.1,95.5 86.1,97.3 
					79.7,97.3 				"/>
				<polygon points="94.6,88.9 94.6,97.3 92.6,97.3 92.6,88.9 90.1,88.9 90.1,87 97.2,87 96.9,88.9 				"/>
				<path d="M98.4,87h3.9c2.2,0,3.5,1.1,3.5,3.1c0,1.4-0.8,2.6-2.1,3.1c0.6,1,1.3,2,2.1,2.9v1.2h-1.6c-1-1.2-1.9-2.5-2.6-3.9h-1.1
					v3.9h-2.1L98.4,87z M102.7,91.5c0.6-0.2,1-0.7,1-1.4c0.1-0.7-0.4-1.2-1.1-1.3c-0.1,0-0.2,0-0.2,0h-1.9v2.6L102.7,91.5z"/>
				<path d="M106.8,96.2l2.5-9.2h3.3l2.5,9.2v1.2h-1.9l-0.6-2.2c-0.6,0.1-1.2,0.2-1.8,0.2c-0.6,0-1.2-0.1-1.8-0.2l-0.6,2.2h-1.8
					L106.8,96.2z M109.6,93.5c0.4,0.1,0.9,0.1,1.3,0.1c0.5,0,0.9,0,1.4-0.1l-0.6-2.3c-0.2-1-0.5-2.3-0.5-2.3h-0.4
					c0,0-0.3,1.3-0.6,2.3L109.6,93.5z"/>
				<path d="M116.8,87h3.7c2.5,0,3.8,1.2,3.8,4v2.4c0,2.8-1.4,4-3.8,4h-3.7V87z M118.8,88.9v6.6h1.5c1.3,0,1.9-0.5,1.9-1.9v-2.8
					c0-1.4-0.6-1.9-1.9-1.9L118.8,88.9z"/>
				<polygon points="126.7,95.7 126.7,88.6 125.7,88.5 125.7,87 129.8,87 129.8,88.5 128.8,88.6 128.8,95.7 129.8,95.9 129.8,97.3 
					125.7,97.3 125.7,95.9 				"/>
				<path d="M131.5,87h1.9l2.9,4.8c0.2,0.4,0.8,1.6,0.8,1.6h0c0,0-0.1-1.1-0.1-2.1V87h2v10.3h-2v-0.8l-2.6-4.2c-0.3-0.6-1-1.8-1-1.8
					h0c0,0,0,0.9,0,2v4.9h-2L131.5,87z"/>
				<path d="M140.9,90.9c0-2.8,1.5-4,4-4c1.2-0.1,2.3,0.4,3.1,1.2v1.6h-1.7c-0.2-0.6-0.9-1-1.5-0.9c-1.4,0-1.9,0.7-1.9,2.1v2.9
					c0,1.4,0.6,2.1,1.9,2.1c0.5,0,1.1-0.2,1.5-0.5v-2.2h-1.6v-1.8h3.5v6.1h-1.5l-0.3-0.7h0c-0.6,0.6-1.4,0.9-2.2,0.8
					c-2.2,0-3.3-1.2-3.3-3.9L140.9,90.9z"/>
				<path d="M153,91c0-2.7,1.4-4.1,4-4.1c2.6,0,4,1.5,4,4.1v2.3c0,2.7-1.4,4.1-4,4.1c-2.6,0-4-1.5-4-4.1V91z M157.1,95.7
					c1.4,0,1.9-0.6,1.9-2.2v-2.6c0-1.5-0.6-2.2-1.9-2.2c-1.4,0-1.9,0.6-1.9,2.2v2.6C155.1,95,155.7,95.7,157.1,95.7"/>
				<polygon points="162.9,87 169.3,87 169,88.9 164.9,88.9 164.9,91.3 168.6,91.3 168.6,93.1 164.9,93.1 164.9,97.3 162.9,97.3 
									"/>
				<polygon points="171.2,95.7 171.2,88.6 170.1,88.5 170.1,87 174.2,87 174.2,88.5 173.2,88.6 173.2,95.7 174.2,95.9 174.2,97.3 
					170.1,97.3 170.1,95.9 				"/>
				<path d="M175.6,90.9c0-2.7,1.4-4,3.8-4c1.1-0.1,2.3,0.4,3.1,1.2v1.6h-1.7c0,0-0.1-0.9-1.4-0.9c-1.4,0-1.8,0.7-1.8,2.1v2.7
					c0,1.4,0.4,2.1,1.8,2.1c1.3,0,1.4-0.9,1.4-0.9h1.7v1.6c-0.8,0.8-1.9,1.2-3.1,1.2c-2.5,0-3.8-1.2-3.8-4V90.9z"/>
				<polygon points="184.7,95.7 184.7,88.6 183.7,88.5 183.7,87 187.8,87 187.8,88.5 186.8,88.6 186.8,95.7 187.8,95.9 187.8,97.3 
					183.7,97.3 183.7,95.9 				"/>
				<path d="M188.9,96.2l2.5-9.2h3.3l2.5,9.2v1.2h-1.9l-0.6-2.2c-0.6,0.1-1.2,0.2-1.8,0.2c-0.6,0-1.2-0.1-1.8-0.2l-0.6,2.2h-1.8
					L188.9,96.2z M191.8,93.5c0.4,0.1,0.9,0.1,1.3,0.1c0.5,0,0.9,0,1.4-0.1l-0.6-2.3c-0.2-1-0.5-2.3-0.5-2.3h-0.4
					c0,0-0.3,1.3-0.6,2.3L191.8,93.5z"/>
				<polygon points="198.9,87 201,87 201,95.5 205.1,95.5 204.8,97.3 198.9,97.3 				"/>
				<path d="M209.4,87h3.7c2.5,0,3.8,1.2,3.8,4v2.4c0,2.8-1.4,4-3.8,4h-3.7V87z M211.4,88.9v6.6h1.5c1.3,0,1.9-0.5,1.9-1.9v-2.8
					c0-1.4-0.6-1.9-1.9-1.9L211.4,88.9z"/>
				<path d="M218.4,91c0-2.7,1.4-4.1,4-4.1c2.6,0,4,1.5,4,4.1v2.3c0,2.7-1.4,4.1-4,4.1c-2.6,0-4-1.5-4-4.1V91z M222.4,95.7
					c1.4,0,1.9-0.6,1.9-2.2v-2.6c0-1.5-0.6-2.2-1.9-2.2c-1.4,0-1.9,0.6-1.9,2.2v2.6C220.5,95,221,95.7,222.4,95.7"/>
				<polygon points="64.7,102.1 71.1,102.1 70.8,104 66.8,104 66.8,106.3 70.4,106.3 70.4,108.2 66.8,108.2 66.8,112.4 64.7,112.4 
									"/>
				<path d="M72.1,105.9c0-2.7,1.4-4,3.8-4c1.1-0.1,2.3,0.4,3.1,1.2v1.6h-1.7c0,0-0.1-0.9-1.4-0.9c-1.4,0-1.8,0.7-1.8,2.1v2.7
					c0,1.4,0.4,2.1,1.8,2.1c1.3,0,1.4-0.9,1.4-0.9H79v1.6c-0.8,0.8-1.9,1.2-3.1,1.2c-2.5,0-3.8-1.2-3.8-4V105.9z"/>
				<path d="M83.7,102.1h3.7c2.5,0,3.3,1.1,3.3,2.8c0,0.9-0.4,1.8-1.2,2.3v0c0.8,0.5,1.3,1.3,1.4,2.2c0,1.9-1,3-3.4,3h-3.9
					L83.7,102.1z M85.7,103.9v2.4h2.2c0.5-0.2,0.8-0.7,0.8-1.3c0-0.6-0.4-1.1-1-1.2c-0.1,0-0.1,0-0.2,0H85.7z M85.7,108.1v2.6h1.9
					c0.7,0.1,1.2-0.4,1.3-1.1c0-0.1,0-0.1,0-0.2c0-0.6-0.4-1.1-0.9-1.3L85.7,108.1z"/>
				<path d="M92,111.3l2.5-9.2h3.3l2.5,9.2v1.2h-1.9l-0.6-2.2c-0.6,0.1-1.2,0.2-1.8,0.2c-0.6,0-1.2-0.1-1.8-0.2l-0.6,2.2H92V111.3z
					 M94.8,108.5c0.4,0.1,0.9,0.1,1.3,0.1c0.5,0,0.9,0,1.4-0.1l-0.6-2.3c-0.2-1-0.5-2.3-0.5-2.3H96c0,0-0.3,1.3-0.6,2.3L94.8,108.5z
					"/>
				<path d="M102,102.1h3.9c2.2,0,3.5,1.1,3.5,3.1c0,1.4-0.8,2.6-2.1,3.1c0.6,1,1.3,2,2.1,2.9v1.2h-1.6c-1-1.2-1.9-2.5-2.6-3.9H104
					v3.9H102L102,102.1z M106.3,106.6c0.6-0.2,1-0.7,1-1.4c0.1-0.7-0.4-1.2-1.1-1.3c-0.1,0-0.2,0-0.2,0H104v2.6H106.3z"/>
				<path d="M110.7,105.9c0-2.7,1.4-4,3.8-4c1.1-0.1,2.3,0.4,3.1,1.2v1.6h-1.7c0,0-0.1-0.9-1.4-0.9c-1.4,0-1.8,0.7-1.8,2.1v2.7
					c0,1.4,0.4,2.1,1.8,2.1c1.3,0,1.4-0.9,1.4-0.9h1.7v1.6c-0.8,0.8-1.9,1.2-3.1,1.2c-2.5,0-3.8-1.2-3.8-4V105.9z"/>
				<polygon points="119.2,102.1 125.7,102.1 125.4,104 121.3,104 121.3,106.3 125,106.3 125,108.2 121.3,108.2 121.3,110.5 
					125.6,110.5 125.6,112.4 119.2,112.4 				"/>
				<polygon points="127.4,102.1 129.5,102.1 129.5,110.5 133.6,110.5 133.3,112.4 127.4,112.4 				"/>
				<path d="M134.5,106.1c0-2.7,1.4-4.1,4-4.1c2.6,0,4,1.5,4,4.1v2.3c0,2.7-1.4,4.1-4,4.1c-2.6,0-4-1.5-4-4.1V106.1z M138.5,110.7
					c1.4,0,1.9-0.6,1.9-2.2v-2.6c0-1.5-0.6-2.2-1.9-2.2c-1.4,0-1.9,0.6-1.9,2.2v2.6C136.6,110.1,137.2,110.7,138.5,110.7"/>
				<path d="M144.4,102.1h1.9l2.9,4.8c0.2,0.4,0.8,1.6,0.8,1.6h0c0,0-0.1-1.1-0.1-2.1v-4.3h2v10.3h-2v-0.8l-2.6-4.2
					c-0.3-0.6-1-1.8-1-1.8h0c0,0,0,0.9,0,2v4.9h-2L144.4,102.1z"/>
				<path d="M153.5,111.3l2.5-9.2h3.3l2.5,9.2v1.2h-1.9l-0.6-2.2c-0.6,0.1-1.2,0.2-1.8,0.2c-0.6,0-1.2-0.1-1.8-0.2l-0.6,2.2h-1.8
					L153.5,111.3z M156.4,108.5c0.4,0.1,0.9,0.1,1.3,0.1c0.5,0,0.9,0,1.4-0.1l-0.6-2.3c-0.2-1-0.5-2.3-0.5-2.3h-0.4
					c0,0-0.3,1.3-0.6,2.3L156.4,108.5z"/>
			</g>
			<g>
				<line class="st8" x1="113.7" y1="0" x2="113.7" y2="71.8"/>
				<path class="st1" d="M191.3,1.3l0.4,0.2c3.9,2.6,7.1,3.1,11.9,3.1c1.8,0,3.6-0.3,5.3-0.9l0.5-0.2l2.3,3.2L211.3,7
					c-8.5,11.3-1.9,23.4,2.8,28.3l0.4,0.4l-0.4,0.4c-0.6,0.6-1.7,1.7-2.5,2.5l-0.3,0.3l0,0.4l0,0.1c0,0.1,0,0.2,0,0.4l0,0.1
					c0.4,7.5-1.6,13.7-5.8,18.3c-4.5,4.9-11.6,7.9-20,8.4l-0.3,0l-0.2,0.2c-2.1,1.9-4.3,3.6-4.3,3.6l-0.4,0.3l-0.4-0.3
					c-0.1-0.1-2.2-1.7-4.3-3.6l-0.2-0.2l-0.3,0c-8.4-0.5-15.5-3.4-20-8.4c-4.2-4.7-6.2-10.8-5.8-18.3l0-0.1c0-0.2,0-0.3,0-0.4l0,0v0
					l0-0.1l0-0.4l-0.3-0.3c-0.7-0.8-1.8-1.9-2.5-2.5l-0.4-0.4l0.4-0.4c4.7-4.9,11.3-17,2.8-28.3l-0.2-0.3l2.3-3.2l0.5,0.2
					c1.7,0.6,3.5,0.9,5.3,0.9c4.8,0,8-0.5,11.9-3.1l0.4-0.2l0.4,0.2c3,2.3,6.7,3.5,10.5,3.5c3.8,0,7.5-1.3,10.5-3.5L191.3,1.3"/>
				<path class="st2" d="M154.6,29c2.7-6.1,3.6-13.9-0.8-21.5c1.1,0.2,2.3,0.3,3.5,0.3c4.6,0,8.2-0.4,12.2-2.7
					c3.3,2.1,7.1,3.1,10.9,3.2c3.9,0,7.7-1.1,10.9-3.2c4,2.3,7.6,2.7,12.2,2.7c1.2,0,2.3-0.1,3.5-0.3c-4.5,7.7-3.5,15.5-0.8,21.6
					L154.6,29"/>
				<path class="st3" d="M206.2,29c-2.7-6.1-3.6-13.9,0.8-21.6c-1.1,0.2-2.3,0.3-3.5,0.3c-4.6,0-8.2-0.4-12.2-2.7
					c-3.3,2.1-7.1,3.1-10.9,3.2c0,0-0.1,0-0.1,0V29L206.2,29z"/>
				<path class="st4" d="M200.5,58.5c5.1-3.7,8.1-9.6,7.6-18.3c-0.1-0.5-0.1-0.5-0.1-1h-7.5V58.5z"/>
				<path class="st5" d="M192.4,62.2c2.9-0.7,5.6-2,8-3.7V39.1h-8V62.2z"/>
				<path class="st5" d="M160.3,58.5c2.4,1.7,5.2,3,8,3.7v-23h-8V58.5z"/>
				<path class="st4" d="M152.6,40.2c-0.4,8.7,2.6,14.6,7.6,18.3V39.1h-7.5C152.7,39.6,152.7,39.7,152.6,40.2"/>
				<path class="st5" d="M180.4,43.4c1.4,0,2.8,0.4,4,1.2v-5.4h-8v5.4C177.6,43.8,179,43.4,180.4,43.4"/>
				<path class="st5" d="M180.4,58.6c-1.4,0-2.8-0.4-4-1.2v6c0.1,0,0.3,0,0.4,0c2.7,0,5.1,0,7.2,0c0.1,0,0.3,0,0.4,0v-6
					C183.2,58.2,181.8,58.6,180.4,58.6"/>
				<path class="st4" d="M184.4,39.1v5.4c3.6,2.2,4.6,6.9,2.4,10.4c-0.6,1-1.5,1.8-2.4,2.4v6c2.7-0.1,5.4-0.5,8-1.2v-23H184.4z"/>
				<path class="st4" d="M172.8,51c0-2.6,1.3-5,3.5-6.4v-5.4h-8v23c2.6,0.7,5.3,1.1,8,1.2v-6C174.1,56,172.8,53.6,172.8,51"/>
				<path class="st6" d="M156.4,14.3c0.5,2.5,0.6,5.1,0.2,7.7h7.8v7h7.7v-7h8.2v-7.7h-8.2V6.5c-0.9-0.4-1.8-0.9-2.7-1.4
					c-1.6,0.9-3.3,1.6-5,2v7.2L156.4,14.3z"/>
				<path class="st6" d="M196.8,29V7.2c-0.9-0.2-1.9-0.5-2.8-0.8V29L196.8,29z"/>
				<path class="st6" d="M185.8,29V7.6c-0.9,0.3-1.8,0.4-2.8,0.6V29L185.8,29z"/>
				<path class="st6" d="M202.3,29V7.8c-1,0-1.9-0.1-2.8-0.1V29H202.3z"/>
				<path class="st6" d="M191.3,29V5.1c-0.9,0.5-1.8,1-2.8,1.4V29L191.3,29z"/>
				<path class="st0" d="M215.8,35.7l-1.1-1.1c-4.5-4.7-10.8-16.3-2.7-27.1l0.6-0.8l-3.1-4.3l-1.1,0.4c-1.6,0.6-3.3,0.9-5,0.9
					c-4.6,0-7.7-0.5-11.4-2.9l-0.9-0.6l-0.9,0.6c-2.9,2.2-6.4,3.3-10,3.4c-3.6,0-7.1-1.2-10-3.4l-0.9-0.6l-0.9,0.6
					c-3.7,2.5-6.8,2.9-11.4,2.9c-1.7,0-3.4-0.3-5-0.9l-1.1-0.4l-3.1,4.3l0.6,0.8c8.1,10.8,1.8,22.4-2.7,27.1l-1.1,1.1l1.1,1.1
					c0.6,0.6,1.6,1.6,2.4,2.5c0,0,0,0.1,0,0.1c0,0.1,0,0.2,0,0.3l0,0.1c-0.4,7.8,1.6,14.2,6,19c4.7,5.1,12,8.2,20.6,8.7
					c2.1,1.9,4.3,3.6,4.4,3.6l0.9,0.7l0.9-0.7c0.1-0.1,2.3-1.7,4.4-3.6c8.6-0.5,15.9-3.5,20.6-8.7c4.4-4.8,6.4-11.2,6-19l0-0.1
					c0-0.1,0-0.2,0-0.3c0,0,0-0.1,0-0.1c0.8-0.9,1.9-2,2.4-2.5L215.8,35.7z M210.7,38.7c0.1,0.8,0,0.8,0.1,1.2
					c0.9,17.3-11.1,25.5-25.7,26.1c-2.2,2.1-4.7,3.9-4.7,3.9s-2.5-1.8-4.7-3.9c-14.6-0.6-26.6-8.8-25.7-26.1c0.1-0.5,0-0.4,0.1-1.2
					c-0.8-0.9-2.2-2.3-2.9-3.1c5.2-5.4,11.3-17.8,2.9-29.1l1.8-2.4c1.8,0.6,3.6,0.9,5.5,1c4.9,0,8.2-0.5,12.2-3.2
					c3.2,2.3,7,3.6,10.9,3.6c3.9,0,7.7-1.3,10.9-3.6c4.1,2.7,7.4,3.2,12.2,3.2c1.9,0,3.7-0.3,5.5-1l1.8,2.4
					c-8.5,11.2-2.4,23.7,2.9,29.1C212.9,36.4,211.5,37.9,210.7,38.7"/>
				<path class="st0" d="M152.5,39.1c0,0.3,0,0.4-0.1,0.5c0,0.1,0,0.3-0.1,0.5c-0.3,6.7,1.3,12,4.9,16c4.1,4.6,10.9,7.1,19.4,7.5
					l0.3,0c1.4,0,2.8,0,4.1,0c1,0,1.9,0,2.8,0c8.6-0.4,15.3-2.9,19.4-7.5c3.6-4,5.3-9.4,4.9-16c0-0.2,0-0.4-0.1-0.5
					c0-0.1,0-0.3-0.1-0.5l0-0.2h-55.7L152.5,39.1z M152.8,40.2c0-0.2,0-0.3,0.1-0.5c0-0.1,0-0.2,0-0.4h54.8c0,0.1,0,0.2,0,0.4
					c0,0.1,0,0.2,0.1,0.4c0.3,6.5-1.3,11.8-4.8,15.7c-4.1,4.5-10.7,7-19.1,7.3c-2,0-4.3,0-6.9,0l-0.3,0c-8.4-0.3-15.1-2.9-19.1-7.3
					C154.1,52,152.5,46.7,152.8,40.2"/>
				<path class="st0" d="M154.4,29l-0.1,0.3h52.3l-0.1-0.3c-2.3-5.2-4-13.1,0.8-21.4l0.3-0.4L207,7.3c-1.1,0.2-2.3,0.3-3.4,0.3
					c-4.7,0-8.1-0.4-12.1-2.7l-0.1-0.1l-0.1,0.1c-3.2,2-7,3.1-10.8,3.1c-3.8,0-7.6-1.1-10.8-3.1l-0.1-0.1l-0.1,0.1
					c-3.9,2.2-7.4,2.7-12.1,2.7c-1.2,0-2.3-0.1-3.4-0.3l-0.5-0.1l0.3,0.4C158.3,15.8,156.6,23.7,154.4,29 M180.5,8.5
					c3.8,0,7.6-1.1,10.8-3.1c4,2.2,7.5,2.7,12.2,2.7c1,0,2-0.1,3-0.3c-4.5,8.1-2.9,15.8-0.7,21h-25.3L180.5,8.5z M154.2,7.8
					c1,0.2,2,0.2,3,0.2c4.7,0,8.2-0.4,12.2-2.7c3.2,2,6.9,3.1,10.6,3.1v20.3h-25.1C157.1,23.6,158.7,15.9,154.2,7.8"/>
				<polygon class="st0" points="173.8,32.1 173.8,30.5 168.6,30.5 168.6,37.7 170.2,37.7 170.2,34.7 172.3,34.7 172.3,33.2 
					170.2,33.2 170.2,32.1 				"/>
				<path class="st0" d="M179.8,32c0.5,0,1,0.3,1.2,0.7l0,0.1l1.4-0.7l0-0.1c-0.5-1-1.5-1.7-2.6-1.6c-1.9,0-3.2,1.5-3.2,3.7
					c0,2.2,1.2,3.7,3.1,3.7c1.1,0.1,2.2-0.6,2.7-1.6l0-0.1l-1.3-0.8l0,0.1c-0.2,0.5-0.7,0.9-1.3,0.9c-0.9,0-1.6-0.9-1.6-2.2
					C178.3,32.8,178.9,32,179.8,32"/>
				<path class="st0" d="M191.9,32.5c0-1.2-0.9-1.9-2.3-1.9h-3.3v7.2h3.3c1.2,0.2,2.4-0.7,2.6-1.9c0-0.1,0-0.3,0-0.4
					c0-0.6-0.3-1.2-0.9-1.5C191.6,33.5,191.9,33,191.9,32.5 M187.8,32h1.7c0.7,0,0.8,0.3,0.8,0.6c0,0.4-0.2,0.6-0.7,0.6h-1.8
					L187.8,32z M189.6,36.2h-1.8v-1.7h1.8c0.6,0,0.9,0.3,0.9,0.8C190.5,35.9,190.2,36.2,189.6,36.2"/>
				<path class="st0" d="M180.3,58.7c4.3,0,7.7-3.5,7.7-7.7s-3.5-7.7-7.7-7.7s-7.7,3.5-7.7,7.7v0C172.6,55.2,176.1,58.7,180.3,58.7
					 M180.3,58.2c-1.4,0-2.9-0.4-4.1-1.2c1.7,0,3.3-0.5,4.8-1.2c1.2-0.7,2.5-1.6,2.8-2.9c0.9-0.5,2.1-0.1,2.6,0.8
					c0.1,0.2,0.2,0.5,0.2,0.7C185.4,56.8,183,58.2,180.3,58.2 M176.8,52.6c0.4,0.3,0.8,0.4,1.3,0.5c1.2,0,2.3-0.8,2.5-2
					c0.7-0.6,1.8-0.6,2.5,0.1c0.1,0.2,0.2,0.3,0.3,0.5c0.6,1.5-0.7,2.6-2.4,3.7c-1.6,0.8-3.4,1.2-5.2,1.2c-0.8-0.7-1.5-1.5-1.9-2.4
					c0.1,0,0.1,0,0.2,0C175.1,54.2,176.2,53.6,176.8,52.6 M175.6,48.9c0.1-1.4,0.3-2.7,0.7-4c1-0.7,2.2-1.1,3.4-1.2
					c-0.8,0.8-0.7,2.1,0.1,2.9c0,0,0.1,0.1,0.1,0.1c-0.2,0.2-0.4,0.4-0.5,0.6c-0.8,1.3-0.5,3,0.8,3.8c-0.2,0.9-1.1,1.6-2,1.6
					C176.4,52.4,175.6,50.9,175.6,48.9 M183.9,52.4c0-0.3-0.1-0.6-0.2-0.8c-0.4-1.1-1.7-1.7-2.8-1.2c-0.2,0.1-0.4,0.2-0.6,0.3
					c-1-0.7-1.3-2.1-0.6-3.2c0.8-1.3,2.8-0.8,4.5,0.2c1.5,0.9,2.7,2.3,3.3,4c-0.1,0.8-0.3,1.5-0.6,2.2
					C186.6,52.6,185.3,52,183.9,52.4C184,52.4,184,52.4,183.9,52.4 M184.5,47.3c-1.3-0.7-2.9-1.4-4.1-0.9c-0.7-0.5-1-1.5-0.5-2.2
					c0.1-0.2,0.3-0.4,0.6-0.5c3.8,0,7,3,7.2,6.8C186.9,49.2,185.8,48,184.5,47.3 M175.8,45.3c-0.1,0.5-0.3,1-0.4,1.5
					c-0.4,1.7-0.4,4.3,1,5.6c-0.5,0.9-1.4,1.4-2.4,1.4c-0.1,0-0.3,0-0.4,0C172.4,50.7,173.3,47.3,175.8,45.3"/>
				<path class="st9" d="M17.6,0.1h57.8c3.8,0,7,3.1,7,7v57.8c0,3.8-3.1,7-7,7H17.6c-3.8,0-7-3.1-7-7c0,0,0,0,0,0V7.1
					C10.6,3.2,13.7,0.1,17.6,0.1C17.6,0.1,17.6,0.1,17.6,0.1"/>
				<rect x="24.9" y="45.5" class="st2" width="43.4" height="3.4"/>
				<polygon class="st2" points="36.7,28.3 36.7,24.8 24.9,24.8 24.9,41.1 29.2,41.1 29.2,35.3 35.9,35.3 35.9,31.8 29.2,31.8 
					29.2,28.3 				"/>
				<path class="st2" d="M49.6,32.7c1.5-0.5,2.6-2,2.6-3.6c0-2.6-2-4.2-5.3-4.2h-8.4v16.4h8.5c3.6,0,5.8-1.7,5.8-4.6
					C52.8,34.7,51.5,33,49.6,32.7 M42.9,28.1h3.3c1.2,0,1.9,0.6,1.9,1.6c0,1-0.7,1.6-1.9,1.6h-3.3V28.1z M46.5,37.8h-3.6v-3.3h3.7
					c1.2,0,1.9,0.6,1.9,1.7C48.4,37.3,47.8,37.8,46.5,37.8L46.5,37.8z"/>
				<path class="st2" d="M63.3,31.2l-2-0.3c-1.9-0.3-2.5-0.8-2.5-1.7s0.8-1.5,2.4-1.5c1.3-0.2,2.5,0.7,2.7,2c0,0,0,0,0,0l4.1-0.5
					c-0.6-3.2-2.9-4.8-6.7-4.8c-4.2,0-7,2.1-7,5.3c0,2.8,1.7,4.4,5.1,4.9l2.1,0.3c2.2,0.3,2.7,0.8,2.7,1.8s-0.8,1.5-2.7,1.5
					c-1.4,0.1-2.7-0.8-3.1-2.2l-4.3,0.6c0.7,3.3,3.2,4.9,7.3,4.9c4.6,0,7.3-2,7.3-5.3C68.7,33.3,67,31.8,63.3,31.2"/>
			</g>
		</g>
	</g>
</g>
</svg>
