<svg width="39" height="38" viewBox="0 0 39 38" fill="none" xmlns="http://www.w3.org/2000/svg">
<path d="M37.8984 19.7934L35.2585 15.9172C35.0952 15.6774 34.8433 15.5122 34.5583 15.4581C34.2732 15.4039 33.9783 15.4652 33.7385 15.6285C33.5557 15.7568 33.3493 15.8474 33.1312 15.8952C32.9131 15.943 32.6877 15.9469 32.468 15.9069C32.2484 15.8668 32.0389 15.7835 31.8517 15.6617C31.6646 15.54 31.5035 15.3823 31.3778 15.1978C31.2521 15.0132 31.1643 14.8056 31.1195 14.5868C31.0748 14.3681 31.0739 14.1427 31.117 13.9236C31.1602 13.7045 31.2464 13.4962 31.3707 13.3108C31.495 13.1253 31.6549 12.9664 31.8411 12.8432C32.0809 12.6799 32.246 12.428 32.3001 12.1429C32.3542 11.8579 32.2928 11.563 32.1295 11.3232L29.4896 7.44704C29.4087 7.32826 29.3052 7.22657 29.185 7.14779C29.0649 7.06901 28.9303 7.01469 28.7891 6.98791C28.648 6.96113 28.5029 6.96243 28.3622 6.99174C28.2215 7.02104 28.088 7.07778 27.9692 7.1587L4.52973 23.1232C4.41075 23.2041 4.30889 23.3077 4.22999 23.428C4.15109 23.5483 4.09669 23.683 4.06991 23.8243C4.04312 23.9657 4.04448 24.1109 4.07391 24.2518C4.10333 24.3926 4.16025 24.5262 4.24139 24.645L6.88126 28.5212C7.04461 28.761 7.29651 28.9261 7.58157 28.9802C7.86663 29.0342 8.1615 28.9729 8.40131 28.8095C8.58408 28.6813 8.7905 28.5907 9.0086 28.5429C9.22669 28.4951 9.45211 28.4911 9.67175 28.5312C9.89139 28.5713 10.1009 28.6546 10.288 28.7764C10.4752 28.8981 10.6363 29.0558 10.762 29.2403C10.8877 29.4248 10.9755 29.6325 11.0202 29.8512C11.065 30.07 11.0659 30.2954 11.0227 30.5145C10.9796 30.7335 10.8934 30.9419 10.7691 31.1273C10.6448 31.3128 10.4849 31.4717 10.2986 31.5948C10.1798 31.6757 10.0782 31.7792 9.99939 31.8994C9.92061 32.0196 9.86628 32.1541 9.8395 32.2953C9.81273 32.4365 9.81403 32.5816 9.84333 32.7222C9.87264 32.8629 9.92937 32.9965 10.0103 33.1152L12.6502 36.9914C12.731 37.1102 12.8345 37.2119 12.9547 37.2907C13.0748 37.3695 13.2094 37.4239 13.3506 37.4507C13.4917 37.4775 13.6368 37.4763 13.7775 37.447C13.9182 37.4177 14.0518 37.361 14.1706 37.2801L37.6101 21.3134C37.8498 21.1501 38.0149 20.8982 38.069 20.6131C38.1231 20.3281 38.0617 20.0332 37.8984 19.7934ZM32.0617 22.4449C31.8905 22.2266 31.6427 22.0814 31.3686 22.0389C31.0944 21.9963 30.8143 22.0595 30.5849 22.2157C30.3556 22.3719 30.1942 22.6094 30.1333 22.8801C30.0725 23.1508 30.1168 23.4345 30.2572 23.6738L13.8431 34.8537L12.347 32.6564C12.8758 32.0091 13.1811 31.2082 13.2174 30.3732C13.2537 29.5381 13.019 28.7137 12.5483 28.023C12.0776 27.3323 11.3962 26.8123 10.6058 26.5406C9.81534 26.269 8.95824 26.2602 8.16238 26.5155L6.66563 24.3175L23.0099 13.1838C23.1807 13.4035 23.4287 13.5499 23.7035 13.5932C23.9784 13.6365 24.2594 13.5734 24.4894 13.4168C24.7194 13.2603 24.8811 13.0219 24.9416 12.7504C25.0021 12.4788 24.9569 12.1943 24.8151 11.9549L28.2974 9.58294L29.7945 11.7806C29.2651 12.4276 28.9592 13.2286 28.9226 14.0638C28.8859 14.899 29.1204 15.7237 29.5912 16.4147C30.0619 17.1056 30.7435 17.6257 31.5342 17.8973C32.3249 18.1689 33.1822 18.1774 33.9781 17.9215L35.4734 20.1209L32.0617 22.4449Z" fill="#5A902F"/>
<path d="M27.5258 15.8774L26.5926 14.5268C26.5121 14.4059 26.4084 14.3022 26.2874 14.2218C26.1664 14.1414 26.0306 14.086 25.8879 14.0586C25.7452 14.0313 25.5986 14.0326 25.4564 14.0626C25.3143 14.0925 25.1795 14.1505 25.06 14.233C24.9405 14.3156 24.8386 14.4212 24.7604 14.5435C24.6821 14.6659 24.6289 14.8026 24.6041 14.9457C24.5792 15.0888 24.583 15.2355 24.6154 15.3771C24.6478 15.5187 24.7081 15.6524 24.7927 15.7705L25.7259 17.1211C25.8064 17.242 25.9101 17.3457 26.0311 17.4261C26.1521 17.5065 26.2879 17.562 26.4306 17.5893C26.5733 17.6166 26.7199 17.6153 26.8621 17.5854C27.0042 17.5554 27.139 17.4975 27.2585 17.4149C27.378 17.3323 27.4799 17.2268 27.5581 17.1044C27.6364 16.982 27.6896 16.8453 27.7144 16.7022C27.7393 16.5591 27.7354 16.4124 27.7031 16.2708C27.6707 16.1292 27.6104 15.9955 27.5258 15.8774Z" fill="#5A902F"/>
<path d="M29.3465 18.5112C29.266 18.3903 29.1623 18.2866 29.0413 18.2062C28.9203 18.1258 28.7845 18.0703 28.6418 18.043C28.4991 18.0157 28.3525 18.017 28.2103 18.0469C28.0682 18.0769 27.9334 18.1348 27.8139 18.2174C27.6944 18.3 27.5925 18.4055 27.5143 18.5279C27.436 18.6503 27.3828 18.787 27.358 18.9301C27.3331 19.0732 27.337 19.2199 27.3693 19.3615C27.4017 19.5031 27.462 19.6368 27.5466 19.7549L28.4798 21.1055C28.6474 21.3372 28.8992 21.494 29.1811 21.5424C29.463 21.5908 29.7526 21.5268 29.9879 21.3643C30.2232 21.2017 30.3855 20.9535 30.4401 20.6727C30.4946 20.3919 30.437 20.101 30.2797 19.8622L29.3465 18.5112Z" fill="#5A902F"/>
<path d="M4.82211 28.3402L2.78574 27.1378L2.85915 27.0136C3.00666 26.7637 3.04888 26.4655 2.9765 26.1845C2.90413 25.9035 2.72309 25.6627 2.47322 25.5152C2.22335 25.3677 1.92512 25.3255 1.64413 25.3979C1.36313 25.4702 1.1224 25.6513 0.974882 25.9011L0.345265 26.9677C0.19779 27.2175 0.155581 27.5157 0.227919 27.7966C0.300258 28.0776 0.481221 28.3183 0.731012 28.4658L3.71075 30.2245C3.96062 30.372 4.25886 30.4142 4.53985 30.3418C4.82084 30.2694 5.06158 30.0884 5.20909 29.8385C5.35661 29.5887 5.39882 29.2904 5.32645 29.0094C5.25407 28.7284 5.07304 28.4877 4.82317 28.3402H4.82211Z" fill="#5A902F"/>
<path d="M5.54875 20.3046C5.67247 20.3776 5.80938 20.4256 5.95164 20.4458C6.09391 20.466 6.23876 20.4579 6.37791 20.4221C6.51707 20.3863 6.6478 20.3234 6.76265 20.237C6.8775 20.1507 6.97421 20.0426 7.04727 19.9188L13.4352 9.09605L13.5485 9.16169C13.7992 9.3079 14.0976 9.34854 14.3783 9.27467C14.6589 9.20081 14.8987 9.01849 15.0449 8.76783C15.1911 8.51716 15.2317 8.21869 15.1579 7.93806C15.084 7.65743 14.9017 7.41764 14.651 7.27143L14.5508 7.2132L16.866 3.2915L19.3672 4.76814C19.1434 5.61516 19.2023 6.5121 19.535 7.32255C19.8678 8.133 20.4561 8.81262 21.2105 9.25804C21.4604 9.40556 21.7586 9.44777 22.0396 9.3754C22.3206 9.30302 22.5613 9.12199 22.7088 8.87212C22.8563 8.62225 22.8986 8.32401 22.8262 8.04302C22.7538 7.76203 22.5728 7.52129 22.3229 7.37378C21.9039 7.12656 21.6002 6.72307 21.4785 6.252C21.3569 5.78094 21.4273 5.28085 21.6742 4.86166C21.8216 4.61207 21.8639 4.31419 21.7918 4.03343C21.7198 3.75267 21.5393 3.51198 21.2899 3.36421L17.0347 0.851033C16.7848 0.703589 16.4866 0.661433 16.2056 0.733839C15.9247 0.806245 15.684 0.987282 15.5365 1.23713L5.16301 18.8078C5.01598 19.0575 4.97402 19.3554 5.04634 19.636C5.11866 19.9166 5.29935 20.157 5.54875 20.3046Z" fill="#5A902F"/>
<path d="M17.5719 8.96862C17.4477 8.89638 17.3105 8.84933 17.1681 8.83013C17.0257 8.81092 16.8809 8.81996 16.742 8.85671C16.6031 8.89347 16.4728 8.95722 16.3585 9.04433C16.2443 9.13145 16.1483 9.24021 16.076 9.36442C15.9302 9.61527 15.8899 9.9138 15.9641 10.1943C16.0384 10.4749 16.221 10.7144 16.4718 10.8603L17.5243 11.4723C17.7749 11.6141 18.0712 11.6513 18.3491 11.5761C18.627 11.5008 18.864 11.319 19.0088 11.0701C19.1536 10.8213 19.1944 10.5254 19.1224 10.2466C19.0504 9.96781 18.8715 9.72864 18.6243 9.58094L17.5719 8.96862Z" fill="#5A902F"/>
</svg>
