<svg width="57" height="56" viewBox="0 0 57 56" fill="none" xmlns="http://www.w3.org/2000/svg">
<g clip-path="url(#clip0)">
<rect x="0.643433" width="55.6435" height="55.6435" fill="#333333"/>
<path fill-rule="evenodd" clip-rule="evenodd" d="M19.1913 41.7325L19.1913 34.777H18.032C17.3918 34.777 16.8728 34.258 16.8728 33.6178C16.8728 32.9775 17.3918 32.4585 18.032 32.4585H19.1913L19.1913 23.1849H18.032C17.3918 23.1849 16.8728 22.6659 16.8728 22.0256C16.8728 21.3854 17.3918 20.8664 18.032 20.8664H19.1913L19.1913 13.9109H18.032C17.3918 13.9109 16.8728 13.3919 16.8728 12.7517C16.8728 12.1114 17.3918 11.5924 18.032 11.5924H19.1913V11.5923L37.7391 11.5923V11.5924H38.8983C39.5385 11.5924 40.0575 12.1114 40.0575 12.7517C40.0575 13.3919 39.5385 13.9109 38.8983 13.9109H37.7391V20.8664H38.8983C39.5385 20.8664 40.0575 21.3854 40.0575 22.0256C40.0575 22.6659 39.5385 23.1849 38.8983 23.1849H37.7391V32.4585H38.8983C39.5385 32.4585 40.0575 32.9775 40.0575 33.6178C40.0575 34.258 39.5385 34.777 38.8983 34.777H37.7391V41.7325H38.8983C39.5385 41.7325 40.0575 42.2515 40.0575 42.8917C40.0575 43.5319 39.5385 44.051 38.8983 44.051L37.7391 44.051H19.1913L18.032 44.051C17.3918 44.051 16.8728 43.5319 16.8728 42.8917C16.8728 42.2515 17.3918 41.7325 18.032 41.7325H19.1913ZM28.4651 34.7773C31.026 34.7773 33.1021 32.4417 33.1021 29.5607C33.1021 26.083 28.4651 20.8664 28.4651 20.8664C28.4651 20.8664 23.8282 26.083 23.8282 29.5607C23.8282 32.4417 25.9042 34.7773 28.4651 34.7773Z" fill="white"/>
</g>
<defs>
<clipPath id="clip0">
<path d="M0.643433 16.8056C0.643433 7.52411 8.16753 0 17.449 0H39.4813C48.7628 0 56.2869 7.5241 56.2869 16.8056V38.8379C56.2869 48.1193 48.7628 55.6435 39.4813 55.6435H17.449C8.16754 55.6435 0.643433 48.1194 0.643433 38.8379V16.8056Z" fill="white"/>
</clipPath>
</defs>
</svg>
