<svg width="56" height="56" viewBox="0 0 56 56" fill="none" xmlns="http://www.w3.org/2000/svg">
<g clip-path="url(#clip0)">
<path d="M58.2488 0H0.286896V27.8217H58.2488V0Z" fill="#F0F0F0"/>
<path d="M58.2488 4.63696H0.286896V9.27392H58.2488V4.63696Z" fill="#D80027"/>
<path d="M58.2488 13.9109H0.286896V18.5478H58.2488V13.9109Z" fill="#D80027"/>
<path d="M58.2488 23.1849H0.286896V27.8219H58.2488V23.1849Z" fill="#D80027"/>
<path d="M28.1086 0H0.286896V20.8663H28.1086V0Z" fill="#3C3B6E"/>
<path d="M9.1809 8.45813L8.71776 9.88294H7.21971L8.43187 10.7631L7.96873 12.1877L9.1809 11.3076L10.3923 12.1877L9.92925 10.7631L11.1414 9.88294H9.64325L9.1809 8.45813Z" fill="#F0F0F0"/>
<path d="M11.9621 15.0238L11.4997 13.5991L11.0366 15.0238H9.53851L10.7507 15.904L10.2875 17.3287L11.4997 16.4485L12.7111 17.3287L12.248 15.904L13.4602 15.0238H11.9621Z" fill="#F0F0F0"/>
<path d="M5.63131 15.0238L5.16884 13.5991L4.7057 15.0238H3.20766L4.41982 15.904L3.95668 17.3287L5.16884 16.4485L6.38033 17.3287L5.91731 15.904L7.12924 15.0238H5.63131Z" fill="#F0F0F0"/>
<path d="M2.85036 8.45813L2.38722 9.88294H0.889175L2.10134 10.7631L1.6382 12.1877L2.85036 11.3076L4.06185 12.1877L3.59882 10.7631L4.81076 9.88294H3.31283L2.85036 8.45813Z" fill="#F0F0F0"/>
<path d="M11.4997 3.3158L11.0366 4.74072H9.53851L10.7507 5.62094L10.2875 7.04564L11.4997 6.16541L12.7111 7.04564L12.248 5.62094L13.4602 4.74072H11.9621L11.4997 3.3158Z" fill="#F0F0F0"/>
<path d="M5.16884 3.3158L4.7057 4.74072H3.20766L4.41982 5.62094L3.95668 7.04564L5.16884 6.16541L6.38033 7.04564L5.91731 5.62094L7.12924 4.74072H5.63131L5.16884 3.3158Z" fill="#F0F0F0"/>
<path d="M15.5124 8.45813L15.0494 9.88294H13.5514L14.7634 10.7631L14.3005 12.1877L15.5124 11.3076L16.7241 12.1877L16.2609 10.7631L17.4731 9.88294H15.975L15.5124 8.45813Z" fill="#F0F0F0"/>
<path d="M18.2931 15.0238L17.8305 13.5991L17.3674 15.0238H15.8694L17.0815 15.904L16.6185 17.3287L17.8305 16.4485L19.0421 17.3287L18.5789 15.904L19.7911 15.0238H18.2931Z" fill="#F0F0F0"/>
<path d="M24.6249 15.0238L24.1624 13.5991L23.6993 15.0238H22.2014L23.4133 15.904L22.9503 17.3287L24.1624 16.4485L25.3739 17.3287L24.9108 15.904L26.1229 15.0238H24.6249Z" fill="#F0F0F0"/>
<path d="M21.8441 8.45813L21.381 9.88294H19.883L21.095 10.7631L20.6319 12.1877L21.8441 11.3076L23.0556 12.1877L22.5924 10.7631L23.8046 9.88294H22.3066L21.8441 8.45813Z" fill="#F0F0F0"/>
<path d="M17.8305 3.3158L17.3674 4.74072H15.8694L17.0815 5.62094L16.6185 7.04564L17.8305 6.16541L19.0421 7.04564L18.5789 5.62094L19.7911 4.74072H18.2931L17.8305 3.3158Z" fill="#F0F0F0"/>
<path d="M24.1624 3.3158L23.6993 4.74072H22.2014L23.4133 5.62094L22.9503 7.04564L24.1624 6.16541L25.3739 7.04564L24.9108 5.62094L26.1229 4.74072H24.6249L24.1624 3.3158Z" fill="#F0F0F0"/>
<rect x="0.286896" y="27.8219" width="55.6435" height="27.8217" fill="white"/>
<ellipse cx="28.1086" cy="41.7328" rx="9.27391" ry="9.27391" fill="#BC002D"/>
</g>
<defs>
<clipPath id="clip0">
<path d="M0.286896 16.8056C0.286896 7.52411 7.811 0 17.0924 0H39.1248C48.4062 0 55.9303 7.5241 55.9303 16.8056V38.8379C55.9303 48.1193 48.4062 55.6435 39.1248 55.6435H17.0925C7.811 55.6435 0.286896 48.1194 0.286896 38.8379V16.8056Z" fill="white"/>
</clipPath>
</defs>
</svg>
