<svg width="37" height="30" viewBox="0 0 37 30" fill="none" xmlns="http://www.w3.org/2000/svg">
<path fill-rule="evenodd" clip-rule="evenodd" d="M27.4966 14.1035C27.4966 16.9101 25.2657 19.141 22.4591 19.141H8.06628C5.25967 19.141 3.02878 16.9101 3.02878 14.1035C3.02878 11.2969 5.25967 9.06604 8.06628 9.06604H22.4591C25.2657 9.06604 27.4966 11.2969 27.4966 14.1035Z" fill="#80C342"/>
<g filter="url(#filter0_dd)">
<path fill-rule="evenodd" clip-rule="evenodd" d="M22.4591 21.3C26.4336 21.3 29.6556 18.078 29.6556 14.1035C29.6556 10.1291 26.4336 6.9071 22.4591 6.9071C18.4846 6.9071 15.2627 10.1291 15.2627 14.1035C15.2627 18.078 18.4846 21.3 22.4591 21.3Z" fill="white"/>
</g>
<defs>
<filter id="filter0_dd" x="8.06627" y="0.430319" width="28.7857" height="28.7857" filterUnits="userSpaceOnUse" color-interpolation-filters="sRGB">
<feFlood flood-opacity="0" result="BackgroundImageFix"/>
<feColorMatrix in="SourceAlpha" type="matrix" values="0 0 0 0 0 0 0 0 0 0 0 0 0 0 0 0 0 0 127 0"/>
<feOffset dy="0.719643"/>
<feGaussianBlur stdDeviation="3.59821"/>
<feColorMatrix type="matrix" values="0 0 0 0 0 0 0 0 0 0 0 0 0 0 0 0 0 0 0.237602 0"/>
<feBlend mode="normal" in2="BackgroundImageFix" result="effect1_dropShadow"/>
<feColorMatrix in="SourceAlpha" type="matrix" values="0 0 0 0 0 0 0 0 0 0 0 0 0 0 0 0 0 0 127 0"/>
<feOffset/>
<feGaussianBlur stdDeviation="0.719643"/>
<feColorMatrix type="matrix" values="0 0 0 0 0 0 0 0 0 0 0 0 0 0 0 0 0 0 0.12 0"/>
<feBlend mode="normal" in2="effect1_dropShadow" result="effect2_dropShadow"/>
<feBlend mode="normal" in="SourceGraphic" in2="effect2_dropShadow" result="shape"/>
</filter>
</defs>
</svg>
