<svg width="56" height="56" viewBox="0 0 56 56" fill="none" xmlns="http://www.w3.org/2000/svg">
<g clip-path="url(#clip0)">
<g clip-path="url(#clip1)">
<rect width="55.6435" height="27.8217" fill="#FF0000"/>
<path d="M88.1021 -13.9109L-34.7772 -13.9109L-34.7772 67.2358L88.1021 67.2358L88.1021 -13.9109Z" fill="#003399"/>
<path d="M27.2154 3.07349L28.43 6.81104L32.3597 6.81104L29.1804 9.12112L30.3948 12.8587L27.2154 10.5488L24.036 12.8587L25.2504 9.12112L22.071 6.81104L26.0008 6.81104L27.2154 3.07349Z" fill="#FFDA44"/>
<path d="M11.0713 9.76013L14.5729 11.5441L17.3518 8.7655L16.7367 12.647L20.2384 14.4312L16.3569 15.046L15.7421 18.9277L13.9579 15.426L10.0767 16.0406L12.8555 13.2618L11.0713 9.76013Z" fill="#FFDA44"/>
<path d="M4.38336 25.906L8.12092 24.6916L8.12116 20.7618L10.4308 23.9412L14.1686 22.7268L11.8585 25.906L14.1686 29.0853L10.4308 27.8712L8.12116 31.0503L8.12116 27.1206L4.38336 25.906Z" fill="#FFDA44"/>
<path d="M50.0472 25.906L46.3097 27.1206L46.3097 31.0503L43.9998 27.8707L40.262 29.0853L42.5721 25.906L40.262 22.7268L43.9998 23.941L46.3094 20.7618L46.3097 24.6918L50.0472 25.906Z" fill="#FFDA44"/>
<path d="M43.3592 9.76013L41.5752 13.2618L44.354 16.0406L40.4721 15.4256L38.6884 18.9274L38.0733 15.046L34.1921 14.4312L37.6937 12.647L37.0787 8.7655L39.8575 11.5444L43.3592 9.76013Z" fill="#FFDA44"/>
</g>
<path d="M57.9619 27.8219H0V64.9175H57.9619V27.8219Z" fill="#F0F0F0"/>
<path d="M57.5135 32.6141H0V37.4065H57.5135V32.6141Z" fill="#D80027"/>
<path d="M57.5135 42.1996H0V46.992H57.5135V42.1996Z" fill="#D80027"/>
<path d="M57.5135 51.7847H0V56.577H57.5135V51.7847Z" fill="#D80027"/>
<path d="M27.8217 27.8219H0V48.6882H27.8217V27.8219Z" fill="#3C3B6E"/>
<path d="M8.89402 36.28L8.43088 37.7048H6.93283L8.14499 38.5849L7.68185 40.0096L8.89402 39.1295L10.1054 40.0096L9.64237 38.5849L10.8545 37.7048H9.35637L8.89402 36.28Z" fill="#F0F0F0"/>
<path d="M11.6752 42.8457L11.2128 41.421L10.7497 42.8457H9.25165L10.4638 43.7259L10.0007 45.1506L11.2128 44.2704L12.4242 45.1506L11.9612 43.7259L13.1733 42.8457H11.6752Z" fill="#F0F0F0"/>
<path d="M5.34443 42.8457L4.88196 41.421L4.41882 42.8457H2.92078L4.13294 43.7259L3.6698 45.1506L4.88196 44.2704L6.09345 45.1506L5.63043 43.7259L6.84236 42.8457H5.34443Z" fill="#F0F0F0"/>
<path d="M2.56345 36.28L2.10031 37.7048H0.602264L1.81443 38.5849L1.35129 40.0096L2.56345 39.1295L3.77494 40.0096L3.31191 38.5849L4.52385 37.7048H3.02592L2.56345 36.28Z" fill="#F0F0F0"/>
<path d="M11.2128 31.1377L10.7497 32.5626H9.25165L10.4638 33.4428L10.0007 34.8675L11.2128 33.9873L12.4242 34.8675L11.9612 33.4428L13.1733 32.5626H11.6752L11.2128 31.1377Z" fill="#F0F0F0"/>
<path d="M4.88196 31.1377L4.41882 32.5626H2.92078L4.13294 33.4428L3.6698 34.8675L4.88196 33.9873L6.09345 34.8675L5.63043 33.4428L6.84236 32.5626H5.34443L4.88196 31.1377Z" fill="#F0F0F0"/>
<path d="M15.2255 36.28L14.7625 37.7048H13.2645L14.4765 38.5849L14.0136 40.0096L15.2255 39.1295L16.4371 40.0096L15.974 38.5849L17.1862 37.7048H15.6881L15.2255 36.28Z" fill="#F0F0F0"/>
<path d="M18.0062 42.8457L17.5436 41.421L17.0806 42.8457H15.5826L16.7946 43.7259L16.3317 45.1506L17.5436 44.2704L18.7552 45.1506L18.2921 43.7259L19.5042 42.8457H18.0062Z" fill="#F0F0F0"/>
<path d="M24.338 42.8457L23.8755 41.421L23.4124 42.8457H21.9145L23.1264 43.7259L22.6634 45.1506L23.8755 44.2704L25.087 45.1506L24.6239 43.7259L25.836 42.8457H24.338Z" fill="#F0F0F0"/>
<path d="M21.5572 36.28L21.0941 37.7048H19.5961L20.8081 38.5849L20.345 40.0096L21.5572 39.1295L22.7687 40.0096L22.3056 38.5849L23.5177 37.7048H22.0197L21.5572 36.28Z" fill="#F0F0F0"/>
<path d="M17.5436 31.1377L17.0806 32.5626H15.5826L16.7946 33.4428L16.3317 34.8675L17.5436 33.9873L18.7552 34.8675L18.2921 33.4428L19.5042 32.5626H18.0062L17.5436 31.1377Z" fill="#F0F0F0"/>
<path d="M23.8755 31.1377L23.4124 32.5626H21.9145L23.1264 33.4428L22.6634 34.8675L23.8755 33.9873L25.087 34.8675L24.6239 33.4428L25.836 32.5626H24.338L23.8755 31.1377Z" fill="#F0F0F0"/>
</g>
<defs>
<clipPath id="clip0">
<path d="M0 16.8056C0 7.52411 7.5241 0 16.8056 0H38.8379C48.1193 0 55.6435 7.5241 55.6435 16.8056V38.8379C55.6435 48.1193 48.1194 55.6435 38.8379 55.6435H16.8056C7.52411 55.6435 0 48.1194 0 38.8379V16.8056Z" fill="white"/>
</clipPath>
<clipPath id="clip1">
<rect x="55.6434" width="27.8217" height="55.6435" transform="rotate(90 55.6434 0)" fill="white"/>
</clipPath>
</defs>
</svg>
