<svg width="400" height="400" viewBox="0 0 400 400" fill="none" xmlns="http://www.w3.org/2000/svg">
<path d="M7.48351 183.797C-5.86301 160.68 2.05738 131.121 25.1742 117.774L216.203 7.48351C239.32 -5.86301 268.879 2.05738 282.226 25.1742L392.516 216.203C405.863 239.32 397.943 268.879 374.826 282.226L183.797 392.516C160.68 405.863 131.121 397.943 117.774 374.826L7.48351 183.797Z" fill="url(#paint0_linear)"/>
<path d="M7.48351 183.797C-5.86301 160.68 2.05738 131.121 25.1742 117.774L216.203 7.48351C239.32 -5.86301 268.879 2.05738 282.226 25.1742L392.516 216.203C405.863 239.32 397.943 268.879 374.826 282.226L183.797 392.516C160.68 405.863 131.121 397.943 117.774 374.826L7.48351 183.797Z" fill="url(#paint1_linear)"/>
<path d="M7.48351 183.797C-5.86301 160.68 2.05738 131.121 25.1742 117.774L216.203 7.48351C239.32 -5.86301 268.879 2.05738 282.226 25.1742L392.516 216.203C405.863 239.32 397.943 268.879 374.826 282.226L183.797 392.516C160.68 405.863 131.121 397.943 117.774 374.826L7.48351 183.797Z" stroke="url(#paint2_linear)" stroke-width="2"/>
<defs>
<linearGradient id="paint0_linear" x1="97.4359" y1="76.1904" x2="319.457" y2="118.507" gradientUnits="userSpaceOnUse">
<stop stop-color="#2D3F5F"/>
<stop offset="1" stop-color="#162D58"/>
</linearGradient>
<linearGradient id="paint1_linear" x1="97.4359" y1="76.1904" x2="319.457" y2="118.507" gradientUnits="userSpaceOnUse">
<stop stop-color="#B1F077"/>
<stop offset="1" stop-color="#80C342"/>
</linearGradient>
<linearGradient id="paint2_linear" x1="200" y1="0" x2="57.5" y2="233.5" gradientUnits="userSpaceOnUse">
<stop stop-color="#CAFA9E" stop-opacity="0"/>
<stop offset="1" stop-color="#CAFA9E"/>
</linearGradient>
</defs>
</svg>
