<svg id="Layer_1" data-name="Layer 1" xmlns="http://www.w3.org/2000/svg" xmlns:xlink="http://www.w3.org/1999/xlink" viewBox="0 0 47.14 35.44"><defs><style>.cls-1{fill:url(#linear-gradient);}</style><linearGradient id="linear-gradient" x1="230.19" y1="421.16" x2="277.33" y2="421.16" gradientUnits="userSpaceOnUse"><stop offset="0" stop-color="#afaeae"/><stop offset="0.51" stop-color="#d6d6d6"/><stop offset="1" stop-color="#afaeae"/></linearGradient></defs><title>silver</title><path class="cls-1" d="M261.82,430l-.46,2.14H246.19l-.5-2.14Zm-23.66,4.58,1.07,4.28h29.06l1.07-4.28Zm38.08-27.48a2.13,2.13,0,0,0-2.57.35l-11,11-8.89-15-9,14.93-10.92-10.91a2.14,2.14,0,0,0-3.59,2l7.36,22.84H242L236.28,416l7.39,7.38a2.21,2.21,0,0,0,1.64.63,2.15,2.15,0,0,0,1.55-.8l6.9-11.54,6.9,11.54a2.13,2.13,0,0,0,3.18.17l7.39-7.38-5.74,16.37h4.42l7.35-22.84A2.12,2.12,0,0,0,276.24,407.11Z" transform="translate(-230.19 -403.44)"/></svg>