<svg width="50" height="44" viewBox="0 0 50 44" fill="none" xmlns="http://www.w3.org/2000/svg">
<path d="M3.99911 22C5.49911 22 6.93661 22.8476 7.62023 24.2964C10.9092 31.2729 17.9991 35.7807 25.6827 35.7807H39.3624C41.5694 35.7807 43.3624 37.5737 43.3624 39.7807C43.3624 41.9917 41.5694 43.7807 39.3624 43.7807H25.6827C14.9171 43.7807 4.98741 37.4721 0.38191 27.7065C-0.55949 25.7065 0.29991 23.3237 2.29601 22.3828C2.84671 22.123 3.42881 22 3.99911 22Z" fill="#879DA9"/>
<path d="M41.6826 16C46.1009 16 49.6826 12.4183 49.6826 8C49.6826 3.58172 46.1009 0 41.6826 0C37.2643 0 33.6826 3.58172 33.6826 8C33.6826 12.4183 37.2643 16 41.6826 16Z" fill="#879DA9"/>
<path d="M9.68262 16C14.1009 16 17.6826 12.4183 17.6826 8C17.6826 3.58172 14.1009 0 9.68262 0C5.26434 0 1.68262 3.58172 1.68262 8C1.68262 12.4183 5.26434 16 9.68262 16Z" fill="#879DA9"/>
</svg>
