<svg width="52" height="48" viewBox="0 0 52 48" fill="none" xmlns="http://www.w3.org/2000/svg">
<path d="M9.68262 16C14.1009 16 17.6826 12.4183 17.6826 8C17.6826 3.58172 14.1009 0 9.68262 0C5.26434 0 1.68262 3.58172 1.68262 8C1.68262 12.4183 5.26434 16 9.68262 16Z" fill="#879DA9"/>
<path d="M25.6826 47.7812C14.917 47.7812 4.98733 41.4707 0.381929 31.7051C-0.559471 29.707 0.299829 27.3242 2.29593 26.3828C4.29203 25.4433 6.67873 26.2969 7.62013 28.2949C10.9092 35.2734 17.999 39.7812 25.6826 39.7812C33.3662 39.7812 40.4561 35.2734 43.7412 28.2949C44.6865 26.2969 47.0733 25.4433 49.0655 26.3828C51.0655 27.3242 51.9209 29.707 50.9795 31.7051C46.378 41.4707 36.4483 47.7812 25.6826 47.7812Z" fill="#879DA9"/>
<path d="M47.6826 12H35.6826C33.4737 12 31.6826 10.209 31.6826 8C31.6826 5.791 33.4737 4 35.6826 4H47.6826C49.8916 4 51.6826 5.791 51.6826 8C51.6826 10.209 49.8916 12 47.6826 12Z" fill="#879DA9"/>
</svg>
