<svg width="56" height="52" viewBox="0 0 56 52" fill="none" xmlns="http://www.w3.org/2000/svg">
<path d="M54.2962 27.2461C53.5382 26.3183 52.4015 25.7812 51.2024 25.7812H3.99924C2.80005 25.7812 1.66716 26.3183 0.905445 27.2461C0.147645 28.1738 -0.157055 29.3945 0.0773451 30.5683C2.55005 42.8594 14.1242 51.7812 27.6007 51.7812C41.0773 51.7812 52.6554 42.8594 55.1242 30.5683C55.3626 29.3945 55.0578 28.1738 54.2962 27.2461Z" fill="#879DA9"/>
<path d="M43.6006 16C48.0189 16 51.6006 12.4183 51.6006 8C51.6006 3.58172 48.0189 0 43.6006 0C39.1823 0 35.6006 3.58172 35.6006 8C35.6006 12.4183 39.1823 16 43.6006 16Z" fill="#879DA9"/>
<path d="M11.6006 16C16.0189 16 19.6006 12.4183 19.6006 8C19.6006 3.58172 16.0189 0 11.6006 0C7.18231 0 3.60059 3.58172 3.60059 8C3.60059 12.4183 7.18231 16 11.6006 16Z" fill="#879DA9"/>
</svg>
