<svg width="128" height="128" viewBox="0 0 128 128" fill="none" xmlns="http://www.w3.org/2000/svg">
<path d="M128 0H0V128H128V0Z" fill="white"/>
<path d="M110.675 67.35C110.675 80.525 103.925 89.4 95.3 98.025C86.675 106.65 76.8 110.4 63.65 110.4C50.475 110.4 35.675 102.4 27.05 93.75C18.425 85.125 15.1 88.575 15.1 75.4C15.1 62.225 20.675 42.25 29.3 33.625C37.925 25 49.85 19.65 63.025 19.65C76.2 19.65 74.925 37.325 83.575 45.95C92.15 54.6 110.675 54.175 110.675 67.35Z" fill="#EAF4FE"/>
<path d="M31.4 26.35C31.225 26.35 31.1 26.25 31.05 26.075C30.35 23.525 29.85 23.025 27.3 22.325C27.15 22.275 27.025 22.125 27.025 21.975C27.025 21.8 27.125 21.675 27.3 21.625C29.85 20.925 30.35 20.425 31.05 17.875C31.1 17.725 31.25 17.6 31.4 17.6C31.575 17.6 31.7 17.7 31.75 17.875C32.45 20.425 32.95 20.925 35.5 21.625C35.65 21.675 35.775 21.825 35.775 21.975C35.775 22.15 35.675 22.275 35.5 22.325C32.95 23.025 32.45 23.525 31.75 26.075C31.725 26.25 31.575 26.35 31.4 26.35ZM28.625 21.975C30.175 22.525 30.85 23.2 31.4 24.75C31.95 23.2 32.625 22.525 34.175 21.975C32.625 21.425 31.95 20.75 31.4 19.2C30.85 20.75 30.175 21.425 28.625 21.975Z" fill="#CED3E2"/>
<path d="M86.0251 51.65L85.7001 51.375C85.8001 51.25 85.9251 51.125 86.0251 51L86.3501 51.3C86.2251 51.4 86.1251 51.525 86.0251 51.65ZM104.1 51.275C103.925 51.275 103.75 51.275 103.575 51.25L103.625 50.825C103.825 50.85 104.025 50.85 104.225 50.85L104.25 51.275C104.225 51.275 104.175 51.275 104.1 51.275ZM104.95 51.175L104.85 50.75C105.05 50.7 105.225 50.65 105.425 50.575L105.575 50.975C105.375 51.075 105.15 51.125 104.95 51.175ZM102.95 51.1C102.75 51.025 102.525 50.95 102.325 50.85L102.525 50.475C102.7 50.575 102.9 50.65 103.075 50.7L102.95 51.1ZM86.7751 50.85L86.4751 50.55C86.6251 50.4 86.7751 50.25 86.9501 50.1L87.2501 50.425C87.0751 50.55 86.9251 50.7 86.7751 50.85ZM106.2 50.7L106 50.325C106.175 50.225 106.35 50.125 106.525 50L106.75 50.35C106.575 50.5 106.375 50.6 106.2 50.7ZM101.75 50.5C101.575 50.375 101.4 50.225 101.225 50.075L101.5 49.75C101.65 49.9 101.825 50.025 101.975 50.125L101.75 50.5ZM87.7001 49.975L87.425 49.65C87.6 49.5 87.75 49.375 87.925 49.25L88.175 49.575C88.025 49.725 87.8501 49.85 87.7001 49.975ZM107.3 49.975L107.025 49.65C107.175 49.525 107.35 49.4 107.5 49.25L107.775 49.575C107.625 49.725 107.45 49.85 107.3 49.975ZM100.75 49.6C100.6 49.425 100.475 49.25 100.35 49.075L100.7 48.85C100.8 49.025 100.925 49.175 101.075 49.35L100.75 49.6ZM88.7001 49.2L88.4501 48.85C88.6251 48.725 88.8001 48.6 88.9751 48.475L89.2001 48.825C89.0501 48.975 88.8751 49.1 88.7001 49.2ZM108.275 49.1L107.95 48.825C108.1 48.65 108.2 48.5 108.275 48.35L108.675 48.525C108.575 48.7 108.45 48.9 108.275 49.1ZM89.7501 48.5L89.5251 48.125C89.7001 48 89.9001 47.9 90.0751 47.8L90.2751 48.175C90.1001 48.3 89.9251 48.4 89.7501 48.5ZM100.025 48.475C99.9251 48.275 99.8501 48.075 99.7751 47.85L100.175 47.725C100.25 47.925 100.325 48.1 100.4 48.3L100.025 48.475ZM90.8501 47.875L90.6501 47.5C90.8501 47.4 91.0251 47.3 91.2251 47.2L91.425 47.575C91.225 47.675 91.0251 47.775 90.8501 47.875ZM108.35 47.825C108.325 47.675 108.275 47.5 108.175 47.3L108.55 47.1C108.675 47.35 108.75 47.575 108.775 47.775L108.35 47.825ZM91.9751 47.325L91.8 46.95C92 46.85 92.2001 46.775 92.4001 46.675L92.5751 47.075C92.3751 47.15 92.1751 47.225 91.9751 47.325ZM99.6001 47.225C99.5501 47 99.5251 46.775 99.5251 46.575L99.9501 46.55C99.9751 46.75 100 46.95 100.025 47.15L99.6001 47.225ZM93.1501 46.825L93.0001 46.425C93.2001 46.35 93.4001 46.275 93.6001 46.2L93.7501 46.6C93.5501 46.65 93.3501 46.725 93.1501 46.825ZM107.875 46.775C107.75 46.6 107.625 46.45 107.5 46.3L107.8 46C107.95 46.175 108.1 46.35 108.225 46.525L107.875 46.775ZM94.3501 46.375L94.2001 45.975C94.4001 45.9 94.6 45.825 94.8 45.775L94.925 46.175C94.75 46.225 94.5501 46.3 94.3501 46.375ZM95.55 45.975L95.425 45.575C95.625 45.5 95.825 45.45 96.05 45.4L96.175 45.8C95.95 45.85 95.75 45.9 95.55 45.975ZM99.925 45.925L99.5001 45.9C99.5001 45.675 99.525 45.45 99.55 45.25L99.9751 45.3C99.9501 45.5 99.95 45.725 99.925 45.925ZM107.025 45.875C106.875 45.75 106.7 45.625 106.525 45.525L106.75 45.175C106.95 45.3 107.125 45.425 107.3 45.575L107.025 45.875ZM96.7751 45.6L96.6501 45.2C96.8501 45.15 97.0751 45.1 97.2751 45.025L97.3751 45.45C97.1751 45.5 96.9751 45.55 96.7751 45.6ZM98.0001 45.275L97.9001 44.85C98.1001 44.8 98.3251 44.75 98.5251 44.7L98.6251 45.125C98.4251 45.2 98.2001 45.225 98.0001 45.275ZM106 45.225C105.825 45.125 105.625 45.05 105.425 44.975L105.575 44.575C105.775 44.65 105.975 44.75 106.175 44.85L106 45.225ZM99.2501 45L99.1501 44.575C99.3501 44.525 99.5251 44.5 99.7251 44.45C99.7751 44.275 99.8251 44.125 99.8751 43.95L100.275 44.075C100.2 44.275 100.15 44.475 100.1 44.675L99.8251 44.6L99.8751 44.85C99.6501 44.9 99.4501 44.95 99.2501 45ZM104.85 44.775C104.65 44.725 104.45 44.675 104.25 44.65L104.325 44.225C104.55 44.275 104.75 44.3 104.975 44.375L104.85 44.775ZM100.5 44.75L100.425 44.325C100.65 44.3 100.85 44.25 101.075 44.225L101.125 44.65C100.9 44.675 100.7 44.725 100.5 44.75ZM101.75 44.575L101.7 44.15C101.925 44.125 102.15 44.125 102.35 44.1L102.375 44.525C102.175 44.55 101.95 44.575 101.75 44.575ZM103.625 44.575C103.425 44.55 103.225 44.55 103 44.55V44.125C103.225 44.125 103.45 44.15 103.65 44.15L103.625 44.575ZM100.5 43.525L100.1 43.35C100.175 43.15 100.275 42.95 100.375 42.75L100.75 42.95C100.675 43.15 100.575 43.325 100.5 43.525ZM101.075 42.4L100.7 42.175C100.825 42 100.925 41.8 101.075 41.625L101.425 41.875C101.3 42.05 101.175 42.225 101.075 42.4ZM101.8 41.4L101.475 41.125C101.55 41.05 101.625 40.95 101.675 40.875C101.75 40.8 101.825 40.7 101.9 40.625L102.2 40.925C102.125 41 102.05 41.075 101.975 41.15C101.925 41.225 101.875 41.325 101.8 41.4ZM102.65 40.475L102.35 40.175C102.5 40.025 102.65 39.875 102.825 39.725L103.1 40.05C102.95 40.175 102.8 40.325 102.65 40.475ZM103.6 39.65L103.325 39.325C103.5 39.2 103.675 39.05 103.825 38.925L104.075 39.275C103.925 39.375 103.775 39.5 103.6 39.65ZM104.6 38.875L104.35 38.525C104.525 38.4 104.7 38.275 104.875 38.15L105.125 38.5C104.95 38.625 104.775 38.75 104.6 38.875ZM105.675 38.175L105.45 37.825C105.625 37.7 105.8 37.6 106 37.475L106.225 37.825C106.025 37.925 105.85 38.05 105.675 38.175ZM106.75 37.475L106.525 37.1C106.7 37 106.9 36.875 107.075 36.775L107.3 37.15L106.75 37.475Z" fill="#6481AD"/>
<path d="M112.3 27.675L103.725 32.25L103.075 32.6L103.75 32.9L106.125 33.925L106.9 35.975L107.15 36.65L107.35 37.15L107.4 36.925L107.525 36.175L107.575 35.9L107.825 34.5L108.625 34.775L108.975 34.9L111.175 35.65L111.575 35.8L111.65 35.375L112.8 28.025L112.9 27.325L112.3 27.675ZM111.3 35.35L107.925 34.175L107.575 34.05L107.25 35.85L106.475 33.825L106.425 33.675L106.225 33.6L103.9 32.6L111.8 28.375L112.475 28.025L112.425 28.375L111.3 35.35Z" fill="#6481AD"/>
<path d="M106.125 33.6L106.375 33.875L111.05 29.5L107.55 34.075L107.85 34.275L112.675 27.975L112.4 27.75L106.125 33.6Z" fill="#6481AD"/>
<path d="M108.625 34.8L107.5 36.425L107.175 36.675L107.275 36.925L107.35 37V37.175L108.975 34.925L109.1 34.775L108.825 34.55L108.625 34.8Z" fill="#6481AD"/>
<path d="M26.9501 56.05V102.125C26.9501 102.75 27.2001 103.3 27.6251 103.7C28.0251 104.075 28.5251 104.3 29.1001 104.3H94.9751C95.5501 104.3 96.0751 104.075 96.4501 103.7C96.8751 103.3 97.1251 102.75 97.1251 102.125V56.05L62.0251 35.85L26.9501 56.05Z" fill="#A4E4FF"/>
<path d="M97.45 55.5L62.35 35.3C62.15 35.175 61.9 35.175 61.7 35.3L26.6 55.5C26.4 55.625 26.275 55.825 26.275 56.05V102.125C26.275 102.9 26.6 103.625 27.15 104.15C27.675 104.65 28.35 104.925 29.075 104.925H94.95C95.675 104.925 96.35 104.65 96.875 104.15C97.425 103.625 97.75 102.875 97.75 102.125V56.05C97.775 55.825 97.65 55.625 97.45 55.5ZM96.5 102.125C96.5 102.55 96.325 102.95 96.025 103.225C95.75 103.5 95.375 103.65 94.975 103.65H29.1C28.7 103.65 28.325 103.5 28.05 103.225C27.75 102.925 27.575 102.55 27.575 102.125V56.425L62.025 36.6L96.475 56.425V102.125H96.5Z" fill="#3A5C91"/>
<path d="M83.125 34.1C85.475 34.1 87.4 36 87.4 38.375V80.625H36.85V46L48.525 34.1H83.125Z" fill="white"/>
<path d="M48.05 33.65C48.175 33.525 48.325 33.45 48.5 33.45H83.1C85.8 33.45 88 35.65 88 38.35V80.6C88 80.95 87.725 81.25 87.35 81.25H36.8C36.45 81.25 36.15 80.975 36.15 80.6V46C36.15 45.825 36.225 45.675 36.325 45.55L48.05 33.65ZM37.475 79.95H86.75V38.35C86.75 36.35 85.125 34.725 83.125 34.725H48.775L37.45 46.25V79.95H37.475Z" fill="#3A5C91"/>
<path opacity="0.2" d="M96.9001 55.4L69.6251 77.4H54.425L27.5751 55.825C27.2001 55.5 26.9501 100.2 26.9501 100.2C26.9501 101.075 27.3251 101.925 27.9501 102.55C28.5501 103.125 29.35 103.425 30.175 103.425L93.9001 103.2C94.7251 103.2 95.5251 102.875 96.1251 102.325C96.7751 101.725 97.1251 100.875 97.1251 99.975C97.1251 99.975 97.4251 54.925 96.9001 55.4Z" fill="#141414"/>
<path d="M26.925 102.1C26.925 102.725 27.1751 103.275 27.6001 103.675C28.0001 104.05 28.5001 104.275 29.0751 104.275H94.9501C95.5251 104.275 96.05 104.05 96.425 103.675C96.8501 103.275 97.1001 102.725 97.1001 102.1V80.575H26.925V102.1Z" fill="white"/>
<path d="M97.1251 79.925H26.9501C26.6001 79.925 26.3 80.2 26.3 80.575V102.1C26.3 102.875 26.625 103.6 27.175 104.125C27.7 104.625 28.3751 104.9 29.1001 104.9H94.9751C95.7001 104.9 96.3751 104.625 96.9001 104.125C97.4501 103.6 97.7751 102.85 97.7751 102.1V80.575C97.7501 80.225 97.4751 79.925 97.1251 79.925ZM96.4751 102.1C96.4751 102.525 96.3001 102.9 96.0001 103.2C95.7251 103.475 95.3501 103.625 94.9501 103.625H29.0751C28.6751 103.625 28.3001 103.475 28.0251 103.2C27.7251 102.9 27.55 102.525 27.55 102.1V81.225H96.4501V102.1H96.4751Z" fill="#3A5C91"/>
<path d="M26.9501 102.125C26.9501 102.75 27.2001 103.3 27.6251 103.7L53.9501 80.55L26.9501 56.075V102.125Z" fill="#F2F4FF"/>
<path d="M96.4501 103.675C96.8751 103.275 97.1251 102.725 97.1251 102.1V56.025L70.1251 80.5L96.4501 103.675Z" fill="#F2F4FF"/>
<path d="M27.3751 55.575C27.1751 55.4 26.925 55.35 26.675 55.475C26.45 55.575 26.3 55.8 26.3 56.05V102.125C26.3 102.9 26.625 103.625 27.175 104.15C27.3 104.275 27.4501 104.325 27.6251 104.325C27.7751 104.325 27.925 104.275 28.05 104.175L54.3751 81.025C54.5001 80.9 54.6001 80.725 54.6001 80.55C54.6001 80.375 54.5251 80.2 54.4001 80.075L27.3751 55.575ZM27.7251 102.75C27.6501 102.55 27.6001 102.35 27.6001 102.125V57.5L53.0001 80.525L27.7251 102.75Z" fill="#3A5C91"/>
<path d="M97.3751 55.475C97.1501 55.375 96.8751 55.425 96.6751 55.575L69.6751 80.05C69.5501 80.175 69.4751 80.35 69.4751 80.525C69.4751 80.7 69.5501 80.875 69.7001 81L96.0251 104.15C96.1501 104.25 96.3001 104.3 96.4501 104.3C96.6001 104.3 96.7751 104.25 96.9001 104.125C97.4501 103.6 97.7751 102.85 97.7751 102.1V56.025C97.7501 55.8 97.6001 55.575 97.3751 55.475ZM96.4751 102.125C96.4751 102.35 96.4251 102.55 96.3501 102.75L71.1001 80.525L96.5001 57.5V102.125H96.4751Z" fill="#3A5C91"/>
<path opacity="0.2" d="M96.4751 99.1C96.4751 99.525 96.3001 99.9 96.0001 100.2C95.7251 100.475 95.3501 100.625 94.9501 100.625H29.0751C28.6751 100.625 28.3001 100.475 28.0251 100.2C27.7501 99.95 27.6 99.625 27.55 99.25V102.1C27.55 102.525 27.7251 102.925 28.0251 103.2C28.3001 103.475 28.6751 103.625 29.0751 103.625H94.9501C95.3501 103.625 95.7251 103.475 96.0001 103.2C96.3001 102.9 96.4751 102.525 96.4751 102.1V81.25V99.1Z" fill="#141414"/>
<path opacity="0.2" d="M48.1251 34.925C48.3001 34.75 48.5751 34.675 48.8251 34.775C49.0751 34.875 49.2251 35.1 49.2251 35.375V43.9C49.2251 46.025 47.5001 47.75 45.3751 47.75H36.8501C36.6001 47.75 36.3501 47.6 36.2501 47.35C36.1501 47.1 36.2001 46.825 36.4001 46.65L48.1251 34.925Z" fill="#141414"/>
<path d="M48.5751 42.625C48.5751 44.4 47.1501 45.825 45.3751 45.825H36.8501L48.5751 34.1V42.625Z" fill="#FFD599"/>
<path d="M48.1251 33.65C48.3001 33.475 48.5751 33.4 48.8251 33.5C49.0751 33.6 49.2251 33.825 49.2251 34.1V42.625C49.2251 44.75 47.5001 46.475 45.3751 46.475H36.8501C36.6001 46.475 36.3501 46.325 36.2501 46.075C36.1501 45.825 36.2001 45.55 36.4001 45.375L48.1251 33.65ZM45.3751 45.175C46.7751 45.175 47.9251 44.025 47.9251 42.625V35.625L38.3751 45.175H45.3751Z" fill="#3A5C91"/>
<path d="M59.6 63.65L48.75 54.425L44.85 59.025L60.275 72.15L84 45.025L79.4 41.125L59.6 63.65Z" fill="#89D9A2"/>
<path d="M80.225 40.15C79.975 39.95 79.7 39.85 79.4 39.85C79.05 39.85 78.7 40 78.45 40.275L59.475 61.85L49.6 53.45C49.375 53.25 49.075 53.15 48.775 53.15C48.75 53.15 48.7 53.15 48.675 53.15C48.325 53.175 48.025 53.35 47.8 53.6L43.9 58.2C43.45 58.75 43.5 59.55 44.05 60L59.475 73.125C59.725 73.325 60 73.425 60.3 73.425C60.65 73.425 61 73.275 61.275 72.975L84.975 45.85C85.2 45.6 85.325 45.25 85.3 44.925C85.275 44.575 85.125 44.275 84.85 44.05L80.225 40.15ZM60.275 72.15L44.85 59.025L48.75 54.425L59.6 63.65L79.4 41.125L84 45.025L60.275 72.15Z" fill="#3A5C91"/>
<path d="M102.675 103.625H20.9751C20.6251 103.625 20.3251 103.9 20.3251 104.275C20.3251 104.625 20.6001 104.925 20.9751 104.925H102.675C103.025 104.925 103.325 104.65 103.325 104.275C103.3 103.9 103.025 103.625 102.675 103.625Z" fill="#3A5C91"/>
</svg>
