<svg width="128" height="128" viewBox="0 0 128 128" fill="none" xmlns="http://www.w3.org/2000/svg">
<path d="M128 0H0V128H128V0Z" fill="white"/>
<path d="M121.812 76.9388C120.437 73.1575 116.25 71.22 112.469 72.595L99.8436 77.22C96.0623 78.595 91.8748 76.6575 90.4998 72.8763L89.7811 70.9388C88.4061 67.1575 90.3436 62.97 94.1248 61.595L106.75 56.97C110.531 55.595 112.469 51.4075 111.094 47.6263L110.312 45.5013C108.937 41.72 104.75 39.7825 100.969 41.1575L98.4061 42.095C94.6248 43.47 90.4373 41.5325 89.0623 37.7513L88.4373 36.0325C87.0623 32.2513 88.9998 28.0638 92.7811 26.6888L115.656 18.3138C119.437 16.9388 121.375 12.7513 120 8.97004L119.281 7.03254C117.906 3.25129 113.719 1.31378 109.937 2.68878L8.81232 39.6575C5.03107 41.0325 3.09356 45.22 4.46856 49.0013L5.18729 50.9388C6.56229 54.72 10.7498 56.6575 14.531 55.2825L17.7498 54.095C21.5311 52.72 25.7186 54.6575 27.0936 58.4388L27.7186 60.1575C29.0936 63.9388 27.1561 68.1263 23.3748 69.5013L20.156 70.6888C16.3748 72.0638 14.4373 76.2513 15.8123 80.0325L16.5935 82.1575C17.9685 85.9388 22.156 87.8763 25.9373 86.5013L42.4061 80.47C46.1873 79.095 50.3748 81.0325 51.7498 84.8138L52.4686 86.7513C53.8436 90.5325 51.9061 94.72 48.1248 96.095L11.7811 109.376C7.99982 110.751 6.06231 114.939 7.43731 118.72L8.21856 120.845C9.59356 124.626 13.7811 126.564 17.5623 125.189L118.25 88.4388C122.031 87.0638 123.969 82.8763 122.594 79.095L121.812 76.9388Z" fill="#EAF4FE"/>
<path fill-rule="evenodd" clip-rule="evenodd" d="M105.393 110.908C104.964 110.908 104.617 111.255 104.617 111.684V118.204C104.617 118.634 104.964 118.981 105.393 118.981C105.822 118.981 106.169 118.634 106.169 118.204V111.684C106.169 111.255 105.822 110.908 105.393 110.908Z" fill="#C1C1C1"/>
<path fill-rule="evenodd" clip-rule="evenodd" d="M108.653 114.168H102.443C102.014 114.168 101.667 114.516 101.667 114.944C101.667 115.373 102.014 115.721 102.443 115.721H108.653C109.082 115.721 109.429 115.373 109.429 114.944C109.429 114.516 109.082 114.168 108.653 114.168Z" fill="#C1C1C1"/>
<path fill-rule="evenodd" clip-rule="evenodd" d="M91.4789 18.8932C91.0501 18.8932 90.7029 19.2404 90.7029 19.6692V25.8795C90.7029 26.3083 91.0501 26.6555 91.4789 26.6555C91.9077 26.6555 92.2554 26.3083 92.2554 25.8795V19.6692C92.2554 19.2404 91.9077 18.8932 91.4789 18.8932Z" fill="#FE9595"/>
<path fill-rule="evenodd" clip-rule="evenodd" d="M94.7397 21.8428H88.5294C88.1002 21.8428 87.7529 22.19 87.7529 22.6188C87.7529 23.048 88.1002 23.3952 88.5294 23.3952H94.7397C95.1684 23.3952 95.5157 23.048 95.5157 22.6188C95.5157 22.19 95.1684 21.8428 94.7397 21.8428Z" fill="#FE9595"/>
<path fill-rule="evenodd" clip-rule="evenodd" d="M15.3018 26.1294C14.3577 23.5059 13.217 22.3647 10.5935 21.421C13.217 20.4778 14.3577 19.3371 15.3018 16.7131C16.2455 19.3366 17.3862 20.4778 20.0098 21.421C17.3858 22.3652 16.2455 23.5054 15.3018 26.1294ZM22.2674 20.8225C17.9309 19.6253 17.098 18.7924 15.9 14.4555C15.8257 14.1864 15.5807 14 15.3018 14C15.0225 14 14.7776 14.1864 14.7033 14.4555C13.5057 18.7924 12.6724 19.6257 8.33588 20.8225C8.06674 20.8968 7.88037 21.1421 7.88037 21.421C7.88037 21.7004 8.06674 21.9457 8.33588 22.0196C12.6724 23.2172 13.5057 24.0505 14.7033 28.387C14.7776 28.6561 15.0225 28.8429 15.3018 28.8429C15.5807 28.8429 15.8257 28.6561 15.9 28.387C17.098 24.0505 17.9309 23.2176 22.2674 22.0196C22.5369 21.9457 22.7229 21.7004 22.7229 21.421C22.7229 21.1421 22.5369 20.8968 22.2674 20.8225Z" fill="#FFD599"/>
<path d="M40.9336 46.1813L31.0343 45.2689C29.9409 45.1681 28.9675 46.0293 28.8604 47.1923L27.8899 57.7218C27.7827 58.8848 28.5822 59.9094 29.6757 60.0101L39.575 60.9225L49.2762 61.8167C47.9161 66.5383 43.5878 69.7875 38.7986 69.3461L28.8993 68.4337C23.4321 67.9298 19.4345 62.8071 19.9705 56.9919L20.9409 46.4624C21.4769 40.6472 26.3434 36.3415 31.8107 36.8454L41.71 37.7577C46.4992 38.1991 50.1606 42.1847 50.6349 47.0754L40.9336 46.1813Z" fill="#E3E3E3"/>
<path d="M41.4624 44.5952L31.5631 43.6829C30.4697 43.5821 29.4964 44.4432 29.3892 45.6063L28.4187 56.1357C28.3115 57.2988 29.111 58.3233 30.2045 58.4241L40.1038 59.3365L49.805 60.2306C48.4449 64.9522 44.1166 68.2014 39.3274 67.76L29.4281 66.8476C23.9609 66.3438 19.9633 61.2211 20.4993 55.4058L21.4697 44.8764C22.0057 39.0611 26.8723 34.7554 32.3395 35.2593L42.2388 36.1717C47.028 36.6131 50.6894 40.5987 51.1637 45.4894L41.4624 44.5952Z" fill="#E0F5FF"/>
<mask id="mask0" mask-type="alpha" maskUnits="userSpaceOnUse" x="20" y="35" width="32" height="33">
<path d="M41.5542 43.5995L31.6549 42.6871C29.9545 42.5304 28.5458 43.8603 28.3934 45.5145L27.4229 56.0439C27.2705 57.6982 28.4123 59.2631 30.1127 59.4199L40.012 60.3322L48.4341 61.1085C46.876 64.7703 43.2868 67.1207 39.4192 66.7642L29.5199 65.8519C24.6596 65.4039 21.0043 60.8217 21.495 55.4976L22.4655 44.9681C22.9562 39.6441 27.3874 35.8071 32.2477 36.2551L42.147 37.1675C46.0146 37.5239 49.1138 40.4908 49.9763 44.3757L41.5542 43.5995Z" fill="#E0F5FF" stroke="#3A5C91" stroke-width="2"/>
</mask>
<g mask="url(#mask0)">
<path d="M41.4623 47.2388L31.563 46.3264C30.4695 46.2256 29.4962 47.0868 29.389 48.2498L28.4186 58.7793C28.3114 59.9423 29.1109 60.9669 30.2043 61.0676L40.1036 61.98L49.8049 62.8742C48.4447 67.5958 44.1165 70.845 39.3273 70.4036L29.428 69.4912C23.9608 68.9873 19.9632 63.8646 20.4991 58.0494L21.4696 47.5199C22.0056 41.7047 26.8721 37.399 32.3394 37.9029L42.2387 38.8152C47.0279 39.2566 50.6893 43.2422 51.1636 48.1329L41.4623 47.2388Z" fill="#A4E4FF"/>
</g>
<path fill-rule="evenodd" clip-rule="evenodd" d="M31.6602 42.6299L49.9029 44.3113C49.0218 40.4861 45.9563 37.5762 42.1417 37.2246L32.2424 36.3122C27.417 35.8675 23.0108 39.6775 22.5227 44.9734L21.5522 55.5029C21.0641 60.7987 24.6997 65.35 29.5251 65.7947L39.4244 66.7071C43.239 67.0587 46.7847 64.7581 48.3502 61.1584L30.1074 59.477C28.3722 59.3171 27.2107 57.7211 27.3658 56.0387L28.3362 45.5092C28.4913 43.8268 29.9249 42.47 31.6602 42.6299ZM49.805 60.2306C49.7037 60.5822 49.586 60.9257 49.4528 61.26C47.7977 65.4157 43.7599 68.1686 39.3274 67.76L29.4281 66.8476C23.9609 66.3438 19.9633 61.2211 20.4993 55.4058L21.4697 44.8764C22.0057 39.0611 26.8723 34.7554 32.3395 35.2593L42.2388 36.1717C46.6713 36.5802 50.1379 40.0247 51.0056 44.4129C51.0754 44.766 51.1284 45.1252 51.1637 45.4894L31.5631 43.6829C30.4697 43.5821 29.4964 44.4432 29.3892 45.6063L28.4187 56.1357C28.3115 57.2988 29.111 58.3233 30.2045 58.4241L49.805 60.2306Z" fill="#3A5C91"/>
<path d="M79.5614 86.1034L85.9161 93.7484C86.618 94.5928 87.9152 94.6722 88.8134 93.9255L96.9451 87.1663C97.8433 86.4197 98.0024 85.1299 97.3005 84.2855L90.9457 76.6405L84.7182 69.1484C89.0186 66.7715 94.3767 67.5345 97.4511 71.2331L103.806 78.8781C107.315 83.1003 106.52 89.5493 102.029 93.2823L93.8972 100.042C89.4062 103.775 82.9204 103.378 79.4108 99.1558L73.0561 91.5108C69.9817 87.8122 70.2109 82.4049 73.3338 78.6113L79.5614 86.1034Z" fill="#E3E3E3"/>
<path d="M80.7095 85.2648L87.0643 92.9098C87.7662 93.7542 89.0633 93.8335 89.9615 93.0869L98.0932 86.3277C98.9914 85.5811 99.1505 84.2913 98.4486 83.4469L92.0939 75.8018L85.8663 68.3098C90.1668 65.9329 95.5249 66.6959 98.5992 70.3945L104.954 78.0395C108.464 82.2617 107.668 88.7107 103.177 92.4437L95.0453 99.2029C90.5543 102.936 84.0685 102.539 80.5589 98.3171L74.2042 90.6721C71.1299 86.9735 71.3591 81.5663 74.482 77.7727L80.7095 85.2648Z" fill="#E0F5FF"/>
<mask id="mask1" mask-type="alpha" maskUnits="userSpaceOnUse" x="72" y="66" width="36" height="36">
<path d="M79.9406 85.9039L86.2953 93.5489C87.3868 94.8621 89.3233 94.9177 90.6008 93.8558L98.7325 87.0966C100.01 86.0347 100.309 84.1207 99.2177 82.8075L92.863 75.1625L87.4565 68.6583C91.1475 67.1707 95.3475 68.0467 97.8302 71.0336L104.185 78.6786C107.305 82.4321 106.649 88.2568 102.538 91.6746L94.4061 98.4338C90.2945 101.852 84.448 101.431 81.328 97.6778L74.9733 90.0328C72.4905 87.0459 72.397 82.7566 74.5341 79.3996L79.9406 85.9039Z" fill="#E0F5FF" stroke="#3A5C91" stroke-width="2"/>
</mask>
<g mask="url(#mask1)">
<path d="M82.579 83.3955L88.9337 91.0405C89.6356 91.885 90.9328 91.9643 91.831 91.2177L99.9626 84.4584C100.861 83.7118 101.02 82.422 100.318 81.5776L93.9633 73.9326L87.7357 66.4405C92.0362 64.0636 97.3943 64.8266 100.469 68.5252L106.823 76.1702C110.333 80.3924 109.537 86.8414 105.046 90.5744L96.9147 97.3337C92.4237 101.067 85.938 100.67 82.4284 96.4479L76.0737 88.8029C72.9993 85.1043 73.2285 79.697 76.3514 75.9034L82.579 83.3955Z" fill="#A4E4FF"/>
</g>
<path fill-rule="evenodd" clip-rule="evenodd" d="M86.2511 93.5857L74.5404 79.4972C72.4587 82.8251 72.5687 87.0503 75.0174 89.9962L81.3721 97.6412C84.4697 101.368 90.2795 101.789 94.3694 98.3898L102.501 91.6305C106.591 88.2309 107.238 82.442 104.141 78.7154L97.786 71.0704C95.3373 68.1245 91.2034 67.244 87.5511 68.6825L99.2617 82.7709C100.376 84.111 100.068 86.0609 98.7691 87.1409L90.6375 93.9001C89.3382 94.9801 87.365 94.9258 86.2511 93.5857ZM85.8663 68.3098C86.1865 68.1328 86.5127 67.9732 86.8433 67.8309C90.9521 66.0628 95.7538 66.9713 98.5992 70.3945L104.954 78.0395C108.464 82.2617 107.668 88.7107 103.177 92.4437L95.0453 99.2029C90.5543 102.936 84.0685 102.539 80.5589 98.3171L74.2042 90.6721C71.3588 87.249 71.3433 82.3621 73.8326 78.6457C74.0329 78.3466 74.2494 78.0552 74.482 77.7727L87.0643 92.9098C87.7662 93.7542 89.0633 93.8335 89.9615 93.0869L98.0932 86.3277C98.9914 85.5811 99.1505 84.2913 98.4486 83.4469L85.8663 68.3098Z" fill="#3A5C91"/>
<path d="M61.2806 52.9748C63.0026 51.4312 65.6499 51.5759 67.1934 53.2979L86.186 74.4864C87.7296 76.2084 87.5849 78.8557 85.8629 80.3993C84.1409 81.9428 81.4936 81.7981 79.95 80.0761L60.9574 58.8877C59.4139 57.1656 59.5585 54.5184 61.2806 52.9748Z" fill="#E3E3E3"/>
<path d="M62.365 52.5046C64.0871 50.961 66.7343 51.1057 68.2779 52.8277L87.2705 74.0162C88.8141 75.7382 88.6694 78.3855 86.9474 79.929C85.2253 81.4726 82.5781 81.3279 81.0345 79.6059L62.0419 58.4175C60.4983 56.6954 60.643 54.0481 62.365 52.5046Z" fill="#E0F5FF"/>
<mask id="mask2" mask-type="alpha" maskUnits="userSpaceOnUse" x="60" y="51" width="29" height="30">
<path d="M62.365 52.5046C64.087 50.961 66.7343 51.1057 68.2778 52.8277L87.2704 74.0162C88.814 75.7382 88.6693 78.3855 86.9473 79.929C85.2253 81.4726 82.578 81.3279 81.0344 79.6059L62.0418 58.4175C60.4983 56.6954 60.6429 54.0481 62.365 52.5046Z" fill="#E0F5FF"/>
</mask>
<g mask="url(#mask2)">
<path d="M60.6659 54.5297C62.388 52.9862 65.0352 53.1308 66.5788 54.8529L85.5714 76.0413C87.115 77.7633 86.9703 80.4106 85.2483 81.9542C83.5263 83.4977 80.879 83.3531 79.3354 81.6311L60.3428 60.4426C58.7992 58.7206 58.9439 56.0733 60.6659 54.5297Z" fill="#A4E4FF"/>
</g>
<path fill-rule="evenodd" clip-rule="evenodd" d="M86.4831 74.722L67.4905 53.5335C66.3367 52.2463 64.358 52.1382 63.0708 53.292C61.7837 54.4457 61.6755 56.4245 62.8293 57.7117L81.8219 78.9001C82.9757 80.1873 84.9544 80.2954 86.2416 79.1417C87.5287 77.9879 87.6369 76.0091 86.4831 74.722ZM68.2779 52.8277C66.7343 51.1057 64.0871 50.961 62.365 52.5046C60.643 54.0481 60.4983 56.6954 62.0419 58.4175L81.0345 79.6059C82.5781 81.3279 85.2253 81.4726 86.9474 79.929C88.6694 78.3855 88.8141 75.7382 87.2705 74.0162L68.2779 52.8277Z" fill="#3A5C91"/>
<rect x="48.257" y="25.6398" width="2.64352" height="13.7109" rx="1.32176" transform="rotate(-22.7179 48.257 25.6398)" fill="#FF7575"/>
<rect x="59.7327" y="26.8622" width="2.64" height="10" rx="1.32" transform="rotate(8.26598 59.7327 26.8622)" fill="#FF7575"/>
<rect x="73.6406" y="29.4912" width="2.64352" height="15.5417" rx="1.32176" transform="rotate(53.3584 73.6406 29.4912)" fill="#FF7575"/>
</svg>
