<svg width="116" height="42" viewBox="0 0 116 42" fill="none" xmlns="http://www.w3.org/2000/svg">
<g filter="url(#filter0_d)">
<path d="M111 6.14214C110.771 1.78075 107.516 1.95135 101.402 2.2718C99.2163 2.38633 100.425 2.32298 100.425 2.32298L40.984 4.21854L4.27939 6.14214C2.4741 6.23675 1.0843 7.72871 1.17576 9.47394L1.95785 24.397C1.95981 24.4344 1.96511 24.4683 1.97396 24.5019C2.00255 24.6437 2.07004 24.7869 2.1581 24.9187C2.31577 25.1662 2.52829 25.3837 2.63254 25.4874C2.67337 25.5262 2.69927 25.5487 2.69927 25.5487L13.9533 35.3583L13.9569 35.3581C13.9718 35.3744 13.9866 35.3872 14.0012 35.3967C14.1708 35.5346 14.3343 35.6249 14.4785 35.6822C14.7779 35.8063 14.996 35.7949 14.996 35.7949L42.5631 34.3502L108.967 32.0897C110.772 31.9951 112.162 30.5031 112.071 28.7579C112.071 28.7579 111.771 22.5033 111.449 16.3953C111.164 10.9945 110.988 6.84082 111 6.14214Z" fill="#54C342"/>
</g>
<path d="M15.0078 35.7841C14.8836 35.7723 14.6867 35.7366 14.4486 35.6388C14.2544 35.5616 14.034 35.4398 13.8055 35.2541C13.7859 35.2414 13.7659 35.224 13.7458 35.2021L13.741 35.2024L2.94457 25.807C2.94457 25.807 2.90965 25.7767 2.85462 25.7244C2.71415 25.5847 2.3586 25.2298 2.14617 24.8962C2.0275 24.7185 1.97762 24.596 1.96716 24.3965C2.05537 24.7182 2.36709 24.9501 2.72275 24.9315L9.45159 24.5788C11.8889 24.4511 13.9616 26.2547 14.0848 28.6064L14.4284 35.2537C14.4763 35.5316 14.7204 35.744 15.0078 35.7841Z" fill="#82DD73"/>
<path d="M22.5785 16.7468L18.2706 16.9725L18.8847 28.6888L15.987 28.8407L15.3729 17.1244L11.123 17.3471L11 15L22.4555 14.3996L22.5785 16.7468Z" fill="white"/>
<path d="M35.6074 27.8124L32.7097 27.9643L32.3938 21.9371L26.7433 22.2332L27.0592 28.2604L24.1615 28.4123L23.4245 14.3489L26.3222 14.197L26.6208 19.8958L32.2713 19.5996L31.9727 13.9009L34.8703 13.749L35.6074 27.8124Z" fill="white"/>
<path d="M45.417 24.3927L40.3364 24.659L39.5223 27.6073L36.4411 27.7687L40.9393 13.431L43.6244 13.2902L49.6256 27.0778L46.5444 27.2392L45.417 24.3927ZM40.9957 22.2708L44.5116 22.0866L42.4681 16.9151L40.9957 22.2708Z" fill="white"/>
<path d="M53.3281 26.8837L50.4304 27.0356L49.6934 12.9722L52.591 12.8203L53.3281 26.8837Z" fill="white"/>
<path d="M58.1062 24.2991L64.259 23.9767L64.381 26.3045L55.3306 26.7788L54.5935 12.7154L57.4912 12.5635L58.1062 24.2991Z" fill="white"/>
<path d="M73.3406 22.9293L68.26 23.1955L67.446 26.1438L64.3648 26.3053L68.8629 11.9675L71.5481 11.8268L77.5492 25.6144L74.468 25.7758L73.3406 22.9293ZM68.9194 20.8074L72.4352 20.6232L70.3918 15.4517L68.9194 20.8074Z" fill="white"/>
<path d="M89.6067 24.9824L86.709 25.1343L80.5832 16.1767L81.0682 25.4299L78.1705 25.5818L77.4335 11.5184L80.3311 11.3665L86.4676 20.343L85.9816 11.0704L88.8697 10.919L89.6067 24.9824Z" fill="white"/>
<path d="M91.445 24.8861L90.7079 10.8227L95.0351 10.5959C96.2715 10.5311 97.3905 10.7533 98.3922 11.2626C99.4 11.7651 100.205 12.5171 100.806 13.5187C101.407 14.5139 101.742 15.6651 101.81 16.9722L101.844 17.6194C101.913 18.9266 101.703 20.103 101.215 21.1488C100.734 22.1942 100.019 23.0227 99.0696 23.6342C98.1202 24.2457 97.0307 24.5869 95.8012 24.6578L91.445 24.8861ZM93.7286 13.0179L94.2207 22.4064L95.6212 22.333C96.7545 22.2736 97.6012 21.858 98.1612 21.0861C98.7213 20.3142 98.9716 19.2389 98.9123 17.8602L98.8733 17.1165C98.7984 15.6869 98.4455 14.6207 97.8146 13.9176C97.1834 13.2082 96.2979 12.8833 95.1581 12.943L93.7286 13.0179Z" fill="white"/>
<defs>
<filter id="filter0_d" x="0.0101318" y="0.564453" width="115.34" height="41.0969" filterUnits="userSpaceOnUse" color-interpolation-filters="sRGB">
<feFlood flood-opacity="0" result="BackgroundImageFix"/>
<feColorMatrix in="SourceAlpha" type="matrix" values="0 0 0 0 0 0 0 0 0 0 0 0 0 0 0 0 0 0 127 0"/>
<feOffset dx="1" dy="2"/>
<feGaussianBlur stdDeviation="1"/>
<feColorMatrix type="matrix" values="0 0 0 0 0 0 0 0 0 0 0 0 0 0 0 0 0 0 0.25 0"/>
<feBlend mode="normal" in2="BackgroundImageFix" result="effect1_dropShadow"/>
<feBlend mode="normal" in="SourceGraphic" in2="effect1_dropShadow" result="shape"/>
</filter>
</defs>
</svg>
