<svg width="116" height="42" viewBox="0 0 116 42" fill="none" xmlns="http://www.w3.org/2000/svg">
<g filter="url(#filter0_d)">
<path d="M111 6.14214C110.771 1.78075 107.516 1.95135 101.402 2.2718C99.2163 2.38633 100.425 2.32298 100.425 2.32298L40.984 4.21854L4.27939 6.14214C2.4741 6.23675 1.0843 7.72871 1.17576 9.47394L1.95785 24.397C1.95981 24.4344 1.96511 24.4683 1.97396 24.5019C2.00255 24.6437 2.07004 24.7869 2.1581 24.9187C2.31577 25.1662 2.52829 25.3837 2.63254 25.4874C2.67337 25.5262 2.69927 25.5487 2.69927 25.5487L13.9533 35.3583L13.9569 35.3581C13.9718 35.3744 13.9866 35.3872 14.0012 35.3967C14.1708 35.5346 14.3343 35.6249 14.4785 35.6822C14.7779 35.8063 14.996 35.7949 14.996 35.7949L42.5631 34.3502L108.967 32.0897C110.772 31.9951 112.162 30.5031 112.071 28.7579C112.071 28.7579 111.771 22.5033 111.449 16.3953C111.164 10.9945 110.988 6.84082 111 6.14214Z" fill="#54C342"/>
</g>
<path d="M15.0078 35.7841C14.8836 35.7723 14.6867 35.7366 14.4486 35.6388C14.2544 35.5616 14.034 35.4398 13.8055 35.2541C13.7859 35.2414 13.7659 35.224 13.7458 35.2021L13.741 35.2024L2.94457 25.807C2.94457 25.807 2.90965 25.7767 2.85462 25.7244C2.71415 25.5847 2.3586 25.2298 2.14617 24.8962C2.0275 24.7185 1.97762 24.596 1.96716 24.3965C2.05537 24.7182 2.36709 24.9501 2.72275 24.9315L9.45159 24.5788C11.8889 24.4511 13.9616 26.2547 14.0848 28.6064L14.4284 35.2537C14.4763 35.5316 14.7204 35.744 15.0078 35.7841Z" fill="#82DD73"/>
<path d="M22.9389 24.5168L25.572 13.7733L28.7981 13.6042L24.6381 27.9243L21.6148 28.0827L16 14.2749L19.2164 14.1063L22.9389 24.5168Z" fill="white"/>
<path d="M33.2569 27.4726L30.3592 27.6244L29.6222 13.561L32.5199 13.4091L33.2569 27.4726Z" fill="white"/>
<path d="M43.4012 20.8294L37.8377 21.121L38.0351 24.8879L44.5645 24.5457L44.6865 26.8736L35.2594 27.3676L34.5224 13.3042L43.9302 12.8111L44.0532 15.1583L37.5431 15.4994L37.7187 18.8511L43.2823 18.5595L43.4012 20.8294Z" fill="white"/>
<path d="M55.8595 14.5395L51.5516 14.7653L52.1657 26.4816L49.268 26.6335L48.654 14.9172L44.404 15.1399L44.281 12.7928L55.7365 12.1924L55.8595 14.5395Z" fill="white"/>
<path d="M68.8787 25.6057L65.981 25.7576L59.8553 16.7999L60.3402 26.0532L57.4425 26.205L56.7055 12.1416L59.6032 11.9898L65.7396 20.9662L65.2537 11.6936L68.1417 11.5423L68.8787 25.6057Z" fill="white"/>
<path d="M78.6787 22.1865L73.5981 22.4527L72.784 25.401L69.7028 25.5625L74.2009 11.2247L76.8861 11.084L82.8873 24.8715L79.8061 25.033L78.6787 22.1865ZM74.2574 20.0646L77.7733 19.8803L75.7298 14.7089L74.2574 20.0646Z" fill="white"/>
<path d="M86.5578 10.5771L90.7048 20.5876L93.7634 10.1995L97.569 10.0001L98.3061 24.0635L95.3987 24.2158L95.1972 20.3716L95.1393 13.7207L91.8925 24.3996L89.9028 24.5039L85.5677 14.232L86.2048 20.8429L86.4062 24.6871L83.5085 24.839L82.7715 10.7756L86.5578 10.5771Z" fill="white"/>
<defs>
<filter id="filter0_d" x="0.0101318" y="0.564453" width="115.34" height="41.0969" filterUnits="userSpaceOnUse" color-interpolation-filters="sRGB">
<feFlood flood-opacity="0" result="BackgroundImageFix"/>
<feColorMatrix in="SourceAlpha" type="matrix" values="0 0 0 0 0 0 0 0 0 0 0 0 0 0 0 0 0 0 127 0"/>
<feOffset dx="1" dy="2"/>
<feGaussianBlur stdDeviation="1"/>
<feColorMatrix type="matrix" values="0 0 0 0 0 0 0 0 0 0 0 0 0 0 0 0 0 0 0.25 0"/>
<feBlend mode="normal" in2="BackgroundImageFix" result="effect1_dropShadow"/>
<feBlend mode="normal" in="SourceGraphic" in2="effect1_dropShadow" result="shape"/>
</filter>
</defs>
</svg>
