<svg width="113" height="40" viewBox="0 0 113 40" fill="none" xmlns="http://www.w3.org/2000/svg">
<g filter="url(#filter0_d)">
<path d="M81.3007 5.479C81.0721 1.11761 77.8169 1.2882 71.7024 1.60865C69.517 1.72318 70.7258 1.65983 70.7258 1.65983L40.984 3.21854L4.27939 5.14214C2.4741 5.23675 1.0843 6.72871 1.17576 8.47394L1.95785 23.397C1.95981 23.4344 1.96511 23.4683 1.97396 23.5019C2.00255 23.6437 2.07004 23.7868 2.1581 23.9187C2.31577 24.1662 2.52829 24.3837 2.63254 24.4874C2.67337 24.5262 2.69927 24.5487 2.69927 24.5487L13.9533 34.3583L13.9569 34.3581C13.9718 34.3744 13.9866 34.3872 14.0012 34.3967C14.1708 34.5345 14.3343 34.6249 14.4785 34.6822C14.7779 34.8063 14.996 34.7949 14.996 34.7949L42.5631 33.3502L79.2676 31.4266C81.0729 31.332 82.4627 29.84 82.3713 28.0948C82.3713 28.0948 82.0719 21.8402 81.7498 15.7322C81.465 10.3313 81.2887 6.17768 81.3007 5.479Z" fill="#54C342"/>
</g>
<path d="M11.7085 26.9545L10.9817 13.0869L15.8391 12.8323C17.5218 12.7442 18.815 13.0011 19.7189 13.6032C20.6224 14.1989 21.1068 15.119 21.172 16.3635C21.2076 17.043 21.0644 17.6521 20.7425 18.1911C20.4202 18.7237 19.9543 19.127 19.3446 19.4009C20.0651 19.5414 20.6427 19.8709 21.0773 20.3893C21.5184 20.9074 21.7593 21.5569 21.8003 22.3379C21.8701 23.6714 21.4976 24.7033 20.6827 25.4336C19.8678 26.164 18.6733 26.5767 17.0993 26.672L11.7085 26.9545ZM14.2493 20.7663L14.4455 24.5094L16.8933 24.3811C17.5663 24.3458 18.0819 24.1596 18.4398 23.8225C18.8038 23.4787 18.971 23.0242 18.9414 22.4591C18.8749 21.1892 18.1839 20.5791 16.8685 20.629L14.2493 20.7663ZM14.1435 18.7471L16.2579 18.6363C17.698 18.5353 18.3885 17.9229 18.3296 16.799C18.2967 16.1704 18.0889 15.7292 17.7063 15.4755C17.3298 15.2151 16.7478 15.1055 15.9604 15.1468L13.9603 15.2516L14.1435 18.7471Z" fill="white"/>
<path d="M28.3513 20.9918L26.075 21.1111L26.341 26.1876L23.4837 26.3374L22.7569 12.4698L27.9097 12.1998C29.5479 12.1139 30.8306 12.4128 31.7578 13.0964C32.685 13.78 33.1835 14.7885 33.2534 16.122C33.303 17.0681 33.1381 17.8694 32.7586 18.526C32.3852 19.1759 31.7924 19.71 30.9802 20.1282L34.2774 25.638L34.2844 25.7713L31.2175 25.9321L28.3513 20.9918ZM25.9537 18.7967L28.2586 18.6759C28.9761 18.6383 29.5222 18.4282 29.8969 18.0456C30.2713 17.6567 30.4417 17.1416 30.4081 16.5003C30.3738 15.8463 30.1595 15.3418 29.7653 14.9868C29.3774 14.6315 28.7993 14.4739 28.0309 14.5142L25.7356 14.6345L25.9537 18.7967Z" fill="white"/>
<path d="M42.9383 22.4526L37.9284 22.7152L37.1257 25.6224L34.0874 25.7817L38.5229 11.6435L41.1707 11.5048L47.0883 25.1003L44.05 25.2595L42.9383 22.4526ZM38.5786 20.3603L42.0455 20.1786L40.0305 15.0791L38.5786 20.3603Z" fill="white"/>
<path d="M50.6094 22.6141L57.6003 22.2477L57.7206 24.5431L47.158 25.0967L47.0702 23.4204L53.4101 13.1841L46.5621 13.543L46.4408 11.2286L56.8414 10.6835L56.9273 12.3217L50.6094 22.6141Z" fill="white"/>
<path d="M61.8858 24.3248L59.0285 24.4745L58.3017 10.607L61.1591 10.4572L61.8858 24.3248Z" fill="white"/>
<path d="M66.5975 21.7762L72.6645 21.4582L72.7848 23.7536L63.8604 24.2213L63.1337 10.3537L65.991 10.204L66.5975 21.7762Z" fill="white"/>
<path d="M15.0078 34.7841C14.8836 34.7723 14.6867 34.7366 14.4486 34.6388C14.2544 34.5616 14.034 34.4398 13.8055 34.2541C13.7859 34.2414 13.7659 34.224 13.7458 34.2021L13.741 34.2024L2.94457 24.807C2.94457 24.807 2.90965 24.7767 2.85462 24.7244C2.71415 24.5847 2.3586 24.2298 2.14617 23.8962C2.0275 23.7185 1.97762 23.596 1.96716 23.3965C2.05537 23.7182 2.36709 23.9501 2.72275 23.9315L9.45159 23.5788C11.8889 23.4511 13.9616 25.2547 14.0848 27.6064L14.4284 34.2537C14.4763 34.5316 14.7204 34.744 15.0078 34.7841Z" fill="#82DD73"/>
<defs>
<filter id="filter0_d" x="0.0101318" y="1.11768" width="85.6411" height="38.3275" filterUnits="userSpaceOnUse" color-interpolation-filters="sRGB">
<feFlood flood-opacity="0" result="BackgroundImageFix"/>
<feColorMatrix in="SourceAlpha" type="matrix" values="0 0 0 0 0 0 0 0 0 0 0 0 0 0 0 0 0 0 127 0"/>
<feOffset dx="1" dy="2"/>
<feGaussianBlur stdDeviation="1"/>
<feColorMatrix type="matrix" values="0 0 0 0 0 0 0 0 0 0 0 0 0 0 0 0 0 0 0.25 0"/>
<feBlend mode="normal" in2="BackgroundImageFix" result="effect1_dropShadow"/>
<feBlend mode="normal" in="SourceGraphic" in2="effect1_dropShadow" result="shape"/>
</filter>
</defs>
</svg>
