<svg width="116" height="42" viewBox="0 0 116 42" fill="none" xmlns="http://www.w3.org/2000/svg">
<g filter="url(#filter0_d)">
<path d="M111 6.14214C110.771 1.78075 107.516 1.95135 101.402 2.2718C99.2163 2.38633 100.425 2.32298 100.425 2.32298L40.984 4.21854L4.27939 6.14214C2.4741 6.23675 1.0843 7.72871 1.17576 9.47394L1.95785 24.397C1.95981 24.4344 1.96511 24.4683 1.97396 24.5019C2.00255 24.6437 2.07004 24.7869 2.1581 24.9187C2.31577 25.1662 2.52829 25.3837 2.63254 25.4874C2.67337 25.5262 2.69927 25.5487 2.69927 25.5487L13.9533 35.3583L13.9569 35.3581C13.9718 35.3744 13.9866 35.3872 14.0012 35.3967C14.1708 35.5346 14.3343 35.6249 14.4785 35.6822C14.7779 35.8063 14.996 35.7949 14.996 35.7949L42.5631 34.3502L108.967 32.0897C110.772 31.9951 112.162 30.5031 112.071 28.7579C112.071 28.7579 111.771 22.5033 111.449 16.3953C111.164 10.9945 110.988 6.84082 111 6.14214Z" fill="#54C342"/>
</g>
<path d="M17.3471 27.5609L14.6861 27.7004L14.0093 14.7858L16.6703 14.6463L17.3471 27.5609Z" fill="white"/>
<path d="M29.688 26.9142L27.027 27.0536L21.4016 18.8277L21.847 27.3251L19.186 27.4645L18.5092 14.55L21.1701 14.4105L26.8053 22.6537L26.359 14.1386L29.0111 13.9996L29.688 26.9142Z" fill="white"/>
<path d="M31.3761 26.8257L30.6993 13.9111L34.673 13.7029C35.8083 13.6434 36.8359 13.8474 37.7558 14.3151C38.6813 14.7765 39.4201 15.4671 39.9723 16.3869C40.5242 17.3008 40.8316 18.3579 40.8945 19.5583L40.9257 20.1526C40.9886 21.353 40.7962 22.4333 40.3484 23.3937C39.9066 24.3537 39.2497 25.1145 38.3779 25.676C37.506 26.2376 36.5055 26.5509 35.3764 26.616L31.3761 26.8257ZM33.4732 15.927L33.925 24.5486L35.2112 24.4812C36.2519 24.4266 37.0294 24.0449 37.5437 23.3361C38.058 22.6273 38.2879 21.6398 38.2334 20.3737L38.1976 19.6908C38.1288 18.378 37.8047 17.3988 37.2254 16.7532C36.6457 16.1017 35.8326 15.8034 34.7859 15.8582L33.4732 15.927Z" fill="white"/>
<path d="M52.8403 19.5193C52.9069 20.7906 52.7407 21.9171 52.3415 22.8986C51.9422 23.8801 51.3364 24.653 50.524 25.2174C49.7175 25.7814 48.7732 26.0918 47.6911 26.1485C46.6208 26.2046 45.6523 25.9975 44.7857 25.527C43.919 25.0566 43.2301 24.3574 42.719 23.4295C42.2076 22.4958 41.9164 21.4081 41.8454 20.1667L41.8119 19.528C41.7453 18.2567 41.9144 17.1271 42.3192 16.1394C42.7296 15.1455 43.3382 14.3694 44.145 13.8113C44.9574 13.2469 45.9017 12.9365 46.9779 12.8801C48.0541 12.8237 49.0228 13.0338 49.8838 13.5105C50.7505 13.981 51.4369 14.6891 51.943 15.635C52.4547 16.5747 52.7438 17.6773 52.8101 18.9427L52.8403 19.5193ZM50.1132 19.0752C50.0422 17.721 49.7459 16.7048 49.2241 16.0266C48.7023 15.3483 47.992 15.0327 47.0932 15.0798C46.2003 15.1266 45.5297 15.5116 45.0814 16.2348C44.6328 16.9521 44.4407 17.982 44.5051 19.3246L44.5381 19.9544C44.6072 21.273 44.9033 22.2833 45.4263 22.9853C45.9493 23.6872 46.6661 24.0143 47.5767 23.9665C48.4696 23.9197 49.1373 23.5349 49.5797 22.812C50.0218 22.0833 50.2106 21.0476 50.1462 19.7049L50.1132 19.0752Z" fill="white"/>
<path d="M64.9632 25.0655L62.3022 25.2049L56.6769 16.979L57.1222 25.4764L54.4612 25.6158L53.7844 12.7013L56.4454 12.5618L62.0805 20.805L61.6343 12.2899L64.2864 12.1509L64.9632 25.0655Z" fill="white"/>
<path d="M74.128 18.9729L69.019 19.2406L69.2003 22.6999L75.1963 22.3856L75.3083 24.5233L66.6513 24.977L65.9745 12.0624L74.6138 11.6096L74.7267 13.765L68.7484 14.0783L68.9097 17.1562L74.0188 16.8884L74.128 18.9729Z" fill="white"/>
<path d="M82.7528 20.7355C82.7265 20.2329 82.529 19.8578 82.1602 19.6103C81.7912 19.3569 81.1377 19.1066 80.1997 18.8592C79.2614 18.606 78.5156 18.3486 77.9623 18.0871C76.4543 17.3715 75.6651 16.3426 75.5948 15.0003C75.5582 14.3026 75.7208 13.6714 76.0826 13.107C76.45 12.5363 76.9922 12.078 77.7093 11.732C78.4324 11.3858 79.2522 11.1887 80.1687 11.1406C81.0912 11.0923 81.922 11.2177 82.6611 11.517C83.3998 11.8103 83.9833 12.2512 84.4114 12.8395C84.8454 13.4274 85.0827 14.1088 85.1233 14.8834L82.4624 15.0229C82.4314 14.4315 82.2211 13.983 81.8315 13.6773C81.4416 13.3657 80.9096 13.2275 80.2355 13.2629C79.585 13.297 79.0867 13.4624 78.7406 13.7592C78.3941 14.0502 78.2327 14.4203 78.2562 14.8697C78.2782 15.2896 78.5066 15.6304 78.9413 15.8922C79.3819 16.1538 80.0197 16.3872 80.8547 16.5925C82.3924 16.9684 83.5248 17.4754 84.252 18.1132C84.9791 18.7511 85.3691 19.5726 85.4218 20.5779C85.4803 21.6955 85.1035 22.5958 84.2914 23.2787C83.479 23.9557 82.3573 24.3318 80.9262 24.4068C79.9328 24.4588 79.0186 24.3259 78.1837 24.0079C77.3485 23.6841 76.6984 23.2171 76.2336 22.607C75.7747 21.9966 75.5234 21.2745 75.4797 20.4407L78.1495 20.3008C78.2242 21.7259 79.1131 22.3938 80.8161 22.3046C81.4488 22.2714 81.9359 22.1184 82.2774 21.8456C82.6185 21.5668 82.777 21.1968 82.7528 20.7355Z" fill="white"/>
<path d="M89.6034 23.7741L86.9425 23.9136L86.2656 10.999L88.9266 10.8595L89.6034 23.7741Z" fill="white"/>
<path d="M98.7536 20.6263L94.088 20.8708L93.3405 23.5783L90.511 23.7266L94.6417 10.56L97.1075 10.4308L102.618 23.092L99.7889 23.2403L98.7536 20.6263ZM94.6935 18.6778L97.9222 18.5086L96.0456 13.7595L94.6935 18.6778Z" fill="white"/>
<path d="M15.0078 35.7841C14.8836 35.7723 14.6867 35.7366 14.4486 35.6388C14.2544 35.5616 14.034 35.4398 13.8055 35.2541C13.7859 35.2414 13.7659 35.224 13.7458 35.2021L13.741 35.2024L2.94457 25.807C2.94457 25.807 2.90965 25.7767 2.85462 25.7244C2.71415 25.5847 2.3586 25.2298 2.14617 24.8962C2.0275 24.7185 1.97762 24.596 1.96716 24.3965C2.05537 24.7182 2.36709 24.9501 2.72275 24.9315L9.45159 24.5788C11.8889 24.4511 13.9616 26.2547 14.0848 28.6064L14.4284 35.2537C14.4763 35.5316 14.7204 35.744 15.0078 35.7841Z" fill="#82DD73"/>
<path d="M1.96716 24.3965C2.03565 24.6061 2.19495 24.7854 2.4005 24.859C2.60343 24.946 2.82712 24.8959 3.04752 24.885L4.36981 24.7862L7.01556 24.6127L8.33866 24.5295C8.7824 24.5092 9.2152 24.4693 9.66798 24.4651C9.88572 24.4541 10.117 24.4827 10.3451 24.5026C10.5679 24.5446 10.7933 24.5755 11.0089 24.6476C11.4449 24.7708 11.864 24.9597 12.241 25.2133C12.6182 25.464 12.9681 25.7644 13.2472 26.1241C13.5295 26.48 13.7604 26.8762 13.9255 27.3001C14.0821 27.7272 14.1691 28.1771 14.1973 28.6287L14.2592 29.9529C14.3282 31.7191 14.4025 33.4851 14.4471 35.2527L14.4469 35.2505C14.4592 35.3174 14.4804 35.3818 14.512 35.4428C14.5466 35.502 14.5887 35.5562 14.6385 35.6042C14.6901 35.6503 14.7473 35.6891 14.8093 35.7209C14.8725 35.7504 14.9389 35.7707 15.0078 35.7841C14.9385 35.7738 14.8708 35.7564 14.8054 35.7294C14.7413 35.7001 14.6812 35.6632 14.6261 35.6182C14.5727 35.5712 14.5266 35.5172 14.4877 35.4568C14.4517 35.3946 14.4261 35.3277 14.41 35.2569L14.4099 35.2564L14.4097 35.2546C14.2719 33.4919 14.1637 31.7277 14.0502 29.9637L13.9753 28.6402C13.9443 28.2095 13.8587 27.7866 13.7076 27.3836C13.548 26.9844 13.3267 26.6121 13.0575 26.2781C12.7917 25.9398 12.4568 25.6625 12.1043 25.4201C11.7501 25.1771 11.3546 24.995 10.942 24.8748C10.7383 24.8043 10.5239 24.7739 10.3134 24.7318C10.1015 24.7126 9.8937 24.6819 9.66877 24.691C9.23783 24.6909 8.78894 24.7277 8.34991 24.7442L7.02537 24.7998L4.37596 24.9037L3.0506 24.9437C2.83484 24.9445 2.59983 24.9863 2.3892 24.8862C2.17952 24.8006 2.02559 24.6077 1.96716 24.3965Z" fill="#9FDD66"/>
<defs>
<filter id="filter0_d" x="0.0101318" y="0.564453" width="115.34" height="41.0969" filterUnits="userSpaceOnUse" color-interpolation-filters="sRGB">
<feFlood flood-opacity="0" result="BackgroundImageFix"/>
<feColorMatrix in="SourceAlpha" type="matrix" values="0 0 0 0 0 0 0 0 0 0 0 0 0 0 0 0 0 0 127 0"/>
<feOffset dx="1" dy="2"/>
<feGaussianBlur stdDeviation="1"/>
<feColorMatrix type="matrix" values="0 0 0 0 0 0 0 0 0 0 0 0 0 0 0 0 0 0 0.25 0"/>
<feBlend mode="normal" in2="BackgroundImageFix" result="effect1_dropShadow"/>
<feBlend mode="normal" in="SourceGraphic" in2="effect1_dropShadow" result="shape"/>
</filter>
</defs>
</svg>
