<svg width="116" height="42" viewBox="0 0 116 42" fill="none" xmlns="http://www.w3.org/2000/svg">
<g filter="url(#filter0_d)">
<path d="M111 6.14214C110.771 1.78075 107.516 1.95135 101.402 2.2718C99.2163 2.38633 100.425 2.32298 100.425 2.32298L40.984 4.21854L4.27939 6.14214C2.4741 6.23675 1.0843 7.72871 1.17576 9.47394L1.95785 24.397C1.95981 24.4344 1.96511 24.4683 1.97396 24.5019C2.00255 24.6437 2.07004 24.7869 2.1581 24.9187C2.31577 25.1662 2.52829 25.3837 2.63254 25.4874C2.67337 25.5262 2.69927 25.5487 2.69927 25.5487L13.9533 35.3583L13.9569 35.3581C13.9718 35.3744 13.9866 35.3872 14.0012 35.3967C14.1708 35.5346 14.3343 35.6249 14.4785 35.6822C14.7779 35.8063 14.996 35.7949 14.996 35.7949L42.5631 34.3502L108.967 32.0897C110.772 31.9951 112.162 30.5031 112.071 28.7579C112.071 28.7579 111.771 22.5033 111.449 16.3953C111.164 10.9945 110.988 6.84082 111 6.14214Z" fill="#54C342"/>
</g>
<path d="M14.7964 13.9947L18.9434 24.0053L22.002 13.6171L25.8076 13.4177L26.5447 27.4811L23.6373 27.6335L23.4358 23.7892L23.3779 17.1383L20.1311 27.8172L18.1414 27.9215L13.8063 17.6496L14.4434 24.2605L14.6448 28.1047L11.7472 28.2566L11.0101 14.1932L14.7964 13.9947Z" fill="white"/>
<path d="M36.3446 24.0619L31.264 24.3281L30.45 27.2764L27.3688 27.4379L31.8669 13.1001L34.5521 12.9594L40.5532 26.7469L37.472 26.9084L36.3446 24.0619ZM31.9234 21.94L35.4392 21.7557L33.3958 16.5843L31.9234 21.94Z" fill="white"/>
<path d="M43.9502 24.2347L50.1029 23.9123L50.2249 26.2401L41.1745 26.7144L40.4375 12.651L43.3351 12.4991L43.9502 24.2347Z" fill="white"/>
<path d="M59.1845 22.8649L54.1039 23.1311L53.2899 26.0794L50.2087 26.2409L54.7068 11.9031L57.392 11.7624L63.3932 25.55L60.312 25.7114L59.1845 22.8649ZM54.7633 20.743L58.2792 20.5588L56.2357 15.3873L54.7633 20.743Z" fill="white"/>
<path d="M67.0094 17.6121L69.604 11.1224L72.7721 10.9564L68.6249 20.1618L68.8922 25.2618L65.9462 25.4162L65.6789 20.3162L60.5922 11.5947L63.77 11.4282L67.0094 17.6121Z" fill="white"/>
<path d="M81.046 20.925C81.0173 20.3776 80.8022 19.9692 80.4007 19.6997C79.9988 19.4237 79.2872 19.1511 78.2658 18.8817C77.244 18.606 76.4319 18.3257 75.8294 18.0409C74.1872 17.2617 73.3278 16.1413 73.2512 14.6795C73.2114 13.9197 73.3885 13.2324 73.7824 12.6178C74.1825 11.9963 74.773 11.4972 75.5539 11.1205C76.3412 10.7435 77.234 10.5288 78.2321 10.4765C79.2366 10.4239 80.1413 10.5605 80.9461 10.8864C81.7506 11.2058 82.3859 11.6858 82.8521 12.3265C83.3248 12.9668 83.5832 13.7087 83.6274 14.5522L80.7297 14.7041C80.696 14.0602 80.467 13.5717 80.0427 13.2388C79.6182 12.8995 79.0388 12.7491 78.3047 12.7875C77.5964 12.8247 77.0538 13.0048 76.6769 13.3281C76.2996 13.6449 76.1238 14.048 76.1494 14.5373C76.1734 14.9945 76.4221 15.3657 76.8954 15.6508C77.3753 15.9356 78.0698 16.1898 78.979 16.4133C80.6535 16.8227 81.8866 17.3748 82.6785 18.0694C83.4704 18.7639 83.895 19.6586 83.9524 20.7533C84.0162 21.9703 83.6059 22.9507 82.7215 23.6944C81.8368 24.4316 80.6153 24.8411 79.0569 24.9228C77.9751 24.9795 76.9796 24.8347 76.0704 24.4885C75.1609 24.1358 74.453 23.6273 73.9468 22.9629C73.4471 22.2982 73.1734 21.5119 73.1259 20.6039L76.0332 20.4516C76.1145 22.0034 77.0825 22.7308 78.937 22.6336C79.626 22.5975 80.1564 22.4309 80.5283 22.1337C80.8998 21.8301 81.0724 21.4272 81.046 20.925Z" fill="white"/>
<path d="M88.506 24.2338L85.6083 24.3857L84.8713 10.3223L87.769 10.1704L88.506 24.2338Z" fill="white"/>
<path d="M98.4702 20.806L93.3896 21.0723L92.5755 24.0206L89.4943 24.182L93.9924 9.84426L96.6776 9.70353L102.679 23.4911L99.5976 23.6526L98.4702 20.806ZM94.0489 18.6841L97.5648 18.4999L95.5213 13.3284L94.0489 18.6841Z" fill="white"/>
<path d="M15.0078 35.7841C14.8836 35.7723 14.6867 35.7366 14.4486 35.6388C14.2544 35.5616 14.034 35.4398 13.8055 35.2541C13.7859 35.2414 13.7659 35.224 13.7458 35.2021L13.741 35.2024L2.94457 25.807C2.94457 25.807 2.90965 25.7767 2.85462 25.7244C2.71415 25.5847 2.3586 25.2298 2.14617 24.8962C2.0275 24.7185 1.97762 24.596 1.96716 24.3965C2.05537 24.7182 2.36709 24.9501 2.72275 24.9315L9.45159 24.5788C11.8889 24.4511 13.9616 26.2547 14.0848 28.6064L14.4284 35.2537C14.4763 35.5316 14.7204 35.744 15.0078 35.7841Z" fill="#82DD73"/>
<defs>
<filter id="filter0_d" x="0.0101318" y="0.564453" width="115.34" height="41.0969" filterUnits="userSpaceOnUse" color-interpolation-filters="sRGB">
<feFlood flood-opacity="0" result="BackgroundImageFix"/>
<feColorMatrix in="SourceAlpha" type="matrix" values="0 0 0 0 0 0 0 0 0 0 0 0 0 0 0 0 0 0 127 0"/>
<feOffset dx="1" dy="2"/>
<feGaussianBlur stdDeviation="1"/>
<feColorMatrix type="matrix" values="0 0 0 0 0 0 0 0 0 0 0 0 0 0 0 0 0 0 0.25 0"/>
<feBlend mode="normal" in2="BackgroundImageFix" result="effect1_dropShadow"/>
<feBlend mode="normal" in="SourceGraphic" in2="effect1_dropShadow" result="shape"/>
</filter>
</defs>
</svg>
