<svg width="1829" height="1829" viewBox="0 0 1829 1829" fill="none" xmlns="http://www.w3.org/2000/svg">
<g style="mix-blend-mode:overlay" opacity="0.4" filter="url(#filter0_f)">
<path d="M914.5 9L926.344 733.788L1032.69 16.7467L949.831 736.88L1148.86 39.8542L972.713 743.011L1261.02 77.9271L994.599 752.076L1367.25 130.314L1015.11 763.921L1465.73 196.119L1033.91 778.342L1554.79 274.215L1050.66 795.092L1632.88 363.267L1065.08 813.886L1698.69 461.75L1076.92 834.401L1751.07 567.98L1085.99 856.287L1789.15 680.139L1092.12 879.169L1812.25 796.309L1095.21 902.656L1820 914.5L1095.21 926.344L1812.25 1032.69L1092.12 949.831L1789.15 1148.86L1085.99 972.713L1751.07 1261.02L1076.92 994.599L1698.69 1367.25L1065.08 1015.11L1632.88 1465.73L1050.66 1033.91L1554.79 1554.79L1033.91 1050.66L1465.73 1632.88L1015.11 1065.08L1367.25 1698.69L994.599 1076.92L1261.02 1751.07L972.713 1085.99L1148.86 1789.15L949.831 1092.12L1032.69 1812.25L926.344 1095.21L914.5 1820L902.656 1095.21L796.309 1812.25L879.169 1092.12L680.139 1789.15L856.287 1085.99L567.98 1751.07L834.401 1076.92L461.75 1698.69L813.886 1065.08L363.267 1632.88L795.092 1050.66L274.215 1554.79L778.342 1033.91L196.119 1465.73L763.921 1015.11L130.314 1367.25L752.076 994.599L77.9271 1261.02L743.011 972.713L39.8542 1148.86L736.88 949.831L16.7467 1032.69L733.788 926.344L9 914.5L733.788 902.656L16.7467 796.309L736.88 879.169L39.8542 680.139L743.011 856.287L77.9271 567.98L752.076 834.401L130.314 461.75L763.921 813.886L196.119 363.267L778.342 795.092L274.215 274.215L795.092 778.342L363.267 196.119L813.886 763.921L461.75 130.314L834.401 752.076L567.98 77.9271L856.287 743.011L680.139 39.8542L879.169 736.88L796.309 16.7467L902.656 733.788L914.5 9Z" fill="url(#paint0_radial)"/>
</g>
<defs>
<filter id="filter0_f" x="0" y="0" width="1829" height="1829" filterUnits="userSpaceOnUse" color-interpolation-filters="sRGB">
<feFlood flood-opacity="0" result="BackgroundImageFix"/>
<feBlend mode="normal" in="SourceGraphic" in2="BackgroundImageFix" result="shape"/>
<feGaussianBlur stdDeviation="4.5" result="effect1_foregroundBlur"/>
</filter>
<radialGradient id="paint0_radial" cx="0" cy="0" r="1" gradientUnits="userSpaceOnUse" gradientTransform="translate(914.5 914.5) rotate(90) scale(905.5)">
<stop stop-color="#D9EEED" stop-opacity="0"/>
<stop offset="1" stop-color="#D9EEED"/>
</radialGradient>
</defs>
</svg>
