<svg id="Layer_1" data-name="Layer 1" xmlns="http://www.w3.org/2000/svg" xmlns:xlink="http://www.w3.org/1999/xlink"
     viewBox="0 0 162.5 162.5">
    <defs>
        <style>
            .cls-1{fill:url(#linear-gradient);}.cls-2{fill:#c8daea;}.cls-3{fill:#a9c9dd;}.cls-4{fill:url(#linear-gradient-2);}
        </style>
        <linearGradient id="linear-gradient" x1="111.63" y1="10.37" x2="59.81" y2="131.28"
                        gradientUnits="userSpaceOnUse">
            <stop offset="0" stop-color="#37aee2"/>
            <stop offset="1" stop-color="#1e96c8"/>
        </linearGradient>
        <linearGradient id="linear-gradient-2" x1="-355.64" y1="597.26" x2="-355.45" y2="596.89"
                        gradientTransform="matrix(130.49, 0, 0, -109.45, 46536.81, 65492.39)"
                        gradientUnits="userSpaceOnUse">
            <stop offset="0" stop-color="#eff7fc"/>
            <stop offset="1" stop-color="#fff"/>
        </linearGradient>
    </defs>
    <title>Telegram</title>
    <path class="cls-1"
          d="M9.62,0H152.88a9.62,9.62,0,0,1,9.62,9.62V152.88a9.62,9.62,0,0,1-9.62,9.62H9.63A9.63,9.63,0,0,1,0,152.88V9.63A9.62,9.62,0,0,1,9.62,0Z"/>
    <path class="cls-2" d="M98,175c-3.89,0-3.23-1.47-4.57-5.17L82,132.21,170,80" transform="translate(-35.25 -44.5)"/>
    <path class="cls-3" d="M98,175c3,0,4.33-1.37,6-3l16-15.56-20-12" transform="translate(-35.25 -44.5)"/>
    <path class="cls-4"
          d="M100,144.41l48.36,35.73c5.52,3,9.5,1.47,10.88-5.12L179,82.25c2-8.08-3.08-11.74-8.36-9.35L55,117.48c-7.89,3.16-7.84,7.56-1.44,9.52l29.67,9.26,68.67-43.32c3.24-2,6.22-.91,3.77,1.25"
          transform="translate(-35.25 -44.5)"/>
</svg>