<?xml version="1.0" encoding="utf-8"?>
<!-- Generator: Adobe Illustrator 25.2.0, SVG Export Plug-In . SVG Version: 6.00 Build 0)  -->
<svg version="1.1" id="Layer_1" xmlns="http://www.w3.org/2000/svg" xmlns:xlink="http://www.w3.org/1999/xlink" x="0px" y="0px"
	 viewBox="0 0 205.2 118.8" style="enable-background:new 0 0 205.2 118.8;" xml:space="preserve">
<style type="text/css">
	.st0{fill:none;stroke:#FFFFFF;stroke-miterlimit:10;}
	.st1{fill:#E7B809;}
	.st2{fill:#FFFFFF;}
	.st3{fill:#FFDD00;}
	.st4{fill:#0055A3;}
	.st5{fill:#A30046;}
	.st6{fill:#E21936;}
	.st7{fill:#231F20;}
	.st8{fill:#00BE40;}
</style>
<g>
	<g id="ARTE">
		<g>
			<line class="st0" x1="103.1" y1="0" x2="103.1" y2="71.7"/>
			<path class="st1" d="M180.6,1.2l0.4,0.2c3.9,2.6,7.1,3.1,11.9,3.1c1.8,0,3.6-0.3,5.3-0.9l0.5-0.2l2.3,3.2L200.7,7
				c-8.5,11.3-1.9,23.4,2.8,28.3l0.4,0.4l-0.4,0.4c-0.6,0.6-1.7,1.7-2.5,2.5l-0.3,0.3l0,0.4l0,0.1c0,0.1,0,0.2,0,0.4l0,0.1
				c0.4,7.5-1.6,13.7-5.8,18.3c-4.5,4.9-11.6,7.9-20,8.4l-0.3,0l-0.2,0.2c-2.1,1.9-4.3,3.6-4.3,3.6l-0.4,0.3l-0.4-0.3
				c-0.1-0.1-2.2-1.7-4.3-3.6l-0.2-0.2l-0.3,0c-8.4-0.5-15.5-3.4-20-8.4c-4.2-4.7-6.2-10.8-5.8-18.3l0-0.1c0-0.2,0-0.3,0-0.4l0,0v0
				l0-0.1l0-0.4l-0.3-0.3c-0.7-0.8-1.8-1.9-2.5-2.5l-0.4-0.4l0.4-0.4c4.7-4.9,11.3-17,2.8-28.3l-0.2-0.3l2.3-3.2l0.5,0.2
				c1.7,0.6,3.5,0.9,5.3,0.9c4.8,0,8-0.5,11.9-3.1l0.4-0.2l0.4,0.2c3,2.3,6.7,3.5,10.5,3.5c3.8,0,7.5-1.3,10.5-3.5L180.6,1.2"/>
			<path class="st2" d="M144,29c2.7-6.1,3.6-13.9-0.8-21.5c1.1,0.2,2.3,0.3,3.5,0.3c4.6,0,8.2-0.4,12.2-2.7
				c3.3,2.1,7.1,3.1,10.9,3.2c3.9,0,7.7-1.1,10.9-3.2c4,2.3,7.6,2.7,12.2,2.7c1.2,0,2.3-0.1,3.5-0.3c-4.5,7.7-3.5,15.5-0.8,21.6H144
				"/>
			<path class="st3" d="M195.5,29c-2.7-6.1-3.6-13.9,0.8-21.6c-1.1,0.2-2.3,0.3-3.5,0.3c-4.6,0-8.2-0.4-12.2-2.7
				c-3.3,2.1-7.1,3.1-10.9,3.2c0,0-0.1,0-0.1,0V29H195.5z"/>
			<path class="st4" d="M189.9,58.4c5.1-3.7,8.1-9.6,7.6-18.3c-0.1-0.5-0.1-0.5-0.1-1h-7.5V58.4z"/>
			<path class="st5" d="M181.8,62.1c2.9-0.7,5.6-2,8-3.7V39.1h-8V62.1z"/>
			<path class="st5" d="M149.6,58.4c2.4,1.7,5.2,3,8,3.7v-23h-8V58.4z"/>
			<path class="st4" d="M142,40.1c-0.4,8.7,2.6,14.6,7.6,18.3V39.1h-7.5C142.1,39.6,142,39.6,142,40.1"/>
			<path class="st5" d="M169.8,43.4c1.4,0,2.8,0.4,4,1.2v-5.4h-8v5.4C166.9,43.8,168.3,43.4,169.8,43.4"/>
			<path class="st5" d="M169.8,58.5c-1.4,0-2.8-0.4-4-1.2v6c0.1,0,0.3,0,0.4,0c2.7,0,5.1,0,7.2,0c0.1,0,0.3,0,0.4,0v-6
				C172.6,58.1,171.2,58.5,169.8,58.5"/>
			<path class="st4" d="M173.8,39.1v5.4c3.6,2.2,4.6,6.9,2.4,10.4c-0.6,1-1.5,1.8-2.4,2.4v6c2.7-0.1,5.4-0.5,8-1.2v-23L173.8,39.1z"
				/>
			<path class="st4" d="M162.2,50.9c0-2.6,1.3-5,3.5-6.4v-5.4h-8v23c2.6,0.7,5.3,1.1,8,1.2v-6C163.5,56,162.2,53.6,162.2,50.9"/>
			<path class="st6" d="M145.8,14.3c0.5,2.5,0.6,5.1,0.2,7.7h7.8v7h7.7v-7h8.2v-7.7h-8.2V6.5c-0.9-0.4-1.8-0.9-2.7-1.4
				c-1.6,0.9-3.3,1.6-5,2v7.2L145.8,14.3z"/>
			<path class="st6" d="M186.2,29V7.2c-0.9-0.2-1.9-0.5-2.8-0.8V29H186.2z"/>
			<path class="st6" d="M175.1,29V7.5c-0.9,0.3-1.8,0.4-2.8,0.6V29H175.1z"/>
			<path class="st6" d="M191.7,29V7.8c-1,0-1.9-0.1-2.8-0.1V29L191.7,29z"/>
			<path class="st6" d="M180.7,29V5.1c-0.9,0.5-1.8,1-2.8,1.4V29H180.7z"/>
			<path class="st7" d="M205.2,35.7l-1.1-1.1c-4.5-4.7-10.8-16.3-2.7-27.1l0.6-0.8L199,2.3l-1.1,0.4c-1.6,0.6-3.3,0.9-5,0.9
				c-4.6,0-7.7-0.5-11.4-2.9l-0.9-0.6l-0.9,0.6c-2.9,2.2-6.4,3.3-10,3.4c-3.6,0-7.1-1.2-10-3.4l-0.9-0.6L158,0.7
				c-3.7,2.5-6.8,2.9-11.4,2.9c-1.7,0-3.4-0.3-5-0.9l-1.1-0.4l-3.1,4.3l0.6,0.8c8.1,10.8,1.8,22.4-2.7,27.1l-1.1,1.1l1.1,1.1
				c0.6,0.6,1.6,1.6,2.4,2.5c0,0,0,0.1,0,0.1c0,0.1,0,0.2,0,0.3l0,0.1c-0.4,7.8,1.6,14.2,6,19c4.7,5.1,12,8.2,20.6,8.7
				c2.1,1.9,4.3,3.6,4.4,3.6l0.9,0.7l0.9-0.7c0.1-0.1,2.3-1.7,4.4-3.6c8.6-0.5,15.9-3.5,20.6-8.7c4.4-4.8,6.4-11.2,6-19l0-0.1
				c0-0.1,0-0.2,0-0.3c0,0,0-0.1,0-0.1c0.8-0.9,1.9-2,2.4-2.5L205.2,35.7z M200.1,38.7c0.1,0.8,0,0.8,0.1,1.2
				c0.9,17.3-11.1,25.5-25.7,26.1c-2.2,2.1-4.7,3.9-4.7,3.9s-2.5-1.8-4.7-3.9c-14.6-0.6-26.6-8.8-25.7-26.1c0.1-0.5,0-0.4,0.1-1.2
				c-0.8-0.9-2.2-2.3-2.9-3.1c5.2-5.4,11.3-17.8,2.9-29.1l1.8-2.4c1.8,0.6,3.6,0.9,5.5,1c4.9,0,8.2-0.5,12.2-3.2
				c3.2,2.3,7,3.6,10.9,3.6c3.9,0,7.7-1.3,10.9-3.6c4.1,2.7,7.4,3.2,12.2,3.2c1.9,0,3.7-0.3,5.5-1l1.8,2.4
				c-8.5,11.2-2.4,23.7,2.9,29.1C202.3,36.4,200.9,37.8,200.1,38.7"/>
			<path class="st7" d="M141.9,39.1c0,0.3,0,0.4-0.1,0.5c0,0.1,0,0.3-0.1,0.5c-0.3,6.7,1.3,12,4.9,16c4.1,4.6,10.9,7.1,19.4,7.5
				l0.3,0c1.4,0,2.8,0,4.1,0c1,0,1.9,0,2.8,0c8.6-0.4,15.3-2.9,19.4-7.5c3.6-4,5.3-9.4,4.9-16c0-0.2,0-0.4-0.1-0.5
				c0-0.1,0-0.3-0.1-0.5l0-0.2h-55.7L141.9,39.1z M142.2,40.1c0-0.2,0-0.3,0.1-0.5c0-0.1,0-0.2,0-0.4h54.8c0,0.1,0,0.2,0,0.4
				c0,0.1,0,0.2,0.1,0.4c0.3,6.5-1.3,11.8-4.8,15.7c-4.1,4.5-10.7,7-19.1,7.3c-2,0-4.3,0-6.9,0l-0.3,0c-8.4-0.3-15.1-2.9-19.1-7.3
				C143.5,51.9,141.9,46.6,142.2,40.1"/>
			<path class="st7" d="M143.7,28.9l-0.1,0.3h52.3l-0.1-0.3c-2.3-5.2-4-13.1,0.8-21.4l0.3-0.4l-0.5,0.1c-1.1,0.2-2.3,0.3-3.4,0.3
				c-4.7,0-8.1-0.4-12.1-2.7l-0.1-0.1l-0.1,0.1c-3.2,2-7,3.1-10.8,3.1c-3.8,0-7.6-1.1-10.8-3.1l-0.1-0.1l-0.1,0.1
				c-3.9,2.2-7.4,2.7-12.1,2.7c-1.2,0-2.3-0.1-3.4-0.3l-0.5-0.1l0.3,0.4C147.7,15.8,146,23.7,143.7,28.9 M169.9,8.5
				c3.8,0,7.6-1.1,10.8-3.1c4,2.2,7.5,2.7,12.2,2.7c1,0,2-0.1,3-0.3c-4.5,8.1-2.9,15.8-0.7,21h-25.3L169.9,8.5z M143.6,7.8
				c1,0.2,2,0.2,3,0.2c4.7,0,8.2-0.4,12.2-2.7c3.2,2,6.9,3.1,10.6,3.1v20.3h-25.1C146.5,23.6,148.1,15.8,143.6,7.8"/>
			<polygon class="st7" points="163.1,32 163.1,30.5 158,30.5 158,37.7 159.5,37.7 159.5,34.7 161.6,34.7 161.6,33.2 159.5,33.2 
				159.5,32 			"/>
			<path class="st7" d="M169.2,31.9c0.5,0,1,0.3,1.2,0.7l0,0.1l1.4-0.7l0-0.1c-0.5-1-1.5-1.7-2.6-1.6c-1.9,0-3.2,1.5-3.2,3.7
				c0,2.2,1.2,3.7,3.1,3.7c1.1,0.1,2.2-0.6,2.7-1.6l0-0.1l-1.3-0.8l0,0.1c-0.2,0.5-0.7,0.9-1.3,0.9c-0.9,0-1.6-0.9-1.6-2.2
				C167.6,32.7,168.2,31.9,169.2,31.9"/>
			<path class="st7" d="M181.2,32.4c0-1.2-0.9-1.9-2.3-1.9h-3.3v7.2h3.3c1.2,0.2,2.4-0.7,2.6-1.9c0-0.1,0-0.3,0-0.4
				c0-0.6-0.3-1.2-0.9-1.5C181,33.5,181.2,32.9,181.2,32.4 M177.2,31.9h1.7c0.7,0,0.8,0.3,0.8,0.6c0,0.4-0.2,0.6-0.7,0.6h-1.8
				L177.2,31.9z M178.9,36.2h-1.8v-1.7h1.8c0.6,0,0.9,0.3,0.9,0.8C179.9,35.9,179.6,36.2,178.9,36.2"/>
			<path class="st7" d="M169.7,58.7c4.3,0,7.7-3.5,7.7-7.7s-3.5-7.7-7.7-7.7s-7.7,3.5-7.7,7.7v0C162,55.2,165.4,58.6,169.7,58.7
				 M169.7,58.2c-1.4,0-2.9-0.4-4.1-1.2c1.7,0,3.3-0.5,4.8-1.2c1.2-0.7,2.5-1.6,2.8-2.9c0.9-0.5,2.1-0.1,2.6,0.8
				c0.1,0.2,0.2,0.5,0.2,0.7C174.8,56.7,172.4,58.2,169.7,58.2 M166.1,52.6c0.4,0.3,0.8,0.4,1.3,0.5c1.2,0,2.3-0.8,2.5-2
				c0.7-0.6,1.8-0.6,2.5,0.1c0.1,0.2,0.2,0.3,0.3,0.5c0.6,1.5-0.7,2.6-2.4,3.7c-1.6,0.8-3.4,1.2-5.2,1.2c-0.8-0.7-1.5-1.5-1.9-2.4
				c0.1,0,0.1,0,0.2,0C164.5,54.1,165.5,53.6,166.1,52.6 M165,48.9c0.1-1.4,0.3-2.7,0.7-4c1-0.7,2.2-1.1,3.4-1.2
				c-0.8,0.8-0.7,2.1,0.1,2.9c0,0,0.1,0.1,0.1,0.1c-0.2,0.2-0.4,0.4-0.5,0.6c-0.8,1.3-0.5,3,0.8,3.8c-0.2,0.9-1.1,1.6-2,1.6
				C165.8,52.4,165,50.8,165,48.9 M173.3,52.4c0-0.3-0.1-0.6-0.2-0.8c-0.4-1.1-1.7-1.7-2.8-1.2c-0.2,0.1-0.4,0.2-0.6,0.3
				c-1-0.7-1.3-2.1-0.6-3.2c0.8-1.3,2.8-0.8,4.5,0.2c1.5,0.9,2.7,2.3,3.3,4c-0.1,0.8-0.3,1.5-0.6,2.2
				C176,52.6,174.6,51.9,173.3,52.4C173.4,52.4,173.3,52.4,173.3,52.4 M173.8,47.2c-1.3-0.7-2.9-1.4-4.1-0.9c-0.7-0.5-1-1.5-0.5-2.2
				c0.1-0.2,0.3-0.4,0.6-0.5c3.8,0,7,3,7.2,6.8C176.3,49.1,175.2,48,173.8,47.2 M165.1,45.3c-0.1,0.5-0.3,1-0.4,1.5
				c-0.4,1.7-0.4,4.3,1,5.6c-0.5,0.9-1.4,1.4-2.4,1.4c-0.1,0-0.3,0-0.4,0C161.8,50.7,162.6,47.3,165.1,45.3"/>
			<path class="st2" d="M10.5,96.8H9.7l-2-5.6l-1.8,5.2c-0.1,0.3-0.3,0.5-0.6,0.5H4.5v-4.8c-0.2,0.2-0.5,0.3-0.8,0.3
				c-0.8,0-1.4-0.6-1.4-1.4v-0.1c0-0.9,0.7-1.5,1.5-1.6c0.4,0,1.6,0.2,1.6,2v3.5c0,0.4,0,0.9-0.1,1.3l2.3-6.5h0.2l2.2,6.4
				c0-0.4-0.1-1-0.1-1.4v-4.7l0.9-0.4H11v6.8C11,96.4,10.9,96.8,10.5,96.8 M4.6,90.7c0.1-0.5-0.3-0.9-0.7-1c0,0,0,0,0,0l0,0H3.8
				c-0.5,0-0.9,0.4-0.9,0.9v0.1c-0.1,0.5,0.3,0.9,0.8,1l0,0h0.1c0.3,0,0.6-0.1,0.8-0.4C4.6,91.1,4.6,90.9,4.6,90.7"/>
			<path class="st2" d="M13.3,85.9c-0.3,1.4-1.5,2.5-3,2.4c-0.9,0-2.1-0.4-2.1-1.5c0-0.6,0.5-1.1,1-1.1h0.1c0.6,0,1,0.4,1,1
				c0,0.4-0.2,0.8-0.6,1c0.2,0,0.4,0.1,0.5,0.1c1-0.1,1.9-0.9,1.9-1.9L13.3,85.9z M9.3,87.5c0.3-0.1,0.6-0.4,0.6-0.7
				c0-0.3-0.2-0.5-0.5-0.5h0c-0.3,0-0.5,0.2-0.5,0.5C8.9,87.1,9.1,87.4,9.3,87.5L9.3,87.5z"/>
			<path class="st2" d="M19.6,89.3L19.6,89.3l0.1,4.4H20c0.9,0,1.7,0.6,1.7,1.5c0,0.9-0.6,1.7-1.5,1.7c-0.9,0-1.4-0.6-1.4-2
				c0-0.1,0-0.3,0-0.4c-1.2,0.4-2.2,1.2-2.9,2.3H15v-4.8c-0.2,0.2-0.5,0.3-0.8,0.3c-0.8,0-1.4-0.6-1.4-1.4v-0.1
				c0-0.9,0.7-1.5,1.5-1.6h0.1c0.4,0,1.6,0.2,1.6,2v4.6c0.8-0.9,1.7-1.5,2.8-1.9v-1.6c0-0.8,0-1.7-0.1-2.5L19.6,89.3z M15.2,90.7
				c0.1-0.5-0.3-0.9-0.7-1l0,0h-0.1c-0.5,0-0.9,0.4-0.9,0.9v0.1c-0.1,0.5,0.3,0.9,0.8,1c0,0,0,0,0,0l0,0h0.1c0.3,0,0.6-0.1,0.8-0.4
				C15.1,91.1,15.2,90.9,15.2,90.7 M19.7,94.3c0,0.3-0.1,0.5-0.1,0.8c0,0.6,0.1,1.2,0.6,1.2s0.8-0.6,0.8-1.1c0.1-0.5-0.3-0.9-0.8-1
				h0c-0.1,0-0.1,0-0.2,0C19.9,94.3,19.8,94.3,19.7,94.3"/>
			<path class="st2" d="M24.2,96.2v-4.9c-0.5-0.1-1-0.1-1.5-0.1c-0.1-1.1,0.7-2.1,1.8-2.2h0.3c1.1,0,1.9,0.7,2.4,0.7
				c0.3,0,0.6-0.2,0.8-0.5l0.3,0.4c-0.3,0.5-0.8,0.7-1.4,0.8c-0.9,0-1.6-0.6-2.5-0.6c-0.5-0.1-1,0.3-1.1,0.9c0,0,0,0,0,0l0,0
				c3.3,0.3,4.7,0.5,4.7,2.5V95c0,1.7-1.1,1.8-2.5,1.8h-2.4l0.1-0.6H24.2z M25.5,96.2c1.4,0,1.6-0.2,1.6-1.4V93c0-0.9-0.2-1.3-2-1.6
				v4.8L25.5,96.2z"/>
			<path class="st2" d="M36,95.7v-6l0.9-0.4v7.5h-0.8c-0.7-1-1.7-1.7-2.9-2.1v0.2c0,1.2-0.4,2.1-1.5,2.1c-0.8,0-1.4-0.6-1.4-1.4
				v-0.1c0-0.9,0.7-1.6,1.5-1.6h0.5v-1.8c-0.2,0.2-0.5,0.3-0.8,0.3c-0.8,0-1.4-0.6-1.5-1.4c0,0,0,0,0-0.1v-0.1
				c0-0.9,0.7-1.5,1.5-1.6h0c0.4,0,1.6,0.2,1.6,2V94C34.2,94.3,35.2,94.9,36,95.7 M32.4,90.7c0.1-0.5-0.2-0.9-0.7-1l0,0h-0.1
				c-0.5,0-0.9,0.4-0.9,0.9c0,0,0,0,0,0v0.1c-0.1,0.5,0.2,0.9,0.7,1l0,0h0.1c0.3,0,0.6-0.2,0.8-0.4C32.4,91.1,32.4,90.9,32.4,90.7
				L32.4,90.7z M30.9,95.4c-0.1,0.5,0.2,0.9,0.7,1h0.1c0.5,0,0.7-0.5,0.7-1.1c0-0.3,0-0.5-0.1-0.8c-0.1,0-0.2,0-0.4,0
				C31.4,94.5,30.9,94.9,30.9,95.4L30.9,95.4z"/>
			<path class="st2" d="M34.8,85.2c1.3,0,2.4,1,2.5,2.4c0,0.3-0.1,0.6-0.2,0.9c-1.4-0.8-3-1.2-4.7-1.2C32.5,86,33.6,85.1,34.8,85.2
				 M36.8,87.7c-0.2-1.1-1.2-1.9-2.3-1.8c-0.7-0.1-1.3,0.3-1.6,0.8C34.3,86.8,35.6,87.1,36.8,87.7L36.8,87.7z"/>
			<path class="st2" d="M40.6,96.8c-0.2-0.7-0.5-1.4-0.8-2.1c-0.4-0.8-0.6-1.7-0.7-2.6c-0.1-1.4,1-2.6,2.3-2.7
				c0.2,0,0.3,0.1,1.1,0.9c0.6-0.7,0.9-0.9,1-0.9c1.4,0,2.4,1.2,2.4,2.5v4.9h-0.9v-4.9c0-1.5-0.7-2-1.3-2c-0.4,0.3-0.8,0.6-1.2,1
				h-0.1c-0.7-0.7-1.1-1.1-1.2-1.1c-0.5,0-1.3,0.7-1.3,2.2c0.1,1.3,0.5,2.6,1.1,3.7c0.4-0.6,0.8-1,1.3-1.6c-0.7,0-1.3-0.6-1.3-1.4
				c0-0.8,0.7-1.5,1.5-1.4c0,0,0,0,0,0c0.7,0,1.4,0.6,1.4,1.3v0c0,0.5-0.2,1.1-0.5,1.5c-0.5,0.7-1.3,1.7-2,2.6L40.6,96.8z
				 M43.2,92.6c0-0.4-0.3-0.8-0.7-0.8h-0.1c-0.5,0-0.9,0.4-0.9,0.9c0,0.5,0.4,0.9,0.9,0.9h0.1C42.9,93.6,43.2,93.2,43.2,92.6"/>
			<path class="st2" d="M49.5,88.9c0.6,0,1.1,0.2,1.6,0.4c0.3,0.2,0.6,0.3,0.9,0.3c0.3,0,0.6-0.2,0.8-0.5l0.3,0.4
				c-0.3,0.5-0.8,0.7-1.4,0.8c-0.5,0-0.9-0.1-1.3-0.3c-0.4-0.2-0.8-0.3-1.2-0.3c-0.5,0-0.9,0.3-1,0.8c2,0.2,2.9,0.4,3.6,0.9
				c0.6,0.4,0.9,1.2,0.8,1.9v1.6c0,1.2-0.6,2-1.7,2c-0.8,0-1.5-0.6-1.5-1.4v-0.1c0-0.8,0.6-1.5,1.5-1.5h0c0.3,0,0.6,0.1,0.8,0.2v-1
				c0-1.3-1.1-1.7-4.1-2c-0.1-1.1,0.7-2.1,1.8-2.2L49.5,88.9z M50.9,94.4c-0.5,0-0.9,0.4-0.9,0.9c0,0.5,0.3,1,0.8,1h0.1
				c0.5,0,0.9-0.5,0.8-1c0,0,0,0,0,0c0,0,0,0,0,0c0-0.2,0-0.4-0.1-0.6C51.5,94.5,51.2,94.4,50.9,94.4"/>
			<path class="st2" d="M59.4,96.9V92c0.1-1.1-0.6-2.1-1.7-2.2h-0.3c-0.9,0-1.7,0.5-2.1,1.2l2,0.5L57.2,92c-0.7,0-1.3,0.7-1.3,1.4
				c0,0,0,0,0,0v3.4H55v-3.1c-0.1-0.8,0.5-1.6,1.3-1.9l-1.7-0.3c0.3-1.4,1.6-2.4,3-2.3c2,0,2.8,1.3,2.8,3.1v4.2l-0.9,0.4L59.4,96.9z
				"/>
			<path class="st2" d="M65.2,96.8v-5c0-1.5-0.8-2-1.6-2c-0.6,0-1.2,0.3-1.7,0.7l-0.3-0.3c0.6-0.6,1.4-0.9,2.2-0.9
				c1.3-0.1,2.4,0.9,2.5,2.1c0,0.2,0,0.3,0,0.5v4.9L65.2,96.8z"/>
			<path class="st2" d="M69.8,88.9c0.6,0,1.1,0.2,1.6,0.4c0.3,0.2,0.6,0.3,0.9,0.3c0.3,0,0.6-0.2,0.8-0.5l0.3,0.4
				c-0.3,0.5-0.8,0.7-1.4,0.8c-0.5,0-0.9-0.1-1.3-0.3c-0.4-0.2-0.8-0.3-1.2-0.3c-0.5,0-0.9,0.3-1,0.8c2,0.2,2.9,0.4,3.6,0.9
				c0.6,0.4,0.9,1.2,0.8,1.9v1.6c0,1.2-0.6,2-1.7,2c-0.8,0-1.5-0.6-1.5-1.4c0,0,0,0,0,0v-0.1c0-0.8,0.6-1.5,1.4-1.5c0,0,0,0,0,0h0
				c0.3,0,0.6,0.1,0.8,0.3v-1c0-1.3-1.1-1.7-4.1-2c-0.1-1.1,0.7-2.1,1.8-2.2L69.8,88.9z M71.2,94.4c-0.5,0-0.9,0.4-0.9,0.9
				c0,0.5,0.3,1,0.8,1h0.1c0.5,0,0.9-0.5,0.8-1c0,0,0,0,0,0c0,0,0,0,0,0c0-0.2,0-0.4-0.1-0.6C71.8,94.5,71.5,94.4,71.2,94.4"/>
			<path class="st2" d="M81.5,96.8h-0.9V92c0.1-1.2-0.9-2.2-2.1-2.3h-0.4c-1.3-0.1-2.3,0.9-2.4,2.2c0,0.1,0,0.2,0,0.3
				c0.1,1,0.2,1.9,0.5,2.9c0.1-1.1,0.3-2.1,0.8-3.1c0.3-0.4,0.7-0.7,1.2-0.7c0.7,0,1.3,0.6,1.4,1.3v0.1c0.1,0.7-0.5,1.4-1.2,1.5l0,0
				h-0.1c-0.4,0-0.7-0.1-1-0.4c-0.3,1-0.5,2-0.5,3.1h-0.8c-0.1-0.7-0.2-1.5-0.5-2.2c-0.3-0.8-0.5-1.6-0.6-2.5c0-1.7,1.4-3,3.1-3
				c0.1,0,0.2,0,0.3,0c2.4,0,3.3,1.3,3.3,3.1L81.5,96.8z M78.2,93.6c0.5,0,0.8-0.5,0.8-0.9c0-0.5-0.3-0.8-0.8-0.9
				c-0.5,0.1-0.9,0.5-0.9,1C77.4,93.3,77.8,93.6,78.2,93.6"/>
			<path class="st2" d="M78.2,87.9c0.4-0.1,0.7-0.3,0.9-0.6c-0.6,0-1.1-0.5-1.1-1.1c0,0,0,0,0,0v0c0-0.6,0.5-1.1,1.2-1.1h0
				c0.6,0,1.1,0.4,1.1,1v0.1c0,0.6-0.3,1.1-0.7,1.4c1.1-0.2,2-1.2,2-2.4h0.9c-0.1,1-0.7,1.9-1.6,2.5c-0.8,0.4-1.7,0.6-2.6,0.6
				L78.2,87.9z M78.6,86.2c0,0.4,0.3,0.6,0.7,0.7c0.1,0,0.3-0.1,0.4-0.2c0.1-0.1,0.2-0.3,0.2-0.5c0-0.3-0.3-0.6-0.6-0.6
				C78.9,85.6,78.7,85.8,78.6,86.2L78.6,86.2L78.6,86.2z"/>
			<path class="st2" d="M86.4,96.8v-5c0-1.5-0.8-2-1.6-2c-0.6,0-1.2,0.3-1.7,0.7l-0.3-0.4c0.6-0.6,1.4-0.9,2.2-0.9
				c1.3-0.1,2.3,0.9,2.4,2.2c0,0,0,0,0,0l0,0c0,0.1,0,0.3,0,0.4v4.9L86.4,96.8z"/>
			<path class="st2" d="M89.3,90.4c0.7-0.8,1.8-1.2,2.8-1.2c1.4-0.1,2.6,0.9,2.7,2.2c0,0,0,0,0,0l0,0c0,0.1,0,0.3,0,0.4v3.1
				c0,1.2-1.2,2-2.7,2s-2.5-0.7-2.5-1.9v-2c0-1.2,0.6-1.9,1.6-1.9c0.7,0,1.3,0.6,1.4,1.3v0.1c0.1,0.7-0.4,1.4-1.2,1.5c0,0,0,0,0,0
				l0,0h-0.2c-0.3,0-0.5-0.1-0.7-0.2v1.1c-0.1,0.8,0.5,1.5,1.3,1.6c0.1,0,0.3,0,0.4,0c1,0,1.7-0.5,1.7-1.5v-3.1c0.1-1-0.6-1.9-1.6-2
				c0,0,0,0,0,0l-0.1,0c-0.1,0-0.3,0-0.4,0c-0.9,0-1.7,0.4-2.3,1L89.3,90.4z M91.2,93.4c0.5,0,0.8-0.4,0.8-0.8c0,0,0,0,0,0v0
				c0-0.5-0.3-0.9-0.8-0.9c-0.4,0-0.8,0.4-0.8,0.8l0,0c0,0.2,0,0.4,0.1,0.6C90.7,93.3,91,93.4,91.2,93.4L91.2,93.4z"/>
			<path class="st2" d="M99.5,96.9c-1.4,0-2.5-0.7-2.5-2v-0.1c0-0.7,0.5-1.4,1.2-1.5c-0.8-0.2-1.4-1-1.2-1.9v-0.2c0-1,0.5-2,1.6-2
				c0.7,0,1.3,0.6,1.3,1.3c0,0,0,0,0,0v0.1c0.1,0.7-0.5,1.4-1.2,1.4l0,0h-0.1c-0.3,0-0.6-0.1-0.8-0.2c0,0.8,0.4,1.1,1.3,1.1h0.5v0.6
				H99c-0.6,0-1,0.4-1,1.2v0.3c0,1,0.7,1.4,1.6,1.4s1.7-0.5,1.7-1.5v-5.1l0.9-0.4v5.6C102.2,96.2,101.1,96.9,99.5,96.9 M98.5,89.7
				c-0.5,0-0.8,0.4-0.8,0.8c0,0,0,0,0,0l0,0c0,0.4,0.3,0.8,0.7,0.8h0.1c0.4,0,0.8-0.4,0.8-0.8c0,0,0,0,0,0v-0.1
				C99.4,90.1,99.1,89.7,98.5,89.7L98.5,89.7L98.5,89.7z"/>
			<polygon class="st2" points="101.5,88.3 101.1,85.2 102.3,85.2 101.9,88.2 101.6,88.3 			"/>
			<path class="st2" d="M107.1,96.8v-5c0-1.5-0.8-2-1.6-2c-0.6,0-1.2,0.3-1.7,0.7l-0.3-0.4c0.6-0.6,1.4-0.9,2.2-0.9
				c1.3,0,2.4,1,2.4,2.2v0c0,0.1,0,0.3,0,0.4v4.9L107.1,96.8z"/>
			<path class="st2" d="M109.3,92.2c1.5,1.1,2.8,2.4,3.9,3.9c0.3,0,0.4-0.2,0.4-1.1v-3.2c-0.2,0.2-0.5,0.3-0.8,0.3
				c-0.8,0-1.4-0.6-1.4-1.4v-0.1c0-0.8,0.7-1.5,1.5-1.6c0.4,0,1.6,0.2,1.6,2v3.7c0,1.4-0.1,1.9-1.3,1.9h-0.4c-1.1-1.5-2.4-2.9-3.9-4
				L109.3,92.2z M113.7,90.7c0.1-0.5-0.3-0.9-0.7-1l0,0h-0.1c-0.5,0-0.9,0.4-0.9,0.9v0.1c-0.1,0.5,0.3,0.9,0.8,1l0,0h0.1
				c0.3,0,0.6-0.2,0.8-0.4C113.7,91.1,113.7,90.9,113.7,90.7"/>
			<path class="st2" d="M117.9,94.2c0.3-0.2,0.6-0.3,0.9-0.3c0.8,0,1.4,0.6,1.4,1.3c0,0.1,0,0.1,0,0.2c0,0.8-0.7,1.5-1.5,1.5
				c0,0,0,0,0,0c-0.4,0-1.7-0.2-1.7-2.1v-2.6c0-0.8,0-1.7-0.1-2.5l0.9-0.4h0.1L117.9,94.2z M117.8,95.3c0,0.5,0.3,1,0.8,1
				c0.5,0,0.9-0.4,0.9-0.9c0,0,0,0,0-0.1c0.1-0.5-0.3-0.9-0.7-1c0,0,0,0,0,0l0,0h-0.1c-0.3,0-0.6,0.2-0.8,0.4
				C117.8,94.9,117.8,95.1,117.8,95.3L117.8,95.3z"/>
			<path class="st2" d="M128.5,84.1L128.5,84.1v10.5c0,1.9-1.2,2.2-2.6,2.2h-3.6l0.1-0.7h1.3v-4.2c-0.2,0.2-0.5,0.3-0.8,0.3
				c-0.8,0-1.4-0.6-1.4-1.4v-0.1c0-0.8,0.7-1.5,1.5-1.6h0.1c0.4,0,1.6,0.2,1.6,2v5h1.2c1.1,0,1.8-0.2,1.8-1.7v-10L128.5,84.1z
				 M123.8,90.7c0.1-0.5-0.3-0.9-0.7-1l0,0H123c-0.5,0-0.9,0.4-0.9,0.9v0.1c-0.1,0.5,0.3,0.9,0.8,1c0,0,0,0,0,0l0,0h0.2
				c0.3,0,0.6-0.2,0.8-0.4C123.8,91.1,123.9,90.9,123.8,90.7"/>
			<path class="st2" d="M125.1,87.5L125.1,87.5v-0.1c0-0.5,0.3-0.8,0.8-0.9h0c0.5,0,0.9,0.4,0.9,0.9v0c0,0.5-0.3,1-0.8,1h-0.2
				c-0.4,0-0.9-0.2-1.1-0.6c-0.2-0.3-0.5-0.6-0.7-0.8V88l-0.2,0.3c-0.6-0.4-1.1-1.1-1.1-1.8c0-0.8,0.7-1.5,1.5-1.4
				c0.9,0,1.7,0.6,2.1,0.6c0.3,0,0.6-0.2,0.7-0.6l0.2,0.3c-0.1,0.5-0.5,0.8-1,0.8c-0.7,0-1.4-0.5-2.1-0.5c-0.5-0.1-0.9,0.3-1,0.7
				c0,0,0,0,0,0l0,0c0,0,0,0.1,0,0.1c0,0.4,0.2,0.8,0.5,1.1v-1l0.2-0.3C124.4,86.6,124.8,87,125.1,87.5 M125.9,88
				c0.3,0,0.5-0.2,0.5-0.5c0-0.3-0.2-0.5-0.5-0.5h0c-0.3,0-0.5,0.2-0.5,0.4c0,0.2,0,0.3,0.1,0.5C125.6,87.9,125.8,88,125.9,88"/>
			<path class="st2" d="M137.2,89.3L137.2,89.3v4.4h0.3c0.9,0,1.7,0.6,1.7,1.5s-0.6,1.7-1.5,1.7l0,0c-0.9,0-1.4-0.6-1.4-2
				c0-0.1,0-0.3,0-0.4c-1.2,0.4-2.2,1.2-2.9,2.3h-0.9v-4.8c-0.2,0.2-0.5,0.3-0.8,0.3c-0.8,0-1.4-0.6-1.4-1.4v-0.1
				c0-0.8,0.7-1.5,1.5-1.6h0.1c0.4,0,1.6,0.2,1.6,2v4.6c0.8-0.9,1.7-1.5,2.8-1.9v-4.1L137.2,89.3z M132.8,90.7
				c0.1-0.5-0.3-0.9-0.7-1l0,0h0c-0.5,0-0.9,0.4-0.9,0.9v0.1c-0.1,0.5,0.3,0.9,0.8,1c0,0,0,0,0,0l0,0h0.1c0.3,0,0.6-0.2,0.8-0.4
				C132.8,91.1,132.8,90.9,132.8,90.7 M137.3,94.3c0,0.3-0.1,0.5-0.1,0.8c0,0.6,0.1,1.2,0.6,1.2s0.8-0.6,0.8-1.1
				c0.1-0.5-0.3-0.9-0.8-1h0c-0.1,0-0.1,0-0.2,0C137.5,94.3,137.4,94.3,137.3,94.3L137.3,94.3z"/>
			<path class="st2" d="M143.4,94.9L143.4,94.9c0.8-2.3,1.4-3.6,1.8-4.4c0.5-1.1,0.9-1.4,1.5-1.4c0.7,0,1.2,0.5,1.2,1.8v5.8h-0.9
				v-5.7c0-1-0.2-1.2-0.4-1.2s-0.4,0.2-0.8,0.9c-0.9,2-1.7,4-2.3,6h-0.9v-4.8c-0.2,0.2-0.5,0.3-0.8,0.3c-0.8,0-1.4-0.6-1.4-1.4
				c0,0,0,0,0,0v-0.1c0-0.8,0.7-1.5,1.5-1.6h0.1c0.4,0,1.6,0.2,1.6,2v2.4C143.5,94,143.4,94.5,143.4,94.9 M142.7,90.7
				c0.1-0.5-0.3-0.9-0.7-1l0,0h-0.1c-0.5,0-0.9,0.4-0.9,0.9v0.1c-0.1,0.5,0.3,0.9,0.8,1l0,0h0.1c0.3,0,0.6-0.1,0.8-0.4
				C142.6,91.1,142.7,90.9,142.7,90.7"/>
			<path class="st2" d="M152.8,96.8v-5c0-1.5-0.8-2-1.6-2c-0.6,0-1.2,0.3-1.7,0.7l-0.3-0.4c0.6-0.6,1.4-0.9,2.2-0.9
				c1.3-0.1,2.3,0.9,2.4,2.2c0,0,0,0,0,0l0,0c0,0.1,0,0.3,0,0.4v4.9L152.8,96.8z"/>
			<path class="st2" d="M155,92.2c1.5,1.1,2.8,2.4,3.9,3.9c0.3,0,0.4-0.2,0.4-1.1v-3.2c-0.2,0.2-0.5,0.3-0.8,0.3
				c-0.8,0-1.4-0.6-1.4-1.4v-0.1c0-0.8,0.7-1.5,1.5-1.6h0.1c0.4,0,1.6,0.2,1.6,2v3.7c0,1.4-0.1,1.9-1.3,1.9h-0.4
				c-1.1-1.5-2.4-2.9-3.9-4L155,92.2z M159.4,90.7c0.1-0.5-0.2-0.9-0.7-1c0,0,0,0,0,0l0,0h-0.1c-0.5,0-0.9,0.4-0.9,0.9c0,0,0,0,0,0
				v0.1c-0.1,0.5,0.3,0.9,0.8,1c0,0,0,0,0,0l0,0h0.1c0.3,0,0.6-0.2,0.8-0.4C159.3,91.1,159.4,90.9,159.4,90.7"/>
			<path class="st2" d="M167.2,96.9c0-0.8,0.1-1.7,0.1-2.5V92c0.1-1.1-0.6-2.1-1.7-2.2c-0.1,0-0.2,0-0.4,0c-0.9,0-1.7,0.5-2.1,1.2
				l2,0.5L165,92c-0.7,0-1.3,0.6-1.3,1.4c0,0,0,0,0,0v3.4h-0.9v-3.1c-0.1-0.8,0.4-1.6,1.2-1.9l-1.7-0.3c0.3-1.4,1.6-2.4,3-2.3
				c2,0,2.8,1.3,2.8,3.1v4.2L167.2,96.9L167.2,96.9z"/>
			<path class="st2" d="M173.1,96.8v-5c0-1.5-0.8-2-1.6-2c-0.6,0-1.2,0.3-1.7,0.7l-0.3-0.4c0.6-0.6,1.4-0.9,2.2-0.9
				c1.3-0.1,2.3,0.9,2.4,2.2c0,0,0,0,0,0l0,0c0,0.1,0,0.3,0,0.4v4.9L173.1,96.8z"/>
			<path class="st2" d="M177.6,88.9c0.6,0,1.1,0.2,1.6,0.4c0.3,0.2,0.6,0.3,0.9,0.3c0.3,0,0.6-0.2,0.9-0.5l0.3,0.4
				c-0.3,0.5-0.8,0.7-1.4,0.8c-0.5,0-0.9-0.1-1.3-0.3c-0.4-0.2-0.8-0.3-1.2-0.3c-0.5,0-0.9,0.3-1,0.8c2,0.2,2.9,0.4,3.6,0.9
				c0.6,0.5,0.9,1.2,0.8,1.9v1.6c0,1.2-0.6,2-1.7,2c-0.8,0-1.5-0.6-1.5-1.4v-0.1c0-0.8,0.6-1.5,1.4-1.5h0c0.3,0,0.6,0.1,0.8,0.2v-1
				c0-1.3-1.1-1.7-4.1-2c-0.1-1.1,0.7-2.1,1.8-2.2c0,0,0,0,0,0l0,0H177.6z M179,94.4c-0.5,0-0.9,0.4-0.9,0.9c0,0.5,0.3,1,0.8,1h0.1
				c0.5,0,0.9-0.4,0.9-0.9v0c0,0,0,0,0-0.1c0-0.2,0-0.4-0.1-0.6C179.6,94.5,179.3,94.4,179,94.4L179,94.4z"/>
			<path class="st2" d="M189,89.3v5.8c0,0.9-0.7,1.7-1.7,1.8h-0.2c-0.9,0.1-1.7-0.6-1.8-1.5v-4.2c0-1.3-0.8-1.5-1.3-1.5
				c-0.6,0-1.2,0.4-1.4,1c0.2-0.1,0.5-0.2,0.7-0.2c0.6,0,1.2,0.5,1.2,1.1c0,0,0,0,0,0v0.1c0,0.7-0.5,1.3-1.2,1.3h-0.1
				c-0.9,0-1.4-0.7-1.4-1.6c-0.1-1.2,0.9-2.2,2.1-2.3h0.1c1.1-0.1,2,0.8,2.1,1.9v4.1c0,1,0.4,1.2,0.9,1.2s0.9-0.3,0.9-1.2v-3
				c0-0.8,0-1.7-0.1-2.5L189,89.3L189,89.3z M183.4,91c-0.3,0-0.6,0.1-0.8,0.3c0,0.6,0.2,1.2,0.8,1.2c0.4,0,0.7-0.4,0.7-0.8
				c0,0,0,0,0,0v0C184.1,91.3,183.8,91,183.4,91L183.4,91L183.4,91z"/>
			<path class="st2" d="M191,90.4c0.7-0.8,1.7-1.2,2.8-1.2c1.4-0.1,2.6,0.9,2.7,2.2c0,0,0,0,0,0l0,0c0,0.1,0,0.3,0,0.4v3.1
				c0,1.2-1.2,2-2.7,2s-2.5-0.7-2.5-1.9v-2c0-1.2,0.6-1.9,1.6-1.9c0.8,0,1.4,0.6,1.4,1.4c0,0.8-0.6,1.4-1.4,1.4
				c-0.3,0-0.5-0.1-0.7-0.2v1.1c0,0.8,0.6,1.5,1.4,1.5c0,0,0,0,0,0c0.1,0,0.2,0,0.3,0c1,0,1.7-0.5,1.7-1.5v-3.1c0.1-1-0.6-1.9-1.6-2
				l-0.1,0c-0.1,0-0.3,0-0.4,0c-0.9,0-1.7,0.4-2.3,1L191,90.4z M192.9,93.4c0.5,0,0.8-0.4,0.8-0.8c0,0,0,0,0,0v0
				c0-0.5-0.3-0.9-0.8-0.9c-0.5,0-0.8,0.4-0.8,0.9c0,0,0,0,0,0v0c0,0.2,0,0.4,0.1,0.6C192.4,93.3,192.6,93.4,192.9,93.4L192.9,93.4z
				"/>
			<path class="st2" d="M197.8,92.2c1.5,1.1,2.8,2.4,3.9,3.9c0.3,0,0.4-0.2,0.4-1.1v-3.2c-0.2,0.2-0.5,0.3-0.8,0.3
				c-0.8,0-1.4-0.6-1.4-1.4v-0.1c0-0.9,0.7-1.5,1.5-1.6c0.4,0,1.6,0.2,1.6,2v3.7c0,1.4-0.1,1.9-1.3,1.9h-0.4c-1.1-1.5-2.4-2.9-3.9-4
				L197.8,92.2z M202.2,90.7c0.1-0.5-0.2-0.9-0.7-1c0,0,0,0,0,0l0,0h-0.1c-0.5,0-0.9,0.4-0.9,0.9v0.1c-0.1,0.5,0.3,0.9,0.8,1
				c0,0,0,0,0,0l0,0h0.1c0.3,0,0.6-0.2,0.8-0.4C202.1,91.1,202.2,90.9,202.2,90.7"/>
			<path class="st2" d="M36.2,111.2c-0.5-0.6-1.2-1-2-1.1c-1,0-1.6,0.7-1.6,1.8v0.4c0.2-0.2,0.5-0.3,0.8-0.3c0.7,0,1.3,0.6,1.3,1.3
				v0.1c0,0.8-0.7,1.4-1.5,1.4c-0.4,0-1.5-0.2-1.5-2.1v-0.7c-0.2-1.3,0.8-2.4,2-2.6c0,0,0,0,0,0l0,0c0.2,0,0.3,0,0.5,0
				c0.7,0,1.4,0.2,1.9,0.6v-0.4c0-0.5-0.1-0.9-0.4-1.3c-0.4,0.3-0.8,0.6-1.2,0.8l-0.5-0.1V109c0.5-0.3,0.9-0.6,1.3-0.9
				c-0.3-0.2-0.7-0.3-1.1-0.3c-0.9,0-1.7,0.4-2.3,1l-0.3-0.4c0.7-0.8,1.7-1.2,2.7-1.3c0.5,0,1,0.1,1.5,0.3c0.3-0.3,0.4-0.7,0.5-1.2
				h0.9c-0.1,0.6-0.4,1.1-0.9,1.6c0.5,0.5,0.7,1.2,0.7,1.9v4.9h-0.9L36.2,111.2z M32.5,113.4c-0.1,0.4,0.2,0.8,0.6,0.9
				c0.4,0.1,0.8-0.2,0.9-0.6l0,0c0-0.1,0-0.2,0-0.3c0-0.4-0.3-0.8-0.7-0.9h-0.1c-0.3,0-0.5,0.1-0.7,0.3
				C32.5,113.1,32.5,113.2,32.5,113.4L32.5,113.4z"/>
			<path class="st2" d="M38.6,102c0.5,0,1,0.1,1.5,0.4c0.3,0.2,0.6,0.3,1,0.3c0.3,0,0.6-0.2,0.8-0.5l0.3,0.4
				c-0.3,0.5-0.8,0.8-1.3,0.8c-0.5,0-0.9-0.1-1.3-0.3c-0.4-0.1-0.8-0.2-1.2-0.3c-0.5,0-0.9,0.3-1,0.8c1.1,0,2.1,0.3,3,0.8
				c0.5,0.4,0.5,0.8,0.5,1.9v5.8c0.3-0.2,0.6-0.3,0.9-0.3c0.8,0,1.4,0.6,1.4,1.4c0,0,0,0,0,0v0.1c0,0.8-0.7,1.5-1.5,1.5h-0.1
				c-0.5,0-1.7-0.2-1.7-2.1v-6.8c0-1.2-0.4-1.6-3.3-1.9C36.5,103.1,37.4,102.1,38.6,102L38.6,102z M40.7,113.3
				c-0.1,0.5,0.3,0.9,0.8,1c0,0,0,0,0,0l0,0c0.5,0,0.9-0.4,0.9-0.9c0,0,0,0,0,0c0,0,0,0,0,0v-0.1c0.1-0.5-0.3-0.9-0.8-1h-0.1
				c-0.3,0-0.6,0.2-0.8,0.4C40.7,112.9,40.7,113.1,40.7,113.3"/>
			<path class="st2" d="M50.3,113.7v-6l0.9-0.4h0v7.5h-0.8c-0.7-1-1.7-1.7-2.9-2.1v0.2c0,1.2-0.4,2.1-1.5,2.1
				c-0.8,0-1.4-0.6-1.4-1.3v0c0,0,0-0.1,0-0.1c0-0.9,0.7-1.6,1.5-1.6h0c0.1,0,0.1,0,0.2,0h0.3v-1.9c-0.2,0.2-0.5,0.3-0.8,0.3
				c-0.8,0-1.4-0.6-1.4-1.4v-0.1c0-0.8,0.7-1.4,1.5-1.5H46c0.4,0,1.6,0.2,1.6,2v2.8C48.6,112.3,49.6,112.9,50.3,113.7 M46.7,108.7
				c0.1-0.5-0.3-0.9-0.8-1c0,0,0,0,0,0l0,0h-0.1c-0.5,0-0.9,0.4-0.9,0.9c0,0,0,0.1,0,0.1c-0.1,0.5,0.2,0.9,0.7,1l0,0h0.1
				c0.3,0,0.6-0.2,0.8-0.4C46.7,109.1,46.7,108.9,46.7,108.7L46.7,108.7z M45.2,113.4c-0.1,0.5,0.2,0.9,0.6,1c0,0,0,0,0,0l0,0H46
				c0.5,0,0.7-0.5,0.7-1.1c0-0.3,0-0.5-0.1-0.8h-0.4C45.7,112.4,45.3,112.8,45.2,113.4L45.2,113.4L45.2,113.4z"/>
			<path class="st2" d="M58.2,111.2c-0.5-0.6-1.2-1-2-1.1c-1,0-1.6,0.7-1.6,1.8v0.4c0.2-0.2,0.5-0.3,0.8-0.3c0.7,0,1.3,0.6,1.3,1.3
				v0.1c0,0.8-0.6,1.4-1.4,1.4c0,0,0,0,0,0h0c-0.4,0-1.5-0.2-1.5-2.1v-0.7c-0.2-1.3,0.8-2.4,2-2.6c0,0,0,0,0,0l0,0
				c0.2,0,0.3,0,0.5,0c0.7,0,1.4,0.2,1.9,0.6v-0.4c0-0.5-0.1-0.9-0.4-1.3c-0.4,0.3-0.8,0.6-1.2,0.8l-0.5-0.1V109
				c0.5-0.3,0.9-0.6,1.3-0.9c-0.3-0.2-0.7-0.3-1.1-0.3c-0.9,0-1.7,0.4-2.3,1l-0.3-0.4c0.7-0.8,1.7-1.2,2.7-1.3c0.5,0,1,0.1,1.5,0.3
				c0.3-0.3,0.4-0.7,0.5-1.2h0.9c-0.1,0.6-0.4,1.1-0.9,1.6c0.5,0.5,0.8,1.2,0.7,1.9v4.9h-0.9L58.2,111.2z M54.5,113.4
				c-0.1,0.5,0.3,0.9,0.7,0.9c0,0,0,0,0,0h0c0.5,0,0.8-0.4,0.8-0.9l0,0c0-0.4-0.3-0.8-0.7-0.9h-0.1c-0.3,0-0.5,0.1-0.7,0.3
				C54.5,113.1,54.5,113.3,54.5,113.4L54.5,113.4z"/>
			<path class="st2" d="M62.9,106.9c0.6,0,1.1,0.2,1.6,0.4c0.3,0.2,0.6,0.3,0.9,0.3c0.3,0,0.6-0.2,0.8-0.5l0.3,0.4
				c-0.3,0.5-0.8,0.7-1.4,0.8c-0.5,0-0.9-0.1-1.3-0.3c-0.4-0.2-0.8-0.3-1.2-0.3c-0.5,0-0.9,0.3-1,0.8c2.1,0.2,2.9,0.4,3.6,0.9
				c0.6,0.5,0.9,1.2,0.8,1.9v1.6c0,1.2-0.6,2-1.7,2c-0.8,0-1.5-0.6-1.5-1.4c0,0,0,0,0,0v-0.1c0-0.8,0.6-1.5,1.5-1.5
				c0.3,0,0.5,0.1,0.7,0.3v-1c0-1.3-1.1-1.7-4.1-2c-0.1-1.1,0.7-2.1,1.8-2.2L62.9,106.9z M64.3,112.4c-0.5,0-0.9,0.4-0.9,0.9
				c0,0.5,0.3,1,0.8,1l0,0c0.5,0,0.9-0.4,0.9-0.9l0,0v-0.1c0-0.2,0-0.4-0.1-0.6C64.8,112.5,64.5,112.4,64.3,112.4"/>
			<path class="st2" d="M75,114.7l-2-5.7l-1.8,5.2c-0.1,0.3-0.3,0.5-0.6,0.5h-0.8v-4.8c-0.2,0.2-0.5,0.3-0.8,0.3
				c-0.8,0-1.4-0.6-1.4-1.4c0,0,0,0,0,0c0,0,0,0,0,0v-0.1c0-0.8,0.6-1.4,1.4-1.5h0.1c0.4,0,1.6,0.2,1.6,2v3.5c0,0.4,0,0.9-0.1,1.3
				l2.3-6.5h0.2l2.2,6.4c0-0.4-0.1-1-0.1-1.4v-10l0.9-0.4v12c0,0.3-0.1,0.7-0.5,0.7L75,114.7z M69.9,108.7c0.1-0.5-0.3-0.9-0.7-1
				c0,0,0,0,0,0l0,0h0c-0.5,0-0.9,0.4-0.9,0.9c0,0,0,0.1,0,0.1c-0.1,0.5,0.3,0.9,0.8,1H69c0.3,0,0.6-0.2,0.8-0.4
				C69.9,109.1,69.9,108.9,69.9,108.7L69.9,108.7z"/>
			<path class="st2" d="M75.6,118.8v-1.4c-0.2,0.1-0.4,0.1-0.6,0.1c-0.6,0-1-0.4-1-1c0-0.6,0.5-1.1,1.1-1.1c0,0,0,0,0,0h0.1
				c0.3,0,1.1,0.1,1.1,1.3v2L75.6,118.8z M75.6,116.5c0-0.3-0.2-0.6-0.5-0.6l0,0c-0.3,0-0.6,0.2-0.6,0.5c0,0,0,0,0,0v0
				c0,0,0,0.1,0,0.1c0,0.3,0.2,0.6,0.5,0.6H75c0.2,0,0.4-0.1,0.6-0.2C75.6,116.8,75.6,116.7,75.6,116.5L75.6,116.5z"/>
			<path class="st2" d="M80,114.7c-0.2-0.7-0.5-1.4-0.8-2.1c-0.4-0.8-0.7-1.7-0.7-2.6c-0.1-1.4,1-2.6,2.3-2.7c0.2,0,0.3,0.1,1.1,0.9
				c0.6-0.7,0.9-0.9,1-0.9c1.4,0.1,2.4,1.2,2.4,2.5v4.9h-0.9v-4.9c0-1.5-0.7-2-1.3-2c-0.4,0.3-0.8,0.6-1.2,1h-0.1
				c-0.7-0.7-1.1-1.1-1.2-1.1c-0.5,0-1.3,0.7-1.3,2.2c0.1,1.3,0.5,2.6,1.2,3.7c0.4-0.6,0.8-1,1.3-1.6c-0.7,0-1.3-0.6-1.3-1.4
				c0-0.8,0.7-1.5,1.5-1.4h0c0.7,0,1.4,0.6,1.4,1.3c0,0.5-0.2,1.1-0.6,1.5c-0.5,0.7-1.3,1.7-1.9,2.6L80,114.7z M82.7,110.5
				c0-0.4-0.3-0.8-0.7-0.8h-0.1c-0.5,0-0.9,0.4-0.9,0.9v0c0,0.5,0.4,0.9,0.9,0.9H82C82.3,111.6,82.7,111.1,82.7,110.5L82.7,110.5z"
				/>
			<path class="st2" d="M94.1,107.3L94.1,107.3l0.1,5.3c0,1.9-1.2,2.2-2.6,2.2H88l0.1-0.7h1.3v-4.2c-0.2,0.2-0.5,0.3-0.8,0.3
				c-0.8,0-1.4-0.6-1.4-1.4v-0.1c0-0.9,0.7-1.5,1.5-1.5c0,0,0,0,0,0c0.4,0,1.6,0.2,1.6,2v5h1.2c1.1,0,1.8-0.2,1.8-1.7v-4.7
				L94.1,107.3z M89.5,108.7c0.1-0.5-0.3-0.9-0.7-1l0,0h-0.1c-0.5,0-0.9,0.4-0.9,0.9v0.1c-0.1,0.5,0.3,0.9,0.8,1c0,0,0,0,0,0l0,0
				h0.1c0.3,0,0.6-0.1,0.8-0.4C89.5,109.1,89.5,108.9,89.5,108.7"/>
			<path class="st2" d="M96.1,108.4c0.7-0.8,1.8-1.2,2.8-1.2c1.4-0.1,2.6,0.9,2.7,2.2c0,0,0,0,0,0l0,0c0,0.1,0,0.3,0,0.4v3.1
				c0,1.2-1.2,2-2.7,2s-2.5-0.7-2.5-1.9v-2c0-1.2,0.6-1.9,1.6-1.9c0.7,0,1.3,0.6,1.4,1.3v0.1c0.1,0.7-0.5,1.4-1.2,1.4h-0.1
				c-0.3,0-0.5-0.1-0.7-0.2v1.1c-0.1,0.8,0.6,1.5,1.4,1.5c0.1,0,0.2,0,0.3,0c1,0,1.7-0.5,1.7-1.5v-3.1c0.1-1-0.6-1.9-1.6-2l-0.1,0
				c-0.1,0-0.3,0-0.4,0c-0.9,0-1.7,0.4-2.3,1L96.1,108.4z M98,111.4c0.5,0,0.8-0.4,0.8-0.8v0c0-0.5-0.3-0.9-0.8-0.9
				c-0.4,0-0.8,0.4-0.8,0.8l0,0c0,0.2,0,0.4,0.1,0.6C97.5,111.3,97.8,111.4,98,111.4L98,111.4z"/>
			<path class="st2" d="M108.7,111.2c-0.5-0.6-1.2-1-2-1.1c-1,0-1.6,0.7-1.6,1.8v0.4c0.2-0.2,0.5-0.3,0.8-0.3c0.7,0,1.3,0.6,1.3,1.3
				c0,0,0,0,0,0v0.1c0,0.8-0.6,1.4-1.4,1.4c0,0,0,0,0,0h0c-0.4,0-1.5-0.2-1.5-2.1v-0.7c-0.1-1.3,0.8-2.5,2.1-2.6c0,0,0,0,0,0
				c0.2,0,0.3,0,0.5,0c0.7,0,1.4,0.2,2,0.6v-0.4c0.1-1-0.6-1.8-1.6-1.9h-0.3c-0.9,0-1.7,0.4-2.3,1l-0.3-0.4c0.7-0.7,1.7-1.2,2.8-1.2
				c1.4-0.1,2.6,0.9,2.7,2.2c0,0.1,0,0.3,0,0.4v4.9h-0.9L108.7,111.2z M105,113.4c-0.1,0.5,0.3,0.9,0.7,0.9c0,0,0,0,0,0
				c0.5,0,0.8-0.4,0.8-0.9c0-0.4-0.3-0.8-0.7-0.9h-0.1c-0.3,0-0.5,0.1-0.7,0.3C105,113.1,105,113.3,105,113.4L105,113.4z"/>
			<path class="st2" d="M118.4,107.3L118.4,107.3l0.1,5.3c0,1.9-1.2,2.2-2.6,2.2h-3.6l0.1-0.7h1.3v-4.2c-0.2,0.2-0.5,0.3-0.8,0.3
				c-0.8,0-1.4-0.6-1.4-1.4c0,0,0,0,0,0v-0.1c0-0.8,0.7-1.5,1.5-1.5c0,0,0,0,0,0h0c0.4,0,1.6,0.2,1.6,2v5h1.2c1.1,0,1.8-0.2,1.8-1.7
				v-2.2c0-0.8,0-1.7-0.1-2.5L118.4,107.3z M113.7,108.7c0.1-0.5-0.3-0.9-0.7-1l0,0h-0.1c-0.5,0-0.9,0.4-0.9,0.9c0,0,0,0,0,0v0.1
				c-0.1,0.5,0.2,0.9,0.7,1l0,0h0.1c0.3,0,0.6-0.2,0.8-0.4C113.7,109.1,113.8,108.9,113.7,108.7"/>
			<path class="st2" d="M123.3,114.8v-5c0-1.5-0.8-2-1.6-2c-0.6,0-1.2,0.3-1.7,0.7l-0.3-0.4c0.6-0.6,1.4-0.9,2.2-0.9
				c1.3-0.1,2.3,0.9,2.4,2.2c0,0,0,0,0,0v0c0,0.1,0,0.3,0,0.4v4.9L123.3,114.8z"/>
			<path class="st2" d="M127.8,106.9c0.6,0,1.1,0.2,1.6,0.4c0.3,0.2,0.6,0.3,0.9,0.3c0.3,0,0.6-0.2,0.8-0.5l0.3,0.4
				c-0.3,0.5-0.8,0.7-1.4,0.8c-0.5,0-0.9-0.1-1.3-0.3c-0.4-0.2-0.8-0.3-1.2-0.3c-0.5,0-0.9,0.3-1,0.8c2,0.2,2.9,0.4,3.6,0.9
				c0.6,0.4,0.9,1.2,0.8,1.9v1.6c0,1.2-0.6,2-1.7,2c-0.8,0-1.5-0.6-1.5-1.4v-0.1c0-0.8,0.6-1.5,1.4-1.5h0c0.3,0,0.6,0.1,0.8,0.2v-1
				c0-1.3-1.1-1.7-4.1-2c-0.1-1.1,0.7-2.1,1.8-2.2c0,0,0,0,0,0l0,0L127.8,106.9z M129.2,112.4c-0.5,0-0.9,0.4-0.9,0.9
				c0,0.5,0.3,1,0.8,1h0.1c0.5,0,0.9-0.5,0.8-1c0,0,0,0,0,0c0,0,0,0,0,0c0-0.2,0-0.4-0.1-0.6C129.8,112.5,129.5,112.4,129.2,112.4"
				/>
			<path class="st2" d="M131,104c-0.3-0.2-0.7-0.3-1.1-0.4c-0.7,0-1.2,0.5-1.2,1.2c0,0,0,0,0,0v0.1c0,0.5,0.3,0.9,0.7,1
				c-0.1-0.1-0.2-0.4-0.2-0.6c0-0.4,0.3-0.8,0.7-0.8h0.1c0.4,0,0.8,0.3,0.8,0.8v0c0,0.6-0.4,1-1,1c0,0,0,0,0,0c0,0-0.1,0-0.1,0
				c-0.8,0.1-1.6-0.6-1.6-1.4v-0.1c0-0.9,0.7-1.6,1.6-1.7h0.1c0.4,0,0.7,0.1,1,0.3l0.6-2.1h0.9L131,104z M129.9,105
				c-0.2,0-0.4,0.2-0.4,0.4c0,0.2,0.2,0.5,0.4,0.5c0.3,0,0.5-0.2,0.5-0.5v0C130.4,105.2,130.2,105,129.9,105L129.9,105L129.9,105z"
				/>
			<path class="st2" d="M134.2,112.2c0.3-0.2,0.6-0.3,0.9-0.3c0.8,0,1.4,0.6,1.4,1.4c0,0,0,0.1,0,0.1c0,0.8-0.7,1.5-1.5,1.5
				c-0.4,0-1.7-0.2-1.7-2.1v-2.6c0-0.8,0-1.7-0.1-2.5l0.9-0.4L134.2,112.2z M134.1,113.3c0,0.5,0.3,1,0.8,1c0.5,0,0.9-0.4,0.9-0.9
				v-0.1c0.1-0.5-0.3-0.9-0.7-1c0,0,0,0,0,0l0,0h0c-0.3,0-0.6,0.2-0.8,0.4C134.1,112.9,134.1,113.1,134.1,113.3L134.1,113.3z"/>
			<path class="st2" d="M142.5,109c1.1-0.1,2-1.1,2.1-2.2h0.9c-0.1,1.1-0.8,2-1.8,2.4c1,0,1.7,0.9,1.7,1.8c0,0.1,0,0.1,0,0.2v1.8
				c0,1.7-1.1,1.8-2.4,1.8h-2.7l0.1-0.6h1.2v-5c0-1.4-0.5-1.5-0.7-1.5s-0.2,0.2-0.8,0.9H140c-0.6-0.7-0.8-0.9-0.8-0.9
				c-0.5,0.2-0.8,0.8-0.8,1.4c0,0.2,0,0.5,0.1,0.7c0.1-0.5,0.6-0.9,1.1-0.9c0.6,0,1.1,0.5,1.1,1.1v0c0,0.7-0.5,1.3-1.2,1.3h-0.1
				c-1.2-0.2-1.9-1.3-1.7-2.5c0.1-0.8,0.7-1.4,1.5-1.7c0.1,0,0.1,0.1,0.7,0.8c0.6-0.7,0.7-0.8,0.7-0.8
				C141.7,107.2,142.5,108,142.5,109 M139.5,110.9c0.4,0,0.8-0.4,0.7-0.8v0c0-0.4-0.3-0.7-0.6-0.7h-0.1c-0.4,0-0.7,0.4-0.8,0.8
				C138.8,110.6,139.1,110.9,139.5,110.9L139.5,110.9z M142.5,109.5v4.7h0.4c1.4,0,1.6-0.2,1.6-1.4V111
				C144.5,110.2,144.2,109.6,142.5,109.5L142.5,109.5z"/>
			<path class="st2" d="M146.7,102.1c0.5,0,1,0.1,1.5,0.4c0.3,0.2,0.6,0.3,1,0.3c0.3,0,0.6-0.2,0.8-0.5l0.3,0.4
				c-0.3,0.5-0.8,0.8-1.3,0.8c-0.5,0-0.9-0.1-1.4-0.3c-0.4-0.2-0.8-0.2-1.1-0.3c-0.5,0-0.9,0.3-1,0.8c1.1,0,2.1,0.3,3,0.8
				c0.5,0.4,0.5,0.8,0.5,1.9v5.8c0.3-0.2,0.6-0.3,0.9-0.3c0.8,0,1.4,0.6,1.4,1.4c0,0,0,0.1,0,0.1c0,0.8-0.7,1.5-1.5,1.5c0,0,0,0,0,0
				c-0.5,0-1.7-0.2-1.7-2.1v-6.8c0-1.2-0.4-1.6-3.3-1.9C144.8,103.1,145.6,102.1,146.7,102.1C146.8,102.1,146.8,102.1,146.7,102.1
				L146.7,102.1L146.7,102.1z M148.8,113.3c0,0.5,0.3,1,0.8,1c0.5,0,0.9-0.4,0.9-0.9v-0.1c0.1-0.5-0.3-0.9-0.7-1l0,0h-0.1
				c-0.3,0-0.6,0.2-0.8,0.4C148.8,112.9,148.8,113.1,148.8,113.3L148.8,113.3z"/>
			<path class="st2" d="M157.5,111.2c-0.5-0.6-1.2-1-2-1.1c-1,0-1.6,0.7-1.6,1.8v0.4c0.2-0.2,0.5-0.3,0.8-0.3c0.7,0,1.3,0.6,1.3,1.3
				c0,0,0,0,0,0v0.1c0,0.8-0.6,1.4-1.4,1.4c0,0,0,0,0,0h0c-0.4,0-1.5-0.2-1.5-2.1v-0.7c-0.1-1.3,0.8-2.5,2.1-2.6c0.2,0,0.3,0,0.5,0
				c0.7,0,1.4,0.2,1.9,0.6v-0.4c0.1-1-0.6-1.8-1.6-1.9h-0.3c-0.9,0-1.7,0.4-2.3,1l-0.3-0.4c0.7-0.7,1.7-1.2,2.8-1.2
				c1.4-0.1,2.6,0.9,2.7,2.2c0,0.1,0,0.3,0,0.4v4.9h-0.9L157.5,111.2z M153.9,113.4c-0.1,0.5,0.3,0.9,0.7,0.9c0,0,0,0,0,0
				c0.5,0,0.8-0.4,0.8-0.9c0-0.4-0.3-0.8-0.7-0.9h-0.1c-0.3,0-0.5,0.1-0.7,0.3C153.9,113.1,153.8,113.3,153.9,113.4L153.9,113.4z"/>
			<path class="st2" d="M167.1,107.3L167.1,107.3l0.1,4.4h0.3c0.9,0,1.7,0.6,1.7,1.5s-0.6,1.7-1.5,1.7l0,0c-0.9,0-1.4-0.6-1.4-2
				c0-0.1,0-0.3,0-0.4c-1.2,0.4-2.2,1.2-2.9,2.3h-0.9v-4.8c-0.2,0.2-0.5,0.3-0.8,0.3c-0.8,0-1.4-0.6-1.4-1.4v-0.1
				c0-0.8,0.7-1.5,1.5-1.6h0.1c0.4,0,1.6,0.2,1.6,2v4.6c0.8-0.9,1.7-1.5,2.8-1.9v-1.6c0-0.8,0-1.7-0.1-2.5L167.1,107.3z
				 M162.6,108.7c0.1-0.5-0.3-0.9-0.7-1l0,0h-0.1c-0.5,0-0.9,0.4-0.9,0.9v0.1c-0.1,0.5,0.3,0.9,0.8,1c0,0,0,0,0,0l0,0h0.1
				c0.3,0,0.6-0.2,0.8-0.4C162.6,109.1,162.6,108.9,162.6,108.7 M167.1,112.3c0,0.3-0.1,0.5-0.1,0.8c0,0.6,0.1,1.2,0.6,1.2
				s0.8-0.6,0.8-1.1c0.1-0.5-0.3-0.9-0.8-1h0c-0.1,0-0.1,0-0.2,0C167.4,112.3,167.2,112.3,167.1,112.3"/>
			<path class="st2" d="M173.2,114.8v-5c0-1.5-0.8-2-1.6-2c-0.6,0-1.2,0.3-1.7,0.7l-0.3-0.4c0.6-0.6,1.4-0.9,2.2-0.9
				c1.3-0.1,2.3,0.9,2.4,2.2c0,0,0,0,0,0v0c0,0.1,0,0.3,0,0.4v4.9L173.2,114.8z"/>
			<path class="st8" d="M7,0.1h57.8c3.8,0,7,3.1,7,7c0,0,0,0,0,0v57.8c0,3.8-3.1,7-7,7c0,0,0,0,0,0H7c-3.8,0-7-3.1-7-7c0,0,0,0,0,0
				V7.1C0,3.2,3.1,0.1,7,0.1C7,0.1,7,0.1,7,0.1"/>
			<rect x="14.2" y="45.5" class="st2" width="43.4" height="3.4"/>
			<polygon class="st2" points="26.1,28.3 26.1,24.8 14.2,24.8 14.2,41.2 18.6,41.2 18.6,35.3 25.3,35.3 25.3,31.8 18.6,31.8 
				18.6,28.3 			"/>
			<path class="st2" d="M39,32.7c1.5-0.5,2.6-2,2.6-3.6c0-2.6-2-4.2-5.3-4.2H28v16.4h8.5c3.6,0,5.8-1.7,5.8-4.6
				C42.2,34.7,40.9,33,39,32.7 M32.3,28.1h3.3c1.2,0,1.9,0.6,1.9,1.6c0,1-0.7,1.6-1.9,1.6h-3.3V28.1z M35.9,37.8h-3.6v-3.3h3.7
				c1.2,0,1.9,0.6,1.9,1.7C37.8,37.3,37.1,37.8,35.9,37.8L35.9,37.8z"/>
			<path class="st2" d="M52.7,31.2l-2-0.3c-1.9-0.3-2.5-0.8-2.5-1.7s0.8-1.5,2.4-1.5c1.3-0.2,2.5,0.7,2.7,2c0,0,0,0,0,0l4.1-0.5
				c-0.6-3.2-2.9-4.8-6.7-4.8c-4.2,0-7,2.1-7,5.3c0,2.8,1.7,4.4,5.1,4.9l2.1,0.3c2.2,0.3,2.7,0.8,2.7,1.8s-0.8,1.5-2.7,1.5
				c-1.4,0.1-2.7-0.8-3.1-2.2l-4.3,0.6c0.7,3.3,3.2,4.9,7.3,4.9c4.6,0,7.3-2,7.3-5.3C58.1,33.3,56.4,31.8,52.7,31.2"/>
		</g>
	</g>
</g>
</svg>
