<svg xmlns="http://www.w3.org/2000/svg" viewBox="0 0 162.74 113.56"><defs><style>.cls-1{fill:#fff;}.cls-2{fill:none;stroke:#fff;stroke-miterlimit:10;}.cls-3{fill:#231f20;}.cls-4{fill:#e8b909;}.cls-5{fill:#0054a4;}.cls-6{fill:#a30046;}.cls-7{fill:#fd0;}.cls-8{fill:#e31837;}</style></defs><title>TH_logo-without - vertical color (dark bg)</title><g id="Layer_2" data-name="Layer 2"><g id="LOGOS"><path class="cls-1" d="M8.12,93.73h-.7L5.55,88.4,3.82,93.29a.55.55,0,0,1-.59.44H2.48V89.18a1.27,1.27,0,0,1-.78.25A1.35,1.35,0,0,1,.35,88a1.46,1.46,0,0,1,1.5-1.43c.41,0,1.5.2,1.5,1.85v3.3A9.22,9.22,0,0,1,3.28,93l0,0,2.18-6.12h.15l2.11,6h0c0-.41,0-.94,0-1.35V89.45c0-.8,0-1.56-.05-2.36l.87-.39h0v6.37C8.6,93.38,8.53,93.73,8.12,93.73ZM2.6,88a.84.84,0,0,0-.79-.92A.87.87,0,0,0,.93,88a.83.83,0,0,0,.83.91,1.11,1.11,0,0,0,.75-.35A1.77,1.77,0,0,0,2.6,88Z"/><path class="cls-1" d="M10.83,83.47A2.84,2.84,0,0,1,8,85.78c-.82,0-2-.41-2-1.4a1,1,0,0,1,1.09-1,.91.91,0,0,1,1,.94,1.1,1.1,0,0,1-.52.91v0a1.79,1.79,0,0,0,.51.07,1.93,1.93,0,0,0,1.83-1.8ZM7,85a.67.67,0,0,0,.51-.68.48.48,0,0,0-.5-.51.5.5,0,0,0-.51.52A.7.7,0,0,0,7,85Z"/><path class="cls-1" d="M16.76,86.7h0v4.11a1.53,1.53,0,0,1,.27,0,1.45,1.45,0,0,1,1.56,1.5,1.43,1.43,0,0,1-1.39,1.55c-.82,0-1.34-.62-1.34-1.87,0-.11,0-.17,0-.38a5.68,5.68,0,0,0-2.7,2.14h-.8V89.18a1.27,1.27,0,0,1-.78.25A1.34,1.34,0,0,1,10.3,88a1.45,1.45,0,0,1,1.49-1.43c.41,0,1.5.2,1.5,1.85v4.32A6.1,6.1,0,0,1,15.94,91V89.45c0-.8,0-1.56,0-2.36ZM12.54,88a.83.83,0,0,0-.78-.92.87.87,0,0,0-.88.92.83.83,0,0,0,.83.91,1.11,1.11,0,0,0,.75-.35A1.79,1.79,0,0,0,12.54,88Zm4.25,3.41a4.2,4.2,0,0,0-.07.77c0,.54.12,1.14.62,1.14s.71-.56.71-1a.85.85,0,0,0-.94-.93A1.35,1.35,0,0,0,16.79,91.42Z"/><path class="cls-1" d="M21.14,93.16V88.53c-.44,0-.9-.08-1.46-.12a1.92,1.92,0,0,1,2-2.07c1,0,1.75.68,2.25.68a1.11,1.11,0,0,0,.8-.44L25,87a1.65,1.65,0,0,1-1.31.72c-.82,0-1.52-.57-2.35-.57a.92.92,0,0,0-1,.84c3.12.25,4.45.47,4.45,2.34V92c0,1.59-1,1.71-2.31,1.71H20.09l.07-.57Zm1.23,0c1.27,0,1.49-.19,1.49-1.36V90.16c0-.83-.18-1.25-1.85-1.51v4.51Z"/><path class="cls-1" d="M32.21,92.75v-3.3c0-.8,0-1.56-.05-2.36L33,86.7h0v7h-.8a5.82,5.82,0,0,0-2.72-2v.16c0,1.12-.41,1.95-1.46,1.95a1.3,1.3,0,0,1-1.33-1.37A1.49,1.49,0,0,1,28.4,91h.29V89.18a1.27,1.27,0,0,1-.78.25A1.34,1.34,0,0,1,26.57,88a1.45,1.45,0,0,1,1.49-1.43c.41,0,1.5.2,1.5,1.85v2.69A6.17,6.17,0,0,1,32.21,92.75ZM28.81,88a.83.83,0,0,0-.78-.92.87.87,0,0,0-.89.92.83.83,0,0,0,.84.91,1.11,1.11,0,0,0,.75-.35A1.79,1.79,0,0,0,28.81,88Zm-1.44,4.41a.81.81,0,0,0,.74.91c.5,0,.68-.5.68-1a5.23,5.23,0,0,0-.08-.75,1.51,1.51,0,0,0-.34,0A.88.88,0,0,0,27.37,92.42Z"/><path class="cls-1" d="M31.14,82.72A2.27,2.27,0,0,1,33.45,85a1.93,1.93,0,0,1-.2.85,8.83,8.83,0,0,0-4.42-1.09A2.18,2.18,0,0,1,31.14,82.72ZM33,85.1a2,2,0,0,0-2.14-1.7,1.58,1.58,0,0,0-1.51.8A9.3,9.3,0,0,1,33,85.1Z"/><path class="cls-1" d="M36.56,93.73a17.66,17.66,0,0,0-.78-2,6.08,6.08,0,0,1-.66-2.48,2.47,2.47,0,0,1,2.19-2.56c.19,0,.26.06,1,.83h0c.58-.63.88-.83,1-.83a2.31,2.31,0,0,1,2.22,2.41v4.62h-.86v-4.6c0-1.45-.68-1.92-1.21-1.92-.1,0-.46.3-1.1,1h-.09c-.7-.66-1-1-1.17-1-.51,0-1.19.66-1.19,2.07a9,9,0,0,0,1,3.51h0c.39-.55.73-1,1.19-1.55A1.31,1.31,0,0,1,37,89.93a1.37,1.37,0,0,1,1.39-1.36,1.27,1.27,0,0,1,1.31,1.29,2.18,2.18,0,0,1-.56,1.39c-.51.68-1.26,1.57-1.84,2.48Zm2.55-3.94a.72.72,0,0,0-.75-.76.84.84,0,0,0-.81.85.87.87,0,0,0,.92.86C38.7,90.74,39.11,90.32,39.11,89.79Z"/><path class="cls-1" d="M45,86.34a3.31,3.31,0,0,1,1.51.39,2.44,2.44,0,0,0,.85.29,1.16,1.16,0,0,0,.8-.44l.29.37a1.63,1.63,0,0,1-1.31.72,3.94,3.94,0,0,1-1.24-.29,3.4,3.4,0,0,0-1.15-.28.9.9,0,0,0-1,.79c1.94.22,2.75.37,3.37.83a2,2,0,0,1,.76,1.77V92c0,1.14-.58,1.85-1.56,1.85a1.38,1.38,0,0,1-1.43-1.41A1.41,1.41,0,0,1,46.25,91a1.16,1.16,0,0,1,.73.24v-1c0-1.21-1.07-1.6-3.87-1.85A1.91,1.91,0,0,1,45,86.34Zm1.33,5.17a.85.85,0,0,0-.85.88.87.87,0,0,0,.85,1,.85.85,0,0,0,.8-.92,1.82,1.82,0,0,0-.07-.56A1,1,0,0,0,46.29,91.51Z"/><path class="cls-1" d="M54.34,93.85c0-.8,0-1.58,0-2.38V89.25a1.9,1.9,0,0,0-1.93-2.15,2,2,0,0,0-2,1.18l1.92.44-.17.48a1.25,1.25,0,0,0-1.2,1.42v3.11h-.87V90.84a1.72,1.72,0,0,1,1.17-1.78v0l-1.6-.3a2.64,2.64,0,0,1,2.83-2.16c1.9,0,2.68,1.22,2.68,2.89v4l-.81.37Z"/><path class="cls-1" d="M59.89,93.73V89c0-1.38-.79-1.87-1.55-1.87a2.34,2.34,0,0,0-1.58.68l-.31-.37a3,3,0,0,1,2.06-.85,2.18,2.18,0,0,1,2.24,2.5v4.65Z"/><path class="cls-1" d="M64.15,86.34a3.39,3.39,0,0,1,1.52.39,2.31,2.31,0,0,0,.85.29,1.16,1.16,0,0,0,.8-.44l.28.37a1.62,1.62,0,0,1-1.3.72,3.94,3.94,0,0,1-1.25-.29,3.34,3.34,0,0,0-1.15-.28.91.91,0,0,0-1,.79c1.94.22,2.76.37,3.37.83A2,2,0,0,1,67,90.49V92c0,1.14-.57,1.85-1.56,1.85a1.38,1.38,0,0,1-1.43-1.41A1.41,1.41,0,0,1,65.44,91a1.19,1.19,0,0,1,.74.24v-1c0-1.21-1.08-1.6-3.88-1.85A1.91,1.91,0,0,1,64.15,86.34Zm1.33,5.17a.86.86,0,0,0-.85.88.87.87,0,0,0,.85,1,.85.85,0,0,0,.8-.92,1.82,1.82,0,0,0-.07-.56A1,1,0,0,0,65.48,91.51Z"/><path class="cls-1" d="M75.24,93.73h-.87V89.25A2.09,2.09,0,0,0,72,87.09a2.16,2.16,0,0,0-2.27,2.34,11,11,0,0,0,.47,2.72h0A7.58,7.58,0,0,1,71,89.21a1.35,1.35,0,0,1,1.13-.63,1.24,1.24,0,0,1,1.29,1.31,1.28,1.28,0,0,1-1.31,1.33,1.37,1.37,0,0,1-.94-.38,9.16,9.16,0,0,0-.47,2.89h-.78a7.23,7.23,0,0,0-.5-2,7.31,7.31,0,0,1-.51-2.33c0-1.76,1.4-2.78,3.17-2.78,2.27,0,3.16,1.22,3.16,2.89Zm-3.1-3a.87.87,0,0,0,.79-.88.8.8,0,0,0-.77-.82.93.93,0,0,0-.85,1A.82.82,0,0,0,72.14,90.74Z"/><path class="cls-1" d="M72.16,85.32a1.47,1.47,0,0,0,.88-.54,1,1,0,0,1-1-1,1.06,1.06,0,0,1,1-1,1,1,0,0,1,1,1,1.75,1.75,0,0,1-.7,1.32l0,0a2.38,2.38,0,0,0,1.87-2.28h.83a3.18,3.18,0,0,1-1.53,2.35,6.84,6.84,0,0,1-2.45.59Zm.34-1.58a.64.64,0,0,0,.63.61.51.51,0,0,0,.36-.17.71.71,0,0,0,.13-.46.54.54,0,0,0-.56-.54A.55.55,0,0,0,72.5,83.74Z"/><path class="cls-1" d="M79.83,93.73V89c0-1.38-.79-1.87-1.55-1.87a2.36,2.36,0,0,0-1.58.68l-.31-.37a3,3,0,0,1,2.06-.85,2.18,2.18,0,0,1,2.24,2.5v4.65Z"/><path class="cls-1" d="M82.56,87.68a3.83,3.83,0,0,1,2.66-1.1,2.37,2.37,0,0,1,2.58,2.5V92c0,1.17-1.11,1.85-2.57,1.85s-2.34-.61-2.34-1.83V90.18c0-1.12.59-1.82,1.54-1.82a1.34,1.34,0,0,1,0,2.67,1.45,1.45,0,0,1-.7-.17v1c0,1,.62,1.45,1.57,1.45s1.61-.46,1.61-1.45V89a1.68,1.68,0,0,0-1.85-1.83,3.24,3.24,0,0,0-2.19.91Zm1.81,2.86a.77.77,0,0,0,.74-.84.74.74,0,0,0-.73-.84.77.77,0,0,0-.74.84,2.55,2.55,0,0,0,.06.55A.88.88,0,0,0,84.37,90.54Z"/><path class="cls-1" d="M92.24,93.85c-1.33,0-2.35-.66-2.35-1.88v-.09a1.41,1.41,0,0,1,1.16-1.44v0a1.61,1.61,0,0,1-1.21-1.77v-.18c0-.94.46-1.87,1.55-1.87a1.22,1.22,0,0,1,1.25,1.29,1.32,1.32,0,0,1-2,1.14c0,.78.38,1,1.26,1h.48v.58h-.67c-.56,0-.9.37-.9,1.1V92c0,.94.63,1.36,1.53,1.36S93.9,92.9,93.9,92V89.45c0-.8,0-1.56-.05-2.36l.87-.39h0V92C94.77,93.12,93.68,93.85,92.24,93.85Zm-.92-6.76a.78.78,0,0,0-.75.85.71.71,0,0,0,.75.78.75.75,0,0,0,.75-.8A.76.76,0,0,0,91.32,87.09Z"/><path class="cls-1" d="M94.12,85.76l-.37-3h1.1l-.37,2.91-.32.13Z"/><path class="cls-1" d="M99.39,93.73V89c0-1.38-.78-1.87-1.54-1.87a2.34,2.34,0,0,0-1.58.68L96,87.43A2.94,2.94,0,0,1,98,86.58a2.18,2.18,0,0,1,2.24,2.5v4.65Z"/><path class="cls-1" d="M101.47,89.43a17.1,17.1,0,0,1,3.67,3.73c.3,0,.34-.16.34-1v-3a1.27,1.27,0,0,1-.78.25A1.35,1.35,0,0,1,103.35,88a1.46,1.46,0,0,1,1.5-1.43c.41,0,1.5.2,1.5,1.85V92c0,1.32-.11,1.76-1.19,1.76h-.38a18.23,18.23,0,0,0-3.67-3.79ZM105.6,88a.84.84,0,0,0-.78-.92.87.87,0,0,0-.89.92.83.83,0,0,0,.83.91,1.11,1.11,0,0,0,.75-.35A1.77,1.77,0,0,0,105.6,88Z"/><path class="cls-1" d="M109.59,91.25a1.56,1.56,0,0,1,.85-.25,1.32,1.32,0,0,1,1.31,1.42,1.42,1.42,0,0,1-1.46,1.43c-.41,0-1.56-.2-1.56-2V89.45c0-.8,0-1.56,0-2.36l.86-.39h0Zm-.07,1.12a.87.87,0,0,0,.84,1,.85.85,0,0,0,.81-.92.82.82,0,0,0-.83-.91,1.11,1.11,0,0,0-.75.35A1.7,1.7,0,0,0,109.52,92.37Z"/><path class="cls-1" d="M119.55,81.73h.06v9.93c0,1.79-1.13,2.07-2.45,2.07h-3.35l.07-.61h1.19V89.18a1.27,1.27,0,0,1-.78.25A1.34,1.34,0,0,1,112.94,88a1.45,1.45,0,0,1,1.5-1.43c.41,0,1.49.2,1.49,1.85v4.69h1.14c1,0,1.67-.24,1.67-1.58V85.39c0-1.11,0-2.16,0-3.27ZM115.19,88a.84.84,0,0,0-.79-.92.87.87,0,0,0-.88.92.83.83,0,0,0,.83.91,1.11,1.11,0,0,0,.75-.35A1.77,1.77,0,0,0,115.19,88Z"/><path class="cls-1" d="M118.25,85h0a.66.66,0,0,1,0-.11.78.78,0,0,1,.8-.81.84.84,0,0,1,.86.85.88.88,0,0,1-.92,1,1.22,1.22,0,0,1-1-.58,3.8,3.8,0,0,0-.7-.76v1l-.24.26A2.37,2.37,0,0,1,116,84a1.4,1.4,0,0,1,1.41-1.35c.85,0,1.62.59,2,.59a.7.7,0,0,0,.64-.53l.24.24a1,1,0,0,1-1,.77c-.61,0-1.29-.5-2-.5a.83.83,0,0,0-.92.82,1.33,1.33,0,0,0,.51,1l0,0v-.92l.24-.25A3.26,3.26,0,0,1,118.25,85Zm.73.48a.5.5,0,0,0,0-1,.44.44,0,0,0-.46.45.82.82,0,0,0,.12.45A.54.54,0,0,0,119,85.44Z"/><path class="cls-1" d="M127.82,86.7h.05v4.11a1.53,1.53,0,0,1,.27,0,1.45,1.45,0,0,1,1.56,1.5,1.43,1.43,0,0,1-1.39,1.55c-.82,0-1.34-.62-1.34-1.87,0-.11,0-.17,0-.38a5.68,5.68,0,0,0-2.7,2.14h-.8V89.18a1.27,1.27,0,0,1-.78.25A1.34,1.34,0,0,1,121.36,88a1.45,1.45,0,0,1,1.49-1.43c.41,0,1.5.2,1.5,1.85v4.32A6.1,6.1,0,0,1,127,91V89.45c0-.8,0-1.56,0-2.36ZM123.6,88a.83.83,0,0,0-.78-.92.87.87,0,0,0-.89.92.83.83,0,0,0,.84.91,1.11,1.11,0,0,0,.75-.35A1.79,1.79,0,0,0,123.6,88Zm4.25,3.41a4.2,4.2,0,0,0-.07.77c0,.54.12,1.14.61,1.14s.72-.56.72-1a.85.85,0,0,0-.94-.93A1.35,1.35,0,0,0,127.85,91.42Z"/><path class="cls-1" d="M133.65,92h0c.77-2.14,1.33-3.38,1.67-4.11.47-1,.86-1.29,1.37-1.29.67,0,1.18.49,1.18,1.73v5.42H137V88.36c0-.93-.17-1.14-.42-1.14s-.43.17-.75.87a51.87,51.87,0,0,0-2.21,5.64h-.8V89.18a1.27,1.27,0,0,1-.78.25A1.35,1.35,0,0,1,130.72,88a1.46,1.46,0,0,1,1.5-1.43c.41,0,1.5.2,1.5,1.85v2.31A10.14,10.14,0,0,1,133.65,92ZM133,88a.84.84,0,0,0-.78-.92.87.87,0,0,0-.89.92.83.83,0,0,0,.84.91,1.1,1.1,0,0,0,.74-.35A1.77,1.77,0,0,0,133,88Z"/><path class="cls-1" d="M142.52,93.73V89c0-1.38-.78-1.87-1.55-1.87a2.38,2.38,0,0,0-1.58.68l-.3-.37a2.93,2.93,0,0,1,2-.85,2.19,2.19,0,0,1,2.25,2.5v4.65Z"/><path class="cls-1" d="M144.6,89.43a17.1,17.1,0,0,1,3.67,3.73c.3,0,.34-.16.34-1v-3a1.27,1.27,0,0,1-.78.25A1.35,1.35,0,0,1,146.48,88a1.46,1.46,0,0,1,1.5-1.43c.41,0,1.49.2,1.49,1.85V92c0,1.32-.1,1.76-1.19,1.76h-.37a18.23,18.23,0,0,0-3.67-3.79ZM148.73,88a.84.84,0,0,0-.79-.92.87.87,0,0,0-.88.92.83.83,0,0,0,.83.91,1.11,1.11,0,0,0,.75-.35A1.77,1.77,0,0,0,148.73,88Z"/><path class="cls-1" d="M156.14,93.85c0-.8.05-1.58.05-2.38V89.25a1.9,1.9,0,0,0-1.94-2.15,2,2,0,0,0-1.95,1.18l1.92.44-.17.48a1.26,1.26,0,0,0-1.21,1.42v3.11H152V90.84a1.71,1.71,0,0,1,1.18-1.78v0l-1.6-.3a2.64,2.64,0,0,1,2.82-2.16c1.9,0,2.69,1.22,2.69,2.89v4l-.82.37Z"/><path class="cls-1" d="M161.68,93.73V89c0-1.38-.78-1.87-1.55-1.87a2.38,2.38,0,0,0-1.58.68l-.3-.37a2.93,2.93,0,0,1,2.05-.85,2.19,2.19,0,0,1,2.25,2.5v4.65Z"/><path class="cls-1" d="M1.86,102.34a3.38,3.38,0,0,1,1.51.39,2.31,2.31,0,0,0,.85.29,1.16,1.16,0,0,0,.8-.44l.29.37a1.65,1.65,0,0,1-1.31.72,3.94,3.94,0,0,1-1.24-.29,3.4,3.4,0,0,0-1.16-.28.89.89,0,0,0-1,.79c1.93.22,2.75.37,3.36.83a2,2,0,0,1,.77,1.77V108c0,1.14-.58,1.85-1.57,1.85a1.37,1.37,0,0,1-1.42-1.41A1.4,1.4,0,0,1,3.15,107a1.18,1.18,0,0,1,.73.24v-1c0-1.21-1.07-1.6-3.88-1.85A1.92,1.92,0,0,1,1.86,102.34Zm1.32,5.17a.86.86,0,0,0-.85.88.88.88,0,0,0,.85,1,.85.85,0,0,0,.8-.92,1.82,1.82,0,0,0-.07-.56A1,1,0,0,0,3.18,107.51Z"/><path class="cls-1" d="M12.63,102.7v5.5a1.62,1.62,0,0,1-1.75,1.65,1.56,1.56,0,0,1-1.68-1.63V104.5c0-1.24-.8-1.45-1.21-1.45a1.36,1.36,0,0,0-1.27.94,1.46,1.46,0,0,1,.68-.19,1.08,1.08,0,0,1,1.1,1.11,1.19,1.19,0,0,1-1.2,1.25c-.87,0-1.28-.68-1.28-1.49a2.05,2.05,0,0,1,2-2.11,1.92,1.92,0,0,1,2,2.07v3.56c0,.93.42,1.17.85,1.17s.85-.25.85-1.14v-2.77c0-.8,0-1.56,0-2.36l.86-.39Zm-5.32,1.54a1,1,0,0,0-.73.33c0,.56.16,1.13.75,1.13a.71.71,0,0,0,.68-.76A.68.68,0,0,0,7.31,104.24Z"/><path class="cls-1" d="M14.5,103.68a3.83,3.83,0,0,1,2.66-1.1,2.37,2.37,0,0,1,2.58,2.5V108c0,1.17-1.1,1.85-2.57,1.85s-2.34-.61-2.34-1.83v-1.84c0-1.12.59-1.82,1.54-1.82a1.34,1.34,0,0,1,0,2.67,1.48,1.48,0,0,1-.7-.17v1c0,1,.62,1.45,1.57,1.45s1.61-.46,1.61-1.45V105A1.68,1.68,0,0,0,17,103.16a3.24,3.24,0,0,0-2.19.91Zm1.81,2.86a.77.77,0,0,0,.74-.84.74.74,0,0,0-.73-.84.77.77,0,0,0-.74.84,2.55,2.55,0,0,0,.06.55A.88.88,0,0,0,16.31,106.54Z"/><path class="cls-1" d="M21,105.43a17.1,17.1,0,0,1,3.67,3.73c.31,0,.34-.16.34-1v-3a1.27,1.27,0,0,1-.78.25A1.35,1.35,0,0,1,22.83,104a1.46,1.46,0,0,1,1.5-1.43c.41,0,1.5.2,1.5,1.85V108c0,1.32-.11,1.76-1.19,1.76h-.38a18.23,18.23,0,0,0-3.67-3.79ZM25.08,104a.84.84,0,0,0-.78-.92.87.87,0,0,0-.89.92.83.83,0,0,0,.84.91,1.1,1.1,0,0,0,.74-.35A1.77,1.77,0,0,0,25.08,104Z"/><path class="cls-1" d="M32.41,106.33a2.82,2.82,0,0,0-1.93-1c-.95,0-1.47.63-1.47,1.68v.43a1.37,1.37,0,0,1,.78-.26A1.23,1.23,0,0,1,31,108.51a1.36,1.36,0,0,1-1.41,1.34c-.41,0-1.45-.17-1.45-1.95v-.65a2.22,2.22,0,0,1,2.4-2.46,3.21,3.21,0,0,1,1.84.54V105a2,2,0,0,0-.38-1.24,11.92,11.92,0,0,1-1.09.75l-.51-.12v-.07a6.57,6.57,0,0,0,1.21-.88,2,2,0,0,0-1.05-.27,3.18,3.18,0,0,0-2.15.91l-.32-.39a3.74,3.74,0,0,1,2.6-1.1,3.24,3.24,0,0,1,1.4.32,2.41,2.41,0,0,0,.44-1.1h.88a2.79,2.79,0,0,1-.83,1.46,2.39,2.39,0,0,1,.66,1.82v4.65h-.86Zm-3.47,2.15a.74.74,0,1,0,1.46,0,.75.75,0,0,0-.75-.82A.91.91,0,0,0,29,108,1.11,1.11,0,0,0,28.94,108.48Z"/><path class="cls-1" d="M34.65,97.75a2.93,2.93,0,0,1,1.39.36,2.25,2.25,0,0,0,.94.3,1,1,0,0,0,.73-.44l.27.34a1.41,1.41,0,0,1-1.24.72,4,4,0,0,1-1.27-.29,3.41,3.41,0,0,0-1.09-.26.9.9,0,0,0-1,.73,5.19,5.19,0,0,1,2.82.78c.46.43.51.8.51,1.81v5.45a1.56,1.56,0,0,1,.85-.25,1.32,1.32,0,0,1,1.31,1.42,1.42,1.42,0,0,1-1.46,1.43c-.46,0-1.56-.2-1.56-2v-6.37c0-1.16-.36-1.53-3.1-1.79A1.92,1.92,0,0,1,34.65,97.75Zm2,10.62a.87.87,0,0,0,.83,1,.85.85,0,0,0,.81-.92.83.83,0,0,0-.83-.91,1.11,1.11,0,0,0-.75.35A1.7,1.7,0,0,0,36.66,108.37Z"/><path class="cls-1" d="M45.77,108.75v-3.3c0-.8,0-1.56-.05-2.36l.86-.39h.05v7h-.79a5.84,5.84,0,0,0-2.73-2v.16c0,1.12-.4,1.95-1.46,1.95a1.3,1.3,0,0,1-1.32-1.37A1.49,1.49,0,0,1,42,107h.29v-1.78a1.27,1.27,0,0,1-.78.25A1.35,1.35,0,0,1,40.12,104a1.46,1.46,0,0,1,1.5-1.43c.41,0,1.49.2,1.49,1.85v2.69A6.15,6.15,0,0,1,45.77,108.75ZM42.37,104a.84.84,0,0,0-.78-.92.87.87,0,0,0-.89.92.83.83,0,0,0,.83.91,1.11,1.11,0,0,0,.75-.35A1.77,1.77,0,0,0,42.37,104Zm-1.45,4.41a.81.81,0,0,0,.75.91c.49,0,.68-.5.68-1a4.06,4.06,0,0,0-.09-.75,1.43,1.43,0,0,0-.33,0A.89.89,0,0,0,40.92,108.42Z"/><path class="cls-1" d="M53.21,106.33a2.82,2.82,0,0,0-1.92-1c-.95,0-1.48.63-1.48,1.68v.43a1.4,1.4,0,0,1,.79-.26,1.23,1.23,0,0,1,1.24,1.33,1.36,1.36,0,0,1-1.41,1.34c-.41,0-1.45-.17-1.45-1.95v-.65a2.22,2.22,0,0,1,2.4-2.46,3.15,3.15,0,0,1,1.83.54V105a2,2,0,0,0-.37-1.24,11.92,11.92,0,0,1-1.09.75l-.51-.12v-.07a6.57,6.57,0,0,0,1.21-.88,2,2,0,0,0-1.06-.27,3.18,3.18,0,0,0-2.14.91l-.32-.39a3.74,3.74,0,0,1,2.6-1.1,3.17,3.17,0,0,1,1.39.32,2.43,2.43,0,0,0,.45-1.1h.88a2.79,2.79,0,0,1-.83,1.46,2.39,2.39,0,0,1,.66,1.82v4.65h-.87Zm-3.46,2.15a.74.74,0,1,0,1.46,0,.75.75,0,0,0-.75-.82,1,1,0,0,0-.65.33A1.32,1.32,0,0,0,49.75,108.48Z"/><path class="cls-1" d="M57.6,102.34a3.34,3.34,0,0,1,1.51.39A2.31,2.31,0,0,0,60,103a1.16,1.16,0,0,0,.8-.44l.29.37a1.64,1.64,0,0,1-1.31.72,3.94,3.94,0,0,1-1.24-.29,3.4,3.4,0,0,0-1.16-.28.9.9,0,0,0-1,.79c1.94.22,2.75.37,3.36.83a2,2,0,0,1,.77,1.77V108c0,1.14-.58,1.85-1.56,1.85a1.38,1.38,0,0,1-1.43-1.41A1.41,1.41,0,0,1,58.89,107a1.16,1.16,0,0,1,.73.24v-1c0-1.21-1.07-1.6-3.87-1.85A1.91,1.91,0,0,1,57.6,102.34Zm1.33,5.17a.85.85,0,0,0-.85.88.87.87,0,0,0,.85,1,.85.85,0,0,0,.79-.92,1.85,1.85,0,0,0-.06-.56A1,1,0,0,0,58.93,107.51Z"/><path class="cls-1" d="M69.09,109.73l-1.87-5.33-1.73,4.89a.57.57,0,0,1-.6.44h-.75v-4.55a1.25,1.25,0,0,1-.78.25A1.34,1.34,0,0,1,62,104a1.45,1.45,0,0,1,1.49-1.43c.41,0,1.5.2,1.5,1.85v3.3a9.22,9.22,0,0,1-.07,1.22l0,0,2.17-6.12h.16l2.1,6h0c0-.41,0-.94,0-1.35v-6.13c0-1.11,0-2.16-.05-3.27l.86-.39h.05v11.34c0,.31-.07.66-.47.66ZM64.26,104a.83.83,0,0,0-.78-.92.87.87,0,0,0-.88.92.83.83,0,0,0,.83.91,1.11,1.11,0,0,0,.75-.35A1.79,1.79,0,0,0,64.26,104Z"/><path class="cls-1" d="M69.58,113.56v-1.29a1.15,1.15,0,0,1-.56.13.93.93,0,0,1-1-1,1,1,0,0,1,1.09-1c.27,0,1.07.1,1.07,1.26v1.87Zm.07-2.13a.55.55,0,1,0-1.1,0c0,.33.15.58.54.58a.9.9,0,0,0,.53-.19A2.06,2.06,0,0,0,69.65,111.43Z"/><path class="cls-1" d="M73.8,109.73a17.66,17.66,0,0,0-.78-2,5.94,5.94,0,0,1-.67-2.48,2.47,2.47,0,0,1,2.2-2.56c.18,0,.25.06,1,.83h0c.57-.63.88-.83,1-.83a2.31,2.31,0,0,1,2.23,2.41v4.62H78v-4.6c0-1.45-.68-1.92-1.2-1.92-.1,0-.46.3-1.11,1h-.08c-.7-.66-1-1-1.18-1-.5,0-1.19.66-1.19,2.07a9.22,9.22,0,0,0,1,3.51h0c.39-.55.73-1,1.19-1.55a1.31,1.31,0,0,1-1.23-1.29,1.38,1.38,0,0,1,1.4-1.36,1.27,1.27,0,0,1,1.31,1.29,2.18,2.18,0,0,1-.56,1.39c-.51.68-1.26,1.57-1.84,2.48Zm2.55-3.94a.72.72,0,0,0-.75-.76.83.83,0,0,0-.81.85.86.86,0,0,0,.91.86C75.94,106.74,76.35,106.32,76.35,105.79Z"/><path class="cls-1" d="M87.11,102.7h0v5c0,1.79-1.12,2.07-2.45,2.07H81.36l.07-.61h1.19v-3.94a1.25,1.25,0,0,1-.78.25A1.34,1.34,0,0,1,80.5,104,1.45,1.45,0,0,1,82,102.58c.41,0,1.5.2,1.5,1.85v4.69h1.14c1,0,1.66-.24,1.66-1.58v-2.09c0-.8,0-1.56-.05-2.36ZM82.74,104a.83.83,0,0,0-.78-.92.87.87,0,0,0-.88.92.82.82,0,0,0,.83.91,1.11,1.11,0,0,0,.75-.35A1.79,1.79,0,0,0,82.74,104Z"/><path class="cls-1" d="M89,103.68a3.83,3.83,0,0,1,2.65-1.1,2.37,2.37,0,0,1,2.59,2.5V108c0,1.17-1.11,1.85-2.57,1.85s-2.35-.61-2.35-1.83v-1.84c0-1.12.6-1.82,1.55-1.82a1.34,1.34,0,0,1,0,2.67,1.45,1.45,0,0,1-.7-.17v1c0,1,.61,1.45,1.57,1.45s1.61-.46,1.61-1.45V105a1.68,1.68,0,0,0-1.85-1.83,3.28,3.28,0,0,0-2.2.91Zm1.8,2.86a.77.77,0,0,0,.75-.84.74.74,0,0,0-.73-.84.78.78,0,0,0-.75.84,2.47,2.47,0,0,0,.07.55A.87.87,0,0,0,90.83,106.54Z"/><path class="cls-1" d="M100.85,106.33a2.82,2.82,0,0,0-1.92-1c-1,0-1.48.63-1.48,1.68v.43a1.37,1.37,0,0,1,.78-.26,1.23,1.23,0,0,1,1.24,1.33,1.36,1.36,0,0,1-1.41,1.34c-.41,0-1.45-.17-1.45-1.95v-.65a2.22,2.22,0,0,1,2.4-2.46,3.18,3.18,0,0,1,1.84.54V105A1.67,1.67,0,0,0,99,103.16a3.14,3.14,0,0,0-2.14.91l-.33-.39a3.76,3.76,0,0,1,2.6-1.1,2.34,2.34,0,0,1,2.55,2.5v4.65h-.86Zm-3.47,2.15a.74.74,0,1,0,1.46,0,.74.74,0,0,0-.75-.82.91.91,0,0,0-.64.33A1.31,1.31,0,0,0,97.38,108.48Z"/><path class="cls-1" d="M110,102.7h0v5c0,1.79-1.13,2.07-2.45,2.07h-3.35l.07-.61h1.19v-3.94a1.27,1.27,0,0,1-.78.25,1.35,1.35,0,0,1-1.35-1.42,1.46,1.46,0,0,1,1.5-1.43c.41,0,1.5.2,1.5,1.85v4.69h1.13c1,0,1.67-.24,1.67-1.58v-2.09c0-.8,0-1.56,0-2.36ZM105.66,104a.84.84,0,0,0-.78-.92.87.87,0,0,0-.89.92.83.83,0,0,0,.83.91,1.11,1.11,0,0,0,.75-.35A1.77,1.77,0,0,0,105.66,104Z"/><path class="cls-1" d="M114.7,109.73V105c0-1.38-.78-1.87-1.55-1.87a2.38,2.38,0,0,0-1.58.68l-.3-.37a2.93,2.93,0,0,1,2-.85,2.19,2.19,0,0,1,2.25,2.5v4.65Z"/><path class="cls-1" d="M119,102.34a3.38,3.38,0,0,1,1.51.39,2.31,2.31,0,0,0,.85.29,1.16,1.16,0,0,0,.8-.44l.29.37a1.65,1.65,0,0,1-1.31.72,3.94,3.94,0,0,1-1.24-.29,3.4,3.4,0,0,0-1.16-.28.9.9,0,0,0-1,.79c1.94.22,2.75.37,3.36.83a2,2,0,0,1,.77,1.77V108c0,1.14-.58,1.85-1.57,1.85a1.37,1.37,0,0,1-1.42-1.41,1.4,1.4,0,0,1,1.39-1.44,1.18,1.18,0,0,1,.73.24v-1c0-1.21-1.07-1.6-3.88-1.85A1.92,1.92,0,0,1,119,102.34Zm1.32,5.17a.86.86,0,0,0-.85.88.88.88,0,0,0,.85,1,.85.85,0,0,0,.8-.92,1.56,1.56,0,0,0-.07-.56A1,1,0,0,0,120.29,107.51Z"/><path class="cls-1" d="M122,99.55a2,2,0,0,0-1-.34,1.14,1.14,0,0,0-1.16,1.23.93.93,0,0,0,.68,1,.76.76,0,0,1-.22-.53.71.71,0,0,1,.76-.73.75.75,0,0,1,.8.74c0,.58-.42.91-1.07.91a1.44,1.44,0,0,1-1.53-1.43,1.55,1.55,0,0,1,1.58-1.57,2.12,2.12,0,0,1,1,.26l.59-2h.8Zm-1,1a.41.41,0,0,0-.41.43.51.51,0,0,0,.38.51.46.46,0,0,0,.47-.48A.44.44,0,0,0,120.94,100.5Z"/><path class="cls-1" d="M124.93,107.25a1.56,1.56,0,0,1,.85-.25,1.32,1.32,0,0,1,1.31,1.42,1.42,1.42,0,0,1-1.46,1.43c-.41,0-1.56-.2-1.56-2v-2.43c0-.8,0-1.56,0-2.36l.86-.39h.05Zm-.06,1.12a.87.87,0,0,0,.83,1,.85.85,0,0,0,.81-.92.82.82,0,0,0-.83-.91,1.11,1.11,0,0,0-.75.35A1.7,1.7,0,0,0,124.87,108.37Z"/><path class="cls-1" d="M132.81,104.28a2.2,2.2,0,0,0,2-2.08h.9a2.67,2.67,0,0,1-1.74,2.2v0a1.68,1.68,0,0,1,1.6,1.87V108c0,1.59-1,1.71-2.31,1.71h-2.5l.07-.57H132v-4.7c0-1.29-.5-1.39-.65-1.39s-.22.19-.8.88h-.08c-.6-.69-.74-.86-.79-.86s-.76.34-.76,1.31a1.81,1.81,0,0,0,.12.68,1.08,1.08,0,0,1,1.07-.84,1.06,1.06,0,0,1,1.09,1A1.19,1.19,0,0,1,130,106.5a2,2,0,0,1-.17-3.92c.07,0,.14.1.68.73h0c.55-.63.63-.73.68-.73A1.67,1.67,0,0,1,132.81,104.28ZM130,106.05a.72.72,0,0,0,.7-.75.61.61,0,0,0-.66-.61.82.82,0,0,0-.73.74A.73.73,0,0,0,130,106.05Zm2.84-1.31v4.42h.36c1.27,0,1.5-.19,1.5-1.36v-1.64C134.68,105.4,134.45,104.87,132.82,104.74Z"/><path class="cls-1" d="M136.8,97.75a2.93,2.93,0,0,1,1.39.36,2.25,2.25,0,0,0,.94.3,1,1,0,0,0,.73-.44l.27.34a1.41,1.41,0,0,1-1.24.72,4,4,0,0,1-1.27-.29,3.41,3.41,0,0,0-1.09-.26.91.91,0,0,0-1,.73,5.19,5.19,0,0,1,2.82.78c.46.43.51.8.51,1.81v5.45a1.56,1.56,0,0,1,.85-.25,1.32,1.32,0,0,1,1.31,1.42,1.42,1.42,0,0,1-1.46,1.43c-.46,0-1.56-.2-1.56-2v-6.37c0-1.16-.36-1.53-3.1-1.79A1.93,1.93,0,0,1,136.8,97.75Zm2,10.62a.87.87,0,0,0,.83,1,.86.86,0,0,0,.82-.92.83.83,0,0,0-.84-.91,1.11,1.11,0,0,0-.75.35A1.7,1.7,0,0,0,138.81,108.37Z"/><path class="cls-1" d="M147,106.33a2.82,2.82,0,0,0-1.92-1c-1,0-1.48.63-1.48,1.68v.43a1.37,1.37,0,0,1,.78-.26,1.23,1.23,0,0,1,1.24,1.33,1.36,1.36,0,0,1-1.41,1.34c-.41,0-1.45-.17-1.45-1.95v-.65a2.22,2.22,0,0,1,2.4-2.46,3.18,3.18,0,0,1,1.84.54V105a1.67,1.67,0,0,0-1.82-1.83,3.14,3.14,0,0,0-2.14.91l-.33-.39a3.76,3.76,0,0,1,2.6-1.1,2.34,2.34,0,0,1,2.55,2.5v4.65H147Zm-3.47,2.15a.74.74,0,1,0,1.46,0,.74.74,0,0,0-.75-.82.91.91,0,0,0-.64.33A1.31,1.31,0,0,0,143.55,108.48Z"/><path class="cls-1" d="M156,102.7h.06v4.11a1.53,1.53,0,0,1,.27,0,1.53,1.53,0,0,1,.17,3c-.82,0-1.35-.62-1.35-1.87a3.15,3.15,0,0,1,0-.38,5.63,5.63,0,0,0-2.7,2.14h-.8v-4.55a1.27,1.27,0,0,1-.78.25,1.35,1.35,0,0,1-1.35-1.42,1.46,1.46,0,0,1,1.5-1.43c.41,0,1.5.2,1.5,1.85v4.32a6.1,6.1,0,0,1,2.65-1.79v-1.51c0-.8,0-1.56,0-2.36ZM151.83,104a.84.84,0,0,0-.78-.92.87.87,0,0,0-.89.92.83.83,0,0,0,.84.91,1.1,1.1,0,0,0,.74-.35A1.77,1.77,0,0,0,151.83,104Zm4.25,3.41a3.46,3.46,0,0,0-.07.77c0,.54.12,1.14.61,1.14s.72-.56.72-1a.85.85,0,0,0-.94-.93A1.35,1.35,0,0,0,156.08,107.42Z"/><path class="cls-1" d="M161.87,109.73V105c0-1.38-.78-1.87-1.54-1.87a2.34,2.34,0,0,0-1.58.68l-.31-.37a3,3,0,0,1,2.06-.85,2.18,2.18,0,0,1,2.24,2.5v4.65Z"/><line class="cls-2" x1="110.81" y1="71.83" x2="53.04" y2="71.83"/><path class="cls-3" d="M110.79,29.29l-.86-.9c-3.68-3.84-8.87-13.44-2.24-22.31l.52-.69-.46-.74A9.07,9.07,0,0,0,107,3.58c-.21-.26-.43-.53-.72-.94l-.55-.79-.9.32a12.5,12.5,0,0,1-4.06.71c-3.79,0-6.27-.37-9.33-2.4L90.7,0,90,.49a13.82,13.82,0,0,1-8.2,2.77A13.82,13.82,0,0,1,73.59.49L72.88,0l-.71.48c-3.06,2-5.54,2.4-9.33,2.4a12.5,12.5,0,0,1-4.06-.71l-.9-.32-.55.79c-.29.41-.51.68-.71.93a8.94,8.94,0,0,0-.79,1.08l-.46.74.52.69c6.63,8.87,1.44,18.47-2.24,22.31l-.86.9.88.88c.47.47,1.31,1.35,2,2.08v.12c0,.09,0,.14,0,.26v.08c-.34,6.4,1.32,11.66,4.93,15.65,3.82,4.23,9.8,6.76,16.86,7.15,1.75,1.61,3.53,2.93,3.61,3l.76.57.75-.57c.08-.06,1.85-1.39,3.6-3,7.06-.39,13-2.92,16.86-7.15,3.61-4,5.27-9.25,4.93-15.65v-.08c0-.12,0-.17,0-.26v-.12c.69-.73,1.53-1.61,2-2.08Zm-4.19,2.5c.07.64,0,.61.08,1,.75,14.25-9.12,21-21.05,21.48C83.8,56,81.8,57.48,81.8,57.48S79.78,56,78,54.26C66,53.76,56.15,47,56.9,32.78c.05-.38,0-.35.07-1-.68-.73-1.81-1.92-2.41-2.52,4.28-4.47,9.27-14.69,2.34-23.95.46-.74.79-1,1.47-1.95a13.76,13.76,0,0,0,4.47.78c4,0,6.69-.39,10-2.62a15.13,15.13,0,0,0,8.93,3,15.07,15.07,0,0,0,8.92-3c3.34,2.23,6.06,2.62,10,2.62a13.76,13.76,0,0,0,4.47-.78c.68,1,1,1.21,1.47,2-6.93,9.26-1.94,19.48,2.34,24-.6.6-1.73,1.79-2.42,2.52"/><path class="cls-4" d="M81.8,57.48A47.65,47.65,0,0,1,78,54.26C66,53.76,56.15,47,56.9,32.78c.05-.38,0-.35.07-1-.68-.72-1.81-1.91-2.41-2.51,4.28-4.47,9.27-14.69,2.34-23.95.46-.74.78-1,1.47-1.95a13.77,13.77,0,0,0,4.47.79c4,0,6.69-.4,10-2.62a15.13,15.13,0,0,0,8.92,3,15.13,15.13,0,0,0,8.92-3c3.34,2.22,6.05,2.62,10,2.62a13.77,13.77,0,0,0,4.47-.79c.68,1,1,1.21,1.47,2-6.93,9.26-1.94,19.48,2.34,24-.6.6-1.73,1.79-2.41,2.51.06.65,0,.62.07,1,.75,14.25-9.12,21-21.05,21.48C83.8,56,81.8,57.48,81.8,57.48"/><path class="cls-5" d="M65.45,32.12H59.17c0,.41-.07.43-.11.84-.36,7.2,2.14,12.11,6.39,15.17Z"/><path class="cls-6" d="M65.44,48.13a20.09,20.09,0,0,0,6.59,3v-19H65.44Z"/><path class="cls-5" d="M72,51.13a31.23,31.23,0,0,0,6.59,1v-20H72Z"/><path class="cls-6" d="M85.21,32.12H78.62v20h.22c2.19,0,4.18,0,5.9,0l.47,0Z"/><path class="cls-5" d="M85.21,52.1a31.1,31.1,0,0,0,6.59-1v-19H85.21Z"/><path class="cls-6" d="M91.79,51.07a19.66,19.66,0,0,0,6.6-3.13V32.12H91.8Z"/><path class="cls-5" d="M104.41,32.12h-6V48c4.09-3.07,6.5-7.93,6.14-15,0-.41-.07-.43-.11-.84"/><path class="cls-3" d="M82.42,52.32H78.84c-7-.29-12.53-2.43-15.92-6.18-3-3.27-4.33-7.7-4.05-13.18,0-.2,0-.31.05-.4s0-.23.06-.45v-.17h45.6v.17c0,.22,0,.32.05.45a2.2,2.2,0,0,1,0,.39c.28,5.49-1.08,9.92-4,13.19-3.4,3.75-8.9,5.89-15.91,6.18H82.42m-23.08-20c0,.12,0,.21,0,.29s0,.2,0,.38c-.27,5.36,1.06,9.7,4,12.89,3.33,3.68,8.74,5.77,15.65,6.06h5.88c6.91-.29,12.32-2.38,15.65-6.06,2.89-3.19,4.22-7.53,4-12.9,0-.17,0-.28,0-.37s0-.17,0-.29Z"/><path class="cls-4" d="M75.45,41.85a6.32,6.32,0,1,1,6.31,6.35,6.34,6.34,0,0,1-6.31-6.35"/><path class="cls-3" d="M81.77,35.68a6.17,6.17,0,1,0,6.12,6.17,6.16,6.16,0,0,0-6.12-6.17m0,12.45A6.29,6.29,0,1,1,88,41.85a6.27,6.27,0,0,1-6.24,6.28"/><path class="cls-3" d="M81.76,35.49a6.36,6.36,0,1,1-6.31,6.36,6.34,6.34,0,0,1,6.31-6.36M78.54,43c-1.14-1-1.14-3.17-.84-4.59.09-.39.2-.78.31-1.22a6,6,0,0,0-1.77,6.9,1.55,1.55,0,0,0,.31,0,2.18,2.18,0,0,0,2-1.12m6.14.46c-.2,1-1.26,1.76-2.27,2.36a9.18,9.18,0,0,1-4,1,5.85,5.85,0,0,0,3.32,1A6,6,0,0,0,87,44.74a1.58,1.58,0,0,0-2.31-1.28m-6.71,3a9.4,9.4,0,0,0,4.26-1c1.41-.84,2.51-1.75,2-3a1.43,1.43,0,0,0-2.28-.56,2,2,0,0,1-2,1.66,2.43,2.43,0,0,1-1.06-.38,2.56,2.56,0,0,1-2.28,1.25H76.4a6.19,6.19,0,0,0,1.57,2m3.78-8.37c1-.41,2.35.12,3.39.71a7,7,0,0,1,2.58,2.66,6,6,0,0,0-5.9-5.63,1.33,1.33,0,0,0-.07,2.26m-.17,3.83A2.33,2.33,0,0,1,81,38.79a1.93,1.93,0,0,1,.45-.49,1.67,1.67,0,0,1-.17-2.43,6,6,0,0,0-2.79,1,13.51,13.51,0,0,0-.57,3.33c0,1.59.67,2.88,2.05,3.06a1.7,1.7,0,0,0,1.65-1.31m6.12.46A6.18,6.18,0,0,0,85,39.13c-1.44-.81-3-1.25-3.71-.15a2,2,0,0,0,.5,2.65,1.77,1.77,0,0,1,2.78.73,1.93,1.93,0,0,1,.17.7,1.93,1.93,0,0,1,2.53,1.17,5.93,5.93,0,0,0,.46-1.83"/><path class="cls-3" d="M89.28,30.94H86.6V25h2.71c1.18,0,1.89.6,1.89,1.6a1.32,1.32,0,0,1-.54,1.11A1.4,1.4,0,0,1,91.39,29a1.86,1.86,0,0,1-2.11,1.93M87.86,29.7h1.46c.49,0,.75-.23.75-.68s-.23-.67-.75-.67H87.86Zm0-2.51h1.45c.4,0,.58-.15.58-.47s-.08-.49-.63-.49h-1.4Z"/><path class="cls-3" d="M81.33,31c-1.57,0-2.59-1.19-2.59-3.05s1.08-3.05,2.62-3.05a2.25,2.25,0,0,1,2.17,1.32l0,.07-1.19.55,0-.06a1,1,0,0,0-1-.59c-.79,0-1.29.68-1.29,1.76s.52,1.77,1.3,1.77a1.13,1.13,0,0,0,1.06-.7l0-.06,1.08.64,0,.06A2.27,2.27,0,0,1,81.33,31"/><polygon class="cls-3" points="73.43 30.94 72.14 30.94 72.14 25.02 76.39 25.02 76.39 26.29 73.43 26.29 73.43 27.24 75.16 27.24 75.16 28.5 73.43 28.5 73.43 30.94"/><path class="cls-1" d="M60.67,23.81c2.17-5,3-11.45-.67-17.74a16.48,16.48,0,0,0,2.84.26c3.74,0,6.68-.34,10-2.22a16.77,16.77,0,0,0,8.94,2.6,16.85,16.85,0,0,0,9-2.6C94.06,6,97,6.33,100.74,6.33a15.93,15.93,0,0,0,2.86-.27c-3.67,6.3-2.86,12.74-.69,17.75Z"/><path class="cls-7" d="M81.6,6.71v17.1h2.26V6.58a17.46,17.46,0,0,1-2.08.13H81.6"/><path class="cls-8" d="M83.86,23.81h2.26V6.13a16.43,16.43,0,0,1-2.26.45Z"/><path class="cls-7" d="M86.12,23.81h2.25V5.34a15.77,15.77,0,0,1-2.25.79Z"/><path class="cls-8" d="M88.37,23.81h2.26V4.18a17.85,17.85,0,0,1-2.26,1.16Z"/><path class="cls-7" d="M90.63,4.18V23.81h2.26V5.14a17.39,17.39,0,0,1-2.15-1,.41.41,0,0,1-.11.07"/><path class="cls-8" d="M92.89,23.81h2.26v-18a15.84,15.84,0,0,1-2.26-.69Z"/><path class="cls-7" d="M95.15,23.81h2.26V6.19a16.89,16.89,0,0,1-2.26-.36Z"/><path class="cls-8" d="M97.41,23.78h2.26V6.29c-.78,0-1.53,0-2.26-.12Z"/><path class="cls-7" d="M103.42,6.08a14.84,14.84,0,0,1-2.68.25H99.67V23.81h3.24c-2.14-4.93-3-11.24.51-17.45Z"/><path class="cls-8" d="M68.73,18v5.8H75V18h6.7V11.69H75V5.26a19.69,19.69,0,0,1-2.18-1.15,15.52,15.52,0,0,1-4.1,1.65v5.93H62.15A18.49,18.49,0,0,1,62.32,18Z"/><path class="cls-3" d="M104,5.79l-.41.08a15.28,15.28,0,0,1-2.82.27c-3.82,0-6.67-.36-9.9-2.19l-.1-.06L90.65,4a16.64,16.64,0,0,1-8.87,2.57A16.62,16.62,0,0,1,72.93,4l-.09-.06-.1.06c-3.24,1.83-6.08,2.19-9.9,2.19A15.47,15.47,0,0,1,60,5.88l-.4-.07.2.36c3.92,6.74,2.52,13.27.66,17.56l-.11.27H103.2l-.12-.27c-1.86-4.29-3.25-10.82.67-17.58Zm-43.61.53a15.42,15.42,0,0,0,2.48.2c3.85,0,6.72-.36,10-2.19A17,17,0,0,0,81.52,6.9V23.62H61a19.32,19.32,0,0,0-.6-17.3m42.26,17.3H81.9V6.9a17.14,17.14,0,0,0,8.85-2.57c3.27,1.83,6.14,2.19,10,2.19a15.22,15.22,0,0,0,2.49-.21,19.35,19.35,0,0,0-.61,17.31"/></g></g></svg>