<?xml version="1.0" encoding="utf-8"?>
<!-- Generator: Adobe Illustrator 25.2.0, SVG Export Plug-In . SVG Version: 6.00 Build 0)  -->
<svg version="1.1" id="Layer_1" xmlns="http://www.w3.org/2000/svg" xmlns:xlink="http://www.w3.org/1999/xlink" x="0px" y="0px"
	 viewBox="0 0 463.1 71.8" style="enable-background:new 0 0 463.1 71.8;" xml:space="preserve">
<style type="text/css">
	.st0{fill:#00BE40;}
	.st1{fill:#FFFFFF;}
	.st2{fill:#E8B909;}
	.st3{fill:#FFDD00;}
	.st4{fill:#0054A4;}
	.st5{fill:#A30046;}
	.st6{fill:#E31937;}
	.st7{fill:#231F20;}
	.st8{fill:#010101;}
</style>
<g>
	<g>
		<path class="st0" d="M7,0h57.8c3.8,0,7,3.1,7,7c0,0,0,0,0,0v57.8c0,3.8-3.1,7-7,7c0,0,0,0,0,0H7c-3.8,0-7-3.1-7-7c0,0,0,0,0,0V7
			C0,3.1,3.1,0,7,0C7,0,7,0,7,0"/>
		<rect x="14.2" y="45.4" class="st1" width="43.4" height="3.4"/>
		<polygon class="st1" points="26.1,28.2 26.1,24.7 14.2,24.7 14.2,41.1 18.6,41.1 18.6,35.2 25.3,35.2 25.3,31.7 18.6,31.7 
			18.6,28.2 		"/>
		<path class="st1" d="M39,32.6c1.5-0.5,2.6-2,2.6-3.6c0-2.6-2-4.2-5.3-4.2H28v16.4h8.5c3.6,0,5.8-1.7,5.8-4.6
			C42.2,34.6,40.9,32.9,39,32.6 M32.3,28h3.3c1.2,0,1.9,0.6,1.9,1.6c0,1-0.7,1.6-1.9,1.6h-3.3V28z M35.9,37.7h-3.6v-3.3h3.7
			c1.2,0,1.9,0.6,1.9,1.7C37.8,37.2,37.1,37.7,35.9,37.7L35.9,37.7z"/>
		<path class="st1" d="M52.7,31.1l-2-0.3c-1.9-0.3-2.5-0.8-2.5-1.7s0.8-1.5,2.4-1.5c1.3-0.2,2.5,0.7,2.7,2c0,0,0,0,0,0l4.1-0.5
			c-0.6-3.2-2.9-4.8-6.7-4.8c-4.2,0-7,2.1-7,5.3c0,2.8,1.7,4.4,5.1,4.9l2.1,0.3c2.2,0.3,2.7,0.8,2.7,1.8s-0.8,1.5-2.7,1.5
			c-1.4,0.1-2.7-0.8-3.1-2.2l-4.3,0.6c0.7,3.3,3.2,4.9,7.3,4.9c4.6,0,7.3-2,7.3-5.3C58.1,33.2,56.4,31.7,52.7,31.1"/>
	</g>
	<g>
		<path class="st2" d="M180.7,1.1l0.4,0.2C185,4,188.2,4.4,193,4.4c1.8,0,3.6-0.3,5.3-0.9l0.5-0.2l2.3,3.2l-0.2,0.3
			c-8.5,11.3-1.9,23.4,2.8,28.3l0.4,0.4l-0.4,0.4c-0.6,0.6-1.7,1.7-2.5,2.5l-0.3,0.3l0,0.4l0,0.1c0,0.1,0,0.2,0,0.4l0,0.1
			c0.4,7.5-1.6,13.7-5.8,18.3c-4.5,4.9-11.6,7.9-20,8.4l-0.3,0l-0.2,0.2c-2.1,1.9-4.3,3.6-4.3,3.6l-0.4,0.3l-0.4-0.3
			c-0.1-0.1-2.2-1.7-4.3-3.6l-0.2-0.2l-0.3,0c-8.4-0.5-15.5-3.4-20-8.4c-4.2-4.7-6.2-10.8-5.8-18.3l0-0.1c0-0.2,0-0.3,0-0.4l0,0v0
			l0-0.1l0-0.4l-0.3-0.3c-0.7-0.8-1.8-1.9-2.5-2.5l-0.4-0.4l0.4-0.4c4.7-4.9,11.3-17,2.8-28.3l-0.2-0.3l2.3-3.2l0.5,0.2
			c1.7,0.6,3.5,0.9,5.3,0.9c4.8,0,8-0.5,11.9-3.1l0.4-0.2l0.4,0.2c3,2.3,6.7,3.5,10.5,3.5c3.8,0,7.5-1.3,10.5-3.5L180.7,1.1"/>
		<path class="st1" d="M144,28.9c2.7-6.1,3.6-13.9-0.8-21.5c1.1,0.2,2.3,0.3,3.5,0.3c4.6,0,8.2-0.4,12.2-2.7
			c3.3,2.1,7.1,3.1,10.9,3.2c3.9,0,7.7-1.1,10.9-3.2c4,2.3,7.6,2.7,12.2,2.7c1.2,0,2.3-0.1,3.5-0.3c-4.5,7.7-3.5,15.5-0.8,21.6H144"
			/>
		<path class="st3" d="M195.6,28.9C193,22.8,192,15,196.5,7.4c-1.1,0.2-2.3,0.3-3.5,0.3c-4.6,0-8.2-0.4-12.2-2.7
			c-3.3,2.1-7.1,3.1-10.9,3.2c0,0-0.1,0-0.1,0v20.8H195.6z"/>
		<path class="st4" d="M189.9,58.3c5.1-3.7,8.1-9.6,7.6-18.3c-0.1-0.5-0.1-0.5-0.1-1h-7.5V58.3z"/>
		<path class="st5" d="M181.9,62c2.9-0.7,5.6-2,8-3.7V39h-8V62z"/>
		<path class="st5" d="M149.7,58.3c2.4,1.7,5.2,3,8,3.7V39h-8V58.3z"/>
		<path class="st4" d="M142.1,40c-0.4,8.7,2.6,14.6,7.6,18.3V39h-7.5C142.2,39.5,142.1,39.5,142.1,40"/>
		<path class="st5" d="M169.8,43.3c1.4,0,2.8,0.4,4,1.2V39h-8v5.4C167,43.7,168.4,43.3,169.8,43.3"/>
		<path class="st5" d="M169.8,58.4c-1.4,0-2.8-0.4-4-1.2v6c0.1,0,0.3,0,0.4,0c2.7,0,5.1,0,7.2,0c0.1,0,0.3,0,0.4,0v-6
			C172.6,58,171.3,58.4,169.8,58.4"/>
		<path class="st4" d="M173.8,39v5.4c3.6,2.2,4.6,6.9,2.4,10.4c-0.6,1-1.5,1.8-2.4,2.4v6c2.7-0.1,5.4-0.5,8-1.2V39H173.8z"/>
		<path class="st4" d="M162.3,50.9c0-2.6,1.3-5,3.5-6.4V39h-8v23c2.6,0.7,5.3,1.1,8,1.2v-6C163.6,55.9,162.3,53.5,162.3,50.9"/>
		<path class="st6" d="M145.8,14.2c0.5,2.5,0.6,5.1,0.2,7.7h7.8v7h7.7v-7h8.2v-7.7h-8.2V6.4c-0.9-0.4-1.8-0.9-2.7-1.4
			c-1.6,0.9-3.3,1.6-5,2v7.2L145.8,14.2z"/>
		<path class="st6" d="M186.3,28.9V7.1c-0.9-0.2-1.9-0.5-2.8-0.8v22.6L186.3,28.9z"/>
		<path class="st6" d="M175.2,28.9V7.4c-0.9,0.3-1.8,0.4-2.8,0.6v20.9L175.2,28.9z"/>
		<path class="st6" d="M191.8,28.9V7.7c-1,0-1.9-0.1-2.8-0.1v21.4H191.8z"/>
		<path class="st6" d="M180.7,28.9V5c-0.9,0.5-1.8,1-2.8,1.4v22.5L180.7,28.9z"/>
		<path class="st7" d="M205.2,35.6l-1.1-1.1c-4.5-4.7-10.8-16.3-2.7-27.1l0.6-0.8L199,2.3l-1.1,0.4c-1.6,0.6-3.3,0.9-5,0.9
			c-4.6,0-7.7-0.5-11.4-2.9L180.7,0l-0.9,0.6c-2.9,2.2-6.4,3.3-10,3.4c-3.6,0-7.1-1.2-10-3.4L158.9,0l-0.9,0.6
			c-3.7,2.5-6.8,2.9-11.4,2.9c-1.7,0-3.4-0.3-5-0.9l-1.1-0.4l-3.1,4.3l0.6,0.8c8.1,10.8,1.8,22.4-2.7,27.1l-1.1,1.1l1.1,1.1
			c0.6,0.6,1.6,1.6,2.4,2.5c0,0,0,0.1,0,0.1c0,0.1,0,0.2,0,0.3l0,0.1c-0.4,7.8,1.6,14.2,6,19c4.7,5.1,12,8.2,20.6,8.7
			c2.1,1.9,4.3,3.6,4.4,3.6l0.9,0.7l0.9-0.7c0.1-0.1,2.3-1.7,4.4-3.6c8.6-0.5,15.9-3.5,20.6-8.7c4.4-4.8,6.4-11.2,6-19l0-0.1
			c0-0.1,0-0.2,0-0.3c0,0,0-0.1,0-0.1c0.8-0.9,1.9-2,2.4-2.5L205.2,35.6z M200.1,38.6c0.1,0.8,0,0.8,0.1,1.2
			c0.9,17.3-11.1,25.5-25.7,26.1c-2.2,2.1-4.7,3.9-4.7,3.9s-2.5-1.8-4.7-3.9c-14.6-0.6-26.6-8.8-25.7-26.1c0.1-0.5,0-0.4,0.1-1.2
			c-0.8-0.9-2.2-2.3-2.9-3.1c5.2-5.4,11.3-17.8,2.9-29.1l1.8-2.4c1.8,0.6,3.6,0.9,5.5,1c4.9,0,8.2-0.5,12.2-3.2
			c3.2,2.3,7,3.6,10.9,3.6c3.9,0,7.7-1.3,10.9-3.6C184.8,4.6,188.1,5,193,5c1.9,0,3.7-0.3,5.5-1l1.8,2.4
			c-8.5,11.2-2.4,23.7,2.9,29.1C202.4,36.3,201,37.7,200.1,38.6"/>
		<path class="st7" d="M142,39c0,0.3,0,0.4-0.1,0.5c0,0.1,0,0.3-0.1,0.5c-0.3,6.7,1.3,12,4.9,16c4.1,4.6,10.9,7.1,19.4,7.5l0.3,0
			c1.4,0,2.8,0,4.1,0c1,0,1.9,0,2.8,0c8.6-0.4,15.3-2.9,19.4-7.5c3.6-4,5.3-9.4,4.9-16c0-0.2,0-0.4-0.1-0.5c0-0.1,0-0.3-0.1-0.5
			l0-0.2H142L142,39z M142.3,40c0-0.2,0-0.3,0.1-0.5c0-0.1,0-0.2,0-0.4h54.8c0,0.1,0,0.2,0,0.4c0,0.1,0,0.2,0.1,0.4
			c0.3,6.5-1.3,11.8-4.8,15.7c-4.1,4.5-10.7,7-19.1,7.3c-2,0-4.3,0-6.9,0l-0.3,0c-8.4-0.3-15.1-2.9-19.1-7.3
			C143.6,51.8,142,46.6,142.3,40"/>
		<path class="st7" d="M143.8,28.8l-0.1,0.3H196l-0.1-0.3c-2.3-5.2-4-13.1,0.8-21.4l0.3-0.4l-0.5,0.1c-1.1,0.2-2.3,0.3-3.4,0.3
			c-4.7,0-8.1-0.4-12.1-2.7l-0.1-0.1l-0.1,0.1c-3.2,2-7,3.1-10.8,3.1c-3.8,0-7.6-1.1-10.8-3.1l-0.1-0.1l-0.1,0.1
			c-3.9,2.2-7.4,2.7-12.1,2.7c-1.2,0-2.3-0.1-3.4-0.3l-0.5-0.1l0.3,0.4C147.8,15.7,146.1,23.6,143.8,28.8 M170,8.4
			c3.8,0,7.6-1.1,10.8-3.1c4,2.2,7.5,2.7,12.2,2.7c1,0,2-0.1,3-0.3c-4.5,8.1-2.9,15.8-0.7,21H170L170,8.4z M143.7,7.7
			c1,0.2,2,0.2,3,0.2c4.7,0,8.2-0.4,12.2-2.7c3.2,2,6.9,3.1,10.6,3.1v20.3h-25.1C146.6,23.5,148.1,15.7,143.7,7.7"/>
		<polygon class="st7" points="163.2,31.9 163.2,30.4 158,30.4 158,37.6 159.6,37.6 159.6,34.6 161.7,34.6 161.7,33.1 159.6,33.1 
			159.6,31.9 		"/>
		<path class="st7" d="M169.3,31.8c0.5,0,1,0.3,1.2,0.7l0,0.1L172,32l0-0.1c-0.5-1-1.5-1.7-2.6-1.6c-1.9,0-3.2,1.5-3.2,3.7
			c0,2.2,1.2,3.7,3.1,3.7c1.1,0.1,2.2-0.6,2.7-1.6l0-0.1l-1.3-0.8l0,0.1c-0.2,0.5-0.7,0.9-1.3,0.9c-0.9,0-1.6-0.9-1.6-2.2
			C167.7,32.7,168.3,31.8,169.3,31.8"/>
		<path class="st7" d="M181.3,32.3c0-1.2-0.9-1.9-2.3-1.9h-3.3v7.2h3.3c1.2,0.2,2.4-0.7,2.6-1.9c0-0.1,0-0.3,0-0.4
			c0-0.6-0.3-1.2-0.9-1.5C181.1,33.4,181.3,32.9,181.3,32.3 M177.2,31.8h1.7c0.7,0,0.8,0.3,0.8,0.6c0,0.4-0.2,0.6-0.7,0.6h-1.8
			L177.2,31.8z M179,36.1h-1.8v-1.7h1.8c0.6,0,0.9,0.3,0.9,0.8C180,35.8,179.6,36.1,179,36.1"/>
		<path class="st7" d="M169.8,58.6c4.3,0,7.7-3.5,7.7-7.7s-3.5-7.7-7.7-7.7s-7.7,3.5-7.7,7.7v0C162.1,55.1,165.5,58.6,169.8,58.6
			 M169.8,58.1c-1.4,0-2.9-0.4-4.1-1.2c1.7,0,3.3-0.5,4.8-1.2c1.2-0.7,2.5-1.6,2.8-2.9c0.9-0.5,2.1-0.1,2.6,0.8
			c0.1,0.2,0.2,0.5,0.2,0.7C174.9,56.7,172.4,58.1,169.8,58.1 M166.2,52.5c0.4,0.3,0.8,0.4,1.3,0.5c1.2,0,2.3-0.8,2.5-2
			c0.7-0.6,1.8-0.6,2.5,0.1c0.1,0.2,0.2,0.3,0.3,0.5c0.6,1.5-0.7,2.6-2.4,3.7c-1.6,0.8-3.4,1.2-5.2,1.2c-0.8-0.7-1.5-1.5-1.9-2.4
			c0.1,0,0.1,0,0.2,0C164.6,54,165.6,53.5,166.2,52.5 M165,48.8c0.1-1.4,0.3-2.7,0.7-4c1-0.7,2.2-1.1,3.4-1.2
			c-0.8,0.8-0.7,2.1,0.1,2.9c0,0,0.1,0.1,0.1,0.1c-0.2,0.2-0.4,0.4-0.5,0.6c-0.8,1.3-0.5,3,0.8,3.8c-0.2,0.9-1.1,1.6-2,1.6
			C165.9,52.3,165.1,50.7,165,48.8 M173.4,52.3c0-0.3-0.1-0.6-0.2-0.8c-0.4-1.1-1.7-1.7-2.8-1.2c-0.2,0.1-0.4,0.2-0.6,0.3
			c-1-0.7-1.3-2.1-0.6-3.2c0.8-1.3,2.8-0.8,4.5,0.2c1.5,0.9,2.7,2.3,3.3,4c-0.1,0.8-0.3,1.5-0.6,2.2
			C176.1,52.5,174.7,51.8,173.4,52.3C173.5,52.3,173.4,52.3,173.4,52.3 M173.9,47.1c-1.3-0.7-2.9-1.4-4.1-0.9
			c-0.7-0.5-1-1.5-0.5-2.2c0.1-0.2,0.3-0.4,0.6-0.5c3.8,0,7,3,7.2,6.8C176.3,49,175.2,47.9,173.9,47.1 M165.2,45.2
			c-0.1,0.5-0.3,1-0.4,1.5c-0.4,1.7-0.4,4.3,1,5.6c-0.5,0.9-1.4,1.4-2.4,1.4c-0.1,0-0.3,0-0.4,0C161.8,50.6,162.7,47.2,165.2,45.2"
			/>
	</g>
	<rect x="102.6" y="0" class="st7" width="1" height="71.8"/>
</g>
<g>
	<path class="st8" d="M244.3,30.6h-0.8l-2.2-6.4l-2.1,5.9c-0.1,0.3-0.4,0.6-0.7,0.5h-0.9v-5.4c-0.3,0.2-0.6,0.3-0.9,0.3
		c-0.9,0-1.6-0.7-1.6-1.6c0,0,0,0,0,0v-0.1c0-1,0.8-1.7,1.8-1.7c0,0,0,0,0,0c0.5,0,1.8,0.2,1.8,2.2v4c0,0.5,0,1-0.1,1.5l2.6-7.4h0.2
		l2.6,7.2c0-0.5-0.1-1.1-0.1-1.6v-2.5c0-1,0-1.9-0.1-2.8l1-0.5h0.1v7.7C244.8,30.1,244.8,30.6,244.3,30.6 M237.6,23.7
		c0.1-0.5-0.3-1-0.9-1.1h-0.1c-0.5,0-1,0.4-1.1,0.9c0,0.1,0,0.1,0,0.2c-0.1,0.5,0.3,1,0.9,1.1h0.1c0.3,0,0.7-0.2,0.9-0.4
		C237.6,24.1,237.6,23.9,237.6,23.7"/>
	<path class="st8" d="M247.5,18.2c-0.3,1.6-1.7,2.8-3.4,2.8c-1,0-2.4-0.5-2.4-1.7c0-0.7,0.5-1.2,1.2-1.2h0.1c0.6,0,1.1,0.4,1.2,1
		v0.1c0,0.5-0.3,0.9-0.6,1.1c0.2,0.1,0.4,0.1,0.6,0.1c1.2-0.1,2.1-1,2.2-2.2L247.5,18.2z M242.9,20.1c0.4-0.1,0.6-0.4,0.6-0.8
		c0-0.3-0.2-0.6-0.5-0.6c0,0,0,0,0,0H243c-0.3,0-0.6,0.3-0.6,0.6C242.3,19.7,242.6,20,242.9,20.1"/>
	<path class="st8" d="M254.7,22.1L254.7,22.1l0.1,5c1-0.2,2,0.5,2.1,1.5c0.2,1-0.5,2-1.5,2.1c0,0-0.1,0-0.1,0c-1,0-1.6-0.7-1.6-2.2
		c0-0.1,0-0.3,0-0.5c-1.3,0.5-2.5,1.4-3.2,2.6h-1v-5.5c-0.3,0.2-0.6,0.3-0.9,0.3c-0.9,0-1.6-0.7-1.6-1.6c0,0,0,0,0,0c0,0,0,0,0,0
		v-0.1c0-1,0.8-1.7,1.8-1.7h0c0.5,0,1.8,0.2,1.8,2.2v5.2c0.9-1,2-1.7,3.2-2.1v-1.8c0-1,0-1.9-0.1-2.8L254.7,22.1z M249.6,23.7
		c0.1-0.5-0.3-1-0.9-1.1c0,0,0,0,0,0l0,0h-0.1c-0.5,0-1,0.4-1.1,0.9c0,0.1,0,0.1,0,0.2c-0.1,0.5,0.3,1,0.9,1.1h0.1
		c0.3,0,0.7-0.2,0.9-0.4C249.6,24.2,249.6,23.9,249.6,23.7L249.6,23.7z M254.7,27.8c-0.1,0.3-0.1,0.6-0.1,0.9c0,0.7,0.1,1.4,0.7,1.4
		s0.9-0.7,0.9-1.2c0.1-0.5-0.3-1.1-0.9-1.1c-0.1,0-0.2,0-0.3,0C255,27.8,254.8,27.8,254.7,27.8L254.7,27.8z"/>
	<path class="st8" d="M259.9,29.9v-5.6c-0.5-0.1-1.1-0.1-1.8-0.1c-0.1-1.3,0.9-2.4,2.1-2.5h0.2c1.2,0,2.1,0.8,2.7,0.8
		c0.4,0,0.8-0.2,1-0.5l0.4,0.5c-0.4,0.5-0.9,0.8-1.6,0.9c-1,0-1.8-0.7-2.8-0.7c-0.6-0.1-1.2,0.3-1.2,0.9c0,0,0,0,0,0l0,0
		c0,0,0,0,0,0.1c3.8,0.3,5.4,0.6,5.4,2.8v2.1c0,1.9-1.2,2.1-2.8,2.1h-2.8l0.1-0.7L259.9,29.9z M261.4,29.9c1.5,0,1.8-0.2,1.8-1.6v-2
		c0-1-0.2-1.5-2.2-1.8v5.4L261.4,29.9z"/>
	<path class="st8" d="M273.2,29.4v-4c0-1,0-1.9-0.1-2.8l1-0.5h0.1v8.5h-1c-0.8-1.1-2-2-3.3-2.4v0.2c0,1.4-0.5,2.4-1.8,2.4
		c-0.9,0-1.6-0.7-1.6-1.5V29c0-1,0.8-1.8,1.7-1.8c0,0,0,0,0,0h0.6v-2c-0.3,0.2-0.6,0.3-0.9,0.3c-0.9,0-1.6-0.7-1.6-1.6v-0.1
		c0-1,0.8-1.7,1.8-1.7c0,0,0,0,0,0c0.5,0,1.8,0.2,1.8,2.2v3.2C271.2,27.8,272.3,28.5,273.2,29.4 M269.1,23.7c0.1-0.5-0.3-1-0.9-1.1
		h-0.1c-0.5,0-1,0.4-1.1,0.9c0,0.1,0,0.1,0,0.2c-0.1,0.5,0.3,1,0.9,1.1h0.1c0.3,0,0.7-0.2,0.9-0.4C269.1,24.1,269.1,23.9,269.1,23.7
		 M267.4,29c0,0.5,0.4,1,0.9,1.1c0.6,0,0.8-0.6,0.8-1.2c0-0.3,0-0.6-0.1-0.9c-0.1,0-0.3,0-0.4,0c-0.6-0.1-1.1,0.3-1.2,0.9
		C267.4,28.9,267.4,29,267.4,29"/>
	<path class="st8" d="M271.9,17.3c1.5,0,2.8,1.2,2.8,2.7v0c0,0.3-0.1,0.7-0.2,1c-1.6-0.9-3.5-1.3-5.3-1.3
		C269.3,18.3,270.5,17.3,271.9,17.3 M274.2,20.2c-0.2-1.2-1.3-2.1-2.6-2c-0.7-0.1-1.5,0.3-1.9,0.9C271.3,19.2,272.8,19.5,274.2,20.2
		"/>
	<path class="st8" d="M278.5,30.6c-0.3-0.8-0.6-1.6-0.9-2.4c-0.5-0.9-0.8-2-0.8-3c0-1.5,1.1-2.9,2.6-3.1c0.2,0,0.3,0.1,1.3,1h0
		c0.7-0.8,1.1-1,1.2-1c1.5,0.1,2.7,1.4,2.7,2.9v5.6h-1v-5.5c0-1.7-0.8-2.3-1.5-2.3c-0.1,0-0.5,0.4-1.3,1.2h-0.1
		c-0.8-0.8-1.2-1.2-1.4-1.2c-0.6,0-1.4,0.8-1.4,2.5c0.1,1.5,0.5,2.9,1.2,4.2c0.5-0.7,0.9-1.2,1.4-1.9c-0.8-0.1-1.5-0.7-1.5-1.5
		c0-0.9,0.8-1.7,1.7-1.6c0,0,0,0,0,0c0.9,0,1.6,0.7,1.6,1.5c0,0,0,0,0,0c0,0.6-0.3,1.2-0.7,1.7c-0.6,0.8-1.5,1.9-2.2,3L278.5,30.6z
		 M281.5,25.8c0-0.5-0.4-0.9-0.8-0.9h-0.1c-0.6,0-1,0.4-1,1c0,0,0,0,0,0c0,0.6,0.5,1,1.1,1h0C281,27,281.5,26.5,281.5,25.8"/>
	<path class="st8" d="M288.5,21.7c0.6,0,1.3,0.2,1.8,0.5c0.3,0.2,0.6,0.3,1,0.3c0.4,0,0.8-0.2,1-0.5l0.4,0.5
		c-0.4,0.5-0.9,0.8-1.6,0.9c-0.5,0-1-0.1-1.5-0.4c-0.4-0.2-0.9-0.3-1.4-0.3c-0.6-0.1-1.1,0.4-1.2,0.9c2.3,0.3,3.3,0.5,4,1
		c0.6,0.5,1,1.3,0.9,2.1v1.8c0,1.4-0.7,2.2-1.9,2.2c-0.9,0-1.7-0.7-1.7-1.6V29c0-0.9,0.7-1.7,1.6-1.7h0c0.3,0,0.6,0.1,0.9,0.3v-1.2
		c0-1.5-1.3-1.9-4.7-2.2c-0.1-1.3,0.9-2.4,2.1-2.5H288.5z M290.1,27.9c-0.6,0-1,0.4-1,1V29c-0.1,0.6,0.4,1.1,1,1.1c0,0,0,0,0,0l0,0
		c0.6,0,1-0.4,1-1V29c0-0.2,0-0.5-0.1-0.7C290.8,28.1,290.5,27.9,290.1,27.9"/>
	<path class="st8" d="M299.8,30.7c0-1,0.1-1.9,0.1-2.9v-2.7c0.2-1.3-0.7-2.4-2-2.6c-0.1,0-0.2,0-0.3,0c-1,0-1.9,0.5-2.4,1.4l2.3,0.5
		l-0.2,0.6c-0.8,0-1.5,0.7-1.5,1.5c0,0,0,0,0,0v0c0,0,0,0.1,0,0.1v3.7h-1v-3.5c-0.1-1,0.5-1.8,1.4-2.1l-1.9-0.4
		c0.3-1.6,1.8-2.7,3.4-2.6c2.3,0,3.2,1.5,3.2,3.5v4.8l-1,0.5L299.8,30.7z"/>
	<path class="st8" d="M306.5,30.6v-5.7c0-1.6-0.9-2.2-1.9-2.2c-0.7,0-1.4,0.3-1.9,0.8l-0.4-0.5c0.7-0.6,1.5-1,2.5-1
		c1,0,2.7,0.5,2.7,3v5.6L306.5,30.6z"/>
	<path class="st8" d="M311.6,21.7c0.6,0,1.3,0.2,1.8,0.5c0.3,0.2,0.6,0.3,1,0.3c0.4,0,0.8-0.2,1-0.5l0.3,0.5
		c-0.4,0.5-0.9,0.8-1.6,0.9c-0.5,0-1-0.1-1.5-0.4c-0.4-0.2-0.9-0.3-1.4-0.3c-0.6-0.1-1.1,0.4-1.2,0.9c2.3,0.3,3.3,0.5,4,1
		c0.6,0.5,1,1.3,0.9,2.1v1.8c0,1.4-0.7,2.2-1.9,2.2c-0.9,0-1.7-0.7-1.7-1.6v-0.1c0-0.9,0.7-1.7,1.7-1.7c0,0,0,0,0,0h0
		c0.3,0,0.6,0.1,0.9,0.3v-1.2c0-1.5-1.3-1.9-4.7-2.2c-0.1-1.3,0.9-2.4,2.1-2.5L311.6,21.7z M313.2,27.9c-0.6,0-1,0.4-1,1V29
		c-0.1,0.6,0.4,1.1,1,1.1c0,0,0,0,0,0l0,0c0.6,0,1-0.4,1-1V29c0-0.2,0-0.5-0.1-0.7C313.9,28.1,313.6,27.9,313.2,27.9"/>
	<path class="st8" d="M324.9,30.6h-1v-5.4c0.1-1.4-1-2.6-2.4-2.6c0,0,0,0,0,0h0c-0.1,0-0.3,0-0.4,0c-1.4-0.1-2.7,1-2.8,2.5v0.4
		c0,1.1,0.2,2.2,0.6,3.3c0.1-1.2,0.4-2.4,0.9-3.5c0.3-0.5,0.8-0.8,1.4-0.8c0.8-0.1,1.6,0.5,1.6,1.3c0,0,0,0,0,0.1V26
		c0,0.8-0.6,1.6-1.5,1.6c0,0,0,0,0,0h-0.1c-0.4,0-0.8-0.1-1.1-0.4c-0.4,1.1-0.6,2.3-0.6,3.5h-0.9c-0.1-0.8-0.3-1.7-0.6-2.5
		c-0.4-0.9-0.6-1.8-0.6-2.8c0-2.1,1.7-3.4,3.8-3.4c2.7,0,3.8,1.5,3.8,3.5L324.9,30.6z M321.2,27c0.6,0,1-0.5,0.9-1.1v0
		c0-0.5-0.4-1-0.9-1c-0.6,0.1-1,0.6-1,1.2C320.3,26.6,320.7,27,321.2,27"/>
	<path class="st8" d="M321.2,20.5c0.4-0.1,0.8-0.3,1.1-0.6c-0.8-0.1-1.2-0.6-1.2-1.2c0-0.7,0.6-1.3,1.3-1.3c0.7,0,1.2,0.5,1.2,1.2
		v0.1c0,0.6-0.3,1.2-0.8,1.6c1.3-0.3,2.2-1.4,2.2-2.7h1c-0.2,1.2-0.8,2.2-1.8,2.8c-0.9,0.4-1.9,0.6-2.9,0.7L321.2,20.5z M321.6,18.6
		c0,0.4,0.3,0.7,0.8,0.7c0.2,0,0.3-0.1,0.4-0.2c0.1-0.2,0.2-0.4,0.2-0.5c0-0.4-0.3-0.6-0.6-0.6C322,17.9,321.7,18.2,321.6,18.6
		C321.6,18.6,321.6,18.6,321.6,18.6L321.6,18.6z"/>
	<path class="st8" d="M330.4,30.6v-5.7c0-1.6-0.9-2.2-1.9-2.2c-0.7,0-1.4,0.3-1.9,0.8l-0.4-0.5c0.7-0.6,1.5-1,2.5-1
		c1,0,2.7,0.5,2.7,3v5.6L330.4,30.6z"/>
	<path class="st8" d="M333.7,23.3c0.8-0.8,2-1.3,3.2-1.3c1.6-0.2,2.9,1,3.1,2.5l0,0c0,0.1,0,0.3,0,0.4v3.5c0,1.4-1.3,2.2-3.1,2.2
		s-2.8-0.7-2.8-2.2v-2.2c0-1.4,0.7-2.2,1.9-2.2c0.9,0,1.6,0.7,1.6,1.6s-0.7,1.6-1.6,1.6c-0.3,0-0.6-0.1-0.8-0.2v1.3
		c0,1.2,0.7,1.7,1.9,1.7s1.9-0.5,1.9-1.7v-3.5c0.1-1.1-0.7-2.1-1.8-2.2c0,0,0,0,0,0h0c-0.1,0-0.3,0-0.4,0c-1,0-1.9,0.4-2.6,1.1
		L333.7,23.3z M335.9,26.7c0.5,0,0.9-0.4,0.9-0.9v-0.1c0.1-0.5-0.3-0.9-0.8-1l0,0h-0.1c-0.5,0-0.9,0.5-0.9,1c0,0,0,0,0,0l0,0
		c0,0.2,0,0.4,0.1,0.6C335.3,26.6,335.6,26.8,335.9,26.7"/>
	<path class="st8" d="M345.4,30.7c-1.6,0-2.8-0.8-2.8-2.3v-0.1c0-0.8,0.6-1.6,1.4-1.7c-1-0.2-1.6-1.2-1.5-2.1v-0.3
		c0-1.1,0.6-2.2,1.9-2.2c0.8,0,1.5,0.6,1.5,1.5c0,0,0,0,0,0v0.1c0,0.9-0.7,1.6-1.6,1.6c-0.3,0-0.6-0.1-0.9-0.2
		c0,0.9,0.5,1.3,1.5,1.3h0.6v0.7h-0.8c-0.7,0-1.1,0.5-1.1,1.3v0.3c0,1.1,0.8,1.6,1.8,1.6s1.9-0.5,1.9-1.7v-3c0-1,0-1.9-0.1-2.8
		l1-0.5h0.1v6.3C348.4,29.9,347.1,30.7,345.4,30.7 M344.3,22.6c-0.5,0-0.9,0.5-0.9,1l0,0c0,0.5,0.3,0.9,0.8,0.9h0.1
		c0.5,0,0.9-0.4,0.9-0.9v-0.1C345.2,23,344.8,22.6,344.3,22.6L344.3,22.6z"/>
	<polygon class="st8" points="347.6,21 347.2,17.3 348.5,17.3 348.1,20.8 347.7,21 	"/>
	<path class="st8" d="M354,30.6v-5.7c0-1.6-0.9-2.2-1.9-2.2c-0.7,0-1.4,0.3-1.9,0.8l-0.4-0.5c0.7-0.6,1.5-1,2.5-1c1,0,2.7,0.5,2.7,3
		v5.6L354,30.6z"/>
	<path class="st8" d="M356.5,25.4c1.7,1.3,3.2,2.8,4.4,4.5c0.4,0,0.4-0.2,0.4-1.2v-3.5c-0.3,0.2-0.6,0.3-0.9,0.3
		c-0.9,0-1.6-0.7-1.6-1.6v-0.1c0-1,0.8-1.7,1.8-1.7c0,0,0,0,0,0c0.5,0,1.8,0.2,1.8,2.2v4.2c0,1.6-0.1,2.1-1.4,2.1h-0.5
		c-1.2-1.7-2.7-3.3-4.4-4.5L356.5,25.4z M361.5,23.7c0.1-0.5-0.3-1-0.9-1.1h-0.1c-0.5,0-1,0.4-1.1,0.9c0,0.1,0,0.1,0,0.2
		c-0.1,0.5,0.3,1,0.9,1.1h0.1c0.3,0,0.7-0.2,0.9-0.4C361.4,24.1,361.4,23.9,361.5,23.7L361.5,23.7z"/>
	<path class="st8" d="M366.2,27.6c0.3-0.2,0.6-0.3,1-0.3c0.9,0,1.6,0.7,1.6,1.6V29c0,0.9-0.8,1.7-1.7,1.7c0,0,0,0,0,0
		c-0.5,0-1.9-0.2-1.9-2.4v-2.9c0-1,0-1.9-0.1-2.8l1-0.5h0.1L366.2,27.6z M366.1,29c-0.1,0.5,0.3,1.1,0.8,1.1l0,0h0.2
		c0.6,0,1-0.4,1-1V29c0.1-0.5-0.3-1-0.9-1.1c0,0,0,0,0,0h-0.1c-0.3,0-0.7,0.2-0.9,0.4C366.2,28.5,366.1,28.7,366.1,29L366.1,29z"/>
	<path class="st8" d="M378.2,16.1L378.2,16.1l0.1,12c0,2.1-1.4,2.5-2.9,2.5h-4l0.1-0.7h1.4v-4.8c-0.3,0.2-0.6,0.3-0.9,0.3
		c-0.9,0-1.6-0.7-1.6-1.6v-0.1c0-1,0.8-1.7,1.8-1.7c0,0,0,0,0,0c0.5,0,1.8,0.2,1.8,2.2v5.6h1.4c1.2,0,2-0.3,2-1.9v-7.4
		c0-1.3,0-2.6-0.1-3.9L378.2,16.1z M372.9,23.7c0.1-0.5-0.3-1-0.9-1.1H372c-0.5,0-1,0.4-1.1,0.9c0,0.1,0,0.1,0,0.2
		c-0.1,0.5,0.3,1,0.9,1.1h0.1c0.3,0,0.7-0.2,0.9-0.4C372.9,24.1,372.9,23.9,372.9,23.7L372.9,23.7z"/>
	<path class="st8" d="M374.1,20L374.1,20c0,0,0-0.1,0-0.1c0-0.5,0.4-1,0.9-1h0.1c0.6,0,1,0.4,1,1c0.1,0.6-0.4,1.1-1,1.1H375
		c-0.5,0-1-0.3-1.2-0.7c-0.2-0.3-0.5-0.7-0.8-0.9v1.2l-0.3,0.3c-0.7-0.5-1.2-1.2-1.3-2.1c0-0.9,0.8-1.6,1.7-1.6c1,0,1.9,0.7,2.4,0.7
		c0.3,0,0.6-0.2,0.8-0.6l0.3,0.3c-0.1,0.5-0.6,0.9-1.2,0.9c-0.7,0-1.5-0.6-2.4-0.6c-0.5-0.1-1,0.3-1.1,0.9c0,0,0,0.1,0,0.1
		c0,0.5,0.2,0.9,0.6,1.2v-1.1l0.3-0.3C373.3,19.1,373.7,19.5,374.1,20 M374.9,20.6c0.3,0,0.6-0.3,0.6-0.6s-0.3-0.6-0.6-0.6
		c-0.3,0-0.5,0.2-0.5,0.5v0c0,0.2,0,0.4,0.1,0.5C374.6,20.5,374.8,20.6,374.9,20.6"/>
	<path class="st8" d="M388.1,22.1L388.1,22.1l0.1,5h0.3c1-0.1,1.9,0.7,1.9,1.7s-0.7,1.9-1.7,1.9l0,0c-1,0-1.6-0.7-1.6-2.2
		c0-0.1,0-0.3,0-0.5c-1.3,0.5-2.5,1.4-3.2,2.6h-1v-5.5c-0.3,0.2-0.6,0.3-0.9,0.3c-0.9,0-1.6-0.7-1.6-1.6c0,0,0,0,0,0v-0.1
		c0-1,0.8-1.7,1.8-1.7h0c0.5,0,1.8,0.2,1.8,2.2v5.2c0.9-1,2-1.7,3.2-2.1v-1.8c0-1,0-1.9-0.1-2.8L388.1,22.1z M383.1,23.7
		c0.1-0.5-0.3-1-0.9-1.1c0,0,0,0,0,0l0,0h-0.1c-0.5,0-1,0.4-1.1,0.9c0,0.1,0,0.1,0,0.2c-0.1,0.5,0.3,1,0.9,1.1h0.1
		c0.3,0,0.7-0.2,0.9-0.4C383,24.2,383.1,23.9,383.1,23.7L383.1,23.7z M388.2,27.8c-0.1,0.3-0.1,0.6-0.1,0.9c0,0.7,0.1,1.4,0.7,1.4
		s0.9-0.7,0.9-1.2c0.1-0.5-0.3-1.1-0.9-1.1c-0.1,0-0.2,0-0.3,0C388.4,27.8,388.3,27.8,388.2,27.8L388.2,27.8z"/>
	<path class="st8" d="M395.1,28.5L395.1,28.5c0.9-2.6,1.6-4.1,2-5c0.6-1.2,1-1.5,1.6-1.5s1.4,0.6,1.4,2.1v6.5h-1v-6.4
		c0-1.1-0.2-1.4-0.5-1.4s-0.5,0.2-0.9,1c-1,2.2-1.9,4.5-2.7,6.8h-1v-5.4c-0.3,0.2-0.6,0.3-0.9,0.3c-0.9,0-1.6-0.7-1.6-1.6v-0.1
		c0-1,0.8-1.7,1.8-1.7c0,0,0,0,0,0c0.5,0,1.8,0.2,1.8,2.2V27C395.2,27.5,395.2,28,395.1,28.5 M394.3,23.7c0.1-0.5-0.3-1-0.9-1.1
		h-0.1c-0.5,0-1,0.4-1.1,0.9c0,0.1,0,0.1,0,0.2c-0.1,0.5,0.3,1,0.9,1.1h0.1c0.3,0,0.7-0.2,0.9-0.4C394.3,24.1,394.3,23.9,394.3,23.7
		L394.3,23.7z"/>
	<path class="st8" d="M405.8,30.6v-5.7c0-1.6-0.9-2.2-1.9-2.2c-0.7,0-1.4,0.3-1.9,0.8l-0.4-0.5c0.7-0.6,1.5-1,2.5-1
		c1,0,2.7,0.5,2.7,3v5.6L405.8,30.6z"/>
	<path class="st8" d="M408.3,25.4c1.7,1.3,3.2,2.8,4.4,4.5c0.4,0,0.4-0.2,0.4-1.2v-3.5c-0.3,0.2-0.6,0.3-0.9,0.3
		c-0.9,0-1.6-0.7-1.6-1.6v-0.1c0-1,0.8-1.7,1.8-1.7c0,0,0,0,0,0c0.5,0,1.8,0.2,1.8,2.2v4.2c0,1.6-0.1,2.1-1.4,2.1h-0.5
		c-1.2-1.7-2.7-3.3-4.4-4.5L408.3,25.4z M413.3,23.7c0.1-0.5-0.3-1-0.9-1.1h-0.1c-0.5,0-1,0.4-1.1,0.9c0,0.1,0,0.1,0,0.2
		c-0.1,0.5,0.3,1,0.9,1.1h0.1c0.3,0,0.7-0.2,0.9-0.4C413.2,24.1,413.3,23.9,413.3,23.7L413.3,23.7z"/>
	<path class="st8" d="M422.2,30.7c0-1,0.1-1.9,0.1-2.9v-2.7c0.2-1.3-0.7-2.4-2-2.6c-0.1,0-0.2,0-0.3,0c-1,0-1.9,0.5-2.4,1.4l2.3,0.5
		l-0.2,0.6c-0.8,0-1.5,0.7-1.5,1.6c0,0,0,0,0,0v0c0,0,0,0.1,0,0.1v3.7h-1v-3.5c-0.1-1,0.5-1.8,1.4-2.1l-1.9-0.4
		c0.3-1.6,1.8-2.7,3.4-2.6c2.3,0,3.2,1.5,3.2,3.5v4.8l-1,0.5L422.2,30.7z"/>
	<path class="st8" d="M428.8,30.6v-5.7c0-1.6-0.9-2.2-1.9-2.2c-0.7,0-1.4,0.3-1.9,0.8l-0.4-0.5c0.7-0.6,1.6-1,2.5-1
		c1,0,2.7,0.5,2.7,3v5.6L428.8,30.6z"/>
	<path class="st8" d="M434.3,21.5c0.6,0,1.3,0.2,1.8,0.5c0.3,0.2,0.6,0.3,1,0.3c0.4,0,0.8-0.2,1-0.5l0.3,0.5
		c-0.4,0.5-0.9,0.8-1.6,0.9c-0.5,0-1-0.1-1.5-0.4c-0.4-0.2-0.9-0.3-1.4-0.3c-0.6-0.1-1.1,0.4-1.2,0.9c2.3,0.3,3.3,0.5,4,1
		c0.6,0.5,1,1.3,0.9,2.1v1.8c0,1.4-0.7,2.2-1.9,2.2c-0.9,0-1.7-0.7-1.7-1.6v-0.1c0-0.9,0.7-1.7,1.6-1.7c0.3,0,0.6,0.1,0.9,0.3v-1.2
		c0-1.5-1.3-1.9-4.7-2.2c-0.1-1.3,0.9-2.4,2.1-2.5H434.3z M435.9,27.8c-0.6,0-1,0.4-1,1v0.1c0,0.6,0.4,1.1,1,1.1l0,0
		c0.6,0,1-0.4,1-1v-0.1c0-0.2,0-0.5-0.1-0.7C436.6,27.9,436.3,27.7,435.9,27.8"/>
	<path class="st8" d="M447.3,22v6.6c0,1.1-0.9,2-2,2c0,0,0,0,0,0h-0.1c-1,0.1-1.9-0.7-2-1.8v-4.6c0-1.5-1-1.7-1.5-1.7
		c-0.7,0-1.4,0.5-1.6,1.1c0.2-0.1,0.5-0.2,0.8-0.2c0.7,0,1.3,0.6,1.3,1.3c0,0,0,0,0,0v0c0,0.8-0.6,1.5-1.4,1.5c0,0,0,0,0,0h-0.1
		c-1,0-1.5-0.8-1.5-1.8c0-1.4,1-2.5,2.4-2.5h0c1.3-0.1,2.3,0.9,2.4,2.2c0,0,0,0,0,0v0c0,0.1,0,0.2,0,0.3v4.2c0,1.1,0.5,1.4,1,1.4
		s1-0.3,1-1.4v-3.3c0-1,0-1.9-0.1-2.8l1-0.5L447.3,22z M440.9,23.8c-0.3,0-0.6,0.2-0.9,0.4c0,0.7,0.2,1.4,0.9,1.4
		c0.5,0,0.8-0.4,0.8-0.9v0C441.7,24.2,441.4,23.9,440.9,23.8C440.9,23.9,440.9,23.9,440.9,23.8L440.9,23.8L440.9,23.8z"/>
	<path class="st8" d="M449.5,23.1c0.8-0.8,2-1.3,3.2-1.3c1.6-0.2,2.9,1,3.1,2.6c0,0,0,0,0,0l0,0c0,0.1,0,0.3,0,0.4v3.5
		c0,1.4-1.3,2.2-3.1,2.2s-2.8-0.7-2.8-2.2v-2.2c0-1.4,0.7-2.2,1.9-2.2c0.9,0,1.6,0.7,1.6,1.6s-0.7,1.6-1.6,1.6
		c-0.3,0-0.6-0.1-0.8-0.2v1.3c0,1.2,0.7,1.7,1.9,1.7s1.9-0.5,1.9-1.7v-3.5c0.1-1.1-0.7-2.1-1.8-2.2c0,0,0,0,0,0h0
		c-0.2,0-0.3,0-0.5,0c-1,0-1.9,0.4-2.6,1.1L449.5,23.1z M451.7,26.5c0.5,0,0.9-0.4,0.9-0.9v-0.1c0.1-0.5-0.3-0.9-0.8-1h-0.1
		c-0.5,0-0.9,0.4-0.9,1c0,0,0,0,0,0c0,0,0,0,0,0c0,0.2,0,0.4,0.1,0.6C451.1,26.4,451.4,26.5,451.7,26.5L451.7,26.5z"/>
	<path class="st8" d="M457.3,25.3c1.7,1.3,3.2,2.8,4.4,4.5c0.4,0,0.4-0.2,0.4-1.2V25c-0.3,0.2-0.6,0.3-0.9,0.3
		c-0.9,0-1.6-0.7-1.6-1.6v-0.1c0-1,0.8-1.7,1.7-1.7c0,0,0,0,0,0h0c0.5,0,1.8,0.2,1.8,2.2v4.2c0,1.6-0.1,2.1-1.4,2.1h-0.5
		c-1.2-1.7-2.7-3.3-4.4-4.5L457.3,25.3z M462.3,23.5c0.1-0.5-0.3-1-0.9-1.1h-0.1c-0.5-0.1-1,0.3-1.1,0.9c0,0.1,0,0.2,0,0.2
		c-0.1,0.5,0.3,1,0.9,1.1h0.1c0.3,0,0.7-0.2,0.9-0.4C462.2,24,462.2,23.8,462.3,23.5L462.3,23.5z"/>
	<path class="st8" d="M240.1,46.9c-0.6-0.7-1.4-1.1-2.3-1.2c-1.1,0-1.8,0.8-1.8,2v0.5c0.3-0.2,0.6-0.3,0.9-0.3
		c0.8,0,1.5,0.6,1.5,1.4v0.2c0,0.9-0.8,1.6-1.7,1.6c0,0,0,0,0,0c0,0,0,0,0,0c-0.5,0-1.7-0.2-1.7-2.3V48c-0.2-1.5,0.8-2.8,2.3-3
		c0,0,0,0,0,0l0,0c0.2,0,0.4,0,0.6,0c0.8,0,1.6,0.2,2.2,0.7v-0.4c0-0.5-0.1-1.1-0.4-1.5c-0.4,0.3-0.9,0.6-1.3,0.9l-0.6-0.1v-0.1
		c0.5-0.3,1-0.6,1.5-1c-0.4-0.2-0.8-0.3-1.3-0.3c-1,0-1.9,0.4-2.6,1.1l-0.4-0.5c0.8-0.8,2-1.3,3.1-1.3c0.6,0,1.2,0.1,1.7,0.4
		c0.3-0.4,0.5-0.8,0.5-1.3h1.1c-0.1,0.7-0.5,1.3-1,1.8c0.6,0.6,0.9,1.4,0.8,2.2V51h-1L240.1,46.9z M235.9,49.5
		c-0.1,0.5,0.3,0.9,0.7,1c0.5,0.1,0.9-0.3,1-0.7c0-0.1,0-0.2,0-0.3c0.1-0.5-0.3-0.9-0.8-1l0,0h-0.1c-0.3,0-0.6,0.2-0.8,0.4
		C235.9,49.1,235.9,49.3,235.9,49.5L235.9,49.5z"/>
	<path class="st8" d="M242.8,36.6c0.6,0,1.2,0.2,1.7,0.4c0.3,0.2,0.7,0.3,1.1,0.4c0.4,0,0.7-0.2,0.9-0.5l0.3,0.4
		c-0.3,0.5-0.9,0.9-1.5,0.9c-0.5,0-1-0.1-1.5-0.3c-0.4-0.2-0.9-0.3-1.3-0.3c-0.6-0.1-1.1,0.3-1.2,0.9c1.6,0.2,2.8,0.4,3.4,0.9
		s0.6,1,0.6,2.2V48c0.3-0.2,0.6-0.3,1-0.3c0.9,0,1.6,0.7,1.6,1.6v0.1c0,0.9-0.8,1.7-1.7,1.7c0,0,0,0,0,0h0c-0.6,0-1.9-0.2-1.9-2.4
		v-7.6c0-1.4-0.4-1.8-3.7-2.1C240.5,37.7,241.5,36.7,242.8,36.6C242.7,36.6,242.7,36.6,242.8,36.6L242.8,36.6L242.8,36.6z
		 M245.2,49.4c-0.1,0.5,0.3,1.1,0.8,1.2h0.2c0.6,0,1-0.4,1-1v-0.1c0.1-0.5-0.4-1-0.9-1.1h-0.1c-0.3,0-0.7,0.2-0.9,0.4
		C245.2,49,245.2,49.2,245.2,49.4L245.2,49.4z"/>
	<path class="st8" d="M256.2,49.8v-4c0-1,0-1.9-0.1-2.8l1-0.5h0.1V51h-1c-0.8-1.1-2-1.9-3.3-2.4v0.2c0,1.3-0.5,2.3-1.8,2.3
		c-0.9,0-1.6-0.7-1.6-1.5c0,0,0-0.1,0-0.1c0-1,0.8-1.8,1.7-1.8c0,0,0,0,0,0h0.6v-2.1c-0.3,0.2-0.6,0.3-0.9,0.3
		c-0.9,0-1.6-0.7-1.6-1.6v0c0,0,0-0.1,0-0.1c0-1,0.8-1.7,1.8-1.7c0,0,0,0,0,0h0c0.5,0,1.8,0.2,1.8,2.2v3.2
		C254.1,48.2,255.3,48.9,256.2,49.8 M252,44.1c0.1-0.5-0.3-1-0.9-1.1h-0.1c-0.6,0-1,0.4-1.1,0.9v0c0,0.1,0,0.1,0,0.2
		c-0.1,0.5,0.3,1,0.9,1.1h0.1c0.3,0,0.7-0.2,0.9-0.4C252,44.6,252,44.4,252,44.1 M250.3,49.4c0,0.5,0.4,1,0.9,1.1
		c0.6,0,0.8-0.6,0.8-1.2c0-0.3,0-0.6-0.1-0.9c-0.1,0-0.3,0-0.4,0c-0.6-0.1-1.1,0.3-1.2,0.9c0,0,0,0,0,0L250.3,49.4
		C250.3,49.4,250.3,49.4,250.3,49.4"/>
	<path class="st8" d="M265.1,46.9c-0.6-0.7-1.4-1.1-2.3-1.2c-1.1,0-1.8,0.8-1.8,2v0.5c0.3-0.2,0.6-0.3,0.9-0.3
		c0.8,0,1.5,0.6,1.5,1.4c0,0,0,0,0,0v0.2c0,0.9-0.7,1.6-1.6,1.6c-0.5,0-1.7-0.2-1.7-2.3V48c-0.2-1.5,0.8-2.8,2.3-3c0,0,0,0,0,0l0,0
		c0.2,0,0.4,0,0.6,0c0.8,0,1.6,0.2,2.2,0.7v-0.4c0-0.5-0.1-1.1-0.4-1.5c-0.4,0.3-0.9,0.6-1.3,0.9l-0.6-0.1v-0.1c0.5-0.3,1-0.6,1.5-1
		c-0.4-0.2-0.9-0.4-1.4-0.3c-1,0-1.9,0.4-2.6,1.1l-0.4-0.5c0.8-0.8,1.9-1.3,3.1-1.3c0.6,0,1.2,0.1,1.7,0.4c0.3-0.4,0.5-0.8,0.5-1.3
		h1.1c-0.1,0.7-0.5,1.3-1,1.8c0.6,0.6,0.9,1.4,0.8,2.2V51h-1.1V46.9z M260.9,49.5c-0.1,0.5,0.2,0.9,0.7,1s0.9-0.2,1-0.7l0,0
		c0-0.1,0-0.2,0-0.3c0.1-0.5-0.3-0.9-0.8-1c0,0,0,0,0,0l0,0h-0.1c-0.3,0-0.6,0.2-0.8,0.4C260.9,49.1,260.9,49.3,260.9,49.5"/>
	<path class="st8" d="M270.3,42.1c0.6,0,1.3,0.2,1.8,0.5c0.3,0.2,0.6,0.3,1,0.3c0.4,0,0.8-0.2,1-0.5l0.3,0.5
		c-0.4,0.5-0.9,0.8-1.6,0.9c-0.5,0-1-0.1-1.5-0.3c-0.4-0.2-0.9-0.3-1.4-0.3c-0.6-0.1-1.1,0.4-1.2,0.9c2.3,0.3,3.3,0.5,4,1
		c0.6,0.5,1,1.3,0.9,2.2v1.8c0,1.4-0.7,2.2-1.9,2.2c-0.9,0-1.7-0.7-1.7-1.6c0,0,0,0,0,0v-0.1c0-0.9,0.7-1.7,1.7-1.7c0,0,0,0,0,0h0
		c0.3,0,0.6,0.1,0.9,0.3v-1.2c0-1.5-1.3-1.9-4.7-2.2c-0.1-1.3,0.8-2.4,2.1-2.5c0,0,0.1,0,0.1,0H270.3z M271.9,48.3c-0.6,0-1,0.4-1,1
		v0.1c-0.1,0.5,0.3,1.1,0.8,1.1c0,0,0,0,0,0c0,0,0.1,0,0.1,0h0c0.6,0,1-0.4,1-1v-0.1c0-0.2,0-0.5-0.1-0.7
		C272.6,48.5,272.3,48.3,271.9,48.3"/>
	<path class="st8" d="M284.2,51l-2.2-6.4l-2.1,5.9c-0.1,0.3-0.4,0.6-0.7,0.5h-1v-5.5c-0.3,0.2-0.6,0.3-0.9,0.3
		c-0.9,0-1.6-0.8-1.6-1.7c0,0,0,0,0-0.1c0-1,0.8-1.7,1.8-1.7c0,0,0,0,0,0c0.5,0,1.8,0.2,1.8,2.2v4c0,0.5,0,1-0.1,1.5l2.7-7.3h0.2
		l2.5,7.2h0c0-0.5-0.1-1.1-0.1-1.6V41c0-1.3,0-2.6-0.1-3.9l1-0.5h0.1v13.6c0,0.4-0.1,0.8-0.6,0.8L284.2,51z M278.3,44.1
		c0.1-0.5-0.3-1-0.9-1.1h-0.1c-0.5,0-1,0.4-1.1,0.9c0,0,0,0,0,0l0,0c0,0.1,0,0.1,0,0.2c-0.1,0.5,0.3,1,0.9,1.1h0.1
		c0.3,0,0.7-0.2,0.9-0.4C278.3,44.6,278.3,44.4,278.3,44.1"/>
	<path class="st8" d="M284.8,55.6v-1.5c-0.2,0.1-0.4,0.2-0.7,0.2c-0.6,0-1.1-0.5-1.1-1.1v-0.1c0-0.7,0.5-1.2,1.2-1.2h0.1
		c0.3,0,1.3,0.1,1.3,1.5v2.2H284.8z M284.9,53.1c0-0.4-0.2-0.7-0.6-0.7c-0.4,0-0.7,0.2-0.7,0.6l0,0c0,0,0,0.1,0,0.1
		c0,0.3,0.2,0.6,0.5,0.7h0.1c0.2,0,0.4-0.1,0.6-0.2C284.9,53.4,284.9,53.2,284.9,53.1L284.9,53.1z"/>
	<path class="st8" d="M289.8,51c-0.3-0.8-0.6-1.6-0.9-2.4c-0.5-0.9-0.7-2-0.8-3c-0.1-1.6,1.1-2.9,2.6-3.1c0.2,0,0.3,0.1,1.3,1
		c0.7-0.8,1.1-1,1.2-1c1.5,0.1,2.7,1.4,2.7,2.9V51h-1v-5.5c0-1.7-0.8-2.3-1.5-2.3c-0.1,0-0.5,0.4-1.3,1.2h-0.1
		c-0.8-0.8-1.2-1.2-1.4-1.2c-0.6,0-1.4,0.8-1.4,2.5c0.1,1.5,0.5,2.9,1.2,4.2c0.5-0.7,0.9-1.2,1.4-1.9c-0.8-0.1-1.5-0.7-1.5-1.5
		c0-0.9,0.7-1.6,1.7-1.6c0.8,0,1.5,0.6,1.6,1.5c0,0,0,0,0,0v0.1c0,0.6-0.3,1.2-0.7,1.7c-0.6,0.8-1.5,1.9-2.2,3L289.8,51z
		 M292.9,46.3c0-0.5-0.4-0.9-0.8-0.9H292c-0.6,0-1,0.4-1,1s0.4,1,1,1h0.1C292.4,47.4,292.9,46.9,292.9,46.3L292.9,46.3z"/>
	<path class="st8" d="M305.8,42.6L305.8,42.6l0.1,6c0,2.2-1.4,2.5-2.9,2.5h-4l0.1-0.7h1.4v-4.8c-0.3,0.2-0.6,0.3-0.9,0.3
		c-0.9,0-1.6-0.7-1.6-1.6v0c0,0,0-0.1,0-0.1c0-1,0.8-1.7,1.8-1.7c0,0,0,0,0,0h0c0.5,0,1.8,0.2,1.8,2.2v5.6h1.4c1.2,0,2-0.3,2-1.9
		v-2.5c0-1,0-1.9-0.1-2.8L305.8,42.6z M300.6,44.1c0.1-0.5-0.3-1-0.9-1.1h-0.1c-0.6,0-1,0.4-1.1,0.9c0,0,0,0,0,0v0
		c0,0.1,0,0.1,0,0.2c-0.1,0.5,0.3,1,0.9,1.1h0.1c0.3,0,0.7-0.2,0.9-0.4C300.5,44.6,300.6,44.4,300.6,44.1"/>
	<path class="st8" d="M308.2,43.7c0.8-0.8,2-1.3,3.2-1.3c1.6-0.1,2.9,1,3.1,2.6c0,0.1,0,0.3,0,0.4v3.5c0,1.4-1.3,2.2-3.1,2.2
		s-2.8-0.7-2.8-2.2v-2.2c0-1.3,0.7-2.2,1.9-2.2c0.9,0,1.6,0.7,1.6,1.6c0,0.9-0.7,1.6-1.6,1.6c-0.3,0-0.6-0.1-0.8-0.2v1.3
		c0,1.2,0.7,1.7,1.9,1.7s1.9-0.5,1.9-1.7v-3.5c0.1-1.1-0.7-2.1-1.8-2.2c-0.1,0-0.3,0-0.4,0c-1,0-1.9,0.4-2.6,1.1L308.2,43.7z
		 M310.3,47.1c0.5,0,0.9-0.4,0.9-0.9c0,0,0,0,0-0.1c0-0.6-0.3-1-0.9-1c-0.5,0-0.9,0.4-0.9,0.9c0,0,0,0,0,0c0,0,0,0,0,0.1
		c0,0.2,0,0.4,0.1,0.7C309.7,47,310,47.1,310.3,47.1"/>
	<path class="st8" d="M322.3,46.9c-0.6-0.7-1.4-1.1-2.3-1.2c-1.1,0-1.8,0.8-1.8,2v0.5c0.3-0.2,0.6-0.3,0.9-0.3
		c0.8,0,1.5,0.6,1.5,1.4c0,0,0,0,0,0v0.2c0,0.9-0.8,1.6-1.7,1.6c0,0,0,0,0,0c-0.5,0-1.7-0.2-1.7-2.3V48c-0.2-1.5,0.8-2.8,2.3-3l0,0
		c0.2,0,0.4,0,0.6,0c0.8,0,1.6,0.2,2.2,0.7v-0.4c0.1-1.1-0.7-2.1-1.9-2.1c0,0,0,0,0,0l0,0h-0.3c-1,0-1.9,0.4-2.6,1.1l-0.4-0.5
		c0.8-0.8,2-1.3,3.1-1.3c1.5-0.1,2.9,1,3,2.6c0,0.1,0,0.3,0,0.4V51h-1L322.3,46.9z M318.2,49.5c-0.1,0.5,0.3,0.9,0.7,1c0,0,0,0,0,0
		c0.5,0.1,0.9-0.3,1-0.7c0-0.1,0-0.2,0-0.3c0.1-0.5-0.3-0.9-0.8-1c0,0,0,0,0,0l0,0H319c-0.3,0-0.6,0.2-0.8,0.4
		C318.2,49.1,318.1,49.3,318.2,49.5"/>
	<path class="st8" d="M333.3,42.6L333.3,42.6l0.1,6c0,2.2-1.4,2.5-2.9,2.5h-4l0.1-0.7h1.4v-4.8c-0.3,0.2-0.6,0.3-0.9,0.3
		c-0.9,0-1.6-0.7-1.6-1.6c0,0,0,0,0,0l0,0c0,0,0-0.1,0-0.1c0-1,0.8-1.7,1.8-1.7c0,0,0,0,0,0h0c0.5,0,1.8,0.2,1.8,2.2v5.6h1.4
		c1.2,0,2-0.3,2-1.9v-2.5c0-1,0-1.9-0.1-2.8L333.3,42.6z M328.1,44.1c0.1-0.5-0.3-1-0.9-1.1h-0.1c-0.5,0-1,0.4-1.1,0.9c0,0,0,0,0,0
		l0,0c0,0.1,0,0.1,0,0.2c-0.1,0.5,0.3,1,0.9,1.1h0.1c0.3,0,0.7-0.2,0.9-0.4C328.1,44.6,328.1,44.4,328.1,44.1"/>
	<path class="st8" d="M339,51v-5.7c0-1.7-0.9-2.2-1.9-2.2c-0.7,0-1.4,0.3-1.9,0.8l-0.4-0.5c0.7-0.6,1.5-1,2.5-1c1,0,2.7,0.5,2.7,3
		V51L339,51z"/>
	<path class="st8" d="M344.1,42.1c0.6,0,1.3,0.2,1.8,0.5c0.3,0.2,0.6,0.3,1,0.3c0.4,0,0.8-0.2,1-0.5l0.3,0.5
		c-0.4,0.5-0.9,0.8-1.6,0.9c-0.5,0-1-0.1-1.5-0.3c-0.4-0.2-0.9-0.3-1.4-0.3c-0.6-0.1-1.1,0.4-1.2,0.9c2.3,0.3,3.3,0.5,4,1
		c0.6,0.5,1,1.3,0.9,2.2v1.8c0,1.4-0.7,2.2-1.9,2.2c-0.9,0-1.7-0.7-1.7-1.6c0,0,0,0,0,0v-0.1c0-0.9,0.7-1.7,1.7-1.7c0,0,0,0,0,0h0
		c0.3,0,0.6,0.1,0.9,0.3v-1.2c0-1.5-1.3-1.9-4.7-2.2c-0.1-1.3,0.8-2.4,2.1-2.5c0,0,0,0,0.1,0H344.1z M345.7,48.3c-0.6,0-1,0.4-1,1
		v0.1c-0.1,0.5,0.3,1.1,0.8,1.1c0,0,0,0,0,0c0,0,0.1,0,0.1,0h0c0.6,0,1-0.4,1-1v-0.1c0-0.2,0-0.5-0.1-0.7
		C346.4,48.5,346,48.3,345.7,48.3"/>
	<path class="st8" d="M347.7,38.8c-0.4-0.3-0.8-0.4-1.3-0.4c-0.8,0-1.4,0.6-1.4,1.3c0,0,0,0.1,0,0.1c0,0.5,0.3,1,0.8,1.2
		c-0.2-0.2-0.3-0.4-0.3-0.6c0-0.5,0.3-0.9,0.8-0.9c0,0,0,0,0,0l0,0h0.1c0.5-0.1,0.9,0.3,1,0.8c0,0,0,0,0,0l0,0c0,0,0,0.1,0,0.1
		c0,0.7-0.5,1.1-1.3,1.1c-1,0.1-1.8-0.7-1.8-1.6v-0.1c0-1,0.8-1.9,1.8-1.9c0,0,0,0,0,0h0.1c0.4,0,0.8,0.1,1.2,0.3l0.7-2.3h1
		L347.7,38.8z M346.5,39.9c-0.3,0-0.5,0.2-0.5,0.4c0,0,0,0,0,0l0,0c0,0.3,0.2,0.5,0.4,0.6c0.3,0,0.6-0.2,0.6-0.5v0
		C347,40.2,346.8,39.9,346.5,39.9C346.5,39.9,346.5,39.9,346.5,39.9L346.5,39.9L346.5,39.9z"/>
	<path class="st8" d="M351.3,48c0.3-0.2,0.6-0.3,1-0.3c0.9,0,1.6,0.7,1.6,1.6v0.1c0,0.9-0.8,1.7-1.7,1.7c-0.5,0-1.9-0.2-1.9-2.4
		v-2.9c0-1,0-1.9-0.1-2.8l1-0.5h0.1L351.3,48z M351.2,49.4c-0.1,0.5,0.3,1.1,0.8,1.2h0.2c0.6,0,1-0.4,1-1v-0.1
		c0.1-0.5-0.4-1-0.9-1.1h-0.1c-0.3,0-0.7,0.2-0.9,0.4C351.2,49,351.2,49.2,351.2,49.4"/>
	<path class="st8" d="M360.7,44.5c1.3-0.1,2.3-1.2,2.4-2.5h1.1c-0.1,1.2-0.9,2.2-2.1,2.6c1.1,0,2,0.9,1.9,2c0,0.1,0,0.1,0,0.2v2.1
		c0,1.9-1.2,2.1-2.8,2.1h-3l0.1-0.7h1.4v-5.6c0-1.5-0.6-1.7-0.8-1.7s-0.3,0.2-1,1.1h-0.1c-0.7-0.8-0.9-1-0.9-1
		c-0.6,0.3-1,0.9-0.9,1.6c0,0.3,0,0.6,0.1,0.8c0.2-0.7,0.9-1.1,1.6-0.9c0.5,0.1,0.9,0.6,1,1.2c0,0.8-0.6,1.4-1.4,1.4
		c-1.3-0.2-2.2-1.5-2-2.8c0.2-0.9,0.8-1.7,1.8-1.9c0.1,0,0.2,0.1,0.8,0.9c0.6-0.8,0.8-0.9,0.8-0.9C359.8,42.4,360.7,43.3,360.7,44.5
		L360.7,44.5z M357.3,46.6c0.5,0,0.9-0.4,0.8-0.9c0,0,0,0,0,0c0-0.4-0.3-0.7-0.7-0.7h-0.1c-0.5,0.1-0.8,0.4-0.9,0.9
		C356.6,46.3,356.9,46.6,357.3,46.6 M360.8,45v5.3h0.4c1.5,0,1.8-0.2,1.8-1.6v-2C363,45.8,362.8,45.1,360.8,45"/>
	<path class="st8" d="M365.5,36.6c0.6,0,1.2,0.1,1.7,0.4c0.3,0.2,0.7,0.3,1.1,0.4c0.4,0,0.7-0.2,0.9-0.5l0.3,0.4
		c-0.3,0.5-0.9,0.9-1.5,0.9c-0.5,0-1-0.1-1.5-0.3c-0.4-0.2-0.9-0.3-1.3-0.3c-0.6-0.1-1.1,0.3-1.2,0.9c1.6,0.2,2.8,0.4,3.4,0.9
		s0.6,1,0.6,2.2V48c0.3-0.2,0.6-0.3,1-0.3c0.9,0,1.6,0.7,1.6,1.6v0.1c0,0.9-0.8,1.7-1.7,1.7c-0.5,0-1.9-0.2-1.9-2.4v-7.6
		c0-1.4-0.4-1.8-3.7-2.1C363.2,37.7,364.2,36.7,365.5,36.6L365.5,36.6L365.5,36.6z M367.9,49.4c-0.1,0.5,0.3,1.1,0.8,1.1l0,0h0.2
		c0.6,0,1-0.4,1-1v-0.1c0.1-0.5-0.4-1-0.9-1.1H369c-0.3,0-0.7,0.2-0.9,0.4C368,49,367.9,49.2,367.9,49.4"/>
	<path class="st8" d="M377.8,46.9c-0.6-0.7-1.4-1.1-2.3-1.2c-1.1,0-1.8,0.8-1.8,2v0.5c0.3-0.2,0.6-0.3,0.9-0.3
		c0.8,0,1.5,0.6,1.5,1.4v0c0,0.1,0,0.1,0,0.2c0,0.9-0.8,1.6-1.6,1.6c-0.5,0-1.7-0.2-1.7-2.3V48c-0.2-1.5,0.8-2.8,2.3-3c0,0,0,0,0,0
		l0,0c0.2,0,0.4,0,0.6,0c0.8,0,1.6,0.2,2.2,0.7v-0.4c0.1-1.1-0.7-2.1-1.8-2.2h-0.4c-1,0-1.9,0.4-2.6,1.1l-0.4-0.5
		c0.8-0.8,1.9-1.3,3.1-1.3c1.5-0.1,2.9,1,3.1,2.5c0,0.1,0,0.3,0,0.5V51h-1L377.8,46.9z M373.6,49.5c-0.1,0.5,0.2,0.9,0.7,1
		c0.5,0.1,0.9-0.2,1-0.7c0-0.1,0-0.2,0-0.3c0.1-0.5-0.3-0.9-0.8-1c0,0,0,0,0,0l0,0h-0.1c-0.3,0-0.6,0.2-0.8,0.4
		C373.7,49.1,373.6,49.3,373.6,49.5L373.6,49.5z"/>
	<path class="st8" d="M388.6,42.6L388.6,42.6l0.1,5h0.3c1-0.1,1.9,0.7,1.9,1.7c0.1,1-0.7,1.9-1.7,1.9c-1,0-1.6-0.7-1.6-2.2
		c0-0.1,0-0.3,0-0.5c-1.3,0.5-2.5,1.4-3.2,2.6h-1v-5.5c-0.3,0.2-0.6,0.3-0.9,0.3c-0.9,0-1.6-0.8-1.6-1.6c0,0,0,0,0,0c0,0,0,0,0-0.1
		c0-1,0.8-1.7,1.8-1.7c0,0,0,0,0,0h0c0.5,0,1.8,0.2,1.8,2.2v5.2c0.9-1,2-1.7,3.2-2.2v-1.8c0-1,0-1.9-0.1-2.8L388.6,42.6z
		 M383.6,44.1c0.1-0.5-0.3-1-0.9-1.1h-0.1c-0.6,0-1,0.4-1.1,0.9v0c0,0.1,0,0.1,0,0.2c-0.1,0.5,0.3,1,0.9,1.1h0.1
		c0.3,0,0.7-0.2,0.9-0.4C383.5,44.6,383.6,44.4,383.6,44.1 M388.7,48.2c-0.1,0.3-0.1,0.6-0.1,0.9c0,0.7,0.1,1.4,0.7,1.4
		s0.9-0.7,0.9-1.2c0.1-0.5-0.3-1.1-0.8-1.1c0,0,0,0,0,0c-0.1,0-0.2,0-0.3,0C388.9,48.2,388.8,48.2,388.7,48.2L388.7,48.2z"/>
	<path class="st8" d="M395.7,51v-5.7c0-1.7-0.9-2.2-1.9-2.2c-0.7,0-1.4,0.3-1.9,0.8l-0.4-0.5c0.7-0.6,1.6-1,2.5-1c1,0,2.7,0.5,2.7,3
		V51L395.7,51z"/>
</g>
</svg>
