<?xml version="1.0" encoding="utf-8"?>
<!-- Generator: Adobe Illustrator 25.2.0, SVG Export Plug-In . SVG Version: 6.00 Build 0)  -->
<svg version="1.1" id="Layer_1" xmlns="http://www.w3.org/2000/svg" xmlns:xlink="http://www.w3.org/1999/xlink" x="0px" y="0px"
	 viewBox="0 0 205.2 118.7" style="enable-background:new 0 0 205.2 118.7;" xml:space="preserve">
<style type="text/css">
	.st0{fill:#231F20;}
	.st1{fill:#E7B809;}
	.st2{fill:#FFFFFF;}
	.st3{fill:#FFDD00;}
	.st4{fill:#0055A3;}
	.st5{fill:#A30046;}
	.st6{fill:#E21936;}
	.st7{fill:#00BE40;}
</style>
<g>
	<g id="ARTE">
		<g>
			<rect x="102.6" y="0" class="st0" width="1" height="71.7"/>
			<path class="st1" d="M180.6,1.2l0.4,0.2c3.9,2.6,7.1,3.1,11.9,3.1c1.8,0,3.6-0.3,5.3-0.9l0.5-0.2l2.3,3.2L200.7,7
				c-8.5,11.3-1.9,23.4,2.8,28.3l0.4,0.4l-0.4,0.4c-0.6,0.6-1.7,1.7-2.5,2.5l-0.3,0.3l0,0.4l0,0.1c0,0.1,0,0.2,0,0.4l0,0.1
				c0.4,7.5-1.6,13.7-5.8,18.3c-4.5,4.9-11.6,7.9-20,8.4l-0.3,0l-0.2,0.2c-2.1,1.9-4.3,3.6-4.3,3.6l-0.4,0.3l-0.4-0.3
				c-0.1-0.1-2.2-1.7-4.3-3.6l-0.2-0.2l-0.3,0c-8.4-0.5-15.5-3.4-20-8.4c-4.2-4.7-6.2-10.8-5.8-18.3l0-0.1c0-0.2,0-0.3,0-0.4l0,0v0
				l0-0.1l0-0.4l-0.3-0.3c-0.7-0.8-1.8-1.9-2.5-2.5l-0.4-0.4l0.4-0.4c4.7-4.9,11.3-17,2.8-28.3l-0.2-0.3l2.3-3.2l0.5,0.2
				c1.7,0.6,3.5,0.9,5.3,0.9c4.8,0,8-0.5,11.9-3.1l0.4-0.2l0.4,0.2c3,2.3,6.7,3.5,10.5,3.5c3.8,0,7.5-1.3,10.5-3.5L180.6,1.2"/>
			<path class="st2" d="M144,29c2.7-6.1,3.6-13.9-0.8-21.5c1.1,0.2,2.3,0.3,3.5,0.3c4.6,0,8.2-0.4,12.2-2.7
				c3.3,2.1,7.1,3.1,10.9,3.2c3.9,0,7.7-1.1,10.9-3.2c4,2.3,7.6,2.7,12.2,2.7c1.2,0,2.3-0.1,3.5-0.3c-4.5,7.7-3.5,15.5-0.8,21.6
				L144,29"/>
			<path class="st3" d="M195.6,29c-2.7-6.1-3.6-13.9,0.8-21.6c-1.1,0.2-2.3,0.3-3.5,0.3c-4.6,0-8.2-0.4-12.2-2.7
				c-3.3,2.1-7.1,3.1-10.9,3.2c0,0-0.1,0-0.1,0V29H195.6z"/>
			<path class="st4" d="M189.9,58.4c5.1-3.7,8.1-9.6,7.6-18.3c-0.1-0.5-0.1-0.5-0.1-1h-7.5V58.4z"/>
			<path class="st5" d="M181.8,62.1c2.9-0.7,5.6-2,8-3.7V39.1h-8V62.1z"/>
			<path class="st5" d="M149.6,58.4c2.4,1.7,5.2,3,8,3.7v-23h-8V58.4z"/>
			<path class="st4" d="M142,40.1c-0.4,8.7,2.6,14.6,7.6,18.3V39.1h-7.5C142.1,39.6,142.1,39.6,142,40.1"/>
			<path class="st5" d="M169.8,43.4c1.4,0,2.8,0.4,4,1.2v-5.4h-8v5.4C166.9,43.8,168.3,43.4,169.8,43.4"/>
			<path class="st5" d="M169.8,58.5c-1.4,0-2.8-0.4-4-1.2v6c0.1,0,0.3,0,0.4,0c2.7,0,5.1,0,7.2,0c0.1,0,0.3,0,0.4,0v-6
				C172.6,58.1,171.2,58.5,169.8,58.5"/>
			<path class="st4" d="M173.8,39.1v5.4c3.6,2.2,4.6,6.9,2.4,10.4c-0.6,1-1.5,1.8-2.4,2.4v6c2.7-0.1,5.4-0.5,8-1.2v-23H173.8z"/>
			<path class="st4" d="M162.2,50.9c0-2.6,1.3-5,3.5-6.4v-5.4h-8v23c2.6,0.7,5.3,1.1,8,1.2v-6C163.5,56,162.2,53.6,162.2,50.9"/>
			<path class="st6" d="M145.8,14.3c0.5,2.5,0.6,5.1,0.2,7.7h7.8v7h7.7v-7h8.2v-7.7h-8.2V6.5c-0.9-0.4-1.8-0.9-2.7-1.4
				c-1.6,0.9-3.3,1.6-5,2v7.2L145.8,14.3z"/>
			<path class="st6" d="M186.2,29V7.2c-0.9-0.2-1.9-0.5-2.8-0.8V29L186.2,29z"/>
			<path class="st6" d="M175.1,29V7.5c-0.9,0.3-1.8,0.4-2.8,0.6V29L175.1,29z"/>
			<path class="st6" d="M191.7,29V7.8c-1,0-1.9-0.1-2.8-0.1V29H191.7z"/>
			<path class="st6" d="M180.7,29V5.1c-0.9,0.5-1.8,1-2.8,1.4V29L180.7,29z"/>
			<path class="st0" d="M205.2,35.7l-1.1-1.1c-4.5-4.7-10.8-16.3-2.7-27.1l0.6-0.8L199,2.3l-1.1,0.4c-1.6,0.6-3.3,0.9-5,0.9
				c-4.6,0-7.7-0.5-11.4-2.9l-0.9-0.6l-0.9,0.6c-2.9,2.2-6.4,3.3-10,3.4c-3.6,0-7.1-1.2-10-3.4l-0.9-0.6L158,0.7
				c-3.7,2.5-6.8,2.9-11.4,2.9c-1.7,0-3.4-0.3-5-0.9l-1.1-0.4l-3.1,4.3l0.6,0.8c8.1,10.8,1.8,22.4-2.7,27.1l-1.1,1.1l1.1,1.1
				c0.6,0.6,1.6,1.6,2.4,2.5c0,0,0,0.1,0,0.1c0,0.1,0,0.2,0,0.3l0,0.1c-0.4,7.8,1.6,14.2,6,19c4.7,5.1,12,8.2,20.6,8.7
				c2.1,1.9,4.3,3.6,4.4,3.6l0.9,0.7l0.9-0.7c0.1-0.1,2.3-1.7,4.4-3.6c8.6-0.5,15.9-3.5,20.6-8.7c4.4-4.8,6.4-11.2,6-19l0-0.1
				c0-0.1,0-0.2,0-0.3c0,0,0-0.1,0-0.1c0.8-0.9,1.9-2,2.4-2.5L205.2,35.7z M200.1,38.7c0.1,0.8,0,0.8,0.1,1.2
				c0.9,17.3-11.1,25.5-25.7,26.1c-2.2,2.1-4.7,3.9-4.7,3.9s-2.5-1.8-4.7-3.9c-14.6-0.6-26.6-8.8-25.7-26.1c0.1-0.5,0-0.4,0.1-1.2
				c-0.8-0.9-2.2-2.3-2.9-3.1c5.2-5.4,11.3-17.8,2.9-29.1l1.8-2.4c1.8,0.6,3.6,0.9,5.5,1c4.9,0,8.2-0.5,12.2-3.2
				c3.2,2.3,7,3.6,10.9,3.6c3.9,0,7.7-1.3,10.9-3.6c4.1,2.7,7.4,3.2,12.2,3.2c1.9,0,3.7-0.3,5.5-1l1.8,2.4
				c-8.5,11.2-2.4,23.7,2.9,29.1C202.3,36.4,200.9,37.8,200.1,38.7"/>
			<path class="st0" d="M141.9,39.1c0,0.3,0,0.4-0.1,0.5c0,0.1,0,0.3-0.1,0.5c-0.3,6.7,1.3,12,4.9,16c4.1,4.6,10.9,7.1,19.4,7.5
				l0.3,0c1.4,0,2.8,0,4.1,0c1,0,1.9,0,2.8,0c8.6-0.4,15.3-2.9,19.4-7.5c3.6-4,5.3-9.4,4.9-16c0-0.2,0-0.4-0.1-0.5
				c0-0.1,0-0.3-0.1-0.5l0-0.2h-55.7L141.9,39.1z M142.2,40.1c0-0.2,0-0.3,0.1-0.5c0-0.1,0-0.2,0-0.4h54.8c0,0.1,0,0.2,0,0.4
				c0,0.1,0,0.2,0.1,0.4c0.3,6.5-1.3,11.8-4.8,15.7c-4.1,4.5-10.7,7-19.1,7.3c-2,0-4.3,0-6.9,0l-0.3,0c-8.4-0.3-15.1-2.9-19.1-7.3
				C143.5,51.9,141.9,46.7,142.2,40.1"/>
			<path class="st0" d="M143.8,28.9l-0.1,0.3h52.3l-0.1-0.3c-2.3-5.2-4-13.1,0.8-21.4l0.3-0.4l-0.5,0.1c-1.1,0.2-2.3,0.3-3.4,0.3
				c-4.7,0-8.1-0.4-12.1-2.7l-0.1-0.1l-0.1,0.1c-3.2,2-7,3.1-10.8,3.1c-3.8,0-7.6-1.1-10.8-3.1l-0.1-0.1l-0.1,0.1
				c-3.9,2.2-7.4,2.7-12.1,2.7c-1.2,0-2.3-0.1-3.4-0.3l-0.5-0.1l0.3,0.4C147.7,15.8,146,23.7,143.8,28.9 M169.9,8.5
				c3.8,0,7.6-1.1,10.8-3.1c4,2.2,7.5,2.7,12.2,2.7c1,0,2-0.1,3-0.3c-4.5,8.1-2.9,15.8-0.7,21h-25.3L169.9,8.5z M143.6,7.8
				c1,0.2,2,0.2,3,0.2c4.7,0,8.2-0.4,12.2-2.7c3.2,2,6.9,3.1,10.6,3.1v20.3h-25.1C146.5,23.6,148.1,15.8,143.6,7.8"/>
			<polygon class="st0" points="163.2,32 163.2,30.5 158,30.5 158,37.7 159.5,37.7 159.5,34.7 161.7,34.7 161.7,33.2 159.5,33.2 
				159.5,32 			"/>
			<path class="st0" d="M169.2,31.9c0.5,0,1,0.3,1.2,0.7l0,0.1l1.4-0.7l0-0.1c-0.5-1-1.5-1.7-2.6-1.6c-1.9,0-3.2,1.5-3.2,3.7
				c0,2.2,1.2,3.7,3.1,3.7c1.1,0.1,2.2-0.6,2.7-1.6l0-0.1l-1.3-0.8l0,0.1c-0.2,0.5-0.7,0.9-1.3,0.9c-0.9,0-1.6-0.9-1.6-2.2
				C167.6,32.7,168.2,31.9,169.2,31.9"/>
			<path class="st0" d="M181.2,32.4c0-1.2-0.9-1.9-2.3-1.9h-3.3v7.2h3.3c1.2,0.2,2.4-0.7,2.6-1.9c0-0.1,0-0.3,0-0.4
				c0-0.6-0.3-1.2-0.9-1.5C181,33.5,181.3,33,181.2,32.4 M177.2,31.9h1.7c0.7,0,0.8,0.3,0.8,0.6c0,0.4-0.2,0.6-0.7,0.6h-1.8
				L177.2,31.9z M179,36.2h-1.8v-1.7h1.8c0.6,0,0.9,0.3,0.9,0.8C179.9,35.9,179.6,36.2,179,36.2"/>
			<path class="st0" d="M169.7,58.7c4.3,0,7.7-3.5,7.7-7.7s-3.5-7.7-7.7-7.7s-7.7,3.5-7.7,7.7v0C162,55.2,165.5,58.6,169.7,58.7
				 M169.7,58.2c-1.4,0-2.9-0.4-4.1-1.2c1.7,0,3.3-0.5,4.8-1.2c1.2-0.7,2.5-1.6,2.8-2.9c0.9-0.5,2.1-0.1,2.6,0.8
				c0.1,0.2,0.2,0.5,0.2,0.7C174.8,56.7,172.4,58.2,169.7,58.2 M166.1,52.6c0.4,0.3,0.8,0.4,1.3,0.5c1.2,0,2.3-0.8,2.5-2
				c0.7-0.6,1.8-0.6,2.5,0.1c0.1,0.2,0.2,0.3,0.3,0.5c0.6,1.5-0.7,2.6-2.4,3.7c-1.6,0.8-3.4,1.2-5.2,1.2c-0.8-0.7-1.5-1.5-1.9-2.4
				c0.1,0,0.1,0,0.2,0C164.5,54.1,165.6,53.6,166.1,52.6 M165,48.9c0.1-1.4,0.3-2.7,0.7-4c1-0.7,2.2-1.1,3.4-1.2
				c-0.8,0.8-0.7,2.1,0.1,2.9c0,0,0.1,0.1,0.1,0.1c-0.2,0.2-0.4,0.4-0.5,0.6c-0.8,1.3-0.5,3,0.8,3.8c-0.2,0.9-1.1,1.6-2,1.6
				C165.8,52.4,165,50.8,165,48.9 M173.3,52.4c0-0.3-0.1-0.6-0.2-0.8c-0.4-1.1-1.7-1.7-2.8-1.2c-0.2,0.1-0.4,0.2-0.6,0.3
				c-1-0.7-1.3-2.1-0.6-3.2c0.8-1.3,2.8-0.8,4.5,0.2c1.5,0.9,2.7,2.3,3.3,4c-0.1,0.8-0.3,1.5-0.6,2.2
				C176,52.6,174.6,51.9,173.3,52.4C173.4,52.4,173.4,52.4,173.3,52.4 M173.9,47.2c-1.3-0.7-2.9-1.4-4.1-0.9c-0.7-0.5-1-1.5-0.5-2.2
				c0.1-0.2,0.3-0.4,0.6-0.5c3.8,0,7,3,7.2,6.8C176.3,49.1,175.2,48,173.9,47.2 M165.1,45.3c-0.1,0.5-0.3,1-0.4,1.5
				c-0.4,1.7-0.4,4.3,1,5.6c-0.5,0.9-1.4,1.4-2.4,1.4c-0.1,0-0.3,0-0.4,0C161.8,50.7,162.7,47.3,165.1,45.3"/>
			<path class="st7" d="M7,0h57.8c3.8,0,7,3.1,7,7v57.8c0,3.8-3.1,7-7,7H7c-3.8,0-7-3.1-7-7c0,0,0,0,0,0V7C0,3.2,3.1,0,7,0
				C7,0,7,0,7,0"/>
			<rect x="14.2" y="45.4" class="st2" width="43.4" height="3.4"/>
			<polygon class="st2" points="26.1,28.2 26.1,24.7 14.2,24.7 14.2,41.1 18.6,41.1 18.6,35.3 25.3,35.3 25.3,31.8 18.6,31.8 
				18.6,28.2 			"/>
			<path class="st2" d="M39,32.6c1.5-0.5,2.6-2,2.6-3.6c0-2.6-2-4.2-5.3-4.2H28v16.4h8.5c3.6,0,5.8-1.7,5.8-4.6
				C42.2,34.6,40.9,33,39,32.6 M32.3,28.1h3.3c1.2,0,1.9,0.6,1.9,1.6c0,1-0.7,1.6-1.9,1.6h-3.3V28.1z M35.9,37.8h-3.6v-3.3h3.7
				c1.2,0,1.9,0.6,1.9,1.7C37.8,37.3,37.1,37.8,35.9,37.8L35.9,37.8z"/>
			<path class="st2" d="M52.7,31.2l-2-0.3c-1.9-0.3-2.5-0.8-2.5-1.7s0.8-1.5,2.4-1.5c1.3-0.2,2.5,0.7,2.7,2c0,0,0,0,0,0l4.1-0.5
				c-0.6-3.2-2.9-4.8-6.7-4.8c-4.2,0-7,2.1-7,5.3c0,2.8,1.7,4.4,5.1,4.9l2.1,0.3c2.2,0.3,2.7,0.8,2.7,1.8s-0.8,1.5-2.7,1.5
				c-1.4,0.1-2.7-0.8-3.1-2.2l-4.3,0.6c0.7,3.3,3.2,4.9,7.3,4.9c4.6,0,7.3-2,7.3-5.3C58.1,33.2,56.4,31.7,52.7,31.2"/>
		</g>
		<g>
			<path class="st0" d="M10.3,96.7H9.6l-2-5.6l-1.8,5.2c-0.1,0.3-0.3,0.5-0.6,0.5H4.3v-4.8c-0.2,0.2-0.5,0.3-0.8,0.3
				c-0.8,0-1.4-0.6-1.4-1.4v-0.1c0-0.9,0.7-1.5,1.5-1.5c0,0,0,0,0,0c0.4,0,1.6,0.2,1.6,2v3.5c0,0.4,0,0.9-0.1,1.3l2.3-6.5h0.2
				l2.2,6.4c0-0.4-0.1-1-0.1-1.4v-4.7l0.9-0.4h0.1V96C10.8,96.3,10.7,96.7,10.3,96.7 M4.5,90.6c0.1-0.5-0.3-0.9-0.7-1l0,0H3.6
				c-0.5,0-0.9,0.4-0.9,0.9v0.1c-0.1,0.5,0.3,0.9,0.8,1h0.1c0.3,0,0.6-0.1,0.8-0.4C4.4,91,4.5,90.8,4.5,90.6"/>
			<path class="st0" d="M13.2,85.8c-0.3,1.4-1.5,2.5-3,2.4c-0.9,0-2.1-0.4-2.1-1.5c0-0.6,0.5-1.1,1-1.1h0.1c0.6,0,1,0.4,1,1
				c0,0.4-0.2,0.8-0.6,1c0.2,0,0.4,0.1,0.5,0.1c1-0.1,1.9-0.9,1.9-1.9L13.2,85.8z M9.2,87.4c0.3-0.1,0.6-0.4,0.6-0.7
				c0-0.3-0.2-0.5-0.5-0.5h0c-0.3,0-0.5,0.2-0.5,0.5C8.7,87,8.9,87.3,9.2,87.4L9.2,87.4z"/>
			<path class="st0" d="M19.4,89.2L19.4,89.2l0.1,4.4h0.3c0.9,0,1.7,0.6,1.7,1.5c0,0.9-0.6,1.7-1.5,1.7c-0.9,0-1.4-0.6-1.4-2
				c0-0.1,0-0.3,0-0.4c-1.2,0.4-2.2,1.2-2.9,2.3h-0.9v-4.8c-0.2,0.2-0.5,0.3-0.8,0.3c-0.8,0-1.4-0.6-1.4-1.4v-0.1
				c0-0.9,0.7-1.5,1.5-1.5c0,0,0,0,0,0h0.1c0.4,0,1.6,0.2,1.6,2v4.6c0.8-0.9,1.7-1.5,2.8-1.9v-1.6c0-0.8,0-1.7-0.1-2.5L19.4,89.2z
				 M15,90.6c0.1-0.5-0.3-0.9-0.7-1c0,0,0,0,0,0l0,0h-0.1c-0.5,0-0.9,0.4-0.9,0.9c0,0,0,0,0,0v0.1c-0.1,0.5,0.3,0.9,0.8,1l0,0h0.1
				c0.3,0,0.6-0.1,0.8-0.4C15,91,15,90.8,15,90.6 M19.5,94.2c0,0.3-0.1,0.5-0.1,0.8c0,0.6,0.1,1.2,0.6,1.2s0.8-0.6,0.8-1.1
				c0.1-0.5-0.3-0.9-0.8-1c0,0,0,0,0,0h0c-0.1,0-0.1,0-0.2,0C19.7,94.2,19.6,94.2,19.5,94.2"/>
			<path class="st0" d="M24.1,96v-4.9c-0.5-0.1-1-0.1-1.5-0.1c-0.1-1.1,0.7-2.1,1.8-2.2h0.3c1.1,0,1.9,0.7,2.4,0.7
				c0.3,0,0.6-0.2,0.8-0.5l0.3,0.4c-0.3,0.5-0.8,0.7-1.4,0.8c-0.9,0-1.6-0.6-2.5-0.6c-0.5-0.1-1,0.3-1.1,0.9c0,0,0,0,0,0l0,0
				c3.3,0.3,4.7,0.5,4.7,2.5v1.9c0,1.7-1.1,1.8-2.5,1.8H23l0.1-0.6L24.1,96z M25.4,96c1.4,0,1.6-0.2,1.6-1.4v-1.7
				c0-0.9-0.2-1.3-2-1.6V96L25.4,96z"/>
			<path class="st0" d="M35.8,95.6v-6l0.9-0.4v7.5h-0.8c-0.7-1-1.7-1.7-2.9-2.1v0.2c0,1.2-0.4,2.1-1.5,2.1c-0.8,0-1.4-0.6-1.4-1.4
				v-0.1c0-0.9,0.7-1.6,1.5-1.6h0.5v-1.9c-0.2,0.2-0.5,0.3-0.8,0.3c-0.8,0-1.4-0.6-1.5-1.4c0,0,0,0,0-0.1v-0.1
				c0-0.9,0.7-1.5,1.5-1.6h0c0.4,0,1.6,0.2,1.6,2v2.8C34,94.2,35,94.8,35.8,95.6 M32.2,90.6c0.1-0.5-0.2-0.9-0.7-1c0,0,0,0,0,0l0,0
				h-0.1c-0.5,0-0.9,0.4-0.9,0.9v0.1c-0.1,0.5,0.2,0.9,0.7,1l0,0h0.1c0.3,0,0.6-0.2,0.8-0.4C32.2,91,32.2,90.8,32.2,90.6L32.2,90.6z
				 M30.7,95.3c-0.1,0.5,0.2,0.9,0.7,1h0.1c0.5,0,0.7-0.5,0.7-1.1c0-0.3,0-0.5-0.1-0.8c-0.1,0-0.2,0-0.4,0
				C31.2,94.4,30.8,94.8,30.7,95.3L30.7,95.3z"/>
			<path class="st0" d="M34.7,85c1.3,0,2.4,1,2.5,2.4c0,0.3-0.1,0.6-0.2,0.9c-1.4-0.8-3-1.2-4.7-1.2C32.3,85.9,33.4,85,34.7,85
				 M36.7,87.6c-0.2-1.1-1.2-1.9-2.3-1.8c-0.7-0.1-1.3,0.3-1.6,0.8C34.2,86.6,35.5,87,36.7,87.6L36.7,87.6z"/>
			<path class="st0" d="M40.4,96.7c-0.2-0.7-0.5-1.4-0.8-2.1c-0.4-0.8-0.6-1.7-0.7-2.6c-0.1-1.4,1-2.6,2.3-2.7
				c0.2,0,0.3,0.1,1.1,0.9c0.6-0.7,0.9-0.9,1-0.9c1.4,0,2.4,1.2,2.4,2.5c0,0,0,0,0,0v4.9h-0.9v-4.9c0-1.5-0.7-2-1.3-2
				c-0.4,0.3-0.8,0.6-1.2,1h-0.1c-0.7-0.7-1.1-1.1-1.2-1.1c-0.5,0-1.3,0.7-1.3,2.2c0.1,1.3,0.5,2.6,1.1,3.7c0.4-0.6,0.8-1,1.3-1.6
				c-0.7,0-1.3-0.6-1.3-1.4c0-0.8,0.7-1.5,1.5-1.4h0c0.7,0,1.4,0.6,1.4,1.3l0,0c0,0.5-0.2,1.1-0.5,1.5c-0.5,0.7-1.3,1.7-2,2.6
				L40.4,96.7z M43.1,92.5c0-0.4-0.3-0.8-0.7-0.8h-0.1c-0.5,0-0.9,0.4-0.9,0.9c0,0,0,0,0,0c0,0.5,0.4,0.9,0.9,0.9c0,0,0,0,0,0h0.1
				C42.7,93.5,43.1,93,43.1,92.5"/>
			<path class="st0" d="M49.3,88.8c0.6,0,1.1,0.2,1.6,0.4c0.3,0.2,0.6,0.3,0.9,0.3c0.3,0,0.6-0.2,0.8-0.5l0.3,0.4
				c-0.3,0.5-0.8,0.7-1.4,0.8c-0.5,0-0.9-0.1-1.3-0.3c-0.4-0.2-0.8-0.3-1.2-0.3c-0.5,0-0.9,0.3-1,0.8c2,0.2,2.9,0.4,3.6,0.9
				c0.6,0.4,0.9,1.2,0.8,1.9v1.6c0,1.2-0.6,2-1.7,2c-0.8,0-1.5-0.6-1.5-1.4c0,0,0,0,0,0l0,0v-0.1c0-0.8,0.6-1.5,1.5-1.5c0,0,0,0,0,0
				c0.3,0,0.6,0.1,0.8,0.2v-1c0-1.3-1.1-1.7-4.1-2c-0.1-1.1,0.7-2.1,1.8-2.2H49.3z M50.7,94.3c-0.5,0-0.9,0.4-0.9,0.9
				c0,0.5,0.3,1,0.8,1h0.1c0.5,0,0.9-0.5,0.8-0.9c0,0,0,0,0,0c0,0,0,0,0,0c0-0.2,0-0.4-0.1-0.6C51.3,94.4,51,94.3,50.7,94.3"/>
			<path class="st0" d="M59.2,96.8v-4.9c0.1-1.1-0.6-2.1-1.7-2.2h-0.3c-0.9,0-1.7,0.5-2.1,1.2l2,0.5L57,91.9c-0.7,0-1.3,0.7-1.3,1.4
				v3.4h-0.9v-3.1c-0.1-0.8,0.5-1.6,1.3-1.9l-1.7-0.3c0.3-1.4,1.6-2.4,3-2.3c2,0,2.8,1.3,2.8,3.1v4.2l-0.9,0.4L59.2,96.8z"/>
			<path class="st0" d="M65.1,96.7v-5c0-1.5-0.8-2-1.6-2c-0.6,0-1.2,0.3-1.7,0.7L61.4,90c0.6-0.6,1.4-0.9,2.2-0.9
				c1.3-0.1,2.4,0.9,2.5,2.1c0,0.2,0,0.3,0,0.5v4.9L65.1,96.7z"/>
			<path class="st0" d="M69.6,88.8c0.6,0,1.1,0.2,1.6,0.4c0.3,0.2,0.6,0.3,0.9,0.3c0.3,0,0.6-0.2,0.8-0.5l0.3,0.4
				c-0.3,0.5-0.8,0.7-1.4,0.8c-0.5,0-0.9-0.1-1.3-0.3c-0.4-0.2-0.8-0.3-1.2-0.3c-0.5,0-0.9,0.3-1,0.8c2,0.2,2.9,0.4,3.6,0.9
				c0.6,0.4,0.9,1.2,0.8,1.9v1.6c0,1.2-0.6,2-1.7,2c-0.8,0-1.5-0.6-1.5-1.4c0,0,0,0,0,0v-0.1c0-0.8,0.6-1.5,1.4-1.5c0,0,0,0,0,0h0
				c0.3,0,0.6,0.1,0.8,0.3v-1c0-1.3-1.1-1.7-4.1-2c-0.1-1.1,0.7-2.1,1.8-2.2L69.6,88.8z M71.1,94.3c-0.5,0-0.9,0.4-0.9,0.9
				c0,0.5,0.3,1,0.8,1h0.1c0.5,0,0.9-0.5,0.8-1c0,0,0,0,0,0c0,0,0,0,0,0c0-0.2,0-0.4-0.1-0.6C71.7,94.4,71.4,94.3,71.1,94.3"/>
			<path class="st0" d="M81.4,96.7h-0.9v-4.8c0.1-1.2-0.9-2.2-2.1-2.3H78c-1.3-0.1-2.3,0.9-2.4,2.2c0,0.1,0,0.2,0,0.3
				c0.1,1,0.2,1.9,0.5,2.9c0.1-1.1,0.3-2.1,0.8-3.1c0.3-0.4,0.7-0.7,1.2-0.7c0.7,0,1.3,0.5,1.4,1.3c0,0,0,0,0,0v0.1
				c0.1,0.7-0.5,1.4-1.2,1.5c0,0,0,0,0,0h-0.1c-0.4,0-0.7-0.1-1-0.4c-0.3,1-0.5,2-0.5,3.1h-0.8c-0.1-0.7-0.2-1.5-0.5-2.2
				c-0.3-0.8-0.5-1.6-0.6-2.5c0-1.7,1.4-3,3.1-3c0.1,0,0.2,0,0.3,0c2.4,0,3.3,1.3,3.3,3.1L81.4,96.7z M78.1,93.5
				c0.5,0,0.8-0.5,0.8-0.9c0-0.5-0.3-0.8-0.8-0.9c-0.5,0.1-0.9,0.5-0.9,1C77.2,93.2,77.6,93.5,78.1,93.5"/>
			<path class="st0" d="M78.1,87.7c0.4-0.1,0.7-0.3,0.9-0.6c-0.6,0-1.1-0.5-1.1-1.1c0,0,0,0,0,0v0c0-0.6,0.5-1.1,1.2-1.1h0
				c0.6,0,1.1,0.4,1.1,1v0.1c0,0.6-0.3,1.1-0.7,1.4c1.1-0.2,2-1.2,2-2.4h0.9c-0.1,1-0.7,1.9-1.6,2.5c-0.8,0.4-1.7,0.6-2.6,0.6
				L78.1,87.7z M78.5,86c0,0.4,0.3,0.6,0.7,0.7c0.1,0,0.3-0.1,0.4-0.2c0.1-0.1,0.2-0.3,0.2-0.5c0-0.3-0.3-0.6-0.6-0.6
				C78.8,85.4,78.5,85.7,78.5,86L78.5,86L78.5,86z"/>
			<path class="st0" d="M86.2,96.7v-5c0-1.5-0.8-2-1.6-2c-0.6,0-1.2,0.3-1.7,0.7L82.6,90c0.6-0.6,1.4-0.9,2.2-0.9
				c1.3-0.1,2.3,0.9,2.4,2.2c0,0,0,0,0,0l0,0c0,0.1,0,0.3,0,0.4v4.9L86.2,96.7z"/>
			<path class="st0" d="M89.1,90.3c0.7-0.8,1.7-1.2,2.8-1.2c1.4-0.1,2.6,0.9,2.7,2.2c0,0,0,0,0,0l0,0c0,0.1,0,0.3,0,0.4v3.1
				c0,1.2-1.2,2-2.7,2s-2.5-0.7-2.5-1.9v-2c0-1.2,0.6-1.9,1.6-1.9c0.7,0,1.3,0.6,1.4,1.3v0.1c0.1,0.7-0.4,1.4-1.2,1.5c0,0,0,0,0,0
				l0,0h-0.2c-0.3,0-0.5-0.1-0.7-0.2v1.1c-0.1,0.8,0.5,1.5,1.3,1.6c0.1,0,0.3,0,0.4,0c1,0,1.7-0.5,1.7-1.5v-3.1c0.1-1-0.6-1.9-1.6-2
				l-0.1,0c-0.1,0-0.3,0-0.4,0c-0.9,0-1.7,0.4-2.3,1L89.1,90.3z M91,93.3c0.5,0,0.8-0.4,0.8-0.8c0,0,0,0,0,0v0
				c0-0.5-0.3-0.9-0.8-0.9c-0.4,0-0.8,0.4-0.8,0.8c0,0,0,0,0,0l0,0c0,0.2,0,0.4,0.1,0.6C90.5,93.1,90.8,93.3,91,93.3L91,93.3z"/>
			<path class="st0" d="M99.4,96.8c-1.4,0-2.5-0.7-2.5-2v-0.1c0-0.7,0.5-1.4,1.2-1.5c-0.8-0.2-1.4-1-1.2-1.9V91c0-1,0.5-2,1.6-2
				c0.7,0,1.3,0.6,1.3,1.3v0.1c0.1,0.7-0.5,1.4-1.2,1.4l0,0h-0.1c-0.3,0-0.6-0.1-0.8-0.2c0,0.8,0.4,1.1,1.3,1.1h0.5v0.6h-0.7
				c-0.6,0-1,0.4-1,1.2v0.3c0,1,0.7,1.4,1.6,1.4s1.7-0.5,1.7-1.5v-5.1l0.9-0.4v5.6C102.1,96,100.9,96.8,99.4,96.8 M98.4,89.6
				c-0.5,0-0.8,0.4-0.8,0.8c0,0,0,0,0,0l0,0c0,0.4,0.3,0.8,0.7,0.8h0.1c0.4,0,0.8-0.4,0.8-0.8v-0.1C99.2,90,98.9,89.6,98.4,89.6
				L98.4,89.6L98.4,89.6z"/>
			<polygon class="st0" points="101.4,88.2 101,85 102.1,85 101.7,88 101.4,88.2 			"/>
			<path class="st0" d="M106.9,96.7v-5c0-1.5-0.8-2-1.6-2c-0.6,0-1.2,0.3-1.7,0.7l-0.3-0.4c0.6-0.6,1.4-0.9,2.2-0.9
				c1.3,0,2.4,1,2.4,2.2c0,0,0,0,0,0v0c0,0.1,0,0.3,0,0.4v4.9L106.9,96.7z"/>
			<path class="st0" d="M109.1,92.1c1.5,1.1,2.8,2.4,3.9,3.9c0.3,0,0.4-0.2,0.4-1.1v-3.2c-0.2,0.2-0.5,0.3-0.8,0.3
				c-0.8,0-1.4-0.6-1.4-1.4v-0.1c0-0.8,0.7-1.5,1.5-1.6c0.4,0,1.6,0.2,1.6,2v3.7c0,1.4-0.1,1.9-1.3,1.9h-0.4c-1.1-1.5-2.4-2.9-3.9-4
				L109.1,92.1z M113.5,90.6c0.1-0.5-0.3-0.9-0.7-1l0,0h-0.1c-0.5,0-0.9,0.4-0.9,0.9v0.1c-0.1,0.5,0.3,0.9,0.8,1h0.1
				c0.3,0,0.6-0.2,0.8-0.4C113.5,91,113.5,90.8,113.5,90.6"/>
			<path class="st0" d="M117.7,94c0.3-0.2,0.6-0.3,0.9-0.3c0.8,0,1.4,0.6,1.4,1.3c0,0.1,0,0.1,0,0.2c0,0.8-0.7,1.5-1.5,1.5
				c0,0,0,0,0,0c-0.4,0-1.7-0.2-1.7-2.1v-2.6c0-0.8,0-1.7-0.1-2.5l0.9-0.4h0.1L117.7,94z M117.7,95.2c0,0.5,0.3,1,0.8,1
				c0.5,0,0.9-0.4,0.9-0.9c0,0,0,0,0-0.1c0.1-0.5-0.3-0.9-0.7-1l0,0h-0.1c-0.3,0-0.6,0.2-0.8,0.4C117.6,94.8,117.6,95,117.7,95.2
				L117.7,95.2z"/>
			<path class="st0" d="M128.3,83.9L128.3,83.9v10.5c0,1.9-1.2,2.2-2.6,2.2h-3.6l0.1-0.7h1.3v-4.2c-0.2,0.2-0.5,0.3-0.8,0.3
				c-0.8,0-1.4-0.6-1.4-1.4v-0.1c0-0.8,0.7-1.5,1.5-1.6h0.1c0.4,0,1.6,0.2,1.6,2v5h1.2c1.1,0,1.8-0.2,1.8-1.7v-10L128.3,83.9z
				 M123.7,90.6c0.1-0.5-0.3-0.9-0.7-1l0,0h-0.1c-0.5,0-0.9,0.4-0.9,0.9v0.1c-0.1,0.5,0.3,0.9,0.8,1h0.2c0.3,0,0.6-0.2,0.8-0.4
				C123.7,91,123.7,90.8,123.7,90.6"/>
			<path class="st0" d="M125,87.4L125,87.4v-0.1c0-0.5,0.3-0.8,0.8-0.9c0,0,0,0,0,0h0c0.5,0,0.9,0.4,0.9,0.9v0c0,0.5-0.3,1-0.8,1
				h-0.2c-0.4,0-0.9-0.2-1.1-0.6c-0.2-0.3-0.5-0.6-0.7-0.8v1.1l-0.2,0.3c-0.6-0.4-1.1-1.1-1.1-1.8c0-0.8,0.7-1.5,1.5-1.4
				c0.9,0,1.7,0.6,2.1,0.6c0.3,0,0.6-0.2,0.7-0.6l0.2,0.3c-0.1,0.5-0.5,0.8-1,0.8c-0.7,0-1.4-0.5-2.1-0.5c-0.5-0.1-0.9,0.3-1,0.7
				c0,0,0,0,0,0l0,0c0,0,0,0.1,0,0.1c0,0.4,0.2,0.8,0.5,1.1v-1l0.2-0.3C124.2,86.5,124.7,86.9,125,87.4 M125.7,87.9
				c0.3,0,0.5-0.2,0.5-0.5c0-0.3-0.2-0.5-0.5-0.5h0c-0.3,0-0.5,0.2-0.5,0.4c0,0.2,0,0.3,0.1,0.5C125.5,87.8,125.6,87.9,125.7,87.9"
				/>
			<path class="st0" d="M137.1,89.2L137.1,89.2v4.4h0.3c0.9,0,1.7,0.6,1.7,1.5s-0.6,1.7-1.5,1.7c-0.9,0-1.4-0.6-1.4-2
				c0-0.1,0-0.3,0-0.4c-1.2,0.4-2.2,1.2-2.9,2.3h-0.9v-4.8c-0.2,0.2-0.5,0.3-0.8,0.3c-0.8,0-1.4-0.6-1.4-1.4v-0.1
				c0-0.8,0.7-1.5,1.5-1.6h0.1c0.4,0,1.6,0.2,1.6,2v4.6c0.8-0.9,1.7-1.5,2.8-1.9v-4.1L137.1,89.2z M132.6,90.6
				c0.1-0.5-0.3-0.9-0.7-1l0,0h0c-0.5,0-0.9,0.4-0.9,0.9c0,0,0,0,0,0v0.1c-0.1,0.5,0.3,0.9,0.8,1c0,0,0,0,0,0l0,0h0.1
				c0.3,0,0.6-0.2,0.8-0.4C132.6,91,132.6,90.8,132.6,90.6 M137.1,94.2c0,0.3-0.1,0.5-0.1,0.8c0,0.6,0.1,1.2,0.6,1.2
				s0.8-0.6,0.8-1.1c0.1-0.5-0.3-0.9-0.8-1h0c-0.1,0-0.1,0-0.2,0C137.3,94.1,137.2,94.1,137.1,94.2L137.1,94.2z"/>
			<path class="st0" d="M143.2,94.8L143.2,94.8c0.8-2.3,1.4-3.6,1.8-4.4c0.5-1.1,0.9-1.4,1.5-1.4c0.7,0,1.2,0.5,1.2,1.8v5.8h-0.9V91
				c0-1-0.2-1.2-0.4-1.2s-0.4,0.2-0.8,0.9c-0.9,2-1.7,4-2.3,6h-0.9v-4.8c-0.2,0.2-0.5,0.3-0.8,0.3c-0.8,0-1.4-0.6-1.4-1.4
				c0,0,0,0,0,0v-0.1c0-0.8,0.7-1.5,1.5-1.6h0.1c0.4,0,1.6,0.2,1.6,2v2.4C143.3,93.9,143.3,94.4,143.2,94.8 M142.5,90.6
				c0.1-0.5-0.3-0.9-0.7-1l0,0h-0.1c-0.5,0-0.9,0.4-0.9,0.9v0.1c-0.1,0.5,0.3,0.9,0.8,1h0.1c0.3,0,0.6-0.1,0.8-0.4
				C142.5,91,142.5,90.8,142.5,90.6"/>
			<path class="st0" d="M152.6,96.7v-5c0-1.5-0.8-2-1.6-2c-0.6,0-1.2,0.3-1.7,0.7L149,90c0.6-0.6,1.4-0.9,2.2-0.9
				c1.3-0.1,2.3,0.9,2.4,2.2c0,0,0,0,0,0l0,0c0,0.1,0,0.3,0,0.4v4.9L152.6,96.7z"/>
			<path class="st0" d="M154.8,92.1c1.5,1.1,2.8,2.4,3.9,3.9c0.3,0,0.4-0.2,0.4-1.1v-3.2c-0.2,0.2-0.5,0.3-0.8,0.3
				c-0.8,0-1.4-0.6-1.4-1.4v-0.1c0-0.8,0.7-1.5,1.5-1.6h0.1c0.4,0,1.6,0.2,1.6,2v3.7c0,1.4-0.1,1.9-1.3,1.9h-0.4
				c-1.1-1.5-2.4-2.9-3.9-4L154.8,92.1z M159.2,90.6c0.1-0.5-0.2-0.9-0.7-1c0,0,0,0,0,0h-0.1c-0.5,0-0.9,0.4-0.9,0.9v0.1
				c-0.1,0.5,0.3,0.9,0.8,1h0.1c0.3,0,0.6-0.2,0.8-0.4C159.2,91,159.2,90.8,159.2,90.6"/>
			<path class="st0" d="M167.1,96.8c0-0.8,0.1-1.7,0.1-2.5v-2.4c0.1-1.1-0.6-2.1-1.7-2.2c-0.1,0-0.2,0-0.4,0c-0.9,0-1.7,0.5-2.1,1.2
				l2,0.5l-0.2,0.5c-0.7,0-1.3,0.6-1.3,1.4c0,0,0,0,0,0v3.4h-0.9v-3.1c-0.1-0.8,0.4-1.6,1.2-1.9l-1.7-0.3c0.3-1.4,1.6-2.4,3-2.3
				c2,0,2.8,1.3,2.8,3.1v4.2L167.1,96.8L167.1,96.8z"/>
			<path class="st0" d="M172.9,96.7v-5c0-1.5-0.8-2-1.6-2c-0.6,0-1.2,0.3-1.7,0.7l-0.3-0.4c0.6-0.6,1.4-0.9,2.2-0.9
				c1.3-0.1,2.3,0.9,2.4,2.2c0,0,0,0,0,0l0,0c0,0.1,0,0.3,0,0.4v4.9L172.9,96.7z"/>
			<path class="st0" d="M177.4,88.8c0.6,0,1.1,0.2,1.6,0.4c0.3,0.2,0.6,0.3,0.9,0.3c0.3,0,0.6-0.2,0.9-0.5l0.3,0.4
				c-0.3,0.5-0.8,0.7-1.4,0.8c-0.5,0-0.9-0.1-1.3-0.3c-0.4-0.2-0.8-0.3-1.2-0.3c-0.5,0-0.9,0.3-1,0.8c2,0.2,2.9,0.4,3.6,0.9
				c0.6,0.5,0.9,1.2,0.8,1.9v1.6c0,1.2-0.6,2-1.7,2c-0.8,0-1.5-0.6-1.5-1.4c0,0,0,0,0,0v-0.1c0-0.8,0.6-1.5,1.4-1.5h0
				c0.3,0,0.6,0.1,0.8,0.2v-1c0-1.3-1.1-1.7-4.1-2c-0.1-1.1,0.7-2.1,1.8-2.2c0,0,0,0,0,0l0,0H177.4z M178.8,94.3
				c-0.5,0-0.9,0.4-0.9,0.9c0,0.5,0.3,1,0.8,1h0.1c0.5,0,0.9-0.4,0.9-0.9c0,0,0,0,0,0v0c0,0,0,0,0-0.1c0-0.2,0-0.4-0.1-0.6
				C179.4,94.4,179.1,94.3,178.8,94.3L178.8,94.3z"/>
			<path class="st0" d="M188.8,89.2V95c0,0.9-0.7,1.7-1.7,1.7c0,0,0,0,0,0H187c-0.9,0.1-1.7-0.6-1.8-1.5v-4.2c0-1.3-0.8-1.5-1.3-1.5
				c-0.6,0-1.2,0.4-1.4,1c0.2-0.1,0.5-0.2,0.7-0.2c0.6,0,1.2,0.5,1.2,1.1v0.1c0,0.7-0.5,1.3-1.2,1.3h-0.1c-0.9,0-1.4-0.7-1.4-1.6
				c-0.1-1.2,0.9-2.2,2.1-2.3h0.1c1.1-0.1,2,0.8,2.1,1.9V95c0,1,0.4,1.2,0.9,1.2s0.9-0.3,0.9-1.2v-3c0-0.8,0-1.7-0.1-2.5L188.8,89.2
				L188.8,89.2z M183.2,90.8c-0.3,0-0.6,0.1-0.8,0.3c0,0.6,0.2,1.2,0.8,1.2c0.4,0,0.7-0.4,0.7-0.8c0,0,0,0,0,0v0
				C183.9,91.2,183.6,90.9,183.2,90.8C183.3,90.9,183.3,90.9,183.2,90.8L183.2,90.8L183.2,90.8z"/>
			<path class="st0" d="M190.8,90.3c0.7-0.8,1.7-1.2,2.8-1.2c1.4-0.1,2.6,0.9,2.7,2.2c0,0,0,0,0,0l0,0c0,0.1,0,0.3,0,0.4v3.1
				c0,1.2-1.2,2-2.7,2s-2.5-0.7-2.5-1.9v-2c0-1.2,0.6-1.9,1.6-1.9c0.8,0,1.4,0.6,1.4,1.4c0,0.8-0.6,1.4-1.4,1.4c0,0,0,0,0,0
				c-0.3,0-0.5-0.1-0.7-0.2v1.1c0,0.8,0.6,1.5,1.4,1.5c0.1,0,0.2,0,0.3,0c1,0,1.7-0.5,1.7-1.5v-3.1c0.1-1-0.6-1.9-1.6-2c0,0,0,0,0,0
				l-0.1,0c-0.1,0-0.3,0-0.4,0c-0.9,0-1.7,0.4-2.3,1L190.8,90.3z M192.7,93.3c0.5,0,0.8-0.4,0.8-0.8c0,0,0,0,0,0v0
				c0-0.5-0.3-0.9-0.8-0.9c-0.5,0-0.8,0.4-0.8,0.9v0c0,0.2,0,0.4,0.1,0.6C192.2,93.2,192.5,93.3,192.7,93.3L192.7,93.3z"/>
			<path class="st0" d="M197.6,92.1c1.5,1.1,2.8,2.4,3.9,3.9c0.3,0,0.4-0.2,0.4-1.1v-3.2c-0.2,0.2-0.5,0.3-0.8,0.3
				c-0.8,0-1.4-0.6-1.4-1.4v-0.1c0-0.9,0.7-1.5,1.5-1.6c0.4,0,1.6,0.2,1.6,2v3.7c0,1.4-0.1,1.9-1.3,1.9h-0.4c-1.1-1.5-2.4-2.9-3.9-4
				L197.6,92.1z M202,90.6c0.1-0.5-0.2-0.9-0.7-1c0,0,0,0,0,0h-0.1c-0.5,0-0.9,0.4-0.9,0.9v0.1c-0.1,0.5,0.3,0.9,0.8,1h0.1
				c0.3,0,0.6-0.2,0.8-0.4C202,91,202,90.8,202,90.6"/>
			<path class="st0" d="M36,111c-0.5-0.6-1.2-1-2-1.1c-1,0-1.6,0.7-1.6,1.8v0.4c0.2-0.2,0.5-0.3,0.8-0.3c0.7,0,1.3,0.6,1.3,1.3
				c0,0,0,0,0,0v0.1c0,0.8-0.7,1.4-1.5,1.4h0c-0.4,0-1.5-0.2-1.5-2.1V112c-0.2-1.3,0.8-2.4,2-2.6c0,0,0,0,0,0l0,0c0.2,0,0.3,0,0.5,0
				c0.7,0,1.4,0.2,1.9,0.6v-0.4c0-0.5-0.1-0.9-0.4-1.3c-0.4,0.3-0.8,0.6-1.2,0.8L34,109v-0.1c0.5-0.3,0.9-0.6,1.3-0.9
				c-0.3-0.2-0.7-0.3-1.1-0.3c-0.9,0-1.7,0.4-2.3,1l-0.3-0.4c0.7-0.8,1.7-1.2,2.7-1.3c0.5,0,1,0.1,1.5,0.3c0.3-0.3,0.4-0.7,0.5-1.2
				h0.9c-0.1,0.6-0.4,1.1-0.9,1.6c0.5,0.5,0.7,1.2,0.7,1.9v4.9H36L36,111z M32.3,113.3c-0.1,0.4,0.2,0.8,0.6,0.9
				c0.4,0.1,0.8-0.2,0.9-0.6l0,0c0-0.1,0-0.2,0-0.3c0-0.4-0.3-0.8-0.7-0.9h-0.1c-0.3,0-0.5,0.1-0.7,0.3
				C32.4,113,32.3,113.1,32.3,113.3L32.3,113.3z"/>
			<path class="st0" d="M38.4,101.9c0.5,0,1,0.1,1.5,0.4c0.3,0.2,0.6,0.3,1,0.3c0.3,0,0.6-0.2,0.8-0.5l0.3,0.4
				c-0.3,0.5-0.8,0.8-1.3,0.8c-0.5,0-0.9-0.1-1.3-0.3c-0.4-0.1-0.8-0.2-1.2-0.3c-0.5,0-0.9,0.3-1,0.8c1.1,0,2.1,0.3,3,0.8
				c0.5,0.4,0.5,0.8,0.5,1.9v5.8c0.3-0.2,0.6-0.3,0.9-0.3c0.8,0,1.4,0.6,1.4,1.4c0,0,0,0,0,0v0.1c0,0.8-0.7,1.5-1.5,1.5h-0.1
				c-0.5,0-1.7-0.2-1.7-2.1V106c0-1.2-0.4-1.6-3.3-1.9C36.4,103,37.2,102,38.4,101.9L38.4,101.9z M40.5,113.2
				c-0.1,0.5,0.3,0.9,0.8,1c0,0,0,0,0,0l0,0c0.5,0,0.9-0.4,0.9-0.9c0,0,0,0,0,0l0,0v-0.1c0.1-0.5-0.3-0.9-0.8-1h-0.1
				c-0.3,0-0.6,0.2-0.8,0.4C40.5,112.8,40.5,113,40.5,113.2"/>
			<path class="st0" d="M50.2,113.6v-6l0.9-0.4h0v7.5h-0.8c-0.7-1-1.7-1.7-2.9-2.1v0.2c0,1.2-0.4,2.1-1.5,2.1
				c-0.8,0-1.4-0.6-1.4-1.3c0,0,0,0,0,0v0c0,0,0-0.1,0-0.1c0-0.9,0.7-1.6,1.5-1.6h0c0.1,0,0.1,0,0.2,0h0.3v-1.9
				c-0.2,0.2-0.5,0.3-0.8,0.3c-0.8,0-1.4-0.6-1.4-1.4v-0.1c0-0.8,0.7-1.4,1.5-1.5h0.1c0.4,0,1.6,0.2,1.6,2v2.8
				C48.5,112.2,49.4,112.8,50.2,113.6 M46.6,108.6c0.1-0.5-0.3-0.9-0.8-1c0,0,0,0,0,0l0,0h-0.1c-0.5,0-0.9,0.4-0.9,0.9
				c0,0,0,0.1,0,0.1c-0.1,0.5,0.2,0.9,0.7,1l0,0h0.1c0.3,0,0.6-0.2,0.8-0.4C46.5,109,46.6,108.8,46.6,108.6L46.6,108.6z M45,113.2
				c-0.1,0.5,0.2,0.9,0.6,1c0,0,0,0,0,0l0,0h0.1c0.5,0,0.7-0.5,0.7-1.1c0-0.3,0-0.5-0.1-0.8h-0.4C45.6,112.3,45.1,112.7,45,113.2
				C45,113.2,45,113.2,45,113.2L45,113.2L45,113.2z"/>
			<path class="st0" d="M58,111c-0.5-0.6-1.2-1-2-1.1c-1,0-1.6,0.7-1.6,1.8v0.4c0.2-0.2,0.5-0.3,0.8-0.3c0.7,0,1.3,0.6,1.3,1.3v0.1
				c0,0.8-0.6,1.4-1.4,1.4c0,0,0,0,0,0h0c-0.4,0-1.5-0.2-1.5-2.1V112c-0.2-1.3,0.8-2.4,2-2.6c0,0,0,0,0,0l0,0c0.2,0,0.3,0,0.5,0
				c0.7,0,1.4,0.2,1.9,0.6v-0.4c0-0.5-0.1-0.9-0.4-1.3c-0.4,0.3-0.8,0.6-1.2,0.8L56,109v-0.1c0.5-0.3,0.9-0.6,1.3-0.9
				c-0.3-0.2-0.7-0.3-1.1-0.3c-0.9,0-1.7,0.4-2.3,1l-0.3-0.4c0.7-0.8,1.7-1.2,2.7-1.3c0.5,0,1,0.1,1.5,0.3c0.3-0.3,0.4-0.7,0.5-1.2
				h0.9c-0.1,0.6-0.4,1.1-0.9,1.6c0.5,0.5,0.8,1.2,0.7,1.9v4.9H58L58,111z M54.3,113.3c-0.1,0.5,0.3,0.9,0.7,0.9c0,0,0,0,0,0
				c0.5,0,0.8-0.4,0.8-0.9l0,0c0-0.4-0.3-0.8-0.7-0.9h-0.1c-0.3,0-0.5,0.1-0.7,0.3C54.3,113,54.3,113.1,54.3,113.3L54.3,113.3z"/>
			<path class="st0" d="M62.7,106.8c0.6,0,1.1,0.2,1.6,0.4c0.3,0.2,0.6,0.3,0.9,0.3c0.3,0,0.6-0.2,0.8-0.5l0.3,0.4
				c-0.3,0.5-0.8,0.7-1.4,0.8c-0.5,0-0.9-0.1-1.3-0.3c-0.4-0.2-0.8-0.3-1.2-0.3c-0.5,0-0.9,0.3-1,0.8c2.1,0.2,2.9,0.4,3.6,0.9
				c0.6,0.5,0.9,1.2,0.8,1.9v1.6c0,1.2-0.6,2-1.7,2c-0.8,0-1.5-0.6-1.5-1.4v-0.1c0-0.8,0.6-1.5,1.5-1.5c0.3,0,0.5,0.1,0.7,0.3v-1
				c0-1.3-1.1-1.7-4.1-2c-0.1-1.1,0.7-2.1,1.8-2.2L62.7,106.8z M64.1,112.3c-0.5,0-0.9,0.4-0.9,0.9c0,0,0,0,0,0c0,0.5,0.3,1,0.8,1
				c0,0,0,0,0,0l0,0c0.5,0,0.9-0.4,0.9-0.9l0,0v-0.1c0-0.2,0-0.4-0.1-0.6C64.7,112.4,64.4,112.3,64.1,112.3"/>
			<path class="st0" d="M74.8,114.6l-2-5.7l-1.8,5.2c-0.1,0.3-0.3,0.5-0.6,0.5h-0.8v-4.8c-0.2,0.2-0.5,0.3-0.8,0.3
				c-0.8,0-1.4-0.6-1.4-1.4c0,0,0,0,0,0c0,0,0,0,0,0v-0.1c0-0.8,0.6-1.4,1.4-1.5h0.1c0.4,0,1.6,0.2,1.6,2v3.5c0,0.4,0,0.9-0.1,1.3
				l2.3-6.5h0.2l2.2,6.4c0-0.4-0.1-1-0.1-1.4v-10l0.9-0.4v12c0,0.3-0.1,0.7-0.5,0.7L74.8,114.6z M69.7,108.5c0.1-0.5-0.3-0.9-0.7-1
				l0,0h0c-0.5,0-0.9,0.4-0.9,0.9c0,0,0,0.1,0,0.1c-0.1,0.5,0.3,0.9,0.8,1h0.1c0.3,0,0.6-0.2,0.8-0.4
				C69.7,109,69.7,108.8,69.7,108.5L69.7,108.5z"/>
			<path class="st0" d="M75.4,118.7v-1.4c-0.2,0.1-0.4,0.1-0.6,0.1c-0.6,0-1-0.4-1-1c0-0.6,0.5-1.1,1.1-1.1c0,0,0,0,0,0h0.1
				c0.3,0,1.1,0.1,1.1,1.3v2L75.4,118.7z M75.5,116.4c0-0.3-0.2-0.6-0.5-0.6l0,0c-0.3,0-0.6,0.2-0.6,0.5c0,0,0,0,0,0v0
				c0,0,0,0.1,0,0.1c0,0.3,0.2,0.6,0.5,0.6h0.1c0.2,0,0.4-0.1,0.6-0.2C75.4,116.7,75.4,116.6,75.5,116.4L75.5,116.4z"/>
			<path class="st0" d="M79.8,114.6c-0.2-0.7-0.5-1.4-0.8-2.1c-0.4-0.8-0.7-1.7-0.7-2.6c-0.1-1.4,1-2.6,2.3-2.7
				c0.2,0,0.3,0.1,1.1,0.9c0.6-0.7,0.9-0.9,1-0.9c1.4,0.1,2.4,1.2,2.4,2.5v4.9h-0.9v-4.9c0-1.5-0.7-2-1.3-2c-0.4,0.3-0.8,0.6-1.2,1
				h-0.1c-0.7-0.7-1.1-1.1-1.2-1.1c-0.5,0-1.3,0.7-1.3,2.2c0.1,1.3,0.5,2.6,1.2,3.7c0.4-0.6,0.8-1,1.3-1.6c-0.7,0-1.3-0.6-1.3-1.4
				c0-0.8,0.7-1.5,1.5-1.4c0.7,0,1.4,0.6,1.4,1.3c0,0.5-0.2,1.1-0.6,1.5c-0.5,0.7-1.3,1.7-1.9,2.6L79.8,114.6z M82.5,110.4
				c0-0.4-0.3-0.8-0.7-0.8h-0.1c-0.5,0-0.9,0.4-0.9,0.9c0,0.5,0.4,0.9,0.9,0.9h0.1C82.1,111.5,82.5,111,82.5,110.4L82.5,110.4z"/>
			<path class="st0" d="M93.9,107.2L93.9,107.2l0.1,5.3c0,1.9-1.2,2.2-2.6,2.2h-3.6l0.1-0.7h1.3v-4.2c-0.2,0.2-0.5,0.3-0.8,0.3
				c-0.8,0-1.4-0.6-1.4-1.4v-0.1c0-0.9,0.7-1.5,1.5-1.6c0.4,0,1.6,0.2,1.6,2v5h1.2c1.1,0,1.8-0.2,1.8-1.7v-4.7L93.9,107.2z
				 M89.3,108.6c0.1-0.5-0.3-0.9-0.7-1c0,0,0,0,0,0l0,0h-0.1c-0.5,0-0.9,0.4-0.9,0.9v0.1c-0.1,0.5,0.3,0.9,0.8,1h0.1
				c0.3,0,0.6-0.1,0.8-0.4C89.3,109,89.3,108.8,89.3,108.6"/>
			<path class="st0" d="M96,108.3c0.7-0.8,1.8-1.2,2.8-1.2c1.4-0.1,2.6,0.9,2.7,2.2c0,0,0,0,0,0l0,0c0,0.1,0,0.3,0,0.4v3.1
				c0,1.2-1.2,2-2.7,2s-2.5-0.7-2.5-1.9v-2c0-1.2,0.6-1.9,1.6-1.9c0.7,0,1.3,0.6,1.4,1.3v0.1c0.1,0.7-0.5,1.4-1.2,1.4H98
				c-0.3,0-0.5-0.1-0.7-0.2v1.1c-0.1,0.8,0.6,1.5,1.4,1.5c0,0,0,0,0,0c0.1,0,0.2,0,0.3,0c1,0,1.7-0.5,1.7-1.5v-3.1
				c0.1-1-0.6-1.9-1.6-2l-0.1,0c-0.1,0-0.3,0-0.4,0c-0.9,0-1.7,0.4-2.3,1L96,108.3z M97.9,111.3c0.5,0,0.8-0.4,0.8-0.8v0
				c0-0.5-0.3-0.9-0.8-0.9c-0.4,0-0.8,0.4-0.8,0.8l0,0c0,0.2,0,0.4,0.1,0.6C97.4,111.1,97.6,111.3,97.9,111.3L97.9,111.3z"/>
			<path class="st0" d="M108.5,111c-0.5-0.6-1.2-1-2-1.1c-1,0-1.6,0.7-1.6,1.8v0.4c0.2-0.2,0.5-0.3,0.8-0.3c0.7,0,1.3,0.6,1.3,1.3
				v0.1c0,0.8-0.6,1.4-1.4,1.4c0,0,0,0,0,0h0c-0.4,0-1.5-0.2-1.5-2.1V112c-0.1-1.3,0.8-2.5,2.1-2.6c0,0,0,0,0,0c0.2,0,0.3,0,0.5,0
				c0.7,0,1.4,0.2,2,0.6v-0.4c0.1-1-0.6-1.8-1.6-1.9h-0.3c-0.9,0-1.7,0.4-2.3,1l-0.3-0.4c0.7-0.7,1.7-1.2,2.8-1.2
				c1.4-0.1,2.6,0.9,2.7,2.2c0,0.1,0,0.3,0,0.4v4.9h-0.9L108.5,111z M104.8,113.3c-0.1,0.5,0.3,0.9,0.7,0.9c0,0,0,0,0,0h0
				c0.5,0,0.8-0.4,0.8-0.9c0-0.4-0.3-0.8-0.7-0.9h-0.1c-0.3,0-0.5,0.1-0.7,0.3C104.8,113,104.8,113.2,104.8,113.3L104.8,113.3z"/>
			<path class="st0" d="M118.2,107.2L118.2,107.2l0.1,5.3c0,1.9-1.2,2.2-2.6,2.2h-3.6l0.1-0.7h1.3v-4.2c-0.2,0.2-0.5,0.3-0.8,0.3
				c-0.8,0-1.4-0.6-1.4-1.4c0,0,0,0,0,0v-0.1c0-0.9,0.7-1.5,1.5-1.5c0,0,0,0,0,0h0c0.4,0,1.6,0.2,1.6,2v5h1.2c1.1,0,1.8-0.2,1.8-1.7
				v-2.2c0-0.8,0-1.7-0.1-2.5L118.2,107.2z M113.6,108.6c0.1-0.5-0.3-0.9-0.7-1l0,0h-0.1c-0.5,0-0.9,0.4-0.9,0.9c0,0,0,0,0,0v0.1
				c-0.1,0.5,0.2,0.9,0.7,1c0,0,0,0,0,0c0,0,0,0,0,0h0.1c0.3,0,0.6-0.2,0.8-0.4C113.6,109,113.6,108.8,113.6,108.6"/>
			<path class="st0" d="M123.2,114.7v-5c0-1.5-0.8-2-1.6-2c-0.6,0-1.2,0.3-1.7,0.7l-0.3-0.4c0.6-0.6,1.4-0.9,2.2-0.9
				c1.3-0.1,2.3,0.9,2.4,2.2l0,0c0,0.1,0,0.3,0,0.4v4.9L123.2,114.7z"/>
			<path class="st0" d="M127.7,106.8c0.6,0,1.1,0.2,1.6,0.4c0.3,0.2,0.6,0.3,0.9,0.3c0.3,0,0.6-0.2,0.8-0.5l0.3,0.4
				c-0.3,0.5-0.8,0.7-1.4,0.8c-0.5,0-0.9-0.1-1.3-0.3c-0.4-0.2-0.8-0.3-1.2-0.3c-0.5,0-0.9,0.3-1,0.8c2,0.2,2.9,0.4,3.6,0.9
				c0.6,0.4,0.9,1.2,0.8,1.9v1.6c0,1.2-0.6,2-1.7,2c-0.8,0-1.5-0.6-1.5-1.4c0,0,0,0,0,0v-0.1c0-0.8,0.6-1.5,1.4-1.5c0,0,0,0,0,0h0
				c0.3,0,0.6,0.1,0.8,0.2v-1c0-1.3-1.1-1.7-4.1-2c-0.1-1.1,0.7-2.1,1.8-2.2c0,0,0,0,0,0l0,0L127.7,106.8z M129.1,112.3
				c-0.5,0-0.9,0.4-0.9,0.9c0,0.5,0.3,1,0.8,1h0.1c0.5,0,0.9-0.5,0.8-1c0,0,0,0,0,0c0,0,0,0,0,0c0-0.2,0-0.4-0.1-0.6
				C129.7,112.4,129.4,112.3,129.1,112.3"/>
			<path class="st0" d="M130.8,103.9c-0.3-0.2-0.7-0.3-1.1-0.4c-0.7,0-1.2,0.5-1.2,1.2c0,0,0,0,0,0v0.1c0,0.5,0.3,0.9,0.7,1
				c-0.1-0.1-0.2-0.4-0.2-0.6c0-0.4,0.3-0.8,0.7-0.8c0,0,0,0,0,0h0.1c0.4,0,0.8,0.3,0.8,0.8v0c0,0.6-0.4,1-1,1c0,0,0,0,0,0
				c0,0-0.1,0-0.1,0c-0.8,0.1-1.6-0.6-1.6-1.4c0,0,0,0,0,0v-0.1c0-0.9,0.7-1.6,1.6-1.6c0,0,0,0,0,0h0.1c0.4,0,0.7,0.1,1,0.3l0.6-2.1
				h0.9L130.8,103.9z M129.7,104.9c-0.2,0-0.4,0.2-0.4,0.4c0,0.2,0.2,0.5,0.4,0.5c0.3,0,0.5-0.2,0.5-0.5v0
				C130.2,105.1,130,104.9,129.7,104.9L129.7,104.9L129.7,104.9z"/>
			<path class="st0" d="M134,112c0.3-0.2,0.6-0.3,0.9-0.3c0.8,0,1.4,0.6,1.4,1.4c0,0,0,0.1,0,0.1c0,0.8-0.7,1.5-1.5,1.5
				c-0.4,0-1.7-0.2-1.7-2.1v-2.6c0-0.8,0-1.7-0.1-2.5l0.9-0.4L134,112z M133.9,113.2c0,0.5,0.3,1,0.8,1c0.5,0,0.9-0.4,0.9-0.9v-0.1
				c0.1-0.5-0.3-0.9-0.7-1l0,0h0c-0.3,0-0.6,0.2-0.8,0.4C134,112.8,134,113,133.9,113.2L133.9,113.2z"/>
			<path class="st0" d="M142.3,108.9c1.1-0.1,2-1.1,2.1-2.2h0.9c-0.1,1.1-0.8,2-1.8,2.4c1,0,1.7,0.9,1.7,1.8c0,0.1,0,0.1,0,0.2v1.8
				c0,1.7-1.1,1.8-2.4,1.8h-2.7l0.1-0.6h1.2v-5c0-1.4-0.5-1.5-0.7-1.5s-0.2,0.2-0.8,0.9h-0.1c-0.6-0.7-0.8-0.9-0.8-0.9
				c-0.5,0.2-0.8,0.8-0.8,1.4c0,0.2,0,0.5,0.1,0.7c0.1-0.5,0.6-0.9,1.1-0.9c0.6,0,1.1,0.5,1.1,1.1v0c0,0.7-0.5,1.3-1.2,1.3h-0.1
				c-1.2-0.2-1.9-1.3-1.7-2.5c0.1-0.8,0.7-1.4,1.5-1.7c0.1,0,0.1,0.1,0.7,0.8c0.6-0.7,0.7-0.8,0.7-0.8
				C141.5,107.1,142.3,107.9,142.3,108.9 M139.3,110.8c0.4,0,0.8-0.4,0.7-0.8v0c0-0.4-0.3-0.7-0.6-0.7h-0.1
				c-0.4,0.1-0.7,0.4-0.8,0.8C138.7,110.5,139,110.8,139.3,110.8L139.3,110.8z M142.3,109.4v4.7h0.4c1.4,0,1.6-0.2,1.6-1.4v-1.7
				C144.3,110,144.1,109.5,142.3,109.4L142.3,109.4z"/>
			<path class="st0" d="M146.6,102c0.5,0,1,0.1,1.5,0.4c0.3,0.2,0.6,0.3,1,0.3c0.3,0,0.6-0.2,0.8-0.5l0.3,0.4
				c-0.3,0.5-0.8,0.8-1.3,0.8c-0.5,0-0.9-0.1-1.4-0.3c-0.4-0.2-0.8-0.2-1.1-0.3c-0.5,0-0.9,0.3-1,0.8c1.1,0,2.1,0.3,3,0.8
				c0.5,0.4,0.5,0.8,0.5,1.9v5.8c0.3-0.2,0.6-0.3,0.9-0.3c0.8,0,1.4,0.6,1.4,1.4c0,0,0,0.1,0,0.1c0,0.8-0.7,1.5-1.5,1.5c0,0,0,0,0,0
				c-0.5,0-1.7-0.2-1.7-2.1v-6.8c0-1.2-0.4-1.6-3.3-1.9C144.6,103,145.5,102,146.6,102C146.6,102,146.6,102,146.6,102L146.6,102
				L146.6,102z M148.7,113.2c0,0.5,0.3,1,0.8,1c0.5,0,0.9-0.4,0.9-0.9v-0.1c0.1-0.5-0.3-0.9-0.7-1l0,0h-0.1c-0.3,0-0.6,0.2-0.8,0.4
				C148.7,112.8,148.6,113,148.7,113.2L148.7,113.2z"/>
			<path class="st0" d="M157.4,111c-0.5-0.6-1.2-1-2-1.1c-1,0-1.6,0.7-1.6,1.8v0.4c0.2-0.2,0.5-0.3,0.8-0.3c0.7,0,1.3,0.6,1.3,1.3
				v0.1c0,0.8-0.6,1.4-1.4,1.4c0,0,0,0,0,0h0c-0.4,0-1.5-0.2-1.5-2.1V112c-0.1-1.3,0.8-2.5,2.1-2.6c0.2,0,0.3,0,0.5,0
				c0.7,0,1.4,0.2,1.9,0.6v-0.4c0.1-1-0.6-1.8-1.6-1.9h-0.3c-0.9,0-1.7,0.4-2.3,1l-0.3-0.4c0.7-0.7,1.7-1.2,2.8-1.2
				c1.4-0.1,2.6,0.9,2.7,2.2c0,0.1,0,0.3,0,0.4v4.9h-0.9L157.4,111z M153.7,113.3c-0.1,0.5,0.3,0.9,0.8,0.9c0.5,0,0.8-0.4,0.8-0.9
				c0-0.4-0.3-0.8-0.7-0.9h-0.1c-0.3,0-0.5,0.1-0.7,0.3C153.7,113,153.7,113.2,153.7,113.3L153.7,113.3z"/>
			<path class="st0" d="M166.9,107.2L166.9,107.2l0.1,4.4h0.3c0.9,0,1.7,0.6,1.7,1.5s-0.6,1.7-1.5,1.7l0,0c-0.9,0-1.4-0.6-1.4-2
				c0-0.1,0-0.3,0-0.4c-1.2,0.4-2.2,1.2-2.9,2.3h-0.9v-4.8c-0.2,0.2-0.5,0.3-0.8,0.3c-0.8,0-1.4-0.6-1.4-1.4v-0.1
				c0-0.8,0.7-1.5,1.5-1.6h0.1c0.4,0,1.6,0.2,1.6,2v4.6c0.8-0.9,1.7-1.5,2.8-1.9v-1.6c0-0.8,0-1.7-0.1-2.5L166.9,107.2z
				 M162.5,108.6c0.1-0.5-0.3-0.9-0.7-1c0,0,0,0,0,0l0,0h-0.1c-0.5,0-0.9,0.4-0.9,0.9c0,0,0,0,0,0v0.1c-0.1,0.5,0.3,0.9,0.8,1
				c0,0,0,0,0,0l0,0h0.1c0.3,0,0.6-0.2,0.8-0.4C162.4,109,162.5,108.8,162.5,108.6 M167,112.2c0,0.3-0.1,0.5-0.1,0.8
				c0,0.6,0.1,1.2,0.6,1.2s0.8-0.6,0.8-1.1c0.1-0.5-0.3-0.9-0.8-1c0,0,0,0,0,0h0c-0.1,0-0.1,0-0.2,0
				C167.2,112.2,167.1,112.2,167,112.2"/>
			<path class="st0" d="M173.1,114.7v-5c0-1.5-0.8-2-1.6-2c-0.6,0-1.2,0.3-1.7,0.7l-0.3-0.4c0.6-0.6,1.4-0.9,2.2-0.9
				c1.3-0.1,2.3,0.9,2.4,2.2l0,0c0,0.1,0,0.3,0,0.4v4.9L173.1,114.7z"/>
		</g>
	</g>
</g>
</svg>
