<?xml version="1.0" encoding="utf-8"?>
<!-- Generator: Adobe Illustrator 25.2.0, SVG Export Plug-In . SVG Version: 6.00 Build 0)  -->
<svg version="1.1" id="ARTE" xmlns="http://www.w3.org/2000/svg" xmlns:xlink="http://www.w3.org/1999/xlink" x="0px" y="0px"
	 viewBox="0 0 282.5 97.5" style="enable-background:new 0 0 282.5 97.5;" xml:space="preserve">
<style type="text/css">
	.st0{fill:#FFFFFF;}
	.st1{fill:#E7B809;}
	.st2{fill:#FFDD00;}
	.st3{fill:#0055A3;}
	.st4{fill:#A30046;}
	.st5{fill:#E21936;}
	.st6{fill:#231F20;}
	.st7{fill:#00BE40;}
</style>
<g>
	<rect x="141.3" y="0" class="st0" width="1" height="71.7"/>
	<g>
		<path class="st1" d="M219.3,1.1l0.4,0.2c3.9,2.6,7.1,3.1,11.9,3.1c1.8,0,3.6-0.3,5.3-0.9l0.5-0.2l2.3,3.2l-0.2,0.3
			c-8.5,11.3-1.9,23.4,2.8,28.3l0.4,0.4l-0.4,0.4c-0.6,0.6-1.7,1.7-2.5,2.5l-0.3,0.3l0,0.4l0,0.1c0,0.1,0,0.2,0,0.4l0,0.1
			c0.4,7.5-1.6,13.7-5.8,18.3c-4.5,4.9-11.6,7.9-20,8.4l-0.3,0l-0.2,0.2c-2.1,1.9-4.3,3.6-4.3,3.6l-0.4,0.3l-0.4-0.3
			c-0.1-0.1-2.2-1.7-4.3-3.6l-0.2-0.2l-0.3,0c-8.4-0.5-15.5-3.4-20-8.4c-4.2-4.7-6.2-10.8-5.8-18.3l0-0.1c0-0.2,0-0.3,0-0.4l0,0v0
			l0-0.1l0-0.4l-0.3-0.3c-0.7-0.8-1.8-1.9-2.5-2.5l-0.4-0.4l0.4-0.4c4.7-4.9,11.3-17,2.8-28.3l-0.2-0.3l2.3-3.2l0.5,0.2
			c1.7,0.6,3.5,0.9,5.3,0.9c4.8,0,8-0.5,11.9-3.1l0.4-0.2l0.4,0.2c3,2.3,6.7,3.5,10.5,3.5c3.8,0,7.5-1.3,10.5-3.5L219.3,1.1"/>
		<path class="st0" d="M182.6,28.9c2.7-6.1,3.6-13.9-0.8-21.5c1.1,0.2,2.3,0.3,3.5,0.3c4.6,0,8.2-0.4,12.2-2.7
			c3.3,2.1,7.1,3.1,10.9,3.2c3.9,0,7.7-1.1,10.9-3.2c4,2.3,7.6,2.7,12.2,2.7c1.2,0,2.3-0.1,3.5-0.3c-4.5,7.7-3.5,15.5-0.8,21.6
			H182.6"/>
		<path class="st2" d="M234.2,28.9c-2.7-6.1-3.6-13.9,0.8-21.6c-1.1,0.2-2.3,0.3-3.5,0.3c-4.6,0-8.2-0.4-12.2-2.7
			c-3.3,2.1-7.1,3.1-10.9,3.2c0,0-0.1,0-0.1,0v20.8H234.2z"/>
		<path class="st3" d="M228.6,58.3c5.1-3.7,8.1-9.6,7.6-18.3c-0.1-0.5-0.1-0.5-0.1-1h-7.5V58.3z"/>
		<path class="st4" d="M220.5,62c2.9-0.7,5.6-2,8-3.7V39h-8V62z"/>
		<path class="st4" d="M188.3,58.3c2.4,1.7,5.2,3,8,3.7V39h-8V58.3z"/>
		<path class="st3" d="M180.7,40c-0.4,8.7,2.6,14.6,7.6,18.3V39h-7.5C180.8,39.5,180.7,39.5,180.7,40"/>
		<path class="st4" d="M208.5,43.3c1.4,0,2.8,0.4,4,1.2V39h-8v5.4C205.6,43.7,207,43.3,208.5,43.3"/>
		<path class="st4" d="M208.5,58.4c-1.4,0-2.8-0.4-4-1.2v6c0.1,0,0.3,0,0.4,0c2.7,0,5.1,0,7.2,0c0.1,0,0.3,0,0.4,0v-6
			C211.3,58,209.9,58.4,208.5,58.4"/>
		<path class="st3" d="M212.5,39v5.4c3.6,2.2,4.6,6.9,2.4,10.4c-0.6,1-1.5,1.8-2.4,2.4v6c2.7-0.1,5.4-0.5,8-1.2V39H212.5z"/>
		<path class="st3" d="M200.9,50.9c0-2.6,1.3-5,3.5-6.4V39h-8v23c2.6,0.7,5.3,1.1,8,1.2v-6C202.2,55.9,200.9,53.5,200.9,50.9"/>
		<path class="st5" d="M184.5,14.2c0.5,2.5,0.6,5.1,0.2,7.7h7.8v7h7.7v-7h8.2v-7.7h-8.2V6.4c-0.9-0.4-1.8-0.9-2.7-1.4
			c-1.6,0.9-3.3,1.6-5,2v7.2L184.5,14.2z"/>
		<path class="st5" d="M224.9,28.9V7.1c-0.9-0.2-1.9-0.5-2.8-0.8v22.6L224.9,28.9z"/>
		<path class="st5" d="M213.8,28.9V7.4c-0.9,0.3-1.8,0.4-2.8,0.6v20.9H213.8z"/>
		<path class="st5" d="M230.4,28.9V7.7c-1,0-1.9-0.1-2.8-0.1v21.4L230.4,28.9z"/>
		<path class="st5" d="M219.3,28.9V5c-0.9,0.5-1.8,1-2.8,1.4v22.5L219.3,28.9z"/>
		<path class="st6" d="M243.9,35.6l-1.1-1.1c-4.5-4.7-10.8-16.3-2.7-27.1l0.6-0.8l-3.1-4.3l-1.1,0.4c-1.6,0.6-3.3,0.9-5,0.9
			c-4.6,0-7.7-0.5-11.4-2.9L219.3,0l-0.9,0.6c-2.9,2.2-6.4,3.3-10,3.4c-3.6,0-7.1-1.2-10-3.4L197.6,0l-0.9,0.6
			c-3.7,2.5-6.8,2.9-11.4,2.9c-1.7,0-3.4-0.3-5-0.9l-1.1-0.4l-3.1,4.3l0.6,0.8c8.1,10.8,1.8,22.4-2.7,27.1l-1.1,1.1l1.1,1.1
			c0.6,0.6,1.6,1.6,2.4,2.5c0,0,0,0.1,0,0.1c0,0.1,0,0.2,0,0.3l0,0.1c-0.4,7.8,1.6,14.2,6,19c4.7,5.1,12,8.2,20.6,8.7
			c2.1,1.9,4.3,3.6,4.4,3.6l0.9,0.7l0.9-0.7c0.1-0.1,2.3-1.7,4.4-3.6c8.6-0.5,15.9-3.5,20.6-8.7c4.4-4.8,6.4-11.2,6-19l0-0.1
			c0-0.1,0-0.2,0-0.3c0,0,0-0.1,0-0.1c0.8-0.9,1.9-2,2.4-2.5L243.9,35.6z M238.7,38.6c0.1,0.8,0,0.8,0.1,1.2
			c0.9,17.3-11.1,25.5-25.7,26.1c-2.2,2.1-4.7,3.9-4.7,3.9s-2.5-1.8-4.7-3.9c-14.6-0.6-26.6-8.8-25.7-26.1c0.1-0.5,0-0.4,0.1-1.2
			c-0.8-0.9-2.2-2.3-2.9-3.1c5.2-5.4,11.3-17.8,2.9-29.1l1.8-2.4c1.8,0.6,3.6,0.9,5.5,1c4.9,0,8.2-0.5,12.2-3.2
			c3.2,2.3,7,3.6,10.9,3.6c3.9,0,7.7-1.3,10.9-3.6c4.1,2.7,7.4,3.2,12.2,3.2c1.9,0,3.7-0.3,5.5-1l1.8,2.4
			c-8.5,11.2-2.4,23.7,2.9,29.1C241,36.3,239.6,37.7,238.7,38.6"/>
		<path class="st6" d="M180.6,39c0,0.3,0,0.4-0.1,0.5c0,0.1,0,0.3-0.1,0.5c-0.3,6.7,1.3,12,4.9,16c4.1,4.6,10.9,7.1,19.4,7.5l0.3,0
			c1.4,0,2.8,0,4.1,0c1,0,1.9,0,2.8,0c8.6-0.4,15.3-2.9,19.4-7.5c3.6-4,5.3-9.4,4.9-16c0-0.2,0-0.4-0.1-0.5c0-0.1,0-0.3-0.1-0.5
			l0-0.2h-55.7L180.6,39z M180.9,40c0-0.2,0-0.3,0.1-0.5c0-0.1,0-0.2,0-0.4h54.8c0,0.1,0,0.2,0,0.4c0,0.1,0,0.2,0.1,0.4
			c0.3,6.5-1.3,11.8-4.8,15.7c-4.1,4.5-10.7,7-19.1,7.3c-2,0-4.3,0-6.9,0l-0.3,0c-8.4-0.3-15.1-2.9-19.1-7.3
			C182.2,51.8,180.6,46.6,180.9,40"/>
		<path class="st6" d="M182.4,28.8l-0.1,0.3h52.3l-0.1-0.3c-2.3-5.2-4-13.1,0.8-21.4l0.3-0.4L235,7.1c-1.1,0.2-2.3,0.3-3.4,0.3
			c-4.7,0-8.1-0.4-12.1-2.7l-0.1-0.1l-0.1,0.1c-3.2,2-7,3.1-10.8,3.1c-3.8,0-7.6-1.1-10.8-3.1l-0.1-0.1l-0.1,0.1
			c-3.9,2.2-7.4,2.7-12.1,2.7c-1.2,0-2.3-0.1-3.4-0.3l-0.5-0.1l0.3,0.4C186.4,15.7,184.7,23.6,182.4,28.8 M208.6,8.4
			c3.8,0,7.6-1.1,10.8-3.1c4,2.2,7.5,2.7,12.2,2.7c1,0,2-0.1,3-0.3c-4.5,8.1-2.9,15.8-0.7,21h-25.3L208.6,8.4z M182.3,7.7
			c1,0.2,2,0.2,3,0.2c4.7,0,8.2-0.4,12.2-2.7c3.2,2,6.9,3.1,10.6,3.1v20.3H183C185.2,23.5,186.8,15.7,182.3,7.7"/>
		<polygon class="st6" points="201.8,31.9 201.8,30.4 196.7,30.4 196.7,37.6 198.2,37.6 198.2,34.6 200.3,34.6 200.3,33.1 
			198.2,33.1 198.2,31.9 		"/>
		<path class="st6" d="M207.9,31.8c0.5,0,1,0.3,1.2,0.7l0,0.1l1.4-0.7l0-0.1c-0.5-1-1.5-1.7-2.6-1.6c-1.9,0-3.2,1.5-3.2,3.7
			c0,2.2,1.2,3.7,3.1,3.7c1.1,0.1,2.2-0.6,2.7-1.6l0-0.1l-1.3-0.8l0,0.1c-0.2,0.5-0.7,0.9-1.3,0.9c-0.9,0-1.6-0.9-1.6-2.2
			C206.3,32.7,206.9,31.8,207.9,31.8"/>
		<path class="st6" d="M219.9,32.3c0-1.2-0.9-1.9-2.3-1.9h-3.3v7.2h3.3c1.2,0.2,2.4-0.7,2.6-1.9c0-0.1,0-0.3,0-0.4
			c0-0.6-0.3-1.2-0.9-1.5C219.7,33.4,219.9,32.9,219.9,32.3 M215.9,31.8h1.7c0.7,0,0.8,0.3,0.8,0.6c0,0.4-0.2,0.6-0.7,0.6h-1.8
			L215.9,31.8z M217.6,36.1h-1.8v-1.7h1.8c0.6,0,0.9,0.3,0.9,0.8C218.6,35.8,218.2,36.1,217.6,36.1"/>
		<path class="st6" d="M208.4,58.6c4.3,0,7.7-3.5,7.7-7.7s-3.5-7.7-7.7-7.7s-7.7,3.5-7.7,7.7v0C200.7,55.1,204.1,58.6,208.4,58.6
			 M208.4,58.1c-1.4,0-2.9-0.4-4.1-1.2c1.7,0,3.3-0.5,4.8-1.2c1.2-0.7,2.5-1.6,2.8-2.9c0.9-0.5,2.1-0.1,2.6,0.8
			c0.1,0.2,0.2,0.5,0.2,0.7C213.5,56.7,211.1,58.1,208.4,58.1 M204.8,52.5c0.4,0.3,0.8,0.4,1.3,0.5c1.2,0,2.3-0.8,2.5-2
			c0.7-0.6,1.8-0.6,2.5,0.1c0.1,0.2,0.2,0.3,0.3,0.5c0.6,1.5-0.7,2.6-2.4,3.7c-1.6,0.8-3.4,1.2-5.2,1.2c-0.8-0.7-1.5-1.5-1.9-2.4
			c0.1,0,0.1,0,0.2,0C203.2,54,204.2,53.5,204.8,52.5 M203.7,48.8c0.1-1.4,0.3-2.7,0.7-4c1-0.7,2.2-1.1,3.4-1.2
			c-0.8,0.8-0.7,2.1,0.1,2.9c0,0,0.1,0.1,0.1,0.1c-0.2,0.2-0.4,0.4-0.5,0.6c-0.8,1.3-0.5,3,0.8,3.8c-0.2,0.9-1.1,1.6-2,1.6
			C204.5,52.3,203.7,50.7,203.7,48.8 M212,52.3c0-0.3-0.1-0.6-0.2-0.8c-0.4-1.1-1.7-1.7-2.8-1.2c-0.2,0.1-0.4,0.2-0.6,0.3
			c-1-0.7-1.3-2.1-0.6-3.2c0.8-1.3,2.8-0.8,4.5,0.2c1.5,0.9,2.7,2.3,3.3,4c-0.1,0.8-0.3,1.5-0.6,2.2C214.7,52.5,213.3,51.8,212,52.3
			C212.1,52.3,212,52.3,212,52.3 M212.5,47.1c-1.3-0.7-2.9-1.4-4.1-0.9c-0.7-0.5-1-1.5-0.5-2.2c0.1-0.2,0.3-0.4,0.6-0.5
			c3.8,0,7,3,7.2,6.8C214.9,49,213.9,47.9,212.5,47.1 M203.8,45.2c-0.1,0.5-0.3,1-0.4,1.5c-0.4,1.7-0.4,4.3,1,5.6
			c-0.5,0.9-1.4,1.4-2.4,1.4c-0.1,0-0.3,0-0.4,0C200.5,50.6,201.3,47.2,203.8,45.2"/>
	</g>
	<g>
		<path class="st7" d="M45.6,0h57.8c3.8,0,7,3.1,7,7c0,0,0,0,0,0v57.8c0,3.8-3.1,7-7,7c0,0,0,0,0,0H45.6c-3.8,0-7-3.1-7-7
			c0,0,0,0,0,0V7C38.7,3.1,41.8,0,45.6,0C45.6,0,45.6,0,45.6,0"/>
		<rect x="52.9" y="45.4" class="st0" width="43.4" height="3.4"/>
		<polygon class="st0" points="64.8,28.2 64.8,24.7 52.9,24.7 52.9,41.1 57.3,41.1 57.3,35.2 63.9,35.2 63.9,31.7 57.3,31.7 
			57.3,28.2 		"/>
		<path class="st0" d="M77.7,32.6c1.5-0.5,2.6-2,2.6-3.6c0-2.6-2-4.2-5.3-4.2h-8.4v16.4h8.5c3.6,0,5.8-1.7,5.8-4.6
			C80.9,34.6,79.6,32.9,77.7,32.6 M70.9,28h3.3c1.2,0,1.9,0.6,1.9,1.6c0,1-0.7,1.6-1.9,1.6h-3.3V28z M74.6,37.7h-3.6v-3.3h3.7
			c1.2,0,1.9,0.6,1.9,1.7C76.5,37.2,75.8,37.7,74.6,37.7L74.6,37.7z"/>
		<path class="st0" d="M91.4,31.1l-2-0.3c-1.9-0.3-2.5-0.8-2.5-1.7s0.8-1.5,2.4-1.5c1.3-0.2,2.5,0.7,2.7,2c0,0,0,0,0,0l4.1-0.5
			c-0.6-3.2-2.9-4.8-6.7-4.8c-4.2,0-7,2.1-7,5.3c0,2.8,1.7,4.4,5.1,4.9l2.1,0.3c2.2,0.3,2.7,0.8,2.7,1.8s-0.8,1.5-2.7,1.5
			c-1.4,0.1-2.7-0.8-3.1-2.2l-4.3,0.6c0.7,3.3,3.2,4.9,7.3,4.9c4.6,0,7.3-2,7.3-5.3C96.8,33.2,95.1,31.7,91.4,31.1"/>
	</g>
</g>
<g>
	<polygon class="st0" points="0,87 6.4,87 6.1,88.9 2.1,88.9 2.1,91.3 5.7,91.3 5.7,93.2 2.1,93.2 2.1,97.4 0,97.4 	"/>
	<path class="st0" d="M7.4,90.8c0-2.7,1.3-4,3.8-4c1.2-0.1,2.3,0.4,3.1,1.2v1.6h-1.7c0,0-0.1-0.9-1.4-0.9s-1.8,0.7-1.8,2.1v2.7
		c0,1.4,0.4,2.1,1.8,2.1s1.4-0.9,1.4-0.9h1.7v1.6c-0.8,0.8-2,1.2-3.1,1.2c-2.5,0-3.8-1.2-3.8-4V90.8z"/>
	<path class="st0" d="M19,87h3.7c2.4,0,3.3,1.1,3.3,2.8c0,0.9-0.4,1.8-1.2,2.3c0.8,0.5,1.3,1.3,1.4,2.2c0,1.8-1,3-3.4,3H19V87z
		 M21,88.8v2.4h2.3c0.5-0.2,0.8-0.7,0.8-1.3c0-0.6-0.4-1.1-1-1.2h-0.2L21,88.8z M21,93v2.6h1.9c0.7,0.1,1.2-0.4,1.3-1.1v-0.2
		c0-0.6-0.4-1.1-0.9-1.3H21z"/>
	<path class="st0" d="M27.3,96.2l2.5-9.2h3.3l2.5,9.2v1.1h-1.8l-0.6-2.2c-0.6,0.1-1.2,0.2-1.8,0.2c-0.6,0-1.2-0.1-1.8-0.2L29,97.3
		h-1.8L27.3,96.2L27.3,96.2z M30.1,93.4c0.4,0.1,0.9,0.1,1.3,0.1c0.5,0,0.9,0,1.4-0.1l-0.6-2.3c-0.2-0.8-0.4-1.5-0.5-2.3h-0.4
		c0,0-0.3,1.3-0.6,2.3L30.1,93.4z"/>
	<path class="st0" d="M37.3,87h3.9c2.2,0,3.5,1,3.5,3c0,1.4-0.8,2.6-2.1,3.1c0.6,1,1.3,2,2.1,2.9v1.3H43c-1-1.2-1.9-2.6-2.6-4h-1.1
		v4h-2.1L37.3,87L37.3,87z M41.6,91.5c0.6-0.2,1-0.8,1-1.4c0.1-0.6-0.4-1.2-1-1.3c0,0-0.1,0-0.1,0h-2.1v2.7L41.6,91.5z"/>
	<path class="st0" d="M46,90.8c0-2.7,1.3-4,3.8-4c1.1,0,2.2,0.4,3,1.2v1.6h-1.7c0,0-0.1-0.9-1.4-0.9S48,89.4,48,90.8v2.7
		c0,1.4,0.4,2.1,1.8,2.1s1.4-0.9,1.4-0.9h1.7v1.6c-0.8,0.8-1.9,1.2-3.1,1.2c-2.5,0-3.8-1.2-3.8-4V90.8z"/>
	<polygon class="st0" points="54.5,87 61,87 60.7,88.9 56.5,88.9 56.5,91.3 60.3,91.3 60.3,93.2 56.5,93.2 56.5,95.5 60.8,95.5 
		60.8,97.3 54.4,97.3 54.4,87 	"/>
	<polygon class="st0" points="62.7,87 64.8,87 64.8,95.4 69,95.4 68.7,97.3 62.8,97.3 62.8,87 	"/>
	<path class="st0" d="M69.8,91c0-2.7,1.4-4.2,4-4.2s4,1.5,4,4.2v2.3c0,2.7-1.4,4.1-4,4.1s-4-1.4-4-4.1V91z M73.8,95.7
		c1.4,0,1.9-0.6,1.9-2.2v-2.7c0-1.5-0.6-2.2-1.9-2.2s-1.9,0.6-1.9,2.2v2.6C71.9,95,72.4,95.6,73.8,95.7"/>
	<path class="st0" d="M79.7,87h1.9l2.9,4.8l0.8,1.6c0,0-0.1-1.1-0.1-2.1V87h2v10.3h-2v-0.8l-2.6-4.2c-0.3-0.6-1-1.8-1-1.8v6.8h-2
		L79.7,87z"/>
	<path class="st0" d="M88.8,96.2l2.5-9.2h3.3l2.5,9.2v1.1h-1.8l-0.6-2.2c-1.2,0.3-2.4,0.3-3.6,0l-0.6,2.2h-1.8L88.8,96.2L88.8,96.2z
		 M91.7,93.4c0.4,0.1,0.9,0.1,1.3,0.1c0.5,0,0.9,0,1.4-0.1l-0.6-2.3c-0.3-1-0.6-2.3-0.6-2.3h-0.4c0,0-0.3,1.3-0.6,2.3L91.7,93.4z"/>
	<rect x="98.5" y="87" class="st0" width="1.8" height="4.5"/>
	<path class="st0" d="M102.1,87h1.9l3,4.8l0.8,1.6c0,0-0.1-1.1-0.1-2.1V87h2v10.3h-2v-0.8l-2.6-4.2l-1-1.8v6.8h-2L102.1,87z"/>
	<polygon class="st0" points="112.4,95.7 112.4,88.6 111.4,88.4 111.4,87 115.5,87 115.5,88.4 114.5,88.6 114.5,95.7 115.5,95.9 
		115.5,97.3 111.4,97.3 111.4,95.9 	"/>
	<path class="st0" d="M117.1,87h1.9l3,4.8l0.8,1.6c0,0-0.1-1.1-0.1-2.1V87h2v10.3h-2v-0.8l-2.6-4.2l-1-1.8H119c0,0,0.1,0.9,0.1,2
		v4.8h-2L117.1,87z"/>
	<path class="st0" d="M129.9,87h3.9c2.2,0,3.5,1.1,3.5,3.1c0,1.4-0.8,2.6-2.1,3.1c0.6,1,1.3,2,2.1,2.9v1.2h-1.6
		c-1-1.2-1.9-2.6-2.6-4H132v4h-2.1L129.9,87z M134.3,91.5c0.6-0.2,1-0.8,1-1.4c0.1-0.6-0.4-1.2-1-1.3c0,0-0.1,0-0.1,0H132v2.7
		L134.3,91.5z"/>
	<polygon class="st0" points="138.9,87 145.5,87 145.2,88.9 141,88.9 141,91.3 144.8,91.3 144.8,93.2 141,93.2 141,95.5 145.3,95.5 
		145.3,97.3 138.9,97.3 	"/>
	<path class="st0" d="M146.7,95h1.6c0,0,0.3,0.6,1.6,0.6s1.7-0.4,1.7-1.2c0-0.5-0.3-1-1.2-1.3l-0.9-0.3c-1.9-0.7-2.6-1.5-2.6-3
		c0-1.9,1.3-2.9,3.6-2.9c1,0,2,0.2,2.9,0.7v1.7h-1.6c0,0-0.2-0.6-1.4-0.6c-1.1,0-1.5,0.5-1.5,1.1s0.3,0.8,1.3,1.2l0.9,0.3
		c2.2,0.8,2.6,1.7,2.6,3.1c0,2-1.1,3.1-3.8,3.1c-1.1,0-2.1-0.2-3.1-0.6L146.7,95z"/>
	<path class="st0" d="M155.3,87h3.4l1.2,5.6c0.2,1.1,0.5,3,0.5,3h0.1c0,0,0.3-2,0.5-3l1.2-5.6h3.4v10.3h-2v-5.1
		c0-0.9,0.1-3.5,0.1-3.5h-0.2c0,0-0.4,2-0.7,3l-1.3,5.6h-2.3l-1.3-5.5c-0.2-1-0.7-3-0.7-3h-0.1v8.6h-2L155.3,87z"/>
	<polygon class="st0" points="168.3,95.7 168.3,88.6 167.3,88.4 167.3,87 171.4,87 171.4,88.4 170.4,88.6 170.4,95.7 171.4,95.9 
		171.4,97.3 167.2,97.3 167.2,95.9 	"/>
	<polygon class="st0" points="179.8,88.8 179.8,97.3 177.7,97.3 177.7,88.8 175.2,88.8 175.2,87 182.3,87 182,88.9 	"/>
	<polygon class="st0" points="184.2,95.7 184.2,88.6 183.2,88.4 183.2,87 187.3,87 187.3,88.4 186.3,88.6 186.3,95.7 187.3,95.9 
		187.3,97.3 183.2,97.3 183.2,95.9 	"/>
	<path class="st0" d="M188.6,90.8c0-2.7,1.4-4,3.8-4c1.2-0.1,2.3,0.4,3.1,1.2v1.6h-1.7c0,0-0.1-0.9-1.4-0.9s-1.8,0.7-1.8,2.1v2.7
		c0,1.4,0.4,2.1,1.8,2.1s1.4-0.9,1.4-0.9h1.7v1.6c-0.8,0.8-1.9,1.2-3.1,1.2c-2.5,0-3.8-1.2-3.8-4V90.8z"/>
	<path class="st0" d="M196.6,96.2l2.5-9.2h3.3l2.5,9.2v1.2H203l-0.6-2.2c-1.2,0.3-2.4,0.3-3.6,0l-0.6,2.2h-1.8L196.6,96.2z
		 M199.4,93.4c0.4,0.1,0.9,0.1,1.3,0.1c0.5,0,0.9,0,1.4-0.1l-0.6-2.3c-0.2-1-0.5-2.3-0.5-2.3h-0.4c0,0-0.3,1.3-0.6,2.3L199.4,93.4z"
		/>
	<path class="st0" d="M206.6,87h3.9c2.2,0,3.5,1,3.5,3c0,1.4-0.8,2.6-2.1,3.1c0.6,1,1.3,2,2.1,2.9v1.3h-1.6c-1-1.2-1.9-2.6-2.6-4
		h-1.1v4h-2.1L206.6,87z M210.9,91.5c0.6-0.2,1-0.8,1-1.4c0.1-0.6-0.4-1.2-1-1.3c0,0-0.1,0-0.1,0h-2.1v2.7L210.9,91.5z"/>
	<polygon class="st0" points="215.6,87 222.1,87 221.8,88.9 217.6,88.9 217.6,91.3 221.4,91.3 221.4,93.2 217.6,93.2 217.6,95.5 
		222,95.5 222,97.3 215.6,97.3 	"/>
	<polygon class="st0" points="227.5,88.8 227.5,97.3 225.4,97.3 225.4,88.8 223,88.8 223,87 230,87 229.7,88.9 	"/>
	<path class="st0" d="M234,91c0-2.7,1.4-4.2,4-4.2s4,1.5,4,4.2v2.3c0,2.7-1.4,4.1-4,4.1s-4-1.4-4-4.1V91z M238,95.7
		c1.4,0,1.9-0.6,1.9-2.2v-2.7c0-1.5-0.6-2.2-1.9-2.2s-1.9,0.6-1.9,2.2v2.6C236.1,95,236.6,95.6,238,95.7"/>
	<path class="st0" d="M243.8,87h3.9c2.3,0,3.5,1,3.5,3c0,1.4-0.8,2.6-2.1,3.1c0.6,1,1.3,2,2.1,2.9v1.3h-1.6c-1-1.2-1.9-2.6-2.6-4
		h-1.1v4h-2.1L243.8,87z M248.2,91.5c0.6-0.2,1-0.8,0.9-1.4c0.1-0.6-0.4-1.2-1-1.3c0,0-0.1,0-0.1,0h-2.1v2.7L248.2,91.5z"/>
	<polygon class="st0" points="256.5,88.8 256.5,97.3 254.4,97.3 254.4,88.8 252,88.8 252,87 259.1,87 258.8,88.9 	"/>
	<path class="st0" d="M259.7,96.2l2.5-9.2h3.3l2.5,9.2v1.1h-1.9l-0.6-2.2c-1.2,0.3-2.4,0.3-3.6,0l-0.6,2.2h-1.8v-1.1H259.7z
		 M262.5,93.4c0.4,0.1,0.9,0.1,1.3,0.1c0.5,0,0.9,0,1.4-0.1l-0.6-2.3c-0.2-0.8-0.4-1.5-0.5-2.3h-0.4c0,0-0.3,1.3-0.6,2.3L262.5,93.4
		z"/>
	<path class="st0" d="M269.4,90.8c0-2.8,1.5-4,4-4c1.2-0.1,2.3,0.4,3.1,1.2v1.6h-1.7c-0.2-0.6-0.9-1-1.5-0.9c-1.4,0-1.9,0.7-1.9,2.1
		v2.9c0,1.4,0.6,2,1.9,2c0.5,0,1.1-0.2,1.5-0.5V93h-1.6v-1.8h3.5v6.1h-1.5l-0.3-0.7c-0.6,0.6-1.4,0.9-2.2,0.8
		c-2.2,0-3.3-1.2-3.3-3.8V90.8z M272.2,83.8c-0.2,0.6,0.1,1.1,0.7,1.3c0.6,0.2,1.1-0.1,1.3-0.7c0.1-0.2,0.1-0.4,0-0.6h1.3v1
		c-0.7,1.2-2.2,1.7-3.4,1c-0.4-0.2-0.8-0.6-1-1v-1H272.2z"/>
	<polygon class="st0" points="279.4,95.7 279.4,88.6 278.4,88.4 278.4,87 282.5,87 282.5,88.4 281.5,88.6 281.5,95.7 282.5,95.9 
		282.5,97.3 278.4,97.3 278.4,95.9 	"/>
	<rect x="184.1" y="84" class="st0" width="2" height="2"/>
	<rect x="168.3" y="84" class="st0" width="2" height="2"/>
</g>
</svg>
