<?xml version="1.0" encoding="utf-8"?>
<!-- Generator: Adobe Illustrator 25.2.0, SVG Export Plug-In . SVG Version: 6.00 Build 0)  -->
<svg version="1.1" id="Layer_1" xmlns="http://www.w3.org/2000/svg" xmlns:xlink="http://www.w3.org/1999/xlink" x="0px" y="0px"
	 viewBox="0 0 408.9 72" style="enable-background:new 0 0 408.9 72;" xml:space="preserve">
<style type="text/css">
	.st0{fill:#00BE40;}
	.st1{fill:#FFFFFF;}
	.st2{fill:#E8B909;}
	.st3{fill:#FFDD00;}
	.st4{fill:#0054A4;}
	.st5{fill:#A30046;}
	.st6{fill:#E31937;}
	.st7{fill:#010101;}
</style>
<g>
	<g>
		<path class="st0" d="M7,0.1h57.8c3.8,0,7,3.1,7,7v57.8c0,3.8-3.1,7-7,7H7c-3.8,0-7-3.1-7-7V7.1C0,3.3,3.1,0.1,7,0.1"/>
		<rect x="14.3" y="45.5" class="st1" width="43.4" height="3.4"/>
		<polygon class="st1" points="26.1,28.3 26.1,24.8 14.3,24.8 14.3,41.2 18.6,41.2 18.6,35.4 25.3,35.4 25.3,31.9 18.6,31.9 
			18.6,28.3 		"/>
		<path class="st1" d="M39,32.7c1.7-0.8,2.6-2.1,2.6-3.6c0-2.6-2-4.2-5.3-4.2H28v16.4h8.5c3.6,0,5.8-1.7,5.8-4.6
			C42.3,34.7,41.1,33.3,39,32.7 M32.3,28.2h3.3c1.2,0,1.9,0.6,1.9,1.6s-0.7,1.6-1.9,1.6h-3.3V28.2z M35.9,37.9h-3.6v-3.3H36
			c1.2,0,1.9,0.6,1.9,1.7C37.8,37.3,37.2,37.9,35.9,37.9L35.9,37.9z"/>
		<path class="st1" d="M52.7,31.3l-2-0.3c-1.9-0.3-2.5-0.8-2.5-1.7s0.8-1.5,2.4-1.5c1.6,0,2.3,0.6,2.7,2l4.1-0.5
			c-0.6-3.2-2.9-4.8-6.7-4.8c-4.2,0-7,2.1-7,5.3c0,2.8,1.7,4.4,5.1,4.9L51,35c2.2,0.3,2.7,0.8,2.7,1.8s-0.8,1.5-2.7,1.5
			c-1.4,0.1-2.7-0.8-3.1-2.2l-4.3,0.6c0.7,3.3,3.2,4.9,7.3,4.9c4.6,0,7.3-2,7.3-5.3C58.1,33.3,56.5,31.8,52.7,31.3"/>
	</g>
	<g>
		<path class="st2" d="M180.7,1.3l0.4,0.2c3.9,2.6,7.1,3.1,11.9,3.1c1.7,0,3.5-0.3,5.3-0.9l0.5-0.2l2.3,3.2L200.7,7
			c-8.5,11.3-1.9,23.4,2.8,28.3l0.4,0.4l-0.4,0.4c-0.6,0.6-1.7,1.7-2.5,2.5l-0.3,0.3v0.4v0.1c0,0.1,0,0.2,0,0.4v0.1
			c0.4,7.5-1.5,13.7-5.8,18.3c-4.5,4.9-11.6,7.9-20,8.4h-0.3l-0.2,0.2c-2.1,1.9-4.3,3.6-4.3,3.6l-0.4,0.3l-0.4-0.3
			c-0.1-0.1-2.2-1.7-4.3-3.6l-0.2-0.2h-0.3c-8.4-0.5-15.5-3.4-20-8.4c-4.2-4.7-6.2-10.8-5.8-18.3v-0.1c0-0.2,0-0.3,0-0.4l0,0l0,0
			v-0.1v-0.4l-0.3-0.3c-0.7-0.8-1.8-1.9-2.5-2.5l-0.4-0.4l0.4-0.4c4.7-4.9,11.3-17,2.8-28.3l-0.2-0.3l2.3-3.2l0.5,0.2
			c1.7,0.6,3.6,0.9,5.3,0.9c4.8,0,8-0.5,11.9-3.1l0.4-0.2l0.4,0.2c3.5,2.4,6.8,3.5,10.5,3.5s7.1-1.1,10.5-3.5L180.7,1.3"/>
		<path class="st1" d="M144,29.1c2.7-6.1,3.6-13.9-0.8-21.5c1.1,0.2,2.3,0.3,3.5,0.3c4.6,0,8.2-0.4,12.2-2.7
			c3.2,1.9,6.8,3.1,10.9,3.2c4.2,0,7.8-1.2,10.9-3.2c4,2.3,7.6,2.7,12.2,2.7c1.2,0,2.4-0.1,3.5-0.3c-4.5,7.7-3.5,15.5-0.8,21.6H144"
			/>
		<path class="st3" d="M195.6,29.1c-2.6-6.1-3.6-14,0.9-21.6c-1.1,0.2-2.3,0.3-3.5,0.3c-4.6,0-8.2-0.4-12.2-2.7
			c-3.2,1.9-6.8,3.1-10.9,3.2h-0.1v20.8C169.8,29.1,195.6,29.1,195.6,29.1z"/>
		<path class="st4" d="M190,58.5c5.1-3.7,8.1-9.6,7.6-18.3c-0.1-0.5-0.1-0.5-0.1-1H190V58.5z"/>
		<path class="st5" d="M181.9,62.2c3-0.8,5.8-2,8-3.7V39.1h-8V62.2z"/>
		<path class="st5" d="M149.7,58.5c2.3,1.7,5,2.9,8,3.7v-23h-8V58.5z"/>
		<path class="st4" d="M142.1,40.2c-0.4,8.7,2.6,14.6,7.6,18.3V39.1h-7.5C142.2,39.6,142.1,39.7,142.1,40.2"/>
		<path class="st5" d="M169.9,43.4c1.5,0,2.8,0.4,4,1.2v-5.4h-8v5.4C167,43.8,168.4,43.4,169.9,43.4"/>
		<path class="st5" d="M169.9,58.6c-1.5,0-2.9-0.4-4-1.2v6c0.1,0,0.3,0,0.4,0c2.7,0,5.1,0,7.2,0c0.1,0,0.3,0,0.4,0v-6
			C172.7,58.1,171.3,58.6,169.9,58.6"/>
		<path class="st4" d="M173.9,39.1v5.4c2.1,1.3,3.6,3.7,3.6,6.4s-1.4,5.1-3.6,6.4v6c2.8-0.1,5.5-0.5,8-1.2v-23
			C181.9,39.1,173.9,39.1,173.9,39.1z"/>
		<path class="st4" d="M162.3,51c0-2.7,1.4-5.1,3.5-6.4v-5.4h-8v23c2.5,0.7,5.2,1.1,8,1.2v-6C163.7,56.1,162.3,53.7,162.3,51"/>
		<path class="st6" d="M145.9,14.3c0.5,2.6,0.6,5.2,0.2,7.7h7.8v7h7.7v-7h8.2v-7.7h-8.2V6.5c-0.9-0.4-1.8-0.9-2.7-1.4
			c-1.7,1-3.4,1.6-5,2v7.2C153.9,14.3,145.9,14.3,145.9,14.3z"/>
		<path class="st6" d="M186.3,29.1V7.2c-0.9-0.2-1.8-0.5-2.8-0.8V29h2.8V29.1z"/>
		<path class="st6" d="M175.2,29.1V7.6c-0.9,0.2-1.8,0.4-2.8,0.6v20.9C172.4,29.1,175.2,29.1,175.2,29.1z"/>
		<path class="st6" d="M191.8,29.1V7.8c-1,0-1.9-0.1-2.8-0.1v21.4H191.8z"/>
		<path class="st6" d="M180.8,29.1v-24c-0.9,0.5-1.8,1-2.8,1.4V29h2.8V29.1z"/>
		<path d="M205.3,35.7l-1.1-1.1c-4.5-4.7-10.8-16.3-2.7-27.1l0.6-0.8L199,2.4l-1.1,0.4c-1.6,0.6-3.4,0.9-5,0.9
			c-4.6,0-7.7-0.5-11.4-2.9l-0.9-0.6l-0.9,0.6c-3.3,2.3-6.5,3.4-10,3.4s-6.7-1.1-10-3.4L159,0.1l-0.9,0.6c-3.7,2.5-6.8,2.9-11.4,2.9
			c-1.6,0-3.3-0.3-5-0.9l-1.1-0.4l-3.1,4.3l0.6,0.8c8.1,10.8,1.8,22.4-2.7,27.1l-1.1,1.1l1.1,1.1c0.6,0.6,1.6,1.6,2.4,2.5v0.1
			c0,0.1,0,0.2,0,0.3v0.1c-0.4,7.8,1.6,14.2,6,19c4.7,5.1,12,8.2,20.6,8.7c2.1,1.9,4.3,3.6,4.4,3.6l0.9,0.7l0.9-0.7
			c0.1-0.1,2.3-1.7,4.4-3.6c8.6-0.5,15.9-3.5,20.6-8.7c4.4-4.8,6.4-11.2,6-19v-0.1c0-0.1,0-0.2,0-0.3v-0.1c0.8-0.9,1.9-2,2.4-2.5
			L205.3,35.7z M200.2,38.7c0.1,0.8,0,0.8,0.1,1.2c0.9,17.3-11.1,25.5-25.7,26.1c-2.2,2.1-4.7,3.9-4.7,3.9s-2.5-1.8-4.7-3.9
			c-14.6-0.6-26.6-8.8-25.7-26.1c0.1-0.5,0-0.4,0.1-1.2c-0.8-0.9-2.2-2.3-2.9-3.1c5.2-5.4,11.3-17.8,2.9-29.1l1.8-2.4
			c1.7,0.6,3.6,1,5.5,1c4.9,0,8.2-0.5,12.2-3.2c3.2,2.2,6.7,3.6,10.9,3.6s7.7-1.4,10.9-3.6c4.1,2.7,7.4,3.2,12.2,3.2
			c1.9,0,3.8-0.4,5.5-1l1.8,2.4c-8.5,11.2-2.4,23.7,2.9,29.1C202.4,36.4,201,37.9,200.2,38.7"/>
		<path d="M142,39.1c0,0.3,0,0.4-0.1,0.5c0,0.1,0,0.3-0.1,0.5c-0.3,6.7,1.3,12,4.9,16c4.2,4.6,10.9,7.1,19.5,7.5h0.3
			c1.4,0,2.8,0,4.1,0c1,0,1.9,0,2.8,0c8.6-0.4,15.3-2.9,19.4-7.5c3.6-4,5.3-9.4,4.9-16c0-0.2,0-0.4-0.1-0.5c0-0.1,0-0.3-0.1-0.5
			v-0.2H142V39.1z M142.3,40.2c0-0.2,0-0.3,0.1-0.5c0-0.1,0-0.2,0-0.4h54.8c0,0.1,0,0.2,0,0.4c0,0.1,0,0.2,0.1,0.4
			c0.3,6.5-1.3,11.8-4.8,15.7c-4.1,4.5-10.7,7-19.1,7.3c-2,0-4.3,0-6.9,0h-0.3c-8.4-0.3-15.1-2.9-19.1-7.3
			C143.6,52,142,46.7,142.3,40.2"/>
		<path d="M143.8,29l-0.1,0.3H196l-0.1-0.3c-2.3-5.2-4-13.1,0.8-21.3l0.3-0.4l-0.5,0.1c-1.2,0.2-2.3,0.3-3.4,0.3
			c-4.7,0-8.1-0.4-12.1-2.7l-0.1-0.1L180.8,5c-3.5,2.1-7,3.1-10.8,3.1s-7.3-1-10.8-3.1l-0.1-0.1L159,5c-3.9,2.2-7.4,2.7-12.1,2.7
			c-1.1,0-2.2-0.1-3.4-0.3L143,7.3l0.3,0.4C147.8,15.8,146.1,23.7,143.8,29 M170,8.5c3.8,0,7.3-1,10.8-3.1c4,2.2,7.5,2.7,12.2,2.7
			c1,0,2-0.1,3-0.3c-4.5,8.1-2.9,15.8-0.7,21H170V8.5z M143.7,7.8c1,0.2,2.1,0.2,3,0.2c4.7,0,8.2-0.4,12.2-2.7
			c3.4,2,6.9,3.1,10.6,3.1v20.3h-25.1C146.6,23.6,148.2,15.9,143.7,7.8"/>
		<polygon points="163.2,32.1 163.2,30.5 158.1,30.5 158.1,37.7 159.6,37.7 159.6,34.7 161.7,34.7 161.7,33.2 159.6,33.2 
			159.6,32.1 		"/>
		<path d="M169.3,32c0.6,0,1,0.2,1.2,0.7v0.1l1.4-0.7V32c-0.5-1-1.4-1.6-2.6-1.6c-1.9,0-3.2,1.5-3.2,3.7s1.2,3.7,3.1,3.7
			c1.2,0,2.1-0.5,2.7-1.6v-0.1l-1.3-0.8v0.1c-0.4,0.6-0.7,0.9-1.3,0.9c-0.9,0-1.6-0.9-1.6-2.2C167.7,32.8,168.3,32,169.3,32"/>
		<path d="M181.3,32.5c0-1.2-0.9-1.9-2.3-1.9h-3.3v7.2h3.3c1.6,0,2.6-0.9,2.6-2.3c0-0.7-0.3-1.2-0.9-1.5
			C181.1,33.5,181.3,33,181.3,32.5 M177.3,32h1.7c0.7,0,0.8,0.3,0.8,0.6c0,0.4-0.2,0.6-0.7,0.6h-1.8V32z M179,36.2h-1.8v-1.7h1.8
			c0.6,0,0.9,0.3,0.9,0.8C180,35.9,179.6,36.2,179,36.2"/>
		<path d="M169.8,58.7c4.3,0,7.7-3.5,7.7-7.7c0-4.3-3.5-7.7-7.7-7.7c-4.3,0-7.7,3.5-7.7,7.7S165.5,58.7,169.8,58.7 M169.8,58.2
			c-1.5,0-2.9-0.5-4.1-1.2c1.5-0.1,3.6-0.5,4.8-1.2s2.5-1.6,2.8-2.9c0.9-0.4,2.6-0.2,2.8,1.6C174.9,56.7,172.6,58.2,169.8,58.2
			 M166.2,52.6c0.4,0.2,0.8,0.4,1.3,0.5c1,0.1,2.4-0.9,2.5-2c1.4-1,2.5-0.1,2.8,0.7c0.6,1.5-0.7,2.6-2.4,3.7
			c-1.3,0.8-3.7,1.2-5.2,1.2c-0.8-0.7-1.5-1.5-1.9-2.4c0.1,0,0.1,0,0.2,0C164.6,54.1,165.7,53.6,166.2,52.6 M165.1,48.9
			c0-1.4,0.4-2.7,0.7-4c1-0.7,2.2-1.1,3.4-1.2c-0.8,0.9-0.7,2.3,0.2,3c-0.2,0.1-0.4,0.3-0.5,0.6c-0.6,1-0.7,2.7,0.8,3.8
			c-0.1,0.9-1.2,1.7-2,1.6C165.9,52.4,165.1,50.9,165.1,48.9 M173.4,52.4c0-0.3-0.1-0.5-0.2-0.8c-0.4-0.9-1.7-2-3.4-0.9
			c-1.2-0.9-1.2-2.3-0.6-3.2c0.8-1.3,2.8-0.8,4.5,0.2c1.4,0.8,2.9,2.5,3.3,4c-0.1,0.8-0.3,1.5-0.6,2.2
			C176,52.3,174.4,52.1,173.4,52.4 M173.9,47.3c-1.3-0.7-2.9-1.4-4.1-0.9c-0.9-0.6-1.1-2,0.1-2.7c3.8,0,7,3,7.2,6.8
			C176.4,49.2,175.1,47.9,173.9,47.3 M165.2,45.3c-0.1,0.5-0.3,1-0.4,1.5c-0.4,1.7-0.4,4.3,1,5.6c-0.5,0.9-1.4,1.4-2.4,1.4
			c-0.1,0-0.3,0-0.4,0c-0.3-0.8-0.5-1.8-0.5-2.7C162.5,48.7,163.6,46.6,165.2,45.3"/>
	</g>
	<rect x="102.6" y="0.2" width="1" height="71.8"/>
</g>
<g>
	<polygon class="st7" points="235.8,20.6 243.1,20.6 242.8,22.7 238.2,22.7 238.2,25.3 242.3,25.3 242.3,27.4 238.2,27.4 
		238.2,32.3 235.9,32.3 	"/>
	<path class="st7" d="M244.2,25c0-3.1,1.5-4.5,4.3-4.5c1.3-0.1,2.6,0.4,3.5,1.3v1.8h-1.9c0,0-0.1-1-1.6-1s-2,0.8-2,2.4v3
		c0,1.6,0.5,2.4,2,2.4s1.6-1,1.6-1h1.9v1.8c-0.9,0.9-2.2,1.4-3.5,1.3c-2.8,0-4.3-1.4-4.3-4.5V25z"/>
	<path class="st7" d="M257.4,20.6h4.2c2.8,0,3.8,1.3,3.8,3.2c0,1-0.5,2-1.4,2.6c0.9,0.5,1.5,1.5,1.5,2.5c0,2.1-1.2,3.4-3.8,3.4h-4.4
		L257.4,20.6L257.4,20.6z M259.6,22.6v2.8h2.5c0.6-0.3,0.9-0.8,0.9-1.4c0.1-0.7-0.5-1.3-1.2-1.4h-0.3H259.6z M259.6,27.4v2.9h2.2
		c0.7,0.1,1.4-0.5,1.4-1.3v-0.2c0-0.6-0.4-1.2-1-1.5L259.6,27.4L259.6,27.4z"/>
	<path class="st7" d="M266.8,31l2.9-10.4h3.8l2.9,10.4v1.4h-2.1l-0.6-2.5c-0.7,0.1-1.4,0.2-2.1,0.2s-1.3-0.1-2-0.2l-0.6,2.4h-2
		L266.8,31z M270,27.9c0.5,0.1,1,0.1,1.5,0.1s1.1-0.1,1.6-0.1l-0.7-2.6c-0.3-1.1-0.6-2.6-0.6-2.6h-0.5c0,0-0.3,1.5-0.6,2.6L270,27.9
		z"/>
	<path class="st7" d="M278.1,20.6h4.4c2.5,0,3.9,1.2,3.9,3.5c0,1.6-1,2.9-2.4,3.5c0.7,1.2,1.5,2.3,2.4,3.3v1.5h-1.8
		c-1.2-1.4-2.2-2.9-3-4.5h-1.1v4.5h-2.3L278.1,20.6z M283.1,25.7c0.7-0.2,1.1-0.8,1.1-1.5c0.1-0.7-0.5-1.4-1.2-1.5h-0.3h-2.1v3
		H283.1z"/>
	<path class="st7" d="M288,25c0-3.1,1.5-4.5,4.3-4.5c1.3-0.1,2.6,0.4,3.5,1.3v1.8h-1.9c0,0-0.1-1-1.6-1s-2,0.8-2,2.4v3
		c0,1.6,0.5,2.4,2,2.4s1.6-1,1.6-1h1.9v1.8c-0.9,0.9-2.2,1.4-3.5,1.3c-2.8,0-4.3-1.4-4.3-4.5V25z"/>
	<polygon class="st7" points="297.7,20.6 305.1,20.6 304.8,22.7 300.1,22.7 300.1,25.3 304.4,25.3 304.4,27.4 300.1,27.4 
		300.1,30.1 305,30.1 305,32.3 297.7,32.3 	"/>
	<polygon class="st7" points="307,20.6 309.3,20.6 309.3,30.2 314,30.2 313.7,32.4 307,32.4 	"/>
	<path class="st7" d="M315.1,25.1c0-3,1.6-4.7,4.5-4.7s4.5,1.6,4.5,4.7v2.6c0,3-1.6,4.7-4.5,4.7s-4.5-1.7-4.5-4.7V25.1z M319.6,30.4
		c1.5,0,2.2-0.7,2.2-2.5v-3c0-1.7-0.7-2.5-2.2-2.5s-2.2,0.7-2.2,2.5v3C317.4,29.7,318.1,30.4,319.6,30.4"/>
	<path class="st7" d="M326.2,20.6h2.2l3.3,5.5c0.3,0.5,0.9,1.8,0.9,1.8s-0.1-1.3-0.1-2.4v-4.9h2.3v11.8h-2.3v-1l-3-4.8l-1.2-2h-0.1
		c0,0,0.1,1.1,0.1,2.2v5.6h-2.2V20.6H326.2z"/>
	<path class="st7" d="M336.6,31l2.9-10.4h3.8l2.9,10.4v1.4h-2.1l-0.6-2.5c-0.7,0.1-1.4,0.2-2.1,0.2s-1.3-0.1-2-0.2l-0.6,2.4h-2
		L336.6,31z M339.9,27.9c0.5,0.1,1,0.1,1.5,0.1s1.1,0,1.6-0.1l-0.7-2.6c-0.3-1.1-0.6-2.6-0.6-2.6h-0.5c0,0-0.3,1.5-0.6,2.6
		L339.9,27.9z"/>
	<rect x="347.6" y="20.6" class="st7" width="2" height="5.1"/>
	<rect x="297.6" y="34.7" class="st7" width="2" height="2"/>
	<rect x="279.6" y="34.7" class="st7" width="2" height="2"/>
	<path class="st7" d="M351.7,20.6h2.2l3.3,5.5c0.3,0.5,0.9,1.8,0.9,1.8s-0.1-1.3-0.1-2.4v-4.9h2.3v11.8h-2.2v-1l-2.9-4.8l-1.2-2v2.2
		v5.6h-2.3L351.7,20.6L351.7,20.6z"/>
	<polygon class="st7" points="363.4,30.5 363.4,22.5 362.2,22.3 362.2,20.7 366.9,20.7 366.9,22.3 365.7,22.5 365.7,30.5 
		366.9,30.7 366.9,32.4 362.2,32.4 362.2,30.8 	"/>
	<path class="st7" d="M368.8,20.6h2.2l3.3,5.5c0.3,0.5,0.9,1.8,0.9,1.8s-0.1-1.3-0.1-2.4v-4.9h2.3v11.8h-2.3v-1l-2.9-4.8l-1.2-2v2.2
		v5.6h-2.3L368.8,20.6z"/>
	<path class="st7" d="M235.8,37.9h4.4c2.5,0,3.9,1.2,3.9,3.5c0,1.6-1,2.9-2.4,3.5c0.7,1.2,1.5,2.3,2.4,3.3v1.4h-1.8
		c-1.2-1.4-2.2-2.9-3-4.5h-1.2v4.5h-2.3L235.8,37.9L235.8,37.9z M240.8,43c0.7-0.2,1.1-0.8,1.1-1.5c0.1-0.7-0.5-1.4-1.2-1.5h-0.3
		h-2.2v3H240.8z"/>
	<polygon class="st7" points="246,37.9 253.4,37.9 253.1,40 248.4,40 248.4,42.7 252.7,42.7 252.7,44.8 248.4,44.8 248.4,47.5 
		253.3,47.5 253.3,49.6 246,49.6 	"/>
	<path class="st7" d="M254.8,47h1.8c0,0,0.3,0.7,1.8,0.7s1.9-0.5,1.9-1.3c0-0.6-0.3-1.1-1.4-1.5l-1-0.4c-2.2-0.8-3-1.7-3-3.5
		c0-2.1,1.5-3.3,4.1-3.3c1.2,0,2.3,0.2,3.3,0.7v2h-1.8c0,0-0.2-0.7-1.6-0.7c-1.2,0-1.7,0.5-1.7,1.3s0.4,1,1.4,1.3l1,0.4
		c2.5,0.9,2.9,1.9,2.9,3.5c0,2.2-1.2,3.5-4.3,3.5c-1.2,0-2.4-0.3-3.5-0.7L254.8,47z"/>
	<path class="st7" d="M264.6,37.9h3.8l1.4,6.3c0.3,1.2,0.6,3.4,0.6,3.4h0.1c0,0,0.3-2.2,0.6-3.4l1.4-6.3h3.8v11.7h-2.2v-5.8
		c0-1,0.1-4,0.1-4H274c0,0-0.5,2.3-0.8,3.5l-1.5,6.3h-2.6l-1.5-6.3c-0.3-1.1-0.8-3.5-0.8-3.5h-0.2v4v5.8h-2.3L264.6,37.9z"/>
	<polygon class="st7" points="279.4,47.7 279.4,39.7 278.2,39.5 278.2,37.9 282.9,37.9 282.9,39.5 281.7,39.7 281.7,47.7 
		282.9,47.9 282.9,49.5 278.2,49.5 278.2,47.9 	"/>
	<polygon class="st7" points="292.5,40 292.5,49.6 290.2,49.6 290.2,40 287.4,40 287.4,37.9 295.4,37.9 295.1,40 	"/>
	<polygon class="st7" points="297.4,47.7 297.4,39.7 296.2,39.5 296.2,37.9 300.9,37.9 300.9,39.5 299.7,39.7 299.7,47.7 
		300.9,47.9 300.9,49.5 296.2,49.5 296.2,47.9 	"/>
	<path class="st7" d="M302.5,42.2c0-3.1,1.5-4.5,4.3-4.5c1.3-0.1,2.6,0.4,3.5,1.3v1.8h-1.9c0,0-0.1-1-1.6-1s-2,0.8-2,2.4v3.1
		c0,1.6,0.5,2.4,2,2.4s1.6-1,1.6-1h1.9v1.8c-0.9,0.9-2.2,1.4-3.5,1.3c-2.8,0-4.3-1.4-4.3-4.5V42.2z"/>
	<path class="st7" d="M311.5,48.3l2.9-10.4h3.8l2.9,10.4v1.3H319l-0.6-2.5c-0.7,0.1-1.4,0.2-2.1,0.2s-1.3-0.1-2-0.2l-0.6,2.4h-2
		L311.5,48.3z M314.7,45.1c1,0.2,2.1,0.2,3.1,0l-0.7-2.6c-0.3-1.1-0.6-2.6-0.6-2.6H316c0,0-0.3,1.5-0.6,2.6L314.7,45.1z"/>
	<path class="st7" d="M322.8,37.9h4.4c2.5,0,3.9,1.2,3.9,3.5c0,1.6-1,2.9-2.4,3.5c0.7,1.2,1.5,2.3,2.4,3.3v1.4h-1.8
		c-1.2-1.4-2.2-2.9-3-4.5h-1.2v4.5h-2.3V37.9z M327.8,43c0.7-0.2,1.1-0.8,1.1-1.5c0.1-0.7-0.5-1.4-1.2-1.5h-0.3h-2.2v3H327.8z"/>
	<polygon class="st7" points="333,37.9 340.4,37.9 340.1,40 335.4,40 335.4,42.7 339.7,42.7 339.7,44.8 335.4,44.8 335.4,47.5 
		340.3,47.5 340.3,49.6 333,49.6 	"/>
	<polygon class="st7" points="346.5,40 346.5,49.6 344.2,49.6 344.2,40 341.4,40 341.4,37.9 349.4,37.9 349.1,40 	"/>
	<path class="st7" d="M353.9,42.4c0-3,1.6-4.7,4.5-4.7s4.5,1.6,4.5,4.7V45c0,3-1.6,4.7-4.5,4.7s-4.5-1.7-4.5-4.7V42.4z M358.5,47.6
		c1.5,0,2.2-0.7,2.2-2.5v-3c0-1.7-0.7-2.5-2.2-2.5s-2.2,0.7-2.2,2.5v3C356.3,46.9,356.9,47.6,358.5,47.6"/>
	<path class="st7" d="M365.1,37.9h4.4c2.5,0,4,1.2,4,3.5c0,1.6-1,2.9-2.4,3.5c0.7,1.2,1.5,2.3,2.4,3.3v1.4h-1.8
		c-1.2-1.4-2.2-2.9-3-4.5h-1.2v4.5h-2.4V37.9z M370.1,43c0.7-0.2,1.1-0.8,1.1-1.5c0.1-0.7-0.5-1.4-1.2-1.5h-0.3h-2.2v3H370.1z"/>
	<polygon class="st7" points="379.5,40 379.5,49.6 377.2,49.6 377.2,40 374.4,40 374.4,37.9 382.4,37.9 382.1,40 	"/>
	<path class="st7" d="M383.1,48.3l2.9-10.4h3.8l2.9,10.4v1.3h-2.1l-0.6-2.5c-0.7,0.1-1.4,0.2-2.1,0.2s-1.3-0.1-2-0.2l-0.6,2.4h-2
		L383.1,48.3z M386.3,45.1c0.5,0.1,1,0.1,1.5,0.1s1.1-0.1,1.6-0.1l-0.7-2.6c-0.3-1.1-0.6-2.6-0.6-2.6h-0.5c0,0-0.3,1.5-0.6,2.6
		L386.3,45.1z"/>
	<path class="st7" d="M394.1,42.2c0-3.1,1.7-4.5,4.6-4.5c1.3-0.1,2.6,0.4,3.6,1.3v1.8h-1.9c-0.3-0.7-1-1.1-1.7-1
		c-1.5,0-2.2,0.8-2.2,2.4v3.3c0,1.6,0.7,2.3,2.2,2.3c0.6,0,1.2-0.2,1.7-0.6v-2.5h-1.7v-2h3.9v6.9h-1.7l-0.3-0.8
		c-0.7,0.6-1.6,1-2.5,0.9c-2.5,0-3.8-1.4-3.8-4.4L394.1,42.2z M397.3,34.3c0,0.6,0.4,1.1,1,1.1h0.1c0.6,0,1.1-0.4,1.1-1v-0.1h1.4
		v1.1c-0.4,1-1.4,1.6-2.5,1.5c-1.1,0.1-2.1-0.5-2.5-1.5v-1.1H397.3z"/>
	<polygon class="st7" points="405.4,47.7 405.4,39.7 404.2,39.5 404.2,37.9 408.9,37.9 408.9,39.5 407.7,39.7 407.7,47.7 
		408.9,47.9 408.9,49.5 404.2,49.5 404.2,47.9 	"/>
</g>
</svg>
