<svg xmlns="http://www.w3.org/2000/svg" viewBox="0 0 142.14 108.46"><defs><style>.cls-1{fill:none;stroke:#fff;stroke-miterlimit:10;}.cls-2{fill:#231f20;}.cls-3{fill:#e8b909;}.cls-4{fill:#0054a4;}.cls-5{fill:#a30046;}.cls-6{fill:#fff;}.cls-7{fill:#fd0;}.cls-8{fill:#e31837;}</style></defs><title>TR_logo-without - vertical color (dark bg)</title><g id="Layer_2" data-name="Layer 2"><g id="TEXTOS"><line class="cls-1" x1="99.88" y1="71.83" x2="42.11" y2="71.83"/><path class="cls-2" d="M99.86,29.29l-.86-.9C95.32,24.55,90.12,15,96.75,6.08l.52-.69-.45-.74A9,9,0,0,0,96,3.58c-.21-.26-.42-.53-.71-.94l-.55-.79-.9.32a12.55,12.55,0,0,1-4.07.71c-3.79,0-6.27-.37-9.32-2.4L79.76,0l-.7.49a13.82,13.82,0,0,1-8.2,2.77A13.85,13.85,0,0,1,62.65.49L62,0l-.71.48c-3.06,2-5.54,2.4-9.33,2.4a12.6,12.6,0,0,1-4.07-.71L47,1.85l-.55.79c-.3.41-.51.68-.72.93a9,9,0,0,0-.78,1.08l-.46.74.52.69c6.63,8.87,1.43,18.47-2.24,22.31l-.86.9.87.88c.48.47,1.31,1.35,2,2.08a.49.49,0,0,0,0,.12,1.28,1.28,0,0,1,0,.26v.08c-.34,6.4,1.32,11.66,4.92,15.65,3.83,4.23,9.8,6.76,16.87,7.15,1.75,1.61,3.53,2.93,3.61,3l.75.57.75-.57c.09-.06,1.85-1.39,3.6-3,7.07-.39,13.05-2.92,16.87-7.15,3.61-4,5.26-9.25,4.93-15.65v-.08a1.28,1.28,0,0,1,0-.26v-.12c.69-.73,1.53-1.61,2-2.08Zm-4.19,2.5c.07.64,0,.61.07,1,.76,14.25-9.11,21-21,21.48-1.83,1.71-3.84,3.22-3.84,3.22S68.84,56,67,54.26C55.09,53.76,45.21,47,46,32.78c0-.38,0-.35.07-1-.68-.73-1.82-1.92-2.41-2.52C47.91,24.8,52.9,14.58,46,5.32c.45-.74.78-1,1.46-1.95a13.87,13.87,0,0,0,4.48.78c4,0,6.69-.39,10-2.62a15.13,15.13,0,0,0,8.93,3,15.12,15.12,0,0,0,8.92-3c3.33,2.23,6,2.62,10,2.62a13.82,13.82,0,0,0,4.48-.78c.68,1,1,1.21,1.46,2-6.93,9.26-1.93,19.48,2.35,24-.6.6-1.73,1.79-2.42,2.52"/><path class="cls-3" d="M70.86,57.48A48.51,48.51,0,0,1,67,54.26C55.09,53.76,45.21,47,46,32.78c0-.38,0-.35.07-1-.68-.72-1.82-1.91-2.42-2.51C47.91,24.8,52.9,14.58,46,5.32c.45-.74.78-1,1.46-1.95a13.87,13.87,0,0,0,4.48.79c4,0,6.69-.4,10-2.62a15.18,15.18,0,0,0,8.92,3,15.19,15.19,0,0,0,8.93-3c3.34,2.22,6,2.62,10,2.62a13.83,13.83,0,0,0,4.48-.79c.68,1,1,1.21,1.46,2-6.92,9.26-1.93,19.48,2.35,24-.6.6-1.73,1.79-2.42,2.51.07.65,0,.62.07,1,.76,14.25-9.11,21-21,21.48a49.4,49.4,0,0,1-3.83,3.22"/><path class="cls-4" d="M54.51,32.12H48.23c0,.41-.06.43-.1.84-.37,7.2,2.14,12.11,6.38,15.17Z"/><path class="cls-5" d="M54.51,48.13a20.09,20.09,0,0,0,6.59,3v-19H54.51Z"/><path class="cls-4" d="M61.1,51.13a31.13,31.13,0,0,0,6.59,1v-20H61.1Z"/><path class="cls-5" d="M74.28,32.12h-6.6v20h.23c2.19,0,4.18,0,5.89,0l.48,0Z"/><path class="cls-4" d="M74.28,52.1a31,31,0,0,0,6.58-1v-19H74.28Z"/><path class="cls-5" d="M80.86,51.07a19.61,19.61,0,0,0,6.59-3.13V32.12H80.86Z"/><path class="cls-4" d="M93.48,32.12h-6V48c4.09-3.07,6.49-7.93,6.14-15,0-.41-.07-.43-.11-.84"/><path class="cls-2" d="M71.49,52.32H67.91c-7-.29-12.53-2.43-15.92-6.18-3-3.27-4.33-7.7-4.05-13.18,0-.2,0-.31.05-.4a3.37,3.37,0,0,0,0-.45l0-.17H93.65l0,.17c0,.22,0,.32,0,.45a3.91,3.91,0,0,1,0,.39c.28,5.49-1.08,9.92-4,13.19-3.4,3.75-8.9,5.89-15.92,6.18H71.49m-23.09-20c0,.12,0,.21,0,.29a2.2,2.2,0,0,0,0,.38c-.28,5.36,1,9.7,4,12.89,3.32,3.68,8.73,5.77,15.65,6.06H73.8c6.91-.29,12.32-2.38,15.65-6.06,2.89-3.19,4.22-7.53,3.94-12.9,0-.17,0-.28,0-.37a1.84,1.84,0,0,1,0-.29Z"/><path class="cls-3" d="M64.52,41.85a6.32,6.32,0,1,1,6.31,6.35,6.34,6.34,0,0,1-6.31-6.35"/><path class="cls-2" d="M70.84,35.68A6.17,6.17,0,1,0,77,41.85a6.16,6.16,0,0,0-6.12-6.17m0,12.45a6.29,6.29,0,1,1,6.24-6.28,6.28,6.28,0,0,1-6.24,6.28"/><path class="cls-2" d="M70.83,35.49a6.36,6.36,0,1,1-6.31,6.36,6.34,6.34,0,0,1,6.31-6.36M67.61,43c-1.14-1-1.15-3.17-.84-4.59.09-.39.19-.78.31-1.22a6,6,0,0,0-1.78,6.9l.31,0a2.19,2.19,0,0,0,2-1.12m6.14.46c-.2,1-1.27,1.76-2.28,2.36a9.1,9.1,0,0,1-4,1,5.85,5.85,0,0,0,3.32,1,5.94,5.94,0,0,0,5.22-3.1,1.57,1.57,0,0,0-2.3-1.28m-6.71,3a9.33,9.33,0,0,0,4.25-1c1.42-.84,2.52-1.75,2-3A1.43,1.43,0,0,0,71,41.94,2,2,0,0,1,69,43.6a2.43,2.43,0,0,1-1.07-.38,2.53,2.53,0,0,1-2.28,1.25h-.14a6.19,6.19,0,0,0,1.57,2m3.78-8.37c1-.41,2.35.12,3.39.71a6.93,6.93,0,0,1,2.57,2.66,6,6,0,0,0-5.9-5.63,1.32,1.32,0,0,0-.06,2.26m-.17,3.83A2.33,2.33,0,0,1,70,38.79a1.93,1.93,0,0,1,.45-.49,1.66,1.66,0,0,1-.17-2.43,6,6,0,0,0-2.79,1,14,14,0,0,0-.58,3.33c0,1.59.68,2.88,2.06,3.06a1.71,1.71,0,0,0,1.65-1.31m6.12.46A6.23,6.23,0,0,0,74,39.13c-1.44-.81-3-1.25-3.71-.15a2,2,0,0,0,.5,2.65,1.77,1.77,0,0,1,2.78.73,1.93,1.93,0,0,1,.17.7,1.91,1.91,0,0,1,2.52,1.17,5.94,5.94,0,0,0,.47-1.83"/><path class="cls-2" d="M78.35,30.94H75.67V25h2.7c1.19,0,1.9.6,1.9,1.6a1.33,1.33,0,0,1-.55,1.11A1.41,1.41,0,0,1,80.46,29a1.86,1.86,0,0,1-2.11,1.93M76.93,29.7h1.46c.49,0,.75-.23.75-.68s-.24-.67-.75-.67H76.93Zm0-2.51h1.45c.4,0,.58-.15.58-.47s-.08-.49-.64-.49H76.93Z"/><path class="cls-2" d="M70.39,31c-1.56,0-2.58-1.19-2.58-3.05s1.08-3.05,2.62-3.05a2.27,2.27,0,0,1,2.17,1.32l0,.07-1.19.55,0-.06a1,1,0,0,0-1-.59c-.8,0-1.29.68-1.29,1.76s.52,1.77,1.29,1.77a1.13,1.13,0,0,0,1.07-.7l0-.06,1.09.64,0,.06A2.26,2.26,0,0,1,70.39,31"/><polygon class="cls-2" points="62.49 30.94 61.21 30.94 61.21 25.02 65.46 25.02 65.46 26.29 62.49 26.29 62.49 27.24 64.23 27.24 64.23 28.5 62.49 28.5 62.49 30.94"/><path class="cls-6" d="M49.73,23.81c2.18-5,3-11.45-.67-17.74a16.69,16.69,0,0,0,2.85.26c3.74,0,6.68-.34,10-2.22a16.84,16.84,0,0,0,8.95,2.6,16.82,16.82,0,0,0,9-2.6c3.31,1.88,6.26,2.22,10,2.22a15.74,15.74,0,0,0,2.85-.27C89,12.36,89.81,18.8,92,23.81Z"/><path class="cls-7" d="M70.66,6.71v17.1h2.26V6.58a17.43,17.43,0,0,1-2.07.13h-.19"/><path class="cls-8" d="M72.92,23.81h2.26V6.13a16.14,16.14,0,0,1-2.26.45Z"/><path class="cls-7" d="M75.18,23.81h2.26V5.34a15.9,15.9,0,0,1-2.26.79Z"/><path class="cls-8" d="M77.44,23.81H79.7V4.18a17.85,17.85,0,0,1-2.26,1.16Z"/><path class="cls-7" d="M79.7,4.18V23.81H82V5.14a16.12,16.12,0,0,1-2.15-1,.67.67,0,0,1-.11.07"/><path class="cls-8" d="M82,23.81h2.26v-18A15.84,15.84,0,0,1,82,5.14Z"/><path class="cls-7" d="M84.22,23.81h2.26V6.19a16.64,16.64,0,0,1-2.26-.36Z"/><path class="cls-8" d="M86.47,23.78h2.26V6.29c-.78,0-1.53,0-2.26-.12Z"/><path class="cls-7" d="M92.49,6.08a14.87,14.87,0,0,1-2.69.25H88.73V23.81H92c-2.13-4.93-2.94-11.24.52-17.45Z"/><path class="cls-8" d="M57.79,18v5.8h6.29V18h6.7V11.69h-6.7V5.26A19.69,19.69,0,0,1,61.9,4.11a15.72,15.72,0,0,1-4.11,1.65v5.93H51.22A18.49,18.49,0,0,1,51.39,18Z"/><path class="cls-2" d="M93,5.79l-.41.08a15.2,15.2,0,0,1-2.82.27C86,6.14,83.14,5.78,79.91,4l-.1-.06-.1.06a16.58,16.58,0,0,1-8.86,2.57A16.6,16.6,0,0,1,62,4l-.1-.06L61.81,4c-3.24,1.83-6.08,2.19-9.9,2.19a15.47,15.47,0,0,1-2.81-.26l-.4-.07.2.36c3.92,6.74,2.52,13.27.66,17.56l-.11.27H92.27l-.12-.27c-1.86-4.29-3.26-10.82.67-17.58Zm-43.6.53a15.33,15.33,0,0,0,2.48.2c3.84,0,6.72-.36,10-2.19A17,17,0,0,0,70.59,6.9V23.62H50a19.32,19.32,0,0,0-.59-17.3m42.26,17.3H71V6.9a17.17,17.17,0,0,0,8.85-2.57c3.26,1.83,6.14,2.19,10,2.19a15.13,15.13,0,0,0,2.49-.21,19.31,19.31,0,0,0-.6,17.31"/><path class="cls-6" d="M12.61,84.62h5.93l-.28,1.74H14.53v2.2H17.9v1.73H14.53v3.92H12.61Z"/><path class="cls-6" d="M19.46,88.2c0-2.53,1.26-3.68,3.56-3.68a3.81,3.81,0,0,1,2.87,1.07v1.5H24.33s-.11-.86-1.3-.86-1.65.62-1.65,1.93v2.51c0,1.31.4,1.93,1.65,1.93s1.3-.86,1.3-.86h1.56v1.5A3.81,3.81,0,0,1,23,94.31c-2.3,0-3.56-1.14-3.56-3.68Z"/><path class="cls-6" d="M30.35,84.62h3.47c2.3,0,3.1,1,3.1,2.62a2.43,2.43,0,0,1-1.11,2.12v0a2.46,2.46,0,0,1,1.25,2.07c0,1.72-.94,2.75-3.11,2.75h-3.6Zm1.86,1.65v2.27H34.3a1.26,1.26,0,0,0,.75-1.17,1,1,0,0,0-1.16-1.1Zm0,3.89v2.4H34a1.1,1.1,0,0,0,1.19-1.2,1.33,1.33,0,0,0-.85-1.2Z"/><path class="cls-6" d="M38.24,93.14l2.35-8.52H43.7l2.35,8.52v1.07H44.33l-.52-2a8.2,8.2,0,0,1-1.71.17,9.07,9.07,0,0,1-1.66-.15l-.52,2H38.24Zm2.62-2.54a7.24,7.24,0,0,0,1.24.11,6.77,6.77,0,0,0,1.28-.12l-.56-2.13c-.22-.89-.51-2.13-.51-2.13h-.38s-.28,1.24-.52,2.13Z"/><path class="cls-6" d="M47.65,84.62h3.62c2.09,0,3.23,1,3.23,2.85a3.1,3.1,0,0,1-2,2.88,15.51,15.51,0,0,0,1.94,2.7v1.16H53a21.27,21.27,0,0,1-2.43-3.67h-1v3.67H47.65Zm4,4.19a1.26,1.26,0,0,0,.89-1.26,1.11,1.11,0,0,0-1.24-1.19H49.56v2.45Z"/><path class="cls-6" d="M55.86,88.2c0-2.53,1.25-3.68,3.55-3.68a3.85,3.85,0,0,1,2.88,1.07v1.5H60.72s-.11-.86-1.3-.86-1.65.62-1.65,1.93v2.51c0,1.31.4,1.93,1.65,1.93s1.3-.86,1.3-.86h1.57v1.5a3.85,3.85,0,0,1-2.88,1.07c-2.3,0-3.55-1.14-3.55-3.68Z"/><path class="cls-6" d="M63.92,84.62H70l-.28,1.74H65.84v2.2h3.51v1.73H65.84v2.19h4v1.73H63.92Z"/><path class="cls-6" d="M71.7,84.62h1.91v7.86h3.88l-.28,1.73H71.7Z"/><path class="cls-6" d="M78,88.33c0-2.5,1.3-3.85,3.72-3.85s3.73,1.35,3.73,3.85V90.5c0,2.48-1.3,3.85-3.73,3.85S78,93,78,90.5Zm3.72,4.31c1.27,0,1.81-.59,1.81-2V88.19c0-1.41-.54-2-1.81-2s-1.8.59-1.8,2v2.45C79.92,92.05,80.45,92.64,81.72,92.64Z"/><path class="cls-6" d="M87.28,84.62H89l2.74,4.5c.22.37.76,1.45.76,1.45h0s-.07-1-.07-2v-4h1.86v9.59H92.5v-.78L90.09,89.5c-.31-.55-1-1.65-1-1.65h0s0,.88,0,1.82v4.54H87.28Z"/><path class="cls-6" d="M96,93.14l2.35-8.52h3.1l2.36,8.52v1.07h-1.72l-.52-2a8.2,8.2,0,0,1-1.71.17,9.07,9.07,0,0,1-1.66-.15l-.53,2H96Zm2.62-2.54a7.15,7.15,0,0,0,1.24.11,6.77,6.77,0,0,0,1.28-.12l-.56-2.13c-.23-.89-.51-2.13-.51-2.13h-.38s-.28,1.24-.52,2.13Z"/><path class="cls-6" d="M104.26,84.62h1.64v4.16h-1.64Z"/><path class="cls-6" d="M107.72,84.62h1.76l2.74,4.5c.22.37.76,1.45.76,1.45h0s-.07-1-.07-2v-4h1.86v9.59h-1.86v-.78l-2.41-3.93c-.31-.55-1-1.65-1-1.65h0s0,.88,0,1.82v4.54h-1.86Z"/><path class="cls-6" d="M117.45,92.7V86.13l-1-.17V84.62h3.84V86l-1,.17V92.7l1,.17v1.34h-3.84V92.87Z"/><path class="cls-6" d="M122,84.62h1.77l2.73,4.5c.23.37.76,1.45.76,1.45h0s-.07-1-.07-2v-4h1.86v9.59h-1.86v-.78l-2.41-3.93c-.31-.55-1-1.65-1-1.65h0s0,.88,0,1.82v4.54H122Z"/><path class="cls-6" d="M0,98.73H3.62c2.09,0,3.23,1,3.23,2.85a3.09,3.09,0,0,1-2,2.87,15.12,15.12,0,0,0,1.93,2.71v1.16H5.34a21,21,0,0,1-2.42-3.67h-1v3.67H0Zm4.05,4.19a1.26,1.26,0,0,0,.88-1.26,1.11,1.11,0,0,0-1.24-1.19H1.92v2.45Z"/><path class="cls-6" d="M8.49,98.73h6.08l-.28,1.74H10.41v2.19h3.51v1.74H10.41v2.18h4v1.74H8.49Z"/><path class="cls-6" d="M15.84,106.19h1.49s.29.58,1.47.58,1.57-.43,1.57-1.07-.29-.91-1.12-1.2l-.86-.31c-1.79-.65-2.45-1.4-2.45-2.84,0-1.73,1.23-2.7,3.38-2.7a6.27,6.27,0,0,1,2.72.6v1.62h-1.5s-.17-.59-1.32-.59c-1,0-1.39.45-1.39,1s.31.78,1.17,1.09l.86.31c2,.73,2.4,1.58,2.4,2.84,0,1.81-1,2.85-3.51,2.85a7.49,7.49,0,0,1-2.91-.59Z"/><path class="cls-6" d="M24,98.73h3.14l1.13,5.18c.21,1,.49,2.8.49,2.8h.09s.28-1.82.49-2.8l1.13-5.18h3.14v9.59H31.75v-4.77c0-.83.05-3.24.05-3.24h-.15s-.41,1.9-.62,2.83l-1.19,5.18H27.73l-1.19-5.18c-.21-.93-.62-2.83-.62-2.83h-.14s0,2.41,0,3.24v4.77H24Z"/><path class="cls-6" d="M36.25,106.81v-6.57l-1-.17V98.73h3.84v1.34l-1,.17v6.57l1,.17v1.34H35.29V107Z"/><path class="cls-6" d="M46.86,100.47v7.85H44.94v-7.85H42.65V98.73h6.57l-.28,1.74Z"/><path class="cls-6" d="M51,106.81v-6.57l-1-.17V98.73h3.84v1.34l-1,.17v6.57l1,.17v1.34H50.07V107Z"/><path class="cls-6" d="M55.14,102.31c0-2.54,1.25-3.68,3.55-3.68a3.85,3.85,0,0,1,2.88,1.07v1.5H60s-.11-.86-1.3-.86-1.65.62-1.65,1.93v2.51c0,1.31.4,1.93,1.65,1.93s1.3-.86,1.3-.86h1.57v1.5a3.85,3.85,0,0,1-2.88,1.07c-2.3,0-3.55-1.14-3.55-3.68Z"/><path class="cls-6" d="M62.46,107.25l2.35-8.52h3.1l2.36,8.52v1.07H68.55l-.52-2a8.93,8.93,0,0,1-1.71.17,10,10,0,0,1-1.66-.15l-.53,2H62.46Zm2.62-2.54a7.15,7.15,0,0,0,1.24.11,6.77,6.77,0,0,0,1.28-.12L67,102.57c-.23-.89-.51-2.13-.51-2.13h-.38s-.28,1.24-.52,2.13Z"/><path class="cls-6" d="M71.87,98.73h3.62c2.09,0,3.23,1,3.23,2.85a3.09,3.09,0,0,1-2,2.87,15.42,15.42,0,0,0,1.94,2.71v1.16H77.21a21.27,21.27,0,0,1-2.43-3.67h-1v3.67H71.87Zm4,4.19a1.26,1.26,0,0,0,.89-1.26,1.11,1.11,0,0,0-1.24-1.19H73.78v2.45Z"/><path class="cls-6" d="M80.36,98.73h6.07l-.28,1.74H82.27v2.19h3.52v1.74H82.27v2.18h4v1.74H80.36Z"/><path class="cls-6" d="M91.57,100.47v7.85H89.65v-7.85H87.37V98.73h6.57l-.28,1.74Z"/><path class="cls-6" d="M97.52,102.44c0-2.5,1.3-3.85,3.73-3.85s3.72,1.35,3.72,3.85v2.17c0,2.48-1.3,3.85-3.72,3.85s-3.73-1.35-3.73-3.85Zm3.73,4.31c1.26,0,1.8-.59,1.8-2V102.3c0-1.41-.54-2-1.8-2s-1.81.59-1.81,2v2.45C99.44,106.16,100,106.75,101.25,106.75Z"/><path class="cls-6" d="M106.8,98.73h3.63c2.08,0,3.23,1,3.23,2.85a3.09,3.09,0,0,1-2,2.87,15.71,15.71,0,0,0,1.93,2.71v1.16h-1.46a21.27,21.27,0,0,1-2.43-3.67h-1v3.67H106.8Zm4,4.19a1.26,1.26,0,0,0,.89-1.26,1.11,1.11,0,0,0-1.24-1.19h-1.78v2.45Z"/><path class="cls-6" d="M118.59,100.47v7.85h-1.91v-7.85h-2.29V98.73H121l-.28,1.74Z"/><path class="cls-6" d="M120.91,107.25l2.35-8.52h3.11l2.35,8.52v1.07H127l-.52-2a8.85,8.85,0,0,1-1.71.17,10,10,0,0,1-1.66-.15l-.52,2h-1.68Zm2.62-2.54a7.24,7.24,0,0,0,1.24.11,7,7,0,0,0,1.29-.12l-.57-2.13c-.22-.89-.51-2.13-.51-2.13h-.38s-.28,1.24-.52,2.13Z"/><path class="cls-6" d="M129.84,102.31c0-2.56,1.39-3.68,3.75-3.68a3.87,3.87,0,0,1,2.92,1.1v1.47h-1.57a1.33,1.33,0,0,0-1.41-.86c-1.25,0-1.77.62-1.77,1.93V105c0,1.34.56,1.91,1.76,1.91a1.86,1.86,0,0,0,1.37-.5v-2h-1.47v-1.68h3.23v5.66h-1.38l-.24-.65h0a2.8,2.8,0,0,1-2.05.76c-2,0-3.1-1.15-3.1-3.58Zm2.64-6.47a.89.89,0,1,0,1.77,0h1.16v.92a2,2,0,0,1-2,1.21,2,2,0,0,1-2.06-1.21v-.92Z"/><path class="cls-6" d="M139.26,106.81v-6.57l-1-.17V98.73h3.84v1.34l-1,.17v6.57l1,.17v1.34H138.3V107Z"/></g></g></svg>