<svg id="Layer_1" data-name="Layer 1" xmlns="http://www.w3.org/2000/svg" viewBox="0 0 143.46 143.46"><defs><style>.cls-1{fill:#ffb500;}.cls-2{fill:#09544f;}.cls-3{fill:#fff;}</style></defs><rect class="cls-1" width="143.46" height="143.46" rx="14.77"/><path class="cls-2" d="M91.25,31.82V46.45A5.73,5.73,0,0,0,97,52.18h15.27a5.09,5.09,0,0,0,5.09-5.1V31.94a5.84,5.84,0,0,0-5.84-5.85H97A5.73,5.73,0,0,0,91.25,31.82Z"/><path class="cls-3" d="M26.1,78.24v32.49c0,3.6,2.58,6.52,5.77,6.52H47.25c2.83,0,5.13-2.6,5.13-5.8V78.37c0-3.67-2.64-6.64-5.89-6.64H31.87C28.68,71.73,26.1,74.65,26.1,78.24Z"/><path class="cls-3" d="M58.86,45.5V97.88c0,4.05,2.54,6.62,5.69,6.62H79.71c2.79,0,5.06-2.2,5.06-5.81v-53c0-4.14-2.6-6.24-5.81-6.24H64.55C61.4,39.41,58.86,41.45,58.86,45.5Z"/></svg>