<svg id="ARTE" xmlns="http://www.w3.org/2000/svg" viewBox="0 0 113.63 114.07"><title>UR_logo-without-FBS_horizontal-white</title><line x1="85.7" y1="71.83" x2="27.93" y2="71.83" style="fill:none;stroke:#fff;stroke-miterlimit:10"/><path d="M85.82,29.27l-.86-.9C81.28,24.54,76.08,15,82.71,6.07l.51-.68-.45-.74A10,10,0,0,0,82,3.58c-.21-.26-.42-.52-.72-.94l-.54-.78-.9.31a12.54,12.54,0,0,1-4.07.72c-3.77,0-6.29-.38-9.34-2.41L65.71,0l-.7.5A13.59,13.59,0,0,1,48.6.5L47.9,0l-.72.5c-3,2-5.54,2.41-9.32,2.41a12.54,12.54,0,0,1-4.07-.72l-.9-.31-.55.78c-.29.42-.5.68-.71.94a7.51,7.51,0,0,0-.78,1.07l-.46.74.52.7c6.63,8.86,1.43,18.47-2.24,22.3l-.87.9.88.89c.47.47,1.31,1.34,2,2.07v.14a1.13,1.13,0,0,1,0,.26v.08c-.34,6.4,1.31,11.66,4.92,15.66,3.82,4.22,9.8,6.75,16.87,7.14,1.15,1.06,2.36,2.06,3.61,3l.75.57.75-.57q1.88-1.41,3.6-3c7.07-.39,13-2.92,16.87-7.14,3.61-4,5.26-9.26,4.93-15.66v-.08a1.13,1.13,0,0,1,0-.26v-.12c.69-.73,1.53-1.6,2-2.07Zm-4.19,2.5c.07.64,0,.62.07,1,.76,14.26-9.11,21-21,21.49-1.82,1.71-3.83,3.21-3.83,3.21-1.33-1-2.61-2.08-3.84-3.21C41.09,53.76,31.22,47,32,32.77a6.73,6.73,0,0,1,.07-1c-.69-.73-1.82-1.92-2.42-2.52C34,24.79,39,14.57,32,5.25c.45-.73.78-1,1.46-2A13.51,13.51,0,0,0,38,4c4,0,6.68-.4,10-2.62a14.81,14.81,0,0,0,17.85,0c3.33,2.22,6,2.62,10,2.62a14,14,0,0,0,4.4-.65c.68,1,1,1.22,1.46,2-6.93,9.27-1.93,19.49,2.35,24-.6.6-1.73,1.79-2.42,2.52" transform="translate(0 0.02)" style="fill:#231f20"/><path d="M56.82,57.46A48.89,48.89,0,0,1,53,54.24c-12-.49-21.83-7.26-21-21.48a6.73,6.73,0,0,1,.07-1c-.68-.73-1.82-1.92-2.42-2.52,4.28-4.46,9.28-14.68,2.35-24,.45-.74.78-1,1.46-2A13.93,13.93,0,0,0,37.93,4c4,0,6.69-.4,10-2.62a14.81,14.81,0,0,0,17.85,0c3.34,2.22,6,2.62,10,2.62a13.76,13.76,0,0,0,4.46-.64c.68,1,1,1.21,1.46,2-6.93,9.27-1.93,19.49,2.35,24-.6.6-1.73,1.79-2.42,2.52.07.64,0,.62.07,1,.76,14.26-9.11,21-21,21.48a49,49,0,0,1-3.83,3.22" transform="translate(0 0.02)" style="fill:#e8b909"/><path d="M40.47,32.1H34.22a4.83,4.83,0,0,1-.11.84c-.36,7.2,2.15,12.12,6.39,15.17Z" transform="translate(0 0.02)" style="fill:#0054a4"/><path d="M40.47,48.11a20.09,20.09,0,0,0,6.59,3v-19H40.47Z" transform="translate(0 0.02)" style="fill:#a30046"/><path d="M47.06,51.12a31.92,31.92,0,0,0,6.59,1v-20H47.06Z" transform="translate(0 0.02)" style="fill:#0054a4"/><path d="M60.22,32.1H53.63v20h6.59Z" transform="translate(0 0.02)" style="fill:#a30046"/><path d="M60.22,52.08a31.16,31.16,0,0,0,6.59-1v-19H60.22Z" transform="translate(0 0.02)" style="fill:#0054a4"/><path d="M66.82,51.05A19.86,19.86,0,0,0,73.41,48V32.1H66.82Z" transform="translate(0 0.02)" style="fill:#a30046"/><path d="M79.44,32.1h-6V48c4.09-3.07,6.49-7.93,6.14-15a8,8,0,0,0-.11-.84" transform="translate(0 0.02)" style="fill:#0054a4"/><path d="M57.44,52.31H53.87c-7-.29-12.53-2.42-15.93-6.17-3-3.27-4.32-7.71-4-13.19v-.4a3.23,3.23,0,0,0,0-.44V32h45.6v.18a1.09,1.09,0,0,0,0,.44V33c.28,5.49-1.08,9.93-4,13.2-3.4,3.75-8.9,5.88-15.92,6.17H57.34m-23.08-20a1.41,1.41,0,0,1,0,.29V33c-.28,5.37,1,9.71,3.94,12.9,3.33,3.67,8.74,5.76,15.66,6h5.88c6.9-.29,12.32-2.38,15.65-6,2.89-3.19,4.22-7.53,3.94-12.91V32.6a1.41,1.41,0,0,1,0-.29Z" transform="translate(0 0.02)" style="fill:#231f20"/><path d="M50.48,41.83a6.32,6.32,0,1,1,6.31,6.35,6.32,6.32,0,0,1-6.31-6.35v0h0" transform="translate(0 0.02)" style="fill:#e8b909"/><path d="M56.79,35.67a6.16,6.16,0,1,0,6.13,6.19h0a6.15,6.15,0,0,0-6.13-6.16m0,12.45A6.29,6.29,0,1,1,63,41.78h0a6.28,6.28,0,0,1-6.25,6.29" transform="translate(0 0.02)" style="fill:#231f20"/><path d="M56.79,35.48a6.35,6.35,0,1,1-6.31,6.39h0a6.32,6.32,0,0,1,6.29-6.35h0M53.57,43c-1.15-1-1.15-3.17-.84-4.58.08-.4.19-.78.3-1.22a6,6,0,0,0-1.77,6.9h.31a2.2,2.2,0,0,0,2-1.12m6.14.46c-.2,1-1.27,1.76-2.28,2.36a9.28,9.28,0,0,1-4,1,6,6,0,0,0,8.26-1.6c.1-.16.2-.32.29-.48a1.57,1.57,0,0,0-1.66-1.47h0a1.75,1.75,0,0,0-.63.18m-6.71,3a9.23,9.23,0,0,0,4.25-1c1.42-.85,2.52-1.76,2-3a1.43,1.43,0,0,0-1.83-.83h0a1.45,1.45,0,0,0-.43.26,2,2,0,0,1-2,1.66,2.49,2.49,0,0,1-1.06-.37,2.56,2.56,0,0,1-2.28,1.25h-.14a6,6,0,0,0,1.57,2M56.75,38c1-.41,2.36.13,3.4.71a7,7,0,0,1,2.57,2.67,6,6,0,0,0-5.9-5.63,1.32,1.32,0,0,0-.49,1.8,1.3,1.3,0,0,0,.42.45m-.16,3.83a2.33,2.33,0,0,1-.59-3.1,1.91,1.91,0,0,1,.45-.49,1.67,1.67,0,0,1-.23-2.35l.07-.08a5.85,5.85,0,0,0-2.79,1,13.44,13.44,0,0,0-.58,3.33c0,1.58.68,2.87,2.06,3a1.71,1.71,0,0,0,1.65-1.31m6.12.46A6.27,6.27,0,0,0,60,39c-1.44-.8-3-1.25-3.71-.14a2,2,0,0,0,.5,2.64,1.77,1.77,0,0,1,2.49.24,1.92,1.92,0,0,1,.29.5,2.33,2.33,0,0,1,.17.69A1.92,1.92,0,0,1,62.21,44v.08a6.09,6.09,0,0,0,.47-1.83" transform="translate(0 0.02)" style="fill:#231f20"/><path d="M64.31,31H61.63V25h2.7c1.19,0,1.9.6,1.9,1.59a1.36,1.36,0,0,1-.55,1.12A1.4,1.4,0,0,1,66.42,29a1.87,1.87,0,0,1-1.71,2h-.4m-1.42-1.24h1.45c.5,0,.76-.23.76-.68s-.24-.68-.76-.68H62.89Zm0-2.52h1.45c.39,0,.58-.15.58-.47s-.08-.49-.64-.49H62.89Z" transform="translate(0 0.02)" style="fill:#231f20"/><path d="M56.35,31c-1.57,0-2.58-1.2-2.58-3s1.08-3,2.62-3a2.24,2.24,0,0,1,2.16,1.31v.07L57.36,27v-.06a1,1,0,0,0-1-.59c-.8,0-1.29.68-1.29,1.77s.52,1.76,1.29,1.76a1.13,1.13,0,0,0,1.07-.7V29.1l1.09.64v.07a2.26,2.26,0,0,1-2.19,1.34" transform="translate(0 0.02)" style="fill:#231f20"/><polygon points="48.45 30.94 47.16 30.94 47.16 25.02 51.42 25.02 51.42 26.29 48.45 26.29 48.45 27.24 50.19 27.24 50.19 28.5 48.45 28.5 48.45 30.94" style="fill:#231f20"/><path d="M35.69,23.79c2.18-5,3-11.45-.67-17.74a15.12,15.12,0,0,0,2.85.27c3.74,0,6.68-.34,10-2.23a16.71,16.71,0,0,0,17.91,0C69.09,6,72,6.32,75.78,6.32A15.23,15.23,0,0,0,78.64,6,19.13,19.13,0,0,0,78,23.79Z" transform="translate(0 0.02)" style="fill:#fff"/><path d="M56.62,6.69v17.1h2.26V6.56a16,16,0,0,1-2.07.13h-.19" transform="translate(0 0.02)" style="fill:#fd0"/><path d="M58.88,23.79h2.26V6.12a15.83,15.83,0,0,1-2.26.44Z" transform="translate(0 0.02)" style="fill:#e31837"/><path d="M61.14,23.79H63.4V5.33a16.35,16.35,0,0,1-2.26.79Z" transform="translate(0 0.02)" style="fill:#fd0"/><path d="M63.4,23.79h2.26V4.16A19.33,19.33,0,0,1,63.4,5.33Z" transform="translate(0 0.02)" style="fill:#e31837"/><path d="M65.66,4.16V23.79h2.26V5.12a15.53,15.53,0,0,1-2.15-1l-.11.06" transform="translate(0 0.02)" style="fill:#fd0"/><path d="M67.92,23.79h2.3v-18A14.3,14.3,0,0,1,68,5.09Z" transform="translate(0 0.02)" style="fill:#e31837"/><path d="M70.22,23.79h2.26V6.18a21.68,21.68,0,0,1-2.26-.36Z" transform="translate(0 0.02)" style="fill:#fd0"/><path d="M72.43,23.77h2.26V6.27a14.21,14.21,0,0,1-2.26-.12Z" transform="translate(0 0.02)" style="fill:#e31837"/><path d="M78.44,6.07a14.14,14.14,0,0,1-2.68.25H74.69V23.79h3.24a19.34,19.34,0,0,1,.51-17.45Z" transform="translate(0 0.02)" style="fill:#fd0"/><path d="M43.75,18v5.8H50V18h6.69V11.67H50V5.24a19.69,19.69,0,0,1-2.18-1.15,16.11,16.11,0,0,1-4.11,1.66v5.92H37.22A18.32,18.32,0,0,1,37.39,18Z" transform="translate(0 0.02)" style="fill:#e31837"/><path d="M79,5.77l-.41.08a15.67,15.67,0,0,1-2.82.28c-3.82,0-6.66-.36-9.89-2.2l-.1-.06-.1.06A16.54,16.54,0,0,1,48,4l-.1-.06L47.77,4c-3.24,1.84-6.08,2.2-9.9,2.2a16.62,16.62,0,0,1-2.82-.26l-.4-.08.21.36c3.92,6.75,2.52,13.27.66,17.57l-.11.26H78.22l-.11-.26c-1.86-4.3-3.26-10.83.67-17.59Zm-43.61.54a16,16,0,0,0,2.49.2c3.84,0,6.72-.36,10-2.19a17.09,17.09,0,0,0,8.68,2.56V23.6H36a19.29,19.29,0,0,0-.6-17.29M77.65,23.6H56.92V6.88a17,17,0,0,0,8.86-2.56c3.26,1.83,6.14,2.19,10,2.19a14.86,14.86,0,0,0,2.49-.21,19.31,19.31,0,0,0-.6,17.3" transform="translate(0 0.02)" style="fill:#231f20"/><path d="M2.73,89.39V81.74H4.44v7.37c0,.82.3,1,1.13,1H6v1.71l-.44.42h0C3.65,92.33,2.73,91.48,2.73,89.39Z" transform="translate(0 0.02)" style="fill:#fff"/><path d="M5.57,90.62,6,90.19H8.46c.65,0,.86-.13.86-.49s-.17-.54-.86-.92L6.15,87.57V83.8L13,81.63v1.84L6.86,85.39v.09l1.59.88c1.71,1,2.29,1.72,2.29,3,0,2-.82,2.93-2.85,2.93H5.57Z" transform="translate(0 0.02)" style="fill:#fff"/><path d="M15.65,89.39V81.74h1.71v7.37c0,.82.3,1,1.14,1h.43v1.71l-.43.42h0C16.57,92.33,15.65,91.48,15.65,89.39Z" transform="translate(0 0.02)" style="fill:#fff"/><path d="M18.5,90.62l.43-.43h.41c1.38,0,1.76-.22,1.76-.86a10.09,10.09,0,0,0-.17-1.44l-.25-1.32,1.56-.25.21,1.32a10.63,10.63,0,0,1,.16,1.69c0,2.06-.94,3-3.28,3h-.82Zm1.74-6.4c0-.67.35-1,.82-1h.28c.49,0,.82.29.82,1s-.36,1-.82,1h-.28c-.45,0-.84-.28-.84-1Z" transform="translate(0 0.02)" style="fill:#fff"/><path d="M23.47,93.62h.91c1.8,0,2.88-.5,3.33-1.29H26.08a2.3,2.3,0,0,1-2.47-2.12h0a1.62,1.62,0,0,1,0-.44c0-2,1.26-3.47,2.93-3.47s2.78,1.46,2.88,3.89h.73v1.72l-.43.42h-.5c-.52,2.19-2.12,3.43-4.7,3.43H23.45Zm2.75-3.43H28a1.63,1.63,0,0,0-1.56-1.7h-.07a1.17,1.17,0,0,0-1.31,1C25,90.12,25.49,90.19,26.22,90.19Z" transform="translate(0 0.02)" style="fill:#fff"/><path d="M29.71,90.62l.44-.43h.35c.82,0,1.14-.31,1.14-1V81.77h1.7v7.42c0,.69.31,1,1,1h.49V91.9l-.42.42c-1.56,0-2.33-.6-2.6-1.92h-.09c-.24,1.32-.81,1.92-2,1.92Z" transform="translate(0 0.02)" style="fill:#fff"/><path d="M34.43,90.62l.42-.43h.43c.82,0,1.14-.31,1.14-1v-2H38v2a.87.87,0,0,0,.7,1h0a.66.66,0,0,0,.28,0h.58V91.9l-.43.42a2.2,2.2,0,0,1-2.52-1.83h0V90.4h-.08c-.26,1.32-.87,1.92-2.09,1.92Zm.66,3.84c0-.67.36-1,.82-1h.31c.49,0,.82.29.82,1s-.36,1-.82,1h-.28a.9.9,0,0,1-.86-.92S35.09,94.49,35.09,94.46Zm2.26,0c0-.67.35-1,.82-1h.27c.5,0,.82.29.82,1s-.35,1-.82,1h-.22a.9.9,0,0,1-.88-.9S37.35,94.49,37.35,94.46Z" transform="translate(0 0.02)" style="fill:#fff"/><path d="M39.13,90.62l.43-.43h0c.9,0,1.29-.18,1.55-.74l.56-1.15,1.41.68-.49,1a3.37,3.37,0,0,0,1.43.37c.82,0,1.16-.31,1.16-1.19v-.9h1.56v.9c0,.82.31,1.14.77,1.14h.15c.4,0,.67-.28.67-.92a9,9,0,0,0-.15-1.26l-.13-.72,1.55-.27.11.73a9.65,9.65,0,0,1,.14,1.52c0,2.13-.72,3.09-2.26,3.09a2,2,0,0,1-2.22-1.76,1.93,1.93,0,0,1,0-.24h-.08c-.15,1.36-.71,2-1.54,2a3.55,3.55,0,0,1-1.88-.68l-.34-.17a3.13,3.13,0,0,1-2.45.68Z" transform="translate(0 0.02)" style="fill:#fff"/><path d="M49.41,93.62H50c1.71,0,2.45-.66,2.45-2.29a10.19,10.19,0,0,0-.16-1.46L52,88l1.56-.25.21,1.34a14.79,14.79,0,0,1,.23,2.2c0,2.73-1.4,4.49-4,4.49h-.59Z" transform="translate(0 0.02)" style="fill:#fff"/><path d="M55.44,89.39V81.74h1.63v7.37c0,.82.3,1,1.14,1h.5v1.71l-.43.42h0C56.32,92.33,55.44,91.48,55.44,89.39Z" transform="translate(0 0.02)" style="fill:#fff"/><path d="M58.22,90.62l.43-.43h.42c1.36,0,1.75-.22,1.75-.86a10.09,10.09,0,0,0-.17-1.44l-.24-1.32L62,86.32l.22,1.32a11.92,11.92,0,0,1,.15,1.69c0,2.06-.94,3-3.27,3h-.84Zm1.64,3.84c0-.67.36-1,.82-1H61c.48,0,.81.29.81,1s-.36,1-.81,1h-.29c-.44,0-.8-.29-.8-1Z" transform="translate(0 0.02)" style="fill:#fff"/><path d="M66.65,92.79a8.61,8.61,0,0,1,.67-3l1.37.4a6.45,6.45,0,0,0-.62,2.32c0,1.19,1.08,1.89,2.87,1.89h1.14c1.94,0,3.16-.54,3.28-1.49l-2.17-.35c-1.56-.26-2.27-.89-2.27-2.34A4.18,4.18,0,0,1,75,86.07c1.56,0,2.46.75,3.1,2.46l.27.73c.28.81.57,1.12,1.3,1.12s1.15-.31,1.15-1.2v-.9h1.62v.93c0,.82.3,1.14.77,1.14h.13c.41,0,.68-.28.68-.92a10.85,10.85,0,0,0-.16-1.26l-.12-.72,1.54-.27.12.73a9.64,9.64,0,0,1,.13,1.52c0,2.13-.71,3.09-2.25,3.09a2,2,0,0,1-2.22-1.75h0v-.24H81c-.16,1.35-.72,2-1.8,2s-1.78-.75-2.31-2.18l-.27-.73a1.89,1.89,0,0,0-1.78-1.38c-1.19,0-2.46.74-2.46,1.5,0,.37.38.59,1.19.73l1.77.31c1.07.18,1.5.82,1.5,2,0,2.56-2,4-5.32,4C68.46,96.7,66.65,95.24,66.65,92.79Z" transform="translate(0 0.02)" style="fill:#fff"/><path d="M89.92,89.2a7.53,7.53,0,0,1,.56-2.61l1.38.4a4.28,4.28,0,0,0-.52,1.74c0,1.1.82,1.47,3.28,1.47h4.25v-.07A3.24,3.24,0,0,1,98,87.8a2.82,2.82,0,0,1,5.61-.61,3.11,3.11,0,0,1,0,.61,3.18,3.18,0,0,1-1,2.32v.07h1.61v1.72l-.42.42h-.14a4.44,4.44,0,0,1-2.88-.91c-.88.68-2.65,1.08-5.3,1.08C91.36,92.48,89.92,91.66,89.92,89.2Zm12.3-1.07a1.29,1.29,0,0,0-1.28-1.29h-.28A1.28,1.28,0,0,0,99.28,88h0v.1c0,.76.51,1.34,1.47,1.88,1-.54,1.47-1.12,1.47-1.89Zm-2.46-5.55c0-.67.36-1,.82-1h.29c.48,0,.81.28.81,1s-.36,1-.81,1h-.29c-.44,0-.8-.29-.8-1Z" transform="translate(0 0.02)" style="fill:#fff"/><path d="M103.81,90.62l.42-.43h.42c1.37,0,1.75-.22,1.75-.86a7.76,7.76,0,0,0-.17-1.44L106,86.57l1.56-.25.21,1.32a13.61,13.61,0,0,1,.16,1.69c0,2.06-.94,3-3.28,3h-.82Zm.53,3.84c0-.67.35-1,.82-1h.29c.49,0,.81.29.81,1s-.35,1-.81,1h-.29a.88.88,0,0,1-.83-.93S104.34,94.48,104.34,94.46Zm2.25,0c0-.67.36-1,.82-1h.29c.48,0,.81.29.81,1s-.36,1-.81,1h-.29a.88.88,0,0,1-.82-.95Z" transform="translate(0 0.02)" style="fill:#fff"/><path d="M109.22,81.78h1.71V92.33h-1.71Z" transform="translate(0 0.02)" style="fill:#fff"/><path d="M0,110.12H.6c1.71,0,2.49-.65,2.49-2.27a9.06,9.06,0,0,0-.16-1.47l-.29-1.9,1.55-.24.16,1,2.35-.39v-1.22H8.27v2c0,.82.3,1,1.14,1h.43v1.71l-.43.44H9.22c-1.45,0-2.23-.56-2.46-1.86l-2.15.36a3.09,3.09,0,0,1,0,.43c0,2.74-1.4,4.49-4,4.49H0Zm6.46-8.55c0-.67.36-1,.82-1h.28c.49,0,.82.29.82,1s-.36,1-.82,1H7.28A.88.88,0,0,1,6.46,101.57Z" transform="translate(0 0.02)" style="fill:#fff"/><path d="M9.39,107.13l.42-.43h.41c1.37,0,1.75-.23,1.75-.86a7.65,7.65,0,0,0-.17-1.43l-.24-1.29,1.55-.26.21,1.33a10.64,10.64,0,0,1,.17,1.69c0,2.07-.94,3-3.28,3H9.39Zm.69-6.59h.56l.1-.16V97.6h1V99a1.61,1.61,0,0,1,1-.27,1.38,1.38,0,0,1,1.45,1.3v.19c0,1-.48,1.44-1.54,1.44H10.08Zm1.31,0H12.6c.54,0,.82-.1.82-.29s-.23-.35-.6-.35h-.33c-.6,0-.82.12-1,.47Z" transform="translate(0 0.02)" style="fill:#fff"/><path d="M13.06,110.12h.58c1.71,0,2.45-.65,2.45-2.27a12.2,12.2,0,0,0-.15-1.47l-.31-1.9,1.56-.24.21,1.33a15,15,0,0,1,.25,2.21c0,2.74-1.4,4.49-4,4.49H13Z" transform="translate(0 0.02)" style="fill:#fff"/><path d="M19.05,106V98.29h1.71v7.37c0,.81.29,1,1.13,1h.44v1.73l-.45.43h0C20,108.85,19.05,108,19.05,106Z" transform="translate(0 0.02)" style="fill:#fff"/><path d="M21.88,107.13l.43-.43h.41c1.37,0,1.75-.23,1.75-.86a8.58,8.58,0,0,0-.16-1.43l-.25-1.33,1.56-.26.21,1.33a13.61,13.61,0,0,1,.16,1.69c0,2.07-.94,3-3.28,3h-.83Zm.53,3.84c0-.67.35-1,.82-1h.29c.49,0,.81.29.81,1s-.35,1-.81,1h-.25c-.49,0-.84-.29-.84-1Zm1.11,2.08c0-.67.36-1,.81-1h.29c.48,0,.82.28.82,1s-.36,1-.82,1h-.29A.88.88,0,0,1,23.52,113.05ZM24.64,111c0-.67.36-1,.82-1h.29c.48,0,.82.29.82,1s-.36,1-.82,1h-.29c-.42,0-.78-.29-.78-1Z" transform="translate(0 0.02)" style="fill:#fff"/><path d="M30.37,105.7a7.78,7.78,0,0,1,.57-2.61l1.37.41a4.27,4.27,0,0,0-.51,1.74c0,1.1.82,1.46,3.27,1.46h3.49c.68,0,.9-.13.9-.48s-.12-.42-.45-.69l-1.64-1.48v-3.76l6.85-2.17V100l-6.14,1.92V102l3.65,3.33c1.22,1.13,1.85,1.36,2.63,1.36v1.69l-.38.44c-1.3,0-2-.44-3.42-2.19l-.38-.47h-.07a2.6,2.6,0,0,1,.06.56,1.87,1.87,0,0,1-1.69,2H35C31.81,108.85,30.37,107.86,30.37,105.7Zm7-7,6.85-2.15v.71l-6.85,2.17Z" transform="translate(0 0.02)" style="fill:#fff"/><path d="M44,107.13l.42-.43h.4c1.36,0,1.75-.23,1.75-.86a9.79,9.79,0,0,0-.17-1.43l-.24-1.33,1.55-.26.22,1.33a11.92,11.92,0,0,1,.15,1.69c0,2.07-.94,3-3.27,3H44Zm1.75-6.4c0-.67.36-1,.82-1h.28c.49,0,.82.29.82,1s-.36,1-.82,1h-.28c-.5,0-.86-.29-.86-1Z" transform="translate(0 0.02)" style="fill:#fff"/><path d="M48.89,106.74v-1h1.64v.91h1.95c.63,0,.91-.17.91-.61a2.9,2.9,0,0,0-.2-.82l-1.25-3.61,1.83-.64,1.44,4.09c.42,1.24.82,1.54,1.52,1.54h.43v1.74l-.43.43a2.74,2.74,0,0,1-3-2h0c-.24,1.39-.73,1.94-2,1.94h-.82a1.85,1.85,0,0,1-2-1.64A1.22,1.22,0,0,1,48.89,106.74Zm1.77-7.66h.56l.11-.16V96.14h1v1.4a1.7,1.7,0,0,1,1-.27,1.39,1.39,0,0,1,1.45,1.31v.19c0,1-.48,1.44-1.54,1.44H50.71Zm1.32,0h1.24c.54,0,.82-.1.82-.31s-.23-.34-.61-.34H53.1c-.59,0-.82.11-1,.47Z" transform="translate(0 0.02)" style="fill:#fff"/><path d="M56.75,107.13l.43-.43h.41c1.37,0,1.75-.23,1.75-.86a8.78,8.78,0,0,0-.12-1.45L59,103.06l1.56-.26.21,1.33a11.92,11.92,0,0,1,.15,1.69c0,2.07-.94,3-3.27,3H56.8Zm.53,3.84c0-.67.35-1,.82-1h.27c.5,0,.82.29.82,1s-.35,1-.82,1H58.1c-.47,0-.82-.33-.82-1Zm2.25,0c0-.67.36-1,.82-1h.28c.49,0,.82.29.82,1s-.36,1-.82,1h-.28a.87.87,0,0,1-.83-.91s0,0,0-.08Z" transform="translate(0 0.02)" style="fill:#fff"/><path d="M62.14,110.12h.57c1.71,0,2.5-.65,2.5-2.27a10.49,10.49,0,0,0-.16-1.47l-.3-1.9,1.56-.24.21,1.33c.07.41.11.81.15,1.13H68v1.69l-.43.44h-.89a3.7,3.7,0,0,1-4,3.42h-.6Z" transform="translate(0 0.02)" style="fill:#fff"/><path d="M67.56,107.13l.43-.43h.41c1.37,0,1.76-.23,1.76-.86a9.79,9.79,0,0,0-.17-1.43l-.25-1.33,1.56-.26.21,1.33a10.63,10.63,0,0,1,.16,1.69c0,2.07-.94,3-3.28,3h-.82Zm.7-6.59h.56l.1-.16V97.6h1V99a1.55,1.55,0,0,1,1-.27,1.38,1.38,0,0,1,1.45,1.3v.19c0,1-.48,1.44-1.54,1.44H68.22Zm1.31,0h1.2c.54,0,.81-.1.81-.29s-.22-.35-.59-.35h-.33c-.61,0-.82.12-1,.47Z" transform="translate(0 0.02)" style="fill:#fff"/><path d="M76,108.39a8.61,8.61,0,0,1,.67-3l1.37.4a6.24,6.24,0,0,0-.61,2.32,1.8,1.8,0,0,0,1.69,1.9h1.46c1.49,0,2-.67,2-2.59V98.29h1.68v8.41h1.59v1.69l-.43.44H84.11c-.37,2.32-1.71,3.42-4.18,3.42A3.56,3.56,0,0,1,76,108.39Z" transform="translate(0 0.02)" style="fill:#fff"/><path d="M85.43,107.13l.42-.43h0c.89,0,1.28-.18,1.56-.73L88,104.8l1.41.69-.5,1.06a3.92,3.92,0,0,0,1.43.36c.81,0,1.16-.32,1.16-1.21v-.9H93v.9c0,.82.21,1.15.82,1.15H94c.5,0,.82-.36.82-1.15v-1.46h1.56v1.46a.87.87,0,0,0,.7,1h0a.71.71,0,0,0,.29,0h.57v1.69l-.42.44c-1.44,0-2.17-.58-2.38-1.82h-.08c-.11,1.36-.71,2-1.64,2s-1.54-.63-1.74-2H91.6c-.15,1.36-.71,2-1.55,2a3.56,3.56,0,0,1-1.88-.69l-.28-.17a3.19,3.19,0,0,1-2.45.69Zm4.71-4.42c0-.67.36-1,.82-1h.26c.49,0,.82.29.82,1s-.36,1-.82,1h-.28C90.5,103.71,90.14,103.39,90.14,102.71Zm1.13-2.08c0-.67.36-1,.82-1h.28c.49,0,.82.29.82,1s-.36,1-.82,1h-.28c-.46,0-.82-.28-.82-.92Zm1.13,2.08c0-.67.35-1,.82-1h.28c.49,0,.81.29.81,1s-.35,1-.81,1h-.28C92.75,103.71,92.4,103.39,92.4,102.71Z" transform="translate(0 0.02)" style="fill:#fff"/><path d="M97.51,107.13l.42-.43h.43c.82,0,1.14-.31,1.14-1v-2h1.57v2a.87.87,0,0,0,.72,1h0a.66.66,0,0,0,.28,0h.57v1.69l-.43.44A2.21,2.21,0,0,1,99.69,107h0v-.08h0c-.25,1.32-.86,1.93-2.09,1.93Zm.67,3.84c0-.67.35-1,.82-1h.27c.5,0,.82.29.82,1s-.35,1-.82,1H99c-.47,0-.78-.33-.78-1Zm2.25,0c0-.67.36-1,.82-1h.28c.49,0,.82.29.82,1s-.36,1-.82,1h-.26c-.48,0-.82-.29-.82-1Z" transform="translate(0 0.02)" style="fill:#fff"/><path d="M102.22,107.13l.43-.43h2.76c1.32,0,2.17-.25,2.17-1.25v-.65h-.08a1.82,1.82,0,0,1-1.9,1.12,2.15,2.15,0,0,1-2.43-1.83h0a1.7,1.7,0,0,1,0-.45c0-2,1.26-3.46,2.92-3.46,1.86,0,3,1.64,3,4.42,0,3.46-1.19,4.26-3.61,4.26h-3.19Zm5.34-3.27a1.64,1.64,0,0,0-1.64-1.55,1.18,1.18,0,0,0-1.31,1h0c0,.5.46.71,1.17.71h.31a3.8,3.8,0,0,0,1.46-.16Zm-2.46-5.78c0-.67.36-1,.82-1h.3c.48,0,.82.29.82,1s-.36,1-.82,1h-.28c-.46,0-.82-.28-.82-1Z" transform="translate(0 0.02)" style="fill:#fff"/><path d="M109.09,98.39a1,1,0,0,1,.8-1.17h0a1.07,1.07,0,0,1,.56.06l.86.17a3.86,3.86,0,0,0,.75.1c.44,0,.6-.14.75-.62l.82.42c-.2,1-.7,1.44-1.58,1.44a4.79,4.79,0,0,1-1-.11l-1-.19v.41h-1Zm1.42,1.64h1.71v8.78h-1.71Z" transform="translate(0 0.02)" style="fill:#fff"/></svg>