<svg xmlns="http://www.w3.org/2000/svg" viewBox="0 0 205.30611 123.40672"><defs><style>.cls-1{fill:none;stroke:#1d1e1c;stroke-miterlimit:10;}.cls-2{fill:#e6b70c;}.cls-3{fill:#fff;}.cls-4{fill:#ffdc04;}.cls-5{fill:#0555a2;}.cls-6{fill:#a21548;}.cls-7{fill:#e21937;}.cls-8{fill:#1d1e1c;}.cls-9{fill:#00be40;}</style></defs><g id="Layer_2" data-name="Layer 2"><g id="ARTE"><g id="UR_joint-logo-horizontal-black"><line class="cls-1" x1="102.2" y1="0.10672" x2="102.2" y2="71.80672"/><path class="cls-2" d="M46.3,1.30672l.4.2c3.9,2.6,7.1,3.1,11.9,3.1a15.95123,15.95123,0,0,0,5.3-.9l.4-.2,2.3,3.2-.3.4c-8.5,11.3-1.9,23.4,2.8,28.3l.4.5-.4.4-2.5,2.5-.2.3v1c.4,7.5-1.6,13.7-5.8,18.3-4.5,5-11.6,7.9-20,8.4h-.3l-.3.2c-2.1,1.9-4.3,3.6-4.3,3.6l-.4.3-.3-.3c-.1-.1-2.2-1.7-4.3-3.6l-.2-.2h-.3c-8.4-.5-15.5-3.4-20-8.4-4.3-4.7-6.2-10.9-5.8-18.4v-.5h0v-.4l-.3-.3c-.8-.8-1.8-1.9-2.5-2.5l-.4-.4.4-.5c4.7-4.9,11.3-17,2.8-28.3l-.2-.3,2.3-3.2.5.1a15.95123,15.95123,0,0,0,5.3.9c4.8,0,8-.5,11.9-3.1l.4-.2.3.3a17.22614,17.22614,0,0,0,10.5,3.5,17.888,17.888,0,0,0,10.5-3.5l.4-.3"/><path class="cls-3" d="M9.6,29.10672c2.7-6.1,3.6-13.9-.8-21.5a19.82661,19.82661,0,0,0,3.5.3c4.6,0,8.2-.4,12.2-2.7a21.269,21.269,0,0,0,10.9,3.2,20.63288,20.63288,0,0,0,10.9-3.1c4,2.3,7.6,2.7,12.2,2.7a20.67917,20.67917,0,0,0,3.5-.3c-4.5,7.7-3.5,15.5-.8,21.5H9.6"/><path class="cls-4" d="M61.2,29.10672c-2.7-6.1-3.6-13.9.8-21.6a19.82661,19.82661,0,0,1-3.5.3c-4.6,0-8.2-.4-12.2-2.7a21.269,21.269,0,0,1-10.9,3.2h-.1v20.8Z"/><path class="cls-5" d="M55.5,58.50672c5.1-3.7,8.1-9.7,7.6-18.3,0-.5-.1-.5-.1-1H55.5Z"/><path class="cls-6" d="M47.5,62.20672a23.38277,23.38277,0,0,0,8-3.7v-19.3h-8Z"/><path class="cls-6" d="M15.3,58.50672a23.38279,23.38279,0,0,0,8,3.7v-23h-8Z"/><path class="cls-5" d="M7.7,40.20672c-.4,8.7,2.6,14.6,7.6,18.3v-19.3H7.8C7.8,39.70672,7.7,39.70672,7.7,40.20672Z"/><path class="cls-6" d="M35.4,43.50672a7.21146,7.21146,0,0,1,4,1.2v-5.4H31.3v5.5A7.10365,7.10365,0,0,1,35.4,43.50672Z"/><path class="cls-6" d="M35.4,58.60672a7.789,7.789,0,0,1-4.1-1.2v6h8v-6A6.45174,6.45174,0,0,1,35.4,58.60672Z"/><path class="cls-5" d="M39.4,39.20672v5.4a7.6196,7.6196,0,0,1,2.5,10.4,8.50889,8.50889,0,0,1-2.5,2.5v6a35.97906,35.97906,0,0,0,8-1.2v-23Z"/><path class="cls-5" d="M27.9,51.10672a7.54758,7.54758,0,0,1,3.5-6.4v-5.5h-8v23a35.97965,35.97965,0,0,0,8,1.2v-6A7.37881,7.37881,0,0,1,27.9,51.10672Z"/><path class="cls-7" d="M11.4,14.40672a22.08621,22.08621,0,0,1,.2,7.7h7.8v7h7.7v-7h8.2v-7.7H27.1v-7.8c-.9-.4-1.8-.9-2.7-1.4a18.05152,18.05152,0,0,1-5,2v7.2Z"/><path class="cls-7" d="M51.8,29.10672v-21.8a27.58564,27.58564,0,0,1-2.7-.8v22.6Z"/><path class="cls-7" d="M40.8,29.10672v-21.5a13.09583,13.09583,0,0,1-2.7.6v20.9Z"/><path class="cls-7" d="M57.4,29.10672v-21.2c-1,0-1.9-.1-2.8-.1v21.3Z"/><path class="cls-7" d="M46.3,29.10672v-23.9a24.37066,24.37066,0,0,1-2.8,1.4v22.5Z"/><path class="cls-8" d="M70.8,35.80672l-1-1.1c-4.5-4.7-10.9-16.3-2.8-27.1l.6-.8-3.1-4.3-1.1.4a14.259,14.259,0,0,1-5,.9c-4.6,0-7.6-.4-11.3-2.9l-.9-.6-.9.6a18.04332,18.04332,0,0,1-9.9,3.3,16.54309,16.54309,0,0,1-10-3.4l-.9-.6-.9.6c-3.8,2.5-6.8,2.9-11.4,2.9a14.259,14.259,0,0,1-5-.9l-1-.4-3,4.3.6.8c8.1,10.9,1.7,22.5-2.8,27.2l-1,1.1,1.1,1.1,2.5,2.5v.5c-.4,7.8,1.6,14.2,6,19,4.7,5.1,12,8.2,20.6,8.7a45.89341,45.89341,0,0,0,4.4,3.6l.9.7.9-.7c.1-.1,2.3-1.7,4.4-3.6,8.6-.5,15.9-3.5,20.6-8.7,4.4-4.8,6.4-11.2,6-19v-.5c.8-.9,1.9-2,2.4-2.5Zm-5.1,3c.1.8,0,.8.1,1.2.9,17.3-11.1,25.5-25.7,26.1a50.74508,50.74508,0,0,1-4.7,3.9,50.74508,50.74508,0,0,1-4.7-3.9c-14.5-.6-26.6-8.8-25.7-26.1.1-.5,0-.4.1-1.2-.8-.9-2.2-2.3-3-3,5.3-5.5,11.4-17.9,2.9-29.1l1.8-2.4a17.24076,17.24076,0,0,0,5.5,1c4.9,0,8.2-.5,12.3-3.2a18.72519,18.72519,0,0,0,10.9,3.6,18.72519,18.72519,0,0,0,10.9-3.6c4.1,2.7,7.4,3.2,12.2,3.2a17.24087,17.24087,0,0,0,5.5-1l1.8,2.4c-8.5,11.2-2.4,23.7,2.9,29.1-.9.7-2.2,2.1-3.1,3Z"/><path class="cls-8" d="M7.6,39.20672c0,.3,0,.4-.1.5s0,.3-.1.5c-.3,6.7,1.3,12,4.9,16,4.2,4.5,10.9,7.1,19.5,7.5H39c8.6-.4,15.3-3,19.4-7.5,3.6-4,5.3-9.4,4.9-16a.74936.74936,0,0,0-.1-.5c-.1-.1,0-.3-.1-.5v-.2H7.6Zm.3,1a.90151.90151,0,0,1,.1-.5c.1-.2,0-.2,0-.3H62.9v.3a.75592.75592,0,0,0,.1.4c.3,6.5-1.3,11.8-4.8,15.7-4.1,4.5-10.7,7-19.1,7.3H31.9c-8.4-.3-15-2.9-19.1-7.3C9.2,52.00672,7.6,46.80672,7.9,40.20672Z"/><path class="cls-8" d="M9.4,29.00672l-.1.3H61.6l-.1-.3c-2.3-5.2-4-13.1.8-21.4l.3-.4-.6.1a19.52917,19.52917,0,0,1-3.4.3c-4.7,0-8.1-.4-12.1-2.7l-.1-.1-.1.1a20.357,20.357,0,0,1-10.9,3.2,20.54713,20.54713,0,0,1-10.8-3.1l-.1-.1-.1.1c-3.9,2.2-7.4,2.7-12.1,2.7a18.70146,18.70146,0,0,1-3.4-.3l-.6-.1.3.4C13.4,15.90672,11.7,23.80672,9.4,29.00672Zm26.2-20.4a20.54713,20.54713,0,0,0,10.8-3.1c4,2.2,7.5,2.7,12.2,2.7a15.2625,15.2625,0,0,0,3-.3c-4.5,8.1-2.9,15.8-.7,21H35.6Zm-26.4-.7c1,.2,2,.2,3,.3,4.7,0,8.2-.4,12.2-2.7a20.12246,20.12246,0,0,0,10.6,3.1v20.3H10C12.2,23.70672,13.7,15.90672,9.2,7.90672Z"/><polygon class="cls-8" points="28.8 32.107 28.8 30.607 23.6 30.607 23.6 37.807 25.2 37.807 25.2 34.807 27.3 34.807 27.3 33.307 25.2 33.307 25.2 32.107 28.8 32.107"/><path class="cls-8" d="M34.9,32.00672a1.38733,1.38733,0,0,1,1.2.7v.1l1.4-.7v-.1a2.92466,2.92466,0,0,0-2.7-1.6c-1.9,0-3.2,1.5-3.2,3.7s1.2,3.7,3.2,3.7a2.85659,2.85659,0,0,0,2.7-1.6v-.1l-1.3-.8v.1a1.21273,1.21273,0,0,1-1.3.8c-.9,0-1.6-.9-1.6-2.2S33.9,32.00672,34.9,32.00672Z"/><path class="cls-8" d="M46.9,32.50672c0-1.2-.9-1.9-2.3-1.9H41.3v7.2h3.3a2.33181,2.33181,0,0,0,2.6-1.9v-.4a1.6498,1.6498,0,0,0-.9-1.5A2.03515,2.03515,0,0,0,46.9,32.50672Zm-4.1-.5h1.7c.7,0,.8.3.8.6s-.2.6-.7.6H42.8Zm1.8,4.3H42.8v-1.7h1.8c.6,0,.9.3.9.8a.8393.8393,0,0,1-.9.9Z"/><path class="cls-8" d="M35.4,58.80672a7.75016,7.75016,0,1,0-7.8-7.7h0A7.78955,7.78955,0,0,0,35.4,58.80672Zm0-.5a7.53722,7.53722,0,0,1-4.1-1.2,11.35113,11.35113,0,0,0,4.8-1.2c1.2-.7,2.5-1.7,2.8-2.9a1.96733,1.96733,0,0,1,2.6.8,1.854,1.854,0,0,1,.2.7A7.01545,7.01545,0,0,1,35.4,58.30672Zm-3.6-5.6a5.02339,5.02339,0,0,0,1.3.5,2.48047,2.48047,0,0,0,2.5-2,1.76289,1.76289,0,0,1,2.5.2c.1.2.2.3.3.5.6,1.5-.7,2.6-2.4,3.7a11.66883,11.66883,0,0,1-5.2,1.2,7.2134,7.2134,0,0,1-1.9-2.4H29A3.96842,3.96842,0,0,0,31.8,52.70672Zm-1.2-3.7a17.63277,17.63277,0,0,1,.7-4,6.97129,6.97129,0,0,1,3.4-1.2,1.93333,1.93333,0,0,0,0,2.8l.2.2a2.65153,2.65153,0,0,0-.5.6,2.82419,2.82419,0,0,0,.8,3.7,2.04338,2.04338,0,0,1-2,1.6C31.5,52.50672,30.7,50.90672,30.6,49.00672Zm8.4,3.5a1.88388,1.88388,0,0,0-.2-.8,2.09872,2.09872,0,0,0-2.8-1.2l-.6.3a2.35191,2.35191,0,0,1-.6-3.2c.8-1.3,2.8-.8,4.5.2a7.24005,7.24005,0,0,1,3.3,4,7.9447,7.9447,0,0,1-.6,2.2,2.3884,2.3884,0,0,0-3-1.5Zm.5-5.2c-1.3-.7-2.9-1.4-4.1-.9a1.62418,1.62418,0,0,1-.5-2.2,1.02416,1.02416,0,0,1,.6-.5,7.22721,7.22721,0,0,1,7.2,6.8A9.78695,9.78695,0,0,0,39.5,47.30672Zm-8.7-2c-.1.5-.3,1-.4,1.5-.4,1.7-.4,4.3,1,5.6a2.43169,2.43169,0,0,1-2.4,1.3h-.4a7.35362,7.35362,0,0,1,2.2-8.4Z"/><path d="M36.5,93.40673v-9.3h2.1v9c0,1,.4,1.3,1.4,1.3h.5v2.1l-.5.4h0C37.7,96.90673,36.5,95.90673,36.5,93.40673Z"/><path d="M40,94.80672l.5-.5h3c.8,0,1.1-.2,1.1-.6s-.2-.7-1.1-1.1l-2.8-1.5v-4.6l8.4-2.7v2.3l-7.5,2.3v.1l1.9,1.1c2.1,1.2,2.8,2.1,2.8,3.7,0,2.5-1,3.6-3.5,3.6H40Z"/><path d="M52.3,93.40673v-9.3h2.1v9c0,1,.4,1.3,1.4,1.3h.5v2.1l-.5.5h0C53.4,96.90673,52.3,95.90673,52.3,93.40673Z"/><path d="M55.8,94.80672l.5-.5h.5c1.7,0,2.2-.3,2.2-1.1a11.019,11.019,0,0,0-.2-1.8l-.3-1.6,1.9-.3.3,1.6a14.91881,14.91881,0,0,1,.2,2.1c0,2.5-1.2,3.7-4,3.7h-1Zm2.1-7.8c0-.8.4-1.2,1-1.2h.3c.6,0,1,.3,1,1.2s-.4,1.2-1,1.2h-.3A1.06313,1.06313,0,0,1,57.9,87.00672Z"/><path d="M61.9,98.50672H63c2.2,0,3.5-.6,4.1-1.6h-2a2.79879,2.79879,0,0,1-3-2.6v-.5c0-2.4,1.5-4.2,3.6-4.2s3.4,1.8,3.5,4.8H70v2.1l-.5.5h-.6c-.6,2.7-2.6,4.2-5.8,4.2H61.8l.1-2.7Zm3.3-4.2h2.2a2.077,2.077,0,0,0-1.9-2.1h-.1c-.9,0-1.6.5-1.6,1.3S64.3,94.30672,65.2,94.30672Z"/><path d="M69.5,94.80672l.5-.5h.4c1,0,1.4-.4,1.4-1.2v-9.1h2.1v9.1a1.06066,1.06066,0,0,0,1.2,1.2h.6v2.1l-.5.5c-1.9,0-2.8-.7-3.2-2.3h0c-.3,1.6-1,2.3-2.5,2.3Z"/><path d="M75.3,94.80672l.5-.5h.5c1,0,1.4-.4,1.4-1.2v-2.5h1.9v2.5a1.03328,1.03328,0,0,0,.9,1.2h1v2.1l-.5.5c-1.8,0-2.8-.7-3.1-2.3h-.1a2.387,2.387,0,0,1-2.6,2.3Zm.8,4.7c0-.8.4-1.2,1-1.2h.3c.6,0,1,.3,1,1.2s-.4,1.2-1,1.2h-.3C76.5,100.70672,76.1,100.30672,76.1,99.50672Zm2.7,0c0-.8.4-1.2,1-1.2h.3c.6,0,1,.3,1,1.2s-.4,1.2-1,1.2h-.3A1.06313,1.06313,0,0,1,78.8,99.50672Z"/><path d="M81,94.80672l.5-.5h0c1.1,0,1.6-.2,1.9-.9l.7-1.4,1.7.8-.6,1.3a3.28671,3.28671,0,0,0,1.7.4c1,0,1.4-.4,1.4-1.5v-1.1h1.9v1.2c0,1,.4,1.4.9,1.4h.2c.5,0,.8-.3.8-1.1a7.71914,7.71914,0,0,0-.2-1.5l-.2-.9,1.9-.3.1.9a11.019,11.019,0,0,1,.2,1.8c0,2.6-.9,3.8-2.8,3.8-1.6,0-2.4-.8-2.7-2.4h-.1c-.2,1.7-.9,2.4-1.9,2.4a4.88989,4.88989,0,0,1-2.3-.8l-.2-.3a3.57048,3.57048,0,0,1-3,.8Z"/><path d="M93.6,98.50672h.7c2.1,0,3-.8,3-2.8a11.019,11.019,0,0,0-.2-1.8l-.4-2.3,1.9-.3.3,1.6a12.41251,12.41251,0,0,1,.3,2.7c0,3.3-1.7,5.5-4.9,5.5h-.7Z"/><path d="M100.9,93.40673v-9.3h2v9c0,1,.4,1.3,1.4,1.3h.6v2.1l-.5.5h0C102,96.90673,100.9,95.90673,100.9,93.40673Z"/><path d="M104.3,94.80672l.5-.5h.5c1.7,0,2.1-.3,2.1-1.1a11.019,11.019,0,0,0-.2-1.8l-.3-1.6,1.9-.3.3,1.6a14.92028,14.92028,0,0,1,.2,2.1c0,2.5-1.1,3.7-4,3.7h-1Zm2,4.7c0-.8.4-1.2,1-1.2h.4c.6,0,1,.3,1,1.2s-.4,1.2-1,1.2h-.4c-.5,0-.9-.4-1-1.2Z"/><path d="M114.6,97.50672a9.46443,9.46443,0,0,1,.8-3.7l1.7.5a9.849,9.849,0,0,0-.8,2.8c0,1.4,1.3,2.3,3.5,2.3h1.4c2.4,0,3.9-.7,4-1.8l-2.6-.4c-1.9-.3-2.8-1.1-2.8-2.9a5.10074,5.10074,0,0,1,5-5.1c1.9,0,3,.9,3.8,3l.3.9c.4,1,.7,1.4,1.6,1.4s1.4-.4,1.4-1.5v-1.1h2v1.2c0,1,.4,1.4.9,1.4h.2c.5,0,.8-.3.8-1.1a7.71991,7.71991,0,0,0-.2-1.5l-.1-.9,1.9-.3.1.9a11.01792,11.01792,0,0,1,.2,1.8c0,2.6-.9,3.8-2.8,3.8-1.6,0-2.4-.8-2.7-2.4h-.1c-.2,1.6-.9,2.4-2.2,2.4s-2.2-.9-2.8-2.7l-.3-.9a2.34143,2.34143,0,0,0-2.2-1.7c-1.4,0-3,.9-3,1.8,0,.4.5.7,1.4.9l2.2.4c1.3.2,1.8,1,1.8,2.4,0,3.1-2.4,4.9-6.5,4.9C116.8,102.30672,114.6,100.50672,114.6,97.50672Z"/><path d="M143.1,93.10672a8.75585,8.75585,0,0,1,.7-3.2l1.7.5a4.20057,4.20057,0,0,0-.6,2.1c0,1.3,1,1.8,4,1.8h5.2v-.1a4.35678,4.35678,0,0,1-1.1-2.9,3.46771,3.46771,0,0,1,6.9-.7v.7a3.63131,3.63131,0,0,1-1.2,2.8v.1h1.9v2.1l-.5.5h-.2a5.41851,5.41851,0,0,1-3.5-1.1c-1.1.8-3.2,1.3-6.5,1.3C144.8,97.10672,143.1,96.10672,143.1,93.10672Zm15-1.3a1.57953,1.57953,0,0,0-1.6-1.6h-.3a1.56891,1.56891,0,0,0-1.7,1.4v.1c0,.9.6,1.6,1.8,2.3,1.2-.6,1.8-1.3,1.8-2.2Zm-3-6.8c0-.8.4-1.2,1-1.2h.4c.6,0,1,.3,1,1.2s-.4,1.2-1,1.2h-.4a1.06313,1.06313,0,0,1-1-1.2Z"/><path d="M160,94.80672l.5-.5h.5c1.7,0,2.1-.3,2.1-1.1a11.02012,11.02012,0,0,0-.2-1.8l-.3-1.6,1.9-.3.3,1.6a14.91732,14.91732,0,0,1,.2,2.1c0,2.5-1.1,3.7-4,3.7h-1Zm.7,4.7c0-.8.4-1.2,1-1.2h.4c.6,0,1,.3,1,1.2s-.4,1.2-1,1.2h-.4C161.1,100.70672,160.7,100.30672,160.7,99.50672Zm2.7,0c0-.8.4-1.2,1-1.2h.4c.6,0,1,.3,1,1.2s-.4,1.2-1,1.2h-.4A1.06313,1.06313,0,0,1,163.4,99.50672Z"/><path d="M166.6,84.00672h2.1v12.9h-2.1Z"/><path d="M33.2,118.70672h.7c2.1,0,3.1-.8,3.1-2.8a11.019,11.019,0,0,0-.2-1.8l-.4-2.3,1.9-.3.2,1.3,2.9-.5v-1.5h1.9v2.4c0,1,.4,1.3,1.4,1.3h.5v2.1l-.5.5h-.2c-1.8,0-2.7-.7-3-2.3l-2.6.4v.5c0,3.3-1.7,5.5-4.9,5.5h-.7Zm7.9-10.5c0-.8.4-1.2,1-1.2h.3c.6,0,1,.3,1,1.2s-.4,1.2-1,1.2h-.3C41.5,109.40673,41.1,109.00672,41.1,108.20672Z"/><path d="M44.7,115.00672l.5-.5h.5c1.7,0,2.1-.3,2.1-1.1a8.80677,8.80677,0,0,0-.2-1.7l-.3-1.6,1.9-.3.3,1.6a14.91881,14.91881,0,0,1,.2,2.1c0,2.5-1.2,3.7-4,3.7h-1Zm.8-8.1h.7l.1-.2v-3.4h1.2v1.7a2.66278,2.66278,0,0,1,1.2-.3,1.83133,1.83133,0,0,1,1.8,1.6v.2c0,1.2-.6,1.8-1.9,1.8H45.5Zm1.6,0h1.5c.7,0,1-.1,1-.4s-.3-.4-.7-.4h-.4c-.7,0-1,.1-1.2.6Z"/><path d="M49.2,118.70672h.7c2.1,0,3-.8,3-2.8a11.019,11.019,0,0,0-.2-1.8l-.4-2.3,1.9-.3.3,1.6a12.41248,12.41248,0,0,1,.3,2.7c0,3.3-1.7,5.5-4.9,5.5h-.7Z"/><path d="M56.5,113.50672v-9.3h2.1v9c0,1,.4,1.3,1.4,1.3h.5v2.1l-.5.5h0C57.6,117.10672,56.5,116.10672,56.5,113.50672Z"/><path d="M59.9,115.00672l.5-.5h.5c1.7,0,2.1-.3,2.1-1.1a8.80677,8.80677,0,0,0-.2-1.7l-.3-1.6,1.9-.3.3,1.6a14.91881,14.91881,0,0,1,.2,2.1c0,2.5-1.2,3.7-4,3.7h-1Zm.7,4.7c0-.8.4-1.2,1-1.2h.3c.6,0,1,.3,1,1.2s-.4,1.2-1,1.2h-.3c-.6,0-1-.4-1-1.2Zm1.3,2.5c0-.8.4-1.2,1-1.2h.3c.6,0,1,.3,1,1.2s-.4,1.2-1,1.2h-.3C62.4,123.40673,61.9,123.10672,61.9,122.20672Zm1.4-2.5c0-.8.4-1.2,1-1.2h.3c.6,0,1,.3,1,1.2s-.4,1.2-1,1.2h-.3a1.06313,1.06313,0,0,1-1-1.2Z"/><path d="M70.3,113.30672a8.75591,8.75591,0,0,1,.7-3.2l1.7.5a4.20049,4.20049,0,0,0-.6,2.1c0,1.3,1,1.8,4,1.8h4.3c.8,0,1.1-.2,1.1-.6s-.1-.5-.6-.8l-2-1.8v-4.6l8.4-2.7v2.3l-7.5,2.3v.1l4.4,4.1c1.5,1.4,2.3,1.7,3.2,1.7v2.1l-.5.5c-1.6,0-2.4-.5-4.2-2.7l-.5-.6-.1.1c0,.2.1.5.1.7a2.27285,2.27285,0,0,1-2.1,2.5H75.8C72.1,117.10672,70.3,115.90673,70.3,113.30672Zm8.5-8.6,8.4-2.6v.9l-8.4,2.7Z"/><path d="M86.9,115.00672l.5-.5h.5c1.7,0,2.1-.3,2.1-1.1a8.80677,8.80677,0,0,0-.2-1.7l-.3-1.6,1.9-.3.3,1.6a14.91881,14.91881,0,0,1,.2,2.1c0,2.5-1.2,3.7-4,3.7h-1Zm2.2-7.8c0-.8.4-1.2,1-1.2h.3c.6,0,1,.3,1,1.2s-.4,1.2-1,1.2h-.3c-.7,0-1.1-.4-1-1.2Z"/><path d="M92.9,114.50672v-1.2h2v1.1h2.4c.8,0,1.1-.2,1.1-.8a3.553,3.553,0,0,0-.2-1l-1.5-4.4,2.2-.8,1.8,5c.5,1.5,1,1.9,1.9,1.9h.5v2.1l-.5.5a3.46967,3.46967,0,0,1-3.7-2.4h-.1c-.3,1.7-.9,2.4-2.4,2.4h-1a2.39094,2.39094,0,0,1-2.5-2Zm2.2-9.3h.7l.1-.2v-3.4h1.2v1.7a2.3754,2.3754,0,0,1,1.2-.3,1.83132,1.83132,0,0,1,1.8,1.6v.2c0,1.2-.6,1.8-1.9,1.8H95.1Zm1.6-.1h0l1.5.1c.7,0,1-.1,1-.4s-.3-.4-.7-.4H98c-.7,0-1,.1-1.2.6Z"/><path d="M102.5,115.00672l.5-.5h.5c1.7,0,2.1-.3,2.1-1.1a8.80677,8.80677,0,0,0-.2-1.7l-.3-1.6,1.9-.3.3,1.6a14.91881,14.91881,0,0,1,.2,2.1c0,2.5-1.1,3.7-4,3.7h-1Zm.7,4.7c0-.8.4-1.2,1-1.2h.3c.6,0,1,.3,1,1.2s-.4,1.2-1,1.2h-.3C103.6,120.90673,103.2,120.50672,103.2,119.70672Zm2.7,0c0-.8.4-1.2,1-1.2h.4c.6,0,1,.3,1,1.2s-.4,1.2-1,1.2h-.4A1.06313,1.06313,0,0,1,105.9,119.70672Z"/><path d="M109.1,118.70672h.7c2.1,0,3.1-.8,3.1-2.8a11.019,11.019,0,0,0-.2-1.8l-.4-2.3,1.9-.3.3,1.6c.1.5.1,1,.2,1.4h1.6v2.1l-.5.5h-1.1a4.48835,4.48835,0,0,1-4.8,4.2h-.7Z"/><path d="M115.7,115.00672l.5-.5h.5c1.7,0,2.1-.3,2.1-1.1a8.80677,8.80677,0,0,0-.2-1.7l-.3-1.6,1.9-.3.3,1.6a14.91881,14.91881,0,0,1,.2,2.1c0,2.5-1.1,3.7-4,3.7h-1Zm.9-8.1h.7l.1-.2v-3.4h1.2v1.7a2.3755,2.3755,0,0,1,1.2-.3,1.83133,1.83133,0,0,1,1.8,1.6v.2c0,1.2-.6,1.8-1.9,1.8h-3.1Zm1.6,0h1.5c.7,0,1-.1,1-.4s-.3-.4-.7-.4h-.4c-.7,0-1,.1-1.2.6Z"/><path d="M126,116.50672a9.46443,9.46443,0,0,1,.8-3.7l1.7.5a9.8493,9.8493,0,0,0-.8,2.8,2.15932,2.15932,0,0,0,2.1,2.3h1.8c1.8,0,2.5-.8,2.5-3.2v-11.1h2.1v10.3h1.9v2.1l-.5.5H136q-.6,4.2-5.1,4.2C127.7,121.30672,126,119.50672,126,116.50672Z"/><path d="M137.6,115.00672l.5-.5h0c1.1,0,1.6-.2,1.9-.9l.7-1.4,1.7.8-.6,1.3a3.28681,3.28681,0,0,0,1.7.4c1,0,1.4-.4,1.4-1.5v-1.1h1.9v1.1c0,1,.3,1.4,1,1.4h.2c.6,0,1-.4,1-1.4v-1.8h1.9v1.8a1.03329,1.03329,0,0,0,.9,1.2h1v2.1l-.5.5c-1.8,0-2.6-.7-2.9-2.2h-.1c-.1,1.7-.9,2.4-2,2.4s-1.9-.8-2.1-2.4h-.1c-.2,1.7-.9,2.4-1.9,2.4a4.88989,4.88989,0,0,1-2.3-.8l-.3-.2a3.57045,3.57045,0,0,1-3,.8Zm5.7-5.4c0-.8.4-1.2,1-1.2h.4c.6,0,1,.3,1,1.2s-.4,1.2-1,1.2h-.4A1.06313,1.06313,0,0,1,143.3,109.60672Zm1.4-2.5c0-.8.4-1.2,1-1.2h.4c.6,0,1,.3,1,1.2s-.4,1.2-1,1.2h-.4a1.06184,1.06184,0,0,1-1-1.2Zm1.4,2.5c0-.8.4-1.2,1-1.2h.3c.6,0,1,.3,1,1.2s-.4,1.2-1,1.2h-.3C146.5,110.80672,146.1,110.40673,146.1,109.60672Z"/><path d="M152.3,115.00672l.5-.5h.5c1,0,1.4-.4,1.4-1.2v-2.5h1.9v2.5a1.06065,1.06065,0,0,0,1.2,1.2h.7v2.1l-.5.5c-1.9,0-2.8-.7-3.1-2.4h-.1c-.3,1.6-1.1,2.4-2.6,2.4Zm.8,4.7c0-.8.4-1.2,1-1.2h.3c.6,0,1,.3,1,1.2s-.4,1.2-1,1.2h-.3A1.06313,1.06313,0,0,1,153.1,119.70672Zm2.8,0c0-.8.4-1.2,1-1.2h.4c.6,0,1,.3,1,1.2s-.4,1.2-1,1.2H157c-.7,0-1.1-.4-1.1-1.2Z"/><path d="M158.1,115.00672l.5-.5H162c1.6,0,2.6-.3,2.6-1.5v-.8h-.1a2.291,2.291,0,0,1-2.3,1.4c-1.9,0-3-1-3-2.8,0-2.4,1.5-4.2,3.6-4.2,2.3,0,3.6,2,3.6,5.4,0,4.2-1.5,5.2-4.4,5.2h-3.9l0-2.2Zm6.5-4a1.98535,1.98535,0,0,0-2-1.9,1.45646,1.45646,0,0,0-1.6,1.3h0c0,.6.6.9,1.4.9h.4A5.663,5.663,0,0,0,164.6,111.00672Zm-3-7.1c0-.8.4-1.2,1-1.2h.3c.6,0,1,.3,1,1.2s-.4,1.2-1,1.2h-.4c-.5,0-.9-.3-.9-1.2Z"/><path d="M166.5,104.40673a1.29886,1.29886,0,0,1,1.7-1.4l1.1.2a2.76862,2.76862,0,0,0,.9.1c.5,0,.7-.2.9-.8l1,.5a1.86733,1.86733,0,0,1-1.9,1.8c-.4,0-.8-.1-1.2-.1l-1.2-.2v.5h-1.2Zm1.7,2h2.1v10.7h-2.1Z"/><rect class="cls-9" x="133.47778" width="71.82833" height="71.82833" rx="6.97605"/><rect class="cls-3" x="147.74346" y="45.46022" width="43.42876" height="3.45394"/><path class="cls-3" d="M159.59593,28.24051v-3.513H147.74346V41.12461h4.33106V35.29382h6.69883V31.77625h-6.69883V28.24051Z"/><path class="cls-3" d="M172.56184,32.62156a3.96786,3.96786,0,0,0,2.645-3.63573c0-2.64953-1.96329-4.24017-5.2718-4.24017h-8.38944V41.12461h8.48033c3.60846,0,5.76263-1.70879,5.76263-4.61282A4.02684,4.02684,0,0,0,172.56184,32.62156Zm-6.77609-4.56738h3.34942c1.218,0,1.8724.559,1.8724,1.59517s-.65443,1.59063-1.8724,1.59063h-3.34942Zm3.63573,9.74374h-3.63573V34.53941h3.67663c1.218,0,1.89967.58171,1.89967,1.68606,0,1.04073-.6817,1.57245-1.94511,1.57245Z"/><path class="cls-3" d="M186.24126,31.16727l-1.97238-.26359c-1.94511-.28177-2.51774-.759-2.51774-1.66335s.759-1.52246,2.44957-1.52246a2.37532,2.37532,0,0,1,2.69953,2.00419l4.122-.53172c-.60445-3.22671-2.92222-4.79461-6.70338-4.79461-4.23107,0-7.0124,2.11326-7.0124,5.34451,0,2.77679,1.68606,4.39469,5.13546,4.87188l2.06328.28177c2.186.31358,2.72679.809,2.72679,1.76332s-.809,1.52246-2.72679,1.52246a3.104,3.104,0,0,1-3.10855-2.186l-4.2947.64535c.69533,3.34032,3.2358,4.86278,7.27145,4.86278,4.58556,0,7.29418-1.97238,7.29418-5.3218C191.64941,33.23509,189.99515,31.71263,186.24126,31.16727Z"/></g></g></g></svg>