<svg xmlns="http://www.w3.org/2000/svg" viewBox="0 0 373.19418 71.82833"><defs><style>.cls-1{fill:#e6b70c;}.cls-2{fill:#fff;}.cls-3{fill:#ffdc04;}.cls-4{fill:#0555a2;}.cls-5{fill:#a21548;}.cls-6{fill:#e21937;}.cls-7{fill:#1d1e1c;}.cls-8{fill:none;stroke:#1d1e1c;stroke-miterlimit:10;stroke-width:1.0007px;}.cls-9{fill:#00be40;}</style></defs><g id="Layer_2" data-name="Layer 2"><g id="ARTE"><g id="UR_joint-logo-flag-black"><path class="cls-1" d="M214.14,1.20435l.36.24c3.96,2.61,7.08,3.07,11.89,3.07a16.53011,16.53011,0,0,0,5.26-.92l.46-.16,2.28,3.2-.24.31c-8.47,11.26-1.86,23.41,2.81,28.26l.43.45-.44.44c-.61.61-1.67,1.72-2.46,2.54l-.27.28v1c.39,7.51-1.55,13.68-5.78,18.33-4.5,4.94-11.6,7.92-20,8.38h-.32l-.24.22c-2.14,1.94-4.3,3.56-4.33,3.57l-.38.29-.37-.29c-.09-.06-2.23-1.65-4.34-3.57l-.24-.22h-.32c-8.39-.46-15.48-3.44-20-8.38-4.23-4.65-6.18-10.82-5.78-18.33v-.46h0v-.51l-.26-.28c-.75-.78-1.84-1.91-2.47-2.54l-.44-.44.44-.45c4.67-4.85,11.28-17,2.81-28.26l-.24-.31,2.28-3.2.46.16a16.53,16.53,0,0,0,5.26.92c4.8,0,8-.48,11.89-3.07l.36-.24.35.24a17.49,17.49,0,0,0,21.08,0l.35-.24"/><path class="cls-2" d="M177.46,28.99435c2.66-6.08,3.65-13.9-.82-21.54a19.33986,19.33986,0,0,0,3.48.32c4.56,0,8.16-.41,12.2-2.7a20.53,20.53,0,0,0,21.88,0c4,2.29,7.63,2.7,12.2,2.7a18.60037,18.60037,0,0,0,3.49-.34c-4.43,7.62-3.43,15.48-.81,21.56H177.46"/><path class="cls-3" d="M229.08,28.99435c-2.62-6.08-3.62-13.94.84-21.56a18.5987,18.5987,0,0,1-3.49.34c-4.57,0-8.16-.41-12.2-2.7a20.78993,20.78993,0,0,1-11,3.16h-.14v20.76Z"/><path class="cls-4" d="M223.4,58.40435c5.09-3.71,8.09-9.65,7.65-18.3a8.28207,8.28207,0,0,0-.13-1H223.4Z"/><path class="cls-5" d="M215.36,62.15435a24.29005,24.29005,0,0,0,8-3.73v-19.37h-8Z"/><path class="cls-5" d="M183.14,58.40435a24.44016,24.44016,0,0,0,8,3.73v-23.08h-8Z"/><path class="cls-4" d="M175.53,40.15435c-.44,8.65,2.56,14.59,7.65,18.3v-19.4h-7.52C175.62,39.58435,175.58,39.61435,175.53,40.15435Z"/><path class="cls-5" d="M203.31,43.35435a7.46006,7.46006,0,0,1,4,1.16v-5.46h-8v5.45A7.5601,7.5601,0,0,1,203.31,43.35435Z"/><path class="cls-5" d="M203.31,58.52435a7.55988,7.55988,0,0,1-4-1.18v6h8v-6A7.51994,7.51994,0,0,1,203.31,58.52435Z"/><path class="cls-4" d="M207.31,39.05435v5.43a7.56,7.56,0,0,1,0,12.86v6a38.38922,38.38922,0,0,0,8.05-1.21v-23.08Z"/><path class="cls-4" d="M195.73,50.94435a7.55,7.55,0,0,1,3.54-6.41v-5.48h-8.05v23.1a38.38987,38.38987,0,0,0,8.05,1.21v-6A7.54,7.54,0,0,1,195.73,50.94435Z"/><path class="cls-6" d="M179.31,14.27435a22.52,22.52,0,0,1,.21,7.68h7.81v7h7.68v-7h8.18v-7.68h-8.18v-7.8a24.99957,24.99957,0,0,1-2.66-1.42,19.65991,19.65991,0,0,1-5,2v7.19Z"/><path class="cls-6" d="M219.71,28.99435v-21.84a17.42981,17.42981,0,0,1-2.75-.83v22.63Z"/><path class="cls-6" d="M208.68,28.99435v-21.49a20.14989,20.14989,0,0,1-2.76.56v20.93Z"/><path class="cls-6" d="M225.23,28.99435v-21.23a27.35964,27.35964,0,0,1-2.77-.15v21.38Z"/><path class="cls-6" d="M214.2,28.99435v-23.94a22.54908,22.54908,0,0,1-2.74,1.47v22.47Z"/><path class="cls-7" d="M238.71,35.64435l-1.05-1.09c-4.49-4.66-10.84-16.31-2.74-27.08l.63-.85-3.09-4.29-1.1.38a15.50975,15.50975,0,0,1-5,.87c-4.62,0-7.66-.45-11.39-2.92l-.84-.61-.86.6a16.62,16.62,0,0,1-20,0l-.81-.6-.87.58c-3.73,2.47-6.77,2.92-11.39,2.92a15.50971,15.50971,0,0,1-5-.87l-1.09-.38-3.07,4.29.64.85c8.1,10.77,1.75,22.42-2.74,27.08l-1,1.09,1.07,1.08c.58.57,1.6,1.63,2.45,2.52a.33009.33009,0,0,1,0,.14,1.70872,1.70872,0,0,1,0,.32v.1c-.41,7.77,1.61,14.16,6,19,4.67,5.13,12,8.2,20.6,8.67a52.10252,52.10252,0,0,0,4.4,3.64l.93.68.92-.68c.09-.08,2.25-1.69,4.39-3.64,8.63-.47,15.93-3.54,20.6-8.67,4.41-4.85,6.43-11.24,6-19v-.56c.85-.89,1.87-1.95,2.45-2.52Zm-5.11,3c.08.78,0,.75.08,1.2.93,17.31-11.13,25.49-25.7,26.09-2.23,2.08-4.69,3.91-4.69,3.91s-2.46-1.83-4.69-3.91c-14.57-.6-26.63-8.78-25.71-26.09.06-.45,0-.42.09-1.2-.83-.88-2.22-2.33-3-3.06,5.23-5.42,11.33-17.83,2.86-29.08l1.79-2.37a16.70027,16.70027,0,0,0,5.47,1c4.85,0,8.16-.48,12.24-3.18a18.18,18.18,0,0,0,21.8,0c4.07,2.7,7.39,3.18,12.24,3.18a17.00017,17.00017,0,0,0,5.47-1l1.78,2.37c-8.46,11.25-2.36,23.66,2.87,29.08l-2.95,3.1Z"/><path class="cls-7" d="M175.46,39.05435a3.3302,3.3302,0,0,1-.07.54,1.75067,1.75067,0,0,1-.06.49c-.34,6.65,1.32,12,4.94,16,4.15,4.55,10.87,7.14,19.45,7.5h7.21c8.56-.36,15.29-2.95,19.44-7.5,3.61-4,5.28-9.36,4.94-16a2.14961,2.14961,0,0,0-.07-.48,4.05438,4.05438,0,0,0-.06-.54v-.21H175.46Zm.33,1.06a.94.94,0,0,1,.06-.45c.06-.11,0-.21,0-.36h54.84a.8984.8984,0,0,0,.05.36,1.3598,1.3598,0,0,0,.06.44c.33,6.53-1.29,11.8-4.83,15.68-4.06,4.45-10.67,7-19.11,7.34h-7.18c-8.44-.35-15.05-2.89-19.12-7.34-3.53-3.88-5.15-9.15-4.82-15.64Z"/><path class="cls-7" d="M177.28,28.90435l-.14.32h52.32l-.15-.32c-2.27-5.21-4-13.14.83-21.35l.25-.44-.5.1a18.05923,18.05923,0,0,1-3.44.33c-4.67,0-8.14-.44-12.09-2.67l-.12-.07-.11.08a20.32,20.32,0,0,1-21.64,0l-.12-.08-.11.07c-4,2.23-7.43,2.67-12.09,2.67a19.91976,19.91976,0,0,1-3.44-.32l-.49-.08.25.43C181.26,15.76435,179.55,23.69435,177.28,28.90435Zm26.18-20.44a20.86994,20.86994,0,0,0,10.81-3.12c4,2.23,7.5,2.66,12.2,2.66a18.7797,18.7797,0,0,0,3-.25c-4.49,8-2.94,15.79-.74,21H203.46Zm-26.3-.7a18.86948,18.86948,0,0,0,3,.24c4.69,0,8.21-.43,12.2-2.66a20.86,20.86,0,0,0,10.61,3.12v20.3H177.85c2.2-5.22,3.75-13-.71-21Z"/><polygon class="cls-7" points="196.69 32.004 196.69 30.484 191.52 30.484 191.52 37.654 193.07 37.654 193.07 34.694 195.19 34.694 195.19 33.174 193.07 33.174 193.07 32.004 196.69 32.004"/><path class="cls-7" d="M202.75,31.91435a1.28,1.28,0,0,1,1.22.72v.07l1.49-.65v-.07a2.77,2.77,0,0,0-2.64-1.6c-1.88,0-3.19,1.52-3.19,3.7s1.23,3.7,3.14,3.7a2.77,2.77,0,0,0,2.67-1.63v-.1l-1.31-.78v.06a1.39,1.39,0,0,1-1.31.86c-.95,0-1.59-.86-1.59-2.15S201.78,31.91435,202.75,31.91435Z"/><path class="cls-7" d="M214.77,32.41435c0-1.21-.86-1.94-2.3-1.94h-3.33v7.18h3.32a2.27,2.27,0,0,0,2.5448-1.957l.0052-.043a1.79052,1.79052,0,0,0,0-.4,1.69,1.69,0,0,0-.9-1.54A1.64,1.64,0,0,0,214.77,32.41435Zm-4.07-.49h1.76c.69,0,.78.32.78.6a.63.63,0,0,1-.67311.58373l-.0369-.00372h-1.78Zm1.76,4.24h-1.79v-1.66h1.79c.63,0,.92.26.92.83s-.27.82-.92.82Z"/><path class="cls-7" d="M203.26,58.64435a7.75,7.75,0,1,0-7.75-7.75h0a7.75,7.75,0,0,0,7.75,7.75Zm0-.46a7.25,7.25,0,0,1-4.06-1.24,11.52,11.52,0,0,0,4.85-1.22c1.22-.73,2.53-1.65,2.77-2.87a1.94,1.94,0,0,1,2.61.84,1.81994,1.81994,0,0,1,.21.72,7.26,7.26,0,0,1-6.38,3.74Zm-3.59-5.62a2.90988,2.90988,0,0,0,1.3.46,2.48,2.48,0,0,0,2.5-2,1.75,1.75,0,0,1,2.47.15,1.70991,1.70991,0,0,1,.32.53c.64,1.52-.71,2.63-2.44,3.66a11.53,11.53,0,0,1-5.19,1.17,7.47986,7.47986,0,0,1-1.92-2.48h.18A3.12,3.12,0,0,0,199.67,52.56435Zm-1.16-3.67a16.44968,16.44968,0,0,1,.7-4.05,7.31988,7.31988,0,0,1,3.41-1.2,2,2,0,0,0,.05774,2.82784l.00226.00216.14.12a2.37,2.37,0,0,0-.54.6,2.8,2.8,0,0,0,.76,3.81,2.07,2.07,0,0,1-2,1.59C199.33,52.38435,198.54,50.81435,198.51,48.89436Zm8.34,3.48a2.5,2.5,0,0,0-.19-.85,2.17,2.17,0,0,0-2.813-1.22677l-.017.00677a1.9996,1.9996,0,0,0-.57.33,2.36,2.36,0,0,1-.61-3.21c.84-1.34,2.77-.81,4.52.18a7.48,7.48,0,0,1,3.34,4,7.18,7.18,0,0,1-.57,2.23,2.36,2.36,0,0,0-2.97165-1.51936l-.02835.00936Zm.54-5.15c-1.28-.71-3-1.36-4.15-.86a1.6,1.6,0,0,1-.48259-2.21067l.01259-.01933a1.71015,1.71015,0,0,1,.55-.52,7.29,7.29,0,0,1,7.21,6.84A8.47,8.47,0,0,0,207.39,47.22435Zm-8.72-2c-.14.54-.27,1-.37,1.48-.38,1.72-.37,4.3,1,5.58a2.68,2.68,0,0,1-2.43,1.35,2.408,2.408,0,0,1-.38,0,7.28,7.28,0,0,1,2.16-8.38Z"/><line class="cls-8" x1="270.09999" y1="0.05435" x2="270.09999" y2="71.81435"/><path d="M3.62,27.16435v-9.34H5.71v9c0,1,.37,1.29,1.4,1.29h.52v2.09l-.52.52h0C4.75,30.71435,3.62,29.67435,3.62,27.16435Z"/><path d="M7.11,28.62435l.52-.52h3c.78,0,1-.16,1-.61s-.21-.64-1.06-1.12l-2.81-1.51v-4.6l8.37-2.65v2.3l-7.49,2.35v.11l1.93,1.08c2.13,1.16,2.89,2.11,2.89,3.67,0,2.46-1,3.59-3.49,3.59H7.11Z"/><path d="M19.46,27.16435v-9.34h2v9c0,1,.37,1.29,1.4,1.29h.6v2.09l-.52.52h0C20.55,30.71435,19.46,29.67435,19.46,27.16435Z"/><path d="M22.9,28.62435l.52-.52h.51c1.67,0,2.14-.28,2.14-1.06a10.25954,10.25954,0,0,0-.21-1.75l-.3-1.62,1.9-.31.27,1.62a14.99938,14.99938,0,0,1,.19,2.07c0,2.52-1.15,3.67-4,3.67h-1Zm2.14-7.82c0-.82.44-1.17,1-1.17h.42c.59,0,1,.35,1,1.17s-.44,1.17-1,1.17h-.35C25.46,21.97435,25.04,21.62435,25.04,20.80435Z"/><path d="M28.96,32.28435h1.12c2.19,0,3.52-.61,4.08-1.57h-2a2.81,2.81,0,0,1-3-3.13c0-2.43,1.53-4.24,3.57-4.24s3.4,1.78,3.52,4.76h.89v2.09l-.52.52h-.6c-.64,2.67-2.59,4.19-5.75,4.19H28.96Zm3.35-4.18h2.15v-.05a2,2,0,0,0-1.908-2.088q-.046-.00207-.092-.002a1.43,1.43,0,0,0-1.59668,1.24114l-.00332.02886C30.88,27.86435,31.46,28.10435,32.31,28.10435Z"/><path d="M36.6,28.62435l.52-.52h.44c1,0,1.39-.38,1.39-1.22v-9.06h2.09v9.06a1.06,1.06,0,0,0,1.22,1.22h.61v2.09l-.52.52c-1.9,0-2.84-.73-3.17-2.35h-.11c-.29,1.62-1,2.35-2.47,2.35Z"/><path d="M42.35,28.62435l.52-.52h.52c1,0,1.4-.38,1.4-1.22v-2.49h1.92v2.49c0,.84.38,1.22,1.22,1.22h.69v2.09l-.52.52c-1.85,0-2.77-.73-3.08-2.35h-.11c-.31,1.62-1.06,2.35-2.56,2.35Zm.82,4.69c0-.82.43-1.17,1-1.17h.35c.59,0,1,.35,1,1.17s-.43,1.17-1,1.17h-.35C43.6,34.48435,43.17,34.13435,43.17,33.31435Zm2.75,0c0-.82.44-1.17,1-1.17h.35c.59,0,1,.35,1,1.17s-.44,1.17-1,1.17h-.35C46.36,34.48435,45.92,34.13435,45.92,33.31435Z"/><path d="M48.1,28.62435l.52-.52h0c1.1,0,1.59-.23,1.9-.91l.68-1.41,1.73.84-.61,1.27a4.15986,4.15986,0,0,0,1.74.45c1,0,1.41-.38,1.41-1.46v-1.1h1.99v1.1c0,1,.36,1.39.94,1.39h.17c.49,0,.82-.34.82-1.13a10.57989,10.57989,0,0,0-.19-1.53l-.16-.89,1.9-.31.14.88a11.28978,11.28978,0,0,1,.16,1.85c0,2.6-.87,3.78-2.75,3.78-1.64,0-2.43-.78-2.72-2.42h-.11c-.17,1.66-.85,2.42-1.88,2.42a4.4,4.4,0,0,1-2.32-.87l-.37-.21c-.71.7-1.57.83-3,.83Z"/><path d="M60.67,32.28435h.69c2.1,0,3-.8,3-2.79a11.63989,11.63989,0,0,0-.19-1.79l-.36-2.32,1.95-.33.26,1.62a17.79136,17.79136,0,0,1,.29,2.7c0,3.34-1.7,5.49-4.93,5.49h-.71Z"/><path d="M67.97,27.16435v-9.34h2.09v9c0,1,.37,1.29,1.4,1.29h.52v2.09l-.52.52h0C69.1,30.71435,67.97,29.67435,67.97,27.16435Z"/><path d="M71.46,28.62435l.52-.52h.5c1.68,0,2.15-.28,2.15-1.06a10.25954,10.25954,0,0,0-.21-1.75l-.3-1.62,1.9-.31.26,1.62a13.65968,13.65968,0,0,1,.18,2.07c0,2.52-1.15,3.67-4,3.67h-1Zm2,4.69c0-.82.43-1.17,1-1.17h.34c.6,0,1,.35,1,1.17s-.43,1.17-1,1.17h-.34C73.91,34.48435,73.46,34.13435,73.46,33.31435Z"/><path d="M81.72,31.27435a10.60008,10.60008,0,0,1,.82-3.67l1.67.48a7.85015,7.85015,0,0,0-.75,2.84c0,1.45,1.31,2.3,3.51,2.3h1.39c2.37,0,3.85-.66,4-1.81l-2.65-.43c-1.9-.32-2.77-1.08-2.77-2.86a5.1,5.1,0,0,1,5-5.07c1.9,0,3,.92,3.79,3l.33.89c.35,1,.7,1.37,1.58,1.37s1.42-.38,1.42-1.46v-1.1h1.91v1.1c0,1,.37,1.39.94,1.39h.18c.49,0,.82-.34.82-1.13a10.57971,10.57971,0,0,0-.19-1.53l-.16-.89,1.9-.31.14.88a12.51,12.51,0,0,1,.16,1.85c0,2.6-.88,3.78-2.76,3.78-1.64,0-2.42-.78-2.72-2.42h-.1c-.19,1.66-.89,2.42-2.23,2.42s-2.18-.92-2.83-2.66l-.33-.89a2.33,2.33,0,0,0-2.18-1.69c-1.44,0-2.94.9-2.94,1.83,0,.45.45.73,1.44.9l2.17.37a2.07,2.07,0,0,1,1.84562,2.27234q-.00612.059-.01562.11766c0,3.12-2.43,4.88-6.51,4.88C83.94,36.05435,81.72,34.27435,81.72,31.27435Z"/><path d="M110.15,26.88435a9.00024,9.00024,0,0,1,.7-3.19l1.67.49a5.3498,5.3498,0,0,0-.63,2.13c0,1.34,1,1.79,4,1.79h5.19v-.09a4,4,0,0,1-1.17-2.84,3.45,3.45,0,1,1,6.87,0,4,4,0,0,1-1.1,2.88v.09h1.94v2.09l-.53.52h-.17a5.47,5.47,0,0,1-3.46-1.15c-1.06.84-3.22,1.32-6.47,1.32C111.91,30.92435,110.15,29.88435,110.15,26.88435Zm15.06-1.31a1.57,1.57,0,0,0-1.6147-1.524q-.03769.00109-.0753.004h-.21a1.57,1.57,0,0,0-1.68541,1.4454q-.00478.06219-.00459.1246c0,.93.62,1.64,1.79,2.3C124.58,27.21435,125.21,26.50435,125.21,25.57435Zm-3-6.78c0-.82.43-1.16,1-1.16h.34c.6,0,1,.34,1,1.16s-.43,1.17-1,1.17h-.34c-.55,0-.98-.35-.98-1.17Z"/><path d="M127.13,28.62435l.52-.52h.5c1.68,0,2.15-.28,2.15-1.06a10.25956,10.25956,0,0,0-.21-1.75l-.3-1.62,1.9-.31.26,1.62a13.61074,13.61074,0,0,1,.19,2.06c0,2.52-1.15,3.67-4,3.67h-1Zm.64,4.69c0-.82.44-1.17,1-1.17h.35c.59,0,1,.35,1,1.17s-.44,1.17-1,1.17h-.35C128.21,34.48435,127.77,34.13435,127.77,33.31435Zm2.75,0c0-.82.44-1.17,1-1.17h.35c.59,0,1,.35,1,1.17s-.44,1.17-1,1.17h-.35C130.96,34.48435,130.52,34.13435,130.52,33.31435Z"/><path d="M133.71,17.82435h2.09v12.89h-2.09Z"/><path d="M.02,52.46435h.7c2.09,0,3.05-.81,3.05-2.79a12.99859,12.99859,0,0,0-.19-1.8l-.37-2.32,1.9-.29.19,1.27,2.88-.48v-1.5H10.1v2.42c0,1,.36,1.29,1.39,1.29h.52v2.09l-.52.53H11.3c-1.76,0-2.72-.68-3-2.27l-2.65.44a4.99969,4.99969,0,0,1,0,.52c0,3.35-1.71,5.49-4.93,5.49H0Zm7.9-10.41c0-.82.43-1.17,1-1.17h.34c.6,0,1,.35,1,1.17s-.43,1.17-1,1.17H8.92A1.04086,1.04086,0,0,1,7.92,42.05435Z"/><path d="M11.46,48.80435l.52-.53h.51c1.67,0,2.14-.28,2.14-1.06a10.07066,10.07066,0,0,0-.17-1.74l-.3-1.62,1.9-.32.26,1.62a14.99934,14.99934,0,0,1,.19,2.06c0,2.53-1.15,3.68-4,3.68H11.46Zm.85-8.06h.68l.13-.19v-3.4h1.22v1.73a2,2,0,0,1,1.18-.33,1.68,1.68,0,0,1,1.76,1.83c0,1.22-.59,1.76-1.88,1.76H12.34Zm1.61,0h1.54c.66,0,1-.12,1-.36s-.28-.42-.74-.42h-.4c-.73,0-1,.14-1.23.57Z"/><path d="M15.99,52.46435h.69c2.1,0,3.05-.81,3.05-2.79a11.63027,11.63027,0,0,0-.19-1.8l-.36-2.32,1.9-.29.26,1.62a17.91985,17.91985,0,0,1,.29,2.7c0,3.35-1.7,5.49-4.93,5.49h-.71Z"/><path d="M23.29,47.33435v-9.34h2.09v9c0,1,.37,1.29,1.4,1.29h.52v2.09l-.52.53h0C24.46,50.89435,23.29,49.84435,23.29,47.33435Z"/><path d="M26.78,48.80435l.52-.53h.5c1.68,0,2.15-.28,2.15-1.06a10.06984,10.06984,0,0,0-.21-1.74l-.28-1.62,1.9-.32.26,1.62a13.65989,13.65989,0,0,1,.2,2.06c0,2.53-1.15,3.68-4,3.68h-1Zm.68,4.68c0-.82.44-1.16,1-1.16h.35c.59,0,1,.34,1,1.16s-.44,1.17-1,1.17h-.35C27.86,54.65435,27.46,54.30435,27.46,53.48435Zm1.34,2.57c0-.82.43-1.17,1-1.17h.35c.59,0,1,.35,1,1.17s-.43,1.17-1,1.17H29.8C29.23,57.20435,28.8,56.85435,28.8,56.05435Zm1.38-2.55c0-.82.43-1.16,1-1.16h.35c.59,0,1,.34,1,1.16s-.44,1.17-1,1.17h-.35c-.57-.02-1-.37-1-1.19Z"/><path d="M37.13,47.05435a8.99981,8.99981,0,0,1,.7-3.19l1.63.49a5.3899,5.3899,0,0,0-.63,2.13c0,1.34,1,1.79,4,1.79h4.25c.84,0,1.1-.15,1.1-.59s-.14-.51-.54-.84l-2-1.81v-4.6l8.36-2.65v2.27l-7.44,2.38v.11l4.44,4.06c1.5,1.38,2.27,1.67,3.23,1.67v2.09l-.53.53c-1.58,0-2.42-.54-4.16-2.67l-.47-.57h-.09a3.37063,3.37063,0,0,1,.07.69,2.29,2.29,0,0,1-2.07025,2.49043q-.09462.00873-.18975.00957H42.72C38.89,50.89435,37.13,49.68435,37.13,47.05435Zm8.56-8.54,8.36-2.65v.87l-8.36,2.65Z"/><path d="M53.7,48.80435l.53-.53h.5c1.68,0,2.15-.28,2.15-1.06a11.2199,11.2199,0,0,0-.21-1.74l-.3-1.62,1.9-.32.26,1.62a13.60945,13.60945,0,0,1,.19,2.06c0,2.53-1.15,3.68-4,3.68h-1Zm2.15-7.83c0-.82.43-1.17,1-1.17h.35c.59,0,1,.35,1,1.17s-.43,1.17-1,1.17h-.35C56.28,42.14435,55.85,41.79435,55.85,40.97435Z"/><path d="M59.77,48.32435v-1.16h2v1.11h2.39c.77,0,1.12-.21,1.12-.75a3.37986,3.37986,0,0,0-.25-1l-1.57-4.38,2.23-.79,1.76,5c.52,1.52,1,1.88,1.87,1.88h.52v2.09l-.52.53a3.33,3.33,0,0,1-3.66-2.39h-.07c-.3,1.69-.89,2.36-2.39,2.36h-1a2.24,2.24,0,0,1-2.43-2.5Zm2.18-9.37h.68l.12-.19v-3.4h1.22v1.69a2.00007,2.00007,0,0,1,1.19-.33,1.69,1.69,0,0,1,1.76,1.83c0,1.22-.6,1.76-1.89,1.76H61.95Zm1.6,0h1.46c.67,0,1-.12,1-.37s-.28-.42-.73-.42h-.4c-.74,0-1,.14-1.24.58Z"/><path d="M69.36,48.80435l.52-.53h.5c1.68,0,2.15-.28,2.15-1.06a10.06886,10.06886,0,0,0-.21-1.74l-.3-1.62,1.9-.32.26,1.62a13.65872,13.65872,0,0,1,.2,2.06c0,2.53-1.15,3.68-4,3.68h-1Zm.64,4.68c0-.82.44-1.16,1-1.16h.35c.59,0,1,.34,1,1.16s-.44,1.17-1,1.17H71C70.46,54.65435,70,54.30435,70,53.48435Zm2.75,0c0-.82.44-1.16,1-1.16h.35c.59,0,1,.34,1,1.16s-.44,1.17-1,1.17h-.35C73.19,54.65435,72.75,54.30435,72.75,53.48435Z"/><path d="M75.94,52.46435h.7c2.09,0,3-.81,3-2.79a13,13,0,0,0-.19-1.8l-.37-2.32,1.9-.29.27,1.62c.08.5.13,1,.19,1.39h1.6v2.09l-.52.53H81.46a4.54,4.54,0,0,1-4.8,4.16h-.72Z"/><path d="M82.57,48.80435l.52-.53h.51c1.67,0,2.14-.28,2.14-1.06a10.06886,10.06886,0,0,0-.21-1.74l-.3-1.62,1.9-.32.27,1.62a15.00247,15.00247,0,0,1,.19,2.06c0,2.53-1.15,3.68-4,3.68h-1Zm.85-8.06h.68l.12-.19v-3.4h1.24v1.73a2,2,0,0,1,1.19-.33,1.68,1.68,0,0,1,1.76,1.83c0,1.22-.59,1.76-1.88,1.76H83.46Zm1.6,0h1.47c.66,0,1-.12,1-.36s-.28-.42-.73-.42h-.4c-.73,0-1,.14-1.24.57Z"/><path d="M92.83,50.29435a10.65017,10.65017,0,0,1,.82-3.67l1.68.48a7.65,7.65,0,0,0-.75,2.85,2.19,2.19,0,0,0,2.45,2.3h1.43c1.81,0,2.46-.82,2.46-3.16v-11.1h2.09v10.28h1.93v2.09l-.52.53h-1.55c-.46,2.84-2.09,4.18-5.11,4.18C94.52,55.05435,92.83,53.31435,92.83,50.29435Z"/><path d="M104.39,48.80435l.52-.53h0c1.1,0,1.57-.22,1.9-.9l.68-1.42,1.72.84-.59,1.26a4.52,4.52,0,0,0,1.75.44c1,0,1.41-.39,1.41-1.47v-1.07h1.92v1.1c0,1,.24,1.4,1,1.4h.18c.61,0,1-.44,1-1.4v-1.79h1.92v1.79c0,.84.38,1.22,1.22,1.22h.69v2.09l-.52.53c-1.76,0-2.65-.7-2.89-2.22h-.11c-.14,1.66-.87,2.43-2,2.43s-1.88-.77-2.12-2.43h-.11c-.17,1.66-.85,2.43-1.88,2.43a4.33993,4.33993,0,0,1-2.3-.84l-.35-.21a3.89,3.89,0,0,1-3,.84Zm5.77-5.41c0-.82.43-1.17,1-1.17h.35c.59,0,1,.35,1,1.17s-.43,1.17-1,1.17h-.35C110.59,44.56435,110.16,44.21435,110.16,43.39435Zm1.38-2.54c0-.82.43-1.17,1-1.17h.35c.59,0,1,.35,1,1.17s-.43,1.2-.98,1.2h-.35C111.97,42.05435,111.54,41.67435,111.54,40.85435Zm1.37,2.54c0-.82.44-1.17,1-1.17h.35c.59,0,1,.35,1,1.17s-.44,1.17-1,1.17h-.35C113.35,44.56435,112.91,44.21435,112.91,43.39435Z"/><path d="M119.15,48.80435l.52-.53h.53c1,0,1.39-.38,1.39-1.22v-2.49h1.92v2.49c0,.84.38,1.22,1.22,1.22h.7v2.09l-.53.53c-1.84,0-2.77-.74-3.08-2.36h-.11c-.31,1.62-1.06,2.36-2.56,2.36Zm.82,4.68c0-.82.44-1.16,1-1.16h.35c.59,0,1,.34,1,1.16s-.44,1.17-1,1.17h-.35c-.51,0-1-.35-1-1.17Zm2.75,0c0-.82.44-1.16,1-1.16h.35c.59,0,1,.34,1,1.16s-.44,1.17-1,1.17h-.35c-.56,0-1-.35-1-1.17Z"/><path d="M124.9,48.80435l.53-.53h3.38c1.6,0,2.65-.31,2.65-1.53v-.8h-.11a2.18,2.18,0,0,1-2.32,1.37c-1.88,0-3-1-3-2.78,0-2.43,1.53-4.24,3.57-4.24,2.26,0,3.61,2,3.61,5.4,0,4.22-1.47,5.2-4.41,5.2h-3.91Zm6.52-4a2,2,0,0,0-2-1.89,1.43,1.43,0,0,0-1.59581,1.24225l-.0042.03775c0,.62.56.87,1.43.87h.36a4.31987,4.31987,0,0,0,1.85-.27Zm-3-7.06c0-.82.43-1.17,1-1.17h.35c.6,0,1,.35,1,1.17s-.43,1.17-1,1.17h-.31c-.62-.01-1-.36-1-1.18Z"/><path d="M133.3,38.16435a1.24871,1.24871,0,0,1,1.66-1.36l1.06.21a4.33932,4.33932,0,0,0,.91.13c.54,0,.73-.18.92-.75l1,.5c-.24,1.2-.85,1.76-1.93,1.76a5.68967,5.68967,0,0,1-1.19-.14l-1.22-.22v.5h-1.22Zm1.75,2h2.09v10.73h-2.09Z"/><rect class="cls-9" x="301.36585" width="71.82833" height="71.82833" rx="6.97605"/><rect class="cls-2" x="315.63151" y="45.46041" width="43.42876" height="3.45394"/><path class="cls-2" d="M327.484,28.2407v-3.513H315.63151V41.1248h4.33106V35.294h6.69883V31.77644h-6.69883V28.2407Z"/><path class="cls-2" d="M340.44989,32.62175a3.96785,3.96785,0,0,0,2.645-3.63573c0-2.64954-1.96329-4.24017-5.2718-4.24017h-8.38944v16.379H337.914c3.60846,0,5.76263-1.70879,5.76263-4.61283A4.02683,4.02683,0,0,0,340.44989,32.62175Zm-6.77608-4.56739h3.34941c1.218,0,1.8724.559,1.8724,1.59518s-.65443,1.59063-1.8724,1.59063h-3.34941Zm3.63572,9.74375h-3.63572V34.53959h3.67662c1.218,0,1.89967.58172,1.89967,1.68607,0,1.04073-.68169,1.57245-1.94511,1.57245Z"/><path class="cls-2" d="M354.12932,31.16746l-1.97238-.26359c-1.94512-.28177-2.51775-.759-2.51775-1.66335s.759-1.52246,2.44957-1.52246a2.37532,2.37532,0,0,1,2.69953,2.00419l4.122-.53172c-.60444-3.22671-2.92222-4.79462-6.70337-4.79462-4.23108,0-7.01241,2.11327-7.01241,5.34452,0,2.77679,1.68607,4.39469,5.13546,4.87188l2.06328.28177c2.186.31358,2.72679.80894,2.72679,1.76332s-.80894,1.52246-2.72679,1.52246a3.104,3.104,0,0,1-3.10855-2.186l-4.2947.64534c.69533,3.34033,3.2358,4.86279,7.27145,4.86279,4.58556,0,7.29418-1.97238,7.29418-5.3218C359.53746,33.23527,357.8832,31.71281,354.12932,31.16746Z"/></g></g></g></svg>