<svg id="Isolation_Mode" data-name="Isolation Mode" xmlns="http://www.w3.org/2000/svg" xmlns:xlink="http://www.w3.org/1999/xlink" viewBox="0 0 576.14 576.09"><defs><style>.cls-1{fill:url(#linear-gradient);}.cls-2{fill:url(#linear-gradient-2);}.cls-3{fill:url(#linear-gradient-3);}.cls-4{fill:url(#linear-gradient-4);}</style><linearGradient id="linear-gradient" x1="663.92" y1="16.93" x2="1204.11" y2="557.12" gradientTransform="matrix(1, 0, 0, -1, -0.42, 584.31)" gradientUnits="userSpaceOnUse"><stop offset="0" stop-color="#e09e26"/><stop offset="0.54" stop-color="#eee949"/><stop offset="1" stop-color="#e09e26"/></linearGradient><linearGradient id="linear-gradient-2" x1="663.93" y1="16.92" x2="1204.12" y2="557.11" xlink:href="#linear-gradient"/><linearGradient id="linear-gradient-3" x1="767.34" y1="-93.92" x2="1307.52" y2="446.27" gradientTransform="matrix(1, 0, 0, -1, -621.55, 577.31)" xlink:href="#linear-gradient"/><linearGradient id="linear-gradient-4" x1="767.75" y1="-86.9" x2="1307.94" y2="453.29" xlink:href="#linear-gradient"/></defs><title>verify</title><path class="cls-1" d="M889.4,530.18a262.93,262.93,0,0,0,44.28-4c33.72,33.74,83.32,51.67,136.67,41.56C1130,556.46,1178,508.4,1189.29,448.81c10.1-53.33-7.79-102.93-41.56-136.68a262.93,262.93,0,0,0,4-44.28c0-148.28-123-267.82-272.56-262.15-135,5.12-246.79,116.87-251.92,251.92C621.58,407.17,741.12,530.18,889.4,530.18Zm0-20.18a240.69,240.69,0,0,1-143.32-47.4c11.87-5.65,25-11.63,39.41-17.82,1.8-.73,20.87-8.78,20.87-8.78,8.62-4.3,45.57-24.42,50.53-54.91,1.59-9.89.52-24.7-13.74-39.13-5.33-5.39-12.82-18.16-18.25-48.51L822,277.24,811.32,277c-2.26-3.57-5.65-10.67-8.21-21.07a94.83,94.83,0,0,1-2.4-14l12.39,3.33-3.63-29.71c-2.22-18.2-.73-26.82,0-28.59,4.09-5.73,7.85-10.94,11.18-15.6,8.25-11.48,14.22-19.8,23.59-35.52,7.52-12.67,39.89-21.85,71.54-26.35a33.65,33.65,0,0,0,.64,12c1.52,6.22,6.32,17.46,21.78,23,8.41,3,11.2,7.71,18,20.86a187.54,187.54,0,0,0,13,22.38h0c-.14,0,2.36,6.95.41,28.34l-2.53,27.12L978,240.91a93.93,93.93,0,0,1-2.5,15c-2.58,10.4-5.93,17.48-8.19,21l-10.7.28-2.89,16.21c-.16.85-.32,1.53-.46,2.36a150.89,150.89,0,0,0-36.21,210.3c.45.64.91,1.28,1.37,1.91a236.57,236.57,0,0,1-29,2Zm279.18-120.83c21.21,95.7-62.16,179.07-157.86,157.86-48.22-10.69-87.13-49.6-97.82-97.82-21.21-95.7,62.16-179.07,157.86-157.86C1119,302,1157.9,341,1168.58,389.17Zm-306.7-362c145.8-16.19,269.7,98,269.7,240.63a239.67,239.67,0,0,1-1.87,29.08,150.08,150.08,0,0,0-139.83-20.14,110.91,110.91,0,0,0,5.26-16c5.43-21.9,4-41.13-3.25-42.93a4.79,4.79,0,0,0-2.13.1c1.63-17.67,1.13-34.44-3.9-41.71-15.66-22.4-17-42.15-40.72-50.69-14.39-5.21-9.53-18.59-3.49-28.3a6.61,6.61,0,0,0-6.07-10.17C906.81,89.4,843.5,97.6,827,125.47c-12.69,21.29-18.85,28.31-34.47,50.73-5,7.29-5.18,24.08-3,41.75a5.1,5.1,0,0,0-2.63-.12c-7.24,1.8-8.69,21-3.29,42.93C788.69,281.4,798,296.82,805.08,297c4.36,24.32,11.5,46.76,23.75,59.15,30.24,30.63-30.25,61.27-30.25,61.27s-18.91,8-21,8.83c-13.4,5.77-31.4,13.77-48.83,22.3C673,398.89,640,324.13,648.58,242,660.29,130.38,750.36,39.57,861.88,27.21Z" transform="translate(-621.55 0.02)"/><path class="cls-2" d="M1040.63,576.07a156.6,156.6,0,0,1-108.81-44,263.08,263.08,0,0,1-149.06-18.44,267.63,267.63,0,0,1-161-256.19c2.53-66.73,30.53-130.08,78.82-178.42S812.27,2.73,879,.2C1026.67-5.67,1151.16,109.3,1157,257c.14,3.61.21,7.23.21,10.84a263.38,263.38,0,0,1-3.63,42.42,157,157,0,0,1,41.09,139.56c-11.74,62-61.31,111.57-123.33,123.32A166,166,0,0,1,1040.63,576.07Zm-107-55.4a5.54,5.54,0,0,1,3.9,1.61c34.71,34.74,82.73,49.33,131.76,40,57.61-10.91,103.65-56.95,114.56-114.56,9.28-49-5.31-97.05-40-131.76a5.55,5.55,0,0,1-1.54-4.82,254,254,0,0,0-74.78-228.4C1016.78,33.94,950,8.51,879.39,11.19,746.14,16.25,637.81,124.58,632.75,257.83c-2.68,70.58,22.75,137.39,71.6,188.13a254,254,0,0,0,228.4,74.78,5.62,5.62,0,0,1,.92-.07Zm106.76,35.13a143.25,143.25,0,0,1-30.89-3.4,135.66,135.66,0,0,1-102-102c-10.37-46.79,3.3-94.58,36.57-127.85s81.06-46.94,127.85-36.57a135.66,135.66,0,0,1,102,102h0c10.37,46.79-3.3,94.58-36.57,127.85a136.55,136.55,0,0,1-96.92,40Zm.67-262.22a125.63,125.63,0,0,0-89.21,36.75c-30.56,30.59-43.12,74.59-33.57,117.69,10.16,45.85,47.8,83.48,93.65,93.64a131.07,131.07,0,0,0,28.47,3.14A125.61,125.61,0,0,0,1129.58,508c30.6-30.59,43.16-74.59,33.61-117.69h0c-10.16-45.85-47.79-83.48-93.64-93.64a131.48,131.48,0,0,0-28.45-3.11ZM889.4,515.5A245.4,245.4,0,0,1,742.82,467a5.51,5.51,0,0,1,.9-9.4c12.77-6.08,26.1-12.11,39.6-17.9h.11c1.38-.56,14-5.88,20.63-8.68,7.48-3.75,42.85-22.86,47.4-50.79,1.39-8.63.4-21.61-12.22-34.38-8.55-8.65-15.2-25.94-19.75-51.41l-2.13-11.8-6.18-.16a5.51,5.51,0,0,1-4.5-2.56c-1.63-2.57-5.77-9.94-8.91-22.69a99.67,99.67,0,0,1-2.54-14.86,5.49,5.49,0,0,1,6.91-5.79l4.51,1.21L804,216.2c-2.13-17.41-1.11-27.79.41-31.4a6.1,6.1,0,0,1,.59-1.06c2-2.87,4-5.6,5.88-8.21s3.64-5.06,5.3-7.39A419.85,419.85,0,0,0,839.58,133c10.69-18,56.35-26.27,75.49-29a5.5,5.5,0,0,1,6.22,4.67,5.2,5.2,0,0,1,0,1.42,28.28,28.28,0,0,0,.53,10c1.53,6.27,5.94,14.7,18.3,19.17,10.44,3.73,14,9.9,21,23.51a180.83,180.83,0,0,0,12.66,21.76,5.57,5.57,0,0,1,.93,2.39c1.83,8.38,1.25,20.71.43,29.59l-1.83,19.74,3.65-.75a5.5,5.5,0,0,1,6.49,4.29,5.61,5.61,0,0,1,.09,1.53,99.06,99.06,0,0,1-2.64,15.86c-3.24,12.82-7.34,20.14-8.94,22.68a5.51,5.51,0,0,1-4.5,2.56l-6.21.16-2.1,11.79c-.08.44-.16.79-.23,1.13s-.16.78-.23,1.2a5.53,5.53,0,0,1-2.23,3.55A146.22,146.22,0,0,0,894.9,419.19a144.63,144.63,0,0,0,28,85.62,5.49,5.49,0,0,1-1.22,7.68,5.4,5.4,0,0,1-2.55,1A242.3,242.3,0,0,1,889.4,515.5ZM757,463.56A234.06,234.06,0,0,0,889.4,504.5c6,0,12.39-.31,19.29-.94a155.16,155.16,0,0,1-24.79-84.37A157.23,157.23,0,0,1,948.31,292.6v-.2l2.88-16.14a5.48,5.48,0,0,1,5.27-4.53l7.59-.21a78,78,0,0,0,6.1-16.95c.56-2.29,1-4.53,1.42-6.72l-3.39.7a5.49,5.49,0,0,1-6.49-4.26,5.64,5.64,0,0,1-.09-1.64l2.52-27.12c1.33-14.54.57-22.14-.1-25.64a196.54,196.54,0,0,1-12.75-22c-6.69-13-8.72-16-14.94-18.21-17.86-6.46-23.5-19.64-25.27-26.93a37.73,37.73,0,0,1-1-6.85c-31.8,5.17-56,14.09-61.11,22.73a426,426,0,0,1-23.86,35.92l-5.3,7.4-5.36,7.47c-.56,2.38-1.37,10.49.46,25.45l3.63,29.7a5.5,5.5,0,0,1-4.77,6.15,5.42,5.42,0,0,1-2.12-.15l-4.36-1.17c.32,1.7.7,3.46,1.14,5.25a77,77,0,0,0,6.17,16.89l7.55.21a5.48,5.48,0,0,1,5.27,4.52l2.93,16.2c5.45,30.48,12.83,41.67,16.74,45.62,15.87,16.06,17.06,32.72,15.26,43.88-5.31,32.58-42.3,53.36-53.51,58.95l-.31.15c-.78.32-18.78,7.93-20.89,8.78C777.23,454.31,767,458.91,757,463.56ZM728.75,454a5.49,5.49,0,0,1-3.66-1.39,250.8,250.8,0,0,1-65.67-93.16,244.94,244.94,0,0,1-16.29-118.09c5.78-55.23,30.92-107.76,70.77-147.9s92.21-65.62,147.38-71.74l.6,5.47-.6-5.47c136.07-15.38,258.84,82.46,274.21,218.53a246.56,246.56,0,0,1,1.57,27.57,242.54,242.54,0,0,1-1.92,29.75,5.5,5.5,0,0,1-8.69,3.77A144.6,144.6,0,0,0,991.72,282a5.5,5.5,0,0,1-6.92-7.3,104.6,104.6,0,0,0,5-15.22c5.15-20.76,2.82-33.59.82-36.08a5.52,5.52,0,0,1-6.3-4.59,6,6,0,0,1,0-1.34c1.73-18.69.63-32.92-2.94-38.08a174.17,174.17,0,0,1-12-20.71c-6.85-13.25-11.8-22.82-26-27.94-7.77-2.81-10.87-7.63-12.1-11.18-2.34-6.77-.39-15.25,5.8-25.2a1.15,1.15,0,0,0,0-1.26,1,1,0,0,0-1-.5c-54.67,4.4-93.67,17.75-104.34,35.72-9,15.1-14.78,23.15-22.78,34.29-3.39,4.72-7.23,10.07-11.9,16.78-3.57,5.15-4.35,19.34-2.08,37.94a5.51,5.51,0,0,1-4.83,6.11,5.44,5.44,0,0,1-1.93-.11c-2,2.3-4.46,15.16.72,36.14,5.36,21.56,13.87,31.67,16.36,32.06a5.46,5.46,0,0,1,5.23,4.53c4.9,27.35,12.39,46.28,22.25,56.25,8,8.08,11.24,17,9.7,26.46-4,24.39-39.87,42.81-41.4,43.58l-.35.16c-.76.33-18.68,7.88-21,8.84-12.16,5.25-30.42,13.35-48.48,22.18A5.65,5.65,0,0,1,728.75,454Zm161-422.89a248.53,248.53,0,0,0-27.27,1.51C753.19,44.79,665.58,133,654.07,242.55c-7.93,75.6,19.6,148.08,75.61,199.43,17.16-8.28,34.13-15.8,45.64-20.78h.1c2-.8,18.83-7.91,20.79-8.74,9.13-4.67,32.82-19.89,35.34-35.46,1-5.89-1.22-11.44-6.66-16.95-11.18-11.3-19.25-30.53-24.64-58.69-9.61-4.63-17.79-22.05-22-39.24-5.22-21.1-5.42-43.63,5.2-48.82-1.91-19.56-.38-33.06,4.55-40.19,4.73-6.78,8.59-12.16,12-16.92,7.84-10.91,13.51-18.8,22.27-33.5,17.34-29.21,78.18-38.26,112.91-41a12,12,0,0,1,11.27,5.73,12.17,12.17,0,0,1-.08,12.8c-4.17,6.7-5.9,12.46-4.74,15.79.24.7,1,2.83,5.43,4.44,18.28,6.57,25,19.52,32.06,33.23a162.06,162.06,0,0,0,11.3,19.48c4.9,7.09,6.67,20.65,5.27,40.36,10.21,5.53,9.85,28.43,4.84,48.65-.51,2.05-1.07,4.09-1.68,6.09a155.3,155.3,0,0,1,126.39,19c.58-6.68.87-13.07.87-19.33a237,237,0,0,0-79-176.33c-44-39.49-99.09-60.44-157.35-60.44Z" transform="translate(-621.55 0.02)"/><polygon class="cls-3" points="504.81 369.26 490.54 355 390.67 454.88 347.87 412.06 333.6 426.36 390.67 483.43 504.81 369.26"/><path class="cls-4" d="M1012.22,488.9a5.5,5.5,0,0,1-3.89-1.61l-57.07-57.07a5.5,5.5,0,0,1,0-7.77l14.27-14.29a5.5,5.5,0,0,1,7.78,0h0l38.92,38.93,96-96a5.5,5.5,0,0,1,7.78,0h0l14.26,14.27a5.5,5.5,0,0,1,0,7.77L1016.11,487.29A5.5,5.5,0,0,1,1012.22,488.9Zm-49.3-62.57,49.3,49.3,106.36-106.38-6.49-6.49-96,96a5.5,5.5,0,0,1-3.89,1.61h0a5.5,5.5,0,0,1-3.89-1.61L969.4,419.83Z" transform="translate(-621.55 0.02)"/></svg>