<?xml version="1.0" encoding="utf-8"?>
<!-- Generator: Adobe Illustrator 25.2.0, SVG Export Plug-In . SVG Version: 6.00 Build 0)  -->
<svg version="1.1" id="Layer_1" xmlns="http://www.w3.org/2000/svg" xmlns:xlink="http://www.w3.org/1999/xlink" x="0px" y="0px"
	 viewBox="0 0 280.9 115.5" style="enable-background:new 0 0 280.9 115.5;" xml:space="preserve">
<style type="text/css">
	.st0{fill:#231F20;}
	.st1{fill:#E7B809;}
	.st2{fill:#FFFFFF;}
	.st3{fill:#FFDD00;}
	.st4{fill:#0055A3;}
	.st5{fill:#A30046;}
	.st6{fill:#E21936;}
	.st7{fill:#00BE40;}
</style>
<g>
	<g id="ARTE">
		<g>
			<path d="M1,97.6v-4.8H0v-1.3h1v-4.6h3.7c1.2,0,2.4,0.4,3.3,1.3c0.9,0.9,1.3,2,1.3,3.2v1.8c0,1.2-0.4,2.4-1.3,3.2
				c-0.9,0.8-2,1.3-3.3,1.3L1,97.6z M5,92.8H3.2V96h1.4c0.7,0,1.4-0.3,1.8-0.8c0.5-0.6,0.7-1.3,0.7-2.1v-1.8c0-0.7-0.2-1.5-0.7-2
				c-0.5-0.5-1.1-0.8-1.8-0.8H3.2v2.9H5V92.8z"/>
			<path d="M19.6,93.2c0,1.2-0.4,2.4-1.3,3.3c-0.9,0.9-2,1.3-3.3,1.3c-1.2,0-2.4-0.4-3.2-1.3c-0.8-0.9-1.3-2.1-1.2-3.3v-1.9
				c0-1.2,0.4-2.4,1.2-3.3c0.8-0.9,2-1.3,3.2-1.3c1.2,0,2.4,0.4,3.3,1.3c0.8,0.9,1.3,2.1,1.3,3.3V93.2z M14.3,83.8H16l2.2,1.9l0,0
				h-1.9l-1.1-1.1L14,85.8h-1.9l0,0L14.3,83.8z M17.5,91.3c0-0.7-0.2-1.5-0.6-2.1c-0.4-0.5-1.1-0.8-1.7-0.8c-0.7,0-1.3,0.3-1.7,0.8
				c-0.4,0.6-0.6,1.3-0.6,2.1v2c0,0.7,0.2,1.5,0.6,2.1c0.4,0.5,1,0.8,1.7,0.8c0.7,0,1.3-0.3,1.7-0.8c0.4-0.6,0.7-1.3,0.6-2.1V91.3z
				 M18.7,82.5h2l-1.6,2h-1.5L18.7,82.5z"/>
			<rect x="21.5" y="86.8" width="2.2" height="10.8"/>
			<polygon points="37,88.5 34,88.5 34,97.6 31.8,97.6 31.8,88.5 28.8,88.5 28.8,86.8 37,86.8 			"/>
			<path d="M44,95.3h-3.8l-0.7,2.3h-2.2L41,86.8h2.2l3.7,10.8h-2.2L44,95.3z M40.8,93.6h2.7l-1.3-4.2h0L40.8,93.6z M42.5,84.1h2.3
				l0,0l-2.1,1.9h-1.7L42.5,84.1z"/>
			<path d="M56.1,94L56.1,94c0.1,1.1-0.3,2.1-1,2.8c-0.8,0.7-1.9,1.1-3,1c-1.2,0-2.3-0.4-3.2-1.3c-0.8-0.9-1.3-2-1.2-3.2v-2.1
				c0-1.2,0.4-2.3,1.2-3.2c0.8-0.8,1.9-1.3,3.1-1.3c1.1-0.1,2.3,0.3,3.1,1c0.8,0.7,1.2,1.7,1.1,2.8l0,0H54c0-0.6-0.1-1.2-0.5-1.6
				c-0.4-0.4-1-0.6-1.6-0.6c-0.6,0-1.2,0.3-1.5,0.8c-0.4,0.6-0.6,1.3-0.6,2v2.2c0,0.7,0.2,1.4,0.6,2c0.4,0.5,1,0.8,1.6,0.8
				c0.6,0,1.1-0.2,1.5-0.5c0.4-0.5,0.5-1,0.5-1.6L56.1,94z"/>
			<polygon points="68.9,88.5 65.8,88.5 65.8,97.6 63.7,97.6 63.7,88.5 60.6,88.5 60.6,86.8 68.9,86.8 			"/>
			<polygon points="78.8,97.6 76.6,97.6 76.6,93.2 72.2,93.2 72.2,97.6 70.1,97.6 70.1,86.8 72.2,86.8 72.2,91.5 76.6,91.5 
				76.6,86.8 78.8,86.8 			"/>
			<path d="M89.4,86.8v1.3l0,0c0.4-0.1,0.7-0.4,0.9-0.8c0.2-0.5,0.3-1.1,0.3-1.7h1.6c0.1,0.9-0.2,1.9-0.7,2.7
				c-0.5,0.7-1.3,1.1-2.1,1.2V94c0.1,1.1-0.4,2.1-1.2,2.8c-0.9,0.7-2,1-3.1,1c-1.1,0.1-2.2-0.3-3.1-1c-0.8-0.7-1.3-1.7-1.2-2.8v-7.2
				h2.2V94c0,0.6,0.2,1.2,0.6,1.6c0.4,0.4,1,0.6,1.6,0.5c0.6,0,1.1-0.2,1.6-0.5c0.4-0.4,0.6-1,0.6-1.6v-7.2L89.4,86.8z"/>
			<path d="M100.3,93.2c0,1.2-0.4,2.4-1.3,3.3c-0.9,0.9-2,1.3-3.3,1.3c-1.2,0-2.4-0.4-3.2-1.3c-0.8-0.9-1.3-2.1-1.2-3.3v-1.9
				c0-1.2,0.4-2.4,1.2-3.3c0.8-0.9,2-1.3,3.2-1.3c0.6,0,1.3,0.1,1.8,0.3c0.5,0.2,1,0.6,1.4,1c0.5-0.1,0.9-0.4,1.2-0.8
				c0.3-0.5,0.4-1,0.4-1.6h1.6c0,0.8-0.2,1.6-0.6,2.4c-0.4,0.6-1,1.1-1.7,1.3c0.1,0.3,0.2,0.6,0.3,0.9c0.1,0.3,0.1,0.7,0.1,1
				L100.3,93.2z M98.1,91.3c0-0.7-0.2-1.5-0.6-2.1c-0.4-0.5-1.1-0.8-1.7-0.8c-0.7,0-1.3,0.3-1.7,0.8c-0.4,0.6-0.6,1.3-0.6,2.1v2
				c0,0.7,0.2,1.5,0.6,2.1c0.4,0.5,1,0.8,1.7,0.8c0.7,0,1.3-0.3,1.7-0.8c0.4-0.6,0.7-1.3,0.6-2.1V91.3z"/>
			<polygon points="111,97.6 108.9,97.6 104.5,90.3 104.5,90.3 104.5,97.6 102.3,97.6 102.3,86.8 104.5,86.8 108.8,94.2 108.9,94.2 
				108.9,86.8 111,86.8 			"/>
			<path d="M121.3,96.2c-0.4,0.5-0.9,0.9-1.5,1.1c-0.8,0.4-1.7,0.5-2.6,0.5c-1.2,0-2.4-0.4-3.2-1.2c-0.8-0.8-1.3-2-1.3-3.2v-2.3
				c0-1.2,0.4-2.3,1.2-3.2c0.8-0.8,1.9-1.3,3.1-1.2c1.1-0.1,2.2,0.3,3,1c0.7,0.6,1.1,1.6,1.1,2.5l0,0h-2c0-0.5-0.2-1-0.5-1.4
				c-0.4-0.4-0.9-0.5-1.4-0.5c-0.6,0-1.2,0.3-1.6,0.8c-0.4,0.6-0.6,1.3-0.6,2v2.3c0,0.7,0.2,1.4,0.6,2c0.4,0.5,1,0.8,1.7,0.8
				c0.4,0,0.8,0,1.2-0.2c0.3-0.1,0.5-0.2,0.7-0.4v-2h-1.9v-1.5h4.1V96.2z"/>
			<polygon points="129.8,86.8 132.5,94.8 132.6,94.8 135.4,86.8 138.2,86.8 138.2,97.6 136,97.6 136,94.4 136.2,89.7 136.2,89.7 
				133.3,97.6 131.8,97.6 129,89.7 128.9,89.7 129.1,94.4 129.1,97.6 127,97.6 127,86.8 			"/>
			<path d="M146,95.3h-3.8l-0.7,2.3h-2.2l3.7-10.8h2.2l3.7,10.8h-2.2L146,95.3z M142.7,93.6h2.7l-1.3-4.2h0L142.7,93.6z
				 M145.3,100.3h-2.4v-1.8h2.4V100.3z"/>
			<rect x="150.1" y="86.8" width="2.2" height="10.8"/>
			<path d="M166.3,94L166.3,94c0.1,1.1-0.3,2.1-1,2.8c-0.8,0.7-1.9,1.1-3,1c-1.2,0-2.3-0.4-3.2-1.3c-0.8-0.9-1.3-2-1.2-3.2v-2.1
				c0-1.2,0.4-2.3,1.2-3.2c0.8-0.8,1.9-1.3,3.1-1.3c1.1-0.1,2.3,0.3,3.1,1c0.8,0.7,1.2,1.7,1.1,2.8l0,0h-2.1c0-0.6-0.1-1.2-0.5-1.6
				c-0.4-0.4-1-0.6-1.6-0.6c-0.6,0-1.2,0.3-1.5,0.8c-0.4,0.6-0.6,1.3-0.6,2v2.2c0,0.7,0.2,1.4,0.6,2c0.4,0.5,1,0.8,1.6,0.8
				c0.6,0,1.1-0.2,1.5-0.5c0.4-0.5,0.5-1,0.5-1.6L166.3,94z"/>
			<polygon points="176.6,97.6 174.4,97.6 174.4,93.2 170,93.2 170,97.6 167.9,97.6 167.9,86.8 170,86.8 170,91.5 174.4,91.5 
				174.4,86.8 176.6,86.8 			"/>
			<path d="M180.2,84.1h2.3l0,0l-2.1,1.9h-1.7L180.2,84.1z M180.9,97.6h-2.2V86.8h2.2V97.6z"/>
			<polygon points="191.8,97.6 189.6,97.6 185.3,90.3 185.2,90.3 185.2,97.6 183.1,97.6 183.1,86.8 185.2,86.8 189.6,94.2 
				189.6,94.2 189.6,86.8 191.8,86.8 			"/>
			<polygon points="202.5,97.6 200.4,97.6 200.4,93.2 196,93.2 196,97.6 193.8,97.6 193.8,86.8 196,86.8 196,91.5 200.4,91.5 
				200.4,86.8 202.5,86.8 			"/>
			<polygon points="215.8,88.5 212.7,88.5 212.7,97.6 210.6,97.6 210.6,88.5 207.5,88.5 207.5,86.8 215.8,86.8 			"/>
			<polygon points="225.7,97.6 223.6,97.6 223.6,93.2 219.2,93.2 219.2,97.6 217,97.6 217,86.8 219.2,86.8 219.2,91.5 223.6,91.5 
				223.6,86.8 225.7,86.8 			"/>
			<path d="M236.3,86.8v1.3l0,0c0.4-0.1,0.7-0.4,0.9-0.8c0.2-0.5,0.3-1.1,0.3-1.7h1.6c0.1,0.9-0.2,1.9-0.7,2.7
				c-0.5,0.7-1.3,1.1-2.1,1.2V94c0.1,1.1-0.4,2.1-1.2,2.8c-0.9,0.7-2,1-3.1,1c-1.1,0.1-2.2-0.3-3.1-1c-0.8-0.7-1.3-1.7-1.2-2.8v-7.2
				h2.2V94c0,0.6,0.2,1.2,0.6,1.6c0.4,0.4,1,0.6,1.6,0.5c0.6,0,1.1-0.2,1.6-0.5c0.4-0.4,0.6-1,0.6-1.6v-7.2L236.3,86.8z M232.4,84.1
				h2.3l0,0l-2.1,1.9H231L232.4,84.1z"/>
			<path d="M246.7,94L246.7,94c0.1,1.1-0.3,2.1-1,2.8c-0.8,0.7-1.9,1.1-3,1c-1.2,0-2.3-0.4-3.2-1.3c-0.8-0.9-1.3-2-1.2-3.2v-2.1
				c0-1.2,0.4-2.3,1.2-3.2c0.8-0.8,1.9-1.3,3.1-1.3c1.1-0.1,2.3,0.3,3.1,1c0.8,0.7,1.2,1.7,1.1,2.8l0,0h-2.1c0-0.6-0.1-1.2-0.5-1.6
				c-0.4-0.4-1-0.6-1.6-0.6c-0.6,0-1.2,0.3-1.5,0.8c-0.4,0.6-0.6,1.3-0.6,2v2.2c0,0.7,0.2,1.4,0.6,2c0.4,0.5,1,0.8,1.6,0.8
				c0.6,0,1.1-0.2,1.5-0.5c0.4-0.5,0.5-1,0.5-1.6L246.7,94z"/>
			<path d="M260.2,94L260.2,94c0.1,1.1-0.3,2.1-1,2.8c-0.8,0.7-1.9,1.1-3,1c-1.2,0-2.3-0.4-3.2-1.3c-0.8-0.9-1.3-2-1.2-3.2v-2.1
				c0-1.2,0.4-2.3,1.2-3.2c0.8-0.8,1.9-1.3,3.1-1.3c1.1-0.1,2.3,0.3,3.1,1c0.8,0.7,1.2,1.7,1.1,2.8l0,0h-2.1c0-0.6-0.1-1.2-0.5-1.6
				c-0.4-0.4-1-0.6-1.6-0.6c-0.6,0-1.2,0.3-1.5,0.8c-0.4,0.6-0.6,1.3-0.6,2v2.2c0,0.7,0.2,1.4,0.6,2c0.4,0.5,1,0.8,1.6,0.8
				c0.6,0,1.1-0.2,1.5-0.5c0.4-0.5,0.5-1,0.5-1.6L260.2,94z"/>
			<path d="M270.3,86.8V94c0.1,1.1-0.4,2.1-1.2,2.8c-0.9,0.7-2,1-3.1,1c-1.1,0.1-2.2-0.3-3.1-1c-0.8-0.7-1.3-1.7-1.2-2.8v-7.2h2.2
				V94c0,0.6,0.2,1.2,0.6,1.6c0.4,0.4,1,0.6,1.6,0.5c0.6,0,1.1-0.2,1.6-0.5c0.4-0.4,0.6-1,0.6-1.6v-7.2L270.3,86.8z M265.2,85.9
				l-0.1-1c0.3,0,0.5,0,0.8-0.1c0.1,0,0.2-0.2,0.2-0.3v0c0-0.2-0.1-0.3-0.2-0.4c-0.2-0.1-0.5-0.1-0.8-0.1l0.1-1
				c0.7,0,1.4,0.1,2.1,0.4c0.4,0.2,0.7,0.6,0.7,1.1c0,0.3-0.1,0.6-0.3,0.7c-0.2,0.2-0.5,0.3-0.8,0.3v0.5L265.2,85.9z"/>
			<path d="M278,95.3h-3.8l-0.7,2.3h-2.2l3.7-10.8h2.2l3.7,10.8h-2.2L278,95.3z M274.7,93.6h2.7l-1.3-4.2h0L274.7,93.6z"/>
			<path d="M27.3,109.1L27.3,109.1c0.1,1.1-0.3,2.1-1,2.8c-0.8,0.7-1.9,1.1-3,1c-1.2,0-2.3-0.4-3.2-1.3c-0.8-0.9-1.3-2-1.2-3.2v-2.1
				c0-1.2,0.4-2.3,1.2-3.2c0.8-0.8,1.9-1.3,3.1-1.3c1.1-0.1,2.3,0.3,3.1,1c0.8,0.7,1.2,1.7,1.1,2.8l0,0h-2.1c0-0.6-0.1-1.2-0.5-1.6
				c-0.4-0.4-1-0.6-1.6-0.6c-0.6,0-1.2,0.3-1.5,0.8c-0.4,0.6-0.6,1.3-0.6,2v2.2c0,0.7,0.2,1.4,0.6,2c0.4,0.5,1,0.8,1.6,0.8
				c0.6,0,1.1-0.2,1.5-0.5c0.4-0.5,0.5-1,0.5-1.6L27.3,109.1z"/>
			<path d="M34.7,110.5h-3.8l-0.7,2.3H28l3.7-10.8h2.2l3.7,10.8h-2.2L34.7,110.5z M35.5,100.8v0.2h-1.7l-1-1l-1,1H30v-0.2l2.1-1.8
				h1.3L35.5,100.8z M31.4,108.8h2.7l-1.3-4.2h0L31.4,108.8z"/>
			<path d="M47.1,102v7.2c0.1,1.1-0.4,2.1-1.2,2.8c-0.9,0.7-2,1-3.1,1c-1.1,0.1-2.2-0.3-3.1-1c-0.8-0.7-1.3-1.7-1.2-2.8V102h2.2v7.2
				c0,0.6,0.2,1.2,0.6,1.6c0.4,0.4,1,0.6,1.6,0.5c0.6,0,1.1-0.2,1.6-0.5c0.4-0.4,0.6-1,0.6-1.6V102L47.1,102z"/>
			<polygon points="55,111.2 59.8,111.2 59.8,112.8 52.8,112.8 52.8,102 55,102 			"/>
			<path d="M66.8,110.5H63l-0.7,2.3h-2.2l3.7-10.8H66l3.7,10.8h-2.2L66.8,110.5z M63.5,108.8h2.7l-1.3-4.2h0L63.5,108.8z
				 M66.1,115.4h-2.4v-1.8h2.4V115.4z"/>
			<path d="M78.9,109.1L78.9,109.1c0.1,1.1-0.3,2.1-1,2.8c-0.8,0.7-1.9,1.1-3,1c-1.2,0-2.3-0.4-3.2-1.3c-0.8-0.9-1.3-2-1.2-3.2v-2.1
				c0-1.2,0.4-2.3,1.2-3.2c0.8-0.8,1.9-1.3,3.1-1.3c1.1-0.1,2.3,0.3,3.1,1c0.8,0.7,1.2,1.7,1.1,2.8l0,0h-2.1c0-0.6-0.1-1.2-0.5-1.6
				c-0.4-0.4-1-0.6-1.6-0.6c-0.6,0-1.2,0.3-1.5,0.8c-0.4,0.6-0.6,1.3-0.6,2v2.2c0,0.7,0.2,1.4,0.6,2c0.4,0.5,1,0.8,1.6,0.8
				c0.6,0,1.1-0.2,1.5-0.5c0.4-0.5,0.5-1,0.5-1.6L78.9,109.1z"/>
			<path d="M84.2,112.8V102h3.6c1-0.1,2.1,0.2,3,0.7c0.7,0.5,1.1,1.3,1.1,2.2c0,0.5-0.1,0.9-0.4,1.3c-0.3,0.4-0.7,0.7-1.2,0.9
				c0.6,0.1,1.1,0.4,1.5,0.9c0.3,0.5,0.5,1,0.5,1.6c0.1,0.9-0.3,1.8-1,2.3c-0.9,0.6-1.9,0.9-2.9,0.8L84.2,112.8z M86.4,106.6h1.6
				c0.5,0,0.9-0.1,1.3-0.4c0.3-0.2,0.5-0.6,0.5-1c0-0.4-0.1-0.8-0.5-1.1c-0.4-0.3-0.9-0.4-1.4-0.4h-1.5V106.6z M86.4,108v3.1h2
				c0.5,0,0.9-0.1,1.3-0.4c0.3-0.3,0.5-0.7,0.5-1.1c0-0.4-0.1-0.9-0.4-1.2c-0.3-0.3-0.8-0.5-1.2-0.4H86.4z"/>
			<path d="M102.6,108.4c0,1.2-0.4,2.4-1.3,3.3c-0.9,0.9-2,1.3-3.3,1.3c-1.2,0-2.4-0.4-3.2-1.3c-0.8-0.9-1.3-2.1-1.2-3.3v-1.9
				c0-1.2,0.4-2.4,1.2-3.3c0.8-0.9,2-1.3,3.2-1.3c1.2,0,2.4,0.4,3.3,1.3c0.8,0.9,1.3,2.1,1.3,3.3V108.4z M100.9,100.7v0.2h-1.7l-1-1
				l-1,1h-1.7v-0.2l2.1-1.8h1.3L100.9,100.7z M100.5,106.4c0-0.7-0.2-1.5-0.6-2.1c-0.4-0.5-1.1-0.8-1.7-0.8c-0.7,0-1.3,0.3-1.7,0.8
				c-0.4,0.6-0.6,1.3-0.6,2.1v2c0,0.7,0.2,1.5,0.6,2.1c0.4,0.5,1,0.8,1.7,0.8c0.7,0,1.3-0.3,1.7-0.8c0.4-0.6,0.7-1.3,0.6-2.1V106.4z
				 M99.3,115.5h-2.4v-1.8h2.4V115.5z"/>
			<path d="M108.1,112.8V102h3.6c1-0.1,2.1,0.2,3,0.7c0.7,0.5,1.1,1.3,1.1,2.2c0,0.5-0.1,0.9-0.4,1.3c-0.3,0.4-0.7,0.7-1.2,0.9
				c0.6,0.1,1.1,0.4,1.5,0.9c0.3,0.5,0.5,1,0.5,1.6c0.1,0.9-0.3,1.8-1,2.3c-0.9,0.6-1.9,0.9-2.9,0.8L108.1,112.8z M110.3,106.6h1.6
				c0.5,0,0.9-0.1,1.3-0.4c0.3-0.2,0.5-0.6,0.5-1c0-0.4-0.1-0.8-0.5-1.1c-0.4-0.3-0.9-0.4-1.4-0.4h-1.5V106.6z M110.3,108v3.1h2
				c0.5,0,0.9-0.1,1.3-0.4c0.3-0.3,0.5-0.7,0.5-1.1c0-0.4-0.1-0.9-0.4-1.2c-0.3-0.3-0.8-0.5-1.2-0.4H110.3z"/>
			<path d="M126.5,108.4c0,1.2-0.4,2.4-1.3,3.3c-0.9,0.9-2,1.3-3.3,1.3c-1.2,0-2.4-0.4-3.2-1.3c-0.8-0.9-1.3-2.1-1.2-3.3v-1.9
				c0-1.2,0.4-2.4,1.2-3.3c0.8-0.9,2-1.3,3.2-1.3c1.2,0,2.4,0.4,3.3,1.3c0.8,0.9,1.3,2.1,1.3,3.3V108.4z M124.4,106.4
				c0-0.7-0.2-1.5-0.6-2.1c-0.4-0.5-1.1-0.8-1.7-0.8c-0.7,0-1.3,0.3-1.7,0.8c-0.4,0.6-0.6,1.3-0.6,2.1v2c0,0.7,0.2,1.5,0.6,2.1
				c0.4,0.5,1,0.8,1.7,0.8c0.7,0,1.3-0.3,1.7-0.8c0.4-0.6,0.7-1.3,0.6-2.1V106.4z M122.4,99.1h2.3l0,0l-2.1,1.9h-1.7L122.4,99.1z"/>
			<polygon points="136.9,112.8 134.8,112.8 130.4,105.4 130.4,105.5 130.4,112.8 128.2,112.8 128.2,102 130.4,102 134.7,109.4 
				134.8,109.4 134.8,102 136.9,102 			"/>
			<path d="M147.2,111.3c-0.4,0.5-0.9,0.9-1.5,1.1c-0.8,0.4-1.7,0.5-2.6,0.5c-1.2,0-2.4-0.4-3.2-1.2c-0.8-0.8-1.3-2-1.3-3.2v-2.3
				c0-1.2,0.4-2.3,1.2-3.2c0.8-0.8,1.9-1.3,3.1-1.2c1.1-0.1,2.2,0.3,3,1c0.7,0.6,1.1,1.6,1.1,2.5l0,0h-2c0-0.5-0.2-1-0.5-1.4
				c-0.4-0.4-0.9-0.5-1.4-0.5c-0.6,0-1.2,0.3-1.6,0.8c-0.4,0.6-0.6,1.3-0.6,2v2.3c0,0.7,0.2,1.4,0.6,2c0.4,0.5,1,0.8,1.7,0.8
				c0.4,0,0.8,0,1.2-0.2c0.3-0.1,0.5-0.2,0.7-0.4v-2h-1.9v-1.5h4.1L147.2,111.3z"/>
			<path d="M153.1,112.8V108h-1v-1.3h1V102h3.7c1.2,0,2.4,0.4,3.3,1.3c0.9,0.9,1.3,2,1.3,3.2v1.8c0,1.2-0.4,2.4-1.3,3.2
				c-0.9,0.8-2,1.3-3.3,1.3L153.1,112.8z M157.1,108h-1.8v3.2h1.4c0.7,0,1.4-0.3,1.8-0.8c0.5-0.6,0.7-1.3,0.7-2.1v-1.8
				c0-0.7-0.2-1.5-0.7-2c-0.5-0.5-1.1-0.8-1.8-0.8h-1.4v2.9h1.8V108z"/>
			<path d="M168.8,110.5h-3.8l-0.7,2.3h-2.2l3.7-10.8h2.2l3.7,10.8h-2.2L168.8,110.5z M165.6,108.8h2.7l-1.3-4.2h0L165.6,108.8z
				 M167.4,99.3h2.3l0,0l-2.1,1.9h-1.7L167.4,99.3z"/>
			<path d="M176.6,112.8V102h3.6c1-0.1,2.1,0.2,3,0.7c0.7,0.5,1.1,1.3,1.1,2.2c0,0.5-0.1,0.9-0.4,1.3c-0.3,0.4-0.7,0.7-1.2,0.9
				c0.6,0.1,1.1,0.4,1.5,0.9c0.3,0.5,0.5,1,0.5,1.6c0.1,0.9-0.3,1.8-1,2.3c-0.9,0.6-1.9,0.9-2.9,0.8L176.6,112.8z M178.7,106.6h1.6
				c0.5,0,0.9-0.1,1.3-0.4c0.3-0.2,0.5-0.6,0.5-1c0-0.4-0.1-0.8-0.5-1.1c-0.4-0.3-0.9-0.4-1.4-0.4h-1.5L178.7,106.6z M178.7,108v3.1
				h2c0.5,0,0.9-0.1,1.3-0.4c0.3-0.3,0.5-0.7,0.5-1.1c0-0.4-0.1-0.9-0.4-1.2c-0.3-0.3-0.8-0.5-1.2-0.4H178.7z"/>
			<path d="M192.1,110.5h-3.8l-0.7,2.3h-2.2l3.7-10.8h2.2l3.7,10.8h-2.2L192.1,110.5z M188.8,108.8h2.7l-1.3-4.2h0L188.8,108.8z"/>
			<path d="M198.2,108.5v4.3H196V102h4.1c1-0.1,2.1,0.2,2.9,0.8c0.7,0.6,1.1,1.4,1,2.3c0,0.5-0.1,1-0.4,1.4c-0.3,0.4-0.8,0.8-1.3,1
				c0.6,0.1,1,0.5,1.4,0.9c0.3,0.5,0.4,1.1,0.4,1.6v0.8c0,0.3,0,0.6,0.1,0.9c0.1,0.3,0.2,0.5,0.4,0.7v0.2h-2.2
				c-0.2-0.2-0.4-0.5-0.4-0.8c-0.1-0.3-0.1-0.7-0.1-1.1v-0.8c0-0.5-0.1-0.9-0.4-1.3c-0.3-0.3-0.8-0.5-1.2-0.4L198.2,108.5z
				 M198.2,106.8h1.9c0.5,0,1-0.1,1.4-0.4c0.3-0.3,0.5-0.7,0.4-1.1c0-0.4-0.1-0.9-0.4-1.2c-0.4-0.3-0.8-0.5-1.3-0.4h-1.9V106.8z"/>
			<path d="M214.2,109.1L214.2,109.1c0.1,1.1-0.3,2.1-1,2.8c-0.8,0.7-1.9,1.1-3,1c-1.2,0-2.3-0.4-3.2-1.3c-0.8-0.9-1.3-2-1.2-3.2
				v-2.1c0-1.2,0.4-2.3,1.2-3.2c0.8-0.8,1.9-1.3,3.1-1.3c1.1-0.1,2.3,0.3,3.1,1c0.8,0.7,1.2,1.7,1.1,2.8l0,0h-2.1
				c0-0.6-0.1-1.2-0.5-1.6c-0.4-0.4-1-0.6-1.6-0.6c-0.6,0-1.2,0.3-1.5,0.8c-0.4,0.6-0.6,1.3-0.6,2v2.2c0,0.7,0.2,1.4,0.6,2
				c0.4,0.5,1,0.8,1.6,0.8c0.6,0,1.1-0.2,1.5-0.5c0.4-0.5,0.5-1,0.5-1.6L214.2,109.1z"/>
			<polygon points="222.4,108.1 217.9,108.1 217.9,111.2 223.1,111.2 223.1,112.8 215.7,112.8 215.7,102 223.1,102 223.1,103.7 
				217.9,103.7 217.9,106.4 222.4,106.4 			"/>
			<polygon points="226.6,111.2 231.4,111.2 231.4,112.8 224.5,112.8 224.5,102 226.6,102 			"/>
			<path d="M241.4,108.4c0,1.2-0.4,2.4-1.3,3.3c-0.9,0.9-2,1.3-3.3,1.3c-1.2,0-2.4-0.4-3.2-1.3c-0.8-0.9-1.3-2.1-1.2-3.3v-1.9
				c0-1.2,0.4-2.4,1.2-3.3c0.8-0.9,2-1.3,3.2-1.3c1.2,0,2.4,0.4,3.3,1.3c0.8,0.9,1.3,2.1,1.3,3.3V108.4z M239.2,106.4
				c0-0.7-0.2-1.5-0.6-2.1c-0.4-0.5-1.1-0.8-1.7-0.8c-0.7,0-1.3,0.3-1.7,0.8c-0.4,0.6-0.6,1.3-0.6,2.1v2c0,0.7,0.2,1.5,0.6,2.1
				c0.4,0.5,1,0.8,1.7,0.8c0.7,0,1.3-0.3,1.7-0.8c0.4-0.6,0.7-1.3,0.6-2.1L239.2,106.4z"/>
			<polygon points="251.8,112.8 249.6,112.8 245.3,105.4 245.2,105.5 245.2,112.8 243,112.8 243,102 245.2,102 249.6,109.4 
				249.6,109.4 249.6,102 251.8,102 			"/>
			<path d="M259.6,110.5h-3.8l-0.7,2.3h-2.2l3.7-10.8h2.2l3.7,10.8h-2.2L259.6,110.5z M256.3,108.8h2.7l-1.3-4.2h0L256.3,108.8z"/>
		</g>
		<g>
			<rect x="140.3" y="0" class="st0" width="1" height="71.7"/>
			<path class="st1" d="M218.4,1.2l0.4,0.2c3.9,2.6,7.1,3.1,11.9,3.1c1.8,0,3.6-0.3,5.3-0.9l0.5-0.2l2.3,3.2L238.4,7
				c-8.5,11.3-1.9,23.4,2.8,28.3l0.4,0.4l-0.4,0.4c-0.6,0.6-1.7,1.7-2.5,2.5l-0.3,0.3l0,0.4l0,0.1c0,0.1,0,0.2,0,0.4l0,0.1
				c0.4,7.5-1.6,13.7-5.8,18.3c-4.5,4.9-11.6,7.9-20,8.4l-0.3,0l-0.2,0.2c-2.1,1.9-4.3,3.6-4.3,3.6l-0.4,0.3l-0.4-0.3
				c-0.1-0.1-2.2-1.7-4.3-3.6l-0.2-0.2l-0.3,0c-8.4-0.5-15.5-3.4-20-8.4c-4.2-4.7-6.2-10.8-5.8-18.3l0-0.1c0-0.2,0-0.3,0-0.4l0,0v0
				l0-0.1l0-0.4l-0.3-0.3c-0.7-0.8-1.8-1.9-2.5-2.5l-0.4-0.4l0.4-0.4c4.7-4.9,11.3-17,2.8-28.3l-0.2-0.3l2.3-3.2l0.5,0.2
				c1.7,0.6,3.5,0.9,5.3,0.9c4.8,0,8-0.5,11.9-3.1l0.4-0.2l0.4,0.2c3,2.3,6.7,3.5,10.5,3.5c3.8,0,7.5-1.3,10.5-3.5L218.4,1.2"/>
			<path class="st2" d="M181.7,29c2.7-6.1,3.6-13.9-0.8-21.5c1.1,0.2,2.3,0.3,3.5,0.3c4.6,0,8.2-0.4,12.2-2.7
				c3.3,2.1,7.1,3.1,10.9,3.2c3.9,0,7.7-1.1,10.9-3.2c4,2.3,7.6,2.7,12.2,2.7c1.2,0,2.3-0.1,3.5-0.3c-4.5,7.7-3.5,15.5-0.8,21.6
				L181.7,29"/>
			<path class="st3" d="M233.3,29c-2.7-6.1-3.6-13.9,0.8-21.6c-1.1,0.2-2.3,0.3-3.5,0.3c-4.6,0-8.2-0.4-12.2-2.7
				c-3.3,2.1-7.1,3.1-10.9,3.2c0,0-0.1,0-0.1,0V29H233.3z"/>
			<path class="st4" d="M227.6,58.4c5.1-3.7,8.1-9.6,7.6-18.3c-0.1-0.5-0.1-0.5-0.1-1h-7.5V58.4z"/>
			<path class="st5" d="M219.6,62.1c2.9-0.7,5.6-2,8-3.7V39.1h-8V62.1z"/>
			<path class="st5" d="M187.4,58.4c2.4,1.7,5.2,3,8,3.7v-23h-8V58.4z"/>
			<path class="st4" d="M179.8,40.1c-0.4,8.7,2.6,14.6,7.6,18.3V39.1h-7.5C179.8,39.6,179.8,39.6,179.8,40.1"/>
			<path class="st5" d="M207.5,43.4c1.4,0,2.8,0.4,4,1.2v-5.4h-8v5.4C204.7,43.8,206.1,43.4,207.5,43.4"/>
			<path class="st5" d="M207.5,58.5c-1.4,0-2.8-0.4-4-1.2v6c0.1,0,0.3,0,0.4,0c2.7,0,5.1,0,7.2,0c0.1,0,0.3,0,0.4,0v-6
				C210.3,58.1,209,58.5,207.5,58.5"/>
			<path class="st4" d="M211.5,39.1v5.4c3.6,2.2,4.6,6.9,2.4,10.4c-0.6,1-1.5,1.8-2.4,2.4v6c2.7-0.1,5.4-0.5,8-1.2v-23H211.5z"/>
			<path class="st4" d="M200,50.9c0-2.6,1.3-5,3.5-6.4v-5.4h-8v23c2.6,0.7,5.3,1.1,8,1.2v-6C201.3,56,200,53.6,200,50.9"/>
			<path class="st6" d="M183.5,14.3c0.5,2.5,0.6,5.1,0.2,7.7h7.8v7h7.7v-7h8.2v-7.7h-8.2V6.5c-0.9-0.4-1.8-0.9-2.7-1.4
				c-1.6,0.9-3.3,1.6-5,2v7.2L183.5,14.3z"/>
			<path class="st6" d="M223.9,29V7.2c-0.9-0.2-1.9-0.5-2.8-0.8V29L223.9,29z"/>
			<path class="st6" d="M212.9,29V7.5c-0.9,0.3-1.8,0.4-2.8,0.6V29L212.9,29z"/>
			<path class="st6" d="M229.5,29V7.8c-1,0-1.9-0.1-2.8-0.1V29H229.5z"/>
			<path class="st6" d="M218.4,29V5.1c-0.9,0.5-1.8,1-2.8,1.4V29L218.4,29z"/>
			<path class="st0" d="M242.9,35.7l-1.1-1.1c-4.5-4.7-10.8-16.3-2.7-27.1l0.6-0.8l-3.1-4.3l-1.1,0.4c-1.6,0.6-3.3,0.9-5,0.9
				c-4.6,0-7.7-0.5-11.4-2.9l-0.9-0.6l-0.9,0.6c-2.9,2.2-6.4,3.3-10,3.4c-3.6,0-7.1-1.2-10-3.4l-0.9-0.6l-0.9,0.6
				c-3.7,2.5-6.8,2.9-11.4,2.9c-1.7,0-3.4-0.3-5-0.9l-1.1-0.4l-3.1,4.3l0.6,0.8c8.1,10.8,1.8,22.4-2.7,27.1l-1.1,1.1l1.1,1.1
				c0.6,0.6,1.6,1.6,2.4,2.5c0,0,0,0.1,0,0.1c0,0.1,0,0.2,0,0.3l0,0.1c-0.4,7.8,1.6,14.2,6,19c4.7,5.1,12,8.2,20.6,8.7
				c2.1,1.9,4.3,3.6,4.4,3.6l0.9,0.7l0.9-0.7c0.1-0.1,2.3-1.7,4.4-3.6c8.6-0.5,15.9-3.5,20.6-8.7c4.4-4.8,6.4-11.2,6-19l0-0.1
				c0-0.1,0-0.2,0-0.3c0,0,0-0.1,0-0.1c0.8-0.9,1.9-2,2.4-2.5L242.9,35.7z M237.8,38.7c0.1,0.8,0,0.8,0.1,1.2
				c0.9,17.3-11.1,25.5-25.7,26.1c-2.2,2.1-4.7,3.9-4.7,3.9s-2.5-1.8-4.7-3.9c-14.6-0.6-26.6-8.8-25.7-26.1c0.1-0.5,0-0.4,0.1-1.2
				c-0.8-0.9-2.2-2.3-2.9-3.1c5.2-5.4,11.3-17.8,2.9-29.1l1.8-2.4c1.8,0.6,3.6,0.9,5.5,1c4.9,0,8.2-0.5,12.2-3.2
				c3.2,2.3,7,3.6,10.9,3.6c3.9,0,7.7-1.3,10.9-3.6c4.1,2.7,7.4,3.2,12.2,3.2c1.9,0,3.7-0.3,5.5-1l1.8,2.4
				c-8.5,11.2-2.4,23.7,2.9,29.1C240,36.4,238.7,37.8,237.8,38.7"/>
			<path class="st0" d="M179.7,39.1c0,0.3,0,0.4-0.1,0.5c0,0.1,0,0.3-0.1,0.5c-0.3,6.7,1.3,12,4.9,16c4.1,4.6,10.9,7.1,19.4,7.5
				l0.3,0c1.4,0,2.8,0,4.1,0c1,0,1.9,0,2.8,0c8.6-0.4,15.3-2.9,19.4-7.5c3.6-4,5.3-9.4,4.9-16c0-0.2,0-0.4-0.1-0.5
				c0-0.1,0-0.3-0.1-0.5l0-0.2h-55.7L179.7,39.1z M180,40.1c0-0.2,0-0.3,0.1-0.5c0-0.1,0-0.2,0-0.4h54.8c0,0.1,0,0.2,0,0.4
				c0,0.1,0,0.2,0.1,0.4c0.3,6.5-1.3,11.8-4.8,15.7c-4.1,4.5-10.7,7-19.1,7.3c-2,0-4.3,0-6.9,0l-0.3,0c-8.4-0.3-15.1-2.9-19.1-7.3
				C181.3,51.9,179.7,46.7,180,40.1"/>
			<path class="st0" d="M181.5,28.9l-0.1,0.3h52.3l-0.1-0.3c-2.3-5.2-4-13.1,0.8-21.4l0.3-0.4l-0.5,0.1c-1.1,0.2-2.3,0.3-3.4,0.3
				c-4.7,0-8.1-0.4-12.1-2.7l-0.1-0.1l-0.1,0.1c-3.2,2-7,3.1-10.8,3.1c-3.8,0-7.6-1.1-10.8-3.1l-0.1-0.1l-0.1,0.1
				c-3.9,2.2-7.4,2.7-12.1,2.7c-1.2,0-2.3-0.1-3.4-0.3l-0.5-0.1l0.3,0.4C185.5,15.8,183.8,23.7,181.5,28.9 M207.7,8.5
				c3.8,0,7.6-1.1,10.8-3.1c4,2.2,7.5,2.7,12.2,2.7c1,0,2-0.1,3-0.3c-4.5,8.1-2.9,15.8-0.7,21h-25.3L207.7,8.5z M181.3,7.8
				c1,0.2,2,0.2,3,0.2c4.7,0,8.2-0.4,12.2-2.7c3.2,2,6.9,3.1,10.6,3.1v20.3h-25.1C184.3,23.6,185.8,15.8,181.3,7.8"/>
			<polygon class="st0" points="200.9,32 200.9,30.5 195.7,30.5 195.7,37.7 197.3,37.7 197.3,34.7 199.4,34.7 199.4,33.2 
				197.3,33.2 197.3,32 			"/>
			<path class="st0" d="M207,31.9c0.5,0,1,0.3,1.2,0.7l0,0.1l1.4-0.7l0-0.1c-0.5-1-1.5-1.7-2.6-1.6c-1.9,0-3.2,1.5-3.2,3.7
				c0,2.2,1.2,3.7,3.1,3.7c1.1,0.1,2.2-0.6,2.7-1.6l0-0.1l-1.3-0.8l0,0.1c-0.2,0.5-0.7,0.9-1.3,0.9c-0.9,0-1.6-0.9-1.6-2.2
				C205.4,32.7,206,31.9,207,31.9"/>
			<path class="st0" d="M219,32.4c0-1.2-0.9-1.9-2.3-1.9h-3.3v7.2h3.3c1.2,0.2,2.4-0.7,2.6-1.9c0-0.1,0-0.3,0-0.4
				c0-0.6-0.3-1.2-0.9-1.5C218.8,33.5,219,33,219,32.4 M214.9,31.9h1.7c0.7,0,0.8,0.3,0.8,0.6c0,0.4-0.2,0.6-0.7,0.6h-1.8
				L214.9,31.9z M216.7,36.2h-1.8v-1.7h1.8c0.6,0,0.9,0.3,0.9,0.8C217.6,35.9,217.3,36.2,216.7,36.2"/>
			<path class="st0" d="M207.5,58.7c4.3,0,7.7-3.5,7.7-7.7s-3.5-7.7-7.7-7.7s-7.7,3.5-7.7,7.7v0C199.7,55.2,203.2,58.6,207.5,58.7
				 M207.5,58.2c-1.4,0-2.9-0.4-4.1-1.2c1.7,0,3.3-0.5,4.8-1.2c1.2-0.7,2.5-1.6,2.8-2.9c0.9-0.5,2.1-0.1,2.6,0.8
				c0.1,0.2,0.2,0.5,0.2,0.7C212.6,56.7,210.1,58.2,207.5,58.2 M203.9,52.6c0.4,0.3,0.8,0.4,1.3,0.5c1.2,0,2.3-0.8,2.5-2
				c0.7-0.6,1.8-0.6,2.5,0.1c0.1,0.2,0.2,0.3,0.3,0.5c0.6,1.5-0.7,2.6-2.4,3.7c-1.6,0.8-3.4,1.2-5.2,1.2c-0.8-0.7-1.5-1.5-1.9-2.4
				c0.1,0,0.1,0,0.2,0C202.3,54.1,203.3,53.6,203.9,52.6 M202.7,48.9c0.1-1.4,0.3-2.7,0.7-4c1-0.7,2.2-1.1,3.4-1.2
				c-0.8,0.8-0.7,2.1,0.1,2.9c0,0,0.1,0.1,0.1,0.1c-0.2,0.2-0.4,0.4-0.5,0.6c-0.8,1.3-0.5,3,0.8,3.8c-0.2,0.9-1.1,1.6-2,1.6
				C203.6,52.4,202.8,50.8,202.7,48.9 M211.1,52.4c0-0.3-0.1-0.6-0.2-0.8c-0.4-1.1-1.7-1.7-2.8-1.2c-0.2,0.1-0.4,0.2-0.6,0.3
				c-1-0.7-1.3-2.1-0.6-3.2c0.8-1.3,2.8-0.8,4.5,0.2c1.5,0.9,2.7,2.3,3.3,4c-0.1,0.8-0.3,1.5-0.6,2.2
				C213.7,52.6,212.4,51.9,211.1,52.4C211.1,52.4,211.1,52.4,211.1,52.4 M211.6,47.2c-1.3-0.7-2.9-1.4-4.1-0.9
				c-0.7-0.5-1-1.5-0.5-2.2c0.1-0.2,0.3-0.4,0.6-0.5c3.8,0,7,3,7.2,6.8C214,49.1,212.9,48,211.6,47.2 M202.9,45.3
				c-0.1,0.5-0.3,1-0.4,1.5c-0.4,1.7-0.4,4.3,1,5.6c-0.5,0.9-1.4,1.4-2.4,1.4c-0.1,0-0.3,0-0.4,0C199.5,50.7,200.4,47.3,202.9,45.3"
				/>
			<path class="st7" d="M44.7,0h57.8c3.8,0,7,3.1,7,7v57.8c0,3.8-3.1,7-7,7H44.7c-3.8,0-7-3.1-7-7c0,0,0,0,0,0V7
				C37.8,3.2,40.9,0,44.7,0C44.7,0,44.7,0,44.7,0"/>
			<rect x="52" y="45.4" class="st2" width="43.4" height="3.4"/>
			<polygon class="st2" points="63.8,28.2 63.8,24.7 52,24.7 52,41.1 56.3,41.1 56.3,35.3 63,35.3 63,31.8 56.3,31.8 56.3,28.2 			
				"/>
			<path class="st2" d="M76.8,32.6c1.5-0.5,2.6-2,2.6-3.6c0-2.6-2-4.2-5.3-4.2h-8.4v16.4h8.5c3.6,0,5.8-1.7,5.8-4.6
				C80,34.6,78.6,33,76.8,32.6 M70,28.1h3.3c1.2,0,1.9,0.6,1.9,1.6c0,1-0.7,1.6-1.9,1.6H70V28.1z M73.6,37.8H70v-3.3h3.7
				c1.2,0,1.9,0.6,1.9,1.7C75.6,37.3,74.9,37.8,73.6,37.8L73.6,37.8z"/>
			<path class="st2" d="M90.4,31.2l-2-0.3c-1.9-0.3-2.5-0.8-2.5-1.7s0.8-1.5,2.4-1.5c1.3-0.2,2.5,0.7,2.7,2c0,0,0,0,0,0l4.1-0.5
				c-0.6-3.2-2.9-4.8-6.7-4.8c-4.2,0-7,2.1-7,5.3c0,2.8,1.7,4.4,5.1,4.9l2.1,0.3c2.2,0.3,2.7,0.8,2.7,1.8s-0.8,1.5-2.7,1.5
				c-1.4,0.1-2.7-0.8-3.1-2.2l-4.3,0.6c0.7,3.3,3.2,4.9,7.3,4.9c4.6,0,7.3-2,7.3-5.3C95.8,33.2,94.2,31.7,90.4,31.2"/>
		</g>
	</g>
</g>
</svg>
