<svg xmlns="http://www.w3.org/2000/svg" viewBox="0 0 144.6 136.99"><defs><style>.cls-1{fill:none;stroke:#fff;stroke-miterlimit:10;}.cls-2{fill:#231f20;}.cls-3{fill:#e8b909;}.cls-4{fill:#0054a4;}.cls-5{fill:#a30046;}.cls-6{fill:#fff;}.cls-7{fill:#fd0;}.cls-8{fill:#e31837;}</style></defs><title>VI_logo-without - vertical color (dark bg)</title><g id="Layer_2" data-name="Layer 2"><g id="TEXTOS"><line class="cls-1" x1="101.41" y1="71.83" x2="43.64" y2="71.83"/><path class="cls-2" d="M101.39,29.29l-.86-.9C96.85,24.55,91.66,15,98.29,6.08l.52-.69-.46-.74a8.06,8.06,0,0,0-.78-1.07c-.21-.26-.43-.53-.72-.94l-.55-.79-.9.32a12.5,12.5,0,0,1-4.06.71c-3.79,0-6.27-.37-9.33-2.4L81.3,0l-.71.49a13.82,13.82,0,0,1-8.2,2.77A13.82,13.82,0,0,1,64.19.49L63.48,0l-.71.48c-3.06,2-5.54,2.4-9.33,2.4a12.5,12.5,0,0,1-4.06-.71l-.9-.32-.55.79c-.29.41-.51.68-.71.93a8.94,8.94,0,0,0-.79,1.08L46,5.39l.52.69c6.63,8.87,1.44,18.47-2.24,22.31l-.86.9.88.88c.47.47,1.31,1.35,2,2.08v.12c0,.09,0,.14,0,.26v.08c-.34,6.4,1.32,11.66,4.93,15.65C55,52.59,61,55.12,68,55.51c1.75,1.61,3.53,2.93,3.61,3l.76.57.75-.57c.08-.06,1.85-1.39,3.6-3,7.06-.39,13-2.92,16.86-7.15,3.61-4,5.27-9.25,4.93-15.65v-.08c0-.12,0-.17,0-.26v-.12c.69-.73,1.53-1.61,2-2.08Zm-4.19,2.5c.07.64,0,.61.08,1,.75,14.25-9.12,21-21,21.48C74.4,56,72.4,57.48,72.4,57.48s-2-1.51-3.85-3.22c-11.93-.5-21.8-7.23-21-21.48,0-.38,0-.35.07-1-.68-.73-1.81-1.92-2.41-2.52,4.28-4.47,9.27-14.69,2.34-23.95.46-.74.79-1,1.47-1.95a13.76,13.76,0,0,0,4.47.78c4,0,6.69-.39,10-2.62a15.15,15.15,0,0,0,8.93,3,15.07,15.07,0,0,0,8.92-3c3.34,2.23,6.06,2.62,10,2.62a13.76,13.76,0,0,0,4.47-.78c.68,1,1,1.21,1.47,2-6.93,9.26-1.94,19.48,2.34,24-.6.6-1.73,1.79-2.42,2.52"/><path class="cls-3" d="M72.4,57.48a47.65,47.65,0,0,1-3.85-3.22c-11.93-.5-21.8-7.23-21-21.48,0-.38,0-.35.07-1-.68-.72-1.81-1.91-2.41-2.51,4.28-4.47,9.27-14.69,2.34-23.95.46-.74.78-1,1.47-1.95a13.77,13.77,0,0,0,4.47.79c4,0,6.69-.4,10-2.62a15.13,15.13,0,0,0,8.92,3,15.13,15.13,0,0,0,8.92-3c3.34,2.22,6,2.62,10,2.62a13.77,13.77,0,0,0,4.47-.79c.68,1,1,1.21,1.47,2-6.93,9.26-1.94,19.48,2.34,24-.6.6-1.73,1.79-2.41,2.51.06.65,0,.62.07,1,.75,14.25-9.12,21-21,21.48C74.4,56,72.4,57.48,72.4,57.48"/><path class="cls-4" d="M56.05,32.12H49.77c0,.41-.07.43-.11.84-.36,7.2,2.14,12.11,6.39,15.17Z"/><path class="cls-5" d="M56,48.13a20.09,20.09,0,0,0,6.59,3v-19H56Z"/><path class="cls-4" d="M62.63,51.13a31.23,31.23,0,0,0,6.59,1v-20H62.63Z"/><path class="cls-5" d="M75.81,32.12H69.22v20h.22c2.19,0,4.18,0,5.9,0l.47,0Z"/><path class="cls-4" d="M75.81,52.1a31.1,31.1,0,0,0,6.59-1v-19H75.81Z"/><path class="cls-5" d="M82.4,51.07A19.7,19.7,0,0,0,89,47.94V32.12H82.4Z"/><path class="cls-4" d="M95,32.12H89V48c4.09-3.07,6.5-7.93,6.14-15-.05-.41-.07-.43-.11-.84"/><path class="cls-2" d="M73,52.32H69.44c-7-.29-12.53-2.43-15.92-6.18-3-3.27-4.33-7.7-4.05-13.18,0-.2,0-.31.05-.4s0-.23.06-.45v-.17h45.6v.17c0,.22,0,.32,0,.45a2.2,2.2,0,0,1,0,.39c.28,5.49-1.08,9.92-4,13.19-3.4,3.75-8.9,5.89-15.91,6.18H73m-23.08-20c0,.12,0,.21,0,.29s0,.2,0,.38c-.27,5.36,1.06,9.7,3.95,12.89,3.33,3.68,8.74,5.77,15.65,6.06h5.88c6.91-.29,12.32-2.38,15.65-6.06,2.89-3.19,4.22-7.53,4-12.9,0-.17,0-.28-.05-.37s0-.17,0-.29Z"/><path class="cls-3" d="M66.05,41.85a6.32,6.32,0,1,1,6.31,6.35,6.34,6.34,0,0,1-6.31-6.35"/><path class="cls-2" d="M72.37,35.68a6.17,6.17,0,1,0,6.12,6.17,6.16,6.16,0,0,0-6.12-6.17m0,12.45a6.29,6.29,0,1,1,6.24-6.28,6.27,6.27,0,0,1-6.24,6.28"/><path class="cls-2" d="M72.37,35.49a6.36,6.36,0,1,1-6.32,6.36,6.34,6.34,0,0,1,6.32-6.36M69.14,43C68,42,68,39.83,68.3,38.41c.09-.39.2-.78.31-1.22a6,6,0,0,0-1.77,6.9,1.55,1.55,0,0,0,.31,0,2.18,2.18,0,0,0,2-1.12m6.14.46c-.2,1-1.26,1.76-2.27,2.36a9.18,9.18,0,0,1-4,1,5.85,5.85,0,0,0,3.33,1,6,6,0,0,0,5.22-3.1,1.58,1.58,0,0,0-2.31-1.28m-6.71,3a9.4,9.4,0,0,0,4.26-1c1.41-.84,2.51-1.75,2-3a1.43,1.43,0,0,0-2.28-.56,2,2,0,0,1-2.05,1.66,2.43,2.43,0,0,1-1.06-.38,2.56,2.56,0,0,1-2.28,1.25H67a6.19,6.19,0,0,0,1.57,2m3.78-8.37c1-.41,2.35.12,3.39.71a7,7,0,0,1,2.58,2.66,6,6,0,0,0-5.9-5.63,1.33,1.33,0,0,0-.07,2.26m-.17,3.83a2.33,2.33,0,0,1-.62-3.15A1.93,1.93,0,0,1,72,38.3a1.67,1.67,0,0,1-.17-2.43,6,6,0,0,0-2.79,1,13.51,13.51,0,0,0-.57,3.33c0,1.59.67,2.88,2,3.06a1.7,1.7,0,0,0,1.65-1.31m6.12.46a6.18,6.18,0,0,0-2.73-3.27c-1.44-.81-3-1.25-3.71-.15a2,2,0,0,0,.51,2.65,1.77,1.77,0,0,1,2.78.73,2.13,2.13,0,0,1,.16.7,1.93,1.93,0,0,1,2.53,1.17,5.93,5.93,0,0,0,.46-1.83"/><path class="cls-2" d="M79.88,30.94H77.2V25h2.71c1.18,0,1.89.6,1.89,1.6a1.32,1.32,0,0,1-.54,1.11A1.41,1.41,0,0,1,82,29a1.87,1.87,0,0,1-2.12,1.93M78.46,29.7h1.46c.49,0,.75-.23.75-.68s-.23-.67-.75-.67H78.46Zm0-2.51h1.45c.4,0,.58-.15.58-.47s-.08-.49-.63-.49h-1.4Z"/><path class="cls-2" d="M71.93,31c-1.57,0-2.59-1.19-2.59-3.05s1.08-3.05,2.62-3.05a2.25,2.25,0,0,1,2.17,1.32l0,.07L73,26.87l0-.06a1,1,0,0,0-1-.59c-.79,0-1.29.68-1.29,1.76s.52,1.77,1.3,1.77a1.13,1.13,0,0,0,1.06-.7l0-.06,1.08.64,0,.06A2.27,2.27,0,0,1,71.93,31"/><polygon class="cls-2" points="64.03 30.94 62.74 30.94 62.74 25.02 66.99 25.02 66.99 26.29 64.03 26.29 64.03 27.24 65.76 27.24 65.76 28.5 64.03 28.5 64.03 30.94"/><path class="cls-6" d="M51.27,23.81c2.17-5,3-11.45-.67-17.74a16.48,16.48,0,0,0,2.84.26c3.74,0,6.68-.34,10-2.22a16.77,16.77,0,0,0,8.94,2.6,16.85,16.85,0,0,0,9-2.6c3.31,1.88,6.25,2.22,10,2.22a15.93,15.93,0,0,0,2.86-.27c-3.67,6.3-2.86,12.74-.69,17.75Z"/><path class="cls-7" d="M72.2,6.71v17.1h2.26V6.58a17.46,17.46,0,0,1-2.08.13H72.2"/><path class="cls-8" d="M74.46,23.81h2.26V6.13a16.43,16.43,0,0,1-2.26.45Z"/><path class="cls-7" d="M76.72,23.81H79V5.34a15.77,15.77,0,0,1-2.25.79Z"/><path class="cls-8" d="M79,23.81h2.26V4.18A17.85,17.85,0,0,1,79,5.34Z"/><path class="cls-7" d="M81.23,4.18V23.81h2.26V5.14a17.39,17.39,0,0,1-2.15-1,.41.41,0,0,1-.11.07"/><path class="cls-8" d="M83.49,23.81h2.26v-18a16.24,16.24,0,0,1-2.26-.69Z"/><path class="cls-7" d="M85.75,23.81H88V6.19a16.89,16.89,0,0,1-2.26-.36Z"/><path class="cls-8" d="M88,23.78h2.26V6.29c-.78,0-1.53,0-2.26-.12Z"/><path class="cls-7" d="M94,6.08a14.84,14.84,0,0,1-2.68.25H90.27V23.81h3.24c-2.14-4.93-3-11.24.51-17.45Z"/><path class="cls-8" d="M59.33,18v5.8h6.28V18h6.7V11.69h-6.7V5.26a19.69,19.69,0,0,1-2.18-1.15,15.52,15.52,0,0,1-4.1,1.65v5.93H52.75A18.75,18.75,0,0,1,52.93,18Z"/><path class="cls-2" d="M94.57,5.79l-.41.08a15.28,15.28,0,0,1-2.82.27c-3.82,0-6.67-.36-9.9-2.19l-.1-.06L81.25,4a16.64,16.64,0,0,1-8.87,2.57A16.62,16.62,0,0,1,63.53,4l-.09-.06-.1.06c-3.24,1.83-6.08,2.19-9.9,2.19a15.47,15.47,0,0,1-2.81-.26l-.4-.07.2.36c3.92,6.74,2.52,13.27.66,17.56L51,24H93.8l-.12-.27c-1.86-4.29-3.25-10.82.67-17.58ZM51,6.32a15.42,15.42,0,0,0,2.48.2c3.85,0,6.72-.36,10-2.19A17,17,0,0,0,72.12,6.9V23.62H51.56A19.32,19.32,0,0,0,51,6.32m42.26,17.3H72.5V6.9a17.12,17.12,0,0,0,8.85-2.57c3.27,1.83,6.14,2.19,10,2.19a15.22,15.22,0,0,0,2.49-.21,19.35,19.35,0,0,0-.61,17.31"/><path class="cls-6" d="M2.51,94.52V90H1.58V88.78h.93V84.49H6a4.13,4.13,0,0,1,3,1.18,4,4,0,0,1,1.19,3v1.66a4,4,0,0,1-1.19,3,4.16,4.16,0,0,1-3,1.17ZM6.21,90H4.52V93H5.85a2.1,2.1,0,0,0,1.7-.73,2.83,2.83,0,0,0,.61-1.9V88.66a2.84,2.84,0,0,0-.61-1.89A2.1,2.1,0,0,0,5.85,86H4.52v2.74H6.21Z"/><path class="cls-6" d="M19.82,90.41a4.19,4.19,0,0,1-1.17,3,4,4,0,0,1-3,1.2,4,4,0,0,1-3-1.2,4.23,4.23,0,0,1-1.16-3V88.6a4.22,4.22,0,0,1,1.16-3,4,4,0,0,1,3-1.21,4,4,0,0,1,3,1.21,4.19,4.19,0,0,1,1.17,3Zm-5-8.72h1.65l2,1.74v0H16.7l-1-1-1,1H12.8l0,0Zm3,6.91a3,3,0,0,0-.59-1.93,1.92,1.92,0,0,0-1.61-.75,1.88,1.88,0,0,0-1.59.75,3.16,3.16,0,0,0-.56,1.93v1.82A3.13,3.13,0,0,0,14,92.36a1.88,1.88,0,0,0,1.59.75,1.91,1.91,0,0,0,1.61-.75,3.07,3.07,0,0,0,.58-1.94Zm1.12-8.18h1.86l-1.48,1.87h-1.4Z"/><path class="cls-6" d="M23.53,94.52h-2v-10h2Z"/><path class="cls-6" d="M36,86H33.14v8.48h-2V86H28.3V84.49H36Z"/><path class="cls-6" d="M41.79,92.36H38.27l-.69,2.16h-2l3.45-10h2.06l3.44,10h-2Zm-3-1.58h2.53l-1.24-3.94h0Zm1.66-8.84h2.12l0,0-1.91,1.79H39Z"/><path class="cls-6" d="M53,91.1l0,.05a3.24,3.24,0,0,1-1,2.56,4,4,0,0,1-2.82,1,3.89,3.89,0,0,1-2.94-1.16,4.12,4.12,0,0,1-1.13-3v-2a4.21,4.21,0,0,1,1.1-3,3.77,3.77,0,0,1,2.87-1.17,4.15,4.15,0,0,1,2.9,1,3.25,3.25,0,0,1,1,2.6v0h-2a2.25,2.25,0,0,0-.47-1.52,1.9,1.9,0,0,0-1.48-.52,1.68,1.68,0,0,0-1.44.73,3.13,3.13,0,0,0-.53,1.87v2a3,3,0,0,0,.56,1.88,1.8,1.8,0,0,0,1.51.73,1.75,1.75,0,0,0,1.39-.5,2.17,2.17,0,0,0,.46-1.51Z"/><path class="cls-6" d="M64.89,86H62.06v8.48H60V86H57.22V84.49h7.67Z"/><path class="cls-6" d="M74.12,94.52h-2V90.35H68v4.17H66v-10h2V88.8h4.09V84.49h2Z"/><path class="cls-6" d="M83.94,84.49v1.25h0A1.2,1.2,0,0,0,84.8,85,4.23,4.23,0,0,0,85,83.45h1.49A4.38,4.38,0,0,1,85.9,86a2.74,2.74,0,0,1-2,1.11v4.08a3.19,3.19,0,0,1-1.12,2.6,4.45,4.45,0,0,1-2.92.91,4.38,4.38,0,0,1-2.9-.91,3.18,3.18,0,0,1-1.11-2.6V84.49h2v6.65a1.92,1.92,0,0,0,.53,1.48,2,2,0,0,0,1.46.49,2.14,2.14,0,0,0,1.48-.48,1.91,1.91,0,0,0,.54-1.49V84.49Z"/><path class="cls-6" d="M94.09,90.41a4.19,4.19,0,0,1-1.17,3,4,4,0,0,1-3,1.2,4,4,0,0,1-3-1.2,4.23,4.23,0,0,1-1.16-3V88.6a4.21,4.21,0,0,1,1.15-3,4,4,0,0,1,3-1.21,4.47,4.47,0,0,1,1.7.32,4.1,4.1,0,0,1,1.35.9A1.74,1.74,0,0,0,94,84.83a2.58,2.58,0,0,0,.37-1.45h1.49a4,4,0,0,1-.55,2.2,3,3,0,0,1-1.59,1.23,5.13,5.13,0,0,1,.26.87,4.7,4.7,0,0,1,.09.92Zm-2-1.81a3,3,0,0,0-.59-1.93,1.93,1.93,0,0,0-1.61-.75,1.88,1.88,0,0,0-1.59.75,3.1,3.1,0,0,0-.57,1.93v1.82a3.13,3.13,0,0,0,.58,1.94,1.88,1.88,0,0,0,1.59.75,1.92,1.92,0,0,0,1.61-.75,3.13,3.13,0,0,0,.58-1.94Z"/><path class="cls-6" d="M104.05,94.52h-2L98,87.67h0v6.85h-2v-10h2l4,6.85h0V84.49h2Z"/><path class="cls-6" d="M113.63,93.15a3.72,3.72,0,0,1-1.4,1,5.39,5.39,0,0,1-2.39.46,4.1,4.1,0,0,1-3-1.14,4,4,0,0,1-1.17-3V88.46a4.12,4.12,0,0,1,1.12-3,3.88,3.88,0,0,1,2.89-1.14,4,4,0,0,1,2.8.89,3.11,3.11,0,0,1,1,2.34l0,0h-1.89a2,2,0,0,0-.51-1.27,1.78,1.78,0,0,0-1.33-.46,1.81,1.81,0,0,0-1.49.71,2.89,2.89,0,0,0-.56,1.83v2.11a2.81,2.81,0,0,0,.58,1.85,1.93,1.93,0,0,0,1.58.71A3.5,3.5,0,0,0,111,93a1.73,1.73,0,0,0,.65-.36V90.76h-1.78V89.37h3.79Z"/><path class="cls-6" d="M121.49,84.49l2.56,7.39h0l2.58-7.39h2.63v10h-2v-3l.19-4.43h0l-2.69,7.42H123.4l-2.67-7.4h0l.19,4.4v3h-2v-10Z"/><path class="cls-6" d="M136.56,92.36H133l-.68,2.16h-2l3.45-10h2.06l3.44,10h-2Zm-3-1.58h2.53l-1.24-3.94h0ZM135.88,97h-2.26V95.3h2.26Z"/><path class="cls-6" d="M142.34,94.52h-2v-10h2Z"/><path class="cls-6" d="M7.87,105.21v0a3.25,3.25,0,0,1-1,2.57,4,4,0,0,1-2.82,1,3.89,3.89,0,0,1-2.94-1.16,4.15,4.15,0,0,1-1.13-3v-2a4.21,4.21,0,0,1,1.1-3A3.77,3.77,0,0,1,4,98.46a4.11,4.11,0,0,1,2.9,1,3.25,3.25,0,0,1,1,2.6v0h-2a2.23,2.23,0,0,0-.47-1.52A1.9,1.9,0,0,0,4,100a1.69,1.69,0,0,0-1.44.73A3.13,3.13,0,0,0,2,102.61v2a3,3,0,0,0,.56,1.88,1.8,1.8,0,0,0,1.51.73,1.75,1.75,0,0,0,1.39-.5,2.17,2.17,0,0,0,.46-1.51Z"/><path class="cls-6" d="M17.42,108.63h-2v-4.17H11.32v4.17h-2v-10h2v4.31h4.09V98.6h2Z"/><path class="cls-6" d="M20.78,96.05h2.13v0L21,97.88h-1.6Zm.65,12.58h-2v-10h2Z"/><path class="cls-6" d="M31.54,108.63h-2l-4.05-6.85h0v6.85h-2v-10h2l4.05,6.85h0V98.6h2Z"/><path class="cls-6" d="M41.53,108.63h-2v-4.17H35.44v4.17h-2v-10h2v4.31h4.09V98.6h2Z"/><path class="cls-6" d="M53.85,100.15H51v8.48H49v-8.48H46.18V98.6h7.67Z"/><path class="cls-6" d="M63.08,108.63h-2v-4.17H57v4.17H55v-10h2v4.31h4.09V98.6h2Z"/><path class="cls-6" d="M72.9,98.6v1.25h0a1.17,1.17,0,0,0,.82-.71A4.23,4.23,0,0,0,74,97.56h1.49a4.38,4.38,0,0,1-.63,2.51,2.74,2.74,0,0,1-2,1.11v4.07a3.2,3.2,0,0,1-1.12,2.61,4.45,4.45,0,0,1-2.92.91,4.38,4.38,0,0,1-2.9-.91,3.19,3.19,0,0,1-1.11-2.61V98.6h2v6.65a1.94,1.94,0,0,0,.53,1.48,2,2,0,0,0,1.46.49,2.14,2.14,0,0,0,1.48-.48,1.93,1.93,0,0,0,.54-1.49V98.6Zm-3.58-2.55h2.12l0,0-1.91,1.79H67.94Z"/><path class="cls-6" d="M82.59,105.21v0a3.25,3.25,0,0,1-1,2.57,4.47,4.47,0,0,1-5.76-.21,4.15,4.15,0,0,1-1.13-3v-2a4.21,4.21,0,0,1,1.1-3,3.77,3.77,0,0,1,2.87-1.17,4.15,4.15,0,0,1,2.91,1,3.28,3.28,0,0,1,1,2.6v0h-2a2.18,2.18,0,0,0-.47-1.52,1.9,1.9,0,0,0-1.48-.52,1.67,1.67,0,0,0-1.43.73,3.07,3.07,0,0,0-.53,1.87v2a3,3,0,0,0,.55,1.88,1.81,1.81,0,0,0,1.51.73,1.77,1.77,0,0,0,1.4-.5,2.21,2.21,0,0,0,.45-1.51Z"/><path class="cls-6" d="M95.12,105.21v0a3.25,3.25,0,0,1-1,2.57,4,4,0,0,1-2.82,1,3.89,3.89,0,0,1-2.94-1.16,4.15,4.15,0,0,1-1.13-3v-2a4.21,4.21,0,0,1,1.1-3,3.77,3.77,0,0,1,2.87-1.17,4.11,4.11,0,0,1,2.9,1,3.25,3.25,0,0,1,1,2.6v0h-2a2.23,2.23,0,0,0-.47-1.52,1.9,1.9,0,0,0-1.48-.52,1.69,1.69,0,0,0-1.44.73,3.13,3.13,0,0,0-.53,1.87v2a3,3,0,0,0,.56,1.88,1.8,1.8,0,0,0,1.51.73,1.75,1.75,0,0,0,1.39-.5,2.17,2.17,0,0,0,.46-1.51Z"/><path class="cls-6" d="M104.5,98.6v6.65a3.2,3.2,0,0,1-1.12,2.61,4.45,4.45,0,0,1-2.92.91,4.38,4.38,0,0,1-2.9-.91,3.19,3.19,0,0,1-1.11-2.61V98.6h2v6.65a1.94,1.94,0,0,0,.53,1.48,2,2,0,0,0,1.46.49,2.14,2.14,0,0,0,1.48-.48,1.93,1.93,0,0,0,.54-1.49V98.6Zm-4.78-.9-.11-.94a2,2,0,0,0,.73-.12.28.28,0,0,0,.18-.31v0a.31.31,0,0,0-.22-.35,1.94,1.94,0,0,0-.72-.11l0-.91a4.25,4.25,0,0,1,2,.35,1.1,1.1,0,0,1,.68,1,.86.86,0,0,1-.3.69,1.46,1.46,0,0,1-.74.31v.44Z"/><path class="cls-6" d="M111.46,106.47h-3.52l-.68,2.16h-2l3.45-10h2.06l3.43,10h-2Zm-3-1.58H111L109.72,101h0Z"/><path class="cls-6" d="M126.19,105.21l0,0a3.32,3.32,0,0,1-1,2.57,4,4,0,0,1-2.82,1,3.89,3.89,0,0,1-2.94-1.16,4.11,4.11,0,0,1-1.13-3v-2a4.17,4.17,0,0,1,1.1-3,3.75,3.75,0,0,1,2.86-1.17,4.15,4.15,0,0,1,2.91,1,3.25,3.25,0,0,1,1,2.6v0h-2a2.18,2.18,0,0,0-.48-1.52,1.89,1.89,0,0,0-1.48-.52,1.67,1.67,0,0,0-1.43.73,3.13,3.13,0,0,0-.53,1.87v2a3,3,0,0,0,.56,1.88,1.78,1.78,0,0,0,1.51.73,1.75,1.75,0,0,0,1.39-.5,2.21,2.21,0,0,0,.45-1.51Z"/><path class="cls-6" d="M133,106.47H129.5l-.68,2.16h-2l3.45-10h2.06l3.44,10h-2Zm.73-9v.15h-1.59l-1-.91-1,.91h-1.56v-.17l1.94-1.66h1.17ZM130,104.89h2.53L131.28,101h0Z"/><path class="cls-6" d="M144.6,98.6v6.65a3.19,3.19,0,0,1-1.11,2.61,4.47,4.47,0,0,1-2.92.91,4.43,4.43,0,0,1-2.91-.91,3.21,3.21,0,0,1-1.1-2.61V98.6h2v6.65a1.9,1.9,0,0,0,.53,1.48,2,2,0,0,0,1.46.49,2.16,2.16,0,0,0,1.48-.48,2,2,0,0,0,.53-1.49V98.6Z"/><path class="cls-6" d="M30.52,121.19H35v1.55H28.51v-10h2Z"/><path class="cls-6" d="M41.67,120.57H38.15l-.68,2.17h-2l3.45-10H41l3.43,10h-2Zm-3-1.57h2.53l-1.24-3.94h0ZM41,125.18H38.73v-1.66H41Z"/><path class="cls-6" d="M52.89,119.32v0a3.25,3.25,0,0,1-1,2.57,4.47,4.47,0,0,1-5.76-.21,4.15,4.15,0,0,1-1.13-3v-2a4.21,4.21,0,0,1,1.1-3A3.73,3.73,0,0,1,49,112.57a4.15,4.15,0,0,1,2.91,1,3.32,3.32,0,0,1,1,2.6l0,0H51a2.18,2.18,0,0,0-.48-1.52,1.91,1.91,0,0,0-1.48-.53,1.67,1.67,0,0,0-1.43.74,3.07,3.07,0,0,0-.53,1.87v2a3,3,0,0,0,.55,1.88,2,2,0,0,0,2.91.23,2.21,2.21,0,0,0,.45-1.51Z"/><path class="cls-6" d="M57.85,122.74v-10h3.39a4.77,4.77,0,0,1,2.76.69,2.34,2.34,0,0,1,1,2.06,2.14,2.14,0,0,1-1.44,2.06,2.14,2.14,0,0,1,1.35.83,2.46,2.46,0,0,1,.45,1.47A2.58,2.58,0,0,1,64.4,122a4.31,4.31,0,0,1-2.69.74Zm2-5.83H61.3a2,2,0,0,0,1.24-.33,1.13,1.13,0,0,0,.44-1,1.21,1.21,0,0,0-.44-1,2.15,2.15,0,0,0-1.3-.33H59.86Zm0,1.39v2.89h1.85a1.89,1.89,0,0,0,1.22-.35,1.25,1.25,0,0,0,.42-1,1.59,1.59,0,0,0-.36-1.12,1.46,1.46,0,0,0-1.13-.39Z"/><path class="cls-6" d="M75,118.63a4.21,4.21,0,0,1-1.17,3.05,4.4,4.4,0,0,1-6,0,4.24,4.24,0,0,1-1.16-3.05v-1.81a4.26,4.26,0,0,1,1.16-3,4,4,0,0,1,3-1.2,4.05,4.05,0,0,1,3,1.2,4.23,4.23,0,0,1,1.17,3Zm-1.62-7.16v.16h-1.6l-1-.92-1,.92H68.25v-.18l2-1.65h1.16ZM73,116.81a3,3,0,0,0-.58-1.92,2,2,0,0,0-1.62-.75,1.88,1.88,0,0,0-1.59.74,3.18,3.18,0,0,0-.56,1.93v1.82a3.14,3.14,0,0,0,.57,2,1.88,1.88,0,0,0,1.59.75,1.91,1.91,0,0,0,1.61-.75,3.08,3.08,0,0,0,.58-2Zm-1,8.42H69.65v-1.66H71.9Z"/><path class="cls-6" d="M80,122.74v-10h3.39a4.83,4.83,0,0,1,2.77.69,2.34,2.34,0,0,1,1,2.06,2.21,2.21,0,0,1-.37,1.24,2.18,2.18,0,0,1-1.07.82,2.14,2.14,0,0,1,1.35.83,2.46,2.46,0,0,1,.45,1.47,2.58,2.58,0,0,1-1,2.18,4.31,4.31,0,0,1-2.69.74Zm2-5.83H83.5a2,2,0,0,0,1.24-.33,1.13,1.13,0,0,0,.44-1,1.21,1.21,0,0,0-.44-1,2.16,2.16,0,0,0-1.31-.33H82.06Zm0,1.39v2.89h1.85a1.89,1.89,0,0,0,1.22-.35,1.25,1.25,0,0,0,.42-1,1.59,1.59,0,0,0-.36-1.12,1.47,1.47,0,0,0-1.13-.39Z"/><path class="cls-6" d="M97.16,118.63A4.21,4.21,0,0,1,96,121.68a4,4,0,0,1-3,1.2,4,4,0,0,1-3-1.2,4.24,4.24,0,0,1-1.16-3.05v-1.81a4.26,4.26,0,0,1,1.16-3,4,4,0,0,1,3-1.2,4.05,4.05,0,0,1,3,1.2,4.23,4.23,0,0,1,1.17,3Zm-2-1.82a3,3,0,0,0-.59-1.92,1.92,1.92,0,0,0-1.61-.75,1.88,1.88,0,0,0-1.59.74,3.11,3.11,0,0,0-.56,1.93v1.82a3.14,3.14,0,0,0,.57,2,1.88,1.88,0,0,0,1.59.75,1.92,1.92,0,0,0,1.61-.75,3.08,3.08,0,0,0,.58-2ZM93.32,110h2.13l0,0-1.91,1.79H92Z"/><path class="cls-6" d="M106.84,122.74h-2l-4-6.86h0v6.85h-2v-10h2l4.05,6.85h0v-6.84h2Z"/><path class="cls-6" d="M116.42,121.37a3.91,3.91,0,0,1-1.4,1,5.42,5.42,0,0,1-2.39.46,4.09,4.09,0,0,1-3-1.14,4,4,0,0,1-1.17-3v-2.09a4.06,4.06,0,0,1,1.12-3,3.87,3.87,0,0,1,2.88-1.14,4,4,0,0,1,2.81.89,3.1,3.1,0,0,1,1,2.34l0,0h-1.89a2,2,0,0,0-.51-1.26,2,2,0,0,0-2.82.25,2.82,2.82,0,0,0-.56,1.83v2.11a2.81,2.81,0,0,0,.58,1.85,1.93,1.93,0,0,0,1.58.71,3.85,3.85,0,0,0,1.13-.14,1.88,1.88,0,0,0,.65-.36V119h-1.78v-1.39h3.79Z"/><path class="cls-6" d="M22.42,136.85v-4.49h-.93v-1.25h.93v-4.29h3.44a4.13,4.13,0,0,1,3,1.17,4.05,4.05,0,0,1,1.2,3v1.66a4,4,0,0,1-1.2,3,4.13,4.13,0,0,1-3,1.17Zm3.69-4.49H24.43v2.94h1.33a2.13,2.13,0,0,0,1.7-.73,2.92,2.92,0,0,0,.61-1.91V131a2.86,2.86,0,0,0-.61-1.89,2.1,2.1,0,0,0-1.7-.73H24.43v2.74h1.68Z"/><path class="cls-6" d="M36.88,134.68H33.36l-.68,2.17h-2l3.45-10h2.06l3.44,10h-2Zm-3-1.57h2.53l-1.24-3.94h0Zm1.66-8.84h2.12l0,0-1.91,1.79h-1.6Z"/><path class="cls-6" d="M44,136.85v-10h3.39a4.77,4.77,0,0,1,2.76.69,2.34,2.34,0,0,1,1,2.06,2.15,2.15,0,0,1-.37,1.24,2.19,2.19,0,0,1-1.07.82,2.17,2.17,0,0,1,1.36.83,2.46,2.46,0,0,1,.45,1.47,2.61,2.61,0,0,1-.95,2.18,4.34,4.34,0,0,1-2.7.74Zm2-5.83H47.5a2,2,0,0,0,1.24-.33,1.13,1.13,0,0,0,.43-1,1.18,1.18,0,0,0-.44-1,2.13,2.13,0,0,0-1.3-.33H46.05Zm0,1.39v2.89H47.9a1.87,1.87,0,0,0,1.22-.35,1.25,1.25,0,0,0,.42-1,1.63,1.63,0,0,0-.35-1.12,1.47,1.47,0,0,0-1.13-.39Z"/><path class="cls-6" d="M58.47,134.68H55l-.68,2.17h-2l3.45-10h2.06l3.43,10h-2Zm-3-1.57H58l-1.24-3.94h0Z"/><path class="cls-6" d="M64.13,132.84v4h-2v-10H65.9a4.15,4.15,0,0,1,2.68.78,2.64,2.64,0,0,1,1,2.18,2.24,2.24,0,0,1-.4,1.34,2.9,2.9,0,0,1-1.2.9,2.11,2.11,0,0,1,1.28.87,2.79,2.79,0,0,1,.39,1.52v.74a3.84,3.84,0,0,0,.11.87,1.25,1.25,0,0,0,.39.68v.15H68.05a1.2,1.2,0,0,1-.36-.74,6.92,6.92,0,0,1-.08-1v-.71a1.62,1.62,0,0,0-.41-1.17,1.57,1.57,0,0,0-1.15-.41Zm0-1.55h1.74a1.89,1.89,0,0,0,1.26-.36,1.31,1.31,0,0,0,.42-1.06,1.46,1.46,0,0,0-.42-1.1,1.7,1.7,0,0,0-1.23-.4H64.13Z"/><path class="cls-6" d="M79,133.43l0,0A3.25,3.25,0,0,1,78,136a4,4,0,0,1-2.82,1,3.92,3.92,0,0,1-2.94-1.16,4.15,4.15,0,0,1-1.13-3v-2a4.22,4.22,0,0,1,1.1-3,3.77,3.77,0,0,1,2.87-1.17,4.11,4.11,0,0,1,2.9,1,3.24,3.24,0,0,1,1,2.6v0h-2a2.23,2.23,0,0,0-.47-1.52,1.91,1.91,0,0,0-1.48-.53,1.69,1.69,0,0,0-1.44.74,3.1,3.1,0,0,0-.53,1.86v2a3,3,0,0,0,.56,1.88,2,2,0,0,0,2.9.23,2.17,2.17,0,0,0,.46-1.51Z"/><path class="cls-6" d="M86.63,132.44H82.47v2.86h4.86v1.55H80.46v-10h6.85v1.55H82.47v2.52h4.16Z"/><path class="cls-6" d="M90.57,135.3H95v1.55H88.56v-10h2Z"/><path class="cls-6" d="M103.85,132.73a4.23,4.23,0,0,1-1.17,3.06,4,4,0,0,1-3,1.2,4,4,0,0,1-3-1.2,4.27,4.27,0,0,1-1.16-3.06v-1.8a4.24,4.24,0,0,1,1.16-3.05,4,4,0,0,1,3-1.21,4.06,4.06,0,0,1,3,1.21,4.21,4.21,0,0,1,1.17,3.05Zm-2-1.81a3,3,0,0,0-.59-1.92,1.9,1.9,0,0,0-1.61-.76,1.88,1.88,0,0,0-1.59.75,3.09,3.09,0,0,0-.56,1.93v1.82a3.14,3.14,0,0,0,.57,1.95,1.88,1.88,0,0,0,1.59.75,1.91,1.91,0,0,0,1.61-.75,3.08,3.08,0,0,0,.58-1.95Z"/><path class="cls-6" d="M113.53,136.85h-2l-4-6.86h0v6.85h-2v-10h2l4,6.84h0v-6.84h2Z"/><path class="cls-6" d="M120.79,134.68h-3.52l-.68,2.17h-2l3.45-10h2.06l3.44,10h-2Zm-3-1.57h2.53l-1.24-3.94h0Z"/></g></g></svg>