<?xml version="1.0" encoding="utf-8"?>
<!-- Generator: Adobe Illustrator 25.2.0, SVG Export Plug-In . SVG Version: 6.00 Build 0)  -->
<svg version="1.1" id="Layer_1" xmlns="http://www.w3.org/2000/svg" xmlns:xlink="http://www.w3.org/1999/xlink" x="0px" y="0px"
	 viewBox="0 0 448.2 71.8" style="enable-background:new 0 0 448.2 71.8;" xml:space="preserve">
<style type="text/css">
	.st0{fill:#00BE40;}
	.st1{fill:#FFFFFF;}
	.st2{fill:#E8B909;}
	.st3{fill:#FFDD00;}
	.st4{fill:#0054A4;}
	.st5{fill:#A30046;}
	.st6{fill:#E31937;}
	.st7{fill:#231F20;}
</style>
<g>
	<g>
		<path class="st0" d="M7,0h57.8c3.8,0,7,3.1,7,7c0,0,0,0,0,0v57.8c0,3.8-3.1,7-7,7c0,0,0,0,0,0H7c-3.8,0-7-3.1-7-7c0,0,0,0,0,0V7
			C0,3.1,3.1,0,7,0C7,0,7,0,7,0"/>
		<rect x="14.2" y="45.4" class="st1" width="43.4" height="3.4"/>
		<polygon class="st1" points="26.1,28.2 26.1,24.7 14.2,24.7 14.2,41.1 18.6,41.1 18.6,35.2 25.3,35.2 25.3,31.7 18.6,31.7 
			18.6,28.2 		"/>
		<path class="st1" d="M39,32.6c1.5-0.5,2.6-2,2.6-3.6c0-2.6-2-4.2-5.3-4.2H28v16.4h8.5c3.6,0,5.8-1.7,5.8-4.6
			C42.2,34.6,40.9,32.9,39,32.6 M32.3,28h3.3c1.2,0,1.9,0.6,1.9,1.6c0,1-0.7,1.6-1.9,1.6h-3.3V28z M35.9,37.7h-3.6v-3.3h3.7
			c1.2,0,1.9,0.6,1.9,1.7C37.8,37.2,37.1,37.7,35.9,37.7L35.9,37.7z"/>
		<path class="st1" d="M52.7,31.1l-2-0.3c-1.9-0.3-2.5-0.8-2.5-1.7s0.8-1.5,2.4-1.5c1.3-0.2,2.5,0.7,2.7,2c0,0,0,0,0,0l4.1-0.5
			c-0.6-3.2-2.9-4.8-6.7-4.8c-4.2,0-7,2.1-7,5.3c0,2.8,1.7,4.4,5.1,4.9l2.1,0.3c2.2,0.3,2.7,0.8,2.7,1.8s-0.8,1.5-2.7,1.5
			c-1.4,0.1-2.7-0.8-3.1-2.2l-4.3,0.6c0.7,3.3,3.2,4.9,7.3,4.9c4.6,0,7.3-2,7.3-5.3C58.1,33.2,56.4,31.7,52.7,31.1"/>
	</g>
	<g>
		<path class="st2" d="M180.7,1.1l0.4,0.2C185,4,188.2,4.4,193,4.4c1.8,0,3.6-0.3,5.3-0.9l0.5-0.2l2.3,3.2l-0.2,0.3
			c-8.5,11.3-1.9,23.4,2.8,28.3l0.4,0.4l-0.4,0.4c-0.6,0.6-1.7,1.7-2.5,2.5l-0.3,0.3l0,0.4l0,0.1c0,0.1,0,0.2,0,0.4l0,0.1
			c0.4,7.5-1.6,13.7-5.8,18.3c-4.5,4.9-11.6,7.9-20,8.4l-0.3,0l-0.2,0.2c-2.1,1.9-4.3,3.6-4.3,3.6l-0.4,0.3l-0.4-0.3
			c-0.1-0.1-2.2-1.7-4.3-3.6l-0.2-0.2l-0.3,0c-8.4-0.5-15.5-3.4-20-8.4c-4.2-4.7-6.2-10.8-5.8-18.3l0-0.1c0-0.2,0-0.3,0-0.4l0,0v0
			l0-0.1l0-0.4l-0.3-0.3c-0.7-0.8-1.8-1.9-2.5-2.5l-0.4-0.4l0.4-0.4c4.7-4.9,11.3-17,2.8-28.3l-0.2-0.3l2.3-3.2l0.5,0.2
			c1.7,0.6,3.5,0.9,5.3,0.9c4.8,0,8-0.5,11.9-3.1l0.4-0.2l0.4,0.2c3,2.3,6.7,3.5,10.5,3.5c3.8,0,7.5-1.3,10.5-3.5L180.7,1.1"/>
		<path class="st1" d="M144,28.9c2.7-6.1,3.6-13.9-0.8-21.5c1.1,0.2,2.3,0.3,3.5,0.3c4.6,0,8.2-0.4,12.2-2.7
			c3.3,2.1,7.1,3.1,10.9,3.2c3.9,0,7.7-1.1,10.9-3.2c4,2.3,7.6,2.7,12.2,2.7c1.2,0,2.3-0.1,3.5-0.3c-4.5,7.7-3.5,15.5-0.8,21.6H144"
			/>
		<path class="st3" d="M195.6,28.9C193,22.8,192,15,196.5,7.4c-1.1,0.2-2.3,0.3-3.5,0.3c-4.6,0-8.2-0.4-12.2-2.7
			c-3.3,2.1-7.1,3.1-10.9,3.2c0,0-0.1,0-0.1,0v20.8H195.6z"/>
		<path class="st4" d="M189.9,58.3c5.1-3.7,8.1-9.6,7.6-18.3c-0.1-0.5-0.1-0.5-0.1-1h-7.5V58.3z"/>
		<path class="st5" d="M181.9,62c2.9-0.7,5.6-2,8-3.7V39h-8V62z"/>
		<path class="st5" d="M149.7,58.3c2.4,1.7,5.2,3,8,3.7V39h-8V58.3z"/>
		<path class="st4" d="M142.1,40c-0.4,8.7,2.6,14.6,7.6,18.3V39h-7.5C142.2,39.5,142.1,39.5,142.1,40"/>
		<path class="st5" d="M169.8,43.3c1.4,0,2.8,0.4,4,1.2V39h-8v5.4C167,43.7,168.4,43.3,169.8,43.3"/>
		<path class="st5" d="M169.8,58.4c-1.4,0-2.8-0.4-4-1.2v6c0.1,0,0.3,0,0.4,0c2.7,0,5.1,0,7.2,0c0.1,0,0.3,0,0.4,0v-6
			C172.6,58,171.3,58.4,169.8,58.4"/>
		<path class="st4" d="M173.8,39v5.4c3.6,2.2,4.6,6.9,2.4,10.4c-0.6,1-1.5,1.8-2.4,2.4v6c2.7-0.1,5.4-0.5,8-1.2V39H173.8z"/>
		<path class="st4" d="M162.3,50.9c0-2.6,1.3-5,3.5-6.4V39h-8v23c2.6,0.7,5.3,1.1,8,1.2v-6C163.6,55.9,162.3,53.5,162.3,50.9"/>
		<path class="st6" d="M145.8,14.2c0.5,2.5,0.6,5.1,0.2,7.7h7.8v7h7.7v-7h8.2v-7.7h-8.2V6.4c-0.9-0.4-1.8-0.9-2.7-1.4
			c-1.6,0.9-3.3,1.6-5,2v7.2L145.8,14.2z"/>
		<path class="st6" d="M186.3,28.9V7.1c-0.9-0.2-1.9-0.5-2.8-0.8v22.6L186.3,28.9z"/>
		<path class="st6" d="M175.2,28.9V7.4c-0.9,0.3-1.8,0.4-2.8,0.6v20.9L175.2,28.9z"/>
		<path class="st6" d="M191.8,28.9V7.7c-1,0-1.9-0.1-2.8-0.1v21.4H191.8z"/>
		<path class="st6" d="M180.7,28.9V5c-0.9,0.5-1.8,1-2.8,1.4v22.5L180.7,28.9z"/>
		<path class="st7" d="M205.2,35.6l-1.1-1.1c-4.5-4.7-10.8-16.3-2.7-27.1l0.6-0.8L199,2.3l-1.1,0.4c-1.6,0.6-3.3,0.9-5,0.9
			c-4.6,0-7.7-0.5-11.4-2.9L180.7,0l-0.9,0.6c-2.9,2.2-6.4,3.3-10,3.4c-3.6,0-7.1-1.2-10-3.4L158.9,0l-0.9,0.6
			c-3.7,2.5-6.8,2.9-11.4,2.9c-1.7,0-3.4-0.3-5-0.9l-1.1-0.4l-3.1,4.3l0.6,0.8c8.1,10.8,1.8,22.4-2.7,27.1l-1.1,1.1l1.1,1.1
			c0.6,0.6,1.6,1.6,2.4,2.5c0,0,0,0.1,0,0.1c0,0.1,0,0.2,0,0.3l0,0.1c-0.4,7.8,1.6,14.2,6,19c4.7,5.1,12,8.2,20.6,8.7
			c2.1,1.9,4.3,3.6,4.4,3.6l0.9,0.7l0.9-0.7c0.1-0.1,2.3-1.7,4.4-3.6c8.6-0.5,15.9-3.5,20.6-8.7c4.4-4.8,6.4-11.2,6-19l0-0.1
			c0-0.1,0-0.2,0-0.3c0,0,0-0.1,0-0.1c0.8-0.9,1.9-2,2.4-2.5L205.2,35.6z M200.1,38.6c0.1,0.8,0,0.8,0.1,1.2
			c0.9,17.3-11.1,25.5-25.7,26.1c-2.2,2.1-4.7,3.9-4.7,3.9s-2.5-1.8-4.7-3.9c-14.6-0.6-26.6-8.8-25.7-26.1c0.1-0.5,0-0.4,0.1-1.2
			c-0.8-0.9-2.2-2.3-2.9-3.1c5.2-5.4,11.3-17.8,2.9-29.1l1.8-2.4c1.8,0.6,3.6,0.9,5.5,1c4.9,0,8.2-0.5,12.2-3.2
			c3.2,2.3,7,3.6,10.9,3.6c3.9,0,7.7-1.3,10.9-3.6C184.8,4.6,188.1,5,193,5c1.9,0,3.7-0.3,5.5-1l1.8,2.4
			c-8.5,11.2-2.4,23.7,2.9,29.1C202.4,36.3,201,37.7,200.1,38.6"/>
		<path class="st7" d="M142,39c0,0.3,0,0.4-0.1,0.5c0,0.1,0,0.3-0.1,0.5c-0.3,6.7,1.3,12,4.9,16c4.1,4.6,10.9,7.1,19.4,7.5l0.3,0
			c1.4,0,2.8,0,4.1,0c1,0,1.9,0,2.8,0c8.6-0.4,15.3-2.9,19.4-7.5c3.6-4,5.3-9.4,4.9-16c0-0.2,0-0.4-0.1-0.5c0-0.1,0-0.3-0.1-0.5
			l0-0.2H142L142,39z M142.3,40c0-0.2,0-0.3,0.1-0.5c0-0.1,0-0.2,0-0.4h54.8c0,0.1,0,0.2,0,0.4c0,0.1,0,0.2,0.1,0.4
			c0.3,6.5-1.3,11.8-4.8,15.7c-4.1,4.5-10.7,7-19.1,7.3c-2,0-4.3,0-6.9,0l-0.3,0c-8.4-0.3-15.1-2.9-19.1-7.3
			C143.6,51.8,142,46.6,142.3,40"/>
		<path class="st7" d="M143.8,28.8l-0.1,0.3H196l-0.1-0.3c-2.3-5.2-4-13.1,0.8-21.4l0.3-0.4l-0.5,0.1c-1.1,0.2-2.3,0.3-3.4,0.3
			c-4.7,0-8.1-0.4-12.1-2.7l-0.1-0.1l-0.1,0.1c-3.2,2-7,3.1-10.8,3.1c-3.8,0-7.6-1.1-10.8-3.1l-0.1-0.1l-0.1,0.1
			c-3.9,2.2-7.4,2.7-12.1,2.7c-1.2,0-2.3-0.1-3.4-0.3l-0.5-0.1l0.3,0.4C147.8,15.7,146.1,23.6,143.8,28.8 M170,8.4
			c3.8,0,7.6-1.1,10.8-3.1c4,2.2,7.5,2.7,12.2,2.7c1,0,2-0.1,3-0.3c-4.5,8.1-2.9,15.8-0.7,21H170L170,8.4z M143.7,7.7
			c1,0.2,2,0.2,3,0.2c4.7,0,8.2-0.4,12.2-2.7c3.2,2,6.9,3.1,10.6,3.1v20.3h-25.1C146.6,23.5,148.1,15.7,143.7,7.7"/>
		<polygon class="st7" points="163.2,31.9 163.2,30.4 158,30.4 158,37.6 159.6,37.6 159.6,34.6 161.7,34.6 161.7,33.1 159.6,33.1 
			159.6,31.9 		"/>
		<path class="st7" d="M169.3,31.8c0.5,0,1,0.3,1.2,0.7l0,0.1L172,32l0-0.1c-0.5-1-1.5-1.7-2.6-1.6c-1.9,0-3.2,1.5-3.2,3.7
			c0,2.2,1.2,3.7,3.1,3.7c1.1,0.1,2.2-0.6,2.7-1.6l0-0.1l-1.3-0.8l0,0.1c-0.2,0.5-0.7,0.9-1.3,0.9c-0.9,0-1.6-0.9-1.6-2.2
			C167.7,32.7,168.3,31.8,169.3,31.8"/>
		<path class="st7" d="M181.3,32.3c0-1.2-0.9-1.9-2.3-1.9h-3.3v7.2h3.3c1.2,0.2,2.4-0.7,2.6-1.9c0-0.1,0-0.3,0-0.4
			c0-0.6-0.3-1.2-0.9-1.5C181.1,33.4,181.3,32.9,181.3,32.3 M177.2,31.8h1.7c0.7,0,0.8,0.3,0.8,0.6c0,0.4-0.2,0.6-0.7,0.6h-1.8
			L177.2,31.8z M179,36.1h-1.8v-1.7h1.8c0.6,0,0.9,0.3,0.9,0.8C180,35.8,179.6,36.1,179,36.1"/>
		<path class="st7" d="M169.8,58.6c4.3,0,7.7-3.5,7.7-7.7s-3.5-7.7-7.7-7.7s-7.7,3.5-7.7,7.7v0C162.1,55.1,165.5,58.6,169.8,58.6
			 M169.8,58.1c-1.4,0-2.9-0.4-4.1-1.2c1.7,0,3.3-0.5,4.8-1.2c1.2-0.7,2.5-1.6,2.8-2.9c0.9-0.5,2.1-0.1,2.6,0.8
			c0.1,0.2,0.2,0.5,0.2,0.7C174.9,56.7,172.4,58.1,169.8,58.1 M166.2,52.5c0.4,0.3,0.8,0.4,1.3,0.5c1.2,0,2.3-0.8,2.5-2
			c0.7-0.6,1.8-0.6,2.5,0.1c0.1,0.2,0.2,0.3,0.3,0.5c0.6,1.5-0.7,2.6-2.4,3.7c-1.6,0.8-3.4,1.2-5.2,1.2c-0.8-0.7-1.5-1.5-1.9-2.4
			c0.1,0,0.1,0,0.2,0C164.6,54,165.6,53.5,166.2,52.5 M165,48.8c0.1-1.4,0.3-2.7,0.7-4c1-0.7,2.2-1.1,3.4-1.2
			c-0.8,0.8-0.7,2.1,0.1,2.9c0,0,0.1,0.1,0.1,0.1c-0.2,0.2-0.4,0.4-0.5,0.6c-0.8,1.3-0.5,3,0.8,3.8c-0.2,0.9-1.1,1.6-2,1.6
			C165.9,52.3,165.1,50.7,165,48.8 M173.4,52.3c0-0.3-0.1-0.6-0.2-0.8c-0.4-1.1-1.7-1.7-2.8-1.2c-0.2,0.1-0.4,0.2-0.6,0.3
			c-1-0.7-1.3-2.1-0.6-3.2c0.8-1.3,2.8-0.8,4.5,0.2c1.5,0.9,2.7,2.3,3.3,4c-0.1,0.8-0.3,1.5-0.6,2.2
			C176.1,52.5,174.7,51.8,173.4,52.3C173.5,52.3,173.4,52.3,173.4,52.3 M173.9,47.1c-1.3-0.7-2.9-1.4-4.1-0.9
			c-0.7-0.5-1-1.5-0.5-2.2c0.1-0.2,0.3-0.4,0.6-0.5c3.8,0,7,3,7.2,6.8C176.3,49,175.2,47.9,173.9,47.1 M165.2,45.2
			c-0.1,0.5-0.3,1-0.4,1.5c-0.4,1.7-0.4,4.3,1,5.6c-0.5,0.9-1.4,1.4-2.4,1.4c-0.1,0-0.3,0-0.4,0C161.8,50.6,162.7,47.2,165.2,45.2"
			/>
	</g>
	<rect x="102.6" y="0" class="st7" width="1" height="71.8"/>
</g>
<g>
	<path d="M235.9,24.8v-5.5h-1.1v-1.5h1.1v-5.2h4.2c1.4,0,2.7,0.5,3.7,1.4c1,1,1.5,2.3,1.5,3.7v2c0.1,1.4-0.5,2.7-1.5,3.7
		c-1,1-2.3,1.5-3.7,1.4L235.9,24.8z M240.4,19.3h-2.1v3.6h1.6c0.8,0,1.6-0.3,2.1-0.9c0.5-0.7,0.8-1.5,0.7-2.3v-2
		c0-0.8-0.2-1.7-0.7-2.3c-0.5-0.6-1.3-0.9-2.1-0.9h-1.6v3.3h2.1V19.3z"/>
	<path d="M257.1,19.7c0,1.4-0.5,2.7-1.4,3.7c-1,1-2.3,1.5-3.7,1.5c-1.4,0.1-2.7-0.5-3.7-1.5c-1-1-1.5-2.3-1.4-3.7v-2.2
		c0-1.4,0.5-2.7,1.4-3.7c1-1,2.3-1.5,3.7-1.5c1.4-0.1,2.7,0.5,3.7,1.5c1,1,1.5,2.3,1.4,3.7L257.1,19.7z M251,9.1h2l2.5,2.1l0,0.1
		h-2.2l-1.3-1.2l-1.3,1.2h-2.2l0-0.1L251,9.1z M254.6,17.5c0-0.8-0.2-1.7-0.7-2.4c-0.5-0.6-1.2-1-2-0.9c-0.8,0-1.5,0.3-1.9,0.9
		c-0.5,0.7-0.7,1.5-0.7,2.4v2.2c0,0.8,0.2,1.7,0.7,2.4c0.5,0.6,1.2,1,1.9,0.9c0.8,0,1.5-0.3,2-0.9c0.5-0.7,0.7-1.5,0.7-2.4V17.5z
		 M256,7.5h2.3l-1.8,2.3h-1.7L256,7.5z"/>
	<rect x="259.1" y="12.5" width="2.5" height="12.2"/>
	<polygon points="276.8,14.4 273.3,14.4 273.3,24.8 270.9,24.8 270.9,14.4 267.4,14.4 267.4,12.5 276.8,12.5 	"/>
	<path d="M284.7,22.1h-4.3l-0.8,2.6h-2.5l4.2-12.2h2.5l4.2,12.2h-2.5L284.7,22.1z M281,20.2h3.1l-1.5-4.8h0L281,20.2z M283.1,9.4
		h2.6l0,0.1l-2.3,2.2h-2L283.1,9.4z"/>
	<path d="M298.4,20.6L298.4,20.6c0.1,1.2-0.3,2.4-1.2,3.2c-1,0.8-2.2,1.2-3.4,1.2c-1.3,0.1-2.6-0.5-3.6-1.4c-0.9-1-1.4-2.3-1.4-3.7
		v-2.4c-0.1-1.3,0.4-2.7,1.3-3.7c0.9-1,2.2-1.5,3.5-1.4c1.3-0.1,2.6,0.3,3.5,1.2c0.9,0.8,1.3,2,1.2,3.2l0,0h-2.4
		c0-0.7-0.2-1.3-0.6-1.9c-0.5-0.5-1.1-0.7-1.8-0.6c-0.7,0-1.4,0.3-1.7,0.9c-0.5,0.7-0.7,1.5-0.6,2.3v2.4c0,0.8,0.2,1.6,0.7,2.3
		c0.4,0.6,1.1,0.9,1.8,0.9c0.6,0.1,1.3-0.2,1.7-0.6c0.4-0.5,0.6-1.2,0.6-1.8L298.4,20.6z"/>
	<polygon points="312.9,14.4 309.5,14.4 309.5,24.8 307,24.8 307,14.4 303.6,14.4 303.6,12.5 312.9,12.5 	"/>
	<polygon points="324.2,24.8 321.8,24.8 321.8,19.7 316.8,19.7 316.8,24.8 314.3,24.8 314.3,12.5 316.8,12.5 316.8,17.8 321.8,17.8 
		321.8,12.5 324.2,12.5 	"/>
	<path d="M336.2,12.5V14l0.1,0c0.5-0.1,0.8-0.4,1-0.9c0.2-0.6,0.3-1.3,0.3-1.9h1.8c0.1,1.1-0.2,2.1-0.8,3.1
		c-0.6,0.8-1.4,1.3-2.4,1.4v5c0.1,1.2-0.4,2.4-1.4,3.2c-1,0.8-2.3,1.2-3.6,1.1c-1.3,0.1-2.5-0.3-3.5-1.1c-0.9-0.8-1.4-2-1.4-3.2
		v-8.1h2.5v8.1c-0.1,0.7,0.2,1.3,0.6,1.8c0.5,0.4,1.1,0.6,1.8,0.6c0.7,0,1.3-0.2,1.8-0.6c0.5-0.5,0.7-1.1,0.7-1.8v-8.1L336.2,12.5z"
		/>
	<path d="M348.6,19.7c0,1.4-0.5,2.7-1.4,3.7c-1,1-2.3,1.5-3.7,1.5c-1.4,0.1-2.7-0.5-3.7-1.5c-1-1-1.5-2.3-1.4-3.7v-2.2
		c0-1.4,0.5-2.7,1.4-3.7c1-1,2.3-1.5,3.7-1.5c0.7,0,1.4,0.1,2.1,0.4c0.6,0.3,1.2,0.6,1.6,1.1c0.5-0.1,1-0.4,1.3-0.9
		c0.3-0.5,0.5-1.1,0.5-1.8h1.8c0,0.9-0.2,1.9-0.7,2.7c-0.5,0.7-1.1,1.2-1.9,1.5c0.1,0.3,0.2,0.7,0.3,1.1c0.1,0.4,0.1,0.8,0.1,1.1
		L348.6,19.7z M346.1,17.5c0-0.8-0.2-1.7-0.7-2.4c-0.5-0.6-1.2-1-2-0.9c-0.8,0-1.5,0.3-1.9,0.9c-0.5,0.7-0.7,1.5-0.7,2.4v2.2
		c0,0.8,0.2,1.7,0.7,2.4c0.5,0.6,1.2,1,1.9,0.9c0.8,0,1.5-0.3,2-0.9c0.5-0.7,0.7-1.5,0.7-2.4L346.1,17.5z"/>
	<polygon points="360.8,24.8 358.3,24.8 353.4,16.4 353.3,16.4 353.3,24.8 350.9,24.8 350.9,12.5 353.3,12.5 358.3,20.9 358.3,20.9 
		358.3,12.5 360.8,12.5 	"/>
	<path d="M372.5,23.1c-0.5,0.6-1,1-1.7,1.3c-0.9,0.4-1.9,0.6-2.9,0.6c-1.4,0.1-2.7-0.5-3.7-1.4c-1-1-1.5-2.3-1.4-3.6v-2.6
		c-0.1-1.3,0.4-2.6,1.4-3.6c0.9-0.9,2.2-1.4,3.5-1.4c1.2-0.1,2.5,0.3,3.4,1.1c0.8,0.7,1.2,1.8,1.2,2.9l0,0H370
		c0-0.6-0.2-1.1-0.6-1.5c-0.4-0.4-1-0.6-1.6-0.6c-0.7,0-1.4,0.3-1.8,0.9c-0.5,0.6-0.7,1.4-0.7,2.2v2.6c0,0.8,0.2,1.6,0.7,2.3
		c0.5,0.6,1.2,0.9,1.9,0.9c0.5,0,0.9,0,1.4-0.2c0.3-0.1,0.6-0.2,0.8-0.4v-2.3h-2.2v-1.7h4.6L372.5,23.1z"/>
	<polygon points="382.1,12.5 385.2,21.5 385.2,21.5 388.4,12.5 391.6,12.5 391.6,24.8 389.1,24.8 389.1,21.1 389.4,15.7 389.3,15.7 
		386,24.8 384.4,24.8 381.1,15.7 381.1,15.7 381.3,21.1 381.3,24.8 378.9,24.8 378.9,12.5 	"/>
	<path d="M400.5,22.1h-4.3l-0.8,2.6h-2.5l4.2-12.2h2.5l4.2,12.2h-2.5L400.5,22.1z M396.8,20.2h3.1l-1.5-4.8h0L396.8,20.2z
		 M399.6,27.7h-2.8v-2h2.8V27.7z"/>
	<rect x="405.1" y="12.5" width="2.5" height="12.2"/>
	<path d="M244.9,37.8L244.9,37.8c0.1,1.2-0.3,2.4-1.2,3.2c-1,0.8-2.2,1.2-3.4,1.2c-1.3,0.1-2.6-0.5-3.6-1.4c-0.9-1-1.4-2.3-1.4-3.7
		v-2.4c-0.1-1.3,0.4-2.7,1.3-3.7c0.9-1,2.2-1.5,3.5-1.4c1.3-0.1,2.6,0.3,3.6,1.2c0.9,0.8,1.3,2,1.2,3.2l0,0h-2.4
		c0-0.7-0.2-1.3-0.6-1.9c-0.5-0.5-1.1-0.7-1.8-0.6c-0.7,0-1.4,0.3-1.7,0.9c-0.5,0.7-0.7,1.5-0.6,2.3v2.4c0,0.8,0.2,1.6,0.7,2.3
		c0.4,0.6,1.1,0.9,1.8,0.9c0.6,0.1,1.3-0.2,1.7-0.6c0.4-0.5,0.6-1.2,0.6-1.8L244.9,37.8z"/>
	<polygon points="256.6,42 254.1,42 254.1,36.9 249.1,36.9 249.1,42 246.7,42 246.7,29.7 249.1,29.7 249.1,35 254.1,35 254.1,29.7 
		256.6,29.7 	"/>
	<path d="M260.7,26.6h2.6l0,0.1l-2.3,2.2h-2L260.7,26.6z M261.5,42H259V29.7h2.5V42z"/>
	<polygon points="273.8,42 271.4,42 266.4,33.6 266.4,33.6 266.4,42 263.9,42 263.9,29.7 266.4,29.7 271.3,38.1 271.4,38.1 
		271.4,29.7 273.8,29.7 	"/>
	<polygon points="286,42 283.6,42 283.6,36.9 278.6,36.9 278.6,42 276.1,42 276.1,29.7 278.6,29.7 278.6,35 283.6,35 283.6,29.7 
		286,29.7 	"/>
	<polygon points="301.1,31.6 297.6,31.6 297.6,42 295.2,42 295.2,31.6 291.7,31.6 291.7,29.7 301.1,29.7 	"/>
	<polygon points="312.4,42 309.9,42 309.9,36.9 304.9,36.9 304.9,42 302.5,42 302.5,29.7 304.9,29.7 304.9,35 309.9,35 309.9,29.7 
		312.4,29.7 	"/>
	<path d="M324.3,29.7v1.5l0,0c0.5-0.1,0.8-0.4,1-0.9c0.2-0.6,0.3-1.3,0.3-1.9h1.8c0.1,1.1-0.2,2.1-0.8,3.1c-0.6,0.8-1.4,1.3-2.4,1.4
		v5c0.1,1.2-0.4,2.4-1.4,3.2c-1,0.8-2.3,1.2-3.6,1.1c-1.3,0.1-2.5-0.3-3.5-1.1c-0.9-0.8-1.4-2-1.4-3.2v-8.1h2.5v8.1
		c-0.1,0.7,0.2,1.3,0.6,1.8c0.5,0.4,1.1,0.6,1.8,0.6c0.7,0,1.3-0.2,1.8-0.6c0.5-0.5,0.7-1.1,0.7-1.8v-8.1L324.3,29.7z M320,26.6h2.6
		l0,0.1l-2.3,2.2h-2L320,26.6z"/>
	<path d="M336.2,37.8L336.2,37.8c0.1,1.2-0.3,2.4-1.2,3.2c-1,0.8-2.2,1.2-3.4,1.2c-1.3,0.1-2.6-0.5-3.6-1.4c-0.9-1-1.4-2.3-1.4-3.7
		v-2.4c-0.1-1.3,0.4-2.7,1.3-3.7c0.9-1,2.2-1.5,3.5-1.4c1.3-0.1,2.6,0.3,3.5,1.2c0.9,0.8,1.3,2,1.2,3.2l0,0h-2.4
		c0-0.7-0.2-1.3-0.6-1.9c-0.5-0.5-1.1-0.7-1.8-0.6c-0.7,0-1.4,0.3-1.7,0.9c-0.5,0.7-0.7,1.5-0.6,2.3v2.4c0,0.8,0.2,1.6,0.7,2.3
		c0.4,0.6,1.1,0.9,1.8,0.9c0.6,0.1,1.3-0.2,1.7-0.6c0.4-0.5,0.6-1.2,0.6-1.8L336.2,37.8z"/>
	<path d="M351.5,37.8L351.5,37.8c0.1,1.2-0.3,2.4-1.2,3.2c-1,0.8-2.2,1.2-3.4,1.2c-1.3,0.1-2.6-0.5-3.6-1.4c-0.9-1-1.4-2.3-1.4-3.7
		v-2.4c-0.1-1.3,0.4-2.7,1.3-3.7c0.9-1,2.2-1.5,3.5-1.4c1.3-0.1,2.6,0.3,3.5,1.2c0.9,0.8,1.3,2,1.2,3.2l0,0h-2.4
		c0-0.7-0.2-1.3-0.6-1.9c-0.5-0.5-1.1-0.7-1.8-0.6c-0.7,0-1.4,0.3-1.7,0.9c-0.5,0.7-0.7,1.5-0.6,2.3v2.4c0,0.8,0.2,1.6,0.7,2.3
		c0.4,0.6,1.1,0.9,1.8,0.9c0.6,0.1,1.3-0.2,1.7-0.6c0.4-0.5,0.6-1.2,0.6-1.8L351.5,37.8z"/>
	<path d="M362.9,29.7v8.1c0.1,1.2-0.4,2.4-1.4,3.2c-1,0.8-2.3,1.2-3.6,1.1c-1.3,0.1-2.5-0.3-3.5-1.1c-0.9-0.8-1.4-2-1.3-3.2v-8.1
		h2.5v8.1c-0.1,0.7,0.2,1.3,0.6,1.8c0.5,0.4,1.1,0.6,1.8,0.6c0.7,0,1.3-0.2,1.8-0.6c0.5-0.5,0.7-1.1,0.7-1.8v-8.1L362.9,29.7z
		 M357.1,28.6l-0.1-1.2c0.3,0,0.6,0,0.9-0.2c0.2-0.1,0.3-0.2,0.2-0.4v-0.1c0-0.2-0.1-0.4-0.3-0.4c-0.3-0.1-0.6-0.1-0.9-0.1l0.1-1.1
		c0.8,0,1.6,0.1,2.4,0.4c0.5,0.2,0.8,0.7,0.8,1.2c0,0.3-0.1,0.6-0.4,0.8c-0.3,0.2-0.6,0.3-0.9,0.4v0.5L357.1,28.6z"/>
	<path d="M371.6,39.3h-4.3l-0.8,2.6H364l4.2-12.2h2.5L375,42h-2.5L371.6,39.3z M367.9,37.4h3.1l-1.5-4.8h-0.1L367.9,37.4z"/>
	<path d="M389.6,37.8L389.6,37.8c0.1,1.2-0.3,2.4-1.2,3.2c-1,0.8-2.2,1.2-3.4,1.2c-1.3,0.1-2.6-0.5-3.6-1.4c-0.9-1-1.4-2.3-1.4-3.7
		v-2.4c-0.1-1.3,0.4-2.7,1.3-3.7c0.9-1,2.2-1.5,3.5-1.4c1.3-0.1,2.6,0.3,3.5,1.2c0.9,0.8,1.3,2,1.2,3.2l0,0h-2.4
		c0-0.7-0.2-1.3-0.6-1.9c-0.5-0.5-1.1-0.7-1.8-0.6c-0.7,0-1.4,0.3-1.7,0.9c-0.5,0.7-0.7,1.5-0.6,2.3v2.4c0,0.8,0.2,1.6,0.7,2.3
		c0.4,0.6,1.1,0.9,1.8,0.9c0.6,0.1,1.3-0.2,1.7-0.6c0.4-0.5,0.6-1.2,0.6-1.8L389.6,37.8z"/>
	<path d="M398,39.3h-4.3l-0.8,2.6h-2.5l4.2-12.2h2.5l4.2,12.2h-2.5L398,39.3z M398.9,28.4v0.2h-2l-1.2-1.1l-1.2,1.1h-1.9v-0.2l2.4-2
		h1.4L398.9,28.4z M394.3,37.4h3.1l-1.5-4.8h-0.1L394.3,37.4z"/>
	<path d="M412.1,29.7v8.1c0.1,1.2-0.4,2.4-1.4,3.2c-1,0.8-2.3,1.2-3.6,1.1c-1.3,0.1-2.5-0.3-3.5-1.1c-0.9-0.8-1.4-2-1.4-3.2v-8.1
		h2.5v8.1c-0.1,0.7,0.2,1.3,0.6,1.8c0.5,0.4,1.1,0.6,1.8,0.6c0.7,0,1.3-0.2,1.8-0.6c0.5-0.5,0.7-1.1,0.7-1.8v-8.1L412.1,29.7z"/>
	<polygon points="421,40.1 426.5,40.1 426.5,42 418.6,42 418.6,29.7 421,29.7 	"/>
	<path d="M434.4,39.3h-4.3l-0.8,2.6h-2.5l4.2-12.2h2.5l4.2,12.2h-2.5L434.4,39.3z M430.7,37.4h3.1l-1.5-4.8h0L430.7,37.4z M433.6,45
		h-2.8v-2h2.8V45z"/>
	<path d="M448.1,37.8L448.1,37.8c0.1,1.2-0.3,2.4-1.2,3.2c-1,0.8-2.2,1.2-3.4,1.2c-1.3,0.1-2.6-0.5-3.6-1.4c-0.9-1-1.4-2.3-1.4-3.7
		v-2.4c-0.1-1.3,0.4-2.7,1.3-3.7c0.9-1,2.2-1.5,3.5-1.4c1.3-0.1,2.6,0.3,3.5,1.2c0.9,0.8,1.3,2,1.2,3.2l0,0h-2.4
		c0-0.7-0.2-1.3-0.6-1.9c-0.5-0.5-1.1-0.7-1.8-0.6c-0.7,0-1.4,0.3-1.7,0.9c-0.5,0.7-0.7,1.5-0.6,2.3v2.4c0,0.8,0.2,1.6,0.7,2.3
		c0.4,0.6,1.1,0.9,1.8,0.9c0.6,0.1,1.3-0.2,1.7-0.6c0.4-0.5,0.6-1.2,0.6-1.8L448.1,37.8z"/>
	<path d="M235.7,59.2V47h4.1c1.2-0.1,2.4,0.2,3.4,0.8c0.8,0.6,1.3,1.5,1.2,2.5c0,0.5-0.1,1.1-0.4,1.5c-0.3,0.5-0.8,0.8-1.3,1
		c0.7,0.1,1.3,0.5,1.7,1c0.4,0.5,0.6,1.2,0.6,1.8c0.1,1-0.4,2-1.2,2.7c-1,0.7-2.1,1-3.3,0.9L235.7,59.2z M238.1,52.1h1.8
		c0.5,0,1.1-0.1,1.5-0.4c0.4-0.3,0.6-0.7,0.5-1.2c0-0.5-0.2-0.9-0.5-1.3c-0.5-0.3-1-0.4-1.6-0.4h-1.7L238.1,52.1z M238.1,53.8v3.5
		h2.3c0.5,0,1.1-0.1,1.5-0.4c0.4-0.3,0.5-0.8,0.5-1.3c0-0.5-0.1-1-0.4-1.4c-0.4-0.3-0.9-0.5-1.4-0.5L238.1,53.8z"/>
	<path d="M256.6,54.2c0,1.4-0.5,2.7-1.4,3.7c-1,1-2.3,1.5-3.7,1.5c-1.4,0.1-2.7-0.5-3.7-1.5c-1-1-1.5-2.3-1.4-3.7V52
		c0-1.4,0.5-2.7,1.4-3.7c1-1,2.3-1.5,3.7-1.5c1.4-0.1,2.7,0.5,3.7,1.5c1,1,1.5,2.3,1.4,3.7L256.6,54.2z M254.6,45.5v0.2h-2l-1.2-1.1
		l-1.2,1.1h-1.9v-0.2l2.4-2h1.4L254.6,45.5z M254.1,52c0-0.8-0.2-1.7-0.7-2.4c-0.5-0.6-1.2-1-2-0.9c-0.8,0-1.5,0.3-1.9,0.9
		c-0.5,0.7-0.7,1.5-0.7,2.4v2.2c0,0.8,0.2,1.7,0.7,2.4c0.5,0.6,1.2,1,1.9,0.9c0.8,0,1.5-0.3,2-0.9c0.5-0.7,0.7-1.5,0.7-2.4L254.1,52
		z M252.8,62.3h-2.8v-2h2.8V62.3z"/>
	<path d="M262.8,59.2V47h4.1c1.2-0.1,2.4,0.2,3.4,0.8c0.8,0.6,1.3,1.5,1.2,2.5c0,0.5-0.1,1.1-0.5,1.5c-0.3,0.5-0.8,0.8-1.3,1
		c0.7,0.1,1.3,0.5,1.7,1c0.4,0.5,0.6,1.2,0.6,1.8c0.1,1-0.4,2-1.2,2.7c-1,0.7-2.1,1-3.3,0.9L262.8,59.2z M265.2,52.1h1.8
		c0.5,0,1.1-0.1,1.5-0.4c0.4-0.3,0.6-0.7,0.5-1.2c0-0.5-0.2-0.9-0.5-1.3c-0.5-0.3-1-0.4-1.6-0.4h-1.7V52.1z M265.2,53.8v3.5h2.3
		c0.5,0,1.1-0.1,1.5-0.4c0.4-0.3,0.5-0.8,0.5-1.3c0-0.5-0.1-1-0.4-1.4c-0.4-0.3-0.9-0.5-1.4-0.5L265.2,53.8z"/>
	<path d="M283.7,54.2c0,1.4-0.5,2.7-1.4,3.7c-1,1-2.3,1.5-3.7,1.5c-1.4,0.1-2.7-0.5-3.7-1.5c-1-1-1.5-2.3-1.4-3.7V52
		c0-1.4,0.5-2.7,1.4-3.7c1-1,2.3-1.5,3.7-1.5c1.4-0.1,2.7,0.5,3.7,1.5c1,1,1.5,2.3,1.4,3.7V54.2z M281.2,52c0-0.8-0.2-1.7-0.7-2.4
		c-0.5-0.6-1.2-1-2-0.9c-0.8,0-1.5,0.3-1.9,0.9c-0.5,0.7-0.7,1.5-0.7,2.4v2.2c0,0.8,0.2,1.7,0.7,2.4c0.5,0.6,1.2,1,1.9,0.9
		c0.8,0,1.5-0.3,2-0.9c0.5-0.7,0.7-1.5,0.7-2.4V52z M279,43.7h2.6l0,0.1l-2.3,2.2h-2L279,43.7z"/>
	<polygon points="295.5,59.2 293.1,59.2 288.1,50.8 288.1,50.9 288.1,59.2 285.6,59.2 285.6,47 288.1,47 293,55.3 293.1,55.3 
		293.1,47 295.5,47 	"/>
	<path d="M307.2,57.5c-0.5,0.6-1,1-1.7,1.3c-0.9,0.4-1.9,0.6-2.9,0.6c-1.4,0.1-2.7-0.5-3.7-1.4c-1-1-1.5-2.3-1.4-3.6v-2.6
		c-0.1-1.3,0.4-2.6,1.4-3.6c0.9-0.9,2.2-1.4,3.5-1.4c1.2-0.1,2.5,0.3,3.4,1.1c0.8,0.7,1.2,1.8,1.2,2.9l0,0h-2.3
		c0-0.6-0.2-1.1-0.6-1.5c-0.4-0.4-1-0.6-1.6-0.6c-0.7,0-1.4,0.3-1.8,0.9c-0.5,0.6-0.7,1.4-0.7,2.2v2.6c0,0.8,0.2,1.6,0.7,2.3
		c0.5,0.6,1.2,0.9,1.9,0.9c0.5,0,0.9,0,1.4-0.2c0.3-0.1,0.6-0.2,0.8-0.4v-2.3h-2.2v-1.7h4.6L307.2,57.5z"/>
	<path d="M313.9,59.2v-5.5h-1.1v-1.5h1.1V47h4.2c1.4,0,2.7,0.5,3.7,1.4c1,1,1.5,2.3,1.5,3.7v2c0.1,1.4-0.5,2.7-1.5,3.7
		c-1,1-2.3,1.5-3.7,1.4H313.9z M318.4,53.7h-2.1v3.6h1.6c0.8,0,1.6-0.3,2.1-0.9c0.5-0.7,0.8-1.5,0.7-2.3v-2c0-0.8-0.2-1.7-0.7-2.3
		c-0.5-0.6-1.3-0.9-2.1-0.9h-1.6v3.3h2.1V53.7z"/>
	<path d="M331.7,56.6h-4.3l-0.8,2.6h-2.5l4.2-12.2h2.5l4.2,12.2h-2.5L331.7,56.6z M328,54.6h3.1l-1.5-4.8h0L328,54.6z M330,43.9h2.6
		l0,0.1l-2.3,2.2h-2L330,43.9z"/>
	<path d="M340.5,59.2V47h4.1c1.2-0.1,2.4,0.2,3.4,0.8c0.8,0.6,1.3,1.5,1.2,2.5c0,0.5-0.1,1.1-0.5,1.5c-0.3,0.5-0.8,0.8-1.3,1
		c0.7,0.1,1.3,0.5,1.7,1c0.4,0.5,0.6,1.2,0.6,1.8c0.1,1-0.4,2-1.2,2.7c-1,0.7-2.1,1-3.3,0.9L340.5,59.2z M342.9,52.1h1.8
		c0.5,0,1.1-0.1,1.5-0.4c0.4-0.3,0.6-0.7,0.5-1.2c0-0.5-0.2-0.9-0.5-1.3c-0.5-0.3-1-0.4-1.6-0.4h-1.7V52.1z M342.9,53.8v3.5h2.3
		c0.5,0,1.1-0.1,1.5-0.4c0.4-0.3,0.5-0.8,0.5-1.3c0-0.5-0.1-1-0.4-1.4c-0.4-0.3-0.9-0.5-1.4-0.5L342.9,53.8z"/>
	<path d="M358.1,56.6h-4.3l-0.8,2.6h-2.5l4.2-12.2h2.5l4.2,12.2h-2.5L358.1,56.6z M354.4,54.6h3.1l-1.5-4.8h-0.1L354.4,54.6z"/>
	<path d="M365,54.3v4.9h-2.5V47h4.6c1.2-0.1,2.3,0.3,3.3,1c0.8,0.6,1.2,1.6,1.2,2.7c0,0.6-0.2,1.2-0.5,1.6c-0.4,0.5-0.9,0.9-1.5,1.1
		c0.6,0.2,1.2,0.5,1.6,1.1c0.3,0.6,0.5,1.2,0.5,1.8v0.9c0,0.4,0,0.7,0.1,1.1c0.1,0.3,0.2,0.6,0.5,0.8v0.2h-2.5
		c-0.3-0.2-0.4-0.6-0.4-0.9c-0.1-0.4-0.1-0.8-0.1-1.2v-0.9c0-0.5-0.1-1-0.5-1.4c-0.4-0.4-0.9-0.5-1.4-0.5L365,54.3z M365,52.4h2.1
		c0.5,0,1.1-0.1,1.5-0.4c0.4-0.3,0.5-0.8,0.5-1.3c0-0.5-0.2-1-0.5-1.3c-0.4-0.4-1-0.5-1.5-0.5H365V52.4z"/>
	<path d="M383.2,55L383.2,55c0.1,1.2-0.3,2.4-1.2,3.2c-1,0.8-2.2,1.2-3.4,1.2c-1.3,0.1-2.6-0.5-3.6-1.4c-0.9-1-1.4-2.3-1.4-3.7v-2.4
		c-0.1-1.3,0.4-2.7,1.3-3.7c0.9-1,2.2-1.5,3.5-1.4c1.3-0.1,2.6,0.3,3.5,1.2c0.9,0.8,1.3,2,1.2,3.2l0,0h-2.4c0-0.7-0.2-1.3-0.6-1.9
		c-0.5-0.5-1.1-0.7-1.8-0.6c-0.7,0-1.4,0.3-1.7,0.9c-0.5,0.7-0.7,1.5-0.6,2.3v2.4c0,0.8,0.2,1.6,0.7,2.3c0.4,0.6,1.1,0.9,1.8,0.9
		c0.6,0.1,1.3-0.2,1.7-0.6c0.4-0.5,0.6-1.2,0.6-1.8L383.2,55z"/>
	<polygon points="392.5,53.8 387.4,53.8 387.4,57.3 393.3,57.3 393.3,59.2 384.9,59.2 384.9,47 393.3,47 393.3,48.9 387.4,48.9 
		387.4,51.9 392.5,51.9 	"/>
	<polygon points="397.3,57.3 402.7,57.3 402.7,59.2 394.8,59.2 394.8,47 397.3,47 	"/>
	<path d="M414,54.2c0,1.4-0.5,2.7-1.4,3.7c-1,1-2.3,1.5-3.7,1.5c-1.4,0.1-2.7-0.5-3.7-1.5c-1-1-1.5-2.3-1.4-3.7V52
		c0-1.4,0.5-2.7,1.4-3.7c1-1,2.3-1.5,3.7-1.5c1.4-0.1,2.7,0.5,3.7,1.5c1,1,1.5,2.3,1.4,3.7V54.2z M411.5,52c0-0.8-0.2-1.7-0.7-2.4
		c-0.5-0.6-1.2-1-2-0.9c-0.8,0-1.5,0.3-1.9,0.9c-0.5,0.7-0.7,1.5-0.7,2.4v2.2c0,0.8,0.2,1.7,0.7,2.4c0.5,0.6,1.2,1,1.9,0.9
		c0.8,0,1.5-0.3,2-0.9c0.5-0.7,0.7-1.5,0.7-2.4V52z"/>
	<polygon points="425.8,59.2 423.4,59.2 418.4,50.8 418.4,50.9 418.4,59.2 415.9,59.2 415.9,47 418.4,47 423.3,55.3 423.4,55.3 
		423.4,47 425.8,47 	"/>
	<path d="M434.7,56.6h-4.3l-0.8,2.6h-2.5l4.2-12.2h2.5l4.2,12.2h-2.5L434.7,56.6z M431,54.6h3.1l-1.5-4.8h-0.1L431,54.6z"/>
</g>
</svg>
