<?xml version="1.0" encoding="utf-8"?>
<!-- Generator: Adobe Illustrator 25.2.0, SVG Export Plug-In . SVG Version: 6.00 Build 0)  -->
<svg version="1.1" id="ARTE" xmlns="http://www.w3.org/2000/svg" xmlns:xlink="http://www.w3.org/1999/xlink" x="0px" y="0px"
	 viewBox="0 0 280.9 115.5" style="enable-background:new 0 0 280.9 115.5;" xml:space="preserve">
<style type="text/css">
	.st0{fill:#FFFFFF;}
	.st1{fill:#E7B809;}
	.st2{fill:#FFDD00;}
	.st3{fill:#0055A3;}
	.st4{fill:#A30046;}
	.st5{fill:#E21936;}
	.st6{fill:#231F20;}
	.st7{fill:#00BE40;}
</style>
<g>
	<path class="st0" d="M1,97.6v-4.8H0v-1.3h1v-4.6h3.7c1.2,0,2.4,0.4,3.3,1.3c0.9,0.9,1.3,2,1.3,3.2v1.8c0,1.2-0.4,2.4-1.3,3.2
		c-0.9,0.8-2,1.3-3.3,1.3L1,97.6z M5,92.8H3.2v3.2h1.4c0.7,0,1.4-0.3,1.8-0.8c0.5-0.6,0.7-1.3,0.7-2.1v-1.8c0-0.7-0.2-1.5-0.7-2
		c-0.5-0.5-1.1-0.8-1.8-0.8H3.2v2.9H5V92.8z"/>
	<path class="st0" d="M19.6,93.2c0,1.2-0.4,2.4-1.3,3.3c-0.9,0.9-2,1.3-3.3,1.3c-1.2,0-2.4-0.4-3.2-1.3c-0.8-0.9-1.3-2.1-1.2-3.3
		v-1.9c0-1.2,0.4-2.4,1.2-3.3c0.8-0.9,2-1.3,3.2-1.3c1.2,0,2.4,0.4,3.3,1.3c0.8,0.9,1.3,2.1,1.3,3.3V93.2z M14.3,83.8H16l2.2,1.9
		l0,0h-1.9l-1.1-1.1L14,85.7h-1.9l0,0L14.3,83.8z M17.5,91.2c0-0.7-0.2-1.5-0.6-2.1c-0.4-0.5-1.1-0.8-1.7-0.8
		c-0.7,0-1.3,0.3-1.7,0.8c-0.4,0.6-0.6,1.3-0.6,2.1v2c0,0.7,0.2,1.5,0.6,2.1c0.4,0.5,1,0.8,1.7,0.8c0.7,0,1.3-0.3,1.7-0.8
		c0.4-0.6,0.7-1.3,0.6-2.1V91.2z M18.7,82.4h2l-1.6,2h-1.5L18.7,82.4z"/>
	<rect x="21.5" y="86.8" class="st0" width="2.2" height="10.8"/>
	<polygon class="st0" points="37,88.5 34,88.5 34,97.6 31.8,97.6 31.8,88.5 28.8,88.5 28.8,86.8 37,86.8 	"/>
	<path class="st0" d="M44,95.3h-3.8l-0.7,2.3h-2.2L41,86.8h2.2l3.7,10.8h-2.2L44,95.3z M40.8,93.6h2.7l-1.3-4.2h0L40.8,93.6z
		 M42.5,84.1h2.3l0,0L42.8,86h-1.7L42.5,84.1z"/>
	<path class="st0" d="M56.1,93.9L56.1,93.9c0.1,1.1-0.3,2.1-1,2.8c-0.8,0.7-1.9,1.1-3,1c-1.2,0-2.3-0.4-3.2-1.3
		c-0.8-0.9-1.3-2-1.2-3.2v-2.1c0-1.2,0.4-2.3,1.2-3.2c0.8-0.8,1.9-1.3,3.1-1.3c1.1-0.1,2.3,0.3,3.1,1c0.8,0.7,1.2,1.7,1.1,2.8l0,0
		H54c0-0.6-0.1-1.2-0.5-1.6c-0.4-0.4-1-0.6-1.6-0.6c-0.6,0-1.2,0.3-1.5,0.8c-0.4,0.6-0.6,1.3-0.6,2v2.2c0,0.7,0.2,1.4,0.6,2
		c0.4,0.5,1,0.8,1.6,0.8c0.6,0,1.1-0.2,1.5-0.5c0.4-0.5,0.5-1,0.5-1.6H56.1z"/>
	<polygon class="st0" points="68.9,88.5 65.8,88.5 65.8,97.6 63.7,97.6 63.7,88.5 60.6,88.5 60.6,86.8 68.9,86.8 	"/>
	<polygon class="st0" points="78.8,97.6 76.6,97.6 76.6,93.1 72.2,93.1 72.2,97.6 70.1,97.6 70.1,86.8 72.2,86.8 72.2,91.4 
		76.6,91.4 76.6,86.8 78.8,86.8 	"/>
	<path class="st0" d="M89.4,86.8v1.3l0,0c0.4-0.1,0.7-0.4,0.9-0.8c0.2-0.5,0.3-1.1,0.3-1.7h1.6c0.1,0.9-0.2,1.9-0.7,2.7
		c-0.5,0.7-1.3,1.1-2.1,1.2V94c0.1,1.1-0.4,2.1-1.2,2.8c-0.9,0.7-2,1-3.1,1c-1.1,0.1-2.2-0.3-3.1-1c-0.8-0.7-1.3-1.7-1.2-2.8v-7.2
		h2.2V94c0,0.6,0.2,1.2,0.6,1.6c0.4,0.4,1,0.6,1.6,0.5c0.6,0,1.1-0.2,1.6-0.5c0.4-0.4,0.6-1,0.6-1.6v-7.2L89.4,86.8z"/>
	<path class="st0" d="M100.3,93.2c0,1.2-0.4,2.4-1.3,3.3c-0.9,0.9-2,1.3-3.3,1.3c-1.2,0-2.4-0.4-3.2-1.3c-0.8-0.9-1.3-2.1-1.2-3.3
		v-1.9c0-1.2,0.4-2.4,1.2-3.3c0.8-0.9,2-1.3,3.2-1.3c0.6,0,1.3,0.1,1.8,0.3c0.5,0.2,1,0.6,1.4,1c0.5-0.1,0.9-0.4,1.2-0.8
		c0.3-0.5,0.4-1,0.4-1.6h1.6c0,0.8-0.2,1.6-0.6,2.4c-0.4,0.6-1,1.1-1.7,1.3c0.1,0.3,0.2,0.6,0.3,0.9c0.1,0.3,0.1,0.7,0.1,1
		L100.3,93.2z M98.1,91.2c0-0.7-0.2-1.5-0.6-2.1c-0.4-0.5-1.1-0.8-1.7-0.8c-0.7,0-1.3,0.3-1.7,0.8c-0.4,0.6-0.6,1.3-0.6,2.1v2
		c0,0.7,0.2,1.5,0.6,2.1c0.4,0.5,1,0.8,1.7,0.8c0.7,0,1.3-0.3,1.7-0.8c0.4-0.6,0.7-1.3,0.6-2.1V91.2z"/>
	<polygon class="st0" points="111,97.6 108.9,97.6 104.5,90.2 104.5,90.2 104.5,97.6 102.3,97.6 102.3,86.8 104.5,86.8 108.8,94.2 
		108.9,94.2 108.9,86.8 111,86.8 	"/>
	<path class="st0" d="M121.3,96.1c-0.4,0.5-0.9,0.9-1.5,1.1c-0.8,0.4-1.7,0.5-2.6,0.5c-1.2,0-2.4-0.4-3.2-1.2
		c-0.8-0.8-1.3-2-1.3-3.2v-2.3c0-1.2,0.4-2.3,1.2-3.2c0.8-0.8,1.9-1.3,3.1-1.2c1.1-0.1,2.2,0.3,3,1c0.7,0.6,1.1,1.6,1.1,2.5l0,0h-2
		c0-0.5-0.2-1-0.5-1.4c-0.4-0.4-0.9-0.5-1.4-0.5c-0.6,0-1.2,0.3-1.6,0.8c-0.4,0.6-0.6,1.3-0.6,2v2.3c0,0.7,0.2,1.4,0.6,2
		c0.4,0.5,1,0.8,1.7,0.8c0.4,0,0.8,0,1.2-0.2c0.3-0.1,0.5-0.2,0.7-0.4v-2h-1.9V92h4.1V96.1z"/>
	<polygon class="st0" points="129.8,86.8 132.5,94.8 132.6,94.8 135.4,86.8 138.2,86.8 138.2,97.6 136,97.6 136,94.4 136.2,89.6 
		136.2,89.6 133.3,97.6 131.8,97.6 129,89.6 128.9,89.6 129.1,94.4 129.1,97.6 127,97.6 127,86.8 	"/>
	<path class="st0" d="M146,95.3h-3.8l-0.7,2.3h-2.2l3.7-10.8h2.2l3.7,10.8h-2.2L146,95.3z M142.7,93.6h2.7l-1.3-4.2h0L142.7,93.6z
		 M145.3,100.2h-2.4v-1.8h2.4V100.2z"/>
	<rect x="150.1" y="86.8" class="st0" width="2.2" height="10.8"/>
	<path class="st0" d="M166.3,93.9L166.3,93.9c0.1,1.1-0.3,2.1-1,2.8c-0.8,0.7-1.9,1.1-3,1c-1.2,0-2.3-0.4-3.2-1.3
		c-0.8-0.9-1.3-2-1.2-3.2v-2.1c0-1.2,0.4-2.3,1.2-3.2c0.8-0.8,1.9-1.3,3.1-1.3c1.1-0.1,2.3,0.3,3.1,1c0.8,0.7,1.2,1.7,1.1,2.8l0,0
		h-2.1c0-0.6-0.1-1.2-0.5-1.6c-0.4-0.4-1-0.6-1.6-0.6c-0.6,0-1.2,0.3-1.5,0.8c-0.4,0.6-0.6,1.3-0.6,2v2.2c0,0.7,0.2,1.4,0.6,2
		c0.4,0.5,1,0.8,1.6,0.8c0.6,0,1.1-0.2,1.5-0.5c0.4-0.5,0.5-1,0.5-1.6H166.3z"/>
	<polygon class="st0" points="176.6,97.6 174.4,97.6 174.4,93.1 170,93.1 170,97.6 167.9,97.6 167.9,86.8 170,86.8 170,91.4 
		174.4,91.4 174.4,86.8 176.6,86.8 	"/>
	<path class="st0" d="M180.2,84.1h2.3l0,0l-2.1,1.9h-1.7L180.2,84.1z M180.9,97.6h-2.2V86.8h2.2V97.6z"/>
	<polygon class="st0" points="191.8,97.6 189.6,97.6 185.3,90.2 185.2,90.2 185.2,97.6 183.1,97.6 183.1,86.8 185.2,86.8 
		189.6,94.2 189.6,94.2 189.6,86.8 191.8,86.8 	"/>
	<polygon class="st0" points="202.5,97.6 200.4,97.6 200.4,93.1 196,93.1 196,97.6 193.8,97.6 193.8,86.8 196,86.8 196,91.4 
		200.4,91.4 200.4,86.8 202.5,86.8 	"/>
	<polygon class="st0" points="215.8,88.5 212.7,88.5 212.7,97.6 210.6,97.6 210.6,88.5 207.5,88.5 207.5,86.8 215.8,86.8 	"/>
	<polygon class="st0" points="225.7,97.6 223.6,97.6 223.6,93.1 219.2,93.1 219.2,97.6 217,97.6 217,86.8 219.2,86.8 219.2,91.4 
		223.6,91.4 223.6,86.8 225.7,86.8 	"/>
	<path class="st0" d="M236.3,86.8v1.3l0,0c0.4-0.1,0.7-0.4,0.9-0.8c0.2-0.5,0.3-1.1,0.3-1.7h1.6c0.1,0.9-0.2,1.9-0.7,2.7
		c-0.5,0.7-1.3,1.1-2.1,1.2V94c0.1,1.1-0.4,2.1-1.2,2.8c-0.9,0.7-2,1-3.1,1c-1.1,0.1-2.2-0.3-3.1-1c-0.8-0.7-1.3-1.7-1.2-2.8v-7.2
		h2.2V94c0,0.6,0.2,1.2,0.6,1.6c0.4,0.4,1,0.6,1.6,0.5c0.6,0,1.1-0.2,1.6-0.5c0.4-0.4,0.6-1,0.6-1.6v-7.2L236.3,86.8z M232.4,84.1
		h2.3l0,0l-2.1,1.9H231L232.4,84.1z"/>
	<path class="st0" d="M246.7,93.9L246.7,93.9c0.1,1.1-0.3,2.1-1,2.8c-0.8,0.7-1.9,1.1-3,1c-1.2,0-2.3-0.4-3.2-1.3
		c-0.8-0.9-1.3-2-1.2-3.2v-2.1c0-1.2,0.4-2.3,1.2-3.2c0.8-0.8,1.9-1.3,3.1-1.3c1.1-0.1,2.3,0.3,3.1,1c0.8,0.7,1.2,1.7,1.1,2.8l0,0
		h-2.1c0-0.6-0.1-1.2-0.5-1.6c-0.4-0.4-1-0.6-1.6-0.6c-0.6,0-1.2,0.3-1.5,0.8c-0.4,0.6-0.6,1.3-0.6,2v2.2c0,0.7,0.2,1.4,0.6,2
		c0.4,0.5,1,0.8,1.6,0.8c0.6,0,1.1-0.2,1.5-0.5c0.4-0.5,0.5-1,0.5-1.6H246.7z"/>
	<path class="st0" d="M260.2,93.9L260.2,93.9c0.1,1.1-0.3,2.1-1,2.8c-0.8,0.7-1.9,1.1-3,1c-1.2,0-2.3-0.4-3.2-1.3
		c-0.8-0.9-1.3-2-1.2-3.2v-2.1c0-1.2,0.4-2.3,1.2-3.2c0.8-0.8,1.9-1.3,3.1-1.3c1.1-0.1,2.3,0.3,3.1,1c0.8,0.7,1.2,1.7,1.1,2.8l0,0
		h-2.1c0-0.6-0.1-1.2-0.5-1.6c-0.4-0.4-1-0.6-1.6-0.6c-0.6,0-1.2,0.3-1.5,0.8c-0.4,0.6-0.6,1.3-0.6,2v2.2c0,0.7,0.2,1.4,0.6,2
		c0.4,0.5,1,0.8,1.6,0.8c0.6,0,1.1-0.2,1.5-0.5c0.4-0.5,0.5-1,0.5-1.6H260.2z"/>
	<path class="st0" d="M270.3,86.8V94c0.1,1.1-0.4,2.1-1.2,2.8c-0.9,0.7-2,1-3.1,1c-1.1,0.1-2.2-0.3-3.1-1c-0.8-0.7-1.3-1.7-1.2-2.8
		v-7.2h2.2V94c0,0.6,0.2,1.2,0.6,1.6c0.4,0.4,1,0.6,1.6,0.5c0.6,0,1.1-0.2,1.6-0.5c0.4-0.4,0.6-1,0.6-1.6v-7.2H270.3z M265.2,85.8
		l-0.1-1c0.3,0,0.5,0,0.8-0.1c0.1,0,0.2-0.2,0.2-0.3v0c0-0.2-0.1-0.3-0.2-0.4c-0.2-0.1-0.5-0.1-0.8-0.1l0.1-1c0.7,0,1.4,0.1,2.1,0.4
		c0.4,0.2,0.7,0.6,0.7,1.1c0,0.3-0.1,0.6-0.3,0.7c-0.2,0.2-0.5,0.3-0.8,0.3v0.5H265.2z"/>
	<path class="st0" d="M278,95.3h-3.8l-0.7,2.3h-2.2l3.7-10.8h2.2l3.7,10.8h-2.2L278,95.3z M274.7,93.6h2.7l-1.3-4.2h0L274.7,93.6z"
		/>
	<path class="st0" d="M27.3,109.1L27.3,109.1c0.1,1.1-0.3,2.1-1,2.8c-0.8,0.7-1.9,1.1-3,1c-1.2,0-2.3-0.4-3.2-1.3
		c-0.8-0.9-1.3-2-1.2-3.2v-2.1c0-1.2,0.4-2.3,1.2-3.2c0.8-0.8,1.9-1.3,3.1-1.3c1.1-0.1,2.3,0.3,3.1,1c0.8,0.7,1.2,1.7,1.1,2.8l0,0
		h-2.1c0-0.6-0.1-1.2-0.5-1.6c-0.4-0.4-1-0.6-1.6-0.6c-0.6,0-1.2,0.3-1.5,0.8c-0.4,0.6-0.6,1.3-0.6,2v2.2c0,0.7,0.2,1.4,0.6,2
		c0.4,0.5,1,0.8,1.6,0.8c0.6,0,1.1-0.2,1.5-0.5c0.4-0.5,0.5-1,0.5-1.6H27.3z"/>
	<path class="st0" d="M34.7,110.4h-3.8l-0.7,2.3H28l3.7-10.8h2.2l3.7,10.8h-2.2L34.7,110.4z M35.5,100.8v0.2h-1.7l-1-1l-1,1H30v-0.2
		l2.1-1.8h1.3L35.5,100.8z M31.4,108.7h2.7l-1.3-4.2h0L31.4,108.7z"/>
	<path class="st0" d="M47.1,102v7.2c0.1,1.1-0.4,2.1-1.2,2.8c-0.9,0.7-2,1-3.1,1c-1.1,0.1-2.2-0.3-3.1-1c-0.8-0.7-1.3-1.7-1.2-2.8
		V102h2.2v7.2c0,0.6,0.2,1.2,0.6,1.6c0.4,0.4,1,0.6,1.6,0.5c0.6,0,1.1-0.2,1.6-0.5c0.4-0.4,0.6-1,0.6-1.6V102H47.1z"/>
	<polygon class="st0" points="55,111.1 59.8,111.1 59.8,112.8 52.8,112.8 52.8,102 55,102 	"/>
	<path class="st0" d="M66.8,110.4H63l-0.7,2.3h-2.2l3.7-10.8H66l3.7,10.8h-2.2L66.8,110.4z M63.5,108.7h2.7l-1.3-4.2h0L63.5,108.7z
		 M66.1,115.4h-2.4v-1.8h2.4V115.4z"/>
	<path class="st0" d="M78.9,109.1L78.9,109.1c0.1,1.1-0.3,2.1-1,2.8c-0.8,0.7-1.9,1.1-3,1c-1.2,0-2.3-0.4-3.2-1.3
		c-0.8-0.9-1.3-2-1.2-3.2v-2.1c0-1.2,0.4-2.3,1.2-3.2c0.8-0.8,1.9-1.3,3.1-1.3c1.1-0.1,2.3,0.3,3.1,1c0.8,0.7,1.2,1.7,1.1,2.8l0,0
		h-2.1c0-0.6-0.1-1.2-0.5-1.6c-0.4-0.4-1-0.6-1.6-0.6c-0.6,0-1.2,0.3-1.5,0.8c-0.4,0.6-0.6,1.3-0.6,2v2.2c0,0.7,0.2,1.4,0.6,2
		c0.4,0.5,1,0.8,1.6,0.8c0.6,0,1.1-0.2,1.5-0.5c0.4-0.5,0.5-1,0.5-1.6H78.9z"/>
	<path class="st0" d="M84.2,112.8V102h3.6c1-0.1,2.1,0.2,3,0.7c0.7,0.5,1.1,1.3,1.1,2.2c0,0.5-0.1,0.9-0.4,1.3
		c-0.3,0.4-0.7,0.7-1.2,0.9c0.6,0.1,1.1,0.4,1.5,0.9c0.3,0.5,0.5,1,0.5,1.6c0.1,0.9-0.3,1.8-1,2.3c-0.9,0.6-1.9,0.9-2.9,0.8H84.2z
		 M86.4,106.5h1.6c0.5,0,0.9-0.1,1.3-0.4c0.3-0.2,0.5-0.6,0.5-1c0-0.4-0.1-0.8-0.5-1.1c-0.4-0.3-0.9-0.4-1.4-0.4h-1.5V106.5z
		 M86.4,108v3.1h2c0.5,0,0.9-0.1,1.3-0.4c0.3-0.3,0.5-0.7,0.5-1.1c0-0.4-0.1-0.9-0.4-1.2c-0.3-0.3-0.8-0.5-1.2-0.4H86.4z"/>
	<path class="st0" d="M102.6,108.3c0,1.2-0.4,2.4-1.3,3.3c-0.9,0.9-2,1.3-3.3,1.3c-1.2,0-2.4-0.4-3.2-1.3c-0.8-0.9-1.3-2.1-1.2-3.3
		v-1.9c0-1.2,0.4-2.4,1.2-3.3c0.8-0.9,2-1.3,3.2-1.3c1.2,0,2.4,0.4,3.3,1.3c0.8,0.9,1.3,2.1,1.3,3.3V108.3z M100.9,100.6v0.2h-1.7
		l-1-1l-1,1h-1.7v-0.2l2.1-1.8h1.3L100.9,100.6z M100.5,106.4c0-0.7-0.2-1.5-0.6-2.1c-0.4-0.5-1.1-0.8-1.7-0.8
		c-0.7,0-1.3,0.3-1.7,0.8c-0.4,0.6-0.6,1.3-0.6,2.1v2c0,0.7,0.2,1.5,0.6,2.1c0.4,0.5,1,0.8,1.7,0.8c0.7,0,1.3-0.3,1.7-0.8
		c0.4-0.6,0.7-1.3,0.6-2.1V106.4z M99.3,115.5h-2.4v-1.8h2.4V115.5z"/>
	<path class="st0" d="M108.1,112.8V102h3.6c1-0.1,2.1,0.2,3,0.7c0.7,0.5,1.1,1.3,1.1,2.2c0,0.5-0.1,0.9-0.4,1.3
		c-0.3,0.4-0.7,0.7-1.2,0.9c0.6,0.1,1.1,0.4,1.5,0.9c0.3,0.5,0.5,1,0.5,1.6c0.1,0.9-0.3,1.8-1,2.3c-0.9,0.6-1.9,0.9-2.9,0.8H108.1z
		 M110.3,106.5h1.6c0.5,0,0.9-0.1,1.3-0.4c0.3-0.2,0.5-0.6,0.5-1c0-0.4-0.1-0.8-0.5-1.1c-0.4-0.3-0.9-0.4-1.4-0.4h-1.5V106.5z
		 M110.3,108v3.1h2c0.5,0,0.9-0.1,1.3-0.4c0.3-0.3,0.5-0.7,0.5-1.1c0-0.4-0.1-0.9-0.4-1.2c-0.3-0.3-0.8-0.5-1.2-0.4H110.3z"/>
	<path class="st0" d="M126.5,108.3c0,1.2-0.4,2.4-1.3,3.3c-0.9,0.9-2,1.3-3.3,1.3c-1.2,0-2.4-0.4-3.2-1.3c-0.8-0.9-1.3-2.1-1.2-3.3
		v-1.9c0-1.2,0.4-2.4,1.2-3.3c0.8-0.9,2-1.3,3.2-1.3c1.2,0,2.4,0.4,3.3,1.3c0.8,0.9,1.3,2.1,1.3,3.3V108.3z M124.4,106.4
		c0-0.7-0.2-1.5-0.6-2.1c-0.4-0.5-1.1-0.8-1.7-0.8c-0.7,0-1.3,0.3-1.7,0.8c-0.4,0.6-0.6,1.3-0.6,2.1v2c0,0.7,0.2,1.5,0.6,2.1
		c0.4,0.5,1,0.8,1.7,0.8c0.7,0,1.3-0.3,1.7-0.8c0.4-0.6,0.7-1.3,0.6-2.1V106.4z M122.4,99.1h2.3l0,0l-2.1,1.9h-1.7L122.4,99.1z"/>
	<polygon class="st0" points="136.9,112.8 134.8,112.8 130.4,105.4 130.4,105.4 130.4,112.8 128.2,112.8 128.2,102 130.4,102 
		134.7,109.3 134.8,109.3 134.8,102 136.9,102 	"/>
	<path class="st0" d="M147.2,111.3c-0.4,0.5-0.9,0.9-1.5,1.1c-0.8,0.4-1.7,0.5-2.6,0.5c-1.2,0-2.4-0.4-3.2-1.2
		c-0.8-0.8-1.3-2-1.3-3.2v-2.3c0-1.2,0.4-2.3,1.2-3.2c0.8-0.8,1.9-1.3,3.1-1.2c1.1-0.1,2.2,0.3,3,1c0.7,0.6,1.1,1.6,1.1,2.5l0,0h-2
		c0-0.5-0.2-1-0.5-1.4c-0.4-0.4-0.9-0.5-1.4-0.5c-0.6,0-1.2,0.3-1.6,0.8c-0.4,0.6-0.6,1.3-0.6,2v2.3c0,0.7,0.2,1.4,0.6,2
		c0.4,0.5,1,0.8,1.7,0.8c0.4,0,0.8,0,1.2-0.2c0.3-0.1,0.5-0.2,0.7-0.4v-2h-1.9v-1.5h4.1L147.2,111.3z"/>
	<path class="st0" d="M153.1,112.8v-4.8h-1v-1.3h1V102h3.7c1.2,0,2.4,0.4,3.3,1.3c0.9,0.9,1.3,2,1.3,3.2v1.8c0,1.2-0.4,2.4-1.3,3.2
		c-0.9,0.8-2,1.3-3.3,1.3L153.1,112.8z M157.1,107.9h-1.8v3.2h1.4c0.7,0,1.4-0.3,1.8-0.8c0.5-0.6,0.7-1.3,0.7-2.1v-1.8
		c0-0.7-0.2-1.5-0.7-2c-0.5-0.5-1.1-0.8-1.8-0.8h-1.4v2.9h1.8V107.9z"/>
	<path class="st0" d="M168.8,110.4h-3.8l-0.7,2.3h-2.2l3.7-10.8h2.2l3.7,10.8h-2.2L168.8,110.4z M165.6,108.7h2.7l-1.3-4.2h0
		L165.6,108.7z M167.4,99.2h2.3l0,0l-2.1,1.9h-1.7L167.4,99.2z"/>
	<path class="st0" d="M176.6,112.8V102h3.6c1-0.1,2.1,0.2,3,0.7c0.7,0.5,1.1,1.3,1.1,2.2c0,0.5-0.1,0.9-0.4,1.3
		c-0.3,0.4-0.7,0.7-1.2,0.9c0.6,0.1,1.1,0.4,1.5,0.9c0.3,0.5,0.5,1,0.5,1.6c0.1,0.9-0.3,1.8-1,2.3c-0.9,0.6-1.9,0.9-2.9,0.8H176.6z
		 M178.7,106.5h1.6c0.5,0,0.9-0.1,1.3-0.4c0.3-0.2,0.5-0.6,0.5-1c0-0.4-0.1-0.8-0.5-1.1c-0.4-0.3-0.9-0.4-1.4-0.4h-1.5L178.7,106.5z
		 M178.7,108v3.1h2c0.5,0,0.9-0.1,1.3-0.4c0.3-0.3,0.5-0.7,0.5-1.1c0-0.4-0.1-0.9-0.4-1.2c-0.3-0.3-0.8-0.5-1.2-0.4H178.7z"/>
	<path class="st0" d="M192.1,110.4h-3.8l-0.7,2.3h-2.2l3.7-10.8h2.2l3.7,10.8h-2.2L192.1,110.4z M188.8,108.7h2.7l-1.3-4.2h0
		L188.8,108.7z"/>
	<path class="st0" d="M198.2,108.5v4.3H196V102h4.1c1-0.1,2.1,0.2,2.9,0.8c0.7,0.6,1.1,1.4,1,2.3c0,0.5-0.1,1-0.4,1.4
		c-0.3,0.4-0.8,0.8-1.3,1c0.6,0.1,1,0.5,1.4,0.9c0.3,0.5,0.4,1.1,0.4,1.6v0.8c0,0.3,0,0.6,0.1,0.9c0.1,0.3,0.2,0.5,0.4,0.7v0.2h-2.2
		c-0.2-0.2-0.4-0.5-0.4-0.8c-0.1-0.3-0.1-0.7-0.1-1.1v-0.8c0-0.5-0.1-0.9-0.4-1.3c-0.3-0.3-0.8-0.5-1.2-0.4L198.2,108.5z
		 M198.2,106.8h1.9c0.5,0,1-0.1,1.4-0.4c0.3-0.3,0.5-0.7,0.4-1.1c0-0.4-0.1-0.9-0.4-1.2c-0.4-0.3-0.8-0.5-1.3-0.4h-1.9V106.8z"/>
	<path class="st0" d="M214.2,109.1L214.2,109.1c0.1,1.1-0.3,2.1-1,2.8c-0.8,0.7-1.9,1.1-3,1c-1.2,0-2.3-0.4-3.2-1.3
		c-0.8-0.9-1.3-2-1.2-3.2v-2.1c0-1.2,0.4-2.3,1.2-3.2c0.8-0.8,1.9-1.3,3.1-1.3c1.1-0.1,2.3,0.3,3.1,1c0.8,0.7,1.2,1.7,1.1,2.8l0,0
		h-2.1c0-0.6-0.1-1.2-0.5-1.6c-0.4-0.4-1-0.6-1.6-0.6c-0.6,0-1.2,0.3-1.5,0.8c-0.4,0.6-0.6,1.3-0.6,2v2.2c0,0.7,0.2,1.4,0.6,2
		c0.4,0.5,1,0.8,1.6,0.8c0.6,0,1.1-0.2,1.5-0.5c0.4-0.5,0.5-1,0.5-1.6H214.2z"/>
	<polygon class="st0" points="222.4,108 217.9,108 217.9,111.1 223.1,111.1 223.1,112.8 215.7,112.8 215.7,102 223.1,102 
		223.1,103.6 217.9,103.6 217.9,106.4 222.4,106.4 	"/>
	<polygon class="st0" points="226.6,111.1 231.4,111.1 231.4,112.8 224.5,112.8 224.5,102 226.6,102 	"/>
	<path class="st0" d="M241.4,108.3c0,1.2-0.4,2.4-1.3,3.3c-0.9,0.9-2,1.3-3.3,1.3c-1.2,0-2.4-0.4-3.2-1.3c-0.8-0.9-1.3-2.1-1.2-3.3
		v-1.9c0-1.2,0.4-2.4,1.2-3.3c0.8-0.9,2-1.3,3.2-1.3c1.2,0,2.4,0.4,3.3,1.3c0.8,0.9,1.3,2.1,1.3,3.3V108.3z M239.2,106.4
		c0-0.7-0.2-1.5-0.6-2.1c-0.4-0.5-1.1-0.8-1.7-0.8c-0.7,0-1.3,0.3-1.7,0.8c-0.4,0.6-0.6,1.3-0.6,2.1v2c0,0.7,0.2,1.5,0.6,2.1
		c0.4,0.5,1,0.8,1.7,0.8c0.7,0,1.3-0.3,1.7-0.8c0.4-0.6,0.7-1.3,0.6-2.1L239.2,106.4z"/>
	<polygon class="st0" points="251.8,112.8 249.6,112.8 245.3,105.4 245.2,105.4 245.2,112.8 243,112.8 243,102 245.2,102 
		249.6,109.3 249.6,109.3 249.6,102 251.8,102 	"/>
	<path class="st0" d="M259.6,110.4h-3.8l-0.7,2.3h-2.2l3.7-10.8h2.2l3.7,10.8h-2.2L259.6,110.4z M256.3,108.7h2.7l-1.3-4.2h0
		L256.3,108.7z"/>
</g>
<g>
	<rect x="140.4" y="0" class="st0" width="1" height="71.7"/>
	<g>
		<path class="st1" d="M218.4,1.1l0.4,0.2c3.9,2.6,7.1,3.1,11.9,3.1c1.8,0,3.6-0.3,5.3-0.9l0.5-0.2l2.3,3.2l-0.2,0.3
			c-8.5,11.3-1.9,23.4,2.8,28.3l0.4,0.4l-0.4,0.4c-0.6,0.6-1.7,1.7-2.5,2.5l-0.3,0.3l0,0.4l0,0.1c0,0.1,0,0.2,0,0.4l0,0.1
			c0.4,7.5-1.6,13.7-5.8,18.3c-4.5,4.9-11.6,7.9-20,8.4l-0.3,0l-0.2,0.2c-2.1,1.9-4.3,3.6-4.3,3.6l-0.4,0.3l-0.4-0.3
			c-0.1-0.1-2.2-1.7-4.3-3.6l-0.2-0.2l-0.3,0c-8.4-0.5-15.5-3.4-20-8.4c-4.2-4.7-6.2-10.8-5.8-18.3l0-0.1c0-0.2,0-0.3,0-0.4l0,0v0
			l0-0.1l0-0.4l-0.3-0.3c-0.7-0.8-1.8-1.9-2.5-2.5l-0.4-0.4l0.4-0.4c4.7-4.9,11.3-17,2.8-28.3l-0.2-0.3l2.3-3.2l0.5,0.2
			c1.7,0.6,3.5,0.9,5.3,0.9c4.8,0,8-0.5,11.9-3.1l0.4-0.2l0.4,0.2c3,2.3,6.7,3.5,10.5,3.5c3.8,0,7.5-1.3,10.5-3.5L218.4,1.1"/>
		<path class="st0" d="M181.7,28.9c2.7-6.1,3.6-13.9-0.8-21.5c1.1,0.2,2.3,0.3,3.5,0.3c4.6,0,8.2-0.4,12.2-2.7
			c3.3,2.1,7.1,3.1,10.9,3.2c3.9,0,7.7-1.1,10.9-3.2c4,2.3,7.6,2.7,12.2,2.7c1.2,0,2.3-0.1,3.5-0.3c-4.5,7.7-3.5,15.5-0.8,21.6
			H181.7"/>
		<path class="st2" d="M233.3,28.9c-2.7-6.1-3.6-13.9,0.8-21.6c-1.1,0.2-2.3,0.3-3.5,0.3c-4.6,0-8.2-0.4-12.2-2.7
			c-3.3,2.1-7.1,3.1-10.9,3.2c0,0-0.1,0-0.1,0v20.8H233.3z"/>
		<path class="st3" d="M227.6,58.3c5.1-3.7,8.1-9.6,7.6-18.3c-0.1-0.5-0.1-0.5-0.1-1h-7.5V58.3z"/>
		<path class="st4" d="M219.6,62c2.9-0.7,5.6-2,8-3.7V39h-8V62z"/>
		<path class="st4" d="M187.4,58.3c2.4,1.7,5.2,3,8,3.7V39h-8V58.3z"/>
		<path class="st3" d="M179.8,40c-0.4,8.7,2.6,14.6,7.6,18.3V39h-7.5C179.9,39.5,179.8,39.5,179.8,40"/>
		<path class="st4" d="M207.5,43.3c1.4,0,2.8,0.4,4,1.2V39h-8v5.4C204.7,43.7,206.1,43.3,207.5,43.3"/>
		<path class="st4" d="M207.5,58.4c-1.4,0-2.8-0.4-4-1.2v6c0.1,0,0.3,0,0.4,0c2.7,0,5.1,0,7.2,0c0.1,0,0.3,0,0.4,0v-6
			C210.4,58,209,58.4,207.5,58.4"/>
		<path class="st3" d="M211.5,39v5.4c3.6,2.2,4.6,6.9,2.4,10.4c-0.6,1-1.5,1.8-2.4,2.4v6c2.7-0.1,5.4-0.5,8-1.2V39H211.5z"/>
		<path class="st3" d="M200,50.9c0-2.6,1.3-5,3.5-6.4V39h-8v23c2.6,0.7,5.3,1.1,8,1.2v-6C201.3,55.9,200,53.5,200,50.9"/>
		<path class="st5" d="M183.5,14.2c0.5,2.5,0.6,5.1,0.2,7.7h7.8v7h7.7v-7h8.2v-7.7h-8.2V6.4c-0.9-0.4-1.8-0.9-2.7-1.4
			c-1.6,0.9-3.3,1.6-5,2v7.2L183.5,14.2z"/>
		<path class="st5" d="M224,28.9V7.1c-0.9-0.2-1.9-0.5-2.8-0.8v22.6L224,28.9z"/>
		<path class="st5" d="M212.9,28.9V7.4c-0.9,0.3-1.8,0.4-2.8,0.6v20.9H212.9z"/>
		<path class="st5" d="M229.5,28.9V7.7c-1,0-1.9-0.1-2.8-0.1v21.4L229.5,28.9z"/>
		<path class="st5" d="M218.4,28.9V5c-0.9,0.5-1.8,1-2.8,1.4v22.5L218.4,28.9z"/>
		<path class="st6" d="M242.9,35.6l-1.1-1.1c-4.5-4.7-10.8-16.3-2.7-27.1l0.6-0.8l-3.1-4.3l-1.1,0.4c-1.6,0.6-3.3,0.9-5,0.9
			c-4.6,0-7.7-0.5-11.4-2.9L218.4,0l-0.9,0.6c-2.9,2.2-6.4,3.3-10,3.4c-3.6,0-7.1-1.2-10-3.4L196.6,0l-0.9,0.6
			C192,3,189,3.5,184.4,3.5c-1.7,0-3.4-0.3-5-0.9l-1.1-0.4l-3.1,4.3l0.6,0.8c8.1,10.8,1.8,22.4-2.7,27.1l-1.1,1.1l1.1,1.1
			c0.6,0.6,1.6,1.6,2.4,2.5c0,0,0,0.1,0,0.1c0,0.1,0,0.2,0,0.3l0,0.1c-0.4,7.8,1.6,14.2,6,19c4.7,5.1,12,8.2,20.6,8.7
			c2.1,1.9,4.3,3.6,4.4,3.6l0.9,0.7l0.9-0.7c0.1-0.1,2.3-1.7,4.4-3.6c8.6-0.5,15.9-3.5,20.6-8.7c4.4-4.8,6.4-11.2,6-19l0-0.1
			c0-0.1,0-0.2,0-0.3c0,0,0-0.1,0-0.1c0.8-0.9,1.9-2,2.4-2.5L242.9,35.6z M237.8,38.6c0.1,0.8,0,0.8,0.1,1.2
			c0.9,17.3-11.1,25.5-25.7,26.1c-2.2,2.1-4.7,3.9-4.7,3.9s-2.5-1.8-4.7-3.9c-14.6-0.6-26.6-8.8-25.7-26.1c0.1-0.5,0-0.4,0.1-1.2
			c-0.8-0.9-2.2-2.3-2.9-3.1c5.2-5.4,11.3-17.8,2.9-29.1l1.8-2.4c1.8,0.6,3.6,0.9,5.5,1c4.9,0,8.2-0.5,12.2-3.2
			c3.2,2.3,7,3.6,10.9,3.6c3.9,0,7.7-1.3,10.9-3.6c4.1,2.7,7.4,3.2,12.2,3.2c1.9,0,3.7-0.3,5.5-1l1.8,2.4
			c-8.5,11.2-2.4,23.7,2.9,29.1C240.1,36.3,238.7,37.7,237.8,38.6"/>
		<path class="st6" d="M179.7,39c0,0.3,0,0.4-0.1,0.5c0,0.1,0,0.3-0.1,0.5c-0.3,6.7,1.3,12,4.9,16c4.1,4.6,10.9,7.1,19.4,7.5l0.3,0
			c1.4,0,2.8,0,4.1,0c1,0,1.9,0,2.8,0c8.6-0.4,15.3-2.9,19.4-7.5c3.6-4,5.3-9.4,4.9-16c0-0.2,0-0.4-0.1-0.5c0-0.1,0-0.3-0.1-0.5
			l0-0.2h-55.7L179.7,39z M180,40c0-0.2,0-0.3,0.1-0.5c0-0.1,0-0.2,0-0.4h54.8c0,0.1,0,0.2,0,0.4c0,0.1,0,0.2,0.1,0.4
			c0.3,6.5-1.3,11.8-4.8,15.7c-4.1,4.5-10.7,7-19.1,7.3c-2,0-4.3,0-6.9,0l-0.3,0c-8.4-0.3-15.1-2.9-19.1-7.3
			C181.3,51.8,179.7,46.6,180,40"/>
		<path class="st6" d="M181.5,28.8l-0.1,0.3h52.3l-0.1-0.3c-2.3-5.2-4-13.1,0.8-21.4l0.3-0.4l-0.5,0.1c-1.1,0.2-2.3,0.3-3.4,0.3
			c-4.7,0-8.1-0.4-12.1-2.7l-0.1-0.1l-0.1,0.1c-3.2,2-7,3.1-10.8,3.1c-3.8,0-7.6-1.1-10.8-3.1l-0.1-0.1l-0.1,0.1
			c-3.9,2.2-7.4,2.7-12.1,2.7c-1.2,0-2.3-0.1-3.4-0.3l-0.5-0.1l0.3,0.4C185.5,15.7,183.8,23.6,181.5,28.8 M207.7,8.4
			c3.8,0,7.6-1.1,10.8-3.1c4,2.2,7.5,2.7,12.2,2.7c1,0,2-0.1,3-0.3c-4.5,8.1-2.9,15.8-0.7,21h-25.3L207.7,8.4z M181.4,7.7
			c1,0.2,2,0.2,3,0.2c4.7,0,8.2-0.4,12.2-2.7c3.2,2,6.9,3.1,10.6,3.1v20.3h-25.1C184.3,23.5,185.8,15.7,181.4,7.7"/>
		<polygon class="st6" points="200.9,31.9 200.9,30.4 195.8,30.4 195.8,37.6 197.3,37.6 197.3,34.6 199.4,34.6 199.4,33.1 
			197.3,33.1 197.3,31.9 		"/>
		<path class="st6" d="M207,31.8c0.5,0,1,0.3,1.2,0.7l0,0.1l1.4-0.7l0-0.1c-0.5-1-1.5-1.7-2.6-1.6c-1.9,0-3.2,1.5-3.2,3.7
			c0,2.2,1.2,3.7,3.1,3.7c1.1,0.1,2.2-0.6,2.7-1.6l0-0.1l-1.3-0.8l0,0.1c-0.2,0.5-0.7,0.9-1.3,0.9c-0.9,0-1.6-0.9-1.6-2.2
			C205.4,32.7,206,31.8,207,31.8"/>
		<path class="st6" d="M219,32.3c0-1.2-0.9-1.9-2.3-1.9h-3.3v7.2h3.3c1.2,0.2,2.4-0.7,2.6-1.9c0-0.1,0-0.3,0-0.4
			c0-0.6-0.3-1.2-0.9-1.5C218.8,33.4,219,32.9,219,32.3 M214.9,31.8h1.7c0.7,0,0.8,0.3,0.8,0.6c0,0.4-0.2,0.6-0.7,0.6h-1.8
			L214.9,31.8z M216.7,36.1h-1.8v-1.7h1.8c0.6,0,0.9,0.3,0.9,0.8C217.7,35.8,217.3,36.1,216.7,36.1"/>
		<path class="st6" d="M207.5,58.6c4.3,0,7.7-3.5,7.7-7.7s-3.5-7.7-7.7-7.7s-7.7,3.5-7.7,7.7v0C199.8,55.1,203.2,58.6,207.5,58.6
			 M207.5,58.1c-1.4,0-2.9-0.4-4.1-1.2c1.7,0,3.3-0.5,4.8-1.2c1.2-0.7,2.5-1.6,2.8-2.9c0.9-0.5,2.1-0.1,2.6,0.8
			c0.1,0.2,0.2,0.5,0.2,0.7C212.6,56.7,210.2,58.1,207.5,58.1 M203.9,52.5c0.4,0.3,0.8,0.4,1.3,0.5c1.2,0,2.3-0.8,2.5-2
			c0.7-0.6,1.8-0.6,2.5,0.1c0.1,0.2,0.2,0.3,0.3,0.5c0.6,1.5-0.7,2.6-2.4,3.7c-1.6,0.8-3.4,1.2-5.2,1.2c-0.8-0.7-1.5-1.5-1.9-2.4
			c0.1,0,0.1,0,0.2,0C202.3,54,203.3,53.5,203.9,52.5 M202.7,48.8c0.1-1.4,0.3-2.7,0.7-4c1-0.7,2.2-1.1,3.4-1.2
			c-0.8,0.8-0.7,2.1,0.1,2.9c0,0,0.1,0.1,0.1,0.1c-0.2,0.2-0.4,0.4-0.5,0.6c-0.8,1.3-0.5,3,0.8,3.8c-0.2,0.9-1.1,1.6-2,1.6
			C203.6,52.3,202.8,50.7,202.7,48.8 M211.1,52.3c0-0.3-0.1-0.6-0.2-0.8c-0.4-1.1-1.7-1.7-2.8-1.2c-0.2,0.1-0.4,0.2-0.6,0.3
			c-1-0.7-1.3-2.1-0.6-3.2c0.8-1.3,2.8-0.8,4.5,0.2c1.5,0.9,2.7,2.3,3.3,4c-0.1,0.8-0.3,1.5-0.6,2.2
			C213.8,52.5,212.4,51.8,211.1,52.3C211.2,52.3,211.1,52.3,211.1,52.3 M211.6,47.1c-1.3-0.7-2.9-1.4-4.1-0.9
			c-0.7-0.5-1-1.5-0.5-2.2c0.1-0.2,0.3-0.4,0.6-0.5c3.8,0,7,3,7.2,6.8C214,49,212.9,47.9,211.6,47.1 M202.9,45.2
			c-0.1,0.5-0.3,1-0.4,1.5c-0.4,1.7-0.4,4.3,1,5.6c-0.5,0.9-1.4,1.4-2.4,1.4c-0.1,0-0.3,0-0.4,0C199.5,50.6,200.4,47.2,202.9,45.2"
			/>
	</g>
	<g>
		<path class="st7" d="M44.7,0h57.8c3.8,0,7,3.1,7,7c0,0,0,0,0,0v57.8c0,3.8-3.1,7-7,7c0,0,0,0,0,0H44.7c-3.8,0-7-3.1-7-7
			c0,0,0,0,0,0V7C37.8,3.1,40.9,0,44.7,0C44.7,0,44.7,0,44.7,0"/>
		<rect x="52" y="45.4" class="st0" width="43.4" height="3.4"/>
		<polygon class="st0" points="63.8,28.2 63.8,24.7 52,24.7 52,41.1 56.3,41.1 56.3,35.2 63,35.2 63,31.7 56.3,31.7 56.3,28.2 		"/>
		<path class="st0" d="M76.8,32.6c1.5-0.5,2.6-2,2.6-3.6c0-2.6-2-4.2-5.3-4.2h-8.4v16.4h8.5c3.6,0,5.8-1.7,5.8-4.6
			C80,34.6,78.6,32.9,76.8,32.6 M70,28h3.3c1.2,0,1.9,0.6,1.9,1.6c0,1-0.7,1.6-1.9,1.6H70V28z M73.7,37.7H70v-3.3h3.7
			c1.2,0,1.9,0.6,1.9,1.7C75.6,37.2,74.9,37.7,73.7,37.7L73.7,37.7z"/>
		<path class="st0" d="M90.5,31.1l-2-0.3c-1.9-0.3-2.5-0.8-2.5-1.7s0.8-1.5,2.4-1.5c1.3-0.2,2.5,0.7,2.7,2c0,0,0,0,0,0l4.1-0.5
			c-0.6-3.2-2.9-4.8-6.7-4.8c-4.2,0-7,2.1-7,5.3c0,2.8,1.7,4.4,5.1,4.9l2.1,0.3c2.2,0.3,2.7,0.8,2.7,1.8s-0.8,1.5-2.7,1.5
			c-1.4,0.1-2.7-0.8-3.1-2.2l-4.3,0.6c0.7,3.3,3.2,4.9,7.3,4.9c4.6,0,7.3-2,7.3-5.3C95.9,33.2,94.2,31.7,90.5,31.1"/>
	</g>
</g>
</svg>
