<svg id="Layer_1" data-name="Layer 1" xmlns="http://www.w3.org/2000/svg" xmlns:xlink="http://www.w3.org/1999/xlink" viewBox="0 0 162.51 162.5"><defs><style>.cls-1,.cls-2{fill:none;}.cls-2,.cls-3{clip-path:url(#clip-path);}.cls-4{fill:#665cac;}.cls-5{fill:#4d4581;}.cls-6{fill:#fff;}</style><clipPath id="clip-path"><path class="cls-1" d="M9.6,0H152.9a9.6,9.6,0,0,1,9.6,9.6V152.9a9.6,9.6,0,0,1-9.6,9.6H9.6A9.6,9.6,0,0,1,0,152.9V9.6A9.6,9.6,0,0,1,9.6,0Z"/></clipPath></defs><title>viber</title><g class="cls-3"><g id="Layer_1-2" data-name="Layer 1"><path class="cls-4" d="M9.6,0H152.9a9.6,9.6,0,0,1,9.6,9.6V152.9a9.6,9.6,0,0,1-9.6,9.6H9.6A9.6,9.6,0,0,1,0,152.9V9.6A9.6,9.6,0,0,1,9.6,0Z"/><path class="cls-4" d="M9.6,0H152.9a9.6,9.6,0,0,1,9.6,9.6V152.9a9.6,9.6,0,0,1-9.6,9.6H9.6A9.6,9.6,0,0,1,0,152.9V9.6A9.6,9.6,0,0,1,9.6,0Z"/></g><path class="cls-5" d="M162.51,82.77,118.22,38.56l6.9,25.18-2.43,38.51-17.25,10L74.3,114.88,60.1,130.25l-3.6,1.18,31.14,31.06H162.5Z"/><path class="cls-6" d="M119.29,39.58c-2.59-2.35-12.94-9.88-36.16-10,0,0-27.29-1.65-40.63,10.58-7.37,7.38-10,18.2-10.27,31.69s-.63,38.66,23.69,45.49h0v10.43s-.16,4.23,2.58,5.1c3.38,1,5.34-2.2,8.55-5.65,1.73-1.88,4.16-4.71,6-6.82,16.63,1.41,29.41-1.81,30.82-2.28,3.38-1.1,22.36-3.53,25.42-28.7C132.54,63.43,127.84,47,119.29,39.58ZM122,87.5c-2.59,21-18,22.36-20.86,23.3a85.13,85.13,0,0,1-26.51,2.27s-10.51,12.71-13.8,16a1.73,1.73,0,0,1-1.49.63c-.55-.16-.71-.78-.71-1.8,0-1.42.08-17.34.08-17.34h0C38.19,104.84,39.37,83.43,39.6,72.21S42,51.82,48.23,45.62c11.29-10.19,34.43-8.7,34.43-8.7,19.61.08,28.94,6,31.14,7.92C121.09,51,124.78,65.78,122,87.5Z"/><path class="cls-6" d="M92.62,72.52a1.35,1.35,0,0,1-1.33-1.25c-.24-4.47-2.28-6.59-6.59-6.82a1.34,1.34,0,1,1,.16-2.67c5.64.31,8.78,3.53,9.09,9.33a1.29,1.29,0,0,1-1.33,1.41Z"/><path class="cls-6" d="M99.37,74.8h0A1.32,1.32,0,0,1,98,73.47a15.08,15.08,0,0,0-3.92-11.06c-2.74-3-6.51-4.63-11.45-4.94a1.3,1.3,0,1,1,.23-2.59c5.57.39,10,2.35,13.18,5.8a18.1,18.1,0,0,1,4.63,12.94A1.3,1.3,0,0,1,99.37,74.8Z"/><path class="cls-6" d="M106.27,77.47a1.33,1.33,0,0,1-1.34-1.34c-.07-7.92-2.43-14.19-7.05-18.66a24.36,24.36,0,0,0-17.42-6.91,1.33,1.33,0,1,1,0-2.66h0a27,27,0,0,1,19.22,7.61c5.1,5,7.76,11.92,7.84,20.54a1.24,1.24,0,0,1-1.25,1.42Z"/><path class="cls-6" d="M85.09,88.76a3.46,3.46,0,0,0,2.82-1.1l2-2.43a4.38,4.38,0,0,1,5.41-.78,49.09,49.09,0,0,1,4.78,3c1.49,1.1,4.47,3.61,4.47,3.61a3.78,3.78,0,0,1,.79,4.87h0a21.6,21.6,0,0,1-4,4.94h0a7.94,7.94,0,0,1-4.08,2,1.65,1.65,0,0,1-.63,0,6,6,0,0,1-1.73-.24l-.07-.08c-2-.55-5.49-2-11.22-5.17a65.6,65.6,0,0,1-9.41-6.2A47.52,47.52,0,0,1,70,87.43l-.15-.16-.16-.16h0L69.48,87l-.15-.16a43.67,43.67,0,0,1-3.77-4.24,62.39,62.39,0,0,1-6.19-9.41c-3.14-5.72-4.63-9.17-5.18-11.21l-.08-.08a3.58,3.58,0,0,1-.31-1.57v-.63a7.79,7.79,0,0,1,2-4.08h0a19.36,19.36,0,0,1,4.94-4h0a3.79,3.79,0,0,1,4.86.79s2.51,3,3.61,4.47,2.35,3.61,3.06,4.78A4.2,4.2,0,0,1,71.44,67L69,69a3.56,3.56,0,0,0-1.1,2.82S71.6,85.31,85.09,88.76Z"/></g></svg>