<svg width="291" height="248" viewBox="0 0 291 248" fill="none" xmlns="http://www.w3.org/2000/svg">
<path d="M197.313 102.404L221.979 94.1153C221.13 93.4163 220.231 92.7173 219.332 92.0182L196.564 99.6577L121.068 124.973L51.2148 148.39C51.7142 149.239 52.2135 150.038 52.7627 150.887L121.168 127.919L197.313 102.404Z" fill="url(#paint0_linear)"/>
<path d="M194.519 90.6701L210.896 85.1777C210.047 84.4786 209.198 83.7796 208.35 83.0306L193.87 87.8739L121.57 112.14L45.375 137.705C45.7744 138.554 46.2238 139.403 46.6732 140.251L121.32 115.236L194.519 90.6701Z" fill="url(#paint1_linear)"/>
<path d="M195.818 96.562L216.339 89.6715C215.49 88.9725 214.592 88.2734 213.743 87.5245L195.168 93.7658L121.121 118.631L48.1719 143.098C48.6213 143.946 49.1206 144.795 49.5699 145.644L121.021 121.677L195.818 96.562Z" fill="url(#paint2_linear)"/>
<path d="M187.777 73.9931L195.067 71.5464C194.218 70.7975 193.42 70.0485 192.621 69.3495L185.68 71.6463L125.763 91.7185L38.6836 120.978C38.9332 121.877 39.2328 122.776 39.5324 123.674L124.764 95.0639L187.777 73.9931Z" fill="url(#paint3_linear)"/>
<path d="M193.07 84.8282L205.553 80.634C204.704 79.9349 203.905 79.186 203.056 78.4869L192.221 82.1319L122.468 105.549L42.8281 132.263C43.2276 133.111 43.5771 134.01 43.9765 134.859L121.969 108.695L193.07 84.8282Z" fill="url(#paint4_linear)"/>
<path d="M191.024 79.2358L200.261 76.1401C199.462 75.441 198.613 74.6921 197.765 73.9431L189.626 76.6893L123.817 98.7588L40.582 126.67C40.9315 127.569 41.2311 128.418 41.6306 129.316L123.118 101.954L191.024 79.2358Z" fill="url(#paint5_linear)"/>
<path d="M203.654 119.23L239.354 107.247C238.455 106.598 237.507 105.899 236.508 105.2L202.455 116.634L123.165 143.247L61.75 163.869C62.3492 164.668 62.9483 165.466 63.5974 166.265L123.814 146.043L203.654 119.23Z" fill="url(#paint6_linear)"/>
<path d="M209.645 129.866L251.337 115.885C250.438 115.236 249.49 114.537 248.541 113.838L208.097 127.419L126.46 154.831L69.7383 173.855C70.3874 174.654 71.0864 175.403 71.7355 176.202L127.458 157.478L209.645 129.866Z" fill="url(#paint7_linear)"/>
<path d="M206.5 124.573L245.396 111.541C244.497 110.892 243.548 110.193 242.55 109.494L205.102 122.077L124.613 149.089L65.6445 168.862C66.2936 169.661 66.9427 170.46 67.5918 171.209L125.462 151.786L206.5 124.573Z" fill="url(#paint8_linear)"/>
<path d="M212.993 135.059L256.932 120.329C256.083 119.63 255.234 118.931 254.336 118.182L211.395 132.612L128.759 160.324L74.0352 178.698C74.7342 179.447 75.4332 180.246 76.1323 180.995L130.008 162.92L212.993 135.059Z" fill="url(#paint9_linear)"/>
<path d="M216.487 140.202L261.825 124.973C261.126 124.174 260.377 123.425 259.628 122.676L214.84 137.705L131.555 165.666L78.5781 183.442C79.2772 184.191 80.0261 184.94 80.7751 185.689L133.053 168.163L216.487 140.202Z" fill="url(#paint10_linear)"/>
<path d="M182.985 69.2496L189.975 66.9029C189.126 66.1539 188.327 65.405 187.579 64.7059L180.089 67.2524L128.66 84.5285L37.1367 115.186C37.3364 116.135 37.5861 117.034 37.8357 117.982L127.162 88.0237L182.985 69.2496Z" fill="url(#paint11_linear)"/>
<path d="M199.061 108.146L227.621 98.5592C226.723 97.8602 225.824 97.1611 224.875 96.4621L198.162 105.45L121.368 131.214L54.4609 153.633C55.0102 154.432 55.5594 155.281 56.1087 156.08L121.618 134.11L199.061 108.146Z" fill="url(#paint12_linear)"/>
<path d="M201.206 113.738L233.461 102.903C232.562 102.254 231.614 101.555 230.665 100.806L200.107 111.042L122.065 137.206L58.0039 158.726C58.5531 159.525 59.1523 160.324 59.7515 161.173L122.565 140.102L201.206 113.738Z" fill="url(#paint13_linear)"/>
<path d="M172.498 243.459L266.119 212.052C266.868 210.854 267.617 209.605 268.316 208.307L167.805 242.061C169.402 242.56 170.95 243.009 172.498 243.459Z" fill="url(#paint14_linear)"/>
<path d="M81.9264 41.6878C80.079 42.5366 72.6892 46.1317 64.3008 52.1733L120.273 33.3993C99.2025 33.8487 83.4243 40.9888 81.9264 41.6878Z" fill="url(#paint15_linear)"/>
<path d="M183.531 246.105L259.976 220.441C261.074 219.142 262.173 217.744 263.171 216.346L178.039 244.907C179.887 245.356 181.734 245.755 183.531 246.105Z" fill="url(#paint16_linear)"/>
<path d="M197.264 247.803L250.34 230.027C252.138 228.529 253.885 226.981 255.583 225.284L190.273 247.203C192.62 247.453 194.967 247.703 197.264 247.803Z" fill="url(#paint17_linear)"/>
<path d="M129.457 33.649L57.1072 57.9154C55.4096 59.3634 53.7619 60.9113 52.1641 62.6089L136.148 34.4479C133.901 34.0484 131.654 33.7988 129.457 33.649Z" fill="url(#paint18_linear)"/>
<path d="M224.626 244.507C229.919 242.76 235.96 239.964 242.002 236.119L207.25 247.803C213.292 247.403 219.134 246.355 224.626 244.507Z" fill="url(#paint19_linear)"/>
<path d="M176.291 65.2053L184.929 62.3093C184.08 61.5603 183.331 60.8113 182.582 60.1123L172.446 63.5076L132.701 76.8392L36.0352 109.244C36.1849 110.193 36.3347 111.142 36.4845 112.09L130.504 80.534L176.291 65.2053Z" fill="url(#paint20_linear)"/>
<path d="M167.305 46.2315L36.436 90.1707C36.2362 91.2193 36.0365 92.2678 35.8867 93.3663L169.951 48.3785C169.052 47.5796 168.154 46.8806 167.305 46.2315Z" fill="url(#paint21_linear)"/>
<path d="M142.488 35.5963L47.8692 67.3523C46.7707 68.6505 45.7721 69.9986 44.7734 71.3967L147.481 36.9444C145.834 36.3951 144.136 35.9957 142.488 35.5963Z" fill="url(#paint22_linear)"/>
<path d="M167.506 61.81L179.988 57.6158C179.189 56.8668 178.391 56.1179 177.642 55.4188L161.863 60.7115L139.744 68.1512L35.4883 103.103C35.5382 104.101 35.5881 105.05 35.688 106.049L135.799 72.4453L167.506 61.81Z" fill="url(#paint23_linear)"/>
<path d="M172.648 50.7753L35.5374 96.7616C35.4874 97.7603 35.4375 98.8088 35.4375 99.8074L175.094 52.9722C174.196 52.1733 173.397 51.4244 172.648 50.7753Z" fill="url(#paint24_linear)"/>
<path d="M160.765 42.0873L38.4844 83.1305C38.0849 84.229 37.6855 85.3774 37.3359 86.5258L164.111 43.9847C163.012 43.3356 161.964 42.6865 160.765 42.0873Z" fill="url(#paint25_linear)"/>
<path d="M156.168 39.9902C154.97 39.4909 153.722 38.9915 152.523 38.5921L42.0762 75.5909C41.3772 76.7893 40.7281 77.9876 40.1289 79.2359L156.618 40.14C156.468 40.09 156.318 40.0401 156.168 39.9902Z" fill="url(#paint26_linear)"/>
<path d="M227.222 155.58L271.111 140.851C270.661 139.552 270.262 138.654 270.062 138.204L225.524 153.134L142.639 180.945L93.207 197.522C94.0559 198.271 94.8548 198.97 95.7036 199.669L144.836 183.192L227.222 155.58Z" fill="url(#paint27_linear)"/>
<path d="M237.907 170.959L275.655 158.277C275.505 157.328 275.305 156.379 275.155 155.43L236.259 168.462L158.267 194.626L109.734 210.904C110.683 211.603 111.582 212.302 112.531 212.951L161.213 196.623L237.907 170.959Z" fill="url(#paint28_linear)"/>
<path d="M244.648 181.345L276.904 170.51C276.854 169.511 276.804 168.512 276.754 167.564L243.1 178.848L171.499 202.865L121.918 219.492C122.917 220.141 123.965 220.84 125.014 221.489L175.044 204.712L244.648 181.345Z" fill="url(#paint29_linear)"/>
<path d="M220.833 217.944L158.719 238.815C160.117 239.364 161.515 239.914 162.963 240.413L228.922 218.293L246.797 212.302L270.364 204.413C270.914 203.264 271.413 202.066 271.862 200.917L248.844 208.657L220.833 217.944Z" fill="url(#paint30_linear)"/>
<path d="M234.412 165.816L274.506 152.335C274.307 151.386 274.057 150.437 273.807 149.539L232.714 163.369L152.525 190.282L103.992 206.56C104.891 207.259 105.79 207.958 106.688 208.657L155.171 192.379L234.412 165.816Z" fill="url(#paint31_linear)"/>
<path d="M179.141 206.659L128.461 223.686C129.559 224.335 130.608 224.984 131.706 225.633L183.035 208.407L247.696 186.637L276.806 176.851C276.856 175.852 276.906 174.804 276.906 173.805L246.298 184.091L179.141 206.659Z" fill="url(#paint32_linear)"/>
<path d="M230.815 160.673L272.957 146.543C272.657 145.544 272.408 144.645 272.108 143.797L229.068 158.227L147.231 185.689L98.3984 202.066C99.2473 202.765 100.096 203.514 100.995 204.213L149.677 187.886L230.815 160.673Z" fill="url(#paint33_linear)"/>
<path d="M187.575 210.155L135.348 227.68C136.496 228.33 137.595 228.929 138.743 229.528L191.919 211.703L250.039 192.23L276.253 183.442C276.402 182.393 276.502 181.345 276.602 180.296L249.09 189.533L187.575 210.155Z" fill="url(#paint34_linear)"/>
<path d="M197.015 213.3L142.59 231.575C143.788 232.174 144.987 232.773 146.235 233.373L201.908 214.698L250.94 198.221L275.057 190.132C275.306 189.034 275.506 187.985 275.706 186.887L250.69 195.275L197.015 213.3Z" fill="url(#paint35_linear)"/>
<path d="M207.749 215.997L150.328 235.27C151.626 235.869 152.925 236.418 154.223 236.968L213.591 217.045L250.14 204.762L273.158 197.023C273.508 195.924 273.857 194.776 274.157 193.677L250.739 201.517L207.749 215.997Z" fill="url(#paint36_linear)"/>
<path d="M241.352 176.152L276.453 164.368C276.353 163.369 276.254 162.421 276.104 161.472L239.704 173.655L164.558 198.87L115.676 215.248C116.674 215.947 117.623 216.596 118.622 217.295L167.804 200.818L241.352 176.152Z" fill="url(#paint37_linear)"/>
<path d="M220.033 145.344L265.669 130.016C265.12 129.167 264.521 128.368 263.922 127.569L218.285 142.898L134.701 170.959L83.1719 188.235C83.9208 188.984 84.7197 189.733 85.4687 190.482L136.398 173.406L220.033 145.344Z" fill="url(#paint38_linear)"/>
<path d="M223.626 150.487L268.713 135.358C268.264 134.459 267.815 133.611 267.365 132.812L221.928 148.041L138.444 176.052L88.1133 192.929C88.9122 193.677 89.7111 194.426 90.51 195.125L140.391 178.399L223.626 150.487Z" fill="url(#paint39_linear)"/>
<path opacity="0.5" d="M53.8673 30.5532C27.0045 56.1178 48.4248 123.025 78.0339 163.17C90.7662 180.446 108.342 204.263 138.051 211.603C210.051 229.378 297.231 136.157 284.348 98.9586C277.108 78.0874 236.215 68.7504 210.65 68.4508C175.05 68.0014 161.269 84.878 142.245 74.7421C120.275 63.0582 127.416 34.5477 104.347 23.1634C88.8189 15.524 66.1004 18.8694 53.8673 30.5532Z" fill="url(#paint40_linear)"/>
<path d="M123.02 207.808C95.4077 212.501 84.2731 222.088 62.703 223.187C41.1328 224.285 14.6195 209.556 4.78313 180.596C-5.05326 151.636 -2.80637 113.389 41.4324 101.106C85.6712 88.8226 88.717 69.05 95.4577 45.4327C104.845 12.4783 147.136 -2.9504 192.224 0.844347C237.311 4.6391 263.525 32.8001 253.689 54.3703C243.852 75.9404 224.13 91.8684 249.844 107.796C275.558 123.724 295.78 144.246 289.19 181.894C282.649 219.592 252.391 236.319 229.972 236.568C207.553 236.818 187.78 232.474 170.704 220.59C153.477 208.657 138.748 205.162 123.02 207.808Z" fill="url(#paint41_linear)"/>
<path d="M184.493 123H130.507C126.913 123 124 125.913 124 129.507V183.493C124 187.087 126.913 190 130.507 190H184.493C188.087 190 191 187.087 191 183.493V129.507C191 125.913 188.087 123 184.493 123Z" fill="#00BE40"/>
<path d="M177.818 165.404H137.309V168.626H177.818V165.404Z" fill="white"/>
<path d="M148.364 149.342V146.065H137.309V161.36H141.349V155.921H147.597V152.64H141.349V149.342H148.364Z" fill="white"/>
<path d="M160.455 153.429C162.071 152.683 162.923 151.504 162.923 150.037C162.923 147.566 161.091 146.082 158.005 146.082H150.18V161.36H158.09C161.456 161.36 163.465 159.766 163.465 157.057C163.465 155.307 162.35 153.997 160.455 153.429ZM154.135 149.168H157.259C158.395 149.168 159.006 149.69 159.006 150.656C159.006 151.623 158.395 152.14 157.259 152.14H154.135V149.168ZM157.526 158.257H154.135V155.218H157.564C158.7 155.218 159.336 155.76 159.336 156.79C159.336 157.761 158.7 158.257 157.522 158.257H157.526Z" fill="white"/>
<path d="M173.216 152.072L171.377 151.826C169.562 151.564 169.028 151.118 169.028 150.275C169.028 149.431 169.736 148.855 171.313 148.855C172.771 148.855 173.488 149.393 173.831 150.724L177.676 150.228C177.112 147.218 174.95 145.756 171.423 145.756C167.477 145.756 164.882 147.727 164.882 150.741C164.882 153.331 166.455 154.84 169.672 155.286L171.597 155.548C173.636 155.841 174.141 156.303 174.141 157.193C174.141 158.083 173.386 158.613 171.597 158.613C170.956 158.643 170.324 158.458 169.799 158.089C169.274 157.72 168.887 157.187 168.697 156.574L164.691 157.176C165.34 160.292 167.71 161.712 171.474 161.712C175.751 161.712 178.278 159.872 178.278 156.748C178.261 154.001 176.718 152.581 173.216 152.072Z" fill="white"/>
<path d="M112.734 72.8947H111.086V60.2622H112.734V72.8947Z" fill="white"/>
<path d="M124.767 67.3024C123.319 66.903 122.321 66.4037 121.672 65.8045C121.022 65.2053 120.673 64.4564 120.673 63.6075C120.673 62.6089 121.072 61.81 121.871 61.1609C122.67 60.5118 123.719 60.1623 124.967 60.1623C125.816 60.1623 126.615 60.3121 127.264 60.6616C127.963 61.0111 128.462 61.4605 128.862 62.0597C129.211 62.6588 129.411 63.3079 129.411 64.007H127.763C127.763 63.258 127.513 62.6588 127.014 62.2095C126.515 61.7601 125.866 61.5604 124.967 61.5604C124.168 61.5604 123.519 61.7601 123.07 62.1096C122.62 62.4591 122.371 62.9584 122.371 63.6075C122.371 64.1068 122.57 64.5562 123.02 64.9057C123.469 65.2552 124.218 65.6048 125.267 65.9043C126.315 66.2039 127.114 66.5035 127.713 66.903C128.312 67.2525 128.762 67.6519 129.011 68.1512C129.311 68.6006 129.461 69.1998 129.461 69.799C129.461 70.7976 129.061 71.6464 128.262 72.2456C127.463 72.8448 126.415 73.1443 125.067 73.1443C124.218 73.1443 123.369 72.9945 122.62 72.645C121.871 72.2955 121.272 71.8461 120.873 71.2969C120.473 70.6977 120.273 70.0486 120.273 69.3496H121.921C121.921 70.0985 122.221 70.6977 122.77 71.1471C123.319 71.5965 124.068 71.7962 125.017 71.7962C125.916 71.7962 126.565 71.5965 127.014 71.247C127.463 70.8974 127.713 70.3981 127.713 69.799C127.713 69.1998 127.513 68.7005 127.064 68.351C126.665 67.9515 125.916 67.602 124.767 67.3024Z" fill="white"/>
<path d="M140.896 60.3121V68.9002C140.896 70.0986 140.497 71.0473 139.798 71.7962C139.049 72.5452 138.05 72.9946 136.802 73.0445H136.352C134.954 73.0445 133.856 72.695 133.057 71.946C132.258 71.1971 131.809 70.1985 131.809 68.8503V60.2622H133.456V68.8004C133.456 69.6991 133.706 70.3982 134.205 70.9474C134.705 71.4467 135.404 71.6964 136.352 71.6964C137.301 71.6964 138 71.4467 138.499 70.9474C138.999 70.4481 139.248 69.7491 139.248 68.8503V60.3121H140.896Z" fill="white"/>
<path d="M148.586 67.8018H145.64V72.8947H143.992V60.2622H148.186C149.584 60.2622 150.683 60.5618 151.482 61.2109C152.231 61.86 152.63 62.8087 152.63 64.057C152.63 64.8558 152.431 65.505 151.981 66.1041C151.582 66.7033 150.983 67.1027 150.234 67.4023L153.179 72.7449V72.8448H151.332L148.586 67.8018ZM145.64 66.4536H148.186C149.035 66.4536 149.684 66.2539 150.134 65.8045C150.583 65.3552 150.883 64.8059 150.883 64.1069C150.883 63.308 150.633 62.7088 150.184 62.3094C149.734 61.9099 149.035 61.6603 148.186 61.6603H145.64V66.4536Z" fill="white"/>
<path d="M159.322 70.6978L162.917 60.3121H164.715L160.021 72.9447H158.573L153.93 60.3121H155.727L159.322 70.6978Z" fill="white"/>
<path d="M168.656 72.8947H167.008V60.2622H168.656V72.8947Z" fill="white"/>
<path d="M176.346 70.6978L179.941 60.3121H181.738L177.045 72.9447H175.597L170.953 60.3121H172.751L176.346 70.6978Z" fill="white"/>
<path d="M191.024 67.0528H185.581V71.5466H191.923V72.8947H183.934V60.2622H191.873V61.6103H185.631V65.6547H191.074V67.0528H191.024Z" fill="white"/>
<path d="M194.422 72.8947V60.2622H197.967C199.065 60.2622 200.014 60.5119 200.863 61.0112C201.712 61.5105 202.361 62.2095 202.81 63.0583C203.26 63.9571 203.509 65.0056 203.509 66.154V66.9529C203.509 68.1513 203.26 69.1998 202.81 70.0986C202.361 70.9974 201.712 71.6964 200.863 72.1458C200.014 72.6451 199.016 72.8947 197.867 72.8947H194.422ZM196.07 61.6603V71.5466H197.817C199.115 71.5466 200.114 71.1471 200.813 70.3482C201.512 69.5494 201.862 68.4009 201.862 66.9529V66.204C201.862 64.756 201.512 63.6575 200.863 62.8586C200.214 62.0597 199.215 61.6603 198.017 61.6603H196.07Z" fill="white"/>
<path d="M96.5568 82.9308H92.5124V94.1652H90.8647V82.9308H86.8203V81.5826H96.5568V82.9308Z" fill="white"/>
<path d="M108.539 94.1652H106.891V88.3233H100.55V94.1652H98.9023V81.5327H100.55V86.9752H106.891V81.5327H108.539V94.1652Z" fill="white"/>
<path d="M119.075 88.3732H113.632V92.867H119.973V94.2152H111.984V81.5826H119.873V82.9308H113.632V86.9752H119.075V88.3732Z" fill="white"/>
<path d="M135.152 94.1653H126.914V93.0169L131.258 88.1736C131.907 87.4246 132.356 86.8255 132.606 86.3761C132.855 85.9267 132.955 85.4274 132.955 84.9281C132.955 84.279 132.756 83.7298 132.356 83.3303C131.957 82.9309 131.407 82.6812 130.758 82.6812C129.959 82.6812 129.36 82.9309 128.911 83.3802C128.462 83.8296 128.262 84.4787 128.262 85.2776H126.664C126.664 84.1292 127.014 83.1805 127.763 82.4815C128.512 81.7824 129.51 81.383 130.758 81.383C131.907 81.383 132.855 81.6826 133.555 82.2818C134.254 82.8809 134.553 83.7298 134.553 84.7284C134.553 85.9766 133.754 87.4246 132.156 89.1722L128.761 92.8172H135.102V94.1653H135.152Z" fill="white"/>
<path d="M145.24 88.8227C145.24 90.7201 144.94 92.1181 144.291 93.0169C143.642 93.9157 142.643 94.365 141.295 94.365C139.947 94.365 138.949 93.9157 138.299 93.0169C137.65 92.1181 137.301 90.77 137.301 89.0224V86.8754C137.301 85.028 137.6 83.6299 138.249 82.7311C138.899 81.8324 139.897 81.383 141.245 81.383C142.593 81.383 143.592 81.8324 144.241 82.6812C144.89 83.53 145.19 84.8782 145.24 86.7256V88.8227ZM143.592 86.6257C143.592 85.2776 143.392 84.279 143.043 83.6798C142.693 83.0806 142.044 82.7311 141.245 82.7311C140.446 82.7311 139.847 83.0307 139.448 83.6798C139.048 84.279 138.899 85.2277 138.849 86.5259V89.0724C138.849 90.4205 139.048 91.4191 139.448 92.0682C139.847 92.7173 140.446 93.0668 141.245 93.0668C142.044 93.0668 142.643 92.7672 142.993 92.1681C143.392 91.5689 143.592 90.5703 143.592 89.2721V86.6257Z" fill="white"/>
<path d="M155.977 94.1653H147.738V93.0169L152.082 88.1736C152.731 87.4246 153.18 86.8255 153.43 86.3761C153.68 85.9267 153.78 85.4274 153.78 84.9281C153.78 84.279 153.58 83.7298 153.18 83.3303C152.781 82.9309 152.232 82.6812 151.583 82.6812C150.784 82.6812 150.185 82.9309 149.735 83.3802C149.286 83.8296 149.086 84.4787 149.086 85.2776H147.488C147.488 84.1292 147.838 83.1805 148.587 82.4815C149.336 81.7824 150.334 81.383 151.583 81.383C152.731 81.383 153.68 81.6826 154.379 82.2818C155.078 82.8809 155.377 83.7298 155.377 84.7284C155.377 85.9766 154.578 87.4246 152.981 89.1722L149.585 92.8172H155.927V94.1653H155.977Z" fill="white"/>
<path d="M166.009 88.8227C166.009 90.7201 165.71 92.1181 165.061 93.0169C164.412 93.9157 163.413 94.365 162.065 94.365C160.717 94.365 159.718 93.9157 159.069 93.0169C158.42 92.1181 158.07 90.77 158.07 89.0224V86.8754C158.07 85.028 158.37 83.6299 159.019 82.7311C159.668 81.8324 160.667 81.383 162.015 81.383C163.363 81.383 164.362 81.8324 165.011 82.6812C165.66 83.53 165.959 84.8782 166.009 86.7256V88.8227ZM164.412 86.6257C164.412 85.2776 164.212 84.279 163.862 83.6798C163.513 83.0806 162.864 82.7311 162.065 82.7311C161.266 82.7311 160.667 83.0307 160.267 83.6798C159.868 84.279 159.718 85.2277 159.668 86.5259V89.0724C159.668 90.4205 159.868 91.4191 160.267 92.0682C160.667 92.7173 161.266 93.0668 162.065 93.0668C162.864 93.0668 163.463 92.7672 163.812 92.1681C164.212 91.5689 164.412 90.5703 164.412 89.2721V86.6257Z" fill="white"/>
<path d="M183.037 90.1707C182.888 91.5188 182.388 92.5175 181.539 93.2664C180.691 94.0154 179.592 94.3649 178.244 94.3649C176.746 94.3649 175.548 93.8157 174.649 92.7671C173.75 91.7186 173.301 90.2706 173.301 88.4731V87.2747C173.301 86.1263 173.5 85.0778 173.95 84.179C174.349 83.2802 174.948 82.6311 175.747 82.1318C176.496 81.6325 177.395 81.4328 178.394 81.4328C179.742 81.4328 180.79 81.7823 181.639 82.5313C182.488 83.2802 182.937 84.3288 183.037 85.627H181.39C181.24 84.6284 180.94 83.8794 180.441 83.43C179.942 82.9807 179.292 82.731 178.444 82.731C177.395 82.731 176.546 83.1305 175.947 83.9293C175.348 84.7282 175.048 85.8267 175.048 87.2747V88.4731C175.048 89.8212 175.348 90.9197 175.897 91.7186C176.446 92.5175 177.245 92.9169 178.294 92.9169C179.193 92.9169 179.942 92.7172 180.441 92.2678C180.94 91.8684 181.24 91.1194 181.44 90.0709H183.037V90.1707Z" fill="white"/>
<path d="M190.375 89.0723H187.429V94.1652H185.781V81.5327H189.975C191.374 81.5327 192.472 81.8323 193.271 82.4814C194.02 83.1305 194.419 84.0792 194.419 85.3275C194.419 86.1264 194.22 86.7755 193.77 87.3746C193.321 87.9738 192.772 88.3733 192.023 88.6728L194.969 94.0154V94.1153H193.171L190.375 89.0723ZM187.429 87.7242H189.975C190.824 87.7242 191.473 87.5244 191.923 87.075C192.372 86.6257 192.672 86.0764 192.672 85.3774C192.672 84.5785 192.422 83.9793 191.973 83.5799C191.523 83.1804 190.824 82.9308 189.975 82.9308H187.429V87.7242Z" fill="white"/>
<path d="M198.917 94.1652H197.27V81.5327H198.917V94.1652Z" fill="white"/>
<path d="M206.107 88.5729C204.659 88.1735 203.66 87.6742 203.011 87.075C202.362 86.4758 202.013 85.7269 202.013 84.878C202.013 83.8794 202.412 83.0805 203.211 82.4314C204.01 81.7823 205.059 81.4328 206.307 81.4328C207.156 81.4328 207.955 81.5826 208.604 81.9321C209.303 82.2816 209.802 82.731 210.201 83.3302C210.551 83.9293 210.751 84.5784 210.751 85.2775H209.103C209.103 84.5285 208.853 83.9293 208.354 83.48C207.855 83.0306 207.206 82.8309 206.307 82.8309C205.508 82.8309 204.859 83.0306 204.409 83.3801C203.96 83.7296 203.71 84.2289 203.71 84.878C203.71 85.3773 203.91 85.8267 204.359 86.1762C204.809 86.5258 205.558 86.8753 206.606 87.1749C207.655 87.4744 208.454 87.774 209.053 88.1735C209.652 88.523 210.102 88.9224 210.351 89.4217C210.651 89.8711 210.801 90.4703 210.801 91.0695C210.801 92.0681 210.401 92.9169 209.602 93.5161C208.803 94.1153 207.755 94.4148 206.407 94.4148C205.558 94.4148 204.709 94.265 203.96 93.9155C203.211 93.566 202.612 93.1166 202.212 92.5674C201.813 92.0182 201.613 91.3191 201.613 90.6201H203.261C203.261 91.369 203.561 91.9682 204.11 92.4176C204.659 92.867 205.408 93.0667 206.357 93.0667C207.255 93.0667 207.905 92.867 208.354 92.5175C208.803 92.1679 209.053 91.6686 209.053 91.0695C209.053 90.4703 208.853 89.971 208.404 89.6215C208.054 89.222 207.255 88.8725 206.107 88.5729Z" fill="white"/>
<path d="M215.144 94.1652H213.496V81.5327H215.144V94.1652Z" fill="white"/>
<path d="M222.334 88.5729C220.886 88.1735 219.887 87.6742 219.238 87.075C218.589 86.4758 218.239 85.7269 218.239 84.878C218.239 83.8794 218.639 83.0805 219.438 82.4314C220.237 81.7823 221.285 81.4328 222.533 81.4328C223.382 81.4328 224.181 81.5826 224.83 81.9321C225.529 82.2816 226.029 82.731 226.428 83.3302C226.777 83.9293 226.977 84.5784 226.977 85.2775H225.329C225.329 84.5285 225.08 83.9293 224.581 83.48C224.081 83.0306 223.432 82.8309 222.533 82.8309C221.734 82.8309 221.085 83.0306 220.636 83.3801C220.187 83.7296 219.937 84.2289 219.937 84.878C219.937 85.3773 220.137 85.8267 220.586 86.1762C221.035 86.5258 221.784 86.8753 222.833 87.1749C223.881 87.4744 224.68 87.774 225.28 88.1735C225.879 88.523 226.328 88.9224 226.578 89.4217C226.877 89.8711 227.027 90.4703 227.027 91.0695C227.027 92.0681 226.628 92.9169 225.829 93.5161C225.03 94.1153 223.981 94.4148 222.633 94.4148C221.784 94.4148 220.936 94.265 220.187 93.9155C219.438 93.566 218.838 93.1166 218.439 92.5674C218.04 92.0182 217.84 91.3191 217.84 90.6201H219.488C219.488 91.369 219.787 91.9682 220.336 92.4176C220.886 92.867 221.635 93.0667 222.583 93.0667C223.482 93.0667 224.131 92.867 224.581 92.5175C225.03 92.1679 225.28 91.6686 225.28 91.0695C225.28 90.4703 225.08 89.971 224.63 89.6215C224.281 89.222 223.482 88.8725 222.334 88.5729Z" fill="white"/>
<path d="M138.801 111.491L139.051 113.139L139.4 111.641L141.897 102.853H143.295L145.742 111.641L146.091 113.189L146.341 111.491L148.288 102.853H149.936L146.89 115.486H145.392L142.796 106.298L142.596 105.35L142.396 106.298L139.7 115.486H138.202L135.156 102.853H136.804L138.801 111.491Z" fill="white"/>
<path d="M154.027 115.486H152.379V102.853H154.027V115.486Z" fill="white"/>
<path d="M165.959 104.201H161.915V115.436H160.267V104.201H156.223V102.853H165.959V104.201Z" fill="white"/>
<path d="M177.995 115.486H176.298V109.644H169.956V115.486H168.309V102.853H169.956V108.296H176.298V102.853H177.945V115.486H177.995Z" fill="white"/>
<defs>
<linearGradient id="paint0_linear" x1="218.216" y1="261.254" x2="70.1392" y2="7.31635" gradientUnits="userSpaceOnUse">
<stop stop-color="#56B949"/>
<stop offset="1" stop-color="#CADC76"/>
</linearGradient>
<linearGradient id="paint1_linear" x1="216.109" y1="262.484" x2="68.0329" y2="8.54579" gradientUnits="userSpaceOnUse">
<stop stop-color="#56B949"/>
<stop offset="1" stop-color="#CADC76"/>
</linearGradient>
<linearGradient id="paint2_linear" x1="217.099" y1="261.907" x2="69.0226" y2="7.96914" gradientUnits="userSpaceOnUse">
<stop stop-color="#56B949"/>
<stop offset="1" stop-color="#CADC76"/>
</linearGradient>
<linearGradient id="paint3_linear" x1="214.12" y1="263.643" x2="66.0437" y2="9.7053" gradientUnits="userSpaceOnUse">
<stop stop-color="#56B949"/>
<stop offset="1" stop-color="#CADC76"/>
</linearGradient>
<linearGradient id="paint4_linear" x1="215.274" y1="262.97" x2="67.198" y2="9.03244" gradientUnits="userSpaceOnUse">
<stop stop-color="#56B949"/>
<stop offset="1" stop-color="#CADC76"/>
</linearGradient>
<linearGradient id="paint5_linear" x1="214.611" y1="263.358" x2="66.5258" y2="9.40433" gradientUnits="userSpaceOnUse">
<stop stop-color="#56B949"/>
<stop offset="1" stop-color="#CADC76"/>
</linearGradient>
<linearGradient id="paint6_linear" x1="222.432" y1="258.796" x2="74.3556" y2="4.85749" gradientUnits="userSpaceOnUse">
<stop stop-color="#56B949"/>
<stop offset="1" stop-color="#CADC76"/>
</linearGradient>
<linearGradient id="paint7_linear" x1="225.842" y1="256.807" x2="77.7657" y2="2.86854" gradientUnits="userSpaceOnUse">
<stop stop-color="#56B949"/>
<stop offset="1" stop-color="#CADC76"/>
</linearGradient>
<linearGradient id="paint8_linear" x1="224.105" y1="257.82" x2="76.0285" y2="3.88201" gradientUnits="userSpaceOnUse">
<stop stop-color="#56B949"/>
<stop offset="1" stop-color="#CADC76"/>
</linearGradient>
<linearGradient id="paint9_linear" x1="227.505" y1="255.839" x2="79.4287" y2="1.90061" gradientUnits="userSpaceOnUse">
<stop stop-color="#56B949"/>
<stop offset="1" stop-color="#CADC76"/>
</linearGradient>
<linearGradient id="paint10_linear" x1="228.919" y1="255.014" x2="80.843" y2="1.07549" gradientUnits="userSpaceOnUse">
<stop stop-color="#56B949"/>
<stop offset="1" stop-color="#CADC76"/>
</linearGradient>
<linearGradient id="paint11_linear" x1="213.828" y1="263.814" x2="65.7517" y2="9.87612" gradientUnits="userSpaceOnUse">
<stop stop-color="#56B949"/>
<stop offset="1" stop-color="#CADC76"/>
</linearGradient>
<linearGradient id="paint12_linear" x1="219.472" y1="260.522" x2="71.3951" y2="6.58441" gradientUnits="userSpaceOnUse">
<stop stop-color="#56B949"/>
<stop offset="1" stop-color="#CADC76"/>
</linearGradient>
<linearGradient id="paint13_linear" x1="220.878" y1="259.701" x2="72.8012" y2="5.7632" gradientUnits="userSpaceOnUse">
<stop stop-color="#56B949"/>
<stop offset="1" stop-color="#CADC76"/>
</linearGradient>
<linearGradient id="paint14_linear" x1="233.788" y1="252.174" x2="85.712" y2="-1.76377" gradientUnits="userSpaceOnUse">
<stop stop-color="#56B949"/>
<stop offset="1" stop-color="#CADC76"/>
</linearGradient>
<linearGradient id="paint15_linear" x1="219.32" y1="260.613" x2="71.2439" y2="6.67458" gradientUnits="userSpaceOnUse">
<stop stop-color="#56B949"/>
<stop offset="1" stop-color="#CADC76"/>
</linearGradient>
<linearGradient id="paint16_linear" x1="233.345" y1="252.432" x2="85.2685" y2="-1.50589" gradientUnits="userSpaceOnUse">
<stop stop-color="#56B949"/>
<stop offset="1" stop-color="#CADC76"/>
</linearGradient>
<linearGradient id="paint17_linear" x1="232.614" y1="252.859" x2="84.5378" y2="-1.07922" gradientUnits="userSpaceOnUse">
<stop stop-color="#56B949"/>
<stop offset="1" stop-color="#CADC76"/>
</linearGradient>
<linearGradient id="paint18_linear" x1="218.222" y1="261.251" x2="70.1458" y2="7.31282" gradientUnits="userSpaceOnUse">
<stop stop-color="#56B949"/>
<stop offset="1" stop-color="#CADC76"/>
</linearGradient>
<linearGradient id="paint19_linear" x1="231.401" y1="253.567" x2="83.3243" y2="-0.37165" gradientUnits="userSpaceOnUse">
<stop stop-color="#56B949"/>
<stop offset="1" stop-color="#CADC76"/>
</linearGradient>
<linearGradient id="paint20_linear" x1="213.744" y1="263.862" x2="65.6674" y2="9.9235" gradientUnits="userSpaceOnUse">
<stop stop-color="#56B949"/>
<stop offset="1" stop-color="#CADC76"/>
</linearGradient>
<linearGradient id="paint21_linear" x1="215.022" y1="263.117" x2="66.9455" y2="9.17898" gradientUnits="userSpaceOnUse">
<stop stop-color="#56B949"/>
<stop offset="1" stop-color="#CADC76"/>
</linearGradient>
<linearGradient id="paint22_linear" x1="217.255" y1="261.814" x2="69.1789" y2="7.87616" gradientUnits="userSpaceOnUse">
<stop stop-color="#56B949"/>
<stop offset="1" stop-color="#CADC76"/>
</linearGradient>
<linearGradient id="paint23_linear" x1="213.911" y1="263.766" x2="65.8344" y2="9.8275" gradientUnits="userSpaceOnUse">
<stop stop-color="#56B949"/>
<stop offset="1" stop-color="#CADC76"/>
</linearGradient>
<linearGradient id="paint24_linear" x1="214.338" y1="263.516" x2="66.2613" y2="9.57807" gradientUnits="userSpaceOnUse">
<stop stop-color="#56B949"/>
<stop offset="1" stop-color="#CADC76"/>
</linearGradient>
<linearGradient id="paint25_linear" x1="215.81" y1="262.658" x2="67.7333" y2="8.72034" gradientUnits="userSpaceOnUse">
<stop stop-color="#56B949"/>
<stop offset="1" stop-color="#CADC76"/>
</linearGradient>
<linearGradient id="paint26_linear" x1="216.491" y1="262.259" x2="68.4145" y2="8.3213" gradientUnits="userSpaceOnUse">
<stop stop-color="#56B949"/>
<stop offset="1" stop-color="#CADC76"/>
</linearGradient>
<linearGradient id="paint27_linear" x1="231.536" y1="253.487" x2="83.4594" y2="-0.450721" gradientUnits="userSpaceOnUse">
<stop stop-color="#56B949"/>
<stop offset="1" stop-color="#CADC76"/>
</linearGradient>
<linearGradient id="paint28_linear" x1="232.921" y1="252.68" x2="84.8447" y2="-1.25841" gradientUnits="userSpaceOnUse">
<stop stop-color="#56B949"/>
<stop offset="1" stop-color="#CADC76"/>
</linearGradient>
<linearGradient id="paint29_linear" x1="233.571" y1="252.301" x2="85.4946" y2="-1.63723" gradientUnits="userSpaceOnUse">
<stop stop-color="#56B949"/>
<stop offset="1" stop-color="#CADC76"/>
</linearGradient>
<linearGradient id="paint30_linear" x1="234.033" y1="252.033" x2="85.9564" y2="-1.90559" gradientUnits="userSpaceOnUse">
<stop stop-color="#56B949"/>
<stop offset="1" stop-color="#CADC76"/>
</linearGradient>
<linearGradient id="paint31_linear" x1="232.526" y1="252.91" x2="84.4498" y2="-1.02835" gradientUnits="userSpaceOnUse">
<stop stop-color="#56B949"/>
<stop offset="1" stop-color="#CADC76"/>
</linearGradient>
<linearGradient id="paint32_linear" x1="233.816" y1="252.159" x2="85.74" y2="-1.77916" gradientUnits="userSpaceOnUse">
<stop stop-color="#56B949"/>
<stop offset="1" stop-color="#CADC76"/>
</linearGradient>
<linearGradient id="paint33_linear" x1="232.072" y1="253.174" x2="83.9954" y2="-0.764099" gradientUnits="userSpaceOnUse">
<stop stop-color="#56B949"/>
<stop offset="1" stop-color="#CADC76"/>
</linearGradient>
<linearGradient id="paint34_linear" x1="233.997" y1="252.051" x2="85.9207" y2="-1.88667" gradientUnits="userSpaceOnUse">
<stop stop-color="#56B949"/>
<stop offset="1" stop-color="#CADC76"/>
</linearGradient>
<linearGradient id="paint35_linear" x1="234.106" y1="251.989" x2="86.0297" y2="-1.94882" gradientUnits="userSpaceOnUse">
<stop stop-color="#56B949"/>
<stop offset="1" stop-color="#CADC76"/>
</linearGradient>
<linearGradient id="paint36_linear" x1="234.124" y1="251.978" x2="86.0471" y2="-1.95973" gradientUnits="userSpaceOnUse">
<stop stop-color="#56B949"/>
<stop offset="1" stop-color="#CADC76"/>
</linearGradient>
<linearGradient id="paint37_linear" x1="233.273" y1="252.474" x2="85.197" y2="-1.46409" gradientUnits="userSpaceOnUse">
<stop stop-color="#56B949"/>
<stop offset="1" stop-color="#CADC76"/>
</linearGradient>
<linearGradient id="paint38_linear" x1="229.987" y1="254.391" x2="81.9106" y2="0.45291" gradientUnits="userSpaceOnUse">
<stop stop-color="#56B949"/>
<stop offset="1" stop-color="#CADC76"/>
</linearGradient>
<linearGradient id="paint39_linear" x1="230.814" y1="253.908" x2="82.7372" y2="-0.0301293" gradientUnits="userSpaceOnUse">
<stop stop-color="#56B949"/>
<stop offset="1" stop-color="#CADC76"/>
</linearGradient>
<linearGradient id="paint40_linear" x1="275.49" y1="68.5042" x2="25.2337" y2="147.872" gradientUnits="userSpaceOnUse">
<stop stop-color="#56B949"/>
<stop offset="1" stop-color="#CADC76"/>
</linearGradient>
<linearGradient id="paint41_linear" x1="0.0396915" y1="118.48" x2="290.399" y2="118.48" gradientUnits="userSpaceOnUse">
<stop stop-color="#56B949"/>
<stop offset="1" stop-color="#CADC76"/>
</linearGradient>
</defs>
</svg>
