<svg width="198" height="292" viewBox="0 0 198 292" fill="none" xmlns="http://www.w3.org/2000/svg">
<path d="M178.688 240.433C178.688 240.433 179.029 238.796 178.688 237.295C178.346 235.793 180.052 234.224 181.622 235.179C183.191 236.135 185.852 236.953 187.148 235.452C188.445 233.951 187.012 231.836 182.85 228.561C178.688 225.286 176.231 224.467 174.935 225.968C173.638 227.469 177.732 230.471 177.255 231.768C176.777 233.064 175.549 234.429 174.594 234.292C173.638 234.156 171.455 234.565 171.455 234.565L178.688 240.433Z" fill="#3D6C34"/>
<path d="M144.096 270.455C144.096 270.455 143.755 272.092 144.096 273.593C144.369 275.095 142.732 276.664 141.162 275.709C139.593 274.753 136.932 273.935 135.636 275.436C134.339 276.937 135.772 279.052 139.934 282.327C144.096 285.602 146.553 286.421 147.849 284.92C149.145 283.419 145.052 280.417 145.529 279.12C146.007 277.824 147.235 276.459 148.19 276.596C149.145 276.732 151.329 276.323 151.329 276.323L144.096 270.455Z" fill="#3D6C34"/>
<path d="M176.23 272.57C176.23 272.57 177.868 272.911 179.369 272.57C180.87 272.297 182.44 273.935 181.484 275.504C180.529 277.073 179.71 279.734 181.211 281.031C182.712 282.327 184.828 280.894 188.103 276.732C191.378 272.57 192.197 270.114 190.695 268.817C189.194 267.521 186.192 271.615 184.896 271.137C183.599 270.659 182.235 269.431 182.371 268.476C182.508 267.521 182.03 265.337 182.03 265.337L176.23 272.57Z" fill="#3D6C34"/>
<path d="M146.687 238.386C146.687 238.386 145.049 238.045 143.548 238.386C142.047 238.659 140.478 237.022 141.433 235.452C142.388 233.883 143.207 231.222 141.706 229.926C140.205 228.629 138.09 230.062 134.815 234.224C131.54 238.386 130.721 240.843 132.222 242.139C133.723 243.435 136.725 239.341 138.022 239.819C139.318 240.297 140.683 241.525 140.546 242.48C140.41 243.435 140.819 245.619 140.819 245.619L146.687 238.386Z" fill="#3D6C34"/>
<path d="M163.744 232.928C163.744 232.928 162.652 231.29 161.151 230.335C159.65 229.38 159.719 226.65 161.834 226.173C163.881 225.695 166.746 224.194 166.61 221.874C166.473 219.554 163.539 219.008 157.399 219.759C151.258 220.51 148.529 221.874 148.733 224.194C148.87 226.514 154.806 225.627 155.488 227.06C156.171 228.493 156.239 230.676 155.352 231.358C154.465 232.041 153.032 234.224 153.032 234.224L163.744 232.928Z" fill="#3D6C34"/>
<path d="M159.037 277.96C159.037 277.96 160.128 279.598 161.629 280.553C163.13 281.508 163.062 284.237 160.947 284.715C158.832 285.193 156.034 286.694 156.171 289.014C156.307 291.334 159.241 291.879 165.382 291.129C171.523 290.446 174.252 289.014 174.047 286.694C173.911 284.374 167.975 285.261 167.293 283.828C166.61 282.395 166.542 280.212 167.429 279.53C168.316 278.847 169.749 276.664 169.749 276.664L159.037 277.96Z" fill="#3D6C34"/>
<path d="M183.943 257.764C183.943 257.764 185.58 256.672 186.536 255.171C187.491 253.67 190.22 253.738 190.698 255.853C191.175 257.9 192.676 260.766 194.996 260.629C197.316 260.493 197.862 257.559 197.111 251.418C196.429 245.277 194.996 242.548 192.676 242.753C190.357 242.958 191.244 248.825 189.811 249.508C188.378 250.19 186.194 250.258 185.512 249.371C184.83 248.484 182.646 247.051 182.646 247.051L183.943 257.764Z" fill="#3D6C34"/>
<path d="M138.91 253.056C138.91 253.056 137.272 254.147 136.317 255.648C135.362 257.15 132.632 257.081 132.155 254.966C131.677 252.919 130.176 250.054 127.856 250.19C125.536 250.326 124.99 253.26 125.741 259.401C126.491 265.542 127.856 268.271 130.176 268.067C132.496 267.93 131.609 261.994 133.042 261.312C134.475 260.629 136.658 260.561 137.34 261.448C138.023 262.335 140.206 263.768 140.206 263.768L138.91 253.056Z" fill="#3D6C34"/>
<path d="M149.076 255.239C157.196 270.387 179.098 266.088 184.557 249.098C181.486 237.977 170.637 230.403 158.765 231.768C155.627 232.109 152.761 233.064 150.168 234.497C146.825 238.932 144.096 245.96 149.076 255.239Z" fill="#8BB847"/>
<path d="M149.078 255.239C144.097 245.96 146.758 238.932 150.169 234.497C141.777 239 136.591 248.28 137.751 258.31C139.252 271.41 151.125 280.826 164.225 279.325C177.325 277.824 186.741 265.951 185.24 252.851C185.104 251.555 184.831 250.327 184.49 249.167C179.099 266.088 157.197 270.387 149.078 255.239Z" fill="#558834"/>
<path d="M174.253 239.887C178.62 243.094 182.918 249.917 179.029 251.896C176.231 253.329 173.57 246.164 170.159 243.503C166.747 240.842 163.745 239.478 164.291 237.977C164.905 236.407 169.886 236.68 174.253 239.887Z" fill="#AED24C"/>
<path d="M161.97 236.953C161.697 239.273 155.829 237.908 155.897 236.066C155.965 234.224 162.174 235.316 161.97 236.953Z" fill="#AED24C"/>
<path d="M156.031 273.457C158.367 273.457 160.261 271.563 160.261 269.227C160.261 266.89 158.367 264.996 156.031 264.996C153.695 264.996 151.801 266.89 151.801 269.227C151.801 271.563 153.695 273.457 156.031 273.457Z" fill="#294E14"/>
<path d="M150.3 264.86C151.166 264.86 151.869 264.157 151.869 263.29C151.869 262.424 151.166 261.721 150.3 261.721C149.433 261.721 148.73 262.424 148.73 263.29C148.73 264.157 149.433 264.86 150.3 264.86Z" fill="#294E14"/>
<path d="M142.796 256.809C143.738 256.809 144.501 256.045 144.501 255.103C144.501 254.161 143.738 253.397 142.796 253.397C141.854 253.397 141.09 254.161 141.09 255.103C141.09 256.045 141.854 256.809 142.796 256.809Z" fill="#294E14"/>
<path d="M169.745 260.834C171.667 260.834 173.225 259.276 173.225 257.354C173.225 255.433 171.667 253.875 169.745 253.875C167.824 253.875 166.266 255.433 166.266 257.354C166.266 259.276 167.824 260.834 169.745 260.834Z" fill="#294E14"/>
<path d="M165.584 253.261C166.677 253.261 167.563 252.375 167.563 251.282C167.563 250.189 166.677 249.303 165.584 249.303C164.491 249.303 163.605 250.189 163.605 251.282C163.605 252.375 164.491 253.261 165.584 253.261Z" fill="#294E14"/>
<path d="M153.373 249.167C154.051 249.167 154.601 248.617 154.601 247.938C154.601 247.26 154.051 246.71 153.373 246.71C152.694 246.71 152.145 247.26 152.145 247.938C152.145 248.617 152.694 249.167 153.373 249.167Z" fill="#294E14"/>
<path d="M174.866 271.342C175.883 271.342 176.708 270.517 176.708 269.499C176.708 268.482 175.883 267.657 174.866 267.657C173.848 267.657 173.023 268.482 173.023 269.499C173.023 270.517 173.848 271.342 174.866 271.342Z" fill="#294E14"/>
<path d="M31.4104 12.4354C31.4104 12.4354 31.6101 11.4867 31.4104 10.5879C31.2107 9.68918 32.2093 8.79042 33.108 9.33966C34.0068 9.93883 35.6046 10.3882 36.3536 9.48945C37.1025 8.5907 36.2537 7.39236 33.8071 5.44505C31.3605 3.49775 29.9125 3.04837 29.1136 3.89719C28.3646 4.74602 30.7613 6.54353 30.5116 7.34242C30.262 8.09139 29.513 8.89028 28.9139 8.84035C28.3147 8.79042 27.0664 9.04008 27.0664 9.04008L31.4104 12.4354Z" fill="#3D6C34"/>
<path d="M11.0385 30.1609C11.0385 30.1609 10.8388 31.1096 11.0385 32.0083C11.1883 32.9071 10.2396 33.8059 9.34085 33.2566C8.44209 32.6574 6.8443 32.2081 6.09534 33.1068C5.34637 33.9556 6.1952 35.2039 8.64182 37.1512C11.0884 39.0985 12.5364 39.5479 13.3353 38.6991C14.0843 37.8503 11.6876 36.0527 11.9373 35.2538C12.1869 34.5049 12.9359 33.706 13.535 33.7559C14.1342 33.8059 15.3825 33.5562 15.3825 33.5562L11.0385 30.1609Z" fill="#3D6C34"/>
<path d="M29.9629 31.3591C29.9629 31.3591 30.9116 31.5588 31.8103 31.3591C32.7091 31.2093 33.6078 32.158 33.0586 33.0568C32.4594 33.9555 32.0101 35.5533 32.9088 36.3023C33.7576 37.0512 35.0059 36.2024 36.9532 33.7558C38.9005 31.3092 39.3499 29.8612 38.5011 29.0623C37.6523 28.3133 35.8547 30.71 35.0558 30.4604C34.3069 30.2107 33.508 29.4618 33.5579 28.8626C33.6078 28.2634 33.3582 27.0151 33.3582 27.0151L29.9629 31.3591Z" fill="#3D6C34"/>
<path d="M12.5864 11.2371C12.5864 11.2371 11.6377 11.0374 10.7389 11.2371C9.84018 11.3869 8.94143 10.4382 9.49067 9.53946C10.0898 8.6407 10.5392 7.04291 9.64046 6.29395C8.79163 5.54498 7.54336 6.39381 5.59605 8.84042C3.64875 11.287 3.19937 12.735 4.0482 13.5339C4.89702 14.3328 6.69453 11.8862 7.49343 12.1359C8.24239 12.3855 9.04129 13.1345 8.99136 13.7337C8.94143 14.3328 9.19108 15.5811 9.19108 15.5811L12.5864 11.2371Z" fill="#3D6C34"/>
<path d="M22.6213 8.04147C22.6213 8.04147 21.9722 7.09279 21.1234 6.49362C20.2745 5.89445 20.2745 4.34659 21.5228 4.047C22.7711 3.79735 24.4188 2.84866 24.3189 1.50052C24.2191 0.15239 22.5214 -0.197126 18.8765 0.252252C15.2315 0.70163 13.6837 1.50052 13.7336 2.84866C13.8335 4.19679 17.2787 3.69748 17.7281 4.54631C18.1275 5.39514 18.1774 6.64341 17.6282 7.09279C17.079 7.54216 16.2301 8.79044 16.2301 8.79044L22.6213 8.04147Z" fill="#3D6C34"/>
<path d="M19.825 34.5547C19.825 34.5547 20.4741 35.5034 21.323 36.1026C22.1718 36.7018 22.1718 38.2496 20.9235 38.5492C19.6752 38.7989 18.0275 39.7476 18.1274 41.0957C18.2272 42.4438 19.9249 42.7934 23.5698 42.344C27.2148 41.8946 28.7627 41.0957 28.7127 39.7476C28.6628 38.3994 25.1676 38.8987 24.7183 38.0499C24.2689 37.2011 24.2689 35.9528 24.8181 35.5034C25.3674 35.0541 26.2162 33.8058 26.2162 33.8058L19.825 34.5547Z" fill="#3D6C34"/>
<path d="M34.5068 22.6713C34.5068 22.6713 35.4555 22.0222 36.0546 21.1734C36.6538 20.3246 38.2017 20.3246 38.5013 21.5728C38.7509 22.8211 39.6996 24.4688 41.0477 24.369C42.3959 24.2691 42.7454 22.5714 42.296 18.9265C41.8966 15.3315 41.0477 13.7337 39.6996 13.7836C38.3515 13.8835 38.8508 17.3287 38.0019 17.7781C37.1531 18.1775 35.9048 18.2275 35.4555 17.6782C35.056 17.129 33.7578 16.2801 33.7578 16.2801L34.5068 22.6713Z" fill="#3D6C34"/>
<path d="M7.99216 19.8751C7.99216 19.8751 7.04347 20.5242 6.4443 21.373C5.84513 22.2218 4.29727 22.2218 3.99768 20.9736C3.74803 19.7253 2.79934 18.0776 1.45121 18.1774C0.103073 18.2773 -0.246443 19.9749 0.202935 23.6199C0.602383 27.2149 1.45121 28.8127 2.79934 28.7628C4.14748 28.6629 3.64817 25.2177 4.49699 24.7683C5.34582 24.3689 6.59409 24.3189 7.04347 24.8682C7.44292 25.4174 8.74112 26.2662 8.74112 26.2662L7.99216 19.8751Z" fill="#3D6C34"/>
<path d="M13.9846 21.1732C18.778 30.0609 31.6602 27.5644 34.8557 17.5782C33.0582 11.0372 26.6671 6.54346 19.6767 7.39229C17.8293 7.59201 16.1316 8.14125 14.6337 8.99008C12.6365 11.5865 11.0886 15.7307 13.9846 21.1732Z" fill="#8BB847"/>
<path d="M13.9846 21.1733C11.0386 15.7308 12.6364 11.5865 14.6337 8.94019C9.6905 11.5865 6.64471 17.0789 7.29381 22.9708C8.19257 30.7101 15.1829 36.2524 22.9222 35.3536C30.6615 34.4549 36.2038 27.4646 35.3051 19.7253C35.2052 18.9763 35.0554 18.2773 34.8557 17.5283C31.6601 27.5644 18.7779 30.061 13.9846 21.1733Z" fill="#558834"/>
<path d="M28.8154 12.1357C31.4118 14.0331 33.9083 18.0276 31.6115 19.176C29.9638 20.0248 28.4159 15.7807 26.4187 14.2328C24.4215 12.685 22.624 11.8362 22.9735 10.9374C23.323 10.0886 26.2689 10.2384 28.8154 12.1357Z" fill="#AED24C"/>
<path d="M21.5749 10.4381C21.4251 11.7862 17.9799 10.9873 18.0298 9.9388C18.0298 8.84032 21.6748 9.43949 21.5749 10.4381Z" fill="#AED24C"/>
<path d="M18.0766 31.9086C19.4554 31.9086 20.5732 30.7909 20.5732 29.4121C20.5732 28.0333 19.4554 26.9155 18.0766 26.9155C16.6978 26.9155 15.5801 28.0333 15.5801 29.4121C15.5801 30.7909 16.6978 31.9086 18.0766 31.9086Z" fill="#294E14"/>
<path d="M14.6811 26.8655C15.2051 26.8655 15.6298 26.4408 15.6298 25.9168C15.6298 25.3929 15.2051 24.9681 14.6811 24.9681C14.1572 24.9681 13.7324 25.3929 13.7324 25.9168C13.7324 26.4408 14.1572 26.8655 14.6811 26.8655Z" fill="#294E14"/>
<path d="M10.2877 22.1221C10.8392 22.1221 11.2863 21.675 11.2863 21.1235C11.2863 20.572 10.8392 20.1249 10.2877 20.1249C9.73616 20.1249 9.28906 20.572 9.28906 21.1235C9.28906 21.675 9.73616 22.1221 10.2877 22.1221Z" fill="#294E14"/>
<path d="M26.1663 24.4688C27.2969 24.4688 28.2135 23.5523 28.2135 22.4217C28.2135 21.2911 27.2969 20.3745 26.1663 20.3745C25.0357 20.3745 24.1191 21.2911 24.1191 22.4217C24.1191 23.5523 25.0357 24.4688 26.1663 24.4688Z" fill="#294E14"/>
<path d="M23.7179 20.0749C24.3797 20.0749 24.9162 19.5384 24.9162 18.8766C24.9162 18.2147 24.3797 17.6782 23.7179 17.6782C23.056 17.6782 22.5195 18.2147 22.5195 18.8766C22.5195 19.5384 23.056 20.0749 23.7179 20.0749Z" fill="#294E14"/>
<path d="M16.4783 17.5784C16.8644 17.5784 17.1774 17.2654 17.1774 16.8793C17.1774 16.4933 16.8644 16.1803 16.4783 16.1803C16.0923 16.1803 15.7793 16.4933 15.7793 16.8793C15.7793 17.2654 16.0923 17.5784 16.4783 17.5784Z" fill="#294E14"/>
<path d="M29.161 30.6602C29.7677 30.6602 30.2595 30.1684 30.2595 29.5617C30.2595 28.9551 29.7677 28.4633 29.161 28.4633C28.5543 28.4633 28.0625 28.9551 28.0625 29.5617C28.0625 30.1684 28.5543 30.6602 29.161 30.6602Z" fill="#294E14"/>
</svg>
