<svg width="209" height="271" viewBox="0 0 209 271" fill="none" xmlns="http://www.w3.org/2000/svg">
<path d="M16.7921 254.463C16.7921 254.463 16.8919 253.964 16.7921 253.464C16.6922 253.015 17.2414 252.516 17.6908 252.815C18.1901 253.115 18.989 253.364 19.3885 252.915C19.7879 252.466 19.3385 251.817 18.0403 250.768C16.7421 249.719 15.9432 249.47 15.5438 249.969C15.1443 250.419 16.4425 251.367 16.2928 251.817C16.143 252.216 15.7435 252.665 15.4439 252.615C15.1443 252.566 14.4453 252.715 14.4453 252.715L16.7921 254.463Z" fill="#3D6C34"/>
<path d="M5.95614 263.9C5.95614 263.9 5.85628 264.399 5.95614 264.899C6.05601 265.348 5.50676 265.847 5.05739 265.548C4.55808 265.248 3.75918 264.998 3.35973 265.448C2.96028 265.897 3.40967 266.546 4.70787 267.595C6.00607 268.643 6.80497 268.893 7.20442 268.394C7.60386 267.944 6.30566 266.996 6.45545 266.546C6.60525 266.097 7.00469 265.697 7.30428 265.747C7.60386 265.797 8.3029 265.647 8.3029 265.647L5.95614 263.9Z" fill="#3D6C34"/>
<path d="M16.043 264.549C16.043 264.549 16.5423 264.649 17.0416 264.549C17.491 264.449 17.9903 264.998 17.6907 265.448C17.3911 265.947 17.1414 266.746 17.5908 267.145C18.0402 267.545 18.6893 267.096 19.7379 265.797C20.7864 264.499 21.0361 263.7 20.5368 263.301C20.0874 262.901 19.1387 264.2 18.6893 264.05C18.2899 263.9 17.8405 263.5 17.8904 263.201C17.9403 262.901 17.7906 262.202 17.7906 262.202L16.043 264.549Z" fill="#3D6C34"/>
<path d="M6.75529 253.864C6.75529 253.864 6.25598 253.764 5.75667 253.864C5.30729 253.964 4.80798 253.414 5.10757 252.965C5.40715 252.466 5.65681 251.667 5.20743 251.267C4.75806 250.868 4.10895 251.317 3.0604 252.615C2.01186 253.914 1.7622 254.713 2.26151 255.112C2.71088 255.511 3.65957 254.213 4.10895 254.363C4.5084 254.513 4.95778 254.912 4.90785 255.212C4.85792 255.511 5.00771 256.21 5.00771 256.21L6.75529 253.864Z" fill="#3D6C34"/>
<path d="M12.1479 252.116C12.1479 252.116 11.7983 251.617 11.349 251.317C10.8996 251.018 10.8996 250.169 11.5487 250.019C12.1978 249.869 13.0965 249.37 13.0466 248.671C12.9967 247.972 12.0979 247.772 10.1506 248.022C8.20331 248.271 7.35449 248.671 7.40442 249.42C7.45435 250.119 9.30179 249.869 9.50152 250.319C9.70124 250.768 9.75118 251.467 9.45159 251.667C9.15201 251.866 8.70263 252.566 8.70263 252.566L12.1479 252.116Z" fill="#3D6C34"/>
<path d="M10.6508 266.247C10.6508 266.247 11.0003 266.746 11.4496 267.046C11.899 267.345 11.899 268.194 11.2499 268.344C10.6008 268.493 9.70206 268.993 9.75199 269.692C9.80192 270.391 10.7007 270.591 12.648 270.341C14.5953 270.141 15.4441 269.692 15.3942 268.943C15.3443 268.244 13.4968 268.494 13.2971 268.044C13.0974 267.595 13.0474 266.896 13.347 266.696C13.6466 266.496 14.096 265.797 14.096 265.797L10.6508 266.247Z" fill="#3D6C34"/>
<path d="M18.4396 259.905C18.4396 259.905 18.9389 259.556 19.2385 259.107C19.5381 258.657 20.3869 258.657 20.5367 259.306C20.6865 259.955 21.1858 260.854 21.8848 260.804C22.5839 260.754 22.7836 259.855 22.534 257.908C22.3342 255.961 21.8848 255.112 21.1359 255.162C20.4369 255.212 20.6865 257.059 20.2371 257.259C19.7877 257.459 19.0887 257.509 18.889 257.209C18.6893 256.91 17.9902 256.46 17.9902 256.46L18.4396 259.905Z" fill="#3D6C34"/>
<path d="M4.35942 258.457C4.35942 258.457 3.86011 258.807 3.56053 259.256C3.26094 259.706 2.41211 259.706 2.26232 259.057C2.11253 258.407 1.61322 257.509 0.914189 257.559C0.215156 257.609 0.0154311 258.507 0.265086 260.455C0.464809 262.402 0.914189 263.251 1.66315 263.201C2.36219 263.151 2.11253 261.303 2.56191 261.104C3.01129 260.904 3.71032 260.854 3.91004 261.154C4.10977 261.453 4.8088 261.903 4.8088 261.903L4.35942 258.457Z" fill="#3D6C34"/>
<path d="M7.55158 259.106C10.0981 263.85 16.9386 262.502 18.6862 257.209C17.7375 253.714 14.3422 251.367 10.5974 251.767C9.59874 251.866 8.69999 252.166 7.90109 252.615C6.80261 254.014 5.95379 256.21 7.55158 259.106Z" fill="#8BB847"/>
<path d="M7.55264 259.106C6.00478 256.211 6.8536 254.014 7.90215 252.615C5.30574 254.014 3.65802 256.91 4.00754 260.055C4.45692 264.15 8.20174 267.095 12.2961 266.646C16.3904 266.197 19.3363 262.452 18.887 258.358C18.837 257.958 18.7871 257.559 18.6373 257.209C16.9396 262.502 10.0492 263.85 7.55264 259.106Z" fill="#558834"/>
<path d="M15.4415 254.313C16.7896 255.312 18.1377 257.459 16.9394 258.058C16.0406 258.507 15.2417 256.26 14.1932 255.412C13.1446 254.563 12.1959 254.163 12.3457 253.664C12.4955 253.215 14.0434 253.314 15.4415 254.313Z" fill="#AED24C"/>
<path d="M11.5468 253.414C11.4469 254.113 9.5995 253.714 9.64943 253.115C9.69936 252.566 11.5967 252.865 11.5468 253.414Z" fill="#AED24C"/>
<path d="M9.6997 264.848C10.4443 264.848 11.0478 264.245 11.0478 263.5C11.0478 262.756 10.4443 262.152 9.6997 262.152C8.95515 262.152 8.35156 262.756 8.35156 263.5C8.35156 264.245 8.95515 264.848 9.6997 264.848Z" fill="#294E14"/>
<path d="M7.90361 262.152C8.17937 262.152 8.40292 261.929 8.40292 261.653C8.40292 261.377 8.17937 261.154 7.90361 261.154C7.62785 261.154 7.4043 261.377 7.4043 261.653C7.4043 261.929 7.62785 262.152 7.90361 262.152Z" fill="#294E14"/>
<path d="M5.55706 259.656C5.86039 259.656 6.10629 259.41 6.10629 259.106C6.10629 258.803 5.86039 258.557 5.55706 258.557C5.25372 258.557 5.00781 258.803 5.00781 259.106C5.00781 259.41 5.25372 259.656 5.55706 259.656Z" fill="#294E14"/>
<path d="M13.9969 260.904C14.6036 260.904 15.0954 260.412 15.0954 259.806C15.0954 259.199 14.6036 258.707 13.9969 258.707C13.3902 258.707 12.8984 259.199 12.8984 259.806C12.8984 260.412 13.3902 260.904 13.9969 260.904Z" fill="#294E14"/>
<path d="M12.6979 258.557C13.0564 258.557 13.347 258.267 13.347 257.908C13.347 257.55 13.0564 257.259 12.6979 257.259C12.3394 257.259 12.0488 257.55 12.0488 257.908C12.0488 258.267 12.3394 258.557 12.6979 258.557Z" fill="#294E14"/>
<path d="M8.85257 257.259C9.07317 257.259 9.25202 257.08 9.25202 256.86C9.25202 256.639 9.07317 256.46 8.85257 256.46C8.63196 256.46 8.45312 256.639 8.45312 256.86C8.45312 257.08 8.63196 257.259 8.85257 257.259Z" fill="#294E14"/>
<path d="M15.5933 264.199C15.9242 264.199 16.1925 263.931 16.1925 263.6C16.1925 263.269 15.9242 263.001 15.5933 263.001C15.2624 263.001 14.9941 263.269 14.9941 263.6C14.9941 263.931 15.2624 264.199 15.5933 264.199Z" fill="#294E14"/>
<path d="M207.581 5.87794C207.231 5.82801 207.131 6.77669 206.882 6.87656C206.632 6.92649 206.282 6.87655 206.183 6.67683C206.183 6.6269 206.133 6.57697 206.083 6.52704C206.083 5.82801 205.883 5.07904 205.484 4.42994C205.533 4.33008 205.533 4.23021 205.533 4.08042C205.533 3.73091 205.983 3.48125 206.282 3.78084C206.582 4.08042 207.131 4.38001 207.481 4.13036C207.83 3.8807 207.631 3.33146 206.882 2.38277C206.133 1.43409 205.633 1.1345 205.284 1.38415C204.934 1.63381 205.683 2.53256 205.484 2.78222C205.334 3.03187 204.984 3.28153 204.785 3.18167C204.685 3.13174 204.585 3.13174 204.435 3.13174C203.886 2.68236 203.287 2.33284 202.637 2.18305C202.588 2.08319 202.538 1.98333 202.438 1.88346C202.238 1.68374 202.338 1.23436 202.687 1.23436C203.037 1.23436 203.536 1.08457 203.636 0.735052C203.686 0.385535 203.237 0.185811 202.238 0.0360179C201.239 -0.0638439 200.74 0.0360194 200.69 0.435467C200.64 0.784983 201.589 0.884846 201.689 1.1345C201.789 1.38415 201.689 1.73367 201.489 1.83353C201.389 1.88346 201.289 1.93339 201.189 2.03325C200.54 2.08319 199.891 2.28291 199.292 2.58249C199.192 2.53256 199.042 2.53256 198.893 2.53256C198.543 2.53256 198.294 2.08319 198.593 1.7836C198.893 1.48401 199.192 0.934774 198.943 0.585257C198.693 0.235741 198.144 0.435467 197.195 1.18443C196.246 1.93339 195.947 2.4327 196.196 2.78222C196.446 3.13173 197.345 2.38277 197.594 2.58249C197.844 2.73229 198.094 3.0818 197.994 3.28153C197.944 3.38139 197.944 3.53118 197.944 3.68098C197.794 3.8807 197.644 4.08042 197.495 4.33008C197.295 4.67959 197.145 5.07904 197.045 5.47849C196.945 5.52842 196.895 5.57835 196.796 5.62828C196.596 5.82801 196.146 5.72814 196.146 5.37863C196.146 5.02911 195.997 4.5298 195.647 4.42994C195.298 4.38001 195.098 4.82939 194.948 5.828C194.848 6.82662 194.948 7.32593 195.348 7.37586C195.697 7.4258 195.797 6.47711 196.047 6.37725C196.296 6.27738 196.646 6.37724 196.746 6.57697C196.796 6.6269 196.846 6.72676 196.895 6.82662C196.945 7.52565 197.095 8.17476 197.445 8.77393C197.395 8.87379 197.395 9.02358 197.395 9.17337C197.395 9.52289 196.945 9.77255 196.646 9.47296C196.346 9.17338 195.797 8.87379 195.447 9.12345C195.098 9.3731 195.298 9.92234 196.047 10.871C196.796 11.8197 197.295 12.1193 197.644 11.8696C197.994 11.62 197.245 10.7212 197.445 10.4716C197.594 10.2219 197.944 9.97227 198.144 10.0721C198.244 10.1221 198.393 10.1221 198.543 10.1221C199.042 10.5714 199.642 10.871 200.291 11.0707C200.341 11.1706 200.391 11.2705 200.49 11.3703C200.69 11.5701 200.59 12.0194 200.241 12.0194C199.891 12.0194 199.392 12.1692 199.292 12.5188C199.242 12.8683 199.692 13.068 200.69 13.2178C201.689 13.3176 202.188 13.2178 202.238 12.8183C202.288 12.4688 201.339 12.369 201.239 12.1193C201.19 11.8696 201.239 11.5201 201.439 11.4203C201.539 11.3703 201.639 11.3204 201.739 11.2205C202.438 11.1706 203.087 11.0208 203.736 10.6713C203.836 10.7212 203.936 10.7212 204.086 10.7212C204.435 10.7212 204.685 11.1706 204.385 11.4702C204.085 11.7698 203.786 12.319 204.036 12.6685C204.285 13.0181 204.834 12.8183 205.783 12.0694C206.732 11.3204 207.031 10.8211 206.782 10.4716C206.532 10.1221 205.633 10.871 205.384 10.6713C205.134 10.5215 204.884 10.172 204.984 9.97227C205.034 9.87241 205.034 9.77254 205.034 9.67268C205.533 9.12344 205.883 8.47435 206.033 7.77531C206.083 7.72538 206.133 7.67545 206.233 7.62552C206.432 7.4258 206.882 7.52566 206.882 7.87517C206.882 8.22469 207.031 8.724 207.381 8.82386C207.73 8.87379 207.93 8.42441 208.08 7.42579C208.08 6.42717 207.98 5.92787 207.581 5.87794Z" fill="#ADD9E3"/>
</svg>
