<svg width="186" height="323" viewBox="0 0 186 323" fill="none" xmlns="http://www.w3.org/2000/svg">
<path d="M18.7519 271.433C18.7519 271.433 18.4107 269.796 18.7519 268.295C19.0931 266.793 17.3872 265.224 15.8179 266.179C14.2486 267.135 11.5876 267.953 10.2912 266.452C8.99483 264.951 10.4277 262.836 14.5898 259.561C18.7519 256.286 21.2082 255.467 22.5046 256.968C23.801 258.469 19.7071 261.471 20.1847 262.768C20.6624 264.064 21.8905 265.429 22.8458 265.292C23.801 265.156 25.9844 265.565 25.9844 265.565L18.7519 271.433Z" fill="#3D6C34"/>
<path d="M53.3431 301.455C53.3431 301.455 53.6843 303.092 53.3431 304.593C53.0702 306.095 54.7077 307.664 56.2771 306.709C57.8464 305.753 60.5074 304.935 61.8038 306.436C63.1002 307.937 61.6673 310.052 57.5052 313.327C53.3431 316.602 50.8868 317.421 49.5904 315.92C48.294 314.419 52.3879 311.417 51.9103 310.12C51.4327 308.824 50.2045 307.459 49.2493 307.596C48.294 307.732 46.1106 307.323 46.1106 307.323L53.3431 301.455Z" fill="#3D6C34"/>
<path d="M21.2109 303.57C21.2109 303.57 19.5734 303.911 18.0723 303.57C16.5712 303.297 15.0019 304.935 15.9571 306.504C16.9124 308.073 17.7312 310.734 16.2301 312.031C14.729 313.327 12.6138 311.894 9.33871 307.732C6.06362 303.57 5.24485 301.114 6.74594 299.817C8.24702 298.521 11.2492 302.615 12.5456 302.137C13.842 301.659 15.2066 300.431 15.0701 299.476C14.9337 298.521 15.4113 296.337 15.4113 296.337L21.2109 303.57Z" fill="#3D6C34"/>
<path d="M50.7525 269.386C50.7525 269.386 52.39 269.045 53.8911 269.386C55.3922 269.659 56.9615 268.022 56.0063 266.452C55.0511 264.883 54.2323 262.222 55.7334 260.926C57.2345 259.629 59.3496 261.062 62.6247 265.224C65.8998 269.386 66.7186 271.843 65.2175 273.139C63.7164 274.435 60.7142 270.341 59.4179 270.819C58.1215 271.297 56.7568 272.525 56.8933 273.48C57.0298 274.435 56.6204 276.619 56.6204 276.619L50.7525 269.386Z" fill="#3D6C34"/>
<path d="M33.6972 263.928C33.6972 263.928 34.7889 262.29 36.29 261.335C37.7911 260.38 37.7229 257.65 35.6077 257.173C33.5608 256.695 30.695 255.194 30.8315 252.874C30.968 250.554 33.9019 250.008 40.0427 250.759C46.1835 251.51 48.9128 252.874 48.7081 255.194C48.5716 257.514 42.6355 256.627 41.9532 258.06C41.2709 259.493 41.2027 261.676 42.0897 262.358C42.9767 263.041 44.4095 265.224 44.4095 265.224L33.6972 263.928Z" fill="#3D6C34"/>
<path d="M38.4029 308.96C38.4029 308.96 37.3112 310.598 35.8101 311.553C34.3091 312.508 34.3773 315.237 36.4925 315.715C38.6076 316.193 41.4051 317.694 41.2686 320.014C41.1322 322.334 38.1982 322.879 32.0574 322.129C25.9166 321.446 23.1874 320.014 23.3921 317.694C23.5286 315.374 29.4646 316.261 30.147 314.828C30.8293 313.395 30.8975 311.212 30.0105 310.53C29.1235 309.847 27.6906 307.664 27.6906 307.664L38.4029 308.96Z" fill="#3D6C34"/>
<path d="M13.5005 288.764C13.5005 288.764 11.863 287.672 10.9077 286.171C9.9525 284.67 7.22323 284.738 6.74562 286.853C6.268 288.9 4.76692 291.766 2.44706 291.629C0.127208 291.493 -0.418624 288.559 0.331918 282.418C1.01423 276.277 2.44708 273.548 4.76694 273.753C7.0868 273.958 6.19976 279.825 7.63261 280.508C9.06546 281.19 11.2489 281.258 11.9312 280.371C12.6135 279.484 14.7969 278.051 14.7969 278.051L13.5005 288.764Z" fill="#3D6C34"/>
<path d="M58.5319 284.056C58.5319 284.056 60.1694 285.147 61.1247 286.648C62.0799 288.15 64.8091 288.081 65.2868 285.966C65.7644 283.919 67.2655 281.054 69.5853 281.19C71.9052 281.326 72.451 284.26 71.7005 290.401C70.9499 296.542 69.5853 299.271 67.2655 299.067C64.9456 298.93 65.8326 292.994 64.3997 292.312C62.9669 291.629 60.7835 291.561 60.1012 292.448C59.4189 293.335 57.2355 294.768 57.2355 294.768L58.5319 284.056Z" fill="#3D6C34"/>
<path d="M48.363 286.239C40.2435 301.387 18.3413 297.088 12.8828 280.098C15.9532 268.977 26.802 261.403 38.6742 262.768C41.8128 263.109 44.6785 264.064 47.2713 265.497C50.6146 269.932 53.3439 276.96 48.363 286.239Z" fill="#8BB847"/>
<path d="M48.3637 286.239C53.3446 276.96 50.6836 269.932 47.272 265.497C55.6644 270 60.85 279.28 59.6901 289.31C58.189 302.41 46.3168 311.826 33.2164 310.325C20.116 308.824 10.7001 296.951 12.2012 283.851C12.3377 282.555 12.6106 281.327 12.9518 280.167C18.342 297.088 40.2442 301.387 48.3637 286.239Z" fill="#558834"/>
<path d="M23.1886 270.887C18.8218 274.094 14.5233 280.917 18.4125 282.896C21.2099 284.329 23.8709 277.164 27.2825 274.503C30.6941 271.842 33.6962 270.478 33.1504 268.977C32.5363 267.407 27.5554 267.68 23.1886 270.887Z" fill="#AED24C"/>
<path d="M35.4698 267.953C35.7427 270.273 41.6106 268.908 41.5424 267.066C41.4741 265.224 35.2651 266.316 35.4698 267.953Z" fill="#AED24C"/>
<path d="M41.4103 304.457C39.074 304.457 37.18 302.563 37.18 300.227C37.18 297.89 39.074 295.996 41.4103 295.996C43.7467 295.996 45.6406 297.89 45.6406 300.227C45.6406 302.563 43.7467 304.457 41.4103 304.457Z" fill="#294E14"/>
<path d="M47.1416 295.86C46.2749 295.86 45.5723 295.157 45.5723 294.29C45.5723 293.424 46.2749 292.721 47.1416 292.721C48.0083 292.721 48.7109 293.424 48.7109 294.29C48.7109 295.157 48.0083 295.86 47.1416 295.86Z" fill="#294E14"/>
<path d="M54.6458 287.809C53.7037 287.809 52.94 287.045 52.94 286.103C52.94 285.161 53.7037 284.397 54.6458 284.397C55.5879 284.397 56.3516 285.161 56.3516 286.103C56.3516 287.045 55.5879 287.809 54.6458 287.809Z" fill="#294E14"/>
<path d="M27.696 291.834C25.7742 291.834 24.2162 290.276 24.2162 288.354C24.2162 286.433 25.7742 284.875 27.696 284.875C29.6178 284.875 31.1758 286.433 31.1758 288.354C31.1758 290.276 29.6178 291.834 27.696 291.834Z" fill="#294E14"/>
<path d="M31.8572 284.261C30.7644 284.261 29.8785 283.375 29.8785 282.282C29.8785 281.189 30.7644 280.303 31.8572 280.303C32.95 280.303 33.8359 281.189 33.8359 282.282C33.8359 283.375 32.95 284.261 31.8572 284.261Z" fill="#294E14"/>
<path d="M44.0687 280.167C43.3904 280.167 42.8406 279.617 42.8406 278.938C42.8406 278.26 43.3904 277.71 44.0687 277.71C44.747 277.71 45.2969 278.26 45.2969 278.938C45.2969 279.617 44.747 280.167 44.0687 280.167Z" fill="#294E14"/>
<path d="M22.5757 302.342C21.5583 302.342 20.7335 301.517 20.7335 300.499C20.7335 299.482 21.5583 298.657 22.5757 298.657C23.5932 298.657 24.418 299.482 24.418 300.499C24.418 301.517 23.5932 302.342 22.5757 302.342Z" fill="#294E14"/>
<path d="M154.031 12.4354C154.031 12.4354 153.831 11.4867 154.031 10.5879C154.231 9.68918 153.232 8.79042 152.333 9.33966C151.435 9.93883 149.837 10.3882 149.088 9.48945C148.339 8.5907 149.188 7.39236 151.634 5.44505C154.081 3.49775 155.529 3.04837 156.328 3.89719C157.077 4.74602 154.68 6.54353 154.93 7.34242C155.179 8.09139 155.928 8.89028 156.528 8.84035C157.127 8.79042 158.375 9.04008 158.375 9.04008L154.031 12.4354Z" fill="#3D6C34"/>
<path d="M174.407 30.1608C174.407 30.1608 174.607 31.1095 174.407 32.0083C174.257 32.907 175.206 33.8058 176.104 33.2566C177.003 32.6574 178.601 32.208 179.35 33.1068C180.099 33.9556 179.25 35.2038 176.803 37.1512C174.357 39.0985 172.909 39.5478 172.11 38.699C171.361 37.8502 173.758 36.0527 173.508 35.2538C173.258 34.5048 172.509 33.7059 171.91 33.7559C171.311 33.8058 170.063 33.5561 170.063 33.5561L174.407 30.1608Z" fill="#3D6C34"/>
<path d="M155.48 31.3592C155.48 31.3592 154.532 31.5589 153.633 31.3592C152.734 31.2094 151.836 32.1581 152.385 33.0568C152.984 33.9556 153.433 35.5534 152.535 36.3023C151.686 37.0513 150.437 36.2025 148.49 33.7559C146.543 31.3093 146.093 29.8613 146.942 29.0624C147.791 28.3134 149.589 30.7101 150.388 30.4604C151.136 30.2108 151.935 29.4618 151.885 28.8626C151.836 28.2635 152.085 27.0152 152.085 27.0152L155.48 31.3592Z" fill="#3D6C34"/>
<path d="M172.857 11.237C172.857 11.237 173.806 11.0373 174.704 11.237C175.603 11.3868 176.502 10.4382 175.953 9.5394C175.354 8.64064 174.904 7.04285 175.803 6.29389C176.652 5.54492 177.9 6.39375 179.847 8.84036C181.795 11.287 182.244 12.735 181.395 13.5339C180.546 14.3328 178.749 11.8862 177.95 12.1358C177.201 12.3855 176.402 13.1344 176.452 13.7336C176.502 14.3328 176.252 15.581 176.252 15.581L172.857 11.237Z" fill="#3D6C34"/>
<path d="M162.822 8.04141C162.822 8.04141 163.471 7.09273 164.32 6.49356C165.169 5.89438 165.169 4.34653 163.921 4.04694C162.672 3.79728 161.025 2.8486 161.124 1.50046C161.224 0.152329 162.922 -0.197188 166.567 0.252191C170.212 0.701569 171.76 1.50046 171.71 2.8486C171.61 4.19673 168.165 3.69742 167.715 4.54625C167.316 5.39507 167.266 6.64335 167.815 7.09272C168.364 7.5421 169.213 8.79038 169.213 8.79038L162.822 8.04141Z" fill="#3D6C34"/>
<path d="M165.618 34.5547C165.618 34.5547 164.969 35.5034 164.12 36.1026C163.272 36.7018 163.272 38.2496 164.52 38.5492C165.768 38.7989 167.416 39.7476 167.316 41.0957C167.216 42.4438 165.518 42.7934 161.874 42.344C158.229 41.8946 156.681 41.0957 156.731 39.7476C156.781 38.3994 160.276 38.8987 160.725 38.0499C161.174 37.2011 161.174 35.9528 160.625 35.5034C160.076 35.0541 159.227 33.8058 159.227 33.8058L165.618 34.5547Z" fill="#3D6C34"/>
<path d="M150.939 22.6712C150.939 22.6712 149.99 22.0221 149.391 21.1733C148.792 20.3244 147.244 20.3244 146.944 21.5727C146.694 22.821 145.746 24.4687 144.398 24.3688C143.049 24.269 142.7 22.5713 143.149 18.9264C143.549 15.3313 144.398 13.7336 145.746 13.7835C147.094 13.8833 146.595 17.3286 147.443 17.778C148.292 18.1774 149.54 18.2273 149.99 17.6781C150.389 17.1289 151.688 16.28 151.688 16.28L150.939 22.6712Z" fill="#3D6C34"/>
<path d="M177.451 19.8751C177.451 19.8751 178.4 20.5242 178.999 21.373C179.598 22.2218 181.146 22.2218 181.446 20.9736C181.695 19.7253 182.644 18.0776 183.992 18.1774C185.34 18.2773 185.69 19.9749 185.24 23.6199C184.841 27.2149 183.992 28.8127 182.644 28.7628C181.296 28.6629 181.795 25.2177 180.946 24.7683C180.098 24.3689 178.849 24.3189 178.4 24.8682C178 25.4174 176.702 26.2662 176.702 26.2662L177.451 19.8751Z" fill="#3D6C34"/>
<path d="M171.461 21.1732C166.667 30.0609 153.785 27.5644 150.59 17.5782C152.387 11.0372 158.778 6.54346 165.769 7.39229C167.616 7.59201 169.314 8.14125 170.812 8.99008C172.809 11.5865 174.357 15.7307 171.461 21.1732Z" fill="#8BB847"/>
<path d="M171.461 21.1732C174.407 15.7307 172.809 11.5865 170.812 8.94012C175.755 11.5865 178.801 17.0789 178.151 22.9707C177.253 30.71 170.262 36.2523 162.523 35.3536C154.784 34.4548 149.242 27.4645 150.14 19.7252C150.24 18.9762 150.39 18.2772 150.59 17.5282C153.785 27.5644 166.667 30.0609 171.461 21.1732Z" fill="#558834"/>
<path d="M156.63 12.1357C154.034 14.0331 151.537 18.0276 153.834 19.176C155.482 20.0248 157.029 15.7807 159.027 14.2328C161.024 12.685 162.821 11.8362 162.472 10.9374C162.122 10.0886 159.176 10.2384 156.63 12.1357Z" fill="#AED24C"/>
<path d="M163.868 10.4381C164.018 11.7862 167.463 10.9873 167.414 9.9388C167.414 8.84032 163.769 9.43949 163.868 10.4381Z" fill="#AED24C"/>
<path d="M167.363 31.9084C165.984 31.9084 164.866 30.7907 164.866 29.4119C164.866 28.0331 165.984 26.9153 167.363 26.9153C168.742 26.9153 169.859 28.0331 169.859 29.4119C169.859 30.7907 168.742 31.9084 167.363 31.9084Z" fill="#294E14"/>
<path d="M170.758 26.8654C170.234 26.8654 169.81 26.4406 169.81 25.9167C169.81 25.3928 170.234 24.968 170.758 24.968C171.282 24.968 171.707 25.3928 171.707 25.9167C171.707 26.4406 171.282 26.8654 170.758 26.8654Z" fill="#294E14"/>
<path d="M175.154 22.1219C174.602 22.1219 174.155 21.6748 174.155 21.1233C174.155 20.5718 174.602 20.1247 175.154 20.1247C175.705 20.1247 176.152 20.5718 176.152 21.1233C176.152 21.6748 175.705 22.1219 175.154 22.1219Z" fill="#294E14"/>
<path d="M159.277 24.4687C158.146 24.4687 157.23 23.5522 157.23 22.4216C157.23 21.2909 158.146 20.3744 159.277 20.3744C160.408 20.3744 161.324 21.2909 161.324 22.4216C161.324 23.5522 160.408 24.4687 159.277 24.4687Z" fill="#294E14"/>
<path d="M161.724 20.0748C161.062 20.0748 160.525 19.5383 160.525 18.8764C160.525 18.2146 161.062 17.6781 161.724 17.6781C162.385 17.6781 162.922 18.2146 162.922 18.8764C162.922 19.5383 162.385 20.0748 161.724 20.0748Z" fill="#294E14"/>
<path d="M168.961 17.5782C168.575 17.5782 168.262 17.2653 168.262 16.8792C168.262 16.4931 168.575 16.1802 168.961 16.1802C169.347 16.1802 169.66 16.4931 169.66 16.8792C169.66 17.2653 169.347 17.5782 168.961 17.5782Z" fill="#294E14"/>
<path d="M156.28 30.6602C155.674 30.6602 155.182 30.1683 155.182 29.5617C155.182 28.955 155.674 28.4632 156.28 28.4632C156.887 28.4632 157.379 28.955 157.379 29.5617C157.379 30.1683 156.887 30.6602 156.28 30.6602Z" fill="#294E14"/>
</svg>
