<svg width="209" height="271" viewBox="0 0 209 271" fill="none" xmlns="http://www.w3.org/2000/svg">
<path d="M191.446 254.463C191.446 254.463 191.346 253.963 191.446 253.464C191.546 253.015 190.997 252.516 190.547 252.815C190.048 253.115 189.249 253.364 188.85 252.915C188.45 252.466 188.9 251.816 190.198 250.768C191.496 249.719 192.295 249.47 192.694 249.969C193.094 250.418 191.796 251.367 191.946 251.816C192.095 252.216 192.495 252.665 192.794 252.615C193.094 252.565 193.793 252.715 193.793 252.715L191.446 254.463Z" fill="#3D6C34"/>
<path d="M202.282 263.9C202.282 263.9 202.382 264.399 202.282 264.898C202.182 265.348 202.732 265.847 203.181 265.547C203.68 265.248 204.479 264.998 204.879 265.448C205.278 265.897 204.829 266.546 203.53 267.595C202.232 268.643 201.433 268.893 201.034 268.394C200.634 267.944 201.933 266.995 201.783 266.546C201.633 266.097 201.234 265.697 200.934 265.747C200.634 265.797 199.935 265.647 199.935 265.647L202.282 263.9Z" fill="#3D6C34"/>
<path d="M192.199 264.549C192.199 264.549 191.7 264.649 191.201 264.549C190.751 264.449 190.252 264.998 190.551 265.448C190.851 265.947 191.101 266.746 190.651 267.145C190.202 267.545 189.553 267.095 188.504 265.797C187.456 264.499 187.206 263.7 187.705 263.301C188.155 262.901 189.104 264.199 189.553 264.05C189.952 263.9 190.402 263.5 190.352 263.201C190.302 262.901 190.452 262.202 190.452 262.202L192.199 264.549Z" fill="#3D6C34"/>
<path d="M201.485 253.864C201.485 253.864 201.984 253.764 202.484 253.864C202.933 253.963 203.432 253.414 203.133 252.965C202.833 252.466 202.583 251.667 203.033 251.267C203.482 250.868 204.131 251.317 205.18 252.615C206.228 253.914 206.478 254.712 205.979 255.112C205.529 255.511 204.581 254.213 204.131 254.363C203.732 254.513 203.282 254.912 203.332 255.212C203.382 255.511 203.233 256.21 203.233 256.21L201.485 253.864Z" fill="#3D6C34"/>
<path d="M196.09 252.116C196.09 252.116 196.44 251.617 196.889 251.317C197.339 251.018 197.339 250.169 196.69 250.019C196.04 249.869 195.142 249.37 195.192 248.671C195.242 247.972 196.14 247.772 198.088 248.022C200.035 248.271 200.884 248.671 200.834 249.42C200.784 250.119 198.936 249.869 198.737 250.319C198.537 250.768 198.487 251.467 198.787 251.667C199.086 251.866 199.536 252.565 199.536 252.565L196.09 252.116Z" fill="#3D6C34"/>
<path d="M197.591 266.246C197.591 266.246 197.242 266.746 196.793 267.045C196.343 267.345 196.343 268.194 196.992 268.344C197.641 268.493 198.54 268.993 198.49 269.692C198.44 270.391 197.542 270.59 195.594 270.341C193.647 270.141 192.798 269.692 192.848 268.943C192.898 268.244 194.745 268.493 194.945 268.044C195.145 267.595 195.195 266.896 194.895 266.696C194.596 266.496 194.146 265.797 194.146 265.797L197.591 266.246Z" fill="#3D6C34"/>
<path d="M189.801 259.905C189.801 259.905 189.301 259.556 189.002 259.106C188.702 258.657 187.853 258.657 187.704 259.306C187.554 259.955 187.054 260.854 186.355 260.804C185.656 260.754 185.457 259.855 185.706 257.908C185.906 255.961 186.355 255.112 187.104 255.162C187.803 255.212 187.554 257.059 188.003 257.259C188.452 257.459 189.152 257.509 189.351 257.209C189.551 256.909 190.25 256.46 190.25 256.46L189.801 259.905Z" fill="#3D6C34"/>
<path d="M203.881 258.457C203.881 258.457 204.38 258.807 204.68 259.256C204.979 259.706 205.828 259.706 205.978 259.056C206.128 258.407 206.627 257.509 207.326 257.559C208.025 257.608 208.225 258.507 207.975 260.454C207.775 262.402 207.326 263.251 206.577 263.201C205.878 263.151 206.128 261.303 205.678 261.104C205.229 260.904 204.53 260.854 204.33 261.154C204.13 261.453 203.431 261.903 203.431 261.903L203.881 258.457Z" fill="#3D6C34"/>
<path d="M200.687 259.106C198.14 263.85 191.3 262.502 189.552 257.209C190.501 253.714 193.896 251.367 197.641 251.767C198.64 251.866 199.538 252.166 200.337 252.615C201.436 254.013 202.284 256.21 200.687 259.106Z" fill="#8BB847"/>
<path d="M200.686 259.106C202.234 256.21 201.385 254.013 200.336 252.615C202.933 254.013 204.58 256.909 204.231 260.055C203.781 264.149 200.037 267.095 195.942 266.646C191.848 266.197 188.902 262.452 189.351 258.357C189.401 257.958 189.451 257.559 189.601 257.209C191.299 262.502 198.189 263.85 200.686 259.106Z" fill="#558834"/>
<path d="M192.795 254.313C191.447 255.312 190.099 257.459 191.297 258.058C192.196 258.507 192.995 256.26 194.043 255.411C195.092 254.563 196.04 254.163 195.891 253.664C195.741 253.215 194.193 253.314 192.795 254.313Z" fill="#AED24C"/>
<path d="M196.691 253.414C196.791 254.113 198.639 253.714 198.589 253.115C198.539 252.565 196.642 252.865 196.691 253.414Z" fill="#AED24C"/>
<path d="M198.539 264.848C197.794 264.848 197.19 264.245 197.19 263.5C197.19 262.756 197.794 262.152 198.539 262.152C199.283 262.152 199.887 262.756 199.887 263.5C199.887 264.245 199.283 264.848 198.539 264.848Z" fill="#294E14"/>
<path d="M200.333 262.152C200.057 262.152 199.833 261.929 199.833 261.653C199.833 261.377 200.057 261.154 200.333 261.154C200.608 261.154 200.832 261.377 200.832 261.653C200.832 261.929 200.608 262.152 200.333 262.152Z" fill="#294E14"/>
<path d="M202.681 259.655C202.378 259.655 202.132 259.41 202.132 259.106C202.132 258.803 202.378 258.557 202.681 258.557C202.985 258.557 203.23 258.803 203.23 259.106C203.23 259.41 202.985 259.655 202.681 259.655Z" fill="#294E14"/>
<path d="M194.241 260.904C193.635 260.904 193.143 260.412 193.143 259.805C193.143 259.199 193.635 258.707 194.241 258.707C194.848 258.707 195.34 259.199 195.34 259.805C195.34 260.412 194.848 260.904 194.241 260.904Z" fill="#294E14"/>
<path d="M195.542 258.557C195.184 258.557 194.893 258.267 194.893 257.908C194.893 257.55 195.184 257.259 195.542 257.259C195.901 257.259 196.191 257.55 196.191 257.908C196.191 258.267 195.901 258.557 195.542 258.557Z" fill="#294E14"/>
<path d="M199.386 257.259C199.165 257.259 198.986 257.08 198.986 256.859C198.986 256.639 199.165 256.46 199.386 256.46C199.606 256.46 199.785 256.639 199.785 256.859C199.785 257.08 199.606 257.259 199.386 257.259Z" fill="#294E14"/>
<path d="M192.643 264.199C192.312 264.199 192.044 263.931 192.044 263.6C192.044 263.269 192.312 263.001 192.643 263.001C192.974 263.001 193.242 263.269 193.242 263.6C193.242 263.931 192.974 264.199 192.643 264.199Z" fill="#294E14"/>
<path d="M0.659565 5.87788C1.00908 5.82795 1.10896 6.77663 1.35861 6.87649C1.60826 6.92643 1.95779 6.87649 2.05765 6.67677C2.05765 6.62684 2.10756 6.57691 2.15749 6.52698C2.15749 5.82795 2.35722 5.07898 2.75667 4.42988C2.70674 4.33002 2.70675 4.23015 2.70675 4.08036C2.70675 3.73084 2.25737 3.48119 1.95779 3.78078C1.6582 4.08036 1.10895 4.37995 0.759433 4.13029C0.409916 3.88064 0.609646 3.3314 1.35861 2.38271C2.10757 1.43402 2.60689 1.13444 2.9564 1.38409C3.30592 1.63375 2.55695 2.5325 2.75667 2.78216C2.90646 3.03181 3.25599 3.28147 3.45571 3.18161C3.55558 3.13168 3.65544 3.13168 3.80524 3.13168C4.35448 2.6823 4.95364 2.33278 5.60274 2.18299C5.65267 2.08313 5.70261 1.98326 5.80247 1.8834C6.0022 1.68368 5.90233 1.2343 5.55282 1.2343C5.2033 1.2343 4.70398 1.08451 4.60412 0.73499C4.55419 0.385474 5.00356 0.18575 6.00218 0.0359569C7.0008 -0.0639049 7.50012 0.0359584 7.55006 0.435406C7.59999 0.784922 6.6513 0.884785 6.55144 1.13444C6.45157 1.38409 6.55142 1.73361 6.75114 1.83347C6.851 1.8834 6.95088 1.93333 7.05075 2.03319C7.69985 2.08312 8.34894 2.28285 8.94811 2.58243C9.04798 2.5325 9.19776 2.5325 9.34756 2.5325C9.69707 2.5325 9.94671 2.08312 9.64713 1.78354C9.34754 1.48395 9.04798 0.934713 9.29764 0.585196C9.54729 0.23568 10.0965 0.435406 11.0452 1.18437C11.9939 1.93333 12.2935 2.43264 12.0438 2.78216C11.7942 3.13167 10.8954 2.38271 10.6457 2.58243C10.3961 2.73223 10.1464 3.08174 10.2463 3.28147C10.2962 3.38133 10.2963 3.53112 10.2963 3.68092C10.446 3.88064 10.5958 4.08036 10.7456 4.33002C10.9453 4.67953 11.0951 5.07898 11.195 5.47843C11.2949 5.52836 11.3448 5.57829 11.4447 5.62822C11.6444 5.82795 12.0938 5.72808 12.0938 5.37857C12.0938 5.02905 12.2435 4.52974 12.5931 4.42988C12.9426 4.37995 13.1423 4.82932 13.2921 5.82794C13.392 6.82656 13.2921 7.32587 12.8926 7.3758C12.5431 7.42573 12.4433 6.47705 12.1936 6.37719C11.944 6.27732 11.5944 6.37718 11.4946 6.57691C11.4446 6.62684 11.3947 6.7267 11.3448 6.82656C11.2949 7.52559 11.1451 8.1747 10.7956 8.77387C10.8455 8.87373 10.8455 9.02352 10.8455 9.17331C10.8455 9.52283 11.2949 9.77249 11.5944 9.4729C11.894 9.17332 12.4433 8.87373 12.7928 9.12339C13.1423 9.37304 12.9426 9.92228 12.1936 10.871C11.4447 11.8197 10.9453 12.1192 10.5958 11.8696C10.2463 11.6199 10.9953 10.7212 10.7956 10.4715C10.6458 10.2219 10.2962 9.97221 10.0965 10.0721C9.99666 10.122 9.84687 10.122 9.69708 10.122C9.19777 10.5714 8.5986 10.871 7.9495 11.0707C7.89957 11.1706 7.84962 11.2704 7.74976 11.3703C7.55004 11.57 7.6499 12.0194 7.99941 12.0194C8.34893 12.0194 8.84825 12.1692 8.94811 12.5187C8.99805 12.8682 8.54867 13.0679 7.55006 13.2177C6.55144 13.3176 6.05211 13.2177 6.00218 12.8183C5.95225 12.4688 6.90093 12.3689 7.0008 12.1192C7.05073 11.8696 7.00081 11.5201 6.80109 11.4202C6.70123 11.3703 6.60135 11.3203 6.50149 11.2205C5.80245 11.1706 5.15335 11.0208 4.50425 10.6712C4.40439 10.7212 4.30452 10.7212 4.15473 10.7212C3.80521 10.7212 3.55557 11.1706 3.85516 11.4701C4.15474 11.7697 4.45433 12.319 4.20468 12.6685C3.95502 13.018 3.40578 12.8183 2.4571 12.0693C1.50841 11.3203 1.20882 10.821 1.45848 10.4715C1.70813 10.122 2.60688 10.871 2.85654 10.6712C3.10619 10.5214 3.35584 10.1719 3.25598 9.97221C3.20605 9.87235 3.20606 9.77248 3.20606 9.67262C2.70675 9.12338 2.35723 8.47429 2.20744 7.77525C2.15751 7.72532 2.10757 7.67539 2.00771 7.62546C1.80798 7.42573 1.35861 7.5256 1.35861 7.87511C1.35861 8.22463 1.20882 8.72394 0.859301 8.8238C0.509784 8.87373 0.310048 8.42435 0.160255 7.42573C0.160255 6.42711 0.260118 5.92781 0.659565 5.87788Z" fill="#ADD9E3"/>
</svg>
