<svg xmlns="http://www.w3.org/2000/svg" xmlns:xlink="http://www.w3.org/1999/xlink" viewBox="0 0 162.5 162.5">
    <defs>
        <linearGradient id="linear-gradient" x1="111.63" y1="10.37" x2="59.81" y2="131.28"
                        gradientUnits="userSpaceOnUse">
            <stop offset="0" stop-color="#6bb22f"
            />
            <stop offset="1" stop-color="#539a16"/>
        </linearGradient>
    </defs>
    <title>weChat</title>
    <g class="cls-1">
        <g id="Layer_1" data-name="Layer 1">

            <path class="cls-2" fill="url(#linear-gradient)"
                  d="M9.62,0H152.88a9.62,9.62,0,0,1,9.62,9.62V152.88a9.62,9.62,0,0,1-9.62,9.62H9.63A9.63,9.63,0,0,1,0,152.88V9.63A9.62,9.62,0,0,1,9.62,0Z"/>
            <path class="cls-3" fill="#FFFFFF"
                  d="M164.72,157.74c7.49-5.43,12.28-13.46,12.28-22.38,0-16.36-15.91-29.61-35.54-29.61S105.93,119,105.93,135.36,121.84,165,141.46,165a42.16,42.16,0,0,0,11.6-1.62l1.05-.16a3.76,3.76,0,0,1,1.88.54l7.79,4.5.68.22a1.18,1.18,0,0,0,1.18-1.19l-.19-.86-1.6-6-.12-.76A2.36,2.36,0,0,1,164.72,157.74ZM101.66,73.05C78.11,73.05,59,89,59,108.59c0,10.7,5.74,20.34,14.73,26.86a2.84,2.84,0,0,1,1.2,2.31l-.15.91-1.92,7.17-.23,1a1.42,1.42,0,0,0,1.42,1.43l.82-.27,9.34-5.39a4.49,4.49,0,0,1,2.26-.65l1.25.18a50.23,50.23,0,0,0,13.92,2l2.34-.06a27.65,27.65,0,0,1-1.43-8.71c0-17.9,17.42-32.41,38.89-32.41l2.32.06C140.57,86,122.94,73.05,101.66,73.05Zm28,57.57a4.74,4.74,0,1,1,4.73-4.74A4.74,4.74,0,0,1,129.62,130.62Zm23.69,0a4.74,4.74,0,1,1,4.73-4.74A4.74,4.74,0,0,1,153.31,130.62ZM87.45,102.9a5.69,5.69,0,1,1,5.68-5.68A5.69,5.69,0,0,1,87.45,102.9Zm28.43,0a5.69,5.69,0,1,1,5.68-5.68A5.68,5.68,0,0,1,115.88,102.9Z"
                  transform="translate(-35.25 -44.5)"/>
        </g>
    </g>
</svg>
