<svg id="Layer_1" data-name="Layer 1" xmlns="http://www.w3.org/2000/svg" viewBox="0 0 16 16"><title>whatsApp</title><rect id="background" width="16" height="16" rx="1" style="fill:#25d366"/><g id="WA_Logo" data-name="WA Logo"><path d="M11.54,4.44A4.91,4.91,0,0,0,8,3,5,5,0,0,0,3,8a4.92,4.92,0,0,0,.67,2.49L3,13l2.64-.69A5,5,0,0,0,8,12.94H8a5,5,0,0,0,3.52-8.5ZM8,12.1H8a4.14,4.14,0,0,1-2.11-.58l-.15-.09-1.56.41.41-1.53-.09-.15A4.09,4.09,0,0,1,3.88,8,4.14,4.14,0,1,1,8,12.1ZM10.29,9c-.12-.06-.74-.37-.85-.41s-.2-.06-.28.06a5.6,5.6,0,0,1-.39.49c-.08.09-.15.1-.27,0a3.21,3.21,0,0,1-1-.61,3.94,3.94,0,0,1-.7-.87c-.07-.12,0-.19.06-.25l.19-.22A.82.82,0,0,0,7.17,7a.24.24,0,0,0,0-.22l-.38-.93c-.1-.24-.21-.21-.28-.21H6.26a.46.46,0,0,0-.33.15,1.39,1.39,0,0,0-.44,1A2.49,2.49,0,0,0,6,8.14,5.52,5.52,0,0,0,8.12,10c.3.13.53.21.71.27a1.83,1.83,0,0,0,.79.05,1.32,1.32,0,0,0,.84-.6,1.07,1.07,0,0,0,.07-.59C10.5,9.09,10.42,9.06,10.29,9Z" transform="translate(0 0)" style="fill:#fff;fill-rule:evenodd"/></g></svg>