<svg width="245" height="171" viewBox="0 0 245 171" fill="none" xmlns="http://www.w3.org/2000/svg">
<path d="M54.3852 140.872L76.055 96.2145L83.147 98.9376L91.1704 94.8799L98.8781 106.174L114.898 140.814C114.905 140.83 114.909 140.841 114.917 140.857L114.925 140.872C115.447 142.118 114.04 143.41 110.483 144.56C101.653 147.414 82.9249 148.313 68.6551 146.573C58.4924 145.335 53.3292 143.09 54.3852 140.872Z" fill="#151C29"/>
<path d="M54.385 140.873L76.0548 96.2148L83.1468 98.938L83.4274 98.7991L91.4157 111.034L84.1678 120.06L85.3368 128.854L80.4269 137.417L107.236 145.424C97.5959 147.576 81.3582 148.12 68.651 146.573C58.4922 145.335 53.329 143.09 54.385 140.873Z" fill="#024E68"/>
<path d="M54.3812 140.873L72.3412 103.563L80.2594 97.8311L74.6676 111.366L82.0441 117.526L78.7825 124.461L70.5994 129.552L70.763 146.813C70.046 146.739 69.3407 146.662 68.6432 146.577C58.4922 145.335 53.329 143.091 54.3812 140.873Z" fill="#0B6A84"/>
<path d="M97.2177 105.807L92.6507 104.018L91.018 107.937L86.3653 107.022L85.6249 103.501L84.3779 103.381L83.4271 106.189L78.564 106.833L79.3433 101.962L76.7364 101.761L72.1383 105.838L71.4758 104.681L75.9493 94.8456L89.545 90.7725L92.7442 94.2786L97.5256 101.962L98.3127 104.886L97.2177 105.807Z" fill="#C2E9F9"/>
<path d="M75.9495 94.8455L84.99 85.7852L89.5453 90.7724L92.8809 98.8068L89.9622 102.961L92.273 104.92L91.0183 107.937L86.3655 107.022L85.6252 103.501L84.3782 103.381L83.4274 106.189L78.5642 106.833L79.3436 101.962L76.7367 101.761L72.1385 105.838L71.4761 104.681L75.9495 94.8455Z" fill="#E3F8FF"/>
<path d="M75.9493 94.8454L83.0141 87.7676L86.8212 93.8464L81.9386 100.778L81.6424 107.936L78.564 106.833L79.3434 101.962L76.7364 101.761L72.1383 105.838L71.4758 104.681L75.9493 94.8454Z" fill="white"/>
<path fill-rule="evenodd" clip-rule="evenodd" d="M175.59 171H238.331L217.609 105.303L204.897 114.489L195.958 109.451L175.59 171Z" fill="#151C29"/>
<path fill-rule="evenodd" clip-rule="evenodd" d="M175.59 171H227.414L219.46 159.885V138.97L205.252 114.234L204.898 114.489L195.959 109.451L175.59 171Z" fill="#024E68"/>
<path fill-rule="evenodd" clip-rule="evenodd" d="M175.59 171H197.573L206.659 153.137L197.856 154.327L194.217 137.452L201.266 112.44L195.959 109.451L175.59 171Z" fill="#0B6A84"/>
<path d="M221.517 130.231L218.064 130.418L217.534 140.914H212.773L211.822 134.379L206.191 127.803L205.252 135.497L202.107 135.357L200.046 129.768L196.188 123.192L192.514 131.614L187.853 133.397L195.83 109.295L210.552 95.7939L217.741 105.095L226.567 133.153L224.459 137.39L221.517 130.231Z" fill="#C2E9F9"/>
<path d="M195.83 109.296L206.659 92.6802L210.552 95.7943L215.372 105.303L211.128 117.525L218.4 123.795L217.535 140.915H212.773L211.822 134.38L206.191 127.803L205.252 135.498L202.108 135.357L200.046 129.768L196.188 123.192L192.514 131.614L187.853 133.397L195.83 109.296Z" fill="#E3F8FF"/>
<path d="M195.83 109.296L206.659 92.6802L208.736 94.3438L202.419 111.687L205.93 112.415L201.866 124.013L205.252 135.498L202.108 135.357L200.046 129.768L196.188 123.192L192.514 131.614L187.853 133.397L195.83 109.296Z" fill="white"/>
<path fill-rule="evenodd" clip-rule="evenodd" d="M179.885 171L140.838 76.8329L129.938 82.2483L110.498 70.1523L73.5437 171H179.885Z" fill="#0B6A84"/>
<path fill-rule="evenodd" clip-rule="evenodd" d="M179.885 171L140.838 76.833L129.939 82.2484L129.393 81.909L107.665 114.475V142.007L115.166 153.054L92.1092 165.732L90.5781 171H179.885Z" fill="#024E68"/>
<path fill-rule="evenodd" clip-rule="evenodd" d="M180.286 171L155.692 107.042L140.838 76.833L135.492 79.5561L139.517 112.357L146.375 125.934L127.246 133.132L152.255 150.118L146.827 171H180.286Z" fill="#151C29"/>
<path d="M105.319 110.459L111.616 103.308L114.761 115.227L123.466 116.507L126.245 107.709L128.653 107.343L129.393 109.908L134.209 109.726L135.133 97.4453L139.209 97.2602L151.063 111.744L156.008 107.142L132.994 81.5694L118.545 64.4014L110.299 69.8823L99.2791 100.022L98.9089 106.425L105.319 110.459Z" fill="white"/>
<path d="M140.838 75.6179L118.545 64.4014L122.402 76.1116L116.203 80.8327L116.791 100.091L112.337 106.047L114.761 115.227L123.466 116.507L126.245 107.709L128.653 107.343L129.393 109.908L134.21 109.726L135.133 97.4453L139.209 97.2602L149.867 110.344L156.008 107.142L140.838 75.6179Z" fill="#E3F8FF"/>
<path d="M140.838 75.6176L130.453 70.395L125.664 74.0014L136.154 81.5691L125.664 89.1985L131.739 109.819L134.21 109.726L135.133 97.4451L139.209 97.2599L151.063 111.743L156.008 107.142L140.838 75.6176Z" fill="#C2E9F9"/>
<path fill-rule="evenodd" clip-rule="evenodd" d="M213.927 171L185.265 104.241L172.791 109.656L155.049 99.7744L125.907 171H213.927Z" fill="#0B6A84"/>
<path fill-rule="evenodd" clip-rule="evenodd" d="M213.927 171L185.265 104.241L172.791 109.657L172.296 109.379L147.513 144.845L156.359 157.446L142.198 165.369L128.341 165.199L125.924 171H213.927Z" fill="#024E68"/>
<path fill-rule="evenodd" clip-rule="evenodd" d="M175.799 171H213.927L185.265 104.241L177.857 107.458L181.68 138.319L189.107 151.341L175.799 171ZM145.649 171H152.283L147.279 164.543L145.649 171Z" fill="#151C29"/>
<path d="M150.326 132.711L156.07 126.871L161.682 130.308L166.619 136.078L169.288 128.248L171.618 130.165L175.885 135.631L182.927 135.368L183.558 129.567L187.116 128.248L192.068 133.76H198.813L185.448 104.072L161.682 83.4785L154.87 99.5511L147.657 115.157L151.211 123.172L150.326 132.711Z" fill="white"/>
<path d="M185.447 104.072L174.431 94.5254L165.434 104.072L155.661 113.915L160.797 124.241L159.706 129.039L159.507 139.206L166.618 136.078L169.288 128.248L171.618 130.165L175.885 135.631L179.263 133.147L183.558 129.567L187.115 128.248L192.068 133.76H198.813L185.447 104.072Z" fill="#E3F8FF"/>
<path d="M185.448 104.072L174.311 101.599L173.434 113.101L168.298 121.513L174.981 128.287L177.237 128.209L178.332 118.003L184.399 115.643L192.068 133.76H198.813L185.448 104.072Z" fill="#C2E9F9"/>
<path fill-rule="evenodd" clip-rule="evenodd" d="M88.978 171L61.1536 97.9382L50.0128 103.391L34.1687 93.4385L6.01855 171H88.978Z" fill="#0B6A84"/>
<path fill-rule="evenodd" clip-rule="evenodd" d="M88.9775 171L61.1532 97.9385L50.0125 103.392L49.5682 103.111L31.8575 129.907V152.559L21.1025 165.62L26.797 171H88.9775Z" fill="#024E68"/>
<path fill-rule="evenodd" clip-rule="evenodd" d="M88.9778 171L61.1535 97.9385L54.5368 101.178L63.324 128.271L58.7921 146.555L47.8188 145.263L62.8814 171H88.9778Z" fill="#151C29"/>
<path d="M29.2937 120.451L33.5957 120.654L34.2582 132.021H40.1929L41.3814 124.942L48.3955 117.822L49.5684 126.157L53.4924 126.004L56.0604 119.95L59.5129 129.961L65.4476 121.951L71.2616 123.88L61.3171 97.7715L50.7491 74.3872L34.0049 93.2176L23.0005 123.614L25.623 128.208L29.2937 120.451Z" fill="white"/>
<path d="M61.3173 97.7715L50.7493 74.3872L48.5048 90.543L36.9588 93.4435L42.2467 106.685L33.179 113.48L34.2584 132.021H40.1931L41.3816 124.942L48.3957 117.822L49.5686 126.157L53.4926 126.004L56.0606 119.95L59.5131 129.961L65.4478 121.951L71.2618 123.88L61.3173 97.7715Z" fill="#E3F8FF"/>
<path d="M61.3174 97.7717L56.9569 88.1216L52.6666 93.4436L53.103 100.36L60.6276 110.196L47.0046 107.919L49.5687 126.157L53.4927 126.004L56.0607 119.95L59.5132 129.961L65.4479 121.951L71.2618 123.88L61.3174 97.7717Z" fill="#C2E9F9"/>
<path fill-rule="evenodd" clip-rule="evenodd" d="M139.817 171L116.982 132.831L104.672 136.668L90.741 130.952L77.3635 146.855L63.5979 171H139.817Z" fill="#0B6A84"/>
<path fill-rule="evenodd" clip-rule="evenodd" d="M139.818 171L116.982 132.83L104.672 136.668L104.181 136.471L84.6118 155.317V171H139.818Z" fill="#024E68"/>
<path fill-rule="evenodd" clip-rule="evenodd" d="M139.342 170L123.423 143.179L109.676 135.11L119.386 154.168L106.578 162.843L110.048 170H139.342Z" fill="#003C4C"/>
<path d="M80.2397 152.008L88.1696 148.857L91.0064 155.754L99.0766 154.141L100.366 147.947L102.533 147.735L104.181 152.679L108.335 153.813L110.552 147.299L114.399 148.394L123.782 152.062L126.065 147.515L117.165 132.711L101.469 116.77L88.0059 131.72L79.5889 142.863L78.2173 148.008L80.2397 152.008Z" fill="white"/>
<path d="M117.165 132.711L101.469 116.769L97.5879 132.707L87.7681 139.684L92.8338 146.997L88.8241 150.442L91.0063 155.753L99.0764 154.141L100.366 147.946L102.533 147.734L104.181 152.679L108.335 153.813L110.552 147.298L114.398 148.394L123.782 152.062L126.065 147.514L117.165 132.711Z" fill="#E3F8FF"/>
<path d="M117.165 132.711L105.689 128.294L111.733 139.87L106.765 143.152L106.262 153.246L108.335 153.813L110.552 147.298L114.398 148.394L123.782 152.062L126.065 147.514L117.165 132.711Z" fill="#C2E9F9"/>
<path d="M130.631 18.6605C131.642 18.7098 134.254 18.9642 135.183 19.3664C138.027 20.6057 136.468 23.3551 136.451 24.3893C136.352 29.6584 137.214 31.3737 137.231 34.8864C137.239 35.9123 137.214 36.9875 136.742 37.8985C136.252 38.8588 135.324 39.5236 134.337 39.975C133.284 40.4592 132.082 40.73 130.946 40.492C129.188 40.1227 127.878 38.5879 127.281 36.9054C126.684 35.2229 126.684 33.4091 126.692 31.6363C126.7 29.2398 126.709 26.835 126.717 24.4385C126.717 23.5357 126.7 22.6329 126.717 21.7301C126.725 21.3033 126.725 20.8601 126.866 20.4497C126.957 20.2035 127.853 18.521 130.631 18.6605Z" fill="#F04923"/>
<path d="M130.191 19.3336C130.415 19.4813 130.631 19.6372 130.871 19.7603C131.651 20.1871 132.604 20.2938 133.284 20.8601C133.732 21.2294 134.005 21.7711 134.196 22.321C134.378 22.8709 134.478 23.4454 134.636 24.0035C134.702 24.2333 134.801 24.496 135.034 24.5698C135.274 24.6519 135.523 24.4878 135.689 24.299C136.228 23.6999 136.277 22.8217 136.294 22.0174C136.302 21.3936 136.286 20.7042 135.879 20.2199C135.788 20.1133 135.672 19.9491 135.78 19.8506C135.838 19.7932 135.937 19.8014 136.004 19.8424C136.733 20.3184 136.941 21.3115 136.883 22.1158C136.825 22.8463 136.543 23.5275 136.46 24.2497C136.451 24.299 136.451 24.3482 136.451 24.3893C136.352 29.6584 137.214 31.3737 137.231 34.8864C137.239 35.9123 137.214 36.9875 136.742 37.8985C136.252 38.8588 135.324 39.5236 134.337 39.975C133.284 40.4592 132.082 40.73 130.946 40.492C129.188 40.1227 127.878 38.5879 127.281 36.9054C126.684 35.2229 126.684 33.4091 126.692 31.6363C126.7 29.2398 126.709 26.835 126.717 24.4385C126.717 23.5357 126.7 22.6329 126.717 21.7301C126.725 21.3033 126.725 20.8601 126.866 20.4498C126.999 20.0558 127.355 19.7029 127.679 19.4485C128.292 18.9642 129.055 18.7344 129.793 19.0873C129.926 19.1776 130.059 19.2515 130.191 19.3336Z" fill="#F04923"/>
<path d="M134.893 27.9266C135.274 27.7378 135.747 27.7296 136.145 27.8937C136.7 28.1153 137.165 28.5913 137.223 29.1741C137.289 29.9291 137.388 30.6842 137.488 31.4393C137.695 32.9412 137.869 34.435 137.878 35.9533C137.886 37.1352 137.853 38.3581 137.314 39.4086C136.75 40.5084 135.689 41.2717 134.561 41.7888C133.997 42.0514 133.392 42.3469 132.986 41.6738C132.836 41.4276 132.778 41.1322 132.753 40.8367C132.612 39.2281 133.193 37.6523 133.475 36.06C133.856 33.8933 133.674 31.6691 134.022 29.4942C134.097 29.0099 134.221 28.5011 134.578 28.1564C134.669 28.0579 134.777 27.984 134.893 27.9266Z" fill="#D03816"/>
<path d="M138.226 26.5971C138.218 26.5971 138.218 26.5971 138.21 26.5971C138.143 26.5889 138.094 26.5233 138.102 26.4576L141.269 2.18034C141.277 2.11468 141.344 2.06544 141.41 2.07365C141.476 2.08186 141.526 2.14752 141.518 2.21317L138.351 26.4904C138.342 26.5561 138.284 26.5971 138.226 26.5971Z" fill="#151C29"/>
<path d="M117.265 66.8294C117.132 66.8212 116.999 66.854 116.875 66.9197C116.676 67.0099 116.245 66.7965 116.087 66.9443C115.142 67.8143 114.263 68.7499 113.036 69.1603C112.937 69.1931 112.829 69.2259 112.738 69.2834C112.646 69.3408 112.572 69.743 112.555 69.8497C112.539 69.9892 112.646 70.1124 112.771 70.1616C113.451 70.4406 114.454 70.334 115.167 70.1206C115.548 70.0057 115.913 69.8415 116.286 69.7184C116.552 69.6281 116.834 69.5624 117.107 69.5132C117.406 69.464 117.737 69.4229 117.936 69.1849C118.102 68.9961 118.127 68.7335 118.111 68.4873C118.086 68.1179 117.978 67.765 117.853 67.4203C117.779 67.2069 117.679 66.9853 117.489 66.8868C117.414 66.854 117.339 66.8294 117.265 66.8294Z" fill="#151C29"/>
<path d="M117.381 67.0342C117.298 67.0834 117.224 67.1655 117.174 67.2558C117.099 67.3871 117.066 67.5348 117.025 67.6826C116.759 68.5115 116.021 69.1599 115.217 69.4964C114.744 69.6934 114.247 69.8001 113.749 69.8575C113.501 69.8903 113.243 69.8986 112.995 69.915C112.845 69.9232 112.53 69.8575 112.646 70.0955C112.787 70.3746 113.6 70.35 113.865 70.3417C114.297 70.3335 114.736 70.2597 115.159 70.1284C115.54 70.0135 115.905 69.8493 116.278 69.7262C116.544 69.6359 116.826 69.5703 117.099 69.521C117.398 69.4718 117.729 69.4307 117.928 69.1927C118.094 69.0039 118.119 68.7413 118.102 68.4951C118.078 68.1258 117.97 67.7728 117.845 67.4281C117.779 67.2476 117.796 66.9521 117.514 66.9849C117.472 66.9931 117.423 67.0096 117.381 67.0342Z" fill="#151C29"/>
<path d="M142.103 2.07275L138.763 26.5148C158.594 25.1679 158.155 34.0494 173.394 34.0494C175.105 30.0087 178.967 22.2047 181.43 17.4312C166.693 12.2219 167.298 2.07275 142.103 2.07275Z" fill="#00BE40"/>
<path d="M152.498 11.6837C152.398 12.1139 152.238 12.4733 152.019 12.7619C151.801 13.0485 151.542 13.2597 151.243 13.3956L151.863 14.1626L151.026 14.5907L150.203 13.5554C150.106 13.5466 150.01 13.5314 149.915 13.5098C149.515 13.4186 149.181 13.2461 148.914 12.9923C148.647 12.7386 148.466 12.4215 148.371 12.041C148.278 11.6611 148.28 11.2489 148.376 10.8045L148.434 10.5586C148.54 10.1008 148.718 9.71743 148.966 9.4086C149.217 9.10025 149.521 8.88689 149.877 8.7685C150.235 8.6506 150.616 8.63776 151.021 8.72999C151.418 8.82073 151.752 8.99537 152.02 9.25388C152.288 9.5124 152.468 9.83483 152.559 10.2212C152.653 10.6059 152.649 11.022 152.548 11.4697L152.498 11.6837ZM151.391 11.2262C151.499 10.7641 151.502 10.3959 151.4 10.1216C151.301 9.84567 151.107 9.67459 150.816 9.60837C150.517 9.54018 150.265 9.6071 150.059 9.80913C149.854 10.0112 149.697 10.3398 149.588 10.795L149.539 11.009C149.432 11.4668 149.427 11.8356 149.522 12.1153C149.619 12.3929 149.817 12.566 150.119 12.6347C150.407 12.7004 150.655 12.6304 150.864 12.4246C151.075 12.2193 151.234 11.8911 151.341 11.4402L151.391 11.2262Z" fill="white"/>
<path d="M157.324 10.2346L156.616 13.2786C156.535 13.6235 156.391 13.9058 156.184 14.1253C155.977 14.3428 155.719 14.4859 155.411 14.5546C155.103 14.6233 154.76 14.6145 154.381 14.5282C153.809 14.3977 153.392 14.148 153.131 13.7791C152.871 13.4102 152.797 12.9695 152.909 12.457L153.623 9.39061L154.762 9.65035L154.043 12.7391C153.937 13.2509 154.117 13.5598 154.582 13.6658C154.816 13.7193 155.008 13.6959 155.159 13.5956C155.309 13.4953 155.417 13.3014 155.484 13.0139L156.191 9.97631L157.324 10.2346Z" fill="white"/>
<path d="M158.158 15.3223L157.029 15.0647L158.111 10.4141L159.241 10.6717L158.158 15.3223Z" fill="white"/>
<path d="M163.114 14.7939C163.023 15.1141 162.868 15.3804 162.649 15.5928C162.43 15.803 162.159 15.9429 161.834 16.0125C161.512 16.0825 161.164 16.0749 160.79 15.9895C160.172 15.8487 159.732 15.5388 159.47 15.0596C159.208 14.5805 159.161 13.9779 159.33 13.2517L159.384 13.0218C159.49 12.5661 159.662 12.186 159.9 11.8816C160.142 11.5756 160.434 11.3643 160.779 11.2477C161.123 11.129 161.494 11.1147 161.89 11.205C162.46 11.335 162.883 11.5885 163.16 11.9656C163.438 12.3406 163.539 12.7943 163.465 13.3268L162.336 13.0693C162.393 12.7841 162.368 12.5643 162.262 12.4099C162.155 12.2555 161.963 12.1467 161.685 12.0834C161.403 12.0191 161.172 12.0764 160.993 12.2551C160.813 12.4339 160.666 12.7514 160.553 13.2078L160.477 13.5368C160.361 14.0329 160.341 14.4017 160.417 14.6431C160.494 14.885 160.686 15.041 160.994 15.1111C161.254 15.1705 161.467 15.1552 161.633 15.0652C161.799 14.9752 161.917 14.7992 161.987 14.5371L163.114 14.7939Z" fill="white"/>
<path d="M165.283 15.1238L164.701 15.5225L164.415 16.749L163.283 16.4907L164.365 11.8401L165.498 12.0984L165.021 14.149L165.552 13.6479L166.905 12.4192L168.305 12.7385L166.239 14.4335L167.223 17.3892L165.88 17.0831L165.283 15.1238Z" fill="white"/>
<path d="M148.942 19.8953C148.98 19.7313 148.951 19.5901 148.854 19.4715C148.759 19.3535 148.575 19.2119 148.303 19.0467C148.032 18.8816 147.813 18.7319 147.647 18.5976C147.107 18.1628 146.897 17.6867 147.018 17.1692C147.077 16.9116 147.206 16.702 147.402 16.5404C147.601 16.3772 147.851 16.2729 148.154 16.2276C148.457 16.1802 148.782 16.1959 149.129 16.2749C149.466 16.3519 149.755 16.4805 149.994 16.6605C150.235 16.8411 150.404 17.059 150.501 17.3143C150.598 17.5675 150.614 17.8357 150.548 18.1189L149.419 17.8614C149.463 17.6719 149.438 17.5115 149.344 17.3801C149.252 17.2493 149.106 17.1611 148.906 17.1155C148.704 17.0693 148.533 17.0775 148.394 17.14C148.257 17.2008 148.173 17.2993 148.142 17.4356C148.114 17.5549 148.153 17.6782 148.259 17.8056C148.366 17.9308 148.57 18.0827 148.87 18.2611C149.171 18.4374 149.412 18.6089 149.593 18.7757C150.034 19.1811 150.194 19.6383 150.076 20.1472C149.981 20.5539 149.752 20.838 149.388 20.9995C149.025 21.1609 148.573 21.1801 148.033 21.057C147.652 20.9701 147.322 20.8243 147.044 20.6195C146.768 20.4131 146.579 20.1749 146.476 19.9048C146.376 19.6332 146.362 19.344 146.433 19.0374L147.569 19.2964C147.511 19.5455 147.533 19.7444 147.634 19.8931C147.738 20.0401 147.936 20.147 148.229 20.2137C148.416 20.2564 148.573 20.2506 148.699 20.1963C148.827 20.1404 148.908 20.0401 148.942 19.8953Z" fill="white"/>
<path d="M154.937 18.5781L153.527 18.2566L152.646 22.0416L151.513 21.7833L152.394 17.9983L151.01 17.6827L151.211 16.8171L155.138 17.7125L154.937 18.5781Z" fill="white"/>
<path d="M157.021 22.1242L155.468 21.7703L154.995 22.5773L153.785 22.3014L156.591 18.0437L157.655 18.2865L158.309 23.333L157.093 23.0556L157.021 22.1242ZM155.941 20.9665L156.951 21.1968L156.82 19.4683L155.941 20.9665Z" fill="white"/>
<path d="M160.782 22.168L160.169 22.0282L159.787 23.67L158.654 23.4117L159.737 18.7611L161.586 19.1827C162.143 19.3097 162.55 19.5315 162.807 19.848C163.064 20.1645 163.141 20.5464 163.037 20.9935C162.961 21.3172 162.832 21.5703 162.649 21.7528C162.469 21.9358 162.222 22.0612 161.909 22.129L162.454 24.2276L162.443 24.2755L161.23 23.9989L160.782 22.168ZM160.371 21.1626L161.087 21.3259C161.302 21.375 161.476 21.3564 161.61 21.2702C161.746 21.1824 161.837 21.0384 161.884 20.8382C161.93 20.638 161.912 20.469 161.828 20.3311C161.745 20.1911 161.597 20.0969 161.384 20.0483L160.668 19.8849L160.371 21.1626Z" fill="white"/>
<path d="M167.374 21.414L165.963 21.0924L165.083 24.8774L163.95 24.6192L164.831 20.8341L163.446 20.5185L163.648 19.6529L167.575 20.5484L167.374 21.414Z" fill="white"/>
<path opacity="0.2" d="M181.126 17.1706C169.423 13.0165 166.192 4.78744 153.392 2.67578C164.742 17.0371 158.342 24.371 167.041 32.6001C168.595 33.3122 170.562 33.7474 173.151 33.7474C174.829 29.7318 178.682 21.9181 181.126 17.1706Z" fill="#00BE40"/>
<path d="M136.899 74.5359C136.758 74.5195 135.962 74.3554 135.813 75.2254C135.697 75.8573 135.324 76.4072 134.777 76.7683C134.644 76.8504 134.511 76.9325 134.404 77.0392C134.296 77.1458 134.221 77.3018 134.246 77.4413C134.279 77.6465 134.495 77.7614 134.702 77.827C135.423 78.0733 136.261 78.024 136.974 77.7204C137.248 77.6055 137.53 77.4331 137.646 77.1623C137.729 76.9817 137.729 76.7683 137.836 76.5878C137.952 76.3908 138.168 76.2677 138.259 76.0625C138.35 75.8491 138.259 75.6111 138.127 75.4305C137.853 75.0694 137.405 74.5852 136.899 74.5359Z" fill="#151C29"/>
<path d="M137.165 74.7648C137.115 74.8223 137.09 74.9044 137.098 74.9782C137.098 75.0849 137.14 75.1834 137.173 75.2819C137.314 75.7087 137.314 76.1847 137.173 76.6197C137.073 76.9316 136.891 77.227 136.617 77.4158C136.286 77.6538 135.863 77.7113 135.465 77.662C135.067 77.6128 134.702 77.4732 134.337 77.3337C134.18 77.5964 134.478 77.7441 134.694 77.818C135.415 78.0642 136.252 78.0149 136.966 77.7113C137.239 77.5964 137.521 77.424 137.637 77.1532C137.72 76.9726 137.72 76.7592 137.828 76.5786C137.944 76.3817 138.159 76.2586 138.251 76.0534C138.342 75.84 138.251 75.602 138.118 75.4214C137.994 75.2491 137.496 74.5597 137.231 74.6992C137.214 74.7238 137.189 74.7402 137.165 74.7648Z" fill="#151C29"/>
<path d="M118.135 67.7075C119.039 63.53 119.338 59.8777 119.478 58.2609C119.694 55.7905 118.036 53.9931 118.84 52.8523C119.951 51.26 132.281 49.8155 132.986 43.4877C133.035 43.0363 133.06 42.5602 132.977 42.1335C132.878 41.6246 132.629 41.2553 132.372 40.9434C130.888 39.1378 127.347 37.7015 126.021 40.6397C125.324 42.1745 113.376 48.8307 114.031 51.9084C115.722 59.8695 115.25 62.3728 115.772 67.1576C115.78 67.1905 118.077 67.9784 118.135 67.7075Z" fill="#151C29"/>
<path d="M117.199 67.5927C117.19 67.6338 117.381 67.6912 117.704 67.7569C117.787 67.7733 118.102 67.8472 118.127 67.7077C119.031 63.5301 119.329 59.8779 119.47 58.261C119.686 55.7906 118.028 53.9932 118.832 52.8524C119.072 52.5077 119.545 52.3435 119.91 52.1876C122.688 50.9893 125.614 50.3738 128.235 49.0196C129.545 48.3466 130.871 47.5176 131.841 46.2537C132.256 45.712 132.613 45.0718 132.812 44.3496C132.936 43.89 133.102 43.4222 132.886 42.9544C132.621 42.3798 132.065 42.0269 131.559 42.0023C130.863 41.9613 130.225 42.3798 129.636 42.8148C126.004 45.5068 122.936 49.1591 118.857 50.9975C118.276 51.2602 117.63 51.5228 117.356 52.1219C117.132 52.6226 117.215 53.2463 117.298 53.8291C117.696 56.7098 117.837 59.4511 117.737 62.0282C117.688 63.2757 117.588 64.4904 117.431 65.6722C117.389 66.099 117.215 67.5517 117.199 67.5927Z" fill="#151C29"/>
<path d="M133.525 64.5235C134.694 69.6366 135.017 73.0673 135.747 75.2176C135.772 75.2833 136.634 74.7662 137.919 75.0453C138.011 75.0617 137.894 69.2181 137.82 67.9787C137.704 65.7381 136.452 58.8029 136.435 58.2448C136.385 56.825 137.132 42.4293 133.815 39.409C132.563 38.2764 127.298 36.7252 126.477 38.8673C125.722 40.8371 126.27 42.9053 128.425 48.117C131.643 55.9057 132.231 58.885 133.525 64.5235Z" fill="#151C29"/>
<path d="M136.285 66.2382C136.567 67.4118 136.783 68.6019 136.957 69.8002C137.106 70.8835 137.214 71.9833 137.272 73.0749C137.289 73.3868 137.222 74.4045 137.388 74.8887C137.421 74.979 137.645 74.9954 137.927 75.0446C138.018 75.0036 137.894 69.2174 137.828 67.9781C137.513 61.9622 136.46 58.8023 136.443 58.2442C136.402 57.087 137.222 39.7695 133.674 40.3441C133.11 40.4343 132.67 40.9104 132.471 41.4356C132.272 41.9609 132.256 42.5436 132.248 43.1181C132.173 47.6978 132.098 52.3924 133.334 56.9311C133.939 59.1553 134.843 61.3138 135.548 63.538C135.813 64.4244 136.062 65.3272 136.285 66.2382Z" fill="#151C29"/>
<path d="M139.569 30.4956C139.528 30.077 139.147 28.0498 139.147 28.0334C139.03 27.582 139.221 27.2701 139.362 26.7859C139.412 26.5971 139.52 26.4166 139.536 26.2196C139.569 25.9406 139.155 25.6287 138.948 25.4317C138.541 25.0296 138.516 25.0214 137.811 25.3004C137.554 25.4071 137.173 25.5959 137.223 25.8667C137.289 26.2114 137.272 26.236 137.098 26.5069C136.916 26.7941 137.015 26.8023 137.272 26.9747C137.505 27.1306 137.513 27.4589 137.679 27.6805C137.753 27.779 138.11 27.7954 138.193 28.1729C138.226 28.3371 138.392 28.7721 138.268 29.1332C138.151 29.4533 137.928 29.7405 137.762 30.0278C137.488 29.4943 137.132 28.9608 136.758 28.4848C136.136 27.6969 133.798 29.4451 134.039 29.995C134.329 30.6598 134.951 31.1276 135.523 31.5379C136.103 31.9483 136.692 32.3833 137.38 32.5967C137.637 32.6787 138.01 32.8265 138.276 32.7772C138.566 32.7198 138.823 32.5146 139.014 32.293C139.03 32.2766 139.039 32.2602 139.055 32.2438C139.437 31.7513 139.627 31.1112 139.569 30.4956Z" fill="#F2D3BD"/>
<path d="M139.569 30.4952C139.528 30.0766 139.146 28.0494 139.146 28.033C139.03 27.5816 139.221 27.2697 139.362 26.7855C139.395 26.6706 139.727 25.9812 139.304 26.1371C139.237 26.1617 139.188 26.211 139.13 26.2602C138.931 26.449 138.732 26.6295 138.533 26.8183C138.392 26.9496 138.234 27.1138 138.259 27.3107C138.143 27.3107 138.027 27.319 137.927 27.3682C137.828 27.4174 137.745 27.5241 137.77 27.6308C137.803 27.8032 138.027 27.8442 138.193 27.9181C138.4 28.0084 138.549 28.1971 138.624 28.4023C138.707 28.6075 138.732 28.8373 138.74 29.0589C138.815 30.1094 138.715 31.2092 138.201 32.1367C138.11 32.2926 137.977 32.4567 137.803 32.4485C137.72 32.4403 137.654 32.4075 137.587 32.3665C136.451 31.7181 135.282 31.0369 134.528 29.9699C134.47 29.8878 134.403 29.7894 134.312 29.7401C134.121 29.6334 133.956 29.8058 134.039 29.9945C134.329 30.6593 134.951 31.1272 135.523 31.5375C136.103 31.9479 136.692 32.3829 137.38 32.5963C137.637 32.6783 138.01 32.8261 138.276 32.7768C138.566 32.7194 138.823 32.5142 139.014 32.2926C139.03 32.2762 139.038 32.2598 139.055 32.2434C139.436 31.7509 139.627 31.1107 139.569 30.4952Z" fill="#E2B698"/>
<path d="M137.073 31.5212C137.106 30.1999 136.228 29.4448 135.987 28.4107C136.219 28.3532 136.509 28.386 136.675 28.583C136.982 28.9688 137.496 29.5925 137.703 30.1096C137.388 30.6841 137.082 31.431 137.073 31.5212Z" fill="#E2B698"/>
<path d="M133.135 45.5069C133.997 45.4987 136.427 45.1704 136.186 44.3004C135.979 43.5699 134.262 36.3557 134.777 32.2684C134.777 32.6131 140.373 39.0641 139.843 29.1661C139.818 28.7311 139.627 28.3043 139.312 28.0088C138.997 27.7134 138.417 27.6559 138.151 28.0006C138.052 28.5177 137.952 29.0347 137.844 29.56C137.106 28.6654 136.369 27.7708 135.647 26.8598C135.125 26.2032 134.777 25.4481 134.196 24.8326C133.359 23.938 132.397 23.4045 131.344 23.0352C132.571 22.4853 133.558 20.1626 129.694 20.4252C128.632 20.4991 126.079 20.9915 126.485 22.7889C124.511 22.4278 123.11 20.4334 121.535 19.3501C120.241 18.4555 118.301 13.1699 117.314 11.2494C117.074 10.7816 115.299 11.2822 115.374 11.8978C116.319 19.5142 117.422 19.4978 119.835 22.6166C120.755 23.8149 121.767 24.9557 122.521 26.2607C123.55 28.0499 123.682 30.1427 123.956 32.1371C124.196 33.9017 124.47 35.6663 124.835 37.4144C125.764 41.8874 123.284 40.7712 125.249 42.1665C125.73 42.503 130.001 45.5315 133.135 45.5069Z" fill="#00BE40"/>
<path d="M126.17 22.8135C125.971 22.5099 125.416 22.4278 125.101 22.2472C124.644 21.9846 124.23 21.6563 123.832 21.3116C123.069 20.655 122.364 19.9163 121.535 19.3418C120.242 18.4472 118.301 13.1617 117.315 11.2412C117.157 10.9375 116.079 10.9703 116.063 11.3725C116.054 11.5367 116.195 11.6762 116.345 11.75C116.494 11.8239 116.66 11.8649 116.801 11.947C117.066 12.103 117.223 12.3902 117.356 12.6693C117.937 13.8347 118.517 15.0084 118.932 16.2395C119.222 17.1094 119.437 18.0204 119.935 18.8001C120.383 19.506 121.038 20.0641 121.693 20.5976C122.936 21.6071 124.487 22.8053 126.17 22.8135Z" fill="#00BE40"/>
<path d="M137.405 34.5414C137.695 34.6481 138.4 34.6153 138.533 34.5578C138.881 34.4183 139.121 34.131 139.304 33.811C140.042 32.4732 139.917 30.6183 139.843 29.1574C139.818 28.7224 139.627 28.2956 139.312 28.0002C138.997 27.7047 138.417 27.6473 138.151 27.992C138.052 28.509 137.952 29.0261 137.845 29.5514C137.107 28.6568 136.369 27.7622 135.647 26.8512C135.125 26.1946 134.777 25.4395 134.196 24.8239C133.359 23.9294 132.397 23.3959 131.344 23.0265C132.571 22.4767 133.558 20.154 129.694 20.4166C128.898 20.4741 126.742 20.6464 127.455 21.9432C127.671 22.3371 128.102 22.5669 128.533 22.6818C128.964 22.7967 129.42 22.8296 129.86 22.9281C131.419 23.2974 132.571 24.5695 133.533 25.8334C134.445 27.0317 135.282 28.2874 136.037 29.5924C136.891 31.0615 137.654 32.744 137.289 34.4019C137.272 34.4675 137.322 34.5086 137.405 34.5414Z" fill="#00BE40"/>
<path d="M133.151 45.4244C134.105 45.6952 136.36 45.1371 136.178 44.2999C135.465 41.0581 134.544 36.9462 134.685 33.3432C134.71 32.7933 134.768 32.4404 134.544 31.9233C134.287 31.3242 133.972 30.7497 133.599 30.2162C133.541 30.1259 133.458 30.0274 133.35 30.0356C133.201 30.0356 133.135 30.2162 133.11 30.3557C132.894 31.5212 133.127 32.7112 133.218 33.8849C133.491 37.4386 132.455 40.9842 132.654 44.5462C132.671 44.776 132.687 45.0222 132.82 45.2192C132.87 45.3094 132.994 45.3751 133.151 45.4244Z" fill="#00BE40"/>
<path d="M127.596 31.2098C128.027 29.3631 127.886 28.4603 128.351 26.6219C129.271 23.0024 132.687 23.618 130.904 22.3869C130.415 22.0422 127.381 20.9342 126.825 21.443C126.253 21.9765 126.46 23.0517 126.46 23.7329C126.444 27.5493 127.671 26.9255 127.596 31.2098Z" fill="#00BE40"/>
<path d="M131.336 79.3373C131.327 79.3373 131.327 79.3373 131.319 79.3373C131.253 79.3291 131.203 79.2634 131.211 79.1978L137.936 27.7214C137.944 27.6557 138.011 27.6065 138.077 27.6147C138.143 27.6229 138.193 27.6885 138.185 27.7542L131.46 79.2306C131.452 79.2881 131.394 79.3373 131.336 79.3373Z" fill="#151C29"/>
<path d="M116.892 9.27929C117.14 9.11515 117.472 9.1726 117.671 8.90997C117.853 8.66375 117.837 8.24517 118.094 8.09744C118.177 8.04819 118.301 8.00716 118.285 7.90047C118.268 7.81839 118.177 7.76915 118.094 7.76094C117.82 7.74453 117.654 8.02357 117.497 8.23696C117.447 8.29441 117.381 8.36008 117.306 8.32725C117.099 8.23697 117.315 7.23567 117.348 7.05511C117.381 6.89097 117.414 6.72682 117.439 6.55446C117.472 6.35749 117.489 6.15231 117.514 5.94712C117.522 5.86505 117.522 5.77477 117.472 5.70911C117.397 5.62703 117.273 5.65166 117.215 5.73373C117.157 5.8158 117.157 5.9225 117.157 6.0292C117.149 6.30825 117.116 6.58729 117.057 6.85813C117.041 6.94021 117.016 7.03869 116.941 7.07152C116.718 7.17001 116.8 6.70219 116.809 6.62012C116.825 6.34928 116.85 6.07844 116.858 5.79939C116.858 5.63524 116.892 5.19205 116.701 5.10997C116.618 5.07715 116.535 5.12639 116.502 5.20025C116.469 5.27412 116.461 5.3644 116.461 5.45468C116.452 5.88146 116.452 6.30004 116.444 6.72682C116.444 6.80068 116.444 6.87455 116.419 6.94021C116.394 7.00587 116.336 7.05511 116.27 7.05511C116.038 7.0469 116.104 6.23438 116.096 6.07023C116.096 5.9225 116.104 5.46289 115.955 5.35619C115.872 5.29874 115.772 5.34799 115.731 5.43827C115.698 5.52034 115.706 5.62704 115.714 5.72552C115.756 6.1523 115.772 6.57088 115.781 6.99766C115.781 7.05511 115.781 7.12077 115.756 7.17822C115.731 7.22747 115.681 7.2685 115.623 7.26029C115.441 7.21926 115.432 6.40673 115.366 6.24258C115.349 6.20155 115.325 6.1523 115.283 6.1441C115.225 6.13589 115.2 6.20155 115.192 6.25079C115.117 6.5955 115.184 6.98945 115.25 7.35878C115.275 7.53113 115.283 7.70349 115.3 7.87584C115.325 8.13848 115.258 8.40111 115.291 8.65554C115.366 9.2875 115.615 9.29571 115.698 9.72249C115.772 10.1 115.814 11.1259 115.855 11.4953C115.897 11.8318 117.248 11.7661 117.149 11.4953C116.85 10.6745 116.519 9.52552 116.892 9.27929Z" fill="#FEEBDD"/>
<path d="M116.891 9.27921C117.14 9.11506 117.472 9.17251 117.671 8.90988C117.853 8.66365 117.837 8.24508 118.094 8.09734C118.135 8.07272 118.251 8.03989 118.26 7.98244C118.276 7.90858 118.21 7.88395 118.143 7.90037C117.928 7.95782 117.779 8.14659 117.662 8.33536C117.538 8.52413 117.422 8.72111 117.215 8.8196C117.041 8.90167 116.808 8.89346 116.701 9.0494C116.651 9.12327 116.634 9.22176 116.626 9.31204C116.576 9.83731 116.543 10.3626 116.601 10.8879C116.618 11.0192 116.634 11.1505 116.659 11.2818C116.676 11.3721 116.692 11.6019 116.759 11.6676C116.833 11.7496 117.198 11.6594 117.148 11.5116C116.85 10.6745 116.518 9.52543 116.891 9.27921Z" fill="#E2B698"/>
<path d="M130.108 22.7564C130.855 22.5512 130.871 22.387 130.739 22.0916C130.49 21.5253 128.831 20.5896 127.513 21.3857C126.9 21.7551 126.767 25.4894 127.414 26.4825C127.538 26.6713 127.712 26.8026 127.77 26.5892C127.961 25.9408 129.072 23.0354 130.108 22.7564Z" fill="#00BE40"/>
<path d="M130.225 22.7235C130.764 22.5594 130.905 22.4691 130.739 22.0916C130.49 21.5253 128.832 20.5896 127.513 21.3857C127.041 21.673 126.941 22.5183 126.908 23.0026C126.8 24.5784 127.688 25.8505 127.779 25.7849C127.82 25.752 128.019 24.2829 128.915 23.3883C129.371 22.9205 129.984 22.7974 130.225 22.7235Z" fill="white"/>
<path d="M129.205 22.2392C129.246 22.4362 129.304 22.6742 129.246 22.8465C129.196 22.9696 128.591 23.339 128.334 23.2569C128.127 23.1912 127.969 23.0271 127.961 22.8055C127.953 22.6331 128.002 22.469 128.002 22.3049C128.002 22.0094 127.895 21.7385 127.538 21.8206C127.364 21.8617 127.215 21.9601 127.041 21.9848C126.75 22.0258 126.46 21.8452 126.294 21.6072C126.129 21.3692 126.054 21.0738 125.988 20.7947C125.872 20.3269 125.764 19.8344 125.913 19.3748C126.037 18.9973 126.319 18.628 126.17 18.2176C126.095 18.0042 126.095 17.8072 126.261 17.6267C126.444 17.4215 126.676 17.2656 126.916 17.1506C127.372 16.9537 127.944 16.847 128.417 17.0768C128.89 17.3148 129.321 17.6677 129.628 18.0863C129.744 18.2422 129.843 18.4146 129.835 18.6033C129.827 18.8496 129.644 19.0547 129.487 19.2517C129.404 19.3502 129.313 19.4405 129.263 19.5636C129.205 19.7277 129.205 19.9576 129.188 20.1299C129.155 20.4992 129.138 20.8686 129.138 21.2379C129.147 21.5334 129.163 21.8206 129.188 22.1079C129.188 22.1407 129.196 22.1899 129.205 22.2392Z" fill="#F2D3BD"/>
<path d="M129.205 22.2389C129.246 22.4359 129.304 22.6739 129.246 22.8462C129.197 22.9693 128.591 23.3387 128.334 23.2566C128.127 23.1909 127.97 23.0268 127.961 22.8052C127.953 22.6328 128.003 22.4687 128.003 22.3045C128.011 21.8367 127.878 21.3607 127.878 20.8847C127.878 20.3923 127.92 19.8998 128.011 19.4156C128.069 19.1037 128.144 18.7836 128.061 18.4718C128.003 18.2666 127.878 18.0942 127.779 17.9055C127.679 17.7249 127.597 17.5115 127.63 17.3063C127.704 16.8878 128.102 16.9124 128.401 17.0601C128.873 17.2981 129.304 17.651 129.611 18.0696C129.727 18.2255 129.827 18.3979 129.819 18.5867C129.81 18.8329 129.628 19.0381 129.47 19.235C129.387 19.3335 129.296 19.4238 129.246 19.5469C129.188 19.7111 129.188 19.9409 129.172 20.1132C129.139 20.4825 129.122 20.8519 129.122 21.2212C129.13 21.5166 129.147 21.8039 129.172 22.0912C129.188 22.1404 129.197 22.1896 129.205 22.2389Z" fill="#E2B698"/>
<path d="M129.52 16.067C129.313 15.9849 129.097 15.9439 128.89 15.8536C128.6 15.7305 128.359 15.5171 128.086 15.3612C127.878 15.2381 127.646 15.1478 127.414 15.115C127.331 15.0985 127.24 15.0903 127.157 15.0903C126.825 15.0903 126.494 15.2052 126.261 15.435C125.979 15.7141 125.863 16.1327 125.548 16.3789C125.416 16.4774 125.258 16.5512 125.159 16.6826C124.968 16.9288 125.076 17.2981 125.308 17.5033C125.523 17.6839 125.731 17.848 125.847 18.1189C125.872 18.1763 125.897 18.2338 125.938 18.283C125.979 18.324 126.054 18.3487 126.112 18.3158C126.154 18.2912 126.17 18.2338 126.17 18.1763C126.17 18.1271 126.162 18.0696 126.162 18.0204C126.187 17.7988 126.452 17.8316 126.618 17.7906C126.842 17.7331 127.057 17.6428 127.281 17.6018C127.63 17.5279 128.052 17.569 128.268 17.848C128.417 18.0368 128.434 18.2912 128.442 18.521C128.45 19.0545 128.417 19.5962 128.326 20.1214C128.309 20.2281 128.285 20.3348 128.21 20.4087C128.127 20.4826 128.003 20.4908 127.895 20.458C127.787 20.4251 127.688 20.3677 127.596 20.3184C127.132 20.0722 126.56 20.023 126.054 20.1871C125.747 20.2856 125.814 20.6878 125.54 20.8437C125.441 20.9012 125.83 20.8355 125.946 20.7945C125.905 21.0653 125.83 21.8532 125.888 22.083C126.021 22.6247 127.978 23.0022 128.591 21.7383C128.807 21.3033 128.981 20.8519 128.981 20.3677C128.973 19.8834 128.873 19.4074 128.79 18.9314C128.774 18.8493 128.765 18.7672 128.79 18.6852C128.815 18.6113 128.89 18.5374 128.973 18.5538C129.056 18.562 129.105 18.6441 129.139 18.718C129.304 19.0627 129.329 19.4074 129.205 19.7767C129.188 19.8178 129.18 19.8588 129.205 19.8916C129.238 19.9245 129.296 19.9081 129.321 19.8752C129.354 19.8424 129.362 19.7932 129.379 19.7521C129.462 19.5469 129.702 19.4649 129.885 19.3417C130.349 19.0463 130.606 18.2994 130.615 17.7741C130.615 17.0683 130.183 16.3379 129.52 16.067ZM126.941 20.9996C126.775 21.0653 126.601 21.1145 126.427 21.0899C126.278 21.0735 126.162 20.9094 126.038 20.8109C125.971 20.7616 126.029 20.7452 126.145 20.7124C126.328 20.6631 126.477 20.3595 126.568 20.4251C126.834 20.6139 127.132 20.6713 127.43 20.6631C127.605 20.6549 127.107 20.934 126.941 20.9996Z" fill="#151C29"/>
<path d="M129.52 16.0674C129.313 15.9854 129.097 15.9443 128.89 15.854C128.699 15.772 127.696 14.9512 127.58 15.3452C127.547 15.4519 127.605 15.5586 127.671 15.6488C127.887 15.9525 128.21 16.1823 128.566 16.2972C128.857 16.3875 129.197 16.4285 129.371 16.6748C129.47 16.8143 129.487 16.9949 129.454 17.159C129.354 17.7171 128.815 18.0947 128.6 18.6199C128.475 18.9154 128.467 19.2519 128.5 19.572C128.55 20.0316 128.674 20.4994 128.575 20.9508C128.467 21.4761 128.044 21.9275 127.53 22.0999C127.107 22.2476 126.635 22.223 126.22 22.0588C126.162 22.0342 125.98 21.9193 125.93 21.9357C125.855 21.9685 125.872 22.1081 125.897 22.1655C125.946 22.264 126.096 22.3461 126.187 22.3953C126.668 22.6415 127.323 22.6498 127.82 22.4364C128.152 22.2968 128.417 22.0506 128.575 21.7387C128.79 21.3037 128.964 20.8523 128.964 20.3681C128.956 19.8839 128.857 19.4078 128.774 18.9318C128.757 18.8497 128.749 18.7677 128.774 18.6856C128.799 18.6117 128.873 18.5379 128.956 18.5543C129.039 18.5625 129.089 18.6445 129.122 18.7184C129.288 19.0631 129.313 19.4078 129.188 19.7772C129.172 19.8182 129.163 19.8592 129.188 19.8921C129.221 19.9249 129.28 19.9085 129.304 19.8757C129.338 19.8428 129.346 19.7936 129.362 19.7525C129.445 19.5474 129.686 19.4653 129.868 19.3422C130.333 19.0467 130.59 18.2998 130.598 17.7746C130.614 17.0687 130.183 16.3383 129.52 16.0674Z" fill="#151C29"/>
<path d="M130.382 24.135C129.959 25.3004 130.399 28.3782 130.606 29.5354C130.888 31.0948 131.162 29.8883 131.584 31.4149C131.999 32.9086 133.467 36.3885 134.917 37.0615C135.166 37.2585 135.199 36.2326 134.909 36.1259C134.146 35.8468 132.43 32.687 131.999 30.9963C131.725 29.8883 132.322 30.5695 132.231 29.4287C132.14 28.2961 131.667 25.1034 132.123 24.0529C132.273 23.7 132.845 23.4702 132.538 23.224C131.361 22.2965 130.672 23.3553 130.382 24.135Z" fill="#D03816"/>
<path d="M132.123 24.0609C132.272 23.708 132.869 23.4864 132.571 23.2484C132.057 22.8462 131.443 22.6821 130.954 23.1663C130.763 23.3469 132.024 24.2825 132.123 24.0609Z" fill="#D03816"/>
<path d="M125.913 23.7082C125.664 25.0624 126.004 28.2551 125.838 29.4123C125.623 30.9717 125.15 29.8391 125.15 31.3985C125.15 32.9661 124.785 33.3518 124.395 34.9276C124.205 35.1246 124.047 34.1479 124.097 33.9017C124.254 33.1056 124.735 33.0071 124.785 31.2425C124.818 30.1181 124.495 30.4464 124.57 29.3138C124.644 28.1812 124.512 26.3017 124.893 24.2253C125.042 23.4292 125.871 22.6577 126.203 22.6412C126.924 22.6002 126.062 22.9121 125.913 23.7082Z" fill="#D03816"/>
<path d="M134.943 37.1184C135.216 37.2661 135.224 36.2566 134.943 36.1171C134.553 35.9283 134.097 35.3374 133.84 34.9516C133.633 34.6316 133.732 36.47 134.943 37.1184Z" fill="#F04923"/>
</svg>
