<svg preserveAspectRatio="none" viewBox="0 0 1241 466" fill="none" xmlns="http://www.w3.org/2000/svg">
<path fill-rule="evenodd" clip-rule="evenodd" d="M1246 136C1259.81 136 1271 147.193 1271 161V441C1271 454.807 1259.81 466 1246 466H286.676C280.04 466 273.677 463.362 268.988 458.667L245.681 435.333C240.992 430.638 234.629 428 227.993 428H-4C-17.8071 428 -29 416.807 -29 403V25C-29 11.1929 -17.8071 0 -4 0H896.441C903.076 0 909.44 2.63801 914.129 7.33286L1035.32 128.667C1040.01 133.362 1046.37 136 1053.01 136L1246 136Z" fill="#D9EEED"/>
</svg>
