<svg preserveAspectRatio="none" viewBox="0 0 320 593" fill="none" xmlns="http://www.w3.org/2000/svg">
<path fill-rule="evenodd" clip-rule="evenodd" d="M662 25C662 11.1929 673.193 0 687 0H785C798.807 0 810 11.1929 810 25V568C810 581.807 798.807 593 785 593H30.4225C23.7762 593 17.4034 590.353 12.7124 585.645L-155.958 416.355C-160.649 411.647 -167.022 409 -173.668 409H-465C-478.807 409 -490 397.807 -490 384V25C-490 11.1929 -478.807 0 -465 0H272.627C279.267 0 285.633 2.64114 290.323 7.34092L410.389 127.659C415.079 132.359 421.446 135 428.085 135L637 135C650.807 135 662 123.807 662 110L662 25Z" fill="#D9EEED"/>
</svg>
