<svg width="80" height="81" viewBox="0 0 80 81" fill="none" xmlns="http://www.w3.org/2000/svg">
<g clip-path="url(#clip0_563_109475)">
<path d="M67.5328 23.5073L63.7622 25.6955" stroke="#09544F" stroke-width="2" stroke-linecap="round" stroke-linejoin="round"/>
<path d="M63.7491 25.7036L59.9785 27.8914" stroke="#09544F" stroke-width="2" stroke-linecap="round" stroke-linejoin="round"/>
<path d="M59.9655 27.9009L56.1953 30.0879" stroke="#09544F" stroke-width="2" stroke-linecap="round" stroke-linejoin="round"/>
<path d="M63.7697 30.0834L63.7637 25.6943" stroke="#09544F" stroke-width="2" stroke-linecap="round" stroke-linejoin="round"/>
<path d="M63.7622 25.6946L67.5459 23.4976" stroke="#09544F" stroke-width="2" stroke-linecap="round" stroke-linejoin="round"/>
<path d="M67.5461 23.4976L67.54 27.8977" stroke="#09544F" stroke-width="2" stroke-linecap="round" stroke-linejoin="round"/>
<path d="M67.5401 27.8965L63.7695 30.0836" stroke="#09544F" stroke-width="2" stroke-linecap="round" stroke-linejoin="round"/>
<path d="M59.9845 32.2812L59.9785 27.8906" stroke="#09544F" stroke-width="2" stroke-linecap="round" stroke-linejoin="round"/>
<path d="M59.9785 27.8903L63.7622 25.6943" stroke="#09544F" stroke-width="2" stroke-linecap="round" stroke-linejoin="round"/>
<path d="M63.7614 25.6943L63.7554 30.0938" stroke="#09544F" stroke-width="2" stroke-linecap="round" stroke-linejoin="round"/>
<path d="M63.7555 30.0928L59.9849 32.2809" stroke="#09544F" stroke-width="2" stroke-linecap="round" stroke-linejoin="round"/>
<path d="M56.2013 34.477L56.1953 30.0879" stroke="#09544F" stroke-width="2" stroke-linecap="round" stroke-linejoin="round"/>
<path d="M56.1953 30.088L59.9786 27.8906" stroke="#09544F" stroke-width="2" stroke-linecap="round" stroke-linejoin="round"/>
<path d="M59.978 27.8906L59.9717 32.2901" stroke="#09544F" stroke-width="2" stroke-linecap="round" stroke-linejoin="round"/>
<path d="M59.9714 32.29L56.2012 34.4771" stroke="#09544F" stroke-width="2" stroke-linecap="round" stroke-linejoin="round"/>
<path d="M63.7746 34.473L63.7686 30.0835" stroke="#09544F" stroke-width="2" stroke-linecap="round" stroke-linejoin="round"/>
<path d="M63.7686 30.0837L67.5523 27.8877" stroke="#09544F" stroke-width="2" stroke-linecap="round" stroke-linejoin="round"/>
<path d="M67.5509 27.8867L67.5449 32.2873" stroke="#09544F" stroke-width="2" stroke-linecap="round" stroke-linejoin="round"/>
<path d="M67.5449 32.2861L63.7754 34.4739" stroke="#09544F" stroke-width="2" stroke-linecap="round" stroke-linejoin="round"/>
<path d="M59.9909 36.6704L59.9849 32.2812" stroke="#09544F" stroke-width="2" stroke-linecap="round" stroke-linejoin="round"/>
<path d="M59.9849 32.2798L63.7685 30.0835" stroke="#09544F" stroke-width="2" stroke-linecap="round" stroke-linejoin="round"/>
<path d="M63.7672 30.0835L63.7612 34.483" stroke="#09544F" stroke-width="2" stroke-linecap="round" stroke-linejoin="round"/>
<path d="M63.7613 34.4819L59.9907 36.6701" stroke="#09544F" stroke-width="2" stroke-linecap="round" stroke-linejoin="round"/>
<path d="M56.2072 38.8662L56.2012 34.4771" stroke="#09544F" stroke-width="2" stroke-linecap="round" stroke-linejoin="round"/>
<path d="M56.2002 34.4768L59.9839 32.2798" stroke="#09544F" stroke-width="2" stroke-linecap="round" stroke-linejoin="round"/>
<path d="M59.9841 32.2798L59.978 36.6789" stroke="#09544F" stroke-width="2" stroke-linecap="round" stroke-linejoin="round"/>
<path d="M59.9781 36.6792L56.2075 38.8662" stroke="#09544F" stroke-width="2" stroke-linecap="round" stroke-linejoin="round"/>
<path d="M63.7814 38.8623L63.7754 34.4731" stroke="#09544F" stroke-width="2" stroke-linecap="round" stroke-linejoin="round"/>
<path d="M63.7744 34.4733L67.5581 32.2759" stroke="#09544F" stroke-width="2" stroke-linecap="round" stroke-linejoin="round"/>
<path d="M67.5583 32.2759L67.5522 36.6764" stroke="#09544F" stroke-width="2" stroke-linecap="round" stroke-linejoin="round"/>
<path d="M67.5523 36.6753L63.7817 38.8623" stroke="#09544F" stroke-width="2" stroke-linecap="round" stroke-linejoin="round"/>
<path d="M59.9978 41.0581L59.9907 36.6689" stroke="#09544F" stroke-width="2" stroke-linecap="round" stroke-linejoin="round"/>
<path d="M59.9907 36.6691L63.7744 34.4731" stroke="#09544F" stroke-width="2" stroke-linecap="round" stroke-linejoin="round"/>
<path d="M63.7746 34.4731L63.7686 38.8723" stroke="#09544F" stroke-width="2" stroke-linecap="round" stroke-linejoin="round"/>
<path d="M63.7686 38.8711L59.998 41.0592" stroke="#09544F" stroke-width="2" stroke-linecap="round" stroke-linejoin="round"/>
<path d="M56.2136 43.2553L56.2075 38.8662" stroke="#09544F" stroke-width="2" stroke-linecap="round" stroke-linejoin="round"/>
<path d="M56.2075 38.866L59.9909 36.6689" stroke="#09544F" stroke-width="2" stroke-linecap="round" stroke-linejoin="round"/>
<path d="M59.9899 36.6689L59.9839 41.0681" stroke="#09544F" stroke-width="2" stroke-linecap="round" stroke-linejoin="round"/>
<path d="M59.984 41.0684L56.2134 43.2554" stroke="#09544F" stroke-width="2" stroke-linecap="round" stroke-linejoin="round"/>
<path d="M28.0151 74.091V42.3899C28.0718 41.2809 28.3884 40.2013 28.9388 39.2396C29.4893 38.2779 30.2579 37.4615 31.1816 36.8574" stroke="#09544F" stroke-width="2" stroke-linecap="round" stroke-linejoin="round"/>
<path d="M31.1816 36.8572L66.7389 16.1525L68.305 15.2314" stroke="#09544F" stroke-width="2" stroke-linecap="round" stroke-linejoin="round"/>
<path d="M31.1818 77.177C30.2752 77.7078 29.455 77.7217 28.882 77.3249C28.8062 77.2751 28.7387 77.2137 28.6819 77.1427C28.5255 77.0371 28.4028 76.8879 28.3288 76.7134C28.2437 76.5692 28.1807 76.4129 28.1418 76.2498C28.055 75.9481 28.0123 75.6352 28.0153 75.3211M28.0153 42.3899C28.0153 42.2288 28.0284 42.0869 28.0415 41.9391C28.0617 41.6635 28.1112 41.391 28.1892 41.1261C28.2059 41.0192 28.2304 40.9136 28.2625 40.8103C28.2625 40.79 28.2625 40.7757 28.2823 40.7625C28.3521 40.5053 28.441 40.2539 28.5483 40.0103" stroke="#09544F" stroke-width="2" stroke-linecap="round" stroke-linejoin="round"/>
<path d="M28.5684 40.0103V39.9903C28.5847 39.9351 28.6095 39.8828 28.6417 39.8353C28.6842 39.7705 28.7179 39.7004 28.7422 39.6267C28.8223 39.4992 28.8818 39.3645 28.9487 39.2438C28.9866 39.1716 29.029 39.102 29.0755 39.0352C29.0755 39.0152 29.0883 39.0152 29.0883 39.002C29.1803 38.833 29.2875 38.673 29.4087 38.524C29.5631 38.3086 29.732 38.1043 29.9144 37.9126C30.1015 37.7087 30.3021 37.5179 30.5147 37.3414C30.5151 37.3327 30.5188 37.3244 30.525 37.3182C30.5312 37.3121 30.5394 37.3085 30.548 37.3082C30.747 37.1412 30.9589 36.9905 31.1817 36.8574" stroke="#09544F" stroke-width="2" stroke-linecap="round" stroke-linejoin="round"/>
<path d="M68.3184 15.2384C68.5449 15.1069 68.7839 14.9987 69.0319 14.9155C69.0925 14.8875 69.1579 14.8717 69.2245 14.8687C69.3722 14.8264 69.5251 14.806 69.6786 14.808C69.8092 14.7982 69.9406 14.8143 70.065 14.8555C70.1694 14.8711 70.2706 14.9029 70.3653 14.9498C70.3781 14.9498 70.378 14.963 70.3982 14.963C70.407 14.9624 70.4157 14.9639 70.4238 14.9674C70.4319 14.9709 70.439 14.9762 70.4446 14.983C70.4614 14.9813 70.4783 14.986 70.4918 14.9962C71.1112 15.2991 71.4915 16.0178 71.4915 17.0729V45.1524" stroke="#09544F" stroke-width="2" stroke-linecap="round" stroke-linejoin="round"/>
<path d="M71.4913 49.374V50.013C71.4913 51.7665 70.4242 53.8646 69.0176 55.0472" stroke="#09544F" stroke-width="2" stroke-linecap="round" stroke-linejoin="round"/>
<path d="M31.9277 44.272V65.2725C31.9277 65.5882 32.1476 65.7157 32.4147 65.5607" stroke="#09544F" stroke-width="2" stroke-linecap="round" stroke-linejoin="round"/>
<path d="M67.5721 42.8665V40.2783L65.3583 41.5756M57.781 48.6679V49.5955L58.5874 49.1319M55.4883 47.3235V49.9924L57.768 48.654" stroke="#09544F" stroke-width="2" stroke-linecap="round" stroke-linejoin="round"/>
<path d="M60.3802 56.6607V55.2363L59.1475 55.948" stroke="#09544F" stroke-width="2" stroke-linecap="round" stroke-linejoin="round"/>
<path d="M6.48089 26.1694C5.91608 27.1229 5.59981 28.2051 5.56152 29.3152V62.2539C5.64087 63.2551 5.68794 63.6652 6.48089 64.3174" stroke="#09544F" stroke-width="2" stroke-linecap="round" stroke-linejoin="round"/>
<path d="M28.9487 77.3916C28.1557 76.7337 28.1086 76.3297 28.0151 75.3282V42.3898C28.0522 41.2774 28.3738 40.1937 28.9487 39.2437" stroke="#09544F" stroke-width="2" stroke-linecap="round" stroke-linejoin="round"/>
<path d="M32.6411 71.396V73.0229L34.2536 72.0815" stroke="#09544F" stroke-width="2" stroke-linecap="round" stroke-linejoin="round"/>
<path d="M64.0867 52.3312L55.4683 47.3234L65.3584 41.5757L73.9641 46.5846" stroke="#09544F" stroke-width="2" stroke-linecap="round" stroke-linejoin="round"/>
<path fill-rule="evenodd" clip-rule="evenodd" d="M65.3394 49.932C65.2323 49.9883 65.1133 50.0178 64.9926 50.0178C64.8719 50.0178 64.753 49.9883 64.646 49.932C63.9331 49.5148 63.1993 49.0916 62.4935 48.6744C62.4513 48.6606 62.4145 48.6337 62.3884 48.5975C62.3623 48.5613 62.3481 48.5177 62.3481 48.4729C62.3481 48.4282 62.3623 48.3846 62.3884 48.3484C62.4145 48.3122 62.4513 48.2852 62.4935 48.2715C62.9936 47.9757 63.6327 47.6064 64.1328 47.3167C64.241 47.2604 64.3609 47.231 64.4826 47.231C64.6044 47.231 64.7244 47.2604 64.8326 47.3167C65.5462 47.7339 66.259 48.1511 66.9917 48.5744C67.0326 48.5887 67.0682 48.6155 67.0933 48.651C67.1184 48.6866 67.1318 48.7291 67.1318 48.7728C67.1318 48.8164 67.1184 48.859 67.0933 48.8945C67.0682 48.9301 67.0326 48.9569 66.9917 48.9712C66.4789 49.2669 65.8455 49.6434 65.3394 49.932Z" stroke="#09544F" stroke-width="2" stroke-linecap="round" stroke-linejoin="round"/>
<path d="M42.0188 76.6126L32.8481 71.2613L59.1477 55.9482" stroke="#09544F" stroke-width="2" stroke-linecap="round" stroke-linejoin="round"/>
<path d="M38.519 56.4595C40.2459 55.3569 42.1782 54.2471 44.0916 53.1384C44.6781 52.8083 45.251 52.0286 45.251 51.3574V47.9888C45.251 47.5455 44.6781 47.2023 44.0916 47.5384C42.3651 48.5335 40.8462 49.4408 39.486 50.3016C38.9126 50.6577 38.519 50.4098 38.519 49.7376V46.3761C38.5537 46.0441 38.6579 45.7231 38.8245 45.4346C38.9912 45.1461 39.2167 44.8965 39.486 44.7023C41.0389 43.7272 42.7455 42.7057 44.6781 41.603" stroke="#09544F" stroke-width="2" stroke-linecap="round" stroke-linejoin="round"/>
<path fill-rule="evenodd" clip-rule="evenodd" d="M60.9063 60.7615C61.5395 60.3921 61.5394 59.7996 60.92 59.4374C60.5681 59.2587 60.1792 59.1667 59.7853 59.169C59.3913 59.1712 59.0034 59.2676 58.6535 59.4502C58.021 59.8199 58.008 60.4111 58.6274 60.7686C58.9811 60.948 59.3717 61.0409 59.7677 61.0396C60.1636 61.0384 60.5537 60.9431 60.9063 60.7615Z" stroke="#09544F" stroke-width="2" stroke-linecap="round" stroke-linejoin="round"/>
<path fill-rule="evenodd" clip-rule="evenodd" d="M41.1322 72.2699C40.7819 72.4508 40.3944 72.5462 40.0009 72.5485C39.6073 72.5508 39.2187 72.4599 38.8663 72.2831C38.2459 71.9205 38.2662 71.329 38.8795 70.9597C39.2333 70.7787 39.6239 70.6832 40.0206 70.6807C40.4173 70.6782 40.8091 70.7688 41.1651 70.9454C41.7856 71.309 41.7654 71.9002 41.1322 72.2699Z" stroke="#09544F" stroke-width="2" stroke-linecap="round" stroke-linejoin="round"/>
<path d="M50.2891 68.8008C51.5892 68.0414 52.8892 67.3024 54.4552 66.448C54.9022 66.2069 54.882 65.8565 54.4552 65.6086C53.9021 65.2725 53.1885 64.8553 52.4756 64.4381C52.2517 64.3342 52.0081 64.281 51.7616 64.2822C51.5152 64.2835 51.272 64.3391 51.0491 64.4453C49.9098 65.1175 48.6097 65.7897 47.61 66.3751C47.3928 66.5005 47.1469 66.5664 46.8967 66.5664C46.6465 66.5664 46.4006 66.5005 46.1835 66.3751C45.6172 66.0447 44.4245 65.3525 43.7119 64.9364" stroke="#09544F" stroke-width="2" stroke-linecap="round" stroke-linejoin="round"/>
<path d="M44.2841 3.07129L8.73389 23.7817" stroke="#09544F" stroke-width="2" stroke-linecap="round" stroke-linejoin="round"/>
<path d="M8.73362 23.7817C7.80813 24.3848 7.03792 25.2009 6.48642 26.163C5.93493 27.125 5.61792 28.2054 5.56152 29.3153" stroke="#09544F" stroke-width="2" stroke-linecap="round" stroke-linejoin="round"/>
<path d="M6.48096 64.3174L28.9487 77.3915" stroke="#09544F" stroke-width="2" stroke-linecap="round" stroke-linejoin="round"/>
<path d="M68.3052 15.2315C69.2245 14.8082 69.5852 14.6471 70.5509 15.0107" stroke="#09544F" stroke-width="2" stroke-linecap="round" stroke-linejoin="round"/>
<path d="M70.5508 15.0106L48.104 1.93506" stroke="#09544F" stroke-width="2" stroke-linecap="round" stroke-linejoin="round"/>
<path d="M48.1039 1.93504C47.1375 1.57284 46.771 1.73359 45.8506 2.15688" stroke="#09544F" stroke-width="2" stroke-linecap="round" stroke-linejoin="round"/>
<path d="M45.8506 2.15674L44.2842 3.07112" stroke="#09544F" stroke-width="2" stroke-linecap="round" stroke-linejoin="round"/>
<path d="M37.0934 73.7285L31.1816 77.1768" stroke="#09544F" stroke-width="2" stroke-linecap="round" stroke-linejoin="round"/>
<path d="M69.0174 55.0469L63.3457 58.3819" stroke="#09544F" stroke-width="2" stroke-linecap="round" stroke-linejoin="round"/>
<path d="M32.4146 65.5608L51.3497 54.5298" stroke="#09544F" stroke-width="2" stroke-linecap="round" stroke-linejoin="round"/>
<path d="M51.3496 54.5296C51.4924 54.438 51.6115 54.3135 51.6972 54.1663C51.7829 54.0191 51.8327 53.8535 51.8425 53.6831" stroke="#09544F" stroke-width="2" stroke-linecap="round" stroke-linejoin="round"/>
<path d="M51.8428 53.683V32.6758" stroke="#09544F" stroke-width="2" stroke-linecap="round" stroke-linejoin="round"/>
<path d="M51.8425 32.6755C51.8425 32.3666 51.6226 32.239 51.3496 32.393" stroke="#09544F" stroke-width="2" stroke-linecap="round" stroke-linejoin="round"/>
<path d="M51.3497 32.3931L32.4146 43.4173" stroke="#09544F" stroke-width="2" stroke-linecap="round" stroke-linejoin="round"/>
<path d="M32.4147 43.4175C32.2738 43.5125 32.1566 43.6391 32.0721 43.7873C31.9877 43.9355 31.9383 44.1013 31.9277 44.2719" stroke="#09544F" stroke-width="2" stroke-linecap="round" stroke-linejoin="round"/>
<path d="M28.9487 39.2436L6.48096 26.1694" stroke="#09544F" stroke-width="2" stroke-linecap="round" stroke-linejoin="round"/>
<path d="M73.9639 46.5845C74.5964 46.9538 74.5964 47.5653 73.9639 47.935" stroke="#09544F" stroke-width="2" stroke-linecap="round" stroke-linejoin="round"/>
<path d="M73.964 47.9351L66.4058 52.3313" stroke="#09544F" stroke-width="2" stroke-linecap="round" stroke-linejoin="round"/>
<path d="M66.4059 52.3315C66.0461 52.5139 65.6491 52.6088 65.2465 52.6088C64.8438 52.6088 64.4467 52.5139 64.0869 52.3315" stroke="#09544F" stroke-width="2" stroke-linecap="round" stroke-linejoin="round"/>
<path d="M59.1475 55.9478L68.3379 61.292" stroke="#09544F" stroke-width="2" stroke-linecap="round" stroke-linejoin="round"/>
<path d="M68.3379 61.292C69.4312 61.9306 69.4312 62.9654 68.3379 63.6116" stroke="#09544F" stroke-width="2" stroke-linecap="round" stroke-linejoin="round"/>
<path d="M68.3379 63.6118L46.0107 76.6124" stroke="#09544F" stroke-width="2" stroke-linecap="round" stroke-linejoin="round"/>
<path d="M46.0108 76.6123C45.3918 76.9272 44.708 77.0913 44.0146 77.0913C43.3213 77.0913 42.6376 76.9272 42.0186 76.6123" stroke="#09544F" stroke-width="2" stroke-linecap="round" stroke-linejoin="round"/>
<path d="M41.7856 40.7959V57.158" stroke="#09544F" stroke-width="2" stroke-linecap="round" stroke-linejoin="round"/>
<path d="M43.478 75.059L46.251 73.4463" stroke="#09544F" stroke-width="2" stroke-linecap="round" stroke-linejoin="round"/>
<path d="M62.9204 63.7393L65.692 62.1255" stroke="#09544F" stroke-width="2" stroke-linecap="round" stroke-linejoin="round"/>
<path d="M46.0571 63.5708C49.3238 65.4057 50.8898 66.4544 54.1557 68.3703" stroke="#09544F" stroke-width="2" stroke-linecap="round" stroke-linejoin="round"/>
<path d="M70.6311 47.2023L69.0049 46.2554" stroke="#09544F" stroke-width="2" stroke-linecap="round" stroke-linejoin="round"/>
<path d="M67.3526 45.2868L65.7192 44.3389" stroke="#09544F" stroke-width="2" stroke-linecap="round" stroke-linejoin="round"/>
<path d="M64.0725 43.3777L63.1528 42.8462" stroke="#09544F" stroke-width="2" stroke-linecap="round" stroke-linejoin="round"/>
</g>
<defs>
<clipPath id="clip0_563_109475">
<rect width="80" height="80" fill="white" transform="translate(0 0.167969)"/>
</clipPath>
</defs>
</svg>
