<svg width="19" height="18" viewBox="0 0 19 18" fill="none" xmlns="http://www.w3.org/2000/svg">
<g clip-path="url(#clip0)">
<path d="M18.1367 4.67211C18.0357 4.29249 17.8391 3.94646 17.5666 3.66838C17.294 3.3903 16.955 3.18984 16.5831 3.08691C15.2033 2.7002 9.685 2.7002 9.685 2.7002C9.685 2.7002 4.16632 2.7002 2.78691 3.07109C2.41515 3.17948 2.07694 3.38368 1.8048 3.66406C1.53265 3.94444 1.33572 4.29158 1.23293 4.67211C0.869995 6.08082 0.869995 9.0016 0.869995 9.0016C0.869995 9.0016 0.869995 11.9375 1.23293 13.3311C1.3339 13.711 1.53045 14.0573 1.80306 14.3356C2.07567 14.6139 2.41485 14.8146 2.78691 14.9177C4.18113 15.3044 9.685 15.3044 9.685 15.3044C9.685 15.3044 15.2033 15.3044 16.5831 14.9339C16.9552 14.8308 17.2944 14.6302 17.567 14.3518C17.8396 14.0735 18.0362 13.7272 18.1371 13.3473C18.5 11.9375 18.5 9.01637 18.5 9.01637C18.5 9.01637 18.5145 6.08082 18.1367 4.67211Z" fill="#FF0000"/>
<path d="M7.92889 11.7004L12.5179 9.00181L7.92889 6.30322V11.7004Z" fill="white"/>
</g>
<defs>
<clipPath id="clip0">
<rect width="17.63" height="18" fill="white" transform="translate(0.869995)"/>
</clipPath>
</defs>
</svg>
