<svg id="Capa_1" data-name="Capa 1" xmlns="http://www.w3.org/2000/svg" viewBox="0 0 363 363">
    <defs>
        <style>.cls-1{fill:#50812F;}.cls-2{opacity:0.25;isolation:isolate;}.cls-3{fill:#fff;}</style>
    </defs>
    <title>Zendesk</title>
    <rect class="cls-1" width="363" height="363"/>
    <polygon class="cls-2"
             points="362.8 115.5 363 363 145.8 363 54.4 271.6 191.7 271.3 194.4 191.3 300.3 190.7 313.7 170 313.1 65.8 362.8 115.5"/>
    <path class="cls-3"
          d="M287.8,54.4h-106c-18.4,0-33.7,14.8-33.7,33.2v46.7H75.6A33.72,33.72,0,0,0,42,167.8v77.9c0,18.4,15.2,33.1,33.6,33.1h97.5l30.3,27.8a7,7,0,0,0,4.7,1.9,6.6,6.6,0,0,0,2.7-.6,6.9,6.9,0,0,0,4.1-6.3V198.8h72.8a33.29,33.29,0,0,0,33.2-33.4V87.7A33,33,0,0,0,287.8,54.4ZM86.6,216.6h-1a11.5,11.5,0,0,1,0-23h1a11.5,11.5,0,0,1,0,23Zm39.9,0h-1a11.5,11.5,0,0,1,0-23h1a11.5,11.5,0,1,1,0,23Zm180.7-51.1a19.46,19.46,0,0,1-19.4,19.6H194c-8.3-.2-9.9.8-16.3,6.6-.5.5-1.2,1-1.9,1.6l-13.9,12.6V87.7c0-10.8,9.1-19.4,19.9-19.4h106a19.29,19.29,0,0,1,19.4,19.4h0Z"
          transform="translate(0 0)"/>
</svg>
